pitchwheel channel=1 pitch=0 time=5
pitchwheel channel=8 pitch=0 time=5
pitchwheel channel=3 pitch=0 time=5
pitchwheel channel=4 pitch=0 time=5
pitchwheel channel=6 pitch=0 time=5
pitchwheel channel=7 pitch=0 time=5
pitchwheel channel=9 pitch=0 time=5
pitchwheel channel=2 pitch=0 time=5
pitchwheel channel=10 pitch=0 time=0
pitchwheel channel=5 pitch=0 time=0
note_on channel=8 note=48 velocity=98 time=422
note_on channel=10 note=48 velocity=64 time=0
note_on channel=8 note=55 velocity=100 time=11
note_on channel=10 note=55 velocity=66 time=0
note_off channel=8 note=48 velocity=0 time=31
note_off channel=10 note=48 velocity=0 time=0
note_off channel=8 note=55 velocity=0 time=16
note_off channel=10 note=55 velocity=0 time=0
note_on channel=8 note=48 velocity=115 time=182
note_on channel=10 note=48 velocity=81 time=0
note_on channel=8 note=55 velocity=100 time=11
note_on channel=10 note=55 velocity=66 time=0
note_off channel=8 note=48 velocity=0 time=34
note_off channel=10 note=48 velocity=0 time=0
note_off channel=8 note=55 velocity=0 time=5
note_off channel=10 note=55 velocity=0 time=0
note_on channel=8 note=48 velocity=83 time=190
note_on channel=10 note=48 velocity=49 time=0
note_on channel=8 note=55 velocity=87 time=11
note_on channel=10 note=55 velocity=53 time=0
note_off channel=8 note=48 velocity=0 time=22
note_off channel=10 note=48 velocity=0 time=0
note_off channel=8 note=55 velocity=0 time=12
note_off channel=10 note=55 velocity=0 time=0
note_on channel=8 note=48 velocity=102 time=195
note_on channel=10 note=48 velocity=68 time=0
note_on channel=8 note=55 velocity=87 time=11
note_on channel=10 note=55 velocity=53 time=0
note_off channel=8 note=48 velocity=0 time=29
note_off channel=10 note=48 velocity=0 time=0
note_off channel=8 note=55 velocity=0 time=12
note_off channel=10 note=55 velocity=0 time=0
note_on channel=8 note=48 velocity=87 time=188
note_on channel=10 note=48 velocity=53 time=0
note_on channel=8 note=55 velocity=75 time=11
note_on channel=10 note=55 velocity=41 time=0
note_off channel=8 note=48 velocity=0 time=27
note_off channel=10 note=48 velocity=0 time=0
note_off channel=8 note=55 velocity=0 time=11
note_off channel=10 note=55 velocity=0 time=0
note_on channel=8 note=48 velocity=110 time=191
note_on channel=10 note=48 velocity=76 time=0
note_on channel=8 note=55 velocity=87 time=11
note_on channel=10 note=55 velocity=53 time=0
note_off channel=8 note=48 velocity=0 time=34
note_off channel=10 note=48 velocity=0 time=0
note_off channel=8 note=55 velocity=0 time=9
note_off channel=10 note=55 velocity=0 time=0
note_on channel=8 note=48 velocity=115 time=186
note_on channel=10 note=48 velocity=81 time=0
note_on channel=8 note=55 velocity=95 time=11
note_on channel=10 note=55 velocity=61 time=0
note_off channel=8 note=48 velocity=0 time=34
note_off channel=10 note=48 velocity=0 time=0
note_off channel=8 note=55 velocity=0 time=5
note_off channel=10 note=55 velocity=0 time=0
note_on channel=8 note=48 velocity=115 time=190
note_on channel=10 note=48 velocity=81 time=0
note_on channel=8 note=55 velocity=87 time=11
note_on channel=10 note=55 velocity=53 time=0
note_off channel=8 note=48 velocity=0 time=35
note_off channel=10 note=48 velocity=0 time=0
note_off channel=8 note=55 velocity=0 time=3
note_off channel=10 note=55 velocity=0 time=0
note_on channel=8 note=48 velocity=102 time=191
note_on channel=10 note=48 velocity=64 time=0
note_on channel=8 note=55 velocity=80 time=11
note_on channel=10 note=55 velocity=66 time=0
note_off channel=10 note=48 velocity=0 time=31
note_off channel=8 note=55 velocity=0 time=2
note_off channel=8 note=48 velocity=0 time=1
note_off channel=10 note=55 velocity=0 time=13
note_on channel=8 note=48 velocity=110 time=182
note_on channel=10 note=48 velocity=81 time=0
note_on channel=8 note=55 velocity=91 time=11
note_on channel=10 note=55 velocity=66 time=0
note_off channel=10 note=48 velocity=0 time=34
note_off channel=8 note=48 velocity=0 time=2
note_off channel=10 note=55 velocity=0 time=3
note_off channel=8 note=55 velocity=0 time=5
note_on channel=8 note=48 velocity=110 time=185
note_on channel=10 note=48 velocity=49 time=0
note_on channel=8 note=55 velocity=91 time=11
note_on channel=10 note=55 velocity=53 time=0
note_off channel=10 note=48 velocity=0 time=22
note_off channel=8 note=48 velocity=0 time=11
note_off channel=10 note=55 velocity=0 time=1
note_off channel=8 note=55 velocity=0 time=2
note_on channel=8 note=48 velocity=115 time=193
note_on channel=10 note=48 velocity=68 time=0
note_on channel=8 note=55 velocity=87 time=11
note_on channel=10 note=55 velocity=53 time=0
note_off channel=10 note=48 velocity=0 time=29
note_off channel=8 note=48 velocity=0 time=11
note_off channel=10 note=55 velocity=0 time=1
note_off channel=8 note=55 velocity=0 time=3
note_on channel=8 note=48 velocity=102 time=185
note_on channel=10 note=48 velocity=53 time=0
note_on channel=8 note=55 velocity=91 time=11
note_on channel=10 note=55 velocity=41 time=0
note_off channel=10 note=48 velocity=0 time=27
note_off channel=10 note=55 velocity=0 time=11
note_off channel=8 note=48 velocity=0 time=3
note_off channel=8 note=55 velocity=0 time=7
note_on channel=8 note=48 velocity=110 time=181
note_on channel=10 note=48 velocity=76 time=0
note_on channel=8 note=55 velocity=91 time=11
note_on channel=10 note=55 velocity=53 time=0
note_off channel=8 note=48 velocity=0 time=34
note_off channel=10 note=48 velocity=0 time=0
note_off channel=10 note=55 velocity=0 time=9
note_off channel=8 note=55 velocity=0 time=7
note_on channel=8 note=48 velocity=115 time=179
note_on channel=10 note=48 velocity=81 time=0
note_on channel=8 note=55 velocity=83 time=11
note_on channel=10 note=55 velocity=61 time=0
note_off channel=8 note=48 velocity=0 time=33
note_off channel=10 note=48 velocity=0 time=1
note_off channel=10 note=55 velocity=0 time=5
note_off channel=8 note=55 velocity=0 time=7
note_on channel=8 note=48 velocity=120 time=183
note_on channel=10 note=48 velocity=81 time=0
note_on channel=8 note=55 velocity=105 time=11
note_on channel=10 note=55 velocity=53 time=0
note_off channel=10 note=48 velocity=0 time=35
note_off channel=8 note=48 velocity=0 time=1
note_off channel=10 note=55 velocity=0 time=2
note_off channel=8 note=55 velocity=0 time=16
note_on channel=3 note=77 velocity=115 time=0
note_on channel=8 note=48 velocity=98 time=1
note_on channel=10 note=48 velocity=64 time=0
note_on channel=8 note=55 velocity=100 time=11
note_on channel=10 note=55 velocity=66 time=0
note_off channel=8 note=48 velocity=0 time=31
note_off channel=10 note=48 velocity=0 time=0
pitchwheel channel=3 pitch=520 time=13
note_off channel=8 note=55 velocity=0 time=3
note_off channel=10 note=55 velocity=0 time=0
pitchwheel channel=3 pitch=910 time=12
pitchwheel channel=3 pitch=1170 time=10
pitchwheel channel=3 pitch=1560 time=11
pitchwheel channel=3 pitch=1950 time=14
pitchwheel channel=3 pitch=2340 time=12
pitchwheel channel=3 pitch=2730 time=13
pitchwheel channel=3 pitch=3250 time=15
pitchwheel channel=3 pitch=3640 time=17
pitchwheel channel=3 pitch=4030 time=17
pitchwheel channel=3 pitch=4290 time=12
pitchwheel channel=3 pitch=4420 time=11
pitchwheel channel=3 pitch=4680 time=19
pitchwheel channel=3 pitch=4810 time=13
note_on channel=8 note=48 velocity=115 time=6
note_on channel=10 note=48 velocity=81 time=0
pitchwheel channel=3 pitch=5070 time=6
note_on channel=8 note=55 velocity=100 time=5
note_on channel=10 note=55 velocity=66 time=0
pitchwheel channel=3 pitch=5460 time=14
pitchwheel channel=3 pitch=5850 time=15
note_off channel=8 note=48 velocity=0 time=5
note_off channel=10 note=48 velocity=0 time=0
note_off channel=8 note=55 velocity=0 time=5
note_off channel=10 note=55 velocity=0 time=0
pitchwheel channel=3 pitch=6370 time=5
pitchwheel channel=3 pitch=6500 time=11
pitchwheel channel=3 pitch=6760 time=11
pitchwheel channel=3 pitch=6890 time=20
note_off channel=3 note=77 velocity=0 time=78
pitchwheel channel=3 pitch=6630 time=12
pitchwheel channel=3 pitch=5980 time=12
pitchwheel channel=3 pitch=5070 time=12
pitchwheel channel=3 pitch=4160 time=12
pitchwheel channel=3 pitch=3250 time=11
note_on channel=8 note=48 velocity=83 time=6
note_on channel=10 note=48 velocity=49 time=0
pitchwheel channel=3 pitch=2340 time=4
note_on channel=8 note=55 velocity=87 time=7
note_on channel=10 note=55 velocity=53 time=0
note_on channel=3 note=77 velocity=115 time=0
pitchwheel channel=3 pitch=1560 time=3
pitchwheel channel=3 pitch=1170 time=12
note_off channel=8 note=48 velocity=0 time=3
note_off channel=10 note=48 velocity=0 time=0
note_off channel=8 note=55 velocity=0 time=12
note_off channel=10 note=55 velocity=0 time=0
pitchwheel channel=3 pitch=1560 time=43
pitchwheel channel=3 pitch=1950 time=12
pitchwheel channel=3 pitch=2470 time=14
pitchwheel channel=3 pitch=2860 time=10
pitchwheel channel=3 pitch=3250 time=10
pitchwheel channel=3 pitch=3640 time=10
pitchwheel channel=3 pitch=4290 time=12
pitchwheel channel=3 pitch=4940 time=11
pitchwheel channel=3 pitch=5330 time=11
pitchwheel channel=3 pitch=5980 time=13
pitchwheel channel=3 pitch=6370 time=15
pitchwheel channel=3 pitch=6630 time=14
pitchwheel channel=3 pitch=6760 time=15
note_on channel=8 note=48 velocity=102 time=5
note_on channel=10 note=48 velocity=68 time=0
pitchwheel channel=3 pitch=7020 time=10
note_on channel=8 note=55 velocity=87 time=1
note_on channel=10 note=55 velocity=53 time=0
pitchwheel channel=3 pitch=7280 time=24
note_off channel=8 note=48 velocity=0 time=5
note_off channel=10 note=48 velocity=0 time=0
note_off channel=8 note=55 velocity=0 time=12
note_off channel=10 note=55 velocity=0 time=0
pitchwheel channel=3 pitch=7410 time=35
pitchwheel channel=3 pitch=7670 time=44
pitchwheel channel=3 pitch=7800 time=17
pitchwheel channel=3 pitch=8060 time=21
note_off channel=3 note=77 velocity=0 time=65
note_on channel=3 note=77 velocity=97 time=0
note_on channel=8 note=48 velocity=87 time=0
note_on channel=10 note=48 velocity=53 time=0
pitchwheel channel=3 pitch=7020 time=2
note_on channel=8 note=55 velocity=75 time=9
note_on channel=10 note=55 velocity=41 time=0
pitchwheel channel=3 pitch=5200 time=2
pitchwheel channel=3 pitch=2600 time=10
pitchwheel channel=3 pitch=260 time=10
note_off channel=8 note=48 velocity=0 time=5
note_off channel=10 note=48 velocity=0 time=0
note_off channel=8 note=55 velocity=0 time=11
note_off channel=10 note=55 velocity=0 time=0
pitchwheel channel=3 pitch=0 time=1
note_off channel=3 note=77 velocity=0 time=35
note_on channel=3 note=75 velocity=97 time=86
note_on channel=8 note=48 velocity=110 time=69
note_on channel=10 note=48 velocity=76 time=0
note_on channel=8 note=55 velocity=87 time=11
note_on channel=10 note=55 velocity=53 time=0
note_off channel=3 note=75 velocity=0 time=6
note_on channel=3 note=72 velocity=120 time=0
note_off channel=8 note=48 velocity=0 time=14
note_off channel=10 note=48 velocity=0 time=0
note_off channel=8 note=55 velocity=0 time=9
note_off channel=10 note=55 velocity=0 time=0
note_on channel=8 note=48 velocity=115 time=186
note_on channel=10 note=48 velocity=81 time=0
note_on channel=8 note=55 velocity=95 time=11
note_on channel=10 note=55 velocity=61 time=0
note_off channel=8 note=48 velocity=0 time=34
note_off channel=10 note=48 velocity=0 time=0
note_off channel=8 note=55 velocity=0 time=5
note_off channel=10 note=55 velocity=0 time=0
note_on channel=8 note=48 velocity=115 time=190
note_on channel=10 note=48 velocity=81 time=0
note_on channel=8 note=55 velocity=87 time=11
note_on channel=10 note=55 velocity=53 time=0
note_off channel=8 note=48 velocity=0 time=35
note_off channel=10 note=48 velocity=0 time=0
note_off channel=3 note=72 velocity=0 time=3
note_off channel=8 note=55 velocity=0 time=0
note_off channel=10 note=55 velocity=0 time=0
pitchwheel channel=3 pitch=-896 time=139
pitchwheel channel=3 pitch=-2176 time=10
pitchwheel channel=3 pitch=-3712 time=10
pitchwheel channel=3 pitch=-5248 time=10
pitchwheel channel=3 pitch=-6656 time=13
note_on channel=8 note=48 velocity=102 time=9
note_on channel=10 note=48 velocity=68 time=0
pitchwheel channel=3 pitch=-7552 time=3
note_on channel=3 note=79 velocity=120 time=0
note_on channel=8 note=55 velocity=80 time=2
note_on channel=10 note=55 velocity=46 time=0
pitchwheel channel=3 pitch=-8064 time=2
pitchwheel channel=3 pitch=-7808 time=30
note_off channel=8 note=55 velocity=0 time=1
note_off channel=10 note=55 velocity=0 time=0
note_off channel=8 note=48 velocity=0 time=1
note_off channel=10 note=48 velocity=0 time=0
pitchwheel channel=3 pitch=-6912 time=8
pitchwheel channel=3 pitch=-5504 time=11
pitchwheel channel=3 pitch=-4096 time=10
pitchwheel channel=3 pitch=-2560 time=10
pitchwheel channel=3 pitch=-896 time=13
pitchwheel channel=3 pitch=0 time=10
note_off channel=3 note=79 velocity=0 time=65
pitchwheel channel=3 pitch=-128 time=13
pitchwheel channel=3 pitch=-2176 time=10
pitchwheel channel=3 pitch=-4608 time=10
pitchwheel channel=3 pitch=-6912 time=10
pitchwheel channel=3 pitch=-8192 time=10
note_on channel=8 note=43 velocity=110 time=15
note_on channel=10 note=43 velocity=76 time=0
note_on channel=3 note=79 velocity=102 time=0
note_on channel=8 note=50 velocity=91 time=3
note_on channel=10 note=50 velocity=57 time=0
note_off channel=8 note=43 velocity=0 time=36
note_off channel=10 note=43 velocity=0 time=0
pitchwheel channel=3 pitch=-7040 time=5
note_off channel=8 note=50 velocity=0 time=3
note_off channel=10 note=50 velocity=0 time=0
pitchwheel channel=3 pitch=-5120 time=7
pitchwheel channel=3 pitch=-2688 time=10
pitchwheel channel=3 pitch=0 time=10
note_off channel=3 note=79 velocity=0 time=98
note_on channel=3 note=77 velocity=106 time=0
note_on channel=8 note=43 velocity=110 time=7
note_on channel=10 note=43 velocity=76 time=0
note_on channel=8 note=50 velocity=91 time=11
note_on channel=10 note=50 velocity=57 time=0
note_off channel=8 note=43 velocity=0 time=33
note_off channel=10 note=43 velocity=0 time=0
note_off channel=8 note=50 velocity=0 time=3
note_off channel=10 note=50 velocity=0 time=0
note_on channel=3 note=75 velocity=123 time=0
note_off channel=3 note=77 velocity=0 time=16
note_on channel=8 note=43 velocity=115 time=8
note_on channel=10 note=43 velocity=81 time=0
note_on channel=8 note=50 velocity=87 time=11
note_on channel=10 note=50 velocity=53 time=0
note_off channel=8 note=43 velocity=0 time=40
note_off channel=10 note=43 velocity=0 time=0
note_off channel=8 note=50 velocity=0 time=4
note_off channel=10 note=50 velocity=0 time=0
note_on channel=8 note=43 velocity=102 time=185
note_on channel=10 note=43 velocity=68 time=0
note_on channel=8 note=50 velocity=91 time=11
note_on channel=10 note=50 velocity=57 time=0
note_off channel=8 note=43 velocity=0 time=41
note_off channel=10 note=43 velocity=0 time=0
note_off channel=8 note=50 velocity=0 time=7
note_off channel=10 note=50 velocity=0 time=0
note_off channel=3 note=75 velocity=0 time=119
note_on channel=3 note=72 velocity=125 time=0
note_on channel=8 note=43 velocity=110 time=28
note_on channel=10 note=43 velocity=76 time=0
note_on channel=8 note=50 velocity=91 time=11
note_on channel=10 note=50 velocity=57 time=0
note_off channel=8 note=43 velocity=0 time=34
note_off channel=10 note=43 velocity=0 time=0
note_off channel=8 note=50 velocity=0 time=16
note_off channel=10 note=50 velocity=0 time=0
note_on channel=8 note=43 velocity=115 time=179
note_on channel=10 note=43 velocity=81 time=0
note_on channel=8 note=50 velocity=83 time=11
note_on channel=10 note=50 velocity=49 time=0
note_off channel=8 note=43 velocity=0 time=33
note_off channel=10 note=43 velocity=0 time=0
note_off channel=8 note=50 velocity=0 time=13
note_off channel=10 note=50 velocity=0 time=0
note_off channel=3 note=72 velocity=0 time=78
note_on channel=8 note=43 velocity=120 time=105
note_on channel=10 note=43 velocity=86 time=0
note_on channel=8 note=50 velocity=105 time=11
note_on channel=10 note=50 velocity=71 time=0
note_off channel=8 note=43 velocity=0 time=36
note_off channel=10 note=43 velocity=0 time=0
note_off channel=8 note=50 velocity=0 time=18
note_off channel=10 note=50 velocity=0 time=0
note_on channel=8 note=43 velocity=120 time=175
note_on channel=10 note=43 velocity=86 time=0
note_on channel=8 note=50 velocity=105 time=11
note_on channel=10 note=50 velocity=71 time=0
note_on channel=3 note=77 velocity=110 time=0
note_off channel=8 note=43 velocity=0 time=30
note_off channel=10 note=43 velocity=0 time=0
note_off channel=8 note=50 velocity=0 time=18
note_off channel=10 note=50 velocity=0 time=0
pitchwheel channel=3 pitch=650 time=46
pitchwheel channel=3 pitch=1040 time=11
pitchwheel channel=3 pitch=1430 time=16
pitchwheel channel=3 pitch=1820 time=13
pitchwheel channel=3 pitch=2340 time=10
pitchwheel channel=3 pitch=2730 time=15
pitchwheel channel=3 pitch=3120 time=15
pitchwheel channel=3 pitch=3380 time=12
pitchwheel channel=3 pitch=3510 time=15
pitchwheel channel=3 pitch=3770 time=10
note_on channel=8 note=46 velocity=110 time=12
note_on channel=10 note=46 velocity=76 time=0
pitchwheel channel=3 pitch=4160 time=3
note_on channel=8 note=53 velocity=91 time=8
note_on channel=10 note=53 velocity=57 time=0
pitchwheel channel=3 pitch=4550 time=2
pitchwheel channel=3 pitch=4940 time=11
pitchwheel channel=3 pitch=5720 time=13
note_off channel=8 note=46 velocity=0 time=10
note_off channel=10 note=46 velocity=0 time=0
pitchwheel channel=3 pitch=6370 time=2
note_off channel=8 note=53 velocity=0 time=6
note_off channel=10 note=53 velocity=0 time=0
pitchwheel channel=3 pitch=7020 time=7
pitchwheel channel=3 pitch=7410 time=10
pitchwheel channel=3 pitch=7930 time=12
pitchwheel channel=3 pitch=6240 time=30
pitchwheel channel=3 pitch=1690 time=12
note_off channel=3 note=77 velocity=0 time=9
pitchwheel channel=3 pitch=260 time=1
note_on channel=3 note=82 velocity=111 time=0
note_on channel=8 note=46 velocity=110 time=85
note_on channel=10 note=46 velocity=76 time=0
note_on channel=8 note=53 velocity=91 time=11
note_on channel=10 note=53 velocity=57 time=0
note_off channel=8 note=46 velocity=0 time=33
note_off channel=10 note=46 velocity=0 time=0
note_off channel=8 note=53 velocity=0 time=3
note_off channel=10 note=53 velocity=0 time=0
note_off channel=3 note=82 velocity=0 time=141
note_on channel=8 note=46 velocity=115 time=52
note_on channel=10 note=46 velocity=81 time=0
note_on channel=8 note=53 velocity=87 time=11
note_on channel=10 note=53 velocity=53 time=0
note_on channel=3 note=79 velocity=106 time=0
note_off channel=8 note=46 velocity=0 time=28
note_off channel=10 note=46 velocity=0 time=0
note_off channel=8 note=53 velocity=0 time=4
note_off channel=10 note=53 velocity=0 time=0
note_off channel=3 note=79 velocity=0 time=171
note_on channel=8 note=46 velocity=102 time=14
note_on channel=10 note=46 velocity=68 time=0
note_on channel=8 note=53 velocity=91 time=11
note_on channel=10 note=53 velocity=57 time=0
note_on channel=3 note=77 velocity=110 time=0
note_off channel=8 note=46 velocity=0 time=32
note_off channel=10 note=46 velocity=0 time=0
note_off channel=8 note=53 velocity=0 time=7
note_off channel=10 note=53 velocity=0 time=0
note_off channel=3 note=77 velocity=0 time=147
note_on channel=8 note=46 velocity=110 time=34
note_on channel=10 note=46 velocity=76 time=0
note_on channel=8 note=53 velocity=91 time=11
note_on channel=10 note=53 velocity=57 time=0
note_on channel=3 note=75 velocity=111 time=0
note_off channel=8 note=46 velocity=0 time=33
note_off channel=10 note=46 velocity=0 time=0
note_off channel=8 note=53 velocity=0 time=16
note_off channel=10 note=53 velocity=0 time=0
note_off channel=3 note=75 velocity=0 time=144
note_on channel=8 note=46 velocity=115 time=35
note_on channel=10 note=46 velocity=81 time=0
note_on channel=3 note=72 velocity=110 time=0
note_on channel=8 note=53 velocity=83 time=10
note_on channel=10 note=53 velocity=49 time=0
note_off channel=8 note=46 velocity=0 time=33
note_off channel=10 note=46 velocity=0 time=0
note_off channel=8 note=53 velocity=0 time=13
note_off channel=10 note=53 velocity=0 time=0
note_off channel=3 note=72 velocity=0 time=67
note_on channel=8 note=46 velocity=120 time=116
note_on channel=10 note=46 velocity=86 time=0
note_on channel=8 note=53 velocity=105 time=11
note_on channel=10 note=53 velocity=71 time=0
note_on channel=3 note=72 velocity=125 time=0
note_off channel=8 note=46 velocity=0 time=32
note_off channel=10 note=46 velocity=0 time=0
note_off channel=8 note=53 velocity=0 time=18
note_off channel=10 note=53 velocity=0 time=0
note_off channel=3 note=72 velocity=0 time=102
note_on channel=3 note=75 velocity=123 time=0
note_on channel=8 note=46 velocity=120 time=4
note_on channel=10 note=46 velocity=86 time=0
note_on channel=8 note=53 velocity=105 time=11
note_on channel=10 note=53 velocity=71 time=0
note_off channel=8 note=46 velocity=0 time=36
note_off channel=10 note=46 velocity=0 time=0
note_off channel=3 note=75 velocity=0 time=8
note_off channel=8 note=53 velocity=0 time=10
note_off channel=10 note=53 velocity=0 time=0
note_on channel=3 note=75 velocity=101 time=0
note_off channel=3 note=75 velocity=0 time=108
note_on channel=8 note=43 velocity=110 time=9
note_on channel=10 note=43 velocity=76 time=0
note_on channel=8 note=50 velocity=91 time=11
note_on channel=10 note=50 velocity=57 time=0
note_off channel=8 note=43 velocity=0 time=36
note_off channel=10 note=43 velocity=0 time=0
note_off channel=8 note=50 velocity=0 time=8
note_off channel=10 note=50 velocity=0 time=0
note_on channel=3 note=75 velocity=111 time=0
note_off channel=3 note=75 velocity=0 time=79
note_on channel=3 note=74 velocity=106 time=0
note_on channel=8 note=43 velocity=110 time=1
note_on channel=10 note=43 velocity=76 time=0
note_on channel=8 note=50 velocity=91 time=11
note_on channel=10 note=50 velocity=57 time=0
note_off channel=8 note=43 velocity=0 time=33
note_off channel=10 note=43 velocity=0 time=0
note_off channel=8 note=50 velocity=0 time=3
note_off channel=10 note=50 velocity=0 time=0
note_off channel=3 note=74 velocity=0 time=90
note_on channel=8 note=43 velocity=115 time=103
note_on channel=10 note=43 velocity=81 time=0
note_on channel=3 note=72 velocity=115 time=0
note_on channel=8 note=50 velocity=87 time=5
note_on channel=10 note=50 velocity=53 time=0
note_off channel=8 note=43 velocity=0 time=40
note_off channel=10 note=43 velocity=0 time=0
note_off channel=8 note=50 velocity=0 time=4
note_off channel=10 note=50 velocity=0 time=0
note_off channel=3 note=72 velocity=0 time=13
note_on channel=3 note=72 velocity=127 time=0
note_on channel=8 note=43 velocity=102 time=100
note_on channel=10 note=43 velocity=68 time=0
note_on channel=8 note=50 velocity=91 time=11
note_on channel=10 note=50 velocity=57 time=0
note_off channel=8 note=43 velocity=0 time=41
note_off channel=10 note=43 velocity=0 time=0
note_off channel=8 note=50 velocity=0 time=7
note_off channel=10 note=50 velocity=0 time=0
note_off channel=3 note=72 velocity=0 time=170
note_on channel=8 note=46 velocity=110 time=11
note_on channel=10 note=46 velocity=76 time=0
note_on channel=8 note=53 velocity=91 time=11
note_on channel=10 note=53 velocity=57 time=0
note_off channel=8 note=46 velocity=0 time=34
note_off channel=10 note=46 velocity=0 time=0
note_off channel=8 note=53 velocity=0 time=16
note_off channel=10 note=53 velocity=0 time=0
note_on channel=8 note=46 velocity=115 time=179
note_on channel=10 note=46 velocity=81 time=0
note_on channel=8 note=53 velocity=83 time=11
note_on channel=10 note=53 velocity=49 time=0
note_off channel=8 note=46 velocity=0 time=33
note_off channel=10 note=46 velocity=0 time=0
note_off channel=8 note=53 velocity=0 time=13
note_off channel=10 note=53 velocity=0 time=0
note_on channel=8 note=46 velocity=120 time=183
note_on channel=10 note=46 velocity=86 time=0
note_on channel=8 note=53 velocity=105 time=11
note_on channel=10 note=53 velocity=71 time=0
note_off channel=8 note=46 velocity=0 time=36
note_off channel=10 note=46 velocity=0 time=0
note_off channel=8 note=53 velocity=0 time=18
note_off channel=10 note=53 velocity=0 time=0
note_on channel=3 note=77 velocity=115 time=0
note_on channel=8 note=48 velocity=98 time=1
note_on channel=10 note=48 velocity=64 time=0
note_on channel=8 note=55 velocity=100 time=11
note_on channel=10 note=55 velocity=66 time=0
note_off channel=8 note=48 velocity=0 time=31
note_off channel=10 note=48 velocity=0 time=0
pitchwheel channel=3 pitch=520 time=13
note_off channel=8 note=55 velocity=0 time=3
note_off channel=10 note=55 velocity=0 time=0
pitchwheel channel=3 pitch=910 time=12
pitchwheel channel=3 pitch=1170 time=10
pitchwheel channel=3 pitch=1560 time=11
pitchwheel channel=3 pitch=1950 time=14
pitchwheel channel=3 pitch=2340 time=12
pitchwheel channel=3 pitch=2730 time=13
pitchwheel channel=3 pitch=3250 time=15
pitchwheel channel=3 pitch=3640 time=17
pitchwheel channel=3 pitch=4030 time=17
pitchwheel channel=3 pitch=4290 time=12
pitchwheel channel=3 pitch=4420 time=11
pitchwheel channel=3 pitch=4680 time=19
pitchwheel channel=3 pitch=4810 time=13
note_on channel=8 note=48 velocity=115 time=6
note_on channel=10 note=48 velocity=81 time=0
pitchwheel channel=3 pitch=5070 time=6
note_on channel=8 note=55 velocity=100 time=5
note_on channel=10 note=55 velocity=66 time=0
pitchwheel channel=3 pitch=5460 time=14
pitchwheel channel=3 pitch=5850 time=15
note_off channel=8 note=48 velocity=0 time=5
note_off channel=10 note=48 velocity=0 time=0
note_off channel=8 note=55 velocity=0 time=5
note_off channel=10 note=55 velocity=0 time=0
pitchwheel channel=3 pitch=6370 time=5
pitchwheel channel=3 pitch=6500 time=11
pitchwheel channel=3 pitch=6760 time=11
pitchwheel channel=3 pitch=6890 time=20
note_off channel=3 note=77 velocity=0 time=78
pitchwheel channel=3 pitch=6630 time=12
pitchwheel channel=3 pitch=5980 time=12
pitchwheel channel=3 pitch=5070 time=12
pitchwheel channel=3 pitch=4160 time=12
pitchwheel channel=3 pitch=3250 time=11
note_on channel=8 note=48 velocity=83 time=6
note_on channel=10 note=48 velocity=49 time=0
pitchwheel channel=3 pitch=2340 time=4
note_on channel=8 note=55 velocity=87 time=7
note_on channel=10 note=55 velocity=53 time=0
note_on channel=3 note=77 velocity=115 time=0
pitchwheel channel=3 pitch=1560 time=3
pitchwheel channel=3 pitch=1170 time=12
note_off channel=8 note=48 velocity=0 time=3
note_off channel=10 note=48 velocity=0 time=0
note_off channel=8 note=55 velocity=0 time=12
note_off channel=10 note=55 velocity=0 time=0
pitchwheel channel=3 pitch=1560 time=43
pitchwheel channel=3 pitch=1950 time=12
pitchwheel channel=3 pitch=2470 time=14
pitchwheel channel=3 pitch=2860 time=10
pitchwheel channel=3 pitch=3250 time=10
pitchwheel channel=3 pitch=3640 time=10
pitchwheel channel=3 pitch=4290 time=12
pitchwheel channel=3 pitch=4940 time=11
pitchwheel channel=3 pitch=5330 time=11
pitchwheel channel=3 pitch=5980 time=13
pitchwheel channel=3 pitch=6370 time=15
pitchwheel channel=3 pitch=6630 time=14
pitchwheel channel=3 pitch=6760 time=15
note_on channel=8 note=48 velocity=102 time=5
note_on channel=10 note=48 velocity=68 time=0
pitchwheel channel=3 pitch=7020 time=10
note_on channel=8 note=55 velocity=87 time=1
note_on channel=10 note=55 velocity=53 time=0
pitchwheel channel=3 pitch=7280 time=24
note_off channel=8 note=48 velocity=0 time=5
note_off channel=10 note=48 velocity=0 time=0
note_off channel=8 note=55 velocity=0 time=12
note_off channel=10 note=55 velocity=0 time=0
pitchwheel channel=3 pitch=7410 time=35
pitchwheel channel=3 pitch=7670 time=44
pitchwheel channel=3 pitch=7800 time=17
pitchwheel channel=3 pitch=8060 time=21
note_on channel=8 note=48 velocity=87 time=71
note_on channel=10 note=48 velocity=53 time=0
pitchwheel channel=3 pitch=7020 time=2
note_on channel=8 note=55 velocity=75 time=9
note_on channel=10 note=55 velocity=41 time=0
pitchwheel channel=3 pitch=5200 time=2
pitchwheel channel=3 pitch=2600 time=10
pitchwheel channel=3 pitch=260 time=10
note_off channel=8 note=48 velocity=0 time=5
note_off channel=10 note=48 velocity=0 time=0
note_off channel=3 note=77 velocity=0 time=7
note_off channel=8 note=55 velocity=0 time=4
note_off channel=10 note=55 velocity=0 time=0
pitchwheel channel=3 pitch=0 time=1
note_on channel=3 note=77 velocity=97 time=1
note_off channel=3 note=77 velocity=0 time=86
note_on channel=3 note=75 velocity=97 time=0
note_on channel=8 note=48 velocity=110 time=69
note_on channel=10 note=48 velocity=76 time=0
note_on channel=8 note=55 velocity=87 time=11
note_on channel=10 note=55 velocity=53 time=0
note_off channel=3 note=75 velocity=0 time=6
note_on channel=3 note=72 velocity=120 time=0
note_off channel=8 note=48 velocity=0 time=14
note_off channel=10 note=48 velocity=0 time=0
note_off channel=8 note=55 velocity=0 time=9
note_off channel=10 note=55 velocity=0 time=0
note_on channel=8 note=48 velocity=115 time=186
note_on channel=10 note=48 velocity=81 time=0
note_on channel=8 note=55 velocity=95 time=11
note_on channel=10 note=55 velocity=61 time=0
note_off channel=8 note=48 velocity=0 time=34
note_off channel=10 note=48 velocity=0 time=0
note_off channel=8 note=55 velocity=0 time=5
note_off channel=10 note=55 velocity=0 time=0
note_off channel=3 note=72 velocity=0 time=119
note_on channel=3 note=72 velocity=97 time=0
note_on channel=8 note=48 velocity=115 time=0
note_on channel=10 note=48 velocity=81 time=0
note_on channel=8 note=55 velocity=87 time=11
note_on channel=10 note=55 velocity=53 time=0
note_off channel=8 note=48 velocity=0 time=35
note_off channel=10 note=48 velocity=0 time=0
note_off channel=8 note=55 velocity=0 time=3
note_off channel=10 note=55 velocity=0 time=0
note_off channel=3 note=72 velocity=0 time=36
note_on channel=3 note=72 velocity=97 time=35
pitchwheel channel=3 pitch=-896 time=66
pitchwheel channel=3 pitch=-2176 time=10
note_off channel=3 note=72 velocity=0 time=9
pitchwheel channel=3 pitch=-3712 time=1
pitchwheel channel=3 pitch=-5248 time=10
pitchwheel channel=3 pitch=-6656 time=13
note_on channel=8 note=48 velocity=102 time=11
note_on channel=10 note=48 velocity=68 time=0
pitchwheel channel=3 pitch=-7552 time=1
note_on channel=3 note=79 velocity=120 time=0
note_on channel=8 note=55 velocity=80 time=4
note_on channel=10 note=55 velocity=46 time=0
pitchwheel channel=3 pitch=-8064 time=0
pitchwheel channel=3 pitch=-7808 time=30
note_off channel=8 note=55 velocity=0 time=3
note_off channel=10 note=55 velocity=0 time=0
note_off channel=8 note=48 velocity=0 time=1
note_off channel=10 note=48 velocity=0 time=0
pitchwheel channel=3 pitch=-6912 time=6
pitchwheel channel=3 pitch=-5504 time=11
pitchwheel channel=3 pitch=-4096 time=10
pitchwheel channel=3 pitch=-2560 time=10
pitchwheel channel=3 pitch=-896 time=13
pitchwheel channel=3 pitch=0 time=10
note_off channel=3 note=79 velocity=0 time=65
pitchwheel channel=3 pitch=-128 time=13
pitchwheel channel=3 pitch=-2176 time=10
pitchwheel channel=3 pitch=-4608 time=10
pitchwheel channel=3 pitch=-6912 time=10
pitchwheel channel=3 pitch=-8192 time=10
note_on channel=8 note=43 velocity=110 time=17
note_on channel=10 note=43 velocity=76 time=0
note_on channel=3 note=79 velocity=102 time=0
note_on channel=8 note=50 velocity=91 time=5
note_on channel=10 note=50 velocity=57 time=0
note_off channel=8 note=43 velocity=0 time=36
note_off channel=10 note=43 velocity=0 time=0
pitchwheel channel=3 pitch=-7040 time=3
note_off channel=8 note=50 velocity=0 time=5
note_off channel=10 note=50 velocity=0 time=0
pitchwheel channel=3 pitch=-5120 time=5
pitchwheel channel=3 pitch=-2688 time=10
pitchwheel channel=3 pitch=0 time=10
note_off channel=3 note=79 velocity=0 time=98
note_on channel=3 note=77 velocity=106 time=0
note_on channel=8 note=43 velocity=110 time=9
note_on channel=10 note=43 velocity=76 time=0
note_on channel=8 note=50 velocity=91 time=11
note_on channel=10 note=50 velocity=57 time=0
note_off channel=8 note=43 velocity=0 time=33
note_off channel=10 note=43 velocity=0 time=0
note_off channel=8 note=50 velocity=0 time=3
note_off channel=10 note=50 velocity=0 time=0
note_on channel=3 note=75 velocity=123 time=0
note_off channel=3 note=77 velocity=0 time=16
note_on channel=8 note=43 velocity=115 time=10
note_on channel=10 note=43 velocity=81 time=0
note_on channel=8 note=50 velocity=87 time=11
note_on channel=10 note=50 velocity=53 time=0
note_off channel=8 note=43 velocity=0 time=40
note_off channel=10 note=43 velocity=0 time=0
note_off channel=8 note=50 velocity=0 time=4
note_off channel=10 note=50 velocity=0 time=0
note_off channel=3 note=75 velocity=0 time=149
note_on channel=3 note=72 velocity=125 time=0
note_on channel=8 note=43 velocity=102 time=30
note_on channel=10 note=43 velocity=68 time=0
note_on channel=8 note=50 velocity=91 time=11
note_on channel=10 note=50 velocity=57 time=0
note_off channel=8 note=43 velocity=0 time=41
note_off channel=10 note=43 velocity=0 time=0
note_off channel=8 note=50 velocity=0 time=7
note_off channel=10 note=50 velocity=0 time=0
note_on channel=8 note=43 velocity=110 time=181
note_on channel=10 note=43 velocity=76 time=0
note_on channel=8 note=50 velocity=91 time=11
note_on channel=10 note=50 velocity=57 time=0
note_off channel=8 note=43 velocity=0 time=34
note_off channel=10 note=43 velocity=0 time=0
note_off channel=8 note=50 velocity=0 time=16
note_off channel=10 note=50 velocity=0 time=0
note_off channel=3 note=72 velocity=0 time=72
note_on channel=8 note=43 velocity=115 time=107
note_on channel=10 note=43 velocity=81 time=0
note_on channel=8 note=50 velocity=83 time=11
note_on channel=10 note=50 velocity=49 time=0
note_off channel=8 note=43 velocity=0 time=33
note_off channel=10 note=43 velocity=0 time=0
note_off channel=8 note=50 velocity=0 time=13
note_off channel=10 note=50 velocity=0 time=0
note_on channel=8 note=43 velocity=120 time=183
note_on channel=10 note=43 velocity=86 time=0
note_on channel=8 note=50 velocity=105 time=11
note_on channel=10 note=50 velocity=71 time=0
note_off channel=8 note=43 velocity=0 time=36
note_off channel=10 note=43 velocity=0 time=0
note_off channel=8 note=50 velocity=0 time=18
note_off channel=10 note=50 velocity=0 time=0
note_on channel=8 note=43 velocity=120 time=175
note_on channel=10 note=43 velocity=86 time=0
note_on channel=8 note=50 velocity=105 time=11
note_on channel=10 note=50 velocity=71 time=0
note_on channel=3 note=77 velocity=110 time=0
note_off channel=8 note=43 velocity=0 time=30
note_off channel=10 note=43 velocity=0 time=0
note_off channel=8 note=50 velocity=0 time=18
note_off channel=10 note=50 velocity=0 time=0
pitchwheel channel=3 pitch=650 time=46
pitchwheel channel=3 pitch=1040 time=11
pitchwheel channel=3 pitch=1430 time=16
pitchwheel channel=3 pitch=1820 time=13
pitchwheel channel=3 pitch=2340 time=10
pitchwheel channel=3 pitch=2730 time=15
pitchwheel channel=3 pitch=3120 time=15
pitchwheel channel=3 pitch=3380 time=12
pitchwheel channel=3 pitch=3510 time=15
pitchwheel channel=3 pitch=3770 time=10
note_on channel=8 note=46 velocity=110 time=12
note_on channel=10 note=46 velocity=76 time=0
pitchwheel channel=3 pitch=4160 time=3
note_on channel=8 note=53 velocity=91 time=8
note_on channel=10 note=53 velocity=57 time=0
pitchwheel channel=3 pitch=4550 time=2
pitchwheel channel=3 pitch=4940 time=11
pitchwheel channel=3 pitch=5720 time=13
note_off channel=8 note=46 velocity=0 time=10
note_off channel=10 note=46 velocity=0 time=0
pitchwheel channel=3 pitch=6370 time=2
note_off channel=8 note=53 velocity=0 time=6
note_off channel=10 note=53 velocity=0 time=0
pitchwheel channel=3 pitch=7020 time=7
pitchwheel channel=3 pitch=7410 time=10
pitchwheel channel=3 pitch=7930 time=12
pitchwheel channel=3 pitch=6240 time=30
pitchwheel channel=3 pitch=1690 time=12
note_off channel=3 note=77 velocity=0 time=9
pitchwheel channel=3 pitch=260 time=1
note_on channel=3 note=82 velocity=111 time=0
note_on channel=8 note=46 velocity=110 time=85
note_on channel=10 note=46 velocity=76 time=0
note_on channel=8 note=53 velocity=91 time=11
note_on channel=10 note=53 velocity=57 time=0
note_off channel=8 note=46 velocity=0 time=33
note_off channel=10 note=46 velocity=0 time=0
note_off channel=8 note=53 velocity=0 time=3
note_off channel=10 note=53 velocity=0 time=0
note_off channel=3 note=82 velocity=0 time=141
note_on channel=8 note=46 velocity=115 time=52
note_on channel=10 note=46 velocity=81 time=0
note_on channel=8 note=53 velocity=87 time=11
note_on channel=10 note=53 velocity=53 time=0
note_on channel=3 note=79 velocity=106 time=0
note_off channel=8 note=46 velocity=0 time=28
note_off channel=10 note=46 velocity=0 time=0
note_off channel=8 note=53 velocity=0 time=4
note_off channel=10 note=53 velocity=0 time=0
note_off channel=3 note=79 velocity=0 time=171
note_on channel=8 note=46 velocity=102 time=14
note_on channel=10 note=46 velocity=68 time=0
note_on channel=8 note=53 velocity=91 time=11
note_on channel=10 note=53 velocity=57 time=0
note_on channel=3 note=77 velocity=110 time=0
note_off channel=8 note=46 velocity=0 time=32
note_off channel=10 note=46 velocity=0 time=0
note_off channel=8 note=53 velocity=0 time=7
note_off channel=10 note=53 velocity=0 time=0
note_off channel=3 note=77 velocity=0 time=147
note_on channel=8 note=46 velocity=110 time=34
note_on channel=10 note=46 velocity=76 time=0
note_on channel=8 note=53 velocity=91 time=11
note_on channel=10 note=53 velocity=57 time=0
note_on channel=3 note=75 velocity=111 time=0
note_off channel=8 note=46 velocity=0 time=33
note_off channel=10 note=46 velocity=0 time=0
note_off channel=8 note=53 velocity=0 time=16
note_off channel=10 note=53 velocity=0 time=0
note_off channel=3 note=75 velocity=0 time=144
note_on channel=8 note=46 velocity=115 time=35
note_on channel=10 note=46 velocity=81 time=0
note_on channel=3 note=72 velocity=110 time=0
note_on channel=8 note=53 velocity=83 time=10
note_on channel=10 note=53 velocity=49 time=0
note_off channel=8 note=46 velocity=0 time=33
note_off channel=10 note=46 velocity=0 time=0
note_off channel=8 note=53 velocity=0 time=13
note_off channel=10 note=53 velocity=0 time=0
note_off channel=3 note=72 velocity=0 time=67
note_on channel=8 note=46 velocity=120 time=116
note_on channel=10 note=46 velocity=86 time=0
note_on channel=8 note=53 velocity=105 time=11
note_on channel=10 note=53 velocity=71 time=0
note_off channel=8 note=46 velocity=0 time=36
note_off channel=10 note=46 velocity=0 time=0
note_off channel=8 note=53 velocity=0 time=18
note_off channel=10 note=53 velocity=0 time=0
note_on channel=3 note=72 velocity=125 time=0
note_off channel=3 note=72 velocity=0 time=99
note_on channel=3 note=75 velocity=123 time=0
note_on channel=8 note=46 velocity=120 time=0
note_on channel=10 note=46 velocity=86 time=0
note_on channel=8 note=53 velocity=105 time=11
note_on channel=10 note=53 velocity=71 time=0
note_off channel=8 note=46 velocity=0 time=36
note_off channel=10 note=46 velocity=0 time=0
note_off channel=8 note=53 velocity=0 time=18
note_off channel=10 note=53 velocity=0 time=0
note_off channel=3 note=75 velocity=0 time=145
note_on channel=3 note=75 velocity=101 time=0
note_on channel=8 note=43 velocity=110 time=0
note_on channel=10 note=43 velocity=76 time=0
note_on channel=8 note=50 velocity=91 time=11
note_on channel=10 note=50 velocity=57 time=0
note_off channel=8 note=43 velocity=0 time=36
note_off channel=10 note=43 velocity=0 time=0
note_off channel=8 note=50 velocity=0 time=8
note_off channel=10 note=50 velocity=0 time=0
note_off channel=3 note=75 velocity=0 time=155
note_on channel=3 note=74 velocity=106 time=0
note_on channel=8 note=43 velocity=110 time=0
note_on channel=10 note=43 velocity=76 time=0
note_on channel=8 note=50 velocity=91 time=11
note_on channel=10 note=50 velocity=57 time=0
note_off channel=8 note=43 velocity=0 time=33
note_off channel=10 note=43 velocity=0 time=0
note_off channel=8 note=50 velocity=0 time=3
note_off channel=10 note=50 velocity=0 time=0
note_off channel=3 note=74 velocity=0 time=163
note_on channel=3 note=72 velocity=115 time=0
note_on channel=8 note=43 velocity=115 time=0
note_on channel=10 note=43 velocity=81 time=0
note_on channel=8 note=50 velocity=87 time=11
note_on channel=10 note=50 velocity=53 time=0
note_off channel=8 note=43 velocity=0 time=40
note_off channel=10 note=43 velocity=0 time=0
note_off channel=8 note=50 velocity=0 time=4
note_off channel=10 note=50 velocity=0 time=0
note_off channel=3 note=72 velocity=0 time=155
note_on channel=3 note=72 velocity=127 time=0
note_on channel=8 note=43 velocity=102 time=0
note_on channel=10 note=43 velocity=68 time=0
note_on channel=8 note=50 velocity=91 time=11
note_on channel=10 note=50 velocity=57 time=0
note_off channel=8 note=43 velocity=0 time=41
note_off channel=10 note=43 velocity=0 time=0
note_off channel=8 note=50 velocity=0 time=7
note_off channel=10 note=50 velocity=0 time=0
note_on channel=8 note=46 velocity=110 time=181
note_on channel=10 note=46 velocity=76 time=0
note_on channel=8 note=53 velocity=91 time=11
note_on channel=10 note=53 velocity=57 time=0
note_off channel=8 note=46 velocity=0 time=34
note_off channel=10 note=46 velocity=0 time=0
note_off channel=8 note=53 velocity=0 time=16
note_off channel=10 note=53 velocity=0 time=0
note_off channel=3 note=72 velocity=0 time=28
note_on channel=8 note=46 velocity=115 time=151
note_on channel=10 note=46 velocity=81 time=0
note_on channel=8 note=53 velocity=83 time=11
note_on channel=10 note=53 velocity=49 time=0
note_off channel=8 note=46 velocity=0 time=33
note_off channel=10 note=46 velocity=0 time=0
note_off channel=8 note=53 velocity=0 time=13
note_off channel=10 note=53 velocity=0 time=0
note_on channel=8 note=46 velocity=120 time=183
note_on channel=10 note=46 velocity=86 time=0
note_on channel=8 note=53 velocity=105 time=11
note_on channel=10 note=53 velocity=71 time=0
note_off channel=8 note=46 velocity=0 time=36
note_off channel=10 note=46 velocity=0 time=0
note_off channel=8 note=53 velocity=0 time=18
note_off channel=10 note=53 velocity=0 time=0
note_on channel=3 note=77 velocity=115 time=0
note_on channel=1 note=36 velocity=61 time=1
note_on channel=8 note=48 velocity=98 time=0
note_on channel=9 note=35 velocity=95 time=0
note_on channel=9 note=40 velocity=98 time=0
note_on channel=9 note=43 velocity=106 time=0
note_on channel=10 note=48 velocity=64 time=0
note_on channel=8 note=55 velocity=100 time=11
note_on channel=10 note=55 velocity=66 time=0
note_off channel=8 note=48 velocity=0 time=31
note_off channel=10 note=48 velocity=0 time=0
pitchwheel channel=3 pitch=520 time=13
note_off channel=8 note=55 velocity=0 time=3
note_off channel=10 note=55 velocity=0 time=0
pitchwheel channel=3 pitch=910 time=12
pitchwheel channel=3 pitch=1170 time=10
pitchwheel channel=3 pitch=1560 time=11
pitchwheel channel=3 pitch=1950 time=14
note_off channel=9 note=43 velocity=0 time=10
pitchwheel channel=3 pitch=2340 time=2
note_off channel=9 note=40 velocity=0 time=13
pitchwheel channel=3 pitch=2730 time=0
pitchwheel channel=3 pitch=3250 time=15
note_off channel=9 note=35 velocity=0 time=3
pitchwheel channel=3 pitch=3640 time=14
pitchwheel channel=3 pitch=4030 time=17
pitchwheel channel=3 pitch=4290 time=12
pitchwheel channel=3 pitch=4420 time=11
note_off channel=1 note=36 velocity=0 time=17
pitchwheel channel=3 pitch=4680 time=2
pitchwheel channel=3 pitch=4810 time=13
note_on channel=1 note=36 velocity=78 time=6
note_on channel=8 note=48 velocity=115 time=0
note_on channel=9 note=40 velocity=49 time=0
note_on channel=9 note=43 velocity=49 time=0
note_on channel=10 note=48 velocity=81 time=0
pitchwheel channel=3 pitch=5070 time=6
note_on channel=8 note=55 velocity=100 time=5
note_on channel=10 note=55 velocity=66 time=0
pitchwheel channel=3 pitch=5460 time=14
pitchwheel channel=3 pitch=5850 time=15
note_off channel=8 note=48 velocity=0 time=5
note_off channel=10 note=48 velocity=0 time=0
note_off channel=8 note=55 velocity=0 time=5
note_off channel=10 note=55 velocity=0 time=0
pitchwheel channel=3 pitch=6370 time=5
pitchwheel channel=3 pitch=6500 time=11
pitchwheel channel=3 pitch=6760 time=11
note_off channel=9 note=43 velocity=0 time=6
pitchwheel channel=3 pitch=6890 time=14
note_off channel=9 note=40 velocity=0 time=16
note_off channel=3 note=77 velocity=0 time=62
pitchwheel channel=3 pitch=6630 time=12
pitchwheel channel=3 pitch=5980 time=12
pitchwheel channel=3 pitch=5070 time=12
note_off channel=1 note=36 velocity=0 time=8
pitchwheel channel=3 pitch=4160 time=4
pitchwheel channel=3 pitch=3250 time=11
note_on channel=1 note=36 velocity=46 time=6
note_on channel=8 note=48 velocity=83 time=0
note_on channel=9 note=35 velocity=95 time=0
note_on channel=9 note=40 velocity=95 time=0
note_on channel=9 note=43 velocity=106 time=0
note_on channel=10 note=48 velocity=49 time=0
pitchwheel channel=3 pitch=2340 time=4
note_on channel=8 note=55 velocity=87 time=7
note_on channel=10 note=55 velocity=53 time=0
note_on channel=3 note=77 velocity=115 time=0
pitchwheel channel=3 pitch=1560 time=3
pitchwheel channel=3 pitch=1170 time=12
note_off channel=8 note=48 velocity=0 time=3
note_off channel=10 note=48 velocity=0 time=0
note_off channel=8 note=55 velocity=0 time=12
note_off channel=10 note=55 velocity=0 time=0
pitchwheel channel=3 pitch=1560 time=43
pitchwheel channel=3 pitch=1950 time=12
pitchwheel channel=3 pitch=2470 time=14
pitchwheel channel=3 pitch=2860 time=10
pitchwheel channel=3 pitch=3250 time=10
note_off channel=9 note=43 velocity=0 time=7
pitchwheel channel=3 pitch=3640 time=3
note_off channel=9 note=35 velocity=0 time=4
note_off channel=9 note=40 velocity=0 time=0
pitchwheel channel=3 pitch=4290 time=8
pitchwheel channel=3 pitch=4940 time=11
pitchwheel channel=3 pitch=5330 time=11
pitchwheel channel=3 pitch=5980 time=13
pitchwheel channel=3 pitch=6370 time=15
note_off channel=1 note=36 velocity=0 time=13
pitchwheel channel=3 pitch=6630 time=1
pitchwheel channel=3 pitch=6760 time=15
note_on channel=1 note=36 velocity=65 time=5
note_on channel=8 note=48 velocity=102 time=0
note_on channel=9 note=40 velocity=49 time=0
note_on channel=9 note=43 velocity=49 time=0
note_on channel=10 note=48 velocity=68 time=0
pitchwheel channel=3 pitch=7020 time=10
note_on channel=8 note=55 velocity=87 time=1
note_on channel=10 note=55 velocity=53 time=0
pitchwheel channel=3 pitch=7280 time=24
note_off channel=8 note=48 velocity=0 time=5
note_off channel=10 note=48 velocity=0 time=0
note_off channel=8 note=55 velocity=0 time=12
note_off channel=10 note=55 velocity=0 time=0
note_off channel=9 note=43 velocity=0 time=31
pitchwheel channel=3 pitch=7410 time=4
note_off channel=9 note=40 velocity=0 time=26
pitchwheel channel=3 pitch=7670 time=18
pitchwheel channel=3 pitch=7800 time=17
pitchwheel channel=3 pitch=8060 time=21
note_off channel=1 note=36 velocity=0 time=50
note_on channel=1 note=36 velocity=50 time=21
note_on channel=8 note=48 velocity=87 time=0
note_on channel=9 note=35 velocity=95 time=0
note_on channel=9 note=40 velocity=98 time=0
note_on channel=9 note=43 velocity=102 time=0
note_on channel=10 note=48 velocity=53 time=0
pitchwheel channel=3 pitch=7020 time=2
note_on channel=8 note=55 velocity=75 time=9
note_on channel=10 note=55 velocity=41 time=0
pitchwheel channel=3 pitch=5200 time=2
pitchwheel channel=3 pitch=2600 time=10
pitchwheel channel=3 pitch=260 time=10
note_off channel=8 note=48 velocity=0 time=5
note_off channel=10 note=48 velocity=0 time=0
note_off channel=3 note=77 velocity=0 time=7
note_off channel=8 note=55 velocity=0 time=4
note_off channel=10 note=55 velocity=0 time=0
pitchwheel channel=3 pitch=0 time=1
note_on channel=3 note=77 velocity=97 time=1
note_off channel=9 note=43 velocity=0 time=62
note_off channel=9 note=40 velocity=0 time=22
note_off channel=3 note=77 velocity=0 time=2
note_off channel=9 note=35 velocity=0 time=11
note_on channel=3 note=75 velocity=97 time=0
note_off channel=1 note=36 velocity=0 time=48
note_on channel=1 note=36 velocity=73 time=21
note_on channel=8 note=48 velocity=110 time=0
note_on channel=9 note=40 velocity=49 time=0
note_on channel=9 note=43 velocity=49 time=0
note_on channel=10 note=48 velocity=76 time=0
note_on channel=8 note=55 velocity=87 time=11
note_on channel=10 note=55 velocity=53 time=0
note_off channel=3 note=75 velocity=0 time=6
note_on channel=3 note=72 velocity=120 time=0
note_off channel=8 note=48 velocity=0 time=14
note_off channel=10 note=48 velocity=0 time=0
note_off channel=8 note=55 velocity=0 time=9
note_off channel=10 note=55 velocity=0 time=0
note_off channel=9 note=43 velocity=0 time=29
note_off channel=9 note=40 velocity=0 time=30
note_off channel=1 note=36 velocity=0 time=106
note_on channel=1 note=36 velocity=78 time=21
note_on channel=8 note=48 velocity=115 time=0
note_on channel=9 note=35 velocity=95 time=0
note_on channel=9 note=40 velocity=98 time=0
note_on channel=9 note=43 velocity=106 time=0
note_on channel=10 note=48 velocity=81 time=0
note_on channel=8 note=55 velocity=95 time=11
note_on channel=10 note=55 velocity=61 time=0
note_off channel=8 note=48 velocity=0 time=34
note_off channel=10 note=48 velocity=0 time=0
note_off channel=8 note=55 velocity=0 time=5
note_off channel=10 note=55 velocity=0 time=0
note_off channel=9 note=35 velocity=0 time=98
note_off channel=9 note=43 velocity=0 time=7
note_off channel=9 note=40 velocity=0 time=17
note_off channel=1 note=36 velocity=0 time=47
note_on channel=1 note=36 velocity=78 time=21
note_on channel=8 note=48 velocity=115 time=0
note_on channel=9 note=40 velocity=49 time=0
note_on channel=9 note=43 velocity=49 time=0
note_on channel=10 note=48 velocity=81 time=0
note_off channel=3 note=72 velocity=0 time=9
note_on channel=8 note=55 velocity=87 time=2
note_on channel=10 note=55 velocity=53 time=0
note_on channel=3 note=72 velocity=125 time=0
note_off channel=8 note=48 velocity=0 time=31
note_off channel=10 note=48 velocity=0 time=0
note_off channel=8 note=55 velocity=0 time=3
note_off channel=10 note=55 velocity=0 time=0
note_off channel=9 note=43 velocity=0 time=34
note_off channel=9 note=40 velocity=0 time=30
note_off channel=3 note=72 velocity=0 time=16
note_on channel=3 note=72 velocity=125 time=6
pitchwheel channel=3 pitch=-896 time=53
pitchwheel channel=3 pitch=-2176 time=10
pitchwheel channel=3 pitch=-3712 time=10
pitchwheel channel=3 pitch=-5248 time=10
note_off channel=1 note=36 velocity=0 time=1
pitchwheel channel=3 pitch=-6656 time=12
note_on channel=1 note=36 velocity=65 time=9
note_on channel=8 note=48 velocity=102 time=0
note_on channel=9 note=35 velocity=95 time=0
note_on channel=9 note=40 velocity=98 time=0
note_on channel=9 note=43 velocity=106 time=0
note_on channel=10 note=48 velocity=68 time=0
pitchwheel channel=3 pitch=-7552 time=3
note_off channel=3 note=72 velocity=0 time=0
note_on channel=3 note=79 velocity=120 time=0
note_on channel=8 note=55 velocity=80 time=2
note_on channel=10 note=55 velocity=46 time=0
pitchwheel channel=3 pitch=-8064 time=2
pitchwheel channel=3 pitch=-7808 time=30
note_off channel=8 note=55 velocity=0 time=1
note_off channel=10 note=55 velocity=0 time=0
note_off channel=8 note=48 velocity=0 time=1
note_off channel=10 note=48 velocity=0 time=0
pitchwheel channel=3 pitch=-6912 time=8
pitchwheel channel=3 pitch=-5504 time=11
pitchwheel channel=3 pitch=-4096 time=10
pitchwheel channel=3 pitch=-2560 time=10
pitchwheel channel=3 pitch=-896 time=13
pitchwheel channel=3 pitch=0 time=10
note_off channel=9 note=43 velocity=0 time=8
note_off channel=9 note=40 velocity=0 time=15
note_off channel=9 note=35 velocity=0 time=18
note_off channel=3 note=79 velocity=0 time=24
pitchwheel channel=3 pitch=-128 time=13
pitchwheel channel=3 pitch=-2176 time=10
pitchwheel channel=3 pitch=-4608 time=10
pitchwheel channel=3 pitch=-6912 time=10
note_off channel=1 note=36 velocity=0 time=4
pitchwheel channel=3 pitch=-8192 time=6
note_on channel=1 note=31 velocity=73 time=15
note_on channel=8 note=43 velocity=110 time=0
note_on channel=9 note=40 velocity=49 time=0
note_on channel=9 note=43 velocity=49 time=0
note_on channel=10 note=43 velocity=76 time=0
note_on channel=3 note=79 velocity=102 time=0
note_on channel=8 note=50 velocity=91 time=3
note_on channel=10 note=50 velocity=57 time=0
note_off channel=8 note=43 velocity=0 time=36
note_off channel=10 note=43 velocity=0 time=0
pitchwheel channel=3 pitch=-7040 time=5
note_off channel=8 note=50 velocity=0 time=3
note_off channel=10 note=50 velocity=0 time=0
pitchwheel channel=3 pitch=-5120 time=7
pitchwheel channel=3 pitch=-2688 time=10
pitchwheel channel=3 pitch=0 time=10
note_off channel=9 note=43 velocity=0 time=1
note_off channel=9 note=40 velocity=0 time=30
note_off channel=3 note=79 velocity=0 time=67
note_off channel=1 note=31 velocity=0 time=39
note_on channel=3 note=77 velocity=106 time=0
note_on channel=1 note=31 velocity=73 time=7
note_on channel=8 note=43 velocity=110 time=0
note_on channel=9 note=35 velocity=95 time=0
note_on channel=9 note=40 velocity=95 time=0
note_on channel=9 note=43 velocity=106 time=0
note_on channel=10 note=43 velocity=76 time=0
note_on channel=8 note=50 velocity=91 time=11
note_on channel=10 note=50 velocity=57 time=0
note_off channel=8 note=43 velocity=0 time=33
note_off channel=10 note=43 velocity=0 time=0
note_off channel=8 note=50 velocity=0 time=3
note_off channel=10 note=50 velocity=0 time=0
note_off channel=9 note=43 velocity=0 time=94
note_off channel=9 note=35 velocity=0 time=7
note_off channel=9 note=40 velocity=0 time=0
note_on channel=3 note=75 velocity=123 time=0
note_off channel=1 note=31 velocity=0 time=3
note_off channel=3 note=77 velocity=0 time=13
note_on channel=1 note=31 velocity=78 time=8
note_on channel=8 note=43 velocity=115 time=0
note_on channel=9 note=40 velocity=49 time=0
note_on channel=9 note=43 velocity=49 time=0
note_on channel=10 note=43 velocity=81 time=0
note_on channel=8 note=50 velocity=87 time=11
note_on channel=10 note=50 velocity=53 time=0
note_off channel=8 note=43 velocity=0 time=40
note_off channel=10 note=43 velocity=0 time=0
note_off channel=8 note=50 velocity=0 time=4
note_off channel=10 note=50 velocity=0 time=0
note_off channel=9 note=43 velocity=0 time=28
note_off channel=9 note=40 velocity=0 time=30
note_off channel=3 note=75 velocity=0 time=93
note_on channel=3 note=72 velocity=125 time=0
note_off channel=1 note=31 velocity=0 time=7
note_on channel=1 note=31 velocity=65 time=21
note_on channel=8 note=43 velocity=102 time=0
note_on channel=9 note=35 velocity=95 time=0
note_on channel=9 note=40 velocity=98 time=0
note_on channel=9 note=43 velocity=102 time=0
note_on channel=10 note=43 velocity=68 time=0
note_on channel=8 note=50 velocity=91 time=11
note_on channel=10 note=50 velocity=57 time=0
note_off channel=8 note=43 velocity=0 time=41
note_off channel=10 note=43 velocity=0 time=0
note_off channel=8 note=50 velocity=0 time=7
note_off channel=10 note=50 velocity=0 time=0
note_off channel=9 note=43 velocity=0 time=54
note_off channel=9 note=40 velocity=0 time=22
note_off channel=9 note=35 velocity=0 time=13
note_off channel=1 note=31 velocity=0 time=71
note_on channel=1 note=31 velocity=73 time=21
note_on channel=8 note=43 velocity=110 time=0
note_on channel=9 note=40 velocity=49 time=0
note_on channel=9 note=43 velocity=49 time=0
note_on channel=10 note=43 velocity=76 time=0
note_on channel=8 note=50 velocity=91 time=11
note_on channel=10 note=50 velocity=57 time=0
note_off channel=8 note=43 velocity=0 time=34
note_off channel=10 note=43 velocity=0 time=0
note_off channel=8 note=50 velocity=0 time=16
note_off channel=10 note=50 velocity=0 time=0
note_off channel=9 note=43 velocity=0 time=22
note_off channel=9 note=40 velocity=0 time=30
note_off channel=3 note=72 velocity=0 time=22
note_off channel=1 note=31 velocity=0 time=84
note_on channel=1 note=31 velocity=78 time=21
note_on channel=8 note=43 velocity=115 time=0
note_on channel=9 note=35 velocity=95 time=0
note_on channel=9 note=40 velocity=98 time=0
note_on channel=9 note=43 velocity=106 time=0
note_on channel=10 note=43 velocity=81 time=0
note_on channel=8 note=50 velocity=83 time=11
note_on channel=10 note=50 velocity=49 time=0
note_off channel=8 note=43 velocity=0 time=33
note_off channel=10 note=43 velocity=0 time=0
note_off channel=8 note=50 velocity=0 time=13
note_off channel=10 note=50 velocity=0 time=0
note_off channel=9 note=35 velocity=0 time=91
note_off channel=9 note=43 velocity=0 time=7
note_off channel=9 note=40 velocity=0 time=17
note_off channel=1 note=31 velocity=0 time=47
note_on channel=1 note=31 velocity=83 time=21
note_on channel=8 note=43 velocity=120 time=0
note_on channel=9 note=40 velocity=49 time=0
note_on channel=9 note=43 velocity=49 time=0
note_on channel=10 note=43 velocity=86 time=0
note_on channel=8 note=50 velocity=105 time=11
note_on channel=10 note=50 velocity=71 time=0
note_off channel=8 note=43 velocity=0 time=36
note_off channel=10 note=43 velocity=0 time=0
note_off channel=8 note=50 velocity=0 time=18
note_off channel=10 note=50 velocity=0 time=0
note_off channel=9 note=43 velocity=0 time=18
note_off channel=9 note=40 velocity=0 time=30
note_off channel=1 note=31 velocity=0 time=106
note_on channel=1 note=31 velocity=83 time=21
note_on channel=8 note=43 velocity=120 time=0
note_on channel=9 note=35 velocity=95 time=0
note_on channel=9 note=40 velocity=98 time=0
note_on channel=9 note=43 velocity=106 time=0
note_on channel=10 note=43 velocity=86 time=0
note_on channel=8 note=50 velocity=105 time=11
note_on channel=10 note=50 velocity=71 time=0
note_on channel=3 note=77 velocity=110 time=0
note_off channel=8 note=43 velocity=0 time=30
note_off channel=10 note=43 velocity=0 time=0
note_off channel=8 note=50 velocity=0 time=18
note_off channel=10 note=50 velocity=0 time=0
pitchwheel channel=3 pitch=650 time=46
note_off channel=9 note=43 velocity=0 time=4
pitchwheel channel=3 pitch=1040 time=7
note_off channel=9 note=40 velocity=0 time=8
pitchwheel channel=3 pitch=1430 time=8
note_off channel=9 note=35 velocity=0 time=10
pitchwheel channel=3 pitch=1820 time=3
pitchwheel channel=3 pitch=2340 time=10
pitchwheel channel=3 pitch=2730 time=15
pitchwheel channel=3 pitch=3120 time=15
pitchwheel channel=3 pitch=3380 time=12
pitchwheel channel=3 pitch=3510 time=15
note_off channel=1 note=31 velocity=0 time=1
pitchwheel channel=3 pitch=3770 time=9
note_on channel=1 note=34 velocity=73 time=12
note_on channel=8 note=46 velocity=110 time=0
note_on channel=9 note=40 velocity=49 time=0
note_on channel=9 note=43 velocity=49 time=0
note_on channel=10 note=46 velocity=76 time=0
pitchwheel channel=3 pitch=4160 time=3
note_on channel=8 note=53 velocity=91 time=8
note_on channel=10 note=53 velocity=57 time=0
pitchwheel channel=3 pitch=4550 time=2
pitchwheel channel=3 pitch=4940 time=11
pitchwheel channel=3 pitch=5720 time=13
note_off channel=8 note=46 velocity=0 time=10
note_off channel=10 note=46 velocity=0 time=0
pitchwheel channel=3 pitch=6370 time=2
note_off channel=8 note=53 velocity=0 time=6
note_off channel=10 note=53 velocity=0 time=0
pitchwheel channel=3 pitch=7020 time=7
pitchwheel channel=3 pitch=7410 time=10
note_off channel=9 note=43 velocity=0 time=11
pitchwheel channel=3 pitch=7930 time=1
note_off channel=9 note=40 velocity=0 time=29
pitchwheel channel=3 pitch=6240 time=1
pitchwheel channel=3 pitch=1690 time=12
note_off channel=3 note=77 velocity=0 time=9
pitchwheel channel=3 pitch=260 time=1
note_on channel=3 note=82 velocity=111 time=0
note_off channel=1 note=34 velocity=0 time=64
note_on channel=1 note=34 velocity=73 time=21
note_on channel=8 note=46 velocity=110 time=0
note_on channel=9 note=35 velocity=95 time=0
note_on channel=9 note=40 velocity=95 time=0
note_on channel=9 note=43 velocity=106 time=0
note_on channel=10 note=46 velocity=76 time=0
note_on channel=8 note=53 velocity=91 time=11
note_on channel=10 note=53 velocity=57 time=0
note_off channel=8 note=46 velocity=0 time=33
note_off channel=10 note=46 velocity=0 time=0
note_off channel=8 note=53 velocity=0 time=3
note_off channel=10 note=53 velocity=0 time=0
note_off channel=9 note=43 velocity=0 time=94
note_off channel=9 note=35 velocity=0 time=7
note_off channel=9 note=40 velocity=0 time=0
note_off channel=3 note=82 velocity=0 time=40
note_off channel=1 note=34 velocity=0 time=31
note_on channel=1 note=34 velocity=78 time=21
note_on channel=8 note=46 velocity=115 time=0
note_on channel=9 note=40 velocity=49 time=0
note_on channel=9 note=43 velocity=49 time=0
note_on channel=10 note=46 velocity=81 time=0
note_on channel=8 note=53 velocity=87 time=11
note_on channel=10 note=53 velocity=53 time=0
note_on channel=3 note=79 velocity=106 time=0
note_off channel=8 note=46 velocity=0 time=28
note_off channel=10 note=46 velocity=0 time=0
note_off channel=8 note=53 velocity=0 time=4
note_off channel=10 note=53 velocity=0 time=0
note_off channel=9 note=43 velocity=0 time=28
note_off channel=9 note=40 velocity=0 time=30
note_off channel=1 note=34 velocity=0 time=106
note_off channel=3 note=79 velocity=0 time=7
note_on channel=1 note=34 velocity=65 time=14
note_on channel=8 note=46 velocity=102 time=0
note_on channel=9 note=35 velocity=95 time=0
note_on channel=9 note=40 velocity=98 time=0
note_on channel=9 note=43 velocity=102 time=0
note_on channel=10 note=46 velocity=68 time=0
note_on channel=8 note=53 velocity=91 time=11
note_on channel=10 note=53 velocity=57 time=0
note_on channel=3 note=77 velocity=110 time=0
note_off channel=8 note=46 velocity=0 time=32
note_off channel=10 note=46 velocity=0 time=0
note_off channel=8 note=53 velocity=0 time=7
note_off channel=10 note=53 velocity=0 time=0
note_off channel=9 note=43 velocity=0 time=54
note_off channel=9 note=40 velocity=0 time=22
note_off channel=9 note=35 velocity=0 time=13
note_off channel=3 note=77 velocity=0 time=58
note_off channel=1 note=34 velocity=0 time=13
note_on channel=1 note=34 velocity=73 time=21
note_on channel=8 note=46 velocity=110 time=0
note_on channel=9 note=40 velocity=49 time=0
note_on channel=9 note=43 velocity=49 time=0
note_on channel=10 note=46 velocity=76 time=0
note_on channel=8 note=53 velocity=91 time=11
note_on channel=10 note=53 velocity=57 time=0
note_on channel=3 note=75 velocity=111 time=0
note_off channel=8 note=46 velocity=0 time=33
note_off channel=10 note=46 velocity=0 time=0
note_off channel=8 note=53 velocity=0 time=16
note_off channel=10 note=53 velocity=0 time=0
note_off channel=9 note=43 velocity=0 time=22
note_off channel=9 note=40 velocity=0 time=30
note_off channel=3 note=75 velocity=0 time=92
note_off channel=1 note=34 velocity=0 time=14
note_on channel=1 note=34 velocity=78 time=21
note_on channel=8 note=46 velocity=115 time=0
note_on channel=9 note=35 velocity=95 time=0
note_on channel=9 note=40 velocity=98 time=0
note_on channel=9 note=43 velocity=106 time=0
note_on channel=10 note=46 velocity=81 time=0
note_on channel=3 note=72 velocity=110 time=0
note_on channel=8 note=53 velocity=83 time=10
note_on channel=10 note=53 velocity=49 time=0
note_off channel=8 note=46 velocity=0 time=33
note_off channel=10 note=46 velocity=0 time=0
note_off channel=8 note=53 velocity=0 time=13
note_off channel=10 note=53 velocity=0 time=0
note_off channel=3 note=72 velocity=0 time=67
note_off channel=9 note=35 velocity=0 time=24
note_off channel=9 note=43 velocity=0 time=7
note_off channel=9 note=40 velocity=0 time=17
note_off channel=1 note=34 velocity=0 time=47
note_on channel=1 note=34 velocity=83 time=21
note_on channel=8 note=46 velocity=120 time=0
note_on channel=9 note=40 velocity=49 time=0
note_on channel=9 note=43 velocity=49 time=0
note_on channel=10 note=46 velocity=86 time=0
note_on channel=8 note=53 velocity=105 time=11
note_on channel=10 note=53 velocity=71 time=0
note_on channel=3 note=72 velocity=125 time=0
note_off channel=8 note=46 velocity=0 time=32
note_off channel=10 note=46 velocity=0 time=0
note_off channel=8 note=53 velocity=0 time=18
note_off channel=10 note=53 velocity=0 time=0
note_off channel=9 note=43 velocity=0 time=18
note_off channel=9 note=40 velocity=0 time=30
note_off channel=3 note=72 velocity=0 time=54
note_off channel=1 note=34 velocity=0 time=52
note_on channel=3 note=75 velocity=123 time=0
note_on channel=1 note=34 velocity=83 time=4
note_on channel=8 note=46 velocity=120 time=0
note_on channel=9 note=35 velocity=95 time=0
note_on channel=9 note=40 velocity=98 time=0
note_on channel=9 note=43 velocity=106 time=0
note_on channel=10 note=46 velocity=86 time=0
note_on channel=8 note=53 velocity=105 time=11
note_on channel=10 note=53 velocity=71 time=0
note_off channel=8 note=46 velocity=0 time=36
note_off channel=10 note=46 velocity=0 time=0
note_off channel=3 note=75 velocity=0 time=8
note_off channel=8 note=53 velocity=0 time=10
note_off channel=10 note=53 velocity=0 time=0
note_off channel=9 note=43 velocity=0 time=50
note_on channel=3 note=75 velocity=101 time=0
note_off channel=9 note=40 velocity=0 time=7
note_off channel=9 note=35 velocity=0 time=18
note_off channel=1 note=34 velocity=0 time=71
note_off channel=3 note=75 velocity=0 time=12
note_on channel=1 note=31 velocity=73 time=9
note_on channel=8 note=43 velocity=110 time=0
note_on channel=9 note=40 velocity=49 time=0
note_on channel=9 note=43 velocity=49 time=0
note_on channel=10 note=43 velocity=76 time=0
note_on channel=3 note=75 velocity=101 time=3
note_on channel=8 note=50 velocity=91 time=8
note_on channel=10 note=50 velocity=57 time=0
note_off channel=8 note=43 velocity=0 time=36
note_off channel=10 note=43 velocity=0 time=0
note_off channel=8 note=50 velocity=0 time=8
note_off channel=10 note=50 velocity=0 time=0
note_off channel=9 note=43 velocity=0 time=28
note_off channel=9 note=40 velocity=0 time=30
note_off channel=1 note=31 velocity=0 time=106
note_off channel=3 note=75 velocity=0 time=14
note_on channel=3 note=74 velocity=106 time=0
note_on channel=1 note=31 velocity=73 time=1
note_on channel=8 note=43 velocity=110 time=0
note_on channel=9 note=35 velocity=95 time=0
note_on channel=9 note=40 velocity=95 time=0
note_on channel=9 note=43 velocity=106 time=0
note_on channel=10 note=43 velocity=76 time=0
note_on channel=8 note=50 velocity=91 time=11
note_on channel=10 note=50 velocity=57 time=0
note_off channel=8 note=43 velocity=0 time=33
note_off channel=10 note=43 velocity=0 time=0
note_off channel=8 note=50 velocity=0 time=3
note_off channel=10 note=50 velocity=0 time=0
note_off channel=3 note=74 velocity=0 time=90
note_off channel=9 note=43 velocity=0 time=4
note_off channel=9 note=35 velocity=0 time=7
note_off channel=9 note=40 velocity=0 time=0
note_off channel=1 note=31 velocity=0 time=71
note_on channel=1 note=31 velocity=78 time=21
note_on channel=8 note=43 velocity=115 time=0
note_on channel=9 note=40 velocity=49 time=0
note_on channel=9 note=43 velocity=49 time=0
note_on channel=10 note=43 velocity=81 time=0
note_on channel=3 note=72 velocity=115 time=0
note_on channel=8 note=50 velocity=87 time=5
note_on channel=10 note=50 velocity=53 time=0
note_off channel=8 note=43 velocity=0 time=40
note_off channel=10 note=43 velocity=0 time=0
note_off channel=8 note=50 velocity=0 time=4
note_off channel=10 note=50 velocity=0 time=0
note_off channel=9 note=43 velocity=0 time=28
note_off channel=9 note=40 velocity=0 time=30
note_off channel=1 note=31 velocity=0 time=106
note_on channel=1 note=31 velocity=65 time=21
note_on channel=8 note=43 velocity=102 time=0
note_on channel=9 note=35 velocity=95 time=0
note_on channel=9 note=40 velocity=98 time=0
note_on channel=9 note=43 velocity=102 time=0
note_on channel=10 note=43 velocity=68 time=0
note_on channel=8 note=50 velocity=91 time=11
note_on channel=10 note=50 velocity=57 time=0
note_off channel=3 note=72 velocity=0 time=3
note_on channel=3 note=72 velocity=127 time=0
note_off channel=8 note=43 velocity=0 time=32
note_off channel=10 note=43 velocity=0 time=0
note_off channel=8 note=50 velocity=0 time=7
note_off channel=10 note=50 velocity=0 time=0
note_off channel=9 note=43 velocity=0 time=54
note_off channel=9 note=40 velocity=0 time=22
note_off channel=9 note=35 velocity=0 time=13
note_off channel=1 note=31 velocity=0 time=71
note_on channel=1 note=34 velocity=73 time=21
note_on channel=8 note=46 velocity=110 time=0
note_on channel=9 note=40 velocity=49 time=0
note_on channel=9 note=43 velocity=49 time=0
note_on channel=10 note=46 velocity=76 time=0
note_on channel=8 note=53 velocity=91 time=11
note_on channel=10 note=53 velocity=57 time=0
note_off channel=8 note=46 velocity=0 time=34
note_off channel=10 note=46 velocity=0 time=0
note_off channel=8 note=53 velocity=0 time=16
note_off channel=10 note=53 velocity=0 time=0
note_off channel=9 note=43 velocity=0 time=22
note_off channel=3 note=72 velocity=0 time=26
note_off channel=9 note=40 velocity=0 time=4
note_off channel=1 note=34 velocity=0 time=106
note_on channel=1 note=34 velocity=78 time=21
note_on channel=8 note=46 velocity=115 time=0
note_on channel=9 note=35 velocity=95 time=0
note_on channel=9 note=40 velocity=98 time=0
note_on channel=9 note=43 velocity=106 time=0
note_on channel=10 note=46 velocity=81 time=0
note_on channel=8 note=53 velocity=83 time=11
note_on channel=10 note=53 velocity=49 time=0
note_off channel=8 note=46 velocity=0 time=33
note_off channel=10 note=46 velocity=0 time=0
note_off channel=8 note=53 velocity=0 time=13
note_off channel=10 note=53 velocity=0 time=0
note_off channel=9 note=35 velocity=0 time=91
note_off channel=9 note=43 velocity=0 time=7
note_off channel=9 note=40 velocity=0 time=17
note_off channel=1 note=34 velocity=0 time=47
note_on channel=1 note=34 velocity=83 time=21
note_on channel=8 note=46 velocity=120 time=0
note_on channel=9 note=40 velocity=49 time=0
note_on channel=9 note=43 velocity=49 time=0
note_on channel=9 note=46 velocity=106 time=0
note_on channel=10 note=46 velocity=86 time=0
note_on channel=8 note=53 velocity=105 time=11
note_on channel=10 note=53 velocity=71 time=0
note_off channel=8 note=46 velocity=0 time=36
note_off channel=10 note=46 velocity=0 time=0
note_off channel=8 note=53 velocity=0 time=18
note_off channel=10 note=53 velocity=0 time=0
note_off channel=9 note=43 velocity=0 time=18
note_off channel=9 note=40 velocity=0 time=30
note_off channel=9 note=46 velocity=0 time=42
note_off channel=1 note=34 velocity=0 time=64
note_on channel=3 note=77 velocity=115 time=0
note_on channel=1 note=36 velocity=61 time=1
note_on channel=8 note=48 velocity=98 time=0
note_on channel=9 note=35 velocity=95 time=0
note_on channel=9 note=40 velocity=98 time=0
note_on channel=9 note=43 velocity=106 time=0
note_on channel=9 note=44 velocity=106 time=0
note_on channel=10 note=48 velocity=64 time=0
note_on channel=8 note=55 velocity=100 time=11
note_on channel=10 note=55 velocity=66 time=0
note_off channel=8 note=48 velocity=0 time=31
note_off channel=10 note=48 velocity=0 time=0
pitchwheel channel=3 pitch=520 time=13
note_off channel=8 note=55 velocity=0 time=3
note_off channel=10 note=55 velocity=0 time=0
pitchwheel channel=3 pitch=910 time=12
pitchwheel channel=3 pitch=1170 time=10
pitchwheel channel=3 pitch=1560 time=11
pitchwheel channel=3 pitch=1950 time=14
note_off channel=9 note=43 velocity=0 time=10
pitchwheel channel=3 pitch=2340 time=2
note_off channel=9 note=40 velocity=0 time=13
pitchwheel channel=3 pitch=2730 time=0
pitchwheel channel=3 pitch=3250 time=15
note_off channel=9 note=35 velocity=0 time=3
note_off channel=9 note=44 velocity=0 time=7
pitchwheel channel=3 pitch=3640 time=7
pitchwheel channel=3 pitch=4030 time=17
pitchwheel channel=3 pitch=4290 time=12
pitchwheel channel=3 pitch=4420 time=11
note_off channel=1 note=36 velocity=0 time=17
pitchwheel channel=3 pitch=4680 time=2
pitchwheel channel=3 pitch=4810 time=13
note_on channel=1 note=36 velocity=78 time=6
note_on channel=8 note=48 velocity=115 time=0
note_on channel=9 note=40 velocity=49 time=0
note_on channel=9 note=43 velocity=49 time=0
note_on channel=10 note=48 velocity=81 time=0
pitchwheel channel=3 pitch=5070 time=6
note_on channel=8 note=55 velocity=100 time=5
note_on channel=10 note=55 velocity=66 time=0
pitchwheel channel=3 pitch=5460 time=14
pitchwheel channel=3 pitch=5850 time=15
note_off channel=8 note=48 velocity=0 time=5
note_off channel=10 note=48 velocity=0 time=0
note_off channel=8 note=55 velocity=0 time=5
note_off channel=10 note=55 velocity=0 time=0
pitchwheel channel=3 pitch=6370 time=5
pitchwheel channel=3 pitch=6500 time=11
pitchwheel channel=3 pitch=6760 time=11
note_off channel=9 note=43 velocity=0 time=6
pitchwheel channel=3 pitch=6890 time=14
note_off channel=9 note=40 velocity=0 time=16
note_off channel=3 note=77 velocity=0 time=62
pitchwheel channel=3 pitch=6630 time=12
pitchwheel channel=3 pitch=5980 time=12
pitchwheel channel=3 pitch=5070 time=12
note_off channel=1 note=36 velocity=0 time=8
pitchwheel channel=3 pitch=4160 time=4
pitchwheel channel=3 pitch=3250 time=11
note_on channel=1 note=36 velocity=46 time=6
note_on channel=8 note=48 velocity=83 time=0
note_on channel=9 note=35 velocity=95 time=0
note_on channel=9 note=40 velocity=95 time=0
note_on channel=9 note=43 velocity=106 time=0
note_on channel=10 note=48 velocity=49 time=0
pitchwheel channel=3 pitch=2340 time=4
note_on channel=8 note=55 velocity=87 time=7
note_on channel=10 note=55 velocity=53 time=0
note_on channel=3 note=77 velocity=115 time=0
pitchwheel channel=3 pitch=1560 time=3
pitchwheel channel=3 pitch=1170 time=12
note_off channel=8 note=48 velocity=0 time=3
note_off channel=10 note=48 velocity=0 time=0
note_off channel=8 note=55 velocity=0 time=12
note_off channel=10 note=55 velocity=0 time=0
pitchwheel channel=3 pitch=1560 time=43
pitchwheel channel=3 pitch=1950 time=12
pitchwheel channel=3 pitch=2470 time=14
pitchwheel channel=3 pitch=2860 time=10
pitchwheel channel=3 pitch=3250 time=10
note_off channel=9 note=43 velocity=0 time=7
pitchwheel channel=3 pitch=3640 time=3
note_off channel=9 note=35 velocity=0 time=4
note_off channel=9 note=40 velocity=0 time=0
pitchwheel channel=3 pitch=4290 time=8
pitchwheel channel=3 pitch=4940 time=11
pitchwheel channel=3 pitch=5330 time=11
pitchwheel channel=3 pitch=5980 time=13
pitchwheel channel=3 pitch=6370 time=15
note_off channel=1 note=36 velocity=0 time=13
pitchwheel channel=3 pitch=6630 time=1
pitchwheel channel=3 pitch=6760 time=15
note_on channel=1 note=36 velocity=65 time=5
note_on channel=8 note=48 velocity=102 time=0
note_on channel=9 note=40 velocity=49 time=0
note_on channel=9 note=43 velocity=49 time=0
note_on channel=10 note=48 velocity=68 time=0
pitchwheel channel=3 pitch=7020 time=10
note_on channel=8 note=55 velocity=87 time=1
note_on channel=10 note=55 velocity=53 time=0
pitchwheel channel=3 pitch=7280 time=24
note_off channel=8 note=48 velocity=0 time=5
note_off channel=10 note=48 velocity=0 time=0
note_off channel=8 note=55 velocity=0 time=12
note_off channel=10 note=55 velocity=0 time=0
note_off channel=9 note=43 velocity=0 time=31
pitchwheel channel=3 pitch=7410 time=4
note_off channel=9 note=40 velocity=0 time=26
pitchwheel channel=3 pitch=7670 time=18
pitchwheel channel=3 pitch=7800 time=17
pitchwheel channel=3 pitch=8060 time=21
note_off channel=1 note=36 velocity=0 time=50
note_on channel=1 note=36 velocity=50 time=21
note_on channel=8 note=48 velocity=87 time=0
note_on channel=9 note=35 velocity=95 time=0
note_on channel=9 note=40 velocity=98 time=0
note_on channel=9 note=43 velocity=102 time=0
note_on channel=10 note=48 velocity=53 time=0
pitchwheel channel=3 pitch=7020 time=2
note_on channel=8 note=55 velocity=75 time=9
note_on channel=10 note=55 velocity=41 time=0
pitchwheel channel=3 pitch=5200 time=2
pitchwheel channel=3 pitch=2600 time=10
pitchwheel channel=3 pitch=260 time=10
note_off channel=8 note=48 velocity=0 time=5
note_off channel=10 note=48 velocity=0 time=0
note_off channel=3 note=77 velocity=0 time=7
note_off channel=8 note=55 velocity=0 time=4
note_off channel=10 note=55 velocity=0 time=0
pitchwheel channel=3 pitch=0 time=1
note_on channel=3 note=77 velocity=97 time=0
note_off channel=9 note=43 velocity=0 time=62
note_off channel=9 note=40 velocity=0 time=22
note_off channel=3 note=77 velocity=0 time=2
note_off channel=9 note=35 velocity=0 time=11
note_on channel=3 note=75 velocity=97 time=23
note_off channel=1 note=36 velocity=0 time=48
note_on channel=1 note=36 velocity=73 time=21
note_on channel=8 note=48 velocity=110 time=0
note_on channel=9 note=40 velocity=49 time=0
note_on channel=9 note=43 velocity=49 time=0
note_on channel=10 note=48 velocity=76 time=0
note_on channel=8 note=55 velocity=87 time=11
note_on channel=10 note=55 velocity=53 time=0
note_off channel=3 note=75 velocity=0 time=6
note_on channel=3 note=72 velocity=120 time=0
note_off channel=8 note=48 velocity=0 time=14
note_off channel=10 note=48 velocity=0 time=0
note_off channel=8 note=55 velocity=0 time=9
note_off channel=10 note=55 velocity=0 time=0
note_off channel=9 note=43 velocity=0 time=29
note_off channel=9 note=40 velocity=0 time=30
note_off channel=1 note=36 velocity=0 time=106
note_on channel=1 note=36 velocity=78 time=21
note_on channel=8 note=48 velocity=115 time=0
note_on channel=9 note=35 velocity=95 time=0
note_on channel=9 note=40 velocity=98 time=0
note_on channel=9 note=43 velocity=106 time=0
note_on channel=10 note=48 velocity=81 time=0
note_on channel=8 note=55 velocity=95 time=11
note_on channel=10 note=55 velocity=61 time=0
note_off channel=8 note=48 velocity=0 time=34
note_off channel=10 note=48 velocity=0 time=0
note_off channel=8 note=55 velocity=0 time=5
note_off channel=10 note=55 velocity=0 time=0
note_off channel=9 note=35 velocity=0 time=98
note_off channel=9 note=43 velocity=0 time=7
note_off channel=9 note=40 velocity=0 time=17
note_off channel=1 note=36 velocity=0 time=47
note_on channel=1 note=36 velocity=78 time=21
note_on channel=8 note=48 velocity=115 time=0
note_on channel=9 note=40 velocity=49 time=0
note_on channel=9 note=43 velocity=49 time=0
note_on channel=10 note=48 velocity=81 time=0
note_on channel=8 note=55 velocity=87 time=11
note_on channel=10 note=55 velocity=53 time=0
note_off channel=8 note=48 velocity=0 time=35
note_off channel=10 note=48 velocity=0 time=0
note_off channel=3 note=72 velocity=0 time=3
note_off channel=8 note=55 velocity=0 time=0
note_off channel=10 note=55 velocity=0 time=0
note_off channel=9 note=43 velocity=0 time=34
note_off channel=9 note=40 velocity=0 time=30
pitchwheel channel=3 pitch=-896 time=73
pitchwheel channel=3 pitch=-2176 time=10
pitchwheel channel=3 pitch=-3712 time=10
pitchwheel channel=3 pitch=-5248 time=10
note_off channel=1 note=36 velocity=0 time=3
pitchwheel channel=3 pitch=-6656 time=10
note_on channel=1 note=36 velocity=65 time=11
note_on channel=8 note=48 velocity=102 time=0
note_on channel=9 note=35 velocity=95 time=0
note_on channel=9 note=40 velocity=98 time=0
note_on channel=9 note=43 velocity=106 time=0
note_on channel=10 note=48 velocity=68 time=0
pitchwheel channel=3 pitch=-7552 time=1
note_on channel=3 note=79 velocity=120 time=0
note_on channel=8 note=55 velocity=80 time=4
note_on channel=10 note=55 velocity=46 time=0
pitchwheel channel=3 pitch=-8064 time=0
pitchwheel channel=3 pitch=-7808 time=30
note_off channel=8 note=55 velocity=0 time=3
note_off channel=10 note=55 velocity=0 time=0
note_off channel=8 note=48 velocity=0 time=1
note_off channel=10 note=48 velocity=0 time=0
pitchwheel channel=3 pitch=-6912 time=6
pitchwheel channel=3 pitch=-5504 time=11
pitchwheel channel=3 pitch=-4096 time=10
pitchwheel channel=3 pitch=-2560 time=10
pitchwheel channel=3 pitch=-896 time=13
pitchwheel channel=3 pitch=0 time=10
note_off channel=9 note=43 velocity=0 time=10
note_off channel=9 note=40 velocity=0 time=15
note_off channel=9 note=35 velocity=0 time=18
note_off channel=3 note=79 velocity=0 time=22
pitchwheel channel=3 pitch=-128 time=13
pitchwheel channel=3 pitch=-2176 time=10
pitchwheel channel=3 pitch=-4608 time=10
pitchwheel channel=3 pitch=-6912 time=10
note_off channel=1 note=36 velocity=0 time=6
pitchwheel channel=3 pitch=-8192 time=4
note_on channel=1 note=31 velocity=73 time=17
note_on channel=8 note=43 velocity=110 time=0
note_on channel=9 note=40 velocity=49 time=0
note_on channel=9 note=43 velocity=49 time=0
note_on channel=10 note=43 velocity=76 time=0
note_on channel=3 note=79 velocity=102 time=0
note_on channel=8 note=50 velocity=91 time=5
note_on channel=10 note=50 velocity=57 time=0
note_off channel=8 note=43 velocity=0 time=36
note_off channel=10 note=43 velocity=0 time=0
pitchwheel channel=3 pitch=-7040 time=3
note_off channel=8 note=50 velocity=0 time=5
note_off channel=10 note=50 velocity=0 time=0
pitchwheel channel=3 pitch=-5120 time=5
pitchwheel channel=3 pitch=-2688 time=10
pitchwheel channel=3 pitch=0 time=10
note_off channel=9 note=43 velocity=0 time=3
note_off channel=9 note=40 velocity=0 time=30
note_off channel=3 note=79 velocity=0 time=65
note_off channel=1 note=31 velocity=0 time=41
note_on channel=3 note=77 velocity=106 time=0
note_on channel=1 note=31 velocity=73 time=9
note_on channel=8 note=43 velocity=110 time=0
note_on channel=9 note=35 velocity=95 time=0
note_on channel=9 note=40 velocity=95 time=0
note_on channel=9 note=43 velocity=106 time=0
note_on channel=10 note=43 velocity=76 time=0
note_on channel=8 note=50 velocity=91 time=11
note_on channel=10 note=50 velocity=57 time=0
note_off channel=8 note=43 velocity=0 time=33
note_off channel=10 note=43 velocity=0 time=0
note_off channel=8 note=50 velocity=0 time=3
note_off channel=10 note=50 velocity=0 time=0
note_off channel=9 note=43 velocity=0 time=94
note_off channel=9 note=35 velocity=0 time=7
note_off channel=9 note=40 velocity=0 time=0
note_on channel=3 note=75 velocity=123 time=0
note_off channel=1 note=31 velocity=0 time=5
note_off channel=3 note=77 velocity=0 time=11
note_on channel=1 note=31 velocity=78 time=10
note_on channel=8 note=43 velocity=115 time=0
note_on channel=9 note=40 velocity=49 time=0
note_on channel=9 note=43 velocity=49 time=0
note_on channel=10 note=43 velocity=81 time=0
note_on channel=8 note=50 velocity=87 time=11
note_on channel=10 note=50 velocity=53 time=0
note_off channel=8 note=43 velocity=0 time=40
note_off channel=10 note=43 velocity=0 time=0
note_off channel=8 note=50 velocity=0 time=4
note_off channel=10 note=50 velocity=0 time=0
note_off channel=9 note=43 velocity=0 time=28
note_off channel=9 note=40 velocity=0 time=30
note_off channel=1 note=31 velocity=0 time=106
note_on channel=1 note=31 velocity=65 time=21
note_on channel=8 note=43 velocity=102 time=0
note_on channel=9 note=35 velocity=95 time=0
note_on channel=9 note=40 velocity=98 time=0
note_on channel=9 note=43 velocity=102 time=0
note_on channel=10 note=43 velocity=68 time=0
note_on channel=8 note=50 velocity=91 time=11
note_on channel=10 note=50 velocity=57 time=0
note_off channel=8 note=43 velocity=0 time=41
note_off channel=10 note=43 velocity=0 time=0
note_off channel=8 note=50 velocity=0 time=7
note_off channel=10 note=50 velocity=0 time=0
note_off channel=9 note=43 velocity=0 time=54
note_off channel=9 note=40 velocity=0 time=22
note_off channel=9 note=35 velocity=0 time=13
note_off channel=3 note=75 velocity=0 time=28
note_on channel=3 note=72 velocity=125 time=0
note_off channel=1 note=31 velocity=0 time=9
note_on channel=1 note=31 velocity=73 time=21
note_on channel=8 note=43 velocity=110 time=0
note_on channel=9 note=40 velocity=49 time=0
note_on channel=9 note=43 velocity=49 time=0
note_on channel=10 note=43 velocity=76 time=0
note_on channel=8 note=50 velocity=91 time=11
note_on channel=10 note=50 velocity=57 time=0
note_off channel=8 note=43 velocity=0 time=34
note_off channel=10 note=43 velocity=0 time=0
note_off channel=8 note=50 velocity=0 time=16
note_off channel=10 note=50 velocity=0 time=0
note_off channel=9 note=43 velocity=0 time=22
note_off channel=9 note=40 velocity=0 time=30
note_off channel=1 note=31 velocity=0 time=106
note_on channel=1 note=31 velocity=78 time=21
note_on channel=8 note=43 velocity=115 time=0
note_on channel=9 note=35 velocity=95 time=0
note_on channel=9 note=40 velocity=98 time=0
note_on channel=9 note=43 velocity=106 time=0
note_on channel=10 note=43 velocity=81 time=0
note_on channel=8 note=50 velocity=83 time=11
note_on channel=10 note=50 velocity=49 time=0
note_off channel=8 note=43 velocity=0 time=33
note_off channel=10 note=43 velocity=0 time=0
note_off channel=8 note=50 velocity=0 time=13
note_off channel=10 note=50 velocity=0 time=0
note_off channel=3 note=72 velocity=0 time=76
note_off channel=9 note=35 velocity=0 time=15
note_off channel=9 note=43 velocity=0 time=7
note_off channel=9 note=40 velocity=0 time=17
note_off channel=1 note=31 velocity=0 time=47
note_on channel=1 note=31 velocity=83 time=21
note_on channel=8 note=43 velocity=120 time=0
note_on channel=9 note=40 velocity=49 time=0
note_on channel=9 note=43 velocity=49 time=0
note_on channel=10 note=43 velocity=86 time=0
note_on channel=8 note=50 velocity=105 time=11
note_on channel=10 note=50 velocity=71 time=0
note_off channel=8 note=43 velocity=0 time=36
note_off channel=10 note=43 velocity=0 time=0
note_off channel=8 note=50 velocity=0 time=18
note_off channel=10 note=50 velocity=0 time=0
note_off channel=9 note=43 velocity=0 time=18
note_off channel=9 note=40 velocity=0 time=30
note_off channel=1 note=31 velocity=0 time=106
note_on channel=1 note=31 velocity=83 time=21
note_on channel=8 note=43 velocity=120 time=0
note_on channel=9 note=35 velocity=95 time=0
note_on channel=9 note=40 velocity=98 time=0
note_on channel=9 note=43 velocity=106 time=0
note_on channel=10 note=43 velocity=86 time=0
note_on channel=8 note=50 velocity=105 time=11
note_on channel=10 note=50 velocity=71 time=0
note_on channel=3 note=77 velocity=110 time=0
note_off channel=8 note=43 velocity=0 time=30
note_off channel=10 note=43 velocity=0 time=0
note_off channel=8 note=50 velocity=0 time=18
note_off channel=10 note=50 velocity=0 time=0
pitchwheel channel=3 pitch=650 time=46
note_off channel=9 note=43 velocity=0 time=4
pitchwheel channel=3 pitch=1040 time=7
note_off channel=9 note=40 velocity=0 time=8
pitchwheel channel=3 pitch=1430 time=8
note_off channel=9 note=35 velocity=0 time=10
pitchwheel channel=3 pitch=1820 time=3
pitchwheel channel=3 pitch=2340 time=10
pitchwheel channel=3 pitch=2730 time=15
pitchwheel channel=3 pitch=3120 time=15
pitchwheel channel=3 pitch=3380 time=12
pitchwheel channel=3 pitch=3510 time=15
note_off channel=1 note=31 velocity=0 time=1
pitchwheel channel=3 pitch=3770 time=9
note_on channel=1 note=34 velocity=73 time=12
note_on channel=8 note=46 velocity=110 time=0
note_on channel=9 note=40 velocity=49 time=0
note_on channel=9 note=43 velocity=49 time=0
note_on channel=10 note=46 velocity=76 time=0
pitchwheel channel=3 pitch=4160 time=3
note_on channel=8 note=53 velocity=91 time=8
note_on channel=10 note=53 velocity=57 time=0
pitchwheel channel=3 pitch=4550 time=2
pitchwheel channel=3 pitch=4940 time=11
pitchwheel channel=3 pitch=5720 time=13
note_off channel=8 note=46 velocity=0 time=10
note_off channel=10 note=46 velocity=0 time=0
pitchwheel channel=3 pitch=6370 time=2
note_off channel=8 note=53 velocity=0 time=6
note_off channel=10 note=53 velocity=0 time=0
pitchwheel channel=3 pitch=7020 time=7
pitchwheel channel=3 pitch=7410 time=10
note_off channel=9 note=43 velocity=0 time=11
pitchwheel channel=3 pitch=7930 time=1
note_off channel=9 note=40 velocity=0 time=29
pitchwheel channel=3 pitch=6240 time=1
pitchwheel channel=3 pitch=1690 time=12
note_off channel=3 note=77 velocity=0 time=9
pitchwheel channel=3 pitch=260 time=1
note_on channel=3 note=82 velocity=111 time=0
note_off channel=1 note=34 velocity=0 time=64
note_on channel=1 note=34 velocity=73 time=21
note_on channel=8 note=46 velocity=110 time=0
note_on channel=9 note=35 velocity=95 time=0
note_on channel=9 note=40 velocity=95 time=0
note_on channel=9 note=43 velocity=106 time=0
note_on channel=10 note=46 velocity=76 time=0
note_on channel=8 note=53 velocity=91 time=11
note_on channel=10 note=53 velocity=57 time=0
note_off channel=8 note=46 velocity=0 time=33
note_off channel=10 note=46 velocity=0 time=0
note_off channel=8 note=53 velocity=0 time=3
note_off channel=10 note=53 velocity=0 time=0
note_off channel=9 note=43 velocity=0 time=94
note_off channel=9 note=35 velocity=0 time=7
note_off channel=9 note=40 velocity=0 time=0
note_off channel=3 note=82 velocity=0 time=40
note_off channel=1 note=34 velocity=0 time=31
note_on channel=1 note=34 velocity=78 time=21
note_on channel=8 note=46 velocity=115 time=0
note_on channel=9 note=40 velocity=49 time=0
note_on channel=9 note=43 velocity=49 time=0
note_on channel=10 note=46 velocity=81 time=0
note_on channel=8 note=53 velocity=87 time=11
note_on channel=10 note=53 velocity=53 time=0
note_on channel=3 note=79 velocity=106 time=0
note_off channel=8 note=46 velocity=0 time=28
note_off channel=10 note=46 velocity=0 time=0
note_off channel=8 note=53 velocity=0 time=4
note_off channel=10 note=53 velocity=0 time=0
note_off channel=9 note=43 velocity=0 time=28
note_off channel=9 note=40 velocity=0 time=30
note_off channel=1 note=34 velocity=0 time=106
note_off channel=3 note=79 velocity=0 time=7
note_on channel=1 note=34 velocity=65 time=14
note_on channel=8 note=46 velocity=102 time=0
note_on channel=9 note=35 velocity=95 time=0
note_on channel=9 note=40 velocity=98 time=0
note_on channel=9 note=43 velocity=102 time=0
note_on channel=10 note=46 velocity=68 time=0
note_on channel=8 note=53 velocity=91 time=11
note_on channel=10 note=53 velocity=57 time=0
note_on channel=3 note=77 velocity=110 time=0
note_off channel=8 note=46 velocity=0 time=32
note_off channel=10 note=46 velocity=0 time=0
note_off channel=8 note=53 velocity=0 time=7
note_off channel=10 note=53 velocity=0 time=0
note_off channel=9 note=43 velocity=0 time=54
note_off channel=9 note=40 velocity=0 time=22
note_off channel=9 note=35 velocity=0 time=13
note_off channel=3 note=77 velocity=0 time=58
note_off channel=1 note=34 velocity=0 time=13
note_on channel=1 note=34 velocity=73 time=21
note_on channel=8 note=46 velocity=110 time=0
note_on channel=9 note=40 velocity=49 time=0
note_on channel=9 note=43 velocity=49 time=0
note_on channel=10 note=46 velocity=76 time=0
note_on channel=8 note=53 velocity=91 time=11
note_on channel=10 note=53 velocity=57 time=0
note_on channel=3 note=75 velocity=111 time=0
note_off channel=8 note=46 velocity=0 time=33
note_off channel=10 note=46 velocity=0 time=0
note_off channel=8 note=53 velocity=0 time=16
note_off channel=10 note=53 velocity=0 time=0
note_off channel=9 note=43 velocity=0 time=22
note_off channel=9 note=40 velocity=0 time=30
note_off channel=3 note=75 velocity=0 time=92
note_off channel=1 note=34 velocity=0 time=14
note_on channel=1 note=34 velocity=78 time=21
note_on channel=8 note=46 velocity=115 time=0
note_on channel=9 note=35 velocity=95 time=0
note_on channel=9 note=40 velocity=98 time=0
note_on channel=9 note=43 velocity=106 time=0
note_on channel=10 note=46 velocity=81 time=0
note_on channel=3 note=72 velocity=110 time=0
note_on channel=8 note=53 velocity=83 time=10
note_on channel=10 note=53 velocity=49 time=0
note_off channel=8 note=46 velocity=0 time=33
note_off channel=10 note=46 velocity=0 time=0
note_off channel=8 note=53 velocity=0 time=13
note_off channel=10 note=53 velocity=0 time=0
note_off channel=3 note=72 velocity=0 time=67
note_off channel=9 note=35 velocity=0 time=24
note_off channel=9 note=43 velocity=0 time=7
note_off channel=9 note=40 velocity=0 time=17
note_off channel=1 note=34 velocity=0 time=47
note_on channel=1 note=34 velocity=83 time=21
note_on channel=8 note=46 velocity=120 time=0
note_on channel=9 note=40 velocity=49 time=0
note_on channel=9 note=43 velocity=49 time=0
note_on channel=10 note=46 velocity=86 time=0
note_on channel=8 note=53 velocity=105 time=11
note_on channel=10 note=53 velocity=71 time=0
note_on channel=3 note=72 velocity=125 time=0
note_off channel=8 note=46 velocity=0 time=32
note_off channel=10 note=46 velocity=0 time=0
note_off channel=8 note=53 velocity=0 time=18
note_off channel=10 note=53 velocity=0 time=0
note_off channel=9 note=43 velocity=0 time=18
note_off channel=9 note=40 velocity=0 time=30
note_off channel=3 note=72 velocity=0 time=16
note_on channel=3 note=72 velocity=125 time=0
note_off channel=1 note=34 velocity=0 time=84
note_off channel=3 note=72 velocity=0 time=15
note_on channel=1 note=34 velocity=83 time=0
note_on channel=3 note=75 velocity=123 time=0
note_on channel=8 note=46 velocity=120 time=0
note_on channel=9 note=35 velocity=95 time=0
note_on channel=9 note=40 velocity=98 time=0
note_on channel=9 note=43 velocity=106 time=0
note_on channel=10 note=46 velocity=86 time=0
note_on channel=8 note=53 velocity=105 time=11
note_on channel=10 note=53 velocity=71 time=0
note_off channel=8 note=46 velocity=0 time=36
note_off channel=10 note=46 velocity=0 time=0
note_off channel=8 note=53 velocity=0 time=18
note_off channel=10 note=53 velocity=0 time=0
note_off channel=3 note=75 velocity=0 time=49
note_off channel=9 note=43 velocity=0 time=1
note_on channel=3 note=75 velocity=123 time=0
note_off channel=9 note=40 velocity=0 time=10
note_off channel=9 note=35 velocity=0 time=18
note_off channel=1 note=34 velocity=0 time=71
note_off channel=3 note=75 velocity=0 time=15
note_on channel=1 note=31 velocity=73 time=0
note_on channel=3 note=75 velocity=101 time=0
note_on channel=8 note=43 velocity=110 time=0
note_on channel=9 note=40 velocity=49 time=0
note_on channel=9 note=43 velocity=49 time=0
note_on channel=10 note=43 velocity=76 time=0
note_on channel=8 note=50 velocity=91 time=11
note_on channel=10 note=50 velocity=57 time=0
note_off channel=8 note=43 velocity=0 time=36
note_off channel=10 note=43 velocity=0 time=0
note_off channel=8 note=50 velocity=0 time=8
note_off channel=10 note=50 velocity=0 time=0
note_off channel=9 note=43 velocity=0 time=28
note_off channel=9 note=40 velocity=0 time=30
note_off channel=3 note=75 velocity=0 time=97
note_off channel=1 note=31 velocity=0 time=9
note_on channel=1 note=31 velocity=73 time=0
note_on channel=3 note=74 velocity=106 time=0
note_on channel=8 note=43 velocity=110 time=0
note_on channel=9 note=35 velocity=95 time=0
note_on channel=9 note=40 velocity=95 time=0
note_on channel=9 note=43 velocity=106 time=0
note_on channel=10 note=43 velocity=76 time=0
note_on channel=8 note=50 velocity=91 time=11
note_on channel=10 note=50 velocity=57 time=0
note_off channel=8 note=43 velocity=0 time=33
note_off channel=10 note=43 velocity=0 time=0
note_off channel=8 note=50 velocity=0 time=3
note_off channel=10 note=50 velocity=0 time=0
note_off channel=9 note=43 velocity=0 time=94
note_off channel=9 note=35 velocity=0 time=7
note_off channel=9 note=40 velocity=0 time=0
note_off channel=3 note=74 velocity=0 time=62
note_off channel=1 note=31 velocity=0 time=9
note_on channel=1 note=31 velocity=78 time=0
note_on channel=3 note=72 velocity=115 time=0
note_on channel=8 note=43 velocity=115 time=0
note_on channel=9 note=40 velocity=49 time=0
note_on channel=9 note=43 velocity=49 time=0
note_on channel=10 note=43 velocity=81 time=0
note_on channel=8 note=50 velocity=87 time=11
note_on channel=10 note=50 velocity=53 time=0
note_off channel=8 note=43 velocity=0 time=40
note_off channel=10 note=43 velocity=0 time=0
note_off channel=8 note=50 velocity=0 time=4
note_off channel=10 note=50 velocity=0 time=0
note_off channel=9 note=43 velocity=0 time=28
note_off channel=9 note=40 velocity=0 time=30
note_off channel=3 note=72 velocity=0 time=97
note_off channel=1 note=31 velocity=0 time=9
note_on channel=1 note=31 velocity=65 time=0
note_on channel=3 note=72 velocity=127 time=0
note_on channel=8 note=43 velocity=102 time=0
note_on channel=9 note=35 velocity=95 time=0
note_on channel=9 note=40 velocity=98 time=0
note_on channel=9 note=43 velocity=102 time=0
note_on channel=10 note=43 velocity=68 time=0
note_on channel=8 note=50 velocity=91 time=11
note_on channel=10 note=50 velocity=57 time=0
note_off channel=8 note=43 velocity=0 time=41
note_off channel=10 note=43 velocity=0 time=0
note_off channel=8 note=50 velocity=0 time=7
note_off channel=10 note=50 velocity=0 time=0
note_off channel=9 note=43 velocity=0 time=54
note_off channel=9 note=40 velocity=0 time=22
note_off channel=9 note=35 velocity=0 time=13
note_off channel=1 note=31 velocity=0 time=71
note_on channel=1 note=34 velocity=73 time=21
note_on channel=8 note=46 velocity=110 time=0
note_on channel=9 note=40 velocity=49 time=0
note_on channel=9 note=43 velocity=49 time=0
note_on channel=10 note=46 velocity=76 time=0
note_on channel=8 note=53 velocity=91 time=11
note_on channel=10 note=53 velocity=57 time=0
note_off channel=8 note=46 velocity=0 time=34
note_off channel=10 note=46 velocity=0 time=0
note_off channel=8 note=53 velocity=0 time=16
note_off channel=10 note=53 velocity=0 time=0
note_off channel=9 note=43 velocity=0 time=22
note_off channel=3 note=72 velocity=0 time=6
note_off channel=9 note=40 velocity=0 time=24
note_off channel=1 note=34 velocity=0 time=106
note_on channel=1 note=34 velocity=78 time=21
note_on channel=8 note=46 velocity=115 time=0
note_on channel=9 note=35 velocity=95 time=0
note_on channel=9 note=40 velocity=98 time=0
note_on channel=9 note=43 velocity=106 time=0
note_on channel=10 note=46 velocity=81 time=0
note_on channel=8 note=53 velocity=83 time=11
note_on channel=10 note=53 velocity=49 time=0
note_off channel=8 note=46 velocity=0 time=33
note_off channel=10 note=46 velocity=0 time=0
note_off channel=8 note=53 velocity=0 time=13
note_off channel=10 note=53 velocity=0 time=0
note_off channel=9 note=35 velocity=0 time=91
note_off channel=9 note=43 velocity=0 time=7
note_off channel=9 note=40 velocity=0 time=17
note_off channel=1 note=34 velocity=0 time=47
note_on channel=1 note=34 velocity=83 time=21
note_on channel=8 note=46 velocity=120 time=0
note_on channel=9 note=40 velocity=49 time=0
note_on channel=9 note=43 velocity=49 time=0
note_on channel=9 note=46 velocity=106 time=0
note_on channel=10 note=46 velocity=86 time=0
note_on channel=8 note=53 velocity=105 time=11
note_on channel=10 note=53 velocity=71 time=0
note_off channel=8 note=46 velocity=0 time=36
note_off channel=10 note=46 velocity=0 time=0
note_off channel=8 note=53 velocity=0 time=18
note_off channel=10 note=53 velocity=0 time=0
note_off channel=9 note=43 velocity=0 time=18
note_off channel=9 note=40 velocity=0 time=30
note_off channel=9 note=46 velocity=0 time=42
note_off channel=1 note=34 velocity=0 time=64
note_on channel=1 note=32 velocity=113 time=21
note_on channel=7 note=32 velocity=114 time=0
note_on channel=7 note=44 velocity=114 time=0
note_on channel=7 note=56 velocity=114 time=0
note_on channel=7 note=60 velocity=114 time=0
note_on channel=7 note=63 velocity=114 time=0
note_on channel=8 note=44 velocity=104 time=0
note_on channel=9 note=35 velocity=95 time=0
note_on channel=9 note=40 velocity=98 time=0
note_on channel=9 note=43 velocity=106 time=0
note_on channel=10 note=44 velocity=105 time=0
note_on channel=8 note=51 velocity=106 time=11
note_off channel=8 note=44 velocity=0 time=31
note_off channel=8 note=51 velocity=0 time=16
note_off channel=9 note=43 velocity=0 time=57
note_off channel=9 note=40 velocity=0 time=15
note_off channel=9 note=35 velocity=0 time=18
note_off channel=1 note=32 velocity=0 time=71
note_off channel=10 note=44 velocity=0 time=0
note_on channel=1 note=32 velocity=113 time=21
note_on channel=8 note=44 velocity=121 time=0
note_on channel=9 note=44 velocity=95 time=0
note_on channel=10 note=44 velocity=105 time=0
note_on channel=8 note=51 velocity=106 time=11
note_off channel=9 note=44 velocity=0 time=17
note_off channel=8 note=44 velocity=0 time=17
note_off channel=8 note=51 velocity=0 time=5
note_off channel=1 note=32 velocity=0 time=169
note_off channel=10 note=44 velocity=0 time=0
note_on channel=1 note=32 velocity=118 time=21
note_on channel=8 note=44 velocity=89 time=0
note_on channel=9 note=35 velocity=95 time=0
note_on channel=9 note=40 velocity=95 time=0
note_on channel=9 note=43 velocity=106 time=0
note_on channel=10 note=44 velocity=110 time=0
note_on channel=8 note=51 velocity=93 time=11
note_off channel=8 note=44 velocity=0 time=22
note_off channel=8 note=51 velocity=0 time=12
note_off channel=9 note=43 velocity=0 time=96
note_off channel=9 note=35 velocity=0 time=7
note_off channel=9 note=40 velocity=0 time=0
note_off channel=1 note=32 velocity=0 time=71
note_off channel=10 note=44 velocity=0 time=0
note_on channel=1 note=32 velocity=113 time=0
note_on channel=3 note=75 velocity=123 time=0
note_on channel=8 note=44 velocity=108 time=0
note_on channel=9 note=44 velocity=95 time=0
note_on channel=10 note=44 velocity=105 time=0
note_on channel=8 note=51 velocity=93 time=11
note_off channel=9 note=44 velocity=0 time=17
note_off channel=8 note=44 velocity=0 time=12
note_off channel=8 note=51 velocity=0 time=12
note_off channel=3 note=75 velocity=0 time=58
note_off channel=1 note=32 velocity=0 time=109
note_off channel=10 note=44 velocity=0 time=0
note_on channel=1 note=32 velocity=113 time=21
note_on channel=8 note=44 velocity=93 time=0
note_on channel=9 note=35 velocity=95 time=0
note_on channel=9 note=40 velocity=98 time=0
note_on channel=9 note=43 velocity=102 time=0
note_on channel=10 note=44 velocity=105 time=0
note_on channel=8 note=51 velocity=81 time=11
note_on channel=3 note=78 velocity=127 time=0
note_off channel=8 note=44 velocity=0 time=18
note_off channel=8 note=51 velocity=0 time=11
pitchwheel channel=3 pitch=520 time=60
note_off channel=9 note=43 velocity=0 time=4
pitchwheel channel=3 pitch=910 time=10
note_off channel=9 note=40 velocity=0 time=12
pitchwheel channel=3 pitch=1300 time=6
note_off channel=9 note=35 velocity=0 time=7
pitchwheel channel=3 pitch=1560 time=5
pitchwheel channel=3 pitch=1690 time=10
pitchwheel channel=3 pitch=1950 time=20
note_off channel=1 note=32 velocity=0 time=36
note_off channel=10 note=44 velocity=0 time=0
note_on channel=1 note=32 velocity=118 time=21
note_on channel=8 note=44 velocity=116 time=0
note_on channel=9 note=44 velocity=95 time=0
note_on channel=10 note=44 velocity=110 time=0
note_on channel=8 note=51 velocity=93 time=11
pitchwheel channel=3 pitch=2340 time=1
pitchwheel channel=3 pitch=2730 time=13
note_off channel=9 note=44 velocity=0 time=3
pitchwheel channel=3 pitch=3380 time=13
note_off channel=8 note=44 velocity=0 time=4
pitchwheel channel=3 pitch=3770 time=8
note_off channel=8 note=51 velocity=0 time=1
pitchwheel channel=3 pitch=4290 time=12
pitchwheel channel=3 pitch=4420 time=12
pitchwheel channel=3 pitch=4680 time=34
note_off channel=3 note=78 velocity=0 time=27
pitchwheel channel=3 pitch=4420 time=23
pitchwheel channel=3 pitch=3770 time=15
pitchwheel channel=3 pitch=3250 time=10
pitchwheel channel=3 pitch=2470 time=12
pitchwheel channel=3 pitch=1560 time=10
note_off channel=1 note=32 velocity=0 time=10
note_off channel=10 note=44 velocity=0 time=0
pitchwheel channel=3 pitch=260 time=4
note_on channel=3 note=78 velocity=127 time=0
note_on channel=1 note=32 velocity=113 time=4
note_on channel=8 note=44 velocity=121 time=0
note_on channel=9 note=35 velocity=95 time=0
note_on channel=9 note=40 velocity=98 time=0
note_on channel=9 note=43 velocity=106 time=0
note_on channel=10 note=44 velocity=105 time=0
note_on channel=8 note=51 velocity=101 time=11
note_off channel=8 note=44 velocity=0 time=34
note_off channel=8 note=51 velocity=0 time=5
pitchwheel channel=3 pitch=780 time=69
pitchwheel channel=3 pitch=1170 time=13
pitchwheel channel=3 pitch=1560 time=15
note_off channel=9 note=35 velocity=0 time=1
note_off channel=9 note=43 velocity=0 time=7
pitchwheel channel=3 pitch=1820 time=7
note_off channel=9 note=40 velocity=0 time=10
note_off channel=1 note=32 velocity=0 time=47
note_off channel=10 note=44 velocity=0 time=0
note_on channel=1 note=32 velocity=118 time=21
note_on channel=8 note=44 velocity=121 time=0
note_on channel=9 note=44 velocity=95 time=0
note_on channel=10 note=44 velocity=110 time=0
note_on channel=8 note=51 velocity=93 time=11
note_off channel=9 note=44 velocity=0 time=17
pitchwheel channel=3 pitch=1950 time=2
note_off channel=8 note=44 velocity=0 time=16
note_off channel=8 note=51 velocity=0 time=3
pitchwheel channel=3 pitch=2210 time=18
note_off channel=7 note=32 velocity=0 time=32
note_off channel=7 note=44 velocity=0 time=0
note_off channel=7 note=56 velocity=0 time=0
note_off channel=7 note=60 velocity=0 time=0
note_off channel=7 note=63 velocity=0 time=0
pitchwheel channel=3 pitch=2340 time=5
note_on channel=9 note=44 velocity=95 time=16
pitchwheel channel=3 pitch=2600 time=1
pitchwheel channel=3 pitch=2730 time=10
note_off channel=9 note=44 velocity=0 time=17
pitchwheel channel=3 pitch=3250 time=3
pitchwheel channel=3 pitch=3380 time=10
note_off channel=3 note=78 velocity=0 time=8
pitchwheel channel=3 pitch=3770 time=10
pitchwheel channel=3 pitch=4290 time=17
pitchwheel channel=3 pitch=4680 time=17
note_off channel=1 note=32 velocity=0 time=6
note_off channel=10 note=44 velocity=0 time=0
note_on channel=1 note=34 velocity=113 time=21
note_on channel=7 note=34 velocity=114 time=0
note_on channel=7 note=46 velocity=114 time=0
note_on channel=7 note=58 velocity=114 time=0
note_on channel=7 note=62 velocity=114 time=0
note_on channel=7 note=65 velocity=114 time=0
note_on channel=8 note=46 velocity=104 time=0
note_on channel=9 note=35 velocity=95 time=0
note_on channel=9 note=40 velocity=98 time=0
note_on channel=9 note=43 velocity=106 time=0
note_on channel=10 note=46 velocity=105 time=0
note_on channel=3 note=78 velocity=127 time=0
note_on channel=8 note=53 velocity=106 time=0
pitchwheel channel=3 pitch=3900 time=12
pitchwheel channel=3 pitch=2080 time=12
note_off channel=8 note=46 velocity=0 time=7
pitchwheel channel=3 pitch=260 time=3
note_off channel=8 note=53 velocity=0 time=13
note_off channel=9 note=43 velocity=0 time=57
note_off channel=9 note=40 velocity=0 time=15
note_off channel=3 note=78 velocity=0 time=12
note_off channel=9 note=35 velocity=0 time=6
note_on channel=3 note=75 velocity=116 time=8
note_off channel=1 note=34 velocity=0 time=63
note_off channel=10 note=46 velocity=0 time=0
note_on channel=1 note=34 velocity=113 time=21
note_on channel=8 note=46 velocity=121 time=0
note_on channel=9 note=44 velocity=95 time=0
note_on channel=10 note=46 velocity=105 time=0
note_off channel=3 note=75 velocity=0 time=5
note_on channel=8 note=53 velocity=106 time=6
note_off channel=9 note=44 velocity=0 time=17
note_on channel=3 note=72 velocity=115 time=0
note_off channel=8 note=46 velocity=0 time=9
note_off channel=8 note=53 velocity=0 time=5
note_off channel=3 note=72 velocity=0 time=119
note_off channel=1 note=34 velocity=0 time=50
note_off channel=10 note=46 velocity=0 time=0
note_on channel=1 note=34 velocity=118 time=21
note_on channel=8 note=46 velocity=89 time=0
note_on channel=9 note=35 velocity=95 time=0
note_on channel=9 note=40 velocity=95 time=0
note_on channel=9 note=43 velocity=106 time=0
note_on channel=10 note=46 velocity=110 time=0
note_on channel=8 note=53 velocity=93 time=11
note_off channel=8 note=46 velocity=0 time=22
note_on channel=3 note=75 velocity=120 time=0
note_off channel=8 note=53 velocity=0 time=9
note_off channel=9 note=43 velocity=0 time=96
note_off channel=9 note=35 velocity=0 time=7
note_off channel=9 note=40 velocity=0 time=0
note_off channel=3 note=75 velocity=0 time=38
note_off channel=1 note=34 velocity=0 time=33
note_off channel=10 note=46 velocity=0 time=0
note_on channel=1 note=34 velocity=113 time=21
note_on channel=8 note=46 velocity=108 time=0
note_on channel=9 note=44 velocity=95 time=0
note_on channel=10 note=46 velocity=105 time=0
note_on channel=8 note=53 velocity=93 time=11
note_on channel=3 note=75 velocity=127 time=11
note_off channel=9 note=44 velocity=0 time=6
note_off channel=8 note=46 velocity=0 time=12
note_off channel=8 note=53 velocity=0 time=12
note_off channel=3 note=75 velocity=0 time=90
note_off channel=1 note=34 velocity=0 time=77
note_off channel=10 note=46 velocity=0 time=0
note_on channel=1 note=34 velocity=113 time=21
note_on channel=8 note=46 velocity=93 time=0
note_on channel=9 note=35 velocity=95 time=0
note_on channel=9 note=40 velocity=98 time=0
note_on channel=9 note=43 velocity=102 time=0
note_on channel=10 note=46 velocity=105 time=0
note_on channel=8 note=53 velocity=81 time=11
note_on channel=3 note=78 velocity=127 time=0
note_off channel=8 note=46 velocity=0 time=11
note_off channel=8 note=53 velocity=0 time=11
note_off channel=9 note=43 velocity=0 time=64
pitchwheel channel=3 pitch=390 time=4
pitchwheel channel=3 pitch=910 time=14
note_off channel=9 note=40 velocity=0 time=4
pitchwheel channel=3 pitch=1300 time=11
note_off channel=9 note=35 velocity=0 time=2
pitchwheel channel=3 pitch=1430 time=8
pitchwheel channel=3 pitch=1690 time=15
note_off channel=1 note=34 velocity=0 time=48
note_off channel=10 note=46 velocity=0 time=0
pitchwheel channel=3 pitch=1820 time=4
note_on channel=1 note=34 velocity=118 time=17
note_on channel=8 note=46 velocity=116 time=0
note_on channel=9 note=44 velocity=95 time=0
note_on channel=10 note=46 velocity=110 time=0
pitchwheel channel=3 pitch=2080 time=2
note_on channel=8 note=53 velocity=93 time=9
pitchwheel channel=3 pitch=0 time=1
pitchwheel channel=3 pitch=2340 time=1
note_off channel=9 note=44 velocity=0 time=15
pitchwheel channel=3 pitch=2470 time=0
note_off channel=8 note=46 velocity=0 time=17
pitchwheel channel=3 pitch=2730 time=4
note_off channel=8 note=53 velocity=0 time=5
pitchwheel channel=3 pitch=2860 time=8
pitchwheel channel=3 pitch=3380 time=19
pitchwheel channel=3 pitch=3770 time=18
pitchwheel channel=3 pitch=3900 time=10
note_off channel=3 note=78 velocity=0 time=26
pitchwheel channel=3 pitch=3510 time=38
pitchwheel channel=3 pitch=2990 time=10
pitchwheel channel=3 pitch=2080 time=10
pitchwheel channel=3 pitch=1170 time=12
pitchwheel channel=3 pitch=260 time=10
note_off channel=1 note=34 velocity=0 time=4
note_off channel=7 note=34 velocity=0 time=0
note_off channel=7 note=46 velocity=0 time=0
note_off channel=7 note=58 velocity=0 time=0
note_off channel=7 note=62 velocity=0 time=0
note_off channel=7 note=65 velocity=0 time=0
note_off channel=10 note=46 velocity=0 time=0
note_on channel=3 note=78 velocity=123 time=0
note_on channel=1 note=34 velocity=113 time=1
note_on channel=7 note=34 velocity=114 time=0
note_on channel=7 note=46 velocity=114 time=0
note_on channel=7 note=58 velocity=114 time=0
note_on channel=7 note=62 velocity=114 time=0
note_on channel=7 note=65 velocity=114 time=0
note_on channel=8 note=46 velocity=121 time=0
note_on channel=9 note=35 velocity=95 time=0
note_on channel=9 note=40 velocity=98 time=0
note_on channel=9 note=43 velocity=106 time=0
note_on channel=10 note=46 velocity=105 time=0
note_on channel=8 note=53 velocity=101 time=11
note_off channel=8 note=46 velocity=0 time=34
note_off channel=8 note=53 velocity=0 time=5
pitchwheel channel=3 pitch=520 time=24
pitchwheel channel=3 pitch=910 time=17
pitchwheel channel=3 pitch=1040 time=15
pitchwheel channel=3 pitch=1300 time=10
pitchwheel channel=3 pitch=1560 time=10
pitchwheel channel=3 pitch=1690 time=14
note_off channel=9 note=35 velocity=0 time=8
note_off channel=9 note=43 velocity=0 time=7
note_off channel=9 note=40 velocity=0 time=17
pitchwheel channel=3 pitch=1950 time=23
pitchwheel channel=3 pitch=2080 time=15
note_off channel=1 note=34 velocity=0 time=9
note_off channel=10 note=46 velocity=0 time=0
pitchwheel channel=3 pitch=2340 time=3
note_on channel=1 note=34 velocity=118 time=18
note_on channel=8 note=46 velocity=121 time=0
note_on channel=9 note=46 velocity=95 time=0
note_on channel=10 note=46 velocity=110 time=0
pitchwheel channel=3 pitch=2730 time=0
note_on channel=8 note=53 velocity=93 time=11
pitchwheel channel=3 pitch=3120 time=6
note_off channel=9 note=46 velocity=0 time=11
pitchwheel channel=3 pitch=3380 time=1
note_off channel=8 note=46 velocity=0 time=17
note_off channel=8 note=53 velocity=0 time=3
note_off channel=3 note=78 velocity=0 time=113
pitchwheel channel=3 pitch=2730 time=19
pitchwheel channel=3 pitch=1690 time=11
pitchwheel channel=3 pitch=390 time=11
note_off channel=1 note=34 velocity=0 time=16
note_off channel=10 note=46 velocity=0 time=0
note_off channel=7 note=34 velocity=0 time=15
note_off channel=7 note=46 velocity=0 time=0
note_off channel=7 note=58 velocity=0 time=0
note_off channel=7 note=62 velocity=0 time=0
note_off channel=7 note=65 velocity=0 time=0
note_on channel=1 note=31 velocity=113 time=6
note_on channel=7 note=31 velocity=114 time=0
note_on channel=7 note=43 velocity=114 time=0
note_on channel=7 note=55 velocity=114 time=0
note_on channel=7 note=58 velocity=114 time=0
note_on channel=7 note=62 velocity=114 time=0
note_on channel=8 note=43 velocity=104 time=0
note_on channel=9 note=35 velocity=95 time=0
note_on channel=9 note=40 velocity=98 time=0
note_on channel=9 note=43 velocity=106 time=0
note_on channel=10 note=43 velocity=105 time=0
note_on channel=3 note=78 velocity=127 time=0
note_on channel=8 note=50 velocity=106 time=1
pitchwheel channel=3 pitch=650 time=12
pitchwheel channel=3 pitch=2080 time=10
note_off channel=8 note=43 velocity=0 time=9
pitchwheel channel=3 pitch=3770 time=1
pitchwheel channel=3 pitch=5330 time=10
note_off channel=8 note=50 velocity=0 time=5
pitchwheel channel=3 pitch=6370 time=5
pitchwheel channel=3 pitch=6110 time=21
pitchwheel channel=3 pitch=3770 time=10
pitchwheel channel=3 pitch=0 time=10
note_off channel=9 note=43 velocity=0 time=11
note_off channel=9 note=40 velocity=0 time=15
note_off channel=9 note=35 velocity=0 time=18
note_off channel=3 note=78 velocity=0 time=10
note_on channel=3 note=75 velocity=111 time=18
note_off channel=1 note=31 velocity=0 time=43
note_off channel=10 note=43 velocity=0 time=0
note_on channel=1 note=31 velocity=113 time=21
note_on channel=8 note=43 velocity=121 time=0
note_on channel=9 note=44 velocity=95 time=0
note_on channel=10 note=43 velocity=105 time=0
note_on channel=8 note=50 velocity=106 time=11
note_off channel=9 note=44 velocity=0 time=17
note_on channel=3 note=72 velocity=102 time=10
note_off channel=3 note=75 velocity=0 time=5
note_off channel=8 note=43 velocity=0 time=2
note_off channel=8 note=50 velocity=0 time=5
note_off channel=3 note=72 velocity=0 time=148
note_off channel=1 note=31 velocity=0 time=21
note_off channel=10 note=43 velocity=0 time=0
note_on channel=1 note=31 velocity=118 time=21
note_on channel=8 note=43 velocity=89 time=0
note_on channel=9 note=35 velocity=95 time=0
note_on channel=9 note=40 velocity=95 time=0
note_on channel=9 note=43 velocity=106 time=0
note_on channel=10 note=43 velocity=110 time=0
note_on channel=8 note=50 velocity=93 time=11
note_off channel=8 note=43 velocity=0 time=22
note_off channel=8 note=50 velocity=0 time=0
note_on channel=3 note=75 velocity=120 time=0
note_off channel=9 note=43 velocity=0 time=96
note_off channel=9 note=35 velocity=0 time=7
note_off channel=9 note=40 velocity=0 time=0
note_off channel=3 note=75 velocity=0 time=44
note_off channel=1 note=31 velocity=0 time=27
note_off channel=10 note=43 velocity=0 time=0
note_on channel=1 note=31 velocity=113 time=21
note_on channel=8 note=43 velocity=108 time=0
note_on channel=9 note=44 velocity=95 time=0
note_on channel=10 note=43 velocity=105 time=0
note_on channel=8 note=50 velocity=93 time=11
note_on channel=3 note=75 velocity=127 time=0
note_off channel=9 note=44 velocity=0 time=15
note_off channel=8 note=43 velocity=0 time=12
note_off channel=8 note=50 velocity=0 time=12
note_off channel=3 note=75 velocity=0 time=71
note_off channel=1 note=31 velocity=0 time=96
note_off channel=10 note=43 velocity=0 time=0
note_on channel=1 note=31 velocity=113 time=21
note_on channel=8 note=43 velocity=93 time=0
note_on channel=9 note=35 velocity=95 time=0
note_on channel=9 note=40 velocity=98 time=0
note_on channel=9 note=43 velocity=102 time=0
note_on channel=10 note=43 velocity=105 time=0
note_on channel=3 note=78 velocity=123 time=0
note_on channel=8 note=50 velocity=81 time=0
note_off channel=8 note=43 velocity=0 time=27
note_off channel=8 note=50 velocity=0 time=11
pitchwheel channel=3 pitch=130 time=26
pitchwheel channel=3 pitch=390 time=28
note_off channel=9 note=43 velocity=0 time=10
pitchwheel channel=3 pitch=780 time=7
note_off channel=9 note=40 velocity=0 time=15
pitchwheel channel=3 pitch=1170 time=0
note_off channel=9 note=35 velocity=0 time=13
pitchwheel channel=3 pitch=1690 time=2
pitchwheel channel=3 pitch=2080 time=19
pitchwheel channel=3 pitch=2210 time=10
note_off channel=1 note=31 velocity=0 time=40
note_off channel=10 note=43 velocity=0 time=0
pitchwheel channel=3 pitch=2470 time=2
note_on channel=1 note=31 velocity=118 time=19
note_on channel=8 note=43 velocity=116 time=0
note_on channel=9 note=44 velocity=95 time=0
note_on channel=10 note=43 velocity=110 time=0
note_on channel=8 note=50 velocity=93 time=11
pitchwheel channel=3 pitch=2860 time=0
note_off channel=9 note=44 velocity=0 time=17
pitchwheel channel=3 pitch=3250 time=2
note_off channel=8 note=43 velocity=0 time=15
pitchwheel channel=3 pitch=3770 time=0
note_off channel=8 note=50 velocity=0 time=9
pitchwheel channel=3 pitch=4160 time=3
pitchwheel channel=3 pitch=4550 time=11
pitchwheel channel=3 pitch=5200 time=16
pitchwheel channel=3 pitch=5590 time=12
note_off channel=3 note=78 velocity=0 time=40
pitchwheel channel=3 pitch=5460 time=22
pitchwheel channel=3 pitch=4680 time=14
pitchwheel channel=3 pitch=3770 time=11
pitchwheel channel=3 pitch=2860 time=12
pitchwheel channel=3 pitch=1820 time=10
note_off channel=1 note=31 velocity=0 time=14
note_off channel=10 note=43 velocity=0 time=0
pitchwheel channel=3 pitch=390 time=0
note_on channel=1 note=31 velocity=113 time=21
note_on channel=8 note=43 velocity=121 time=0
note_on channel=9 note=35 velocity=95 time=0
note_on channel=9 note=40 velocity=98 time=0
note_on channel=9 note=43 velocity=106 time=0
note_on channel=10 note=43 velocity=105 time=0
note_on channel=3 note=78 velocity=127 time=0
note_on channel=8 note=50 velocity=101 time=4
note_off channel=8 note=43 velocity=0 time=34
note_off channel=8 note=50 velocity=0 time=5
pitchwheel channel=3 pitch=520 time=66
pitchwheel channel=3 pitch=910 time=14
pitchwheel channel=3 pitch=1430 time=13
note_off channel=9 note=35 velocity=0 time=5
note_off channel=9 note=43 velocity=0 time=7
pitchwheel channel=3 pitch=1820 time=2
pitchwheel channel=3 pitch=1950 time=10
note_off channel=9 note=40 velocity=0 time=5
pitchwheel channel=3 pitch=2210 time=10
note_off channel=1 note=31 velocity=0 time=37
note_off channel=10 note=43 velocity=0 time=0
note_on channel=1 note=31 velocity=118 time=21
note_on channel=8 note=43 velocity=121 time=0
note_on channel=9 note=44 velocity=95 time=0
note_on channel=10 note=43 velocity=110 time=0
pitchwheel channel=3 pitch=2470 time=7
note_on channel=8 note=50 velocity=93 time=4
pitchwheel channel=3 pitch=2600 time=8
note_off channel=9 note=44 velocity=0 time=9
pitchwheel channel=3 pitch=2860 time=1
pitchwheel channel=3 pitch=2990 time=10
note_off channel=8 note=43 velocity=0 time=7
note_off channel=8 note=50 velocity=0 time=3
pitchwheel channel=3 pitch=3250 time=2
pitchwheel channel=3 pitch=3510 time=17
pitchwheel channel=3 pitch=3640 time=20
pitchwheel channel=3 pitch=3900 time=22
note_on channel=9 note=44 velocity=95 time=10
pitchwheel channel=3 pitch=4030 time=18
note_off channel=9 note=44 velocity=0 time=10
note_off channel=3 note=78 velocity=0 time=5
pitchwheel channel=3 pitch=4290 time=7
pitchwheel channel=3 pitch=4550 time=15
pitchwheel channel=3 pitch=4680 time=10
pitchwheel channel=3 pitch=4940 time=14
note_off channel=1 note=31 velocity=0 time=20
note_off channel=7 note=31 velocity=0 time=0
note_off channel=7 note=43 velocity=0 time=0
note_off channel=7 note=55 velocity=0 time=0
note_off channel=7 note=58 velocity=0 time=0
note_off channel=7 note=62 velocity=0 time=0
note_off channel=10 note=43 velocity=0 time=0
note_on channel=1 note=32 velocity=113 time=0
note_on channel=3 note=77 velocity=123 time=0
note_on channel=7 note=32 velocity=114 time=0
note_on channel=7 note=44 velocity=114 time=0
note_on channel=7 note=56 velocity=114 time=0
note_on channel=7 note=60 velocity=114 time=0
note_on channel=7 note=63 velocity=114 time=0
note_on channel=8 note=44 velocity=104 time=0
note_on channel=9 note=35 velocity=95 time=0
note_on channel=9 note=40 velocity=98 time=0
note_on channel=9 note=43 velocity=106 time=0
note_on channel=10 note=44 velocity=105 time=0
pitchwheel channel=3 pitch=4420 time=1
note_on channel=8 note=51 velocity=106 time=10
pitchwheel channel=3 pitch=2210 time=2
pitchwheel channel=3 pitch=130 time=10
note_off channel=8 note=44 velocity=0 time=19
note_off channel=8 note=51 velocity=0 time=16
note_off channel=3 note=77 velocity=0 time=57
note_off channel=9 note=43 velocity=0 time=0
note_off channel=9 note=40 velocity=0 time=15
note_off channel=9 note=35 velocity=0 time=18
note_off channel=1 note=32 velocity=0 time=71
note_off channel=10 note=44 velocity=0 time=0
note_on channel=1 note=32 velocity=113 time=0
note_on channel=3 note=75 velocity=111 time=0
note_on channel=8 note=44 velocity=121 time=0
note_on channel=9 note=44 velocity=95 time=0
note_on channel=10 note=44 velocity=105 time=0
note_on channel=8 note=51 velocity=106 time=11
note_off channel=9 note=44 velocity=0 time=17
note_off channel=8 note=44 velocity=0 time=17
note_off channel=8 note=51 velocity=0 time=5
note_off channel=3 note=75 velocity=0 time=78
note_off channel=1 note=32 velocity=0 time=91
note_off channel=10 note=44 velocity=0 time=0
note_on channel=1 note=32 velocity=118 time=21
note_on channel=8 note=44 velocity=89 time=0
note_on channel=9 note=35 velocity=95 time=0
note_on channel=9 note=40 velocity=95 time=0
note_on channel=9 note=43 velocity=106 time=0
note_on channel=10 note=44 velocity=110 time=0
note_on channel=3 note=75 velocity=127 time=0
note_on channel=8 note=51 velocity=93 time=10
note_off channel=8 note=44 velocity=0 time=22
note_off channel=8 note=51 velocity=0 time=12
note_off channel=3 note=75 velocity=0 time=44
note_off channel=9 note=43 velocity=0 time=52
note_off channel=9 note=35 velocity=0 time=7
note_off channel=9 note=40 velocity=0 time=0
note_off channel=1 note=32 velocity=0 time=71
note_off channel=10 note=44 velocity=0 time=0
note_on channel=3 note=75 velocity=127 time=0
note_on channel=1 note=32 velocity=113 time=1
note_on channel=8 note=44 velocity=108 time=0
note_on channel=9 note=44 velocity=95 time=0
note_on channel=10 note=44 velocity=105 time=0
note_on channel=8 note=51 velocity=93 time=11
note_off channel=9 note=44 velocity=0 time=17
note_off channel=8 note=44 velocity=0 time=12
note_off channel=8 note=51 velocity=0 time=12
note_off channel=3 note=75 velocity=0 time=34
note_off channel=1 note=32 velocity=0 time=133
note_off channel=10 note=44 velocity=0 time=0
note_on channel=3 note=77 velocity=127 time=0
note_on channel=1 note=32 velocity=113 time=12
note_on channel=8 note=44 velocity=93 time=0
note_on channel=9 note=35 velocity=95 time=0
note_on channel=9 note=40 velocity=98 time=0
note_on channel=9 note=43 velocity=102 time=0
note_on channel=10 note=44 velocity=105 time=0
note_on channel=8 note=51 velocity=81 time=11
note_off channel=8 note=44 velocity=0 time=27
note_off channel=8 note=51 velocity=0 time=11
note_off channel=9 note=43 velocity=0 time=64
note_off channel=9 note=40 velocity=0 time=22
note_off channel=9 note=35 velocity=0 time=13
note_off channel=3 note=77 velocity=0 time=40
note_off channel=1 note=32 velocity=0 time=31
note_off channel=10 note=44 velocity=0 time=0
note_on channel=3 note=75 velocity=123 time=0
note_on channel=1 note=32 velocity=118 time=5
note_on channel=8 note=44 velocity=116 time=0
note_on channel=9 note=44 velocity=95 time=0
note_on channel=10 note=44 velocity=110 time=0
note_on channel=8 note=51 velocity=93 time=11
note_off channel=9 note=44 velocity=0 time=17
note_off channel=8 note=44 velocity=0 time=17
note_off channel=8 note=51 velocity=0 time=9
note_off channel=3 note=75 velocity=0 time=27
note_off channel=1 note=32 velocity=0 time=138
note_off channel=10 note=44 velocity=0 time=0
note_on channel=1 note=32 velocity=113 time=0
note_on channel=3 note=79 velocity=127 time=0
note_on channel=8 note=44 velocity=121 time=0
note_on channel=9 note=35 velocity=95 time=0
note_on channel=9 note=40 velocity=98 time=0
note_on channel=9 note=43 velocity=106 time=0
note_on channel=10 note=44 velocity=105 time=0
note_on channel=8 note=51 velocity=101 time=11
note_off channel=8 note=44 velocity=0 time=34
note_off channel=8 note=51 velocity=0 time=5
note_off channel=9 note=35 velocity=0 time=98
note_off channel=9 note=43 velocity=0 time=7
note_off channel=9 note=40 velocity=0 time=17
note_off channel=3 note=79 velocity=0 time=28
note_off channel=1 note=32 velocity=0 time=19
note_off channel=10 note=44 velocity=0 time=0
note_off channel=7 note=32 velocity=0 time=15
note_off channel=7 note=44 velocity=0 time=0
note_off channel=7 note=56 velocity=0 time=0
note_off channel=7 note=60 velocity=0 time=0
note_off channel=7 note=63 velocity=0 time=0
note_on channel=1 note=32 velocity=118 time=0
note_on channel=3 note=75 velocity=127 time=0
note_on channel=7 note=58 velocity=114 time=0
note_on channel=7 note=61 velocity=114 time=0
note_on channel=7 note=65 velocity=114 time=0
note_on channel=8 note=44 velocity=121 time=0
note_on channel=9 note=46 velocity=95 time=0
note_on channel=10 note=44 velocity=110 time=0
note_on channel=8 note=51 velocity=93 time=11
note_off channel=9 note=46 velocity=0 time=17
note_off channel=8 note=44 velocity=0 time=18
note_off channel=8 note=51 velocity=0 time=3
note_off channel=3 note=75 velocity=0 time=151
note_off channel=1 note=32 velocity=0 time=19
note_off channel=7 note=58 velocity=0 time=0
note_off channel=7 note=61 velocity=0 time=0
note_off channel=7 note=65 velocity=0 time=0
note_off channel=10 note=44 velocity=0 time=0
note_on channel=1 note=32 velocity=113 time=0
note_on channel=3 note=75 velocity=127 time=0
note_on channel=7 note=32 velocity=114 time=0
note_on channel=7 note=44 velocity=114 time=0
note_on channel=7 note=56 velocity=114 time=0
note_on channel=7 note=60 velocity=114 time=0
note_on channel=7 note=63 velocity=114 time=0
note_on channel=8 note=44 velocity=104 time=0
note_on channel=9 note=35 velocity=95 time=0
note_on channel=9 note=40 velocity=98 time=0
note_on channel=9 note=43 velocity=106 time=0
note_on channel=10 note=44 velocity=105 time=0
note_on channel=8 note=51 velocity=106 time=11
note_off channel=8 note=44 velocity=0 time=31
note_off channel=8 note=51 velocity=0 time=16
note_off channel=9 note=43 velocity=0 time=57
note_off channel=9 note=40 velocity=0 time=15
note_off channel=9 note=35 velocity=0 time=18
note_off channel=1 note=32 velocity=0 time=71
note_off channel=10 note=44 velocity=0 time=0
note_on channel=1 note=32 velocity=113 time=21
note_on channel=8 note=44 velocity=121 time=0
note_on channel=9 note=44 velocity=95 time=0
note_on channel=10 note=44 velocity=105 time=0
note_on channel=8 note=51 velocity=106 time=11
note_off channel=9 note=44 velocity=0 time=17
note_off channel=8 note=44 velocity=0 time=17
note_off channel=8 note=51 velocity=0 time=5
note_off channel=3 note=75 velocity=0 time=150
note_off channel=1 note=32 velocity=0 time=19
note_off channel=10 note=44 velocity=0 time=0
note_on channel=1 note=32 velocity=118 time=21
note_on channel=8 note=44 velocity=89 time=0
note_on channel=9 note=35 velocity=95 time=0
note_on channel=9 note=40 velocity=95 time=0
note_on channel=9 note=43 velocity=106 time=0
note_on channel=10 note=44 velocity=110 time=0
note_on channel=8 note=51 velocity=93 time=11
note_off channel=8 note=44 velocity=0 time=22
note_off channel=8 note=51 velocity=0 time=12
note_off channel=9 note=43 velocity=0 time=96
note_off channel=9 note=35 velocity=0 time=7
note_off channel=9 note=40 velocity=0 time=0
note_off channel=1 note=32 velocity=0 time=71
note_off channel=10 note=44 velocity=0 time=0
note_on channel=1 note=32 velocity=113 time=0
note_on channel=3 note=75 velocity=123 time=0
note_on channel=8 note=44 velocity=108 time=0
note_on channel=9 note=44 velocity=95 time=0
note_on channel=10 note=44 velocity=105 time=0
note_on channel=8 note=51 velocity=93 time=11
note_off channel=9 note=44 velocity=0 time=17
note_off channel=8 note=44 velocity=0 time=12
note_off channel=8 note=51 velocity=0 time=12
note_off channel=3 note=75 velocity=0 time=58
note_off channel=1 note=32 velocity=0 time=109
note_off channel=7 note=32 velocity=0 time=0
note_off channel=7 note=44 velocity=0 time=0
note_off channel=7 note=56 velocity=0 time=0
note_off channel=7 note=60 velocity=0 time=0
note_off channel=7 note=63 velocity=0 time=0
note_off channel=10 note=44 velocity=0 time=0
note_on channel=1 note=32 velocity=113 time=21
note_on channel=7 note=32 velocity=114 time=0
note_on channel=7 note=44 velocity=114 time=0
note_on channel=7 note=56 velocity=114 time=0
note_on channel=7 note=60 velocity=114 time=0
note_on channel=7 note=63 velocity=114 time=0
note_on channel=8 note=44 velocity=93 time=0
note_on channel=9 note=35 velocity=95 time=0
note_on channel=9 note=40 velocity=98 time=0
note_on channel=9 note=43 velocity=102 time=0
note_on channel=10 note=44 velocity=105 time=0
note_on channel=8 note=51 velocity=81 time=11
note_on channel=3 note=78 velocity=127 time=0
note_off channel=8 note=44 velocity=0 time=18
note_off channel=8 note=51 velocity=0 time=11
pitchwheel channel=3 pitch=520 time=60
note_off channel=9 note=43 velocity=0 time=4
pitchwheel channel=3 pitch=910 time=10
note_off channel=9 note=40 velocity=0 time=12
pitchwheel channel=3 pitch=1300 time=6
note_off channel=9 note=35 velocity=0 time=7
pitchwheel channel=3 pitch=1560 time=5
pitchwheel channel=3 pitch=1690 time=10
pitchwheel channel=3 pitch=1950 time=20
note_off channel=1 note=32 velocity=0 time=36
note_off channel=10 note=44 velocity=0 time=0
note_on channel=1 note=32 velocity=118 time=21
note_on channel=8 note=44 velocity=116 time=0
note_on channel=9 note=44 velocity=95 time=0
note_on channel=10 note=44 velocity=110 time=0
note_on channel=8 note=51 velocity=93 time=11
pitchwheel channel=3 pitch=2340 time=1
pitchwheel channel=3 pitch=2730 time=13
note_off channel=9 note=44 velocity=0 time=3
pitchwheel channel=3 pitch=3380 time=13
note_off channel=8 note=44 velocity=0 time=4
pitchwheel channel=3 pitch=3770 time=8
note_off channel=8 note=51 velocity=0 time=1
pitchwheel channel=3 pitch=4290 time=12
pitchwheel channel=3 pitch=4420 time=12
pitchwheel channel=3 pitch=4680 time=34
note_off channel=3 note=78 velocity=0 time=27
pitchwheel channel=3 pitch=4420 time=23
pitchwheel channel=3 pitch=3770 time=15
pitchwheel channel=3 pitch=3250 time=10
pitchwheel channel=3 pitch=2470 time=12
pitchwheel channel=3 pitch=1560 time=10
note_off channel=1 note=32 velocity=0 time=10
note_off channel=10 note=44 velocity=0 time=0
pitchwheel channel=3 pitch=260 time=4
note_on channel=3 note=78 velocity=127 time=0
note_on channel=1 note=32 velocity=113 time=4
note_on channel=8 note=44 velocity=121 time=0
note_on channel=9 note=35 velocity=95 time=0
note_on channel=9 note=40 velocity=98 time=0
note_on channel=9 note=43 velocity=106 time=0
note_on channel=10 note=44 velocity=105 time=0
note_on channel=8 note=51 velocity=101 time=11
note_off channel=8 note=44 velocity=0 time=34
note_off channel=8 note=51 velocity=0 time=5
note_off channel=7 note=32 velocity=0 time=49
note_off channel=7 note=44 velocity=0 time=0
note_off channel=7 note=56 velocity=0 time=0
note_off channel=7 note=60 velocity=0 time=0
note_off channel=7 note=63 velocity=0 time=0
pitchwheel channel=3 pitch=780 time=20
pitchwheel channel=3 pitch=1170 time=13
pitchwheel channel=3 pitch=1560 time=15
note_off channel=9 note=35 velocity=0 time=1
note_off channel=9 note=43 velocity=0 time=7
pitchwheel channel=3 pitch=1820 time=7
note_off channel=9 note=40 velocity=0 time=10
note_off channel=1 note=32 velocity=0 time=47
note_off channel=10 note=44 velocity=0 time=0
note_on channel=1 note=32 velocity=118 time=21
note_on channel=7 note=56 velocity=105 time=0
note_on channel=7 note=60 velocity=127 time=0
note_on channel=7 note=63 velocity=123 time=0
note_on channel=8 note=44 velocity=121 time=0
note_on channel=9 note=44 velocity=95 time=0
note_on channel=10 note=44 velocity=110 time=0
note_on channel=8 note=51 velocity=93 time=11
note_off channel=9 note=44 velocity=0 time=17
pitchwheel channel=3 pitch=1950 time=2
note_off channel=8 note=44 velocity=0 time=16
note_off channel=8 note=51 velocity=0 time=3
pitchwheel channel=3 pitch=2210 time=18
pitchwheel channel=3 pitch=2340 time=37
note_on channel=7 note=44 velocity=127 time=16
note_on channel=9 note=44 velocity=95 time=0
pitchwheel channel=3 pitch=2600 time=1
pitchwheel channel=3 pitch=2730 time=10
note_off channel=9 note=44 velocity=0 time=17
pitchwheel channel=3 pitch=3250 time=3
note_off channel=7 note=60 velocity=0 time=9
pitchwheel channel=3 pitch=3380 time=1
note_off channel=7 note=63 velocity=0 time=7
note_off channel=3 note=78 velocity=0 time=1
note_off channel=7 note=56 velocity=0 time=5
pitchwheel channel=3 pitch=3770 time=5
pitchwheel channel=3 pitch=4290 time=17
pitchwheel channel=3 pitch=4680 time=17
note_off channel=1 note=32 velocity=0 time=6
note_off channel=10 note=44 velocity=0 time=0
note_off channel=7 note=44 velocity=0 time=6
note_on channel=1 note=34 velocity=113 time=15
note_on channel=7 note=34 velocity=114 time=0
note_on channel=7 note=46 velocity=114 time=0
note_on channel=7 note=58 velocity=114 time=0
note_on channel=7 note=62 velocity=114 time=0
note_on channel=7 note=65 velocity=114 time=0
note_on channel=8 note=46 velocity=104 time=0
note_on channel=9 note=35 velocity=95 time=0
note_on channel=9 note=40 velocity=98 time=0
note_on channel=9 note=43 velocity=106 time=0
note_on channel=10 note=46 velocity=105 time=0
note_on channel=3 note=78 velocity=127 time=0
note_on channel=8 note=53 velocity=106 time=0
pitchwheel channel=3 pitch=3900 time=12
pitchwheel channel=3 pitch=2080 time=12
note_off channel=8 note=46 velocity=0 time=7
pitchwheel channel=3 pitch=260 time=3
note_off channel=8 note=53 velocity=0 time=13
note_off channel=9 note=43 velocity=0 time=57
note_off channel=9 note=40 velocity=0 time=15
note_off channel=3 note=78 velocity=0 time=12
note_off channel=9 note=35 velocity=0 time=6
note_on channel=3 note=75 velocity=116 time=8
note_off channel=1 note=34 velocity=0 time=63
note_off channel=10 note=46 velocity=0 time=0
note_on channel=1 note=34 velocity=113 time=21
note_on channel=8 note=46 velocity=121 time=0
note_on channel=9 note=44 velocity=95 time=0
note_on channel=10 note=46 velocity=105 time=0
note_off channel=3 note=75 velocity=0 time=5
note_on channel=8 note=53 velocity=106 time=6
note_off channel=9 note=44 velocity=0 time=17
note_on channel=3 note=72 velocity=115 time=8
note_off channel=8 note=46 velocity=0 time=9
note_off channel=8 note=53 velocity=0 time=5
note_off channel=3 note=72 velocity=0 time=119
note_off channel=1 note=34 velocity=0 time=50
note_off channel=10 note=46 velocity=0 time=0
note_on channel=1 note=34 velocity=118 time=21
note_on channel=8 note=46 velocity=89 time=0
note_on channel=9 note=35 velocity=95 time=0
note_on channel=9 note=40 velocity=95 time=0
note_on channel=9 note=43 velocity=106 time=0
note_on channel=10 note=46 velocity=110 time=0
note_on channel=8 note=53 velocity=93 time=11
note_off channel=8 note=46 velocity=0 time=22
note_on channel=3 note=75 velocity=120 time=0
note_off channel=8 note=53 velocity=0 time=9
note_off channel=9 note=43 velocity=0 time=96
note_off channel=9 note=35 velocity=0 time=7
note_off channel=9 note=40 velocity=0 time=0
note_off channel=3 note=75 velocity=0 time=38
note_off channel=1 note=34 velocity=0 time=33
note_off channel=10 note=46 velocity=0 time=0
note_on channel=1 note=34 velocity=113 time=21
note_on channel=8 note=46 velocity=108 time=0
note_on channel=9 note=44 velocity=95 time=0
note_on channel=10 note=46 velocity=105 time=0
note_on channel=8 note=53 velocity=93 time=11
note_on channel=3 note=75 velocity=127 time=0
note_off channel=9 note=44 velocity=0 time=6
note_off channel=8 note=46 velocity=0 time=12
note_off channel=8 note=53 velocity=0 time=12
note_off channel=3 note=75 velocity=0 time=90
note_off channel=1 note=34 velocity=0 time=77
note_off channel=10 note=46 velocity=0 time=0
note_off channel=7 note=58 velocity=0 time=9
note_off channel=7 note=62 velocity=0 time=6
note_on channel=1 note=34 velocity=113 time=6
note_on channel=7 note=58 velocity=97 time=0
note_on channel=8 note=46 velocity=93 time=0
note_on channel=9 note=35 velocity=95 time=0
note_on channel=9 note=40 velocity=98 time=0
note_on channel=9 note=43 velocity=102 time=0
note_on channel=10 note=46 velocity=105 time=0
note_on channel=8 note=53 velocity=81 time=11
note_on channel=3 note=78 velocity=127 time=0
note_off channel=8 note=46 velocity=0 time=11
note_off channel=8 note=53 velocity=0 time=11
note_off channel=9 note=43 velocity=0 time=64
pitchwheel channel=3 pitch=390 time=4
pitchwheel channel=3 pitch=910 time=14
note_off channel=9 note=40 velocity=0 time=4
pitchwheel channel=3 pitch=1300 time=11
note_off channel=9 note=35 velocity=0 time=2
pitchwheel channel=3 pitch=1430 time=8
pitchwheel channel=3 pitch=1690 time=15
note_off channel=1 note=34 velocity=0 time=48
note_off channel=10 note=46 velocity=0 time=0
pitchwheel channel=3 pitch=1820 time=4
note_on channel=1 note=34 velocity=118 time=17
note_on channel=7 note=62 velocity=90 time=0
note_on channel=8 note=46 velocity=116 time=0
note_on channel=9 note=44 velocity=95 time=0
note_on channel=10 note=46 velocity=110 time=0
pitchwheel channel=3 pitch=2080 time=2
note_on channel=8 note=53 velocity=93 time=9
pitchwheel channel=3 pitch=0 time=1
pitchwheel channel=3 pitch=2340 time=1
note_off channel=9 note=44 velocity=0 time=15
pitchwheel channel=3 pitch=2470 time=0
note_off channel=8 note=46 velocity=0 time=17
pitchwheel channel=3 pitch=2730 time=4
note_off channel=8 note=53 velocity=0 time=5
pitchwheel channel=3 pitch=2860 time=8
pitchwheel channel=3 pitch=3380 time=19
pitchwheel channel=3 pitch=3770 time=18
pitchwheel channel=3 pitch=3900 time=10
note_off channel=7 note=65 velocity=0 time=5
note_off channel=3 note=78 velocity=0 time=21
pitchwheel channel=3 pitch=3510 time=38
pitchwheel channel=3 pitch=2990 time=10
pitchwheel channel=3 pitch=2080 time=10
pitchwheel channel=3 pitch=1170 time=12
pitchwheel channel=3 pitch=260 time=10
note_off channel=1 note=34 velocity=0 time=4
note_off channel=10 note=46 velocity=0 time=0
note_on channel=3 note=78 velocity=123 time=0
note_on channel=1 note=34 velocity=113 time=1
note_on channel=7 note=65 velocity=102 time=0
note_on channel=8 note=46 velocity=121 time=0
note_on channel=9 note=35 velocity=95 time=0
note_on channel=9 note=40 velocity=98 time=0
note_on channel=9 note=43 velocity=106 time=0
note_on channel=10 note=46 velocity=105 time=0
note_on channel=8 note=53 velocity=101 time=11
note_off channel=8 note=46 velocity=0 time=34
note_off channel=8 note=53 velocity=0 time=5
pitchwheel channel=3 pitch=520 time=24
pitchwheel channel=3 pitch=910 time=17
pitchwheel channel=3 pitch=1040 time=15
pitchwheel channel=3 pitch=1300 time=10
pitchwheel channel=3 pitch=1560 time=10
pitchwheel channel=3 pitch=1690 time=14
note_off channel=9 note=35 velocity=0 time=8
note_off channel=9 note=43 velocity=0 time=7
note_off channel=9 note=40 velocity=0 time=17
pitchwheel channel=3 pitch=1950 time=23
pitchwheel channel=3 pitch=2080 time=15
note_off channel=1 note=34 velocity=0 time=9
note_off channel=7 note=34 velocity=0 time=0
note_off channel=7 note=46 velocity=0 time=0
note_off channel=10 note=46 velocity=0 time=0
pitchwheel channel=3 pitch=2340 time=3
note_on channel=1 note=34 velocity=118 time=18
note_on channel=7 note=70 velocity=127 time=0
note_on channel=8 note=46 velocity=121 time=0
note_on channel=9 note=46 velocity=95 time=0
note_on channel=10 note=46 velocity=110 time=0
pitchwheel channel=3 pitch=2730 time=0
note_on channel=8 note=53 velocity=93 time=11
pitchwheel channel=3 pitch=3120 time=6
note_off channel=9 note=46 velocity=0 time=11
pitchwheel channel=3 pitch=3380 time=1
note_off channel=8 note=46 velocity=0 time=17
note_off channel=8 note=53 velocity=0 time=3
note_off channel=3 note=78 velocity=0 time=113
pitchwheel channel=3 pitch=2730 time=19
pitchwheel channel=3 pitch=1690 time=11
note_off channel=7 note=65 velocity=0 time=10
pitchwheel channel=3 pitch=390 time=1
note_off channel=7 note=70 velocity=0 time=10
note_off channel=1 note=34 velocity=0 time=6
note_off channel=10 note=46 velocity=0 time=0
note_off channel=7 note=62 velocity=0 time=13
note_off channel=7 note=58 velocity=0 time=5
note_on channel=1 note=31 velocity=113 time=3
note_on channel=7 note=31 velocity=114 time=0
note_on channel=7 note=43 velocity=114 time=0
note_on channel=7 note=58 velocity=114 time=0
note_on channel=7 note=62 velocity=114 time=0
note_on channel=7 note=67 velocity=114 time=0
note_on channel=8 note=43 velocity=104 time=0
note_on channel=9 note=35 velocity=95 time=0
note_on channel=9 note=40 velocity=98 time=0
note_on channel=9 note=43 velocity=106 time=0
note_on channel=10 note=43 velocity=105 time=0
note_on channel=3 note=78 velocity=127 time=0
note_on channel=8 note=50 velocity=106 time=1
pitchwheel channel=3 pitch=650 time=12
pitchwheel channel=3 pitch=2080 time=10
note_off channel=8 note=43 velocity=0 time=9
pitchwheel channel=3 pitch=3770 time=1
pitchwheel channel=3 pitch=5330 time=10
note_off channel=8 note=50 velocity=0 time=5
pitchwheel channel=3 pitch=6370 time=5
pitchwheel channel=3 pitch=6110 time=21
pitchwheel channel=3 pitch=3770 time=10
pitchwheel channel=3 pitch=0 time=10
note_off channel=9 note=43 velocity=0 time=11
note_off channel=9 note=40 velocity=0 time=15
note_off channel=9 note=35 velocity=0 time=18
note_off channel=3 note=78 velocity=0 time=10
note_on channel=3 note=75 velocity=111 time=18
note_off channel=1 note=31 velocity=0 time=43
note_off channel=10 note=43 velocity=0 time=0
note_on channel=1 note=31 velocity=113 time=21
note_on channel=8 note=43 velocity=121 time=0
note_on channel=9 note=44 velocity=95 time=0
note_on channel=10 note=43 velocity=105 time=0
note_on channel=8 note=50 velocity=106 time=11
note_off channel=9 note=44 velocity=0 time=17
note_on channel=3 note=72 velocity=102 time=10
note_off channel=3 note=75 velocity=0 time=5
note_off channel=8 note=43 velocity=0 time=2
note_off channel=8 note=50 velocity=0 time=5
note_off channel=3 note=72 velocity=0 time=148
note_off channel=1 note=31 velocity=0 time=21
note_off channel=10 note=43 velocity=0 time=0
note_on channel=1 note=31 velocity=118 time=21
note_on channel=8 note=43 velocity=89 time=0
note_on channel=9 note=35 velocity=95 time=0
note_on channel=9 note=40 velocity=95 time=0
note_on channel=9 note=43 velocity=106 time=0
note_on channel=10 note=43 velocity=110 time=0
note_on channel=8 note=50 velocity=93 time=11
note_off channel=8 note=43 velocity=0 time=22
note_off channel=8 note=50 velocity=0 time=0
note_on channel=3 note=75 velocity=120 time=0
note_off channel=9 note=43 velocity=0 time=96
note_off channel=9 note=35 velocity=0 time=7
note_off channel=9 note=40 velocity=0 time=0
note_off channel=3 note=75 velocity=0 time=44
note_off channel=1 note=31 velocity=0 time=27
note_off channel=10 note=43 velocity=0 time=0
note_on channel=1 note=31 velocity=113 time=21
note_on channel=8 note=43 velocity=108 time=0
note_on channel=9 note=44 velocity=95 time=0
note_on channel=10 note=43 velocity=105 time=0
note_on channel=8 note=50 velocity=93 time=11
note_on channel=3 note=75 velocity=127 time=0
note_off channel=9 note=44 velocity=0 time=15
note_off channel=8 note=43 velocity=0 time=12
note_off channel=8 note=50 velocity=0 time=12
note_off channel=3 note=75 velocity=0 time=71
note_off channel=1 note=31 velocity=0 time=96
note_off channel=10 note=43 velocity=0 time=0
note_on channel=1 note=31 velocity=113 time=21
note_on channel=8 note=43 velocity=93 time=0
note_on channel=9 note=35 velocity=95 time=0
note_on channel=9 note=40 velocity=98 time=0
note_on channel=9 note=43 velocity=102 time=0
note_on channel=10 note=43 velocity=105 time=0
note_on channel=3 note=78 velocity=123 time=0
note_on channel=8 note=50 velocity=81 time=0
note_off channel=8 note=43 velocity=0 time=27
note_off channel=8 note=50 velocity=0 time=11
pitchwheel channel=3 pitch=130 time=26
pitchwheel channel=3 pitch=390 time=28
note_off channel=9 note=43 velocity=0 time=10
pitchwheel channel=3 pitch=780 time=7
note_off channel=9 note=40 velocity=0 time=15
pitchwheel channel=3 pitch=1170 time=0
note_off channel=9 note=35 velocity=0 time=13
pitchwheel channel=3 pitch=1690 time=2
pitchwheel channel=3 pitch=2080 time=19
pitchwheel channel=3 pitch=2210 time=10
note_off channel=1 note=31 velocity=0 time=40
note_off channel=10 note=43 velocity=0 time=0
pitchwheel channel=3 pitch=2470 time=2
note_on channel=1 note=31 velocity=118 time=19
note_on channel=8 note=43 velocity=116 time=0
note_on channel=9 note=44 velocity=95 time=0
note_on channel=10 note=43 velocity=110 time=0
note_on channel=8 note=50 velocity=93 time=11
pitchwheel channel=3 pitch=2860 time=0
note_off channel=9 note=44 velocity=0 time=17
pitchwheel channel=3 pitch=3250 time=2
note_off channel=8 note=43 velocity=0 time=15
pitchwheel channel=3 pitch=3770 time=0
note_off channel=8 note=50 velocity=0 time=9
pitchwheel channel=3 pitch=4160 time=3
pitchwheel channel=3 pitch=4550 time=11
pitchwheel channel=3 pitch=5200 time=16
pitchwheel channel=3 pitch=5590 time=12
note_off channel=3 note=78 velocity=0 time=40
pitchwheel channel=3 pitch=5460 time=22
pitchwheel channel=3 pitch=4680 time=14
pitchwheel channel=3 pitch=3770 time=11
pitchwheel channel=3 pitch=2860 time=12
pitchwheel channel=3 pitch=1820 time=10
note_off channel=1 note=31 velocity=0 time=14
note_off channel=7 note=67 velocity=0 time=0
note_off channel=10 note=43 velocity=0 time=0
pitchwheel channel=3 pitch=390 time=0
note_off channel=7 note=58 velocity=0 time=15
note_off channel=7 note=62 velocity=0 time=0
note_on channel=1 note=31 velocity=113 time=6
note_on channel=7 note=58 velocity=114 time=0
note_on channel=7 note=70 velocity=114 time=0
note_on channel=8 note=43 velocity=121 time=0
note_on channel=9 note=35 velocity=95 time=0
note_on channel=9 note=40 velocity=98 time=0
note_on channel=9 note=43 velocity=106 time=0
note_on channel=10 note=43 velocity=105 time=0
note_on channel=3 note=78 velocity=127 time=0
note_on channel=8 note=50 velocity=101 time=4
note_off channel=8 note=43 velocity=0 time=34
note_off channel=8 note=50 velocity=0 time=5
pitchwheel channel=3 pitch=520 time=66
pitchwheel channel=3 pitch=910 time=14
pitchwheel channel=3 pitch=1430 time=13
note_off channel=9 note=35 velocity=0 time=5
note_off channel=9 note=43 velocity=0 time=7
pitchwheel channel=3 pitch=1820 time=2
pitchwheel channel=3 pitch=1950 time=10
note_off channel=9 note=40 velocity=0 time=5
pitchwheel channel=3 pitch=2210 time=10
note_off channel=1 note=31 velocity=0 time=37
note_off channel=10 note=43 velocity=0 time=0
note_on channel=1 note=31 velocity=118 time=21
note_on channel=8 note=43 velocity=121 time=0
note_on channel=9 note=44 velocity=95 time=0
note_on channel=10 note=43 velocity=110 time=0
pitchwheel channel=3 pitch=2470 time=7
note_on channel=8 note=50 velocity=93 time=4
pitchwheel channel=3 pitch=2600 time=8
note_off channel=9 note=44 velocity=0 time=9
pitchwheel channel=3 pitch=2860 time=1
pitchwheel channel=3 pitch=2990 time=10
note_off channel=8 note=43 velocity=0 time=7
note_off channel=8 note=50 velocity=0 time=3
pitchwheel channel=3 pitch=3250 time=2
pitchwheel channel=3 pitch=3510 time=17
pitchwheel channel=3 pitch=3640 time=20
pitchwheel channel=3 pitch=3900 time=22
note_on channel=9 note=44 velocity=95 time=10
pitchwheel channel=3 pitch=4030 time=18
note_off channel=9 note=44 velocity=0 time=10
note_off channel=3 note=78 velocity=0 time=5
pitchwheel channel=3 pitch=4290 time=7
pitchwheel channel=3 pitch=4550 time=15
pitchwheel channel=3 pitch=4680 time=10
pitchwheel channel=3 pitch=4940 time=14
note_off channel=1 note=31 velocity=0 time=20
note_off channel=7 note=31 velocity=0 time=0
note_off channel=7 note=43 velocity=0 time=0
note_off channel=7 note=58 velocity=0 time=0
note_off channel=7 note=70 velocity=0 time=0
note_off channel=10 note=43 velocity=0 time=0
note_on channel=1 note=31 velocity=113 time=0
note_on channel=3 note=77 velocity=123 time=0
note_on channel=7 note=43 velocity=106 time=0
note_on channel=7 note=55 velocity=102 time=0
note_on channel=7 note=62 velocity=98 time=0
note_on channel=7 note=67 velocity=110 time=0
note_on channel=7 note=71 velocity=106 time=0
note_on channel=8 note=43 velocity=104 time=0
note_on channel=9 note=35 velocity=95 time=0
note_on channel=9 note=40 velocity=98 time=0
note_on channel=9 note=43 velocity=106 time=0
note_on channel=10 note=43 velocity=105 time=0
pitchwheel channel=3 pitch=4420 time=1
note_on channel=8 note=50 velocity=106 time=10
pitchwheel channel=3 pitch=2210 time=2
pitchwheel channel=3 pitch=130 time=10
note_off channel=8 note=43 velocity=0 time=19
note_off channel=8 note=50 velocity=0 time=16
note_off channel=9 note=43 velocity=0 time=57
note_off channel=9 note=40 velocity=0 time=15
note_off channel=9 note=35 velocity=0 time=18
note_off channel=7 note=62 velocity=0 time=62
note_off channel=1 note=31 velocity=0 time=9
note_off channel=10 note=43 velocity=0 time=0
note_off channel=3 note=77 velocity=0 time=15
note_on channel=1 note=31 velocity=113 time=0
note_on channel=3 note=75 velocity=111 time=0
note_on channel=8 note=43 velocity=121 time=0
note_on channel=9 note=44 velocity=95 time=0
note_on channel=10 note=43 velocity=105 time=0
note_on channel=8 note=50 velocity=106 time=11
note_off channel=9 note=44 velocity=0 time=17
note_off channel=8 note=43 velocity=0 time=17
note_off channel=8 note=50 velocity=0 time=5
note_on channel=6 note=43 velocity=80 time=5
note_on channel=6 note=50 velocity=63 time=1
note_on channel=7 note=62 velocity=63 time=64
note_off channel=7 note=71 velocity=0 time=31
note_off channel=7 note=67 velocity=0 time=12
note_off channel=6 note=50 velocity=0 time=16
note_off channel=6 note=43 velocity=0 time=20
note_off channel=1 note=31 velocity=0 time=20
note_off channel=10 note=43 velocity=0 time=0
note_on channel=1 note=31 velocity=118 time=21
note_on channel=7 note=62 velocity=102 time=0
note_on channel=7 note=67 velocity=106 time=0
note_on channel=7 note=71 velocity=110 time=0
note_on channel=8 note=43 velocity=89 time=0
note_on channel=9 note=35 velocity=95 time=0
note_on channel=9 note=40 velocity=95 time=0
note_on channel=9 note=43 velocity=106 time=0
note_on channel=10 note=43 velocity=110 time=0
note_off channel=7 note=62 velocity=0 time=7
note_on channel=8 note=50 velocity=93 time=4
note_off channel=8 note=43 velocity=0 time=22
note_off channel=8 note=50 velocity=0 time=12
note_on channel=6 note=50 velocity=87 time=0
note_on channel=6 note=43 velocity=110 time=5
note_off channel=3 note=75 velocity=0 time=78
note_off channel=7 note=55 velocity=0 time=6
note_off channel=9 note=43 velocity=0 time=7
note_off channel=9 note=35 velocity=0 time=7
note_off channel=9 note=40 velocity=0 time=0
note_off channel=6 note=50 velocity=0 time=42
note_off channel=6 note=43 velocity=0 time=3
note_off channel=1 note=31 velocity=0 time=26
note_off channel=10 note=43 velocity=0 time=0
note_on channel=3 note=79 velocity=125 time=0
note_on channel=1 note=31 velocity=113 time=18
note_on channel=7 note=55 velocity=102 time=0
note_on channel=8 note=43 velocity=108 time=0
note_on channel=9 note=44 velocity=95 time=0
note_on channel=10 note=43 velocity=105 time=0
note_on channel=8 note=50 velocity=93 time=11
note_off channel=9 note=44 velocity=0 time=17
note_on channel=6 note=50 velocity=110 time=7
note_off channel=8 note=43 velocity=0 time=5
note_on channel=6 note=43 velocity=125 time=0
note_off channel=3 note=79 velocity=0 time=10
note_off channel=8 note=50 velocity=0 time=2
note_off channel=7 note=62 velocity=0 time=111
note_off channel=7 note=67 velocity=0 time=4
note_off channel=7 note=71 velocity=0 time=2
note_off channel=6 note=50 velocity=0 time=43
note_off channel=6 note=43 velocity=0 time=3
note_off channel=1 note=31 velocity=0 time=4
note_off channel=10 note=43 velocity=0 time=0
note_on channel=3 note=82 velocity=127 time=0
note_on channel=1 note=31 velocity=113 time=19
note_on channel=7 note=62 velocity=102 time=0
note_on channel=7 note=67 velocity=102 time=0
note_on channel=7 note=71 velocity=110 time=0
note_on channel=8 note=43 velocity=93 time=0
note_on channel=9 note=35 velocity=95 time=0
note_on channel=9 note=40 velocity=98 time=0
note_on channel=9 note=43 velocity=102 time=0
note_on channel=10 note=43 velocity=105 time=0
note_on channel=8 note=50 velocity=81 time=11
note_off channel=8 note=43 velocity=0 time=27
note_on channel=6 note=50 velocity=115 time=7
note_off channel=8 note=50 velocity=0 time=4
note_on channel=6 note=43 velocity=125 time=2
note_off channel=9 note=43 velocity=0 time=62
note_off channel=7 note=55 velocity=0 time=13
note_off channel=9 note=40 velocity=0 time=9
note_off channel=9 note=35 velocity=0 time=13
note_off channel=3 note=82 velocity=0 time=45
note_off channel=6 note=43 velocity=0 time=10
note_off channel=6 note=50 velocity=0 time=3
note_off channel=1 note=31 velocity=0 time=13
note_off channel=10 note=43 velocity=0 time=0
note_on channel=1 note=31 velocity=118 time=21
note_on channel=7 note=55 velocity=110 time=0
note_on channel=8 note=43 velocity=116 time=0
note_on channel=9 note=46 velocity=95 time=0
note_on channel=10 note=43 velocity=110 time=0
note_on channel=3 note=79 velocity=120 time=0
note_on channel=8 note=50 velocity=93 time=10
note_off channel=9 note=46 velocity=0 time=17
note_on channel=6 note=50 velocity=110 time=5
note_on channel=6 note=43 velocity=125 time=5
note_off channel=8 note=43 velocity=0 time=7
note_off channel=8 note=50 velocity=0 time=9
note_off channel=3 note=79 velocity=0 time=36
note_on channel=9 note=40 velocity=98 time=30
note_off channel=7 note=62 velocity=0 time=1
note_off channel=7 note=67 velocity=0 time=8
note_off channel=7 note=71 velocity=0 time=7
note_off channel=6 note=50 velocity=0 time=55
note_off channel=6 note=43 velocity=0 time=1
note_off channel=1 note=31 velocity=0 time=27
note_off channel=10 note=43 velocity=0 time=0
note_off channel=9 note=40 velocity=0 time=15
note_on channel=3 note=82 velocity=127 time=0
note_on channel=1 note=31 velocity=113 time=1
note_on channel=7 note=62 velocity=110 time=0
note_on channel=7 note=67 velocity=125 time=0
note_on channel=7 note=71 velocity=127 time=0
note_on channel=8 note=43 velocity=121 time=0
note_on channel=9 note=35 velocity=95 time=0
note_on channel=9 note=40 velocity=98 time=0
note_on channel=9 note=43 velocity=106 time=0
note_on channel=10 note=43 velocity=105 time=0
note_on channel=8 note=50 velocity=101 time=11
note_on channel=6 note=50 velocity=120 time=21
note_on channel=6 note=43 velocity=127 time=5
note_off channel=8 note=43 velocity=0 time=8
note_off channel=8 note=50 velocity=0 time=5
note_off channel=9 note=40 velocity=0 time=2
note_off channel=7 note=55 velocity=0 time=30
note_on channel=9 note=40 velocity=98 time=38
note_off channel=9 note=35 velocity=0 time=28
note_off channel=9 note=43 velocity=0 time=7
note_off channel=9 note=40 velocity=0 time=17
note_off channel=6 note=43 velocity=0 time=1
note_off channel=6 note=50 velocity=0 time=3
note_off channel=1 note=31 velocity=0 time=43
note_off channel=10 note=43 velocity=0 time=0
note_on channel=1 note=31 velocity=118 time=21
note_on channel=7 note=55 velocity=125 time=0
note_on channel=8 note=43 velocity=121 time=0
note_on channel=9 note=40 velocity=98 time=0
note_on channel=10 note=43 velocity=110 time=0
note_off channel=3 note=82 velocity=0 time=0
note_on channel=3 note=79 velocity=125 time=0
note_on channel=6 note=50 velocity=115 time=2
note_on channel=8 note=50 velocity=93 time=4
note_on channel=6 note=43 velocity=127 time=7
note_off channel=8 note=43 velocity=0 time=28
note_off channel=8 note=50 velocity=0 time=3
note_off channel=9 note=40 velocity=0 time=3
note_off channel=6 note=43 velocity=0 time=49
note_off channel=7 note=62 velocity=0 time=6
note_off channel=6 note=50 velocity=0 time=2
note_off channel=7 note=43 velocity=0 time=0
note_off channel=7 note=67 velocity=0 time=2
note_off channel=7 note=71 velocity=0 time=4
note_on channel=9 note=40 velocity=98 time=5
note_off channel=3 note=79 velocity=0 time=8
note_off channel=9 note=40 velocity=0 time=44
note_off channel=7 note=55 velocity=0 time=10
note_off channel=1 note=31 velocity=0 time=37
note_off channel=10 note=43 velocity=0 time=0
note_on channel=1 note=36 velocity=113 time=21
note_on channel=4 note=63 velocity=116 time=0
note_on channel=4 note=67 velocity=102 time=0
note_on channel=4 note=70 velocity=102 time=0
note_on channel=7 note=36 velocity=115 time=0
note_on channel=7 note=48 velocity=115 time=0
note_on channel=7 note=67 velocity=106 time=0
note_on channel=7 note=72 velocity=125 time=0
note_on channel=7 note=75 velocity=116 time=0
note_on channel=8 note=48 velocity=125 time=0
note_on channel=8 note=55 velocity=115 time=0
note_on channel=8 note=60 velocity=120 time=0
note_on channel=9 note=35 velocity=116 time=0
note_on channel=9 note=49 velocity=98 time=0
note_on channel=10 note=48 velocity=113 time=8
note_on channel=6 note=48 velocity=127 time=3
note_on channel=6 note=55 velocity=125 time=0
note_off channel=9 note=35 velocity=0 time=17
note_off channel=9 note=49 velocity=0 time=0
note_on channel=3 note=84 velocity=125 time=0
note_off channel=7 note=72 velocity=0 time=8
note_off channel=7 note=75 velocity=0 time=1
note_off channel=6 note=55 velocity=0 time=13
note_off channel=7 note=67 velocity=0 time=2
note_off channel=6 note=48 velocity=0 time=8
note_off channel=8 note=60 velocity=0 time=32
note_off channel=8 note=55 velocity=0 time=2
note_off channel=4 note=63 velocity=0 time=29
note_off channel=4 note=67 velocity=0 time=2
note_off channel=4 note=70 velocity=0 time=0
note_off channel=8 note=48 velocity=0 time=56
note_off channel=1 note=36 velocity=0 time=37
note_off channel=10 note=48 velocity=0 time=8
note_on channel=1 note=36 velocity=113 time=13
note_on channel=4 note=63 velocity=116 time=0
note_on channel=4 note=67 velocity=87 time=0
note_on channel=4 note=70 velocity=87 time=0
note_on channel=7 note=67 velocity=77 time=0
note_on channel=7 note=72 velocity=106 time=0
note_on channel=7 note=75 velocity=86 time=0
note_on channel=8 note=55 velocity=90 time=0
note_on channel=8 note=60 velocity=102 time=0
note_on channel=9 note=35 velocity=116 time=0
note_on channel=9 note=42 velocity=98 time=0
note_on channel=10 note=48 velocity=113 time=8
note_on channel=6 note=48 velocity=125 time=3
note_on channel=6 note=55 velocity=125 time=0
note_off channel=9 note=35 velocity=0 time=17
note_off channel=9 note=42 velocity=0 time=0
note_off channel=7 note=75 velocity=0 time=3
note_off channel=7 note=72 velocity=0 time=6
note_off channel=6 note=55 velocity=0 time=7
note_off channel=7 note=67 velocity=0 time=6
note_off channel=6 note=48 velocity=0 time=10
note_off channel=8 note=60 velocity=0 time=2
note_off channel=8 note=55 velocity=0 time=7
note_off channel=4 note=63 velocity=0 time=41
note_off channel=4 note=67 velocity=0 time=1
note_off channel=4 note=70 velocity=0 time=0
note_off channel=1 note=36 velocity=0 time=108
note_off channel=10 note=48 velocity=0 time=8
note_on channel=1 note=36 velocity=118 time=13
note_on channel=4 note=65 velocity=102 time=0
note_on channel=4 note=68 velocity=123 time=0
note_on channel=4 note=72 velocity=123 time=0
note_on channel=7 note=67 velocity=120 time=0
note_on channel=7 note=72 velocity=127 time=0
note_on channel=7 note=75 velocity=127 time=0
note_on channel=8 note=48 velocity=127 time=0
note_on channel=8 note=55 velocity=125 time=0
note_on channel=8 note=60 velocity=127 time=0
note_on channel=9 note=39 velocity=85 time=0
note_on channel=9 note=40 velocity=116 time=0
note_on channel=9 note=42 velocity=98 time=0
note_on channel=9 note=54 velocity=116 time=0
note_on channel=10 note=48 velocity=118 time=8
note_on channel=6 note=48 velocity=127 time=3
note_on channel=6 note=55 velocity=127 time=0
note_off channel=9 note=39 velocity=0 time=17
note_off channel=9 note=40 velocity=0 time=0
note_off channel=9 note=42 velocity=0 time=0
note_off channel=9 note=54 velocity=0 time=0
note_off channel=6 note=55 velocity=0 time=34
note_off channel=7 note=72 velocity=0 time=7
note_off channel=7 note=75 velocity=0 time=5
note_off channel=7 note=67 velocity=0 time=4
note_off channel=6 note=48 velocity=0 time=14
note_off channel=8 note=55 velocity=0 time=49
note_off channel=8 note=60 velocity=0 time=21
note_off channel=8 note=48 velocity=0 time=13
note_off channel=1 note=36 velocity=0 time=44
note_off channel=10 note=48 velocity=0 time=8
note_on channel=1 note=36 velocity=113 time=13
note_on channel=7 note=67 velocity=74 time=0
note_on channel=7 note=72 velocity=98 time=0
note_on channel=7 note=75 velocity=97 time=0
note_on channel=8 note=55 velocity=102 time=0
note_on channel=8 note=60 velocity=115 time=0
note_on channel=9 note=42 velocity=98 time=0
note_on channel=10 note=48 velocity=113 time=8
note_on channel=6 note=48 velocity=125 time=3
note_on channel=6 note=55 velocity=120 time=0
note_off channel=4 note=68 velocity=0 time=17
note_off channel=4 note=72 velocity=0 time=0
note_off channel=9 note=42 velocity=0 time=0
note_off channel=4 note=65 velocity=0 time=20
note_off channel=6 note=55 velocity=0 time=5
note_off channel=7 note=72 velocity=0 time=12
note_off channel=7 note=75 velocity=0 time=6
note_off channel=6 note=48 velocity=0 time=8
note_off channel=7 note=67 velocity=0 time=1
note_off channel=8 note=60 velocity=0 time=12
note_off channel=8 note=55 velocity=0 time=3
note_on channel=4 note=63 velocity=123 time=4
note_on channel=4 note=67 velocity=115 time=0
note_on channel=4 note=70 velocity=115 time=0
note_off channel=1 note=36 velocity=0 time=13
note_off channel=4 note=63 velocity=0 time=0
note_off channel=4 note=67 velocity=0 time=1
note_off channel=4 note=70 velocity=0 time=0
note_off channel=10 note=48 velocity=0 time=7
note_on channel=1 note=36 velocity=113 time=3
note_on channel=7 note=67 velocity=106 time=0
note_on channel=7 note=72 velocity=127 time=0
note_on channel=7 note=75 velocity=116 time=0
note_on channel=8 note=55 velocity=115 time=0
note_on channel=8 note=60 velocity=127 time=0
note_on channel=9 note=35 velocity=116 time=0
note_on channel=9 note=42 velocity=98 time=0
note_on channel=10 note=48 velocity=113 time=8
note_on channel=6 note=48 velocity=127 time=3
note_on channel=6 note=55 velocity=120 time=0
note_off channel=9 note=35 velocity=0 time=1
note_off channel=9 note=42 velocity=0 time=0
note_off channel=6 note=55 velocity=0 time=26
note_off channel=7 note=72 velocity=0 time=1
note_off channel=7 note=75 velocity=0 time=4
note_off channel=7 note=67 velocity=0 time=2
note_off channel=6 note=48 velocity=0 time=7
note_off channel=8 note=60 velocity=0 time=7
note_off channel=8 note=55 velocity=0 time=4
note_off channel=1 note=36 velocity=0 time=12
note_off channel=10 note=48 velocity=0 time=8
note_on channel=1 note=36 velocity=118 time=3
note_on channel=7 note=67 velocity=71 time=0
note_on channel=7 note=72 velocity=90 time=0
note_on channel=7 note=75 velocity=81 time=0
note_on channel=8 note=55 velocity=83 time=0
note_on channel=8 note=60 velocity=102 time=0
note_on channel=9 note=35 velocity=116 time=0
note_on channel=9 note=42 velocity=98 time=0
note_on channel=10 note=48 velocity=118 time=8
note_on channel=6 note=48 velocity=120 time=3
note_on channel=6 note=55 velocity=115 time=0
note_off channel=9 note=35 velocity=0 time=1
note_off channel=9 note=42 velocity=0 time=0
note_off channel=7 note=72 velocity=0 time=19
note_off channel=7 note=75 velocity=0 time=0
note_off channel=6 note=55 velocity=0 time=1
note_off channel=6 note=48 velocity=0 time=9
note_off channel=8 note=60 velocity=0 time=0
note_off channel=7 note=67 velocity=0 time=7
note_off channel=8 note=55 velocity=0 time=9
note_off channel=1 note=36 velocity=0 time=3
note_off channel=10 note=48 velocity=0 time=8
note_on channel=1 note=36 velocity=113 time=9
note_on channel=7 note=67 velocity=115 time=0
note_on channel=7 note=72 velocity=127 time=0
note_on channel=7 note=75 velocity=123 time=0
note_on channel=8 note=48 velocity=127 time=0
note_on channel=8 note=55 velocity=125 time=0
note_on channel=8 note=60 velocity=127 time=0
note_on channel=9 note=39 velocity=85 time=0
note_on channel=9 note=40 velocity=116 time=0
note_on channel=9 note=42 velocity=98 time=0
note_on channel=9 note=54 velocity=116 time=0
note_on channel=10 note=48 velocity=113 time=2
note_on channel=6 note=48 velocity=127 time=3
note_on channel=6 note=55 velocity=125 time=0
note_off channel=9 note=39 velocity=0 time=7
note_off channel=9 note=40 velocity=0 time=0
note_off channel=9 note=42 velocity=0 time=0
note_off channel=9 note=54 velocity=0 time=0
note_off channel=6 note=55 velocity=0 time=3
note_off channel=7 note=72 velocity=0 time=1
note_off channel=7 note=75 velocity=0 time=12
note_off channel=6 note=48 velocity=0 time=1
note_off channel=7 note=67 velocity=0 time=1
note_off channel=8 note=60 velocity=0 time=20
note_off channel=8 note=55 velocity=0 time=4
note_off channel=3 note=84 velocity=0 time=30
note_off channel=1 note=36 velocity=0 time=14
note_off channel=10 note=48 velocity=0 time=8
note_on channel=1 note=36 velocity=118 time=13
note_on channel=7 note=67 velocity=106 time=0
note_on channel=7 note=72 velocity=115 time=0
note_on channel=7 note=75 velocity=105 time=0
note_on channel=8 note=55 velocity=98 time=0
note_on channel=8 note=60 velocity=115 time=0
note_on channel=9 note=42 velocity=98 time=0
note_on channel=10 note=48 velocity=118 time=8
note_on channel=6 note=48 velocity=125 time=3
note_on channel=6 note=55 velocity=125 time=0
note_on channel=3 note=82 velocity=123 time=0
note_off channel=9 note=42 velocity=0 time=13
note_off channel=7 note=72 velocity=0 time=34
note_off channel=6 note=55 velocity=0 time=7
note_off channel=7 note=75 velocity=0 time=2
note_off channel=8 note=60 velocity=0 time=7
note_off channel=7 note=67 velocity=0 time=4
note_off channel=8 note=55 velocity=0 time=16
note_off channel=6 note=48 velocity=0 time=11
note_off channel=7 note=36 velocity=0 time=102
note_off channel=7 note=48 velocity=0 time=0
note_off channel=8 note=48 velocity=0 time=1
note_off channel=1 note=36 velocity=0 time=7
note_off channel=10 note=48 velocity=0 time=8
note_on channel=1 note=34 velocity=113 time=13
note_on channel=4 note=63 velocity=116 time=0
note_on channel=4 note=67 velocity=102 time=0
note_on channel=4 note=70 velocity=102 time=0
note_on channel=7 note=34 velocity=115 time=0
note_on channel=7 note=46 velocity=115 time=0
note_on channel=7 note=65 velocity=83 time=0
note_on channel=7 note=70 velocity=105 time=0
note_on channel=7 note=74 velocity=102 time=0
note_on channel=8 note=53 velocity=90 time=0
note_on channel=8 note=58 velocity=123 time=0
note_on channel=9 note=35 velocity=116 time=0
note_on channel=9 note=42 velocity=98 time=0
note_on channel=10 note=46 velocity=113 time=8
note_on channel=6 note=46 velocity=127 time=3
note_on channel=6 note=53 velocity=115 time=0
note_off channel=9 note=35 velocity=0 time=17
note_off channel=9 note=42 velocity=0 time=0
note_off channel=7 note=74 velocity=0 time=35
note_off channel=6 note=53 velocity=0 time=11
note_off channel=7 note=65 velocity=0 time=0
note_off channel=7 note=70 velocity=0 time=1
note_off channel=6 note=46 velocity=0 time=6
note_off channel=8 note=53 velocity=0 time=26
note_off channel=8 note=58 velocity=0 time=6
note_off channel=4 note=63 velocity=0 time=11
note_off channel=4 note=67 velocity=0 time=2
note_off channel=4 note=70 velocity=0 time=0
note_off channel=1 note=34 velocity=0 time=93
note_off channel=10 note=46 velocity=0 time=8
note_off channel=3 note=82 velocity=0 time=13
note_on channel=1 note=34 velocity=113 time=0
note_on channel=4 note=63 velocity=116 time=0
note_on channel=4 note=67 velocity=87 time=0
note_on channel=4 note=70 velocity=87 time=0
note_on channel=7 note=65 velocity=63 time=0
note_on channel=7 note=70 velocity=81 time=0
note_on channel=7 note=74 velocity=56 time=0
note_on channel=8 note=53 velocity=67 time=0
note_on channel=8 note=58 velocity=86 time=0
note_on channel=9 note=35 velocity=116 time=0
note_on channel=9 note=42 velocity=98 time=0
note_on channel=10 note=46 velocity=113 time=8
note_on channel=6 note=46 velocity=123 time=3
note_on channel=6 note=53 velocity=120 time=0
note_off channel=9 note=35 velocity=0 time=17
note_off channel=9 note=42 velocity=0 time=0
note_off channel=7 note=74 velocity=0 time=9
note_off channel=7 note=65 velocity=0 time=15
note_off channel=8 note=58 velocity=0 time=1
note_off channel=7 note=70 velocity=0 time=1
note_off channel=6 note=53 velocity=0 time=16
note_off channel=8 note=53 velocity=0 time=2
note_off channel=6 note=46 velocity=0 time=1
note_off channel=4 note=63 velocity=0 time=37
note_off channel=4 note=67 velocity=0 time=1
note_off channel=4 note=70 velocity=0 time=0
note_off channel=1 note=34 velocity=0 time=108
note_off channel=10 note=46 velocity=0 time=8
note_on channel=1 note=34 velocity=118 time=13
note_on channel=4 note=65 velocity=102 time=0
note_on channel=4 note=68 velocity=123 time=0
note_on channel=4 note=72 velocity=123 time=0
note_on channel=7 note=65 velocity=106 time=0
note_on channel=7 note=70 velocity=116 time=0
note_on channel=7 note=74 velocity=115 time=0
note_on channel=8 note=46 velocity=127 time=0
note_on channel=8 note=53 velocity=110 time=0
note_on channel=8 note=58 velocity=127 time=0
note_on channel=9 note=39 velocity=85 time=0
note_on channel=9 note=40 velocity=116 time=0
note_on channel=9 note=42 velocity=98 time=0
note_on channel=9 note=54 velocity=116 time=0
note_on channel=10 note=46 velocity=118 time=8
note_on channel=6 note=46 velocity=127 time=3
note_on channel=6 note=53 velocity=125 time=0
note_off channel=9 note=39 velocity=0 time=17
note_off channel=9 note=40 velocity=0 time=0
note_off channel=9 note=42 velocity=0 time=0
note_off channel=9 note=54 velocity=0 time=0
note_off channel=7 note=65 velocity=0 time=42
note_off channel=7 note=70 velocity=0 time=0
note_off channel=7 note=74 velocity=0 time=13
note_off channel=6 note=53 velocity=0 time=6
note_off channel=6 note=46 velocity=0 time=28
note_off channel=8 note=53 velocity=0 time=13
note_off channel=8 note=58 velocity=0 time=1
note_off channel=1 note=34 velocity=0 time=88
note_off channel=10 note=46 velocity=0 time=8
note_on channel=1 note=34 velocity=113 time=13
note_on channel=7 note=65 velocity=74 time=0
note_on channel=7 note=70 velocity=93 time=0
note_on channel=7 note=74 velocity=83 time=0
note_on channel=8 note=53 velocity=80 time=0
note_on channel=8 note=58 velocity=116 time=0
note_on channel=9 note=42 velocity=98 time=0
note_on channel=10 note=46 velocity=113 time=8
note_on channel=6 note=46 velocity=111 time=3
note_on channel=6 note=53 velocity=106 time=0
note_on channel=3 note=79 velocity=125 time=0
note_off channel=4 note=68 velocity=0 time=5
note_off channel=4 note=72 velocity=0 time=0
note_off channel=9 note=42 velocity=0 time=0
note_off channel=4 note=65 velocity=0 time=20
note_off channel=7 note=65 velocity=0 time=18
note_off channel=7 note=70 velocity=0 time=2
note_off channel=6 note=53 velocity=0 time=8
note_off channel=7 note=74 velocity=0 time=0
note_off channel=6 note=46 velocity=0 time=4
note_off channel=3 note=79 velocity=0 time=6
note_off channel=8 note=53 velocity=0 time=3
note_off channel=8 note=58 velocity=0 time=8
note_on channel=4 note=63 velocity=123 time=23
note_on channel=4 note=67 velocity=115 time=0
note_on channel=4 note=70 velocity=115 time=0
note_off channel=1 note=34 velocity=0 time=99
note_off channel=4 note=63 velocity=0 time=0
note_off channel=4 note=67 velocity=0 time=1
note_off channel=4 note=70 velocity=0 time=0
note_off channel=10 note=46 velocity=0 time=7
note_on channel=1 note=34 velocity=113 time=13
note_on channel=7 note=65 velocity=90 time=0
note_on channel=7 note=70 velocity=101 time=0
note_on channel=7 note=74 velocity=98 time=0
note_on channel=8 note=53 velocity=90 time=0
note_on channel=8 note=58 velocity=123 time=0
note_on channel=9 note=35 velocity=116 time=0
note_on channel=9 note=42 velocity=98 time=0
note_on channel=10 note=46 velocity=113 time=8
note_on channel=6 note=46 velocity=127 time=3
note_on channel=6 note=53 velocity=120 time=0
note_on channel=3 note=82 velocity=127 time=16
note_off channel=9 note=35 velocity=0 time=1
note_off channel=9 note=42 velocity=0 time=0
note_off channel=7 note=65 velocity=0 time=38
note_off channel=7 note=70 velocity=0 time=3
note_off channel=7 note=74 velocity=0 time=15
note_off channel=6 note=53 velocity=0 time=3
note_off channel=6 note=46 velocity=0 time=6
note_off channel=8 note=53 velocity=0 time=4
note_off channel=8 note=58 velocity=0 time=12
note_off channel=1 note=34 velocity=0 time=110
note_off channel=10 note=46 velocity=0 time=8
note_off channel=3 note=82 velocity=0 time=7
note_on channel=1 note=34 velocity=118 time=6
note_on channel=7 note=65 velocity=74 time=0
note_on channel=7 note=70 velocity=89 time=0
note_on channel=7 note=74 velocity=90 time=0
note_on channel=8 note=53 velocity=63 time=0
note_on channel=8 note=58 velocity=97 time=0
note_on channel=9 note=35 velocity=116 time=0
note_on channel=9 note=46 velocity=98 time=0
note_off channel=8 note=46 velocity=0 time=1
note_on channel=10 note=46 velocity=118 time=7
note_on channel=6 note=46 velocity=116 time=3
note_on channel=6 note=53 velocity=110 time=0
note_off channel=9 note=35 velocity=0 time=17
note_off channel=9 note=46 velocity=0 time=0
note_on channel=3 note=79 velocity=106 time=0
note_off channel=8 note=58 velocity=0 time=13
note_off channel=8 note=53 velocity=0 time=6
note_off channel=7 note=70 velocity=0 time=7
note_off channel=7 note=65 velocity=0 time=2
note_off channel=7 note=74 velocity=0 time=12
note_off channel=6 note=53 velocity=0 time=4
note_off channel=6 note=46 velocity=0 time=4
note_off channel=3 note=79 velocity=0 time=20
note_off channel=1 note=34 velocity=0 time=119
note_off channel=10 note=46 velocity=0 time=8
note_on channel=1 note=34 velocity=113 time=13
note_on channel=7 note=65 velocity=98 time=0
note_on channel=7 note=70 velocity=111 time=0
note_on channel=7 note=74 velocity=106 time=0
note_on channel=8 note=46 velocity=123 time=0
note_on channel=8 note=53 velocity=102 time=0
note_on channel=8 note=58 velocity=127 time=0
note_on channel=9 note=39 velocity=85 time=0
note_on channel=9 note=40 velocity=116 time=0
note_on channel=9 note=42 velocity=98 time=0
note_on channel=9 note=54 velocity=116 time=0
note_on channel=10 note=46 velocity=113 time=8
note_on channel=6 note=46 velocity=127 time=3
note_on channel=6 note=53 velocity=120 time=0
note_on channel=3 note=82 velocity=127 time=0
note_off channel=9 note=39 velocity=0 time=6
note_off channel=9 note=40 velocity=0 time=0
note_off channel=9 note=42 velocity=0 time=0
note_off channel=9 note=54 velocity=0 time=0
note_off channel=7 note=65 velocity=0 time=34
note_off channel=7 note=70 velocity=0 time=3
note_off channel=7 note=74 velocity=0 time=7
note_off channel=6 note=53 velocity=0 time=11
note_off channel=6 note=46 velocity=0 time=7
note_off channel=8 note=53 velocity=0 time=13
note_off channel=8 note=58 velocity=0 time=14
note_off channel=3 note=82 velocity=0 time=98
note_off channel=1 note=34 velocity=0 time=4
note_off channel=10 note=46 velocity=0 time=8
note_on channel=1 note=34 velocity=118 time=13
note_on channel=7 note=65 velocity=98 time=0
note_on channel=7 note=70 velocity=105 time=0
note_on channel=7 note=74 velocity=106 time=0
note_on channel=8 note=53 velocity=98 time=0
note_on channel=8 note=58 velocity=111 time=0
note_on channel=9 note=42 velocity=98 time=0
note_on channel=10 note=46 velocity=118 time=8
note_on channel=6 note=46 velocity=123 time=3
note_on channel=6 note=53 velocity=115 time=0
note_on channel=3 note=79 velocity=106 time=0
note_off channel=9 note=42 velocity=0 time=15
note_off channel=7 note=65 velocity=0 time=28
note_off channel=7 note=70 velocity=0 time=3
note_off channel=8 note=58 velocity=0 time=4
note_off channel=7 note=74 velocity=0 time=9
note_off channel=6 note=46 velocity=0 time=10
note_off channel=6 note=53 velocity=0 time=9
note_off channel=8 note=53 velocity=0 time=2
note_off channel=3 note=79 velocity=0 time=21
note_off channel=7 note=34 velocity=0 time=97
note_off channel=7 note=46 velocity=0 time=0
note_off channel=1 note=34 velocity=0 time=8
note_off channel=10 note=46 velocity=0 time=8
note_off channel=8 note=46 velocity=0 time=6
note_on channel=1 note=32 velocity=113 time=7
note_on channel=4 note=63 velocity=116 time=0
note_on channel=4 note=67 velocity=102 time=0
note_on channel=4 note=70 velocity=102 time=0
note_on channel=7 note=32 velocity=115 time=0
note_on channel=7 note=44 velocity=115 time=0
note_on channel=7 note=60 velocity=125 time=0
note_on channel=7 note=63 velocity=116 time=0
note_on channel=7 note=67 velocity=115 time=0
note_on channel=8 note=51 velocity=127 time=0
note_on channel=8 note=56 velocity=123 time=0
note_on channel=9 note=35 velocity=116 time=0
note_on channel=9 note=42 velocity=98 time=0
note_on channel=10 note=44 velocity=113 time=8
note_on channel=6 note=44 velocity=116 time=3
note_on channel=6 note=51 velocity=127 time=0
note_on channel=3 note=84 velocity=125 time=0
note_off channel=9 note=35 velocity=0 time=7
note_off channel=9 note=42 velocity=0 time=0
note_off channel=7 note=63 velocity=0 time=29
note_off channel=7 note=60 velocity=0 time=3
note_off channel=7 note=67 velocity=0 time=9
note_off channel=6 note=51 velocity=0 time=3
note_off channel=6 note=44 velocity=0 time=42
note_off channel=4 note=63 velocity=0 time=10
note_off channel=8 note=51 velocity=0 time=1
note_off channel=4 note=67 velocity=0 time=1
note_off channel=4 note=70 velocity=0 time=0
note_off channel=8 note=56 velocity=0 time=27
note_off channel=1 note=32 velocity=0 time=66
note_off channel=10 note=44 velocity=0 time=8
note_on channel=1 note=32 velocity=113 time=13
note_on channel=4 note=63 velocity=116 time=0
note_on channel=4 note=67 velocity=87 time=0
note_on channel=4 note=70 velocity=87 time=0
note_on channel=7 note=60 velocity=110 time=0
note_on channel=7 note=63 velocity=105 time=0
note_on channel=7 note=67 velocity=102 time=0
note_on channel=8 note=51 velocity=101 time=0
note_on channel=8 note=56 velocity=86 time=0
note_on channel=9 note=35 velocity=116 time=0
note_on channel=9 note=42 velocity=98 time=0
note_on channel=10 note=44 velocity=113 time=8
note_on channel=6 note=44 velocity=116 time=3
note_on channel=6 note=51 velocity=116 time=0
note_off channel=9 note=35 velocity=0 time=17
note_off channel=9 note=42 velocity=0 time=0
note_off channel=7 note=60 velocity=0 time=14
note_off channel=7 note=63 velocity=0 time=4
note_off channel=8 note=56 velocity=0 time=0
note_off channel=7 note=67 velocity=0 time=5
note_off channel=6 note=51 velocity=0 time=5
note_off channel=8 note=51 velocity=0 time=0
note_off channel=6 note=44 velocity=0 time=23
note_off channel=4 note=63 velocity=0 time=31
note_off channel=4 note=67 velocity=0 time=1
note_off channel=4 note=70 velocity=0 time=0
note_off channel=1 note=32 velocity=0 time=108
note_off channel=10 note=44 velocity=0 time=8
note_on channel=1 note=32 velocity=118 time=13
note_on channel=4 note=65 velocity=102 time=0
note_on channel=4 note=68 velocity=123 time=0
note_on channel=4 note=72 velocity=123 time=0
note_on channel=7 note=60 velocity=127 time=0
note_on channel=7 note=63 velocity=123 time=0
note_on channel=7 note=67 velocity=125 time=0
note_on channel=8 note=44 velocity=123 time=0
note_on channel=8 note=51 velocity=127 time=0
note_on channel=8 note=54 velocity=123 time=0
note_on channel=8 note=56 velocity=127 time=0
note_on channel=9 note=39 velocity=85 time=0
note_on channel=9 note=40 velocity=116 time=0
note_on channel=9 note=42 velocity=98 time=0
note_on channel=9 note=54 velocity=116 time=0
note_on channel=10 note=44 velocity=118 time=8
note_on channel=6 note=44 velocity=127 time=3
note_on channel=6 note=51 velocity=127 time=0
note_off channel=8 note=54 velocity=0 time=4
note_off channel=9 note=39 velocity=0 time=13
note_off channel=9 note=40 velocity=0 time=0
note_off channel=9 note=42 velocity=0 time=0
note_off channel=9 note=54 velocity=0 time=0
note_off channel=7 note=60 velocity=0 time=30
note_off channel=7 note=63 velocity=0 time=2
note_off channel=6 note=51 velocity=0 time=13
note_off channel=7 note=67 velocity=0 time=2
note_off channel=8 note=51 velocity=0 time=12
note_off channel=6 note=44 velocity=0 time=20
note_off channel=8 note=56 velocity=0 time=5
note_off channel=1 note=32 velocity=0 time=107
note_off channel=10 note=44 velocity=0 time=8
note_on channel=1 note=32 velocity=113 time=13
note_on channel=7 note=60 velocity=125 time=0
note_on channel=7 note=63 velocity=111 time=0
note_on channel=7 note=67 velocity=102 time=0
note_on channel=8 note=51 velocity=111 time=0
note_on channel=8 note=56 velocity=101 time=0
note_on channel=9 note=42 velocity=98 time=0
note_on channel=10 note=44 velocity=113 time=8
note_on channel=6 note=44 velocity=116 time=3
note_on channel=6 note=51 velocity=116 time=0
note_off channel=4 note=68 velocity=0 time=17
note_off channel=4 note=72 velocity=0 time=0
note_off channel=9 note=42 velocity=0 time=0
note_off channel=4 note=65 velocity=0 time=20
note_off channel=7 note=60 velocity=0 time=5
note_off channel=7 note=63 velocity=0 time=0
note_off channel=7 note=67 velocity=0 time=8
note_off channel=6 note=51 velocity=0 time=6
note_off channel=8 note=51 velocity=0 time=8
note_off channel=8 note=56 velocity=0 time=2
note_off channel=6 note=44 velocity=0 time=16
note_on channel=4 note=63 velocity=123 time=27
note_on channel=4 note=67 velocity=115 time=0
note_on channel=4 note=70 velocity=115 time=0
note_off channel=1 note=32 velocity=0 time=99
note_off channel=4 note=63 velocity=0 time=0
note_off channel=4 note=67 velocity=0 time=1
note_off channel=4 note=70 velocity=0 time=0
note_off channel=10 note=44 velocity=0 time=7
note_on channel=1 note=32 velocity=113 time=13
note_on channel=7 note=60 velocity=120 time=0
note_on channel=7 note=63 velocity=116 time=0
note_on channel=7 note=67 velocity=110 time=0
note_on channel=8 note=51 velocity=123 time=0
note_on channel=8 note=54 velocity=86 time=0
note_on channel=8 note=56 velocity=116 time=0
note_on channel=9 note=35 velocity=116 time=0
note_on channel=9 note=42 velocity=98 time=0
note_off channel=8 note=54 velocity=0 time=6
note_on channel=10 note=44 velocity=113 time=2
note_on channel=6 note=44 velocity=123 time=3
note_on channel=6 note=51 velocity=127 time=0
note_off channel=9 note=35 velocity=0 time=17
note_off channel=9 note=42 velocity=0 time=0
note_off channel=7 note=60 velocity=0 time=26
note_off channel=7 note=63 velocity=0 time=7
note_off channel=7 note=67 velocity=0 time=8
note_off channel=8 note=51 velocity=0 time=4
note_off channel=6 note=51 velocity=0 time=3
note_off channel=8 note=56 velocity=0 time=12
note_off channel=6 note=44 velocity=0 time=13
note_off channel=1 note=32 velocity=0 time=118
note_off channel=10 note=44 velocity=0 time=8
note_on channel=1 note=32 velocity=118 time=13
note_on channel=7 note=60 velocity=115 time=0
note_on channel=7 note=63 velocity=111 time=0
note_on channel=7 note=67 velocity=106 time=0
note_on channel=8 note=51 velocity=101 time=0
note_on channel=8 note=56 velocity=75 time=0
note_on channel=9 note=35 velocity=116 time=0
note_on channel=9 note=42 velocity=98 time=0
note_on channel=10 note=44 velocity=118 time=8
note_on channel=6 note=44 velocity=123 time=3
note_on channel=6 note=51 velocity=123 time=0
note_off channel=9 note=35 velocity=0 time=17
note_off channel=9 note=42 velocity=0 time=0
note_off channel=8 note=56 velocity=0 time=6
note_off channel=8 note=51 velocity=0 time=5
note_off channel=7 note=60 velocity=0 time=17
note_off channel=7 note=63 velocity=0 time=5
note_off channel=6 note=51 velocity=0 time=6
note_off channel=7 note=67 velocity=0 time=7
note_off channel=6 note=44 velocity=0 time=9
note_off channel=1 note=32 velocity=0 time=136
note_off channel=10 note=44 velocity=0 time=8
note_on channel=1 note=32 velocity=113 time=13
note_on channel=7 note=60 velocity=120 time=0
note_on channel=7 note=63 velocity=116 time=0
note_on channel=7 note=67 velocity=90 time=0
note_on channel=8 note=51 velocity=127 time=0
note_on channel=8 note=56 velocity=127 time=0
note_on channel=9 note=39 velocity=85 time=0
note_on channel=9 note=40 velocity=116 time=0
note_on channel=9 note=42 velocity=98 time=0
note_on channel=9 note=54 velocity=116 time=0
pitchwheel channel=3 pitch=520 time=6
note_on channel=10 note=44 velocity=113 time=2
note_on channel=6 note=44 velocity=127 time=3
note_on channel=6 note=51 velocity=127 time=0
pitchwheel channel=3 pitch=4290 time=5
pitchwheel channel=3 pitch=8191 time=10
note_off channel=9 note=39 velocity=0 time=2
note_off channel=9 note=40 velocity=0 time=0
note_off channel=9 note=42 velocity=0 time=0
note_off channel=9 note=54 velocity=0 time=0
note_off channel=7 note=60 velocity=0 time=27
note_off channel=7 note=63 velocity=0 time=5
note_off channel=7 note=67 velocity=0 time=10
note_off channel=6 note=51 velocity=0 time=5
note_off channel=8 note=51 velocity=0 time=15
note_off channel=6 note=44 velocity=0 time=1
note_off channel=8 note=56 velocity=0 time=13
note_off channel=3 note=84 velocity=0 time=112
note_off channel=1 note=32 velocity=0 time=3
note_off channel=10 note=44 velocity=0 time=8
note_off channel=8 note=44 velocity=0 time=9
note_on channel=1 note=32 velocity=118 time=4
note_on channel=7 note=60 velocity=120 time=0
note_on channel=7 note=63 velocity=116 time=0
note_on channel=7 note=67 velocity=110 time=0
note_on channel=8 note=51 velocity=116 time=0
note_on channel=8 note=56 velocity=111 time=0
note_on channel=9 note=42 velocity=98 time=0
note_on channel=3 note=82 velocity=123 time=0
pitchwheel channel=3 pitch=0 time=2
note_on channel=10 note=44 velocity=118 time=5
note_on channel=6 note=44 velocity=123 time=3
note_on channel=6 note=51 velocity=123 time=0
pitchwheel channel=3 pitch=0 time=7
note_off channel=9 note=42 velocity=0 time=10
note_off channel=8 note=51 velocity=0 time=23
note_off channel=7 note=60 velocity=0 time=4
note_off channel=7 note=63 velocity=0 time=7
note_off channel=6 note=51 velocity=0 time=7
note_off channel=7 note=67 velocity=0 time=0
note_off channel=8 note=56 velocity=0 time=0
note_off channel=6 note=44 velocity=0 time=7
note_off channel=7 note=32 velocity=0 time=135
note_off channel=7 note=44 velocity=0 time=0
note_off channel=1 note=32 velocity=0 time=8
note_off channel=10 note=44 velocity=0 time=8
note_on channel=1 note=32 velocity=113 time=13
note_on channel=4 note=63 velocity=116 time=0
note_on channel=4 note=67 velocity=102 time=0
note_on channel=4 note=70 velocity=102 time=0
note_on channel=7 note=32 velocity=115 time=0
note_on channel=7 note=44 velocity=115 time=0
note_on channel=7 note=60 velocity=125 time=0
note_on channel=7 note=63 velocity=111 time=0
note_on channel=7 note=67 velocity=110 time=0
note_on channel=8 note=44 velocity=116 time=0
note_on channel=8 note=51 velocity=127 time=0
note_on channel=8 note=54 velocity=116 time=0
note_on channel=8 note=56 velocity=127 time=0
note_on channel=9 note=35 velocity=116 time=0
note_on channel=9 note=42 velocity=98 time=0
note_on channel=10 note=44 velocity=113 time=8
note_off channel=8 note=54 velocity=0 time=1
note_on channel=6 note=44 velocity=123 time=2
note_on channel=6 note=51 velocity=127 time=0
note_off channel=9 note=35 velocity=0 time=17
note_off channel=9 note=42 velocity=0 time=0
note_off channel=7 note=60 velocity=0 time=26
note_off channel=7 note=63 velocity=0 time=2
note_off channel=7 note=67 velocity=0 time=10
note_off channel=8 note=51 velocity=0 time=8
note_off channel=6 note=51 velocity=0 time=3
note_off channel=8 note=56 velocity=0 time=17
note_off channel=6 note=44 velocity=0 time=4
note_off channel=4 note=63 velocity=0 time=26
note_off channel=4 note=67 velocity=0 time=2
note_off channel=4 note=70 velocity=0 time=0
note_off channel=1 note=32 velocity=0 time=93
note_off channel=10 note=44 velocity=0 time=8
note_on channel=1 note=32 velocity=113 time=13
note_on channel=4 note=63 velocity=116 time=0
note_on channel=4 note=67 velocity=87 time=0
note_on channel=4 note=70 velocity=87 time=0
note_on channel=7 note=60 velocity=106 time=0
note_on channel=7 note=63 velocity=101 time=0
note_on channel=7 note=67 velocity=95 time=0
note_on channel=8 note=51 velocity=123 time=0
note_on channel=8 note=54 velocity=89 time=0
note_on channel=8 note=56 velocity=116 time=0
note_on channel=9 note=35 velocity=116 time=0
note_on channel=9 note=42 velocity=98 time=0
note_off channel=8 note=54 velocity=0 time=4
note_on channel=10 note=44 velocity=113 time=4
note_on channel=6 note=44 velocity=123 time=3
note_on channel=6 note=51 velocity=127 time=0
note_off channel=9 note=35 velocity=0 time=17
note_off channel=9 note=42 velocity=0 time=0
note_off channel=8 note=51 velocity=0 time=22
note_off channel=8 note=56 velocity=0 time=2
note_off channel=7 note=60 velocity=0 time=4
note_off channel=7 note=63 velocity=0 time=6
note_off channel=7 note=67 velocity=0 time=5
note_off channel=6 note=51 velocity=0 time=3
note_off channel=6 note=44 velocity=0 time=22
note_off channel=4 note=63 velocity=0 time=18
note_off channel=4 note=67 velocity=0 time=1
note_off channel=4 note=70 velocity=0 time=0
note_off channel=3 note=82 velocity=0 time=17
note_off channel=1 note=32 velocity=0 time=91
note_off channel=10 note=44 velocity=0 time=8
note_on channel=1 note=32 velocity=118 time=13
note_on channel=4 note=65 velocity=102 time=0
note_on channel=4 note=68 velocity=123 time=0
note_on channel=4 note=72 velocity=123 time=0
note_on channel=7 note=60 velocity=125 time=0
note_on channel=7 note=63 velocity=116 time=0
note_on channel=7 note=67 velocity=110 time=0
note_on channel=8 note=51 velocity=127 time=0
note_on channel=8 note=54 velocity=97 time=0
note_on channel=8 note=56 velocity=127 time=0
note_on channel=9 note=39 velocity=85 time=0
note_on channel=9 note=40 velocity=116 time=0
note_on channel=9 note=42 velocity=98 time=0
note_on channel=9 note=54 velocity=116 time=0
note_off channel=8 note=54 velocity=0 time=4
note_on channel=10 note=44 velocity=118 time=4
note_on channel=6 note=44 velocity=127 time=3
note_on channel=6 note=51 velocity=127 time=0
note_off channel=9 note=39 velocity=0 time=17
note_off channel=9 note=40 velocity=0 time=0
note_off channel=9 note=42 velocity=0 time=0
note_off channel=9 note=54 velocity=0 time=0
note_off channel=7 note=60 velocity=0 time=28
note_off channel=7 note=63 velocity=0 time=6
note_off channel=7 note=67 velocity=0 time=10
note_off channel=6 note=51 velocity=0 time=7
note_off channel=8 note=51 velocity=0 time=3
note_off channel=6 note=44 velocity=0 time=12
note_off channel=8 note=56 velocity=0 time=8
note_off channel=1 note=32 velocity=0 time=117
note_off channel=10 note=44 velocity=0 time=8
note_on channel=1 note=32 velocity=113 time=13
note_on channel=7 note=60 velocity=115 time=0
note_on channel=7 note=63 velocity=111 time=0
note_on channel=7 note=67 velocity=110 time=0
note_on channel=8 note=51 velocity=116 time=0
note_on channel=8 note=54 velocity=101 time=0
note_on channel=8 note=56 velocity=123 time=0
note_on channel=9 note=42 velocity=98 time=0
note_off channel=8 note=54 velocity=0 time=6
note_on channel=10 note=44 velocity=113 time=2
note_on channel=6 note=44 velocity=123 time=3
note_on channel=6 note=51 velocity=127 time=0
note_on channel=3 note=79 velocity=125 time=0
note_off channel=4 note=68 velocity=0 time=5
note_off channel=4 note=72 velocity=0 time=0
note_off channel=9 note=42 velocity=0 time=0
note_off channel=4 note=65 velocity=0 time=20
note_off channel=7 note=60 velocity=0 time=10
note_off channel=7 note=63 velocity=0 time=3
note_off channel=8 note=51 velocity=0 time=1
note_off channel=6 note=51 velocity=0 time=12
note_off channel=7 note=67 velocity=0 time=3
note_off channel=8 note=56 velocity=0 time=0
note_off channel=3 note=79 velocity=0 time=9
note_off channel=6 note=44 velocity=0 time=15
note_on channel=4 note=63 velocity=123 time=19
note_on channel=4 note=67 velocity=115 time=0
note_on channel=4 note=70 velocity=115 time=0
note_off channel=8 note=44 velocity=0 time=36
note_off channel=7 note=32 velocity=0 time=55
note_off channel=7 note=44 velocity=0 time=0
note_off channel=1 note=32 velocity=0 time=8
note_off channel=4 note=63 velocity=0 time=0
note_off channel=4 note=67 velocity=0 time=1
note_off channel=4 note=70 velocity=0 time=0
note_off channel=10 note=44 velocity=0 time=7
note_on channel=1 note=34 velocity=113 time=13
note_on channel=7 note=34 velocity=115 time=0
note_on channel=7 note=46 velocity=115 time=0
note_on channel=7 note=62 velocity=98 time=0
note_on channel=7 note=65 velocity=90 time=0
note_on channel=7 note=70 velocity=101 time=0
note_on channel=8 note=53 velocity=102 time=0
note_on channel=8 note=58 velocity=123 time=0
note_on channel=9 note=35 velocity=116 time=0
note_on channel=9 note=42 velocity=98 time=0
note_on channel=10 note=46 velocity=113 time=8
note_on channel=6 note=46 velocity=127 time=3
note_on channel=6 note=53 velocity=115 time=0
note_on channel=3 note=82 velocity=127 time=0
note_off channel=9 note=35 velocity=0 time=1
note_off channel=9 note=42 velocity=0 time=0
note_off channel=7 note=65 velocity=0 time=38
note_off channel=7 note=70 velocity=0 time=3
note_off channel=8 note=53 velocity=0 time=8
note_off channel=6 note=53 velocity=0 time=2
note_off channel=6 note=46 velocity=0 time=3
note_off channel=7 note=62 velocity=0 time=2
note_off channel=8 note=58 velocity=0 time=4
note_off channel=1 note=34 velocity=0 time=131
note_off channel=10 note=46 velocity=0 time=8
note_off channel=3 note=82 velocity=0 time=7
note_on channel=1 note=34 velocity=118 time=6
note_on channel=7 note=62 velocity=90 time=0
note_on channel=7 note=65 velocity=74 time=0
note_on channel=7 note=70 velocity=89 time=0
note_on channel=8 note=53 velocity=110 time=0
note_on channel=8 note=58 velocity=127 time=0
note_on channel=9 note=35 velocity=116 time=0
note_on channel=9 note=46 velocity=98 time=0
note_on channel=10 note=46 velocity=118 time=8
note_on channel=6 note=46 velocity=127 time=3
note_on channel=6 note=53 velocity=115 time=0
note_off channel=9 note=35 velocity=0 time=17
note_off channel=9 note=46 velocity=0 time=0
note_on channel=3 note=79 velocity=106 time=0
note_off channel=7 note=70 velocity=0 time=26
note_off channel=7 note=65 velocity=0 time=2
note_off channel=8 note=53 velocity=0 time=7
note_off channel=7 note=62 velocity=0 time=5
note_off channel=6 note=53 velocity=0 time=2
note_off channel=8 note=58 velocity=0 time=1
note_off channel=6 note=46 velocity=0 time=8
note_off channel=3 note=79 velocity=0 time=17
note_off channel=1 note=34 velocity=0 time=119
note_off channel=10 note=46 velocity=0 time=8
note_on channel=1 note=34 velocity=113 time=13
note_on channel=7 note=62 velocity=106 time=0
note_on channel=7 note=65 velocity=98 time=0
note_on channel=7 note=70 velocity=111 time=0
note_on channel=8 note=53 velocity=110 time=0
note_on channel=8 note=58 velocity=127 time=0
note_on channel=9 note=39 velocity=85 time=0
note_on channel=9 note=40 velocity=116 time=0
note_on channel=9 note=42 velocity=98 time=0
note_on channel=9 note=54 velocity=116 time=0
note_on channel=10 note=46 velocity=113 time=8
note_on channel=6 note=46 velocity=123 time=3
note_on channel=6 note=53 velocity=110 time=0
note_on channel=3 note=82 velocity=127 time=0
note_off channel=9 note=39 velocity=0 time=6
note_off channel=9 note=40 velocity=0 time=0
note_off channel=9 note=42 velocity=0 time=0
note_off channel=9 note=54 velocity=0 time=0
note_off channel=7 note=65 velocity=0 time=34
note_off channel=7 note=70 velocity=0 time=3
note_off channel=7 note=62 velocity=0 time=7
note_off channel=6 note=53 velocity=0 time=5
note_off channel=8 note=53 velocity=0 time=4
note_off channel=6 note=46 velocity=0 time=3
note_off channel=8 note=58 velocity=0 time=5
note_off channel=3 note=82 velocity=0 time=126
note_off channel=1 note=34 velocity=0 time=4
note_off channel=10 note=46 velocity=0 time=8
note_on channel=1 note=34 velocity=118 time=13
note_on channel=7 note=62 velocity=106 time=0
note_on channel=7 note=65 velocity=98 time=0
note_on channel=7 note=70 velocity=105 time=0
note_on channel=8 note=53 velocity=115 time=0
note_on channel=8 note=58 velocity=123 time=0
note_on channel=9 note=40 velocity=116 time=0
note_on channel=9 note=42 velocity=98 time=0
note_on channel=10 note=46 velocity=118 time=8
note_on channel=6 note=46 velocity=127 time=3
note_on channel=6 note=53 velocity=125 time=0
note_on channel=3 note=79 velocity=106 time=0
note_off channel=9 note=40 velocity=0 time=15
note_off channel=9 note=42 velocity=0 time=0
note_off channel=7 note=65 velocity=0 time=28
note_off channel=7 note=70 velocity=0 time=3
note_off channel=6 note=53 velocity=0 time=13
note_off channel=7 note=62 velocity=0 time=0
note_off channel=6 note=46 velocity=0 time=10
note_off channel=8 note=53 velocity=0 time=3
note_off channel=8 note=58 velocity=0 time=3
note_off channel=3 note=79 velocity=0 time=26
note_on channel=9 note=40 velocity=116 time=6
note_off channel=9 note=40 velocity=0 time=28
note_off channel=7 note=34 velocity=0 time=63
note_off channel=7 note=46 velocity=0 time=0
note_off channel=1 note=34 velocity=0 time=8
note_off channel=10 note=46 velocity=0 time=8
note_on channel=1 note=36 velocity=113 time=13
note_on channel=4 note=63 velocity=116 time=0
note_on channel=4 note=67 velocity=102 time=0
note_on channel=4 note=70 velocity=102 time=0
note_on channel=7 note=36 velocity=115 time=0
note_on channel=7 note=48 velocity=115 time=0
note_on channel=7 note=67 velocity=106 time=0
note_on channel=7 note=72 velocity=125 time=0
note_on channel=7 note=75 velocity=116 time=0
note_on channel=8 note=48 velocity=125 time=0
note_on channel=8 note=55 velocity=115 time=0
note_on channel=8 note=60 velocity=120 time=0
note_on channel=9 note=35 velocity=116 time=0
note_on channel=9 note=49 velocity=98 time=0
note_on channel=10 note=48 velocity=113 time=8
note_on channel=6 note=48 velocity=127 time=3
note_on channel=6 note=55 velocity=125 time=0
note_on channel=3 note=84 velocity=115 time=0
note_off channel=9 note=35 velocity=0 time=14
note_off channel=9 note=49 velocity=0 time=0
note_off channel=7 note=72 velocity=0 time=9
note_off channel=7 note=75 velocity=0 time=1
note_off channel=6 note=55 velocity=0 time=13
note_off channel=7 note=67 velocity=0 time=2
note_off channel=6 note=48 velocity=0 time=8
note_off channel=8 note=60 velocity=0 time=32
note_off channel=8 note=55 velocity=0 time=2
note_off channel=4 note=63 velocity=0 time=29
note_off channel=4 note=67 velocity=0 time=2
note_off channel=4 note=70 velocity=0 time=0
note_off channel=8 note=48 velocity=0 time=56
note_off channel=1 note=36 velocity=0 time=37
note_off channel=10 note=48 velocity=0 time=8
note_on channel=1 note=36 velocity=113 time=13
note_on channel=4 note=63 velocity=116 time=0
note_on channel=4 note=67 velocity=87 time=0
note_on channel=4 note=70 velocity=87 time=0
note_on channel=7 note=67 velocity=77 time=0
note_on channel=7 note=72 velocity=106 time=0
note_on channel=7 note=75 velocity=86 time=0
note_on channel=8 note=55 velocity=90 time=0
note_on channel=8 note=60 velocity=102 time=0
note_on channel=9 note=35 velocity=116 time=0
note_on channel=9 note=42 velocity=98 time=0
note_on channel=10 note=48 velocity=113 time=8
note_on channel=6 note=48 velocity=125 time=3
note_on channel=6 note=55 velocity=125 time=0
note_off channel=9 note=35 velocity=0 time=17
note_off channel=9 note=42 velocity=0 time=0
note_off channel=7 note=75 velocity=0 time=3
note_off channel=7 note=72 velocity=0 time=6
note_off channel=6 note=55 velocity=0 time=7
note_off channel=7 note=67 velocity=0 time=6
note_off channel=6 note=48 velocity=0 time=10
note_off channel=8 note=60 velocity=0 time=2
note_off channel=8 note=55 velocity=0 time=7
note_off channel=4 note=63 velocity=0 time=41
note_off channel=4 note=67 velocity=0 time=1
note_off channel=4 note=70 velocity=0 time=0
note_off channel=1 note=36 velocity=0 time=108
note_off channel=10 note=48 velocity=0 time=8
note_on channel=1 note=36 velocity=118 time=13
note_on channel=4 note=65 velocity=102 time=0
note_on channel=4 note=68 velocity=123 time=0
note_on channel=4 note=72 velocity=123 time=0
note_on channel=7 note=67 velocity=120 time=0
note_on channel=7 note=72 velocity=127 time=0
note_on channel=7 note=75 velocity=127 time=0
note_on channel=8 note=48 velocity=127 time=0
note_on channel=8 note=55 velocity=125 time=0
note_on channel=8 note=60 velocity=127 time=0
note_on channel=9 note=39 velocity=85 time=0
note_on channel=9 note=40 velocity=116 time=0
note_on channel=9 note=42 velocity=98 time=0
note_on channel=9 note=54 velocity=116 time=0
note_on channel=10 note=48 velocity=118 time=8
note_on channel=6 note=48 velocity=127 time=3
note_on channel=6 note=55 velocity=127 time=0
note_off channel=9 note=39 velocity=0 time=17
note_off channel=9 note=40 velocity=0 time=0
note_off channel=9 note=42 velocity=0 time=0
note_off channel=9 note=54 velocity=0 time=0
note_off channel=6 note=55 velocity=0 time=34
note_off channel=7 note=72 velocity=0 time=1
note_off channel=7 note=75 velocity=0 time=5
note_off channel=7 note=67 velocity=0 time=4
note_off channel=6 note=48 velocity=0 time=14
note_off channel=8 note=55 velocity=0 time=3
note_off channel=8 note=60 velocity=0 time=21
note_off channel=8 note=48 velocity=0 time=7
note_off channel=1 note=36 velocity=0 time=21
note_off channel=10 note=48 velocity=0 time=8
note_on channel=1 note=36 velocity=113 time=11
note_on channel=7 note=67 velocity=74 time=0
note_on channel=7 note=72 velocity=98 time=0
note_on channel=7 note=75 velocity=97 time=0
note_on channel=8 note=55 velocity=102 time=0
note_on channel=8 note=60 velocity=115 time=0
note_on channel=9 note=42 velocity=98 time=0
note_on channel=10 note=48 velocity=113 time=4
note_on channel=6 note=48 velocity=125 time=3
note_on channel=6 note=55 velocity=120 time=0
note_off channel=4 note=68 velocity=0 time=9
note_off channel=4 note=72 velocity=0 time=0
note_off channel=9 note=42 velocity=0 time=0
note_off channel=4 note=65 velocity=0 time=14
note_off channel=6 note=55 velocity=0 time=4
note_off channel=7 note=72 velocity=0 time=1
note_off channel=7 note=75 velocity=0 time=6
note_off channel=6 note=48 velocity=0 time=8
note_off channel=7 note=67 velocity=0 time=1
note_off channel=8 note=60 velocity=0 time=10
note_off channel=8 note=55 velocity=0 time=3
note_on channel=4 note=63 velocity=123 time=6
note_on channel=4 note=67 velocity=115 time=0
note_on channel=4 note=70 velocity=115 time=0
note_off channel=1 note=36 velocity=0 time=36
note_off channel=4 note=63 velocity=0 time=0
note_off channel=4 note=67 velocity=0 time=1
note_off channel=4 note=70 velocity=0 time=0
note_off channel=10 note=48 velocity=0 time=7
note_on channel=1 note=36 velocity=113 time=13
note_on channel=7 note=67 velocity=106 time=0
note_on channel=7 note=72 velocity=127 time=0
note_on channel=7 note=75 velocity=116 time=0
note_on channel=8 note=55 velocity=115 time=0
note_on channel=8 note=60 velocity=127 time=0
note_on channel=9 note=35 velocity=116 time=0
note_on channel=9 note=42 velocity=98 time=0
note_on channel=10 note=48 velocity=113 time=8
note_on channel=6 note=48 velocity=127 time=3
note_on channel=6 note=55 velocity=120 time=0
note_off channel=9 note=35 velocity=0 time=1
note_off channel=9 note=42 velocity=0 time=0
note_off channel=6 note=55 velocity=0 time=11
note_off channel=7 note=72 velocity=0 time=1
note_off channel=7 note=75 velocity=0 time=7
note_off channel=7 note=67 velocity=0 time=2
note_off channel=6 note=48 velocity=0 time=7
note_off channel=8 note=60 velocity=0 time=39
note_off channel=8 note=55 velocity=0 time=4
note_off channel=3 note=84 velocity=0 time=48
note_off channel=1 note=36 velocity=0 time=43
note_off channel=10 note=48 velocity=0 time=8
note_on channel=1 note=36 velocity=118 time=13
note_on channel=7 note=67 velocity=71 time=0
note_on channel=7 note=72 velocity=90 time=0
note_on channel=7 note=75 velocity=81 time=0
note_on channel=8 note=55 velocity=83 time=0
note_on channel=8 note=60 velocity=102 time=0
note_on channel=9 note=35 velocity=116 time=0
note_on channel=9 note=42 velocity=98 time=0
note_on channel=10 note=48 velocity=118 time=8
note_on channel=6 note=48 velocity=120 time=3
note_on channel=6 note=55 velocity=115 time=0
note_on channel=3 note=84 velocity=106 time=0
note_off channel=9 note=35 velocity=0 time=13
note_off channel=9 note=42 velocity=0 time=0
note_off channel=7 note=72 velocity=0 time=19
note_off channel=7 note=75 velocity=0 time=0
note_off channel=6 note=55 velocity=0 time=1
note_off channel=6 note=48 velocity=0 time=9
note_off channel=8 note=60 velocity=0 time=0
note_off channel=7 note=67 velocity=0 time=7
note_off channel=8 note=55 velocity=0 time=9
note_off channel=3 note=84 velocity=0 time=140
note_off channel=1 note=36 velocity=0 time=6
note_off channel=10 note=48 velocity=0 time=8
note_on channel=1 note=36 velocity=113 time=13
note_on channel=7 note=67 velocity=115 time=0
note_on channel=7 note=72 velocity=127 time=0
note_on channel=7 note=75 velocity=123 time=0
note_on channel=8 note=48 velocity=127 time=0
note_on channel=8 note=55 velocity=125 time=0
note_on channel=8 note=60 velocity=127 time=0
note_on channel=9 note=39 velocity=85 time=0
note_on channel=9 note=40 velocity=116 time=0
note_on channel=9 note=42 velocity=98 time=0
note_on channel=9 note=54 velocity=116 time=0
note_on channel=10 note=48 velocity=113 time=8
note_on channel=6 note=48 velocity=127 time=3
note_on channel=6 note=55 velocity=125 time=0
note_off channel=9 note=39 velocity=0 time=17
note_off channel=9 note=40 velocity=0 time=0
note_off channel=9 note=42 velocity=0 time=0
note_off channel=9 note=54 velocity=0 time=0
note_on channel=3 note=84 velocity=125 time=0
pitchwheel channel=3 pitch=520 time=27
pitchwheel channel=3 pitch=1690 time=10
note_off channel=6 note=55 velocity=0 time=4
note_off channel=7 note=72 velocity=0 time=1
pitchwheel channel=3 pitch=3380 time=5
note_off channel=7 note=75 velocity=0 time=10
pitchwheel channel=3 pitch=5720 time=0
note_off channel=6 note=48 velocity=0 time=1
note_off channel=7 note=67 velocity=0 time=1
pitchwheel channel=3 pitch=8191 time=8
note_off channel=8 note=60 velocity=0 time=12
note_off channel=8 note=55 velocity=0 time=4
note_off channel=3 note=84 velocity=0 time=87
pitchwheel channel=3 pitch=6370 time=10
note_off channel=1 note=36 velocity=0 time=8
pitchwheel channel=3 pitch=0 time=3
note_off channel=10 note=48 velocity=0 time=5
note_on channel=1 note=36 velocity=118 time=13
note_on channel=7 note=67 velocity=106 time=0
note_on channel=7 note=72 velocity=115 time=0
note_on channel=7 note=75 velocity=105 time=0
note_on channel=8 note=55 velocity=98 time=0
note_on channel=8 note=60 velocity=115 time=0
note_on channel=9 note=42 velocity=98 time=0
note_on channel=10 note=48 velocity=118 time=8
note_on channel=6 note=48 velocity=125 time=3
note_on channel=6 note=55 velocity=125 time=0
note_on channel=3 note=82 velocity=123 time=0
note_off channel=9 note=42 velocity=0 time=15
note_off channel=7 note=72 velocity=0 time=34
note_off channel=6 note=55 velocity=0 time=7
note_off channel=7 note=75 velocity=0 time=2
note_off channel=8 note=60 velocity=0 time=7
note_off channel=7 note=67 velocity=0 time=4
note_off channel=8 note=55 velocity=0 time=16
note_off channel=6 note=48 velocity=0 time=11
note_off channel=7 note=36 velocity=0 time=102
note_off channel=7 note=48 velocity=0 time=0
note_off channel=8 note=48 velocity=0 time=1
note_off channel=1 note=36 velocity=0 time=7
note_off channel=10 note=48 velocity=0 time=8
note_on channel=1 note=34 velocity=113 time=13
note_on channel=4 note=63 velocity=116 time=0
note_on channel=4 note=67 velocity=102 time=0
note_on channel=4 note=70 velocity=102 time=0
note_on channel=7 note=34 velocity=115 time=0
note_on channel=7 note=46 velocity=115 time=0
note_on channel=7 note=65 velocity=83 time=0
note_on channel=7 note=70 velocity=105 time=0
note_on channel=7 note=74 velocity=102 time=0
note_on channel=8 note=53 velocity=90 time=0
note_on channel=8 note=58 velocity=123 time=0
note_on channel=9 note=35 velocity=116 time=0
note_on channel=9 note=42 velocity=98 time=0
note_on channel=10 note=46 velocity=113 time=8
note_on channel=6 note=46 velocity=127 time=3
note_on channel=6 note=53 velocity=115 time=0
note_off channel=9 note=35 velocity=0 time=17
note_off channel=9 note=42 velocity=0 time=0
note_off channel=7 note=74 velocity=0 time=35
note_off channel=6 note=53 velocity=0 time=11
note_off channel=7 note=65 velocity=0 time=0
note_off channel=7 note=70 velocity=0 time=1
note_off channel=6 note=46 velocity=0 time=6
note_off channel=8 note=53 velocity=0 time=26
note_off channel=8 note=58 velocity=0 time=6
note_off channel=4 note=63 velocity=0 time=11
note_off channel=4 note=67 velocity=0 time=2
note_off channel=4 note=70 velocity=0 time=0
note_off channel=1 note=34 velocity=0 time=93
note_off channel=10 note=46 velocity=0 time=8
note_on channel=1 note=34 velocity=113 time=13
note_on channel=4 note=63 velocity=116 time=0
note_on channel=4 note=67 velocity=87 time=0
note_on channel=4 note=70 velocity=87 time=0
note_on channel=7 note=65 velocity=63 time=0
note_on channel=7 note=70 velocity=81 time=0
note_on channel=7 note=74 velocity=56 time=0
note_on channel=8 note=53 velocity=67 time=0
note_on channel=8 note=58 velocity=86 time=0
note_on channel=9 note=35 velocity=116 time=0
note_on channel=9 note=42 velocity=98 time=0
note_on channel=10 note=46 velocity=113 time=8
note_on channel=6 note=46 velocity=123 time=3
note_on channel=6 note=53 velocity=120 time=0
note_off channel=9 note=35 velocity=0 time=17
note_off channel=9 note=42 velocity=0 time=0
note_off channel=7 note=74 velocity=0 time=9
note_off channel=7 note=65 velocity=0 time=15
note_off channel=8 note=58 velocity=0 time=1
note_off channel=7 note=70 velocity=0 time=1
note_off channel=6 note=53 velocity=0 time=16
note_off channel=8 note=53 velocity=0 time=2
note_off channel=6 note=46 velocity=0 time=1
note_off channel=4 note=63 velocity=0 time=37
note_off channel=4 note=67 velocity=0 time=1
note_off channel=4 note=70 velocity=0 time=0
note_off channel=1 note=34 velocity=0 time=108
note_off channel=10 note=46 velocity=0 time=8
note_on channel=1 note=34 velocity=118 time=13
note_on channel=4 note=65 velocity=102 time=0
note_on channel=4 note=68 velocity=123 time=0
note_on channel=4 note=72 velocity=123 time=0
note_on channel=7 note=65 velocity=106 time=0
note_on channel=7 note=70 velocity=116 time=0
note_on channel=7 note=74 velocity=115 time=0
note_on channel=8 note=46 velocity=127 time=0
note_on channel=8 note=53 velocity=110 time=0
note_on channel=8 note=58 velocity=127 time=0
note_on channel=9 note=39 velocity=85 time=0
note_on channel=9 note=40 velocity=116 time=0
note_on channel=9 note=42 velocity=98 time=0
note_on channel=9 note=54 velocity=116 time=0
note_on channel=10 note=46 velocity=118 time=8
note_on channel=6 note=46 velocity=127 time=3
note_on channel=6 note=53 velocity=125 time=0
note_off channel=9 note=39 velocity=0 time=17
note_off channel=9 note=40 velocity=0 time=0
note_off channel=9 note=42 velocity=0 time=0
note_off channel=9 note=54 velocity=0 time=0
note_off channel=3 note=82 velocity=0 time=19
note_off channel=7 note=65 velocity=0 time=23
note_off channel=7 note=70 velocity=0 time=0
note_off channel=7 note=74 velocity=0 time=13
note_off channel=6 note=53 velocity=0 time=6
note_off channel=6 note=46 velocity=0 time=28
note_off channel=8 note=53 velocity=0 time=13
note_off channel=8 note=58 velocity=0 time=1
note_off channel=1 note=34 velocity=0 time=88
note_off channel=10 note=46 velocity=0 time=8
note_on channel=1 note=34 velocity=113 time=13
note_on channel=7 note=65 velocity=74 time=0
note_on channel=7 note=70 velocity=93 time=0
note_on channel=7 note=74 velocity=83 time=0
note_on channel=8 note=53 velocity=80 time=0
note_on channel=8 note=58 velocity=116 time=0
note_on channel=9 note=42 velocity=98 time=0
note_on channel=10 note=46 velocity=113 time=8
note_on channel=6 note=46 velocity=111 time=3
note_on channel=6 note=53 velocity=106 time=0
note_off channel=4 note=68 velocity=0 time=17
note_off channel=4 note=72 velocity=0 time=0
note_off channel=9 note=42 velocity=0 time=0
note_off channel=4 note=65 velocity=0 time=20
note_off channel=7 note=65 velocity=0 time=18
note_off channel=7 note=70 velocity=0 time=2
note_off channel=6 note=53 velocity=0 time=8
note_off channel=7 note=74 velocity=0 time=0
note_off channel=6 note=46 velocity=0 time=4
note_off channel=8 note=53 velocity=0 time=9
note_off channel=8 note=58 velocity=0 time=8
note_on channel=4 note=63 velocity=123 time=23
note_on channel=4 note=67 velocity=115 time=0
note_on channel=4 note=70 velocity=115 time=0
note_off channel=1 note=34 velocity=0 time=99
note_off channel=4 note=63 velocity=0 time=0
note_off channel=4 note=67 velocity=0 time=1
note_off channel=4 note=70 velocity=0 time=0
note_off channel=10 note=46 velocity=0 time=7
note_on channel=1 note=34 velocity=113 time=13
note_on channel=7 note=65 velocity=90 time=0
note_on channel=7 note=70 velocity=101 time=0
note_on channel=7 note=74 velocity=98 time=0
note_on channel=8 note=53 velocity=90 time=0
note_on channel=8 note=58 velocity=123 time=0
note_on channel=9 note=35 velocity=116 time=0
note_on channel=9 note=42 velocity=98 time=0
note_on channel=10 note=46 velocity=113 time=8
note_on channel=6 note=46 velocity=127 time=3
note_on channel=6 note=53 velocity=120 time=0
note_off channel=9 note=35 velocity=0 time=17
note_off channel=9 note=42 velocity=0 time=0
note_off channel=7 note=65 velocity=0 time=38
note_off channel=7 note=70 velocity=0 time=3
note_off channel=7 note=74 velocity=0 time=15
note_off channel=6 note=53 velocity=0 time=3
note_off channel=6 note=46 velocity=0 time=6
note_off channel=8 note=53 velocity=0 time=4
note_off channel=8 note=58 velocity=0 time=12
note_off channel=1 note=34 velocity=0 time=110
note_off channel=10 note=46 velocity=0 time=8
note_on channel=3 note=79 velocity=120 time=0
note_on channel=1 note=34 velocity=118 time=4
note_on channel=7 note=65 velocity=74 time=0
note_on channel=7 note=70 velocity=89 time=0
note_on channel=7 note=74 velocity=90 time=0
note_on channel=8 note=53 velocity=63 time=0
note_on channel=8 note=58 velocity=97 time=0
note_on channel=9 note=35 velocity=116 time=0
note_on channel=9 note=46 velocity=98 time=0
note_off channel=8 note=46 velocity=0 time=1
note_on channel=10 note=46 velocity=118 time=7
note_on channel=6 note=46 velocity=116 time=3
note_on channel=6 note=53 velocity=110 time=0
note_off channel=9 note=35 velocity=0 time=17
note_off channel=9 note=46 velocity=0 time=0
note_off channel=8 note=58 velocity=0 time=17
note_off channel=8 note=53 velocity=0 time=6
note_off channel=7 note=70 velocity=0 time=7
note_off channel=7 note=65 velocity=0 time=2
note_off channel=7 note=74 velocity=0 time=12
note_off channel=6 note=53 velocity=0 time=4
note_off channel=6 note=46 velocity=0 time=4
note_off channel=3 note=79 velocity=0 time=87
note_off channel=1 note=34 velocity=0 time=52
note_on channel=3 note=79 velocity=120 time=0
note_off channel=10 note=46 velocity=0 time=6
note_on channel=1 note=34 velocity=113 time=13
note_on channel=7 note=65 velocity=98 time=0
note_on channel=7 note=70 velocity=111 time=0
note_on channel=7 note=74 velocity=106 time=0
note_on channel=8 note=46 velocity=123 time=0
note_on channel=8 note=53 velocity=102 time=0
note_on channel=8 note=58 velocity=127 time=0
note_on channel=9 note=39 velocity=85 time=0
note_on channel=9 note=40 velocity=116 time=0
note_on channel=9 note=42 velocity=98 time=0
note_on channel=9 note=54 velocity=116 time=0
note_on channel=10 note=46 velocity=113 time=8
note_on channel=6 note=46 velocity=127 time=3
note_on channel=6 note=53 velocity=120 time=0
note_off channel=9 note=39 velocity=0 time=17
note_off channel=9 note=40 velocity=0 time=0
note_off channel=9 note=42 velocity=0 time=0
note_off channel=9 note=54 velocity=0 time=0
note_off channel=7 note=65 velocity=0 time=34
note_off channel=7 note=70 velocity=0 time=3
note_off channel=7 note=74 velocity=0 time=7
note_off channel=6 note=53 velocity=0 time=11
note_off channel=6 note=46 velocity=0 time=7
note_off channel=8 note=53 velocity=0 time=13
note_off channel=8 note=58 velocity=0 time=14
note_off channel=3 note=79 velocity=0 time=62
note_off channel=1 note=34 velocity=0 time=40
note_off channel=10 note=46 velocity=0 time=8
note_on channel=1 note=34 velocity=118 time=0
note_on channel=3 note=80 velocity=123 time=0
note_on channel=7 note=65 velocity=98 time=0
note_on channel=7 note=70 velocity=105 time=0
note_on channel=7 note=74 velocity=106 time=0
note_on channel=8 note=53 velocity=98 time=0
note_on channel=8 note=58 velocity=111 time=0
note_on channel=9 note=42 velocity=98 time=0
note_on channel=10 note=46 velocity=118 time=8
note_on channel=6 note=46 velocity=123 time=3
note_on channel=6 note=53 velocity=115 time=0
note_off channel=9 note=42 velocity=0 time=17
note_off channel=7 note=65 velocity=0 time=28
note_off channel=7 note=70 velocity=0 time=3
note_off channel=8 note=58 velocity=0 time=4
note_off channel=7 note=74 velocity=0 time=9
note_off channel=6 note=46 velocity=0 time=10
note_off channel=6 note=53 velocity=0 time=9
note_off channel=8 note=53 velocity=0 time=2
note_off channel=7 note=34 velocity=0 time=118
note_off channel=7 note=46 velocity=0 time=0
note_off channel=1 note=34 velocity=0 time=8
note_off channel=10 note=46 velocity=0 time=8
note_off channel=8 note=46 velocity=0 time=6
note_on channel=1 note=32 velocity=113 time=7
note_on channel=4 note=63 velocity=116 time=0
note_on channel=4 note=67 velocity=102 time=0
note_on channel=4 note=70 velocity=102 time=0
note_on channel=7 note=32 velocity=115 time=0
note_on channel=7 note=44 velocity=115 time=0
note_on channel=7 note=60 velocity=125 time=0
note_on channel=7 note=63 velocity=116 time=0
note_on channel=7 note=67 velocity=115 time=0
note_on channel=8 note=51 velocity=127 time=0
note_on channel=8 note=56 velocity=123 time=0
note_on channel=9 note=35 velocity=116 time=0
note_on channel=9 note=42 velocity=98 time=0
note_on channel=10 note=44 velocity=113 time=8
note_on channel=6 note=44 velocity=116 time=3
note_on channel=6 note=51 velocity=127 time=0
note_off channel=9 note=35 velocity=0 time=17
note_off channel=9 note=42 velocity=0 time=0
note_off channel=7 note=63 velocity=0 time=29
note_off channel=7 note=60 velocity=0 time=3
note_off channel=7 note=67 velocity=0 time=9
note_off channel=6 note=51 velocity=0 time=3
note_off channel=6 note=44 velocity=0 time=42
note_off channel=4 note=63 velocity=0 time=10
note_off channel=8 note=51 velocity=0 time=1
note_off channel=4 note=67 velocity=0 time=1
note_off channel=4 note=70 velocity=0 time=0
note_off channel=3 note=80 velocity=0 time=8
note_off channel=8 note=56 velocity=0 time=19
note_off channel=1 note=32 velocity=0 time=66
note_off channel=10 note=44 velocity=0 time=8
note_on channel=1 note=32 velocity=113 time=13
note_on channel=4 note=63 velocity=116 time=0
note_on channel=4 note=67 velocity=87 time=0
note_on channel=4 note=70 velocity=87 time=0
note_on channel=7 note=60 velocity=110 time=0
note_on channel=7 note=63 velocity=105 time=0
note_on channel=7 note=67 velocity=102 time=0
note_on channel=8 note=51 velocity=101 time=0
note_on channel=8 note=56 velocity=86 time=0
note_on channel=9 note=35 velocity=116 time=0
note_on channel=9 note=42 velocity=98 time=0
note_on channel=10 note=44 velocity=113 time=8
note_on channel=3 note=80 velocity=123 time=0
note_on channel=6 note=44 velocity=116 time=2
note_on channel=6 note=51 velocity=116 time=0
note_off channel=9 note=35 velocity=0 time=17
note_off channel=9 note=42 velocity=0 time=0
note_off channel=7 note=60 velocity=0 time=14
note_off channel=7 note=63 velocity=0 time=4
note_off channel=8 note=56 velocity=0 time=0
note_off channel=7 note=67 velocity=0 time=5
note_off channel=6 note=51 velocity=0 time=5
note_off channel=8 note=51 velocity=0 time=0
note_off channel=6 note=44 velocity=0 time=23
note_off channel=4 note=63 velocity=0 time=31
note_off channel=4 note=67 velocity=0 time=1
note_off channel=4 note=70 velocity=0 time=0
note_off channel=3 note=80 velocity=0 time=19
note_off channel=1 note=32 velocity=0 time=89
note_off channel=10 note=44 velocity=0 time=8
note_on channel=1 note=32 velocity=118 time=13
note_on channel=4 note=65 velocity=102 time=0
note_on channel=4 note=68 velocity=123 time=0
note_on channel=4 note=72 velocity=123 time=0
note_on channel=7 note=60 velocity=127 time=0
note_on channel=7 note=63 velocity=123 time=0
note_on channel=7 note=67 velocity=125 time=0
note_on channel=8 note=44 velocity=123 time=0
note_on channel=8 note=51 velocity=127 time=0
note_on channel=8 note=54 velocity=123 time=0
note_on channel=8 note=56 velocity=127 time=0
note_on channel=9 note=39 velocity=85 time=0
note_on channel=9 note=40 velocity=116 time=0
note_on channel=9 note=42 velocity=98 time=0
note_on channel=9 note=54 velocity=116 time=0
note_on channel=10 note=44 velocity=118 time=8
note_on channel=6 note=44 velocity=127 time=3
note_on channel=6 note=51 velocity=127 time=0
note_off channel=8 note=54 velocity=0 time=4
note_off channel=9 note=39 velocity=0 time=13
note_off channel=9 note=40 velocity=0 time=0
note_off channel=9 note=42 velocity=0 time=0
note_off channel=9 note=54 velocity=0 time=0
note_off channel=7 note=60 velocity=0 time=30
note_off channel=7 note=63 velocity=0 time=2
note_off channel=6 note=51 velocity=0 time=13
note_off channel=7 note=67 velocity=0 time=2
note_off channel=8 note=51 velocity=0 time=12
note_off channel=6 note=44 velocity=0 time=20
note_off channel=8 note=56 velocity=0 time=5
note_off channel=1 note=32 velocity=0 time=107
note_off channel=10 note=44 velocity=0 time=8
note_on channel=1 note=32 velocity=113 time=13
note_on channel=7 note=60 velocity=125 time=0
note_on channel=7 note=63 velocity=111 time=0
note_on channel=7 note=67 velocity=102 time=0
note_on channel=8 note=51 velocity=111 time=0
note_on channel=8 note=56 velocity=101 time=0
note_on channel=9 note=42 velocity=98 time=0
note_on channel=10 note=44 velocity=113 time=8
note_on channel=6 note=44 velocity=116 time=3
note_on channel=6 note=51 velocity=116 time=0
note_off channel=4 note=68 velocity=0 time=17
note_off channel=4 note=72 velocity=0 time=0
note_off channel=9 note=42 velocity=0 time=0
note_off channel=4 note=65 velocity=0 time=20
note_off channel=7 note=60 velocity=0 time=5
note_off channel=7 note=63 velocity=0 time=0
note_off channel=7 note=67 velocity=0 time=8
note_off channel=6 note=51 velocity=0 time=6
note_off channel=8 note=51 velocity=0 time=8
note_off channel=8 note=56 velocity=0 time=2
note_off channel=6 note=44 velocity=0 time=16
note_on channel=4 note=63 velocity=123 time=27
note_on channel=4 note=67 velocity=115 time=0
note_on channel=4 note=70 velocity=115 time=0
note_off channel=1 note=32 velocity=0 time=99
note_off channel=4 note=63 velocity=0 time=0
note_off channel=4 note=67 velocity=0 time=1
note_off channel=4 note=70 velocity=0 time=0
note_off channel=10 note=44 velocity=0 time=7
note_on channel=1 note=32 velocity=113 time=13
note_on channel=7 note=60 velocity=120 time=0
note_on channel=7 note=63 velocity=116 time=0
note_on channel=7 note=67 velocity=110 time=0
note_on channel=8 note=51 velocity=123 time=0
note_on channel=8 note=54 velocity=86 time=0
note_on channel=8 note=56 velocity=116 time=0
note_on channel=9 note=35 velocity=116 time=0
note_on channel=9 note=42 velocity=98 time=0
note_off channel=8 note=54 velocity=0 time=6
note_on channel=10 note=44 velocity=113 time=2
note_on channel=6 note=44 velocity=123 time=3
note_on channel=6 note=51 velocity=127 time=0
note_off channel=9 note=35 velocity=0 time=17
note_off channel=9 note=42 velocity=0 time=0
note_off channel=7 note=60 velocity=0 time=26
note_off channel=7 note=63 velocity=0 time=7
note_off channel=7 note=67 velocity=0 time=8
note_off channel=8 note=51 velocity=0 time=4
note_off channel=6 note=51 velocity=0 time=3
note_off channel=8 note=56 velocity=0 time=12
note_off channel=6 note=44 velocity=0 time=13
note_off channel=1 note=32 velocity=0 time=118
note_off channel=10 note=44 velocity=0 time=0
note_on channel=3 note=79 velocity=125 time=0
note_on channel=1 note=32 velocity=118 time=13
note_on channel=7 note=60 velocity=115 time=0
note_on channel=7 note=63 velocity=111 time=0
note_on channel=7 note=67 velocity=106 time=0
note_on channel=8 note=51 velocity=101 time=0
note_on channel=8 note=56 velocity=75 time=0
note_on channel=9 note=35 velocity=116 time=0
note_on channel=9 note=42 velocity=98 time=0
note_on channel=10 note=44 velocity=118 time=8
note_on channel=6 note=44 velocity=123 time=3
note_on channel=6 note=51 velocity=123 time=0
note_off channel=9 note=35 velocity=0 time=17
note_off channel=9 note=42 velocity=0 time=0
note_off channel=8 note=56 velocity=0 time=6
note_off channel=8 note=51 velocity=0 time=5
note_off channel=7 note=60 velocity=0 time=17
note_off channel=7 note=63 velocity=0 time=5
note_off channel=6 note=51 velocity=0 time=6
note_off channel=7 note=67 velocity=0 time=7
note_off channel=6 note=44 velocity=0 time=9
note_off channel=3 note=79 velocity=0 time=98
note_off channel=1 note=32 velocity=0 time=38
note_off channel=10 note=44 velocity=0 time=8
note_on channel=3 note=79 velocity=115 time=0
note_on channel=1 note=32 velocity=113 time=4
note_on channel=7 note=60 velocity=120 time=0
note_on channel=7 note=63 velocity=116 time=0
note_on channel=7 note=67 velocity=90 time=0
note_on channel=8 note=51 velocity=127 time=0
note_on channel=8 note=56 velocity=127 time=0
note_on channel=9 note=39 velocity=85 time=0
note_on channel=9 note=40 velocity=116 time=0
note_on channel=9 note=42 velocity=98 time=0
note_on channel=9 note=54 velocity=116 time=0
note_on channel=10 note=44 velocity=113 time=8
note_on channel=6 note=44 velocity=127 time=3
note_on channel=6 note=51 velocity=127 time=0
note_off channel=9 note=39 velocity=0 time=17
note_off channel=9 note=40 velocity=0 time=0
note_off channel=9 note=42 velocity=0 time=0
note_off channel=9 note=54 velocity=0 time=0
note_off channel=7 note=60 velocity=0 time=27
note_off channel=7 note=63 velocity=0 time=5
note_off channel=7 note=67 velocity=0 time=10
note_off channel=6 note=51 velocity=0 time=5
note_off channel=8 note=51 velocity=0 time=15
note_off channel=6 note=44 velocity=0 time=1
note_off channel=3 note=79 velocity=0 time=1
note_off channel=8 note=56 velocity=0 time=12
note_off channel=1 note=32 velocity=0 time=115
note_off channel=10 note=44 velocity=0 time=8
note_off channel=8 note=44 velocity=0 time=9
note_on channel=3 note=80 velocity=116 time=0
note_on channel=1 note=32 velocity=118 time=2
note_on channel=7 note=60 velocity=120 time=0
note_on channel=7 note=63 velocity=116 time=0
note_on channel=7 note=67 velocity=110 time=0
note_on channel=8 note=51 velocity=116 time=0
note_on channel=8 note=56 velocity=111 time=0
note_on channel=9 note=42 velocity=98 time=0
note_on channel=10 note=44 velocity=118 time=8
note_on channel=6 note=44 velocity=123 time=3
note_on channel=6 note=51 velocity=123 time=0
note_off channel=9 note=42 velocity=0 time=17
note_off channel=8 note=51 velocity=0 time=23
note_off channel=7 note=60 velocity=0 time=4
note_off channel=7 note=63 velocity=0 time=7
note_off channel=6 note=51 velocity=0 time=7
note_off channel=7 note=67 velocity=0 time=0
note_off channel=8 note=56 velocity=0 time=0
note_off channel=6 note=44 velocity=0 time=7
note_off channel=3 note=80 velocity=0 time=113
note_off channel=7 note=32 velocity=0 time=22
note_off channel=7 note=44 velocity=0 time=0
note_on channel=3 note=79 velocity=110 time=6
note_off channel=1 note=32 velocity=0 time=2
note_off channel=10 note=44 velocity=0 time=8
note_on channel=1 note=32 velocity=113 time=13
note_on channel=4 note=63 velocity=116 time=0
note_on channel=4 note=67 velocity=102 time=0
note_on channel=4 note=70 velocity=102 time=0
note_on channel=7 note=32 velocity=115 time=0
note_on channel=7 note=44 velocity=115 time=0
note_on channel=7 note=60 velocity=125 time=0
note_on channel=7 note=63 velocity=111 time=0
note_on channel=7 note=67 velocity=110 time=0
note_on channel=8 note=44 velocity=116 time=0
note_on channel=8 note=51 velocity=127 time=0
note_on channel=8 note=54 velocity=116 time=0
note_on channel=8 note=56 velocity=127 time=0
note_on channel=9 note=35 velocity=116 time=0
note_on channel=9 note=42 velocity=98 time=0
note_on channel=10 note=44 velocity=113 time=8
note_off channel=8 note=54 velocity=0 time=1
note_on channel=6 note=44 velocity=123 time=2
note_on channel=6 note=51 velocity=127 time=0
note_off channel=9 note=35 velocity=0 time=17
note_off channel=9 note=42 velocity=0 time=0
note_off channel=7 note=60 velocity=0 time=26
note_off channel=7 note=63 velocity=0 time=2
note_off channel=7 note=67 velocity=0 time=10
note_off channel=8 note=51 velocity=0 time=8
note_off channel=6 note=51 velocity=0 time=3
note_off channel=8 note=56 velocity=0 time=17
note_off channel=6 note=44 velocity=0 time=4
note_off channel=4 note=63 velocity=0 time=26
note_off channel=4 note=67 velocity=0 time=2
note_off channel=4 note=70 velocity=0 time=0
note_off channel=3 note=79 velocity=0 time=79
note_off channel=1 note=32 velocity=0 time=14
note_off channel=10 note=44 velocity=0 time=8
note_on channel=3 note=77 velocity=87 time=12
note_on channel=1 note=32 velocity=113 time=1
note_on channel=4 note=63 velocity=116 time=0
note_on channel=4 note=67 velocity=87 time=0
note_on channel=4 note=70 velocity=87 time=0
note_on channel=7 note=60 velocity=106 time=0
note_on channel=7 note=63 velocity=101 time=0
note_on channel=7 note=67 velocity=95 time=0
note_on channel=8 note=51 velocity=123 time=0
note_on channel=8 note=54 velocity=89 time=0
note_on channel=8 note=56 velocity=116 time=0
note_on channel=9 note=35 velocity=116 time=0
note_on channel=9 note=42 velocity=98 time=0
note_off channel=8 note=54 velocity=0 time=4
note_on channel=10 note=44 velocity=113 time=4
note_on channel=6 note=44 velocity=123 time=3
note_on channel=6 note=51 velocity=127 time=0
note_off channel=9 note=35 velocity=0 time=17
note_off channel=9 note=42 velocity=0 time=0
note_off channel=8 note=51 velocity=0 time=22
note_off channel=8 note=56 velocity=0 time=2
note_off channel=7 note=60 velocity=0 time=4
note_off channel=7 note=63 velocity=0 time=6
note_off channel=7 note=67 velocity=0 time=5
note_off channel=6 note=51 velocity=0 time=3
note_off channel=6 note=44 velocity=0 time=22
note_off channel=4 note=63 velocity=0 time=18
note_off channel=4 note=67 velocity=0 time=1
note_off channel=4 note=70 velocity=0 time=0
note_off channel=1 note=32 velocity=0 time=108
note_off channel=10 note=44 velocity=0 time=8
note_on channel=1 note=32 velocity=118 time=13
note_on channel=4 note=65 velocity=102 time=0
note_on channel=4 note=68 velocity=123 time=0
note_on channel=4 note=72 velocity=123 time=0
note_on channel=7 note=60 velocity=125 time=0
note_on channel=7 note=63 velocity=116 time=0
note_on channel=7 note=67 velocity=110 time=0
note_on channel=8 note=51 velocity=127 time=0
note_on channel=8 note=54 velocity=97 time=0
note_on channel=8 note=56 velocity=127 time=0
note_on channel=9 note=39 velocity=85 time=0
note_on channel=9 note=40 velocity=116 time=0
note_on channel=9 note=42 velocity=98 time=0
note_on channel=9 note=54 velocity=116 time=0
note_off channel=8 note=54 velocity=0 time=4
note_off channel=3 note=77 velocity=0 time=4
note_on channel=10 note=44 velocity=118 time=0
note_on channel=3 note=75 velocity=116 time=0
note_on channel=6 note=44 velocity=127 time=0
note_on channel=6 note=51 velocity=127 time=0
note_off channel=9 note=39 velocity=0 time=17
note_off channel=9 note=40 velocity=0 time=0
note_off channel=9 note=42 velocity=0 time=0
note_off channel=9 note=54 velocity=0 time=0
note_off channel=7 note=60 velocity=0 time=28
note_off channel=7 note=63 velocity=0 time=6
note_off channel=7 note=67 velocity=0 time=10
note_off channel=6 note=51 velocity=0 time=7
note_off channel=8 note=51 velocity=0 time=3
note_off channel=6 note=44 velocity=0 time=12
note_off channel=8 note=56 velocity=0 time=8
note_off channel=1 note=32 velocity=0 time=117
note_off channel=10 note=44 velocity=0 time=8
note_on channel=1 note=32 velocity=113 time=13
note_on channel=7 note=60 velocity=115 time=0
note_on channel=7 note=63 velocity=111 time=0
note_on channel=7 note=67 velocity=110 time=0
note_on channel=8 note=51 velocity=116 time=0
note_on channel=8 note=54 velocity=101 time=0
note_on channel=8 note=56 velocity=123 time=0
note_on channel=9 note=42 velocity=98 time=0
note_off channel=8 note=54 velocity=0 time=6
note_on channel=10 note=44 velocity=113 time=2
note_on channel=6 note=44 velocity=123 time=3
note_on channel=6 note=51 velocity=127 time=0
note_off channel=4 note=68 velocity=0 time=17
note_off channel=4 note=72 velocity=0 time=0
note_off channel=9 note=42 velocity=0 time=0
note_off channel=4 note=65 velocity=0 time=20
note_off channel=7 note=60 velocity=0 time=10
note_off channel=7 note=63 velocity=0 time=3
note_off channel=8 note=51 velocity=0 time=1
note_off channel=6 note=51 velocity=0 time=12
note_off channel=7 note=67 velocity=0 time=3
note_off channel=8 note=56 velocity=0 time=0
note_off channel=6 note=44 velocity=0 time=24
note_on channel=4 note=63 velocity=123 time=19
note_on channel=4 note=67 velocity=115 time=0
note_on channel=4 note=70 velocity=115 time=0
note_off channel=8 note=44 velocity=0 time=36
note_off channel=7 note=32 velocity=0 time=55
note_off channel=7 note=44 velocity=0 time=0
note_off channel=1 note=32 velocity=0 time=8
note_off channel=4 note=63 velocity=0 time=0
note_off channel=4 note=67 velocity=0 time=1
note_off channel=4 note=70 velocity=0 time=0
note_off channel=10 note=44 velocity=0 time=7
note_on channel=1 note=34 velocity=113 time=13
note_on channel=7 note=34 velocity=115 time=0
note_on channel=7 note=46 velocity=115 time=0
note_on channel=7 note=62 velocity=98 time=0
note_on channel=7 note=65 velocity=90 time=0
note_on channel=7 note=70 velocity=101 time=0
note_on channel=8 note=53 velocity=102 time=0
note_on channel=8 note=58 velocity=123 time=0
note_on channel=9 note=35 velocity=116 time=0
note_on channel=9 note=42 velocity=98 time=0
note_on channel=10 note=46 velocity=113 time=8
note_on channel=6 note=46 velocity=127 time=3
note_on channel=6 note=53 velocity=115 time=0
note_off channel=9 note=35 velocity=0 time=17
note_off channel=9 note=42 velocity=0 time=0
note_off channel=7 note=65 velocity=0 time=38
note_off channel=7 note=70 velocity=0 time=3
note_off channel=8 note=53 velocity=0 time=8
note_off channel=6 note=53 velocity=0 time=2
note_off channel=6 note=46 velocity=0 time=3
note_off channel=7 note=62 velocity=0 time=2
note_off channel=8 note=58 velocity=0 time=4
note_off channel=1 note=34 velocity=0 time=131
note_off channel=10 note=46 velocity=0 time=8
note_on channel=1 note=34 velocity=118 time=13
note_on channel=7 note=62 velocity=90 time=0
note_on channel=7 note=65 velocity=74 time=0
note_on channel=7 note=70 velocity=89 time=0
note_on channel=8 note=53 velocity=110 time=0
note_on channel=8 note=58 velocity=127 time=0
note_on channel=9 note=35 velocity=116 time=0
note_on channel=9 note=46 velocity=98 time=0
note_on channel=10 note=46 velocity=118 time=8
note_on channel=6 note=46 velocity=127 time=3
note_on channel=6 note=53 velocity=115 time=0
note_off channel=3 note=75 velocity=0 time=6
note_off channel=9 note=35 velocity=0 time=11
note_off channel=9 note=46 velocity=0 time=0
note_off channel=7 note=70 velocity=0 time=30
note_off channel=7 note=65 velocity=0 time=2
note_off channel=8 note=53 velocity=0 time=7
note_off channel=7 note=62 velocity=0 time=5
note_off channel=6 note=53 velocity=0 time=2
note_off channel=8 note=58 velocity=0 time=1
note_off channel=6 note=46 velocity=0 time=8
note_off channel=1 note=34 velocity=0 time=136
note_off channel=10 note=46 velocity=0 time=8
note_on channel=1 note=34 velocity=113 time=13
note_on channel=7 note=62 velocity=106 time=0
note_on channel=7 note=65 velocity=98 time=0
note_on channel=7 note=70 velocity=111 time=0
note_on channel=8 note=53 velocity=110 time=0
note_on channel=8 note=58 velocity=127 time=0
note_on channel=9 note=39 velocity=85 time=0
note_on channel=9 note=40 velocity=116 time=0
note_on channel=9 note=42 velocity=98 time=0
note_on channel=9 note=54 velocity=116 time=0
note_on channel=10 note=46 velocity=113 time=8
note_on channel=6 note=46 velocity=123 time=3
note_on channel=6 note=53 velocity=110 time=0
note_off channel=9 note=39 velocity=0 time=17
note_off channel=9 note=40 velocity=0 time=0
note_off channel=9 note=42 velocity=0 time=0
note_off channel=9 note=54 velocity=0 time=0
note_off channel=7 note=65 velocity=0 time=34
note_off channel=7 note=70 velocity=0 time=3
note_off channel=7 note=62 velocity=0 time=7
note_off channel=6 note=53 velocity=0 time=5
note_off channel=8 note=53 velocity=0 time=4
note_off channel=6 note=46 velocity=0 time=3
note_off channel=8 note=58 velocity=0 time=5
note_on channel=9 note=40 velocity=116 time=31
note_off channel=9 note=40 velocity=0 time=28
note_off channel=1 note=34 velocity=0 time=71
note_off channel=10 note=46 velocity=0 time=8
note_on channel=1 note=34 velocity=118 time=13
note_on channel=7 note=62 velocity=106 time=0
note_on channel=7 note=65 velocity=98 time=0
note_on channel=7 note=70 velocity=105 time=0
note_on channel=8 note=53 velocity=115 time=0
note_on channel=8 note=58 velocity=123 time=0
note_on channel=9 note=40 velocity=116 time=0
note_on channel=9 note=42 velocity=98 time=0
note_on channel=10 note=46 velocity=118 time=8
note_on channel=6 note=46 velocity=127 time=3
note_on channel=6 note=53 velocity=125 time=0
note_off channel=9 note=40 velocity=0 time=17
note_off channel=9 note=42 velocity=0 time=0
note_off channel=7 note=65 velocity=0 time=28
note_off channel=7 note=70 velocity=0 time=3
note_off channel=6 note=53 velocity=0 time=13
note_off channel=7 note=62 velocity=0 time=0
note_off channel=6 note=46 velocity=0 time=10
note_off channel=8 note=53 velocity=0 time=3
note_off channel=8 note=58 velocity=0 time=3
note_on channel=9 note=40 velocity=116 time=32
note_off channel=9 note=40 velocity=0 time=28
note_off channel=7 note=34 velocity=0 time=63
note_off channel=7 note=46 velocity=0 time=0
note_off channel=1 note=34 velocity=0 time=8
note_off channel=10 note=46 velocity=0 time=8
note_on channel=3 note=77 velocity=115 time=0
note_on channel=1 note=36 velocity=61 time=1
note_on channel=7 note=36 velocity=115 time=0
note_on channel=7 note=48 velocity=115 time=0
note_on channel=8 note=48 velocity=98 time=0
note_on channel=9 note=35 velocity=95 time=0
note_on channel=9 note=40 velocity=98 time=0
note_on channel=9 note=43 velocity=106 time=0
note_on channel=10 note=48 velocity=58 time=0
note_on channel=8 note=55 velocity=100 time=11
note_on channel=10 note=55 velocity=60 time=0
note_off channel=8 note=48 velocity=0 time=31
note_off channel=10 note=48 velocity=0 time=0
pitchwheel channel=3 pitch=520 time=13
note_off channel=8 note=55 velocity=0 time=3
note_off channel=10 note=55 velocity=0 time=0
pitchwheel channel=3 pitch=910 time=12
pitchwheel channel=3 pitch=1170 time=10
pitchwheel channel=3 pitch=1560 time=11
pitchwheel channel=3 pitch=1950 time=14
note_off channel=9 note=43 velocity=0 time=10
pitchwheel channel=3 pitch=2340 time=2
note_off channel=9 note=40 velocity=0 time=13
pitchwheel channel=3 pitch=2730 time=0
pitchwheel channel=3 pitch=3250 time=15
note_off channel=9 note=35 velocity=0 time=3
pitchwheel channel=3 pitch=3640 time=14
pitchwheel channel=3 pitch=4030 time=17
pitchwheel channel=3 pitch=4290 time=12
pitchwheel channel=3 pitch=4420 time=11
note_off channel=1 note=36 velocity=0 time=17
pitchwheel channel=3 pitch=4680 time=2
pitchwheel channel=3 pitch=4810 time=13
note_on channel=1 note=36 velocity=78 time=6
note_on channel=8 note=48 velocity=115 time=0
note_on channel=9 note=40 velocity=49 time=0
note_on channel=9 note=43 velocity=49 time=0
note_on channel=10 note=48 velocity=75 time=0
pitchwheel channel=3 pitch=5070 time=6
note_on channel=8 note=55 velocity=100 time=5
note_on channel=10 note=55 velocity=60 time=0
pitchwheel channel=3 pitch=5460 time=14
pitchwheel channel=3 pitch=5850 time=15
note_off channel=8 note=48 velocity=0 time=5
note_off channel=10 note=48 velocity=0 time=0
note_off channel=8 note=55 velocity=0 time=5
note_off channel=10 note=55 velocity=0 time=0
pitchwheel channel=3 pitch=6370 time=5
pitchwheel channel=3 pitch=6500 time=11
pitchwheel channel=3 pitch=6760 time=11
note_off channel=9 note=43 velocity=0 time=6
pitchwheel channel=3 pitch=6890 time=14
note_off channel=9 note=40 velocity=0 time=16
note_off channel=3 note=77 velocity=0 time=62
pitchwheel channel=3 pitch=6630 time=12
pitchwheel channel=3 pitch=5980 time=12
pitchwheel channel=3 pitch=5070 time=12
note_off channel=1 note=36 velocity=0 time=8
pitchwheel channel=3 pitch=4160 time=4
pitchwheel channel=3 pitch=3250 time=11
note_on channel=1 note=36 velocity=46 time=6
note_on channel=8 note=48 velocity=83 time=0
note_on channel=9 note=35 velocity=95 time=0
note_on channel=9 note=40 velocity=95 time=0
note_on channel=9 note=43 velocity=106 time=0
note_on channel=10 note=48 velocity=43 time=0
pitchwheel channel=3 pitch=2340 time=4
note_on channel=8 note=55 velocity=87 time=7
note_on channel=10 note=55 velocity=47 time=0
note_on channel=3 note=77 velocity=115 time=0
pitchwheel channel=3 pitch=1560 time=3
pitchwheel channel=3 pitch=1170 time=12
note_off channel=8 note=48 velocity=0 time=3
note_off channel=10 note=48 velocity=0 time=0
note_off channel=8 note=55 velocity=0 time=12
note_off channel=10 note=55 velocity=0 time=0
pitchwheel channel=3 pitch=1560 time=43
pitchwheel channel=3 pitch=1950 time=12
pitchwheel channel=3 pitch=2470 time=14
pitchwheel channel=3 pitch=2860 time=10
pitchwheel channel=3 pitch=3250 time=10
note_off channel=9 note=43 velocity=0 time=7
pitchwheel channel=3 pitch=3640 time=3
note_off channel=9 note=35 velocity=0 time=4
note_off channel=9 note=40 velocity=0 time=0
pitchwheel channel=3 pitch=4290 time=8
pitchwheel channel=3 pitch=4940 time=11
pitchwheel channel=3 pitch=5330 time=11
pitchwheel channel=3 pitch=5980 time=13
pitchwheel channel=3 pitch=6370 time=15
note_off channel=1 note=36 velocity=0 time=13
pitchwheel channel=3 pitch=6630 time=1
pitchwheel channel=3 pitch=6760 time=15
note_on channel=1 note=36 velocity=65 time=5
note_on channel=8 note=48 velocity=102 time=0
note_on channel=9 note=40 velocity=49 time=0
note_on channel=9 note=43 velocity=49 time=0
note_on channel=10 note=48 velocity=62 time=0
pitchwheel channel=3 pitch=7020 time=10
note_on channel=8 note=55 velocity=87 time=1
note_on channel=10 note=55 velocity=47 time=0
pitchwheel channel=3 pitch=7280 time=24
note_off channel=8 note=48 velocity=0 time=5
note_off channel=10 note=48 velocity=0 time=0
note_off channel=8 note=55 velocity=0 time=12
note_off channel=10 note=55 velocity=0 time=0
note_off channel=9 note=43 velocity=0 time=31
pitchwheel channel=3 pitch=7410 time=4
note_off channel=9 note=40 velocity=0 time=26
pitchwheel channel=3 pitch=7670 time=18
pitchwheel channel=3 pitch=7800 time=17
pitchwheel channel=3 pitch=8060 time=21
note_off channel=1 note=36 velocity=0 time=50
note_on channel=1 note=36 velocity=50 time=21
note_on channel=8 note=48 velocity=87 time=0
note_on channel=9 note=35 velocity=95 time=0
note_on channel=9 note=40 velocity=98 time=0
note_on channel=9 note=43 velocity=102 time=0
note_on channel=10 note=48 velocity=47 time=0
pitchwheel channel=3 pitch=7020 time=2
note_on channel=8 note=55 velocity=75 time=9
note_on channel=10 note=55 velocity=35 time=0
pitchwheel channel=3 pitch=5200 time=2
pitchwheel channel=3 pitch=2600 time=10
pitchwheel channel=3 pitch=260 time=10
note_off channel=8 note=48 velocity=0 time=5
note_off channel=10 note=48 velocity=0 time=0
note_off channel=3 note=77 velocity=0 time=7
note_off channel=8 note=55 velocity=0 time=4
note_off channel=10 note=55 velocity=0 time=0
pitchwheel channel=3 pitch=0 time=1
note_on channel=3 note=77 velocity=97 time=0
note_off channel=9 note=43 velocity=0 time=62
note_off channel=9 note=40 velocity=0 time=22
note_off channel=3 note=77 velocity=0 time=2
note_off channel=9 note=35 velocity=0 time=11
note_on channel=3 note=75 velocity=97 time=23
note_off channel=1 note=36 velocity=0 time=48
note_on channel=1 note=36 velocity=73 time=21
note_on channel=8 note=48 velocity=110 time=0
note_on channel=9 note=40 velocity=49 time=0
note_on channel=9 note=43 velocity=49 time=0
note_on channel=10 note=48 velocity=70 time=0
note_on channel=8 note=55 velocity=87 time=11
note_on channel=10 note=55 velocity=47 time=0
note_off channel=3 note=75 velocity=0 time=6
note_on channel=3 note=72 velocity=120 time=0
note_off channel=8 note=48 velocity=0 time=14
note_off channel=10 note=48 velocity=0 time=0
note_off channel=8 note=55 velocity=0 time=9
note_off channel=10 note=55 velocity=0 time=0
note_off channel=9 note=43 velocity=0 time=29
note_off channel=9 note=40 velocity=0 time=30
note_off channel=1 note=36 velocity=0 time=106
note_on channel=1 note=36 velocity=78 time=21
note_on channel=8 note=48 velocity=115 time=0
note_on channel=9 note=35 velocity=95 time=0
note_on channel=9 note=40 velocity=98 time=0
note_on channel=9 note=43 velocity=106 time=0
note_on channel=10 note=48 velocity=75 time=0
note_on channel=8 note=55 velocity=95 time=11
note_on channel=10 note=55 velocity=55 time=0
note_off channel=8 note=48 velocity=0 time=34
note_off channel=10 note=48 velocity=0 time=0
note_off channel=8 note=55 velocity=0 time=5
note_off channel=10 note=55 velocity=0 time=0
note_off channel=9 note=35 velocity=0 time=98
note_off channel=9 note=43 velocity=0 time=7
note_off channel=9 note=40 velocity=0 time=17
note_off channel=1 note=36 velocity=0 time=47
note_on channel=1 note=36 velocity=78 time=21
note_on channel=8 note=48 velocity=115 time=0
note_on channel=9 note=40 velocity=49 time=0
note_on channel=9 note=43 velocity=49 time=0
note_on channel=10 note=48 velocity=75 time=0
note_on channel=8 note=55 velocity=87 time=11
note_on channel=10 note=55 velocity=47 time=0
note_off channel=8 note=48 velocity=0 time=35
note_off channel=10 note=48 velocity=0 time=0
note_off channel=3 note=72 velocity=0 time=3
note_off channel=8 note=55 velocity=0 time=0
note_off channel=10 note=55 velocity=0 time=0
note_off channel=9 note=43 velocity=0 time=34
note_off channel=9 note=40 velocity=0 time=30
pitchwheel channel=3 pitch=-896 time=75
pitchwheel channel=3 pitch=-2176 time=10
pitchwheel channel=3 pitch=-3712 time=10
pitchwheel channel=3 pitch=-5248 time=10
note_off channel=1 note=36 velocity=0 time=1
pitchwheel channel=3 pitch=-6656 time=12
note_on channel=1 note=36 velocity=65 time=9
note_on channel=8 note=48 velocity=102 time=0
note_on channel=9 note=35 velocity=95 time=0
note_on channel=9 note=40 velocity=98 time=0
note_on channel=9 note=43 velocity=106 time=0
note_on channel=10 note=48 velocity=62 time=0
pitchwheel channel=3 pitch=-7552 time=3
note_on channel=3 note=79 velocity=120 time=0
note_on channel=8 note=55 velocity=80 time=2
note_on channel=10 note=55 velocity=40 time=0
pitchwheel channel=3 pitch=-8064 time=2
pitchwheel channel=3 pitch=-7808 time=30
note_off channel=8 note=55 velocity=0 time=1
note_off channel=10 note=55 velocity=0 time=0
note_off channel=8 note=48 velocity=0 time=1
note_off channel=10 note=48 velocity=0 time=0
pitchwheel channel=3 pitch=-6912 time=8
pitchwheel channel=3 pitch=-5504 time=11
pitchwheel channel=3 pitch=-4096 time=10
pitchwheel channel=3 pitch=-2560 time=10
note_off channel=7 note=36 velocity=0 time=7
note_off channel=7 note=48 velocity=0 time=0
pitchwheel channel=3 pitch=-896 time=6
pitchwheel channel=3 pitch=0 time=10
note_off channel=9 note=43 velocity=0 time=8
note_off channel=9 note=40 velocity=0 time=15
note_off channel=9 note=35 velocity=0 time=18
note_off channel=3 note=79 velocity=0 time=24
pitchwheel channel=3 pitch=-128 time=13
pitchwheel channel=3 pitch=-2176 time=10
pitchwheel channel=3 pitch=-4608 time=10
pitchwheel channel=3 pitch=-6912 time=10
note_off channel=1 note=36 velocity=0 time=4
pitchwheel channel=3 pitch=-8192 time=6
note_on channel=1 note=31 velocity=73 time=15
note_on channel=7 note=31 velocity=115 time=0
note_on channel=7 note=43 velocity=115 time=0
note_on channel=8 note=43 velocity=110 time=0
note_on channel=9 note=40 velocity=49 time=0
note_on channel=9 note=43 velocity=49 time=0
note_on channel=10 note=43 velocity=70 time=0
note_on channel=3 note=79 velocity=102 time=0
note_on channel=8 note=50 velocity=91 time=3
note_on channel=10 note=50 velocity=51 time=0
note_off channel=8 note=43 velocity=0 time=36
note_off channel=10 note=43 velocity=0 time=0
pitchwheel channel=3 pitch=-7040 time=5
note_off channel=8 note=50 velocity=0 time=3
note_off channel=10 note=50 velocity=0 time=0
pitchwheel channel=3 pitch=-5120 time=7
pitchwheel channel=3 pitch=-2688 time=10
pitchwheel channel=3 pitch=0 time=10
note_off channel=9 note=43 velocity=0 time=1
note_off channel=9 note=40 velocity=0 time=30
note_off channel=3 note=79 velocity=0 time=67
note_off channel=1 note=31 velocity=0 time=39
note_on channel=3 note=77 velocity=106 time=0
note_on channel=1 note=31 velocity=73 time=7
note_on channel=8 note=43 velocity=110 time=0
note_on channel=9 note=35 velocity=95 time=0
note_on channel=9 note=40 velocity=95 time=0
note_on channel=9 note=43 velocity=106 time=0
note_on channel=10 note=43 velocity=70 time=0
note_on channel=8 note=50 velocity=91 time=11
note_on channel=10 note=50 velocity=51 time=0
note_off channel=8 note=43 velocity=0 time=33
note_off channel=10 note=43 velocity=0 time=0
note_off channel=8 note=50 velocity=0 time=3
note_off channel=10 note=50 velocity=0 time=0
note_off channel=9 note=43 velocity=0 time=94
note_off channel=9 note=35 velocity=0 time=7
note_off channel=9 note=40 velocity=0 time=0
note_on channel=3 note=75 velocity=123 time=0
note_off channel=1 note=31 velocity=0 time=3
note_off channel=3 note=77 velocity=0 time=13
note_on channel=1 note=31 velocity=78 time=8
note_on channel=8 note=43 velocity=115 time=0
note_on channel=9 note=40 velocity=49 time=0
note_on channel=9 note=43 velocity=49 time=0
note_on channel=10 note=43 velocity=75 time=0
note_on channel=8 note=50 velocity=87 time=11
note_on channel=10 note=50 velocity=47 time=0
note_off channel=8 note=43 velocity=0 time=40
note_off channel=10 note=43 velocity=0 time=0
note_off channel=8 note=50 velocity=0 time=4
note_off channel=10 note=50 velocity=0 time=0
note_off channel=9 note=43 velocity=0 time=28
note_off channel=9 note=40 velocity=0 time=30
note_off channel=3 note=75 velocity=0 time=93
note_off channel=1 note=31 velocity=0 time=13
note_on channel=1 note=31 velocity=65 time=0
note_on channel=3 note=72 velocity=125 time=0
note_on channel=8 note=43 velocity=102 time=0
note_on channel=9 note=35 velocity=95 time=0
note_on channel=9 note=40 velocity=98 time=0
note_on channel=9 note=43 velocity=102 time=0
note_on channel=10 note=43 velocity=62 time=0
note_on channel=8 note=50 velocity=91 time=11
note_on channel=10 note=50 velocity=51 time=0
note_off channel=8 note=43 velocity=0 time=41
note_off channel=10 note=43 velocity=0 time=0
note_off channel=8 note=50 velocity=0 time=7
note_off channel=10 note=50 velocity=0 time=0
note_off channel=9 note=43 velocity=0 time=54
note_off channel=9 note=40 velocity=0 time=22
note_off channel=9 note=35 velocity=0 time=13
note_off channel=1 note=31 velocity=0 time=71
note_on channel=1 note=31 velocity=73 time=21
note_on channel=8 note=43 velocity=110 time=0
note_on channel=9 note=40 velocity=49 time=0
note_on channel=9 note=43 velocity=49 time=0
note_on channel=10 note=43 velocity=70 time=0
note_on channel=8 note=50 velocity=91 time=11
note_on channel=10 note=50 velocity=51 time=0
note_off channel=8 note=43 velocity=0 time=34
note_off channel=10 note=43 velocity=0 time=0
note_off channel=8 note=50 velocity=0 time=16
note_off channel=10 note=50 velocity=0 time=0
note_off channel=9 note=43 velocity=0 time=22
note_off channel=9 note=40 velocity=0 time=30
note_off channel=3 note=72 velocity=0 time=50
note_off channel=1 note=31 velocity=0 time=56
note_on channel=1 note=31 velocity=78 time=21
note_on channel=8 note=43 velocity=115 time=0
note_on channel=9 note=35 velocity=95 time=0
note_on channel=9 note=40 velocity=98 time=0
note_on channel=9 note=43 velocity=106 time=0
note_on channel=10 note=43 velocity=75 time=0
note_on channel=8 note=50 velocity=83 time=11
note_on channel=10 note=50 velocity=43 time=0
note_off channel=8 note=43 velocity=0 time=33
note_off channel=10 note=43 velocity=0 time=0
note_off channel=8 note=50 velocity=0 time=13
note_off channel=10 note=50 velocity=0 time=0
note_off channel=9 note=35 velocity=0 time=91
note_off channel=9 note=43 velocity=0 time=7
note_off channel=9 note=40 velocity=0 time=17
note_off channel=1 note=31 velocity=0 time=47
note_on channel=3 note=72 velocity=123 time=0
note_on channel=1 note=31 velocity=83 time=4
note_on channel=8 note=43 velocity=120 time=0
note_on channel=9 note=40 velocity=49 time=0
note_on channel=9 note=43 velocity=49 time=0
note_on channel=10 note=43 velocity=80 time=0
note_on channel=8 note=50 velocity=105 time=11
note_on channel=10 note=50 velocity=65 time=0
note_off channel=8 note=43 velocity=0 time=36
note_off channel=10 note=43 velocity=0 time=0
note_off channel=3 note=72 velocity=0 time=8
note_off channel=8 note=50 velocity=0 time=10
note_off channel=10 note=50 velocity=0 time=0
note_off channel=9 note=43 velocity=0 time=18
note_off channel=9 note=40 velocity=0 time=30
note_on channel=3 note=72 velocity=101 time=10
note_off channel=1 note=31 velocity=0 time=96
note_off channel=3 note=72 velocity=0 time=12
note_on channel=1 note=31 velocity=83 time=9
note_on channel=8 note=43 velocity=120 time=0
note_on channel=9 note=35 velocity=95 time=0
note_on channel=9 note=40 velocity=98 time=0
note_on channel=9 note=43 velocity=106 time=0
note_on channel=10 note=43 velocity=80 time=0
note_on channel=8 note=50 velocity=105 time=11
note_on channel=10 note=50 velocity=65 time=0
note_on channel=3 note=77 velocity=110 time=0
note_off channel=8 note=43 velocity=0 time=30
note_off channel=10 note=43 velocity=0 time=0
note_off channel=8 note=50 velocity=0 time=18
note_off channel=10 note=50 velocity=0 time=0
note_off channel=7 note=31 velocity=0 time=26
note_off channel=7 note=43 velocity=0 time=0
pitchwheel channel=3 pitch=650 time=20
note_off channel=9 note=43 velocity=0 time=4
pitchwheel channel=3 pitch=1040 time=7
note_off channel=9 note=40 velocity=0 time=8
pitchwheel channel=3 pitch=1430 time=8
note_off channel=9 note=35 velocity=0 time=10
pitchwheel channel=3 pitch=1820 time=3
pitchwheel channel=3 pitch=2340 time=10
pitchwheel channel=3 pitch=2730 time=15
pitchwheel channel=3 pitch=3120 time=15
pitchwheel channel=3 pitch=3380 time=12
pitchwheel channel=3 pitch=3510 time=15
note_off channel=1 note=31 velocity=0 time=1
pitchwheel channel=3 pitch=3770 time=9
note_on channel=1 note=34 velocity=73 time=12
note_on channel=7 note=34 velocity=115 time=0
note_on channel=7 note=46 velocity=115 time=0
note_on channel=8 note=46 velocity=110 time=0
note_on channel=9 note=40 velocity=49 time=0
note_on channel=9 note=43 velocity=49 time=0
note_on channel=10 note=46 velocity=70 time=0
pitchwheel channel=3 pitch=4160 time=3
note_on channel=8 note=53 velocity=91 time=8
note_on channel=10 note=53 velocity=51 time=0
pitchwheel channel=3 pitch=4550 time=2
pitchwheel channel=3 pitch=4940 time=11
pitchwheel channel=3 pitch=5720 time=13
note_off channel=8 note=46 velocity=0 time=10
note_off channel=10 note=46 velocity=0 time=0
pitchwheel channel=3 pitch=6370 time=2
note_off channel=8 note=53 velocity=0 time=6
note_off channel=10 note=53 velocity=0 time=0
pitchwheel channel=3 pitch=7020 time=7
pitchwheel channel=3 pitch=7410 time=10
note_off channel=9 note=43 velocity=0 time=11
pitchwheel channel=3 pitch=7930 time=1
note_off channel=9 note=40 velocity=0 time=29
pitchwheel channel=3 pitch=6240 time=1
pitchwheel channel=3 pitch=1690 time=12
note_off channel=3 note=77 velocity=0 time=9
pitchwheel channel=3 pitch=260 time=1
note_on channel=3 note=82 velocity=111 time=0
note_off channel=1 note=34 velocity=0 time=64
note_on channel=1 note=34 velocity=73 time=21
note_on channel=8 note=46 velocity=110 time=0
note_on channel=9 note=35 velocity=95 time=0
note_on channel=9 note=40 velocity=95 time=0
note_on channel=9 note=43 velocity=106 time=0
note_on channel=10 note=46 velocity=70 time=0
note_on channel=8 note=53 velocity=91 time=11
note_on channel=10 note=53 velocity=51 time=0
note_off channel=8 note=46 velocity=0 time=33
note_off channel=10 note=46 velocity=0 time=0
note_off channel=8 note=53 velocity=0 time=3
note_off channel=10 note=53 velocity=0 time=0
note_off channel=9 note=43 velocity=0 time=94
note_off channel=9 note=35 velocity=0 time=7
note_off channel=9 note=40 velocity=0 time=0
note_off channel=3 note=82 velocity=0 time=40
note_off channel=1 note=34 velocity=0 time=31
note_on channel=1 note=34 velocity=78 time=21
note_on channel=8 note=46 velocity=115 time=0
note_on channel=9 note=40 velocity=49 time=0
note_on channel=9 note=43 velocity=49 time=0
note_on channel=10 note=46 velocity=75 time=0
note_on channel=8 note=53 velocity=87 time=11
note_on channel=10 note=53 velocity=47 time=0
note_on channel=3 note=79 velocity=106 time=12
note_off channel=8 note=46 velocity=0 time=28
note_off channel=10 note=46 velocity=0 time=0
note_off channel=8 note=53 velocity=0 time=4
note_off channel=10 note=53 velocity=0 time=0
note_off channel=9 note=43 velocity=0 time=28
note_off channel=9 note=40 velocity=0 time=30
note_off channel=1 note=34 velocity=0 time=106
note_off channel=3 note=79 velocity=0 time=7
note_on channel=1 note=34 velocity=65 time=14
note_on channel=8 note=46 velocity=102 time=0
note_on channel=9 note=35 velocity=95 time=0
note_on channel=9 note=40 velocity=98 time=0
note_on channel=9 note=43 velocity=102 time=0
note_on channel=10 note=46 velocity=62 time=0
note_on channel=8 note=53 velocity=91 time=11
note_on channel=10 note=53 velocity=51 time=0
note_on channel=3 note=77 velocity=110 time=0
note_off channel=8 note=46 velocity=0 time=32
note_off channel=10 note=46 velocity=0 time=0
note_off channel=8 note=53 velocity=0 time=7
note_off channel=10 note=53 velocity=0 time=0
note_off channel=9 note=43 velocity=0 time=54
note_off channel=9 note=40 velocity=0 time=22
note_off channel=9 note=35 velocity=0 time=13
note_off channel=3 note=77 velocity=0 time=58
note_off channel=1 note=34 velocity=0 time=13
note_on channel=1 note=34 velocity=73 time=21
note_on channel=8 note=46 velocity=110 time=0
note_on channel=9 note=40 velocity=49 time=0
note_on channel=9 note=43 velocity=49 time=0
note_on channel=10 note=46 velocity=70 time=0
note_on channel=8 note=53 velocity=91 time=11
note_on channel=10 note=53 velocity=51 time=0
note_on channel=3 note=75 velocity=111 time=0
note_off channel=8 note=46 velocity=0 time=33
note_off channel=10 note=46 velocity=0 time=0
note_off channel=8 note=53 velocity=0 time=16
note_off channel=10 note=53 velocity=0 time=0
note_off channel=9 note=43 velocity=0 time=22
note_off channel=9 note=40 velocity=0 time=30
note_off channel=3 note=75 velocity=0 time=92
note_off channel=1 note=34 velocity=0 time=14
note_on channel=1 note=34 velocity=78 time=21
note_on channel=8 note=46 velocity=115 time=0
note_on channel=9 note=35 velocity=95 time=0
note_on channel=9 note=40 velocity=98 time=0
note_on channel=9 note=43 velocity=106 time=0
note_on channel=10 note=46 velocity=75 time=0
note_on channel=3 note=72 velocity=110 time=0
note_on channel=8 note=53 velocity=83 time=10
note_on channel=10 note=53 velocity=43 time=0
note_off channel=8 note=46 velocity=0 time=33
note_off channel=10 note=46 velocity=0 time=0
note_off channel=8 note=53 velocity=0 time=13
note_off channel=10 note=53 velocity=0 time=0
note_off channel=3 note=72 velocity=0 time=67
note_off channel=9 note=35 velocity=0 time=24
note_off channel=9 note=43 velocity=0 time=7
note_off channel=9 note=40 velocity=0 time=17
note_off channel=1 note=34 velocity=0 time=47
note_on channel=1 note=34 velocity=83 time=21
note_on channel=8 note=46 velocity=120 time=0
note_on channel=9 note=40 velocity=49 time=0
note_on channel=9 note=43 velocity=49 time=0
note_on channel=10 note=46 velocity=80 time=0
note_on channel=8 note=53 velocity=105 time=11
note_on channel=10 note=53 velocity=65 time=0
note_on channel=3 note=72 velocity=125 time=0
note_off channel=8 note=46 velocity=0 time=32
note_off channel=10 note=46 velocity=0 time=0
note_off channel=8 note=53 velocity=0 time=18
note_off channel=10 note=53 velocity=0 time=0
note_off channel=9 note=43 velocity=0 time=18
note_off channel=9 note=40 velocity=0 time=30
note_off channel=3 note=72 velocity=0 time=54
note_off channel=1 note=34 velocity=0 time=52
note_on channel=3 note=75 velocity=123 time=0
note_on channel=1 note=34 velocity=83 time=4
note_on channel=8 note=46 velocity=120 time=0
note_on channel=9 note=35 velocity=95 time=0
note_on channel=9 note=40 velocity=98 time=0
note_on channel=9 note=43 velocity=106 time=0
note_on channel=10 note=46 velocity=80 time=0
note_on channel=8 note=53 velocity=105 time=11
note_on channel=10 note=53 velocity=65 time=0
note_off channel=8 note=46 velocity=0 time=36
note_off channel=10 note=46 velocity=0 time=0
note_off channel=3 note=75 velocity=0 time=8
note_off channel=8 note=53 velocity=0 time=10
note_off channel=10 note=53 velocity=0 time=0
note_off channel=7 note=34 velocity=0 time=26
note_off channel=7 note=46 velocity=0 time=0
note_off channel=9 note=43 velocity=0 time=24
note_on channel=3 note=75 velocity=101 time=0
note_off channel=9 note=40 velocity=0 time=7
note_off channel=9 note=35 velocity=0 time=18
note_off channel=1 note=34 velocity=0 time=71
note_off channel=3 note=75 velocity=0 time=12
note_on channel=1 note=31 velocity=73 time=9
note_on channel=7 note=31 velocity=115 time=0
note_on channel=7 note=43 velocity=115 time=0
note_on channel=8 note=43 velocity=110 time=0
note_on channel=9 note=40 velocity=49 time=0
note_on channel=9 note=43 velocity=49 time=0
note_on channel=10 note=43 velocity=70 time=0
note_on channel=8 note=50 velocity=91 time=11
note_on channel=10 note=50 velocity=51 time=0
note_off channel=8 note=43 velocity=0 time=36
note_off channel=10 note=43 velocity=0 time=0
note_off channel=8 note=50 velocity=0 time=8
note_off channel=10 note=50 velocity=0 time=0
note_off channel=9 note=43 velocity=0 time=28
note_off channel=9 note=40 velocity=0 time=0
note_on channel=3 note=75 velocity=111 time=0
note_off channel=3 note=75 velocity=0 time=79
note_off channel=1 note=31 velocity=0 time=27
note_on channel=3 note=74 velocity=106 time=0
note_on channel=1 note=31 velocity=73 time=1
note_on channel=8 note=43 velocity=110 time=0
note_on channel=9 note=35 velocity=95 time=0
note_on channel=9 note=40 velocity=95 time=0
note_on channel=9 note=43 velocity=106 time=0
note_on channel=10 note=43 velocity=70 time=0
note_on channel=8 note=50 velocity=91 time=11
note_on channel=10 note=50 velocity=51 time=0
note_off channel=8 note=43 velocity=0 time=33
note_off channel=10 note=43 velocity=0 time=0
note_off channel=8 note=50 velocity=0 time=3
note_off channel=10 note=50 velocity=0 time=0
note_off channel=3 note=74 velocity=0 time=90
note_off channel=9 note=43 velocity=0 time=4
note_off channel=9 note=35 velocity=0 time=7
note_off channel=9 note=40 velocity=0 time=0
note_off channel=1 note=31 velocity=0 time=71
note_on channel=1 note=31 velocity=78 time=21
note_on channel=8 note=43 velocity=115 time=0
note_on channel=9 note=40 velocity=49 time=0
note_on channel=9 note=43 velocity=49 time=0
note_on channel=10 note=43 velocity=75 time=0
note_on channel=3 note=72 velocity=115 time=0
note_on channel=8 note=50 velocity=87 time=5
note_on channel=10 note=50 velocity=47 time=0
note_off channel=8 note=43 velocity=0 time=40
note_off channel=10 note=43 velocity=0 time=0
note_off channel=8 note=50 velocity=0 time=4
note_off channel=10 note=50 velocity=0 time=0
note_off channel=3 note=72 velocity=0 time=13
note_off channel=9 note=43 velocity=0 time=15
note_off channel=9 note=40 velocity=0 time=30
note_off channel=1 note=31 velocity=0 time=106
note_on channel=1 note=31 velocity=65 time=21
note_on channel=8 note=43 velocity=102 time=0
note_on channel=9 note=35 velocity=95 time=0
note_on channel=9 note=40 velocity=98 time=0
note_on channel=9 note=43 velocity=102 time=0
note_on channel=10 note=43 velocity=62 time=0
note_on channel=8 note=50 velocity=91 time=11
note_on channel=10 note=50 velocity=51 time=0
note_on channel=3 note=72 velocity=127 time=0
note_off channel=8 note=43 velocity=0 time=32
note_off channel=10 note=43 velocity=0 time=0
note_off channel=8 note=50 velocity=0 time=7
note_off channel=10 note=50 velocity=0 time=0
note_off channel=9 note=43 velocity=0 time=54
note_off channel=9 note=40 velocity=0 time=22
note_off channel=9 note=35 velocity=0 time=13
note_off channel=1 note=31 velocity=0 time=71
note_off channel=7 note=31 velocity=0 time=15
note_off channel=7 note=43 velocity=0 time=0
note_on channel=1 note=34 velocity=73 time=6
note_on channel=7 note=34 velocity=115 time=0
note_on channel=7 note=46 velocity=115 time=0
note_on channel=8 note=46 velocity=110 time=0
note_on channel=9 note=40 velocity=49 time=0
note_on channel=9 note=43 velocity=49 time=0
note_on channel=10 note=46 velocity=70 time=0
note_on channel=8 note=53 velocity=91 time=11
note_on channel=10 note=53 velocity=51 time=0
note_off channel=8 note=46 velocity=0 time=34
note_off channel=10 note=46 velocity=0 time=0
note_off channel=8 note=53 velocity=0 time=16
note_off channel=10 note=53 velocity=0 time=0
note_off channel=9 note=43 velocity=0 time=22
note_off channel=3 note=72 velocity=0 time=26
note_off channel=9 note=40 velocity=0 time=4
note_off channel=1 note=34 velocity=0 time=106
note_on channel=1 note=34 velocity=78 time=21
note_on channel=8 note=46 velocity=115 time=0
note_on channel=9 note=35 velocity=95 time=0
note_on channel=9 note=40 velocity=98 time=0
note_on channel=9 note=43 velocity=106 time=0
note_on channel=10 note=46 velocity=75 time=0
note_on channel=8 note=53 velocity=83 time=11
note_on channel=10 note=53 velocity=43 time=0
note_off channel=8 note=46 velocity=0 time=33
note_off channel=10 note=46 velocity=0 time=0
note_off channel=8 note=53 velocity=0 time=13
note_off channel=10 note=53 velocity=0 time=0
note_off channel=9 note=35 velocity=0 time=91
note_off channel=9 note=43 velocity=0 time=7
note_off channel=9 note=40 velocity=0 time=17
note_off channel=1 note=34 velocity=0 time=47
note_on channel=1 note=34 velocity=83 time=21
note_on channel=8 note=46 velocity=120 time=0
note_on channel=9 note=40 velocity=49 time=0
note_on channel=9 note=43 velocity=49 time=0
note_on channel=9 note=46 velocity=106 time=0
note_on channel=10 note=46 velocity=80 time=0
note_on channel=8 note=53 velocity=105 time=11
note_on channel=10 note=53 velocity=65 time=0
note_off channel=8 note=46 velocity=0 time=36
note_off channel=10 note=46 velocity=0 time=0
note_off channel=8 note=53 velocity=0 time=18
note_off channel=10 note=53 velocity=0 time=0
note_off channel=9 note=43 velocity=0 time=18
note_off channel=9 note=40 velocity=0 time=30
note_off channel=9 note=46 velocity=0 time=42
note_off channel=7 note=34 velocity=0 time=56
note_off channel=7 note=46 velocity=0 time=0
note_off channel=1 note=34 velocity=0 time=8
note_on channel=3 note=77 velocity=115 time=0
note_on channel=1 note=36 velocity=61 time=1
note_on channel=7 note=36 velocity=115 time=0
note_on channel=7 note=48 velocity=115 time=0
note_on channel=8 note=48 velocity=98 time=0
note_on channel=9 note=35 velocity=95 time=0
note_on channel=9 note=40 velocity=98 time=0
note_on channel=9 note=43 velocity=106 time=0
note_on channel=9 note=44 velocity=106 time=0
note_on channel=10 note=48 velocity=58 time=0
note_on channel=8 note=55 velocity=100 time=11
note_on channel=10 note=55 velocity=60 time=0
note_off channel=8 note=48 velocity=0 time=31
note_off channel=10 note=48 velocity=0 time=0
pitchwheel channel=3 pitch=520 time=13
note_off channel=8 note=55 velocity=0 time=3
note_off channel=10 note=55 velocity=0 time=0
pitchwheel channel=3 pitch=910 time=12
pitchwheel channel=3 pitch=1170 time=10
pitchwheel channel=3 pitch=1560 time=11
pitchwheel channel=3 pitch=1950 time=14
note_off channel=9 note=43 velocity=0 time=10
pitchwheel channel=3 pitch=2340 time=2
note_off channel=9 note=40 velocity=0 time=13
pitchwheel channel=3 pitch=2730 time=0
pitchwheel channel=3 pitch=3250 time=15
note_off channel=9 note=35 velocity=0 time=3
note_off channel=9 note=44 velocity=0 time=7
pitchwheel channel=3 pitch=3640 time=7
pitchwheel channel=3 pitch=4030 time=17
pitchwheel channel=3 pitch=4290 time=12
pitchwheel channel=3 pitch=4420 time=11
note_off channel=1 note=36 velocity=0 time=17
pitchwheel channel=3 pitch=4680 time=2
pitchwheel channel=3 pitch=4810 time=13
note_on channel=1 note=36 velocity=78 time=6
note_on channel=8 note=48 velocity=115 time=0
note_on channel=9 note=40 velocity=49 time=0
note_on channel=9 note=43 velocity=49 time=0
note_on channel=10 note=48 velocity=75 time=0
pitchwheel channel=3 pitch=5070 time=6
note_on channel=8 note=55 velocity=100 time=5
note_on channel=10 note=55 velocity=60 time=0
pitchwheel channel=3 pitch=5460 time=14
pitchwheel channel=3 pitch=5850 time=15
note_off channel=8 note=48 velocity=0 time=5
note_off channel=10 note=48 velocity=0 time=0
note_off channel=8 note=55 velocity=0 time=5
note_off channel=10 note=55 velocity=0 time=0
pitchwheel channel=3 pitch=6370 time=5
pitchwheel channel=3 pitch=6500 time=11
pitchwheel channel=3 pitch=6760 time=11
note_off channel=9 note=43 velocity=0 time=6
pitchwheel channel=3 pitch=6890 time=14
note_off channel=9 note=40 velocity=0 time=16
note_off channel=3 note=77 velocity=0 time=62
pitchwheel channel=3 pitch=6630 time=12
pitchwheel channel=3 pitch=5980 time=12
pitchwheel channel=3 pitch=5070 time=12
note_off channel=1 note=36 velocity=0 time=8
pitchwheel channel=3 pitch=4160 time=4
pitchwheel channel=3 pitch=3250 time=11
note_on channel=1 note=36 velocity=46 time=6
note_on channel=8 note=48 velocity=83 time=0
note_on channel=9 note=35 velocity=95 time=0
note_on channel=9 note=40 velocity=95 time=0
note_on channel=9 note=43 velocity=106 time=0
note_on channel=10 note=48 velocity=43 time=0
pitchwheel channel=3 pitch=2340 time=4
note_on channel=8 note=55 velocity=87 time=7
note_on channel=10 note=55 velocity=47 time=0
note_on channel=3 note=77 velocity=115 time=0
pitchwheel channel=3 pitch=1560 time=3
pitchwheel channel=3 pitch=1170 time=12
note_off channel=8 note=48 velocity=0 time=3
note_off channel=10 note=48 velocity=0 time=0
note_off channel=8 note=55 velocity=0 time=12
note_off channel=10 note=55 velocity=0 time=0
pitchwheel channel=3 pitch=1560 time=43
pitchwheel channel=3 pitch=1950 time=12
pitchwheel channel=3 pitch=2470 time=14
pitchwheel channel=3 pitch=2860 time=10
pitchwheel channel=3 pitch=3250 time=10
note_off channel=9 note=43 velocity=0 time=7
pitchwheel channel=3 pitch=3640 time=3
note_off channel=9 note=35 velocity=0 time=4
note_off channel=9 note=40 velocity=0 time=0
pitchwheel channel=3 pitch=4290 time=8
pitchwheel channel=3 pitch=4940 time=11
pitchwheel channel=3 pitch=5330 time=11
pitchwheel channel=3 pitch=5980 time=13
pitchwheel channel=3 pitch=6370 time=15
note_off channel=1 note=36 velocity=0 time=13
pitchwheel channel=3 pitch=6630 time=1
pitchwheel channel=3 pitch=6760 time=15
note_on channel=1 note=36 velocity=65 time=5
note_on channel=8 note=48 velocity=102 time=0
note_on channel=9 note=40 velocity=49 time=0
note_on channel=9 note=43 velocity=49 time=0
note_on channel=10 note=48 velocity=62 time=0
pitchwheel channel=3 pitch=7020 time=10
note_on channel=8 note=55 velocity=87 time=1
note_on channel=10 note=55 velocity=47 time=0
pitchwheel channel=3 pitch=7280 time=24
note_off channel=8 note=48 velocity=0 time=5
note_off channel=10 note=48 velocity=0 time=0
note_off channel=8 note=55 velocity=0 time=12
note_off channel=10 note=55 velocity=0 time=0
note_off channel=9 note=43 velocity=0 time=31
pitchwheel channel=3 pitch=7410 time=4
note_off channel=9 note=40 velocity=0 time=26
pitchwheel channel=3 pitch=7670 time=18
pitchwheel channel=3 pitch=7800 time=17
pitchwheel channel=3 pitch=8060 time=21
note_off channel=1 note=36 velocity=0 time=50
note_on channel=1 note=36 velocity=50 time=21
note_on channel=8 note=48 velocity=87 time=0
note_on channel=9 note=35 velocity=95 time=0
note_on channel=9 note=40 velocity=98 time=0
note_on channel=9 note=43 velocity=102 time=0
note_on channel=10 note=48 velocity=47 time=0
pitchwheel channel=3 pitch=7020 time=2
note_on channel=8 note=55 velocity=75 time=9
note_on channel=10 note=55 velocity=35 time=0
pitchwheel channel=3 pitch=5200 time=2
pitchwheel channel=3 pitch=2600 time=10
pitchwheel channel=3 pitch=260 time=10
note_off channel=8 note=48 velocity=0 time=5
note_off channel=10 note=48 velocity=0 time=0
note_off channel=3 note=77 velocity=0 time=7
note_off channel=8 note=55 velocity=0 time=4
note_off channel=10 note=55 velocity=0 time=0
pitchwheel channel=3 pitch=0 time=1
note_on channel=3 note=77 velocity=97 time=0
note_off channel=9 note=43 velocity=0 time=62
note_off channel=9 note=40 velocity=0 time=22
note_off channel=3 note=77 velocity=0 time=2
note_off channel=9 note=35 velocity=0 time=11
note_on channel=3 note=75 velocity=97 time=0
note_off channel=1 note=36 velocity=0 time=48
note_on channel=1 note=36 velocity=73 time=21
note_on channel=8 note=48 velocity=110 time=0
note_on channel=9 note=40 velocity=49 time=0
note_on channel=9 note=43 velocity=49 time=0
note_on channel=10 note=48 velocity=70 time=0
note_on channel=8 note=55 velocity=87 time=11
note_on channel=10 note=55 velocity=47 time=0
note_off channel=3 note=75 velocity=0 time=6
note_on channel=3 note=72 velocity=120 time=0
note_off channel=8 note=48 velocity=0 time=14
note_off channel=10 note=48 velocity=0 time=0
note_off channel=8 note=55 velocity=0 time=9
note_off channel=10 note=55 velocity=0 time=0
note_off channel=9 note=43 velocity=0 time=29
note_off channel=9 note=40 velocity=0 time=30
note_off channel=1 note=36 velocity=0 time=106
note_on channel=1 note=36 velocity=78 time=21
note_on channel=8 note=48 velocity=115 time=0
note_on channel=9 note=35 velocity=95 time=0
note_on channel=9 note=40 velocity=98 time=0
note_on channel=9 note=43 velocity=106 time=0
note_on channel=10 note=48 velocity=75 time=0
note_on channel=8 note=55 velocity=95 time=11
note_on channel=10 note=55 velocity=55 time=0
note_off channel=8 note=48 velocity=0 time=34
note_off channel=10 note=48 velocity=0 time=0
note_off channel=8 note=55 velocity=0 time=5
note_off channel=10 note=55 velocity=0 time=0
note_off channel=9 note=35 velocity=0 time=98
note_off channel=9 note=43 velocity=0 time=7
note_off channel=9 note=40 velocity=0 time=17
note_off channel=1 note=36 velocity=0 time=47
note_off channel=3 note=72 velocity=0 time=15
note_on channel=1 note=36 velocity=78 time=6
note_on channel=8 note=48 velocity=115 time=0
note_on channel=9 note=40 velocity=49 time=0
note_on channel=9 note=43 velocity=49 time=0
note_on channel=10 note=48 velocity=75 time=0
note_on channel=8 note=55 velocity=87 time=11
note_on channel=10 note=55 velocity=47 time=0
note_off channel=8 note=48 velocity=0 time=35
note_off channel=10 note=48 velocity=0 time=0
note_off channel=8 note=55 velocity=0 time=3
note_off channel=10 note=55 velocity=0 time=0
note_off channel=9 note=43 velocity=0 time=34
note_off channel=9 note=40 velocity=0 time=30
note_on channel=3 note=72 velocity=97 time=0
pitchwheel channel=3 pitch=-896 time=66
pitchwheel channel=3 pitch=-2176 time=10
note_off channel=3 note=72 velocity=0 time=9
pitchwheel channel=3 pitch=-3712 time=1
pitchwheel channel=3 pitch=-5248 time=10
note_off channel=1 note=36 velocity=0 time=3
pitchwheel channel=3 pitch=-6656 time=10
note_on channel=1 note=36 velocity=65 time=11
note_on channel=8 note=48 velocity=102 time=0
note_on channel=9 note=35 velocity=95 time=0
note_on channel=9 note=40 velocity=98 time=0
note_on channel=9 note=43 velocity=106 time=0
note_on channel=10 note=48 velocity=62 time=0
pitchwheel channel=3 pitch=-7552 time=1
note_on channel=3 note=79 velocity=120 time=0
note_on channel=8 note=55 velocity=80 time=4
note_on channel=10 note=55 velocity=40 time=0
pitchwheel channel=3 pitch=-8064 time=0
pitchwheel channel=3 pitch=-7808 time=30
note_off channel=8 note=55 velocity=0 time=3
note_off channel=10 note=55 velocity=0 time=0
note_off channel=8 note=48 velocity=0 time=1
note_off channel=10 note=48 velocity=0 time=0
pitchwheel channel=3 pitch=-6912 time=6
pitchwheel channel=3 pitch=-5504 time=11
pitchwheel channel=3 pitch=-4096 time=10
pitchwheel channel=3 pitch=-2560 time=10
note_off channel=7 note=36 velocity=0 time=9
note_off channel=7 note=48 velocity=0 time=0
pitchwheel channel=3 pitch=-896 time=4
pitchwheel channel=3 pitch=0 time=10
note_off channel=9 note=43 velocity=0 time=10
note_off channel=9 note=40 velocity=0 time=15
note_off channel=9 note=35 velocity=0 time=18
note_off channel=3 note=79 velocity=0 time=22
pitchwheel channel=3 pitch=-128 time=13
pitchwheel channel=3 pitch=-2176 time=10
pitchwheel channel=3 pitch=-4608 time=10
pitchwheel channel=3 pitch=-6912 time=10
note_off channel=1 note=36 velocity=0 time=6
pitchwheel channel=3 pitch=-8192 time=4
note_on channel=1 note=31 velocity=73 time=17
note_on channel=7 note=31 velocity=115 time=0
note_on channel=7 note=43 velocity=115 time=0
note_on channel=8 note=43 velocity=110 time=0
note_on channel=9 note=40 velocity=49 time=0
note_on channel=9 note=43 velocity=49 time=0
note_on channel=10 note=43 velocity=70 time=0
note_on channel=3 note=79 velocity=102 time=0
note_on channel=8 note=50 velocity=91 time=5
note_on channel=10 note=50 velocity=51 time=0
note_off channel=8 note=43 velocity=0 time=36
note_off channel=10 note=43 velocity=0 time=0
pitchwheel channel=3 pitch=-7040 time=3
note_off channel=8 note=50 velocity=0 time=5
note_off channel=10 note=50 velocity=0 time=0
pitchwheel channel=3 pitch=-5120 time=5
pitchwheel channel=3 pitch=-2688 time=10
pitchwheel channel=3 pitch=0 time=10
note_off channel=9 note=43 velocity=0 time=3
note_off channel=9 note=40 velocity=0 time=30
note_off channel=3 note=79 velocity=0 time=65
note_off channel=1 note=31 velocity=0 time=41
note_on channel=3 note=77 velocity=106 time=0
note_on channel=1 note=31 velocity=73 time=9
note_on channel=8 note=43 velocity=110 time=0
note_on channel=9 note=35 velocity=95 time=0
note_on channel=9 note=40 velocity=95 time=0
note_on channel=9 note=43 velocity=106 time=0
note_on channel=10 note=43 velocity=70 time=0
note_on channel=8 note=50 velocity=91 time=11
note_on channel=10 note=50 velocity=51 time=0
note_off channel=8 note=43 velocity=0 time=33
note_off channel=10 note=43 velocity=0 time=0
note_off channel=8 note=50 velocity=0 time=3
note_off channel=10 note=50 velocity=0 time=0
note_off channel=9 note=43 velocity=0 time=94
note_off channel=9 note=35 velocity=0 time=7
note_off channel=9 note=40 velocity=0 time=0
note_on channel=3 note=75 velocity=123 time=0
note_off channel=1 note=31 velocity=0 time=5
note_off channel=3 note=77 velocity=0 time=11
note_on channel=1 note=31 velocity=78 time=10
note_on channel=8 note=43 velocity=115 time=0
note_on channel=9 note=40 velocity=49 time=0
note_on channel=9 note=43 velocity=49 time=0
note_on channel=10 note=43 velocity=75 time=0
note_on channel=8 note=50 velocity=87 time=11
note_on channel=10 note=50 velocity=47 time=0
note_off channel=8 note=43 velocity=0 time=40
note_off channel=10 note=43 velocity=0 time=0
note_off channel=8 note=50 velocity=0 time=4
note_off channel=10 note=50 velocity=0 time=0
note_off channel=9 note=43 velocity=0 time=28
note_off channel=9 note=40 velocity=0 time=30
note_off channel=3 note=75 velocity=0 time=91
note_on channel=3 note=72 velocity=125 time=0
note_off channel=1 note=31 velocity=0 time=9
note_on channel=1 note=31 velocity=65 time=21
note_on channel=8 note=43 velocity=102 time=0
note_on channel=9 note=35 velocity=95 time=0
note_on channel=9 note=40 velocity=98 time=0
note_on channel=9 note=43 velocity=102 time=0
note_on channel=10 note=43 velocity=62 time=0
note_on channel=8 note=50 velocity=91 time=11
note_on channel=10 note=50 velocity=51 time=0
note_off channel=8 note=43 velocity=0 time=41
note_off channel=10 note=43 velocity=0 time=0
note_off channel=8 note=50 velocity=0 time=7
note_off channel=10 note=50 velocity=0 time=0
note_off channel=9 note=43 velocity=0 time=54
note_off channel=9 note=40 velocity=0 time=22
note_off channel=9 note=35 velocity=0 time=13
note_off channel=1 note=31 velocity=0 time=71
note_on channel=1 note=31 velocity=73 time=21
note_on channel=8 note=43 velocity=110 time=0
note_on channel=9 note=40 velocity=49 time=0
note_on channel=9 note=43 velocity=49 time=0
note_on channel=10 note=43 velocity=70 time=0
note_on channel=8 note=50 velocity=91 time=11
note_on channel=10 note=50 velocity=51 time=0
note_off channel=8 note=43 velocity=0 time=34
note_off channel=10 note=43 velocity=0 time=0
note_off channel=8 note=50 velocity=0 time=16
note_off channel=10 note=50 velocity=0 time=0
note_off channel=9 note=43 velocity=0 time=22
note_off channel=9 note=40 velocity=0 time=30
note_off channel=3 note=72 velocity=0 time=20
note_off channel=1 note=31 velocity=0 time=86
note_on channel=1 note=31 velocity=78 time=21
note_on channel=8 note=43 velocity=115 time=0
note_on channel=9 note=35 velocity=95 time=0
note_on channel=9 note=40 velocity=98 time=0
note_on channel=9 note=43 velocity=106 time=0
note_on channel=10 note=43 velocity=75 time=0
note_on channel=8 note=50 velocity=83 time=11
note_on channel=10 note=50 velocity=43 time=0
note_off channel=8 note=43 velocity=0 time=33
note_off channel=10 note=43 velocity=0 time=0
note_off channel=8 note=50 velocity=0 time=13
note_off channel=10 note=50 velocity=0 time=0
note_off channel=9 note=35 velocity=0 time=91
note_off channel=9 note=43 velocity=0 time=7
note_off channel=9 note=40 velocity=0 time=17
note_off channel=1 note=31 velocity=0 time=47
note_on channel=1 note=31 velocity=83 time=21
note_on channel=8 note=43 velocity=120 time=0
note_on channel=9 note=40 velocity=49 time=0
note_on channel=9 note=43 velocity=49 time=0
note_on channel=10 note=43 velocity=80 time=0
note_on channel=8 note=50 velocity=105 time=11
note_on channel=10 note=50 velocity=65 time=0
note_off channel=8 note=43 velocity=0 time=36
note_off channel=10 note=43 velocity=0 time=0
note_off channel=8 note=50 velocity=0 time=18
note_off channel=10 note=50 velocity=0 time=0
note_off channel=9 note=43 velocity=0 time=18
note_off channel=9 note=40 velocity=0 time=30
note_off channel=1 note=31 velocity=0 time=106
note_on channel=1 note=31 velocity=83 time=21
note_on channel=8 note=43 velocity=120 time=0
note_on channel=9 note=35 velocity=95 time=0
note_on channel=9 note=40 velocity=98 time=0
note_on channel=9 note=43 velocity=106 time=0
note_on channel=10 note=43 velocity=80 time=0
note_on channel=8 note=50 velocity=105 time=11
note_on channel=10 note=50 velocity=65 time=0
note_on channel=3 note=77 velocity=110 time=0
note_off channel=8 note=43 velocity=0 time=30
note_off channel=10 note=43 velocity=0 time=0
note_off channel=8 note=50 velocity=0 time=18
note_off channel=10 note=50 velocity=0 time=0
note_off channel=7 note=31 velocity=0 time=26
note_off channel=7 note=43 velocity=0 time=0
pitchwheel channel=3 pitch=650 time=20
note_off channel=9 note=43 velocity=0 time=4
pitchwheel channel=3 pitch=1040 time=7
note_off channel=9 note=40 velocity=0 time=8
pitchwheel channel=3 pitch=1430 time=8
note_off channel=9 note=35 velocity=0 time=10
pitchwheel channel=3 pitch=1820 time=3
pitchwheel channel=3 pitch=2340 time=10
pitchwheel channel=3 pitch=2730 time=15
pitchwheel channel=3 pitch=3120 time=15
pitchwheel channel=3 pitch=3380 time=12
pitchwheel channel=3 pitch=3510 time=15
note_off channel=1 note=31 velocity=0 time=1
pitchwheel channel=3 pitch=3770 time=9
note_on channel=1 note=34 velocity=73 time=12
note_on channel=7 note=34 velocity=115 time=0
note_on channel=7 note=46 velocity=115 time=0
note_on channel=8 note=46 velocity=110 time=0
note_on channel=9 note=40 velocity=49 time=0
note_on channel=9 note=43 velocity=49 time=0
note_on channel=10 note=46 velocity=70 time=0
pitchwheel channel=3 pitch=4160 time=3
note_on channel=8 note=53 velocity=91 time=8
note_on channel=10 note=53 velocity=51 time=0
pitchwheel channel=3 pitch=4550 time=2
pitchwheel channel=3 pitch=4940 time=11
pitchwheel channel=3 pitch=5720 time=13
note_off channel=8 note=46 velocity=0 time=10
note_off channel=10 note=46 velocity=0 time=0
pitchwheel channel=3 pitch=6370 time=2
note_off channel=8 note=53 velocity=0 time=6
note_off channel=10 note=53 velocity=0 time=0
pitchwheel channel=3 pitch=7020 time=7
pitchwheel channel=3 pitch=7410 time=10
note_off channel=9 note=43 velocity=0 time=11
pitchwheel channel=3 pitch=7930 time=1
note_off channel=9 note=40 velocity=0 time=29
pitchwheel channel=3 pitch=6240 time=1
pitchwheel channel=3 pitch=1690 time=12
note_off channel=3 note=77 velocity=0 time=9
pitchwheel channel=3 pitch=260 time=1
note_on channel=3 note=82 velocity=111 time=0
note_off channel=1 note=34 velocity=0 time=64
note_on channel=1 note=34 velocity=73 time=21
note_on channel=8 note=46 velocity=110 time=0
note_on channel=9 note=35 velocity=95 time=0
note_on channel=9 note=40 velocity=95 time=0
note_on channel=9 note=43 velocity=106 time=0
note_on channel=10 note=46 velocity=70 time=0
note_on channel=8 note=53 velocity=91 time=11
note_on channel=10 note=53 velocity=51 time=0
note_off channel=8 note=46 velocity=0 time=33
note_off channel=10 note=46 velocity=0 time=0
note_off channel=8 note=53 velocity=0 time=3
note_off channel=10 note=53 velocity=0 time=0
note_off channel=9 note=43 velocity=0 time=94
note_off channel=9 note=35 velocity=0 time=7
note_off channel=9 note=40 velocity=0 time=0
note_off channel=3 note=82 velocity=0 time=40
note_off channel=1 note=34 velocity=0 time=31
note_on channel=1 note=34 velocity=78 time=21
note_on channel=8 note=46 velocity=115 time=0
note_on channel=9 note=40 velocity=49 time=0
note_on channel=9 note=43 velocity=49 time=0
note_on channel=10 note=46 velocity=75 time=0
note_on channel=8 note=53 velocity=87 time=11
note_on channel=10 note=53 velocity=47 time=0
note_on channel=3 note=79 velocity=106 time=0
note_off channel=8 note=46 velocity=0 time=28
note_off channel=10 note=46 velocity=0 time=0
note_off channel=8 note=53 velocity=0 time=4
note_off channel=10 note=53 velocity=0 time=0
note_off channel=9 note=43 velocity=0 time=28
note_off channel=9 note=40 velocity=0 time=30
note_off channel=1 note=34 velocity=0 time=106
note_off channel=3 note=79 velocity=0 time=7
note_on channel=1 note=34 velocity=65 time=14
note_on channel=8 note=46 velocity=102 time=0
note_on channel=9 note=35 velocity=95 time=0
note_on channel=9 note=40 velocity=98 time=0
note_on channel=9 note=43 velocity=102 time=0
note_on channel=10 note=46 velocity=62 time=0
note_on channel=8 note=53 velocity=91 time=11
note_on channel=10 note=53 velocity=51 time=0
note_on channel=3 note=77 velocity=110 time=0
note_off channel=8 note=46 velocity=0 time=32
note_off channel=10 note=46 velocity=0 time=0
note_off channel=8 note=53 velocity=0 time=7
note_off channel=10 note=53 velocity=0 time=0
note_off channel=9 note=43 velocity=0 time=54
note_off channel=9 note=40 velocity=0 time=22
note_off channel=9 note=35 velocity=0 time=13
note_off channel=3 note=77 velocity=0 time=58
note_off channel=1 note=34 velocity=0 time=13
note_on channel=1 note=34 velocity=73 time=21
note_on channel=8 note=46 velocity=110 time=0
note_on channel=9 note=40 velocity=49 time=0
note_on channel=9 note=43 velocity=49 time=0
note_on channel=10 note=46 velocity=70 time=0
note_on channel=8 note=53 velocity=91 time=11
note_on channel=10 note=53 velocity=51 time=0
note_on channel=3 note=75 velocity=111 time=0
note_off channel=8 note=46 velocity=0 time=33
note_off channel=10 note=46 velocity=0 time=0
note_off channel=8 note=53 velocity=0 time=16
note_off channel=10 note=53 velocity=0 time=0
note_off channel=9 note=43 velocity=0 time=22
note_off channel=9 note=40 velocity=0 time=30
note_off channel=3 note=75 velocity=0 time=92
note_off channel=1 note=34 velocity=0 time=14
note_on channel=1 note=34 velocity=78 time=21
note_on channel=8 note=46 velocity=115 time=0
note_on channel=9 note=35 velocity=95 time=0
note_on channel=9 note=40 velocity=98 time=0
note_on channel=9 note=43 velocity=106 time=0
note_on channel=10 note=46 velocity=75 time=0
note_on channel=3 note=72 velocity=110 time=0
note_on channel=8 note=53 velocity=83 time=10
note_on channel=10 note=53 velocity=43 time=0
note_off channel=8 note=46 velocity=0 time=33
note_off channel=10 note=46 velocity=0 time=0
note_off channel=8 note=53 velocity=0 time=13
note_off channel=10 note=53 velocity=0 time=0
note_off channel=3 note=72 velocity=0 time=67
note_off channel=9 note=35 velocity=0 time=24
note_off channel=9 note=43 velocity=0 time=7
note_off channel=9 note=40 velocity=0 time=17
note_off channel=1 note=34 velocity=0 time=47
note_on channel=1 note=34 velocity=83 time=21
note_on channel=8 note=46 velocity=120 time=0
note_on channel=9 note=40 velocity=49 time=0
note_on channel=9 note=43 velocity=49 time=0
note_on channel=10 note=46 velocity=80 time=0
note_on channel=8 note=53 velocity=105 time=11
note_on channel=10 note=53 velocity=65 time=0
note_on channel=3 note=72 velocity=125 time=0
note_off channel=8 note=46 velocity=0 time=32
note_off channel=10 note=46 velocity=0 time=0
note_off channel=8 note=53 velocity=0 time=18
note_off channel=10 note=53 velocity=0 time=0
note_off channel=9 note=43 velocity=0 time=18
note_off channel=9 note=40 velocity=0 time=30
note_off channel=3 note=72 velocity=0 time=16
note_on channel=3 note=72 velocity=125 time=0
note_off channel=1 note=34 velocity=0 time=84
note_off channel=3 note=72 velocity=0 time=15
note_on channel=1 note=34 velocity=83 time=0
note_on channel=3 note=75 velocity=123 time=0
note_on channel=8 note=46 velocity=120 time=0
note_on channel=9 note=35 velocity=95 time=0
note_on channel=9 note=40 velocity=98 time=0
note_on channel=9 note=43 velocity=106 time=0
note_on channel=10 note=46 velocity=80 time=0
note_on channel=8 note=53 velocity=105 time=11
note_on channel=10 note=53 velocity=65 time=0
note_off channel=8 note=46 velocity=0 time=36
note_off channel=10 note=46 velocity=0 time=0
note_off channel=8 note=53 velocity=0 time=18
note_off channel=10 note=53 velocity=0 time=0
note_off channel=7 note=34 velocity=0 time=26
note_off channel=7 note=46 velocity=0 time=0
note_off channel=9 note=43 velocity=0 time=24
note_off channel=9 note=40 velocity=0 time=15
note_off channel=9 note=35 velocity=0 time=18
note_off channel=3 note=75 velocity=0 time=62
note_off channel=1 note=34 velocity=0 time=9
note_on channel=1 note=31 velocity=73 time=0
note_on channel=3 note=75 velocity=101 time=0
note_on channel=7 note=31 velocity=115 time=0
note_on channel=7 note=43 velocity=115 time=0
note_on channel=8 note=43 velocity=110 time=0
note_on channel=9 note=40 velocity=49 time=0
note_on channel=9 note=43 velocity=49 time=0
note_on channel=10 note=43 velocity=70 time=0
note_on channel=8 note=50 velocity=91 time=11
note_on channel=10 note=50 velocity=51 time=0
note_off channel=8 note=43 velocity=0 time=36
note_off channel=10 note=43 velocity=0 time=0
note_off channel=8 note=50 velocity=0 time=8
note_off channel=10 note=50 velocity=0 time=0
note_off channel=9 note=43 velocity=0 time=28
note_off channel=9 note=40 velocity=0 time=30
note_off channel=3 note=75 velocity=0 time=97
note_off channel=1 note=31 velocity=0 time=9
note_on channel=1 note=31 velocity=73 time=0
note_on channel=3 note=74 velocity=106 time=0
note_on channel=8 note=43 velocity=110 time=0
note_on channel=9 note=35 velocity=95 time=0
note_on channel=9 note=40 velocity=95 time=0
note_on channel=9 note=43 velocity=106 time=0
note_on channel=10 note=43 velocity=70 time=0
note_on channel=8 note=50 velocity=91 time=11
note_on channel=10 note=50 velocity=51 time=0
note_off channel=8 note=43 velocity=0 time=33
note_off channel=10 note=43 velocity=0 time=0
note_off channel=8 note=50 velocity=0 time=3
note_off channel=10 note=50 velocity=0 time=0
note_off channel=9 note=43 velocity=0 time=94
note_off channel=9 note=35 velocity=0 time=7
note_off channel=9 note=40 velocity=0 time=0
note_off channel=3 note=74 velocity=0 time=62
note_off channel=1 note=31 velocity=0 time=9
note_on channel=1 note=31 velocity=78 time=0
note_on channel=3 note=72 velocity=115 time=0
note_on channel=8 note=43 velocity=115 time=0
note_on channel=9 note=40 velocity=49 time=0
note_on channel=9 note=43 velocity=49 time=0
note_on channel=10 note=43 velocity=75 time=0
note_on channel=8 note=50 velocity=87 time=11
note_on channel=10 note=50 velocity=47 time=0
note_off channel=8 note=43 velocity=0 time=40
note_off channel=10 note=43 velocity=0 time=0
note_off channel=8 note=50 velocity=0 time=4
note_off channel=10 note=50 velocity=0 time=0
note_off channel=9 note=43 velocity=0 time=28
note_off channel=9 note=40 velocity=0 time=30
note_off channel=3 note=72 velocity=0 time=97
note_off channel=1 note=31 velocity=0 time=9
note_on channel=1 note=31 velocity=65 time=0
note_on channel=3 note=72 velocity=127 time=0
note_on channel=8 note=43 velocity=102 time=0
note_on channel=9 note=35 velocity=95 time=0
note_on channel=9 note=40 velocity=98 time=0
note_on channel=9 note=43 velocity=102 time=0
note_on channel=10 note=43 velocity=62 time=0
note_on channel=8 note=50 velocity=91 time=11
note_on channel=10 note=50 velocity=51 time=0
note_off channel=8 note=43 velocity=0 time=41
note_off channel=10 note=43 velocity=0 time=0
note_off channel=8 note=50 velocity=0 time=7
note_off channel=10 note=50 velocity=0 time=0
note_off channel=9 note=43 velocity=0 time=54
note_off channel=9 note=40 velocity=0 time=22
note_off channel=9 note=35 velocity=0 time=13
note_off channel=1 note=31 velocity=0 time=71
note_off channel=7 note=31 velocity=0 time=15
note_off channel=7 note=43 velocity=0 time=0
note_on channel=1 note=34 velocity=73 time=6
note_on channel=7 note=34 velocity=115 time=0
note_on channel=7 note=46 velocity=115 time=0
note_on channel=8 note=46 velocity=110 time=0
note_on channel=9 note=40 velocity=49 time=0
note_on channel=9 note=43 velocity=49 time=0
note_on channel=10 note=46 velocity=70 time=0
note_on channel=8 note=53 velocity=91 time=11
note_on channel=10 note=53 velocity=51 time=0
note_off channel=8 note=46 velocity=0 time=34
note_off channel=10 note=46 velocity=0 time=0
note_off channel=8 note=53 velocity=0 time=16
note_off channel=10 note=53 velocity=0 time=0
note_off channel=9 note=43 velocity=0 time=22
note_off channel=3 note=72 velocity=0 time=6
note_off channel=9 note=40 velocity=0 time=24
note_off channel=1 note=34 velocity=0 time=106
note_on channel=1 note=34 velocity=78 time=21
note_on channel=8 note=46 velocity=115 time=0
note_on channel=9 note=35 velocity=95 time=0
note_on channel=9 note=40 velocity=98 time=0
note_on channel=9 note=43 velocity=106 time=0
note_on channel=10 note=46 velocity=75 time=0
note_on channel=8 note=53 velocity=83 time=11
note_on channel=10 note=53 velocity=43 time=0
note_off channel=8 note=46 velocity=0 time=33
note_off channel=10 note=46 velocity=0 time=0
note_off channel=8 note=53 velocity=0 time=13
note_off channel=10 note=53 velocity=0 time=0
note_off channel=9 note=35 velocity=0 time=91
note_off channel=9 note=43 velocity=0 time=7
note_off channel=9 note=40 velocity=0 time=17
note_off channel=1 note=34 velocity=0 time=47
note_on channel=1 note=34 velocity=83 time=21
note_on channel=8 note=46 velocity=120 time=0
note_on channel=9 note=40 velocity=49 time=0
note_on channel=9 note=43 velocity=49 time=0
note_on channel=9 note=46 velocity=106 time=0
note_on channel=10 note=46 velocity=80 time=0
note_on channel=8 note=53 velocity=105 time=11
note_on channel=10 note=53 velocity=65 time=0
note_off channel=8 note=46 velocity=0 time=36
note_off channel=10 note=46 velocity=0 time=0
note_off channel=8 note=53 velocity=0 time=18
note_off channel=10 note=53 velocity=0 time=0
note_off channel=9 note=43 velocity=0 time=18
note_off channel=9 note=40 velocity=0 time=30
note_off channel=9 note=46 velocity=0 time=42
note_off channel=7 note=34 velocity=0 time=56
note_off channel=7 note=46 velocity=0 time=0
note_off channel=1 note=34 velocity=0 time=8
note_on channel=1 note=32 velocity=113 time=21
note_on channel=4 note=70 velocity=123 time=0
note_on channel=7 note=32 velocity=114 time=0
note_on channel=7 note=44 velocity=114 time=0
note_on channel=7 note=56 velocity=114 time=0
note_on channel=7 note=60 velocity=114 time=0
note_on channel=7 note=63 velocity=114 time=0
note_on channel=8 note=44 velocity=104 time=0
note_on channel=9 note=35 velocity=95 time=0
note_on channel=9 note=40 velocity=98 time=0
note_on channel=9 note=43 velocity=106 time=0
note_on channel=10 note=44 velocity=105 time=0
note_on channel=8 note=51 velocity=106 time=11
note_off channel=8 note=44 velocity=0 time=31
note_off channel=8 note=51 velocity=0 time=16
note_off channel=4 note=70 velocity=0 time=38
note_off channel=9 note=43 velocity=0 time=19
note_on channel=4 note=70 velocity=123 time=5
note_off channel=9 note=40 velocity=0 time=10
note_off channel=9 note=35 velocity=0 time=18
note_off channel=4 note=70 velocity=0 time=68
note_off channel=1 note=32 velocity=0 time=3
note_off channel=10 note=44 velocity=0 time=0
note_on channel=1 note=32 velocity=113 time=21
note_on channel=4 note=70 velocity=116 time=0
note_on channel=8 note=44 velocity=121 time=0
note_on channel=9 note=44 velocity=95 time=0
note_on channel=10 note=44 velocity=105 time=0
note_on channel=8 note=51 velocity=106 time=11
note_off channel=9 note=44 velocity=0 time=17
note_off channel=8 note=44 velocity=0 time=17
note_off channel=8 note=51 velocity=0 time=5
note_off channel=4 note=70 velocity=0 time=151
note_off channel=1 note=32 velocity=0 time=18
note_off channel=10 note=44 velocity=0 time=0
note_on channel=1 note=32 velocity=118 time=21
note_on channel=4 note=72 velocity=127 time=0
note_on channel=8 note=44 velocity=89 time=0
note_on channel=9 note=35 velocity=95 time=0
note_on channel=9 note=40 velocity=95 time=0
note_on channel=9 note=43 velocity=106 time=0
note_on channel=10 note=44 velocity=110 time=0
note_on channel=8 note=51 velocity=93 time=11
note_off channel=8 note=44 velocity=0 time=22
note_off channel=8 note=51 velocity=0 time=12
note_off channel=9 note=43 velocity=0 time=96
note_off channel=4 note=72 velocity=0 time=4
note_off channel=9 note=35 velocity=0 time=3
note_off channel=9 note=40 velocity=0 time=0
note_off channel=1 note=32 velocity=0 time=71
note_off channel=10 note=44 velocity=0 time=0
note_on channel=1 note=32 velocity=113 time=0
note_on channel=3 note=75 velocity=123 time=0
note_on channel=4 note=72 velocity=127 time=0
note_on channel=8 note=44 velocity=108 time=0
note_on channel=9 note=44 velocity=95 time=0
note_on channel=10 note=44 velocity=105 time=0
note_on channel=8 note=51 velocity=93 time=11
note_off channel=9 note=44 velocity=0 time=17
note_off channel=8 note=44 velocity=0 time=12
note_off channel=8 note=51 velocity=0 time=12
note_off channel=4 note=72 velocity=0 time=21
note_off channel=3 note=75 velocity=0 time=37
note_on channel=4 note=70 velocity=123 time=10
note_off channel=1 note=32 velocity=0 time=99
note_off channel=10 note=44 velocity=0 time=0
note_on channel=1 note=32 velocity=113 time=21
note_on channel=8 note=44 velocity=93 time=0
note_on channel=9 note=35 velocity=95 time=0
note_on channel=9 note=40 velocity=98 time=0
note_on channel=9 note=43 velocity=102 time=0
note_on channel=10 note=44 velocity=105 time=0
note_on channel=8 note=51 velocity=81 time=11
note_on channel=3 note=78 velocity=127 time=0
note_off channel=4 note=70 velocity=0 time=10
note_off channel=8 note=44 velocity=0 time=8
note_off channel=8 note=51 velocity=0 time=11
pitchwheel channel=3 pitch=520 time=60
note_off channel=9 note=43 velocity=0 time=4
pitchwheel channel=3 pitch=910 time=10
note_off channel=9 note=40 velocity=0 time=12
pitchwheel channel=3 pitch=1300 time=6
note_off channel=9 note=35 velocity=0 time=7
pitchwheel channel=3 pitch=1560 time=5
pitchwheel channel=3 pitch=1690 time=10
pitchwheel channel=3 pitch=1950 time=20
note_off channel=1 note=32 velocity=0 time=36
note_off channel=10 note=44 velocity=0 time=0
note_on channel=1 note=32 velocity=118 time=21
note_on channel=8 note=44 velocity=116 time=0
note_on channel=9 note=44 velocity=95 time=0
note_on channel=10 note=44 velocity=110 time=0
note_on channel=8 note=51 velocity=93 time=11
pitchwheel channel=3 pitch=2340 time=1
pitchwheel channel=3 pitch=2730 time=13
note_off channel=9 note=44 velocity=0 time=3
pitchwheel channel=3 pitch=3380 time=13
note_off channel=8 note=44 velocity=0 time=4
pitchwheel channel=3 pitch=3770 time=8
note_off channel=8 note=51 velocity=0 time=1
pitchwheel channel=3 pitch=4290 time=12
pitchwheel channel=3 pitch=4420 time=12
pitchwheel channel=3 pitch=4680 time=34
note_off channel=3 note=78 velocity=0 time=27
pitchwheel channel=3 pitch=4420 time=23
pitchwheel channel=3 pitch=3770 time=15
pitchwheel channel=3 pitch=3250 time=10
pitchwheel channel=3 pitch=2470 time=12
pitchwheel channel=3 pitch=1560 time=10
note_off channel=1 note=32 velocity=0 time=10
note_off channel=10 note=44 velocity=0 time=0
pitchwheel channel=3 pitch=260 time=4
note_on channel=3 note=78 velocity=127 time=0
note_on channel=1 note=32 velocity=113 time=4
note_on channel=8 note=44 velocity=121 time=0
note_on channel=9 note=35 velocity=95 time=0
note_on channel=9 note=40 velocity=98 time=0
note_on channel=9 note=43 velocity=106 time=0
note_on channel=10 note=44 velocity=105 time=0
note_on channel=8 note=51 velocity=101 time=11
note_off channel=8 note=44 velocity=0 time=34
note_off channel=8 note=51 velocity=0 time=5
pitchwheel channel=3 pitch=780 time=69
pitchwheel channel=3 pitch=1170 time=13
pitchwheel channel=3 pitch=1560 time=15
note_off channel=9 note=35 velocity=0 time=1
note_off channel=9 note=43 velocity=0 time=7
pitchwheel channel=3 pitch=1820 time=7
note_off channel=9 note=40 velocity=0 time=10
note_off channel=1 note=32 velocity=0 time=47
note_off channel=10 note=44 velocity=0 time=0
note_on channel=1 note=32 velocity=118 time=21
note_on channel=8 note=44 velocity=121 time=0
note_on channel=9 note=44 velocity=95 time=0
note_on channel=10 note=44 velocity=110 time=0
note_on channel=8 note=51 velocity=93 time=11
note_off channel=9 note=44 velocity=0 time=17
pitchwheel channel=3 pitch=1950 time=2
note_off channel=8 note=44 velocity=0 time=16
note_off channel=8 note=51 velocity=0 time=3
pitchwheel channel=3 pitch=2210 time=18
note_off channel=7 note=32 velocity=0 time=32
note_off channel=7 note=44 velocity=0 time=0
note_off channel=7 note=56 velocity=0 time=0
note_off channel=7 note=60 velocity=0 time=0
note_off channel=7 note=63 velocity=0 time=0
pitchwheel channel=3 pitch=2340 time=5
note_on channel=9 note=44 velocity=95 time=16
pitchwheel channel=3 pitch=2600 time=1
pitchwheel channel=3 pitch=2730 time=10
note_off channel=9 note=44 velocity=0 time=17
pitchwheel channel=3 pitch=3250 time=3
pitchwheel channel=3 pitch=3380 time=10
note_off channel=3 note=78 velocity=0 time=8
pitchwheel channel=3 pitch=3770 time=10
pitchwheel channel=3 pitch=4290 time=17
pitchwheel channel=3 pitch=4680 time=17
note_off channel=1 note=32 velocity=0 time=6
note_off channel=10 note=44 velocity=0 time=0
note_on channel=1 note=34 velocity=113 time=21
note_on channel=4 note=70 velocity=116 time=0
note_on channel=7 note=34 velocity=114 time=0
note_on channel=7 note=46 velocity=114 time=0
note_on channel=7 note=58 velocity=114 time=0
note_on channel=7 note=62 velocity=114 time=0
note_on channel=7 note=65 velocity=114 time=0
note_on channel=8 note=46 velocity=104 time=0
note_on channel=9 note=35 velocity=95 time=0
note_on channel=9 note=40 velocity=98 time=0
note_on channel=9 note=43 velocity=106 time=0
note_on channel=10 note=46 velocity=105 time=0
note_on channel=3 note=78 velocity=127 time=0
note_on channel=8 note=53 velocity=106 time=0
pitchwheel channel=3 pitch=3900 time=12
pitchwheel channel=3 pitch=2080 time=12
note_off channel=8 note=46 velocity=0 time=7
pitchwheel channel=3 pitch=260 time=3
note_off channel=8 note=53 velocity=0 time=13
note_off channel=4 note=70 velocity=0 time=21
note_off channel=9 note=43 velocity=0 time=36
note_on channel=4 note=70 velocity=101 time=5
note_off channel=9 note=40 velocity=0 time=10
note_off channel=3 note=78 velocity=0 time=12
note_off channel=9 note=35 velocity=0 time=6
note_on channel=3 note=75 velocity=116 time=8
note_off channel=4 note=70 velocity=0 time=2
note_off channel=1 note=34 velocity=0 time=61
note_off channel=10 note=46 velocity=0 time=0
note_on channel=1 note=34 velocity=113 time=21
note_on channel=4 note=70 velocity=123 time=0
note_on channel=8 note=46 velocity=121 time=0
note_on channel=9 note=44 velocity=95 time=0
note_on channel=10 note=46 velocity=105 time=0
note_off channel=3 note=75 velocity=0 time=5
note_on channel=8 note=53 velocity=106 time=6
note_off channel=9 note=44 velocity=0 time=17
note_on channel=3 note=72 velocity=115 time=8
note_off channel=8 note=46 velocity=0 time=9
note_off channel=8 note=53 velocity=0 time=5
note_off channel=4 note=70 velocity=0 time=50
note_off channel=3 note=72 velocity=0 time=69
note_off channel=1 note=34 velocity=0 time=50
note_off channel=10 note=46 velocity=0 time=0
note_on channel=1 note=34 velocity=118 time=21
note_on channel=4 note=72 velocity=127 time=0
note_on channel=8 note=46 velocity=89 time=0
note_on channel=9 note=35 velocity=95 time=0
note_on channel=9 note=40 velocity=95 time=0
note_on channel=9 note=43 velocity=106 time=0
note_on channel=10 note=46 velocity=110 time=0
note_on channel=8 note=53 velocity=93 time=11
note_off channel=8 note=46 velocity=0 time=22
note_on channel=3 note=75 velocity=120 time=0
note_off channel=8 note=53 velocity=0 time=9
note_off channel=9 note=43 velocity=0 time=96
note_off channel=9 note=35 velocity=0 time=7
note_off channel=9 note=40 velocity=0 time=0
note_off channel=4 note=72 velocity=0 time=24
note_off channel=3 note=75 velocity=0 time=14
note_off channel=1 note=34 velocity=0 time=33
note_off channel=10 note=46 velocity=0 time=0
note_on channel=1 note=34 velocity=113 time=21
note_on channel=4 note=72 velocity=125 time=0
note_on channel=8 note=46 velocity=108 time=0
note_on channel=9 note=44 velocity=95 time=0
note_on channel=10 note=46 velocity=105 time=0
note_on channel=8 note=53 velocity=93 time=11
note_on channel=3 note=75 velocity=127 time=0
note_off channel=9 note=44 velocity=0 time=6
note_off channel=8 note=46 velocity=0 time=12
note_off channel=8 note=53 velocity=0 time=12
note_off channel=4 note=72 velocity=0 time=42
note_on channel=4 note=70 velocity=127 time=26
note_off channel=3 note=75 velocity=0 time=22
note_off channel=1 note=34 velocity=0 time=77
note_off channel=10 note=46 velocity=0 time=0
note_on channel=1 note=34 velocity=113 time=21
note_on channel=8 note=46 velocity=93 time=0
note_on channel=9 note=35 velocity=95 time=0
note_on channel=9 note=40 velocity=98 time=0
note_on channel=9 note=43 velocity=102 time=0
note_on channel=10 note=46 velocity=105 time=0
note_on channel=8 note=53 velocity=81 time=11
note_on channel=3 note=78 velocity=127 time=0
note_off channel=8 note=46 velocity=0 time=11
note_off channel=8 note=53 velocity=0 time=11
note_off channel=4 note=70 velocity=0 time=47
note_off channel=9 note=43 velocity=0 time=17
pitchwheel channel=3 pitch=390 time=4
pitchwheel channel=3 pitch=910 time=14
note_off channel=9 note=40 velocity=0 time=4
pitchwheel channel=3 pitch=1300 time=11
note_off channel=9 note=35 velocity=0 time=2
pitchwheel channel=3 pitch=1430 time=8
pitchwheel channel=3 pitch=1690 time=15
note_off channel=1 note=34 velocity=0 time=48
note_off channel=10 note=46 velocity=0 time=0
pitchwheel channel=3 pitch=1820 time=4
note_on channel=1 note=34 velocity=118 time=17
note_on channel=8 note=46 velocity=116 time=0
note_on channel=9 note=44 velocity=95 time=0
note_on channel=10 note=46 velocity=110 time=0
pitchwheel channel=3 pitch=2080 time=2
note_on channel=8 note=53 velocity=93 time=9
pitchwheel channel=3 pitch=0 time=1
pitchwheel channel=3 pitch=2340 time=1
note_off channel=9 note=44 velocity=0 time=15
pitchwheel channel=3 pitch=2470 time=0
note_off channel=8 note=46 velocity=0 time=17
pitchwheel channel=3 pitch=2730 time=4
note_off channel=8 note=53 velocity=0 time=5
pitchwheel channel=3 pitch=2860 time=8
pitchwheel channel=3 pitch=3380 time=19
pitchwheel channel=3 pitch=3770 time=18
pitchwheel channel=3 pitch=3900 time=10
note_off channel=3 note=78 velocity=0 time=26
pitchwheel channel=3 pitch=3510 time=38
pitchwheel channel=3 pitch=2990 time=10
pitchwheel channel=3 pitch=2080 time=10
pitchwheel channel=3 pitch=1170 time=12
pitchwheel channel=3 pitch=260 time=10
note_off channel=1 note=34 velocity=0 time=4
note_off channel=7 note=34 velocity=0 time=0
note_off channel=7 note=46 velocity=0 time=0
note_off channel=7 note=58 velocity=0 time=0
note_off channel=7 note=62 velocity=0 time=0
note_off channel=7 note=65 velocity=0 time=0
note_off channel=10 note=46 velocity=0 time=0
note_on channel=3 note=78 velocity=123 time=0
note_on channel=1 note=34 velocity=113 time=1
note_on channel=7 note=34 velocity=114 time=0
note_on channel=7 note=46 velocity=114 time=0
note_on channel=7 note=58 velocity=114 time=0
note_on channel=7 note=62 velocity=114 time=0
note_on channel=7 note=65 velocity=114 time=0
note_on channel=8 note=46 velocity=121 time=0
note_on channel=9 note=35 velocity=95 time=0
note_on channel=9 note=40 velocity=98 time=0
note_on channel=9 note=43 velocity=106 time=0
note_on channel=10 note=46 velocity=105 time=0
note_on channel=8 note=53 velocity=101 time=11
note_off channel=8 note=46 velocity=0 time=34
note_off channel=8 note=53 velocity=0 time=5
pitchwheel channel=3 pitch=520 time=24
pitchwheel channel=3 pitch=910 time=17
pitchwheel channel=3 pitch=1040 time=15
pitchwheel channel=3 pitch=1300 time=10
pitchwheel channel=3 pitch=1560 time=10
pitchwheel channel=3 pitch=1690 time=14
note_off channel=9 note=35 velocity=0 time=8
note_off channel=9 note=43 velocity=0 time=7
note_off channel=9 note=40 velocity=0 time=17
pitchwheel channel=3 pitch=1950 time=23
pitchwheel channel=3 pitch=2080 time=15
note_off channel=1 note=34 velocity=0 time=9
note_off channel=10 note=46 velocity=0 time=0
pitchwheel channel=3 pitch=2340 time=3
note_on channel=1 note=34 velocity=118 time=18
note_on channel=8 note=46 velocity=121 time=0
note_on channel=9 note=46 velocity=95 time=0
note_on channel=10 note=46 velocity=110 time=0
pitchwheel channel=3 pitch=2730 time=0
note_on channel=8 note=53 velocity=93 time=11
pitchwheel channel=3 pitch=3120 time=6
note_off channel=9 note=46 velocity=0 time=11
pitchwheel channel=3 pitch=3380 time=1
note_off channel=8 note=46 velocity=0 time=17
note_off channel=8 note=53 velocity=0 time=3
note_off channel=3 note=78 velocity=0 time=113
pitchwheel channel=3 pitch=2730 time=19
pitchwheel channel=3 pitch=1690 time=11
pitchwheel channel=3 pitch=390 time=11
note_off channel=1 note=34 velocity=0 time=16
note_off channel=10 note=46 velocity=0 time=0
note_off channel=7 note=34 velocity=0 time=15
note_off channel=7 note=46 velocity=0 time=0
note_off channel=7 note=58 velocity=0 time=0
note_off channel=7 note=62 velocity=0 time=0
note_off channel=7 note=65 velocity=0 time=0
note_on channel=1 note=31 velocity=113 time=6
note_on channel=4 note=70 velocity=123 time=0
note_on channel=7 note=31 velocity=114 time=0
note_on channel=7 note=43 velocity=114 time=0
note_on channel=7 note=55 velocity=114 time=0
note_on channel=7 note=58 velocity=114 time=0
note_on channel=7 note=62 velocity=114 time=0
note_on channel=8 note=43 velocity=104 time=0
note_on channel=9 note=35 velocity=95 time=0
note_on channel=9 note=40 velocity=98 time=0
note_on channel=9 note=43 velocity=106 time=0
note_on channel=10 note=43 velocity=105 time=0
note_on channel=3 note=78 velocity=127 time=0
note_on channel=8 note=50 velocity=106 time=1
pitchwheel channel=3 pitch=650 time=12
pitchwheel channel=3 pitch=2080 time=10
note_off channel=8 note=43 velocity=0 time=9
pitchwheel channel=3 pitch=3770 time=1
pitchwheel channel=3 pitch=5330 time=10
note_off channel=8 note=50 velocity=0 time=5
pitchwheel channel=3 pitch=6370 time=5
pitchwheel channel=3 pitch=6110 time=21
pitchwheel channel=3 pitch=3770 time=10
note_off channel=4 note=70 velocity=0 time=2
pitchwheel channel=3 pitch=0 time=8
note_off channel=9 note=43 velocity=0 time=11
note_on channel=4 note=70 velocity=123 time=5
note_off channel=9 note=40 velocity=0 time=10
note_off channel=9 note=35 velocity=0 time=18
note_off channel=3 note=78 velocity=0 time=10
note_on channel=3 note=75 velocity=111 time=18
note_off channel=4 note=70 velocity=0 time=40
note_off channel=1 note=31 velocity=0 time=3
note_off channel=10 note=43 velocity=0 time=0
note_on channel=1 note=31 velocity=113 time=21
note_on channel=4 note=70 velocity=116 time=0
note_on channel=8 note=43 velocity=121 time=0
note_on channel=9 note=44 velocity=95 time=0
note_on channel=10 note=43 velocity=105 time=0
note_on channel=8 note=50 velocity=106 time=11
note_off channel=9 note=44 velocity=0 time=17
note_on channel=3 note=72 velocity=102 time=10
note_off channel=3 note=75 velocity=0 time=5
note_off channel=8 note=43 velocity=0 time=2
note_off channel=8 note=50 velocity=0 time=5
note_off channel=3 note=72 velocity=0 time=148
note_off channel=4 note=70 velocity=0 time=3
note_off channel=1 note=31 velocity=0 time=18
note_off channel=10 note=43 velocity=0 time=0
note_on channel=1 note=31 velocity=118 time=21
note_on channel=4 note=72 velocity=127 time=0
note_on channel=8 note=43 velocity=89 time=0
note_on channel=9 note=35 velocity=95 time=0
note_on channel=9 note=40 velocity=95 time=0
note_on channel=9 note=43 velocity=106 time=0
note_on channel=10 note=43 velocity=110 time=0
note_on channel=8 note=50 velocity=93 time=11
note_off channel=8 note=43 velocity=0 time=22
note_off channel=8 note=50 velocity=0 time=0
note_on channel=3 note=75 velocity=120 time=0
note_off channel=9 note=43 velocity=0 time=96
note_off channel=4 note=72 velocity=0 time=4
note_off channel=9 note=35 velocity=0 time=3
note_off channel=9 note=40 velocity=0 time=0
note_off channel=3 note=75 velocity=0 time=44
note_off channel=1 note=31 velocity=0 time=27
note_off channel=10 note=43 velocity=0 time=0
note_on channel=1 note=31 velocity=113 time=21
note_on channel=4 note=72 velocity=127 time=0
note_on channel=8 note=43 velocity=108 time=0
note_on channel=9 note=44 velocity=95 time=0
note_on channel=10 note=43 velocity=105 time=0
note_on channel=8 note=50 velocity=93 time=11
note_on channel=3 note=75 velocity=127 time=0
note_off channel=9 note=44 velocity=0 time=15
note_off channel=8 note=43 velocity=0 time=12
note_off channel=8 note=50 velocity=0 time=12
note_off channel=4 note=72 velocity=0 time=21
note_on channel=4 note=70 velocity=123 time=47
note_off channel=3 note=75 velocity=0 time=3
note_off channel=1 note=31 velocity=0 time=96
note_off channel=10 note=43 velocity=0 time=0
note_on channel=1 note=31 velocity=113 time=21
note_on channel=8 note=43 velocity=93 time=0
note_on channel=9 note=35 velocity=95 time=0
note_on channel=9 note=40 velocity=98 time=0
note_on channel=9 note=43 velocity=102 time=0
note_on channel=10 note=43 velocity=105 time=0
note_on channel=3 note=78 velocity=123 time=0
note_on channel=8 note=50 velocity=81 time=0
note_off channel=4 note=70 velocity=0 time=19
note_off channel=8 note=43 velocity=0 time=8
note_off channel=8 note=50 velocity=0 time=11
pitchwheel channel=3 pitch=130 time=26
pitchwheel channel=3 pitch=390 time=28
note_off channel=9 note=43 velocity=0 time=10
pitchwheel channel=3 pitch=780 time=7
note_off channel=9 note=40 velocity=0 time=15
pitchwheel channel=3 pitch=1170 time=0
note_off channel=9 note=35 velocity=0 time=13
pitchwheel channel=3 pitch=1690 time=2
pitchwheel channel=3 pitch=2080 time=19
pitchwheel channel=3 pitch=2210 time=10
note_off channel=1 note=31 velocity=0 time=40
note_off channel=10 note=43 velocity=0 time=0
pitchwheel channel=3 pitch=2470 time=2
note_on channel=1 note=31 velocity=118 time=19
note_on channel=8 note=43 velocity=116 time=0
note_on channel=9 note=44 velocity=95 time=0
note_on channel=10 note=43 velocity=110 time=0
note_on channel=8 note=50 velocity=93 time=11
pitchwheel channel=3 pitch=2860 time=0
note_off channel=9 note=44 velocity=0 time=17
pitchwheel channel=3 pitch=3250 time=2
note_off channel=8 note=43 velocity=0 time=15
pitchwheel channel=3 pitch=3770 time=0
note_off channel=8 note=50 velocity=0 time=9
pitchwheel channel=3 pitch=4160 time=3
pitchwheel channel=3 pitch=4550 time=11
pitchwheel channel=3 pitch=5200 time=16
pitchwheel channel=3 pitch=5590 time=12
note_off channel=3 note=78 velocity=0 time=40
pitchwheel channel=3 pitch=5460 time=22
pitchwheel channel=3 pitch=4680 time=14
pitchwheel channel=3 pitch=3770 time=11
pitchwheel channel=3 pitch=2860 time=12
pitchwheel channel=3 pitch=1820 time=10
note_off channel=1 note=31 velocity=0 time=14
note_off channel=10 note=43 velocity=0 time=0
pitchwheel channel=3 pitch=390 time=0
note_on channel=1 note=31 velocity=113 time=21
note_on channel=8 note=43 velocity=121 time=0
note_on channel=9 note=35 velocity=95 time=0
note_on channel=9 note=40 velocity=98 time=0
note_on channel=9 note=43 velocity=106 time=0
note_on channel=10 note=43 velocity=105 time=0
note_on channel=3 note=78 velocity=127 time=0
note_on channel=8 note=50 velocity=101 time=4
note_off channel=8 note=43 velocity=0 time=34
note_off channel=8 note=50 velocity=0 time=5
pitchwheel channel=3 pitch=520 time=66
pitchwheel channel=3 pitch=910 time=14
pitchwheel channel=3 pitch=1430 time=13
note_off channel=9 note=35 velocity=0 time=5
note_off channel=9 note=43 velocity=0 time=7
pitchwheel channel=3 pitch=1820 time=2
pitchwheel channel=3 pitch=1950 time=10
note_off channel=9 note=40 velocity=0 time=5
pitchwheel channel=3 pitch=2210 time=10
note_off channel=1 note=31 velocity=0 time=37
note_off channel=10 note=43 velocity=0 time=0
note_on channel=1 note=31 velocity=118 time=21
note_on channel=8 note=43 velocity=121 time=0
note_on channel=9 note=44 velocity=95 time=0
note_on channel=10 note=43 velocity=110 time=0
pitchwheel channel=3 pitch=2470 time=7
note_on channel=8 note=50 velocity=93 time=4
pitchwheel channel=3 pitch=2600 time=8
note_off channel=9 note=44 velocity=0 time=9
pitchwheel channel=3 pitch=2860 time=1
pitchwheel channel=3 pitch=2990 time=10
note_off channel=8 note=43 velocity=0 time=7
note_off channel=8 note=50 velocity=0 time=3
pitchwheel channel=3 pitch=3250 time=2
pitchwheel channel=3 pitch=3510 time=17
pitchwheel channel=3 pitch=3640 time=20
pitchwheel channel=3 pitch=3900 time=22
note_on channel=9 note=44 velocity=95 time=10
pitchwheel channel=3 pitch=4030 time=18
note_off channel=9 note=44 velocity=0 time=10
note_off channel=3 note=78 velocity=0 time=5
pitchwheel channel=3 pitch=4290 time=7
pitchwheel channel=3 pitch=4550 time=15
pitchwheel channel=3 pitch=4680 time=10
pitchwheel channel=3 pitch=4940 time=14
note_off channel=1 note=31 velocity=0 time=20
note_off channel=7 note=31 velocity=0 time=0
note_off channel=7 note=43 velocity=0 time=0
note_off channel=7 note=55 velocity=0 time=0
note_off channel=7 note=58 velocity=0 time=0
note_off channel=7 note=62 velocity=0 time=0
note_off channel=10 note=43 velocity=0 time=0
note_on channel=1 note=32 velocity=113 time=0
note_on channel=3 note=77 velocity=123 time=0
note_on channel=4 note=70 velocity=116 time=0
note_on channel=7 note=32 velocity=114 time=0
note_on channel=7 note=44 velocity=114 time=0
note_on channel=7 note=56 velocity=114 time=0
note_on channel=7 note=60 velocity=114 time=0
note_on channel=7 note=63 velocity=114 time=0
note_on channel=8 note=44 velocity=104 time=0
note_on channel=9 note=35 velocity=95 time=0
note_on channel=9 note=40 velocity=98 time=0
note_on channel=9 note=43 velocity=106 time=0
note_on channel=10 note=44 velocity=105 time=0
pitchwheel channel=3 pitch=4420 time=1
note_on channel=8 note=51 velocity=106 time=10
pitchwheel channel=3 pitch=2210 time=2
pitchwheel channel=3 pitch=130 time=10
note_off channel=8 note=44 velocity=0 time=19
note_off channel=8 note=51 velocity=0 time=16
note_off channel=4 note=70 velocity=0 time=21
note_off channel=3 note=77 velocity=0 time=36
note_off channel=9 note=43 velocity=0 time=0
note_on channel=4 note=70 velocity=123 time=5
note_off channel=9 note=40 velocity=0 time=10
note_off channel=9 note=35 velocity=0 time=18
note_off channel=1 note=32 velocity=0 time=71
note_off channel=10 note=44 velocity=0 time=0
note_off channel=4 note=70 velocity=0 time=1
note_on channel=1 note=32 velocity=113 time=0
note_on channel=3 note=75 velocity=111 time=0
note_on channel=4 note=70 velocity=101 time=0
note_on channel=8 note=44 velocity=121 time=0
note_on channel=9 note=44 velocity=95 time=0
note_on channel=10 note=44 velocity=105 time=0
note_on channel=8 note=51 velocity=106 time=11
note_off channel=9 note=44 velocity=0 time=17
note_off channel=4 note=70 velocity=0 time=10
note_off channel=8 note=44 velocity=0 time=7
note_off channel=8 note=51 velocity=0 time=5
note_off channel=3 note=75 velocity=0 time=78
note_off channel=1 note=32 velocity=0 time=91
note_off channel=10 note=44 velocity=0 time=0
note_on channel=1 note=32 velocity=118 time=21
note_on channel=4 note=72 velocity=127 time=0
note_on channel=8 note=44 velocity=89 time=0
note_on channel=9 note=35 velocity=95 time=0
note_on channel=9 note=40 velocity=95 time=0
note_on channel=9 note=43 velocity=106 time=0
note_on channel=10 note=44 velocity=110 time=0
note_on channel=3 note=75 velocity=127 time=0
note_on channel=8 note=51 velocity=93 time=10
note_off channel=8 note=44 velocity=0 time=22
note_off channel=8 note=51 velocity=0 time=12
note_off channel=3 note=75 velocity=0 time=44
note_off channel=9 note=43 velocity=0 time=52
note_off channel=9 note=35 velocity=0 time=7
note_off channel=9 note=40 velocity=0 time=0
note_off channel=4 note=72 velocity=0 time=24
note_off channel=1 note=32 velocity=0 time=47
note_off channel=10 note=44 velocity=0 time=0
note_on channel=3 note=75 velocity=127 time=0
note_on channel=1 note=32 velocity=113 time=1
note_on channel=4 note=72 velocity=125 time=0
note_on channel=8 note=44 velocity=108 time=0
note_on channel=9 note=44 velocity=95 time=0
note_on channel=10 note=44 velocity=105 time=0
note_on channel=8 note=51 velocity=93 time=11
note_off channel=9 note=44 velocity=0 time=17
note_off channel=8 note=44 velocity=0 time=12
note_off channel=8 note=51 velocity=0 time=12
note_off channel=3 note=75 velocity=0 time=34
note_off channel=4 note=72 velocity=0 time=8
note_on channel=4 note=70 velocity=127 time=26
note_off channel=1 note=32 velocity=0 time=99
note_off channel=10 note=44 velocity=0 time=0
note_on channel=3 note=77 velocity=127 time=0
note_on channel=1 note=32 velocity=113 time=12
note_on channel=8 note=44 velocity=93 time=0
note_on channel=9 note=35 velocity=95 time=0
note_on channel=9 note=40 velocity=98 time=0
note_on channel=9 note=43 velocity=102 time=0
note_on channel=10 note=44 velocity=105 time=0
note_on channel=8 note=51 velocity=81 time=11
note_off channel=8 note=44 velocity=0 time=27
note_off channel=8 note=51 velocity=0 time=11
note_off channel=4 note=70 velocity=0 time=47
note_off channel=9 note=43 velocity=0 time=17
note_off channel=9 note=40 velocity=0 time=22
note_off channel=9 note=35 velocity=0 time=13
note_off channel=3 note=77 velocity=0 time=40
note_off channel=1 note=32 velocity=0 time=31
note_off channel=10 note=44 velocity=0 time=0
note_on channel=3 note=75 velocity=123 time=0
note_on channel=1 note=32 velocity=118 time=5
note_on channel=8 note=44 velocity=116 time=0
note_on channel=9 note=44 velocity=95 time=0
note_on channel=10 note=44 velocity=110 time=0
note_on channel=8 note=51 velocity=93 time=11
note_off channel=9 note=44 velocity=0 time=17
note_off channel=8 note=44 velocity=0 time=17
note_off channel=8 note=51 velocity=0 time=9
note_off channel=3 note=75 velocity=0 time=27
note_off channel=1 note=32 velocity=0 time=138
note_off channel=10 note=44 velocity=0 time=0
note_on channel=1 note=32 velocity=113 time=0
note_on channel=3 note=79 velocity=127 time=0
note_on channel=8 note=44 velocity=121 time=0
note_on channel=9 note=35 velocity=95 time=0
note_on channel=9 note=40 velocity=98 time=0
note_on channel=9 note=43 velocity=106 time=0
note_on channel=10 note=44 velocity=105 time=0
note_on channel=8 note=51 velocity=101 time=11
note_off channel=8 note=44 velocity=0 time=34
note_off channel=8 note=51 velocity=0 time=5
note_off channel=9 note=35 velocity=0 time=98
note_off channel=9 note=43 velocity=0 time=7
note_off channel=9 note=40 velocity=0 time=17
note_off channel=3 note=79 velocity=0 time=28
note_off channel=1 note=32 velocity=0 time=19
note_off channel=10 note=44 velocity=0 time=0
note_off channel=7 note=32 velocity=0 time=15
note_off channel=7 note=44 velocity=0 time=0
note_off channel=7 note=56 velocity=0 time=0
note_off channel=7 note=60 velocity=0 time=0
note_off channel=7 note=63 velocity=0 time=0
note_on channel=1 note=32 velocity=118 time=0
note_on channel=3 note=75 velocity=127 time=0
note_on channel=7 note=58 velocity=114 time=0
note_on channel=7 note=61 velocity=114 time=0
note_on channel=7 note=65 velocity=114 time=0
note_on channel=8 note=44 velocity=121 time=0
note_on channel=9 note=46 velocity=95 time=0
note_on channel=10 note=44 velocity=110 time=0
note_on channel=8 note=51 velocity=93 time=11
note_off channel=9 note=46 velocity=0 time=17
note_off channel=8 note=44 velocity=0 time=18
note_off channel=8 note=51 velocity=0 time=3
note_off channel=3 note=75 velocity=0 time=151
note_off channel=1 note=32 velocity=0 time=19
note_off channel=7 note=58 velocity=0 time=0
note_off channel=7 note=61 velocity=0 time=0
note_off channel=7 note=65 velocity=0 time=0
note_off channel=10 note=44 velocity=0 time=0
note_on channel=1 note=32 velocity=113 time=0
note_on channel=3 note=75 velocity=127 time=0
note_on channel=4 note=70 velocity=123 time=0
note_on channel=7 note=32 velocity=114 time=0
note_on channel=7 note=44 velocity=114 time=0
note_on channel=7 note=56 velocity=114 time=0
note_on channel=7 note=60 velocity=114 time=0
note_on channel=7 note=63 velocity=114 time=0
note_on channel=8 note=44 velocity=104 time=0
note_on channel=9 note=35 velocity=95 time=0
note_on channel=9 note=40 velocity=98 time=0
note_on channel=9 note=43 velocity=106 time=0
note_on channel=10 note=44 velocity=105 time=0
note_on channel=8 note=51 velocity=106 time=11
note_off channel=8 note=44 velocity=0 time=31
note_off channel=8 note=51 velocity=0 time=16
note_off channel=4 note=70 velocity=0 time=38
note_off channel=9 note=43 velocity=0 time=19
note_on channel=4 note=70 velocity=123 time=5
note_off channel=9 note=40 velocity=0 time=10
note_off channel=9 note=35 velocity=0 time=18
note_off channel=4 note=70 velocity=0 time=68
note_off channel=1 note=32 velocity=0 time=3
note_off channel=10 note=44 velocity=0 time=0
note_on channel=1 note=32 velocity=113 time=21
note_on channel=4 note=70 velocity=116 time=0
note_on channel=8 note=44 velocity=121 time=0
note_on channel=9 note=44 velocity=95 time=0
note_on channel=10 note=44 velocity=105 time=0
note_on channel=8 note=51 velocity=106 time=11
note_off channel=9 note=44 velocity=0 time=17
note_off channel=8 note=44 velocity=0 time=17
note_off channel=8 note=51 velocity=0 time=5
note_off channel=3 note=75 velocity=0 time=150
note_off channel=4 note=70 velocity=0 time=1
note_off channel=1 note=32 velocity=0 time=18
note_off channel=10 note=44 velocity=0 time=0
note_on channel=1 note=32 velocity=118 time=21
note_on channel=4 note=72 velocity=127 time=0
note_on channel=8 note=44 velocity=89 time=0
note_on channel=9 note=35 velocity=95 time=0
note_on channel=9 note=40 velocity=95 time=0
note_on channel=9 note=43 velocity=106 time=0
note_on channel=10 note=44 velocity=110 time=0
note_on channel=8 note=51 velocity=93 time=11
note_off channel=8 note=44 velocity=0 time=22
note_off channel=8 note=51 velocity=0 time=12
note_off channel=9 note=43 velocity=0 time=96
note_off channel=4 note=72 velocity=0 time=4
note_off channel=9 note=35 velocity=0 time=3
note_off channel=9 note=40 velocity=0 time=0
note_off channel=1 note=32 velocity=0 time=71
note_off channel=10 note=44 velocity=0 time=0
note_on channel=1 note=32 velocity=113 time=0
note_on channel=3 note=75 velocity=123 time=0
note_on channel=4 note=72 velocity=127 time=0
note_on channel=8 note=44 velocity=108 time=0
note_on channel=9 note=44 velocity=95 time=0
note_on channel=10 note=44 velocity=105 time=0
note_on channel=8 note=51 velocity=93 time=11
note_off channel=9 note=44 velocity=0 time=17
note_off channel=8 note=44 velocity=0 time=12
note_off channel=8 note=51 velocity=0 time=12
note_off channel=4 note=72 velocity=0 time=21
note_off channel=3 note=75 velocity=0 time=37
note_on channel=4 note=70 velocity=123 time=10
note_off channel=1 note=32 velocity=0 time=99
note_off channel=7 note=32 velocity=0 time=0
note_off channel=7 note=44 velocity=0 time=0
note_off channel=7 note=56 velocity=0 time=0
note_off channel=7 note=60 velocity=0 time=0
note_off channel=7 note=63 velocity=0 time=0
note_off channel=10 note=44 velocity=0 time=0
note_on channel=1 note=32 velocity=113 time=21
note_on channel=7 note=32 velocity=114 time=0
note_on channel=7 note=44 velocity=114 time=0
note_on channel=7 note=56 velocity=114 time=0
note_on channel=7 note=60 velocity=114 time=0
note_on channel=7 note=63 velocity=114 time=0
note_on channel=8 note=44 velocity=93 time=0
note_on channel=9 note=35 velocity=95 time=0
note_on channel=9 note=40 velocity=98 time=0
note_on channel=9 note=43 velocity=102 time=0
note_on channel=10 note=44 velocity=105 time=0
note_on channel=8 note=51 velocity=81 time=11
note_on channel=3 note=78 velocity=127 time=0
note_off channel=4 note=70 velocity=0 time=10
note_off channel=8 note=44 velocity=0 time=8
note_off channel=8 note=51 velocity=0 time=11
pitchwheel channel=3 pitch=520 time=60
note_off channel=9 note=43 velocity=0 time=4
pitchwheel channel=3 pitch=910 time=10
note_off channel=9 note=40 velocity=0 time=12
pitchwheel channel=3 pitch=1300 time=6
note_off channel=9 note=35 velocity=0 time=7
pitchwheel channel=3 pitch=1560 time=5
pitchwheel channel=3 pitch=1690 time=10
pitchwheel channel=3 pitch=1950 time=20
note_off channel=1 note=32 velocity=0 time=36
note_off channel=10 note=44 velocity=0 time=0
note_on channel=1 note=32 velocity=118 time=21
note_on channel=8 note=44 velocity=116 time=0
note_on channel=9 note=44 velocity=95 time=0
note_on channel=10 note=44 velocity=110 time=0
note_on channel=8 note=51 velocity=93 time=11
pitchwheel channel=3 pitch=2340 time=1
pitchwheel channel=3 pitch=2730 time=13
note_off channel=9 note=44 velocity=0 time=3
pitchwheel channel=3 pitch=3380 time=13
note_off channel=8 note=44 velocity=0 time=4
pitchwheel channel=3 pitch=3770 time=8
note_off channel=8 note=51 velocity=0 time=1
pitchwheel channel=3 pitch=4290 time=12
pitchwheel channel=3 pitch=4420 time=12
pitchwheel channel=3 pitch=4680 time=34
note_off channel=3 note=78 velocity=0 time=27
pitchwheel channel=3 pitch=4420 time=23
pitchwheel channel=3 pitch=3770 time=15
pitchwheel channel=3 pitch=3250 time=10
pitchwheel channel=3 pitch=2470 time=12
pitchwheel channel=3 pitch=1560 time=10
note_off channel=1 note=32 velocity=0 time=10
note_off channel=10 note=44 velocity=0 time=0
pitchwheel channel=3 pitch=260 time=4
note_on channel=3 note=78 velocity=127 time=0
note_on channel=1 note=32 velocity=113 time=4
note_on channel=8 note=44 velocity=121 time=0
note_on channel=9 note=35 velocity=95 time=0
note_on channel=9 note=40 velocity=98 time=0
note_on channel=9 note=43 velocity=106 time=0
note_on channel=10 note=44 velocity=105 time=0
note_on channel=8 note=51 velocity=101 time=11
note_off channel=8 note=44 velocity=0 time=34
note_off channel=8 note=51 velocity=0 time=5
note_off channel=7 note=32 velocity=0 time=49
note_off channel=7 note=44 velocity=0 time=0
note_off channel=7 note=56 velocity=0 time=0
note_off channel=7 note=60 velocity=0 time=0
note_off channel=7 note=63 velocity=0 time=0
pitchwheel channel=3 pitch=780 time=20
pitchwheel channel=3 pitch=1170 time=13
pitchwheel channel=3 pitch=1560 time=15
note_off channel=9 note=35 velocity=0 time=1
note_off channel=9 note=43 velocity=0 time=7
pitchwheel channel=3 pitch=1820 time=7
note_off channel=9 note=40 velocity=0 time=10
note_off channel=1 note=32 velocity=0 time=47
note_off channel=10 note=44 velocity=0 time=0
note_on channel=1 note=32 velocity=118 time=21
note_on channel=7 note=56 velocity=105 time=0
note_on channel=7 note=60 velocity=127 time=0
note_on channel=7 note=63 velocity=123 time=0
note_on channel=8 note=44 velocity=121 time=0
note_on channel=9 note=44 velocity=95 time=0
note_on channel=10 note=44 velocity=110 time=0
note_on channel=8 note=51 velocity=93 time=11
note_off channel=9 note=44 velocity=0 time=17
pitchwheel channel=3 pitch=1950 time=2
note_off channel=8 note=44 velocity=0 time=16
note_off channel=8 note=51 velocity=0 time=3
pitchwheel channel=3 pitch=2210 time=18
pitchwheel channel=3 pitch=2340 time=37
note_on channel=7 note=44 velocity=127 time=16
note_on channel=9 note=44 velocity=95 time=0
pitchwheel channel=3 pitch=2600 time=1
pitchwheel channel=3 pitch=2730 time=10
note_off channel=9 note=44 velocity=0 time=17
pitchwheel channel=3 pitch=3250 time=3
note_off channel=7 note=60 velocity=0 time=9
pitchwheel channel=3 pitch=3380 time=1
note_off channel=7 note=63 velocity=0 time=7
note_off channel=3 note=78 velocity=0 time=1
note_off channel=7 note=56 velocity=0 time=5
pitchwheel channel=3 pitch=3770 time=5
pitchwheel channel=3 pitch=4290 time=17
pitchwheel channel=3 pitch=4680 time=17
note_off channel=1 note=32 velocity=0 time=6
note_off channel=10 note=44 velocity=0 time=0
note_off channel=7 note=44 velocity=0 time=6
note_on channel=1 note=34 velocity=113 time=15
note_on channel=4 note=70 velocity=116 time=0
note_on channel=7 note=34 velocity=114 time=0
note_on channel=7 note=46 velocity=114 time=0
note_on channel=7 note=58 velocity=114 time=0
note_on channel=7 note=62 velocity=114 time=0
note_on channel=7 note=65 velocity=114 time=0
note_on channel=8 note=46 velocity=104 time=0
note_on channel=9 note=35 velocity=95 time=0
note_on channel=9 note=40 velocity=98 time=0
note_on channel=9 note=43 velocity=106 time=0
note_on channel=10 note=46 velocity=105 time=0
note_on channel=3 note=78 velocity=127 time=0
note_on channel=8 note=53 velocity=106 time=0
pitchwheel channel=3 pitch=3900 time=12
pitchwheel channel=3 pitch=2080 time=12
note_off channel=8 note=46 velocity=0 time=7
pitchwheel channel=3 pitch=260 time=3
note_off channel=8 note=53 velocity=0 time=13
note_off channel=4 note=70 velocity=0 time=21
note_off channel=9 note=43 velocity=0 time=36
note_on channel=4 note=70 velocity=101 time=5
note_off channel=9 note=40 velocity=0 time=10
note_off channel=3 note=78 velocity=0 time=12
note_off channel=9 note=35 velocity=0 time=6
note_on channel=3 note=75 velocity=116 time=8
note_off channel=4 note=70 velocity=0 time=2
note_off channel=1 note=34 velocity=0 time=61
note_off channel=10 note=46 velocity=0 time=0
note_on channel=1 note=34 velocity=113 time=21
note_on channel=4 note=70 velocity=123 time=0
note_on channel=8 note=46 velocity=121 time=0
note_on channel=9 note=44 velocity=95 time=0
note_on channel=10 note=46 velocity=105 time=0
note_off channel=3 note=75 velocity=0 time=5
note_on channel=8 note=53 velocity=106 time=6
note_off channel=9 note=44 velocity=0 time=17
note_on channel=3 note=72 velocity=115 time=8
note_off channel=8 note=46 velocity=0 time=9
note_off channel=8 note=53 velocity=0 time=5
note_off channel=4 note=70 velocity=0 time=50
note_off channel=3 note=72 velocity=0 time=69
note_off channel=1 note=34 velocity=0 time=50
note_off channel=10 note=46 velocity=0 time=0
note_on channel=1 note=34 velocity=118 time=21
note_on channel=4 note=72 velocity=127 time=0
note_on channel=8 note=46 velocity=89 time=0
note_on channel=9 note=35 velocity=95 time=0
note_on channel=9 note=40 velocity=95 time=0
note_on channel=9 note=43 velocity=106 time=0
note_on channel=10 note=46 velocity=110 time=0
note_on channel=8 note=53 velocity=93 time=11
note_off channel=8 note=46 velocity=0 time=22
note_on channel=3 note=75 velocity=120 time=0
note_off channel=8 note=53 velocity=0 time=9
note_off channel=9 note=43 velocity=0 time=96
note_off channel=9 note=35 velocity=0 time=7
note_off channel=9 note=40 velocity=0 time=0
note_off channel=4 note=72 velocity=0 time=24
note_off channel=3 note=75 velocity=0 time=14
note_off channel=1 note=34 velocity=0 time=33
note_off channel=10 note=46 velocity=0 time=0
note_on channel=1 note=34 velocity=113 time=21
note_on channel=4 note=72 velocity=125 time=0
note_on channel=8 note=46 velocity=108 time=0
note_on channel=9 note=44 velocity=95 time=0
note_on channel=10 note=46 velocity=105 time=0
note_on channel=8 note=53 velocity=93 time=11
note_on channel=3 note=75 velocity=127 time=0
note_off channel=9 note=44 velocity=0 time=6
note_off channel=8 note=46 velocity=0 time=12
note_off channel=8 note=53 velocity=0 time=12
note_off channel=4 note=72 velocity=0 time=42
note_on channel=4 note=70 velocity=127 time=26
note_off channel=3 note=75 velocity=0 time=22
note_off channel=1 note=34 velocity=0 time=77
note_off channel=10 note=46 velocity=0 time=0
note_off channel=7 note=58 velocity=0 time=9
note_off channel=7 note=62 velocity=0 time=6
note_on channel=1 note=34 velocity=113 time=6
note_on channel=7 note=58 velocity=97 time=0
note_on channel=8 note=46 velocity=93 time=0
note_on channel=9 note=35 velocity=95 time=0
note_on channel=9 note=40 velocity=98 time=0
note_on channel=9 note=43 velocity=102 time=0
note_on channel=10 note=46 velocity=105 time=0
note_on channel=8 note=53 velocity=81 time=11
note_on channel=3 note=78 velocity=127 time=0
note_off channel=8 note=46 velocity=0 time=11
note_off channel=8 note=53 velocity=0 time=11
note_off channel=4 note=70 velocity=0 time=47
note_off channel=9 note=43 velocity=0 time=17
pitchwheel channel=3 pitch=390 time=4
pitchwheel channel=3 pitch=910 time=14
note_off channel=9 note=40 velocity=0 time=4
pitchwheel channel=3 pitch=1300 time=11
note_off channel=9 note=35 velocity=0 time=2
pitchwheel channel=3 pitch=1430 time=8
pitchwheel channel=3 pitch=1690 time=15
note_off channel=1 note=34 velocity=0 time=48
note_off channel=10 note=46 velocity=0 time=0
pitchwheel channel=3 pitch=1820 time=4
note_on channel=1 note=34 velocity=118 time=17
note_on channel=7 note=62 velocity=90 time=0
note_on channel=8 note=46 velocity=116 time=0
note_on channel=9 note=44 velocity=95 time=0
note_on channel=10 note=46 velocity=110 time=0
pitchwheel channel=3 pitch=2080 time=2
note_on channel=8 note=53 velocity=93 time=9
pitchwheel channel=3 pitch=0 time=1
pitchwheel channel=3 pitch=2340 time=1
note_off channel=9 note=44 velocity=0 time=15
pitchwheel channel=3 pitch=2470 time=0
note_off channel=8 note=46 velocity=0 time=17
pitchwheel channel=3 pitch=2730 time=4
note_off channel=8 note=53 velocity=0 time=5
pitchwheel channel=3 pitch=2860 time=8
pitchwheel channel=3 pitch=3380 time=19
pitchwheel channel=3 pitch=3770 time=18
pitchwheel channel=3 pitch=3900 time=10
note_off channel=7 note=65 velocity=0 time=5
note_off channel=3 note=78 velocity=0 time=21
pitchwheel channel=3 pitch=3510 time=38
pitchwheel channel=3 pitch=2990 time=10
pitchwheel channel=3 pitch=2080 time=10
pitchwheel channel=3 pitch=1170 time=12
pitchwheel channel=3 pitch=260 time=10
note_off channel=1 note=34 velocity=0 time=4
note_off channel=10 note=46 velocity=0 time=0
note_on channel=3 note=78 velocity=123 time=0
note_on channel=1 note=34 velocity=113 time=1
note_on channel=7 note=65 velocity=102 time=0
note_on channel=8 note=46 velocity=121 time=0
note_on channel=9 note=35 velocity=95 time=0
note_on channel=9 note=40 velocity=98 time=0
note_on channel=9 note=43 velocity=106 time=0
note_on channel=10 note=46 velocity=105 time=0
note_on channel=8 note=53 velocity=101 time=11
note_off channel=8 note=46 velocity=0 time=34
note_off channel=8 note=53 velocity=0 time=5
pitchwheel channel=3 pitch=520 time=24
pitchwheel channel=3 pitch=910 time=17
pitchwheel channel=3 pitch=1040 time=15
pitchwheel channel=3 pitch=1300 time=10
pitchwheel channel=3 pitch=1560 time=10
pitchwheel channel=3 pitch=1690 time=14
note_off channel=9 note=35 velocity=0 time=8
note_off channel=9 note=43 velocity=0 time=7
note_off channel=9 note=40 velocity=0 time=17
pitchwheel channel=3 pitch=1950 time=23
pitchwheel channel=3 pitch=2080 time=15
note_off channel=1 note=34 velocity=0 time=9
note_off channel=7 note=34 velocity=0 time=0
note_off channel=7 note=46 velocity=0 time=0
note_off channel=10 note=46 velocity=0 time=0
pitchwheel channel=3 pitch=2340 time=3
note_on channel=1 note=34 velocity=118 time=18
note_on channel=7 note=70 velocity=127 time=0
note_on channel=8 note=46 velocity=121 time=0
note_on channel=9 note=46 velocity=95 time=0
note_on channel=10 note=46 velocity=110 time=0
pitchwheel channel=3 pitch=2730 time=0
note_on channel=8 note=53 velocity=93 time=11
pitchwheel channel=3 pitch=3120 time=6
note_off channel=9 note=46 velocity=0 time=11
pitchwheel channel=3 pitch=3380 time=1
note_off channel=8 note=46 velocity=0 time=17
note_off channel=8 note=53 velocity=0 time=3
note_off channel=3 note=78 velocity=0 time=113
pitchwheel channel=3 pitch=2730 time=19
pitchwheel channel=3 pitch=1690 time=11
note_off channel=7 note=65 velocity=0 time=10
pitchwheel channel=3 pitch=390 time=1
note_off channel=7 note=70 velocity=0 time=10
note_off channel=1 note=34 velocity=0 time=6
note_off channel=10 note=46 velocity=0 time=0
note_off channel=7 note=62 velocity=0 time=13
note_off channel=7 note=58 velocity=0 time=5
note_on channel=1 note=31 velocity=113 time=3
note_on channel=4 note=70 velocity=123 time=0
note_on channel=7 note=31 velocity=114 time=0
note_on channel=7 note=43 velocity=114 time=0
note_on channel=7 note=58 velocity=114 time=0
note_on channel=7 note=62 velocity=114 time=0
note_on channel=7 note=67 velocity=114 time=0
note_on channel=8 note=43 velocity=104 time=0
note_on channel=9 note=35 velocity=95 time=0
note_on channel=9 note=40 velocity=98 time=0
note_on channel=9 note=43 velocity=106 time=0
note_on channel=10 note=43 velocity=105 time=0
note_on channel=3 note=78 velocity=127 time=0
note_on channel=8 note=50 velocity=106 time=1
pitchwheel channel=3 pitch=650 time=12
pitchwheel channel=3 pitch=2080 time=10
note_off channel=8 note=43 velocity=0 time=9
pitchwheel channel=3 pitch=3770 time=1
pitchwheel channel=3 pitch=5330 time=10
note_off channel=8 note=50 velocity=0 time=5
pitchwheel channel=3 pitch=6370 time=5
pitchwheel channel=3 pitch=6110 time=21
pitchwheel channel=3 pitch=3770 time=10
note_off channel=4 note=70 velocity=0 time=2
pitchwheel channel=3 pitch=0 time=8
note_off channel=9 note=43 velocity=0 time=11
note_on channel=4 note=70 velocity=123 time=5
note_off channel=9 note=40 velocity=0 time=10
note_off channel=9 note=35 velocity=0 time=18
note_off channel=3 note=78 velocity=0 time=10
note_on channel=3 note=75 velocity=111 time=18
note_off channel=4 note=70 velocity=0 time=40
note_off channel=1 note=31 velocity=0 time=3
note_off channel=10 note=43 velocity=0 time=0
note_on channel=1 note=31 velocity=113 time=21
note_on channel=4 note=70 velocity=116 time=0
note_on channel=8 note=43 velocity=121 time=0
note_on channel=9 note=44 velocity=95 time=0
note_on channel=10 note=43 velocity=105 time=0
note_on channel=8 note=50 velocity=106 time=11
note_off channel=9 note=44 velocity=0 time=17
note_on channel=3 note=72 velocity=102 time=10
note_off channel=3 note=75 velocity=0 time=5
note_off channel=8 note=43 velocity=0 time=2
note_off channel=8 note=50 velocity=0 time=5
note_off channel=3 note=72 velocity=0 time=148
note_off channel=4 note=70 velocity=0 time=3
note_off channel=1 note=31 velocity=0 time=18
note_off channel=10 note=43 velocity=0 time=0
note_on channel=1 note=31 velocity=118 time=21
note_on channel=4 note=72 velocity=127 time=0
note_on channel=8 note=43 velocity=89 time=0
note_on channel=9 note=35 velocity=95 time=0
note_on channel=9 note=40 velocity=95 time=0
note_on channel=9 note=43 velocity=106 time=0
note_on channel=10 note=43 velocity=110 time=0
note_on channel=8 note=50 velocity=93 time=11
note_off channel=8 note=43 velocity=0 time=22
note_off channel=8 note=50 velocity=0 time=0
note_on channel=3 note=75 velocity=120 time=0
note_off channel=9 note=43 velocity=0 time=96
note_off channel=4 note=72 velocity=0 time=4
note_off channel=9 note=35 velocity=0 time=3
note_off channel=9 note=40 velocity=0 time=0
note_off channel=3 note=75 velocity=0 time=44
note_off channel=1 note=31 velocity=0 time=27
note_off channel=10 note=43 velocity=0 time=0
note_on channel=1 note=31 velocity=113 time=21
note_on channel=4 note=72 velocity=127 time=0
note_on channel=8 note=43 velocity=108 time=0
note_on channel=9 note=44 velocity=95 time=0
note_on channel=10 note=43 velocity=105 time=0
note_on channel=8 note=50 velocity=93 time=11
note_on channel=3 note=75 velocity=127 time=0
note_off channel=9 note=44 velocity=0 time=15
note_off channel=8 note=43 velocity=0 time=12
note_off channel=8 note=50 velocity=0 time=12
note_off channel=4 note=72 velocity=0 time=21
note_on channel=4 note=70 velocity=123 time=47
note_off channel=3 note=75 velocity=0 time=3
note_off channel=1 note=31 velocity=0 time=96
note_off channel=10 note=43 velocity=0 time=0
note_on channel=1 note=31 velocity=113 time=21
note_on channel=8 note=43 velocity=93 time=0
note_on channel=9 note=35 velocity=95 time=0
note_on channel=9 note=40 velocity=98 time=0
note_on channel=9 note=43 velocity=102 time=0
note_on channel=10 note=43 velocity=105 time=0
note_on channel=3 note=78 velocity=123 time=0
note_on channel=8 note=50 velocity=81 time=0
note_off channel=4 note=70 velocity=0 time=19
note_off channel=8 note=43 velocity=0 time=8
note_off channel=8 note=50 velocity=0 time=11
pitchwheel channel=3 pitch=130 time=26
pitchwheel channel=3 pitch=390 time=28
note_off channel=9 note=43 velocity=0 time=10
pitchwheel channel=3 pitch=780 time=7
note_off channel=9 note=40 velocity=0 time=15
pitchwheel channel=3 pitch=1170 time=0
note_off channel=9 note=35 velocity=0 time=13
pitchwheel channel=3 pitch=1690 time=2
pitchwheel channel=3 pitch=2080 time=19
pitchwheel channel=3 pitch=2210 time=10
note_off channel=1 note=31 velocity=0 time=40
note_off channel=10 note=43 velocity=0 time=0
pitchwheel channel=3 pitch=2470 time=2
note_on channel=1 note=31 velocity=118 time=19
note_on channel=8 note=43 velocity=116 time=0
note_on channel=9 note=44 velocity=95 time=0
note_on channel=10 note=43 velocity=110 time=0
note_on channel=8 note=50 velocity=93 time=11
pitchwheel channel=3 pitch=2860 time=0
note_off channel=9 note=44 velocity=0 time=17
pitchwheel channel=3 pitch=3250 time=2
note_off channel=8 note=43 velocity=0 time=15
pitchwheel channel=3 pitch=3770 time=0
note_off channel=8 note=50 velocity=0 time=9
pitchwheel channel=3 pitch=4160 time=3
pitchwheel channel=3 pitch=4550 time=11
pitchwheel channel=3 pitch=5200 time=16
pitchwheel channel=3 pitch=5590 time=12
note_off channel=3 note=78 velocity=0 time=40
pitchwheel channel=3 pitch=5460 time=22
pitchwheel channel=3 pitch=4680 time=14
pitchwheel channel=3 pitch=3770 time=11
pitchwheel channel=3 pitch=2860 time=12
pitchwheel channel=3 pitch=1820 time=10
note_off channel=1 note=31 velocity=0 time=14
note_off channel=7 note=67 velocity=0 time=0
note_off channel=10 note=43 velocity=0 time=0
pitchwheel channel=3 pitch=390 time=0
note_off channel=7 note=58 velocity=0 time=15
note_off channel=7 note=62 velocity=0 time=0
note_on channel=1 note=31 velocity=113 time=6
note_on channel=7 note=58 velocity=114 time=0
note_on channel=7 note=70 velocity=114 time=0
note_on channel=8 note=43 velocity=121 time=0
note_on channel=9 note=35 velocity=95 time=0
note_on channel=9 note=40 velocity=98 time=0
note_on channel=9 note=43 velocity=106 time=0
note_on channel=10 note=43 velocity=105 time=0
note_on channel=3 note=78 velocity=127 time=0
note_on channel=8 note=50 velocity=101 time=4
note_off channel=8 note=43 velocity=0 time=34
note_off channel=8 note=50 velocity=0 time=5
pitchwheel channel=3 pitch=520 time=66
pitchwheel channel=3 pitch=910 time=14
pitchwheel channel=3 pitch=1430 time=13
note_off channel=9 note=35 velocity=0 time=5
note_off channel=9 note=43 velocity=0 time=7
pitchwheel channel=3 pitch=1820 time=2
pitchwheel channel=3 pitch=1950 time=10
note_off channel=9 note=40 velocity=0 time=5
pitchwheel channel=3 pitch=2210 time=10
note_off channel=1 note=31 velocity=0 time=37
note_off channel=10 note=43 velocity=0 time=0
note_on channel=1 note=31 velocity=118 time=21
note_on channel=8 note=43 velocity=121 time=0
note_on channel=9 note=44 velocity=95 time=0
note_on channel=10 note=43 velocity=110 time=0
pitchwheel channel=3 pitch=2470 time=7
note_on channel=8 note=50 velocity=93 time=4
pitchwheel channel=3 pitch=2600 time=8
note_off channel=9 note=44 velocity=0 time=9
pitchwheel channel=3 pitch=2860 time=1
pitchwheel channel=3 pitch=2990 time=10
note_off channel=8 note=43 velocity=0 time=7
note_off channel=8 note=50 velocity=0 time=3
pitchwheel channel=3 pitch=3250 time=2
pitchwheel channel=3 pitch=3510 time=17
pitchwheel channel=3 pitch=3640 time=20
pitchwheel channel=3 pitch=3900 time=22
note_on channel=9 note=44 velocity=95 time=10
pitchwheel channel=3 pitch=4030 time=18
note_off channel=9 note=44 velocity=0 time=10
note_off channel=3 note=78 velocity=0 time=5
pitchwheel channel=3 pitch=4290 time=7
pitchwheel channel=3 pitch=4550 time=15
pitchwheel channel=3 pitch=4680 time=10
pitchwheel channel=3 pitch=4940 time=14
note_off channel=1 note=31 velocity=0 time=20
note_off channel=7 note=31 velocity=0 time=0
note_off channel=7 note=43 velocity=0 time=0
note_off channel=7 note=58 velocity=0 time=0
note_off channel=7 note=70 velocity=0 time=0
note_off channel=10 note=43 velocity=0 time=0
note_on channel=1 note=31 velocity=113 time=0
note_on channel=3 note=77 velocity=123 time=0
note_on channel=4 note=70 velocity=116 time=0
note_on channel=7 note=43 velocity=106 time=0
note_on channel=7 note=55 velocity=102 time=0
note_on channel=7 note=62 velocity=98 time=0
note_on channel=7 note=67 velocity=110 time=0
note_on channel=7 note=71 velocity=106 time=0
note_on channel=8 note=43 velocity=104 time=0
note_on channel=9 note=35 velocity=95 time=0
note_on channel=9 note=40 velocity=98 time=0
note_on channel=9 note=43 velocity=106 time=0
note_on channel=10 note=43 velocity=105 time=0
pitchwheel channel=3 pitch=4420 time=1
note_on channel=8 note=50 velocity=106 time=10
pitchwheel channel=3 pitch=2210 time=2
pitchwheel channel=3 pitch=130 time=10
note_off channel=8 note=43 velocity=0 time=19
note_off channel=8 note=50 velocity=0 time=16
note_off channel=4 note=70 velocity=0 time=21
note_off channel=9 note=43 velocity=0 time=36
note_on channel=4 note=70 velocity=123 time=5
note_off channel=9 note=40 velocity=0 time=10
note_off channel=9 note=35 velocity=0 time=18
note_off channel=7 note=62 velocity=0 time=62
note_off channel=1 note=31 velocity=0 time=9
note_off channel=10 note=43 velocity=0 time=0
note_off channel=4 note=70 velocity=0 time=1
note_off channel=3 note=77 velocity=0 time=14
note_on channel=1 note=31 velocity=113 time=0
note_on channel=3 note=75 velocity=111 time=0
note_on channel=4 note=70 velocity=101 time=0
note_on channel=8 note=43 velocity=121 time=0
note_on channel=9 note=44 velocity=95 time=0
note_on channel=10 note=43 velocity=105 time=0
note_on channel=8 note=50 velocity=106 time=11
note_off channel=9 note=44 velocity=0 time=17
note_off channel=4 note=70 velocity=0 time=10
note_off channel=8 note=43 velocity=0 time=7
note_off channel=8 note=50 velocity=0 time=5
note_on channel=6 note=43 velocity=80 time=5
note_on channel=6 note=50 velocity=63 time=1
note_on channel=7 note=62 velocity=63 time=64
note_off channel=7 note=71 velocity=0 time=31
note_off channel=7 note=67 velocity=0 time=12
note_off channel=6 note=50 velocity=0 time=16
note_off channel=6 note=43 velocity=0 time=20
note_off channel=1 note=31 velocity=0 time=20
note_off channel=10 note=43 velocity=0 time=0
note_on channel=1 note=31 velocity=118 time=21
note_on channel=4 note=72 velocity=127 time=0
note_on channel=7 note=62 velocity=102 time=0
note_on channel=7 note=67 velocity=106 time=0
note_on channel=7 note=71 velocity=110 time=0
note_on channel=8 note=43 velocity=89 time=0
note_on channel=9 note=35 velocity=95 time=0
note_on channel=9 note=40 velocity=95 time=0
note_on channel=9 note=43 velocity=106 time=0
note_on channel=10 note=43 velocity=110 time=0
note_off channel=7 note=62 velocity=0 time=7
note_on channel=8 note=50 velocity=93 time=4
note_off channel=8 note=43 velocity=0 time=22
note_off channel=8 note=50 velocity=0 time=12
note_on channel=6 note=50 velocity=87 time=0
note_on channel=6 note=43 velocity=110 time=5
note_off channel=3 note=75 velocity=0 time=78
note_off channel=7 note=55 velocity=0 time=6
note_off channel=9 note=43 velocity=0 time=7
note_off channel=9 note=35 velocity=0 time=7
note_off channel=9 note=40 velocity=0 time=0
note_off channel=4 note=72 velocity=0 time=24
note_off channel=6 note=50 velocity=0 time=18
note_off channel=6 note=43 velocity=0 time=3
note_off channel=1 note=31 velocity=0 time=26
note_off channel=10 note=43 velocity=0 time=0
note_on channel=3 note=79 velocity=125 time=0
note_on channel=1 note=31 velocity=113 time=18
note_on channel=4 note=72 velocity=125 time=0
note_on channel=7 note=55 velocity=102 time=0
note_on channel=8 note=43 velocity=108 time=0
note_on channel=9 note=44 velocity=95 time=0
note_on channel=10 note=43 velocity=105 time=0
note_on channel=8 note=50 velocity=93 time=11
note_off channel=9 note=44 velocity=0 time=17
note_on channel=6 note=50 velocity=110 time=7
note_off channel=8 note=43 velocity=0 time=5
note_on channel=6 note=43 velocity=125 time=0
note_off channel=3 note=79 velocity=0 time=10
note_off channel=8 note=50 velocity=0 time=2
note_off channel=4 note=72 velocity=0 time=42
note_on channel=4 note=70 velocity=127 time=26
note_off channel=7 note=62 velocity=0 time=43
note_off channel=7 note=67 velocity=0 time=4
note_off channel=7 note=71 velocity=0 time=2
note_off channel=6 note=50 velocity=0 time=43
note_off channel=6 note=43 velocity=0 time=3
note_off channel=1 note=31 velocity=0 time=4
note_off channel=10 note=43 velocity=0 time=0
note_on channel=3 note=82 velocity=127 time=0
note_on channel=1 note=31 velocity=113 time=19
note_on channel=7 note=62 velocity=102 time=0
note_on channel=7 note=67 velocity=102 time=0
note_on channel=7 note=71 velocity=110 time=0
note_on channel=8 note=43 velocity=93 time=0
note_on channel=9 note=35 velocity=95 time=0
note_on channel=9 note=40 velocity=98 time=0
note_on channel=9 note=43 velocity=102 time=0
note_on channel=10 note=43 velocity=105 time=0
note_on channel=8 note=50 velocity=81 time=11
note_off channel=8 note=43 velocity=0 time=27
note_on channel=6 note=50 velocity=115 time=7
note_off channel=8 note=50 velocity=0 time=4
note_on channel=6 note=43 velocity=125 time=2
note_off channel=4 note=70 velocity=0 time=45
note_off channel=9 note=43 velocity=0 time=17
note_off channel=7 note=55 velocity=0 time=13
note_off channel=9 note=40 velocity=0 time=9
note_off channel=9 note=35 velocity=0 time=13
note_off channel=3 note=82 velocity=0 time=45
note_off channel=6 note=43 velocity=0 time=10
note_off channel=6 note=50 velocity=0 time=3
note_off channel=1 note=31 velocity=0 time=13
note_off channel=10 note=43 velocity=0 time=0
note_on channel=1 note=31 velocity=118 time=21
note_on channel=7 note=55 velocity=110 time=0
note_on channel=8 note=43 velocity=116 time=0
note_on channel=9 note=46 velocity=95 time=0
note_on channel=10 note=43 velocity=110 time=0
note_on channel=3 note=79 velocity=120 time=0
note_on channel=8 note=50 velocity=93 time=10
note_off channel=9 note=46 velocity=0 time=17
note_on channel=6 note=50 velocity=110 time=5
note_on channel=6 note=43 velocity=125 time=5
note_off channel=8 note=43 velocity=0 time=7
note_off channel=8 note=50 velocity=0 time=9
note_off channel=3 note=79 velocity=0 time=36
note_on channel=9 note=40 velocity=98 time=30
note_off channel=7 note=62 velocity=0 time=1
note_off channel=7 note=67 velocity=0 time=8
note_off channel=7 note=71 velocity=0 time=7
note_off channel=6 note=50 velocity=0 time=55
note_off channel=6 note=43 velocity=0 time=1
note_off channel=1 note=31 velocity=0 time=27
note_off channel=10 note=43 velocity=0 time=0
note_off channel=9 note=40 velocity=0 time=15
note_on channel=3 note=82 velocity=127 time=0
note_on channel=1 note=31 velocity=113 time=1
note_on channel=7 note=62 velocity=110 time=0
note_on channel=7 note=67 velocity=125 time=0
note_on channel=7 note=71 velocity=127 time=0
note_on channel=8 note=43 velocity=121 time=0
note_on channel=9 note=35 velocity=95 time=0
note_on channel=9 note=40 velocity=98 time=0
note_on channel=9 note=43 velocity=106 time=0
note_on channel=10 note=43 velocity=105 time=0
note_on channel=8 note=50 velocity=101 time=11
note_on channel=6 note=50 velocity=120 time=21
note_on channel=6 note=43 velocity=127 time=5
note_off channel=8 note=43 velocity=0 time=8
note_off channel=8 note=50 velocity=0 time=5
note_off channel=9 note=40 velocity=0 time=2
note_off channel=7 note=55 velocity=0 time=30
note_on channel=9 note=40 velocity=98 time=38
note_off channel=9 note=35 velocity=0 time=28
note_off channel=9 note=43 velocity=0 time=7
note_off channel=9 note=40 velocity=0 time=17
note_off channel=6 note=43 velocity=0 time=1
note_off channel=6 note=50 velocity=0 time=3
note_off channel=1 note=31 velocity=0 time=43
note_off channel=10 note=43 velocity=0 time=0
note_on channel=1 note=31 velocity=118 time=21
note_on channel=7 note=55 velocity=125 time=0
note_on channel=8 note=43 velocity=121 time=0
note_on channel=9 note=40 velocity=98 time=0
note_on channel=10 note=43 velocity=110 time=0
note_off channel=3 note=82 velocity=0 time=0
note_on channel=3 note=79 velocity=125 time=0
note_on channel=6 note=50 velocity=115 time=2
note_on channel=8 note=50 velocity=93 time=4
note_on channel=6 note=43 velocity=127 time=7
note_off channel=8 note=43 velocity=0 time=28
note_off channel=8 note=50 velocity=0 time=3
note_off channel=9 note=40 velocity=0 time=3
note_off channel=6 note=43 velocity=0 time=49
note_off channel=7 note=62 velocity=0 time=6
note_off channel=6 note=50 velocity=0 time=2
note_off channel=7 note=43 velocity=0 time=0
note_off channel=7 note=67 velocity=0 time=2
note_off channel=7 note=71 velocity=0 time=4
note_on channel=9 note=40 velocity=98 time=5
note_off channel=3 note=79 velocity=0 time=8
note_off channel=9 note=40 velocity=0 time=44
note_off channel=7 note=55 velocity=0 time=10
note_off channel=1 note=31 velocity=0 time=37
note_off channel=10 note=43 velocity=0 time=0
note_on channel=1 note=36 velocity=113 time=21
note_on channel=4 note=63 velocity=116 time=0
note_on channel=4 note=67 velocity=102 time=0
note_on channel=4 note=70 velocity=102 time=0
note_on channel=7 note=36 velocity=115 time=0
note_on channel=7 note=48 velocity=115 time=0
note_on channel=7 note=67 velocity=106 time=0
note_on channel=7 note=72 velocity=125 time=0
note_on channel=7 note=75 velocity=116 time=0
note_on channel=8 note=48 velocity=125 time=0
note_on channel=8 note=55 velocity=115 time=0
note_on channel=8 note=60 velocity=120 time=0
note_on channel=9 note=35 velocity=116 time=0
note_on channel=9 note=49 velocity=98 time=0
note_on channel=10 note=48 velocity=113 time=8
note_on channel=6 note=48 velocity=127 time=3
note_on channel=6 note=55 velocity=125 time=0
note_off channel=9 note=35 velocity=0 time=17
note_off channel=9 note=49 velocity=0 time=0
note_on channel=3 note=84 velocity=125 time=0
note_off channel=7 note=72 velocity=0 time=8
note_off channel=7 note=75 velocity=0 time=1
note_off channel=6 note=55 velocity=0 time=13
note_off channel=7 note=67 velocity=0 time=2
note_off channel=6 note=48 velocity=0 time=8
note_off channel=8 note=60 velocity=0 time=32
note_off channel=8 note=55 velocity=0 time=2
note_off channel=4 note=63 velocity=0 time=29
note_off channel=4 note=67 velocity=0 time=2
note_off channel=4 note=70 velocity=0 time=0
note_off channel=8 note=48 velocity=0 time=56
note_off channel=1 note=36 velocity=0 time=37
note_off channel=10 note=48 velocity=0 time=8
note_on channel=1 note=36 velocity=113 time=13
note_on channel=4 note=63 velocity=116 time=0
note_on channel=4 note=67 velocity=87 time=0
note_on channel=4 note=70 velocity=87 time=0
note_on channel=7 note=67 velocity=77 time=0
note_on channel=7 note=72 velocity=106 time=0
note_on channel=7 note=75 velocity=86 time=0
note_on channel=8 note=55 velocity=90 time=0
note_on channel=8 note=60 velocity=102 time=0
note_on channel=9 note=35 velocity=116 time=0
note_on channel=9 note=42 velocity=98 time=0
note_on channel=10 note=48 velocity=113 time=8
note_on channel=6 note=48 velocity=125 time=3
note_on channel=6 note=55 velocity=125 time=0
note_off channel=9 note=35 velocity=0 time=17
note_off channel=9 note=42 velocity=0 time=0
note_off channel=7 note=75 velocity=0 time=3
note_off channel=7 note=72 velocity=0 time=6
note_off channel=6 note=55 velocity=0 time=7
note_off channel=7 note=67 velocity=0 time=6
note_off channel=6 note=48 velocity=0 time=10
note_off channel=8 note=60 velocity=0 time=2
note_off channel=8 note=55 velocity=0 time=7
note_off channel=4 note=63 velocity=0 time=41
note_off channel=4 note=67 velocity=0 time=1
note_off channel=4 note=70 velocity=0 time=0
note_off channel=1 note=36 velocity=0 time=108
note_off channel=10 note=48 velocity=0 time=8
note_on channel=1 note=36 velocity=118 time=13
note_on channel=4 note=65 velocity=102 time=0
note_on channel=4 note=68 velocity=123 time=0
note_on channel=4 note=72 velocity=123 time=0
note_on channel=7 note=67 velocity=120 time=0
note_on channel=7 note=72 velocity=127 time=0
note_on channel=7 note=75 velocity=127 time=0
note_on channel=8 note=48 velocity=127 time=0
note_on channel=8 note=55 velocity=125 time=0
note_on channel=8 note=60 velocity=127 time=0
note_on channel=9 note=39 velocity=85 time=0
note_on channel=9 note=40 velocity=116 time=0
note_on channel=9 note=42 velocity=98 time=0
note_on channel=9 note=54 velocity=116 time=0
note_on channel=10 note=48 velocity=118 time=8
note_on channel=6 note=48 velocity=127 time=3
note_on channel=6 note=55 velocity=127 time=0
note_off channel=9 note=39 velocity=0 time=17
note_off channel=9 note=40 velocity=0 time=0
note_off channel=9 note=42 velocity=0 time=0
note_off channel=9 note=54 velocity=0 time=0
note_off channel=6 note=55 velocity=0 time=34
note_off channel=7 note=72 velocity=0 time=7
note_off channel=7 note=75 velocity=0 time=5
note_off channel=7 note=67 velocity=0 time=4
note_off channel=6 note=48 velocity=0 time=14
note_off channel=8 note=55 velocity=0 time=49
note_off channel=8 note=60 velocity=0 time=21
note_off channel=8 note=48 velocity=0 time=13
note_off channel=1 note=36 velocity=0 time=44
note_off channel=10 note=48 velocity=0 time=8
note_on channel=1 note=36 velocity=113 time=13
note_on channel=7 note=67 velocity=74 time=0
note_on channel=7 note=72 velocity=98 time=0
note_on channel=7 note=75 velocity=97 time=0
note_on channel=8 note=55 velocity=102 time=0
note_on channel=8 note=60 velocity=115 time=0
note_on channel=9 note=42 velocity=98 time=0
note_on channel=10 note=48 velocity=113 time=8
note_on channel=6 note=48 velocity=125 time=3
note_on channel=6 note=55 velocity=120 time=0
note_off channel=4 note=68 velocity=0 time=17
note_off channel=4 note=72 velocity=0 time=0
note_off channel=9 note=42 velocity=0 time=0
note_off channel=4 note=65 velocity=0 time=20
note_off channel=6 note=55 velocity=0 time=5
note_off channel=7 note=72 velocity=0 time=12
note_off channel=7 note=75 velocity=0 time=6
note_off channel=6 note=48 velocity=0 time=8
note_off channel=7 note=67 velocity=0 time=1
note_off channel=8 note=60 velocity=0 time=12
note_off channel=8 note=55 velocity=0 time=3
note_on channel=4 note=63 velocity=123 time=4
note_on channel=4 note=67 velocity=115 time=0
note_on channel=4 note=70 velocity=115 time=0
note_off channel=1 note=36 velocity=0 time=13
note_off channel=4 note=63 velocity=0 time=0
note_off channel=4 note=67 velocity=0 time=1
note_off channel=4 note=70 velocity=0 time=0
note_off channel=10 note=48 velocity=0 time=7
note_on channel=1 note=36 velocity=113 time=3
note_on channel=7 note=67 velocity=106 time=0
note_on channel=7 note=72 velocity=127 time=0
note_on channel=7 note=75 velocity=116 time=0
note_on channel=8 note=55 velocity=115 time=0
note_on channel=8 note=60 velocity=127 time=0
note_on channel=9 note=35 velocity=116 time=0
note_on channel=9 note=42 velocity=98 time=0
note_on channel=10 note=48 velocity=113 time=8
note_on channel=6 note=48 velocity=127 time=3
note_on channel=6 note=55 velocity=120 time=0
note_off channel=9 note=35 velocity=0 time=1
note_off channel=9 note=42 velocity=0 time=0
note_off channel=6 note=55 velocity=0 time=26
note_off channel=7 note=72 velocity=0 time=1
note_off channel=7 note=75 velocity=0 time=4
note_off channel=7 note=67 velocity=0 time=2
note_off channel=6 note=48 velocity=0 time=7
note_off channel=8 note=60 velocity=0 time=7
note_off channel=8 note=55 velocity=0 time=4
note_off channel=1 note=36 velocity=0 time=12
note_off channel=10 note=48 velocity=0 time=8
note_on channel=1 note=36 velocity=118 time=3
note_on channel=7 note=67 velocity=71 time=0
note_on channel=7 note=72 velocity=90 time=0
note_on channel=7 note=75 velocity=81 time=0
note_on channel=8 note=55 velocity=83 time=0
note_on channel=8 note=60 velocity=102 time=0
note_on channel=9 note=35 velocity=116 time=0
note_on channel=9 note=42 velocity=98 time=0
note_on channel=10 note=48 velocity=118 time=8
note_on channel=6 note=48 velocity=120 time=3
note_on channel=6 note=55 velocity=115 time=0
note_off channel=9 note=35 velocity=0 time=1
note_off channel=9 note=42 velocity=0 time=0
note_off channel=7 note=72 velocity=0 time=19
note_off channel=7 note=75 velocity=0 time=0
note_off channel=6 note=55 velocity=0 time=1
note_off channel=6 note=48 velocity=0 time=9
note_off channel=8 note=60 velocity=0 time=0
note_off channel=7 note=67 velocity=0 time=7
note_off channel=8 note=55 velocity=0 time=9
note_off channel=1 note=36 velocity=0 time=3
note_off channel=10 note=48 velocity=0 time=8
note_on channel=1 note=36 velocity=113 time=9
note_on channel=7 note=67 velocity=115 time=0
note_on channel=7 note=72 velocity=127 time=0
note_on channel=7 note=75 velocity=123 time=0
note_on channel=8 note=48 velocity=127 time=0
note_on channel=8 note=55 velocity=125 time=0
note_on channel=8 note=60 velocity=127 time=0
note_on channel=9 note=39 velocity=85 time=0
note_on channel=9 note=40 velocity=116 time=0
note_on channel=9 note=42 velocity=98 time=0
note_on channel=9 note=54 velocity=116 time=0
note_on channel=10 note=48 velocity=113 time=2
note_on channel=6 note=48 velocity=127 time=3
note_on channel=6 note=55 velocity=125 time=0
note_off channel=9 note=39 velocity=0 time=7
note_off channel=9 note=40 velocity=0 time=0
note_off channel=9 note=42 velocity=0 time=0
note_off channel=9 note=54 velocity=0 time=0
note_off channel=6 note=55 velocity=0 time=3
note_off channel=7 note=72 velocity=0 time=1
note_off channel=7 note=75 velocity=0 time=12
note_off channel=6 note=48 velocity=0 time=1
note_off channel=7 note=67 velocity=0 time=1
note_off channel=8 note=60 velocity=0 time=20
note_off channel=8 note=55 velocity=0 time=4
note_off channel=3 note=84 velocity=0 time=30
note_off channel=1 note=36 velocity=0 time=14
note_off channel=10 note=48 velocity=0 time=8
note_on channel=1 note=36 velocity=118 time=13
note_on channel=7 note=67 velocity=106 time=0
note_on channel=7 note=72 velocity=115 time=0
note_on channel=7 note=75 velocity=105 time=0
note_on channel=8 note=55 velocity=98 time=0
note_on channel=8 note=60 velocity=115 time=0
note_on channel=9 note=42 velocity=98 time=0
note_on channel=10 note=48 velocity=118 time=8
note_on channel=6 note=48 velocity=125 time=3
note_on channel=6 note=55 velocity=125 time=0
note_on channel=3 note=82 velocity=123 time=0
note_off channel=9 note=42 velocity=0 time=13
note_off channel=7 note=72 velocity=0 time=34
note_off channel=6 note=55 velocity=0 time=7
note_off channel=7 note=75 velocity=0 time=2
note_off channel=8 note=60 velocity=0 time=7
note_off channel=7 note=67 velocity=0 time=4
note_off channel=8 note=55 velocity=0 time=16
note_off channel=6 note=48 velocity=0 time=11
note_off channel=7 note=36 velocity=0 time=102
note_off channel=7 note=48 velocity=0 time=0
note_off channel=8 note=48 velocity=0 time=1
note_off channel=1 note=36 velocity=0 time=7
note_off channel=10 note=48 velocity=0 time=8
note_on channel=1 note=34 velocity=113 time=13
note_on channel=4 note=63 velocity=116 time=0
note_on channel=4 note=67 velocity=102 time=0
note_on channel=4 note=70 velocity=102 time=0
note_on channel=7 note=34 velocity=115 time=0
note_on channel=7 note=46 velocity=115 time=0
note_on channel=7 note=65 velocity=83 time=0
note_on channel=7 note=70 velocity=105 time=0
note_on channel=7 note=74 velocity=102 time=0
note_on channel=8 note=53 velocity=90 time=0
note_on channel=8 note=58 velocity=123 time=0
note_on channel=9 note=35 velocity=116 time=0
note_on channel=9 note=42 velocity=98 time=0
note_on channel=10 note=46 velocity=113 time=8
note_on channel=6 note=46 velocity=127 time=3
note_on channel=6 note=53 velocity=115 time=0
note_off channel=9 note=35 velocity=0 time=17
note_off channel=9 note=42 velocity=0 time=0
note_off channel=7 note=74 velocity=0 time=35
note_off channel=6 note=53 velocity=0 time=11
note_off channel=7 note=65 velocity=0 time=0
note_off channel=7 note=70 velocity=0 time=1
note_off channel=6 note=46 velocity=0 time=6
note_off channel=8 note=53 velocity=0 time=26
note_off channel=8 note=58 velocity=0 time=6
note_off channel=4 note=63 velocity=0 time=11
note_off channel=4 note=67 velocity=0 time=2
note_off channel=4 note=70 velocity=0 time=0
note_off channel=1 note=34 velocity=0 time=93
note_off channel=10 note=46 velocity=0 time=8
note_off channel=3 note=82 velocity=0 time=13
note_on channel=1 note=34 velocity=113 time=0
note_on channel=4 note=63 velocity=116 time=0
note_on channel=4 note=67 velocity=87 time=0
note_on channel=4 note=70 velocity=87 time=0
note_on channel=7 note=65 velocity=63 time=0
note_on channel=7 note=70 velocity=81 time=0
note_on channel=7 note=74 velocity=56 time=0
note_on channel=8 note=53 velocity=67 time=0
note_on channel=8 note=58 velocity=86 time=0
note_on channel=9 note=35 velocity=116 time=0
note_on channel=9 note=42 velocity=98 time=0
note_on channel=10 note=46 velocity=113 time=8
note_on channel=6 note=46 velocity=123 time=3
note_on channel=6 note=53 velocity=120 time=0
note_off channel=9 note=35 velocity=0 time=17
note_off channel=9 note=42 velocity=0 time=0
note_off channel=7 note=74 velocity=0 time=9
note_off channel=7 note=65 velocity=0 time=15
note_off channel=8 note=58 velocity=0 time=1
note_off channel=7 note=70 velocity=0 time=1
note_off channel=6 note=53 velocity=0 time=16
note_off channel=8 note=53 velocity=0 time=2
note_off channel=6 note=46 velocity=0 time=1
note_off channel=4 note=63 velocity=0 time=37
note_off channel=4 note=67 velocity=0 time=1
note_off channel=4 note=70 velocity=0 time=0
note_off channel=1 note=34 velocity=0 time=108
note_off channel=10 note=46 velocity=0 time=8
note_on channel=1 note=34 velocity=118 time=13
note_on channel=4 note=65 velocity=102 time=0
note_on channel=4 note=68 velocity=123 time=0
note_on channel=4 note=72 velocity=123 time=0
note_on channel=7 note=65 velocity=106 time=0
note_on channel=7 note=70 velocity=116 time=0
note_on channel=7 note=74 velocity=115 time=0
note_on channel=8 note=46 velocity=127 time=0
note_on channel=8 note=53 velocity=110 time=0
note_on channel=8 note=58 velocity=127 time=0
note_on channel=9 note=39 velocity=85 time=0
note_on channel=9 note=40 velocity=116 time=0
note_on channel=9 note=42 velocity=98 time=0
note_on channel=9 note=54 velocity=116 time=0
note_on channel=10 note=46 velocity=118 time=8
note_on channel=6 note=46 velocity=127 time=3
note_on channel=6 note=53 velocity=125 time=0
note_off channel=9 note=39 velocity=0 time=17
note_off channel=9 note=40 velocity=0 time=0
note_off channel=9 note=42 velocity=0 time=0
note_off channel=9 note=54 velocity=0 time=0
note_off channel=7 note=65 velocity=0 time=42
note_off channel=7 note=70 velocity=0 time=0
note_off channel=7 note=74 velocity=0 time=13
note_off channel=6 note=53 velocity=0 time=6
note_off channel=6 note=46 velocity=0 time=28
note_off channel=8 note=53 velocity=0 time=13
note_off channel=8 note=58 velocity=0 time=1
note_off channel=1 note=34 velocity=0 time=88
note_off channel=10 note=46 velocity=0 time=8
note_on channel=1 note=34 velocity=113 time=13
note_on channel=7 note=65 velocity=74 time=0
note_on channel=7 note=70 velocity=93 time=0
note_on channel=7 note=74 velocity=83 time=0
note_on channel=8 note=53 velocity=80 time=0
note_on channel=8 note=58 velocity=116 time=0
note_on channel=9 note=42 velocity=98 time=0
note_on channel=10 note=46 velocity=113 time=8
note_on channel=6 note=46 velocity=111 time=3
note_on channel=6 note=53 velocity=106 time=0
note_on channel=3 note=79 velocity=125 time=0
note_off channel=4 note=68 velocity=0 time=5
note_off channel=4 note=72 velocity=0 time=0
note_off channel=9 note=42 velocity=0 time=0
note_off channel=4 note=65 velocity=0 time=20
note_off channel=7 note=65 velocity=0 time=18
note_off channel=7 note=70 velocity=0 time=2
note_off channel=6 note=53 velocity=0 time=8
note_off channel=7 note=74 velocity=0 time=0
note_off channel=6 note=46 velocity=0 time=4
note_off channel=3 note=79 velocity=0 time=6
note_off channel=8 note=53 velocity=0 time=3
note_off channel=8 note=58 velocity=0 time=8
note_on channel=4 note=63 velocity=123 time=23
note_on channel=4 note=67 velocity=115 time=0
note_on channel=4 note=70 velocity=115 time=0
note_off channel=1 note=34 velocity=0 time=99
note_off channel=4 note=63 velocity=0 time=0
note_off channel=4 note=67 velocity=0 time=1
note_off channel=4 note=70 velocity=0 time=0
note_off channel=10 note=46 velocity=0 time=7
note_on channel=1 note=34 velocity=113 time=13
note_on channel=7 note=65 velocity=90 time=0
note_on channel=7 note=70 velocity=101 time=0
note_on channel=7 note=74 velocity=98 time=0
note_on channel=8 note=53 velocity=90 time=0
note_on channel=8 note=58 velocity=123 time=0
note_on channel=9 note=35 velocity=116 time=0
note_on channel=9 note=42 velocity=98 time=0
note_on channel=10 note=46 velocity=113 time=8
note_on channel=6 note=46 velocity=127 time=3
note_on channel=6 note=53 velocity=120 time=0
note_on channel=3 note=82 velocity=127 time=16
note_off channel=9 note=35 velocity=0 time=1
note_off channel=9 note=42 velocity=0 time=0
note_off channel=7 note=65 velocity=0 time=38
note_off channel=7 note=70 velocity=0 time=3
note_off channel=7 note=74 velocity=0 time=15
note_off channel=6 note=53 velocity=0 time=3
note_off channel=6 note=46 velocity=0 time=6
note_off channel=8 note=53 velocity=0 time=4
note_off channel=8 note=58 velocity=0 time=12
note_off channel=1 note=34 velocity=0 time=110
note_off channel=10 note=46 velocity=0 time=8
note_off channel=3 note=82 velocity=0 time=7
note_on channel=1 note=34 velocity=118 time=6
note_on channel=7 note=65 velocity=74 time=0
note_on channel=7 note=70 velocity=89 time=0
note_on channel=7 note=74 velocity=90 time=0
note_on channel=8 note=53 velocity=63 time=0
note_on channel=8 note=58 velocity=97 time=0
note_on channel=9 note=35 velocity=116 time=0
note_on channel=9 note=46 velocity=98 time=0
note_off channel=8 note=46 velocity=0 time=1
note_on channel=10 note=46 velocity=118 time=7
note_on channel=6 note=46 velocity=116 time=3
note_on channel=6 note=53 velocity=110 time=0
note_off channel=9 note=35 velocity=0 time=17
note_off channel=9 note=46 velocity=0 time=0
note_on channel=3 note=79 velocity=106 time=0
note_off channel=8 note=58 velocity=0 time=13
note_off channel=8 note=53 velocity=0 time=6
note_off channel=7 note=70 velocity=0 time=7
note_off channel=7 note=65 velocity=0 time=2
note_off channel=7 note=74 velocity=0 time=12
note_off channel=6 note=53 velocity=0 time=4
note_off channel=6 note=46 velocity=0 time=4
note_off channel=3 note=79 velocity=0 time=20
note_off channel=1 note=34 velocity=0 time=119
note_off channel=10 note=46 velocity=0 time=8
note_on channel=1 note=34 velocity=113 time=13
note_on channel=7 note=65 velocity=98 time=0
note_on channel=7 note=70 velocity=111 time=0
note_on channel=7 note=74 velocity=106 time=0
note_on channel=8 note=46 velocity=123 time=0
note_on channel=8 note=53 velocity=102 time=0
note_on channel=8 note=58 velocity=127 time=0
note_on channel=9 note=39 velocity=85 time=0
note_on channel=9 note=40 velocity=116 time=0
note_on channel=9 note=42 velocity=98 time=0
note_on channel=9 note=54 velocity=116 time=0
note_on channel=10 note=46 velocity=113 time=8
note_on channel=6 note=46 velocity=127 time=3
note_on channel=6 note=53 velocity=120 time=0
note_on channel=3 note=82 velocity=127 time=0
note_off channel=9 note=39 velocity=0 time=6
note_off channel=9 note=40 velocity=0 time=0
note_off channel=9 note=42 velocity=0 time=0
note_off channel=9 note=54 velocity=0 time=0
note_off channel=7 note=65 velocity=0 time=34
note_off channel=7 note=70 velocity=0 time=3
note_off channel=7 note=74 velocity=0 time=7
note_off channel=6 note=53 velocity=0 time=11
note_off channel=6 note=46 velocity=0 time=7
note_off channel=8 note=53 velocity=0 time=13
note_off channel=8 note=58 velocity=0 time=14
note_off channel=3 note=82 velocity=0 time=98
note_off channel=1 note=34 velocity=0 time=4
note_off channel=10 note=46 velocity=0 time=8
note_on channel=1 note=34 velocity=118 time=13
note_on channel=7 note=65 velocity=98 time=0
note_on channel=7 note=70 velocity=105 time=0
note_on channel=7 note=74 velocity=106 time=0
note_on channel=8 note=53 velocity=98 time=0
note_on channel=8 note=58 velocity=111 time=0
note_on channel=9 note=42 velocity=98 time=0
note_on channel=10 note=46 velocity=118 time=8
note_on channel=6 note=46 velocity=123 time=3
note_on channel=6 note=53 velocity=115 time=0
note_on channel=3 note=79 velocity=106 time=0
note_off channel=9 note=42 velocity=0 time=15
note_off channel=7 note=65 velocity=0 time=28
note_off channel=7 note=70 velocity=0 time=3
note_off channel=8 note=58 velocity=0 time=4
note_off channel=7 note=74 velocity=0 time=9
note_off channel=6 note=46 velocity=0 time=10
note_off channel=6 note=53 velocity=0 time=9
note_off channel=8 note=53 velocity=0 time=2
note_off channel=3 note=79 velocity=0 time=21
note_off channel=7 note=34 velocity=0 time=97
note_off channel=7 note=46 velocity=0 time=0
note_off channel=1 note=34 velocity=0 time=8
note_off channel=10 note=46 velocity=0 time=8
note_off channel=8 note=46 velocity=0 time=6
note_on channel=1 note=32 velocity=113 time=7
note_on channel=4 note=63 velocity=116 time=0
note_on channel=4 note=67 velocity=102 time=0
note_on channel=4 note=70 velocity=102 time=0
note_on channel=7 note=32 velocity=115 time=0
note_on channel=7 note=44 velocity=115 time=0
note_on channel=7 note=60 velocity=125 time=0
note_on channel=7 note=63 velocity=116 time=0
note_on channel=7 note=67 velocity=115 time=0
note_on channel=8 note=51 velocity=127 time=0
note_on channel=8 note=56 velocity=123 time=0
note_on channel=9 note=35 velocity=116 time=0
note_on channel=9 note=42 velocity=98 time=0
note_on channel=10 note=44 velocity=113 time=8
note_on channel=6 note=44 velocity=116 time=3
note_on channel=6 note=51 velocity=127 time=0
note_on channel=3 note=84 velocity=125 time=0
note_off channel=9 note=35 velocity=0 time=7
note_off channel=9 note=42 velocity=0 time=0
note_off channel=7 note=63 velocity=0 time=29
note_off channel=7 note=60 velocity=0 time=3
note_off channel=7 note=67 velocity=0 time=9
note_off channel=6 note=51 velocity=0 time=3
note_off channel=6 note=44 velocity=0 time=42
note_off channel=4 note=63 velocity=0 time=10
note_off channel=8 note=51 velocity=0 time=1
note_off channel=4 note=67 velocity=0 time=1
note_off channel=4 note=70 velocity=0 time=0
note_off channel=8 note=56 velocity=0 time=27
note_off channel=1 note=32 velocity=0 time=66
note_off channel=10 note=44 velocity=0 time=8
note_on channel=1 note=32 velocity=113 time=13
note_on channel=4 note=63 velocity=116 time=0
note_on channel=4 note=67 velocity=87 time=0
note_on channel=4 note=70 velocity=87 time=0
note_on channel=7 note=60 velocity=110 time=0
note_on channel=7 note=63 velocity=105 time=0
note_on channel=7 note=67 velocity=102 time=0
note_on channel=8 note=51 velocity=101 time=0
note_on channel=8 note=56 velocity=86 time=0
note_on channel=9 note=35 velocity=116 time=0
note_on channel=9 note=42 velocity=98 time=0
note_on channel=10 note=44 velocity=113 time=8
note_on channel=6 note=44 velocity=116 time=3
note_on channel=6 note=51 velocity=116 time=0
note_off channel=9 note=35 velocity=0 time=17
note_off channel=9 note=42 velocity=0 time=0
note_off channel=7 note=60 velocity=0 time=14
note_off channel=7 note=63 velocity=0 time=4
note_off channel=8 note=56 velocity=0 time=0
note_off channel=7 note=67 velocity=0 time=5
note_off channel=6 note=51 velocity=0 time=5
note_off channel=8 note=51 velocity=0 time=0
note_off channel=6 note=44 velocity=0 time=23
note_off channel=4 note=63 velocity=0 time=31
note_off channel=4 note=67 velocity=0 time=1
note_off channel=4 note=70 velocity=0 time=0
note_off channel=1 note=32 velocity=0 time=108
note_off channel=10 note=44 velocity=0 time=8
note_on channel=1 note=32 velocity=118 time=13
note_on channel=4 note=65 velocity=102 time=0
note_on channel=4 note=68 velocity=123 time=0
note_on channel=4 note=72 velocity=123 time=0
note_on channel=7 note=60 velocity=127 time=0
note_on channel=7 note=63 velocity=123 time=0
note_on channel=7 note=67 velocity=125 time=0
note_on channel=8 note=44 velocity=123 time=0
note_on channel=8 note=51 velocity=127 time=0
note_on channel=8 note=54 velocity=123 time=0
note_on channel=8 note=56 velocity=127 time=0
note_on channel=9 note=39 velocity=85 time=0
note_on channel=9 note=40 velocity=116 time=0
note_on channel=9 note=42 velocity=98 time=0
note_on channel=9 note=54 velocity=116 time=0
note_on channel=10 note=44 velocity=118 time=8
note_on channel=6 note=44 velocity=127 time=3
note_on channel=6 note=51 velocity=127 time=0
note_off channel=8 note=54 velocity=0 time=4
note_off channel=9 note=39 velocity=0 time=13
note_off channel=9 note=40 velocity=0 time=0
note_off channel=9 note=42 velocity=0 time=0
note_off channel=9 note=54 velocity=0 time=0
note_off channel=7 note=60 velocity=0 time=30
note_off channel=7 note=63 velocity=0 time=2
note_off channel=6 note=51 velocity=0 time=13
note_off channel=7 note=67 velocity=0 time=2
note_off channel=8 note=51 velocity=0 time=12
note_off channel=6 note=44 velocity=0 time=20
note_off channel=8 note=56 velocity=0 time=5
note_off channel=1 note=32 velocity=0 time=107
note_off channel=10 note=44 velocity=0 time=8
note_on channel=1 note=32 velocity=113 time=13
note_on channel=7 note=60 velocity=125 time=0
note_on channel=7 note=63 velocity=111 time=0
note_on channel=7 note=67 velocity=102 time=0
note_on channel=8 note=51 velocity=111 time=0
note_on channel=8 note=56 velocity=101 time=0
note_on channel=9 note=42 velocity=98 time=0
note_on channel=10 note=44 velocity=113 time=8
note_on channel=6 note=44 velocity=116 time=3
note_on channel=6 note=51 velocity=116 time=0
note_off channel=4 note=68 velocity=0 time=17
note_off channel=4 note=72 velocity=0 time=0
note_off channel=9 note=42 velocity=0 time=0
note_off channel=4 note=65 velocity=0 time=20
note_off channel=7 note=60 velocity=0 time=5
note_off channel=7 note=63 velocity=0 time=0
note_off channel=7 note=67 velocity=0 time=8
note_off channel=6 note=51 velocity=0 time=6
note_off channel=8 note=51 velocity=0 time=8
note_off channel=8 note=56 velocity=0 time=2
note_off channel=6 note=44 velocity=0 time=16
note_on channel=4 note=63 velocity=123 time=27
note_on channel=4 note=67 velocity=115 time=0
note_on channel=4 note=70 velocity=115 time=0
note_off channel=1 note=32 velocity=0 time=99
note_off channel=4 note=63 velocity=0 time=0
note_off channel=4 note=67 velocity=0 time=1
note_off channel=4 note=70 velocity=0 time=0
note_off channel=10 note=44 velocity=0 time=7
note_on channel=1 note=32 velocity=113 time=13
note_on channel=7 note=60 velocity=120 time=0
note_on channel=7 note=63 velocity=116 time=0
note_on channel=7 note=67 velocity=110 time=0
note_on channel=8 note=51 velocity=123 time=0
note_on channel=8 note=54 velocity=86 time=0
note_on channel=8 note=56 velocity=116 time=0
note_on channel=9 note=35 velocity=116 time=0
note_on channel=9 note=42 velocity=98 time=0
note_off channel=8 note=54 velocity=0 time=6
note_on channel=10 note=44 velocity=113 time=2
note_on channel=6 note=44 velocity=123 time=3
note_on channel=6 note=51 velocity=127 time=0
note_off channel=9 note=35 velocity=0 time=17
note_off channel=9 note=42 velocity=0 time=0
note_off channel=7 note=60 velocity=0 time=26
note_off channel=7 note=63 velocity=0 time=7
note_off channel=7 note=67 velocity=0 time=8
note_off channel=8 note=51 velocity=0 time=4
note_off channel=6 note=51 velocity=0 time=3
note_off channel=8 note=56 velocity=0 time=12
note_off channel=6 note=44 velocity=0 time=13
note_off channel=1 note=32 velocity=0 time=118
note_off channel=10 note=44 velocity=0 time=8
note_on channel=1 note=32 velocity=118 time=13
note_on channel=7 note=60 velocity=115 time=0
note_on channel=7 note=63 velocity=111 time=0
note_on channel=7 note=67 velocity=106 time=0
note_on channel=8 note=51 velocity=101 time=0
note_on channel=8 note=56 velocity=75 time=0
note_on channel=9 note=35 velocity=116 time=0
note_on channel=9 note=42 velocity=98 time=0
note_on channel=10 note=44 velocity=118 time=8
note_on channel=6 note=44 velocity=123 time=3
note_on channel=6 note=51 velocity=123 time=0
note_off channel=9 note=35 velocity=0 time=17
note_off channel=9 note=42 velocity=0 time=0
note_off channel=8 note=56 velocity=0 time=6
note_off channel=8 note=51 velocity=0 time=5
note_off channel=7 note=60 velocity=0 time=17
note_off channel=7 note=63 velocity=0 time=5
note_off channel=6 note=51 velocity=0 time=6
note_off channel=7 note=67 velocity=0 time=7
note_off channel=6 note=44 velocity=0 time=9
note_off channel=1 note=32 velocity=0 time=136
note_off channel=10 note=44 velocity=0 time=8
note_on channel=1 note=32 velocity=113 time=13
note_on channel=7 note=60 velocity=120 time=0
note_on channel=7 note=63 velocity=116 time=0
note_on channel=7 note=67 velocity=90 time=0
note_on channel=8 note=51 velocity=127 time=0
note_on channel=8 note=56 velocity=127 time=0
note_on channel=9 note=39 velocity=85 time=0
note_on channel=9 note=40 velocity=116 time=0
note_on channel=9 note=42 velocity=98 time=0
note_on channel=9 note=54 velocity=116 time=0
pitchwheel channel=3 pitch=520 time=6
note_on channel=10 note=44 velocity=113 time=2
note_on channel=6 note=44 velocity=127 time=3
note_on channel=6 note=51 velocity=127 time=0
pitchwheel channel=3 pitch=4290 time=5
pitchwheel channel=3 pitch=8191 time=10
note_off channel=9 note=39 velocity=0 time=2
note_off channel=9 note=40 velocity=0 time=0
note_off channel=9 note=42 velocity=0 time=0
note_off channel=9 note=54 velocity=0 time=0
note_off channel=7 note=60 velocity=0 time=27
note_off channel=7 note=63 velocity=0 time=5
note_off channel=7 note=67 velocity=0 time=10
note_off channel=6 note=51 velocity=0 time=5
note_off channel=8 note=51 velocity=0 time=15
note_off channel=6 note=44 velocity=0 time=1
note_off channel=8 note=56 velocity=0 time=13
note_off channel=3 note=84 velocity=0 time=112
note_off channel=1 note=32 velocity=0 time=3
note_off channel=10 note=44 velocity=0 time=8
note_off channel=8 note=44 velocity=0 time=9
note_on channel=1 note=32 velocity=118 time=4
note_on channel=7 note=60 velocity=120 time=0
note_on channel=7 note=63 velocity=116 time=0
note_on channel=7 note=67 velocity=110 time=0
note_on channel=8 note=51 velocity=116 time=0
note_on channel=8 note=56 velocity=111 time=0
note_on channel=9 note=42 velocity=98 time=0
note_on channel=3 note=82 velocity=123 time=0
pitchwheel channel=3 pitch=0 time=2
note_on channel=10 note=44 velocity=118 time=5
note_on channel=6 note=44 velocity=123 time=3
note_on channel=6 note=51 velocity=123 time=0
pitchwheel channel=3 pitch=0 time=7
note_off channel=9 note=42 velocity=0 time=10
note_off channel=8 note=51 velocity=0 time=23
note_off channel=7 note=60 velocity=0 time=4
note_off channel=7 note=63 velocity=0 time=7
note_off channel=6 note=51 velocity=0 time=7
note_off channel=7 note=67 velocity=0 time=0
note_off channel=8 note=56 velocity=0 time=0
note_off channel=6 note=44 velocity=0 time=7
note_off channel=7 note=32 velocity=0 time=135
note_off channel=7 note=44 velocity=0 time=0
note_off channel=1 note=32 velocity=0 time=8
note_off channel=10 note=44 velocity=0 time=8
note_on channel=1 note=32 velocity=113 time=13
note_on channel=4 note=63 velocity=116 time=0
note_on channel=4 note=67 velocity=102 time=0
note_on channel=4 note=70 velocity=102 time=0
note_on channel=7 note=32 velocity=115 time=0
note_on channel=7 note=44 velocity=115 time=0
note_on channel=7 note=60 velocity=125 time=0
note_on channel=7 note=63 velocity=111 time=0
note_on channel=7 note=67 velocity=110 time=0
note_on channel=8 note=44 velocity=116 time=0
note_on channel=8 note=51 velocity=127 time=0
note_on channel=8 note=54 velocity=116 time=0
note_on channel=8 note=56 velocity=127 time=0
note_on channel=9 note=35 velocity=116 time=0
note_on channel=9 note=42 velocity=98 time=0
note_on channel=10 note=44 velocity=113 time=8
note_off channel=8 note=54 velocity=0 time=1
note_on channel=6 note=44 velocity=123 time=2
note_on channel=6 note=51 velocity=127 time=0
note_off channel=9 note=35 velocity=0 time=17
note_off channel=9 note=42 velocity=0 time=0
note_off channel=7 note=60 velocity=0 time=26
note_off channel=7 note=63 velocity=0 time=2
note_off channel=7 note=67 velocity=0 time=10
note_off channel=8 note=51 velocity=0 time=8
note_off channel=6 note=51 velocity=0 time=3
note_off channel=8 note=56 velocity=0 time=17
note_off channel=6 note=44 velocity=0 time=4
note_off channel=4 note=63 velocity=0 time=26
note_off channel=4 note=67 velocity=0 time=2
note_off channel=4 note=70 velocity=0 time=0
note_off channel=1 note=32 velocity=0 time=93
note_off channel=10 note=44 velocity=0 time=8
note_on channel=1 note=32 velocity=113 time=13
note_on channel=4 note=63 velocity=116 time=0
note_on channel=4 note=67 velocity=87 time=0
note_on channel=4 note=70 velocity=87 time=0
note_on channel=7 note=60 velocity=106 time=0
note_on channel=7 note=63 velocity=101 time=0
note_on channel=7 note=67 velocity=95 time=0
note_on channel=8 note=51 velocity=123 time=0
note_on channel=8 note=54 velocity=89 time=0
note_on channel=8 note=56 velocity=116 time=0
note_on channel=9 note=35 velocity=116 time=0
note_on channel=9 note=42 velocity=98 time=0
note_off channel=8 note=54 velocity=0 time=4
note_on channel=10 note=44 velocity=113 time=4
note_on channel=6 note=44 velocity=123 time=3
note_on channel=6 note=51 velocity=127 time=0
note_off channel=9 note=35 velocity=0 time=17
note_off channel=9 note=42 velocity=0 time=0
note_off channel=8 note=51 velocity=0 time=22
note_off channel=8 note=56 velocity=0 time=2
note_off channel=7 note=60 velocity=0 time=4
note_off channel=7 note=63 velocity=0 time=6
note_off channel=7 note=67 velocity=0 time=5
note_off channel=6 note=51 velocity=0 time=3
note_off channel=6 note=44 velocity=0 time=22
note_off channel=4 note=63 velocity=0 time=18
note_off channel=4 note=67 velocity=0 time=1
note_off channel=4 note=70 velocity=0 time=0
note_off channel=3 note=82 velocity=0 time=17
note_off channel=1 note=32 velocity=0 time=91
note_off channel=10 note=44 velocity=0 time=8
note_on channel=1 note=32 velocity=118 time=13
note_on channel=4 note=65 velocity=102 time=0
note_on channel=4 note=68 velocity=123 time=0
note_on channel=4 note=72 velocity=123 time=0
note_on channel=7 note=60 velocity=125 time=0
note_on channel=7 note=63 velocity=116 time=0
note_on channel=7 note=67 velocity=110 time=0
note_on channel=8 note=51 velocity=127 time=0
note_on channel=8 note=54 velocity=97 time=0
note_on channel=8 note=56 velocity=127 time=0
note_on channel=9 note=39 velocity=85 time=0
note_on channel=9 note=40 velocity=116 time=0
note_on channel=9 note=42 velocity=98 time=0
note_on channel=9 note=54 velocity=116 time=0
note_off channel=8 note=54 velocity=0 time=4
note_on channel=10 note=44 velocity=118 time=4
note_on channel=6 note=44 velocity=127 time=3
note_on channel=6 note=51 velocity=127 time=0
note_off channel=9 note=39 velocity=0 time=17
note_off channel=9 note=40 velocity=0 time=0
note_off channel=9 note=42 velocity=0 time=0
note_off channel=9 note=54 velocity=0 time=0
note_off channel=7 note=60 velocity=0 time=28
note_off channel=7 note=63 velocity=0 time=6
note_off channel=7 note=67 velocity=0 time=10
note_off channel=6 note=51 velocity=0 time=7
note_off channel=8 note=51 velocity=0 time=3
note_off channel=6 note=44 velocity=0 time=12
note_off channel=8 note=56 velocity=0 time=8
note_off channel=1 note=32 velocity=0 time=117
note_off channel=10 note=44 velocity=0 time=8
note_on channel=1 note=32 velocity=113 time=13
note_on channel=7 note=60 velocity=115 time=0
note_on channel=7 note=63 velocity=111 time=0
note_on channel=7 note=67 velocity=110 time=0
note_on channel=8 note=51 velocity=116 time=0
note_on channel=8 note=54 velocity=101 time=0
note_on channel=8 note=56 velocity=123 time=0
note_on channel=9 note=42 velocity=98 time=0
note_off channel=8 note=54 velocity=0 time=6
note_on channel=10 note=44 velocity=113 time=2
note_on channel=6 note=44 velocity=123 time=3
note_on channel=6 note=51 velocity=127 time=0
note_on channel=3 note=79 velocity=125 time=0
note_off channel=4 note=68 velocity=0 time=5
note_off channel=4 note=72 velocity=0 time=0
note_off channel=9 note=42 velocity=0 time=0
note_off channel=4 note=65 velocity=0 time=20
note_off channel=7 note=60 velocity=0 time=10
note_off channel=7 note=63 velocity=0 time=3
note_off channel=8 note=51 velocity=0 time=1
note_off channel=6 note=51 velocity=0 time=12
note_off channel=7 note=67 velocity=0 time=3
note_off channel=8 note=56 velocity=0 time=0
note_off channel=3 note=79 velocity=0 time=9
note_off channel=6 note=44 velocity=0 time=15
note_on channel=4 note=63 velocity=123 time=19
note_on channel=4 note=67 velocity=115 time=0
note_on channel=4 note=70 velocity=115 time=0
note_off channel=8 note=44 velocity=0 time=36
note_off channel=7 note=32 velocity=0 time=55
note_off channel=7 note=44 velocity=0 time=0
note_off channel=1 note=32 velocity=0 time=8
note_off channel=4 note=63 velocity=0 time=0
note_off channel=4 note=67 velocity=0 time=1
note_off channel=4 note=70 velocity=0 time=0
note_off channel=10 note=44 velocity=0 time=7
note_on channel=1 note=34 velocity=113 time=13
note_on channel=7 note=34 velocity=115 time=0
note_on channel=7 note=46 velocity=115 time=0
note_on channel=7 note=62 velocity=98 time=0
note_on channel=7 note=65 velocity=90 time=0
note_on channel=7 note=70 velocity=101 time=0
note_on channel=8 note=53 velocity=102 time=0
note_on channel=8 note=58 velocity=123 time=0
note_on channel=9 note=35 velocity=116 time=0
note_on channel=9 note=42 velocity=98 time=0
note_on channel=10 note=46 velocity=113 time=8
note_on channel=6 note=46 velocity=127 time=3
note_on channel=6 note=53 velocity=115 time=0
note_on channel=3 note=82 velocity=127 time=0
note_off channel=9 note=35 velocity=0 time=1
note_off channel=9 note=42 velocity=0 time=0
note_off channel=7 note=65 velocity=0 time=38
note_off channel=7 note=70 velocity=0 time=3
note_off channel=8 note=53 velocity=0 time=8
note_off channel=6 note=53 velocity=0 time=2
note_off channel=6 note=46 velocity=0 time=3
note_off channel=7 note=62 velocity=0 time=2
note_off channel=8 note=58 velocity=0 time=4
note_off channel=1 note=34 velocity=0 time=131
note_off channel=10 note=46 velocity=0 time=8
note_off channel=3 note=82 velocity=0 time=7
note_on channel=1 note=34 velocity=118 time=6
note_on channel=7 note=62 velocity=90 time=0
note_on channel=7 note=65 velocity=74 time=0
note_on channel=7 note=70 velocity=89 time=0
note_on channel=8 note=53 velocity=110 time=0
note_on channel=8 note=58 velocity=127 time=0
note_on channel=9 note=35 velocity=116 time=0
note_on channel=9 note=46 velocity=98 time=0
note_on channel=10 note=46 velocity=118 time=8
note_on channel=6 note=46 velocity=127 time=3
note_on channel=6 note=53 velocity=115 time=0
note_off channel=9 note=35 velocity=0 time=17
note_off channel=9 note=46 velocity=0 time=0
note_on channel=3 note=79 velocity=106 time=0
note_off channel=7 note=70 velocity=0 time=26
note_off channel=7 note=65 velocity=0 time=2
note_off channel=8 note=53 velocity=0 time=7
note_off channel=7 note=62 velocity=0 time=5
note_off channel=6 note=53 velocity=0 time=2
note_off channel=8 note=58 velocity=0 time=1
note_off channel=6 note=46 velocity=0 time=8
note_off channel=3 note=79 velocity=0 time=17
note_off channel=1 note=34 velocity=0 time=119
note_off channel=10 note=46 velocity=0 time=8
note_on channel=1 note=34 velocity=113 time=13
note_on channel=7 note=62 velocity=106 time=0
note_on channel=7 note=65 velocity=98 time=0
note_on channel=7 note=70 velocity=111 time=0
note_on channel=8 note=53 velocity=110 time=0
note_on channel=8 note=58 velocity=127 time=0
note_on channel=9 note=39 velocity=85 time=0
note_on channel=9 note=40 velocity=116 time=0
note_on channel=9 note=42 velocity=98 time=0
note_on channel=9 note=54 velocity=116 time=0
note_on channel=10 note=46 velocity=113 time=8
note_on channel=6 note=46 velocity=123 time=3
note_on channel=6 note=53 velocity=110 time=0
note_on channel=3 note=82 velocity=127 time=0
note_off channel=9 note=39 velocity=0 time=6
note_off channel=9 note=40 velocity=0 time=0
note_off channel=9 note=42 velocity=0 time=0
note_off channel=9 note=54 velocity=0 time=0
note_off channel=7 note=65 velocity=0 time=34
note_off channel=7 note=70 velocity=0 time=3
note_off channel=7 note=62 velocity=0 time=7
note_off channel=6 note=53 velocity=0 time=5
note_off channel=8 note=53 velocity=0 time=4
note_off channel=6 note=46 velocity=0 time=3
note_off channel=8 note=58 velocity=0 time=5
note_off channel=3 note=82 velocity=0 time=126
note_off channel=1 note=34 velocity=0 time=4
note_off channel=10 note=46 velocity=0 time=8
note_on channel=1 note=34 velocity=118 time=13
note_on channel=7 note=62 velocity=106 time=0
note_on channel=7 note=65 velocity=98 time=0
note_on channel=7 note=70 velocity=105 time=0
note_on channel=8 note=53 velocity=115 time=0
note_on channel=8 note=58 velocity=123 time=0
note_on channel=9 note=40 velocity=116 time=0
note_on channel=9 note=42 velocity=98 time=0
note_on channel=10 note=46 velocity=118 time=8
note_on channel=6 note=46 velocity=127 time=3
note_on channel=6 note=53 velocity=125 time=0
note_on channel=3 note=79 velocity=106 time=0
note_off channel=9 note=40 velocity=0 time=15
note_off channel=9 note=42 velocity=0 time=0
note_off channel=7 note=65 velocity=0 time=28
note_off channel=7 note=70 velocity=0 time=3
note_off channel=6 note=53 velocity=0 time=13
note_off channel=7 note=62 velocity=0 time=0
note_off channel=6 note=46 velocity=0 time=10
note_off channel=8 note=53 velocity=0 time=3
note_off channel=8 note=58 velocity=0 time=3
note_off channel=3 note=79 velocity=0 time=26
note_on channel=9 note=40 velocity=116 time=6
note_off channel=9 note=40 velocity=0 time=28
note_off channel=7 note=34 velocity=0 time=63
note_off channel=7 note=46 velocity=0 time=0
note_off channel=1 note=34 velocity=0 time=8
note_off channel=10 note=46 velocity=0 time=8
note_on channel=1 note=36 velocity=113 time=13
note_on channel=4 note=63 velocity=116 time=0
note_on channel=4 note=67 velocity=102 time=0
note_on channel=4 note=70 velocity=102 time=0
note_on channel=7 note=36 velocity=115 time=0
note_on channel=7 note=48 velocity=115 time=0
note_on channel=7 note=67 velocity=106 time=0
note_on channel=7 note=72 velocity=125 time=0
note_on channel=7 note=75 velocity=116 time=0
note_on channel=8 note=48 velocity=125 time=0
note_on channel=8 note=55 velocity=115 time=0
note_on channel=8 note=60 velocity=120 time=0
note_on channel=9 note=35 velocity=116 time=0
note_on channel=9 note=49 velocity=98 time=0
note_on channel=10 note=48 velocity=113 time=8
note_on channel=6 note=48 velocity=127 time=3
note_on channel=6 note=55 velocity=125 time=0
note_on channel=3 note=84 velocity=115 time=0
note_off channel=9 note=35 velocity=0 time=14
note_off channel=9 note=49 velocity=0 time=0
note_off channel=7 note=72 velocity=0 time=9
note_off channel=7 note=75 velocity=0 time=1
note_off channel=6 note=55 velocity=0 time=13
note_off channel=7 note=67 velocity=0 time=2
note_off channel=6 note=48 velocity=0 time=8
note_off channel=8 note=60 velocity=0 time=32
note_off channel=8 note=55 velocity=0 time=2
note_off channel=4 note=63 velocity=0 time=29
note_off channel=4 note=67 velocity=0 time=2
note_off channel=4 note=70 velocity=0 time=0
note_off channel=8 note=48 velocity=0 time=56
note_off channel=1 note=36 velocity=0 time=37
note_off channel=10 note=48 velocity=0 time=8
note_on channel=1 note=36 velocity=113 time=13
note_on channel=4 note=63 velocity=116 time=0
note_on channel=4 note=67 velocity=87 time=0
note_on channel=4 note=70 velocity=87 time=0
note_on channel=7 note=67 velocity=77 time=0
note_on channel=7 note=72 velocity=106 time=0
note_on channel=7 note=75 velocity=86 time=0
note_on channel=8 note=55 velocity=90 time=0
note_on channel=8 note=60 velocity=102 time=0
note_on channel=9 note=35 velocity=116 time=0
note_on channel=9 note=42 velocity=98 time=0
note_on channel=10 note=48 velocity=113 time=8
note_on channel=6 note=48 velocity=125 time=3
note_on channel=6 note=55 velocity=125 time=0
note_off channel=9 note=35 velocity=0 time=17
note_off channel=9 note=42 velocity=0 time=0
note_off channel=7 note=75 velocity=0 time=3
note_off channel=7 note=72 velocity=0 time=6
note_off channel=6 note=55 velocity=0 time=7
note_off channel=7 note=67 velocity=0 time=6
note_off channel=6 note=48 velocity=0 time=10
note_off channel=8 note=60 velocity=0 time=2
note_off channel=8 note=55 velocity=0 time=7
note_off channel=4 note=63 velocity=0 time=41
note_off channel=4 note=67 velocity=0 time=1
note_off channel=4 note=70 velocity=0 time=0
note_off channel=1 note=36 velocity=0 time=108
note_off channel=10 note=48 velocity=0 time=8
note_on channel=1 note=36 velocity=118 time=13
note_on channel=4 note=65 velocity=102 time=0
note_on channel=4 note=68 velocity=123 time=0
note_on channel=4 note=72 velocity=123 time=0
note_on channel=7 note=67 velocity=120 time=0
note_on channel=7 note=72 velocity=127 time=0
note_on channel=7 note=75 velocity=127 time=0
note_on channel=8 note=48 velocity=127 time=0
note_on channel=8 note=55 velocity=125 time=0
note_on channel=8 note=60 velocity=127 time=0
note_on channel=9 note=39 velocity=85 time=0
note_on channel=9 note=40 velocity=116 time=0
note_on channel=9 note=42 velocity=98 time=0
note_on channel=9 note=54 velocity=116 time=0
note_on channel=10 note=48 velocity=118 time=8
note_on channel=6 note=48 velocity=127 time=3
note_on channel=6 note=55 velocity=127 time=0
note_off channel=9 note=39 velocity=0 time=17
note_off channel=9 note=40 velocity=0 time=0
note_off channel=9 note=42 velocity=0 time=0
note_off channel=9 note=54 velocity=0 time=0
note_off channel=6 note=55 velocity=0 time=34
note_off channel=7 note=72 velocity=0 time=1
note_off channel=7 note=75 velocity=0 time=5
note_off channel=7 note=67 velocity=0 time=4
note_off channel=6 note=48 velocity=0 time=14
note_off channel=8 note=55 velocity=0 time=3
note_off channel=8 note=60 velocity=0 time=21
note_off channel=8 note=48 velocity=0 time=7
note_off channel=1 note=36 velocity=0 time=21
note_off channel=10 note=48 velocity=0 time=8
note_on channel=1 note=36 velocity=113 time=11
note_on channel=7 note=67 velocity=74 time=0
note_on channel=7 note=72 velocity=98 time=0
note_on channel=7 note=75 velocity=97 time=0
note_on channel=8 note=55 velocity=102 time=0
note_on channel=8 note=60 velocity=115 time=0
note_on channel=9 note=42 velocity=98 time=0
note_on channel=10 note=48 velocity=113 time=4
note_on channel=6 note=48 velocity=125 time=3
note_on channel=6 note=55 velocity=120 time=0
note_off channel=4 note=68 velocity=0 time=9
note_off channel=4 note=72 velocity=0 time=0
note_off channel=9 note=42 velocity=0 time=0
note_off channel=4 note=65 velocity=0 time=14
note_off channel=6 note=55 velocity=0 time=4
note_off channel=7 note=72 velocity=0 time=1
note_off channel=7 note=75 velocity=0 time=6
note_off channel=6 note=48 velocity=0 time=8
note_off channel=7 note=67 velocity=0 time=1
note_off channel=8 note=60 velocity=0 time=10
note_off channel=8 note=55 velocity=0 time=3
note_on channel=4 note=63 velocity=123 time=6
note_on channel=4 note=67 velocity=115 time=0
note_on channel=4 note=70 velocity=115 time=0
note_off channel=1 note=36 velocity=0 time=36
note_off channel=4 note=63 velocity=0 time=0
note_off channel=4 note=67 velocity=0 time=1
note_off channel=4 note=70 velocity=0 time=0
note_off channel=10 note=48 velocity=0 time=7
note_on channel=1 note=36 velocity=113 time=13
note_on channel=7 note=67 velocity=106 time=0
note_on channel=7 note=72 velocity=127 time=0
note_on channel=7 note=75 velocity=116 time=0
note_on channel=8 note=55 velocity=115 time=0
note_on channel=8 note=60 velocity=127 time=0
note_on channel=9 note=35 velocity=116 time=0
note_on channel=9 note=42 velocity=98 time=0
note_on channel=10 note=48 velocity=113 time=8
note_on channel=6 note=48 velocity=127 time=3
note_on channel=6 note=55 velocity=120 time=0
note_off channel=9 note=35 velocity=0 time=1
note_off channel=9 note=42 velocity=0 time=0
note_off channel=6 note=55 velocity=0 time=11
note_off channel=7 note=72 velocity=0 time=1
note_off channel=7 note=75 velocity=0 time=7
note_off channel=7 note=67 velocity=0 time=2
note_off channel=6 note=48 velocity=0 time=7
note_off channel=8 note=60 velocity=0 time=39
note_off channel=8 note=55 velocity=0 time=4
note_off channel=3 note=84 velocity=0 time=48
note_off channel=1 note=36 velocity=0 time=43
note_off channel=10 note=48 velocity=0 time=8
note_on channel=1 note=36 velocity=118 time=13
note_on channel=7 note=67 velocity=71 time=0
note_on channel=7 note=72 velocity=90 time=0
note_on channel=7 note=75 velocity=81 time=0
note_on channel=8 note=55 velocity=83 time=0
note_on channel=8 note=60 velocity=102 time=0
note_on channel=9 note=35 velocity=116 time=0
note_on channel=9 note=42 velocity=98 time=0
note_on channel=10 note=48 velocity=118 time=8
note_on channel=6 note=48 velocity=120 time=3
note_on channel=6 note=55 velocity=115 time=0
note_on channel=3 note=84 velocity=106 time=0
note_off channel=9 note=35 velocity=0 time=13
note_off channel=9 note=42 velocity=0 time=0
note_off channel=7 note=72 velocity=0 time=19
note_off channel=7 note=75 velocity=0 time=0
note_off channel=6 note=55 velocity=0 time=1
note_off channel=6 note=48 velocity=0 time=9
note_off channel=8 note=60 velocity=0 time=0
note_off channel=7 note=67 velocity=0 time=7
note_off channel=8 note=55 velocity=0 time=9
note_off channel=3 note=84 velocity=0 time=140
note_off channel=1 note=36 velocity=0 time=6
note_off channel=10 note=48 velocity=0 time=8
note_on channel=1 note=36 velocity=113 time=13
note_on channel=7 note=67 velocity=115 time=0
note_on channel=7 note=72 velocity=127 time=0
note_on channel=7 note=75 velocity=123 time=0
note_on channel=8 note=48 velocity=127 time=0
note_on channel=8 note=55 velocity=125 time=0
note_on channel=8 note=60 velocity=127 time=0
note_on channel=9 note=39 velocity=85 time=0
note_on channel=9 note=40 velocity=116 time=0
note_on channel=9 note=42 velocity=98 time=0
note_on channel=9 note=54 velocity=116 time=0
note_on channel=10 note=48 velocity=113 time=8
note_on channel=6 note=48 velocity=127 time=3
note_on channel=6 note=55 velocity=125 time=0
note_off channel=9 note=39 velocity=0 time=17
note_off channel=9 note=40 velocity=0 time=0
note_off channel=9 note=42 velocity=0 time=0
note_off channel=9 note=54 velocity=0 time=0
note_on channel=3 note=84 velocity=125 time=0
pitchwheel channel=3 pitch=520 time=27
pitchwheel channel=3 pitch=1690 time=10
note_off channel=6 note=55 velocity=0 time=4
note_off channel=7 note=72 velocity=0 time=1
pitchwheel channel=3 pitch=3380 time=5
note_off channel=7 note=75 velocity=0 time=10
pitchwheel channel=3 pitch=5720 time=0
note_off channel=6 note=48 velocity=0 time=1
note_off channel=7 note=67 velocity=0 time=1
pitchwheel channel=3 pitch=8191 time=8
note_off channel=8 note=60 velocity=0 time=12
note_off channel=8 note=55 velocity=0 time=4
note_off channel=3 note=84 velocity=0 time=87
pitchwheel channel=3 pitch=6370 time=10
note_off channel=1 note=36 velocity=0 time=8
pitchwheel channel=3 pitch=0 time=3
note_off channel=10 note=48 velocity=0 time=5
note_on channel=1 note=36 velocity=118 time=13
note_on channel=7 note=67 velocity=106 time=0
note_on channel=7 note=72 velocity=115 time=0
note_on channel=7 note=75 velocity=105 time=0
note_on channel=8 note=55 velocity=98 time=0
note_on channel=8 note=60 velocity=115 time=0
note_on channel=9 note=42 velocity=98 time=0
note_on channel=10 note=48 velocity=118 time=8
note_on channel=6 note=48 velocity=125 time=3
note_on channel=6 note=55 velocity=125 time=0
note_on channel=3 note=82 velocity=123 time=0
note_off channel=9 note=42 velocity=0 time=15
note_off channel=7 note=72 velocity=0 time=34
note_off channel=6 note=55 velocity=0 time=7
note_off channel=7 note=75 velocity=0 time=2
note_off channel=8 note=60 velocity=0 time=7
note_off channel=7 note=67 velocity=0 time=4
note_off channel=8 note=55 velocity=0 time=16
note_off channel=6 note=48 velocity=0 time=11
note_off channel=7 note=36 velocity=0 time=102
note_off channel=7 note=48 velocity=0 time=0
note_off channel=8 note=48 velocity=0 time=1
note_off channel=1 note=36 velocity=0 time=7
note_off channel=10 note=48 velocity=0 time=8
note_on channel=1 note=34 velocity=113 time=13
note_on channel=4 note=63 velocity=116 time=0
note_on channel=4 note=67 velocity=102 time=0
note_on channel=4 note=70 velocity=102 time=0
note_on channel=7 note=34 velocity=115 time=0
note_on channel=7 note=46 velocity=115 time=0
note_on channel=7 note=65 velocity=83 time=0
note_on channel=7 note=70 velocity=105 time=0
note_on channel=7 note=74 velocity=102 time=0
note_on channel=8 note=53 velocity=90 time=0
note_on channel=8 note=58 velocity=123 time=0
note_on channel=9 note=35 velocity=116 time=0
note_on channel=9 note=42 velocity=98 time=0
note_on channel=10 note=46 velocity=113 time=8
note_on channel=6 note=46 velocity=127 time=3
note_on channel=6 note=53 velocity=115 time=0
note_off channel=9 note=35 velocity=0 time=17
note_off channel=9 note=42 velocity=0 time=0
note_off channel=7 note=74 velocity=0 time=35
note_off channel=6 note=53 velocity=0 time=11
note_off channel=7 note=65 velocity=0 time=0
note_off channel=7 note=70 velocity=0 time=1
note_off channel=6 note=46 velocity=0 time=6
note_off channel=8 note=53 velocity=0 time=26
note_off channel=8 note=58 velocity=0 time=6
note_off channel=4 note=63 velocity=0 time=11
note_off channel=4 note=67 velocity=0 time=2
note_off channel=4 note=70 velocity=0 time=0
note_off channel=1 note=34 velocity=0 time=93
note_off channel=10 note=46 velocity=0 time=8
note_on channel=1 note=34 velocity=113 time=13
note_on channel=4 note=63 velocity=116 time=0
note_on channel=4 note=67 velocity=87 time=0
note_on channel=4 note=70 velocity=87 time=0
note_on channel=7 note=65 velocity=63 time=0
note_on channel=7 note=70 velocity=81 time=0
note_on channel=7 note=74 velocity=56 time=0
note_on channel=8 note=53 velocity=67 time=0
note_on channel=8 note=58 velocity=86 time=0
note_on channel=9 note=35 velocity=116 time=0
note_on channel=9 note=42 velocity=98 time=0
note_on channel=10 note=46 velocity=113 time=8
note_on channel=6 note=46 velocity=123 time=3
note_on channel=6 note=53 velocity=120 time=0
note_off channel=9 note=35 velocity=0 time=17
note_off channel=9 note=42 velocity=0 time=0
note_off channel=7 note=74 velocity=0 time=9
note_off channel=7 note=65 velocity=0 time=15
note_off channel=8 note=58 velocity=0 time=1
note_off channel=7 note=70 velocity=0 time=1
note_off channel=6 note=53 velocity=0 time=16
note_off channel=8 note=53 velocity=0 time=2
note_off channel=6 note=46 velocity=0 time=1
note_off channel=4 note=63 velocity=0 time=37
note_off channel=4 note=67 velocity=0 time=1
note_off channel=4 note=70 velocity=0 time=0
note_off channel=1 note=34 velocity=0 time=108
note_off channel=10 note=46 velocity=0 time=8
note_on channel=1 note=34 velocity=118 time=13
note_on channel=4 note=65 velocity=102 time=0
note_on channel=4 note=68 velocity=123 time=0
note_on channel=4 note=72 velocity=123 time=0
note_on channel=7 note=65 velocity=106 time=0
note_on channel=7 note=70 velocity=116 time=0
note_on channel=7 note=74 velocity=115 time=0
note_on channel=8 note=46 velocity=127 time=0
note_on channel=8 note=53 velocity=110 time=0
note_on channel=8 note=58 velocity=127 time=0
note_on channel=9 note=39 velocity=85 time=0
note_on channel=9 note=40 velocity=116 time=0
note_on channel=9 note=42 velocity=98 time=0
note_on channel=9 note=54 velocity=116 time=0
note_on channel=10 note=46 velocity=118 time=8
note_on channel=6 note=46 velocity=127 time=3
note_on channel=6 note=53 velocity=125 time=0
note_off channel=9 note=39 velocity=0 time=17
note_off channel=9 note=40 velocity=0 time=0
note_off channel=9 note=42 velocity=0 time=0
note_off channel=9 note=54 velocity=0 time=0
note_off channel=3 note=82 velocity=0 time=19
note_off channel=7 note=65 velocity=0 time=23
note_off channel=7 note=70 velocity=0 time=0
note_off channel=7 note=74 velocity=0 time=13
note_off channel=6 note=53 velocity=0 time=6
note_off channel=6 note=46 velocity=0 time=28
note_off channel=8 note=53 velocity=0 time=13
note_off channel=8 note=58 velocity=0 time=1
note_off channel=1 note=34 velocity=0 time=88
note_off channel=10 note=46 velocity=0 time=8
note_on channel=1 note=34 velocity=113 time=13
note_on channel=7 note=65 velocity=74 time=0
note_on channel=7 note=70 velocity=93 time=0
note_on channel=7 note=74 velocity=83 time=0
note_on channel=8 note=53 velocity=80 time=0
note_on channel=8 note=58 velocity=116 time=0
note_on channel=9 note=42 velocity=98 time=0
note_on channel=10 note=46 velocity=113 time=8
note_on channel=6 note=46 velocity=111 time=3
note_on channel=6 note=53 velocity=106 time=0
note_off channel=4 note=68 velocity=0 time=17
note_off channel=4 note=72 velocity=0 time=0
note_off channel=9 note=42 velocity=0 time=0
note_off channel=4 note=65 velocity=0 time=20
note_off channel=7 note=65 velocity=0 time=18
note_off channel=7 note=70 velocity=0 time=2
note_off channel=6 note=53 velocity=0 time=8
note_off channel=7 note=74 velocity=0 time=0
note_off channel=6 note=46 velocity=0 time=4
note_off channel=8 note=53 velocity=0 time=9
note_off channel=8 note=58 velocity=0 time=8
note_on channel=4 note=63 velocity=123 time=23
note_on channel=4 note=67 velocity=115 time=0
note_on channel=4 note=70 velocity=115 time=0
note_off channel=1 note=34 velocity=0 time=99
note_off channel=4 note=63 velocity=0 time=0
note_off channel=4 note=67 velocity=0 time=1
note_off channel=4 note=70 velocity=0 time=0
note_off channel=10 note=46 velocity=0 time=7
note_on channel=1 note=34 velocity=113 time=13
note_on channel=7 note=65 velocity=90 time=0
note_on channel=7 note=70 velocity=101 time=0
note_on channel=7 note=74 velocity=98 time=0
note_on channel=8 note=53 velocity=90 time=0
note_on channel=8 note=58 velocity=123 time=0
note_on channel=9 note=35 velocity=116 time=0
note_on channel=9 note=42 velocity=98 time=0
note_on channel=10 note=46 velocity=113 time=8
note_on channel=6 note=46 velocity=127 time=3
note_on channel=6 note=53 velocity=120 time=0
note_off channel=9 note=35 velocity=0 time=17
note_off channel=9 note=42 velocity=0 time=0
note_off channel=7 note=65 velocity=0 time=38
note_off channel=7 note=70 velocity=0 time=3
note_off channel=7 note=74 velocity=0 time=15
note_off channel=6 note=53 velocity=0 time=3
note_off channel=6 note=46 velocity=0 time=6
note_off channel=8 note=53 velocity=0 time=4
note_off channel=8 note=58 velocity=0 time=12
note_off channel=1 note=34 velocity=0 time=110
note_off channel=10 note=46 velocity=0 time=8
note_on channel=3 note=79 velocity=120 time=0
note_on channel=1 note=34 velocity=118 time=4
note_on channel=7 note=65 velocity=74 time=0
note_on channel=7 note=70 velocity=89 time=0
note_on channel=7 note=74 velocity=90 time=0
note_on channel=8 note=53 velocity=63 time=0
note_on channel=8 note=58 velocity=97 time=0
note_on channel=9 note=35 velocity=116 time=0
note_on channel=9 note=46 velocity=98 time=0
note_off channel=8 note=46 velocity=0 time=1
note_on channel=10 note=46 velocity=118 time=7
note_on channel=6 note=46 velocity=116 time=3
note_on channel=6 note=53 velocity=110 time=0
note_off channel=9 note=35 velocity=0 time=17
note_off channel=9 note=46 velocity=0 time=0
note_off channel=8 note=58 velocity=0 time=17
note_off channel=8 note=53 velocity=0 time=6
note_off channel=7 note=70 velocity=0 time=7
note_off channel=7 note=65 velocity=0 time=2
note_off channel=7 note=74 velocity=0 time=12
note_off channel=6 note=53 velocity=0 time=4
note_off channel=6 note=46 velocity=0 time=4
note_off channel=3 note=79 velocity=0 time=87
note_off channel=1 note=34 velocity=0 time=52
note_on channel=3 note=79 velocity=120 time=0
note_off channel=10 note=46 velocity=0 time=6
note_on channel=1 note=34 velocity=113 time=13
note_on channel=7 note=65 velocity=98 time=0
note_on channel=7 note=70 velocity=111 time=0
note_on channel=7 note=74 velocity=106 time=0
note_on channel=8 note=46 velocity=123 time=0
note_on channel=8 note=53 velocity=102 time=0
note_on channel=8 note=58 velocity=127 time=0
note_on channel=9 note=39 velocity=85 time=0
note_on channel=9 note=40 velocity=116 time=0
note_on channel=9 note=42 velocity=98 time=0
note_on channel=9 note=54 velocity=116 time=0
note_on channel=10 note=46 velocity=113 time=8
note_on channel=6 note=46 velocity=127 time=3
note_on channel=6 note=53 velocity=120 time=0
note_off channel=9 note=39 velocity=0 time=17
note_off channel=9 note=40 velocity=0 time=0
note_off channel=9 note=42 velocity=0 time=0
note_off channel=9 note=54 velocity=0 time=0
note_off channel=7 note=65 velocity=0 time=34
note_off channel=7 note=70 velocity=0 time=3
note_off channel=7 note=74 velocity=0 time=7
note_off channel=6 note=53 velocity=0 time=11
note_off channel=6 note=46 velocity=0 time=7
note_off channel=8 note=53 velocity=0 time=13
note_off channel=8 note=58 velocity=0 time=14
note_off channel=3 note=79 velocity=0 time=62
note_off channel=1 note=34 velocity=0 time=40
note_off channel=10 note=46 velocity=0 time=8
note_on channel=1 note=34 velocity=118 time=0
note_on channel=3 note=80 velocity=123 time=0
note_on channel=7 note=65 velocity=98 time=0
note_on channel=7 note=70 velocity=105 time=0
note_on channel=7 note=74 velocity=106 time=0
note_on channel=8 note=53 velocity=98 time=0
note_on channel=8 note=58 velocity=111 time=0
note_on channel=9 note=42 velocity=98 time=0
note_on channel=10 note=46 velocity=118 time=8
note_on channel=6 note=46 velocity=123 time=3
note_on channel=6 note=53 velocity=115 time=0
note_off channel=9 note=42 velocity=0 time=17
note_off channel=7 note=65 velocity=0 time=28
note_off channel=7 note=70 velocity=0 time=3
note_off channel=8 note=58 velocity=0 time=4
note_off channel=7 note=74 velocity=0 time=9
note_off channel=6 note=46 velocity=0 time=10
note_off channel=6 note=53 velocity=0 time=9
note_off channel=8 note=53 velocity=0 time=2
note_off channel=7 note=34 velocity=0 time=118
note_off channel=7 note=46 velocity=0 time=0
note_off channel=1 note=34 velocity=0 time=8
note_off channel=10 note=46 velocity=0 time=8
note_off channel=8 note=46 velocity=0 time=6
note_on channel=1 note=32 velocity=113 time=7
note_on channel=4 note=63 velocity=116 time=0
note_on channel=4 note=67 velocity=102 time=0
note_on channel=4 note=70 velocity=102 time=0
note_on channel=7 note=32 velocity=115 time=0
note_on channel=7 note=44 velocity=115 time=0
note_on channel=7 note=60 velocity=125 time=0
note_on channel=7 note=63 velocity=116 time=0
note_on channel=7 note=67 velocity=115 time=0
note_on channel=8 note=51 velocity=127 time=0
note_on channel=8 note=56 velocity=123 time=0
note_on channel=9 note=35 velocity=116 time=0
note_on channel=9 note=42 velocity=98 time=0
note_on channel=10 note=44 velocity=113 time=8
note_on channel=6 note=44 velocity=116 time=3
note_on channel=6 note=51 velocity=127 time=0
note_off channel=9 note=35 velocity=0 time=17
note_off channel=9 note=42 velocity=0 time=0
note_off channel=7 note=63 velocity=0 time=29
note_off channel=7 note=60 velocity=0 time=3
note_off channel=7 note=67 velocity=0 time=9
note_off channel=6 note=51 velocity=0 time=3
note_off channel=6 note=44 velocity=0 time=42
note_off channel=4 note=63 velocity=0 time=10
note_off channel=8 note=51 velocity=0 time=1
note_off channel=4 note=67 velocity=0 time=1
note_off channel=4 note=70 velocity=0 time=0
note_off channel=3 note=80 velocity=0 time=8
note_off channel=8 note=56 velocity=0 time=19
note_off channel=1 note=32 velocity=0 time=66
note_off channel=10 note=44 velocity=0 time=8
note_on channel=1 note=32 velocity=113 time=13
note_on channel=4 note=63 velocity=116 time=0
note_on channel=4 note=67 velocity=87 time=0
note_on channel=4 note=70 velocity=87 time=0
note_on channel=7 note=60 velocity=110 time=0
note_on channel=7 note=63 velocity=105 time=0
note_on channel=7 note=67 velocity=102 time=0
note_on channel=8 note=51 velocity=101 time=0
note_on channel=8 note=56 velocity=86 time=0
note_on channel=9 note=35 velocity=116 time=0
note_on channel=9 note=42 velocity=98 time=0
note_on channel=10 note=44 velocity=113 time=8
note_on channel=3 note=80 velocity=123 time=0
note_on channel=6 note=44 velocity=116 time=2
note_on channel=6 note=51 velocity=116 time=0
note_off channel=9 note=35 velocity=0 time=17
note_off channel=9 note=42 velocity=0 time=0
note_off channel=7 note=60 velocity=0 time=14
note_off channel=7 note=63 velocity=0 time=4
note_off channel=8 note=56 velocity=0 time=0
note_off channel=7 note=67 velocity=0 time=5
note_off channel=6 note=51 velocity=0 time=5
note_off channel=8 note=51 velocity=0 time=0
note_off channel=6 note=44 velocity=0 time=23
note_off channel=4 note=63 velocity=0 time=31
note_off channel=4 note=67 velocity=0 time=1
note_off channel=4 note=70 velocity=0 time=0
note_off channel=3 note=80 velocity=0 time=19
note_off channel=1 note=32 velocity=0 time=89
note_off channel=10 note=44 velocity=0 time=8
note_on channel=1 note=32 velocity=118 time=13
note_on channel=4 note=65 velocity=102 time=0
note_on channel=4 note=68 velocity=123 time=0
note_on channel=4 note=72 velocity=123 time=0
note_on channel=7 note=60 velocity=127 time=0
note_on channel=7 note=63 velocity=123 time=0
note_on channel=7 note=67 velocity=125 time=0
note_on channel=8 note=44 velocity=123 time=0
note_on channel=8 note=51 velocity=127 time=0
note_on channel=8 note=54 velocity=123 time=0
note_on channel=8 note=56 velocity=127 time=0
note_on channel=9 note=39 velocity=85 time=0
note_on channel=9 note=40 velocity=116 time=0
note_on channel=9 note=42 velocity=98 time=0
note_on channel=9 note=54 velocity=116 time=0
note_on channel=10 note=44 velocity=118 time=8
note_on channel=6 note=44 velocity=127 time=3
note_on channel=6 note=51 velocity=127 time=0
note_off channel=8 note=54 velocity=0 time=4
note_off channel=9 note=39 velocity=0 time=13
note_off channel=9 note=40 velocity=0 time=0
note_off channel=9 note=42 velocity=0 time=0
note_off channel=9 note=54 velocity=0 time=0
note_off channel=7 note=60 velocity=0 time=30
note_off channel=7 note=63 velocity=0 time=2
note_off channel=6 note=51 velocity=0 time=13
note_off channel=7 note=67 velocity=0 time=2
note_off channel=8 note=51 velocity=0 time=12
note_off channel=6 note=44 velocity=0 time=20
note_off channel=8 note=56 velocity=0 time=5
note_off channel=1 note=32 velocity=0 time=107
note_off channel=10 note=44 velocity=0 time=8
note_on channel=1 note=32 velocity=113 time=13
note_on channel=7 note=60 velocity=125 time=0
note_on channel=7 note=63 velocity=111 time=0
note_on channel=7 note=67 velocity=102 time=0
note_on channel=8 note=51 velocity=111 time=0
note_on channel=8 note=56 velocity=101 time=0
note_on channel=9 note=42 velocity=98 time=0
note_on channel=10 note=44 velocity=113 time=8
note_on channel=6 note=44 velocity=116 time=3
note_on channel=6 note=51 velocity=116 time=0
note_off channel=4 note=68 velocity=0 time=17
note_off channel=4 note=72 velocity=0 time=0
note_off channel=9 note=42 velocity=0 time=0
note_off channel=4 note=65 velocity=0 time=20
note_off channel=7 note=60 velocity=0 time=5
note_off channel=7 note=63 velocity=0 time=0
note_off channel=7 note=67 velocity=0 time=8
note_off channel=6 note=51 velocity=0 time=6
note_off channel=8 note=51 velocity=0 time=8
note_off channel=8 note=56 velocity=0 time=2
note_off channel=6 note=44 velocity=0 time=16
note_on channel=4 note=63 velocity=123 time=27
note_on channel=4 note=67 velocity=115 time=0
note_on channel=4 note=70 velocity=115 time=0
note_off channel=1 note=32 velocity=0 time=99
note_off channel=4 note=63 velocity=0 time=0
note_off channel=4 note=67 velocity=0 time=1
note_off channel=4 note=70 velocity=0 time=0
note_off channel=10 note=44 velocity=0 time=7
note_on channel=1 note=32 velocity=113 time=13
note_on channel=7 note=60 velocity=120 time=0
note_on channel=7 note=63 velocity=116 time=0
note_on channel=7 note=67 velocity=110 time=0
note_on channel=8 note=51 velocity=123 time=0
note_on channel=8 note=54 velocity=86 time=0
note_on channel=8 note=56 velocity=116 time=0
note_on channel=9 note=35 velocity=116 time=0
note_on channel=9 note=42 velocity=98 time=0
note_off channel=8 note=54 velocity=0 time=6
note_on channel=10 note=44 velocity=113 time=2
note_on channel=6 note=44 velocity=123 time=3
note_on channel=6 note=51 velocity=127 time=0
note_off channel=9 note=35 velocity=0 time=17
note_off channel=9 note=42 velocity=0 time=0
note_off channel=7 note=60 velocity=0 time=26
note_off channel=7 note=63 velocity=0 time=7
note_off channel=7 note=67 velocity=0 time=8
note_off channel=8 note=51 velocity=0 time=4
note_off channel=6 note=51 velocity=0 time=3
note_off channel=8 note=56 velocity=0 time=12
note_off channel=6 note=44 velocity=0 time=13
note_off channel=1 note=32 velocity=0 time=118
note_off channel=10 note=44 velocity=0 time=0
note_on channel=3 note=79 velocity=125 time=0
note_on channel=1 note=32 velocity=118 time=13
note_on channel=7 note=60 velocity=115 time=0
note_on channel=7 note=63 velocity=111 time=0
note_on channel=7 note=67 velocity=106 time=0
note_on channel=8 note=51 velocity=101 time=0
note_on channel=8 note=56 velocity=75 time=0
note_on channel=9 note=35 velocity=116 time=0
note_on channel=9 note=42 velocity=98 time=0
note_on channel=10 note=44 velocity=118 time=8
note_on channel=6 note=44 velocity=123 time=3
note_on channel=6 note=51 velocity=123 time=0
note_off channel=9 note=35 velocity=0 time=17
note_off channel=9 note=42 velocity=0 time=0
note_off channel=8 note=56 velocity=0 time=6
note_off channel=8 note=51 velocity=0 time=5
note_off channel=7 note=60 velocity=0 time=17
note_off channel=7 note=63 velocity=0 time=5
note_off channel=6 note=51 velocity=0 time=6
note_off channel=7 note=67 velocity=0 time=7
note_off channel=6 note=44 velocity=0 time=9
note_off channel=3 note=79 velocity=0 time=98
note_off channel=1 note=32 velocity=0 time=38
note_off channel=10 note=44 velocity=0 time=8
note_on channel=3 note=79 velocity=115 time=0
note_on channel=1 note=32 velocity=113 time=4
note_on channel=7 note=60 velocity=120 time=0
note_on channel=7 note=63 velocity=116 time=0
note_on channel=7 note=67 velocity=90 time=0
note_on channel=8 note=51 velocity=127 time=0
note_on channel=8 note=56 velocity=127 time=0
note_on channel=9 note=39 velocity=85 time=0
note_on channel=9 note=40 velocity=116 time=0
note_on channel=9 note=42 velocity=98 time=0
note_on channel=9 note=54 velocity=116 time=0
note_on channel=10 note=44 velocity=113 time=8
note_on channel=6 note=44 velocity=127 time=3
note_on channel=6 note=51 velocity=127 time=0
note_off channel=9 note=39 velocity=0 time=17
note_off channel=9 note=40 velocity=0 time=0
note_off channel=9 note=42 velocity=0 time=0
note_off channel=9 note=54 velocity=0 time=0
note_off channel=7 note=60 velocity=0 time=27
note_off channel=7 note=63 velocity=0 time=5
note_off channel=7 note=67 velocity=0 time=10
note_off channel=6 note=51 velocity=0 time=5
note_off channel=8 note=51 velocity=0 time=15
note_off channel=6 note=44 velocity=0 time=1
note_off channel=3 note=79 velocity=0 time=1
note_off channel=8 note=56 velocity=0 time=12
note_off channel=1 note=32 velocity=0 time=115
note_off channel=10 note=44 velocity=0 time=8
note_off channel=8 note=44 velocity=0 time=9
note_on channel=3 note=80 velocity=116 time=0
note_on channel=1 note=32 velocity=118 time=2
note_on channel=7 note=60 velocity=120 time=0
note_on channel=7 note=63 velocity=116 time=0
note_on channel=7 note=67 velocity=110 time=0
note_on channel=8 note=51 velocity=116 time=0
note_on channel=8 note=56 velocity=111 time=0
note_on channel=9 note=42 velocity=98 time=0
note_on channel=10 note=44 velocity=118 time=8
note_on channel=6 note=44 velocity=123 time=3
note_on channel=6 note=51 velocity=123 time=0
note_off channel=9 note=42 velocity=0 time=17
note_off channel=8 note=51 velocity=0 time=23
note_off channel=7 note=60 velocity=0 time=4
note_off channel=7 note=63 velocity=0 time=7
note_off channel=6 note=51 velocity=0 time=7
note_off channel=7 note=67 velocity=0 time=0
note_off channel=8 note=56 velocity=0 time=0
note_off channel=6 note=44 velocity=0 time=7
note_off channel=3 note=80 velocity=0 time=113
note_off channel=7 note=32 velocity=0 time=22
note_off channel=7 note=44 velocity=0 time=0
note_on channel=3 note=79 velocity=110 time=6
note_off channel=1 note=32 velocity=0 time=2
note_off channel=10 note=44 velocity=0 time=8
note_on channel=1 note=32 velocity=113 time=13
note_on channel=4 note=63 velocity=116 time=0
note_on channel=4 note=67 velocity=102 time=0
note_on channel=4 note=70 velocity=102 time=0
note_on channel=7 note=32 velocity=115 time=0
note_on channel=7 note=44 velocity=115 time=0
note_on channel=7 note=60 velocity=125 time=0
note_on channel=7 note=63 velocity=111 time=0
note_on channel=7 note=67 velocity=110 time=0
note_on channel=8 note=44 velocity=116 time=0
note_on channel=8 note=51 velocity=127 time=0
note_on channel=8 note=54 velocity=116 time=0
note_on channel=8 note=56 velocity=127 time=0
note_on channel=9 note=35 velocity=116 time=0
note_on channel=9 note=42 velocity=98 time=0
note_on channel=10 note=44 velocity=113 time=8
note_off channel=8 note=54 velocity=0 time=1
note_on channel=6 note=44 velocity=123 time=2
note_on channel=6 note=51 velocity=127 time=0
note_off channel=9 note=35 velocity=0 time=17
note_off channel=9 note=42 velocity=0 time=0
note_off channel=7 note=60 velocity=0 time=26
note_off channel=7 note=63 velocity=0 time=2
note_off channel=7 note=67 velocity=0 time=10
note_off channel=8 note=51 velocity=0 time=8
note_off channel=6 note=51 velocity=0 time=3
note_off channel=8 note=56 velocity=0 time=17
note_off channel=6 note=44 velocity=0 time=4
note_off channel=4 note=63 velocity=0 time=26
note_off channel=4 note=67 velocity=0 time=2
note_off channel=4 note=70 velocity=0 time=0
note_off channel=3 note=79 velocity=0 time=79
note_off channel=1 note=32 velocity=0 time=14
note_off channel=10 note=44 velocity=0 time=8
note_on channel=3 note=77 velocity=87 time=12
note_on channel=1 note=32 velocity=113 time=1
note_on channel=4 note=63 velocity=116 time=0
note_on channel=4 note=67 velocity=87 time=0
note_on channel=4 note=70 velocity=87 time=0
note_on channel=7 note=60 velocity=106 time=0
note_on channel=7 note=63 velocity=101 time=0
note_on channel=7 note=67 velocity=95 time=0
note_on channel=8 note=51 velocity=123 time=0
note_on channel=8 note=54 velocity=89 time=0
note_on channel=8 note=56 velocity=116 time=0
note_on channel=9 note=35 velocity=116 time=0
note_on channel=9 note=42 velocity=98 time=0
note_off channel=8 note=54 velocity=0 time=4
note_on channel=10 note=44 velocity=113 time=4
note_on channel=6 note=44 velocity=123 time=3
note_on channel=6 note=51 velocity=127 time=0
note_off channel=9 note=35 velocity=0 time=17
note_off channel=9 note=42 velocity=0 time=0
note_off channel=8 note=51 velocity=0 time=22
note_off channel=8 note=56 velocity=0 time=2
note_off channel=7 note=60 velocity=0 time=4
note_off channel=7 note=63 velocity=0 time=6
note_off channel=7 note=67 velocity=0 time=5
note_off channel=6 note=51 velocity=0 time=3
note_off channel=6 note=44 velocity=0 time=22
note_off channel=4 note=63 velocity=0 time=18
note_off channel=4 note=67 velocity=0 time=1
note_off channel=4 note=70 velocity=0 time=0
note_off channel=1 note=32 velocity=0 time=108
note_off channel=10 note=44 velocity=0 time=8
note_on channel=1 note=32 velocity=118 time=13
note_on channel=4 note=65 velocity=102 time=0
note_on channel=4 note=68 velocity=123 time=0
note_on channel=4 note=72 velocity=123 time=0
note_on channel=7 note=60 velocity=125 time=0
note_on channel=7 note=63 velocity=116 time=0
note_on channel=7 note=67 velocity=110 time=0
note_on channel=8 note=51 velocity=127 time=0
note_on channel=8 note=54 velocity=97 time=0
note_on channel=8 note=56 velocity=127 time=0
note_on channel=9 note=39 velocity=85 time=0
note_on channel=9 note=40 velocity=116 time=0
note_on channel=9 note=42 velocity=98 time=0
note_on channel=9 note=54 velocity=116 time=0
note_off channel=8 note=54 velocity=0 time=4
note_off channel=3 note=77 velocity=0 time=4
note_on channel=10 note=44 velocity=118 time=0
note_on channel=3 note=75 velocity=116 time=0
note_on channel=6 note=44 velocity=127 time=0
note_on channel=6 note=51 velocity=127 time=0
note_off channel=9 note=39 velocity=0 time=17
note_off channel=9 note=40 velocity=0 time=0
note_off channel=9 note=42 velocity=0 time=0
note_off channel=9 note=54 velocity=0 time=0
note_off channel=7 note=60 velocity=0 time=28
note_off channel=7 note=63 velocity=0 time=6
note_off channel=7 note=67 velocity=0 time=10
note_off channel=6 note=51 velocity=0 time=7
note_off channel=8 note=51 velocity=0 time=3
note_off channel=6 note=44 velocity=0 time=12
note_off channel=8 note=56 velocity=0 time=8
note_off channel=1 note=32 velocity=0 time=117
note_off channel=10 note=44 velocity=0 time=8
note_on channel=1 note=32 velocity=113 time=13
note_on channel=7 note=60 velocity=115 time=0
note_on channel=7 note=63 velocity=111 time=0
note_on channel=7 note=67 velocity=110 time=0
note_on channel=8 note=51 velocity=116 time=0
note_on channel=8 note=54 velocity=101 time=0
note_on channel=8 note=56 velocity=123 time=0
note_on channel=9 note=42 velocity=98 time=0
note_off channel=8 note=54 velocity=0 time=6
note_on channel=10 note=44 velocity=113 time=2
note_on channel=6 note=44 velocity=123 time=3
note_on channel=6 note=51 velocity=127 time=0
note_off channel=3 note=75 velocity=0 time=6
note_on channel=3 note=79 velocity=125 time=0
note_off channel=4 note=68 velocity=0 time=5
note_off channel=4 note=72 velocity=0 time=0
note_off channel=9 note=42 velocity=0 time=0
note_off channel=4 note=65 velocity=0 time=20
note_off channel=7 note=60 velocity=0 time=10
note_off channel=7 note=63 velocity=0 time=3
note_off channel=8 note=51 velocity=0 time=1
note_off channel=6 note=51 velocity=0 time=12
note_off channel=7 note=67 velocity=0 time=3
note_off channel=8 note=56 velocity=0 time=0
note_off channel=3 note=79 velocity=0 time=9
note_off channel=6 note=44 velocity=0 time=15
note_on channel=4 note=63 velocity=123 time=19
note_on channel=4 note=67 velocity=115 time=0
note_on channel=4 note=70 velocity=115 time=0
note_off channel=8 note=44 velocity=0 time=36
note_off channel=7 note=32 velocity=0 time=55
note_off channel=7 note=44 velocity=0 time=0
note_off channel=1 note=32 velocity=0 time=8
note_off channel=4 note=63 velocity=0 time=0
note_off channel=4 note=67 velocity=0 time=1
note_off channel=4 note=70 velocity=0 time=0
note_off channel=10 note=44 velocity=0 time=7
note_on channel=1 note=34 velocity=113 time=13
note_on channel=7 note=34 velocity=115 time=0
note_on channel=7 note=46 velocity=115 time=0
note_on channel=7 note=62 velocity=98 time=0
note_on channel=7 note=65 velocity=90 time=0
note_on channel=7 note=70 velocity=101 time=0
note_on channel=8 note=53 velocity=102 time=0
note_on channel=8 note=58 velocity=123 time=0
note_on channel=9 note=35 velocity=116 time=0
note_on channel=9 note=42 velocity=98 time=0
note_on channel=10 note=46 velocity=113 time=8
note_on channel=6 note=46 velocity=127 time=3
note_on channel=6 note=53 velocity=115 time=0
note_on channel=3 note=82 velocity=127 time=0
note_off channel=9 note=35 velocity=0 time=1
note_off channel=9 note=42 velocity=0 time=0
note_off channel=7 note=65 velocity=0 time=38
note_off channel=7 note=70 velocity=0 time=3
note_off channel=8 note=53 velocity=0 time=8
note_off channel=6 note=53 velocity=0 time=2
note_off channel=6 note=46 velocity=0 time=3
note_off channel=7 note=62 velocity=0 time=2
note_off channel=8 note=58 velocity=0 time=4
note_off channel=1 note=34 velocity=0 time=131
note_off channel=10 note=46 velocity=0 time=8
note_off channel=3 note=82 velocity=0 time=7
note_on channel=1 note=34 velocity=118 time=6
note_on channel=7 note=62 velocity=90 time=0
note_on channel=7 note=65 velocity=74 time=0
note_on channel=7 note=70 velocity=89 time=0
note_on channel=8 note=53 velocity=110 time=0
note_on channel=8 note=58 velocity=127 time=0
note_on channel=9 note=35 velocity=116 time=0
note_on channel=9 note=46 velocity=98 time=0
note_on channel=10 note=46 velocity=118 time=8
note_on channel=6 note=46 velocity=127 time=3
note_on channel=6 note=53 velocity=115 time=0
note_off channel=9 note=35 velocity=0 time=17
note_off channel=9 note=46 velocity=0 time=0
note_on channel=3 note=79 velocity=106 time=0
note_off channel=7 note=70 velocity=0 time=26
note_off channel=7 note=65 velocity=0 time=2
note_off channel=8 note=53 velocity=0 time=7
note_off channel=7 note=62 velocity=0 time=5
note_off channel=6 note=53 velocity=0 time=2
note_off channel=8 note=58 velocity=0 time=1
note_off channel=6 note=46 velocity=0 time=8
note_off channel=3 note=79 velocity=0 time=17
note_off channel=1 note=34 velocity=0 time=119
note_off channel=10 note=46 velocity=0 time=8
note_on channel=1 note=34 velocity=113 time=13
note_on channel=7 note=62 velocity=106 time=0
note_on channel=7 note=65 velocity=98 time=0
note_on channel=7 note=70 velocity=111 time=0
note_on channel=8 note=53 velocity=110 time=0
note_on channel=8 note=58 velocity=127 time=0
note_on channel=9 note=39 velocity=85 time=0
note_on channel=9 note=40 velocity=116 time=0
note_on channel=9 note=42 velocity=98 time=0
note_on channel=9 note=54 velocity=116 time=0
note_on channel=10 note=46 velocity=113 time=8
note_on channel=6 note=46 velocity=123 time=3
note_on channel=6 note=53 velocity=110 time=0
note_on channel=3 note=82 velocity=127 time=0
note_off channel=9 note=39 velocity=0 time=6
note_off channel=9 note=40 velocity=0 time=0
note_off channel=9 note=42 velocity=0 time=0
note_off channel=9 note=54 velocity=0 time=0
note_off channel=7 note=65 velocity=0 time=34
note_off channel=7 note=70 velocity=0 time=3
note_off channel=7 note=62 velocity=0 time=7
note_off channel=6 note=53 velocity=0 time=5
note_off channel=8 note=53 velocity=0 time=4
note_off channel=6 note=46 velocity=0 time=3
note_off channel=8 note=58 velocity=0 time=5
note_on channel=9 note=40 velocity=116 time=31
note_off channel=9 note=40 velocity=0 time=28
note_off channel=3 note=82 velocity=0 time=67
note_off channel=1 note=34 velocity=0 time=4
note_off channel=10 note=46 velocity=0 time=8
note_on channel=1 note=34 velocity=118 time=13
note_on channel=7 note=62 velocity=106 time=0
note_on channel=7 note=65 velocity=98 time=0
note_on channel=7 note=70 velocity=105 time=0
note_on channel=8 note=53 velocity=115 time=0
note_on channel=8 note=58 velocity=123 time=0
note_on channel=9 note=40 velocity=116 time=0
note_on channel=9 note=42 velocity=98 time=0
note_on channel=10 note=46 velocity=118 time=8
note_on channel=6 note=46 velocity=127 time=3
note_on channel=6 note=53 velocity=125 time=0
note_on channel=3 note=79 velocity=106 time=0
note_off channel=9 note=40 velocity=0 time=15
note_off channel=9 note=42 velocity=0 time=0
note_off channel=7 note=65 velocity=0 time=28
note_off channel=7 note=70 velocity=0 time=3
note_off channel=6 note=53 velocity=0 time=13
note_off channel=7 note=62 velocity=0 time=0
note_off channel=6 note=46 velocity=0 time=10
note_off channel=8 note=53 velocity=0 time=3
note_off channel=8 note=58 velocity=0 time=3
note_off channel=3 note=79 velocity=0 time=26
note_on channel=9 note=40 velocity=116 time=6
note_off channel=9 note=40 velocity=0 time=28
note_off channel=7 note=34 velocity=0 time=63
note_off channel=7 note=46 velocity=0 time=0
note_off channel=1 note=34 velocity=0 time=8
note_off channel=10 note=46 velocity=0 time=8
note_on channel=1 note=32 velocity=113 time=13
note_on channel=7 note=32 velocity=115 time=0
note_on channel=7 note=44 velocity=115 time=0
note_on channel=7 note=63 velocity=116 time=0
note_on channel=7 note=67 velocity=115 time=0
note_on channel=7 note=72 velocity=125 time=0
note_on channel=8 note=51 velocity=127 time=0
note_on channel=8 note=56 velocity=123 time=0
note_on channel=9 note=35 velocity=116 time=0
note_on channel=9 note=49 velocity=98 time=0
note_on channel=10 note=44 velocity=113 time=8
note_on channel=6 note=44 velocity=116 time=3
note_on channel=6 note=51 velocity=127 time=0
note_off channel=9 note=35 velocity=0 time=17
note_off channel=9 note=49 velocity=0 time=0
note_on channel=3 note=84 velocity=125 time=0
note_off channel=7 note=63 velocity=0 time=28
note_off channel=7 note=72 velocity=0 time=3
note_off channel=7 note=67 velocity=0 time=9
note_off channel=6 note=51 velocity=0 time=3
note_off channel=6 note=44 velocity=0 time=42
note_off channel=8 note=51 velocity=0 time=11
note_off channel=8 note=56 velocity=0 time=28
note_off channel=1 note=32 velocity=0 time=66
note_off channel=10 note=44 velocity=0 time=8
note_on channel=1 note=32 velocity=113 time=13
note_on channel=7 note=63 velocity=105 time=0
note_on channel=7 note=67 velocity=102 time=0
note_on channel=7 note=72 velocity=110 time=0
note_on channel=8 note=51 velocity=101 time=0
note_on channel=8 note=56 velocity=86 time=0
note_on channel=9 note=35 velocity=116 time=0
note_on channel=9 note=42 velocity=98 time=0
note_on channel=10 note=44 velocity=113 time=8
note_on channel=6 note=44 velocity=116 time=3
note_on channel=6 note=51 velocity=116 time=0
note_off channel=9 note=35 velocity=0 time=17
note_off channel=9 note=42 velocity=0 time=0
note_off channel=7 note=72 velocity=0 time=14
note_off channel=7 note=63 velocity=0 time=4
note_off channel=8 note=56 velocity=0 time=0
note_off channel=7 note=67 velocity=0 time=5
note_off channel=6 note=51 velocity=0 time=5
note_off channel=8 note=51 velocity=0 time=0
note_off channel=6 note=44 velocity=0 time=23
note_off channel=1 note=32 velocity=0 time=140
note_off channel=10 note=44 velocity=0 time=8
note_on channel=1 note=32 velocity=118 time=13
note_on channel=7 note=63 velocity=123 time=0
note_on channel=7 note=67 velocity=125 time=0
note_on channel=7 note=72 velocity=127 time=0
note_on channel=8 note=44 velocity=123 time=0
note_on channel=8 note=51 velocity=127 time=0
note_on channel=8 note=54 velocity=123 time=0
note_on channel=8 note=56 velocity=127 time=0
note_on channel=9 note=39 velocity=85 time=0
note_on channel=9 note=40 velocity=116 time=0
note_on channel=9 note=42 velocity=98 time=0
note_on channel=9 note=54 velocity=116 time=0
note_on channel=10 note=44 velocity=118 time=8
note_on channel=6 note=44 velocity=127 time=3
note_on channel=6 note=51 velocity=127 time=0
note_off channel=8 note=54 velocity=0 time=4
note_off channel=9 note=39 velocity=0 time=13
note_off channel=9 note=40 velocity=0 time=0
note_off channel=9 note=42 velocity=0 time=0
note_off channel=9 note=54 velocity=0 time=0
note_off channel=7 note=72 velocity=0 time=30
note_off channel=7 note=63 velocity=0 time=2
note_off channel=6 note=51 velocity=0 time=13
note_off channel=7 note=67 velocity=0 time=2
note_off channel=8 note=51 velocity=0 time=12
note_off channel=6 note=44 velocity=0 time=20
note_off channel=8 note=56 velocity=0 time=5
note_off channel=1 note=32 velocity=0 time=107
note_off channel=10 note=44 velocity=0 time=8
note_on channel=1 note=32 velocity=113 time=13
note_on channel=7 note=63 velocity=111 time=0
note_on channel=7 note=67 velocity=102 time=0
note_on channel=7 note=72 velocity=125 time=0
note_on channel=8 note=51 velocity=111 time=0
note_on channel=8 note=56 velocity=101 time=0
note_on channel=9 note=42 velocity=98 time=0
note_on channel=10 note=44 velocity=113 time=8
note_on channel=6 note=44 velocity=116 time=3
note_on channel=6 note=51 velocity=116 time=0
note_off channel=9 note=42 velocity=0 time=17
note_off channel=7 note=63 velocity=0 time=25
note_off channel=7 note=72 velocity=0 time=0
note_off channel=7 note=67 velocity=0 time=8
note_off channel=6 note=51 velocity=0 time=6
note_off channel=8 note=51 velocity=0 time=8
note_off channel=8 note=56 velocity=0 time=2
note_off channel=6 note=44 velocity=0 time=16
note_off channel=1 note=32 velocity=0 time=13
note_off channel=10 note=44 velocity=0 time=8
note_on channel=1 note=32 velocity=113 time=3
note_on channel=7 note=63 velocity=116 time=0
note_on channel=7 note=67 velocity=110 time=0
note_on channel=7 note=72 velocity=120 time=0
note_on channel=8 note=51 velocity=123 time=0
note_on channel=8 note=54 velocity=86 time=0
note_on channel=8 note=56 velocity=116 time=0
note_on channel=9 note=35 velocity=116 time=0
note_on channel=9 note=42 velocity=98 time=0
note_off channel=8 note=54 velocity=0 time=6
note_on channel=10 note=44 velocity=113 time=2
note_on channel=6 note=44 velocity=123 time=3
note_on channel=6 note=51 velocity=127 time=0
note_off channel=9 note=35 velocity=0 time=1
note_off channel=9 note=42 velocity=0 time=0
note_off channel=7 note=72 velocity=0 time=12
note_off channel=7 note=63 velocity=0 time=7
note_off channel=7 note=67 velocity=0 time=8
note_off channel=8 note=51 velocity=0 time=1
note_off channel=6 note=51 velocity=0 time=3
note_off channel=8 note=56 velocity=0 time=1
note_off channel=6 note=44 velocity=0 time=13
note_off channel=1 note=32 velocity=0 time=12
note_off channel=10 note=44 velocity=0 time=8
note_on channel=1 note=32 velocity=118 time=3
note_on channel=7 note=63 velocity=111 time=0
note_on channel=7 note=67 velocity=106 time=0
note_on channel=7 note=72 velocity=115 time=0
note_on channel=8 note=51 velocity=101 time=0
note_on channel=8 note=56 velocity=75 time=0
note_on channel=9 note=35 velocity=116 time=0
note_on channel=9 note=42 velocity=98 time=0
note_on channel=10 note=44 velocity=118 time=8
note_on channel=6 note=44 velocity=123 time=3
note_on channel=6 note=51 velocity=123 time=0
note_off channel=9 note=35 velocity=0 time=1
note_off channel=9 note=42 velocity=0 time=0
note_off channel=8 note=56 velocity=0 time=6
note_off channel=8 note=51 velocity=0 time=5
note_off channel=7 note=72 velocity=0 time=17
note_off channel=7 note=63 velocity=0 time=4
note_off channel=6 note=51 velocity=0 time=6
note_off channel=7 note=67 velocity=0 time=7
note_off channel=6 note=44 velocity=0 time=9
note_off channel=1 note=32 velocity=0 time=3
note_off channel=10 note=44 velocity=0 time=8
note_on channel=1 note=32 velocity=113 time=9
note_on channel=7 note=63 velocity=116 time=0
note_on channel=7 note=67 velocity=90 time=0
note_on channel=7 note=72 velocity=120 time=0
note_on channel=8 note=51 velocity=127 time=0
note_on channel=8 note=56 velocity=127 time=0
note_on channel=9 note=39 velocity=85 time=0
note_on channel=9 note=40 velocity=116 time=0
note_on channel=9 note=42 velocity=98 time=0
note_on channel=9 note=54 velocity=116 time=0
note_on channel=10 note=44 velocity=113 time=2
note_on channel=6 note=44 velocity=127 time=3
note_on channel=6 note=51 velocity=127 time=0
note_off channel=9 note=39 velocity=0 time=7
note_off channel=9 note=40 velocity=0 time=0
note_off channel=9 note=42 velocity=0 time=0
note_off channel=9 note=54 velocity=0 time=0
note_off channel=7 note=72 velocity=0 time=1
note_off channel=7 note=63 velocity=0 time=5
note_off channel=7 note=67 velocity=0 time=1
note_off channel=6 note=51 velocity=0 time=5
note_off channel=8 note=51 velocity=0 time=14
note_off channel=6 note=44 velocity=0 time=1
note_off channel=8 note=56 velocity=0 time=13
note_off channel=3 note=84 velocity=0 time=30
note_off channel=1 note=32 velocity=0 time=14
note_off channel=10 note=44 velocity=0 time=8
note_off channel=8 note=44 velocity=0 time=9
note_on channel=1 note=32 velocity=118 time=4
note_on channel=7 note=63 velocity=116 time=0
note_on channel=7 note=67 velocity=110 time=0
note_on channel=7 note=72 velocity=120 time=0
note_on channel=8 note=51 velocity=116 time=0
note_on channel=8 note=56 velocity=111 time=0
note_on channel=9 note=42 velocity=98 time=0
note_on channel=10 note=44 velocity=118 time=8
note_on channel=6 note=44 velocity=123 time=3
note_on channel=6 note=51 velocity=123 time=0
note_on channel=3 note=82 velocity=123 time=0
note_off channel=9 note=42 velocity=0 time=13
note_off channel=8 note=51 velocity=0 time=23
note_off channel=7 note=72 velocity=0 time=4
note_off channel=7 note=63 velocity=0 time=7
note_off channel=6 note=51 velocity=0 time=7
note_off channel=7 note=67 velocity=0 time=0
note_off channel=8 note=56 velocity=0 time=0
note_off channel=6 note=44 velocity=0 time=7
note_off channel=7 note=32 velocity=0 time=135
note_off channel=7 note=44 velocity=0 time=0
note_off channel=1 note=32 velocity=0 time=8
note_off channel=10 note=44 velocity=0 time=8
note_on channel=1 note=34 velocity=113 time=13
note_on channel=7 note=34 velocity=115 time=0
note_on channel=7 note=46 velocity=115 time=0
note_on channel=7 note=65 velocity=83 time=0
note_on channel=7 note=70 velocity=105 time=0
note_on channel=7 note=74 velocity=102 time=0
note_on channel=8 note=53 velocity=90 time=0
note_on channel=8 note=58 velocity=123 time=0
note_on channel=9 note=35 velocity=116 time=0
note_on channel=9 note=42 velocity=98 time=0
note_on channel=10 note=46 velocity=113 time=8
note_on channel=6 note=46 velocity=116 time=3
note_on channel=6 note=53 velocity=127 time=0
note_off channel=9 note=35 velocity=0 time=17
note_off channel=9 note=42 velocity=0 time=0
note_off channel=7 note=74 velocity=0 time=35
note_off channel=6 note=53 velocity=0 time=9
note_off channel=7 note=65 velocity=0 time=2
note_off channel=7 note=70 velocity=0 time=1
note_off channel=8 note=53 velocity=0 time=32
note_off channel=8 note=58 velocity=0 time=6
note_off channel=6 note=46 velocity=0 time=1
note_off channel=1 note=34 velocity=0 time=105
note_off channel=10 note=46 velocity=0 time=8
note_off channel=3 note=82 velocity=0 time=13
note_on channel=1 note=34 velocity=113 time=0
note_on channel=7 note=65 velocity=63 time=0
note_on channel=7 note=70 velocity=81 time=0
note_on channel=7 note=74 velocity=56 time=0
note_on channel=8 note=53 velocity=67 time=0
note_on channel=8 note=58 velocity=86 time=0
note_on channel=9 note=35 velocity=116 time=0
note_on channel=9 note=42 velocity=98 time=0
note_on channel=10 note=46 velocity=113 time=8
note_on channel=6 note=46 velocity=116 time=3
note_on channel=6 note=53 velocity=116 time=0
note_off channel=9 note=35 velocity=0 time=17
note_off channel=9 note=42 velocity=0 time=0
note_off channel=7 note=74 velocity=0 time=9
note_off channel=7 note=65 velocity=0 time=15
note_off channel=8 note=58 velocity=0 time=1
note_off channel=7 note=70 velocity=0 time=1
note_off channel=6 note=53 velocity=0 time=2
note_off channel=8 note=53 velocity=0 time=16
note_off channel=6 note=46 velocity=0 time=7
note_off channel=1 note=34 velocity=0 time=140
note_off channel=10 note=46 velocity=0 time=8
note_on channel=1 note=34 velocity=118 time=13
note_on channel=7 note=65 velocity=106 time=0
note_on channel=7 note=70 velocity=116 time=0
note_on channel=7 note=74 velocity=115 time=0
note_on channel=8 note=46 velocity=127 time=0
note_on channel=8 note=53 velocity=110 time=0
note_on channel=8 note=58 velocity=127 time=0
note_on channel=9 note=39 velocity=85 time=0
note_on channel=9 note=40 velocity=116 time=0
note_on channel=9 note=42 velocity=98 time=0
note_on channel=9 note=54 velocity=116 time=0
note_on channel=10 note=46 velocity=118 time=8
note_on channel=6 note=46 velocity=127 time=3
note_on channel=6 note=53 velocity=127 time=0
note_off channel=9 note=39 velocity=0 time=17
note_off channel=9 note=40 velocity=0 time=0
note_off channel=9 note=42 velocity=0 time=0
note_off channel=9 note=54 velocity=0 time=0
note_off channel=7 note=65 velocity=0 time=42
note_off channel=7 note=70 velocity=0 time=0
note_off channel=6 note=53 velocity=0 time=3
note_off channel=7 note=74 velocity=0 time=10
note_off channel=6 note=46 velocity=0 time=24
note_off channel=8 note=53 velocity=0 time=23
note_off channel=8 note=58 velocity=0 time=1
note_off channel=1 note=34 velocity=0 time=88
note_off channel=10 note=46 velocity=0 time=8
note_on channel=1 note=34 velocity=113 time=13
note_on channel=7 note=65 velocity=74 time=0
note_on channel=7 note=70 velocity=93 time=0
note_on channel=7 note=74 velocity=83 time=0
note_on channel=8 note=53 velocity=80 time=0
note_on channel=8 note=58 velocity=116 time=0
note_on channel=9 note=42 velocity=98 time=0
note_on channel=10 note=46 velocity=113 time=8
note_on channel=6 note=46 velocity=116 time=3
note_on channel=6 note=53 velocity=116 time=0
note_on channel=3 note=79 velocity=125 time=0
note_off channel=9 note=42 velocity=0 time=5
note_off channel=7 note=65 velocity=0 time=38
note_off channel=6 note=53 velocity=0 time=1
note_off channel=7 note=70 velocity=0 time=1
note_off channel=7 note=74 velocity=0 time=8
note_off channel=3 note=79 velocity=0 time=10
note_off channel=8 note=53 velocity=0 time=3
note_off channel=6 note=46 velocity=0 time=4
note_off channel=8 note=58 velocity=0 time=4
note_off channel=1 note=34 velocity=0 time=122
note_off channel=10 note=46 velocity=0 time=8
note_on channel=1 note=34 velocity=113 time=13
note_on channel=7 note=65 velocity=90 time=0
note_on channel=7 note=70 velocity=101 time=0
note_on channel=7 note=74 velocity=98 time=0
note_on channel=8 note=53 velocity=90 time=0
note_on channel=8 note=58 velocity=123 time=0
note_on channel=9 note=35 velocity=116 time=0
note_on channel=9 note=42 velocity=98 time=0
note_on channel=10 note=46 velocity=113 time=8
note_on channel=6 note=46 velocity=123 time=3
note_on channel=6 note=53 velocity=127 time=0
note_on channel=3 note=82 velocity=127 time=16
note_off channel=9 note=35 velocity=0 time=1
note_off channel=9 note=42 velocity=0 time=0
note_off channel=7 note=65 velocity=0 time=38
note_off channel=7 note=70 velocity=0 time=3
note_off channel=6 note=53 velocity=0 time=7
note_off channel=7 note=74 velocity=0 time=8
note_off channel=8 note=53 velocity=0 time=13
note_off channel=6 note=46 velocity=0 time=4
note_off channel=8 note=58 velocity=0 time=8
note_off channel=1 note=34 velocity=0 time=110
note_off channel=10 note=46 velocity=0 time=8
note_off channel=3 note=82 velocity=0 time=7
note_on channel=1 note=34 velocity=118 time=6
note_on channel=7 note=65 velocity=74 time=0
note_on channel=7 note=70 velocity=89 time=0
note_on channel=7 note=74 velocity=90 time=0
note_on channel=8 note=53 velocity=63 time=0
note_on channel=8 note=58 velocity=97 time=0
note_on channel=9 note=35 velocity=116 time=0
note_on channel=9 note=46 velocity=98 time=0
note_off channel=8 note=46 velocity=0 time=1
note_on channel=10 note=46 velocity=118 time=7
note_on channel=6 note=46 velocity=123 time=3
note_on channel=6 note=53 velocity=123 time=0
note_off channel=9 note=35 velocity=0 time=17
note_off channel=9 note=46 velocity=0 time=0
note_on channel=3 note=79 velocity=106 time=0
note_off channel=8 note=58 velocity=0 time=13
note_off channel=8 note=53 velocity=0 time=6
note_off channel=7 note=70 velocity=0 time=7
note_off channel=7 note=65 velocity=0 time=2
note_off channel=6 note=53 velocity=0 time=7
note_off channel=7 note=74 velocity=0 time=5
note_off channel=6 note=46 velocity=0 time=11
note_off channel=3 note=79 velocity=0 time=17
note_off channel=1 note=34 velocity=0 time=119
note_off channel=10 note=46 velocity=0 time=8
note_on channel=1 note=34 velocity=113 time=13
note_on channel=7 note=65 velocity=98 time=0
note_on channel=7 note=70 velocity=111 time=0
note_on channel=7 note=74 velocity=106 time=0
note_on channel=8 note=46 velocity=123 time=0
note_on channel=8 note=53 velocity=102 time=0
note_on channel=8 note=58 velocity=127 time=0
note_on channel=9 note=39 velocity=85 time=0
note_on channel=9 note=40 velocity=116 time=0
note_on channel=9 note=42 velocity=98 time=0
note_on channel=9 note=54 velocity=116 time=0
note_on channel=10 note=46 velocity=113 time=8
note_on channel=6 note=46 velocity=127 time=3
note_on channel=6 note=53 velocity=127 time=0
note_on channel=3 note=82 velocity=127 time=0
note_off channel=9 note=39 velocity=0 time=6
note_off channel=9 note=40 velocity=0 time=0
note_off channel=9 note=42 velocity=0 time=0
note_off channel=9 note=54 velocity=0 time=0
note_off channel=7 note=65 velocity=0 time=34
note_off channel=7 note=70 velocity=0 time=3
note_off channel=7 note=74 velocity=0 time=7
note_off channel=6 note=53 velocity=0 time=3
note_off channel=6 note=46 velocity=0 time=16
note_off channel=8 note=53 velocity=0 time=12
note_off channel=8 note=58 velocity=0 time=14
note_off channel=3 note=82 velocity=0 time=98
note_off channel=1 note=34 velocity=0 time=4
note_off channel=10 note=46 velocity=0 time=8
note_on channel=1 note=34 velocity=118 time=13
note_on channel=7 note=65 velocity=98 time=0
note_on channel=7 note=70 velocity=105 time=0
note_on channel=7 note=74 velocity=106 time=0
note_on channel=8 note=53 velocity=98 time=0
note_on channel=8 note=58 velocity=111 time=0
note_on channel=9 note=42 velocity=98 time=0
note_on channel=10 note=46 velocity=118 time=8
note_on channel=6 note=46 velocity=123 time=3
note_on channel=6 note=53 velocity=123 time=0
note_on channel=3 note=79 velocity=106 time=0
note_off channel=9 note=42 velocity=0 time=15
note_off channel=7 note=65 velocity=0 time=28
note_off channel=7 note=70 velocity=0 time=3
note_off channel=8 note=58 velocity=0 time=4
note_off channel=6 note=53 velocity=0 time=6
note_off channel=7 note=74 velocity=0 time=3
note_off channel=6 note=46 velocity=0 time=4
note_off channel=8 note=53 velocity=0 time=17
note_off channel=3 note=79 velocity=0 time=21
note_off channel=7 note=34 velocity=0 time=97
note_off channel=7 note=46 velocity=0 time=0
note_off channel=1 note=34 velocity=0 time=8
note_off channel=10 note=46 velocity=0 time=8
note_off channel=8 note=46 velocity=0 time=6
note_on channel=1 note=36 velocity=113 time=7
note_on channel=7 note=36 velocity=115 time=0
note_on channel=7 note=48 velocity=115 time=0
note_on channel=7 note=67 velocity=106 time=0
note_on channel=7 note=72 velocity=125 time=0
note_on channel=7 note=75 velocity=116 time=0
note_on channel=8 note=48 velocity=125 time=0
note_on channel=8 note=55 velocity=115 time=0
note_on channel=8 note=60 velocity=120 time=0
note_on channel=9 note=35 velocity=116 time=0
note_on channel=9 note=42 velocity=98 time=0
note_on channel=10 note=48 velocity=113 time=8
note_on channel=6 note=48 velocity=116 time=3
note_on channel=6 note=55 velocity=127 time=0
note_on channel=3 note=84 velocity=125 time=0
note_off channel=9 note=35 velocity=0 time=7
note_off channel=9 note=42 velocity=0 time=0
note_off channel=7 note=72 velocity=0 time=9
note_off channel=7 note=75 velocity=0 time=1
note_off channel=7 note=67 velocity=0 time=15
note_off channel=6 note=55 velocity=0 time=19
note_off channel=8 note=60 velocity=0 time=21
note_off channel=8 note=55 velocity=0 time=2
note_off channel=6 note=48 velocity=0 time=19
note_off channel=8 note=48 velocity=0 time=68
note_off channel=1 note=36 velocity=0 time=37
note_off channel=10 note=48 velocity=0 time=8
note_on channel=1 note=36 velocity=113 time=13
note_on channel=7 note=67 velocity=77 time=0
note_on channel=7 note=72 velocity=106 time=0
note_on channel=7 note=75 velocity=86 time=0
note_on channel=8 note=55 velocity=90 time=0
note_on channel=8 note=60 velocity=102 time=0
note_on channel=9 note=35 velocity=116 time=0
note_on channel=9 note=42 velocity=98 time=0
note_on channel=10 note=48 velocity=113 time=8
note_on channel=6 note=48 velocity=116 time=3
note_on channel=6 note=55 velocity=116 time=0
note_off channel=9 note=35 velocity=0 time=17
note_off channel=9 note=42 velocity=0 time=0
note_off channel=7 note=75 velocity=0 time=3
note_off channel=7 note=72 velocity=0 time=6
note_off channel=7 note=67 velocity=0 time=13
note_off channel=6 note=55 velocity=0 time=6
note_off channel=8 note=60 velocity=0 time=6
note_off channel=8 note=55 velocity=0 time=7
note_off channel=6 note=48 velocity=0 time=10
note_off channel=1 note=36 velocity=0 time=140
note_off channel=10 note=48 velocity=0 time=8
note_on channel=1 note=36 velocity=118 time=13
note_on channel=7 note=67 velocity=120 time=0
note_on channel=7 note=72 velocity=127 time=0
note_on channel=7 note=75 velocity=127 time=0
note_on channel=8 note=48 velocity=127 time=0
note_on channel=8 note=55 velocity=125 time=0
note_on channel=8 note=60 velocity=127 time=0
note_on channel=9 note=39 velocity=85 time=0
note_on channel=9 note=40 velocity=116 time=0
note_on channel=9 note=42 velocity=98 time=0
note_on channel=9 note=54 velocity=116 time=0
note_on channel=10 note=48 velocity=118 time=8
note_on channel=6 note=48 velocity=127 time=3
note_on channel=6 note=55 velocity=127 time=0
note_off channel=9 note=39 velocity=0 time=17
note_off channel=9 note=40 velocity=0 time=0
note_off channel=9 note=42 velocity=0 time=0
note_off channel=9 note=54 velocity=0 time=0
note_off channel=7 note=72 velocity=0 time=41
note_off channel=6 note=55 velocity=0 time=4
note_off channel=7 note=75 velocity=0 time=1
note_off channel=7 note=67 velocity=0 time=4
note_off channel=6 note=48 velocity=0 time=29
note_off channel=8 note=55 velocity=0 time=34
note_off channel=8 note=60 velocity=0 time=21
note_off channel=8 note=48 velocity=0 time=13
note_off channel=1 note=36 velocity=0 time=44
note_off channel=10 note=48 velocity=0 time=8
note_on channel=1 note=36 velocity=113 time=13
note_on channel=7 note=67 velocity=74 time=0
note_on channel=7 note=72 velocity=98 time=0
note_on channel=7 note=75 velocity=97 time=0
note_on channel=8 note=55 velocity=102 time=0
note_on channel=8 note=60 velocity=115 time=0
note_on channel=9 note=42 velocity=98 time=0
note_on channel=10 note=48 velocity=113 time=8
note_on channel=6 note=48 velocity=116 time=3
note_on channel=6 note=55 velocity=116 time=0
note_off channel=9 note=42 velocity=0 time=17
note_off channel=7 note=72 velocity=0 time=37
note_off channel=6 note=55 velocity=0 time=2
note_off channel=7 note=75 velocity=0 time=4
note_off channel=7 note=67 velocity=0 time=9
note_off channel=8 note=60 velocity=0 time=12
note_off channel=6 note=48 velocity=0 time=1
note_off channel=8 note=55 velocity=0 time=2
note_off channel=1 note=36 velocity=0 time=124
note_off channel=10 note=48 velocity=0 time=8
note_on channel=1 note=36 velocity=113 time=13
note_on channel=7 note=67 velocity=106 time=0
note_on channel=7 note=72 velocity=127 time=0
note_on channel=7 note=75 velocity=116 time=0
note_on channel=8 note=55 velocity=115 time=0
note_on channel=8 note=60 velocity=127 time=0
note_on channel=9 note=35 velocity=116 time=0
note_on channel=9 note=42 velocity=98 time=0
note_on channel=10 note=48 velocity=113 time=8
note_on channel=6 note=48 velocity=123 time=3
note_on channel=6 note=55 velocity=127 time=0
note_off channel=9 note=35 velocity=0 time=17
note_off channel=9 note=42 velocity=0 time=0
note_off channel=7 note=72 velocity=0 time=41
note_off channel=6 note=55 velocity=0 time=7
note_off channel=7 note=75 velocity=0 time=0
note_off channel=7 note=67 velocity=0 time=2
note_off channel=6 note=48 velocity=0 time=23
note_off channel=8 note=60 velocity=0 time=23
note_off channel=8 note=55 velocity=0 time=4
note_off channel=1 note=36 velocity=0 time=91
note_off channel=10 note=48 velocity=0 time=8
note_on channel=1 note=36 velocity=118 time=13
note_on channel=7 note=67 velocity=71 time=0
note_on channel=7 note=72 velocity=90 time=0
note_on channel=7 note=75 velocity=81 time=0
note_on channel=8 note=55 velocity=83 time=0
note_on channel=8 note=60 velocity=102 time=0
note_on channel=9 note=35 velocity=116 time=0
note_on channel=9 note=42 velocity=98 time=0
note_on channel=10 note=48 velocity=118 time=8
note_on channel=6 note=48 velocity=123 time=3
note_on channel=6 note=55 velocity=123 time=0
note_off channel=9 note=35 velocity=0 time=17
note_off channel=9 note=42 velocity=0 time=0
note_off channel=7 note=72 velocity=0 time=19
note_off channel=7 note=75 velocity=0 time=0
note_off channel=8 note=60 velocity=0 time=10
note_off channel=7 note=67 velocity=0 time=7
note_off channel=6 note=55 velocity=0 time=3
note_off channel=8 note=55 velocity=0 time=6
note_off channel=6 note=48 velocity=0 time=10
note_off channel=1 note=36 velocity=0 time=136
note_off channel=10 note=48 velocity=0 time=8
note_on channel=1 note=36 velocity=113 time=13
note_on channel=7 note=67 velocity=115 time=0
note_on channel=7 note=72 velocity=127 time=0
note_on channel=7 note=75 velocity=123 time=0
note_on channel=8 note=48 velocity=127 time=0
note_on channel=8 note=55 velocity=125 time=0
note_on channel=8 note=60 velocity=127 time=0
note_on channel=9 note=39 velocity=85 time=0
note_on channel=9 note=40 velocity=116 time=0
note_on channel=9 note=42 velocity=98 time=0
note_on channel=9 note=54 velocity=116 time=0
pitchwheel channel=3 pitch=520 time=6
note_on channel=10 note=48 velocity=113 time=2
note_on channel=6 note=48 velocity=127 time=3
note_on channel=6 note=55 velocity=127 time=0
pitchwheel channel=3 pitch=4290 time=5
pitchwheel channel=3 pitch=8191 time=10
note_off channel=9 note=39 velocity=0 time=2
note_off channel=9 note=40 velocity=0 time=0
note_off channel=9 note=42 velocity=0 time=0
note_off channel=9 note=54 velocity=0 time=0
note_off channel=7 note=72 velocity=0 time=45
note_off channel=6 note=55 velocity=0 time=2
note_off channel=7 note=75 velocity=0 time=13
note_off channel=7 note=67 velocity=0 time=2
note_off channel=6 note=48 velocity=0 time=1
note_off channel=8 note=60 velocity=0 time=19
note_off channel=8 note=55 velocity=0 time=4
note_off channel=3 note=84 velocity=0 time=102
note_off channel=1 note=36 velocity=0 time=3
note_off channel=10 note=48 velocity=0 time=8
note_on channel=1 note=36 velocity=118 time=13
note_on channel=7 note=67 velocity=106 time=0
note_on channel=7 note=72 velocity=115 time=0
note_on channel=7 note=75 velocity=105 time=0
note_on channel=8 note=55 velocity=98 time=0
note_on channel=8 note=60 velocity=115 time=0
note_on channel=9 note=42 velocity=98 time=0
note_on channel=3 note=82 velocity=123 time=0
pitchwheel channel=3 pitch=0 time=2
note_on channel=10 note=48 velocity=118 time=5
note_on channel=6 note=48 velocity=123 time=3
note_on channel=6 note=55 velocity=123 time=0
pitchwheel channel=3 pitch=0 time=7
note_off channel=9 note=42 velocity=0 time=10
note_off channel=7 note=72 velocity=0 time=34
note_off channel=6 note=55 velocity=0 time=7
note_off channel=7 note=75 velocity=0 time=2
note_off channel=6 note=48 velocity=0 time=5
note_off channel=8 note=60 velocity=0 time=2
note_off channel=7 note=67 velocity=0 time=4
note_off channel=8 note=55 velocity=0 time=16
note_off channel=7 note=36 velocity=0 time=95
note_off channel=7 note=48 velocity=0 time=0
note_off channel=8 note=48 velocity=0 time=1
note_off channel=1 note=36 velocity=0 time=7
note_off channel=10 note=48 velocity=0 time=8
note_on channel=1 note=34 velocity=113 time=13
note_on channel=7 note=34 velocity=115 time=0
note_on channel=7 note=46 velocity=115 time=0
note_on channel=7 note=65 velocity=83 time=0
note_on channel=7 note=70 velocity=105 time=0
note_on channel=7 note=74 velocity=102 time=0
note_on channel=8 note=46 velocity=125 time=0
note_on channel=8 note=53 velocity=115 time=0
note_on channel=8 note=58 velocity=120 time=0
note_on channel=9 note=35 velocity=116 time=0
note_on channel=9 note=42 velocity=98 time=0
note_on channel=10 note=46 velocity=113 time=8
note_on channel=6 note=46 velocity=116 time=3
note_on channel=6 note=53 velocity=127 time=0
note_off channel=9 note=35 velocity=0 time=17
note_off channel=9 note=42 velocity=0 time=0
note_off channel=7 note=74 velocity=0 time=35
note_off channel=6 note=53 velocity=0 time=9
note_off channel=7 note=65 velocity=0 time=2
note_off channel=7 note=70 velocity=0 time=1
note_off channel=8 note=58 velocity=0 time=18
note_off channel=8 note=53 velocity=0 time=2
note_off channel=6 note=46 velocity=0 time=19
note_off channel=8 note=46 velocity=0 time=68
note_off channel=1 note=34 velocity=0 time=37
note_off channel=10 note=46 velocity=0 time=8
note_on channel=1 note=34 velocity=113 time=13
note_on channel=7 note=65 velocity=63 time=0
note_on channel=7 note=70 velocity=81 time=0
note_on channel=7 note=74 velocity=56 time=0
note_on channel=8 note=53 velocity=90 time=0
note_on channel=8 note=58 velocity=102 time=0
note_on channel=9 note=35 velocity=116 time=0
note_on channel=9 note=42 velocity=98 time=0
note_on channel=10 note=46 velocity=113 time=8
note_on channel=6 note=46 velocity=116 time=3
note_on channel=6 note=53 velocity=116 time=0
note_off channel=9 note=35 velocity=0 time=17
note_off channel=9 note=42 velocity=0 time=0
note_off channel=7 note=74 velocity=0 time=9
note_off channel=7 note=65 velocity=0 time=15
note_off channel=7 note=70 velocity=0 time=2
note_off channel=6 note=53 velocity=0 time=2
note_off channel=8 note=58 velocity=0 time=6
note_off channel=8 note=53 velocity=0 time=7
note_off channel=6 note=46 velocity=0 time=10
note_off channel=3 note=82 velocity=0 time=49
note_off channel=1 note=34 velocity=0 time=91
note_off channel=10 note=46 velocity=0 time=8
note_on channel=1 note=34 velocity=118 time=13
note_on channel=7 note=65 velocity=106 time=0
note_on channel=7 note=70 velocity=116 time=0
note_on channel=7 note=74 velocity=115 time=0
note_on channel=8 note=46 velocity=127 time=0
note_on channel=8 note=53 velocity=125 time=0
note_on channel=8 note=58 velocity=127 time=0
note_on channel=9 note=39 velocity=85 time=0
note_on channel=9 note=40 velocity=116 time=0
note_on channel=9 note=42 velocity=98 time=0
note_on channel=9 note=54 velocity=116 time=0
note_on channel=10 note=46 velocity=118 time=8
note_on channel=6 note=46 velocity=127 time=3
note_on channel=6 note=53 velocity=127 time=0
note_off channel=9 note=39 velocity=0 time=17
note_off channel=9 note=40 velocity=0 time=0
note_off channel=9 note=42 velocity=0 time=0
note_off channel=9 note=54 velocity=0 time=0
note_off channel=7 note=65 velocity=0 time=42
note_off channel=7 note=70 velocity=0 time=0
note_off channel=6 note=53 velocity=0 time=3
note_off channel=7 note=74 velocity=0 time=10
note_off channel=6 note=46 velocity=0 time=24
note_off channel=8 note=53 velocity=0 time=34
note_off channel=8 note=58 velocity=0 time=21
note_off channel=8 note=46 velocity=0 time=13
note_off channel=1 note=34 velocity=0 time=44
note_off channel=10 note=46 velocity=0 time=8
note_on channel=1 note=34 velocity=113 time=13
note_on channel=7 note=65 velocity=74 time=0
note_on channel=7 note=70 velocity=93 time=0
note_on channel=7 note=74 velocity=83 time=0
note_on channel=8 note=53 velocity=102 time=0
note_on channel=8 note=58 velocity=115 time=0
note_on channel=9 note=42 velocity=98 time=0
note_on channel=10 note=46 velocity=113 time=8
note_on channel=6 note=46 velocity=116 time=3
note_on channel=6 note=53 velocity=116 time=0
note_on channel=3 note=79 velocity=125 time=0
note_off channel=9 note=42 velocity=0 time=5
note_off channel=7 note=65 velocity=0 time=38
note_off channel=6 note=53 velocity=0 time=1
note_off channel=7 note=70 velocity=0 time=1
note_off channel=7 note=74 velocity=0 time=8
note_off channel=3 note=79 velocity=0 time=10
note_off channel=8 note=58 velocity=0 time=6
note_off channel=6 note=46 velocity=0 time=1
note_off channel=8 note=53 velocity=0 time=2
note_off channel=1 note=34 velocity=0 time=124
note_off channel=10 note=46 velocity=0 time=8
note_on channel=1 note=34 velocity=113 time=13
note_on channel=7 note=65 velocity=90 time=0
note_on channel=7 note=70 velocity=101 time=0
note_on channel=7 note=74 velocity=98 time=0
note_on channel=8 note=53 velocity=115 time=0
note_on channel=8 note=58 velocity=127 time=0
note_on channel=9 note=35 velocity=116 time=0
note_on channel=9 note=42 velocity=98 time=0
note_on channel=10 note=46 velocity=113 time=8
note_on channel=6 note=46 velocity=123 time=3
note_on channel=6 note=53 velocity=127 time=0
note_on channel=3 note=82 velocity=127 time=0
note_off channel=9 note=35 velocity=0 time=1
note_off channel=9 note=42 velocity=0 time=0
note_off channel=7 note=65 velocity=0 time=38
note_off channel=7 note=70 velocity=0 time=3
note_off channel=6 note=53 velocity=0 time=7
note_off channel=7 note=74 velocity=0 time=8
note_off channel=6 note=46 velocity=0 time=17
note_off channel=8 note=58 velocity=0 time=23
note_off channel=8 note=53 velocity=0 time=4
note_off channel=1 note=34 velocity=0 time=91
note_off channel=10 note=46 velocity=0 time=8
note_off channel=3 note=82 velocity=0 time=7
note_on channel=1 note=34 velocity=118 time=6
note_on channel=7 note=65 velocity=74 time=0
note_on channel=7 note=70 velocity=89 time=0
note_on channel=7 note=74 velocity=90 time=0
note_on channel=8 note=53 velocity=83 time=0
note_on channel=8 note=58 velocity=102 time=0
note_on channel=9 note=35 velocity=116 time=0
note_on channel=9 note=46 velocity=98 time=0
note_on channel=10 note=46 velocity=118 time=8
note_on channel=6 note=46 velocity=123 time=3
note_on channel=6 note=53 velocity=123 time=0
note_off channel=9 note=35 velocity=0 time=17
note_off channel=9 note=46 velocity=0 time=0
note_on channel=3 note=79 velocity=106 time=0
note_off channel=8 note=58 velocity=0 time=25
note_off channel=7 note=70 velocity=0 time=1
note_off channel=7 note=65 velocity=0 time=2
note_off channel=6 note=53 velocity=0 time=7
note_off channel=7 note=74 velocity=0 time=5
note_off channel=8 note=53 velocity=0 time=1
note_off channel=6 note=46 velocity=0 time=10
note_off channel=3 note=79 velocity=0 time=17
note_off channel=1 note=34 velocity=0 time=119
note_off channel=10 note=46 velocity=0 time=8
note_on channel=1 note=34 velocity=113 time=13
note_on channel=7 note=65 velocity=98 time=0
note_on channel=7 note=70 velocity=111 time=0
note_on channel=7 note=74 velocity=106 time=0
note_on channel=8 note=46 velocity=127 time=0
note_on channel=8 note=53 velocity=125 time=0
note_on channel=8 note=58 velocity=127 time=0
note_on channel=9 note=39 velocity=85 time=0
note_on channel=9 note=40 velocity=116 time=0
note_on channel=9 note=42 velocity=98 time=0
note_on channel=9 note=54 velocity=116 time=0
note_on channel=10 note=46 velocity=113 time=8
note_on channel=6 note=46 velocity=127 time=3
note_on channel=6 note=53 velocity=127 time=0
note_on channel=3 note=82 velocity=127 time=0
note_off channel=9 note=39 velocity=0 time=6
note_off channel=9 note=40 velocity=0 time=0
note_off channel=9 note=42 velocity=0 time=0
note_off channel=9 note=54 velocity=0 time=0
note_off channel=7 note=65 velocity=0 time=34
note_off channel=7 note=70 velocity=0 time=3
note_off channel=7 note=74 velocity=0 time=7
note_off channel=6 note=53 velocity=0 time=3
note_off channel=6 note=46 velocity=0 time=16
note_off channel=8 note=58 velocity=0 time=19
note_off channel=8 note=53 velocity=0 time=4
note_off channel=3 note=82 velocity=0 time=101
note_off channel=1 note=34 velocity=0 time=4
note_off channel=10 note=46 velocity=0 time=8
note_on channel=1 note=34 velocity=118 time=13
note_on channel=7 note=65 velocity=98 time=0
note_on channel=7 note=70 velocity=105 time=0
note_on channel=7 note=74 velocity=106 time=0
note_on channel=8 note=53 velocity=98 time=0
note_on channel=8 note=58 velocity=115 time=0
note_on channel=9 note=40 velocity=116 time=0
note_on channel=9 note=42 velocity=98 time=0
note_on channel=10 note=46 velocity=118 time=8
note_on channel=6 note=46 velocity=123 time=3
note_on channel=6 note=53 velocity=123 time=0
note_on channel=3 note=79 velocity=106 time=0
note_off channel=9 note=40 velocity=0 time=15
note_off channel=9 note=42 velocity=0 time=0
note_off channel=7 note=65 velocity=0 time=28
note_off channel=7 note=70 velocity=0 time=3
note_off channel=6 note=53 velocity=0 time=10
note_off channel=7 note=74 velocity=0 time=3
note_off channel=6 note=46 velocity=0 time=4
note_off channel=8 note=58 velocity=0 time=2
note_off channel=8 note=53 velocity=0 time=20
note_off channel=3 note=79 velocity=0 time=16
note_on channel=9 note=40 velocity=116 time=6
note_off channel=9 note=40 velocity=0 time=28
note_off channel=7 note=34 velocity=0 time=63
note_off channel=7 note=46 velocity=0 time=0
note_off channel=8 note=46 velocity=0 time=1
note_off channel=1 note=34 velocity=0 time=7
note_off channel=10 note=46 velocity=0 time=8
note_on channel=1 note=32 velocity=113 time=13
note_on channel=7 note=32 velocity=115 time=0
note_on channel=7 note=44 velocity=115 time=0
note_on channel=7 note=63 velocity=116 time=0
note_on channel=7 note=67 velocity=115 time=0
note_on channel=7 note=72 velocity=125 time=0
note_on channel=8 note=44 velocity=125 time=0
note_on channel=8 note=51 velocity=115 time=0
note_on channel=8 note=56 velocity=120 time=0
note_on channel=9 note=35 velocity=116 time=0
note_on channel=9 note=49 velocity=98 time=0
note_on channel=10 note=44 velocity=113 time=8
note_on channel=6 note=44 velocity=116 time=3
note_on channel=6 note=51 velocity=127 time=0
note_on channel=3 note=84 velocity=115 time=0
note_off channel=9 note=35 velocity=0 time=14
note_off channel=9 note=49 velocity=0 time=0
note_off channel=7 note=63 velocity=0 time=29
note_off channel=7 note=72 velocity=0 time=3
note_off channel=7 note=67 velocity=0 time=9
note_off channel=6 note=51 velocity=0 time=3
note_off channel=8 note=56 velocity=0 time=21
note_off channel=8 note=51 velocity=0 time=2
note_off channel=6 note=44 velocity=0 time=19
note_off channel=8 note=44 velocity=0 time=68
note_off channel=1 note=32 velocity=0 time=37
note_off channel=10 note=44 velocity=0 time=8
note_on channel=1 note=32 velocity=113 time=13
note_on channel=7 note=63 velocity=105 time=0
note_on channel=7 note=67 velocity=102 time=0
note_on channel=7 note=72 velocity=110 time=0
note_on channel=8 note=51 velocity=90 time=0
note_on channel=8 note=56 velocity=102 time=0
note_on channel=9 note=35 velocity=116 time=0
note_on channel=9 note=42 velocity=98 time=0
note_on channel=10 note=44 velocity=113 time=8
note_on channel=6 note=44 velocity=116 time=3
note_on channel=6 note=51 velocity=116 time=0
note_off channel=9 note=35 velocity=0 time=17
note_off channel=9 note=42 velocity=0 time=0
note_off channel=7 note=72 velocity=0 time=14
note_off channel=7 note=63 velocity=0 time=4
note_off channel=7 note=67 velocity=0 time=5
note_off channel=6 note=51 velocity=0 time=5
note_off channel=8 note=56 velocity=0 time=6
note_off channel=8 note=51 velocity=0 time=7
note_off channel=6 note=44 velocity=0 time=10
note_off channel=1 note=32 velocity=0 time=140
note_off channel=10 note=44 velocity=0 time=8
note_on channel=1 note=32 velocity=118 time=13
note_on channel=7 note=63 velocity=123 time=0
note_on channel=7 note=67 velocity=125 time=0
note_on channel=7 note=72 velocity=127 time=0
note_on channel=8 note=44 velocity=127 time=0
note_on channel=8 note=51 velocity=125 time=0
note_on channel=8 note=56 velocity=127 time=0
note_on channel=9 note=39 velocity=85 time=0
note_on channel=9 note=40 velocity=116 time=0
note_on channel=9 note=42 velocity=98 time=0
note_on channel=9 note=54 velocity=116 time=0
note_on channel=10 note=44 velocity=118 time=8
note_on channel=6 note=44 velocity=127 time=3
note_on channel=6 note=51 velocity=127 time=0
note_off channel=9 note=39 velocity=0 time=17
note_off channel=9 note=40 velocity=0 time=0
note_off channel=9 note=42 velocity=0 time=0
note_off channel=9 note=54 velocity=0 time=0
note_off channel=7 note=72 velocity=0 time=30
note_off channel=7 note=63 velocity=0 time=2
note_off channel=6 note=51 velocity=0 time=5
note_off channel=7 note=67 velocity=0 time=2
note_off channel=6 note=44 velocity=0 time=29
note_off channel=8 note=51 velocity=0 time=3
note_off channel=8 note=56 velocity=0 time=21
note_off channel=8 note=44 velocity=0 time=7
note_off channel=1 note=32 velocity=0 time=21
note_off channel=10 note=44 velocity=0 time=8
note_on channel=1 note=32 velocity=113 time=11
note_on channel=7 note=63 velocity=111 time=0
note_on channel=7 note=67 velocity=102 time=0
note_on channel=7 note=72 velocity=125 time=0
note_on channel=8 note=51 velocity=102 time=0
note_on channel=8 note=56 velocity=115 time=0
note_on channel=9 note=42 velocity=98 time=0
note_on channel=10 note=44 velocity=113 time=4
note_on channel=6 note=44 velocity=116 time=3
note_on channel=6 note=51 velocity=116 time=0
note_off channel=9 note=42 velocity=0 time=9
note_off channel=7 note=63 velocity=0 time=4
note_off channel=7 note=72 velocity=0 time=0
note_off channel=7 note=67 velocity=0 time=8
note_off channel=6 note=51 velocity=0 time=3
note_off channel=8 note=56 velocity=0 time=10
note_off channel=6 note=44 velocity=0 time=1
note_off channel=8 note=51 velocity=0 time=2
note_off channel=1 note=32 velocity=0 time=36
note_off channel=10 note=44 velocity=0 time=8
note_on channel=1 note=32 velocity=113 time=13
note_on channel=7 note=63 velocity=116 time=0
note_on channel=7 note=67 velocity=110 time=0
note_on channel=7 note=72 velocity=120 time=0
note_on channel=8 note=51 velocity=115 time=0
note_on channel=8 note=56 velocity=127 time=0
note_on channel=9 note=35 velocity=116 time=0
note_on channel=9 note=42 velocity=98 time=0
note_on channel=10 note=44 velocity=113 time=8
note_on channel=6 note=44 velocity=123 time=3
note_on channel=6 note=51 velocity=127 time=0
note_off channel=9 note=35 velocity=0 time=1
note_off channel=9 note=42 velocity=0 time=0
note_off channel=7 note=72 velocity=0 time=12
note_off channel=7 note=63 velocity=0 time=4
note_off channel=7 note=67 velocity=0 time=8
note_off channel=6 note=51 velocity=0 time=7
note_off channel=6 note=44 velocity=0 time=25
note_off channel=8 note=56 velocity=0 time=23
note_off channel=8 note=51 velocity=0 time=4
note_off channel=3 note=84 velocity=0 time=48
note_off channel=1 note=32 velocity=0 time=43
note_off channel=10 note=44 velocity=0 time=8
note_on channel=1 note=32 velocity=118 time=13
note_on channel=7 note=63 velocity=111 time=0
note_on channel=7 note=67 velocity=106 time=0
note_on channel=7 note=72 velocity=115 time=0
note_on channel=8 note=51 velocity=83 time=0
note_on channel=8 note=56 velocity=102 time=0
note_on channel=9 note=35 velocity=116 time=0
note_on channel=9 note=42 velocity=98 time=0
note_on channel=10 note=44 velocity=118 time=8
note_on channel=6 note=44 velocity=123 time=3
note_on channel=6 note=51 velocity=123 time=0
note_on channel=3 note=84 velocity=106 time=0
note_off channel=9 note=35 velocity=0 time=13
note_off channel=9 note=42 velocity=0 time=0
note_off channel=7 note=72 velocity=0 time=28
note_off channel=8 note=56 velocity=0 time=1
note_off channel=7 note=63 velocity=0 time=4
note_off channel=6 note=51 velocity=0 time=6
note_off channel=8 note=51 velocity=0 time=6
note_off channel=7 note=67 velocity=0 time=1
note_off channel=6 note=44 velocity=0 time=9
note_off channel=3 note=84 velocity=0 time=130
note_off channel=1 note=32 velocity=0 time=6
note_off channel=10 note=44 velocity=0 time=8
note_on channel=1 note=32 velocity=113 time=13
note_on channel=7 note=63 velocity=116 time=0
note_on channel=7 note=67 velocity=90 time=0
note_on channel=7 note=72 velocity=120 time=0
note_on channel=8 note=44 velocity=127 time=0
note_on channel=8 note=51 velocity=125 time=0
note_on channel=8 note=56 velocity=127 time=0
note_on channel=9 note=39 velocity=85 time=0
note_on channel=9 note=40 velocity=116 time=0
note_on channel=9 note=42 velocity=98 time=0
note_on channel=9 note=54 velocity=116 time=0
note_on channel=10 note=44 velocity=113 time=8
note_on channel=6 note=44 velocity=127 time=3
note_on channel=6 note=51 velocity=127 time=0
note_off channel=9 note=39 velocity=0 time=17
note_off channel=9 note=40 velocity=0 time=0
note_off channel=9 note=42 velocity=0 time=0
note_off channel=9 note=54 velocity=0 time=0
note_on channel=3 note=84 velocity=125 time=0
note_off channel=7 note=72 velocity=0 time=24
pitchwheel channel=3 pitch=520 time=3
note_off channel=7 note=63 velocity=0 time=2
pitchwheel channel=3 pitch=1690 time=8
note_off channel=7 note=67 velocity=0 time=2
note_off channel=6 note=51 velocity=0 time=5
pitchwheel channel=3 pitch=3380 time=3
pitchwheel channel=3 pitch=5720 time=10
note_off channel=6 note=44 velocity=0 time=3
pitchwheel channel=3 pitch=8191 time=7
note_off channel=8 note=56 velocity=0 time=12
note_off channel=8 note=51 velocity=0 time=4
note_off channel=3 note=84 velocity=0 time=87
pitchwheel channel=3 pitch=6370 time=10
note_off channel=1 note=32 velocity=0 time=8
pitchwheel channel=3 pitch=0 time=3
note_off channel=10 note=44 velocity=0 time=5
note_on channel=1 note=32 velocity=118 time=13
note_on channel=7 note=63 velocity=116 time=0
note_on channel=7 note=67 velocity=110 time=0
note_on channel=7 note=72 velocity=120 time=0
note_on channel=8 note=51 velocity=98 time=0
note_on channel=8 note=56 velocity=115 time=0
note_on channel=9 note=42 velocity=98 time=0
note_on channel=10 note=44 velocity=118 time=8
note_on channel=6 note=44 velocity=123 time=3
note_on channel=6 note=51 velocity=123 time=0
note_on channel=3 note=82 velocity=123 time=0
note_off channel=9 note=42 velocity=0 time=15
note_off channel=7 note=72 velocity=0 time=27
note_off channel=7 note=63 velocity=0 time=7
note_off channel=6 note=51 velocity=0 time=7
note_off channel=7 note=67 velocity=0 time=0
note_off channel=6 note=44 velocity=0 time=7
note_off channel=8 note=56 velocity=0 time=2
note_off channel=8 note=51 velocity=0 time=20
note_off channel=7 note=32 velocity=0 time=113
note_off channel=7 note=44 velocity=0 time=0
note_off channel=8 note=44 velocity=0 time=1
note_off channel=1 note=32 velocity=0 time=7
note_off channel=10 note=44 velocity=0 time=8
note_on channel=1 note=32 velocity=113 time=13
note_on channel=7 note=32 velocity=115 time=0
note_on channel=7 note=44 velocity=115 time=0
note_on channel=7 note=63 velocity=116 time=0
note_on channel=7 note=67 velocity=115 time=0
note_on channel=7 note=72 velocity=125 time=0
note_on channel=8 note=44 velocity=125 time=0
note_on channel=8 note=51 velocity=115 time=0
note_on channel=8 note=56 velocity=120 time=0
note_on channel=9 note=35 velocity=116 time=0
note_on channel=9 note=42 velocity=98 time=0
note_on channel=10 note=44 velocity=113 time=8
note_on channel=6 note=44 velocity=116 time=3
note_on channel=6 note=51 velocity=127 time=0
note_off channel=9 note=35 velocity=0 time=17
note_off channel=9 note=42 velocity=0 time=0
note_off channel=7 note=63 velocity=0 time=29
note_off channel=7 note=72 velocity=0 time=3
note_off channel=7 note=67 velocity=0 time=9
note_off channel=6 note=51 velocity=0 time=3
note_off channel=8 note=56 velocity=0 time=21
note_off channel=8 note=51 velocity=0 time=2
note_off channel=6 note=44 velocity=0 time=19
note_off channel=8 note=44 velocity=0 time=68
note_off channel=1 note=32 velocity=0 time=37
note_off channel=10 note=44 velocity=0 time=8
note_on channel=1 note=32 velocity=113 time=13
note_on channel=7 note=63 velocity=105 time=0
note_on channel=7 note=67 velocity=102 time=0
note_on channel=7 note=72 velocity=110 time=0
note_on channel=8 note=51 velocity=90 time=0
note_on channel=8 note=56 velocity=102 time=0
note_on channel=9 note=35 velocity=116 time=0
note_on channel=9 note=42 velocity=98 time=0
note_on channel=10 note=44 velocity=113 time=8
note_on channel=6 note=44 velocity=116 time=3
note_on channel=6 note=51 velocity=116 time=0
note_off channel=9 note=35 velocity=0 time=17
note_off channel=9 note=42 velocity=0 time=0
note_off channel=7 note=72 velocity=0 time=14
note_off channel=7 note=63 velocity=0 time=4
note_off channel=7 note=67 velocity=0 time=5
note_off channel=6 note=51 velocity=0 time=5
note_off channel=8 note=56 velocity=0 time=6
note_off channel=8 note=51 velocity=0 time=7
note_off channel=6 note=44 velocity=0 time=10
note_off channel=1 note=32 velocity=0 time=140
note_off channel=10 note=44 velocity=0 time=8
note_on channel=1 note=32 velocity=118 time=13
note_on channel=7 note=63 velocity=123 time=0
note_on channel=7 note=67 velocity=125 time=0
note_on channel=7 note=72 velocity=127 time=0
note_on channel=8 note=44 velocity=127 time=0
note_on channel=8 note=51 velocity=125 time=0
note_on channel=8 note=56 velocity=127 time=0
note_on channel=9 note=39 velocity=85 time=0
note_on channel=9 note=40 velocity=116 time=0
note_on channel=9 note=42 velocity=98 time=0
note_on channel=9 note=54 velocity=116 time=0
note_on channel=10 note=44 velocity=118 time=8
note_on channel=6 note=44 velocity=127 time=3
note_on channel=6 note=51 velocity=127 time=0
note_off channel=9 note=39 velocity=0 time=17
note_off channel=9 note=40 velocity=0 time=0
note_off channel=9 note=42 velocity=0 time=0
note_off channel=9 note=54 velocity=0 time=0
note_off channel=3 note=82 velocity=0 time=19
note_off channel=7 note=72 velocity=0 time=11
note_off channel=7 note=63 velocity=0 time=2
note_off channel=6 note=51 velocity=0 time=13
note_off channel=7 note=67 velocity=0 time=2
note_off channel=6 note=44 velocity=0 time=32
note_off channel=8 note=51 velocity=0 time=34
note_off channel=8 note=56 velocity=0 time=21
note_off channel=8 note=44 velocity=0 time=13
note_off channel=1 note=32 velocity=0 time=44
note_off channel=10 note=44 velocity=0 time=8
note_on channel=1 note=32 velocity=113 time=13
note_on channel=7 note=63 velocity=111 time=0
note_on channel=7 note=67 velocity=102 time=0
note_on channel=7 note=72 velocity=125 time=0
note_on channel=8 note=51 velocity=102 time=0
note_on channel=8 note=56 velocity=115 time=0
note_on channel=9 note=42 velocity=98 time=0
note_on channel=10 note=44 velocity=113 time=8
note_on channel=6 note=44 velocity=116 time=3
note_on channel=6 note=51 velocity=116 time=0
note_off channel=9 note=42 velocity=0 time=17
note_off channel=7 note=63 velocity=0 time=25
note_off channel=7 note=72 velocity=0 time=0
note_off channel=7 note=67 velocity=0 time=8
note_off channel=6 note=51 velocity=0 time=6
note_off channel=8 note=56 velocity=0 time=25
note_off channel=6 note=44 velocity=0 time=1
note_off channel=8 note=51 velocity=0 time=2
note_off channel=1 note=32 velocity=0 time=124
note_off channel=10 note=44 velocity=0 time=8
note_on channel=1 note=32 velocity=113 time=13
note_on channel=7 note=63 velocity=116 time=0
note_on channel=7 note=67 velocity=110 time=0
note_on channel=7 note=72 velocity=120 time=0
note_on channel=8 note=51 velocity=115 time=0
note_on channel=8 note=56 velocity=127 time=0
note_on channel=9 note=35 velocity=116 time=0
note_on channel=9 note=42 velocity=98 time=0
note_on channel=10 note=44 velocity=113 time=8
note_on channel=6 note=44 velocity=123 time=3
note_on channel=6 note=51 velocity=127 time=0
note_off channel=9 note=35 velocity=0 time=17
note_off channel=9 note=42 velocity=0 time=0
note_off channel=7 note=72 velocity=0 time=26
note_off channel=7 note=63 velocity=0 time=7
note_off channel=7 note=67 velocity=0 time=8
note_off channel=6 note=51 velocity=0 time=7
note_off channel=6 note=44 velocity=0 time=25
note_off channel=8 note=56 velocity=0 time=23
note_off channel=8 note=51 velocity=0 time=4
note_off channel=1 note=32 velocity=0 time=91
note_off channel=10 note=44 velocity=0 time=8
note_on channel=3 note=79 velocity=120 time=0
note_on channel=1 note=32 velocity=118 time=4
note_on channel=7 note=63 velocity=111 time=0
note_on channel=7 note=67 velocity=106 time=0
note_on channel=7 note=72 velocity=115 time=0
note_on channel=8 note=51 velocity=83 time=0
note_on channel=8 note=56 velocity=102 time=0
note_on channel=9 note=35 velocity=116 time=0
note_on channel=9 note=46 velocity=98 time=0
note_on channel=10 note=44 velocity=118 time=8
note_on channel=6 note=44 velocity=123 time=3
note_on channel=6 note=51 velocity=123 time=0
note_off channel=9 note=35 velocity=0 time=17
note_off channel=9 note=46 velocity=0 time=0
note_off channel=7 note=72 velocity=0 time=28
note_off channel=8 note=56 velocity=0 time=1
note_off channel=7 note=63 velocity=0 time=4
note_off channel=6 note=51 velocity=0 time=6
note_off channel=8 note=51 velocity=0 time=6
note_off channel=7 note=67 velocity=0 time=1
note_off channel=6 note=44 velocity=0 time=9
note_off channel=3 note=79 velocity=0 time=84
note_off channel=1 note=32 velocity=0 time=52
note_on channel=3 note=79 velocity=120 time=0
note_off channel=10 note=44 velocity=0 time=6
note_on channel=1 note=32 velocity=113 time=13
note_on channel=7 note=63 velocity=116 time=0
note_on channel=7 note=67 velocity=90 time=0
note_on channel=7 note=72 velocity=120 time=0
note_on channel=8 note=44 velocity=127 time=0
note_on channel=8 note=51 velocity=125 time=0
note_on channel=8 note=56 velocity=127 time=0
note_on channel=9 note=39 velocity=85 time=0
note_on channel=9 note=40 velocity=116 time=0
note_on channel=9 note=42 velocity=98 time=0
note_on channel=9 note=54 velocity=116 time=0
note_on channel=10 note=44 velocity=113 time=8
note_on channel=6 note=44 velocity=127 time=3
note_on channel=6 note=51 velocity=127 time=0
note_off channel=9 note=39 velocity=0 time=17
note_off channel=9 note=40 velocity=0 time=0
note_off channel=9 note=42 velocity=0 time=0
note_off channel=9 note=54 velocity=0 time=0
note_off channel=7 note=72 velocity=0 time=27
note_off channel=7 note=63 velocity=0 time=5
note_off channel=7 note=67 velocity=0 time=10
note_off channel=6 note=51 velocity=0 time=5
note_off channel=6 note=44 velocity=0 time=16
note_off channel=8 note=56 velocity=0 time=19
note_off channel=8 note=51 velocity=0 time=4
note_off channel=3 note=79 velocity=0 time=65
note_off channel=1 note=32 velocity=0 time=40
note_off channel=10 note=44 velocity=0 time=8
note_on channel=1 note=32 velocity=118 time=0
note_on channel=3 note=80 velocity=123 time=0
note_on channel=7 note=63 velocity=116 time=0
note_on channel=7 note=67 velocity=110 time=0
note_on channel=7 note=72 velocity=120 time=0
note_on channel=8 note=51 velocity=98 time=0
note_on channel=8 note=56 velocity=115 time=0
note_on channel=9 note=42 velocity=98 time=0
note_on channel=10 note=44 velocity=118 time=8
note_on channel=6 note=44 velocity=123 time=3
note_on channel=6 note=51 velocity=123 time=0
note_off channel=9 note=42 velocity=0 time=17
note_off channel=7 note=72 velocity=0 time=27
note_off channel=7 note=63 velocity=0 time=7
note_off channel=6 note=51 velocity=0 time=7
note_off channel=7 note=67 velocity=0 time=0
note_off channel=6 note=44 velocity=0 time=7
note_off channel=8 note=56 velocity=0 time=2
note_off channel=8 note=51 velocity=0 time=20
note_off channel=7 note=32 velocity=0 time=113
note_off channel=7 note=44 velocity=0 time=0
note_off channel=8 note=44 velocity=0 time=1
note_off channel=1 note=32 velocity=0 time=7
note_off channel=10 note=44 velocity=0 time=8
note_on channel=1 note=34 velocity=113 time=13
note_on channel=7 note=34 velocity=115 time=0
note_on channel=7 note=46 velocity=115 time=0
note_on channel=7 note=65 velocity=83 time=0
note_on channel=7 note=70 velocity=105 time=0
note_on channel=7 note=74 velocity=102 time=0
note_on channel=8 note=58 velocity=123 time=0
note_on channel=8 note=62 velocity=110 time=0
note_on channel=9 note=35 velocity=116 time=0
note_on channel=9 note=42 velocity=98 time=0
note_on channel=10 note=46 velocity=113 time=8
note_on channel=6 note=46 velocity=116 time=3
note_on channel=6 note=53 velocity=127 time=0
note_off channel=9 note=35 velocity=0 time=17
note_off channel=9 note=42 velocity=0 time=0
note_off channel=7 note=74 velocity=0 time=35
note_off channel=6 note=53 velocity=0 time=9
note_off channel=7 note=65 velocity=0 time=2
note_off channel=7 note=70 velocity=0 time=1
note_off channel=6 note=46 velocity=0 time=39
note_off channel=3 note=80 velocity=0 time=20
note_off channel=8 note=62 velocity=0 time=1
note_off channel=8 note=58 velocity=0 time=17
note_off channel=1 note=34 velocity=0 time=67
note_off channel=10 note=46 velocity=0 time=8
note_on channel=1 note=34 velocity=113 time=13
note_on channel=7 note=65 velocity=63 time=0
note_on channel=7 note=70 velocity=81 time=0
note_on channel=7 note=74 velocity=56 time=0
note_on channel=8 note=58 velocity=93 time=0
note_on channel=8 note=62 velocity=80 time=0
note_on channel=9 note=35 velocity=116 time=0
note_on channel=9 note=42 velocity=98 time=0
note_on channel=10 note=46 velocity=113 time=8
note_on channel=3 note=80 velocity=123 time=0
note_on channel=6 note=46 velocity=116 time=2
note_on channel=6 note=53 velocity=116 time=0
note_off channel=9 note=35 velocity=0 time=17
note_off channel=9 note=42 velocity=0 time=0
note_off channel=7 note=74 velocity=0 time=9
note_off channel=7 note=65 velocity=0 time=15
note_off channel=8 note=62 velocity=0 time=1
note_off channel=7 note=70 velocity=0 time=1
note_off channel=6 note=53 velocity=0 time=2
note_off channel=8 note=58 velocity=0 time=7
note_off channel=6 note=46 velocity=0 time=16
note_off channel=3 note=80 velocity=0 time=51
note_off channel=1 note=34 velocity=0 time=89
note_off channel=10 note=46 velocity=0 time=8
note_on channel=1 note=34 velocity=118 time=13
note_on channel=7 note=65 velocity=106 time=0
note_on channel=7 note=70 velocity=116 time=0
note_on channel=7 note=74 velocity=115 time=0
note_on channel=8 note=58 velocity=123 time=0
note_on channel=8 note=62 velocity=125 time=0
note_on channel=9 note=39 velocity=85 time=0
note_on channel=9 note=40 velocity=116 time=0
note_on channel=9 note=42 velocity=98 time=0
note_on channel=9 note=54 velocity=116 time=0
note_on channel=10 note=46 velocity=118 time=8
note_on channel=6 note=46 velocity=127 time=3
note_on channel=6 note=53 velocity=127 time=0
note_off channel=9 note=39 velocity=0 time=17
note_off channel=9 note=40 velocity=0 time=0
note_off channel=9 note=42 velocity=0 time=0
note_off channel=9 note=54 velocity=0 time=0
note_off channel=7 note=65 velocity=0 time=42
note_off channel=7 note=70 velocity=0 time=0
note_off channel=6 note=53 velocity=0 time=3
note_off channel=7 note=74 velocity=0 time=10
note_off channel=6 note=46 velocity=0 time=24
note_off channel=8 note=62 velocity=0 time=54
note_off channel=8 note=58 velocity=0 time=15
note_off channel=1 note=34 velocity=0 time=43
note_off channel=10 note=46 velocity=0 time=8
note_on channel=1 note=34 velocity=113 time=13
note_on channel=7 note=65 velocity=74 time=0
note_on channel=7 note=70 velocity=93 time=0
note_on channel=7 note=74 velocity=83 time=0
note_on channel=8 note=58 velocity=105 time=0
note_on channel=8 note=62 velocity=90 time=0
note_on channel=9 note=42 velocity=98 time=0
note_on channel=10 note=46 velocity=113 time=8
note_on channel=6 note=46 velocity=116 time=3
note_on channel=6 note=53 velocity=116 time=0
note_off channel=9 note=42 velocity=0 time=17
note_off channel=7 note=65 velocity=0 time=38
note_off channel=6 note=53 velocity=0 time=1
note_off channel=7 note=70 velocity=0 time=1
note_off channel=8 note=62 velocity=0 time=1
note_off channel=7 note=74 velocity=0 time=7
note_off channel=8 note=58 velocity=0 time=2
note_off channel=6 note=46 velocity=0 time=15
note_off channel=1 note=34 velocity=0 time=126
note_off channel=10 note=46 velocity=0 time=8
note_on channel=1 note=34 velocity=113 time=13
note_on channel=7 note=65 velocity=90 time=0
note_on channel=7 note=70 velocity=101 time=0
note_on channel=7 note=74 velocity=98 time=0
note_on channel=8 note=58 velocity=105 time=0
note_on channel=8 note=62 velocity=115 time=0
note_on channel=9 note=35 velocity=116 time=0
note_on channel=9 note=42 velocity=98 time=0
note_on channel=10 note=46 velocity=113 time=8
note_on channel=6 note=46 velocity=123 time=3
note_on channel=6 note=53 velocity=127 time=0
note_off channel=9 note=35 velocity=0 time=17
note_off channel=9 note=42 velocity=0 time=0
note_off channel=8 note=58 velocity=0 time=28
note_off channel=8 note=62 velocity=0 time=1
note_off channel=7 note=65 velocity=0 time=9
note_off channel=7 note=70 velocity=0 time=3
note_off channel=6 note=53 velocity=0 time=7
note_off channel=7 note=74 velocity=0 time=8
note_off channel=6 note=46 velocity=0 time=17
note_off channel=1 note=34 velocity=0 time=118
note_off channel=10 note=46 velocity=0 time=8
note_on channel=3 note=79 velocity=120 time=0
note_on channel=1 note=34 velocity=118 time=4
note_on channel=7 note=65 velocity=74 time=0
note_on channel=7 note=70 velocity=89 time=0
note_on channel=7 note=74 velocity=90 time=0
note_on channel=8 note=58 velocity=116 time=0
note_on channel=8 note=62 velocity=120 time=0
note_on channel=9 note=35 velocity=116 time=0
note_on channel=9 note=42 velocity=98 time=0
note_on channel=10 note=46 velocity=118 time=8
note_on channel=6 note=46 velocity=123 time=3
note_on channel=6 note=53 velocity=123 time=0
note_off channel=9 note=35 velocity=0 time=17
note_off channel=9 note=42 velocity=0 time=0
note_off channel=7 note=70 velocity=0 time=30
note_off channel=7 note=65 velocity=0 time=2
note_off channel=8 note=62 velocity=0 time=6
note_off channel=6 note=53 velocity=0 time=1
note_off channel=7 note=74 velocity=0 time=5
note_off channel=8 note=58 velocity=0 time=6
note_off channel=6 note=46 velocity=0 time=5
note_off channel=3 note=79 velocity=0 time=84
note_off channel=1 note=34 velocity=0 time=52
note_on channel=3 note=79 velocity=120 time=0
note_off channel=10 note=46 velocity=0 time=6
note_on channel=1 note=34 velocity=113 time=13
note_on channel=7 note=65 velocity=98 time=0
note_on channel=7 note=70 velocity=111 time=0
note_on channel=7 note=74 velocity=106 time=0
note_on channel=8 note=58 velocity=123 time=0
note_on channel=8 note=62 velocity=110 time=0
note_on channel=9 note=39 velocity=85 time=0
note_on channel=9 note=40 velocity=116 time=0
note_on channel=9 note=42 velocity=98 time=0
note_on channel=9 note=54 velocity=116 time=0
note_on channel=10 note=46 velocity=113 time=8
note_on channel=6 note=46 velocity=127 time=3
note_on channel=6 note=53 velocity=127 time=0
note_off channel=9 note=39 velocity=0 time=17
note_off channel=9 note=40 velocity=0 time=0
note_off channel=9 note=42 velocity=0 time=0
note_off channel=9 note=54 velocity=0 time=0
note_off channel=7 note=65 velocity=0 time=34
note_off channel=7 note=70 velocity=0 time=3
note_off channel=8 note=58 velocity=0 time=1
note_off channel=8 note=62 velocity=0 time=2
note_off channel=7 note=74 velocity=0 time=4
note_off channel=6 note=53 velocity=0 time=3
note_off channel=6 note=46 velocity=0 time=16
note_off channel=3 note=79 velocity=0 time=88
note_off channel=1 note=34 velocity=0 time=40
note_off channel=10 note=46 velocity=0 time=8
note_on channel=1 note=34 velocity=118 time=0
note_on channel=3 note=80 velocity=123 time=0
note_on channel=7 note=65 velocity=98 time=0
note_on channel=7 note=70 velocity=105 time=0
note_on channel=7 note=74 velocity=106 time=0
note_on channel=8 note=58 velocity=116 time=0
note_on channel=8 note=62 velocity=106 time=0
note_on channel=9 note=42 velocity=98 time=0
note_on channel=10 note=46 velocity=118 time=8
note_on channel=6 note=46 velocity=123 time=3
note_on channel=6 note=53 velocity=123 time=0
note_off channel=9 note=42 velocity=0 time=17
note_off channel=8 note=62 velocity=0 time=13
note_off channel=8 note=58 velocity=0 time=6
note_off channel=7 note=65 velocity=0 time=9
note_off channel=7 note=70 velocity=0 time=3
note_off channel=6 note=53 velocity=0 time=10
note_off channel=7 note=74 velocity=0 time=3
note_off channel=6 note=46 velocity=0 time=4
note_off channel=7 note=34 velocity=0 time=135
note_off channel=7 note=46 velocity=0 time=0
note_off channel=1 note=34 velocity=0 time=8
note_off channel=10 note=46 velocity=0 time=8
note_on channel=1 note=34 velocity=113 time=13
note_on channel=7 note=34 velocity=115 time=0
note_on channel=7 note=46 velocity=115 time=0
note_on channel=7 note=65 velocity=83 time=0
note_on channel=7 note=70 velocity=105 time=0
note_on channel=7 note=74 velocity=102 time=0
note_on channel=8 note=58 velocity=101 time=0
note_on channel=8 note=62 velocity=95 time=0
note_on channel=9 note=35 velocity=116 time=0
note_on channel=9 note=42 velocity=98 time=0
note_on channel=10 note=46 velocity=113 time=8
note_on channel=6 note=46 velocity=116 time=3
note_on channel=6 note=53 velocity=127 time=0
note_off channel=8 note=62 velocity=0 time=15
note_off channel=9 note=35 velocity=0 time=2
note_off channel=9 note=42 velocity=0 time=0
note_off channel=8 note=58 velocity=0 time=7
note_off channel=7 note=74 velocity=0 time=28
note_off channel=6 note=53 velocity=0 time=9
note_off channel=7 note=65 velocity=0 time=2
note_off channel=7 note=70 velocity=0 time=1
note_off channel=6 note=46 velocity=0 time=39
note_off channel=3 note=80 velocity=0 time=20
note_off channel=1 note=34 velocity=0 time=85
note_off channel=10 note=46 velocity=0 time=8
note_on channel=1 note=34 velocity=113 time=13
note_on channel=7 note=65 velocity=63 time=0
note_on channel=7 note=70 velocity=81 time=0
note_on channel=7 note=74 velocity=56 time=0
note_on channel=8 note=62 velocity=110 time=0
note_on channel=8 note=65 velocity=90 time=0
note_on channel=8 note=70 velocity=116 time=0
note_on channel=9 note=35 velocity=116 time=0
note_on channel=9 note=42 velocity=98 time=0
note_on channel=10 note=46 velocity=113 time=8
note_on channel=3 note=80 velocity=123 time=0
note_on channel=6 note=46 velocity=116 time=2
note_on channel=6 note=53 velocity=116 time=0
note_off channel=9 note=35 velocity=0 time=17
note_off channel=9 note=42 velocity=0 time=0
note_off channel=7 note=74 velocity=0 time=9
note_off channel=7 note=65 velocity=0 time=15
note_off channel=7 note=70 velocity=0 time=2
note_off channel=6 note=53 velocity=0 time=2
note_off channel=8 note=62 velocity=0 time=2
note_off channel=8 note=70 velocity=0 time=5
note_off channel=8 note=65 velocity=0 time=1
note_off channel=6 note=46 velocity=0 time=15
note_off channel=3 note=80 velocity=0 time=51
note_off channel=1 note=34 velocity=0 time=89
note_off channel=10 note=46 velocity=0 time=8
note_on channel=1 note=34 velocity=118 time=13
note_on channel=7 note=65 velocity=106 time=0
note_on channel=7 note=70 velocity=116 time=0
note_on channel=7 note=74 velocity=115 time=0
note_on channel=8 note=62 velocity=120 time=0
note_on channel=8 note=65 velocity=77 time=0
note_on channel=8 note=70 velocity=97 time=0
note_on channel=9 note=39 velocity=85 time=0
note_on channel=9 note=40 velocity=116 time=0
note_on channel=9 note=42 velocity=98 time=0
note_on channel=9 note=54 velocity=116 time=0
note_on channel=10 note=46 velocity=118 time=8
note_on channel=6 note=46 velocity=127 time=3
note_on channel=6 note=53 velocity=127 time=0
note_off channel=8 note=70 velocity=0 time=14
note_off channel=9 note=39 velocity=0 time=3
note_off channel=9 note=40 velocity=0 time=0
note_off channel=9 note=42 velocity=0 time=0
note_off channel=9 note=54 velocity=0 time=0
note_off channel=8 note=65 velocity=0 time=10
note_off channel=8 note=62 velocity=0 time=4
note_off channel=7 note=65 velocity=0 time=28
note_off channel=7 note=70 velocity=0 time=0
note_off channel=6 note=53 velocity=0 time=3
note_off channel=7 note=74 velocity=0 time=10
note_off channel=6 note=46 velocity=0 time=24
note_off channel=1 note=34 velocity=0 time=112
note_off channel=10 note=46 velocity=0 time=8
note_on channel=1 note=34 velocity=113 time=13
note_on channel=7 note=65 velocity=74 time=0
note_on channel=7 note=70 velocity=93 time=0
note_on channel=7 note=74 velocity=83 time=0
note_on channel=8 note=62 velocity=127 time=0
note_on channel=8 note=65 velocity=102 time=0
note_on channel=8 note=70 velocity=127 time=0
note_on channel=9 note=42 velocity=98 time=0
note_on channel=10 note=46 velocity=113 time=8
note_on channel=6 note=46 velocity=116 time=3
note_on channel=6 note=53 velocity=116 time=0
note_off channel=9 note=42 velocity=0 time=17
note_off channel=7 note=65 velocity=0 time=38
note_off channel=6 note=53 velocity=0 time=1
note_off channel=7 note=70 velocity=0 time=1
note_off channel=7 note=74 velocity=0 time=8
note_off channel=6 note=46 velocity=0 time=17
note_off channel=1 note=34 velocity=0 time=126
note_off channel=10 note=46 velocity=0 time=8
note_on channel=1 note=34 velocity=113 time=13
note_on channel=7 note=65 velocity=90 time=0
note_on channel=7 note=70 velocity=101 time=0
note_on channel=7 note=74 velocity=98 time=0
note_on channel=9 note=35 velocity=116 time=0
note_on channel=9 note=42 velocity=98 time=0
note_on channel=10 note=46 velocity=113 time=8
note_on channel=6 note=46 velocity=123 time=3
note_on channel=6 note=53 velocity=127 time=0
note_off channel=9 note=35 velocity=0 time=17
note_off channel=9 note=42 velocity=0 time=0
note_off channel=7 note=65 velocity=0 time=38
note_off channel=7 note=70 velocity=0 time=3
note_off channel=6 note=53 velocity=0 time=7
note_off channel=7 note=74 velocity=0 time=8
note_off channel=6 note=46 velocity=0 time=17
note_off channel=8 note=62 velocity=0 time=11
note_off channel=8 note=65 velocity=0 time=4
note_off channel=8 note=70 velocity=0 time=9
note_off channel=1 note=34 velocity=0 time=94
note_off channel=10 note=46 velocity=0 time=8
note_on channel=1 note=34 velocity=118 time=13
note_on channel=7 note=65 velocity=74 time=0
note_on channel=7 note=70 velocity=89 time=0
note_on channel=7 note=74 velocity=90 time=0
note_on channel=8 note=62 velocity=125 time=0
note_on channel=8 note=65 velocity=120 time=0
note_on channel=8 note=70 velocity=127 time=0
note_on channel=9 note=35 velocity=116 time=0
note_on channel=9 note=46 velocity=98 time=0
note_on channel=10 note=46 velocity=118 time=8
note_on channel=6 note=46 velocity=123 time=3
note_on channel=6 note=53 velocity=123 time=0
note_off channel=9 note=35 velocity=0 time=17
note_off channel=9 note=46 velocity=0 time=0
note_off channel=7 note=70 velocity=0 time=30
note_off channel=7 note=65 velocity=0 time=2
note_off channel=6 note=53 velocity=0 time=7
note_off channel=7 note=74 velocity=0 time=5
note_off channel=6 note=46 velocity=0 time=11
note_off channel=1 note=34 velocity=0 time=136
note_off channel=10 note=46 velocity=0 time=8
note_on channel=1 note=34 velocity=113 time=13
note_on channel=7 note=65 velocity=98 time=0
note_on channel=7 note=70 velocity=111 time=0
note_on channel=7 note=74 velocity=106 time=0
note_on channel=9 note=39 velocity=85 time=0
note_on channel=9 note=40 velocity=116 time=0
note_on channel=9 note=42 velocity=98 time=0
note_on channel=9 note=54 velocity=116 time=0
note_on channel=10 note=46 velocity=113 time=8
note_on channel=6 note=46 velocity=127 time=3
note_on channel=6 note=53 velocity=127 time=0
note_off channel=9 note=39 velocity=0 time=17
note_off channel=9 note=40 velocity=0 time=0
note_off channel=9 note=42 velocity=0 time=0
note_off channel=9 note=54 velocity=0 time=0
note_off channel=7 note=65 velocity=0 time=34
note_off channel=7 note=70 velocity=0 time=3
note_off channel=7 note=74 velocity=0 time=7
note_off channel=6 note=53 velocity=0 time=3
note_off channel=6 note=46 velocity=0 time=16
note_on channel=9 note=40 velocity=116 time=29
note_off channel=8 note=65 velocity=0 time=15
note_off channel=8 note=62 velocity=0 time=2
note_off channel=8 note=70 velocity=0 time=9
note_off channel=9 note=40 velocity=0 time=2
note_off channel=1 note=34 velocity=0 time=71
note_off channel=10 note=46 velocity=0 time=8
note_on channel=1 note=34 velocity=118 time=13
note_on channel=7 note=65 velocity=98 time=0
note_on channel=7 note=70 velocity=105 time=0
note_on channel=7 note=74 velocity=106 time=0
note_on channel=8 note=62 velocity=115 time=0
note_on channel=8 note=65 velocity=110 time=0
note_on channel=8 note=70 velocity=127 time=0
note_on channel=9 note=40 velocity=116 time=0
note_on channel=9 note=42 velocity=98 time=0
note_on channel=10 note=46 velocity=118 time=8
note_on channel=6 note=46 velocity=123 time=3
note_on channel=6 note=53 velocity=123 time=0
note_off channel=9 note=40 velocity=0 time=17
note_off channel=9 note=42 velocity=0 time=0
note_off channel=7 note=65 velocity=0 time=28
note_off channel=7 note=70 velocity=0 time=3
note_off channel=6 note=53 velocity=0 time=10
note_off channel=7 note=74 velocity=0 time=3
note_off channel=8 note=65 velocity=0 time=3
note_off channel=6 note=46 velocity=0 time=1
note_off channel=8 note=70 velocity=0 time=0
note_off channel=8 note=62 velocity=0 time=27
note_on channel=9 note=40 velocity=116 time=17
note_off channel=9 note=40 velocity=0 time=28
note_off channel=7 note=34 velocity=0 time=63
note_off channel=7 note=46 velocity=0 time=0
note_off channel=1 note=34 velocity=0 time=8
note_off channel=10 note=46 velocity=0 time=8
note_on channel=3 note=77 velocity=115 time=0
note_on channel=9 note=35 velocity=95 time=1
note_on channel=9 note=40 velocity=98 time=0
note_on channel=9 note=43 velocity=106 time=0
pitchwheel channel=3 pitch=520 time=55
pitchwheel channel=3 pitch=910 time=15
pitchwheel channel=3 pitch=1170 time=10
pitchwheel channel=3 pitch=1560 time=11
pitchwheel channel=3 pitch=1950 time=14
note_off channel=9 note=43 velocity=0 time=10
pitchwheel channel=3 pitch=2340 time=2
note_off channel=9 note=40 velocity=0 time=13
pitchwheel channel=3 pitch=2730 time=0
pitchwheel channel=3 pitch=3250 time=15
note_off channel=9 note=35 velocity=0 time=3
pitchwheel channel=3 pitch=3640 time=14
pitchwheel channel=3 pitch=4030 time=17
pitchwheel channel=3 pitch=4290 time=12
pitchwheel channel=3 pitch=4420 time=11
pitchwheel channel=3 pitch=4680 time=19
pitchwheel channel=3 pitch=4810 time=13
note_on channel=9 note=40 velocity=49 time=6
note_on channel=9 note=43 velocity=49 time=0
pitchwheel channel=3 pitch=5070 time=6
pitchwheel channel=3 pitch=5460 time=19
pitchwheel channel=3 pitch=5850 time=15
pitchwheel channel=3 pitch=6370 time=15
pitchwheel channel=3 pitch=6500 time=11
pitchwheel channel=3 pitch=6760 time=11
note_off channel=9 note=43 velocity=0 time=6
pitchwheel channel=3 pitch=6890 time=14
note_off channel=9 note=40 velocity=0 time=16
note_off channel=3 note=77 velocity=0 time=62
pitchwheel channel=3 pitch=6630 time=12
pitchwheel channel=3 pitch=5980 time=12
pitchwheel channel=3 pitch=5070 time=12
pitchwheel channel=3 pitch=4160 time=12
pitchwheel channel=3 pitch=3250 time=11
note_on channel=9 note=35 velocity=95 time=6
note_on channel=9 note=40 velocity=95 time=0
note_on channel=9 note=43 velocity=106 time=0
pitchwheel channel=3 pitch=2340 time=4
note_on channel=3 note=77 velocity=115 time=0
pitchwheel channel=3 pitch=1560 time=3
pitchwheel channel=3 pitch=1170 time=12
pitchwheel channel=3 pitch=1560 time=58
pitchwheel channel=3 pitch=1950 time=12
pitchwheel channel=3 pitch=2470 time=14
pitchwheel channel=3 pitch=2860 time=10
pitchwheel channel=3 pitch=3250 time=10
note_off channel=9 note=43 velocity=0 time=7
pitchwheel channel=3 pitch=3640 time=3
note_off channel=9 note=35 velocity=0 time=4
note_off channel=9 note=40 velocity=0 time=0
pitchwheel channel=3 pitch=4290 time=8
pitchwheel channel=3 pitch=4940 time=11
pitchwheel channel=3 pitch=5330 time=11
pitchwheel channel=3 pitch=5980 time=13
pitchwheel channel=3 pitch=6370 time=15
pitchwheel channel=3 pitch=6630 time=14
pitchwheel channel=3 pitch=6760 time=15
note_on channel=9 note=40 velocity=49 time=5
note_on channel=9 note=43 velocity=49 time=0
pitchwheel channel=3 pitch=7020 time=10
pitchwheel channel=3 pitch=7280 time=25
note_off channel=9 note=43 velocity=0 time=48
pitchwheel channel=3 pitch=7410 time=4
note_off channel=9 note=40 velocity=0 time=26
pitchwheel channel=3 pitch=7670 time=18
pitchwheel channel=3 pitch=7800 time=17
pitchwheel channel=3 pitch=8060 time=21
note_on channel=9 note=35 velocity=95 time=71
note_on channel=9 note=40 velocity=98 time=0
note_on channel=9 note=43 velocity=102 time=0
pitchwheel channel=3 pitch=7020 time=2
pitchwheel channel=3 pitch=5200 time=11
pitchwheel channel=3 pitch=2600 time=10
pitchwheel channel=3 pitch=260 time=10
note_off channel=3 note=77 velocity=0 time=12
pitchwheel channel=3 pitch=0 time=5
note_on channel=3 note=77 velocity=97 time=0
note_off channel=9 note=43 velocity=0 time=62
note_off channel=9 note=40 velocity=0 time=22
note_off channel=3 note=77 velocity=0 time=2
note_off channel=9 note=35 velocity=0 time=11
note_on channel=3 note=75 velocity=97 time=23
note_on channel=9 note=40 velocity=49 time=69
note_on channel=9 note=43 velocity=49 time=0
note_off channel=3 note=75 velocity=0 time=17
note_on channel=3 note=72 velocity=120 time=0
note_off channel=9 note=43 velocity=0 time=52
note_off channel=9 note=40 velocity=0 time=30
note_on channel=9 note=35 velocity=95 time=127
note_on channel=9 note=40 velocity=98 time=0
note_on channel=9 note=43 velocity=106 time=0
note_off channel=9 note=35 velocity=0 time=148
note_off channel=9 note=43 velocity=0 time=7
note_off channel=9 note=40 velocity=0 time=17
note_on channel=9 note=40 velocity=49 time=68
note_on channel=9 note=43 velocity=49 time=0
note_off channel=3 note=72 velocity=0 time=49
note_off channel=9 note=43 velocity=0 time=34
note_off channel=9 note=40 velocity=0 time=30
pitchwheel channel=3 pitch=-896 time=75
pitchwheel channel=3 pitch=-2176 time=10
pitchwheel channel=3 pitch=-3712 time=10
pitchwheel channel=3 pitch=-5248 time=10
pitchwheel channel=3 pitch=-6656 time=13
note_on channel=9 note=35 velocity=95 time=9
note_on channel=9 note=40 velocity=98 time=0
note_on channel=9 note=43 velocity=106 time=0
pitchwheel channel=3 pitch=-7552 time=3
note_on channel=3 note=79 velocity=120 time=0
pitchwheel channel=3 pitch=-8064 time=4
pitchwheel channel=3 pitch=-7808 time=30
pitchwheel channel=3 pitch=-6912 time=10
pitchwheel channel=3 pitch=-5504 time=11
pitchwheel channel=3 pitch=-4096 time=10
pitchwheel channel=3 pitch=-2560 time=10
pitchwheel channel=3 pitch=-896 time=13
pitchwheel channel=3 pitch=0 time=10
note_off channel=9 note=43 velocity=0 time=8
note_off channel=9 note=40 velocity=0 time=15
note_off channel=9 note=35 velocity=0 time=18
note_off channel=3 note=79 velocity=0 time=24
pitchwheel channel=3 pitch=-128 time=13
pitchwheel channel=3 pitch=-2176 time=10
pitchwheel channel=3 pitch=-4608 time=10
pitchwheel channel=3 pitch=-6912 time=10
pitchwheel channel=3 pitch=-8192 time=10
note_on channel=9 note=40 velocity=49 time=15
note_on channel=9 note=43 velocity=49 time=0
note_on channel=3 note=79 velocity=102 time=0
pitchwheel channel=3 pitch=-7040 time=44
pitchwheel channel=3 pitch=-5120 time=10
pitchwheel channel=3 pitch=-2688 time=10
pitchwheel channel=3 pitch=0 time=10
note_off channel=9 note=43 velocity=0 time=1
note_off channel=9 note=40 velocity=0 time=30
note_off channel=3 note=79 velocity=0 time=67
note_on channel=3 note=77 velocity=106 time=0
note_on channel=9 note=35 velocity=95 time=7
note_on channel=9 note=40 velocity=95 time=0
note_on channel=9 note=43 velocity=106 time=0
note_off channel=9 note=43 velocity=0 time=141
note_off channel=9 note=35 velocity=0 time=7
note_off channel=9 note=40 velocity=0 time=0
note_on channel=3 note=75 velocity=123 time=0
note_off channel=3 note=77 velocity=0 time=16
note_on channel=9 note=40 velocity=49 time=8
note_on channel=9 note=43 velocity=49 time=0
note_off channel=9 note=43 velocity=0 time=83
note_off channel=9 note=40 velocity=0 time=30
note_off channel=3 note=75 velocity=0 time=93
note_on channel=3 note=72 velocity=125 time=0
note_on channel=9 note=35 velocity=95 time=28
note_on channel=9 note=40 velocity=98 time=0
note_on channel=9 note=43 velocity=102 time=0
note_off channel=9 note=43 velocity=0 time=113
note_off channel=9 note=40 velocity=0 time=22
note_off channel=9 note=35 velocity=0 time=13
note_on channel=4 note=55 velocity=102 time=92
note_on channel=9 note=40 velocity=49 time=0
note_on channel=9 note=43 velocity=49 time=0
note_off channel=9 note=43 velocity=0 time=83
note_off channel=9 note=40 velocity=0 time=30
note_off channel=3 note=72 velocity=0 time=22
note_off channel=4 note=55 velocity=0 time=80
note_on channel=4 note=58 velocity=116 time=25
note_on channel=9 note=35 velocity=95 time=0
note_on channel=9 note=40 velocity=98 time=0
note_on channel=9 note=43 velocity=106 time=0
note_on channel=4 note=60 velocity=115 time=120
note_off channel=4 note=58 velocity=0 time=1
note_off channel=9 note=35 velocity=0 time=27
note_off channel=9 note=43 velocity=0 time=7
note_off channel=9 note=40 velocity=0 time=17
note_on channel=9 note=40 velocity=49 time=68
note_on channel=9 note=43 velocity=49 time=0
note_off channel=9 note=43 velocity=0 time=83
note_off channel=9 note=40 velocity=0 time=30
note_off channel=4 note=60 velocity=0 time=7
note_on channel=4 note=58 velocity=101 time=120
note_on channel=4 note=63 velocity=116 time=0
note_on channel=9 note=35 velocity=95 time=0
note_on channel=9 note=40 velocity=98 time=0
note_on channel=9 note=43 velocity=106 time=0
note_on channel=3 note=77 velocity=110 time=0
pitchwheel channel=3 pitch=650 time=94
note_off channel=9 note=43 velocity=0 time=4
pitchwheel channel=3 pitch=1040 time=7
note_off channel=9 note=40 velocity=0 time=8
pitchwheel channel=3 pitch=1430 time=8
note_off channel=9 note=35 velocity=0 time=10
pitchwheel channel=3 pitch=1820 time=3
pitchwheel channel=3 pitch=2340 time=10
pitchwheel channel=3 pitch=2730 time=15
pitchwheel channel=3 pitch=3120 time=15
pitchwheel channel=3 pitch=3380 time=12
pitchwheel channel=3 pitch=3510 time=15
pitchwheel channel=3 pitch=3770 time=10
note_on channel=9 note=40 velocity=49 time=12
note_on channel=9 note=43 velocity=49 time=0
pitchwheel channel=3 pitch=4160 time=3
pitchwheel channel=3 pitch=4550 time=10
pitchwheel channel=3 pitch=4940 time=11
pitchwheel channel=3 pitch=5720 time=13
pitchwheel channel=3 pitch=6370 time=12
pitchwheel channel=3 pitch=7020 time=13
pitchwheel channel=3 pitch=7410 time=10
note_off channel=9 note=43 velocity=0 time=11
pitchwheel channel=3 pitch=7930 time=1
note_off channel=9 note=40 velocity=0 time=29
pitchwheel channel=3 pitch=6240 time=1
pitchwheel channel=3 pitch=1690 time=12
note_off channel=3 note=77 velocity=0 time=9
pitchwheel channel=3 pitch=260 time=1
note_on channel=3 note=82 velocity=111 time=0
note_on channel=9 note=35 velocity=95 time=85
note_on channel=9 note=40 velocity=95 time=0
note_on channel=9 note=43 velocity=106 time=0
note_off channel=9 note=43 velocity=0 time=141
note_off channel=9 note=35 velocity=0 time=7
note_off channel=9 note=40 velocity=0 time=0
note_off channel=3 note=82 velocity=0 time=40
note_off channel=4 note=63 velocity=0 time=19
note_off channel=4 note=58 velocity=0 time=18
note_on channel=9 note=40 velocity=49 time=15
note_on channel=9 note=43 velocity=49 time=0
note_on channel=3 note=79 velocity=106 time=0
note_off channel=9 note=43 velocity=0 time=60
note_off channel=9 note=40 velocity=0 time=30
note_off channel=3 note=79 velocity=0 time=113
note_on channel=9 note=35 velocity=95 time=14
note_on channel=9 note=40 velocity=98 time=0
note_on channel=9 note=43 velocity=102 time=0
note_on channel=3 note=77 velocity=110 time=20
note_off channel=9 note=43 velocity=0 time=93
note_off channel=9 note=40 velocity=0 time=22
note_off channel=9 note=35 velocity=0 time=13
note_off channel=3 note=77 velocity=0 time=58
note_on channel=9 note=40 velocity=49 time=34
note_on channel=9 note=43 velocity=49 time=0
note_on channel=3 note=75 velocity=111 time=12
note_off channel=9 note=43 velocity=0 time=71
note_off channel=9 note=40 velocity=0 time=30
note_off channel=3 note=75 velocity=0 time=92
note_on channel=9 note=35 velocity=95 time=35
note_on channel=9 note=40 velocity=98 time=0
note_on channel=9 note=43 velocity=106 time=0
note_on channel=3 note=72 velocity=110 time=0
note_off channel=3 note=72 velocity=0 time=123
note_off channel=9 note=35 velocity=0 time=24
note_off channel=9 note=43 velocity=0 time=7
note_off channel=9 note=40 velocity=0 time=17
note_on channel=9 note=40 velocity=49 time=68
note_on channel=9 note=43 velocity=49 time=0
note_on channel=3 note=72 velocity=125 time=0
note_off channel=9 note=43 velocity=0 time=68
note_off channel=9 note=40 velocity=0 time=30
note_off channel=3 note=72 velocity=0 time=54
note_on channel=3 note=75 velocity=123 time=0
note_on channel=9 note=35 velocity=95 time=4
note_on channel=9 note=40 velocity=98 time=0
note_on channel=9 note=43 velocity=106 time=0
note_off channel=3 note=75 velocity=0 time=55
note_off channel=9 note=43 velocity=0 time=60
note_on channel=3 note=75 velocity=101 time=0
note_off channel=9 note=40 velocity=0 time=7
note_off channel=9 note=35 velocity=0 time=18
note_off channel=3 note=75 velocity=0 time=83
note_on channel=9 note=40 velocity=49 time=9
note_on channel=9 note=43 velocity=49 time=0
note_on channel=5 note=70 velocity=123 time=5
pitchwheel channel=5 pitch=780 time=15
pitchwheel channel=5 pitch=1560 time=10
pitchwheel channel=5 pitch=2340 time=12
pitchwheel channel=5 pitch=3250 time=11
pitchwheel channel=5 pitch=4160 time=12
pitchwheel channel=5 pitch=5200 time=10
note_off channel=9 note=43 velocity=0 time=8
pitchwheel channel=5 pitch=6240 time=4
pitchwheel channel=5 pitch=7410 time=12
pitchwheel channel=5 pitch=8191 time=11
note_off channel=9 note=40 velocity=0 time=3
note_on channel=3 note=75 velocity=111 time=0
note_off channel=3 note=75 velocity=0 time=79
note_on channel=3 note=77 velocity=106 time=0
note_on channel=9 note=35 velocity=95 time=1
note_on channel=9 note=40 velocity=95 time=0
note_on channel=9 note=43 velocity=106 time=0
note_off channel=3 note=77 velocity=0 time=137
note_off channel=9 note=43 velocity=0 time=4
note_off channel=9 note=35 velocity=0 time=7
note_off channel=9 note=40 velocity=0 time=0
note_on channel=9 note=40 velocity=49 time=92
note_on channel=9 note=43 velocity=49 time=0
note_on channel=3 note=79 velocity=115 time=6
note_off channel=3 note=79 velocity=0 time=62
note_off channel=9 note=43 velocity=0 time=15
note_off channel=9 note=40 velocity=0 time=30
note_on channel=7 note=58 velocity=123 time=127
note_on channel=9 note=35 velocity=95 time=0
note_on channel=9 note=40 velocity=98 time=0
note_on channel=9 note=43 velocity=102 time=0
note_on channel=3 note=79 velocity=127 time=0
note_off channel=7 note=58 velocity=0 time=45
note_off channel=9 note=43 velocity=0 time=48
note_off channel=9 note=40 velocity=0 time=22
note_off channel=9 note=35 velocity=0 time=13
note_off channel=5 note=70 velocity=0 time=11
note_on channel=5 note=70 velocity=123 time=81
note_on channel=7 note=60 velocity=115 time=0
note_on channel=9 note=40 velocity=49 time=0
note_on channel=9 note=43 velocity=49 time=0
note_off channel=9 note=43 velocity=0 time=83
note_off channel=3 note=79 velocity=0 time=26
note_off channel=9 note=40 velocity=0 time=4
note_off channel=5 note=70 velocity=0 time=57
pitchwheel channel=5 pitch=6630 time=49
pitchwheel channel=5 pitch=0 time=10
note_on channel=5 note=65 velocity=80 time=11
note_on channel=5 note=70 velocity=127 time=0
note_on channel=7 note=58 velocity=123 time=0
note_on channel=9 note=35 velocity=95 time=0
note_on channel=9 note=40 velocity=98 time=0
note_on channel=9 note=43 velocity=106 time=0
note_off channel=7 note=60 velocity=0 time=20
note_off channel=9 note=35 velocity=0 time=128
note_off channel=5 note=65 velocity=0 time=1
note_off channel=9 note=43 velocity=0 time=6
note_off channel=9 note=40 velocity=0 time=17
note_off channel=5 note=70 velocity=0 time=20
note_on channel=5 note=60 velocity=106 time=48
note_on channel=5 note=65 velocity=98 time=0
note_on channel=7 note=60 velocity=106 time=0
note_on channel=9 note=40 velocity=49 time=0
note_on channel=9 note=43 velocity=49 time=0
note_on channel=9 note=46 velocity=106 time=0
note_off channel=5 note=60 velocity=0 time=57
note_off channel=9 note=43 velocity=0 time=26
note_off channel=9 note=40 velocity=0 time=30
note_off channel=9 note=46 velocity=0 time=42
note_off channel=5 note=65 velocity=0 time=20
note_off channel=7 note=58 velocity=0 time=38
note_on channel=3 note=77 velocity=115 time=0
note_on channel=1 note=36 velocity=61 time=1
note_on channel=7 note=36 velocity=127 time=0
note_on channel=7 note=48 velocity=127 time=0
note_on channel=8 note=48 velocity=98 time=0
note_on channel=9 note=35 velocity=95 time=0
note_on channel=9 note=40 velocity=98 time=0
note_on channel=9 note=43 velocity=106 time=0
note_on channel=9 note=44 velocity=106 time=0
note_on channel=10 note=48 velocity=58 time=0
note_off channel=7 note=60 velocity=0 time=5
note_on channel=8 note=55 velocity=100 time=6
note_on channel=10 note=55 velocity=60 time=0
note_off channel=8 note=48 velocity=0 time=31
note_off channel=10 note=48 velocity=0 time=0
pitchwheel channel=3 pitch=520 time=13
note_off channel=8 note=55 velocity=0 time=3
note_off channel=10 note=55 velocity=0 time=0
pitchwheel channel=3 pitch=910 time=12
pitchwheel channel=3 pitch=1170 time=10
pitchwheel channel=3 pitch=1560 time=11
pitchwheel channel=3 pitch=1950 time=14
note_off channel=9 note=43 velocity=0 time=10
pitchwheel channel=3 pitch=2340 time=2
note_off channel=9 note=40 velocity=0 time=13
pitchwheel channel=3 pitch=2730 time=0
pitchwheel channel=3 pitch=3250 time=15
note_off channel=9 note=35 velocity=0 time=3
note_off channel=9 note=44 velocity=0 time=7
pitchwheel channel=3 pitch=3640 time=7
pitchwheel channel=3 pitch=4030 time=17
pitchwheel channel=3 pitch=4290 time=12
pitchwheel channel=3 pitch=4420 time=11
pitchwheel channel=3 pitch=4680 time=19
note_off channel=1 note=36 velocity=0 time=13
pitchwheel channel=3 pitch=4810 time=0
note_on channel=1 note=48 velocity=78 time=6
note_on channel=8 note=48 velocity=115 time=0
note_on channel=9 note=40 velocity=49 time=0
note_on channel=9 note=43 velocity=49 time=0
note_on channel=10 note=48 velocity=75 time=0
pitchwheel channel=3 pitch=5070 time=6
note_on channel=8 note=55 velocity=100 time=5
note_on channel=10 note=55 velocity=60 time=0
pitchwheel channel=3 pitch=5460 time=14
pitchwheel channel=3 pitch=5850 time=15
note_off channel=8 note=48 velocity=0 time=5
note_off channel=10 note=48 velocity=0 time=0
note_off channel=8 note=55 velocity=0 time=5
note_off channel=10 note=55 velocity=0 time=0
pitchwheel channel=3 pitch=6370 time=5
pitchwheel channel=3 pitch=6500 time=11
pitchwheel channel=3 pitch=6760 time=11
note_off channel=9 note=43 velocity=0 time=6
pitchwheel channel=3 pitch=6890 time=14
note_off channel=9 note=40 velocity=0 time=16
note_off channel=3 note=77 velocity=0 time=62
pitchwheel channel=3 pitch=6630 time=12
pitchwheel channel=3 pitch=5980 time=12
pitchwheel channel=3 pitch=5070 time=12
pitchwheel channel=3 pitch=4160 time=12
note_off channel=1 note=48 velocity=0 time=11
pitchwheel channel=3 pitch=3250 time=0
note_on channel=1 note=36 velocity=61 time=6
note_on channel=8 note=48 velocity=83 time=0
note_on channel=9 note=35 velocity=95 time=0
note_on channel=9 note=40 velocity=95 time=0
note_on channel=9 note=43 velocity=106 time=0
note_on channel=10 note=48 velocity=43 time=0
pitchwheel channel=3 pitch=2340 time=4
note_on channel=8 note=55 velocity=87 time=7
note_on channel=10 note=55 velocity=47 time=0
note_on channel=3 note=77 velocity=115 time=0
pitchwheel channel=3 pitch=1560 time=3
note_off channel=7 note=36 velocity=0 time=9
note_off channel=7 note=48 velocity=0 time=0
pitchwheel channel=3 pitch=1170 time=3
note_off channel=8 note=48 velocity=0 time=3
note_off channel=10 note=48 velocity=0 time=0
note_off channel=8 note=55 velocity=0 time=12
note_off channel=10 note=55 velocity=0 time=0
pitchwheel channel=3 pitch=1560 time=43
pitchwheel channel=3 pitch=1950 time=12
pitchwheel channel=3 pitch=2470 time=14
pitchwheel channel=3 pitch=2860 time=10
pitchwheel channel=3 pitch=3250 time=10
note_off channel=9 note=43 velocity=0 time=7
pitchwheel channel=3 pitch=3640 time=3
note_off channel=9 note=35 velocity=0 time=4
note_off channel=9 note=40 velocity=0 time=0
pitchwheel channel=3 pitch=4290 time=8
pitchwheel channel=3 pitch=4940 time=11
pitchwheel channel=3 pitch=5330 time=11
pitchwheel channel=3 pitch=5980 time=13
pitchwheel channel=3 pitch=6370 time=15
pitchwheel channel=3 pitch=6630 time=14
note_off channel=1 note=36 velocity=0 time=14
pitchwheel channel=3 pitch=6760 time=1
note_on channel=1 note=48 velocity=78 time=5
note_on channel=8 note=48 velocity=102 time=0
note_on channel=9 note=40 velocity=49 time=0
note_on channel=9 note=43 velocity=49 time=0
note_on channel=10 note=48 velocity=62 time=0
pitchwheel channel=3 pitch=7020 time=10
note_on channel=8 note=55 velocity=87 time=1
note_on channel=10 note=55 velocity=47 time=0
pitchwheel channel=3 pitch=7280 time=24
note_off channel=8 note=48 velocity=0 time=5
note_off channel=10 note=48 velocity=0 time=0
note_off channel=8 note=55 velocity=0 time=12
note_off channel=10 note=55 velocity=0 time=0
note_off channel=9 note=43 velocity=0 time=31
pitchwheel channel=3 pitch=7410 time=4
note_off channel=9 note=40 velocity=0 time=26
pitchwheel channel=3 pitch=7670 time=18
pitchwheel channel=3 pitch=7800 time=17
pitchwheel channel=3 pitch=8060 time=21
note_off channel=1 note=48 velocity=0 time=65
note_on channel=1 note=36 velocity=61 time=6
note_on channel=8 note=48 velocity=87 time=0
note_on channel=9 note=35 velocity=95 time=0
note_on channel=9 note=40 velocity=98 time=0
note_on channel=9 note=43 velocity=102 time=0
note_on channel=10 note=48 velocity=47 time=0
pitchwheel channel=3 pitch=7020 time=2
note_on channel=8 note=55 velocity=75 time=9
note_on channel=10 note=55 velocity=35 time=0
pitchwheel channel=3 pitch=5200 time=2
pitchwheel channel=3 pitch=2600 time=10
pitchwheel channel=3 pitch=260 time=10
note_off channel=8 note=48 velocity=0 time=5
note_off channel=10 note=48 velocity=0 time=0
note_off channel=3 note=77 velocity=0 time=7
note_off channel=8 note=55 velocity=0 time=4
note_off channel=10 note=55 velocity=0 time=0
pitchwheel channel=3 pitch=0 time=1
note_on channel=3 note=77 velocity=97 time=0
note_off channel=9 note=43 velocity=0 time=62
note_off channel=9 note=40 velocity=0 time=22
note_off channel=3 note=77 velocity=0 time=2
note_off channel=9 note=35 velocity=0 time=11
note_on channel=3 note=75 velocity=97 time=23
note_off channel=1 note=36 velocity=0 time=63
note_on channel=1 note=48 velocity=78 time=6
note_on channel=8 note=48 velocity=110 time=0
note_on channel=9 note=40 velocity=49 time=0
note_on channel=9 note=43 velocity=49 time=0
note_on channel=10 note=48 velocity=70 time=0
note_on channel=8 note=55 velocity=87 time=11
note_on channel=10 note=55 velocity=47 time=0
note_off channel=3 note=75 velocity=0 time=6
note_on channel=3 note=72 velocity=120 time=0
note_off channel=8 note=48 velocity=0 time=14
note_off channel=10 note=48 velocity=0 time=0
note_off channel=8 note=55 velocity=0 time=9
note_off channel=10 note=55 velocity=0 time=0
note_off channel=9 note=43 velocity=0 time=29
note_off channel=9 note=40 velocity=0 time=30
note_off channel=1 note=48 velocity=0 time=121
note_on channel=1 note=36 velocity=61 time=6
note_on channel=8 note=48 velocity=115 time=0
note_on channel=9 note=35 velocity=95 time=0
note_on channel=9 note=40 velocity=98 time=0
note_on channel=9 note=43 velocity=106 time=0
note_on channel=10 note=48 velocity=75 time=0
note_on channel=8 note=55 velocity=95 time=11
note_on channel=10 note=55 velocity=55 time=0
note_off channel=8 note=48 velocity=0 time=34
note_off channel=10 note=48 velocity=0 time=0
note_off channel=8 note=55 velocity=0 time=5
note_off channel=10 note=55 velocity=0 time=0
note_off channel=9 note=35 velocity=0 time=98
note_off channel=9 note=43 velocity=0 time=7
note_off channel=9 note=40 velocity=0 time=17
note_off channel=1 note=36 velocity=0 time=62
note_on channel=1 note=48 velocity=78 time=6
note_on channel=8 note=48 velocity=115 time=0
note_on channel=9 note=40 velocity=49 time=0
note_on channel=9 note=43 velocity=49 time=0
note_on channel=10 note=48 velocity=75 time=0
note_on channel=8 note=55 velocity=87 time=11
note_on channel=10 note=55 velocity=47 time=0
note_off channel=8 note=48 velocity=0 time=35
note_off channel=10 note=48 velocity=0 time=0
note_off channel=3 note=72 velocity=0 time=3
note_off channel=8 note=55 velocity=0 time=0
note_off channel=10 note=55 velocity=0 time=0
note_off channel=9 note=43 velocity=0 time=34
note_off channel=9 note=40 velocity=0 time=30
pitchwheel channel=3 pitch=-896 time=73
pitchwheel channel=3 pitch=-2176 time=10
pitchwheel channel=3 pitch=-3712 time=10
pitchwheel channel=3 pitch=-5248 time=10
pitchwheel channel=3 pitch=-6656 time=13
note_off channel=1 note=48 velocity=0 time=5
note_on channel=1 note=36 velocity=61 time=6
note_on channel=8 note=48 velocity=102 time=0
note_on channel=9 note=35 velocity=95 time=0
note_on channel=9 note=40 velocity=98 time=0
note_on channel=9 note=43 velocity=106 time=0
note_on channel=10 note=48 velocity=62 time=0
pitchwheel channel=3 pitch=-7552 time=1
note_on channel=3 note=79 velocity=120 time=0
note_on channel=8 note=55 velocity=80 time=4
note_on channel=10 note=55 velocity=40 time=0
pitchwheel channel=3 pitch=-8064 time=0
pitchwheel channel=3 pitch=-7808 time=30
note_off channel=8 note=55 velocity=0 time=3
note_off channel=10 note=55 velocity=0 time=0
note_off channel=8 note=48 velocity=0 time=1
note_off channel=10 note=48 velocity=0 time=0
pitchwheel channel=3 pitch=-6912 time=6
pitchwheel channel=3 pitch=-5504 time=11
pitchwheel channel=3 pitch=-4096 time=10
pitchwheel channel=3 pitch=-2560 time=10
pitchwheel channel=3 pitch=-896 time=13
pitchwheel channel=3 pitch=0 time=10
note_off channel=9 note=43 velocity=0 time=10
note_off channel=9 note=40 velocity=0 time=15
note_off channel=9 note=35 velocity=0 time=18
note_off channel=3 note=79 velocity=0 time=22
pitchwheel channel=3 pitch=-128 time=13
pitchwheel channel=3 pitch=-2176 time=10
pitchwheel channel=3 pitch=-4608 time=10
pitchwheel channel=3 pitch=-6912 time=10
pitchwheel channel=3 pitch=-8192 time=10
note_off channel=1 note=36 velocity=0 time=11
note_on channel=1 note=48 velocity=78 time=6
note_on channel=7 note=57 velocity=110 time=0
note_on channel=7 note=60 velocity=120 time=0
note_on channel=7 note=65 velocity=115 time=0
note_on channel=8 note=43 velocity=110 time=0
note_on channel=9 note=40 velocity=49 time=0
note_on channel=9 note=43 velocity=49 time=0
note_on channel=10 note=43 velocity=70 time=0
note_on channel=3 note=79 velocity=102 time=0
note_on channel=8 note=50 velocity=91 time=5
note_on channel=10 note=50 velocity=51 time=0
note_off channel=8 note=43 velocity=0 time=36
note_off channel=10 note=43 velocity=0 time=0
pitchwheel channel=3 pitch=-7040 time=3
note_off channel=8 note=50 velocity=0 time=5
note_off channel=10 note=50 velocity=0 time=0
pitchwheel channel=3 pitch=-5120 time=5
pitchwheel channel=3 pitch=-2688 time=10
pitchwheel channel=3 pitch=0 time=10
note_off channel=9 note=43 velocity=0 time=3
note_off channel=9 note=40 velocity=0 time=30
note_off channel=3 note=79 velocity=0 time=65
note_on channel=3 note=77 velocity=106 time=0
note_off channel=1 note=48 velocity=0 time=3
note_on channel=1 note=36 velocity=61 time=6
note_on channel=8 note=43 velocity=110 time=0
note_on channel=9 note=35 velocity=95 time=0
note_on channel=9 note=40 velocity=95 time=0
note_on channel=9 note=43 velocity=106 time=0
note_on channel=10 note=43 velocity=70 time=0
note_on channel=8 note=50 velocity=91 time=11
note_on channel=10 note=50 velocity=51 time=0
note_off channel=7 note=65 velocity=0 time=31
note_off channel=8 note=43 velocity=0 time=2
note_off channel=10 note=43 velocity=0 time=0
note_off channel=8 note=50 velocity=0 time=3
note_off channel=10 note=50 velocity=0 time=0
note_off channel=7 note=57 velocity=0 time=29
note_off channel=7 note=60 velocity=0 time=8
note_off channel=9 note=43 velocity=0 time=57
note_off channel=9 note=35 velocity=0 time=7
note_off channel=9 note=40 velocity=0 time=0
note_on channel=3 note=75 velocity=123 time=0
note_off channel=3 note=77 velocity=0 time=16
note_off channel=1 note=36 velocity=0 time=4
note_on channel=1 note=48 velocity=78 time=6
note_on channel=7 note=55 velocity=98 time=0
note_on channel=7 note=58 velocity=93 time=0
note_on channel=7 note=63 velocity=101 time=0
note_on channel=8 note=43 velocity=115 time=0
note_on channel=9 note=40 velocity=49 time=0
note_on channel=9 note=43 velocity=49 time=0
note_on channel=10 note=43 velocity=75 time=0
note_on channel=8 note=50 velocity=87 time=11
note_on channel=10 note=50 velocity=47 time=0
note_off channel=8 note=43 velocity=0 time=40
note_off channel=10 note=43 velocity=0 time=0
note_off channel=8 note=50 velocity=0 time=4
note_off channel=10 note=50 velocity=0 time=0
note_off channel=9 note=43 velocity=0 time=28
note_off channel=9 note=40 velocity=0 time=30
note_off channel=1 note=48 velocity=0 time=121
note_off channel=3 note=75 velocity=0 time=0
note_on channel=1 note=36 velocity=61 time=0
note_on channel=3 note=72 velocity=125 time=0
note_on channel=8 note=43 velocity=102 time=0
note_on channel=9 note=35 velocity=95 time=0
note_on channel=9 note=40 velocity=98 time=0
note_on channel=9 note=43 velocity=102 time=0
note_on channel=10 note=43 velocity=62 time=0
note_on channel=8 note=50 velocity=91 time=11
note_on channel=10 note=50 velocity=51 time=0
note_off channel=8 note=43 velocity=0 time=41
note_off channel=10 note=43 velocity=0 time=0
note_off channel=8 note=50 velocity=0 time=7
note_off channel=10 note=50 velocity=0 time=0
note_off channel=7 note=58 velocity=0 time=34
note_off channel=7 note=63 velocity=0 time=20
note_off channel=9 note=43 velocity=0 time=0
note_off channel=9 note=40 velocity=0 time=22
note_off channel=7 note=55 velocity=0 time=1
note_off channel=9 note=35 velocity=0 time=12
note_off channel=1 note=36 velocity=0 time=86
note_on channel=1 note=48 velocity=78 time=6
note_on channel=5 note=55 velocity=98 time=0
note_on channel=8 note=43 velocity=110 time=0
note_on channel=9 note=40 velocity=49 time=0
note_on channel=9 note=43 velocity=49 time=0
note_on channel=10 note=43 velocity=70 time=0
note_on channel=8 note=50 velocity=91 time=11
note_on channel=10 note=50 velocity=51 time=0
note_off channel=8 note=43 velocity=0 time=34
note_off channel=10 note=43 velocity=0 time=0
note_off channel=8 note=50 velocity=0 time=16
note_off channel=10 note=50 velocity=0 time=0
note_off channel=9 note=43 velocity=0 time=22
note_off channel=5 note=55 velocity=0 time=26
note_off channel=9 note=40 velocity=0 time=4
note_off channel=1 note=48 velocity=0 time=1
note_on channel=1 note=41 velocity=78 time=6
note_on channel=5 note=58 velocity=123 time=0
note_off channel=3 note=72 velocity=0 time=43
note_off channel=5 note=58 velocity=0 time=58
note_off channel=1 note=41 velocity=0 time=13
note_on channel=1 note=34 velocity=61 time=6
note_on channel=5 note=60 velocity=120 time=0
note_on channel=8 note=43 velocity=115 time=0
note_on channel=9 note=35 velocity=95 time=0
note_on channel=9 note=40 velocity=98 time=0
note_on channel=9 note=43 velocity=106 time=0
note_on channel=10 note=43 velocity=75 time=0
note_on channel=8 note=50 velocity=83 time=11
note_on channel=10 note=50 velocity=43 time=0
note_off channel=8 note=43 velocity=0 time=33
note_off channel=10 note=43 velocity=0 time=0
note_off channel=8 note=50 velocity=0 time=13
note_off channel=10 note=50 velocity=0 time=0
note_off channel=5 note=60 velocity=0 time=17
note_on channel=5 note=63 velocity=127 time=46
note_off channel=9 note=35 velocity=0 time=28
note_off channel=9 note=43 velocity=0 time=7
note_off channel=9 note=40 velocity=0 time=17
note_off channel=5 note=63 velocity=0 time=13
note_off channel=1 note=34 velocity=0 time=49
note_on channel=1 note=34 velocity=78 time=6
note_on channel=8 note=43 velocity=120 time=0
note_on channel=9 note=40 velocity=49 time=0
note_on channel=9 note=43 velocity=49 time=0
note_on channel=10 note=43 velocity=80 time=0
note_on channel=8 note=50 velocity=105 time=11
note_on channel=10 note=50 velocity=65 time=0
note_off channel=8 note=43 velocity=0 time=36
note_off channel=10 note=43 velocity=0 time=0
note_off channel=8 note=50 velocity=0 time=18
note_off channel=10 note=50 velocity=0 time=0
note_off channel=9 note=43 velocity=0 time=18
note_off channel=9 note=40 velocity=0 time=30
note_on channel=5 note=63 velocity=127 time=7
note_off channel=1 note=34 velocity=0 time=114
note_on channel=1 note=36 velocity=61 time=6
note_on channel=8 note=43 velocity=120 time=0
note_on channel=9 note=35 velocity=95 time=0
note_on channel=9 note=40 velocity=98 time=0
note_on channel=9 note=43 velocity=106 time=0
note_on channel=10 note=43 velocity=80 time=0
note_off channel=5 note=63 velocity=0 time=10
note_on channel=8 note=50 velocity=105 time=1
note_on channel=10 note=50 velocity=65 time=0
note_on channel=3 note=77 velocity=110 time=0
note_off channel=8 note=43 velocity=0 time=30
note_off channel=10 note=43 velocity=0 time=0
note_off channel=8 note=50 velocity=0 time=18
note_off channel=10 note=50 velocity=0 time=0
pitchwheel channel=3 pitch=650 time=46
note_off channel=9 note=43 velocity=0 time=4
pitchwheel channel=3 pitch=1040 time=7
note_off channel=9 note=40 velocity=0 time=8
pitchwheel channel=3 pitch=1430 time=8
note_off channel=9 note=35 velocity=0 time=10
pitchwheel channel=3 pitch=1820 time=3
pitchwheel channel=3 pitch=2340 time=10
pitchwheel channel=3 pitch=2730 time=15
pitchwheel channel=3 pitch=3120 time=15
pitchwheel channel=3 pitch=3380 time=12
pitchwheel channel=3 pitch=3510 time=15
pitchwheel channel=3 pitch=3770 time=10
note_off channel=1 note=36 velocity=0 time=6
note_on channel=1 note=48 velocity=78 time=6
note_on channel=5 note=60 velocity=127 time=0
note_on channel=8 note=46 velocity=110 time=0
note_on channel=9 note=40 velocity=49 time=0
note_on channel=9 note=43 velocity=49 time=0
note_on channel=10 note=46 velocity=70 time=0
pitchwheel channel=3 pitch=4160 time=3
note_on channel=8 note=53 velocity=91 time=8
note_on channel=10 note=53 velocity=51 time=0
pitchwheel channel=3 pitch=4550 time=2
pitchwheel channel=3 pitch=4940 time=11
pitchwheel channel=3 pitch=5720 time=13
note_off channel=8 note=46 velocity=0 time=10
note_off channel=10 note=46 velocity=0 time=0
pitchwheel channel=3 pitch=6370 time=2
note_off channel=8 note=53 velocity=0 time=6
note_off channel=10 note=53 velocity=0 time=0
pitchwheel channel=3 pitch=7020 time=7
pitchwheel channel=3 pitch=7410 time=10
note_off channel=9 note=43 velocity=0 time=11
pitchwheel channel=3 pitch=7930 time=1
note_off channel=9 note=40 velocity=0 time=29
pitchwheel channel=3 pitch=6240 time=1
pitchwheel channel=3 pitch=1690 time=12
note_off channel=3 note=77 velocity=0 time=9
pitchwheel channel=3 pitch=260 time=1
note_on channel=3 note=82 velocity=111 time=0
note_off channel=1 note=48 velocity=0 time=79
note_on channel=1 note=36 velocity=61 time=6
note_on channel=8 note=46 velocity=110 time=0
note_on channel=9 note=35 velocity=95 time=0
note_on channel=9 note=40 velocity=95 time=0
note_on channel=9 note=43 velocity=106 time=0
note_on channel=10 note=46 velocity=70 time=0
note_on channel=8 note=53 velocity=91 time=11
note_on channel=10 note=53 velocity=51 time=0
note_off channel=8 note=46 velocity=0 time=33
note_off channel=10 note=46 velocity=0 time=0
note_off channel=8 note=53 velocity=0 time=3
note_off channel=10 note=53 velocity=0 time=0
note_off channel=9 note=43 velocity=0 time=94
note_off channel=9 note=35 velocity=0 time=7
note_off channel=9 note=40 velocity=0 time=0
note_off channel=3 note=82 velocity=0 time=40
note_off channel=5 note=60 velocity=0 time=18
note_off channel=1 note=36 velocity=0 time=28
note_on channel=1 note=48 velocity=78 time=6
note_on channel=8 note=46 velocity=115 time=0
note_on channel=9 note=40 velocity=49 time=0
note_on channel=9 note=43 velocity=49 time=0
note_on channel=10 note=46 velocity=75 time=0
note_on channel=8 note=53 velocity=87 time=11
note_on channel=10 note=53 velocity=47 time=0
note_on channel=3 note=79 velocity=106 time=0
note_off channel=8 note=46 velocity=0 time=28
note_off channel=10 note=46 velocity=0 time=0
note_off channel=8 note=53 velocity=0 time=4
note_off channel=10 note=53 velocity=0 time=0
note_off channel=9 note=43 velocity=0 time=28
note_off channel=9 note=40 velocity=0 time=30
note_off channel=3 note=79 velocity=0 time=113
note_off channel=1 note=48 velocity=0 time=8
note_on channel=1 note=36 velocity=61 time=6
note_on channel=8 note=46 velocity=102 time=0
note_on channel=9 note=35 velocity=95 time=0
note_on channel=9 note=40 velocity=98 time=0
note_on channel=9 note=43 velocity=102 time=0
note_on channel=10 note=46 velocity=62 time=0
note_on channel=5 note=58 velocity=127 time=10
note_on channel=8 note=53 velocity=91 time=1
note_on channel=10 note=53 velocity=51 time=0
note_on channel=3 note=77 velocity=110 time=0
note_off channel=8 note=46 velocity=0 time=32
note_off channel=10 note=46 velocity=0 time=0
note_off channel=8 note=53 velocity=0 time=7
note_off channel=10 note=53 velocity=0 time=0
note_off channel=5 note=58 velocity=0 time=21
note_off channel=9 note=43 velocity=0 time=33
note_on channel=5 note=60 velocity=120 time=1
note_off channel=9 note=40 velocity=0 time=21
note_off channel=9 note=35 velocity=0 time=13
note_off channel=3 note=77 velocity=0 time=58
note_off channel=5 note=60 velocity=0 time=0
note_off channel=1 note=36 velocity=0 time=28
note_on channel=1 note=48 velocity=78 time=6
note_on channel=5 note=63 velocity=127 time=0
note_on channel=8 note=46 velocity=110 time=0
note_on channel=9 note=40 velocity=49 time=0
note_on channel=9 note=43 velocity=49 time=0
note_on channel=10 note=46 velocity=70 time=0
note_on channel=8 note=53 velocity=91 time=11
note_on channel=10 note=53 velocity=51 time=0
note_on channel=3 note=75 velocity=111 time=0
note_off channel=8 note=46 velocity=0 time=33
note_off channel=10 note=46 velocity=0 time=0
note_off channel=8 note=53 velocity=0 time=16
note_off channel=10 note=53 velocity=0 time=0
note_off channel=5 note=63 velocity=0 time=9
note_off channel=9 note=43 velocity=0 time=13
note_off channel=9 note=40 velocity=0 time=30
note_off channel=3 note=75 velocity=0 time=92
note_off channel=1 note=48 velocity=0 time=29
note_on channel=1 note=36 velocity=61 time=6
note_on channel=5 note=63 velocity=127 time=0
note_on channel=8 note=46 velocity=115 time=0
note_on channel=9 note=35 velocity=95 time=0
note_on channel=9 note=40 velocity=98 time=0
note_on channel=9 note=43 velocity=106 time=0
note_on channel=10 note=46 velocity=75 time=0
note_on channel=3 note=72 velocity=110 time=0
note_on channel=8 note=53 velocity=83 time=10
note_on channel=10 note=53 velocity=43 time=0
note_off channel=8 note=46 velocity=0 time=33
note_off channel=10 note=46 velocity=0 time=0
note_off channel=8 note=53 velocity=0 time=13
note_off channel=10 note=53 velocity=0 time=0
note_off channel=3 note=72 velocity=0 time=67
note_off channel=9 note=35 velocity=0 time=24
note_off channel=9 note=43 velocity=0 time=7
note_off channel=9 note=40 velocity=0 time=17
note_off channel=5 note=63 velocity=0 time=6
note_off channel=1 note=36 velocity=0 time=56
note_on channel=1 note=48 velocity=78 time=6
note_on channel=5 note=63 velocity=116 time=0
note_on channel=8 note=46 velocity=120 time=0
note_on channel=9 note=40 velocity=49 time=0
note_on channel=9 note=43 velocity=49 time=0
note_on channel=10 note=46 velocity=80 time=0
note_on channel=8 note=53 velocity=105 time=11
note_on channel=10 note=53 velocity=65 time=0
note_on channel=3 note=72 velocity=125 time=0
note_off channel=8 note=46 velocity=0 time=32
note_off channel=10 note=46 velocity=0 time=0
note_off channel=8 note=53 velocity=0 time=18
note_off channel=10 note=53 velocity=0 time=0
note_off channel=9 note=43 velocity=0 time=18
note_off channel=5 note=63 velocity=0 time=19
note_off channel=9 note=40 velocity=0 time=11
note_off channel=3 note=72 velocity=0 time=54
note_off channel=1 note=48 velocity=0 time=67
note_on channel=1 note=36 velocity=61 time=0
note_on channel=3 note=75 velocity=123 time=0
note_on channel=5 note=65 velocity=115 time=0
note_on channel=8 note=46 velocity=120 time=0
note_on channel=9 note=35 velocity=95 time=0
note_on channel=9 note=40 velocity=98 time=0
note_on channel=9 note=43 velocity=106 time=0
note_on channel=10 note=46 velocity=80 time=0
note_on channel=8 note=53 velocity=105 time=11
note_on channel=10 note=53 velocity=65 time=0
note_off channel=8 note=46 velocity=0 time=36
note_off channel=10 note=46 velocity=0 time=0
note_off channel=8 note=53 velocity=0 time=18
note_off channel=10 note=53 velocity=0 time=0
note_off channel=9 note=43 velocity=0 time=50
note_off channel=9 note=40 velocity=0 time=15
note_off channel=9 note=35 velocity=0 time=18
note_off channel=5 note=65 velocity=0 time=21
note_off channel=3 note=75 velocity=0 time=41
note_off channel=1 note=36 velocity=0 time=24
note_on channel=1 note=48 velocity=78 time=0
note_on channel=3 note=75 velocity=101 time=0
note_on channel=5 note=65 velocity=115 time=0
note_on channel=8 note=43 velocity=110 time=0
note_on channel=9 note=40 velocity=49 time=0
note_on channel=9 note=43 velocity=49 time=0
note_on channel=10 note=43 velocity=70 time=0
note_on channel=8 note=50 velocity=91 time=11
note_on channel=10 note=50 velocity=51 time=0
note_off channel=8 note=43 velocity=0 time=36
note_off channel=10 note=43 velocity=0 time=0
note_off channel=8 note=50 velocity=0 time=8
note_off channel=10 note=50 velocity=0 time=0
note_off channel=9 note=43 velocity=0 time=28
note_off channel=5 note=65 velocity=0 time=8
note_off channel=9 note=40 velocity=0 time=22
note_on channel=5 note=67 velocity=120 time=7
note_off channel=5 note=67 velocity=0 time=79
note_off channel=3 note=75 velocity=0 time=11
note_off channel=1 note=48 velocity=0 time=24
note_on channel=1 note=36 velocity=61 time=0
note_on channel=3 note=77 velocity=106 time=0
note_on channel=8 note=43 velocity=110 time=0
note_on channel=9 note=35 velocity=95 time=0
note_on channel=9 note=40 velocity=95 time=0
note_on channel=9 note=43 velocity=106 time=0
note_on channel=10 note=43 velocity=70 time=0
note_on channel=8 note=50 velocity=91 time=11
note_on channel=10 note=50 velocity=51 time=0
note_off channel=8 note=43 velocity=0 time=33
note_off channel=10 note=43 velocity=0 time=0
note_off channel=8 note=50 velocity=0 time=3
note_off channel=10 note=50 velocity=0 time=0
note_on channel=5 note=67 velocity=115 time=73
note_off channel=9 note=43 velocity=0 time=21
note_off channel=9 note=35 velocity=0 time=7
note_off channel=9 note=40 velocity=0 time=0
note_off channel=5 note=67 velocity=0 time=58
note_off channel=3 note=77 velocity=0 time=4
note_off channel=1 note=36 velocity=0 time=24
note_on channel=1 note=48 velocity=78 time=0
note_on channel=3 note=79 velocity=115 time=0
note_on channel=5 note=70 velocity=127 time=0
note_on channel=8 note=43 velocity=115 time=0
note_on channel=9 note=40 velocity=49 time=0
note_on channel=9 note=43 velocity=49 time=0
note_on channel=10 note=43 velocity=75 time=0
note_on channel=8 note=50 velocity=87 time=11
note_on channel=10 note=50 velocity=47 time=0
note_off channel=8 note=43 velocity=0 time=40
note_off channel=10 note=43 velocity=0 time=0
note_off channel=8 note=50 velocity=0 time=4
note_off channel=10 note=50 velocity=0 time=0
note_off channel=9 note=43 velocity=0 time=28
note_off channel=9 note=40 velocity=0 time=30
note_off channel=5 note=70 velocity=0 time=72
note_off channel=3 note=79 velocity=0 time=25
note_off channel=1 note=48 velocity=0 time=24
note_on channel=1 note=36 velocity=61 time=0
note_on channel=3 note=79 velocity=127 time=0
note_on channel=5 note=70 velocity=116 time=0
note_on channel=8 note=43 velocity=102 time=0
note_on channel=9 note=35 velocity=95 time=0
note_on channel=9 note=40 velocity=98 time=0
note_on channel=9 note=43 velocity=102 time=0
note_on channel=10 note=43 velocity=62 time=0
note_on channel=8 note=50 velocity=91 time=11
note_on channel=10 note=50 velocity=51 time=0
note_off channel=8 note=43 velocity=0 time=41
note_off channel=10 note=43 velocity=0 time=0
note_off channel=8 note=50 velocity=0 time=7
note_off channel=10 note=50 velocity=0 time=0
note_off channel=5 note=70 velocity=0 time=34
note_off channel=9 note=43 velocity=0 time=20
note_off channel=9 note=40 velocity=0 time=22
note_off channel=9 note=35 velocity=0 time=13
note_off channel=1 note=36 velocity=0 time=86
note_on channel=1 note=48 velocity=78 time=6
note_on channel=8 note=46 velocity=110 time=0
note_on channel=9 note=40 velocity=49 time=0
note_on channel=9 note=43 velocity=49 time=0
note_on channel=10 note=46 velocity=70 time=0
note_on channel=8 note=53 velocity=91 time=11
note_on channel=10 note=53 velocity=51 time=0
note_off channel=8 note=46 velocity=0 time=34
note_off channel=10 note=46 velocity=0 time=0
note_off channel=8 note=53 velocity=0 time=16
note_off channel=10 note=53 velocity=0 time=0
note_off channel=9 note=43 velocity=0 time=22
note_off channel=9 note=40 velocity=0 time=30
note_off channel=1 note=48 velocity=0 time=1
note_on channel=1 note=41 velocity=78 time=6
note_on channel=5 note=70 velocity=116 time=0
note_off channel=5 note=70 velocity=0 time=54
note_off channel=1 note=41 velocity=0 time=60
note_off channel=3 note=79 velocity=0 time=0
note_on channel=1 note=34 velocity=61 time=0
note_on channel=3 note=84 velocity=127 time=0
note_on channel=5 note=72 velocity=120 time=0
note_on channel=8 note=46 velocity=115 time=0
note_on channel=9 note=35 velocity=95 time=0
note_on channel=9 note=40 velocity=98 time=0
note_on channel=9 note=43 velocity=106 time=0
note_on channel=10 note=46 velocity=75 time=0
note_on channel=8 note=53 velocity=83 time=11
note_on channel=10 note=53 velocity=43 time=0
note_off channel=8 note=46 velocity=0 time=33
note_off channel=10 note=46 velocity=0 time=0
note_off channel=8 note=53 velocity=0 time=13
note_off channel=10 note=53 velocity=0 time=0
note_off channel=5 note=72 velocity=0 time=18
note_on channel=5 note=70 velocity=127 time=45
note_off channel=9 note=35 velocity=0 time=28
note_off channel=9 note=43 velocity=0 time=7
note_off channel=9 note=40 velocity=0 time=17
note_off channel=1 note=34 velocity=0 time=62
note_on channel=1 note=34 velocity=78 time=6
note_on channel=5 note=72 velocity=120 time=0
note_on channel=8 note=46 velocity=120 time=0
note_on channel=9 note=40 velocity=49 time=0
note_on channel=9 note=43 velocity=49 time=0
note_on channel=9 note=46 velocity=106 time=0
note_on channel=10 note=46 velocity=80 time=0
note_off channel=5 note=70 velocity=0 time=9
note_on channel=8 note=53 velocity=105 time=2
note_on channel=10 note=53 velocity=65 time=0
note_off channel=8 note=46 velocity=0 time=36
note_off channel=10 note=46 velocity=0 time=0
note_off channel=8 note=53 velocity=0 time=18
note_off channel=10 note=53 velocity=0 time=0
note_off channel=9 note=43 velocity=0 time=18
note_off channel=3 note=84 velocity=0 time=6
note_off channel=5 note=72 velocity=0 time=8
note_off channel=9 note=40 velocity=0 time=16
note_off channel=9 note=46 velocity=0 time=42
note_off channel=1 note=34 velocity=0 time=79
note_on channel=1 note=36 velocity=109 time=6
note_on channel=4 note=63 velocity=116 time=0
note_on channel=4 note=67 velocity=102 time=0
note_on channel=4 note=70 velocity=102 time=0
note_on channel=7 note=36 velocity=115 time=0
note_on channel=7 note=48 velocity=115 time=0
note_on channel=7 note=67 velocity=106 time=0
note_on channel=7 note=72 velocity=125 time=0
note_on channel=7 note=75 velocity=116 time=0
note_on channel=9 note=35 velocity=115 time=0
note_on channel=9 note=49 velocity=89 time=0
note_off channel=9 note=35 velocity=0 time=28
note_off channel=9 note=49 velocity=0 time=0
note_off channel=7 note=72 velocity=0 time=9
note_off channel=7 note=75 velocity=0 time=1
note_off channel=7 note=67 velocity=0 time=15
note_off channel=4 note=63 velocity=0 time=71
note_off channel=4 note=67 velocity=0 time=2
note_off channel=4 note=70 velocity=0 time=0
note_on channel=4 note=63 velocity=116 time=114
note_on channel=4 note=67 velocity=87 time=0
note_on channel=4 note=70 velocity=87 time=0
note_on channel=7 note=67 velocity=77 time=0
note_on channel=7 note=72 velocity=106 time=0
note_on channel=7 note=75 velocity=86 time=0
note_off channel=7 note=75 velocity=0 time=31
note_off channel=7 note=72 velocity=0 time=6
note_off channel=7 note=67 velocity=0 time=13
note_off channel=4 note=63 velocity=0 time=60
note_off channel=4 note=67 velocity=0 time=1
note_off channel=4 note=70 velocity=0 time=0
note_on channel=4 note=65 velocity=102 time=129
note_on channel=4 note=68 velocity=123 time=0
note_on channel=4 note=72 velocity=123 time=0
note_on channel=7 note=67 velocity=120 time=0
note_on channel=7 note=72 velocity=127 time=0
note_on channel=7 note=75 velocity=127 time=0
note_off channel=7 note=72 velocity=0 time=69
note_off channel=7 note=75 velocity=0 time=5
note_off channel=7 note=67 velocity=0 time=4
note_on channel=7 note=67 velocity=74 time=162
note_on channel=7 note=72 velocity=98 time=0
note_on channel=7 note=75 velocity=97 time=0
note_off channel=4 note=68 velocity=0 time=28
note_off channel=4 note=72 velocity=0 time=0
note_off channel=4 note=65 velocity=0 time=20
note_off channel=7 note=72 velocity=0 time=17
note_off channel=7 note=75 velocity=0 time=6
note_off channel=7 note=67 velocity=0 time=9
note_on channel=4 note=63 velocity=123 time=40
note_on channel=4 note=67 velocity=115 time=0
note_on channel=4 note=70 velocity=115 time=0
note_off channel=4 note=63 velocity=0 time=99
note_off channel=4 note=67 velocity=0 time=1
note_off channel=4 note=70 velocity=0 time=0
note_on channel=7 note=67 velocity=106 time=20
note_on channel=7 note=72 velocity=127 time=0
note_on channel=7 note=75 velocity=116 time=0
note_off channel=7 note=72 velocity=0 time=69
note_off channel=7 note=75 velocity=0 time=7
note_off channel=7 note=67 velocity=0 time=2
note_on channel=7 note=67 velocity=71 time=162
note_on channel=7 note=72 velocity=90 time=0
note_on channel=7 note=75 velocity=81 time=0
note_off channel=7 note=72 velocity=0 time=47
note_off channel=7 note=75 velocity=0 time=0
note_off channel=7 note=67 velocity=0 time=17
note_on channel=7 note=67 velocity=115 time=176
note_on channel=7 note=72 velocity=127 time=0
note_on channel=7 note=75 velocity=123 time=0
note_off channel=7 note=72 velocity=0 time=73
note_off channel=7 note=75 velocity=0 time=15
note_off channel=7 note=67 velocity=0 time=2
note_on channel=7 note=67 velocity=106 time=150
note_on channel=7 note=72 velocity=115 time=0
note_on channel=7 note=75 velocity=105 time=0
note_off channel=7 note=72 velocity=0 time=62
note_off channel=7 note=75 velocity=0 time=9
note_off channel=7 note=67 velocity=0 time=11
note_off channel=7 note=36 velocity=0 time=129
note_off channel=7 note=48 velocity=0 time=0
note_off channel=1 note=36 velocity=0 time=23
note_on channel=1 note=34 velocity=109 time=6
note_on channel=4 note=63 velocity=116 time=0
note_on channel=4 note=67 velocity=102 time=0
note_on channel=4 note=70 velocity=102 time=0
note_on channel=7 note=34 velocity=115 time=0
note_on channel=7 note=46 velocity=115 time=0
note_on channel=7 note=65 velocity=83 time=0
note_on channel=7 note=70 velocity=105 time=0
note_on channel=7 note=74 velocity=102 time=0
note_off channel=7 note=74 velocity=0 time=63
note_off channel=7 note=65 velocity=0 time=11
note_off channel=7 note=70 velocity=0 time=1
note_off channel=4 note=63 velocity=0 time=49
note_off channel=4 note=67 velocity=0 time=2
note_off channel=4 note=70 velocity=0 time=0
note_on channel=4 note=63 velocity=116 time=114
note_on channel=4 note=67 velocity=87 time=0
note_on channel=4 note=70 velocity=87 time=0
note_on channel=7 note=65 velocity=63 time=0
note_on channel=7 note=70 velocity=81 time=0
note_on channel=7 note=74 velocity=56 time=0
note_off channel=7 note=74 velocity=0 time=37
note_off channel=7 note=65 velocity=0 time=15
note_off channel=7 note=70 velocity=0 time=2
note_off channel=4 note=63 velocity=0 time=56
note_off channel=4 note=67 velocity=0 time=1
note_off channel=4 note=70 velocity=0 time=0
note_on channel=4 note=65 velocity=102 time=129
note_on channel=4 note=68 velocity=123 time=0
note_on channel=4 note=72 velocity=123 time=0
note_on channel=7 note=65 velocity=106 time=0
note_on channel=7 note=70 velocity=116 time=0
note_on channel=7 note=74 velocity=115 time=0
note_off channel=7 note=65 velocity=0 time=70
note_off channel=7 note=70 velocity=0 time=0
note_off channel=7 note=74 velocity=0 time=13
note_on channel=3 note=75 velocity=123 time=0
note_on channel=7 note=65 velocity=74 time=0
note_on channel=7 note=70 velocity=93 time=0
note_on channel=7 note=74 velocity=83 time=0
note_off channel=4 note=68 velocity=0 time=28
note_off channel=4 note=72 velocity=0 time=0
note_off channel=4 note=65 velocity=0 time=20
note_off channel=7 note=65 velocity=0 time=18
note_off channel=7 note=70 velocity=0 time=2
note_off channel=7 note=74 velocity=0 time=8
note_off channel=3 note=75 velocity=0 time=31
note_on channel=4 note=63 velocity=123 time=13
note_on channel=4 note=67 velocity=115 time=0
note_on channel=4 note=70 velocity=115 time=0
note_off channel=4 note=63 velocity=0 time=99
note_off channel=4 note=67 velocity=0 time=1
note_off channel=4 note=70 velocity=0 time=0
note_on channel=3 note=77 velocity=120 time=0
note_on channel=7 note=65 velocity=90 time=0
note_on channel=7 note=70 velocity=101 time=0
note_on channel=7 note=74 velocity=98 time=0
note_off channel=7 note=65 velocity=0 time=66
note_off channel=7 note=70 velocity=0 time=3
note_off channel=7 note=74 velocity=0 time=15
note_off channel=3 note=77 velocity=0 time=111
note_on channel=3 note=75 velocity=116 time=0
note_on channel=7 note=65 velocity=74 time=0
note_on channel=7 note=70 velocity=89 time=0
note_on channel=7 note=74 velocity=90 time=0
note_off channel=7 note=70 velocity=0 time=58
note_off channel=7 note=65 velocity=0 time=2
note_on channel=9 note=51 velocity=76 time=0
note_off channel=7 note=74 velocity=0 time=12
note_off channel=9 note=51 velocity=0 time=16
note_off channel=3 note=75 velocity=0 time=16
note_on channel=9 note=51 velocity=76 time=16
note_off channel=9 note=51 velocity=0 time=28
note_on channel=9 note=51 velocity=76 time=32
note_off channel=9 note=51 velocity=0 time=28
note_on channel=3 note=77 velocity=110 time=0
note_on channel=7 note=65 velocity=98 time=0
note_on channel=7 note=70 velocity=111 time=0
note_on channel=7 note=74 velocity=106 time=0
note_on channel=9 note=51 velocity=115 time=0
note_off channel=9 note=51 velocity=0 time=28
note_off channel=7 note=65 velocity=0 time=34
note_off channel=7 note=70 velocity=0 time=3
note_off channel=7 note=74 velocity=0 time=7
note_off channel=3 note=77 velocity=0 time=148
note_on channel=3 note=79 velocity=106 time=0
note_on channel=7 note=65 velocity=98 time=0
note_on channel=7 note=70 velocity=105 time=0
note_on channel=7 note=74 velocity=106 time=0
note_on channel=9 note=51 velocity=115 time=0
note_off channel=9 note=51 velocity=0 time=28
note_off channel=7 note=65 velocity=0 time=28
note_off channel=7 note=70 velocity=0 time=3
note_off channel=7 note=74 velocity=0 time=13
note_off channel=3 note=79 velocity=0 time=28
note_off channel=7 note=34 velocity=0 time=111
note_off channel=7 note=46 velocity=0 time=0
note_off channel=1 note=34 velocity=0 time=23
note_on channel=1 note=32 velocity=109 time=0
note_on channel=3 note=79 velocity=115 time=0
note_on channel=4 note=63 velocity=116 time=0
note_on channel=4 note=67 velocity=102 time=0
note_on channel=4 note=70 velocity=102 time=0
note_on channel=7 note=32 velocity=115 time=0
note_on channel=7 note=44 velocity=115 time=0
note_on channel=7 note=60 velocity=125 time=0
note_on channel=7 note=63 velocity=116 time=0
note_on channel=7 note=67 velocity=115 time=0
note_on channel=9 note=46 velocity=115 time=0
note_on channel=9 note=51 velocity=115 time=0
note_off channel=9 note=46 velocity=0 time=28
note_off channel=9 note=51 velocity=0 time=0
note_off channel=7 note=63 velocity=0 time=29
note_off channel=7 note=60 velocity=0 time=3
note_off channel=7 note=67 velocity=0 time=9
note_off channel=4 note=63 velocity=0 time=55
note_off channel=4 note=67 velocity=0 time=2
note_off channel=4 note=70 velocity=0 time=0
note_on channel=4 note=63 velocity=116 time=114
note_on channel=4 note=67 velocity=87 time=0
note_on channel=4 note=70 velocity=87 time=0
note_on channel=7 note=60 velocity=110 time=0
note_on channel=7 note=63 velocity=105 time=0
note_on channel=7 note=67 velocity=102 time=0
note_off channel=7 note=60 velocity=0 time=42
note_off channel=7 note=63 velocity=0 time=4
note_off channel=7 note=67 velocity=0 time=5
note_off channel=4 note=63 velocity=0 time=59
note_off channel=4 note=67 velocity=0 time=1
note_off channel=4 note=70 velocity=0 time=0
note_on channel=4 note=65 velocity=102 time=129
note_on channel=4 note=68 velocity=123 time=0
note_on channel=4 note=72 velocity=123 time=0
note_on channel=7 note=60 velocity=127 time=0
note_on channel=7 note=63 velocity=123 time=0
note_on channel=7 note=67 velocity=125 time=0
note_off channel=7 note=60 velocity=0 time=58
note_off channel=7 note=63 velocity=0 time=2
note_off channel=7 note=67 velocity=0 time=15
note_on channel=7 note=60 velocity=125 time=165
note_on channel=7 note=63 velocity=111 time=0
note_on channel=7 note=67 velocity=102 time=0
note_off channel=4 note=68 velocity=0 time=28
note_off channel=4 note=72 velocity=0 time=0
note_off channel=4 note=65 velocity=0 time=20
note_off channel=7 note=60 velocity=0 time=5
note_off channel=7 note=63 velocity=0 time=0
note_off channel=7 note=67 velocity=0 time=8
note_on channel=4 note=63 velocity=123 time=59
note_on channel=4 note=67 velocity=115 time=0
note_on channel=4 note=70 velocity=115 time=0
note_off channel=4 note=63 velocity=0 time=99
note_off channel=4 note=67 velocity=0 time=1
note_off channel=4 note=70 velocity=0 time=0
note_on channel=7 note=60 velocity=120 time=20
note_on channel=7 note=63 velocity=116 time=0
note_on channel=7 note=67 velocity=110 time=0
note_off channel=7 note=60 velocity=0 time=54
note_off channel=7 note=63 velocity=0 time=7
note_off channel=7 note=67 velocity=0 time=8
note_on channel=7 note=60 velocity=115 time=171
note_on channel=7 note=63 velocity=111 time=0
note_on channel=7 note=67 velocity=106 time=0
note_off channel=7 note=60 velocity=0 time=56
note_off channel=7 note=63 velocity=0 time=5
note_off channel=7 note=67 velocity=0 time=13
note_off channel=3 note=79 velocity=0 time=121
note_on channel=3 note=79 velocity=110 time=45
note_on channel=7 note=60 velocity=120 time=0
note_on channel=7 note=63 velocity=116 time=0
note_on channel=7 note=67 velocity=90 time=0
note_off channel=7 note=60 velocity=0 time=55
note_off channel=7 note=63 velocity=0 time=5
note_off channel=7 note=67 velocity=0 time=10
note_off channel=3 note=79 velocity=0 time=154
note_on channel=3 note=77 velocity=115 time=0
note_on channel=7 note=60 velocity=120 time=0
note_on channel=7 note=63 velocity=116 time=0
note_on channel=7 note=67 velocity=110 time=0
note_off channel=7 note=60 velocity=0 time=55
note_off channel=7 note=63 velocity=0 time=7
note_off channel=7 note=67 velocity=0 time=7
note_off channel=1 note=32 velocity=0 time=79
note_off channel=7 note=32 velocity=0 time=63
note_off channel=7 note=44 velocity=0 time=0
note_off channel=3 note=77 velocity=0 time=3
note_on channel=1 note=32 velocity=109 time=26
note_on channel=4 note=63 velocity=116 time=0
note_on channel=4 note=67 velocity=102 time=0
note_on channel=4 note=70 velocity=102 time=0
note_on channel=7 note=32 velocity=115 time=0
note_on channel=7 note=44 velocity=115 time=0
note_on channel=7 note=60 velocity=125 time=0
note_on channel=7 note=63 velocity=111 time=0
note_on channel=7 note=67 velocity=110 time=0
note_off channel=7 note=60 velocity=0 time=54
note_off channel=7 note=63 velocity=0 time=2
note_off channel=7 note=67 velocity=0 time=10
note_off channel=4 note=63 velocity=0 time=58
note_off channel=4 note=67 velocity=0 time=2
note_off channel=4 note=70 velocity=0 time=0
note_on channel=4 note=63 velocity=116 time=114
note_on channel=4 note=67 velocity=87 time=0
note_on channel=4 note=70 velocity=87 time=0
note_on channel=7 note=60 velocity=106 time=0
note_on channel=7 note=63 velocity=101 time=0
note_on channel=7 note=67 velocity=95 time=0
note_off channel=7 note=60 velocity=0 time=56
note_off channel=7 note=63 velocity=0 time=6
note_off channel=7 note=67 velocity=0 time=5
note_off channel=4 note=63 velocity=0 time=43
note_off channel=4 note=67 velocity=0 time=1
note_off channel=4 note=70 velocity=0 time=0
note_on channel=4 note=65 velocity=102 time=129
note_on channel=4 note=68 velocity=123 time=0
note_on channel=4 note=72 velocity=123 time=0
note_on channel=7 note=60 velocity=125 time=0
note_on channel=7 note=63 velocity=116 time=0
note_on channel=7 note=67 velocity=110 time=0
note_off channel=7 note=60 velocity=0 time=56
note_off channel=7 note=63 velocity=0 time=6
note_off channel=7 note=67 velocity=0 time=10
note_on channel=3 note=75 velocity=123 time=0
note_on channel=7 note=60 velocity=115 time=14
note_on channel=7 note=63 velocity=111 time=0
note_on channel=7 note=67 velocity=110 time=0
note_off channel=4 note=68 velocity=0 time=28
note_off channel=4 note=72 velocity=0 time=0
note_off channel=4 note=65 velocity=0 time=20
note_off channel=7 note=60 velocity=0 time=10
note_off channel=7 note=63 velocity=0 time=3
note_off channel=7 note=67 velocity=0 time=16
note_off channel=3 note=75 velocity=0 time=37
note_on channel=4 note=63 velocity=123 time=6
note_on channel=4 note=67 velocity=115 time=0
note_on channel=4 note=70 velocity=115 time=0
note_off channel=7 note=32 velocity=0 time=91
note_off channel=7 note=44 velocity=0 time=0
note_off channel=4 note=63 velocity=0 time=8
note_off channel=4 note=67 velocity=0 time=1
note_off channel=4 note=70 velocity=0 time=0
note_off channel=1 note=32 velocity=0 time=14
note_on channel=3 note=77 velocity=120 time=0
note_on channel=1 note=34 velocity=109 time=4
note_on channel=7 note=34 velocity=115 time=0
note_on channel=7 note=46 velocity=115 time=0
note_on channel=7 note=62 velocity=98 time=0
note_on channel=7 note=65 velocity=90 time=0
note_on channel=7 note=70 velocity=101 time=0
note_off channel=7 note=65 velocity=0 time=66
note_off channel=7 note=70 velocity=0 time=3
note_off channel=7 note=62 velocity=0 time=15
note_off channel=3 note=77 velocity=0 time=130
note_on channel=7 note=62 velocity=90 time=26
note_on channel=7 note=65 velocity=74 time=0
note_on channel=7 note=70 velocity=89 time=0
note_on channel=3 note=75 velocity=123 time=0
note_off channel=7 note=70 velocity=0 time=53
note_off channel=7 note=65 velocity=0 time=2
note_on channel=9 note=51 velocity=76 time=0
note_off channel=7 note=62 velocity=0 time=12
note_off channel=9 note=51 velocity=0 time=16
note_on channel=9 note=51 velocity=76 time=32
note_off channel=9 note=51 velocity=0 time=28
note_off channel=3 note=75 velocity=0 time=5
note_on channel=9 note=51 velocity=76 time=27
note_off channel=9 note=51 velocity=0 time=28
note_on channel=7 note=62 velocity=106 time=32
note_on channel=7 note=65 velocity=98 time=0
note_on channel=7 note=70 velocity=111 time=0
note_on channel=9 note=51 velocity=115 time=0
note_on channel=3 note=77 velocity=115 time=0
note_off channel=9 note=51 velocity=0 time=18
note_off channel=7 note=65 velocity=0 time=34
note_off channel=7 note=70 velocity=0 time=3
note_off channel=7 note=62 velocity=0 time=7
note_off channel=3 note=77 velocity=0 time=153
note_on channel=7 note=62 velocity=106 time=15
note_on channel=7 note=65 velocity=98 time=0
note_on channel=7 note=70 velocity=105 time=0
note_on channel=9 note=51 velocity=115 time=0
note_on channel=3 note=79 velocity=110 time=0
note_off channel=9 note=51 velocity=0 time=1
note_off channel=7 note=65 velocity=0 time=28
note_off channel=7 note=70 velocity=0 time=3
note_off channel=7 note=62 velocity=0 time=13
note_off channel=3 note=79 velocity=0 time=31
note_off channel=7 note=34 velocity=0 time=108
note_off channel=7 note=46 velocity=0 time=0
note_off channel=1 note=34 velocity=0 time=23
note_on channel=1 note=36 velocity=109 time=6
note_on channel=4 note=63 velocity=116 time=0
note_on channel=4 note=67 velocity=102 time=0
note_on channel=4 note=70 velocity=102 time=0
note_on channel=7 note=36 velocity=115 time=0
note_on channel=7 note=48 velocity=115 time=0
note_on channel=7 note=67 velocity=106 time=0
note_on channel=7 note=72 velocity=125 time=0
note_on channel=7 note=75 velocity=116 time=0
note_on channel=9 note=46 velocity=115 time=0
note_on channel=9 note=51 velocity=115 time=0
note_off channel=9 note=46 velocity=0 time=28
note_off channel=9 note=51 velocity=0 time=0
note_on channel=3 note=79 velocity=127 time=0
note_off channel=7 note=72 velocity=0 time=1
note_off channel=7 note=75 velocity=0 time=1
note_off channel=7 note=67 velocity=0 time=15
note_off channel=4 note=63 velocity=0 time=71
note_off channel=4 note=67 velocity=0 time=2
note_off channel=4 note=70 velocity=0 time=0
note_off channel=3 note=79 velocity=0 time=20
note_on channel=3 note=77 velocity=110 time=23
note_on channel=3 note=75 velocity=127 time=71
note_on channel=4 note=63 velocity=116 time=0
note_on channel=4 note=67 velocity=87 time=0
note_on channel=4 note=70 velocity=87 time=0
note_on channel=7 note=67 velocity=77 time=0
note_on channel=7 note=72 velocity=106 time=0
note_on channel=7 note=75 velocity=86 time=0
note_off channel=7 note=75 velocity=0 time=31
note_off channel=7 note=72 velocity=0 time=6
note_off channel=7 note=67 velocity=0 time=13
note_off channel=3 note=77 velocity=0 time=11
note_off channel=4 note=63 velocity=0 time=49
note_off channel=4 note=67 velocity=0 time=1
note_off channel=4 note=70 velocity=0 time=0
note_on channel=4 note=65 velocity=102 time=129
note_on channel=4 note=68 velocity=123 time=0
note_on channel=4 note=72 velocity=123 time=0
note_on channel=7 note=67 velocity=120 time=0
note_on channel=7 note=72 velocity=127 time=0
note_on channel=7 note=75 velocity=127 time=0
note_on channel=9 note=39 velocity=109 time=0
note_off channel=9 note=39 velocity=0 time=28
note_off channel=7 note=72 velocity=0 time=41
note_off channel=7 note=75 velocity=0 time=5
note_off channel=7 note=67 velocity=0 time=4
note_on channel=7 note=67 velocity=74 time=162
note_on channel=7 note=72 velocity=98 time=0
note_on channel=7 note=75 velocity=97 time=0
note_off channel=4 note=68 velocity=0 time=28
note_off channel=4 note=72 velocity=0 time=0
note_off channel=4 note=65 velocity=0 time=20
note_off channel=7 note=72 velocity=0 time=17
note_off channel=7 note=75 velocity=0 time=6
note_off channel=7 note=67 velocity=0 time=9
note_on channel=4 note=63 velocity=123 time=40
note_on channel=4 note=67 velocity=115 time=0
note_on channel=4 note=70 velocity=115 time=0
note_off channel=4 note=63 velocity=0 time=99
note_off channel=4 note=67 velocity=0 time=1
note_off channel=4 note=70 velocity=0 time=0
note_on channel=7 note=67 velocity=106 time=20
note_on channel=7 note=72 velocity=127 time=0
note_on channel=7 note=75 velocity=116 time=0
note_off channel=7 note=72 velocity=0 time=69
note_off channel=7 note=75 velocity=0 time=7
note_off channel=7 note=67 velocity=0 time=2
note_off channel=3 note=75 velocity=0 time=120
note_on channel=3 note=72 velocity=110 time=42
note_on channel=7 note=67 velocity=71 time=0
note_on channel=7 note=72 velocity=90 time=0
note_on channel=7 note=75 velocity=81 time=0
note_off channel=7 note=72 velocity=0 time=47
note_off channel=7 note=75 velocity=0 time=0
note_off channel=7 note=67 velocity=0 time=17
note_off channel=3 note=72 velocity=0 time=23
note_on channel=3 note=70 velocity=127 time=33
note_off channel=3 note=70 velocity=0 time=113
note_on channel=3 note=72 velocity=125 time=7
note_on channel=7 note=67 velocity=115 time=0
note_on channel=7 note=72 velocity=127 time=0
note_on channel=7 note=75 velocity=123 time=0
note_on channel=9 note=39 velocity=109 time=0
note_off channel=9 note=39 velocity=0 time=28
note_off channel=7 note=72 velocity=0 time=45
note_off channel=7 note=75 velocity=0 time=15
note_off channel=7 note=67 velocity=0 time=2
note_off channel=3 note=72 velocity=0 time=108
note_on channel=3 note=75 velocity=116 time=0
note_on channel=7 note=67 velocity=106 time=0
note_on channel=7 note=72 velocity=115 time=0
note_on channel=7 note=75 velocity=105 time=0
note_off channel=7 note=72 velocity=0 time=62
note_off channel=7 note=75 velocity=0 time=9
note_off channel=7 note=67 velocity=0 time=11
note_off channel=7 note=36 velocity=0 time=129
note_off channel=7 note=48 velocity=0 time=0
note_off channel=1 note=36 velocity=0 time=23
note_on channel=1 note=34 velocity=109 time=6
note_on channel=4 note=63 velocity=116 time=0
note_on channel=4 note=67 velocity=102 time=0
note_on channel=4 note=70 velocity=102 time=0
note_on channel=7 note=34 velocity=115 time=0
note_on channel=7 note=46 velocity=115 time=0
note_on channel=7 note=65 velocity=83 time=0
note_on channel=7 note=70 velocity=105 time=0
note_on channel=7 note=74 velocity=102 time=0
note_off channel=7 note=74 velocity=0 time=63
note_off channel=7 note=65 velocity=0 time=11
note_off channel=7 note=70 velocity=0 time=1
note_off channel=4 note=63 velocity=0 time=49
note_off channel=4 note=67 velocity=0 time=2
note_off channel=4 note=70 velocity=0 time=0
note_on channel=4 note=63 velocity=116 time=114
note_on channel=4 note=67 velocity=87 time=0
note_on channel=4 note=70 velocity=87 time=0
note_on channel=7 note=65 velocity=63 time=0
note_on channel=7 note=70 velocity=81 time=0
note_on channel=7 note=74 velocity=56 time=0
note_off channel=7 note=74 velocity=0 time=37
note_off channel=7 note=65 velocity=0 time=15
note_off channel=7 note=70 velocity=0 time=2
note_off channel=4 note=63 velocity=0 time=56
note_off channel=4 note=67 velocity=0 time=1
note_off channel=4 note=70 velocity=0 time=0
note_on channel=4 note=65 velocity=102 time=129
note_on channel=4 note=68 velocity=123 time=0
note_on channel=4 note=72 velocity=123 time=0
note_on channel=7 note=65 velocity=106 time=0
note_on channel=7 note=70 velocity=116 time=0
note_on channel=7 note=74 velocity=115 time=0
note_on channel=9 note=39 velocity=109 time=0
note_off channel=9 note=39 velocity=0 time=28
note_off channel=7 note=65 velocity=0 time=42
note_off channel=7 note=70 velocity=0 time=0
note_off channel=7 note=74 velocity=0 time=13
note_on channel=7 note=65 velocity=74 time=157
note_on channel=7 note=70 velocity=93 time=0
note_on channel=7 note=74 velocity=83 time=0
note_off channel=3 note=75 velocity=0 time=28
note_off channel=4 note=68 velocity=0 time=0
note_off channel=4 note=72 velocity=0 time=0
note_off channel=4 note=65 velocity=0 time=20
note_off channel=7 note=65 velocity=0 time=18
note_off channel=7 note=70 velocity=0 time=2
note_off channel=7 note=74 velocity=0 time=8
note_on channel=4 note=63 velocity=123 time=44
note_on channel=4 note=67 velocity=115 time=0
note_on channel=4 note=70 velocity=115 time=0
note_off channel=4 note=63 velocity=0 time=99
note_off channel=4 note=67 velocity=0 time=1
note_off channel=4 note=70 velocity=0 time=0
note_on channel=7 note=65 velocity=90 time=20
note_on channel=7 note=70 velocity=101 time=0
note_on channel=7 note=74 velocity=98 time=0
note_off channel=7 note=65 velocity=0 time=66
note_off channel=7 note=70 velocity=0 time=3
note_off channel=7 note=74 velocity=0 time=15
note_on channel=7 note=65 velocity=74 time=156
note_on channel=7 note=70 velocity=89 time=0
note_on channel=7 note=74 velocity=90 time=0
note_off channel=7 note=70 velocity=0 time=58
note_off channel=7 note=65 velocity=0 time=2
note_off channel=7 note=74 velocity=0 time=12
note_on channel=7 note=65 velocity=98 time=168
note_on channel=7 note=70 velocity=111 time=0
note_on channel=7 note=74 velocity=106 time=0
note_on channel=9 note=39 velocity=109 time=0
note_off channel=9 note=39 velocity=0 time=28
note_off channel=7 note=65 velocity=0 time=34
note_off channel=7 note=70 velocity=0 time=3
note_off channel=7 note=74 velocity=0 time=7
note_on channel=7 note=65 velocity=98 time=168
note_on channel=7 note=70 velocity=105 time=0
note_on channel=7 note=74 velocity=106 time=0
note_on channel=3 note=75 velocity=123 time=0
note_off channel=7 note=65 velocity=0 time=41
note_off channel=7 note=70 velocity=0 time=3
note_off channel=3 note=75 velocity=0 time=5
note_off channel=7 note=74 velocity=0 time=8
note_on channel=3 note=75 velocity=116 time=0
note_off channel=1 note=34 velocity=0 time=21
note_off channel=7 note=34 velocity=0 time=63
note_off channel=7 note=46 velocity=0 time=0
note_on channel=1 note=32 velocity=127 time=29
note_on channel=4 note=63 velocity=116 time=0
note_on channel=4 note=67 velocity=102 time=0
note_on channel=4 note=70 velocity=102 time=0
note_on channel=7 note=32 velocity=115 time=0
note_on channel=7 note=44 velocity=115 time=0
note_on channel=7 note=60 velocity=125 time=0
note_on channel=7 note=63 velocity=116 time=0
note_on channel=7 note=67 velocity=115 time=0
note_on channel=9 note=40 velocity=95 time=0
note_on channel=9 note=43 velocity=98 time=0
note_off channel=7 note=63 velocity=0 time=57
note_off channel=7 note=60 velocity=0 time=3
note_off channel=9 note=43 velocity=0 time=1
note_off channel=7 note=67 velocity=0 time=8
note_off channel=9 note=40 velocity=0 time=2
note_off channel=3 note=75 velocity=0 time=40
note_off channel=4 note=63 velocity=0 time=13
note_off channel=4 note=67 velocity=0 time=2
note_off channel=4 note=70 velocity=0 time=0
note_on channel=3 note=74 velocity=110 time=27
note_off channel=1 note=32 velocity=0 time=48
note_on channel=3 note=72 velocity=110 time=0
note_off channel=3 note=74 velocity=0 time=5
note_on channel=1 note=32 velocity=127 time=10
note_on channel=4 note=63 velocity=116 time=0
note_on channel=4 note=67 velocity=87 time=0
note_on channel=4 note=70 velocity=87 time=0
note_on channel=7 note=60 velocity=110 time=0
note_on channel=7 note=63 velocity=105 time=0
note_on channel=7 note=67 velocity=102 time=0
note_on channel=9 note=40 velocity=87 time=0
note_on channel=9 note=43 velocity=95 time=0
note_off channel=7 note=60 velocity=0 time=42
note_off channel=7 note=63 velocity=0 time=4
note_off channel=7 note=67 velocity=0 time=5
note_off channel=9 note=43 velocity=0 time=16
note_off channel=9 note=40 velocity=0 time=6
note_off channel=4 note=63 velocity=0 time=37
note_off channel=4 note=67 velocity=0 time=1
note_off channel=4 note=70 velocity=0 time=0
note_off channel=3 note=72 velocity=0 time=69
note_off channel=1 note=32 velocity=0 time=21
note_on channel=1 note=32 velocity=127 time=39
note_on channel=4 note=65 velocity=102 time=0
note_on channel=4 note=68 velocity=123 time=0
note_on channel=4 note=72 velocity=123 time=0
note_on channel=7 note=60 velocity=127 time=0
note_on channel=7 note=63 velocity=123 time=0
note_on channel=7 note=67 velocity=125 time=0
note_on channel=9 note=40 velocity=102 time=0
note_on channel=9 note=43 velocity=102 time=0
note_off channel=7 note=60 velocity=0 time=58
note_off channel=7 note=63 velocity=0 time=2
note_off channel=9 note=43 velocity=0 time=6
note_off channel=9 note=40 velocity=0 time=6
note_off channel=7 note=67 velocity=0 time=3
note_on channel=3 note=75 velocity=127 time=0
note_off channel=1 note=32 velocity=0 time=2
note_on channel=1 note=32 velocity=127 time=39
note_on channel=7 note=60 velocity=125 time=0
note_on channel=7 note=63 velocity=111 time=0
note_on channel=7 note=67 velocity=102 time=0
note_on channel=9 note=40 velocity=98 time=0
note_on channel=9 note=43 velocity=90 time=0
note_off channel=3 note=75 velocity=0 time=4
note_off channel=4 note=68 velocity=0 time=24
note_off channel=4 note=72 velocity=0 time=0
note_off channel=4 note=65 velocity=0 time=20
note_off channel=7 note=60 velocity=0 time=5
note_off channel=7 note=63 velocity=0 time=0
note_off channel=7 note=67 velocity=0 time=8
note_off channel=9 note=43 velocity=0 time=1
note_off channel=9 note=40 velocity=0 time=6
note_on channel=3 note=75 velocity=127 time=0
note_on channel=4 note=63 velocity=123 time=19
note_on channel=4 note=67 velocity=115 time=0
note_on channel=4 note=70 velocity=115 time=0
note_off channel=1 note=32 velocity=0 time=81
note_off channel=4 note=63 velocity=0 time=18
note_off channel=4 note=67 velocity=0 time=1
note_off channel=4 note=70 velocity=0 time=0
note_on channel=1 note=32 velocity=127 time=20
note_on channel=7 note=60 velocity=120 time=0
note_on channel=7 note=63 velocity=116 time=0
note_on channel=7 note=67 velocity=110 time=0
note_on channel=9 note=40 velocity=98 time=0
note_on channel=9 note=43 velocity=98 time=0
note_off channel=7 note=60 velocity=0 time=54
note_off channel=9 note=43 velocity=0 time=2
note_off channel=7 note=63 velocity=0 time=5
note_off channel=9 note=40 velocity=0 time=3
note_off channel=7 note=67 velocity=0 time=5
note_off channel=3 note=75 velocity=0 time=36
note_on channel=3 note=74 velocity=106 time=43
note_off channel=1 note=32 velocity=0 time=53
note_off channel=3 note=74 velocity=0 time=13
note_on channel=3 note=72 velocity=120 time=0
note_on channel=1 note=32 velocity=127 time=18
note_on channel=7 note=60 velocity=115 time=0
note_on channel=7 note=63 velocity=111 time=0
note_on channel=7 note=67 velocity=106 time=0
note_on channel=9 note=40 velocity=98 time=0
note_on channel=9 note=43 velocity=98 time=0
note_off channel=7 note=60 velocity=0 time=56
note_off channel=7 note=63 velocity=0 time=5
note_off channel=7 note=67 velocity=0 time=13
note_off channel=9 note=43 velocity=0 time=3
note_off channel=9 note=40 velocity=0 time=2
note_off channel=3 note=72 velocity=0 time=79
note_off channel=1 note=32 velocity=0 time=43
note_on channel=1 note=32 velocity=127 time=39
note_on channel=7 note=60 velocity=120 time=0
note_on channel=7 note=63 velocity=116 time=0
note_on channel=7 note=67 velocity=90 time=0
note_on channel=9 note=40 velocity=98 time=0
note_on channel=9 note=43 velocity=110 time=0
note_off channel=7 note=60 velocity=0 time=55
note_off channel=7 note=63 velocity=0 time=5
note_off channel=7 note=67 velocity=0 time=10
note_off channel=9 note=43 velocity=0 time=5
note_off channel=9 note=40 velocity=0 time=1
note_off channel=1 note=32 velocity=0 time=125
note_on channel=3 note=75 velocity=127 time=0
note_on channel=1 note=32 velocity=127 time=20
note_on channel=7 note=60 velocity=120 time=0
note_on channel=7 note=63 velocity=116 time=0
note_on channel=7 note=67 velocity=110 time=0
note_on channel=9 note=40 velocity=102 time=0
note_on channel=9 note=43 velocity=102 time=0
note_off channel=3 note=75 velocity=0 time=34
note_off channel=7 note=60 velocity=0 time=21
note_off channel=9 note=43 velocity=0 time=4
note_off channel=7 note=63 velocity=0 time=3
note_off channel=7 note=67 velocity=0 time=7
note_off channel=9 note=40 velocity=0 time=4
note_on channel=3 note=75 velocity=123 time=0
note_off channel=1 note=32 velocity=0 time=86
note_off channel=7 note=32 velocity=0 time=10
note_off channel=7 note=44 velocity=0 time=0
note_on channel=1 note=32 velocity=127 time=29
note_on channel=4 note=63 velocity=116 time=0
note_on channel=4 note=67 velocity=102 time=0
note_on channel=4 note=70 velocity=102 time=0
note_on channel=7 note=32 velocity=115 time=0
note_on channel=7 note=44 velocity=115 time=0
note_on channel=7 note=60 velocity=125 time=0
note_on channel=7 note=63 velocity=111 time=0
note_on channel=7 note=67 velocity=110 time=0
note_on channel=9 note=40 velocity=106 time=0
note_on channel=9 note=43 velocity=106 time=0
note_on channel=6 note=44 velocity=123 time=11
note_on channel=6 note=51 velocity=101 time=0
note_off channel=6 note=44 velocity=0 time=17
note_off channel=7 note=60 velocity=0 time=26
note_off channel=6 note=51 velocity=0 time=1
note_off channel=7 note=63 velocity=0 time=1
note_off channel=9 note=43 velocity=0 time=6
note_off channel=7 note=67 velocity=0 time=4
note_off channel=9 note=40 velocity=0 time=8
note_off channel=3 note=75 velocity=0 time=31
note_off channel=4 note=63 velocity=0 time=19
note_off channel=4 note=67 velocity=0 time=2
note_off channel=4 note=70 velocity=0 time=0
note_on channel=3 note=74 velocity=106 time=9
note_off channel=1 note=32 velocity=0 time=66
note_off channel=3 note=74 velocity=0 time=19
note_on channel=3 note=72 velocity=120 time=0
note_on channel=1 note=32 velocity=127 time=16
note_on channel=4 note=63 velocity=116 time=0
note_on channel=4 note=67 velocity=87 time=0
note_on channel=4 note=70 velocity=87 time=0
note_on channel=7 note=60 velocity=106 time=0
note_on channel=7 note=63 velocity=101 time=0
note_on channel=7 note=67 velocity=95 time=0
note_on channel=9 note=40 velocity=110 time=0
note_on channel=9 note=43 velocity=102 time=0
note_on channel=6 note=44 velocity=127 time=11
note_on channel=6 note=51 velocity=116 time=0
note_off channel=6 note=44 velocity=0 time=45
note_off channel=7 note=60 velocity=0 time=0
note_off channel=7 note=63 velocity=0 time=6
note_off channel=9 note=43 velocity=0 time=2
note_off channel=7 note=67 velocity=0 time=3
note_off channel=6 note=51 velocity=0 time=8
note_off channel=9 note=40 velocity=0 time=5
note_off channel=4 note=63 velocity=0 time=30
note_off channel=4 note=67 velocity=0 time=1
note_off channel=4 note=70 velocity=0 time=0
note_off channel=3 note=72 velocity=0 time=52
note_off channel=1 note=32 velocity=0 time=38
note_on channel=1 note=32 velocity=127 time=39
note_on channel=4 note=65 velocity=102 time=0
note_on channel=4 note=68 velocity=123 time=0
note_on channel=4 note=72 velocity=123 time=0
note_on channel=7 note=60 velocity=125 time=0
note_on channel=7 note=63 velocity=116 time=0
note_on channel=7 note=67 velocity=110 time=0
note_on channel=9 note=40 velocity=106 time=0
note_on channel=9 note=43 velocity=115 time=0
note_on channel=6 note=44 velocity=127 time=11
note_on channel=6 note=51 velocity=123 time=0
note_off channel=7 note=60 velocity=0 time=45
note_off channel=7 note=63 velocity=0 time=6
note_off channel=9 note=43 velocity=0 time=2
note_off channel=6 note=44 velocity=0 time=2
note_off channel=7 note=67 velocity=0 time=6
note_off channel=9 note=40 velocity=0 time=2
note_off channel=6 note=51 velocity=0 time=6
note_off channel=1 note=32 velocity=0 time=121
note_on channel=1 note=32 velocity=127 time=39
note_on channel=7 note=60 velocity=115 time=0
note_on channel=7 note=63 velocity=111 time=0
note_on channel=7 note=67 velocity=110 time=0
note_on channel=9 note=40 velocity=110 time=0
note_on channel=9 note=43 velocity=120 time=0
note_on channel=3 note=79 velocity=120 time=0
note_on channel=6 note=44 velocity=127 time=2
note_on channel=6 note=51 velocity=123 time=0
note_off channel=4 note=68 velocity=0 time=17
note_off channel=4 note=72 velocity=0 time=0
note_off channel=4 note=65 velocity=0 time=20
note_off channel=9 note=43 velocity=0 time=9
note_off channel=7 note=60 velocity=0 time=1
note_off channel=7 note=63 velocity=0 time=3
note_off channel=9 note=40 velocity=0 time=3
note_off channel=6 note=44 velocity=0 time=1
note_off channel=3 note=79 velocity=0 time=7
note_off channel=7 note=67 velocity=0 time=5
note_on channel=4 note=63 velocity=123 time=43
note_on channel=4 note=67 velocity=115 time=0
note_on channel=4 note=70 velocity=115 time=0
note_off channel=6 note=51 velocity=0 time=4
note_off channel=1 note=32 velocity=0 time=77
note_off channel=7 note=32 velocity=0 time=10
note_off channel=7 note=44 velocity=0 time=0
note_off channel=4 note=63 velocity=0 time=8
note_off channel=4 note=67 velocity=0 time=1
note_off channel=4 note=70 velocity=0 time=0
note_on channel=3 note=82 velocity=127 time=0
note_on channel=1 note=34 velocity=127 time=3
note_on channel=7 note=34 velocity=115 time=0
note_on channel=7 note=46 velocity=115 time=0
note_on channel=7 note=62 velocity=98 time=0
note_on channel=7 note=65 velocity=90 time=0
note_on channel=7 note=70 velocity=101 time=0
note_on channel=9 note=40 velocity=110 time=0
note_on channel=9 note=43 velocity=102 time=0
note_on channel=6 note=46 velocity=105 time=11
note_on channel=6 note=53 velocity=106 time=0
note_off channel=9 note=43 velocity=0 time=40
note_off channel=6 note=46 velocity=0 time=13
note_off channel=7 note=65 velocity=0 time=2
note_off channel=7 note=70 velocity=0 time=3
note_off channel=9 note=40 velocity=0 time=0
note_off channel=6 note=53 velocity=0 time=13
note_off channel=7 note=62 velocity=0 time=2
note_off channel=1 note=34 velocity=0 time=117
note_off channel=3 note=82 velocity=0 time=28
note_on channel=1 note=34 velocity=127 time=11
note_on channel=7 note=62 velocity=90 time=0
note_on channel=7 note=65 velocity=74 time=0
note_on channel=7 note=70 velocity=89 time=0
note_on channel=9 note=40 velocity=115 time=0
note_on channel=6 note=46 velocity=123 time=11
note_on channel=6 note=53 velocity=77 time=0
note_on channel=3 note=79 velocity=115 time=0
note_off channel=9 note=40 velocity=0 time=20
note_off channel=7 note=70 velocity=0 time=19
note_off channel=7 note=65 velocity=0 time=2
note_off channel=7 note=62 velocity=0 time=12
note_off channel=6 note=46 velocity=0 time=26
note_off channel=3 note=79 velocity=0 time=3
note_off channel=6 note=53 velocity=0 time=7
note_on channel=9 note=40 velocity=125 time=12
note_off channel=9 note=40 velocity=0 time=50
note_off channel=1 note=34 velocity=0 time=31
note_on channel=1 note=34 velocity=127 time=39
note_on channel=7 note=62 velocity=106 time=0
note_on channel=7 note=65 velocity=98 time=0
note_on channel=7 note=70 velocity=111 time=0
note_on channel=9 note=40 velocity=125 time=0
note_on channel=3 note=82 velocity=127 time=0
note_on channel=6 note=46 velocity=127 time=6
note_on channel=6 note=53 velocity=95 time=0
note_off channel=9 note=40 velocity=0 time=32
note_off channel=7 note=65 velocity=0 time=19
note_off channel=7 note=70 velocity=0 time=3
note_off channel=7 note=62 velocity=0 time=7
note_off channel=6 note=46 velocity=0 time=42
note_on channel=9 note=40 velocity=115 time=6
note_off channel=6 note=53 velocity=0 time=1
note_off channel=9 note=40 velocity=0 time=18
note_off channel=1 note=34 velocity=0 time=62
note_off channel=3 note=82 velocity=0 time=31
note_on channel=3 note=79 velocity=120 time=0
note_on channel=1 note=34 velocity=127 time=5
note_on channel=7 note=62 velocity=106 time=0
note_on channel=7 note=65 velocity=98 time=0
note_on channel=7 note=70 velocity=105 time=0
note_on channel=9 note=45 velocity=106 time=0
note_on channel=6 note=46 velocity=127 time=11
note_on channel=6 note=53 velocity=106 time=0
note_off channel=9 note=45 velocity=0 time=24
note_off channel=7 note=65 velocity=0 time=21
note_off channel=7 note=70 velocity=0 time=3
note_off channel=7 note=62 velocity=0 time=13
note_off channel=6 note=46 velocity=0 time=11
note_off channel=6 note=53 velocity=0 time=5
note_off channel=3 note=79 velocity=0 time=13
note_on channel=9 note=43 velocity=127 time=19
note_off channel=9 note=43 velocity=0 time=61
note_off channel=1 note=34 velocity=0 time=20
note_off channel=7 note=34 velocity=0 time=10
note_off channel=7 note=46 velocity=0 time=0
note_on channel=1 note=36 velocity=113 time=29
note_on channel=4 note=63 velocity=116 time=0
note_on channel=4 note=67 velocity=102 time=0
note_on channel=4 note=70 velocity=102 time=0
note_on channel=7 note=36 velocity=115 time=0
note_on channel=7 note=48 velocity=115 time=0
note_on channel=7 note=67 velocity=106 time=0
note_on channel=7 note=72 velocity=125 time=0
note_on channel=7 note=75 velocity=116 time=0
note_on channel=8 note=48 velocity=125 time=0
note_on channel=8 note=55 velocity=115 time=0
note_on channel=8 note=60 velocity=120 time=0
note_on channel=9 note=35 velocity=116 time=0
note_on channel=9 note=49 velocity=98 time=0
note_on channel=9 note=51 velocity=116 time=0
note_on channel=9 note=53 velocity=95 time=0
note_on channel=10 note=48 velocity=113 time=8
note_on channel=6 note=48 velocity=127 time=3
note_on channel=6 note=55 velocity=125 time=0
note_off channel=9 note=35 velocity=0 time=17
note_off channel=9 note=49 velocity=0 time=0
note_on channel=3 note=84 velocity=125 time=0
note_off channel=7 note=72 velocity=0 time=8
note_off channel=7 note=75 velocity=0 time=1
note_off channel=6 note=55 velocity=0 time=13
note_off channel=7 note=67 velocity=0 time=2
note_off channel=6 note=48 velocity=0 time=8
note_off channel=8 note=60 velocity=0 time=32
note_off channel=8 note=55 velocity=0 time=2
note_off channel=4 note=63 velocity=0 time=29
note_off channel=4 note=67 velocity=0 time=2
note_off channel=4 note=70 velocity=0 time=0
note_off channel=8 note=48 velocity=0 time=56
note_off channel=1 note=36 velocity=0 time=37
note_off channel=10 note=48 velocity=0 time=8
note_on channel=1 note=36 velocity=113 time=13
note_on channel=4 note=63 velocity=116 time=0
note_on channel=4 note=67 velocity=87 time=0
note_on channel=4 note=70 velocity=87 time=0
note_on channel=7 note=67 velocity=77 time=0
note_on channel=7 note=72 velocity=106 time=0
note_on channel=7 note=75 velocity=86 time=0
note_on channel=8 note=55 velocity=90 time=0
note_on channel=8 note=60 velocity=102 time=0
note_on channel=9 note=35 velocity=116 time=0
note_off channel=9 note=51 velocity=0 time=1
note_off channel=9 note=53 velocity=0 time=0
note_on channel=10 note=48 velocity=113 time=7
note_on channel=6 note=48 velocity=125 time=3
note_on channel=6 note=55 velocity=125 time=0
note_off channel=9 note=35 velocity=0 time=17
note_off channel=7 note=75 velocity=0 time=3
note_off channel=7 note=72 velocity=0 time=6
note_off channel=6 note=55 velocity=0 time=7
note_off channel=7 note=67 velocity=0 time=6
note_off channel=6 note=48 velocity=0 time=10
note_off channel=8 note=60 velocity=0 time=2
note_off channel=8 note=55 velocity=0 time=7
note_off channel=4 note=63 velocity=0 time=41
note_off channel=4 note=67 velocity=0 time=1
note_off channel=4 note=70 velocity=0 time=0
note_off channel=1 note=36 velocity=0 time=108
note_off channel=10 note=48 velocity=0 time=8
note_on channel=1 note=36 velocity=118 time=13
note_on channel=4 note=65 velocity=102 time=0
note_on channel=4 note=68 velocity=123 time=0
note_on channel=4 note=72 velocity=123 time=0
note_on channel=7 note=67 velocity=120 time=0
note_on channel=7 note=72 velocity=127 time=0
note_on channel=7 note=75 velocity=127 time=0
note_on channel=8 note=48 velocity=127 time=0
note_on channel=8 note=55 velocity=125 time=0
note_on channel=8 note=60 velocity=127 time=0
note_on channel=9 note=39 velocity=85 time=0
note_on channel=9 note=40 velocity=116 time=0
note_on channel=9 note=51 velocity=127 time=0
note_on channel=9 note=53 velocity=110 time=0
note_on channel=9 note=54 velocity=116 time=0
note_on channel=10 note=48 velocity=118 time=8
note_on channel=6 note=48 velocity=127 time=3
note_on channel=6 note=55 velocity=127 time=0
note_off channel=9 note=39 velocity=0 time=17
note_off channel=9 note=40 velocity=0 time=0
note_off channel=9 note=54 velocity=0 time=0
note_off channel=6 note=55 velocity=0 time=34
note_off channel=7 note=72 velocity=0 time=7
note_off channel=7 note=75 velocity=0 time=5
note_off channel=7 note=67 velocity=0 time=4
note_off channel=6 note=48 velocity=0 time=14
note_off channel=8 note=55 velocity=0 time=49
note_off channel=8 note=60 velocity=0 time=21
note_off channel=8 note=48 velocity=0 time=13
note_off channel=1 note=36 velocity=0 time=44
note_off channel=10 note=48 velocity=0 time=8
note_on channel=1 note=36 velocity=113 time=13
note_on channel=7 note=67 velocity=74 time=0
note_on channel=7 note=72 velocity=98 time=0
note_on channel=7 note=75 velocity=97 time=0
note_on channel=8 note=55 velocity=102 time=0
note_on channel=8 note=60 velocity=115 time=0
note_on channel=10 note=48 velocity=113 time=8
note_on channel=6 note=48 velocity=125 time=3
note_on channel=6 note=55 velocity=120 time=0
note_off channel=9 note=51 velocity=0 time=5
note_off channel=9 note=53 velocity=0 time=8
note_off channel=4 note=68 velocity=0 time=4
note_off channel=4 note=72 velocity=0 time=0
note_off channel=4 note=65 velocity=0 time=20
note_off channel=6 note=55 velocity=0 time=5
note_off channel=7 note=72 velocity=0 time=12
note_off channel=7 note=75 velocity=0 time=6
note_off channel=6 note=48 velocity=0 time=8
note_off channel=7 note=67 velocity=0 time=1
note_off channel=8 note=60 velocity=0 time=12
note_off channel=8 note=55 velocity=0 time=3
note_on channel=4 note=63 velocity=123 time=4
note_on channel=4 note=67 velocity=115 time=0
note_on channel=4 note=70 velocity=115 time=0
note_off channel=1 note=36 velocity=0 time=13
note_off channel=4 note=63 velocity=0 time=0
note_off channel=4 note=67 velocity=0 time=1
note_off channel=4 note=70 velocity=0 time=0
note_off channel=10 note=48 velocity=0 time=7
note_on channel=1 note=36 velocity=113 time=3
note_on channel=7 note=67 velocity=106 time=0
note_on channel=7 note=72 velocity=127 time=0
note_on channel=7 note=75 velocity=116 time=0
note_on channel=8 note=55 velocity=115 time=0
note_on channel=8 note=60 velocity=127 time=0
note_on channel=9 note=35 velocity=116 time=0
note_on channel=9 note=51 velocity=116 time=0
note_on channel=9 note=53 velocity=90 time=0
note_on channel=10 note=48 velocity=113 time=8
note_on channel=6 note=48 velocity=127 time=3
note_on channel=6 note=55 velocity=120 time=0
note_off channel=9 note=35 velocity=0 time=1
note_off channel=6 note=55 velocity=0 time=26
note_off channel=7 note=72 velocity=0 time=1
note_off channel=7 note=75 velocity=0 time=4
note_off channel=7 note=67 velocity=0 time=2
note_off channel=6 note=48 velocity=0 time=7
note_off channel=8 note=60 velocity=0 time=7
note_off channel=8 note=55 velocity=0 time=4
note_off channel=1 note=36 velocity=0 time=12
note_off channel=10 note=48 velocity=0 time=8
note_off channel=9 note=51 velocity=0 time=2
note_on channel=1 note=36 velocity=118 time=1
note_on channel=7 note=67 velocity=71 time=0
note_on channel=7 note=72 velocity=90 time=0
note_on channel=7 note=75 velocity=81 time=0
note_on channel=8 note=55 velocity=83 time=0
note_on channel=8 note=60 velocity=102 time=0
note_on channel=9 note=35 velocity=116 time=0
note_off channel=9 note=53 velocity=0 time=6
note_on channel=10 note=48 velocity=118 time=2
note_on channel=6 note=48 velocity=120 time=3
note_on channel=6 note=55 velocity=115 time=0
note_off channel=9 note=35 velocity=0 time=1
note_off channel=7 note=72 velocity=0 time=19
note_off channel=7 note=75 velocity=0 time=0
note_off channel=6 note=55 velocity=0 time=1
note_off channel=6 note=48 velocity=0 time=9
note_off channel=8 note=60 velocity=0 time=0
note_off channel=7 note=67 velocity=0 time=7
note_off channel=8 note=55 velocity=0 time=9
note_off channel=1 note=36 velocity=0 time=3
note_off channel=10 note=48 velocity=0 time=8
note_on channel=1 note=36 velocity=113 time=9
note_on channel=7 note=67 velocity=115 time=0
note_on channel=7 note=72 velocity=127 time=0
note_on channel=7 note=75 velocity=123 time=0
note_on channel=8 note=48 velocity=127 time=0
note_on channel=8 note=55 velocity=125 time=0
note_on channel=8 note=60 velocity=127 time=0
note_on channel=9 note=39 velocity=85 time=0
note_on channel=9 note=40 velocity=116 time=0
note_on channel=9 note=51 velocity=127 time=0
note_on channel=9 note=53 velocity=106 time=0
note_on channel=9 note=54 velocity=116 time=0
note_on channel=10 note=48 velocity=113 time=2
note_on channel=6 note=48 velocity=127 time=3
note_on channel=6 note=55 velocity=125 time=0
note_off channel=9 note=39 velocity=0 time=7
note_off channel=9 note=40 velocity=0 time=0
note_off channel=9 note=54 velocity=0 time=0
note_off channel=6 note=55 velocity=0 time=3
note_off channel=7 note=72 velocity=0 time=1
note_off channel=7 note=75 velocity=0 time=12
note_off channel=6 note=48 velocity=0 time=1
note_off channel=7 note=67 velocity=0 time=1
note_off channel=8 note=60 velocity=0 time=20
note_off channel=8 note=55 velocity=0 time=4
note_off channel=3 note=84 velocity=0 time=30
note_off channel=1 note=36 velocity=0 time=14
note_off channel=10 note=48 velocity=0 time=8
note_off channel=9 note=51 velocity=0 time=7
note_off channel=9 note=53 velocity=0 time=6
note_on channel=1 note=36 velocity=118 time=0
note_on channel=7 note=67 velocity=106 time=0
note_on channel=7 note=72 velocity=115 time=0
note_on channel=7 note=75 velocity=105 time=0
note_on channel=8 note=55 velocity=98 time=0
note_on channel=8 note=60 velocity=115 time=0
note_on channel=10 note=48 velocity=118 time=8
note_on channel=6 note=48 velocity=125 time=3
note_on channel=6 note=55 velocity=125 time=0
note_on channel=3 note=82 velocity=123 time=0
note_off channel=7 note=72 velocity=0 time=47
note_off channel=6 note=55 velocity=0 time=7
note_off channel=7 note=75 velocity=0 time=2
note_off channel=8 note=60 velocity=0 time=7
note_off channel=7 note=67 velocity=0 time=4
note_off channel=8 note=55 velocity=0 time=16
note_off channel=6 note=48 velocity=0 time=11
note_off channel=7 note=36 velocity=0 time=102
note_off channel=7 note=48 velocity=0 time=0
note_off channel=8 note=48 velocity=0 time=1
note_off channel=1 note=36 velocity=0 time=7
note_off channel=10 note=48 velocity=0 time=8
note_on channel=1 note=34 velocity=113 time=13
note_on channel=4 note=63 velocity=116 time=0
note_on channel=4 note=67 velocity=102 time=0
note_on channel=4 note=70 velocity=102 time=0
note_on channel=7 note=34 velocity=115 time=0
note_on channel=7 note=46 velocity=115 time=0
note_on channel=7 note=65 velocity=83 time=0
note_on channel=7 note=70 velocity=105 time=0
note_on channel=7 note=74 velocity=102 time=0
note_on channel=8 note=53 velocity=90 time=0
note_on channel=8 note=58 velocity=123 time=0
note_on channel=9 note=35 velocity=116 time=0
note_on channel=9 note=51 velocity=116 time=0
note_on channel=9 note=53 velocity=95 time=0
note_on channel=10 note=46 velocity=113 time=8
note_on channel=6 note=46 velocity=127 time=3
note_on channel=6 note=53 velocity=115 time=0
note_off channel=9 note=35 velocity=0 time=17
note_off channel=7 note=74 velocity=0 time=35
note_off channel=6 note=53 velocity=0 time=11
note_off channel=7 note=65 velocity=0 time=0
note_off channel=7 note=70 velocity=0 time=1
note_off channel=6 note=46 velocity=0 time=6
note_off channel=8 note=53 velocity=0 time=26
note_off channel=8 note=58 velocity=0 time=6
note_off channel=4 note=63 velocity=0 time=11
note_off channel=4 note=67 velocity=0 time=2
note_off channel=4 note=70 velocity=0 time=0
note_off channel=1 note=34 velocity=0 time=93
note_off channel=10 note=46 velocity=0 time=8
note_off channel=3 note=82 velocity=0 time=13
note_on channel=1 note=34 velocity=113 time=0
note_on channel=4 note=63 velocity=116 time=0
note_on channel=4 note=67 velocity=87 time=0
note_on channel=4 note=70 velocity=87 time=0
note_on channel=7 note=65 velocity=63 time=0
note_on channel=7 note=70 velocity=81 time=0
note_on channel=7 note=74 velocity=56 time=0
note_on channel=8 note=53 velocity=67 time=0
note_on channel=8 note=58 velocity=86 time=0
note_on channel=9 note=35 velocity=116 time=0
note_off channel=9 note=51 velocity=0 time=5
note_on channel=10 note=46 velocity=113 time=3
note_on channel=6 note=46 velocity=123 time=3
note_on channel=6 note=53 velocity=120 time=0
note_off channel=9 note=53 velocity=0 time=4
note_off channel=9 note=35 velocity=0 time=13
note_off channel=7 note=74 velocity=0 time=9
note_off channel=7 note=65 velocity=0 time=15
note_off channel=8 note=58 velocity=0 time=1
note_off channel=7 note=70 velocity=0 time=1
note_off channel=6 note=53 velocity=0 time=16
note_off channel=8 note=53 velocity=0 time=2
note_off channel=6 note=46 velocity=0 time=1
note_off channel=4 note=63 velocity=0 time=37
note_off channel=4 note=67 velocity=0 time=1
note_off channel=4 note=70 velocity=0 time=0
note_off channel=1 note=34 velocity=0 time=108
note_off channel=10 note=46 velocity=0 time=8
note_on channel=1 note=34 velocity=118 time=13
note_on channel=4 note=65 velocity=102 time=0
note_on channel=4 note=68 velocity=123 time=0
note_on channel=4 note=72 velocity=123 time=0
note_on channel=7 note=65 velocity=106 time=0
note_on channel=7 note=70 velocity=116 time=0
note_on channel=7 note=74 velocity=115 time=0
note_on channel=8 note=46 velocity=127 time=0
note_on channel=8 note=53 velocity=110 time=0
note_on channel=8 note=58 velocity=127 time=0
note_on channel=9 note=39 velocity=85 time=0
note_on channel=9 note=40 velocity=116 time=0
note_on channel=9 note=51 velocity=127 time=0
note_on channel=9 note=53 velocity=106 time=0
note_on channel=9 note=54 velocity=116 time=0
note_on channel=10 note=46 velocity=118 time=8
note_on channel=6 note=46 velocity=127 time=3
note_on channel=6 note=53 velocity=125 time=0
note_off channel=9 note=39 velocity=0 time=17
note_off channel=9 note=40 velocity=0 time=0
note_off channel=9 note=54 velocity=0 time=0
note_off channel=7 note=65 velocity=0 time=42
note_off channel=7 note=70 velocity=0 time=0
note_off channel=7 note=74 velocity=0 time=13
note_off channel=6 note=53 velocity=0 time=6
note_off channel=6 note=46 velocity=0 time=28
note_off channel=8 note=53 velocity=0 time=13
note_off channel=8 note=58 velocity=0 time=1
note_off channel=1 note=34 velocity=0 time=88
note_off channel=10 note=46 velocity=0 time=8
note_off channel=9 note=51 velocity=0 time=7
note_off channel=9 note=53 velocity=0 time=5
note_on channel=1 note=34 velocity=113 time=1
note_on channel=7 note=65 velocity=74 time=0
note_on channel=7 note=70 velocity=93 time=0
note_on channel=7 note=74 velocity=83 time=0
note_on channel=8 note=53 velocity=80 time=0
note_on channel=8 note=58 velocity=116 time=0
note_on channel=10 note=46 velocity=113 time=8
note_on channel=6 note=46 velocity=111 time=3
note_on channel=6 note=53 velocity=106 time=0
note_on channel=3 note=79 velocity=125 time=0
note_off channel=4 note=68 velocity=0 time=5
note_off channel=4 note=72 velocity=0 time=0
note_off channel=4 note=65 velocity=0 time=20
note_off channel=7 note=65 velocity=0 time=18
note_off channel=7 note=70 velocity=0 time=2
note_off channel=6 note=53 velocity=0 time=8
note_off channel=7 note=74 velocity=0 time=0
note_off channel=6 note=46 velocity=0 time=4
note_off channel=3 note=79 velocity=0 time=6
note_off channel=8 note=53 velocity=0 time=3
note_off channel=8 note=58 velocity=0 time=8
note_on channel=4 note=63 velocity=123 time=23
note_on channel=4 note=67 velocity=115 time=0
note_on channel=4 note=70 velocity=115 time=0
note_off channel=1 note=34 velocity=0 time=99
note_off channel=4 note=63 velocity=0 time=0
note_off channel=4 note=67 velocity=0 time=1
note_off channel=4 note=70 velocity=0 time=0
note_off channel=10 note=46 velocity=0 time=7
note_on channel=1 note=34 velocity=113 time=13
note_on channel=7 note=65 velocity=90 time=0
note_on channel=7 note=70 velocity=101 time=0
note_on channel=7 note=74 velocity=98 time=0
note_on channel=8 note=53 velocity=90 time=0
note_on channel=8 note=58 velocity=123 time=0
note_on channel=9 note=35 velocity=116 time=0
note_on channel=9 note=51 velocity=123 time=0
note_on channel=9 note=53 velocity=90 time=0
note_on channel=10 note=46 velocity=113 time=8
note_on channel=6 note=46 velocity=127 time=3
note_on channel=6 note=53 velocity=120 time=0
note_on channel=3 note=82 velocity=127 time=16
note_off channel=9 note=35 velocity=0 time=1
note_off channel=7 note=65 velocity=0 time=38
note_off channel=7 note=70 velocity=0 time=3
note_off channel=7 note=74 velocity=0 time=15
note_off channel=6 note=53 velocity=0 time=3
note_off channel=6 note=46 velocity=0 time=6
note_off channel=8 note=53 velocity=0 time=4
note_off channel=8 note=58 velocity=0 time=12
note_off channel=9 note=51 velocity=0 time=106
note_off channel=1 note=34 velocity=0 time=4
note_off channel=9 note=53 velocity=0 time=1
note_off channel=10 note=46 velocity=0 time=7
note_off channel=3 note=82 velocity=0 time=7
note_on channel=1 note=34 velocity=118 time=6
note_on channel=7 note=65 velocity=74 time=0
note_on channel=7 note=70 velocity=89 time=0
note_on channel=7 note=74 velocity=90 time=0
note_on channel=8 note=53 velocity=63 time=0
note_on channel=8 note=58 velocity=97 time=0
note_on channel=9 note=35 velocity=116 time=0
note_off channel=8 note=46 velocity=0 time=1
note_on channel=10 note=46 velocity=118 time=7
note_on channel=6 note=46 velocity=116 time=3
note_on channel=6 note=53 velocity=110 time=0
note_off channel=9 note=35 velocity=0 time=17
note_on channel=3 note=79 velocity=106 time=0
note_off channel=8 note=58 velocity=0 time=13
note_off channel=8 note=53 velocity=0 time=6
note_off channel=7 note=70 velocity=0 time=7
note_off channel=7 note=65 velocity=0 time=2
note_off channel=7 note=74 velocity=0 time=12
note_off channel=6 note=53 velocity=0 time=4
note_off channel=6 note=46 velocity=0 time=4
note_off channel=3 note=79 velocity=0 time=20
note_off channel=1 note=34 velocity=0 time=119
note_off channel=10 note=46 velocity=0 time=8
note_on channel=1 note=34 velocity=113 time=13
note_on channel=7 note=65 velocity=98 time=0
note_on channel=7 note=70 velocity=111 time=0
note_on channel=7 note=74 velocity=106 time=0
note_on channel=8 note=46 velocity=123 time=0
note_on channel=8 note=53 velocity=102 time=0
note_on channel=8 note=58 velocity=127 time=0
note_on channel=9 note=39 velocity=85 time=0
note_on channel=9 note=40 velocity=116 time=0
note_on channel=9 note=51 velocity=127 time=0
note_on channel=9 note=53 velocity=106 time=0
note_on channel=9 note=54 velocity=116 time=0
note_on channel=10 note=46 velocity=113 time=8
note_on channel=6 note=46 velocity=127 time=3
note_on channel=6 note=53 velocity=120 time=0
note_on channel=3 note=82 velocity=127 time=0
note_off channel=9 note=39 velocity=0 time=6
note_off channel=9 note=40 velocity=0 time=0
note_off channel=9 note=54 velocity=0 time=0
note_off channel=7 note=65 velocity=0 time=34
note_off channel=7 note=70 velocity=0 time=3
note_off channel=7 note=74 velocity=0 time=7
note_off channel=6 note=53 velocity=0 time=11
note_off channel=6 note=46 velocity=0 time=7
note_off channel=8 note=53 velocity=0 time=13
note_off channel=8 note=58 velocity=0 time=14
note_off channel=3 note=82 velocity=0 time=98
note_off channel=1 note=34 velocity=0 time=4
note_off channel=10 note=46 velocity=0 time=8
note_off channel=9 note=51 velocity=0 time=7
note_on channel=1 note=34 velocity=118 time=6
note_on channel=7 note=65 velocity=98 time=0
note_on channel=7 note=70 velocity=105 time=0
note_on channel=7 note=74 velocity=106 time=0
note_on channel=8 note=53 velocity=98 time=0
note_on channel=8 note=58 velocity=111 time=0
note_off channel=9 note=53 velocity=0 time=6
note_on channel=10 note=46 velocity=118 time=2
note_on channel=6 note=46 velocity=123 time=3
note_on channel=6 note=53 velocity=115 time=0
note_on channel=3 note=79 velocity=106 time=0
note_off channel=7 note=65 velocity=0 time=43
note_off channel=7 note=70 velocity=0 time=3
note_off channel=8 note=58 velocity=0 time=4
note_off channel=7 note=74 velocity=0 time=9
note_off channel=6 note=46 velocity=0 time=10
note_off channel=6 note=53 velocity=0 time=9
note_off channel=8 note=53 velocity=0 time=2
note_off channel=3 note=79 velocity=0 time=21
note_off channel=7 note=34 velocity=0 time=97
note_off channel=7 note=46 velocity=0 time=0
note_off channel=1 note=34 velocity=0 time=8
note_off channel=10 note=46 velocity=0 time=8
note_off channel=8 note=46 velocity=0 time=6
note_on channel=1 note=32 velocity=113 time=7
note_on channel=4 note=63 velocity=116 time=0
note_on channel=4 note=67 velocity=102 time=0
note_on channel=4 note=70 velocity=102 time=0
note_on channel=7 note=32 velocity=115 time=0
note_on channel=7 note=44 velocity=115 time=0
note_on channel=7 note=60 velocity=125 time=0
note_on channel=7 note=63 velocity=116 time=0
note_on channel=7 note=67 velocity=115 time=0
note_on channel=8 note=51 velocity=127 time=0
note_on channel=8 note=56 velocity=123 time=0
note_on channel=9 note=35 velocity=116 time=0
note_on channel=9 note=51 velocity=116 time=0
note_on channel=9 note=53 velocity=90 time=0
note_on channel=10 note=44 velocity=113 time=8
note_on channel=6 note=44 velocity=116 time=3
note_on channel=6 note=51 velocity=127 time=0
note_on channel=3 note=84 velocity=125 time=0
note_off channel=9 note=35 velocity=0 time=7
note_off channel=7 note=63 velocity=0 time=29
note_off channel=7 note=60 velocity=0 time=3
note_off channel=7 note=67 velocity=0 time=9
note_off channel=6 note=51 velocity=0 time=3
note_off channel=6 note=44 velocity=0 time=42
note_off channel=4 note=63 velocity=0 time=10
note_off channel=8 note=51 velocity=0 time=1
note_off channel=4 note=67 velocity=0 time=1
note_off channel=4 note=70 velocity=0 time=0
note_off channel=8 note=56 velocity=0 time=27
note_off channel=1 note=32 velocity=0 time=66
note_off channel=10 note=44 velocity=0 time=8
note_off channel=9 note=51 velocity=0 time=1
note_off channel=9 note=53 velocity=0 time=6
note_on channel=1 note=32 velocity=113 time=6
note_on channel=4 note=63 velocity=116 time=0
note_on channel=4 note=67 velocity=87 time=0
note_on channel=4 note=70 velocity=87 time=0
note_on channel=7 note=60 velocity=110 time=0
note_on channel=7 note=63 velocity=105 time=0
note_on channel=7 note=67 velocity=102 time=0
note_on channel=8 note=51 velocity=101 time=0
note_on channel=8 note=56 velocity=86 time=0
note_on channel=9 note=35 velocity=116 time=0
note_on channel=10 note=44 velocity=113 time=8
note_on channel=6 note=44 velocity=116 time=3
note_on channel=6 note=51 velocity=116 time=0
note_off channel=9 note=35 velocity=0 time=17
note_off channel=7 note=60 velocity=0 time=14
note_off channel=7 note=63 velocity=0 time=4
note_off channel=8 note=56 velocity=0 time=0
note_off channel=7 note=67 velocity=0 time=5
note_off channel=6 note=51 velocity=0 time=5
note_off channel=8 note=51 velocity=0 time=0
note_off channel=6 note=44 velocity=0 time=23
note_off channel=4 note=63 velocity=0 time=31
note_off channel=4 note=67 velocity=0 time=1
note_off channel=4 note=70 velocity=0 time=0
note_off channel=1 note=32 velocity=0 time=108
note_off channel=10 note=44 velocity=0 time=8
note_on channel=1 note=32 velocity=118 time=13
note_on channel=4 note=65 velocity=102 time=0
note_on channel=4 note=68 velocity=123 time=0
note_on channel=4 note=72 velocity=123 time=0
note_on channel=7 note=60 velocity=127 time=0
note_on channel=7 note=63 velocity=123 time=0
note_on channel=7 note=67 velocity=125 time=0
note_on channel=8 note=44 velocity=123 time=0
note_on channel=8 note=51 velocity=127 time=0
note_on channel=8 note=54 velocity=123 time=0
note_on channel=8 note=56 velocity=127 time=0
note_on channel=9 note=39 velocity=85 time=0
note_on channel=9 note=40 velocity=116 time=0
note_on channel=9 note=51 velocity=123 time=0
note_on channel=9 note=53 velocity=106 time=0
note_on channel=9 note=54 velocity=116 time=0
note_on channel=10 note=44 velocity=118 time=8
note_on channel=6 note=44 velocity=127 time=3
note_on channel=6 note=51 velocity=127 time=0
note_off channel=8 note=54 velocity=0 time=4
note_off channel=9 note=39 velocity=0 time=13
note_off channel=9 note=40 velocity=0 time=0
note_off channel=9 note=54 velocity=0 time=0
note_off channel=7 note=60 velocity=0 time=30
note_off channel=7 note=63 velocity=0 time=2
note_off channel=6 note=51 velocity=0 time=13
note_off channel=7 note=67 velocity=0 time=2
note_off channel=8 note=51 velocity=0 time=12
note_off channel=6 note=44 velocity=0 time=20
note_off channel=8 note=56 velocity=0 time=5
note_off channel=1 note=32 velocity=0 time=107
note_off channel=10 note=44 velocity=0 time=8
note_off channel=9 note=51 velocity=0 time=11
note_off channel=9 note=53 velocity=0 time=0
note_on channel=1 note=32 velocity=113 time=2
note_on channel=7 note=60 velocity=125 time=0
note_on channel=7 note=63 velocity=111 time=0
note_on channel=7 note=67 velocity=102 time=0
note_on channel=8 note=51 velocity=111 time=0
note_on channel=8 note=56 velocity=101 time=0
note_on channel=10 note=44 velocity=113 time=8
note_on channel=6 note=44 velocity=116 time=3
note_on channel=6 note=51 velocity=116 time=0
note_off channel=4 note=68 velocity=0 time=17
note_off channel=4 note=72 velocity=0 time=0
note_off channel=4 note=65 velocity=0 time=20
note_off channel=7 note=60 velocity=0 time=5
note_off channel=7 note=63 velocity=0 time=0
note_off channel=7 note=67 velocity=0 time=8
note_off channel=6 note=51 velocity=0 time=6
note_off channel=8 note=51 velocity=0 time=8
note_off channel=8 note=56 velocity=0 time=2
note_off channel=6 note=44 velocity=0 time=16
note_on channel=4 note=63 velocity=123 time=27
note_on channel=4 note=67 velocity=115 time=0
note_on channel=4 note=70 velocity=115 time=0
note_off channel=1 note=32 velocity=0 time=99
note_off channel=4 note=63 velocity=0 time=0
note_off channel=4 note=67 velocity=0 time=1
note_off channel=4 note=70 velocity=0 time=0
note_off channel=10 note=44 velocity=0 time=7
note_on channel=1 note=32 velocity=113 time=13
note_on channel=7 note=60 velocity=120 time=0
note_on channel=7 note=63 velocity=116 time=0
note_on channel=7 note=67 velocity=110 time=0
note_on channel=8 note=51 velocity=123 time=0
note_on channel=8 note=54 velocity=86 time=0
note_on channel=8 note=56 velocity=116 time=0
note_on channel=9 note=35 velocity=116 time=0
note_on channel=9 note=51 velocity=116 time=0
note_on channel=9 note=53 velocity=87 time=0
note_off channel=8 note=54 velocity=0 time=6
note_on channel=10 note=44 velocity=113 time=2
note_on channel=6 note=44 velocity=123 time=3
note_on channel=6 note=51 velocity=127 time=0
note_off channel=9 note=35 velocity=0 time=17
note_off channel=7 note=60 velocity=0 time=26
note_off channel=7 note=63 velocity=0 time=7
note_off channel=7 note=67 velocity=0 time=8
note_off channel=8 note=51 velocity=0 time=4
note_off channel=6 note=51 velocity=0 time=3
note_off channel=8 note=56 velocity=0 time=12
note_off channel=6 note=44 velocity=0 time=13
note_off channel=1 note=32 velocity=0 time=118
note_off channel=9 note=53 velocity=0 time=5
note_off channel=9 note=51 velocity=0 time=1
note_off channel=10 note=44 velocity=0 time=2
note_on channel=1 note=32 velocity=118 time=13
note_on channel=7 note=60 velocity=115 time=0
note_on channel=7 note=63 velocity=111 time=0
note_on channel=7 note=67 velocity=106 time=0
note_on channel=8 note=51 velocity=101 time=0
note_on channel=8 note=56 velocity=75 time=0
note_on channel=9 note=35 velocity=116 time=0
note_on channel=10 note=44 velocity=118 time=8
note_on channel=6 note=44 velocity=123 time=3
note_on channel=6 note=51 velocity=123 time=0
note_off channel=9 note=35 velocity=0 time=17
note_off channel=8 note=56 velocity=0 time=6
note_off channel=8 note=51 velocity=0 time=5
note_off channel=7 note=60 velocity=0 time=17
note_off channel=7 note=63 velocity=0 time=5
note_off channel=6 note=51 velocity=0 time=6
note_off channel=7 note=67 velocity=0 time=7
note_off channel=6 note=44 velocity=0 time=9
note_off channel=1 note=32 velocity=0 time=136
note_off channel=10 note=44 velocity=0 time=8
note_on channel=1 note=32 velocity=113 time=13
note_on channel=7 note=60 velocity=120 time=0
note_on channel=7 note=63 velocity=116 time=0
note_on channel=7 note=67 velocity=90 time=0
note_on channel=8 note=51 velocity=127 time=0
note_on channel=8 note=56 velocity=127 time=0
note_on channel=9 note=39 velocity=85 time=0
note_on channel=9 note=40 velocity=116 time=0
note_on channel=9 note=51 velocity=127 time=0
note_on channel=9 note=53 velocity=102 time=0
note_on channel=9 note=54 velocity=116 time=0
pitchwheel channel=3 pitch=520 time=6
note_on channel=10 note=44 velocity=113 time=2
note_on channel=6 note=44 velocity=127 time=3
note_on channel=6 note=51 velocity=127 time=0
pitchwheel channel=3 pitch=4290 time=5
pitchwheel channel=3 pitch=8191 time=10
note_off channel=9 note=39 velocity=0 time=2
note_off channel=9 note=40 velocity=0 time=0
note_off channel=9 note=54 velocity=0 time=0
note_off channel=7 note=60 velocity=0 time=27
note_off channel=7 note=63 velocity=0 time=5
note_off channel=7 note=67 velocity=0 time=10
note_off channel=6 note=51 velocity=0 time=5
note_off channel=8 note=51 velocity=0 time=15
note_off channel=6 note=44 velocity=0 time=1
note_off channel=8 note=56 velocity=0 time=13
note_off channel=3 note=84 velocity=0 time=42
note_off channel=1 note=32 velocity=0 time=3
note_off channel=10 note=44 velocity=0 time=2
note_off channel=9 note=51 velocity=0 time=7
note_off channel=8 note=44 velocity=0 time=2
note_off channel=9 note=53 velocity=0 time=3
note_on channel=1 note=32 velocity=118 time=1
note_on channel=7 note=60 velocity=120 time=0
note_on channel=7 note=63 velocity=116 time=0
note_on channel=7 note=67 velocity=110 time=0
note_on channel=8 note=51 velocity=116 time=0
note_on channel=8 note=56 velocity=111 time=0
note_on channel=3 note=82 velocity=123 time=0
pitchwheel channel=3 pitch=0 time=2
note_on channel=10 note=44 velocity=118 time=5
note_on channel=6 note=44 velocity=123 time=3
note_on channel=6 note=51 velocity=123 time=0
pitchwheel channel=3 pitch=0 time=7
note_off channel=8 note=51 velocity=0 time=33
note_off channel=7 note=60 velocity=0 time=4
note_off channel=7 note=63 velocity=0 time=7
note_off channel=6 note=51 velocity=0 time=7
note_off channel=7 note=67 velocity=0 time=0
note_off channel=8 note=56 velocity=0 time=0
note_off channel=6 note=44 velocity=0 time=7
note_off channel=7 note=32 velocity=0 time=135
note_off channel=7 note=44 velocity=0 time=0
note_off channel=1 note=32 velocity=0 time=8
note_off channel=10 note=44 velocity=0 time=8
note_on channel=1 note=32 velocity=113 time=13
note_on channel=4 note=63 velocity=116 time=0
note_on channel=4 note=67 velocity=102 time=0
note_on channel=4 note=70 velocity=102 time=0
note_on channel=7 note=32 velocity=115 time=0
note_on channel=7 note=44 velocity=115 time=0
note_on channel=7 note=60 velocity=125 time=0
note_on channel=7 note=63 velocity=111 time=0
note_on channel=7 note=67 velocity=110 time=0
note_on channel=8 note=44 velocity=116 time=0
note_on channel=8 note=51 velocity=127 time=0
note_on channel=8 note=54 velocity=116 time=0
note_on channel=8 note=56 velocity=127 time=0
note_on channel=9 note=35 velocity=116 time=0
note_on channel=9 note=51 velocity=116 time=0
note_on channel=9 note=53 velocity=87 time=0
note_on channel=10 note=44 velocity=113 time=8
note_off channel=8 note=54 velocity=0 time=1
note_on channel=6 note=44 velocity=123 time=2
note_on channel=6 note=51 velocity=127 time=0
note_off channel=9 note=35 velocity=0 time=17
note_off channel=7 note=60 velocity=0 time=26
note_off channel=7 note=63 velocity=0 time=2
note_off channel=7 note=67 velocity=0 time=10
note_off channel=8 note=51 velocity=0 time=8
note_off channel=6 note=51 velocity=0 time=3
note_off channel=8 note=56 velocity=0 time=17
note_off channel=6 note=44 velocity=0 time=4
note_off channel=4 note=63 velocity=0 time=26
note_off channel=4 note=67 velocity=0 time=2
note_off channel=4 note=70 velocity=0 time=0
note_off channel=1 note=32 velocity=0 time=93
note_off channel=9 note=51 velocity=0 time=0
note_off channel=9 note=53 velocity=0 time=2
note_off channel=10 note=44 velocity=0 time=6
note_on channel=1 note=32 velocity=113 time=13
note_on channel=4 note=63 velocity=116 time=0
note_on channel=4 note=67 velocity=87 time=0
note_on channel=4 note=70 velocity=87 time=0
note_on channel=7 note=60 velocity=106 time=0
note_on channel=7 note=63 velocity=101 time=0
note_on channel=7 note=67 velocity=95 time=0
note_on channel=8 note=51 velocity=123 time=0
note_on channel=8 note=54 velocity=89 time=0
note_on channel=8 note=56 velocity=116 time=0
note_on channel=9 note=35 velocity=116 time=0
note_off channel=8 note=54 velocity=0 time=4
note_on channel=10 note=44 velocity=113 time=4
note_on channel=6 note=44 velocity=123 time=3
note_on channel=6 note=51 velocity=127 time=0
note_off channel=9 note=35 velocity=0 time=17
note_off channel=8 note=51 velocity=0 time=22
note_off channel=8 note=56 velocity=0 time=2
note_off channel=7 note=60 velocity=0 time=4
note_off channel=7 note=63 velocity=0 time=6
note_off channel=7 note=67 velocity=0 time=5
note_off channel=6 note=51 velocity=0 time=3
note_off channel=6 note=44 velocity=0 time=22
note_off channel=4 note=63 velocity=0 time=18
note_off channel=4 note=67 velocity=0 time=1
note_off channel=4 note=70 velocity=0 time=0
note_off channel=3 note=82 velocity=0 time=17
note_off channel=1 note=32 velocity=0 time=91
note_off channel=10 note=44 velocity=0 time=8
note_on channel=1 note=32 velocity=118 time=13
note_on channel=4 note=65 velocity=102 time=0
note_on channel=4 note=68 velocity=123 time=0
note_on channel=4 note=72 velocity=123 time=0
note_on channel=7 note=60 velocity=125 time=0
note_on channel=7 note=63 velocity=116 time=0
note_on channel=7 note=67 velocity=110 time=0
note_on channel=8 note=51 velocity=127 time=0
note_on channel=8 note=54 velocity=97 time=0
note_on channel=8 note=56 velocity=127 time=0
note_on channel=9 note=39 velocity=85 time=0
note_on channel=9 note=40 velocity=116 time=0
note_on channel=9 note=51 velocity=127 time=0
note_on channel=9 note=53 velocity=106 time=0
note_on channel=9 note=54 velocity=116 time=0
note_off channel=8 note=54 velocity=0 time=4
note_on channel=10 note=44 velocity=118 time=4
note_on channel=6 note=44 velocity=127 time=3
note_on channel=6 note=51 velocity=127 time=0
note_off channel=9 note=39 velocity=0 time=17
note_off channel=9 note=40 velocity=0 time=0
note_off channel=9 note=54 velocity=0 time=0
note_off channel=7 note=60 velocity=0 time=28
note_off channel=7 note=63 velocity=0 time=6
note_off channel=7 note=67 velocity=0 time=10
note_off channel=6 note=51 velocity=0 time=7
note_off channel=8 note=51 velocity=0 time=3
note_off channel=6 note=44 velocity=0 time=12
note_off channel=8 note=56 velocity=0 time=8
note_off channel=9 note=51 velocity=0 time=112
note_off channel=1 note=32 velocity=0 time=5
note_off channel=9 note=53 velocity=0 time=1
note_off channel=10 note=44 velocity=0 time=7
note_on channel=1 note=32 velocity=113 time=13
note_on channel=7 note=60 velocity=115 time=0
note_on channel=7 note=63 velocity=111 time=0
note_on channel=7 note=67 velocity=110 time=0
note_on channel=8 note=51 velocity=116 time=0
note_on channel=8 note=54 velocity=101 time=0
note_on channel=8 note=56 velocity=123 time=0
note_off channel=8 note=54 velocity=0 time=6
note_on channel=10 note=44 velocity=113 time=2
note_on channel=6 note=44 velocity=123 time=3
note_on channel=6 note=51 velocity=127 time=0
note_on channel=3 note=79 velocity=125 time=0
note_off channel=4 note=68 velocity=0 time=5
note_off channel=4 note=72 velocity=0 time=0
note_off channel=4 note=65 velocity=0 time=20
note_off channel=7 note=60 velocity=0 time=10
note_off channel=7 note=63 velocity=0 time=3
note_off channel=8 note=51 velocity=0 time=1
note_off channel=6 note=51 velocity=0 time=12
note_off channel=7 note=67 velocity=0 time=3
note_off channel=8 note=56 velocity=0 time=0
note_off channel=3 note=79 velocity=0 time=9
note_off channel=6 note=44 velocity=0 time=15
note_on channel=4 note=63 velocity=123 time=19
note_on channel=4 note=67 velocity=115 time=0
note_on channel=4 note=70 velocity=115 time=0
note_off channel=8 note=44 velocity=0 time=36
note_off channel=7 note=32 velocity=0 time=55
note_off channel=7 note=44 velocity=0 time=0
note_off channel=1 note=32 velocity=0 time=8
note_off channel=4 note=63 velocity=0 time=0
note_off channel=4 note=67 velocity=0 time=1
note_off channel=4 note=70 velocity=0 time=0
note_off channel=10 note=44 velocity=0 time=7
note_on channel=1 note=34 velocity=113 time=13
note_on channel=7 note=34 velocity=115 time=0
note_on channel=7 note=46 velocity=115 time=0
note_on channel=7 note=62 velocity=98 time=0
note_on channel=7 note=65 velocity=90 time=0
note_on channel=7 note=70 velocity=101 time=0
note_on channel=8 note=53 velocity=102 time=0
note_on channel=8 note=58 velocity=123 time=0
note_on channel=9 note=35 velocity=116 time=0
note_on channel=9 note=51 velocity=116 time=0
note_on channel=9 note=53 velocity=83 time=0
note_on channel=10 note=46 velocity=113 time=8
note_on channel=6 note=46 velocity=127 time=3
note_on channel=6 note=53 velocity=115 time=0
note_on channel=3 note=82 velocity=127 time=0
note_off channel=9 note=35 velocity=0 time=1
note_off channel=7 note=65 velocity=0 time=38
note_off channel=7 note=70 velocity=0 time=3
note_off channel=8 note=53 velocity=0 time=8
note_off channel=6 note=53 velocity=0 time=2
note_off channel=6 note=46 velocity=0 time=3
note_off channel=7 note=62 velocity=0 time=2
note_off channel=8 note=58 velocity=0 time=4
note_off channel=9 note=51 velocity=0 time=108
note_off channel=9 note=53 velocity=0 time=5
note_off channel=1 note=34 velocity=0 time=18
note_off channel=10 note=46 velocity=0 time=8
note_off channel=3 note=82 velocity=0 time=7
note_on channel=1 note=34 velocity=118 time=6
note_on channel=7 note=62 velocity=90 time=0
note_on channel=7 note=65 velocity=74 time=0
note_on channel=7 note=70 velocity=89 time=0
note_on channel=8 note=53 velocity=110 time=0
note_on channel=8 note=58 velocity=127 time=0
note_on channel=9 note=35 velocity=116 time=0
note_on channel=10 note=46 velocity=118 time=8
note_on channel=6 note=46 velocity=127 time=3
note_on channel=6 note=53 velocity=115 time=0
note_off channel=9 note=35 velocity=0 time=17
note_on channel=3 note=79 velocity=106 time=0
note_off channel=7 note=70 velocity=0 time=26
note_off channel=7 note=65 velocity=0 time=2
note_off channel=8 note=53 velocity=0 time=7
note_off channel=7 note=62 velocity=0 time=5
note_off channel=6 note=53 velocity=0 time=2
note_off channel=8 note=58 velocity=0 time=1
note_off channel=6 note=46 velocity=0 time=8
note_off channel=3 note=79 velocity=0 time=17
note_off channel=1 note=34 velocity=0 time=119
note_off channel=10 note=46 velocity=0 time=8
note_on channel=1 note=34 velocity=113 time=13
note_on channel=7 note=62 velocity=106 time=0
note_on channel=7 note=65 velocity=98 time=0
note_on channel=7 note=70 velocity=111 time=0
note_on channel=8 note=53 velocity=110 time=0
note_on channel=8 note=58 velocity=127 time=0
note_on channel=9 note=39 velocity=85 time=0
note_on channel=9 note=40 velocity=116 time=0
note_on channel=9 note=51 velocity=123 time=0
note_on channel=9 note=53 velocity=106 time=0
note_on channel=9 note=54 velocity=116 time=0
note_on channel=10 note=46 velocity=113 time=8
note_on channel=6 note=46 velocity=123 time=3
note_on channel=6 note=53 velocity=110 time=0
note_on channel=3 note=82 velocity=127 time=0
note_off channel=9 note=39 velocity=0 time=6
note_off channel=9 note=40 velocity=0 time=0
note_off channel=9 note=54 velocity=0 time=0
note_off channel=7 note=65 velocity=0 time=34
note_off channel=7 note=70 velocity=0 time=3
note_off channel=7 note=62 velocity=0 time=7
note_off channel=6 note=53 velocity=0 time=5
note_off channel=8 note=53 velocity=0 time=4
note_off channel=6 note=46 velocity=0 time=3
note_off channel=8 note=58 velocity=0 time=5
note_off channel=3 note=82 velocity=0 time=126
note_off channel=1 note=34 velocity=0 time=4
note_off channel=10 note=46 velocity=0 time=8
note_off channel=9 note=51 velocity=0 time=11
note_off channel=9 note=53 velocity=0 time=2
note_on channel=1 note=34 velocity=118 time=0
note_on channel=7 note=62 velocity=106 time=0
note_on channel=7 note=65 velocity=98 time=0
note_on channel=7 note=70 velocity=105 time=0
note_on channel=8 note=53 velocity=115 time=0
note_on channel=8 note=58 velocity=123 time=0
note_on channel=9 note=40 velocity=116 time=0
note_on channel=10 note=46 velocity=118 time=8
note_on channel=6 note=46 velocity=127 time=3
note_on channel=6 note=53 velocity=125 time=0
note_on channel=3 note=79 velocity=106 time=0
note_off channel=9 note=40 velocity=0 time=15
note_off channel=7 note=65 velocity=0 time=28
note_off channel=7 note=70 velocity=0 time=3
note_off channel=6 note=53 velocity=0 time=13
note_off channel=7 note=62 velocity=0 time=0
note_off channel=6 note=46 velocity=0 time=10
note_off channel=8 note=53 velocity=0 time=3
note_off channel=8 note=58 velocity=0 time=3
note_off channel=3 note=79 velocity=0 time=26
note_on channel=9 note=40 velocity=116 time=6
note_off channel=9 note=40 velocity=0 time=28
note_off channel=7 note=34 velocity=0 time=63
note_off channel=7 note=46 velocity=0 time=0
note_off channel=1 note=34 velocity=0 time=8
note_off channel=10 note=46 velocity=0 time=8
note_on channel=1 note=36 velocity=113 time=13
note_on channel=4 note=63 velocity=116 time=0
note_on channel=4 note=67 velocity=102 time=0
note_on channel=4 note=70 velocity=102 time=0
note_on channel=7 note=36 velocity=115 time=0
note_on channel=7 note=48 velocity=115 time=0
note_on channel=7 note=67 velocity=106 time=0
note_on channel=7 note=72 velocity=125 time=0
note_on channel=7 note=75 velocity=116 time=0
note_on channel=8 note=48 velocity=125 time=0
note_on channel=8 note=55 velocity=115 time=0
note_on channel=8 note=60 velocity=120 time=0
note_on channel=9 note=35 velocity=116 time=0
note_on channel=9 note=49 velocity=98 time=0
note_on channel=9 note=51 velocity=116 time=0
note_on channel=9 note=53 velocity=83 time=0
note_on channel=10 note=48 velocity=113 time=8
note_on channel=6 note=48 velocity=127 time=3
note_on channel=6 note=55 velocity=125 time=0
note_on channel=3 note=84 velocity=115 time=0
note_off channel=9 note=35 velocity=0 time=14
note_off channel=9 note=49 velocity=0 time=0
note_off channel=7 note=72 velocity=0 time=9
note_off channel=7 note=75 velocity=0 time=1
note_off channel=6 note=55 velocity=0 time=13
note_off channel=7 note=67 velocity=0 time=2
note_off channel=6 note=48 velocity=0 time=8
note_off channel=8 note=60 velocity=0 time=32
note_off channel=8 note=55 velocity=0 time=2
note_off channel=4 note=63 velocity=0 time=29
note_off channel=4 note=67 velocity=0 time=2
note_off channel=4 note=70 velocity=0 time=0
note_off channel=8 note=48 velocity=0 time=56
note_off channel=9 note=51 velocity=0 time=16
note_off channel=9 note=53 velocity=0 time=0
note_off channel=1 note=36 velocity=0 time=21
note_off channel=10 note=48 velocity=0 time=8
note_on channel=1 note=36 velocity=113 time=13
note_on channel=4 note=63 velocity=116 time=0
note_on channel=4 note=67 velocity=87 time=0
note_on channel=4 note=70 velocity=87 time=0
note_on channel=7 note=67 velocity=77 time=0
note_on channel=7 note=72 velocity=106 time=0
note_on channel=7 note=75 velocity=86 time=0
note_on channel=8 note=55 velocity=90 time=0
note_on channel=8 note=60 velocity=102 time=0
note_on channel=9 note=35 velocity=116 time=0
note_on channel=10 note=48 velocity=113 time=8
note_on channel=6 note=48 velocity=125 time=3
note_on channel=6 note=55 velocity=125 time=0
note_off channel=9 note=35 velocity=0 time=17
note_off channel=7 note=75 velocity=0 time=3
note_off channel=7 note=72 velocity=0 time=6
note_off channel=6 note=55 velocity=0 time=7
note_off channel=7 note=67 velocity=0 time=6
note_off channel=6 note=48 velocity=0 time=10
note_off channel=8 note=60 velocity=0 time=2
note_off channel=8 note=55 velocity=0 time=7
note_off channel=4 note=63 velocity=0 time=41
note_off channel=4 note=67 velocity=0 time=1
note_off channel=4 note=70 velocity=0 time=0
note_off channel=1 note=36 velocity=0 time=108
note_off channel=10 note=48 velocity=0 time=8
note_on channel=1 note=36 velocity=118 time=13
note_on channel=4 note=65 velocity=102 time=0
note_on channel=4 note=68 velocity=123 time=0
note_on channel=4 note=72 velocity=123 time=0
note_on channel=7 note=67 velocity=120 time=0
note_on channel=7 note=72 velocity=127 time=0
note_on channel=7 note=75 velocity=127 time=0
note_on channel=8 note=48 velocity=127 time=0
note_on channel=8 note=55 velocity=125 time=0
note_on channel=8 note=60 velocity=127 time=0
note_on channel=9 note=39 velocity=85 time=0
note_on channel=9 note=40 velocity=116 time=0
note_on channel=9 note=51 velocity=123 time=0
note_on channel=9 note=53 velocity=102 time=0
note_on channel=9 note=54 velocity=116 time=0
note_on channel=10 note=48 velocity=118 time=8
note_on channel=6 note=48 velocity=127 time=3
note_on channel=6 note=55 velocity=127 time=0
note_off channel=9 note=39 velocity=0 time=17
note_off channel=9 note=40 velocity=0 time=0
note_off channel=9 note=54 velocity=0 time=0
note_off channel=6 note=55 velocity=0 time=34
note_off channel=7 note=72 velocity=0 time=1
note_off channel=7 note=75 velocity=0 time=5
note_off channel=7 note=67 velocity=0 time=4
note_off channel=6 note=48 velocity=0 time=14
note_off channel=8 note=55 velocity=0 time=3
note_off channel=8 note=60 velocity=0 time=21
note_off channel=8 note=48 velocity=0 time=7
note_off channel=9 note=51 velocity=0 time=10
note_off channel=9 note=53 velocity=0 time=10
note_off channel=1 note=36 velocity=0 time=1
note_off channel=10 note=48 velocity=0 time=8
note_on channel=1 note=36 velocity=113 time=11
note_on channel=7 note=67 velocity=74 time=0
note_on channel=7 note=72 velocity=98 time=0
note_on channel=7 note=75 velocity=97 time=0
note_on channel=8 note=55 velocity=102 time=0
note_on channel=8 note=60 velocity=115 time=0
note_on channel=10 note=48 velocity=113 time=4
note_on channel=6 note=48 velocity=125 time=3
note_on channel=6 note=55 velocity=120 time=0
note_off channel=4 note=68 velocity=0 time=9
note_off channel=4 note=72 velocity=0 time=0
note_off channel=4 note=65 velocity=0 time=14
note_off channel=6 note=55 velocity=0 time=4
note_off channel=7 note=72 velocity=0 time=1
note_off channel=7 note=75 velocity=0 time=6
note_off channel=6 note=48 velocity=0 time=8
note_off channel=7 note=67 velocity=0 time=1
note_off channel=8 note=60 velocity=0 time=10
note_off channel=8 note=55 velocity=0 time=3
note_on channel=4 note=63 velocity=123 time=6
note_on channel=4 note=67 velocity=115 time=0
note_on channel=4 note=70 velocity=115 time=0
note_off channel=1 note=36 velocity=0 time=36
note_off channel=4 note=63 velocity=0 time=0
note_off channel=4 note=67 velocity=0 time=1
note_off channel=4 note=70 velocity=0 time=0
note_off channel=10 note=48 velocity=0 time=7
note_on channel=1 note=36 velocity=113 time=13
note_on channel=7 note=67 velocity=106 time=0
note_on channel=7 note=72 velocity=127 time=0
note_on channel=7 note=75 velocity=116 time=0
note_on channel=8 note=55 velocity=115 time=0
note_on channel=8 note=60 velocity=127 time=0
note_on channel=9 note=35 velocity=116 time=0
note_on channel=9 note=51 velocity=116 time=0
note_on channel=9 note=53 velocity=80 time=0
note_on channel=10 note=48 velocity=113 time=8
note_on channel=6 note=48 velocity=127 time=3
note_on channel=6 note=55 velocity=120 time=0
note_off channel=9 note=35 velocity=0 time=1
note_off channel=6 note=55 velocity=0 time=11
note_off channel=7 note=72 velocity=0 time=1
note_off channel=7 note=75 velocity=0 time=7
note_off channel=7 note=67 velocity=0 time=2
note_off channel=6 note=48 velocity=0 time=7
note_off channel=8 note=60 velocity=0 time=39
note_off channel=8 note=55 velocity=0 time=4
note_off channel=3 note=84 velocity=0 time=48
note_off channel=9 note=51 velocity=0 time=39
note_off channel=9 note=53 velocity=0 time=1
note_off channel=1 note=36 velocity=0 time=3
note_off channel=10 note=48 velocity=0 time=8
note_on channel=1 note=36 velocity=118 time=13
note_on channel=7 note=67 velocity=71 time=0
note_on channel=7 note=72 velocity=90 time=0
note_on channel=7 note=75 velocity=81 time=0
note_on channel=8 note=55 velocity=83 time=0
note_on channel=8 note=60 velocity=102 time=0
note_on channel=9 note=35 velocity=116 time=0
note_on channel=10 note=48 velocity=118 time=8
note_on channel=6 note=48 velocity=120 time=3
note_on channel=6 note=55 velocity=115 time=0
note_on channel=3 note=84 velocity=106 time=0
note_off channel=9 note=35 velocity=0 time=13
note_off channel=7 note=72 velocity=0 time=19
note_off channel=7 note=75 velocity=0 time=0
note_off channel=6 note=55 velocity=0 time=1
note_off channel=6 note=48 velocity=0 time=9
note_off channel=8 note=60 velocity=0 time=0
note_off channel=7 note=67 velocity=0 time=7
note_off channel=8 note=55 velocity=0 time=9
note_off channel=3 note=84 velocity=0 time=140
note_off channel=1 note=36 velocity=0 time=6
note_off channel=10 note=48 velocity=0 time=8
note_on channel=1 note=36 velocity=113 time=13
note_on channel=7 note=67 velocity=115 time=0
note_on channel=7 note=72 velocity=127 time=0
note_on channel=7 note=75 velocity=123 time=0
note_on channel=8 note=48 velocity=127 time=0
note_on channel=8 note=55 velocity=125 time=0
note_on channel=8 note=60 velocity=127 time=0
note_on channel=9 note=39 velocity=85 time=0
note_on channel=9 note=40 velocity=116 time=0
note_on channel=9 note=51 velocity=127 time=0
note_on channel=9 note=53 velocity=102 time=0
note_on channel=9 note=54 velocity=116 time=0
note_on channel=10 note=48 velocity=113 time=8
note_on channel=6 note=48 velocity=127 time=3
note_on channel=6 note=55 velocity=125 time=0
note_off channel=9 note=39 velocity=0 time=17
note_off channel=9 note=40 velocity=0 time=0
note_off channel=9 note=54 velocity=0 time=0
note_on channel=3 note=84 velocity=125 time=0
pitchwheel channel=3 pitch=520 time=27
pitchwheel channel=3 pitch=1690 time=10
note_off channel=6 note=55 velocity=0 time=4
note_off channel=7 note=72 velocity=0 time=1
pitchwheel channel=3 pitch=3380 time=5
note_off channel=7 note=75 velocity=0 time=10
pitchwheel channel=3 pitch=5720 time=0
note_off channel=6 note=48 velocity=0 time=1
note_off channel=7 note=67 velocity=0 time=1
pitchwheel channel=3 pitch=8191 time=8
note_off channel=8 note=60 velocity=0 time=12
note_off channel=8 note=55 velocity=0 time=4
note_off channel=3 note=84 velocity=0 time=87
pitchwheel channel=3 pitch=6370 time=10
note_off channel=9 note=51 velocity=0 time=1
note_off channel=9 note=53 velocity=0 time=3
note_off channel=1 note=36 velocity=0 time=4
pitchwheel channel=3 pitch=0 time=3
note_off channel=10 note=48 velocity=0 time=5
note_on channel=1 note=36 velocity=118 time=13
note_on channel=7 note=67 velocity=106 time=0
note_on channel=7 note=72 velocity=115 time=0
note_on channel=7 note=75 velocity=105 time=0
note_on channel=8 note=55 velocity=98 time=0
note_on channel=8 note=60 velocity=115 time=0
note_on channel=10 note=48 velocity=118 time=8
note_on channel=6 note=48 velocity=125 time=3
note_on channel=6 note=55 velocity=125 time=0
note_on channel=3 note=82 velocity=123 time=0
note_off channel=7 note=72 velocity=0 time=49
note_off channel=6 note=55 velocity=0 time=7
note_off channel=7 note=75 velocity=0 time=2
note_off channel=8 note=60 velocity=0 time=7
note_off channel=7 note=67 velocity=0 time=4
note_off channel=8 note=55 velocity=0 time=16
note_off channel=6 note=48 velocity=0 time=11
note_off channel=7 note=36 velocity=0 time=102
note_off channel=7 note=48 velocity=0 time=0
note_off channel=8 note=48 velocity=0 time=1
note_off channel=1 note=36 velocity=0 time=7
note_off channel=10 note=48 velocity=0 time=8
note_on channel=1 note=34 velocity=113 time=13
note_on channel=4 note=63 velocity=116 time=0
note_on channel=4 note=67 velocity=102 time=0
note_on channel=4 note=70 velocity=102 time=0
note_on channel=7 note=34 velocity=115 time=0
note_on channel=7 note=46 velocity=115 time=0
note_on channel=7 note=65 velocity=83 time=0
note_on channel=7 note=70 velocity=105 time=0
note_on channel=7 note=74 velocity=102 time=0
note_on channel=8 note=53 velocity=90 time=0
note_on channel=8 note=58 velocity=123 time=0
note_on channel=9 note=35 velocity=116 time=0
note_on channel=9 note=51 velocity=116 time=0
note_on channel=9 note=53 velocity=83 time=0
note_on channel=10 note=46 velocity=113 time=8
note_on channel=6 note=46 velocity=127 time=3
note_on channel=6 note=53 velocity=115 time=0
note_off channel=9 note=35 velocity=0 time=17
note_off channel=7 note=74 velocity=0 time=35
note_off channel=6 note=53 velocity=0 time=11
note_off channel=7 note=65 velocity=0 time=0
note_off channel=7 note=70 velocity=0 time=1
note_off channel=6 note=46 velocity=0 time=6
note_off channel=8 note=53 velocity=0 time=26
note_off channel=8 note=58 velocity=0 time=6
note_off channel=4 note=63 velocity=0 time=11
note_off channel=4 note=67 velocity=0 time=2
note_off channel=4 note=70 velocity=0 time=0
note_off channel=9 note=51 velocity=0 time=77
note_off channel=9 note=53 velocity=0 time=6
note_off channel=1 note=34 velocity=0 time=10
note_off channel=10 note=46 velocity=0 time=8
note_on channel=1 note=34 velocity=113 time=13
note_on channel=4 note=63 velocity=116 time=0
note_on channel=4 note=67 velocity=87 time=0
note_on channel=4 note=70 velocity=87 time=0
note_on channel=7 note=65 velocity=63 time=0
note_on channel=7 note=70 velocity=81 time=0
note_on channel=7 note=74 velocity=56 time=0
note_on channel=8 note=53 velocity=67 time=0
note_on channel=8 note=58 velocity=86 time=0
note_on channel=9 note=35 velocity=116 time=0
note_on channel=10 note=46 velocity=113 time=8
note_on channel=6 note=46 velocity=123 time=3
note_on channel=6 note=53 velocity=120 time=0
note_off channel=9 note=35 velocity=0 time=17
note_off channel=7 note=74 velocity=0 time=9
note_off channel=7 note=65 velocity=0 time=15
note_off channel=8 note=58 velocity=0 time=1
note_off channel=7 note=70 velocity=0 time=1
note_off channel=6 note=53 velocity=0 time=16
note_off channel=8 note=53 velocity=0 time=2
note_off channel=6 note=46 velocity=0 time=1
note_off channel=4 note=63 velocity=0 time=37
note_off channel=4 note=67 velocity=0 time=1
note_off channel=4 note=70 velocity=0 time=0
note_off channel=1 note=34 velocity=0 time=108
note_off channel=10 note=46 velocity=0 time=8
note_on channel=1 note=34 velocity=118 time=13
note_on channel=4 note=65 velocity=102 time=0
note_on channel=4 note=68 velocity=123 time=0
note_on channel=4 note=72 velocity=123 time=0
note_on channel=7 note=65 velocity=106 time=0
note_on channel=7 note=70 velocity=116 time=0
note_on channel=7 note=74 velocity=115 time=0
note_on channel=8 note=46 velocity=127 time=0
note_on channel=8 note=53 velocity=110 time=0
note_on channel=8 note=58 velocity=127 time=0
note_on channel=9 note=39 velocity=85 time=0
note_on channel=9 note=40 velocity=116 time=0
note_on channel=9 note=51 velocity=127 time=0
note_on channel=9 note=53 velocity=102 time=0
note_on channel=9 note=54 velocity=116 time=0
note_on channel=10 note=46 velocity=118 time=8
note_on channel=6 note=46 velocity=127 time=3
note_on channel=6 note=53 velocity=125 time=0
note_off channel=9 note=39 velocity=0 time=17
note_off channel=9 note=40 velocity=0 time=0
note_off channel=9 note=54 velocity=0 time=0
note_off channel=3 note=82 velocity=0 time=19
note_off channel=7 note=65 velocity=0 time=23
note_off channel=7 note=70 velocity=0 time=0
note_off channel=7 note=74 velocity=0 time=13
note_off channel=6 note=53 velocity=0 time=6
note_off channel=6 note=46 velocity=0 time=28
note_off channel=8 note=53 velocity=0 time=13
note_off channel=8 note=58 velocity=0 time=1
note_off channel=9 note=51 velocity=0 time=83
note_off channel=9 note=53 velocity=0 time=0
note_off channel=1 note=34 velocity=0 time=5
note_off channel=10 note=46 velocity=0 time=8
note_on channel=1 note=34 velocity=113 time=13
note_on channel=7 note=65 velocity=74 time=0
note_on channel=7 note=70 velocity=93 time=0
note_on channel=7 note=74 velocity=83 time=0
note_on channel=8 note=53 velocity=80 time=0
note_on channel=8 note=58 velocity=116 time=0
note_on channel=10 note=46 velocity=113 time=8
note_on channel=6 note=46 velocity=111 time=3
note_on channel=6 note=53 velocity=106 time=0
note_off channel=4 note=68 velocity=0 time=17
note_off channel=4 note=72 velocity=0 time=0
note_off channel=4 note=65 velocity=0 time=20
note_off channel=7 note=65 velocity=0 time=18
note_off channel=7 note=70 velocity=0 time=2
note_off channel=6 note=53 velocity=0 time=8
note_off channel=7 note=74 velocity=0 time=0
note_off channel=6 note=46 velocity=0 time=4
note_off channel=8 note=53 velocity=0 time=9
note_off channel=8 note=58 velocity=0 time=8
note_on channel=4 note=63 velocity=123 time=23
note_on channel=4 note=67 velocity=115 time=0
note_on channel=4 note=70 velocity=115 time=0
note_off channel=1 note=34 velocity=0 time=99
note_off channel=4 note=63 velocity=0 time=0
note_off channel=4 note=67 velocity=0 time=1
note_off channel=4 note=70 velocity=0 time=0
note_off channel=10 note=46 velocity=0 time=7
note_on channel=1 note=34 velocity=113 time=13
note_on channel=7 note=65 velocity=90 time=0
note_on channel=7 note=70 velocity=101 time=0
note_on channel=7 note=74 velocity=98 time=0
note_on channel=8 note=53 velocity=90 time=0
note_on channel=8 note=58 velocity=123 time=0
note_on channel=9 note=35 velocity=116 time=0
note_on channel=9 note=51 velocity=123 time=0
note_on channel=9 note=53 velocity=87 time=0
note_on channel=10 note=46 velocity=113 time=8
note_on channel=6 note=46 velocity=127 time=3
note_on channel=6 note=53 velocity=120 time=0
note_off channel=9 note=35 velocity=0 time=17
note_off channel=7 note=65 velocity=0 time=38
note_off channel=7 note=70 velocity=0 time=3
note_off channel=7 note=74 velocity=0 time=15
note_off channel=6 note=53 velocity=0 time=3
note_off channel=6 note=46 velocity=0 time=6
note_off channel=8 note=53 velocity=0 time=4
note_off channel=8 note=58 velocity=0 time=12
note_off channel=9 note=51 velocity=0 time=92
note_off channel=9 note=53 velocity=0 time=2
note_off channel=1 note=34 velocity=0 time=16
note_off channel=10 note=46 velocity=0 time=8
note_on channel=3 note=79 velocity=120 time=0
note_on channel=1 note=34 velocity=118 time=4
note_on channel=7 note=65 velocity=74 time=0
note_on channel=7 note=70 velocity=89 time=0
note_on channel=7 note=74 velocity=90 time=0
note_on channel=8 note=53 velocity=63 time=0
note_on channel=8 note=58 velocity=97 time=0
note_on channel=9 note=35 velocity=116 time=0
note_off channel=8 note=46 velocity=0 time=1
note_on channel=10 note=46 velocity=118 time=7
note_on channel=6 note=46 velocity=116 time=3
note_on channel=6 note=53 velocity=110 time=0
note_off channel=9 note=35 velocity=0 time=17
note_off channel=8 note=58 velocity=0 time=17
note_off channel=8 note=53 velocity=0 time=6
note_off channel=7 note=70 velocity=0 time=7
note_off channel=7 note=65 velocity=0 time=2
note_off channel=7 note=74 velocity=0 time=12
note_off channel=6 note=53 velocity=0 time=4
note_off channel=6 note=46 velocity=0 time=4
note_off channel=3 note=79 velocity=0 time=87
note_off channel=1 note=34 velocity=0 time=52
note_on channel=3 note=79 velocity=120 time=0
note_off channel=10 note=46 velocity=0 time=6
note_on channel=1 note=34 velocity=113 time=13
note_on channel=7 note=65 velocity=98 time=0
note_on channel=7 note=70 velocity=111 time=0
note_on channel=7 note=74 velocity=106 time=0
note_on channel=8 note=46 velocity=123 time=0
note_on channel=8 note=53 velocity=102 time=0
note_on channel=8 note=58 velocity=127 time=0
note_on channel=9 note=39 velocity=85 time=0
note_on channel=9 note=40 velocity=116 time=0
note_on channel=9 note=51 velocity=123 time=0
note_on channel=9 note=53 velocity=102 time=0
note_on channel=9 note=54 velocity=116 time=0
note_on channel=10 note=46 velocity=113 time=8
note_on channel=6 note=46 velocity=127 time=3
note_on channel=6 note=53 velocity=120 time=0
note_off channel=9 note=39 velocity=0 time=17
note_off channel=9 note=40 velocity=0 time=0
note_off channel=9 note=54 velocity=0 time=0
note_off channel=7 note=65 velocity=0 time=34
note_off channel=7 note=70 velocity=0 time=3
note_off channel=7 note=74 velocity=0 time=7
note_off channel=6 note=53 velocity=0 time=11
note_off channel=6 note=46 velocity=0 time=7
note_off channel=8 note=53 velocity=0 time=13
note_off channel=8 note=58 velocity=0 time=14
note_off channel=3 note=79 velocity=0 time=62
note_off channel=1 note=34 velocity=0 time=40
note_off channel=10 note=46 velocity=0 time=8
note_off channel=9 note=51 velocity=0 time=1
note_off channel=9 note=53 velocity=0 time=1
note_on channel=1 note=34 velocity=118 time=0
note_on channel=3 note=80 velocity=123 time=0
note_on channel=7 note=65 velocity=98 time=0
note_on channel=7 note=70 velocity=105 time=0
note_on channel=7 note=74 velocity=106 time=0
note_on channel=8 note=53 velocity=98 time=0
note_on channel=8 note=58 velocity=111 time=0
note_on channel=10 note=46 velocity=118 time=8
note_on channel=6 note=46 velocity=123 time=3
note_on channel=6 note=53 velocity=115 time=0
note_off channel=7 note=65 velocity=0 time=45
note_off channel=7 note=70 velocity=0 time=3
note_off channel=8 note=58 velocity=0 time=4
note_off channel=7 note=74 velocity=0 time=9
note_off channel=6 note=46 velocity=0 time=10
note_off channel=6 note=53 velocity=0 time=9
note_off channel=8 note=53 velocity=0 time=2
note_off channel=7 note=34 velocity=0 time=118
note_off channel=7 note=46 velocity=0 time=0
note_off channel=1 note=34 velocity=0 time=8
note_off channel=10 note=46 velocity=0 time=8
note_off channel=8 note=46 velocity=0 time=6
note_on channel=1 note=32 velocity=113 time=7
note_on channel=4 note=63 velocity=116 time=0
note_on channel=4 note=67 velocity=102 time=0
note_on channel=4 note=70 velocity=102 time=0
note_on channel=7 note=32 velocity=115 time=0
note_on channel=7 note=44 velocity=115 time=0
note_on channel=7 note=60 velocity=125 time=0
note_on channel=7 note=63 velocity=116 time=0
note_on channel=7 note=67 velocity=115 time=0
note_on channel=8 note=51 velocity=127 time=0
note_on channel=8 note=56 velocity=123 time=0
note_on channel=9 note=35 velocity=116 time=0
note_on channel=9 note=51 velocity=116 time=0
note_on channel=9 note=53 velocity=87 time=0
note_on channel=10 note=44 velocity=113 time=8
note_on channel=6 note=44 velocity=116 time=3
note_on channel=6 note=51 velocity=127 time=0
note_off channel=9 note=35 velocity=0 time=17
note_off channel=7 note=63 velocity=0 time=29
note_off channel=7 note=60 velocity=0 time=3
note_off channel=7 note=67 velocity=0 time=9
note_off channel=6 note=51 velocity=0 time=3
note_off channel=6 note=44 velocity=0 time=42
note_off channel=4 note=63 velocity=0 time=10
note_off channel=8 note=51 velocity=0 time=1
note_off channel=4 note=67 velocity=0 time=1
note_off channel=4 note=70 velocity=0 time=0
note_off channel=3 note=80 velocity=0 time=8
note_off channel=8 note=56 velocity=0 time=19
note_off channel=9 note=53 velocity=0 time=50
note_off channel=9 note=51 velocity=0 time=4
note_off channel=1 note=32 velocity=0 time=12
note_off channel=10 note=44 velocity=0 time=8
note_on channel=1 note=32 velocity=113 time=13
note_on channel=4 note=63 velocity=116 time=0
note_on channel=4 note=67 velocity=87 time=0
note_on channel=4 note=70 velocity=87 time=0
note_on channel=7 note=60 velocity=110 time=0
note_on channel=7 note=63 velocity=105 time=0
note_on channel=7 note=67 velocity=102 time=0
note_on channel=8 note=51 velocity=101 time=0
note_on channel=8 note=56 velocity=86 time=0
note_on channel=9 note=35 velocity=116 time=0
note_on channel=10 note=44 velocity=113 time=8
note_on channel=3 note=80 velocity=123 time=0
note_on channel=6 note=44 velocity=116 time=2
note_on channel=6 note=51 velocity=116 time=0
note_off channel=9 note=35 velocity=0 time=17
note_off channel=7 note=60 velocity=0 time=14
note_off channel=7 note=63 velocity=0 time=4
note_off channel=8 note=56 velocity=0 time=0
note_off channel=7 note=67 velocity=0 time=5
note_off channel=6 note=51 velocity=0 time=5
note_off channel=8 note=51 velocity=0 time=0
note_off channel=6 note=44 velocity=0 time=23
note_off channel=4 note=63 velocity=0 time=31
note_off channel=4 note=67 velocity=0 time=1
note_off channel=4 note=70 velocity=0 time=0
note_off channel=3 note=80 velocity=0 time=19
note_off channel=1 note=32 velocity=0 time=89
note_off channel=10 note=44 velocity=0 time=8
note_on channel=1 note=32 velocity=118 time=13
note_on channel=4 note=65 velocity=102 time=0
note_on channel=4 note=68 velocity=123 time=0
note_on channel=4 note=72 velocity=123 time=0
note_on channel=7 note=60 velocity=127 time=0
note_on channel=7 note=63 velocity=123 time=0
note_on channel=7 note=67 velocity=125 time=0
note_on channel=8 note=44 velocity=123 time=0
note_on channel=8 note=51 velocity=127 time=0
note_on channel=8 note=54 velocity=123 time=0
note_on channel=8 note=56 velocity=127 time=0
note_on channel=9 note=39 velocity=85 time=0
note_on channel=9 note=40 velocity=116 time=0
note_on channel=9 note=51 velocity=123 time=0
note_on channel=9 note=53 velocity=95 time=0
note_on channel=9 note=54 velocity=116 time=0
note_on channel=10 note=44 velocity=118 time=8
note_on channel=6 note=44 velocity=127 time=3
note_on channel=6 note=51 velocity=127 time=0
note_off channel=8 note=54 velocity=0 time=4
note_off channel=9 note=39 velocity=0 time=13
note_off channel=9 note=40 velocity=0 time=0
note_off channel=9 note=54 velocity=0 time=0
note_off channel=7 note=60 velocity=0 time=30
note_off channel=7 note=63 velocity=0 time=2
note_off channel=6 note=51 velocity=0 time=13
note_off channel=7 note=67 velocity=0 time=2
note_off channel=8 note=51 velocity=0 time=12
note_off channel=6 note=44 velocity=0 time=20
note_off channel=8 note=56 velocity=0 time=5
note_off channel=1 note=32 velocity=0 time=107
note_off channel=9 note=51 velocity=0 time=1
note_off channel=10 note=44 velocity=0 time=7
note_off channel=9 note=53 velocity=0 time=2
note_on channel=1 note=32 velocity=113 time=11
note_on channel=7 note=60 velocity=125 time=0
note_on channel=7 note=63 velocity=111 time=0
note_on channel=7 note=67 velocity=102 time=0
note_on channel=8 note=51 velocity=111 time=0
note_on channel=8 note=56 velocity=101 time=0
note_on channel=10 note=44 velocity=113 time=8
note_on channel=6 note=44 velocity=116 time=3
note_on channel=6 note=51 velocity=116 time=0
note_off channel=4 note=68 velocity=0 time=17
note_off channel=4 note=72 velocity=0 time=0
note_off channel=4 note=65 velocity=0 time=20
note_off channel=7 note=60 velocity=0 time=5
note_off channel=7 note=63 velocity=0 time=0
note_off channel=7 note=67 velocity=0 time=8
note_off channel=6 note=51 velocity=0 time=6
note_off channel=8 note=51 velocity=0 time=8
note_off channel=8 note=56 velocity=0 time=2
note_off channel=6 note=44 velocity=0 time=16
note_on channel=4 note=63 velocity=123 time=27
note_on channel=4 note=67 velocity=115 time=0
note_on channel=4 note=70 velocity=115 time=0
note_off channel=1 note=32 velocity=0 time=99
note_off channel=4 note=63 velocity=0 time=0
note_off channel=4 note=67 velocity=0 time=1
note_off channel=4 note=70 velocity=0 time=0
note_off channel=10 note=44 velocity=0 time=7
note_on channel=1 note=32 velocity=113 time=13
note_on channel=7 note=60 velocity=120 time=0
note_on channel=7 note=63 velocity=116 time=0
note_on channel=7 note=67 velocity=110 time=0
note_on channel=8 note=51 velocity=123 time=0
note_on channel=8 note=54 velocity=86 time=0
note_on channel=8 note=56 velocity=116 time=0
note_on channel=9 note=35 velocity=116 time=0
note_on channel=9 note=51 velocity=116 time=0
note_on channel=9 note=53 velocity=90 time=0
note_off channel=8 note=54 velocity=0 time=6
note_on channel=10 note=44 velocity=113 time=2
note_on channel=6 note=44 velocity=123 time=3
note_on channel=6 note=51 velocity=127 time=0
note_off channel=9 note=35 velocity=0 time=17
note_off channel=7 note=60 velocity=0 time=26
note_off channel=7 note=63 velocity=0 time=7
note_off channel=7 note=67 velocity=0 time=8
note_off channel=8 note=51 velocity=0 time=4
note_off channel=6 note=51 velocity=0 time=3
note_off channel=8 note=56 velocity=0 time=12
note_off channel=6 note=44 velocity=0 time=13
note_off channel=9 note=51 velocity=0 time=113
note_off channel=1 note=32 velocity=0 time=5
note_off channel=9 note=53 velocity=0 time=4
note_off channel=10 note=44 velocity=0 time=0
note_on channel=3 note=79 velocity=125 time=0
note_on channel=1 note=32 velocity=118 time=13
note_on channel=7 note=60 velocity=115 time=0
note_on channel=7 note=63 velocity=111 time=0
note_on channel=7 note=67 velocity=106 time=0
note_on channel=8 note=51 velocity=101 time=0
note_on channel=8 note=56 velocity=75 time=0
note_on channel=9 note=35 velocity=116 time=0
note_on channel=10 note=44 velocity=118 time=8
note_on channel=6 note=44 velocity=123 time=3
note_on channel=6 note=51 velocity=123 time=0
note_off channel=9 note=35 velocity=0 time=17
note_off channel=8 note=56 velocity=0 time=6
note_off channel=8 note=51 velocity=0 time=5
note_off channel=7 note=60 velocity=0 time=17
note_off channel=7 note=63 velocity=0 time=5
note_off channel=6 note=51 velocity=0 time=6
note_off channel=7 note=67 velocity=0 time=7
note_off channel=6 note=44 velocity=0 time=9
note_off channel=3 note=79 velocity=0 time=98
note_off channel=1 note=32 velocity=0 time=38
note_off channel=10 note=44 velocity=0 time=8
note_on channel=3 note=79 velocity=115 time=0
note_on channel=1 note=32 velocity=113 time=4
note_on channel=7 note=60 velocity=120 time=0
note_on channel=7 note=63 velocity=116 time=0
note_on channel=7 note=67 velocity=90 time=0
note_on channel=8 note=51 velocity=127 time=0
note_on channel=8 note=56 velocity=127 time=0
note_on channel=9 note=39 velocity=85 time=0
note_on channel=9 note=40 velocity=116 time=0
note_on channel=9 note=51 velocity=127 time=0
note_on channel=9 note=53 velocity=95 time=0
note_on channel=9 note=54 velocity=116 time=0
note_on channel=10 note=44 velocity=113 time=8
note_on channel=6 note=44 velocity=127 time=3
note_on channel=6 note=51 velocity=127 time=0
note_off channel=9 note=39 velocity=0 time=17
note_off channel=9 note=40 velocity=0 time=0
note_off channel=9 note=54 velocity=0 time=0
note_off channel=7 note=60 velocity=0 time=27
note_off channel=7 note=63 velocity=0 time=5
note_off channel=7 note=67 velocity=0 time=10
note_off channel=6 note=51 velocity=0 time=5
note_off channel=8 note=51 velocity=0 time=15
note_off channel=6 note=44 velocity=0 time=1
note_off channel=3 note=79 velocity=0 time=1
note_off channel=8 note=56 velocity=0 time=12
note_off channel=9 note=51 velocity=0 time=108
note_off channel=1 note=32 velocity=0 time=7
note_off channel=9 note=53 velocity=0 time=1
note_off channel=10 note=44 velocity=0 time=7
note_off channel=8 note=44 velocity=0 time=9
note_on channel=3 note=80 velocity=116 time=0
note_on channel=1 note=32 velocity=118 time=2
note_on channel=7 note=60 velocity=120 time=0
note_on channel=7 note=63 velocity=116 time=0
note_on channel=7 note=67 velocity=110 time=0
note_on channel=8 note=51 velocity=116 time=0
note_on channel=8 note=56 velocity=111 time=0
note_on channel=10 note=44 velocity=118 time=8
note_on channel=6 note=44 velocity=123 time=3
note_on channel=6 note=51 velocity=123 time=0
note_off channel=8 note=51 velocity=0 time=40
note_off channel=7 note=60 velocity=0 time=4
note_off channel=7 note=63 velocity=0 time=7
note_off channel=6 note=51 velocity=0 time=7
note_off channel=7 note=67 velocity=0 time=0
note_off channel=8 note=56 velocity=0 time=0
note_off channel=6 note=44 velocity=0 time=7
note_off channel=3 note=80 velocity=0 time=113
note_off channel=7 note=32 velocity=0 time=22
note_off channel=7 note=44 velocity=0 time=0
note_on channel=3 note=79 velocity=110 time=6
note_off channel=1 note=32 velocity=0 time=2
note_off channel=10 note=44 velocity=0 time=8
note_on channel=1 note=32 velocity=113 time=13
note_on channel=4 note=63 velocity=116 time=0
note_on channel=4 note=67 velocity=102 time=0
note_on channel=4 note=70 velocity=102 time=0
note_on channel=7 note=32 velocity=115 time=0
note_on channel=7 note=44 velocity=115 time=0
note_on channel=7 note=60 velocity=125 time=0
note_on channel=7 note=63 velocity=111 time=0
note_on channel=7 note=67 velocity=110 time=0
note_on channel=8 note=44 velocity=116 time=0
note_on channel=8 note=51 velocity=127 time=0
note_on channel=8 note=54 velocity=116 time=0
note_on channel=8 note=56 velocity=127 time=0
note_on channel=9 note=35 velocity=116 time=0
note_on channel=9 note=51 velocity=123 time=0
note_on channel=9 note=53 velocity=95 time=0
note_on channel=10 note=44 velocity=113 time=8
note_off channel=8 note=54 velocity=0 time=1
note_on channel=6 note=44 velocity=123 time=2
note_on channel=6 note=51 velocity=127 time=0
note_off channel=9 note=35 velocity=0 time=17
note_off channel=7 note=60 velocity=0 time=26
note_off channel=7 note=63 velocity=0 time=2
note_off channel=7 note=67 velocity=0 time=10
note_off channel=8 note=51 velocity=0 time=8
note_off channel=6 note=51 velocity=0 time=3
note_off channel=8 note=56 velocity=0 time=17
note_off channel=6 note=44 velocity=0 time=4
note_off channel=4 note=63 velocity=0 time=26
note_off channel=4 note=67 velocity=0 time=2
note_off channel=4 note=70 velocity=0 time=0
note_off channel=3 note=79 velocity=0 time=79
note_off channel=9 note=51 velocity=0 time=7
note_off channel=1 note=32 velocity=0 time=7
note_off channel=9 note=53 velocity=0 time=0
note_off channel=10 note=44 velocity=0 time=8
note_on channel=3 note=77 velocity=87 time=12
note_on channel=1 note=32 velocity=113 time=1
note_on channel=4 note=63 velocity=116 time=0
note_on channel=4 note=67 velocity=87 time=0
note_on channel=4 note=70 velocity=87 time=0
note_on channel=7 note=60 velocity=106 time=0
note_on channel=7 note=63 velocity=101 time=0
note_on channel=7 note=67 velocity=95 time=0
note_on channel=8 note=51 velocity=123 time=0
note_on channel=8 note=54 velocity=89 time=0
note_on channel=8 note=56 velocity=116 time=0
note_on channel=9 note=35 velocity=116 time=0
note_off channel=8 note=54 velocity=0 time=4
note_on channel=10 note=44 velocity=113 time=4
note_on channel=6 note=44 velocity=123 time=3
note_on channel=6 note=51 velocity=127 time=0
note_off channel=9 note=35 velocity=0 time=17
note_off channel=8 note=51 velocity=0 time=22
note_off channel=8 note=56 velocity=0 time=2
note_off channel=7 note=60 velocity=0 time=4
note_off channel=7 note=63 velocity=0 time=6
note_off channel=7 note=67 velocity=0 time=5
note_off channel=6 note=51 velocity=0 time=3
note_off channel=6 note=44 velocity=0 time=22
note_off channel=4 note=63 velocity=0 time=18
note_off channel=4 note=67 velocity=0 time=1
note_off channel=4 note=70 velocity=0 time=0
note_off channel=1 note=32 velocity=0 time=108
note_off channel=10 note=44 velocity=0 time=8
note_on channel=1 note=32 velocity=118 time=13
note_on channel=4 note=65 velocity=102 time=0
note_on channel=4 note=68 velocity=123 time=0
note_on channel=4 note=72 velocity=123 time=0
note_on channel=7 note=60 velocity=125 time=0
note_on channel=7 note=63 velocity=116 time=0
note_on channel=7 note=67 velocity=110 time=0
note_on channel=8 note=51 velocity=127 time=0
note_on channel=8 note=54 velocity=97 time=0
note_on channel=8 note=56 velocity=127 time=0
note_on channel=9 note=39 velocity=85 time=0
note_on channel=9 note=40 velocity=116 time=0
note_on channel=9 note=51 velocity=123 time=0
note_on channel=9 note=53 velocity=98 time=0
note_on channel=9 note=54 velocity=116 time=0
note_off channel=8 note=54 velocity=0 time=4
note_off channel=3 note=77 velocity=0 time=4
note_on channel=10 note=44 velocity=118 time=0
note_on channel=3 note=75 velocity=116 time=0
note_on channel=6 note=44 velocity=127 time=0
note_on channel=6 note=51 velocity=127 time=0
note_off channel=9 note=39 velocity=0 time=17
note_off channel=9 note=40 velocity=0 time=0
note_off channel=9 note=54 velocity=0 time=0
note_off channel=7 note=60 velocity=0 time=28
note_off channel=7 note=63 velocity=0 time=6
note_off channel=7 note=67 velocity=0 time=10
note_off channel=6 note=51 velocity=0 time=7
note_off channel=8 note=51 velocity=0 time=3
note_off channel=6 note=44 velocity=0 time=12
note_off channel=8 note=56 velocity=0 time=8
note_off channel=9 note=51 velocity=0 time=98
note_off channel=9 note=53 velocity=0 time=4
note_off channel=1 note=32 velocity=0 time=15
note_off channel=10 note=44 velocity=0 time=8
note_on channel=1 note=32 velocity=113 time=13
note_on channel=7 note=60 velocity=115 time=0
note_on channel=7 note=63 velocity=111 time=0
note_on channel=7 note=67 velocity=110 time=0
note_on channel=8 note=51 velocity=116 time=0
note_on channel=8 note=54 velocity=101 time=0
note_on channel=8 note=56 velocity=123 time=0
note_off channel=8 note=54 velocity=0 time=6
note_on channel=10 note=44 velocity=113 time=2
note_on channel=6 note=44 velocity=123 time=3
note_on channel=6 note=51 velocity=127 time=0
note_off channel=3 note=75 velocity=0 time=6
note_on channel=3 note=79 velocity=125 time=0
note_off channel=4 note=68 velocity=0 time=5
note_off channel=4 note=72 velocity=0 time=0
note_off channel=4 note=65 velocity=0 time=20
note_off channel=7 note=60 velocity=0 time=10
note_off channel=7 note=63 velocity=0 time=3
note_off channel=8 note=51 velocity=0 time=1
note_off channel=6 note=51 velocity=0 time=12
note_off channel=7 note=67 velocity=0 time=3
note_off channel=8 note=56 velocity=0 time=0
note_off channel=3 note=79 velocity=0 time=9
note_off channel=6 note=44 velocity=0 time=15
note_on channel=4 note=63 velocity=123 time=19
note_on channel=4 note=67 velocity=115 time=0
note_on channel=4 note=70 velocity=115 time=0
note_off channel=8 note=44 velocity=0 time=36
note_off channel=7 note=32 velocity=0 time=55
note_off channel=7 note=44 velocity=0 time=0
note_off channel=1 note=32 velocity=0 time=8
note_off channel=4 note=63 velocity=0 time=0
note_off channel=4 note=67 velocity=0 time=1
note_off channel=4 note=70 velocity=0 time=0
note_off channel=10 note=44 velocity=0 time=7
note_on channel=1 note=34 velocity=113 time=13
note_on channel=7 note=34 velocity=115 time=0
note_on channel=7 note=46 velocity=115 time=0
note_on channel=7 note=62 velocity=98 time=0
note_on channel=7 note=65 velocity=90 time=0
note_on channel=7 note=70 velocity=101 time=0
note_on channel=8 note=53 velocity=102 time=0
note_on channel=8 note=58 velocity=123 time=0
note_on channel=9 note=35 velocity=116 time=0
note_on channel=9 note=51 velocity=116 time=0
note_on channel=9 note=53 velocity=87 time=0
note_on channel=10 note=46 velocity=113 time=8
note_on channel=6 note=46 velocity=127 time=3
note_on channel=6 note=53 velocity=115 time=0
note_on channel=3 note=82 velocity=127 time=0
note_off channel=9 note=35 velocity=0 time=1
note_off channel=7 note=65 velocity=0 time=38
note_off channel=7 note=70 velocity=0 time=3
note_off channel=8 note=53 velocity=0 time=8
note_off channel=6 note=53 velocity=0 time=2
note_off channel=6 note=46 velocity=0 time=3
note_off channel=7 note=62 velocity=0 time=2
note_off channel=8 note=58 velocity=0 time=4
note_off channel=1 note=34 velocity=0 time=131
note_off channel=9 note=51 velocity=0 time=0
note_off channel=10 note=46 velocity=0 time=8
note_off channel=9 note=53 velocity=0 time=4
note_off channel=3 note=82 velocity=0 time=3
note_on channel=1 note=34 velocity=118 time=6
note_on channel=7 note=62 velocity=90 time=0
note_on channel=7 note=65 velocity=74 time=0
note_on channel=7 note=70 velocity=89 time=0
note_on channel=8 note=53 velocity=110 time=0
note_on channel=8 note=58 velocity=127 time=0
note_on channel=9 note=35 velocity=116 time=0
note_on channel=10 note=46 velocity=118 time=8
note_on channel=6 note=46 velocity=127 time=3
note_on channel=6 note=53 velocity=115 time=0
note_off channel=9 note=35 velocity=0 time=17
note_on channel=3 note=79 velocity=106 time=0
note_off channel=7 note=70 velocity=0 time=26
note_off channel=7 note=65 velocity=0 time=2
note_off channel=8 note=53 velocity=0 time=7
note_off channel=7 note=62 velocity=0 time=5
note_off channel=6 note=53 velocity=0 time=2
note_off channel=8 note=58 velocity=0 time=1
note_off channel=6 note=46 velocity=0 time=8
note_off channel=3 note=79 velocity=0 time=17
note_off channel=1 note=34 velocity=0 time=119
note_off channel=10 note=46 velocity=0 time=8
note_on channel=1 note=34 velocity=113 time=13
note_on channel=7 note=62 velocity=106 time=0
note_on channel=7 note=65 velocity=98 time=0
note_on channel=7 note=70 velocity=111 time=0
note_on channel=8 note=53 velocity=110 time=0
note_on channel=8 note=58 velocity=127 time=0
note_on channel=9 note=39 velocity=85 time=0
note_on channel=9 note=40 velocity=116 time=0
note_on channel=9 note=51 velocity=127 time=0
note_on channel=9 note=53 velocity=102 time=0
note_on channel=9 note=54 velocity=116 time=0
note_on channel=10 note=46 velocity=113 time=8
note_on channel=6 note=46 velocity=123 time=3
note_on channel=6 note=53 velocity=110 time=0
note_on channel=3 note=82 velocity=127 time=0
note_off channel=9 note=39 velocity=0 time=6
note_off channel=9 note=40 velocity=0 time=0
note_off channel=9 note=54 velocity=0 time=0
note_off channel=7 note=65 velocity=0 time=34
note_off channel=7 note=70 velocity=0 time=3
note_off channel=7 note=62 velocity=0 time=7
note_off channel=6 note=53 velocity=0 time=5
note_off channel=8 note=53 velocity=0 time=4
note_off channel=6 note=46 velocity=0 time=3
note_off channel=8 note=58 velocity=0 time=5
note_on channel=9 note=40 velocity=116 time=31
note_off channel=9 note=40 velocity=0 time=28
note_off channel=3 note=82 velocity=0 time=67
note_off channel=1 note=34 velocity=0 time=4
note_off channel=10 note=46 velocity=0 time=8
note_on channel=1 note=34 velocity=118 time=13
note_on channel=7 note=62 velocity=106 time=0
note_on channel=7 note=65 velocity=98 time=0
note_on channel=7 note=70 velocity=105 time=0
note_on channel=8 note=53 velocity=115 time=0
note_on channel=8 note=58 velocity=123 time=0
note_on channel=9 note=40 velocity=116 time=0
note_on channel=10 note=46 velocity=118 time=8
note_on channel=6 note=46 velocity=127 time=3
note_on channel=6 note=53 velocity=125 time=0
note_on channel=3 note=79 velocity=106 time=0
note_off channel=9 note=40 velocity=0 time=15
note_off channel=9 note=51 velocity=0 time=8
note_off channel=9 note=53 velocity=0 time=13
note_off channel=7 note=65 velocity=0 time=7
note_off channel=7 note=70 velocity=0 time=3
note_off channel=6 note=53 velocity=0 time=13
note_off channel=7 note=62 velocity=0 time=0
note_off channel=6 note=46 velocity=0 time=10
note_off channel=8 note=53 velocity=0 time=3
note_off channel=8 note=58 velocity=0 time=3
note_off channel=3 note=79 velocity=0 time=26
note_on channel=9 note=40 velocity=116 time=6
note_off channel=9 note=40 velocity=0 time=28
note_off channel=7 note=34 velocity=0 time=63
note_off channel=7 note=46 velocity=0 time=0
note_off channel=1 note=34 velocity=0 time=8
note_off channel=10 note=46 velocity=0 time=8
note_on channel=1 note=36 velocity=113 time=13
note_on channel=2 note=60 velocity=106 time=0
note_on channel=2 note=63 velocity=89 time=0
note_on channel=4 note=63 velocity=116 time=0
note_on channel=4 note=67 velocity=102 time=0
note_on channel=4 note=70 velocity=102 time=0
note_on channel=7 note=36 velocity=115 time=0
note_on channel=7 note=48 velocity=115 time=0
note_on channel=7 note=67 velocity=106 time=0
note_on channel=7 note=72 velocity=125 time=0
note_on channel=7 note=75 velocity=116 time=0
note_on channel=8 note=48 velocity=125 time=0
note_on channel=8 note=55 velocity=115 time=0
note_on channel=8 note=60 velocity=120 time=0
note_on channel=9 note=35 velocity=116 time=0
note_on channel=9 note=49 velocity=98 time=0
note_on channel=9 note=51 velocity=116 time=0
note_on channel=9 note=53 velocity=95 time=0
note_on channel=10 note=48 velocity=113 time=8
note_on channel=6 note=48 velocity=127 time=3
note_on channel=6 note=55 velocity=125 time=0
note_off channel=9 note=35 velocity=0 time=17
note_off channel=9 note=49 velocity=0 time=0
note_on channel=3 note=84 velocity=125 time=0
note_off channel=7 note=72 velocity=0 time=8
note_off channel=7 note=75 velocity=0 time=1
note_off channel=6 note=55 velocity=0 time=13
note_off channel=7 note=67 velocity=0 time=2
note_off channel=6 note=48 velocity=0 time=8
note_off channel=8 note=60 velocity=0 time=32
note_off channel=8 note=55 velocity=0 time=2
note_off channel=4 note=63 velocity=0 time=29
note_off channel=4 note=67 velocity=0 time=2
note_off channel=4 note=70 velocity=0 time=0
note_off channel=8 note=48 velocity=0 time=56
note_off channel=1 note=36 velocity=0 time=37
note_off channel=10 note=48 velocity=0 time=8
note_on channel=1 note=36 velocity=113 time=13
note_on channel=4 note=63 velocity=116 time=0
note_on channel=4 note=67 velocity=87 time=0
note_on channel=4 note=70 velocity=87 time=0
note_on channel=7 note=67 velocity=77 time=0
note_on channel=7 note=72 velocity=106 time=0
note_on channel=7 note=75 velocity=86 time=0
note_on channel=8 note=55 velocity=90 time=0
note_on channel=8 note=60 velocity=102 time=0
note_on channel=9 note=35 velocity=116 time=0
note_off channel=9 note=51 velocity=0 time=1
note_off channel=9 note=53 velocity=0 time=0
note_on channel=10 note=48 velocity=113 time=7
note_on channel=6 note=48 velocity=125 time=3
note_on channel=6 note=55 velocity=125 time=0
note_off channel=9 note=35 velocity=0 time=17
note_off channel=7 note=75 velocity=0 time=3
note_off channel=7 note=72 velocity=0 time=6
note_off channel=6 note=55 velocity=0 time=7
note_off channel=7 note=67 velocity=0 time=6
note_off channel=6 note=48 velocity=0 time=10
note_off channel=8 note=60 velocity=0 time=2
note_off channel=8 note=55 velocity=0 time=7
note_off channel=4 note=63 velocity=0 time=41
note_off channel=4 note=67 velocity=0 time=1
note_off channel=4 note=70 velocity=0 time=0
note_off channel=1 note=36 velocity=0 time=108
note_off channel=10 note=48 velocity=0 time=8
note_on channel=1 note=36 velocity=118 time=13
note_on channel=4 note=65 velocity=102 time=0
note_on channel=4 note=68 velocity=123 time=0
note_on channel=4 note=72 velocity=123 time=0
note_on channel=7 note=67 velocity=120 time=0
note_on channel=7 note=72 velocity=127 time=0
note_on channel=7 note=75 velocity=127 time=0
note_on channel=8 note=48 velocity=127 time=0
note_on channel=8 note=55 velocity=125 time=0
note_on channel=8 note=60 velocity=127 time=0
note_on channel=9 note=39 velocity=85 time=0
note_on channel=9 note=40 velocity=116 time=0
note_on channel=9 note=51 velocity=127 time=0
note_on channel=9 note=53 velocity=110 time=0
note_on channel=9 note=54 velocity=116 time=0
note_on channel=10 note=48 velocity=118 time=8
note_on channel=6 note=48 velocity=127 time=3
note_on channel=6 note=55 velocity=127 time=0
note_off channel=9 note=39 velocity=0 time=17
note_off channel=9 note=40 velocity=0 time=0
note_off channel=9 note=54 velocity=0 time=0
note_off channel=6 note=55 velocity=0 time=34
note_off channel=7 note=72 velocity=0 time=7
note_off channel=7 note=75 velocity=0 time=5
note_off channel=7 note=67 velocity=0 time=4
note_off channel=6 note=48 velocity=0 time=14
note_off channel=8 note=55 velocity=0 time=49
note_off channel=8 note=60 velocity=0 time=21
note_off channel=8 note=48 velocity=0 time=13
note_off channel=1 note=36 velocity=0 time=44
note_off channel=10 note=48 velocity=0 time=8
note_on channel=1 note=36 velocity=113 time=13
note_on channel=7 note=67 velocity=74 time=0
note_on channel=7 note=72 velocity=98 time=0
note_on channel=7 note=75 velocity=97 time=0
note_on channel=8 note=55 velocity=102 time=0
note_on channel=8 note=60 velocity=115 time=0
note_on channel=10 note=48 velocity=113 time=8
note_on channel=6 note=48 velocity=125 time=3
note_on channel=6 note=55 velocity=120 time=0
note_off channel=9 note=51 velocity=0 time=5
note_off channel=9 note=53 velocity=0 time=8
note_off channel=4 note=68 velocity=0 time=4
note_off channel=4 note=72 velocity=0 time=0
note_off channel=4 note=65 velocity=0 time=20
note_off channel=6 note=55 velocity=0 time=5
note_off channel=7 note=72 velocity=0 time=12
note_off channel=7 note=75 velocity=0 time=6
note_off channel=6 note=48 velocity=0 time=8
note_off channel=7 note=67 velocity=0 time=1
note_off channel=8 note=60 velocity=0 time=12
note_off channel=8 note=55 velocity=0 time=3
note_on channel=4 note=63 velocity=123 time=4
note_on channel=4 note=67 velocity=115 time=0
note_on channel=4 note=70 velocity=115 time=0
note_off channel=1 note=36 velocity=0 time=13
note_off channel=4 note=63 velocity=0 time=0
note_off channel=4 note=67 velocity=0 time=1
note_off channel=4 note=70 velocity=0 time=0
note_off channel=10 note=48 velocity=0 time=7
note_on channel=1 note=36 velocity=113 time=3
note_on channel=7 note=67 velocity=106 time=0
note_on channel=7 note=72 velocity=127 time=0
note_on channel=7 note=75 velocity=116 time=0
note_on channel=8 note=55 velocity=115 time=0
note_on channel=8 note=60 velocity=127 time=0
note_on channel=9 note=35 velocity=116 time=0
note_on channel=9 note=51 velocity=116 time=0
note_on channel=9 note=53 velocity=90 time=0
note_on channel=10 note=48 velocity=113 time=8
note_on channel=6 note=48 velocity=127 time=3
note_on channel=6 note=55 velocity=120 time=0
note_off channel=9 note=35 velocity=0 time=1
note_off channel=6 note=55 velocity=0 time=26
note_off channel=7 note=72 velocity=0 time=1
note_off channel=7 note=75 velocity=0 time=4
note_off channel=7 note=67 velocity=0 time=2
note_off channel=6 note=48 velocity=0 time=7
note_off channel=8 note=60 velocity=0 time=7
note_off channel=8 note=55 velocity=0 time=4
note_off channel=1 note=36 velocity=0 time=12
note_off channel=10 note=48 velocity=0 time=8
note_off channel=9 note=51 velocity=0 time=2
note_on channel=1 note=36 velocity=118 time=1
note_on channel=7 note=67 velocity=71 time=0
note_on channel=7 note=72 velocity=90 time=0
note_on channel=7 note=75 velocity=81 time=0
note_on channel=8 note=55 velocity=83 time=0
note_on channel=8 note=60 velocity=102 time=0
note_on channel=9 note=35 velocity=116 time=0
note_off channel=9 note=53 velocity=0 time=6
note_on channel=10 note=48 velocity=118 time=2
note_on channel=6 note=48 velocity=120 time=3
note_on channel=6 note=55 velocity=115 time=0
note_off channel=9 note=35 velocity=0 time=1
note_off channel=7 note=72 velocity=0 time=19
note_off channel=7 note=75 velocity=0 time=0
note_off channel=6 note=55 velocity=0 time=1
note_off channel=6 note=48 velocity=0 time=9
note_off channel=8 note=60 velocity=0 time=0
note_off channel=7 note=67 velocity=0 time=7
note_off channel=8 note=55 velocity=0 time=9
note_off channel=1 note=36 velocity=0 time=3
note_off channel=10 note=48 velocity=0 time=8
note_on channel=1 note=36 velocity=113 time=9
note_on channel=7 note=67 velocity=115 time=0
note_on channel=7 note=72 velocity=127 time=0
note_on channel=7 note=75 velocity=123 time=0
note_on channel=8 note=48 velocity=127 time=0
note_on channel=8 note=55 velocity=125 time=0
note_on channel=8 note=60 velocity=127 time=0
note_on channel=9 note=39 velocity=85 time=0
note_on channel=9 note=40 velocity=116 time=0
note_on channel=9 note=51 velocity=127 time=0
note_on channel=9 note=53 velocity=106 time=0
note_on channel=9 note=54 velocity=116 time=0
note_on channel=10 note=48 velocity=113 time=2
note_on channel=6 note=48 velocity=127 time=3
note_on channel=6 note=55 velocity=125 time=0
note_off channel=2 note=63 velocity=0 time=5
note_off channel=9 note=39 velocity=0 time=7
note_off channel=9 note=40 velocity=0 time=0
note_off channel=9 note=54 velocity=0 time=0
note_off channel=2 note=60 velocity=0 time=5
note_off channel=6 note=55 velocity=0 time=3
note_off channel=7 note=72 velocity=0 time=1
note_off channel=7 note=75 velocity=0 time=12
note_off channel=6 note=48 velocity=0 time=1
note_off channel=7 note=67 velocity=0 time=1
note_off channel=8 note=60 velocity=0 time=20
note_off channel=8 note=55 velocity=0 time=4
note_off channel=3 note=84 velocity=0 time=30
note_off channel=1 note=36 velocity=0 time=14
note_off channel=10 note=48 velocity=0 time=8
note_off channel=9 note=51 velocity=0 time=7
note_off channel=9 note=53 velocity=0 time=6
note_on channel=1 note=36 velocity=118 time=0
note_on channel=2 note=58 velocity=111 time=0
note_on channel=2 note=62 velocity=102 time=0
note_on channel=7 note=67 velocity=106 time=0
note_on channel=7 note=72 velocity=115 time=0
note_on channel=7 note=75 velocity=105 time=0
note_on channel=8 note=55 velocity=98 time=0
note_on channel=8 note=60 velocity=115 time=0
note_on channel=10 note=48 velocity=118 time=8
note_on channel=6 note=48 velocity=125 time=3
note_on channel=6 note=55 velocity=125 time=0
note_on channel=3 note=82 velocity=123 time=0
note_off channel=7 note=72 velocity=0 time=47
note_off channel=6 note=55 velocity=0 time=7
note_off channel=7 note=75 velocity=0 time=2
note_off channel=8 note=60 velocity=0 time=7
note_off channel=7 note=67 velocity=0 time=4
note_off channel=8 note=55 velocity=0 time=16
note_off channel=6 note=48 velocity=0 time=11
note_off channel=7 note=36 velocity=0 time=102
note_off channel=7 note=48 velocity=0 time=0
note_off channel=8 note=48 velocity=0 time=1
note_off channel=1 note=36 velocity=0 time=7
note_off channel=10 note=48 velocity=0 time=8
note_on channel=1 note=34 velocity=113 time=13
note_on channel=4 note=63 velocity=116 time=0
note_on channel=4 note=67 velocity=102 time=0
note_on channel=4 note=70 velocity=102 time=0
note_on channel=7 note=34 velocity=115 time=0
note_on channel=7 note=46 velocity=115 time=0
note_on channel=7 note=65 velocity=83 time=0
note_on channel=7 note=70 velocity=105 time=0
note_on channel=7 note=74 velocity=102 time=0
note_on channel=8 note=53 velocity=90 time=0
note_on channel=8 note=58 velocity=123 time=0
note_on channel=9 note=35 velocity=116 time=0
note_on channel=9 note=51 velocity=116 time=0
note_on channel=9 note=53 velocity=95 time=0
note_on channel=10 note=46 velocity=113 time=8
note_on channel=6 note=46 velocity=127 time=3
note_on channel=6 note=53 velocity=115 time=0
note_off channel=9 note=35 velocity=0 time=17
note_off channel=7 note=74 velocity=0 time=35
note_off channel=6 note=53 velocity=0 time=11
note_off channel=7 note=65 velocity=0 time=0
note_off channel=7 note=70 velocity=0 time=1
note_off channel=6 note=46 velocity=0 time=6
note_off channel=2 note=58 velocity=0 time=7
note_off channel=2 note=62 velocity=0 time=8
note_off channel=8 note=53 velocity=0 time=11
note_off channel=8 note=58 velocity=0 time=6
note_off channel=4 note=63 velocity=0 time=11
note_off channel=4 note=67 velocity=0 time=2
note_off channel=4 note=70 velocity=0 time=0
note_off channel=1 note=34 velocity=0 time=93
note_off channel=10 note=46 velocity=0 time=8
note_off channel=3 note=82 velocity=0 time=13
note_on channel=1 note=34 velocity=113 time=0
note_on channel=4 note=63 velocity=116 time=0
note_on channel=4 note=67 velocity=87 time=0
note_on channel=4 note=70 velocity=87 time=0
note_on channel=7 note=65 velocity=63 time=0
note_on channel=7 note=70 velocity=81 time=0
note_on channel=7 note=74 velocity=56 time=0
note_on channel=8 note=53 velocity=67 time=0
note_on channel=8 note=58 velocity=86 time=0
note_on channel=9 note=35 velocity=116 time=0
note_off channel=9 note=51 velocity=0 time=5
note_on channel=10 note=46 velocity=113 time=3
note_on channel=6 note=46 velocity=123 time=3
note_on channel=6 note=53 velocity=120 time=0
note_off channel=9 note=53 velocity=0 time=4
note_off channel=9 note=35 velocity=0 time=13
note_off channel=7 note=74 velocity=0 time=9
note_off channel=7 note=65 velocity=0 time=15
note_off channel=8 note=58 velocity=0 time=1
note_off channel=7 note=70 velocity=0 time=1
note_off channel=6 note=53 velocity=0 time=16
note_off channel=8 note=53 velocity=0 time=2
note_off channel=6 note=46 velocity=0 time=1
note_off channel=4 note=63 velocity=0 time=37
note_off channel=4 note=67 velocity=0 time=1
note_off channel=4 note=70 velocity=0 time=0
note_off channel=1 note=34 velocity=0 time=108
note_off channel=10 note=46 velocity=0 time=8
note_on channel=1 note=34 velocity=118 time=13
note_on channel=4 note=65 velocity=102 time=0
note_on channel=4 note=68 velocity=123 time=0
note_on channel=4 note=72 velocity=123 time=0
note_on channel=7 note=65 velocity=106 time=0
note_on channel=7 note=70 velocity=116 time=0
note_on channel=7 note=74 velocity=115 time=0
note_on channel=8 note=46 velocity=127 time=0
note_on channel=8 note=53 velocity=110 time=0
note_on channel=8 note=58 velocity=127 time=0
note_on channel=9 note=39 velocity=85 time=0
note_on channel=9 note=40 velocity=116 time=0
note_on channel=9 note=51 velocity=127 time=0
note_on channel=9 note=53 velocity=106 time=0
note_on channel=9 note=54 velocity=116 time=0
note_on channel=10 note=46 velocity=118 time=8
note_on channel=6 note=46 velocity=127 time=3
note_on channel=6 note=53 velocity=125 time=0
note_off channel=9 note=39 velocity=0 time=17
note_off channel=9 note=40 velocity=0 time=0
note_off channel=9 note=54 velocity=0 time=0
note_off channel=7 note=65 velocity=0 time=42
note_off channel=7 note=70 velocity=0 time=0
note_off channel=7 note=74 velocity=0 time=13
note_off channel=6 note=53 velocity=0 time=6
note_off channel=6 note=46 velocity=0 time=28
note_off channel=8 note=53 velocity=0 time=13
note_off channel=8 note=58 velocity=0 time=1
note_off channel=1 note=34 velocity=0 time=88
note_off channel=10 note=46 velocity=0 time=8
note_off channel=9 note=51 velocity=0 time=7
note_off channel=9 note=53 velocity=0 time=5
note_on channel=1 note=34 velocity=113 time=1
note_on channel=7 note=65 velocity=74 time=0
note_on channel=7 note=70 velocity=93 time=0
note_on channel=7 note=74 velocity=83 time=0
note_on channel=8 note=53 velocity=80 time=0
note_on channel=8 note=58 velocity=116 time=0
note_on channel=10 note=46 velocity=113 time=8
note_on channel=6 note=46 velocity=111 time=3
note_on channel=6 note=53 velocity=106 time=0
note_on channel=3 note=79 velocity=125 time=0
note_off channel=4 note=68 velocity=0 time=5
note_off channel=4 note=72 velocity=0 time=0
note_off channel=4 note=65 velocity=0 time=20
note_off channel=7 note=65 velocity=0 time=18
note_off channel=7 note=70 velocity=0 time=2
note_off channel=6 note=53 velocity=0 time=8
note_off channel=7 note=74 velocity=0 time=0
note_off channel=6 note=46 velocity=0 time=4
note_off channel=3 note=79 velocity=0 time=6
note_off channel=8 note=53 velocity=0 time=3
note_off channel=8 note=58 velocity=0 time=8
note_on channel=4 note=63 velocity=123 time=23
note_on channel=4 note=67 velocity=115 time=0
note_on channel=4 note=70 velocity=115 time=0
note_off channel=1 note=34 velocity=0 time=99
note_off channel=4 note=63 velocity=0 time=0
note_off channel=4 note=67 velocity=0 time=1
note_off channel=4 note=70 velocity=0 time=0
note_off channel=10 note=46 velocity=0 time=7
note_on channel=1 note=34 velocity=113 time=13
note_on channel=7 note=65 velocity=90 time=0
note_on channel=7 note=70 velocity=101 time=0
note_on channel=7 note=74 velocity=98 time=0
note_on channel=8 note=53 velocity=90 time=0
note_on channel=8 note=58 velocity=123 time=0
note_on channel=9 note=35 velocity=116 time=0
note_on channel=9 note=51 velocity=123 time=0
note_on channel=9 note=53 velocity=90 time=0
note_on channel=10 note=46 velocity=113 time=8
note_on channel=6 note=46 velocity=127 time=3
note_on channel=6 note=53 velocity=120 time=0
note_on channel=3 note=82 velocity=127 time=16
note_off channel=9 note=35 velocity=0 time=1
note_off channel=7 note=65 velocity=0 time=38
note_off channel=7 note=70 velocity=0 time=3
note_off channel=7 note=74 velocity=0 time=15
note_off channel=6 note=53 velocity=0 time=3
note_off channel=6 note=46 velocity=0 time=6
note_off channel=8 note=53 velocity=0 time=4
note_off channel=8 note=58 velocity=0 time=12
note_off channel=9 note=51 velocity=0 time=106
note_off channel=1 note=34 velocity=0 time=4
note_off channel=9 note=53 velocity=0 time=1
note_off channel=10 note=46 velocity=0 time=7
note_off channel=3 note=82 velocity=0 time=7
note_on channel=1 note=34 velocity=118 time=6
note_on channel=7 note=65 velocity=74 time=0
note_on channel=7 note=70 velocity=89 time=0
note_on channel=7 note=74 velocity=90 time=0
note_on channel=8 note=53 velocity=63 time=0
note_on channel=8 note=58 velocity=97 time=0
note_on channel=9 note=35 velocity=116 time=0
note_off channel=8 note=46 velocity=0 time=1
note_on channel=10 note=46 velocity=118 time=7
note_on channel=6 note=46 velocity=116 time=3
note_on channel=6 note=53 velocity=110 time=0
note_off channel=9 note=35 velocity=0 time=17
note_on channel=3 note=79 velocity=106 time=0
note_off channel=8 note=58 velocity=0 time=13
note_off channel=8 note=53 velocity=0 time=6
note_off channel=7 note=70 velocity=0 time=7
note_off channel=7 note=65 velocity=0 time=2
note_off channel=7 note=74 velocity=0 time=12
note_off channel=6 note=53 velocity=0 time=4
note_off channel=6 note=46 velocity=0 time=4
note_off channel=3 note=79 velocity=0 time=20
note_off channel=1 note=34 velocity=0 time=119
note_off channel=10 note=46 velocity=0 time=8
note_on channel=1 note=34 velocity=113 time=13
note_on channel=7 note=65 velocity=98 time=0
note_on channel=7 note=70 velocity=111 time=0
note_on channel=7 note=74 velocity=106 time=0
note_on channel=8 note=46 velocity=123 time=0
note_on channel=8 note=53 velocity=102 time=0
note_on channel=8 note=58 velocity=127 time=0
note_on channel=9 note=39 velocity=85 time=0
note_on channel=9 note=40 velocity=116 time=0
note_on channel=9 note=51 velocity=127 time=0
note_on channel=9 note=53 velocity=106 time=0
note_on channel=9 note=54 velocity=116 time=0
note_on channel=10 note=46 velocity=113 time=8
note_on channel=6 note=46 velocity=127 time=3
note_on channel=6 note=53 velocity=120 time=0
note_on channel=3 note=82 velocity=127 time=0
note_off channel=9 note=39 velocity=0 time=6
note_off channel=9 note=40 velocity=0 time=0
note_off channel=9 note=54 velocity=0 time=0
note_off channel=7 note=65 velocity=0 time=34
note_off channel=7 note=70 velocity=0 time=3
note_off channel=7 note=74 velocity=0 time=7
note_off channel=6 note=53 velocity=0 time=11
note_off channel=6 note=46 velocity=0 time=7
note_off channel=8 note=53 velocity=0 time=13
note_off channel=8 note=58 velocity=0 time=14
note_off channel=3 note=82 velocity=0 time=98
note_off channel=1 note=34 velocity=0 time=4
note_off channel=10 note=46 velocity=0 time=8
note_off channel=9 note=51 velocity=0 time=7
note_on channel=1 note=34 velocity=118 time=6
note_on channel=2 note=60 velocity=115 time=0
note_on channel=7 note=65 velocity=98 time=0
note_on channel=7 note=70 velocity=105 time=0
note_on channel=7 note=74 velocity=106 time=0
note_on channel=8 note=53 velocity=98 time=0
note_on channel=8 note=58 velocity=111 time=0
note_off channel=9 note=53 velocity=0 time=6
note_on channel=10 note=46 velocity=118 time=2
note_on channel=6 note=46 velocity=123 time=3
note_on channel=6 note=53 velocity=115 time=0
note_on channel=3 note=79 velocity=106 time=0
note_off channel=7 note=65 velocity=0 time=43
note_off channel=7 note=70 velocity=0 time=3
note_off channel=8 note=58 velocity=0 time=4
note_off channel=7 note=74 velocity=0 time=9
note_off channel=6 note=46 velocity=0 time=10
note_off channel=6 note=53 velocity=0 time=9
note_off channel=8 note=53 velocity=0 time=2
note_off channel=3 note=79 velocity=0 time=21
note_off channel=7 note=34 velocity=0 time=97
note_off channel=7 note=46 velocity=0 time=0
note_off channel=1 note=34 velocity=0 time=8
note_off channel=10 note=46 velocity=0 time=8
note_off channel=8 note=46 velocity=0 time=6
note_on channel=1 note=32 velocity=113 time=7
note_on channel=4 note=63 velocity=116 time=0
note_on channel=4 note=67 velocity=102 time=0
note_on channel=4 note=70 velocity=102 time=0
note_on channel=7 note=32 velocity=115 time=0
note_on channel=7 note=44 velocity=115 time=0
note_on channel=7 note=60 velocity=125 time=0
note_on channel=7 note=63 velocity=116 time=0
note_on channel=7 note=67 velocity=115 time=0
note_on channel=8 note=51 velocity=127 time=0
note_on channel=8 note=56 velocity=123 time=0
note_on channel=9 note=35 velocity=116 time=0
note_on channel=9 note=51 velocity=116 time=0
note_on channel=9 note=53 velocity=90 time=0
note_on channel=10 note=44 velocity=113 time=8
note_on channel=6 note=44 velocity=116 time=3
note_on channel=6 note=51 velocity=127 time=0
note_on channel=3 note=84 velocity=125 time=0
note_off channel=9 note=35 velocity=0 time=7
note_off channel=7 note=63 velocity=0 time=29
note_off channel=7 note=60 velocity=0 time=3
note_off channel=7 note=67 velocity=0 time=9
note_off channel=6 note=51 velocity=0 time=3
note_off channel=6 note=44 velocity=0 time=42
note_off channel=4 note=63 velocity=0 time=10
note_off channel=8 note=51 velocity=0 time=1
note_off channel=4 note=67 velocity=0 time=1
note_off channel=4 note=70 velocity=0 time=0
note_off channel=8 note=56 velocity=0 time=27
note_off channel=1 note=32 velocity=0 time=66
note_off channel=10 note=44 velocity=0 time=8
note_off channel=9 note=51 velocity=0 time=1
note_off channel=9 note=53 velocity=0 time=6
note_on channel=1 note=32 velocity=113 time=6
note_on channel=4 note=63 velocity=116 time=0
note_on channel=4 note=67 velocity=87 time=0
note_on channel=4 note=70 velocity=87 time=0
note_on channel=7 note=60 velocity=110 time=0
note_on channel=7 note=63 velocity=105 time=0
note_on channel=7 note=67 velocity=102 time=0
note_on channel=8 note=51 velocity=101 time=0
note_on channel=8 note=56 velocity=86 time=0
note_on channel=9 note=35 velocity=116 time=0
note_on channel=10 note=44 velocity=113 time=8
note_on channel=6 note=44 velocity=116 time=3
note_on channel=6 note=51 velocity=116 time=0
note_off channel=9 note=35 velocity=0 time=17
note_off channel=7 note=60 velocity=0 time=14
note_off channel=7 note=63 velocity=0 time=4
note_off channel=8 note=56 velocity=0 time=0
note_off channel=7 note=67 velocity=0 time=5
note_off channel=6 note=51 velocity=0 time=5
note_off channel=8 note=51 velocity=0 time=0
note_off channel=6 note=44 velocity=0 time=23
note_off channel=4 note=63 velocity=0 time=31
note_off channel=4 note=67 velocity=0 time=1
note_off channel=4 note=70 velocity=0 time=0
note_off channel=1 note=32 velocity=0 time=108
note_off channel=10 note=44 velocity=0 time=8
note_on channel=1 note=32 velocity=118 time=13
note_on channel=4 note=65 velocity=102 time=0
note_on channel=4 note=68 velocity=123 time=0
note_on channel=4 note=72 velocity=123 time=0
note_on channel=7 note=60 velocity=127 time=0
note_on channel=7 note=63 velocity=123 time=0
note_on channel=7 note=67 velocity=125 time=0
note_on channel=8 note=44 velocity=123 time=0
note_on channel=8 note=51 velocity=127 time=0
note_on channel=8 note=54 velocity=123 time=0
note_on channel=8 note=56 velocity=127 time=0
note_on channel=9 note=39 velocity=85 time=0
note_on channel=9 note=40 velocity=116 time=0
note_on channel=9 note=51 velocity=123 time=0
note_on channel=9 note=53 velocity=106 time=0
note_on channel=9 note=54 velocity=116 time=0
note_on channel=10 note=44 velocity=118 time=8
note_on channel=6 note=44 velocity=127 time=3
note_on channel=6 note=51 velocity=127 time=0
note_off channel=8 note=54 velocity=0 time=4
note_off channel=9 note=39 velocity=0 time=13
note_off channel=9 note=40 velocity=0 time=0
note_off channel=9 note=54 velocity=0 time=0
note_off channel=7 note=60 velocity=0 time=30
note_off channel=7 note=63 velocity=0 time=2
note_off channel=6 note=51 velocity=0 time=13
note_off channel=7 note=67 velocity=0 time=2
note_off channel=8 note=51 velocity=0 time=12
note_off channel=6 note=44 velocity=0 time=20
note_off channel=8 note=56 velocity=0 time=5
note_off channel=1 note=32 velocity=0 time=107
note_off channel=10 note=44 velocity=0 time=8
note_off channel=9 note=51 velocity=0 time=11
note_off channel=9 note=53 velocity=0 time=0
note_on channel=1 note=32 velocity=113 time=2
note_on channel=7 note=60 velocity=125 time=0
note_on channel=7 note=63 velocity=111 time=0
note_on channel=7 note=67 velocity=102 time=0
note_on channel=8 note=51 velocity=111 time=0
note_on channel=8 note=56 velocity=101 time=0
note_on channel=10 note=44 velocity=113 time=8
note_on channel=6 note=44 velocity=116 time=3
note_on channel=6 note=51 velocity=116 time=0
note_off channel=4 note=68 velocity=0 time=17
note_off channel=4 note=72 velocity=0 time=0
note_off channel=4 note=65 velocity=0 time=20
note_off channel=7 note=60 velocity=0 time=5
note_off channel=7 note=63 velocity=0 time=0
note_off channel=7 note=67 velocity=0 time=8
note_off channel=6 note=51 velocity=0 time=6
note_off channel=8 note=51 velocity=0 time=8
note_off channel=8 note=56 velocity=0 time=2
note_off channel=6 note=44 velocity=0 time=16
note_on channel=4 note=63 velocity=123 time=27
note_on channel=4 note=67 velocity=115 time=0
note_on channel=4 note=70 velocity=115 time=0
note_off channel=1 note=32 velocity=0 time=99
note_off channel=4 note=63 velocity=0 time=0
note_off channel=4 note=67 velocity=0 time=1
note_off channel=4 note=70 velocity=0 time=0
note_off channel=10 note=44 velocity=0 time=7
note_on channel=1 note=32 velocity=113 time=13
note_on channel=7 note=60 velocity=120 time=0
note_on channel=7 note=63 velocity=116 time=0
note_on channel=7 note=67 velocity=110 time=0
note_on channel=8 note=51 velocity=123 time=0
note_on channel=8 note=54 velocity=86 time=0
note_on channel=8 note=56 velocity=116 time=0
note_on channel=9 note=35 velocity=116 time=0
note_on channel=9 note=51 velocity=116 time=0
note_on channel=9 note=53 velocity=87 time=0
note_off channel=8 note=54 velocity=0 time=6
note_on channel=10 note=44 velocity=113 time=2
note_on channel=6 note=44 velocity=123 time=3
note_on channel=6 note=51 velocity=127 time=0
note_off channel=9 note=35 velocity=0 time=17
note_off channel=7 note=60 velocity=0 time=26
note_off channel=7 note=63 velocity=0 time=7
note_off channel=7 note=67 velocity=0 time=8
note_off channel=8 note=51 velocity=0 time=4
note_off channel=6 note=51 velocity=0 time=3
note_off channel=8 note=56 velocity=0 time=12
note_off channel=6 note=44 velocity=0 time=13
note_off channel=1 note=32 velocity=0 time=118
note_off channel=9 note=53 velocity=0 time=5
note_off channel=9 note=51 velocity=0 time=1
note_off channel=10 note=44 velocity=0 time=2
note_on channel=1 note=32 velocity=118 time=13
note_on channel=7 note=60 velocity=115 time=0
note_on channel=7 note=63 velocity=111 time=0
note_on channel=7 note=67 velocity=106 time=0
note_on channel=8 note=51 velocity=101 time=0
note_on channel=8 note=56 velocity=75 time=0
note_on channel=9 note=35 velocity=116 time=0
note_on channel=10 note=44 velocity=118 time=8
note_on channel=6 note=44 velocity=123 time=3
note_on channel=6 note=51 velocity=123 time=0
note_off channel=9 note=35 velocity=0 time=17
note_off channel=8 note=56 velocity=0 time=6
note_off channel=8 note=51 velocity=0 time=5
note_off channel=7 note=60 velocity=0 time=17
note_off channel=7 note=63 velocity=0 time=5
note_off channel=6 note=51 velocity=0 time=6
note_off channel=7 note=67 velocity=0 time=7
note_off channel=6 note=44 velocity=0 time=9
note_off channel=1 note=32 velocity=0 time=136
note_off channel=10 note=44 velocity=0 time=8
note_on channel=1 note=32 velocity=113 time=13
note_on channel=2 note=62 velocity=102 time=0
note_on channel=7 note=60 velocity=120 time=0
note_on channel=7 note=63 velocity=116 time=0
note_on channel=7 note=67 velocity=90 time=0
note_on channel=8 note=51 velocity=127 time=0
note_on channel=8 note=56 velocity=127 time=0
note_on channel=9 note=39 velocity=85 time=0
note_on channel=9 note=40 velocity=116 time=0
note_on channel=9 note=51 velocity=127 time=0
note_on channel=9 note=53 velocity=102 time=0
note_on channel=9 note=54 velocity=116 time=0
pitchwheel channel=3 pitch=520 time=6
note_on channel=10 note=44 velocity=113 time=2
note_on channel=6 note=44 velocity=127 time=3
note_on channel=6 note=51 velocity=127 time=0
note_off channel=2 note=60 velocity=0 time=4
pitchwheel channel=3 pitch=4290 time=1
pitchwheel channel=3 pitch=8191 time=10
note_off channel=9 note=39 velocity=0 time=2
note_off channel=9 note=40 velocity=0 time=0
note_off channel=9 note=54 velocity=0 time=0
note_off channel=7 note=60 velocity=0 time=27
note_off channel=7 note=63 velocity=0 time=5
note_off channel=7 note=67 velocity=0 time=10
note_off channel=6 note=51 velocity=0 time=5
note_off channel=8 note=51 velocity=0 time=15
note_off channel=6 note=44 velocity=0 time=1
note_off channel=8 note=56 velocity=0 time=13
note_off channel=2 note=62 velocity=0 time=103
note_off channel=3 note=84 velocity=0 time=9
note_off channel=1 note=32 velocity=0 time=3
note_off channel=10 note=44 velocity=0 time=8
note_off channel=9 note=51 velocity=0 time=7
note_off channel=8 note=44 velocity=0 time=2
note_off channel=9 note=53 velocity=0 time=3
note_on channel=1 note=32 velocity=118 time=1
note_on channel=2 note=58 velocity=116 time=0
note_on channel=7 note=60 velocity=120 time=0
note_on channel=7 note=63 velocity=116 time=0
note_on channel=7 note=67 velocity=110 time=0
note_on channel=8 note=51 velocity=116 time=0
note_on channel=8 note=56 velocity=111 time=0
note_on channel=3 note=82 velocity=123 time=0
pitchwheel channel=3 pitch=0 time=2
note_on channel=10 note=44 velocity=118 time=5
note_on channel=6 note=44 velocity=123 time=3
note_on channel=6 note=51 velocity=123 time=0
pitchwheel channel=3 pitch=0 time=7
note_off channel=8 note=51 velocity=0 time=33
note_off channel=7 note=60 velocity=0 time=4
note_off channel=7 note=63 velocity=0 time=7
note_off channel=6 note=51 velocity=0 time=7
note_off channel=7 note=67 velocity=0 time=0
note_off channel=8 note=56 velocity=0 time=0
note_off channel=6 note=44 velocity=0 time=7
note_off channel=7 note=32 velocity=0 time=34
note_off channel=7 note=44 velocity=0 time=0
note_off channel=1 note=32 velocity=0 time=8
note_off channel=10 note=44 velocity=0 time=8
note_on channel=1 note=32 velocity=113 time=13
note_on channel=4 note=63 velocity=116 time=0
note_on channel=4 note=67 velocity=102 time=0
note_on channel=4 note=70 velocity=102 time=0
note_on channel=7 note=32 velocity=115 time=0
note_on channel=7 note=44 velocity=115 time=0
note_on channel=7 note=60 velocity=125 time=0
note_on channel=7 note=63 velocity=111 time=0
note_on channel=7 note=67 velocity=110 time=0
note_on channel=8 note=44 velocity=116 time=0
note_on channel=8 note=51 velocity=127 time=0
note_on channel=8 note=54 velocity=116 time=0
note_on channel=8 note=56 velocity=127 time=0
note_on channel=9 note=35 velocity=116 time=0
note_on channel=9 note=51 velocity=116 time=0
note_on channel=9 note=53 velocity=87 time=0
note_on channel=10 note=44 velocity=113 time=8
note_off channel=8 note=54 velocity=0 time=1
note_on channel=6 note=44 velocity=123 time=2
note_on channel=6 note=51 velocity=127 time=0
note_off channel=9 note=35 velocity=0 time=17
note_off channel=7 note=60 velocity=0 time=26
note_off channel=7 note=63 velocity=0 time=2
note_off channel=7 note=67 velocity=0 time=10
note_off channel=8 note=51 velocity=0 time=8
note_off channel=6 note=51 velocity=0 time=3
note_off channel=8 note=56 velocity=0 time=17
note_off channel=6 note=44 velocity=0 time=4
note_off channel=4 note=63 velocity=0 time=26
note_off channel=4 note=67 velocity=0 time=2
note_off channel=4 note=70 velocity=0 time=0
note_off channel=1 note=32 velocity=0 time=93
note_off channel=9 note=51 velocity=0 time=0
note_off channel=9 note=53 velocity=0 time=2
note_off channel=10 note=44 velocity=0 time=6
note_on channel=1 note=32 velocity=113 time=13
note_on channel=4 note=63 velocity=116 time=0
note_on channel=4 note=67 velocity=87 time=0
note_on channel=4 note=70 velocity=87 time=0
note_on channel=7 note=60 velocity=106 time=0
note_on channel=7 note=63 velocity=101 time=0
note_on channel=7 note=67 velocity=95 time=0
note_on channel=8 note=51 velocity=123 time=0
note_on channel=8 note=54 velocity=89 time=0
note_on channel=8 note=56 velocity=116 time=0
note_on channel=9 note=35 velocity=116 time=0
note_off channel=8 note=54 velocity=0 time=4
note_on channel=10 note=44 velocity=113 time=4
note_on channel=6 note=44 velocity=123 time=3
note_on channel=6 note=51 velocity=127 time=0
note_off channel=9 note=35 velocity=0 time=17
note_off channel=8 note=51 velocity=0 time=22
note_off channel=8 note=56 velocity=0 time=2
note_off channel=7 note=60 velocity=0 time=4
note_off channel=7 note=63 velocity=0 time=6
note_off channel=7 note=67 velocity=0 time=5
note_off channel=6 note=51 velocity=0 time=3
note_off channel=6 note=44 velocity=0 time=22
note_off channel=2 note=58 velocity=0 time=15
note_off channel=4 note=63 velocity=0 time=3
note_off channel=4 note=67 velocity=0 time=1
note_off channel=4 note=70 velocity=0 time=0
note_off channel=3 note=82 velocity=0 time=17
note_off channel=1 note=32 velocity=0 time=91
note_off channel=10 note=44 velocity=0 time=8
note_on channel=1 note=32 velocity=118 time=13
note_on channel=4 note=65 velocity=102 time=0
note_on channel=4 note=68 velocity=123 time=0
note_on channel=4 note=72 velocity=123 time=0
note_on channel=7 note=60 velocity=125 time=0
note_on channel=7 note=63 velocity=116 time=0
note_on channel=7 note=67 velocity=110 time=0
note_on channel=8 note=51 velocity=127 time=0
note_on channel=8 note=54 velocity=97 time=0
note_on channel=8 note=56 velocity=127 time=0
note_on channel=9 note=39 velocity=85 time=0
note_on channel=9 note=40 velocity=116 time=0
note_on channel=9 note=51 velocity=127 time=0
note_on channel=9 note=53 velocity=106 time=0
note_on channel=9 note=54 velocity=116 time=0
note_off channel=8 note=54 velocity=0 time=4
note_on channel=10 note=44 velocity=118 time=4
note_on channel=6 note=44 velocity=127 time=3
note_on channel=6 note=51 velocity=127 time=0
note_off channel=9 note=39 velocity=0 time=17
note_off channel=9 note=40 velocity=0 time=0
note_off channel=9 note=54 velocity=0 time=0
note_off channel=7 note=60 velocity=0 time=28
note_off channel=7 note=63 velocity=0 time=6
note_off channel=7 note=67 velocity=0 time=10
note_off channel=6 note=51 velocity=0 time=7
note_off channel=8 note=51 velocity=0 time=3
note_off channel=6 note=44 velocity=0 time=12
note_off channel=8 note=56 velocity=0 time=8
note_off channel=9 note=51 velocity=0 time=112
note_off channel=1 note=32 velocity=0 time=5
note_off channel=9 note=53 velocity=0 time=1
note_off channel=10 note=44 velocity=0 time=7
note_on channel=1 note=32 velocity=113 time=13
note_on channel=7 note=60 velocity=115 time=0
note_on channel=7 note=63 velocity=111 time=0
note_on channel=7 note=67 velocity=110 time=0
note_on channel=8 note=51 velocity=116 time=0
note_on channel=8 note=54 velocity=101 time=0
note_on channel=8 note=56 velocity=123 time=0
note_off channel=8 note=54 velocity=0 time=6
note_on channel=10 note=44 velocity=113 time=2
note_on channel=6 note=44 velocity=123 time=3
note_on channel=6 note=51 velocity=127 time=0
note_on channel=3 note=79 velocity=125 time=0
note_off channel=4 note=68 velocity=0 time=5
note_off channel=4 note=72 velocity=0 time=0
note_off channel=4 note=65 velocity=0 time=20
note_off channel=7 note=60 velocity=0 time=10
note_off channel=7 note=63 velocity=0 time=3
note_off channel=8 note=51 velocity=0 time=1
note_off channel=6 note=51 velocity=0 time=12
note_off channel=7 note=67 velocity=0 time=3
note_off channel=8 note=56 velocity=0 time=0
note_off channel=3 note=79 velocity=0 time=9
note_off channel=6 note=44 velocity=0 time=15
note_on channel=4 note=63 velocity=123 time=19
note_on channel=4 note=67 velocity=115 time=0
note_on channel=4 note=70 velocity=115 time=0
note_off channel=8 note=44 velocity=0 time=36
note_off channel=7 note=32 velocity=0 time=55
note_off channel=7 note=44 velocity=0 time=0
note_off channel=1 note=32 velocity=0 time=8
note_off channel=4 note=63 velocity=0 time=0
note_off channel=4 note=67 velocity=0 time=1
note_off channel=4 note=70 velocity=0 time=0
note_off channel=10 note=44 velocity=0 time=7
note_on channel=1 note=34 velocity=113 time=13
note_on channel=7 note=34 velocity=115 time=0
note_on channel=7 note=46 velocity=115 time=0
note_on channel=7 note=62 velocity=98 time=0
note_on channel=7 note=65 velocity=90 time=0
note_on channel=7 note=70 velocity=101 time=0
note_on channel=8 note=53 velocity=102 time=0
note_on channel=8 note=58 velocity=123 time=0
note_on channel=9 note=35 velocity=116 time=0
note_on channel=9 note=51 velocity=116 time=0
note_on channel=9 note=53 velocity=83 time=0
note_on channel=10 note=46 velocity=113 time=8
note_on channel=6 note=46 velocity=127 time=3
note_on channel=6 note=53 velocity=115 time=0
note_on channel=3 note=82 velocity=127 time=0
note_off channel=9 note=35 velocity=0 time=1
note_off channel=7 note=65 velocity=0 time=38
note_off channel=7 note=70 velocity=0 time=3
note_off channel=8 note=53 velocity=0 time=8
note_off channel=6 note=53 velocity=0 time=2
note_off channel=6 note=46 velocity=0 time=3
note_off channel=7 note=62 velocity=0 time=2
note_off channel=8 note=58 velocity=0 time=4
note_off channel=9 note=51 velocity=0 time=108
note_off channel=9 note=53 velocity=0 time=5
note_off channel=1 note=34 velocity=0 time=18
note_off channel=10 note=46 velocity=0 time=8
note_off channel=3 note=82 velocity=0 time=7
note_on channel=1 note=34 velocity=118 time=6
note_on channel=7 note=62 velocity=90 time=0
note_on channel=7 note=65 velocity=74 time=0
note_on channel=7 note=70 velocity=89 time=0
note_on channel=8 note=53 velocity=110 time=0
note_on channel=8 note=58 velocity=127 time=0
note_on channel=9 note=35 velocity=116 time=0
note_on channel=10 note=46 velocity=118 time=8
note_on channel=6 note=46 velocity=127 time=3
note_on channel=6 note=53 velocity=115 time=0
note_off channel=9 note=35 velocity=0 time=17
note_on channel=3 note=79 velocity=106 time=0
note_off channel=7 note=70 velocity=0 time=26
note_off channel=7 note=65 velocity=0 time=2
note_off channel=8 note=53 velocity=0 time=7
note_off channel=7 note=62 velocity=0 time=5
note_off channel=6 note=53 velocity=0 time=2
note_off channel=8 note=58 velocity=0 time=1
note_off channel=6 note=46 velocity=0 time=8
note_off channel=3 note=79 velocity=0 time=17
note_off channel=1 note=34 velocity=0 time=119
note_off channel=10 note=46 velocity=0 time=8
note_on channel=1 note=34 velocity=113 time=13
note_on channel=7 note=62 velocity=106 time=0
note_on channel=7 note=65 velocity=98 time=0
note_on channel=7 note=70 velocity=111 time=0
note_on channel=8 note=53 velocity=110 time=0
note_on channel=8 note=58 velocity=127 time=0
note_on channel=9 note=39 velocity=85 time=0
note_on channel=9 note=40 velocity=116 time=0
note_on channel=9 note=51 velocity=123 time=0
note_on channel=9 note=53 velocity=106 time=0
note_on channel=9 note=54 velocity=116 time=0
note_on channel=10 note=46 velocity=113 time=8
note_on channel=6 note=46 velocity=123 time=3
note_on channel=6 note=53 velocity=110 time=0
note_on channel=3 note=82 velocity=127 time=0
note_off channel=9 note=39 velocity=0 time=6
note_off channel=9 note=40 velocity=0 time=0
note_off channel=9 note=54 velocity=0 time=0
note_off channel=7 note=65 velocity=0 time=34
note_off channel=7 note=70 velocity=0 time=3
note_off channel=7 note=62 velocity=0 time=7
note_off channel=6 note=53 velocity=0 time=5
note_off channel=8 note=53 velocity=0 time=4
note_off channel=6 note=46 velocity=0 time=3
note_off channel=8 note=58 velocity=0 time=5
note_off channel=3 note=82 velocity=0 time=126
note_off channel=1 note=34 velocity=0 time=4
note_off channel=10 note=46 velocity=0 time=8
note_off channel=9 note=51 velocity=0 time=11
note_off channel=9 note=53 velocity=0 time=2
note_on channel=1 note=34 velocity=118 time=0
note_on channel=7 note=62 velocity=106 time=0
note_on channel=7 note=65 velocity=98 time=0
note_on channel=7 note=70 velocity=105 time=0
note_on channel=8 note=53 velocity=115 time=0
note_on channel=8 note=58 velocity=123 time=0
note_on channel=9 note=40 velocity=116 time=0
note_on channel=10 note=46 velocity=118 time=8
note_on channel=6 note=46 velocity=127 time=3
note_on channel=6 note=53 velocity=125 time=0
note_on channel=3 note=79 velocity=106 time=0
note_off channel=9 note=40 velocity=0 time=15
note_off channel=7 note=65 velocity=0 time=28
note_off channel=7 note=70 velocity=0 time=3
note_off channel=6 note=53 velocity=0 time=13
note_off channel=7 note=62 velocity=0 time=0
note_off channel=6 note=46 velocity=0 time=10
note_off channel=8 note=53 velocity=0 time=3
note_off channel=8 note=58 velocity=0 time=3
note_off channel=3 note=79 velocity=0 time=26
note_on channel=9 note=40 velocity=116 time=6
note_off channel=9 note=40 velocity=0 time=28
note_off channel=7 note=34 velocity=0 time=63
note_off channel=7 note=46 velocity=0 time=0
note_off channel=1 note=34 velocity=0 time=8
note_off channel=10 note=46 velocity=0 time=8
note_on channel=1 note=36 velocity=113 time=13
note_on channel=2 note=60 velocity=106 time=0
note_on channel=2 note=63 velocity=89 time=0
note_on channel=4 note=63 velocity=116 time=0
note_on channel=4 note=67 velocity=102 time=0
note_on channel=4 note=70 velocity=102 time=0
note_on channel=7 note=36 velocity=115 time=0
note_on channel=7 note=48 velocity=115 time=0
note_on channel=7 note=67 velocity=106 time=0
note_on channel=7 note=72 velocity=125 time=0
note_on channel=7 note=75 velocity=116 time=0
note_on channel=8 note=48 velocity=125 time=0
note_on channel=8 note=55 velocity=115 time=0
note_on channel=8 note=60 velocity=120 time=0
note_on channel=9 note=35 velocity=116 time=0
note_on channel=9 note=49 velocity=98 time=0
note_on channel=9 note=51 velocity=116 time=0
note_on channel=9 note=53 velocity=83 time=0
note_on channel=10 note=48 velocity=113 time=8
note_on channel=6 note=48 velocity=127 time=3
note_on channel=6 note=55 velocity=125 time=0
note_on channel=3 note=84 velocity=115 time=0
note_off channel=9 note=35 velocity=0 time=14
note_off channel=9 note=49 velocity=0 time=0
note_off channel=7 note=72 velocity=0 time=9
note_off channel=7 note=75 velocity=0 time=1
note_off channel=6 note=55 velocity=0 time=13
note_off channel=7 note=67 velocity=0 time=2
note_off channel=6 note=48 velocity=0 time=8
note_off channel=8 note=60 velocity=0 time=32
note_off channel=8 note=55 velocity=0 time=2
note_off channel=4 note=63 velocity=0 time=29
note_off channel=4 note=67 velocity=0 time=2
note_off channel=4 note=70 velocity=0 time=0
note_off channel=8 note=48 velocity=0 time=56
note_off channel=9 note=51 velocity=0 time=16
note_off channel=9 note=53 velocity=0 time=0
note_off channel=1 note=36 velocity=0 time=21
note_off channel=10 note=48 velocity=0 time=8
note_on channel=1 note=36 velocity=113 time=13
note_on channel=4 note=63 velocity=116 time=0
note_on channel=4 note=67 velocity=87 time=0
note_on channel=4 note=70 velocity=87 time=0
note_on channel=7 note=67 velocity=77 time=0
note_on channel=7 note=72 velocity=106 time=0
note_on channel=7 note=75 velocity=86 time=0
note_on channel=8 note=55 velocity=90 time=0
note_on channel=8 note=60 velocity=102 time=0
note_on channel=9 note=35 velocity=116 time=0
note_on channel=10 note=48 velocity=113 time=8
note_on channel=6 note=48 velocity=125 time=3
note_on channel=6 note=55 velocity=125 time=0
note_off channel=9 note=35 velocity=0 time=17
note_off channel=7 note=75 velocity=0 time=3
note_off channel=7 note=72 velocity=0 time=6
note_off channel=6 note=55 velocity=0 time=7
note_off channel=7 note=67 velocity=0 time=6
note_off channel=6 note=48 velocity=0 time=10
note_off channel=8 note=60 velocity=0 time=2
note_off channel=8 note=55 velocity=0 time=7
note_off channel=4 note=63 velocity=0 time=41
note_off channel=4 note=67 velocity=0 time=1
note_off channel=4 note=70 velocity=0 time=0
note_off channel=1 note=36 velocity=0 time=108
note_off channel=10 note=48 velocity=0 time=8
note_on channel=1 note=36 velocity=118 time=13
note_on channel=4 note=65 velocity=102 time=0
note_on channel=4 note=68 velocity=123 time=0
note_on channel=4 note=72 velocity=123 time=0
note_on channel=7 note=67 velocity=120 time=0
note_on channel=7 note=72 velocity=127 time=0
note_on channel=7 note=75 velocity=127 time=0
note_on channel=8 note=48 velocity=127 time=0
note_on channel=8 note=55 velocity=125 time=0
note_on channel=8 note=60 velocity=127 time=0
note_on channel=9 note=39 velocity=85 time=0
note_on channel=9 note=40 velocity=116 time=0
note_on channel=9 note=51 velocity=123 time=0
note_on channel=9 note=53 velocity=102 time=0
note_on channel=9 note=54 velocity=116 time=0
note_on channel=10 note=48 velocity=118 time=8
note_on channel=6 note=48 velocity=127 time=3
note_on channel=6 note=55 velocity=127 time=0
note_off channel=9 note=39 velocity=0 time=17
note_off channel=9 note=40 velocity=0 time=0
note_off channel=9 note=54 velocity=0 time=0
note_off channel=6 note=55 velocity=0 time=34
note_off channel=7 note=72 velocity=0 time=1
note_off channel=7 note=75 velocity=0 time=5
note_off channel=7 note=67 velocity=0 time=4
note_off channel=6 note=48 velocity=0 time=14
note_off channel=8 note=55 velocity=0 time=3
note_off channel=8 note=60 velocity=0 time=21
note_off channel=8 note=48 velocity=0 time=7
note_off channel=9 note=51 velocity=0 time=10
note_off channel=9 note=53 velocity=0 time=10
note_off channel=1 note=36 velocity=0 time=1
note_off channel=10 note=48 velocity=0 time=8
note_on channel=1 note=36 velocity=113 time=11
note_on channel=7 note=67 velocity=74 time=0
note_on channel=7 note=72 velocity=98 time=0
note_on channel=7 note=75 velocity=97 time=0
note_on channel=8 note=55 velocity=102 time=0
note_on channel=8 note=60 velocity=115 time=0
note_on channel=10 note=48 velocity=113 time=4
note_on channel=6 note=48 velocity=125 time=3
note_on channel=6 note=55 velocity=120 time=0
note_off channel=4 note=68 velocity=0 time=9
note_off channel=4 note=72 velocity=0 time=0
note_off channel=4 note=65 velocity=0 time=14
note_off channel=6 note=55 velocity=0 time=4
note_off channel=7 note=72 velocity=0 time=1
note_off channel=7 note=75 velocity=0 time=6
note_off channel=6 note=48 velocity=0 time=8
note_off channel=7 note=67 velocity=0 time=1
note_off channel=8 note=60 velocity=0 time=10
note_off channel=8 note=55 velocity=0 time=3
note_on channel=4 note=63 velocity=123 time=6
note_on channel=4 note=67 velocity=115 time=0
note_on channel=4 note=70 velocity=115 time=0
note_off channel=1 note=36 velocity=0 time=36
note_off channel=4 note=63 velocity=0 time=0
note_off channel=4 note=67 velocity=0 time=1
note_off channel=4 note=70 velocity=0 time=0
note_off channel=10 note=48 velocity=0 time=7
note_on channel=1 note=36 velocity=113 time=13
note_on channel=7 note=67 velocity=106 time=0
note_on channel=7 note=72 velocity=127 time=0
note_on channel=7 note=75 velocity=116 time=0
note_on channel=8 note=55 velocity=115 time=0
note_on channel=8 note=60 velocity=127 time=0
note_on channel=9 note=35 velocity=116 time=0
note_on channel=9 note=51 velocity=116 time=0
note_on channel=9 note=53 velocity=80 time=0
note_on channel=10 note=48 velocity=113 time=8
note_on channel=6 note=48 velocity=127 time=3
note_on channel=6 note=55 velocity=120 time=0
note_off channel=9 note=35 velocity=0 time=1
note_off channel=6 note=55 velocity=0 time=11
note_off channel=7 note=72 velocity=0 time=1
note_off channel=7 note=75 velocity=0 time=7
note_off channel=7 note=67 velocity=0 time=2
note_off channel=6 note=48 velocity=0 time=7
note_off channel=8 note=60 velocity=0 time=39
note_off channel=8 note=55 velocity=0 time=4
note_off channel=3 note=84 velocity=0 time=48
note_off channel=9 note=51 velocity=0 time=39
note_off channel=9 note=53 velocity=0 time=1
note_off channel=1 note=36 velocity=0 time=3
note_off channel=10 note=48 velocity=0 time=8
note_on channel=1 note=36 velocity=118 time=13
note_on channel=7 note=67 velocity=71 time=0
note_on channel=7 note=72 velocity=90 time=0
note_on channel=7 note=75 velocity=81 time=0
note_on channel=8 note=55 velocity=83 time=0
note_on channel=8 note=60 velocity=102 time=0
note_on channel=9 note=35 velocity=116 time=0
note_on channel=10 note=48 velocity=118 time=8
note_on channel=6 note=48 velocity=120 time=3
note_on channel=6 note=55 velocity=115 time=0
note_on channel=3 note=84 velocity=106 time=0
note_off channel=9 note=35 velocity=0 time=13
note_off channel=7 note=72 velocity=0 time=19
note_off channel=7 note=75 velocity=0 time=0
note_off channel=6 note=55 velocity=0 time=1
note_off channel=6 note=48 velocity=0 time=9
note_off channel=8 note=60 velocity=0 time=0
note_off channel=7 note=67 velocity=0 time=7
note_off channel=8 note=55 velocity=0 time=9
note_off channel=3 note=84 velocity=0 time=140
note_off channel=1 note=36 velocity=0 time=6
note_off channel=10 note=48 velocity=0 time=8
note_on channel=1 note=36 velocity=113 time=13
note_on channel=7 note=67 velocity=115 time=0
note_on channel=7 note=72 velocity=127 time=0
note_on channel=7 note=75 velocity=123 time=0
note_on channel=8 note=48 velocity=127 time=0
note_on channel=8 note=55 velocity=125 time=0
note_on channel=8 note=60 velocity=127 time=0
note_on channel=9 note=39 velocity=85 time=0
note_on channel=9 note=40 velocity=116 time=0
note_on channel=9 note=51 velocity=127 time=0
note_on channel=9 note=53 velocity=102 time=0
note_on channel=9 note=54 velocity=116 time=0
note_on channel=10 note=48 velocity=113 time=8
note_on channel=6 note=48 velocity=127 time=3
note_on channel=6 note=55 velocity=125 time=0
note_off channel=2 note=63 velocity=0 time=5
note_off channel=9 note=39 velocity=0 time=12
note_off channel=9 note=40 velocity=0 time=0
note_off channel=9 note=54 velocity=0 time=0
note_on channel=3 note=84 velocity=125 time=0
pitchwheel channel=3 pitch=520 time=27
note_off channel=2 note=60 velocity=0 time=1
pitchwheel channel=3 pitch=1690 time=9
note_off channel=6 note=55 velocity=0 time=4
note_off channel=7 note=72 velocity=0 time=1
pitchwheel channel=3 pitch=3380 time=5
note_off channel=7 note=75 velocity=0 time=10
pitchwheel channel=3 pitch=5720 time=0
note_off channel=6 note=48 velocity=0 time=1
note_off channel=7 note=67 velocity=0 time=1
pitchwheel channel=3 pitch=8191 time=8
note_off channel=8 note=60 velocity=0 time=12
note_off channel=8 note=55 velocity=0 time=4
note_off channel=3 note=84 velocity=0 time=87
pitchwheel channel=3 pitch=6370 time=10
note_off channel=9 note=51 velocity=0 time=1
note_off channel=9 note=53 velocity=0 time=3
note_off channel=1 note=36 velocity=0 time=4
pitchwheel channel=3 pitch=0 time=3
note_off channel=10 note=48 velocity=0 time=5
note_on channel=1 note=36 velocity=118 time=13
note_on channel=2 note=58 velocity=111 time=0
note_on channel=2 note=62 velocity=102 time=0
note_on channel=7 note=67 velocity=106 time=0
note_on channel=7 note=72 velocity=115 time=0
note_on channel=7 note=75 velocity=105 time=0
note_on channel=8 note=55 velocity=98 time=0
note_on channel=8 note=60 velocity=115 time=0
note_on channel=10 note=48 velocity=118 time=8
note_on channel=6 note=48 velocity=125 time=3
note_on channel=6 note=55 velocity=125 time=0
note_on channel=3 note=82 velocity=123 time=0
note_off channel=7 note=72 velocity=0 time=49
note_off channel=6 note=55 velocity=0 time=7
note_off channel=7 note=75 velocity=0 time=2
note_off channel=8 note=60 velocity=0 time=7
note_off channel=7 note=67 velocity=0 time=4
note_off channel=8 note=55 velocity=0 time=16
note_off channel=6 note=48 velocity=0 time=11
note_off channel=7 note=36 velocity=0 time=102
note_off channel=7 note=48 velocity=0 time=0
note_off channel=8 note=48 velocity=0 time=1
note_off channel=1 note=36 velocity=0 time=7
note_off channel=10 note=48 velocity=0 time=8
note_on channel=1 note=34 velocity=113 time=13
note_on channel=4 note=63 velocity=116 time=0
note_on channel=4 note=67 velocity=102 time=0
note_on channel=4 note=70 velocity=102 time=0
note_on channel=7 note=34 velocity=115 time=0
note_on channel=7 note=46 velocity=115 time=0
note_on channel=7 note=65 velocity=83 time=0
note_on channel=7 note=70 velocity=105 time=0
note_on channel=7 note=74 velocity=102 time=0
note_on channel=8 note=53 velocity=90 time=0
note_on channel=8 note=58 velocity=123 time=0
note_on channel=9 note=35 velocity=116 time=0
note_on channel=9 note=51 velocity=116 time=0
note_on channel=9 note=53 velocity=83 time=0
note_on channel=10 note=46 velocity=113 time=8
note_on channel=6 note=46 velocity=127 time=3
note_on channel=6 note=53 velocity=115 time=0
note_off channel=9 note=35 velocity=0 time=17
note_off channel=7 note=74 velocity=0 time=35
note_off channel=6 note=53 velocity=0 time=11
note_off channel=7 note=65 velocity=0 time=0
note_off channel=7 note=70 velocity=0 time=1
note_off channel=6 note=46 velocity=0 time=6
note_off channel=2 note=58 velocity=0 time=7
note_off channel=2 note=62 velocity=0 time=8
note_off channel=8 note=53 velocity=0 time=11
note_off channel=8 note=58 velocity=0 time=6
note_off channel=4 note=63 velocity=0 time=11
note_off channel=4 note=67 velocity=0 time=2
note_off channel=4 note=70 velocity=0 time=0
note_off channel=9 note=51 velocity=0 time=77
note_off channel=9 note=53 velocity=0 time=6
note_off channel=1 note=34 velocity=0 time=10
note_off channel=10 note=46 velocity=0 time=8
note_on channel=1 note=34 velocity=113 time=13
note_on channel=4 note=63 velocity=116 time=0
note_on channel=4 note=67 velocity=87 time=0
note_on channel=4 note=70 velocity=87 time=0
note_on channel=7 note=65 velocity=63 time=0
note_on channel=7 note=70 velocity=81 time=0
note_on channel=7 note=74 velocity=56 time=0
note_on channel=8 note=53 velocity=67 time=0
note_on channel=8 note=58 velocity=86 time=0
note_on channel=9 note=35 velocity=116 time=0
note_on channel=10 note=46 velocity=113 time=8
note_on channel=6 note=46 velocity=123 time=3
note_on channel=6 note=53 velocity=120 time=0
note_off channel=9 note=35 velocity=0 time=17
note_off channel=7 note=74 velocity=0 time=9
note_off channel=7 note=65 velocity=0 time=15
note_off channel=8 note=58 velocity=0 time=1
note_off channel=7 note=70 velocity=0 time=1
note_off channel=6 note=53 velocity=0 time=16
note_off channel=8 note=53 velocity=0 time=2
note_off channel=6 note=46 velocity=0 time=1
note_off channel=4 note=63 velocity=0 time=37
note_off channel=4 note=67 velocity=0 time=1
note_off channel=4 note=70 velocity=0 time=0
note_off channel=1 note=34 velocity=0 time=108
note_off channel=10 note=46 velocity=0 time=8
note_on channel=1 note=34 velocity=118 time=13
note_on channel=4 note=65 velocity=102 time=0
note_on channel=4 note=68 velocity=123 time=0
note_on channel=4 note=72 velocity=123 time=0
note_on channel=7 note=65 velocity=106 time=0
note_on channel=7 note=70 velocity=116 time=0
note_on channel=7 note=74 velocity=115 time=0
note_on channel=8 note=46 velocity=127 time=0
note_on channel=8 note=53 velocity=110 time=0
note_on channel=8 note=58 velocity=127 time=0
note_on channel=9 note=39 velocity=85 time=0
note_on channel=9 note=40 velocity=116 time=0
note_on channel=9 note=51 velocity=127 time=0
note_on channel=9 note=53 velocity=102 time=0
note_on channel=9 note=54 velocity=116 time=0
note_on channel=10 note=46 velocity=118 time=8
note_on channel=6 note=46 velocity=127 time=3
note_on channel=6 note=53 velocity=125 time=0
note_off channel=9 note=39 velocity=0 time=17
note_off channel=9 note=40 velocity=0 time=0
note_off channel=9 note=54 velocity=0 time=0
note_off channel=3 note=82 velocity=0 time=19
note_off channel=7 note=65 velocity=0 time=23
note_off channel=7 note=70 velocity=0 time=0
note_off channel=7 note=74 velocity=0 time=13
note_off channel=6 note=53 velocity=0 time=6
note_off channel=6 note=46 velocity=0 time=28
note_off channel=8 note=53 velocity=0 time=13
note_off channel=8 note=58 velocity=0 time=1
note_off channel=9 note=51 velocity=0 time=83
note_off channel=9 note=53 velocity=0 time=0
note_off channel=1 note=34 velocity=0 time=5
note_off channel=10 note=46 velocity=0 time=8
note_on channel=1 note=34 velocity=113 time=13
note_on channel=7 note=65 velocity=74 time=0
note_on channel=7 note=70 velocity=93 time=0
note_on channel=7 note=74 velocity=83 time=0
note_on channel=8 note=53 velocity=80 time=0
note_on channel=8 note=58 velocity=116 time=0
note_on channel=10 note=46 velocity=113 time=8
note_on channel=6 note=46 velocity=111 time=3
note_on channel=6 note=53 velocity=106 time=0
note_off channel=4 note=68 velocity=0 time=17
note_off channel=4 note=72 velocity=0 time=0
note_off channel=4 note=65 velocity=0 time=20
note_off channel=7 note=65 velocity=0 time=18
note_off channel=7 note=70 velocity=0 time=2
note_off channel=6 note=53 velocity=0 time=8
note_off channel=7 note=74 velocity=0 time=0
note_off channel=6 note=46 velocity=0 time=4
note_off channel=8 note=53 velocity=0 time=9
note_off channel=8 note=58 velocity=0 time=8
note_on channel=4 note=63 velocity=123 time=23
note_on channel=4 note=67 velocity=115 time=0
note_on channel=4 note=70 velocity=115 time=0
note_off channel=1 note=34 velocity=0 time=99
note_off channel=4 note=63 velocity=0 time=0
note_off channel=4 note=67 velocity=0 time=1
note_off channel=4 note=70 velocity=0 time=0
note_off channel=10 note=46 velocity=0 time=7
note_on channel=1 note=34 velocity=113 time=13
note_on channel=7 note=65 velocity=90 time=0
note_on channel=7 note=70 velocity=101 time=0
note_on channel=7 note=74 velocity=98 time=0
note_on channel=8 note=53 velocity=90 time=0
note_on channel=8 note=58 velocity=123 time=0
note_on channel=9 note=35 velocity=116 time=0
note_on channel=9 note=51 velocity=123 time=0
note_on channel=9 note=53 velocity=87 time=0
note_on channel=10 note=46 velocity=113 time=8
note_on channel=6 note=46 velocity=127 time=3
note_on channel=6 note=53 velocity=120 time=0
note_off channel=9 note=35 velocity=0 time=17
note_off channel=7 note=65 velocity=0 time=38
note_off channel=7 note=70 velocity=0 time=3
note_off channel=7 note=74 velocity=0 time=15
note_off channel=6 note=53 velocity=0 time=3
note_off channel=6 note=46 velocity=0 time=6
note_off channel=8 note=53 velocity=0 time=4
note_off channel=8 note=58 velocity=0 time=12
note_off channel=9 note=51 velocity=0 time=92
note_off channel=9 note=53 velocity=0 time=2
note_off channel=1 note=34 velocity=0 time=16
note_off channel=10 note=46 velocity=0 time=8
note_on channel=3 note=79 velocity=120 time=0
note_on channel=1 note=34 velocity=118 time=4
note_on channel=7 note=65 velocity=74 time=0
note_on channel=7 note=70 velocity=89 time=0
note_on channel=7 note=74 velocity=90 time=0
note_on channel=8 note=53 velocity=63 time=0
note_on channel=8 note=58 velocity=97 time=0
note_on channel=9 note=35 velocity=116 time=0
note_off channel=8 note=46 velocity=0 time=1
note_on channel=10 note=46 velocity=118 time=7
note_on channel=6 note=46 velocity=116 time=3
note_on channel=6 note=53 velocity=110 time=0
note_off channel=9 note=35 velocity=0 time=17
note_off channel=8 note=58 velocity=0 time=17
note_off channel=8 note=53 velocity=0 time=6
note_off channel=7 note=70 velocity=0 time=7
note_off channel=7 note=65 velocity=0 time=2
note_off channel=7 note=74 velocity=0 time=12
note_off channel=6 note=53 velocity=0 time=4
note_off channel=6 note=46 velocity=0 time=4
note_off channel=3 note=79 velocity=0 time=87
note_off channel=1 note=34 velocity=0 time=52
note_on channel=3 note=79 velocity=120 time=0
note_off channel=10 note=46 velocity=0 time=6
note_on channel=1 note=34 velocity=113 time=13
note_on channel=7 note=65 velocity=98 time=0
note_on channel=7 note=70 velocity=111 time=0
note_on channel=7 note=74 velocity=106 time=0
note_on channel=8 note=46 velocity=123 time=0
note_on channel=8 note=53 velocity=102 time=0
note_on channel=8 note=58 velocity=127 time=0
note_on channel=9 note=39 velocity=85 time=0
note_on channel=9 note=40 velocity=116 time=0
note_on channel=9 note=51 velocity=123 time=0
note_on channel=9 note=53 velocity=102 time=0
note_on channel=9 note=54 velocity=116 time=0
note_on channel=10 note=46 velocity=113 time=8
note_on channel=6 note=46 velocity=127 time=3
note_on channel=6 note=53 velocity=120 time=0
note_off channel=9 note=39 velocity=0 time=17
note_off channel=9 note=40 velocity=0 time=0
note_off channel=9 note=54 velocity=0 time=0
note_off channel=7 note=65 velocity=0 time=34
note_off channel=7 note=70 velocity=0 time=3
note_off channel=7 note=74 velocity=0 time=7
note_off channel=6 note=53 velocity=0 time=11
note_off channel=6 note=46 velocity=0 time=7
note_off channel=8 note=53 velocity=0 time=13
note_off channel=8 note=58 velocity=0 time=14
note_off channel=3 note=79 velocity=0 time=62
note_off channel=1 note=34 velocity=0 time=40
note_off channel=10 note=46 velocity=0 time=8
note_off channel=9 note=51 velocity=0 time=1
note_off channel=9 note=53 velocity=0 time=1
note_on channel=1 note=34 velocity=118 time=0
note_on channel=3 note=80 velocity=123 time=0
note_on channel=7 note=65 velocity=98 time=0
note_on channel=7 note=70 velocity=105 time=0
note_on channel=7 note=74 velocity=106 time=0
note_on channel=8 note=53 velocity=98 time=0
note_on channel=8 note=58 velocity=111 time=0
note_on channel=10 note=46 velocity=118 time=8
note_on channel=6 note=46 velocity=123 time=3
note_on channel=6 note=53 velocity=115 time=0
note_off channel=7 note=65 velocity=0 time=45
note_off channel=7 note=70 velocity=0 time=3
note_off channel=8 note=58 velocity=0 time=4
note_off channel=7 note=74 velocity=0 time=9
note_off channel=6 note=46 velocity=0 time=10
note_off channel=6 note=53 velocity=0 time=9
note_off channel=8 note=53 velocity=0 time=2
note_off channel=7 note=34 velocity=0 time=118
note_off channel=7 note=46 velocity=0 time=0
note_off channel=1 note=34 velocity=0 time=8
note_off channel=10 note=46 velocity=0 time=8
note_off channel=8 note=46 velocity=0 time=6
note_on channel=1 note=32 velocity=113 time=7
note_on channel=4 note=63 velocity=116 time=0
note_on channel=4 note=67 velocity=102 time=0
note_on channel=4 note=70 velocity=102 time=0
note_on channel=7 note=32 velocity=115 time=0
note_on channel=7 note=44 velocity=115 time=0
note_on channel=7 note=60 velocity=125 time=0
note_on channel=7 note=63 velocity=116 time=0
note_on channel=7 note=67 velocity=115 time=0
note_on channel=8 note=51 velocity=127 time=0
note_on channel=8 note=56 velocity=123 time=0
note_on channel=9 note=35 velocity=116 time=0
note_on channel=9 note=51 velocity=116 time=0
note_on channel=9 note=53 velocity=87 time=0
note_on channel=10 note=44 velocity=113 time=8
note_on channel=6 note=44 velocity=116 time=3
note_on channel=6 note=51 velocity=127 time=0
note_off channel=9 note=35 velocity=0 time=17
note_off channel=7 note=63 velocity=0 time=29
note_off channel=7 note=60 velocity=0 time=3
note_off channel=7 note=67 velocity=0 time=9
note_off channel=6 note=51 velocity=0 time=3
note_off channel=6 note=44 velocity=0 time=42
note_off channel=4 note=63 velocity=0 time=10
note_off channel=8 note=51 velocity=0 time=1
note_off channel=4 note=67 velocity=0 time=1
note_off channel=4 note=70 velocity=0 time=0
note_off channel=3 note=80 velocity=0 time=8
note_off channel=8 note=56 velocity=0 time=19
note_off channel=9 note=53 velocity=0 time=50
note_off channel=9 note=51 velocity=0 time=4
note_off channel=1 note=32 velocity=0 time=12
note_off channel=10 note=44 velocity=0 time=8
note_on channel=1 note=32 velocity=113 time=13
note_on channel=4 note=63 velocity=116 time=0
note_on channel=4 note=67 velocity=87 time=0
note_on channel=4 note=70 velocity=87 time=0
note_on channel=7 note=60 velocity=110 time=0
note_on channel=7 note=63 velocity=105 time=0
note_on channel=7 note=67 velocity=102 time=0
note_on channel=8 note=51 velocity=101 time=0
note_on channel=8 note=56 velocity=86 time=0
note_on channel=9 note=35 velocity=116 time=0
note_on channel=10 note=44 velocity=113 time=8
note_on channel=3 note=80 velocity=123 time=0
note_on channel=6 note=44 velocity=116 time=2
note_on channel=6 note=51 velocity=116 time=0
note_off channel=9 note=35 velocity=0 time=17
note_off channel=7 note=60 velocity=0 time=14
note_off channel=7 note=63 velocity=0 time=4
note_off channel=8 note=56 velocity=0 time=0
note_off channel=7 note=67 velocity=0 time=5
note_off channel=6 note=51 velocity=0 time=5
note_off channel=8 note=51 velocity=0 time=0
note_off channel=6 note=44 velocity=0 time=23
note_off channel=4 note=63 velocity=0 time=31
note_off channel=4 note=67 velocity=0 time=1
note_off channel=4 note=70 velocity=0 time=0
note_off channel=3 note=80 velocity=0 time=19
note_off channel=1 note=32 velocity=0 time=89
note_off channel=10 note=44 velocity=0 time=8
note_on channel=3 note=79 velocity=125 time=0
note_on channel=1 note=32 velocity=118 time=7
note_on channel=4 note=65 velocity=102 time=0
note_on channel=4 note=68 velocity=123 time=0
note_on channel=4 note=72 velocity=123 time=0
note_on channel=7 note=60 velocity=127 time=0
note_on channel=7 note=63 velocity=123 time=0
note_on channel=7 note=67 velocity=125 time=0
note_on channel=8 note=44 velocity=123 time=0
note_on channel=8 note=51 velocity=127 time=0
note_on channel=8 note=54 velocity=123 time=0
note_on channel=8 note=56 velocity=127 time=0
note_on channel=9 note=39 velocity=85 time=0
note_on channel=9 note=40 velocity=116 time=0
note_on channel=9 note=51 velocity=123 time=0
note_on channel=9 note=53 velocity=95 time=0
note_on channel=9 note=54 velocity=116 time=0
note_on channel=10 note=44 velocity=118 time=8
note_on channel=6 note=44 velocity=127 time=3
note_on channel=6 note=51 velocity=127 time=0
note_off channel=8 note=54 velocity=0 time=4
note_off channel=9 note=39 velocity=0 time=13
note_off channel=9 note=40 velocity=0 time=0
note_off channel=9 note=54 velocity=0 time=0
note_off channel=7 note=60 velocity=0 time=30
note_off channel=7 note=63 velocity=0 time=2
note_off channel=6 note=51 velocity=0 time=13
note_off channel=7 note=67 velocity=0 time=2
note_off channel=3 note=79 velocity=0 time=4
note_off channel=8 note=51 velocity=0 time=8
note_off channel=6 note=44 velocity=0 time=20
note_off channel=8 note=56 velocity=0 time=5
note_off channel=1 note=32 velocity=0 time=107
note_off channel=9 note=51 velocity=0 time=1
note_off channel=10 note=44 velocity=0 time=7
note_off channel=9 note=53 velocity=0 time=2
note_on channel=1 note=32 velocity=113 time=11
note_on channel=7 note=60 velocity=125 time=0
note_on channel=7 note=63 velocity=111 time=0
note_on channel=7 note=67 velocity=102 time=0
note_on channel=8 note=51 velocity=111 time=0
note_on channel=8 note=56 velocity=101 time=0
note_on channel=3 note=80 velocity=127 time=0
note_on channel=10 note=44 velocity=113 time=4
note_on channel=6 note=44 velocity=116 time=3
note_on channel=6 note=51 velocity=116 time=0
note_off channel=4 note=68 velocity=0 time=17
note_off channel=4 note=72 velocity=0 time=0
note_off channel=4 note=65 velocity=0 time=20
note_off channel=7 note=60 velocity=0 time=5
note_off channel=7 note=63 velocity=0 time=0
note_off channel=7 note=67 velocity=0 time=8
note_off channel=6 note=51 velocity=0 time=6
note_off channel=8 note=51 velocity=0 time=8
note_off channel=8 note=56 velocity=0 time=2
note_off channel=6 note=44 velocity=0 time=16
note_on channel=4 note=63 velocity=123 time=27
note_on channel=4 note=67 velocity=115 time=0
note_on channel=4 note=70 velocity=115 time=0
note_off channel=1 note=32 velocity=0 time=99
note_off channel=4 note=63 velocity=0 time=0
note_off channel=4 note=67 velocity=0 time=1
note_off channel=4 note=70 velocity=0 time=0
note_off channel=10 note=44 velocity=0 time=7
note_on channel=1 note=32 velocity=113 time=13
note_on channel=7 note=60 velocity=120 time=0
note_on channel=7 note=63 velocity=116 time=0
note_on channel=7 note=67 velocity=110 time=0
note_on channel=8 note=51 velocity=123 time=0
note_on channel=8 note=54 velocity=86 time=0
note_on channel=8 note=56 velocity=116 time=0
note_on channel=9 note=35 velocity=116 time=0
note_on channel=9 note=51 velocity=116 time=0
note_on channel=9 note=53 velocity=90 time=0
note_off channel=8 note=54 velocity=0 time=6
note_on channel=10 note=44 velocity=113 time=2
note_on channel=6 note=44 velocity=123 time=3
note_on channel=6 note=51 velocity=127 time=0
note_off channel=9 note=35 velocity=0 time=17
note_off channel=7 note=60 velocity=0 time=26
note_off channel=7 note=63 velocity=0 time=7
note_off channel=7 note=67 velocity=0 time=8
note_off channel=8 note=51 velocity=0 time=4
note_off channel=6 note=51 velocity=0 time=3
note_off channel=8 note=56 velocity=0 time=12
note_off channel=6 note=44 velocity=0 time=13
note_off channel=3 note=80 velocity=0 time=28
note_off channel=9 note=51 velocity=0 time=85
note_off channel=1 note=32 velocity=0 time=5
note_off channel=9 note=53 velocity=0 time=4
note_off channel=10 note=44 velocity=0 time=4
note_on channel=1 note=32 velocity=118 time=13
note_on channel=7 note=60 velocity=115 time=0
note_on channel=7 note=63 velocity=111 time=0
note_on channel=7 note=67 velocity=106 time=0
note_on channel=8 note=51 velocity=101 time=0
note_on channel=8 note=56 velocity=75 time=0
note_on channel=9 note=35 velocity=116 time=0
note_on channel=10 note=44 velocity=118 time=8
note_on channel=6 note=44 velocity=123 time=3
note_on channel=6 note=51 velocity=123 time=0
note_on channel=3 note=80 velocity=123 time=0
note_off channel=9 note=35 velocity=0 time=14
note_off channel=8 note=56 velocity=0 time=6
note_off channel=8 note=51 velocity=0 time=5
note_off channel=7 note=60 velocity=0 time=17
note_off channel=7 note=63 velocity=0 time=5
note_off channel=6 note=51 velocity=0 time=6
note_off channel=7 note=67 velocity=0 time=7
note_off channel=6 note=44 velocity=0 time=9
note_off channel=3 note=80 velocity=0 time=14
note_off channel=1 note=32 velocity=0 time=122
note_off channel=10 note=44 velocity=0 time=8
note_on channel=1 note=32 velocity=113 time=13
note_on channel=7 note=60 velocity=120 time=0
note_on channel=7 note=63 velocity=116 time=0
note_on channel=7 note=67 velocity=90 time=0
note_on channel=8 note=51 velocity=127 time=0
note_on channel=8 note=56 velocity=127 time=0
note_on channel=9 note=39 velocity=85 time=0
note_on channel=9 note=40 velocity=116 time=0
note_on channel=9 note=51 velocity=127 time=0
note_on channel=9 note=53 velocity=95 time=0
note_on channel=9 note=54 velocity=116 time=0
note_on channel=10 note=44 velocity=113 time=8
note_on channel=6 note=44 velocity=127 time=3
note_on channel=6 note=51 velocity=127 time=0
note_on channel=3 note=79 velocity=125 time=0
note_off channel=9 note=39 velocity=0 time=4
note_off channel=9 note=40 velocity=0 time=0
note_off channel=9 note=54 velocity=0 time=0
note_off channel=7 note=60 velocity=0 time=27
note_off channel=7 note=63 velocity=0 time=5
note_off channel=7 note=67 velocity=0 time=10
note_off channel=6 note=51 velocity=0 time=5
note_off channel=8 note=51 velocity=0 time=15
note_off channel=6 note=44 velocity=0 time=1
note_off channel=8 note=56 velocity=0 time=13
note_off channel=3 note=79 velocity=0 time=3
note_off channel=9 note=51 velocity=0 time=105
note_off channel=1 note=32 velocity=0 time=7
note_off channel=9 note=53 velocity=0 time=1
note_off channel=10 note=44 velocity=0 time=7
note_off channel=8 note=44 velocity=0 time=9
note_on channel=1 note=32 velocity=118 time=4
note_on channel=7 note=60 velocity=120 time=0
note_on channel=7 note=63 velocity=116 time=0
note_on channel=7 note=67 velocity=110 time=0
note_on channel=8 note=51 velocity=116 time=0
note_on channel=8 note=56 velocity=111 time=0
note_on channel=10 note=44 velocity=118 time=8
note_on channel=6 note=44 velocity=123 time=3
note_on channel=6 note=51 velocity=123 time=0
note_on channel=3 note=80 velocity=127 time=0
note_off channel=8 note=51 velocity=0 time=36
note_off channel=7 note=60 velocity=0 time=4
note_off channel=7 note=63 velocity=0 time=7
note_off channel=6 note=51 velocity=0 time=7
note_off channel=7 note=67 velocity=0 time=0
note_off channel=8 note=56 velocity=0 time=0
note_off channel=6 note=44 velocity=0 time=7
note_off channel=7 note=32 velocity=0 time=135
note_off channel=7 note=44 velocity=0 time=0
note_off channel=1 note=32 velocity=0 time=8
note_off channel=10 note=44 velocity=0 time=8
note_on channel=1 note=32 velocity=113 time=13
note_on channel=4 note=63 velocity=116 time=0
note_on channel=4 note=67 velocity=102 time=0
note_on channel=4 note=70 velocity=102 time=0
note_on channel=7 note=32 velocity=115 time=0
note_on channel=7 note=44 velocity=115 time=0
note_on channel=7 note=60 velocity=125 time=0
note_on channel=7 note=63 velocity=111 time=0
note_on channel=7 note=67 velocity=110 time=0
note_on channel=8 note=44 velocity=116 time=0
note_on channel=8 note=51 velocity=127 time=0
note_on channel=8 note=54 velocity=116 time=0
note_on channel=8 note=56 velocity=127 time=0
note_on channel=9 note=35 velocity=116 time=0
note_on channel=9 note=51 velocity=123 time=0
note_on channel=9 note=53 velocity=95 time=0
note_on channel=10 note=44 velocity=113 time=8
note_off channel=8 note=54 velocity=0 time=1
note_on channel=6 note=44 velocity=123 time=2
note_on channel=6 note=51 velocity=127 time=0
note_off channel=9 note=35 velocity=0 time=17
note_off channel=7 note=60 velocity=0 time=26
note_off channel=7 note=63 velocity=0 time=2
note_off channel=7 note=67 velocity=0 time=10
note_off channel=8 note=51 velocity=0 time=8
note_off channel=6 note=51 velocity=0 time=3
note_off channel=8 note=56 velocity=0 time=17
note_off channel=6 note=44 velocity=0 time=4
note_off channel=3 note=80 velocity=0 time=8
note_on channel=9 note=40 velocity=116 time=14
note_off channel=4 note=63 velocity=0 time=4
note_off channel=4 note=67 velocity=0 time=2
note_off channel=4 note=70 velocity=0 time=0
note_off channel=9 note=40 velocity=0 time=22
note_off channel=9 note=51 velocity=0 time=64
note_off channel=1 note=32 velocity=0 time=7
note_off channel=9 note=53 velocity=0 time=0
note_off channel=10 note=44 velocity=0 time=8
note_on channel=1 note=32 velocity=113 time=13
note_on channel=4 note=63 velocity=116 time=0
note_on channel=4 note=67 velocity=87 time=0
note_on channel=4 note=70 velocity=87 time=0
note_on channel=7 note=60 velocity=106 time=0
note_on channel=7 note=63 velocity=101 time=0
note_on channel=7 note=67 velocity=95 time=0
note_on channel=8 note=51 velocity=123 time=0
note_on channel=8 note=54 velocity=89 time=0
note_on channel=8 note=56 velocity=116 time=0
note_on channel=9 note=35 velocity=116 time=0
note_off channel=8 note=54 velocity=0 time=4
note_on channel=3 note=80 velocity=127 time=0
note_on channel=10 note=44 velocity=113 time=0
note_on channel=6 note=44 velocity=123 time=3
note_on channel=6 note=51 velocity=127 time=0
note_off channel=9 note=35 velocity=0 time=17
note_off channel=8 note=51 velocity=0 time=22
note_off channel=8 note=56 velocity=0 time=2
note_off channel=7 note=60 velocity=0 time=4
note_off channel=7 note=63 velocity=0 time=6
note_off channel=7 note=67 velocity=0 time=5
note_off channel=6 note=51 velocity=0 time=3
note_off channel=3 note=80 velocity=0 time=19
note_off channel=6 note=44 velocity=0 time=3
note_off channel=4 note=63 velocity=0 time=18
note_off channel=4 note=67 velocity=0 time=1
note_off channel=4 note=70 velocity=0 time=0
note_off channel=1 note=32 velocity=0 time=108
note_off channel=10 note=44 velocity=0 time=8
note_on channel=1 note=32 velocity=118 time=13
note_on channel=4 note=65 velocity=102 time=0
note_on channel=4 note=68 velocity=123 time=0
note_on channel=4 note=72 velocity=123 time=0
note_on channel=7 note=60 velocity=125 time=0
note_on channel=7 note=63 velocity=116 time=0
note_on channel=7 note=67 velocity=110 time=0
note_on channel=8 note=51 velocity=127 time=0
note_on channel=8 note=54 velocity=97 time=0
note_on channel=8 note=56 velocity=127 time=0
note_on channel=9 note=39 velocity=85 time=0
note_on channel=9 note=40 velocity=116 time=0
note_on channel=9 note=51 velocity=123 time=0
note_on channel=9 note=53 velocity=98 time=0
note_on channel=9 note=54 velocity=116 time=0
note_off channel=8 note=54 velocity=0 time=4
note_on channel=10 note=44 velocity=118 time=4
note_on channel=6 note=44 velocity=127 time=3
note_on channel=6 note=51 velocity=127 time=0
note_on channel=3 note=79 velocity=120 time=0
note_off channel=9 note=39 velocity=0 time=1
note_off channel=9 note=40 velocity=0 time=0
note_off channel=9 note=54 velocity=0 time=0
note_off channel=7 note=60 velocity=0 time=28
note_off channel=7 note=63 velocity=0 time=6
note_off channel=7 note=67 velocity=0 time=10
note_off channel=6 note=51 velocity=0 time=7
note_off channel=8 note=51 velocity=0 time=3
note_off channel=6 note=44 velocity=0 time=12
note_off channel=8 note=56 velocity=0 time=8
note_off channel=3 note=79 velocity=0 time=2
note_off channel=9 note=51 velocity=0 time=96
note_off channel=9 note=53 velocity=0 time=4
note_off channel=1 note=32 velocity=0 time=15
note_off channel=10 note=44 velocity=0 time=8
note_on channel=1 note=32 velocity=113 time=0
note_on channel=3 note=80 velocity=127 time=0
note_on channel=7 note=60 velocity=115 time=0
note_on channel=7 note=63 velocity=111 time=0
note_on channel=7 note=67 velocity=110 time=0
note_on channel=8 note=51 velocity=116 time=0
note_on channel=8 note=54 velocity=101 time=0
note_on channel=8 note=56 velocity=123 time=0
note_off channel=8 note=54 velocity=0 time=6
note_on channel=10 note=44 velocity=113 time=2
note_on channel=6 note=44 velocity=123 time=3
note_on channel=6 note=51 velocity=127 time=0
note_off channel=4 note=68 velocity=0 time=17
note_off channel=4 note=72 velocity=0 time=0
note_off channel=4 note=65 velocity=0 time=20
note_off channel=7 note=60 velocity=0 time=10
note_off channel=7 note=63 velocity=0 time=3
note_off channel=8 note=51 velocity=0 time=1
note_off channel=6 note=51 velocity=0 time=12
note_off channel=7 note=67 velocity=0 time=3
note_off channel=8 note=56 velocity=0 time=0
note_off channel=6 note=44 velocity=0 time=24
note_on channel=4 note=63 velocity=123 time=19
note_on channel=4 note=67 velocity=115 time=0
note_on channel=4 note=70 velocity=115 time=0
note_off channel=8 note=44 velocity=0 time=36
note_off channel=7 note=32 velocity=0 time=55
note_off channel=7 note=44 velocity=0 time=0
note_off channel=1 note=32 velocity=0 time=8
note_off channel=4 note=63 velocity=0 time=0
note_off channel=4 note=67 velocity=0 time=1
note_off channel=4 note=70 velocity=0 time=0
note_off channel=10 note=44 velocity=0 time=7
note_on channel=1 note=34 velocity=113 time=13
note_on channel=7 note=34 velocity=115 time=0
note_on channel=7 note=46 velocity=115 time=0
note_on channel=7 note=62 velocity=98 time=0
note_on channel=7 note=65 velocity=90 time=0
note_on channel=7 note=70 velocity=101 time=0
note_on channel=8 note=53 velocity=102 time=0
note_on channel=8 note=58 velocity=123 time=0
note_on channel=9 note=35 velocity=116 time=0
note_on channel=9 note=51 velocity=116 time=0
note_on channel=9 note=53 velocity=87 time=0
note_on channel=10 note=46 velocity=113 time=8
note_on channel=6 note=46 velocity=127 time=3
note_on channel=6 note=53 velocity=115 time=0
note_off channel=9 note=35 velocity=0 time=17
note_off channel=7 note=65 velocity=0 time=38
note_off channel=7 note=70 velocity=0 time=3
note_off channel=8 note=53 velocity=0 time=8
note_off channel=6 note=53 velocity=0 time=2
note_off channel=6 note=46 velocity=0 time=3
note_off channel=7 note=62 velocity=0 time=2
note_off channel=8 note=58 velocity=0 time=4
note_off channel=3 note=80 velocity=0 time=79
note_off channel=1 note=34 velocity=0 time=52
note_off channel=9 note=51 velocity=0 time=0
note_off channel=10 note=46 velocity=0 time=8
note_off channel=9 note=53 velocity=0 time=4
note_on channel=1 note=34 velocity=118 time=0
note_on channel=3 note=80 velocity=127 time=0
note_on channel=7 note=62 velocity=90 time=0
note_on channel=7 note=65 velocity=74 time=0
note_on channel=7 note=70 velocity=89 time=0
note_on channel=8 note=53 velocity=110 time=0
note_on channel=8 note=58 velocity=127 time=0
note_on channel=9 note=35 velocity=116 time=0
note_on channel=9 note=40 velocity=116 time=0
note_on channel=10 note=46 velocity=118 time=8
note_on channel=6 note=46 velocity=127 time=3
note_on channel=6 note=53 velocity=115 time=0
note_off channel=9 note=35 velocity=0 time=17
note_off channel=9 note=40 velocity=0 time=0
note_off channel=7 note=70 velocity=0 time=30
note_off channel=7 note=65 velocity=0 time=2
note_off channel=8 note=53 velocity=0 time=7
note_off channel=7 note=62 velocity=0 time=5
note_off channel=6 note=53 velocity=0 time=2
note_off channel=8 note=58 velocity=0 time=1
note_off channel=6 note=46 velocity=0 time=8
note_off channel=3 note=80 velocity=0 time=27
note_on channel=9 note=40 velocity=116 time=10
note_off channel=9 note=40 velocity=0 time=28
note_off channel=1 note=34 velocity=0 time=71
note_off channel=10 note=46 velocity=0 time=8
note_on channel=1 note=34 velocity=113 time=0
note_on channel=3 note=79 velocity=127 time=0
note_on channel=7 note=62 velocity=106 time=0
note_on channel=7 note=65 velocity=98 time=0
note_on channel=7 note=70 velocity=111 time=0
note_on channel=8 note=53 velocity=110 time=0
note_on channel=8 note=58 velocity=127 time=0
note_on channel=9 note=39 velocity=85 time=0
note_on channel=9 note=40 velocity=116 time=0
note_on channel=9 note=51 velocity=127 time=0
note_on channel=9 note=53 velocity=102 time=0
note_on channel=9 note=54 velocity=116 time=0
note_on channel=10 note=46 velocity=113 time=8
note_on channel=6 note=46 velocity=123 time=3
note_on channel=6 note=53 velocity=110 time=0
note_off channel=9 note=39 velocity=0 time=17
note_off channel=9 note=40 velocity=0 time=0
note_off channel=9 note=54 velocity=0 time=0
note_off channel=7 note=65 velocity=0 time=34
note_off channel=7 note=70 velocity=0 time=3
note_off channel=7 note=62 velocity=0 time=7
note_off channel=6 note=53 velocity=0 time=5
note_off channel=8 note=53 velocity=0 time=4
note_off channel=6 note=46 velocity=0 time=3
note_off channel=8 note=58 velocity=0 time=5
note_on channel=9 note=40 velocity=116 time=31
note_off channel=9 note=40 velocity=0 time=28
note_off channel=3 note=79 velocity=0 time=65
note_off channel=1 note=34 velocity=0 time=6
note_off channel=10 note=46 velocity=0 time=8
note_on channel=1 note=34 velocity=118 time=0
note_on channel=3 note=77 velocity=120 time=0
note_on channel=7 note=62 velocity=106 time=0
note_on channel=7 note=65 velocity=98 time=0
note_on channel=7 note=70 velocity=105 time=0
note_on channel=8 note=53 velocity=115 time=0
note_on channel=8 note=58 velocity=123 time=0
note_on channel=9 note=40 velocity=116 time=0
note_on channel=10 note=46 velocity=118 time=8
note_on channel=6 note=46 velocity=127 time=3
note_on channel=6 note=53 velocity=125 time=0
note_off channel=9 note=40 velocity=0 time=17
note_off channel=9 note=51 velocity=0 time=8
note_off channel=9 note=53 velocity=0 time=13
note_off channel=7 note=65 velocity=0 time=7
note_off channel=7 note=70 velocity=0 time=3
note_off channel=6 note=53 velocity=0 time=13
note_off channel=7 note=62 velocity=0 time=0
note_off channel=6 note=46 velocity=0 time=10
note_off channel=8 note=53 velocity=0 time=3
note_off channel=8 note=58 velocity=0 time=3
note_on channel=9 note=40 velocity=116 time=32
note_off channel=9 note=40 velocity=0 time=28
note_off channel=7 note=34 velocity=0 time=63
note_off channel=7 note=46 velocity=0 time=0
note_off channel=1 note=34 velocity=0 time=8
note_off channel=3 note=77 velocity=0 time=2
note_off channel=10 note=46 velocity=0 time=6
note_on channel=1 note=36 velocity=118 time=0
note_on channel=3 note=79 velocity=125 time=0
note_on channel=7 note=36 velocity=115 time=0
note_on channel=7 note=48 velocity=115 time=0
note_on channel=7 note=60 velocity=125 time=0
note_on channel=7 note=63 velocity=116 time=0
note_on channel=7 note=67 velocity=115 time=0
note_on channel=9 note=35 velocity=116 time=0
note_on channel=9 note=49 velocity=116 time=0
note_off channel=9 note=35 velocity=0 time=28
note_off channel=9 note=49 velocity=0 time=0
note_off channel=3 note=79 velocity=0 time=70
note_on channel=3 note=77 velocity=110 time=22
note_off channel=3 note=77 velocity=0 time=102
note_on channel=3 note=75 velocity=127 time=0
note_off channel=7 note=63 velocity=0 time=417
note_off channel=7 note=60 velocity=0 time=3
note_off channel=3 note=75 velocity=0 time=4
note_off channel=7 note=67 velocity=0 time=5
note_off channel=7 note=36 velocity=0 time=22
note_off channel=7 note=48 velocity=0 time=0
note_off channel=1 note=36 velocity=0 time=128
