note_on channel=0 note=36 velocity=25 time=0
note_on channel=0 note=36 velocity=0 time=180
note_on channel=0 note=48 velocity=28 time=60
note_on channel=0 note=52 velocity=33 time=0
note_on channel=0 note=43 velocity=26 time=0
note_on channel=0 note=36 velocity=22 time=0
note_on channel=0 note=36 velocity=0 time=180
note_on channel=0 note=48 velocity=0 time=0
note_on channel=0 note=52 velocity=0 time=0
note_on channel=0 note=43 velocity=0 time=0
note_on channel=0 note=48 velocity=28 time=0
note_on channel=0 note=52 velocity=33 time=0
note_on channel=0 note=43 velocity=26 time=0
note_on channel=0 note=36 velocity=22 time=0
note_on channel=0 note=36 velocity=0 time=180
note_on channel=0 note=48 velocity=0 time=0
note_on channel=0 note=52 velocity=0 time=0
note_on channel=0 note=43 velocity=0 time=0
note_on channel=0 note=48 velocity=28 time=60
note_on channel=0 note=52 velocity=34 time=0
note_on channel=0 note=43 velocity=27 time=0
note_on channel=0 note=36 velocity=22 time=0
note_on channel=0 note=36 velocity=0 time=180
note_on channel=0 note=48 velocity=0 time=0
note_on channel=0 note=52 velocity=0 time=0
note_on channel=0 note=43 velocity=0 time=0
note_on channel=0 note=48 velocity=28 time=60
note_on channel=0 note=52 velocity=34 time=0
note_on channel=0 note=43 velocity=27 time=0
note_on channel=0 note=36 velocity=22 time=0
note_on channel=0 note=36 velocity=0 time=160
note_on channel=0 note=48 velocity=0 time=0
note_on channel=0 note=52 velocity=0 time=0
note_on channel=0 note=43 velocity=0 time=0
note_on channel=0 note=48 velocity=28 time=60
note_on channel=0 note=52 velocity=34 time=0
note_on channel=0 note=43 velocity=28 time=0
note_on channel=0 note=36 velocity=23 time=0
note_on channel=0 note=36 velocity=0 time=180
note_on channel=0 note=48 velocity=0 time=0
note_on channel=0 note=52 velocity=0 time=0
note_on channel=0 note=43 velocity=0 time=0
note_on channel=0 note=48 velocity=29 time=0
note_on channel=0 note=52 velocity=35 time=0
note_on channel=0 note=43 velocity=28 time=0
note_on channel=0 note=36 velocity=23 time=0
note_on channel=0 note=36 velocity=0 time=180
note_on channel=0 note=48 velocity=0 time=0
note_on channel=0 note=52 velocity=0 time=0
note_on channel=0 note=43 velocity=0 time=0
note_on channel=0 note=48 velocity=29 time=60
note_on channel=0 note=52 velocity=35 time=0
note_on channel=0 note=43 velocity=29 time=0
note_on channel=0 note=36 velocity=24 time=0
note_on channel=0 note=36 velocity=0 time=180
note_on channel=0 note=48 velocity=0 time=0
note_on channel=0 note=52 velocity=0 time=0
note_on channel=0 note=43 velocity=0 time=0
note_on channel=0 note=48 velocity=30 time=60
note_on channel=0 note=52 velocity=36 time=0
note_on channel=0 note=36 velocity=25 time=0
note_on channel=0 note=43 velocity=30 time=0
note_on channel=0 note=43 velocity=0 time=140
note_on channel=0 note=48 velocity=0 time=0
note_on channel=0 note=52 velocity=0 time=0
note_on channel=0 note=36 velocity=0 time=0
note_on channel=0 note=48 velocity=30 time=60
note_on channel=0 note=52 velocity=36 time=0
note_on channel=0 note=36 velocity=22 time=0
note_on channel=0 note=43 velocity=27 time=0
note_on channel=0 note=43 velocity=0 time=180
note_on channel=0 note=48 velocity=0 time=0
note_on channel=0 note=52 velocity=0 time=0
note_on channel=0 note=36 velocity=0 time=0
note_on channel=0 note=48 velocity=31 time=0
note_on channel=0 note=52 velocity=37 time=0
note_on channel=0 note=36 velocity=23 time=0
note_on channel=0 note=43 velocity=28 time=0
note_on channel=0 note=43 velocity=0 time=180
note_on channel=0 note=48 velocity=0 time=0
note_on channel=0 note=52 velocity=0 time=0
note_on channel=0 note=36 velocity=0 time=0
note_on channel=0 note=48 velocity=32 time=60
note_on channel=0 note=52 velocity=38 time=0
note_on channel=0 note=36 velocity=24 time=0
note_on channel=0 note=43 velocity=29 time=0
note_on channel=0 note=43 velocity=0 time=180
note_on channel=0 note=48 velocity=0 time=0
note_on channel=0 note=52 velocity=0 time=0
note_on channel=0 note=36 velocity=0 time=0
note_on channel=0 note=48 velocity=33 time=0
note_on channel=0 note=52 velocity=39 time=0
note_on channel=0 note=36 velocity=25 time=0
note_on channel=0 note=43 velocity=30 time=0
note_on channel=0 note=43 velocity=0 time=180
note_on channel=0 note=48 velocity=0 time=0
note_on channel=0 note=52 velocity=0 time=0
note_on channel=0 note=36 velocity=0 time=0
note_on channel=0 note=48 velocity=34 time=60
note_on channel=0 note=52 velocity=40 time=0
note_on channel=0 note=36 velocity=25 time=0
note_on channel=0 note=43 velocity=30 time=0
note_on channel=0 note=43 velocity=0 time=180
note_on channel=0 note=48 velocity=0 time=0
note_on channel=0 note=52 velocity=0 time=0
note_on channel=0 note=36 velocity=0 time=0
note_on channel=0 note=50 velocity=34 time=60
note_on channel=0 note=54 velocity=40 time=0
note_on channel=0 note=36 velocity=25 time=0
note_on channel=0 note=45 velocity=30 time=0
note_on channel=0 note=45 velocity=0 time=180
note_on channel=0 note=50 velocity=0 time=0
note_on channel=0 note=54 velocity=0 time=0
note_on channel=0 note=36 velocity=0 time=0
note_on channel=0 note=50 velocity=34 time=60
note_on channel=0 note=54 velocity=40 time=0
note_on channel=0 note=36 velocity=25 time=0
note_on channel=0 note=45 velocity=30 time=0
note_on channel=0 note=45 velocity=0 time=180
note_on channel=0 note=50 velocity=0 time=0
note_on channel=0 note=54 velocity=0 time=0
note_on channel=0 note=36 velocity=0 time=0
note_on channel=0 note=50 velocity=39 time=0
note_on channel=0 note=55 velocity=46 time=0
note_on channel=0 note=35 velocity=25 time=0
note_on channel=0 note=43 velocity=30 time=0
note_on channel=0 note=43 velocity=0 time=140
note_on channel=0 note=35 velocity=0 time=0
note_on channel=0 note=35 velocity=25 time=60
note_on channel=0 note=43 velocity=30 time=0
note_on channel=0 note=43 velocity=0 time=180
note_on channel=0 note=35 velocity=0 time=0
note_on channel=0 note=35 velocity=25 time=60
note_on channel=0 note=43 velocity=30 time=0
note_on channel=0 note=43 velocity=0 time=180
note_on channel=0 note=35 velocity=0 time=0
note_on channel=0 note=55 velocity=0 time=60
note_on channel=0 note=50 velocity=0 time=0
note_on channel=0 note=59 velocity=40 time=0
note_on channel=0 note=35 velocity=25 time=0
note_on channel=0 note=43 velocity=30 time=0
note_on channel=0 note=59 velocity=0 time=120
note_on channel=0 note=57 velocity=40 time=0
note_on channel=0 note=43 velocity=0 time=60
note_on channel=0 note=35 velocity=0 time=0
note_on channel=0 note=57 velocity=0 time=60
note_on channel=0 note=55 velocity=45 time=0
note_on channel=0 note=35 velocity=25 time=0
note_on channel=0 note=43 velocity=30 time=0
note_on channel=0 note=55 velocity=0 time=120
note_on channel=0 note=43 velocity=0 time=60
note_on channel=0 note=35 velocity=0 time=0
note_on channel=0 note=35 velocity=25 time=60
note_on channel=0 note=43 velocity=30 time=0
note_on channel=0 note=43 velocity=0 time=180
note_on channel=0 note=35 velocity=0 time=0
note_on channel=0 note=35 velocity=25 time=60
note_on channel=0 note=43 velocity=30 time=0
note_on channel=0 note=43 velocity=0 time=180
note_on channel=0 note=35 velocity=0 time=0
note_on channel=0 note=35 velocity=25 time=0
note_on channel=0 note=43 velocity=30 time=0
note_on channel=0 note=43 velocity=0 time=180
note_on channel=0 note=35 velocity=0 time=0
note_on channel=0 note=85 velocity=46 time=0
note_on channel=0 note=85 velocity=0 time=0
note_on channel=0 note=86 velocity=57 time=0
note_on channel=0 note=35 velocity=25 time=0
note_on channel=0 note=43 velocity=30 time=0
note_on channel=0 note=43 velocity=0 time=180
note_on channel=0 note=35 velocity=0 time=0
note_on channel=0 note=35 velocity=25 time=60
note_on channel=0 note=43 velocity=30 time=0
note_on channel=0 note=43 velocity=0 time=180
note_on channel=0 note=35 velocity=0 time=0
note_on channel=0 note=35 velocity=25 time=60
note_on channel=0 note=43 velocity=30 time=0
note_on channel=0 note=86 velocity=0 time=120
note_on channel=0 note=84 velocity=48 time=0
note_on channel=0 note=43 velocity=0 time=60
note_on channel=0 note=35 velocity=0 time=0
note_on channel=0 note=84 velocity=0 time=60
note_on channel=0 note=83 velocity=47 time=0
note_on channel=0 note=35 velocity=25 time=0
note_on channel=0 note=43 velocity=30 time=0
note_on channel=0 note=83 velocity=0 time=120
note_on channel=0 note=81 velocity=45 time=0
note_on channel=0 note=43 velocity=0 time=60
note_on channel=0 note=35 velocity=0 time=0
note_on channel=0 note=81 velocity=0 time=60
note_on channel=0 note=79 velocity=44 time=0
note_on channel=0 note=35 velocity=25 time=0
note_on channel=0 note=43 velocity=30 time=0
note_on channel=0 note=43 velocity=0 time=180
note_on channel=0 note=35 velocity=0 time=0
note_on channel=0 note=79 velocity=0 time=60
note_on channel=0 note=35 velocity=25 time=0
note_on channel=0 note=43 velocity=30 time=0
note_on channel=0 note=43 velocity=0 time=180
note_on channel=0 note=35 velocity=0 time=0
note_on channel=0 note=35 velocity=25 time=60
note_on channel=0 note=43 velocity=30 time=0
note_on channel=0 note=43 velocity=0 time=180
note_on channel=0 note=35 velocity=0 time=0
note_on channel=0 note=35 velocity=25 time=0
note_on channel=0 note=43 velocity=30 time=0
note_on channel=0 note=43 velocity=0 time=180
note_on channel=0 note=35 velocity=0 time=0
note_on channel=0 note=46 velocity=29 time=0
note_on channel=0 note=50 velocity=35 time=0
note_on channel=0 note=41 velocity=30 time=0
note_on channel=0 note=34 velocity=26 time=0
note_on channel=0 note=34 velocity=0 time=180
note_on channel=0 note=46 velocity=0 time=0
note_on channel=0 note=50 velocity=0 time=0
note_on channel=0 note=41 velocity=0 time=0
note_on channel=0 note=46 velocity=29 time=60
note_on channel=0 note=50 velocity=35 time=0
note_on channel=0 note=41 velocity=30 time=0
note_on channel=0 note=34 velocity=25 time=0
note_on channel=0 note=34 velocity=0 time=180
note_on channel=0 note=46 velocity=0 time=0
note_on channel=0 note=50 velocity=0 time=0
note_on channel=0 note=41 velocity=0 time=0
note_on channel=0 note=46 velocity=29 time=0
note_on channel=0 note=50 velocity=35 time=0
note_on channel=0 note=41 velocity=30 time=0
note_on channel=0 note=34 velocity=25 time=0
note_on channel=0 note=34 velocity=0 time=180
note_on channel=0 note=46 velocity=0 time=0
note_on channel=0 note=50 velocity=0 time=0
note_on channel=0 note=41 velocity=0 time=0
note_on channel=0 note=46 velocity=30 time=60
note_on channel=0 note=50 velocity=36 time=0
note_on channel=0 note=41 velocity=31 time=0
note_on channel=0 note=34 velocity=26 time=0
note_on channel=0 note=34 velocity=0 time=180
note_on channel=0 note=46 velocity=0 time=0
note_on channel=0 note=50 velocity=0 time=0
note_on channel=0 note=41 velocity=0 time=0
note_on channel=0 note=46 velocity=31 time=0
note_on channel=0 note=50 velocity=37 time=0
note_on channel=0 note=41 velocity=31 time=0
note_on channel=0 note=34 velocity=26 time=0
note_on channel=0 note=34 velocity=0 time=180
note_on channel=0 note=46 velocity=0 time=0
note_on channel=0 note=50 velocity=0 time=0
note_on channel=0 note=41 velocity=0 time=0
note_on channel=0 note=46 velocity=31 time=60
note_on channel=0 note=50 velocity=37 time=0
note_on channel=0 note=41 velocity=31 time=0
note_on channel=0 note=34 velocity=26 time=0
note_on channel=0 note=34 velocity=0 time=180
note_on channel=0 note=46 velocity=0 time=0
note_on channel=0 note=50 velocity=0 time=0
note_on channel=0 note=41 velocity=0 time=0
note_on channel=0 note=46 velocity=32 time=60
note_on channel=0 note=50 velocity=38 time=0
note_on channel=0 note=41 velocity=31 time=0
note_on channel=0 note=34 velocity=26 time=0
note_on channel=0 note=34 velocity=0 time=180
note_on channel=0 note=46 velocity=0 time=0
note_on channel=0 note=50 velocity=0 time=0
note_on channel=0 note=41 velocity=0 time=0
note_on channel=0 note=46 velocity=33 time=60
note_on channel=0 note=50 velocity=39 time=0
note_on channel=0 note=41 velocity=31 time=0
note_on channel=0 note=34 velocity=26 time=0
note_on channel=0 note=34 velocity=0 time=180
note_on channel=0 note=46 velocity=0 time=0
note_on channel=0 note=50 velocity=0 time=0
note_on channel=0 note=41 velocity=0 time=0
note_on channel=0 note=46 velocity=33 time=0
note_on channel=0 note=50 velocity=39 time=0
note_on channel=0 note=34 velocity=26 time=0
note_on channel=0 note=41 velocity=31 time=0
note_on channel=0 note=41 velocity=0 time=180
note_on channel=0 note=46 velocity=0 time=0
note_on channel=0 note=50 velocity=0 time=0
note_on channel=0 note=34 velocity=0 time=0
note_on channel=0 note=46 velocity=34 time=60
note_on channel=0 note=50 velocity=40 time=0
note_on channel=0 note=34 velocity=26 time=0
note_on channel=0 note=41 velocity=31 time=0
note_on channel=0 note=41 velocity=0 time=180
note_on channel=0 note=46 velocity=0 time=0
note_on channel=0 note=50 velocity=0 time=0
note_on channel=0 note=34 velocity=0 time=0
note_on channel=0 note=46 velocity=34 time=0
note_on channel=0 note=50 velocity=40 time=0
note_on channel=0 note=34 velocity=26 time=0
note_on channel=0 note=41 velocity=31 time=0
note_on channel=0 note=41 velocity=0 time=180
note_on channel=0 note=46 velocity=0 time=0
note_on channel=0 note=50 velocity=0 time=0
note_on channel=0 note=34 velocity=0 time=0
note_on channel=0 note=46 velocity=34 time=60
note_on channel=0 note=50 velocity=40 time=0
note_on channel=0 note=34 velocity=26 time=0
note_on channel=0 note=41 velocity=31 time=0
note_on channel=0 note=41 velocity=0 time=180
note_on channel=0 note=46 velocity=0 time=0
note_on channel=0 note=50 velocity=0 time=0
note_on channel=0 note=34 velocity=0 time=0
note_on channel=0 note=46 velocity=34 time=0
note_on channel=0 note=50 velocity=40 time=0
note_on channel=0 note=34 velocity=26 time=0
note_on channel=0 note=41 velocity=31 time=0
note_on channel=0 note=41 velocity=0 time=180
note_on channel=0 note=46 velocity=0 time=0
note_on channel=0 note=50 velocity=0 time=0
note_on channel=0 note=34 velocity=0 time=0
note_on channel=0 note=46 velocity=34 time=60
note_on channel=0 note=50 velocity=40 time=0
note_on channel=0 note=34 velocity=25 time=0
note_on channel=0 note=41 velocity=30 time=0
note_on channel=0 note=41 velocity=0 time=180
note_on channel=0 note=46 velocity=0 time=0
note_on channel=0 note=50 velocity=0 time=0
note_on channel=0 note=34 velocity=0 time=0
note_on channel=0 note=48 velocity=34 time=0
note_on channel=0 note=52 velocity=40 time=0
note_on channel=0 note=34 velocity=25 time=0
note_on channel=0 note=43 velocity=30 time=0
note_on channel=0 note=43 velocity=0 time=180
note_on channel=0 note=48 velocity=0 time=0
note_on channel=0 note=52 velocity=0 time=0
note_on channel=0 note=34 velocity=0 time=0
note_on channel=0 note=48 velocity=34 time=60
note_on channel=0 note=52 velocity=40 time=0
note_on channel=0 note=34 velocity=25 time=0
note_on channel=0 note=43 velocity=30 time=0
note_on channel=0 note=43 velocity=0 time=180
note_on channel=0 note=48 velocity=0 time=0
note_on channel=0 note=52 velocity=0 time=0
note_on channel=0 note=34 velocity=0 time=0
note_on channel=0 note=48 velocity=39 time=60
note_on channel=0 note=53 velocity=46 time=0
note_on channel=0 note=33 velocity=25 time=0
note_on channel=0 note=41 velocity=30 time=0
note_on channel=0 note=41 velocity=0 time=160
note_on channel=0 note=33 velocity=0 time=0
note_on channel=0 note=33 velocity=25 time=60
note_on channel=0 note=41 velocity=30 time=0
note_on channel=0 note=41 velocity=0 time=180
note_on channel=0 note=33 velocity=0 time=0
note_on channel=0 note=33 velocity=25 time=60
note_on channel=0 note=41 velocity=30 time=0
note_on channel=0 note=41 velocity=0 time=180
note_on channel=0 note=33 velocity=0 time=0
note_on channel=0 note=53 velocity=0 time=60
note_on channel=0 note=48 velocity=0 time=0
note_on channel=0 note=57 velocity=40 time=0
note_on channel=0 note=33 velocity=25 time=0
note_on channel=0 note=41 velocity=30 time=0
note_on channel=0 note=57 velocity=0 time=120
note_on channel=0 note=55 velocity=40 time=0
note_on channel=0 note=41 velocity=0 time=60
note_on channel=0 note=33 velocity=0 time=0
note_on channel=0 note=55 velocity=0 time=60
note_on channel=0 note=53 velocity=45 time=0
note_on channel=0 note=33 velocity=25 time=0
note_on channel=0 note=41 velocity=30 time=0
note_on channel=0 note=53 velocity=0 time=120
note_on channel=0 note=41 velocity=0 time=60
note_on channel=0 note=33 velocity=0 time=0
note_on channel=0 note=33 velocity=25 time=60
note_on channel=0 note=41 velocity=30 time=0
note_on channel=0 note=41 velocity=0 time=180
note_on channel=0 note=33 velocity=0 time=0
note_on channel=0 note=33 velocity=25 time=60
note_on channel=0 note=41 velocity=30 time=0
note_on channel=0 note=41 velocity=0 time=180
note_on channel=0 note=33 velocity=0 time=0
note_on channel=0 note=33 velocity=25 time=0
note_on channel=0 note=41 velocity=30 time=0
note_on channel=0 note=41 velocity=0 time=180
note_on channel=0 note=33 velocity=0 time=0
note_on channel=0 note=83 velocity=46 time=0
note_on channel=0 note=83 velocity=0 time=0
note_on channel=0 note=84 velocity=57 time=0
note_on channel=0 note=32 velocity=25 time=0
note_on channel=0 note=41 velocity=30 time=0
note_on channel=0 note=41 velocity=0 time=180
note_on channel=0 note=32 velocity=0 time=0
note_on channel=0 note=32 velocity=25 time=60
note_on channel=0 note=41 velocity=30 time=0
note_on channel=0 note=41 velocity=0 time=180
note_on channel=0 note=32 velocity=0 time=0
note_on channel=0 note=32 velocity=25 time=60
note_on channel=0 note=41 velocity=30 time=0
note_on channel=0 note=84 velocity=0 time=120
note_on channel=0 note=82 velocity=50 time=0
note_on channel=0 note=41 velocity=0 time=60
note_on channel=0 note=32 velocity=0 time=0
note_on channel=0 note=82 velocity=0 time=60
note_on channel=0 note=80 velocity=49 time=0
note_on channel=0 note=32 velocity=25 time=0
note_on channel=0 note=41 velocity=30 time=0
note_on channel=0 note=80 velocity=0 time=120
note_on channel=0 note=79 velocity=47 time=0
note_on channel=0 note=41 velocity=0 time=60
note_on channel=0 note=32 velocity=0 time=0
note_on channel=0 note=79 velocity=0 time=60
note_on channel=0 note=77 velocity=46 time=0
note_on channel=0 note=32 velocity=25 time=0
note_on channel=0 note=41 velocity=30 time=0
note_on channel=0 note=41 velocity=0 time=180
note_on channel=0 note=32 velocity=0 time=0
note_on channel=0 note=77 velocity=0 time=60
note_on channel=0 note=32 velocity=25 time=0
note_on channel=0 note=41 velocity=30 time=0
note_on channel=0 note=41 velocity=0 time=180
note_on channel=0 note=32 velocity=0 time=0
note_on channel=0 note=32 velocity=25 time=40
note_on channel=0 note=41 velocity=30 time=0
note_on channel=0 note=41 velocity=0 time=180
note_on channel=0 note=32 velocity=0 time=0
note_on channel=0 note=32 velocity=25 time=60
note_on channel=0 note=41 velocity=30 time=0
note_on channel=0 note=41 velocity=0 time=180
note_on channel=0 note=32 velocity=0 time=0
note_on channel=0 note=88 velocity=67 time=0
note_on channel=0 note=88 velocity=0 time=0
note_on channel=0 note=89 velocity=73 time=0
note_on channel=0 note=31 velocity=30 time=0
note_on channel=0 note=41 velocity=36 time=0
note_on channel=0 note=41 velocity=0 time=180
note_on channel=0 note=31 velocity=0 time=0
note_on channel=0 note=31 velocity=32 time=60
note_on channel=0 note=41 velocity=38 time=0
note_on channel=0 note=41 velocity=0 time=180
note_on channel=0 note=31 velocity=0 time=0
note_on channel=0 note=31 velocity=33 time=0
note_on channel=0 note=41 velocity=39 time=0
note_on channel=0 note=41 velocity=0 time=180
note_on channel=0 note=31 velocity=0 time=0
note_on channel=0 note=31 velocity=34 time=60
note_on channel=0 note=41 velocity=41 time=0
note_on channel=0 note=41 velocity=0 time=180
note_on channel=0 note=31 velocity=0 time=0
note_on channel=0 note=31 velocity=36 time=0
note_on channel=0 note=41 velocity=43 time=0
note_on channel=0 note=41 velocity=0 time=180
note_on channel=0 note=31 velocity=0 time=0
note_on channel=0 note=31 velocity=38 time=60
note_on channel=0 note=41 velocity=45 time=0
note_on channel=0 note=41 velocity=0 time=180
note_on channel=0 note=31 velocity=0 time=0
note_on channel=0 note=89 velocity=0 time=60
note_on channel=0 note=89 velocity=74 time=0
note_on channel=0 note=32 velocity=39 time=0
note_on channel=0 note=41 velocity=46 time=0
note_on channel=0 note=89 velocity=0 time=120
note_on channel=0 note=87 velocity=73 time=0
note_on channel=0 note=41 velocity=0 time=60
note_on channel=0 note=32 velocity=0 time=0
note_on channel=0 note=87 velocity=0 time=60
note_on channel=0 note=86 velocity=71 time=0
note_on channel=0 note=32 velocity=40 time=0
note_on channel=0 note=41 velocity=48 time=0
note_on channel=0 note=86 velocity=0 time=120
note_on channel=0 note=84 velocity=70 time=0
note_on channel=0 note=41 velocity=0 time=60
note_on channel=0 note=32 velocity=0 time=0
note_on channel=0 note=84 velocity=0 time=0
note_on channel=0 note=83 velocity=72 time=0
note_on channel=0 note=31 velocity=44 time=0
note_on channel=0 note=41 velocity=52 time=0
note_on channel=0 note=83 velocity=0 time=120
note_on channel=0 note=84 velocity=71 time=0
note_on channel=0 note=41 velocity=0 time=60
note_on channel=0 note=31 velocity=0 time=0
note_on channel=0 note=84 velocity=0 time=60
note_on channel=0 note=86 velocity=72 time=0
note_on channel=0 note=31 velocity=44 time=0
note_on channel=0 note=41 velocity=52 time=0
note_on channel=0 note=86 velocity=0 time=120
note_on channel=0 note=87 velocity=73 time=0
note_on channel=0 note=41 velocity=0 time=60
note_on channel=0 note=31 velocity=0 time=0
note_on channel=0 note=87 velocity=0 time=0
note_on channel=0 note=89 velocity=74 time=0
note_on channel=0 note=32 velocity=45 time=0
note_on channel=0 note=41 velocity=55 time=0
note_on channel=0 note=89 velocity=0 time=120
note_on channel=0 note=87 velocity=72 time=0
note_on channel=0 note=41 velocity=0 time=60
note_on channel=0 note=32 velocity=0 time=0
note_on channel=0 note=87 velocity=0 time=60
note_on channel=0 note=86 velocity=71 time=0
note_on channel=0 note=32 velocity=46 time=0
note_on channel=0 note=41 velocity=55 time=0
note_on channel=0 note=86 velocity=0 time=120
note_on channel=0 note=84 velocity=69 time=0
note_on channel=0 note=41 velocity=0 time=60
note_on channel=0 note=32 velocity=0 time=0
note_on channel=0 note=84 velocity=0 time=0
note_on channel=0 note=83 velocity=72 time=0
note_on channel=0 note=31 velocity=48 time=0
note_on channel=0 note=41 velocity=58 time=0
note_on channel=0 note=83 velocity=0 time=120
note_on channel=0 note=84 velocity=75 time=0
note_on channel=0 note=41 velocity=0 time=60
note_on channel=0 note=31 velocity=0 time=0
note_on channel=0 note=84 velocity=0 time=60
note_on channel=0 note=86 velocity=77 time=0
note_on channel=0 note=31 velocity=51 time=0
note_on channel=0 note=41 velocity=60 time=0
note_on channel=0 note=86 velocity=0 time=120
note_on channel=0 note=87 velocity=80 time=0
note_on channel=0 note=41 velocity=0 time=60
note_on channel=0 note=31 velocity=0 time=0
note_on channel=0 note=87 velocity=0 time=60
note_on channel=0 note=89 velocity=80 time=0
note_on channel=0 note=32 velocity=54 time=0
note_on channel=0 note=41 velocity=64 time=0
note_on channel=0 note=89 velocity=0 time=120
note_on channel=0 note=87 velocity=80 time=0
note_on channel=0 note=41 velocity=0 time=60
note_on channel=0 note=32 velocity=0 time=0
note_on channel=0 note=87 velocity=0 time=60
note_on channel=0 note=86 velocity=79 time=0
note_on channel=0 note=32 velocity=56 time=0
note_on channel=0 note=41 velocity=66 time=0
note_on channel=0 note=86 velocity=0 time=120
note_on channel=0 note=84 velocity=81 time=0
note_on channel=0 note=41 velocity=0 time=60
note_on channel=0 note=32 velocity=0 time=0
note_on channel=0 note=84 velocity=0 time=0
note_on channel=0 note=83 velocity=85 time=0
note_on channel=0 note=31 velocity=70 time=0
note_on channel=0 note=41 velocity=85 time=0
note_on channel=0 note=83 velocity=0 time=0
note_on channel=0 note=84 velocity=89 time=0
note_on channel=0 note=84 velocity=0 time=0
note_on channel=0 note=86 velocity=94 time=0
note_on channel=0 note=86 velocity=0 time=0
note_on channel=0 note=87 velocity=98 time=0
note_on channel=0 note=87 velocity=0 time=0
note_on channel=0 note=41 velocity=0 time=0
note_on channel=0 note=31 velocity=0 time=0
note_on channel=0 note=89 velocity=100 time=0
note_on channel=0 note=43 velocity=81 time=0
note_on channel=0 note=55 velocity=96 time=0
note_on channel=0 note=89 velocity=0 time=120
note_on channel=0 note=87 velocity=98 time=0
note_on channel=0 note=87 velocity=0 time=120
note_on channel=0 note=86 velocity=96 time=0
note_on channel=0 note=86 velocity=0 time=120
note_on channel=0 note=84 velocity=94 time=0
note_on channel=0 note=84 velocity=0 time=120
note_on channel=0 note=83 velocity=93 time=0
note_on channel=0 note=83 velocity=0 time=120
note_on channel=0 note=80 velocity=91 time=0
note_on channel=0 note=80 velocity=0 time=120
note_on channel=0 note=79 velocity=89 time=0
note_on channel=0 note=79 velocity=0 time=120
note_on channel=0 note=77 velocity=87 time=0
note_on channel=0 note=77 velocity=0 time=0
note_on channel=0 note=75 velocity=85 time=0
note_on channel=0 note=75 velocity=0 time=120
note_on channel=0 note=74 velocity=83 time=0
note_on channel=0 note=74 velocity=0 time=120
note_on channel=0 note=55 velocity=0 time=0
note_on channel=0 note=43 velocity=0 time=0
note_on channel=0 note=72 velocity=81 time=0
note_on channel=0 note=57 velocity=67 time=0
note_on channel=0 note=57 velocity=0 time=120
note_on channel=0 note=72 velocity=0 time=0
note_on channel=0 note=71 velocity=79 time=0
note_on channel=0 note=59 velocity=70 time=0
note_on channel=0 note=59 velocity=0 time=0
note_on channel=0 note=71 velocity=0 time=0
note_on channel=0 note=72 velocity=93 time=0
note_on channel=0 note=60 velocity=72 time=0
note_on channel=0 note=60 velocity=0 time=180
note_on channel=0 note=72 velocity=0 time=0
note_on channel=0 note=67 velocity=83 time=0
note_on channel=0 note=43 velocity=56 time=0
note_on channel=0 note=55 velocity=66 time=0
note_on channel=0 note=55 velocity=0 time=180
note_on channel=0 note=43 velocity=0 time=0
note_on channel=0 note=67 velocity=0 time=0
note_on channel=0 note=63 velocity=72 time=0
note_on channel=0 note=39 velocity=52 time=0
note_on channel=0 note=51 velocity=62 time=0
note_on channel=0 note=51 velocity=0 time=180
note_on channel=0 note=39 velocity=0 time=0
note_on channel=0 note=63 velocity=0 time=0
note_on channel=0 note=60 velocity=64 time=0
note_on channel=0 note=36 velocity=48 time=0
note_on channel=0 note=48 velocity=57 time=0
note_on channel=0 note=48 velocity=0 time=180
note_on channel=0 note=36 velocity=0 time=0
note_on channel=0 note=60 velocity=0 time=0
note_on channel=0 note=55 velocity=60 time=0
note_on channel=0 note=31 velocity=46 time=0
note_on channel=0 note=43 velocity=54 time=0
note_on channel=0 note=43 velocity=0 time=0
note_on channel=0 note=31 velocity=0 time=0
note_on channel=0 note=55 velocity=0 time=0
note_on channel=0 note=64 velocity=37 time=0
note_on channel=0 note=36 velocity=30 time=0
note_on channel=0 note=48 velocity=30 time=0
note_on channel=0 note=64 velocity=0 time=119
note_on channel=0 note=60 velocity=33 time=1
note_on channel=0 note=60 velocity=0 time=120
note_on channel=0 note=48 velocity=0 time=0
note_on channel=0 note=64 velocity=37 time=0
note_on channel=0 note=48 velocity=31 time=0
note_on channel=0 note=48 velocity=0 time=66
note_on channel=0 note=64 velocity=0 time=0
note_on channel=0 note=60 velocity=33 time=1
note_on channel=0 note=55 velocity=26 time=0
note_on channel=0 note=55 velocity=0 time=0
note_on channel=0 note=60 velocity=0 time=0
note_on channel=0 note=64 velocity=37 time=0
note_on channel=0 note=48 velocity=31 time=0
note_on channel=0 note=48 velocity=0 time=119
note_on channel=0 note=64 velocity=0 time=0
note_on channel=0 note=60 velocity=33 time=1
note_on channel=0 note=55 velocity=27 time=0
note_on channel=0 note=55 velocity=0 time=120
note_on channel=0 note=60 velocity=0 time=0
note_on channel=0 note=64 velocity=36 time=0
note_on channel=0 note=48 velocity=31 time=0
note_on channel=0 note=48 velocity=0 time=119
note_on channel=0 note=64 velocity=0 time=0
note_on channel=0 note=60 velocity=33 time=1
note_on channel=0 note=55 velocity=27 time=0
note_on channel=0 note=55 velocity=0 time=120
note_on channel=0 note=60 velocity=0 time=0
note_on channel=0 note=64 velocity=36 time=0
note_on channel=0 note=48 velocity=31 time=0
note_on channel=0 note=48 velocity=0 time=119
note_on channel=0 note=64 velocity=0 time=0
note_on channel=0 note=60 velocity=33 time=1
note_on channel=0 note=55 velocity=26 time=0
note_on channel=0 note=55 velocity=0 time=120
note_on channel=0 note=60 velocity=0 time=0
note_on channel=0 note=64 velocity=37 time=0
note_on channel=0 note=48 velocity=31 time=0
note_on channel=0 note=48 velocity=0 time=119
note_on channel=0 note=64 velocity=0 time=0
note_on channel=0 note=60 velocity=33 time=1
note_on channel=0 note=55 velocity=27 time=0
note_on channel=0 note=55 velocity=0 time=0
note_on channel=0 note=60 velocity=0 time=0
note_on channel=0 note=64 velocity=36 time=0
note_on channel=0 note=48 velocity=31 time=0
note_on channel=0 note=48 velocity=0 time=119
note_on channel=0 note=64 velocity=0 time=0
note_on channel=0 note=60 velocity=33 time=1
note_on channel=0 note=55 velocity=27 time=0
note_on channel=0 note=55 velocity=0 time=120
note_on channel=0 note=60 velocity=0 time=0
note_on channel=0 note=64 velocity=36 time=0
note_on channel=0 note=48 velocity=31 time=0
note_on channel=0 note=48 velocity=0 time=119
note_on channel=0 note=64 velocity=0 time=0
note_on channel=0 note=60 velocity=33 time=1
note_on channel=0 note=55 velocity=25 time=0
note_on channel=0 note=55 velocity=0 time=120
note_on channel=0 note=60 velocity=0 time=0
note_on channel=0 note=36 velocity=0 time=0
note_on channel=0 note=64 velocity=37 time=0
note_on channel=0 note=48 velocity=31 time=0
note_on channel=0 note=48 velocity=0 time=99
note_on channel=0 note=64 velocity=0 time=0
note_on channel=0 note=60 velocity=33 time=1
note_on channel=0 note=55 velocity=26 time=0
note_on channel=0 note=55 velocity=0 time=120
note_on channel=0 note=60 velocity=0 time=0
note_on channel=0 note=64 velocity=37 time=0
note_on channel=0 note=48 velocity=31 time=0
note_on channel=0 note=48 velocity=0 time=119
note_on channel=0 note=64 velocity=0 time=0
note_on channel=0 note=60 velocity=33 time=1
note_on channel=0 note=55 velocity=26 time=0
note_on channel=0 note=55 velocity=0 time=0
note_on channel=0 note=60 velocity=0 time=0
note_on channel=0 note=64 velocity=37 time=0
note_on channel=0 note=48 velocity=31 time=0
note_on channel=0 note=48 velocity=0 time=119
note_on channel=0 note=64 velocity=0 time=0
note_on channel=0 note=60 velocity=33 time=1
note_on channel=0 note=55 velocity=27 time=0
note_on channel=0 note=55 velocity=0 time=120
note_on channel=0 note=60 velocity=0 time=0
note_on channel=0 note=64 velocity=36 time=0
note_on channel=0 note=48 velocity=31 time=0
note_on channel=0 note=48 velocity=0 time=119
note_on channel=0 note=64 velocity=0 time=0
note_on channel=0 note=60 velocity=33 time=1
note_on channel=0 note=55 velocity=27 time=0
note_on channel=0 note=55 velocity=0 time=120
note_on channel=0 note=60 velocity=0 time=0
note_on channel=0 note=64 velocity=36 time=0
note_on channel=0 note=48 velocity=31 time=0
note_on channel=0 note=48 velocity=0 time=119
note_on channel=0 note=64 velocity=0 time=0
note_on channel=0 note=60 velocity=33 time=1
note_on channel=0 note=55 velocity=26 time=0
note_on channel=0 note=55 velocity=0 time=120
note_on channel=0 note=60 velocity=0 time=0
note_on channel=0 note=64 velocity=37 time=0
note_on channel=0 note=48 velocity=31 time=0
note_on channel=0 note=48 velocity=0 time=119
note_on channel=0 note=64 velocity=0 time=0
note_on channel=0 note=60 velocity=33 time=1
note_on channel=0 note=55 velocity=27 time=0
note_on channel=0 note=55 velocity=0 time=63
note_on channel=0 note=60 velocity=0 time=0
note_on channel=0 note=66 velocity=36 time=0
note_on channel=0 note=48 velocity=31 time=0
note_on channel=0 note=48 velocity=0 time=99
note_on channel=0 note=66 velocity=0 time=0
note_on channel=0 note=62 velocity=33 time=1
note_on channel=0 note=57 velocity=27 time=0
note_on channel=0 note=57 velocity=0 time=120
note_on channel=0 note=62 velocity=0 time=0
note_on channel=0 note=66 velocity=36 time=0
note_on channel=0 note=48 velocity=31 time=0
note_on channel=0 note=48 velocity=0 time=119
note_on channel=0 note=66 velocity=0 time=0
note_on channel=0 note=62 velocity=33 time=1
note_on channel=0 note=57 velocity=25 time=0
note_on channel=0 note=57 velocity=0 time=0
note_on channel=0 note=62 velocity=0 time=0
note_on channel=0 note=67 velocity=46 time=0
note_on channel=0 note=47 velocity=26 time=0
note_on channel=0 note=50 velocity=31 time=0
note_on channel=0 note=55 velocity=25 time=120
note_on channel=0 note=50 velocity=0 time=60
note_on channel=0 note=47 velocity=0 time=0
note_on channel=0 note=55 velocity=0 time=60
note_on channel=0 note=47 velocity=26 time=0
note_on channel=0 note=50 velocity=31 time=0
note_on channel=0 note=55 velocity=25 time=120
note_on channel=0 note=50 velocity=0 time=60
note_on channel=0 note=47 velocity=0 time=0
note_on channel=0 note=55 velocity=0 time=60
note_on channel=0 note=47 velocity=26 time=0
note_on channel=0 note=50 velocity=31 time=0
note_on channel=0 note=55 velocity=25 time=120
note_on channel=0 note=50 velocity=0 time=60
note_on channel=0 note=47 velocity=0 time=0
note_on channel=0 note=67 velocity=0 time=60
note_on channel=0 note=55 velocity=0 time=0
note_on channel=0 note=71 velocity=40 time=0
note_on channel=0 note=47 velocity=26 time=0
note_on channel=0 note=50 velocity=31 time=0
note_on channel=0 note=71 velocity=0 time=120
note_on channel=0 note=69 velocity=40 time=0
note_on channel=0 note=55 velocity=25 time=0
note_on channel=0 note=50 velocity=0 time=60
note_on channel=0 note=47 velocity=0 time=0
note_on channel=0 note=69 velocity=0 time=60
note_on channel=0 note=55 velocity=0 time=0
note_on channel=0 note=67 velocity=45 time=0
note_on channel=0 note=47 velocity=26 time=0
note_on channel=0 note=50 velocity=31 time=0
note_on channel=0 note=67 velocity=0 time=120
note_on channel=0 note=55 velocity=25 time=0
note_on channel=0 note=50 velocity=0 time=60
note_on channel=0 note=47 velocity=0 time=0
note_on channel=0 note=55 velocity=0 time=60
note_on channel=0 note=47 velocity=26 time=0
note_on channel=0 note=50 velocity=31 time=0
note_on channel=0 note=55 velocity=25 time=120
note_on channel=0 note=50 velocity=0 time=60
note_on channel=0 note=47 velocity=0 time=0
note_on channel=0 note=55 velocity=0 time=60
note_on channel=0 note=47 velocity=26 time=0
note_on channel=0 note=50 velocity=31 time=0
note_on channel=0 note=55 velocity=25 time=120
note_on channel=0 note=50 velocity=0 time=60
note_on channel=0 note=47 velocity=0 time=0
note_on channel=0 note=55 velocity=0 time=0
note_on channel=0 note=47 velocity=26 time=0
note_on channel=0 note=50 velocity=31 time=0
note_on channel=0 note=55 velocity=25 time=120
note_on channel=0 note=50 velocity=0 time=60
note_on channel=0 note=47 velocity=0 time=0
note_on channel=0 note=85 velocity=46 time=0
note_on channel=0 note=85 velocity=0 time=0
note_on channel=0 note=55 velocity=0 time=0
note_on channel=0 note=86 velocity=57 time=0
note_on channel=0 note=47 velocity=26 time=0
note_on channel=0 note=50 velocity=31 time=0
note_on channel=0 note=55 velocity=25 time=120
note_on channel=0 note=50 velocity=0 time=60
note_on channel=0 note=47 velocity=0 time=0
note_on channel=0 note=55 velocity=0 time=60
note_on channel=0 note=47 velocity=26 time=0
note_on channel=0 note=50 velocity=31 time=0
note_on channel=0 note=55 velocity=25 time=120
note_on channel=0 note=50 velocity=0 time=60
note_on channel=0 note=47 velocity=0 time=0
note_on channel=0 note=55 velocity=0 time=60
note_on channel=0 note=47 velocity=26 time=0
note_on channel=0 note=50 velocity=31 time=0
note_on channel=0 note=86 velocity=0 time=120
note_on channel=0 note=84 velocity=48 time=0
note_on channel=0 note=55 velocity=25 time=0
note_on channel=0 note=50 velocity=0 time=60
note_on channel=0 note=47 velocity=0 time=0
note_on channel=0 note=84 velocity=0 time=60
note_on channel=0 note=55 velocity=0 time=0
note_on channel=0 note=83 velocity=47 time=0
note_on channel=0 note=47 velocity=26 time=0
note_on channel=0 note=50 velocity=31 time=0
note_on channel=0 note=83 velocity=0 time=120
note_on channel=0 note=81 velocity=45 time=0
note_on channel=0 note=55 velocity=25 time=0
note_on channel=0 note=50 velocity=0 time=60
note_on channel=0 note=47 velocity=0 time=0
note_on channel=0 note=81 velocity=0 time=60
note_on channel=0 note=55 velocity=0 time=0
note_on channel=0 note=79 velocity=44 time=0
note_on channel=0 note=47 velocity=26 time=0
note_on channel=0 note=50 velocity=31 time=0
note_on channel=0 note=55 velocity=25 time=120
note_on channel=0 note=50 velocity=0 time=60
note_on channel=0 note=47 velocity=0 time=0
note_on channel=0 note=79 velocity=0 time=60
note_on channel=0 note=55 velocity=0 time=0
note_on channel=0 note=47 velocity=26 time=0
note_on channel=0 note=50 velocity=31 time=0
note_on channel=0 note=55 velocity=25 time=120
note_on channel=0 note=50 velocity=0 time=60
note_on channel=0 note=47 velocity=0 time=0
note_on channel=0 note=55 velocity=0 time=60
note_on channel=0 note=47 velocity=26 time=0
note_on channel=0 note=50 velocity=31 time=0
note_on channel=0 note=55 velocity=25 time=120
note_on channel=0 note=50 velocity=0 time=60
note_on channel=0 note=47 velocity=0 time=0
note_on channel=0 note=55 velocity=0 time=0
note_on channel=0 note=47 velocity=26 time=0
note_on channel=0 note=50 velocity=31 time=0
note_on channel=0 note=55 velocity=25 time=120
note_on channel=0 note=50 velocity=0 time=60
note_on channel=0 note=47 velocity=0 time=0
note_on channel=0 note=55 velocity=0 time=0
note_on channel=0 note=65 velocity=40 time=0
note_on channel=0 note=38 velocity=33 time=0
note_on channel=0 note=50 velocity=33 time=0
note_on channel=0 note=65 velocity=0 time=66
note_on channel=0 note=62 velocity=36 time=1
note_on channel=0 note=62 velocity=0 time=120
note_on channel=0 note=50 velocity=0 time=0
note_on channel=0 note=65 velocity=40 time=0
note_on channel=0 note=50 velocity=34 time=0
note_on channel=0 note=50 velocity=0 time=119
note_on channel=0 note=65 velocity=0 time=0
note_on channel=0 note=62 velocity=36 time=1
note_on channel=0 note=57 velocity=28 time=0
note_on channel=0 note=57 velocity=0 time=0
note_on channel=0 note=62 velocity=0 time=0
note_on channel=0 note=65 velocity=40 time=0
note_on channel=0 note=50 velocity=34 time=0
note_on channel=0 note=50 velocity=0 time=119
note_on channel=0 note=65 velocity=0 time=0
note_on channel=0 note=62 velocity=36 time=1
note_on channel=0 note=57 velocity=29 time=0
note_on channel=0 note=57 velocity=0 time=120
note_on channel=0 note=62 velocity=0 time=0
note_on channel=0 note=65 velocity=39 time=0
note_on channel=0 note=50 velocity=34 time=0
note_on channel=0 note=50 velocity=0 time=119
note_on channel=0 note=65 velocity=0 time=0
note_on channel=0 note=62 velocity=36 time=1
note_on channel=0 note=57 velocity=29 time=0
note_on channel=0 note=57 velocity=0 time=120
note_on channel=0 note=62 velocity=0 time=0
note_on channel=0 note=65 velocity=39 time=0
note_on channel=0 note=50 velocity=34 time=0
note_on channel=0 note=50 velocity=0 time=119
note_on channel=0 note=65 velocity=0 time=0
note_on channel=0 note=62 velocity=36 time=1
note_on channel=0 note=57 velocity=28 time=0
note_on channel=0 note=57 velocity=0 time=120
note_on channel=0 note=62 velocity=0 time=0
note_on channel=0 note=65 velocity=41 time=0
note_on channel=0 note=50 velocity=34 time=0
note_on channel=0 note=50 velocity=0 time=119
note_on channel=0 note=65 velocity=0 time=0
note_on channel=0 note=62 velocity=36 time=1
note_on channel=0 note=57 velocity=29 time=0
note_on channel=0 note=57 velocity=0 time=0
note_on channel=0 note=62 velocity=0 time=0
note_on channel=0 note=65 velocity=40 time=0
note_on channel=0 note=50 velocity=34 time=0
note_on channel=0 note=50 velocity=0 time=119
note_on channel=0 note=65 velocity=0 time=0
note_on channel=0 note=62 velocity=37 time=1
note_on channel=0 note=57 velocity=30 time=0
note_on channel=0 note=57 velocity=0 time=120
note_on channel=0 note=62 velocity=0 time=0
note_on channel=0 note=65 velocity=40 time=0
note_on channel=0 note=50 velocity=35 time=0
note_on channel=0 note=50 velocity=0 time=119
note_on channel=0 note=65 velocity=0 time=0
note_on channel=0 note=62 velocity=37 time=1
note_on channel=0 note=57 velocity=28 time=0
note_on channel=0 note=57 velocity=0 time=0
note_on channel=0 note=62 velocity=0 time=0
note_on channel=0 note=38 velocity=0 time=0
note_on channel=0 note=65 velocity=41 time=0
note_on channel=0 note=50 velocity=35 time=0
note_on channel=0 note=50 velocity=0 time=119
note_on channel=0 note=65 velocity=0 time=0
note_on channel=0 note=62 velocity=37 time=1
note_on channel=0 note=57 velocity=29 time=0
note_on channel=0 note=57 velocity=0 time=120
note_on channel=0 note=62 velocity=0 time=0
note_on channel=0 note=65 velocity=41 time=0
note_on channel=0 note=50 velocity=35 time=0
note_on channel=0 note=50 velocity=0 time=119
note_on channel=0 note=65 velocity=0 time=0
note_on channel=0 note=62 velocity=37 time=1
note_on channel=0 note=57 velocity=29 time=0
note_on channel=0 note=57 velocity=0 time=0
note_on channel=0 note=62 velocity=0 time=0
note_on channel=0 note=65 velocity=42 time=0
note_on channel=0 note=50 velocity=35 time=0
note_on channel=0 note=50 velocity=0 time=119
note_on channel=0 note=65 velocity=0 time=0
note_on channel=0 note=62 velocity=37 time=1
note_on channel=0 note=57 velocity=30 time=0
note_on channel=0 note=57 velocity=0 time=120
note_on channel=0 note=62 velocity=0 time=0
note_on channel=0 note=65 velocity=41 time=0
note_on channel=0 note=50 velocity=35 time=0
note_on channel=0 note=50 velocity=0 time=119
note_on channel=0 note=65 velocity=0 time=0
note_on channel=0 note=62 velocity=38 time=1
note_on channel=0 note=57 velocity=30 time=0
note_on channel=0 note=57 velocity=0 time=120
note_on channel=0 note=62 velocity=0 time=0
note_on channel=0 note=65 velocity=41 time=0
note_on channel=0 note=50 velocity=36 time=0
note_on channel=0 note=50 velocity=0 time=99
note_on channel=0 note=65 velocity=0 time=0
note_on channel=0 note=62 velocity=38 time=1
note_on channel=0 note=57 velocity=29 time=0
note_on channel=0 note=57 velocity=0 time=120
note_on channel=0 note=62 velocity=0 time=0
note_on channel=0 note=65 velocity=42 time=0
note_on channel=0 note=50 velocity=36 time=0
note_on channel=0 note=50 velocity=0 time=119
note_on channel=0 note=65 velocity=0 time=0
note_on channel=0 note=62 velocity=38 time=1
note_on channel=0 note=57 velocity=31 time=0
note_on channel=0 note=57 velocity=0 time=120
note_on channel=0 note=62 velocity=0 time=0
note_on channel=0 note=68 velocity=41 time=0
note_on channel=0 note=50 velocity=36 time=0
note_on channel=0 note=50 velocity=0 time=52
note_on channel=0 note=68 velocity=0 time=0
note_on channel=0 note=64 velocity=38 time=1
note_on channel=0 note=59 velocity=31 time=0
note_on channel=0 note=59 velocity=0 time=120
note_on channel=0 note=64 velocity=0 time=0
note_on channel=0 note=68 velocity=42 time=0
note_on channel=0 note=50 velocity=36 time=0
note_on channel=0 note=50 velocity=0 time=119
note_on channel=0 note=68 velocity=0 time=0
note_on channel=0 note=64 velocity=38 time=1
note_on channel=0 note=59 velocity=29 time=0
note_on channel=0 note=59 velocity=0 time=0
note_on channel=0 note=64 velocity=0 time=0
note_on channel=0 note=69 velocity=55 time=0
note_on channel=0 note=48 velocity=30 time=0
note_on channel=0 note=52 velocity=37 time=0
note_on channel=0 note=57 velocity=29 time=108
note_on channel=0 note=52 velocity=0 time=60
note_on channel=0 note=48 velocity=0 time=0
note_on channel=0 note=57 velocity=0 time=60
note_on channel=0 note=48 velocity=30 time=0
note_on channel=0 note=52 velocity=37 time=0
note_on channel=0 note=57 velocity=29 time=120
note_on channel=0 note=52 velocity=0 time=60
note_on channel=0 note=48 velocity=0 time=0
note_on channel=0 note=57 velocity=0 time=60
note_on channel=0 note=48 velocity=30 time=0
note_on channel=0 note=52 velocity=37 time=0
note_on channel=0 note=57 velocity=29 time=120
note_on channel=0 note=52 velocity=0 time=60
note_on channel=0 note=48 velocity=0 time=0
note_on channel=0 note=69 velocity=0 time=60
note_on channel=0 note=57 velocity=0 time=0
note_on channel=0 note=72 velocity=48 time=0
note_on channel=0 note=48 velocity=30 time=0
note_on channel=0 note=52 velocity=37 time=0
note_on channel=0 note=72 velocity=0 time=120
note_on channel=0 note=71 velocity=48 time=0
note_on channel=0 note=57 velocity=29 time=0
note_on channel=0 note=52 velocity=0 time=60
note_on channel=0 note=48 velocity=0 time=0
note_on channel=0 note=71 velocity=0 time=60
note_on channel=0 note=57 velocity=0 time=0
note_on channel=0 note=69 velocity=53 time=0
note_on channel=0 note=48 velocity=30 time=0
note_on channel=0 note=52 velocity=37 time=0
note_on channel=0 note=69 velocity=0 time=120
note_on channel=0 note=57 velocity=29 time=0
note_on channel=0 note=52 velocity=0 time=60
note_on channel=0 note=48 velocity=0 time=0
note_on channel=0 note=57 velocity=0 time=60
note_on channel=0 note=48 velocity=30 time=0
note_on channel=0 note=52 velocity=37 time=0
note_on channel=0 note=57 velocity=29 time=120
note_on channel=0 note=52 velocity=0 time=60
note_on channel=0 note=48 velocity=0 time=0
note_on channel=0 note=57 velocity=0 time=60
note_on channel=0 note=48 velocity=30 time=0
note_on channel=0 note=52 velocity=37 time=0
note_on channel=0 note=57 velocity=29 time=120
note_on channel=0 note=52 velocity=0 time=60
note_on channel=0 note=48 velocity=0 time=0
note_on channel=0 note=57 velocity=0 time=0
note_on channel=0 note=48 velocity=30 time=0
note_on channel=0 note=52 velocity=37 time=0
note_on channel=0 note=57 velocity=29 time=120
note_on channel=0 note=52 velocity=0 time=60
note_on channel=0 note=48 velocity=0 time=0
note_on channel=0 note=87 velocity=55 time=0
note_on channel=0 note=87 velocity=0 time=0
note_on channel=0 note=57 velocity=0 time=0
note_on channel=0 note=88 velocity=68 time=0
note_on channel=0 note=48 velocity=30 time=0
note_on channel=0 note=52 velocity=37 time=0
note_on channel=0 note=57 velocity=29 time=120
note_on channel=0 note=52 velocity=0 time=60
note_on channel=0 note=48 velocity=0 time=0
note_on channel=0 note=57 velocity=0 time=60
note_on channel=0 note=48 velocity=30 time=0
note_on channel=0 note=52 velocity=37 time=0
note_on channel=0 note=57 velocity=29 time=120
note_on channel=0 note=52 velocity=0 time=60
note_on channel=0 note=48 velocity=0 time=0
note_on channel=0 note=57 velocity=0 time=60
note_on channel=0 note=48 velocity=30 time=0
note_on channel=0 note=52 velocity=37 time=0
note_on channel=0 note=88 velocity=0 time=120
note_on channel=0 note=86 velocity=59 time=0
note_on channel=0 note=57 velocity=29 time=0
note_on channel=0 note=52 velocity=0 time=60
note_on channel=0 note=48 velocity=0 time=0
note_on channel=0 note=86 velocity=0 time=60
note_on channel=0 note=57 velocity=0 time=0
note_on channel=0 note=84 velocity=58 time=0
note_on channel=0 note=48 velocity=30 time=0
note_on channel=0 note=52 velocity=39 time=0
note_on channel=0 note=84 velocity=0 time=120
note_on channel=0 note=83 velocity=57 time=0
note_on channel=0 note=57 velocity=31 time=0
note_on channel=0 note=52 velocity=0 time=60
note_on channel=0 note=48 velocity=0 time=0
note_on channel=0 note=83 velocity=0 time=60
note_on channel=0 note=57 velocity=0 time=0
note_on channel=0 note=81 velocity=57 time=0
note_on channel=0 note=48 velocity=32 time=0
note_on channel=0 note=52 velocity=39 time=0
note_on channel=0 note=57 velocity=31 time=120
note_on channel=0 note=52 velocity=0 time=60
note_on channel=0 note=48 velocity=0 time=0
note_on channel=0 note=81 velocity=0 time=60
note_on channel=0 note=57 velocity=0 time=0
note_on channel=0 note=48 velocity=32 time=0
note_on channel=0 note=52 velocity=41 time=0
note_on channel=0 note=57 velocity=31 time=120
note_on channel=0 note=52 velocity=0 time=60
note_on channel=0 note=48 velocity=0 time=0
note_on channel=0 note=57 velocity=0 time=60
note_on channel=0 note=48 velocity=33 time=0
note_on channel=0 note=52 velocity=41 time=0
note_on channel=0 note=57 velocity=33 time=120
note_on channel=0 note=52 velocity=0 time=60
note_on channel=0 note=48 velocity=0 time=0
note_on channel=0 note=57 velocity=0 time=0
note_on channel=0 note=48 velocity=35 time=0
note_on channel=0 note=52 velocity=42 time=0
note_on channel=0 note=57 velocity=33 time=120
note_on channel=0 note=52 velocity=0 time=60
note_on channel=0 note=48 velocity=0 time=0
note_on channel=0 note=87 velocity=66 time=0
note_on channel=0 note=87 velocity=0 time=0
note_on channel=0 note=57 velocity=0 time=0
note_on channel=0 note=88 velocity=85 time=0
note_on channel=0 note=48 velocity=37 time=0
note_on channel=0 note=52 velocity=45 time=0
note_on channel=0 note=58 velocity=36 time=120
note_on channel=0 note=52 velocity=0 time=60
note_on channel=0 note=48 velocity=0 time=0
note_on channel=0 note=58 velocity=0 time=60
note_on channel=0 note=48 velocity=38 time=0
note_on channel=0 note=52 velocity=45 time=0
note_on channel=0 note=58 velocity=37 time=120
note_on channel=0 note=52 velocity=0 time=60
note_on channel=0 note=48 velocity=0 time=0
note_on channel=0 note=58 velocity=0 time=60
note_on channel=0 note=48 velocity=39 time=0
note_on channel=0 note=52 velocity=47 time=0
note_on channel=0 note=88 velocity=0 time=120
note_on channel=0 note=86 velocity=76 time=0
note_on channel=0 note=58 velocity=38 time=0
note_on channel=0 note=52 velocity=0 time=60
note_on channel=0 note=48 velocity=0 time=0
note_on channel=0 note=86 velocity=0 time=60
note_on channel=0 note=58 velocity=0 time=0
note_on channel=0 note=84 velocity=75 time=0
note_on channel=0 note=48 velocity=39 time=0
note_on channel=0 note=52 velocity=47 time=0
note_on channel=0 note=84 velocity=0 time=120
note_on channel=0 note=83 velocity=71 time=0
note_on channel=0 note=58 velocity=38 time=0
note_on channel=0 note=52 velocity=0 time=60
note_on channel=0 note=48 velocity=0 time=0
note_on channel=0 note=83 velocity=0 time=60
note_on channel=0 note=58 velocity=0 time=0
note_on channel=0 note=82 velocity=71 time=0
note_on channel=0 note=48 velocity=41 time=0
note_on channel=0 note=52 velocity=50 time=0
note_on channel=0 note=58 velocity=40 time=120
note_on channel=0 note=52 velocity=0 time=60
note_on channel=0 note=48 velocity=0 time=0
note_on channel=0 note=82 velocity=0 time=60
note_on channel=0 note=58 velocity=0 time=0
note_on channel=0 note=48 velocity=41 time=0
note_on channel=0 note=52 velocity=51 time=0
note_on channel=0 note=58 velocity=40 time=120
note_on channel=0 note=52 velocity=0 time=60
note_on channel=0 note=48 velocity=0 time=0
note_on channel=0 note=58 velocity=0 time=60
note_on channel=0 note=48 velocity=42 time=0
note_on channel=0 note=52 velocity=51 time=0
note_on channel=0 note=58 velocity=42 time=120
note_on channel=0 note=52 velocity=0 time=60
note_on channel=0 note=48 velocity=0 time=0
note_on channel=0 note=58 velocity=0 time=0
note_on channel=0 note=48 velocity=43 time=0
note_on channel=0 note=52 velocity=53 time=0
note_on channel=0 note=58 velocity=42 time=120
note_on channel=0 note=52 velocity=0 time=60
note_on channel=0 note=48 velocity=0 time=0
note_on channel=0 note=58 velocity=0 time=0
note_on channel=0 note=83 velocity=56 time=0
note_on channel=0 note=47 velocity=40 time=0
note_on channel=0 note=51 velocity=35 time=120
note_on channel=0 note=47 velocity=0 time=20
note_on channel=0 note=54 velocity=35 time=100
note_on channel=0 note=51 velocity=0 time=20
note_on channel=0 note=59 velocity=35 time=100
note_on channel=0 note=54 velocity=0 time=20
note_on channel=0 note=59 velocity=0 time=100
note_on channel=0 note=47 velocity=41 time=0
note_on channel=0 note=81 velocity=54 time=120
note_on channel=0 note=51 velocity=35 time=0
note_on channel=0 note=47 velocity=0 time=20
note_on channel=0 note=83 velocity=0 time=0
note_on channel=0 note=79 velocity=53 time=100
note_on channel=0 note=54 velocity=35 time=0
note_on channel=0 note=81 velocity=0 time=20
note_on channel=0 note=51 velocity=0 time=0
note_on channel=0 note=78 velocity=51 time=100
note_on channel=0 note=59 velocity=35 time=0
note_on channel=0 note=79 velocity=0 time=20
note_on channel=0 note=54 velocity=0 time=0
note_on channel=0 note=59 velocity=0 time=100
note_on channel=0 note=79 velocity=53 time=0
note_on channel=0 note=47 velocity=39 time=0
note_on channel=0 note=78 velocity=0 time=20
note_on channel=0 note=78 velocity=52 time=100
note_on channel=0 note=52 velocity=35 time=0
note_on channel=0 note=47 velocity=0 time=20
note_on channel=0 note=79 velocity=0 time=0
note_on channel=0 note=76 velocity=51 time=100
note_on channel=0 note=55 velocity=35 time=0
note_on channel=0 note=78 velocity=0 time=20
note_on channel=0 note=52 velocity=0 time=0
note_on channel=0 note=75 velocity=50 time=100
note_on channel=0 note=59 velocity=35 time=0
note_on channel=0 note=76 velocity=0 time=20
note_on channel=0 note=55 velocity=0 time=0
note_on channel=0 note=59 velocity=0 time=100
note_on channel=0 note=76 velocity=50 time=0
note_on channel=0 note=47 velocity=40 time=0
note_on channel=0 note=75 velocity=0 time=20
note_on channel=0 note=79 velocity=52 time=100
note_on channel=0 note=52 velocity=35 time=0
note_on channel=0 note=47 velocity=0 time=20
note_on channel=0 note=76 velocity=0 time=0
note_on channel=0 note=78 velocity=50 time=100
note_on channel=0 note=55 velocity=35 time=0
note_on channel=0 note=79 velocity=0 time=20
note_on channel=0 note=52 velocity=0 time=0
note_on channel=0 note=76 velocity=50 time=100
note_on channel=0 note=59 velocity=35 time=0
note_on channel=0 note=78 velocity=0 time=20
note_on channel=0 note=55 velocity=0 time=0
note_on channel=0 note=59 velocity=0 time=40
note_on channel=0 note=75 velocity=50 time=0
note_on channel=0 note=47 velocity=40 time=0
note_on channel=0 note=76 velocity=0 time=20
note_on channel=0 note=73 velocity=49 time=100
note_on channel=0 note=54 velocity=35 time=0
note_on channel=0 note=47 velocity=0 time=20
note_on channel=0 note=75 velocity=0 time=0
note_on channel=0 note=71 velocity=48 time=100
note_on channel=0 note=57 velocity=35 time=0
note_on channel=0 note=73 velocity=0 time=20
note_on channel=0 note=54 velocity=0 time=0
note_on channel=0 note=70 velocity=47 time=80
note_on channel=0 note=59 velocity=35 time=0
note_on channel=0 note=71 velocity=0 time=20
note_on channel=0 note=57 velocity=0 time=0
note_on channel=0 note=59 velocity=0 time=100
note_on channel=0 note=71 velocity=49 time=0
note_on channel=0 note=47 velocity=40 time=0
note_on channel=0 note=70 velocity=0 time=20
note_on channel=0 note=73 velocity=49 time=0
note_on channel=0 note=54 velocity=35 time=0
note_on channel=0 note=47 velocity=0 time=20
note_on channel=0 note=71 velocity=0 time=0
note_on channel=0 note=74 velocity=49 time=100
note_on channel=0 note=57 velocity=35 time=0
note_on channel=0 note=73 velocity=0 time=20
note_on channel=0 note=54 velocity=0 time=0
note_on channel=0 note=75 velocity=50 time=100
note_on channel=0 note=59 velocity=35 time=0
note_on channel=0 note=74 velocity=0 time=20
note_on channel=0 note=57 velocity=0 time=0
note_on channel=0 note=59 velocity=0 time=40
note_on channel=0 note=76 velocity=50 time=0
note_on channel=0 note=47 velocity=40 time=0
note_on channel=0 note=75 velocity=0 time=20
note_on channel=0 note=75 velocity=50 time=100
note_on channel=0 note=52 velocity=35 time=0
note_on channel=0 note=47 velocity=0 time=20
note_on channel=0 note=76 velocity=0 time=0
note_on channel=0 note=76 velocity=51 time=100
note_on channel=0 note=55 velocity=35 time=0
note_on channel=0 note=75 velocity=0 time=20
note_on channel=0 note=52 velocity=0 time=0
note_on channel=0 note=78 velocity=51 time=80
note_on channel=0 note=59 velocity=35 time=0
note_on channel=0 note=76 velocity=0 time=20
note_on channel=0 note=55 velocity=0 time=0
note_on channel=0 note=59 velocity=0 time=100
note_on channel=0 note=79 velocity=49 time=0
note_on channel=0 note=47 velocity=40 time=0
note_on channel=0 note=78 velocity=0 time=20
note_on channel=0 note=80 velocity=50 time=0
note_on channel=0 note=52 velocity=35 time=0
note_on channel=0 note=47 velocity=0 time=20
note_on channel=0 note=79 velocity=0 time=0
note_on channel=0 note=81 velocity=52 time=100
note_on channel=0 note=55 velocity=35 time=0
note_on channel=0 note=80 velocity=0 time=20
note_on channel=0 note=52 velocity=0 time=0
note_on channel=0 note=82 velocity=53 time=100
note_on channel=0 note=59 velocity=35 time=0
note_on channel=0 note=81 velocity=0 time=20
note_on channel=0 note=55 velocity=0 time=0
note_on channel=0 note=59 velocity=0 time=0
note_on channel=0 note=83 velocity=55 time=0
note_on channel=0 note=47 velocity=40 time=0
note_on channel=0 note=82 velocity=0 time=20
note_on channel=0 note=82 velocity=53 time=100
note_on channel=0 note=51 velocity=35 time=0
note_on channel=0 note=47 velocity=0 time=20
note_on channel=0 note=83 velocity=0 time=0
note_on channel=0 note=83 velocity=53 time=100
note_on channel=0 note=54 velocity=35 time=0
note_on channel=0 note=82 velocity=0 time=20
note_on channel=0 note=51 velocity=0 time=0
note_on channel=0 note=82 velocity=50 time=40
note_on channel=0 note=59 velocity=35 time=0
note_on channel=0 note=83 velocity=0 time=20
note_on channel=0 note=54 velocity=0 time=0
note_on channel=0 note=59 velocity=0 time=100
note_on channel=0 note=83 velocity=52 time=0
note_on channel=0 note=47 velocity=40 time=0
note_on channel=0 note=82 velocity=0 time=20
note_on channel=0 note=81 velocity=52 time=100
note_on channel=0 note=51 velocity=35 time=0
note_on channel=0 note=47 velocity=0 time=20
note_on channel=0 note=83 velocity=0 time=0
note_on channel=0 note=79 velocity=51 time=80
note_on channel=0 note=54 velocity=35 time=0
note_on channel=0 note=81 velocity=0 time=20
note_on channel=0 note=51 velocity=0 time=0
note_on channel=0 note=78 velocity=50 time=100
note_on channel=0 note=59 velocity=35 time=0
note_on channel=0 note=79 velocity=0 time=20
note_on channel=0 note=54 velocity=0 time=0
note_on channel=0 note=59 velocity=0 time=0
note_on channel=0 note=79 velocity=52 time=0
note_on channel=0 note=47 velocity=40 time=0
note_on channel=0 note=78 velocity=0 time=20
note_on channel=0 note=78 velocity=51 time=100
note_on channel=0 note=52 velocity=35 time=0
note_on channel=0 note=47 velocity=0 time=20
note_on channel=0 note=79 velocity=0 time=0
note_on channel=0 note=76 velocity=49 time=100
note_on channel=0 note=55 velocity=35 time=0
note_on channel=0 note=78 velocity=0 time=20
note_on channel=0 note=52 velocity=0 time=0
note_on channel=0 note=75 velocity=50 time=100
note_on channel=0 note=59 velocity=35 time=0
note_on channel=0 note=76 velocity=0 time=20
note_on channel=0 note=55 velocity=0 time=0
note_on channel=0 note=59 velocity=0 time=100
note_on channel=0 note=76 velocity=50 time=0
note_on channel=0 note=47 velocity=41 time=0
note_on channel=0 note=75 velocity=0 time=20
note_on channel=0 note=79 velocity=53 time=100
note_on channel=0 note=52 velocity=35 time=0
note_on channel=0 note=47 velocity=0 time=20
note_on channel=0 note=76 velocity=0 time=0
note_on channel=0 note=78 velocity=50 time=100
note_on channel=0 note=55 velocity=35 time=0
note_on channel=0 note=79 velocity=0 time=20
note_on channel=0 note=52 velocity=0 time=0
note_on channel=0 note=76 velocity=50 time=100
note_on channel=0 note=59 velocity=35 time=0
note_on channel=0 note=78 velocity=0 time=20
note_on channel=0 note=55 velocity=0 time=0
note_on channel=0 note=59 velocity=0 time=100
note_on channel=0 note=75 velocity=50 time=0
note_on channel=0 note=47 velocity=40 time=0
note_on channel=0 note=76 velocity=0 time=20
note_on channel=0 note=73 velocity=49 time=100
note_on channel=0 note=54 velocity=35 time=0
note_on channel=0 note=47 velocity=0 time=20
note_on channel=0 note=75 velocity=0 time=0
note_on channel=0 note=71 velocity=48 time=100
note_on channel=0 note=57 velocity=35 time=0
note_on channel=0 note=73 velocity=0 time=20
note_on channel=0 note=54 velocity=0 time=0
note_on channel=0 note=70 velocity=47 time=100
note_on channel=0 note=59 velocity=35 time=0
note_on channel=0 note=71 velocity=0 time=20
note_on channel=0 note=57 velocity=0 time=0
note_on channel=0 note=59 velocity=0 time=100
note_on channel=0 note=71 velocity=49 time=0
note_on channel=0 note=47 velocity=40 time=0
note_on channel=0 note=70 velocity=0 time=20
note_on channel=0 note=73 velocity=50 time=100
note_on channel=0 note=54 velocity=36 time=0
note_on channel=0 note=47 velocity=0 time=20
note_on channel=0 note=71 velocity=0 time=0
note_on channel=0 note=74 velocity=50 time=100
note_on channel=0 note=57 velocity=36 time=0
note_on channel=0 note=73 velocity=0 time=20
note_on channel=0 note=54 velocity=0 time=0
note_on channel=0 note=75 velocity=52 time=100
note_on channel=0 note=59 velocity=36 time=0
note_on channel=0 note=74 velocity=0 time=20
note_on channel=0 note=57 velocity=0 time=0
note_on channel=0 note=59 velocity=0 time=100
note_on channel=0 note=76 velocity=52 time=0
note_on channel=0 note=47 velocity=42 time=0
note_on channel=0 note=75 velocity=0 time=20
note_on channel=0 note=75 velocity=52 time=100
note_on channel=0 note=52 velocity=36 time=0
note_on channel=0 note=47 velocity=0 time=20
note_on channel=0 note=76 velocity=0 time=0
note_on channel=0 note=76 velocity=54 time=100
note_on channel=0 note=55 velocity=37 time=0
note_on channel=0 note=75 velocity=0 time=20
note_on channel=0 note=52 velocity=0 time=0
note_on channel=0 note=78 velocity=54 time=100
note_on channel=0 note=59 velocity=37 time=0
note_on channel=0 note=76 velocity=0 time=20
note_on channel=0 note=55 velocity=0 time=0
note_on channel=0 note=59 velocity=0 time=100
note_on channel=0 note=79 velocity=56 time=0
note_on channel=0 note=47 velocity=42 time=0
note_on channel=0 note=78 velocity=0 time=20
note_on channel=0 note=80 velocity=58 time=100
note_on channel=0 note=52 velocity=37 time=0
note_on channel=0 note=47 velocity=0 time=20
note_on channel=0 note=79 velocity=0 time=0
note_on channel=0 note=81 velocity=60 time=0
note_on channel=0 note=55 velocity=37 time=0
note_on channel=0 note=80 velocity=0 time=20
note_on channel=0 note=52 velocity=0 time=0
note_on channel=0 note=82 velocity=62 time=100
note_on channel=0 note=59 velocity=38 time=0
note_on channel=0 note=81 velocity=0 time=20
note_on channel=0 note=55 velocity=0 time=0
note_on channel=0 note=59 velocity=0 time=0
note_on channel=0 note=83 velocity=68 time=0
note_on channel=0 note=47 velocity=44 time=0
note_on channel=0 note=82 velocity=0 time=20
note_on channel=0 note=47 velocity=0 time=57
note_on channel=0 note=83 velocity=0 time=0
note_on channel=0 note=78 velocity=60 time=0
note_on channel=0 note=51 velocity=38 time=0
note_on channel=0 note=51 velocity=0 time=120
note_on channel=0 note=78 velocity=0 time=0
note_on channel=0 note=75 velocity=61 time=0
note_on channel=0 note=54 velocity=38 time=0
note_on channel=0 note=54 velocity=0 time=120
note_on channel=0 note=75 velocity=0 time=0
note_on channel=0 note=71 velocity=61 time=0
note_on channel=0 note=59 velocity=38 time=0
note_on channel=0 note=59 velocity=0 time=120
note_on channel=0 note=71 velocity=0 time=0
note_on channel=0 note=70 velocity=75 time=0
note_on channel=0 note=58 velocity=50 time=0
note_on channel=0 note=58 velocity=0 time=45
note_on channel=0 note=70 velocity=0 time=0
note_on channel=0 note=71 velocity=63 time=0
note_on channel=0 note=59 velocity=41 time=0
note_on channel=0 note=59 velocity=0 time=120
note_on channel=0 note=71 velocity=0 time=0
note_on channel=0 note=76 velocity=63 time=0
note_on channel=0 note=55 velocity=40 time=0
note_on channel=0 note=55 velocity=0 time=120
note_on channel=0 note=76 velocity=0 time=0
note_on channel=0 note=79 velocity=63 time=0
note_on channel=0 note=52 velocity=41 time=0
note_on channel=0 note=52 velocity=0 time=120
note_on channel=0 note=79 velocity=0 time=0
note_on channel=0 note=83 velocity=74 time=0
note_on channel=0 note=47 velocity=52 time=0
note_on channel=0 note=47 velocity=0 time=40
note_on channel=0 note=83 velocity=0 time=0
note_on channel=0 note=78 velocity=65 time=0
note_on channel=0 note=51 velocity=44 time=0
note_on channel=0 note=51 velocity=0 time=120
note_on channel=0 note=78 velocity=0 time=0
note_on channel=0 note=75 velocity=68 time=0
note_on channel=0 note=54 velocity=45 time=0
note_on channel=0 note=54 velocity=0 time=120
note_on channel=0 note=75 velocity=0 time=0
note_on channel=0 note=71 velocity=68 time=0
note_on channel=0 note=59 velocity=45 time=0
note_on channel=0 note=59 velocity=0 time=120
note_on channel=0 note=71 velocity=0 time=0
note_on channel=0 note=70 velocity=80 time=0
note_on channel=0 note=58 velocity=60 time=0
note_on channel=0 note=58 velocity=0 time=17
note_on channel=0 note=70 velocity=0 time=0
note_on channel=0 note=71 velocity=71 time=0
note_on channel=0 note=59 velocity=51 time=0
note_on channel=0 note=59 velocity=0 time=120
note_on channel=0 note=71 velocity=0 time=0
note_on channel=0 note=76 velocity=71 time=0
note_on channel=0 note=55 velocity=51 time=0
note_on channel=0 note=55 velocity=0 time=120
note_on channel=0 note=76 velocity=0 time=0
note_on channel=0 note=79 velocity=72 time=0
note_on channel=0 note=52 velocity=52 time=0
note_on channel=0 note=52 velocity=0 time=120
note_on channel=0 note=79 velocity=0 time=0
note_on channel=0 note=83 velocity=91 time=0
note_on channel=0 note=47 velocity=63 time=0
note_on channel=0 note=47 velocity=0 time=57
note_on channel=0 note=83 velocity=0 time=0
note_on channel=0 note=78 velocity=82 time=0
note_on channel=0 note=51 velocity=52 time=0
note_on channel=0 note=51 velocity=0 time=120
note_on channel=0 note=78 velocity=0 time=0
note_on channel=0 note=75 velocity=82 time=0
note_on channel=0 note=54 velocity=52 time=0
note_on channel=0 note=54 velocity=0 time=120
note_on channel=0 note=75 velocity=0 time=0
note_on channel=0 note=71 velocity=82 time=0
note_on channel=0 note=59 velocity=52 time=0
note_on channel=0 note=59 velocity=0 time=120
note_on channel=0 note=71 velocity=0 time=0
note_on channel=0 note=83 velocity=91 time=0
note_on channel=0 note=47 velocity=63 time=0
note_on channel=0 note=47 velocity=0 time=34
note_on channel=0 note=83 velocity=0 time=0
note_on channel=0 note=79 velocity=82 time=0
note_on channel=0 note=52 velocity=52 time=0
note_on channel=0 note=52 velocity=0 time=120
note_on channel=0 note=79 velocity=0 time=0
note_on channel=0 note=76 velocity=82 time=0
note_on channel=0 note=55 velocity=52 time=0
note_on channel=0 note=55 velocity=0 time=120
note_on channel=0 note=76 velocity=0 time=0
note_on channel=0 note=71 velocity=82 time=0
note_on channel=0 note=59 velocity=52 time=0
note_on channel=0 note=59 velocity=0 time=0
note_on channel=0 note=71 velocity=0 time=0
note_on channel=0 note=83 velocity=91 time=0
note_on channel=0 note=47 velocity=63 time=0
note_on channel=0 note=47 velocity=0 time=45
note_on channel=0 note=83 velocity=0 time=0
note_on channel=0 note=78 velocity=82 time=0
note_on channel=0 note=51 velocity=52 time=0
note_on channel=0 note=51 velocity=0 time=120
note_on channel=0 note=78 velocity=0 time=0
note_on channel=0 note=75 velocity=81 time=0
note_on channel=0 note=54 velocity=52 time=0
note_on channel=0 note=54 velocity=0 time=120
note_on channel=0 note=75 velocity=0 time=0
note_on channel=0 note=71 velocity=81 time=0
note_on channel=0 note=59 velocity=52 time=0
note_on channel=0 note=59 velocity=0 time=120
note_on channel=0 note=71 velocity=0 time=0
note_on channel=0 note=83 velocity=91 time=0
note_on channel=0 note=47 velocity=63 time=0
note_on channel=0 note=47 velocity=0 time=45
note_on channel=0 note=83 velocity=0 time=0
note_on channel=0 note=79 velocity=81 time=0
note_on channel=0 note=52 velocity=52 time=0
note_on channel=0 note=52 velocity=0 time=120
note_on channel=0 note=79 velocity=0 time=0
note_on channel=0 note=76 velocity=81 time=0
note_on channel=0 note=55 velocity=52 time=0
note_on channel=0 note=55 velocity=0 time=120
note_on channel=0 note=76 velocity=0 time=0
note_on channel=0 note=71 velocity=82 time=0
note_on channel=0 note=59 velocity=52 time=0
note_on channel=0 note=59 velocity=0 time=0
note_on channel=0 note=71 velocity=0 time=0
note_on channel=0 note=83 velocity=91 time=0
note_on channel=0 note=47 velocity=54 time=0
note_on channel=0 note=51 velocity=54 time=0
note_on channel=0 note=54 velocity=54 time=0
note_on channel=0 note=59 velocity=63 time=0
note_on channel=0 note=83 velocity=0 time=51
note_on channel=0 note=78 velocity=82 time=0
note_on channel=0 note=78 velocity=0 time=120
note_on channel=0 note=75 velocity=82 time=0
note_on channel=0 note=75 velocity=0 time=120
note_on channel=0 note=71 velocity=82 time=0
note_on channel=0 note=71 velocity=0 time=120
note_on channel=0 note=59 velocity=0 time=0
note_on channel=0 note=47 velocity=0 time=0
note_on channel=0 note=51 velocity=0 time=0
note_on channel=0 note=54 velocity=0 time=0
note_on channel=0 note=78 velocity=91 time=0
note_on channel=0 note=78 velocity=0 time=120
note_on channel=0 note=75 velocity=82 time=0
note_on channel=0 note=75 velocity=0 time=80
note_on channel=0 note=71 velocity=82 time=0
note_on channel=0 note=71 velocity=0 time=120
note_on channel=0 note=66 velocity=82 time=0
note_on channel=0 note=66 velocity=0 time=120
note_on channel=0 note=75 velocity=91 time=0
note_on channel=0 note=75 velocity=0 time=120
note_on channel=0 note=71 velocity=82 time=0
note_on channel=0 note=71 velocity=0 time=120
note_on channel=0 note=66 velocity=81 time=0
note_on channel=0 note=66 velocity=0 time=40
note_on channel=0 note=63 velocity=81 time=0
note_on channel=0 note=63 velocity=0 time=120
note_on channel=0 note=71 velocity=91 time=0
note_on channel=0 note=71 velocity=0 time=120
note_on channel=0 note=66 velocity=81 time=0
note_on channel=0 note=66 velocity=0 time=120
note_on channel=0 note=63 velocity=81 time=0
note_on channel=0 note=63 velocity=0 time=120
note_on channel=0 note=59 velocity=82 time=0
note_on channel=0 note=59 velocity=0 time=0
note_on channel=0 note=66 velocity=91 time=0
note_on channel=0 note=66 velocity=0 time=120
note_on channel=0 note=63 velocity=81 time=0
note_on channel=0 note=63 velocity=0 time=120
note_on channel=0 note=59 velocity=80 time=0
note_on channel=0 note=59 velocity=0 time=80
note_on channel=0 note=54 velocity=80 time=0
note_on channel=0 note=54 velocity=0 time=120
note_on channel=0 note=63 velocity=89 time=0
note_on channel=0 note=63 velocity=0 time=40
note_on channel=0 note=59 velocity=79 time=0
note_on channel=0 note=59 velocity=0 time=120
note_on channel=0 note=54 velocity=79 time=0
note_on channel=0 note=54 velocity=0 time=0
note_on channel=0 note=51 velocity=78 time=0
note_on channel=0 note=51 velocity=0 time=120
note_on channel=0 note=59 velocity=87 time=0
note_on channel=0 note=59 velocity=0 time=120
note_on channel=0 note=54 velocity=78 time=0
note_on channel=0 note=54 velocity=0 time=80
note_on channel=0 note=51 velocity=77 time=0
note_on channel=0 note=51 velocity=0 time=120
note_on channel=0 note=47 velocity=77 time=0
note_on channel=0 note=47 velocity=0 time=40
note_on channel=0 note=35 velocity=85 time=0
note_on channel=0 note=35 velocity=0 time=120
note_on channel=0 note=39 velocity=76 time=0
note_on channel=0 note=39 velocity=0 time=0
note_on channel=0 note=42 velocity=76 time=0
note_on channel=0 note=42 velocity=0 time=120
note_on channel=0 note=47 velocity=75 time=0
note_on channel=0 note=47 velocity=0 time=0
note_on channel=0 note=35 velocity=77 time=0
note_on channel=0 note=35 velocity=0 time=80
note_on channel=0 note=47 velocity=68 time=120
note_on channel=0 note=47 velocity=0 time=120
note_on channel=0 note=37 velocity=73 time=120
note_on channel=0 note=37 velocity=0 time=120
note_on channel=0 note=49 velocity=66 time=120
note_on channel=0 note=49 velocity=0 time=120
note_on channel=0 note=71 velocity=75 time=120
note_on channel=0 note=39 velocity=71 time=0
note_on channel=0 note=39 velocity=0 time=120
note_on channel=0 note=71 velocity=0 time=0
note_on channel=0 note=59 velocity=69 time=120
note_on channel=0 note=51 velocity=65 time=0
note_on channel=0 note=51 velocity=0 time=120
note_on channel=0 note=59 velocity=0 time=0
note_on channel=0 note=73 velocity=74 time=120
note_on channel=0 note=73 velocity=0 time=120
note_on channel=0 note=61 velocity=65 time=0
note_on channel=0 note=61 velocity=0 time=120
note_on channel=0 note=75 velocity=71 time=0
note_on channel=0 note=39 velocity=69 time=0
note_on channel=0 note=39 velocity=0 time=80
note_on channel=0 note=75 velocity=0 time=0
note_on channel=0 note=63 velocity=64 time=120
note_on channel=0 note=51 velocity=61 time=0
note_on channel=0 note=51 velocity=0 time=0
note_on channel=0 note=63 velocity=0 time=0
note_on channel=0 note=40 velocity=65 time=120
note_on channel=0 note=40 velocity=0 time=120
note_on channel=0 note=52 velocity=59 time=40
note_on channel=0 note=52 velocity=0 time=120
note_on channel=0 note=75 velocity=67 time=120
note_on channel=0 note=42 velocity=65 time=0
note_on channel=0 note=42 velocity=0 time=80
note_on channel=0 note=75 velocity=0 time=0
note_on channel=0 note=63 velocity=53 time=120
note_on channel=0 note=54 velocity=54 time=0
note_on channel=0 note=54 velocity=0 time=0
note_on channel=0 note=63 velocity=0 time=0
note_on channel=0 note=76 velocity=59 time=120
note_on channel=0 note=76 velocity=0 time=120
note_on channel=0 note=64 velocity=50 time=80
note_on channel=0 note=64 velocity=0 time=120
note_on channel=0 note=78 velocity=52 time=0
note_on channel=0 note=78 velocity=0 time=120
note_on channel=0 note=66 velocity=49 time=120
note_on channel=0 note=66 velocity=0 time=40
note_on channel=0 note=80 velocity=52 time=120
note_on channel=0 note=80 velocity=0 time=120
note_on channel=0 note=68 velocity=49 time=80
note_on channel=0 note=68 velocity=0 time=120
note_on channel=0 note=81 velocity=52 time=40
note_on channel=0 note=42 velocity=41 time=0
note_on channel=0 note=42 velocity=0 time=120
note_on channel=0 note=81 velocity=0 time=0
note_on channel=0 note=69 velocity=48 time=120
note_on channel=0 note=54 velocity=36 time=0
note_on channel=0 note=54 velocity=0 time=120
note_on channel=0 note=69 velocity=0 time=0
note_on channel=0 note=81 velocity=52 time=0
note_on channel=0 note=44 velocity=41 time=0
note_on channel=0 note=44 velocity=0 time=120
note_on channel=0 note=81 velocity=0 time=0
note_on channel=0 note=71 velocity=46 time=40
note_on channel=0 note=56 velocity=36 time=0
note_on channel=0 note=56 velocity=0 time=0
note_on channel=0 note=71 velocity=0 time=0
note_on channel=0 note=81 velocity=51 time=120
note_on channel=0 note=45 velocity=40 time=0
note_on channel=0 note=45 velocity=0 time=40
note_on channel=0 note=81 velocity=0 time=0
note_on channel=0 note=73 velocity=46 time=0
note_on channel=0 note=57 velocity=37 time=0
note_on channel=0 note=57 velocity=0 time=120
note_on channel=0 note=73 velocity=0 time=0
note_on channel=0 note=81 velocity=51 time=40
note_on channel=0 note=47 velocity=39 time=0
note_on channel=0 note=47 velocity=0 time=0
note_on channel=0 note=81 velocity=0 time=0
note_on channel=0 note=75 velocity=46 time=120
note_on channel=0 note=59 velocity=36 time=0
note_on channel=0 note=59 velocity=0 time=40
note_on channel=0 note=75 velocity=0 time=0
note_on channel=0 note=81 velocity=51 time=0
note_on channel=0 note=49 velocity=38 time=0
note_on channel=0 note=49 velocity=0 time=20
note_on channel=0 note=81 velocity=0 time=0
note_on channel=0 note=76 velocity=47 time=0
note_on channel=0 note=61 velocity=37 time=0
note_on channel=0 note=61 velocity=0 time=0
note_on channel=0 note=76 velocity=0 time=0
note_on channel=0 note=81 velocity=50 time=0
note_on channel=0 note=51 velocity=40 time=0
note_on channel=0 note=51 velocity=0 time=0
note_on channel=0 note=81 velocity=0 time=0
note_on channel=0 note=78 velocity=46 time=0
note_on channel=0 note=63 velocity=37 time=0
note_on channel=0 note=63 velocity=0 time=0
note_on channel=0 note=78 velocity=0 time=0
note_on channel=0 note=71 velocity=42 time=0
note_on channel=0 note=76 velocity=42 time=0
note_on channel=0 note=80 velocity=55 time=0
note_on channel=0 note=68 velocity=39 time=0
note_on channel=0 note=64 velocity=33 time=0
note_on channel=0 note=64 velocity=0 time=0
note_on channel=0 note=80 velocity=0 time=0
note_on channel=0 note=71 velocity=0 time=0
note_on channel=0 note=76 velocity=0 time=0
note_on channel=0 note=68 velocity=0 time=0
note_on channel=0 note=69 velocity=40 time=0
note_on channel=0 note=75 velocity=40 time=0
note_on channel=0 note=78 velocity=52 time=0
note_on channel=0 note=66 velocity=35 time=0
note_on channel=0 note=63 velocity=29 time=0
note_on channel=0 note=59 velocity=29 time=0
note_on channel=0 note=59 velocity=0 time=0
note_on channel=0 note=75 velocity=0 time=0
note_on channel=0 note=78 velocity=0 time=0
note_on channel=0 note=69 velocity=0 time=0
note_on channel=0 note=63 velocity=0 time=0
note_on channel=0 note=66 velocity=0 time=0
note_on channel=0 note=68 velocity=40 time=0
note_on channel=0 note=73 velocity=40 time=0
note_on channel=0 note=76 velocity=52 time=0
note_on channel=0 note=64 velocity=35 time=0
note_on channel=0 note=61 velocity=29 time=0
note_on channel=0 note=61 velocity=0 time=0
note_on channel=0 note=76 velocity=0 time=0
note_on channel=0 note=68 velocity=0 time=0
note_on channel=0 note=73 velocity=0 time=0
note_on channel=0 note=64 velocity=0 time=0
note_on channel=0 note=66 velocity=42 time=0
note_on channel=0 note=72 velocity=42 time=0
note_on channel=0 note=75 velocity=55 time=0
note_on channel=0 note=63 velocity=39 time=0
note_on channel=0 note=60 velocity=33 time=0
note_on channel=0 note=56 velocity=33 time=0
note_on channel=0 note=56 velocity=0 time=960
note_on channel=0 note=72 velocity=0 time=0
note_on channel=0 note=75 velocity=0 time=0
note_on channel=0 note=66 velocity=0 time=0
note_on channel=0 note=60 velocity=0 time=0
note_on channel=0 note=63 velocity=0 time=0
note_on channel=0 note=64 velocity=40 time=0
note_on channel=0 note=73 velocity=52 time=0
note_on channel=0 note=61 velocity=34 time=0
note_on channel=0 note=57 velocity=28 time=0
note_on channel=0 note=57 velocity=0 time=0
note_on channel=0 note=64 velocity=0 time=0
note_on channel=0 note=73 velocity=0 time=0
note_on channel=0 note=61 velocity=0 time=0
note_on channel=0 note=69 velocity=49 time=0
note_on channel=0 note=71 velocity=49 time=0
note_on channel=0 note=75 velocity=63 time=0
note_on channel=0 note=54 velocity=37 time=0
note_on channel=0 note=57 velocity=45 time=0
note_on channel=0 note=59 velocity=37 time=0
note_on channel=0 note=63 velocity=45 time=0
note_on channel=0 note=63 velocity=0 time=0
note_on channel=0 note=57 velocity=0 time=0
note_on channel=0 note=71 velocity=0 time=0
note_on channel=0 note=75 velocity=0 time=0
note_on channel=0 note=69 velocity=0 time=0
note_on channel=0 note=59 velocity=0 time=0
note_on channel=0 note=54 velocity=0 time=0
note_on channel=0 note=71 velocity=50 time=0
note_on channel=0 note=76 velocity=66 time=0
note_on channel=0 note=56 velocity=40 time=0
note_on channel=0 note=59 velocity=40 time=0
note_on channel=0 note=64 velocity=49 time=0
note_on channel=0 note=64 velocity=0 time=0
note_on channel=0 note=56 velocity=0 time=0
note_on channel=0 note=71 velocity=0 time=0
note_on channel=0 note=76 velocity=0 time=0
note_on channel=0 note=59 velocity=0 time=0
note_on channel=0 note=73 velocity=48 time=0
note_on channel=0 note=76 velocity=55 time=0
note_on channel=0 note=78 velocity=72 time=0
note_on channel=0 note=66 velocity=51 time=0
note_on channel=0 note=57 velocity=46 time=0
note_on channel=0 note=61 velocity=42 time=0
note_on channel=0 note=61 velocity=0 time=0
note_on channel=0 note=76 velocity=0 time=0
note_on channel=0 note=78 velocity=0 time=0
note_on channel=0 note=73 velocity=0 time=0
note_on channel=0 note=57 velocity=0 time=0
note_on channel=0 note=66 velocity=0 time=0
note_on channel=0 note=71 velocity=59 time=0
note_on channel=0 note=76 velocity=59 time=0
note_on channel=0 note=80 velocity=77 time=0
note_on channel=0 note=59 velocity=49 time=0
note_on channel=0 note=64 velocity=49 time=0
note_on channel=0 note=68 velocity=59 time=0
note_on channel=0 note=68 velocity=0 time=0
note_on channel=0 note=76 velocity=0 time=0
note_on channel=0 note=80 velocity=0 time=0
note_on channel=0 note=64 velocity=0 time=0
note_on channel=0 note=75 velocity=32 time=0
note_on channel=0 note=78 velocity=49 time=0
note_on channel=0 note=63 velocity=27 time=0
note_on channel=0 note=66 velocity=32 time=0
note_on channel=0 note=71 velocity=0 time=0
note_on channel=0 note=69 velocity=48 time=0
note_on channel=0 note=59 velocity=0 time=478
note_on channel=0 note=66 velocity=0 time=0
note_on channel=0 note=63 velocity=0 time=0
note_on channel=0 note=78 velocity=0 time=0
note_on channel=0 note=69 velocity=0 time=0
note_on channel=0 note=75 velocity=0 time=0
note_on channel=0 note=59 velocity=37 time=0
note_on channel=0 note=64 velocity=37 time=0
note_on channel=0 note=68 velocity=45 time=0
note_on channel=0 note=56 velocity=35 time=0
note_on channel=0 note=52 velocity=29 time=0
note_on channel=0 note=52 velocity=0 time=0
note_on channel=0 note=68 velocity=0 time=0
note_on channel=0 note=59 velocity=0 time=0
note_on channel=0 note=64 velocity=0 time=0
note_on channel=0 note=56 velocity=0 time=0
note_on channel=0 note=57 velocity=36 time=0
note_on channel=0 note=63 velocity=36 time=0
note_on channel=0 note=66 velocity=43 time=0
note_on channel=0 note=54 velocity=31 time=0
note_on channel=0 note=51 velocity=26 time=0
note_on channel=0 note=47 velocity=26 time=0
note_on channel=0 note=47 velocity=0 time=0
note_on channel=0 note=63 velocity=0 time=0
note_on channel=0 note=66 velocity=0 time=0
note_on channel=0 note=57 velocity=0 time=0
note_on channel=0 note=51 velocity=0 time=0
note_on channel=0 note=54 velocity=0 time=0
note_on channel=0 note=56 velocity=36 time=0
note_on channel=0 note=61 velocity=36 time=0
note_on channel=0 note=64 velocity=43 time=0
note_on channel=0 note=52 velocity=31 time=0
note_on channel=0 note=49 velocity=26 time=0
note_on channel=0 note=49 velocity=0 time=0
note_on channel=0 note=64 velocity=0 time=0
note_on channel=0 note=56 velocity=0 time=0
note_on channel=0 note=61 velocity=0 time=0
note_on channel=0 note=52 velocity=0 time=0
note_on channel=0 note=54 velocity=37 time=0
note_on channel=0 note=60 velocity=37 time=0
note_on channel=0 note=63 velocity=45 time=0
note_on channel=0 note=51 velocity=35 time=0
note_on channel=0 note=48 velocity=29 time=0
note_on channel=0 note=44 velocity=29 time=0
note_on channel=0 note=44 velocity=0 time=960
note_on channel=0 note=60 velocity=0 time=0
note_on channel=0 note=63 velocity=0 time=0
note_on channel=0 note=54 velocity=0 time=0
note_on channel=0 note=48 velocity=0 time=0
note_on channel=0 note=51 velocity=0 time=0
note_on channel=0 note=57 velocity=36 time=0
note_on channel=0 note=52 velocity=36 time=0
note_on channel=0 note=61 velocity=43 time=0
note_on channel=0 note=49 velocity=30 time=0
note_on channel=0 note=45 velocity=25 time=0
note_on channel=0 note=45 velocity=0 time=0
note_on channel=0 note=61 velocity=0 time=0
note_on channel=0 note=57 velocity=0 time=0
note_on channel=0 note=52 velocity=0 time=0
note_on channel=0 note=49 velocity=0 time=0
note_on channel=0 note=52 velocity=44 time=0
note_on channel=0 note=56 velocity=44 time=0
note_on channel=0 note=59 velocity=52 time=0
note_on channel=0 note=35 velocity=33 time=0
note_on channel=0 note=47 velocity=40 time=0
note_on channel=0 note=56 velocity=0 time=480
note_on channel=0 note=52 velocity=0 time=0
note_on channel=0 note=54 velocity=50 time=0
note_on channel=0 note=57 velocity=50 time=0
note_on channel=0 note=59 velocity=0 time=0
note_on channel=0 note=61 velocity=61 time=0
note_on channel=0 note=61 velocity=0 time=0
note_on channel=0 note=63 velocity=69 time=0
note_on channel=0 note=63 velocity=0 time=0
note_on channel=0 note=54 velocity=0 time=0
note_on channel=0 note=47 velocity=0 time=0
note_on channel=0 note=35 velocity=0 time=0
note_on channel=0 note=57 velocity=0 time=0
note_on channel=0 note=56 velocity=43 time=0
note_on channel=0 note=64 velocity=49 time=0
note_on channel=0 note=40 velocity=38 time=0
note_on channel=0 note=52 velocity=43 time=0
note_on channel=0 note=64 velocity=0 time=120
note_on channel=0 note=56 velocity=0 time=40
note_on channel=0 note=66 velocity=48 time=0
note_on channel=0 note=66 velocity=0 time=120
note_on channel=0 note=68 velocity=49 time=40
note_on channel=0 note=68 velocity=0 time=120
note_on channel=0 note=40 velocity=0 time=0
note_on channel=0 note=52 velocity=0 time=0
note_on channel=0 note=69 velocity=47 time=0
note_on channel=0 note=69 velocity=0 time=120
note_on channel=0 note=71 velocity=48 time=40
note_on channel=0 note=71 velocity=0 time=120
note_on channel=0 note=73 velocity=49 time=40
note_on channel=0 note=73 velocity=0 time=120
note_on channel=0 note=74 velocity=50 time=0
note_on channel=0 note=74 velocity=0 time=120
note_on channel=0 note=75 velocity=51 time=40
note_on channel=0 note=75 velocity=0 time=120
note_on channel=0 note=76 velocity=52 time=40
note_on channel=0 note=76 velocity=0 time=120
note_on channel=0 note=77 velocity=52 time=40
note_on channel=0 note=77 velocity=0 time=120
note_on channel=0 note=78 velocity=53 time=40
note_on channel=0 note=78 velocity=0 time=120
note_on channel=0 note=79 velocity=53 time=40
note_on channel=0 note=79 velocity=0 time=120
note_on channel=0 note=71 velocity=45 time=0
note_on channel=0 note=80 velocity=57 time=0
note_on channel=0 note=68 velocity=44 time=0
note_on channel=0 note=64 velocity=37 time=0
note_on channel=0 note=80 velocity=0 time=160
note_on channel=0 note=79 velocity=53 time=0
note_on channel=0 note=79 velocity=0 time=160
note_on channel=0 note=80 velocity=53 time=0
note_on channel=0 note=80 velocity=0 time=160
note_on channel=0 note=81 velocity=53 time=0
note_on channel=0 note=81 velocity=0 time=160
note_on channel=0 note=79 velocity=53 time=0
note_on channel=0 note=79 velocity=0 time=160
note_on channel=0 note=80 velocity=53 time=0
note_on channel=0 note=80 velocity=0 time=0
note_on channel=0 note=64 velocity=0 time=0
note_on channel=0 note=68 velocity=0 time=0
note_on channel=0 note=71 velocity=0 time=0
note_on channel=0 note=69 velocity=60 time=0
note_on channel=0 note=66 velocity=40 time=0
note_on channel=0 note=63 velocity=33 time=0
note_on channel=0 note=59 velocity=33 time=0
note_on channel=0 note=80 velocity=54 time=160
note_on channel=0 note=80 velocity=0 time=160
note_on channel=0 note=78 velocity=54 time=0
note_on channel=0 note=78 velocity=0 time=0
note_on channel=0 note=59 velocity=0 time=0
note_on channel=0 note=69 velocity=0 time=0
note_on channel=0 note=66 velocity=0 time=0
note_on channel=0 note=63 velocity=0 time=0
note_on channel=0 note=68 velocity=60 time=0
note_on channel=0 note=64 velocity=40 time=0
note_on channel=0 note=61 velocity=33 time=0
note_on channel=0 note=78 velocity=53 time=160
note_on channel=0 note=78 velocity=0 time=160
note_on channel=0 note=76 velocity=53 time=0
note_on channel=0 note=76 velocity=0 time=0
note_on channel=0 note=61 velocity=0 time=0
note_on channel=0 note=64 velocity=0 time=0
note_on channel=0 note=68 velocity=0 time=0
note_on channel=0 note=66 velocity=60 time=0
note_on channel=0 note=63 velocity=44 time=0
note_on channel=0 note=60 velocity=37 time=0
note_on channel=0 note=56 velocity=37 time=0
note_on channel=0 note=72 velocity=54 time=160
note_on channel=0 note=72 velocity=0 time=160
note_on channel=0 note=75 velocity=54 time=0
note_on channel=0 note=75 velocity=0 time=160
note_on channel=0 note=76 velocity=54 time=0
note_on channel=0 note=76 velocity=0 time=160
note_on channel=0 note=72 velocity=54 time=0
note_on channel=0 note=72 velocity=0 time=160
note_on channel=0 note=75 velocity=54 time=0
note_on channel=0 note=75 velocity=0 time=160
note_on channel=0 note=60 velocity=0 time=0
note_on channel=0 note=66 velocity=0 time=0
note_on channel=0 note=63 velocity=0 time=0
note_on channel=0 note=56 velocity=0 time=0
note_on channel=0 note=64 velocity=60 time=0
note_on channel=0 note=61 velocity=39 time=0
note_on channel=0 note=57 velocity=32 time=0
note_on channel=0 note=69 velocity=54 time=160
note_on channel=0 note=69 velocity=0 time=160
note_on channel=0 note=73 velocity=54 time=0
note_on channel=0 note=73 velocity=0 time=0
note_on channel=0 note=75 velocity=54 time=0
note_on channel=0 note=75 velocity=0 time=160
note_on channel=0 note=69 velocity=54 time=0
note_on channel=0 note=69 velocity=0 time=160
note_on channel=0 note=73 velocity=54 time=0
note_on channel=0 note=73 velocity=0 time=0
note_on channel=0 note=64 velocity=0 time=0
note_on channel=0 note=61 velocity=0 time=0
note_on channel=0 note=57 velocity=0 time=0
note_on channel=0 note=69 velocity=62 time=0
note_on channel=0 note=54 velocity=39 time=0
note_on channel=0 note=57 velocity=47 time=0
note_on channel=0 note=59 velocity=39 time=0
note_on channel=0 note=63 velocity=47 time=0
note_on channel=0 note=74 velocity=62 time=160
note_on channel=0 note=74 velocity=0 time=160
note_on channel=0 note=75 velocity=57 time=0
note_on channel=0 note=75 velocity=0 time=160
note_on channel=0 note=76 velocity=57 time=0
note_on channel=0 note=76 velocity=0 time=160
note_on channel=0 note=74 velocity=59 time=0
note_on channel=0 note=74 velocity=0 time=160
note_on channel=0 note=75 velocity=59 time=0
note_on channel=0 note=75 velocity=0 time=0
note_on channel=0 note=54 velocity=0 time=0
note_on channel=0 note=57 velocity=0 time=0
note_on channel=0 note=69 velocity=0 time=0
note_on channel=0 note=63 velocity=0 time=0
note_on channel=0 note=59 velocity=0 time=0
note_on channel=0 note=71 velocity=71 time=0
note_on channel=0 note=56 velocity=45 time=0
note_on channel=0 note=59 velocity=45 time=0
note_on channel=0 note=64 velocity=53 time=0
note_on channel=0 note=78 velocity=63 time=160
note_on channel=0 note=78 velocity=0 time=160
note_on channel=0 note=76 velocity=64 time=0
note_on channel=0 note=76 velocity=0 time=0
note_on channel=0 note=64 velocity=0 time=0
note_on channel=0 note=71 velocity=0 time=0
note_on channel=0 note=56 velocity=0 time=0
note_on channel=0 note=59 velocity=0 time=0
note_on channel=0 note=73 velocity=74 time=0
note_on channel=0 note=66 velocity=59 time=0
note_on channel=0 note=57 velocity=49 time=0
note_on channel=0 note=61 velocity=49 time=0
note_on channel=0 note=80 velocity=65 time=160
note_on channel=0 note=80 velocity=0 time=160
note_on channel=0 note=78 velocity=65 time=0
note_on channel=0 note=78 velocity=0 time=0
note_on channel=0 note=61 velocity=0 time=0
note_on channel=0 note=73 velocity=0 time=0
note_on channel=0 note=66 velocity=0 time=0
note_on channel=0 note=57 velocity=0 time=0
note_on channel=0 note=80 velocity=79 time=0
note_on channel=0 note=76 velocity=79 time=0
note_on channel=0 note=59 velocity=53 time=0
note_on channel=0 note=64 velocity=53 time=0
note_on channel=0 note=68 velocity=65 time=0
note_on channel=0 note=80 velocity=0 time=160
note_on channel=0 note=79 velocity=72 time=0
note_on channel=0 note=79 velocity=0 time=160
note_on channel=0 note=80 velocity=72 time=0
note_on channel=0 note=80 velocity=0 time=160
note_on channel=0 note=83 velocity=68 time=0
note_on channel=0 note=83 velocity=0 time=160
note_on channel=0 note=81 velocity=72 time=0
note_on channel=0 note=81 velocity=0 time=160
note_on channel=0 note=80 velocity=69 time=0
note_on channel=0 note=80 velocity=0 time=0
note_on channel=0 note=68 velocity=0 time=0
note_on channel=0 note=76 velocity=0 time=0
note_on channel=0 note=64 velocity=0 time=0
note_on channel=0 note=75 velocity=67 time=0
note_on channel=0 note=78 velocity=67 time=0
note_on channel=0 note=63 velocity=45 time=0
note_on channel=0 note=66 velocity=53 time=0
note_on channel=0 note=78 velocity=0 time=160
note_on channel=0 note=75 velocity=0 time=0
note_on channel=0 note=73 velocity=64 time=0
note_on channel=0 note=76 velocity=64 time=0
note_on channel=0 note=76 velocity=0 time=160
note_on channel=0 note=73 velocity=0 time=0
note_on channel=0 note=75 velocity=60 time=0
note_on channel=0 note=71 velocity=60 time=0
note_on channel=0 note=71 velocity=0 time=0
note_on channel=0 note=66 velocity=0 time=0
note_on channel=0 note=75 velocity=0 time=0
note_on channel=0 note=63 velocity=0 time=0
note_on channel=0 note=69 velocity=60 time=0
note_on channel=0 note=73 velocity=60 time=0
note_on channel=0 note=47 velocity=44 time=0
note_on channel=0 note=47 velocity=0 time=160
note_on channel=0 note=73 velocity=0 time=0
note_on channel=0 note=69 velocity=0 time=0
note_on channel=0 note=68 velocity=56 time=0
note_on channel=0 note=71 velocity=56 time=0
note_on channel=0 note=49 velocity=43 time=0
note_on channel=0 note=49 velocity=0 time=160
note_on channel=0 note=71 velocity=0 time=0
note_on channel=0 note=68 velocity=0 time=0
note_on channel=0 note=66 velocity=53 time=0
note_on channel=0 note=69 velocity=53 time=0
note_on channel=0 note=51 velocity=41 time=0
note_on channel=0 note=59 velocity=0 time=158
note_on channel=0 note=66 velocity=0 time=0
note_on channel=0 note=69 velocity=0 time=0
note_on channel=0 note=51 velocity=0 time=0
note_on channel=0 note=59 velocity=57 time=0
note_on channel=0 note=68 velocity=57 time=0
note_on channel=0 note=56 velocity=45 time=0
note_on channel=0 note=52 velocity=37 time=0
note_on channel=0 note=68 velocity=0 time=160
note_on channel=0 note=67 velocity=49 time=0
note_on channel=0 note=67 velocity=0 time=160
note_on channel=0 note=68 velocity=49 time=0
note_on channel=0 note=68 velocity=0 time=160
note_on channel=0 note=69 velocity=49 time=0
note_on channel=0 note=69 velocity=0 time=160
note_on channel=0 note=67 velocity=49 time=0
note_on channel=0 note=67 velocity=0 time=160
note_on channel=0 note=68 velocity=49 time=0
note_on channel=0 note=68 velocity=0 time=0
note_on channel=0 note=52 velocity=0 time=0
note_on channel=0 note=56 velocity=0 time=0
note_on channel=0 note=59 velocity=0 time=0
note_on channel=0 note=57 velocity=56 time=0
note_on channel=0 note=54 velocity=41 time=0
note_on channel=0 note=51 velocity=33 time=0
note_on channel=0 note=47 velocity=33 time=0
note_on channel=0 note=68 velocity=50 time=160
note_on channel=0 note=68 velocity=0 time=160
note_on channel=0 note=66 velocity=50 time=0
note_on channel=0 note=66 velocity=0 time=0
note_on channel=0 note=47 velocity=0 time=0
note_on channel=0 note=57 velocity=0 time=0
note_on channel=0 note=54 velocity=0 time=0
note_on channel=0 note=51 velocity=0 time=0
note_on channel=0 note=56 velocity=56 time=0
note_on channel=0 note=52 velocity=41 time=0
note_on channel=0 note=49 velocity=33 time=0
note_on channel=0 note=66 velocity=49 time=160
note_on channel=0 note=66 velocity=0 time=160
note_on channel=0 note=64 velocity=49 time=0
note_on channel=0 note=64 velocity=0 time=0
note_on channel=0 note=49 velocity=0 time=0
note_on channel=0 note=52 velocity=0 time=0
note_on channel=0 note=56 velocity=0 time=0
note_on channel=0 note=51 velocity=37 time=0
note_on channel=0 note=54 velocity=49 time=0
note_on channel=0 note=48 velocity=37 time=0
note_on channel=0 note=44 velocity=37 time=0
note_on channel=0 note=60 velocity=50 time=160
note_on channel=0 note=60 velocity=0 time=160
note_on channel=0 note=63 velocity=50 time=0
note_on channel=0 note=63 velocity=0 time=160
note_on channel=0 note=64 velocity=53 time=0
note_on channel=0 note=64 velocity=0 time=160
note_on channel=0 note=60 velocity=50 time=0
note_on channel=0 note=60 velocity=0 time=160
note_on channel=0 note=63 velocity=50 time=0
note_on channel=0 note=63 velocity=0 time=160
note_on channel=0 note=48 velocity=0 time=0
note_on channel=0 note=51 velocity=0 time=0
note_on channel=0 note=54 velocity=0 time=0
note_on channel=0 note=44 velocity=0 time=0
note_on channel=0 note=45 velocity=39 time=0
note_on channel=0 note=49 velocity=39 time=0
note_on channel=0 note=52 velocity=32 time=0
note_on channel=0 note=57 velocity=50 time=160
note_on channel=0 note=57 velocity=0 time=160
note_on channel=0 note=61 velocity=50 time=0
note_on channel=0 note=61 velocity=0 time=0
note_on channel=0 note=63 velocity=53 time=0
note_on channel=0 note=63 velocity=0 time=160
note_on channel=0 note=57 velocity=50 time=0
note_on channel=0 note=57 velocity=0 time=160
note_on channel=0 note=61 velocity=50 time=0
note_on channel=0 note=61 velocity=0 time=0
note_on channel=0 note=45 velocity=0 time=0
note_on channel=0 note=49 velocity=0 time=0
note_on channel=0 note=52 velocity=0 time=0
note_on channel=0 note=52 velocity=60 time=0
note_on channel=0 note=35 velocity=46 time=0
note_on channel=0 note=47 velocity=55 time=0
note_on channel=0 note=56 velocity=56 time=108
note_on channel=0 note=56 velocity=0 time=0
note_on channel=0 note=59 velocity=57 time=0
note_on channel=0 note=59 velocity=0 time=0
note_on channel=0 note=52 velocity=0 time=0
note_on channel=0 note=54 velocity=66 time=0
note_on channel=0 note=57 velocity=61 time=91
note_on channel=0 note=57 velocity=0 time=0
note_on channel=0 note=59 velocity=61 time=0
note_on channel=0 note=59 velocity=0 time=0
note_on channel=0 note=54 velocity=0 time=0
note_on channel=0 note=54 velocity=74 time=0
note_on channel=0 note=57 velocity=67 time=80
note_on channel=0 note=57 velocity=0 time=0
note_on channel=0 note=61 velocity=65 time=0
note_on channel=0 note=61 velocity=0 time=0
note_on channel=0 note=54 velocity=0 time=0
note_on channel=0 note=54 velocity=80 time=0
note_on channel=0 note=57 velocity=71 time=80
note_on channel=0 note=57 velocity=0 time=0
note_on channel=0 note=63 velocity=70 time=0
note_on channel=0 note=63 velocity=0 time=0
note_on channel=0 note=54 velocity=0 time=0
note_on channel=0 note=47 velocity=0 time=0
note_on channel=0 note=35 velocity=0 time=0
note_on channel=0 note=56 velocity=77 time=0
note_on channel=0 note=64 velocity=82 time=0
note_on channel=0 note=40 velocity=50 time=0
note_on channel=0 note=52 velocity=60 time=0
note_on channel=0 note=64 velocity=0 time=63
note_on channel=0 note=56 velocity=0 time=0
note_on channel=0 note=59 velocity=75 time=0
note_on channel=0 note=59 velocity=0 time=160
note_on channel=0 note=56 velocity=77 time=0
note_on channel=0 note=56 velocity=0 time=160
note_on channel=0 note=40 velocity=0 time=0
note_on channel=0 note=52 velocity=0 time=0
note_on channel=0 note=59 velocity=82 time=0
note_on channel=0 note=47 velocity=76 time=0
note_on channel=0 note=59 velocity=0 time=160
note_on channel=0 note=64 velocity=77 time=0
note_on channel=0 note=64 velocity=0 time=0
note_on channel=0 note=68 velocity=77 time=0
note_on channel=0 note=68 velocity=0 time=0
note_on channel=0 note=66 velocity=82 time=0
note_on channel=0 note=66 velocity=0 time=40
note_on channel=0 note=63 velocity=77 time=0
note_on channel=0 note=63 velocity=0 time=160
note_on channel=0 note=59 velocity=77 time=0
note_on channel=0 note=59 velocity=0 time=160
note_on channel=0 note=47 velocity=0 time=0
note_on channel=0 note=63 velocity=82 time=0
note_on channel=0 note=47 velocity=76 time=0
note_on channel=0 note=63 velocity=0 time=160
note_on channel=0 note=66 velocity=77 time=0
note_on channel=0 note=66 velocity=0 time=0
note_on channel=0 note=69 velocity=77 time=0
note_on channel=0 note=69 velocity=0 time=0
note_on channel=0 note=68 velocity=82 time=0
note_on channel=0 note=68 velocity=0 time=80
note_on channel=0 note=64 velocity=75 time=0
note_on channel=0 note=64 velocity=0 time=160
note_on channel=0 note=59 velocity=77 time=0
note_on channel=0 note=59 velocity=0 time=160
note_on channel=0 note=47 velocity=0 time=0
note_on channel=0 note=64 velocity=82 time=0
note_on channel=0 note=47 velocity=75 time=0
note_on channel=0 note=64 velocity=0 time=160
note_on channel=0 note=68 velocity=77 time=0
note_on channel=0 note=68 velocity=0 time=0
note_on channel=0 note=71 velocity=77 time=0
note_on channel=0 note=71 velocity=0 time=0
note_on channel=0 note=69 velocity=82 time=0
note_on channel=0 note=69 velocity=0 time=74
note_on channel=0 note=66 velocity=77 time=0
note_on channel=0 note=66 velocity=0 time=0
note_on channel=0 note=63 velocity=77 time=0
note_on channel=0 note=63 velocity=0 time=0
note_on channel=0 note=47 velocity=0 time=0
note_on channel=0 note=75 velocity=82 time=0
note_on channel=0 note=47 velocity=74 time=0
note_on channel=0 note=75 velocity=0 time=160
note_on channel=0 note=69 velocity=77 time=0
note_on channel=0 note=69 velocity=0 time=160
note_on channel=0 note=66 velocity=77 time=0
note_on channel=0 note=66 velocity=0 time=0
note_on channel=0 note=47 velocity=0 time=0
note_on channel=0 note=68 velocity=63 time=0
note_on channel=0 note=76 velocity=75 time=0
note_on channel=0 note=52 velocity=73 time=0
note_on channel=0 note=52 velocity=0 time=97
note_on channel=0 note=47 velocity=67 time=0
note_on channel=0 note=47 velocity=0 time=160
note_on channel=0 note=44 velocity=69 time=0
note_on channel=0 note=44 velocity=0 time=160
note_on channel=0 note=76 velocity=0 time=0
note_on channel=0 note=68 velocity=0 time=0
note_on channel=0 note=71 velocity=80 time=0
note_on channel=0 note=47 velocity=73 time=0
note_on channel=0 note=47 velocity=0 time=160
note_on channel=0 note=52 velocity=69 time=0
note_on channel=0 note=52 velocity=0 time=0
note_on channel=0 note=56 velocity=69 time=0
note_on channel=0 note=56 velocity=0 time=0
note_on channel=0 note=54 velocity=73 time=0
note_on channel=0 note=54 velocity=0 time=63
note_on channel=0 note=51 velocity=69 time=0
note_on channel=0 note=51 velocity=0 time=160
note_on channel=0 note=47 velocity=69 time=0
note_on channel=0 note=47 velocity=0 time=160
note_on channel=0 note=71 velocity=0 time=0
note_on channel=0 note=71 velocity=80 time=0
note_on channel=0 note=51 velocity=73 time=0
note_on channel=0 note=51 velocity=0 time=160
note_on channel=0 note=54 velocity=69 time=0
note_on channel=0 note=54 velocity=0 time=0
note_on channel=0 note=57 velocity=69 time=0
note_on channel=0 note=57 velocity=0 time=0
note_on channel=0 note=56 velocity=73 time=0
note_on channel=0 note=56 velocity=0 time=85
note_on channel=0 note=52 velocity=67 time=0
note_on channel=0 note=52 velocity=0 time=160
note_on channel=0 note=47 velocity=69 time=0
note_on channel=0 note=47 velocity=0 time=160
note_on channel=0 note=71 velocity=0 time=0
note_on channel=0 note=71 velocity=80 time=0
note_on channel=0 note=52 velocity=73 time=0
note_on channel=0 note=52 velocity=0 time=160
note_on channel=0 note=56 velocity=69 time=0
note_on channel=0 note=56 velocity=0 time=0
note_on channel=0 note=59 velocity=69 time=0
note_on channel=0 note=59 velocity=0 time=0
note_on channel=0 note=57 velocity=73 time=0
note_on channel=0 note=57 velocity=0 time=63
note_on channel=0 note=54 velocity=69 time=0
note_on channel=0 note=54 velocity=0 time=0
note_on channel=0 note=51 velocity=69 time=0
note_on channel=0 note=51 velocity=0 time=0
note_on channel=0 note=71 velocity=0 time=0
note_on channel=0 note=71 velocity=80 time=0
note_on channel=0 note=63 velocity=73 time=0
note_on channel=0 note=63 velocity=0 time=160
note_on channel=0 note=57 velocity=69 time=0
note_on channel=0 note=57 velocity=0 time=0
note_on channel=0 note=54 velocity=69 time=0
note_on channel=0 note=54 velocity=0 time=0
note_on channel=0 note=71 velocity=0 time=0
note_on channel=0 note=76 velocity=82 time=0
note_on channel=0 note=56 velocity=64 time=0
note_on channel=0 note=56 velocity=0 time=91
note_on channel=0 note=76 velocity=0 time=0
note_on channel=0 note=71 velocity=75 time=0
note_on channel=0 note=59 velocity=56 time=0
note_on channel=0 note=59 velocity=0 time=160
note_on channel=0 note=71 velocity=0 time=0
note_on channel=0 note=68 velocity=77 time=0
note_on channel=0 note=64 velocity=56 time=0
note_on channel=0 note=64 velocity=0 time=160
note_on channel=0 note=68 velocity=0 time=0
note_on channel=0 note=71 velocity=82 time=0
note_on channel=0 note=59 velocity=64 time=0
note_on channel=0 note=59 velocity=0 time=160
note_on channel=0 note=71 velocity=0 time=0
note_on channel=0 note=76 velocity=77 time=0
note_on channel=0 note=56 velocity=57 time=0
note_on channel=0 note=56 velocity=0 time=0
note_on channel=0 note=76 velocity=0 time=0
note_on channel=0 note=80 velocity=77 time=0
note_on channel=0 note=52 velocity=57 time=0
note_on channel=0 note=52 velocity=0 time=0
note_on channel=0 note=80 velocity=0 time=0
note_on channel=0 note=78 velocity=82 time=0
note_on channel=0 note=51 velocity=64 time=0
note_on channel=0 note=51 velocity=0 time=85
note_on channel=0 note=78 velocity=0 time=0
note_on channel=0 note=75 velocity=77 time=0
note_on channel=0 note=54 velocity=56 time=0
note_on channel=0 note=54 velocity=0 time=160
note_on channel=0 note=75 velocity=0 time=0
note_on channel=0 note=71 velocity=77 time=0
note_on channel=0 note=57 velocity=56 time=0
note_on channel=0 note=57 velocity=0 time=160
note_on channel=0 note=71 velocity=0 time=0
note_on channel=0 note=75 velocity=82 time=0
note_on channel=0 note=54 velocity=64 time=0
note_on channel=0 note=54 velocity=0 time=160
note_on channel=0 note=75 velocity=0 time=0
note_on channel=0 note=78 velocity=77 time=0
note_on channel=0 note=51 velocity=57 time=0
note_on channel=0 note=51 velocity=0 time=0
note_on channel=0 note=78 velocity=0 time=0
note_on channel=0 note=81 velocity=77 time=0
note_on channel=0 note=47 velocity=58 time=0
note_on channel=0 note=47 velocity=0 time=0
note_on channel=0 note=81 velocity=0 time=0
note_on channel=0 note=80 velocity=82 time=0
note_on channel=0 note=52 velocity=64 time=6
note_on channel=0 note=80 velocity=0 time=85
note_on channel=0 note=76 velocity=75 time=0
note_on channel=0 note=56 velocity=56 time=0
note_on channel=0 note=52 velocity=0 time=6
note_on channel=0 note=56 velocity=0 time=154
note_on channel=0 note=76 velocity=0 time=0
note_on channel=0 note=71 velocity=77 time=0
note_on channel=0 note=59 velocity=56 time=0
note_on channel=0 note=59 velocity=0 time=160
note_on channel=0 note=71 velocity=0 time=0
note_on channel=0 note=76 velocity=82 time=0
note_on channel=0 note=56 velocity=64 time=0
note_on channel=0 note=56 velocity=0 time=160
note_on channel=0 note=76 velocity=0 time=0
note_on channel=0 note=80 velocity=77 time=0
note_on channel=0 note=52 velocity=57 time=0
note_on channel=0 note=52 velocity=0 time=0
note_on channel=0 note=80 velocity=0 time=0
note_on channel=0 note=83 velocity=77 time=0
note_on channel=0 note=47 velocity=57 time=6
note_on channel=0 note=83 velocity=0 time=0
note_on channel=0 note=81 velocity=82 time=0
note_on channel=0 note=51 velocity=64 time=0
note_on channel=0 note=47 velocity=0 time=6
note_on channel=0 note=51 velocity=0 time=57
note_on channel=0 note=81 velocity=0 time=0
note_on channel=0 note=78 velocity=77 time=0
note_on channel=0 note=57 velocity=56 time=0
note_on channel=0 note=57 velocity=0 time=0
note_on channel=0 note=78 velocity=0 time=0
note_on channel=0 note=75 velocity=77 time=0
note_on channel=0 note=59 velocity=56 time=6
note_on channel=0 note=75 velocity=0 time=0
note_on channel=0 note=87 velocity=82 time=0
note_on channel=0 note=57 velocity=64 time=0
note_on channel=0 note=59 velocity=0 time=6
note_on channel=0 note=57 velocity=0 time=154
note_on channel=0 note=87 velocity=0 time=0
note_on channel=0 note=81 velocity=77 time=0
note_on channel=0 note=59 velocity=57 time=0
note_on channel=0 note=59 velocity=0 time=160
note_on channel=0 note=81 velocity=0 time=0
note_on channel=0 note=78 velocity=77 time=0
note_on channel=0 note=66 velocity=58 time=0
note_on channel=0 note=66 velocity=0 time=0
note_on channel=0 note=78 velocity=0 time=0
note_on channel=0 note=88 velocity=84 time=0
note_on channel=0 note=56 velocity=64 time=0
note_on channel=0 note=56 velocity=0 time=74
note_on channel=0 note=83 velocity=74 time=0
note_on channel=0 note=59 velocity=55 time=0
note_on channel=0 note=88 velocity=0 time=80
note_on channel=0 note=59 velocity=0 time=80
note_on channel=0 note=83 velocity=0 time=0
note_on channel=0 note=80 velocity=74 time=0
note_on channel=0 note=64 velocity=55 time=0
note_on channel=0 note=64 velocity=0 time=160
note_on channel=0 note=80 velocity=0 time=0
note_on channel=0 note=83 velocity=79 time=0
note_on channel=0 note=52 velocity=62 time=0
note_on channel=0 note=52 velocity=0 time=160
note_on channel=0 note=80 velocity=73 time=0
note_on channel=0 note=56 velocity=55 time=0
note_on channel=0 note=83 velocity=0 time=80
note_on channel=0 note=56 velocity=0 time=0
note_on channel=0 note=80 velocity=0 time=0
note_on channel=0 note=76 velocity=72 time=0
note_on channel=0 note=59 velocity=54 time=0
note_on channel=0 note=59 velocity=0 time=0
note_on channel=0 note=76 velocity=0 time=0
note_on channel=0 note=81 velocity=78 time=0
note_on channel=0 note=54 velocity=59 time=0
note_on channel=0 note=54 velocity=0 time=91
note_on channel=0 note=78 velocity=71 time=0
note_on channel=0 note=57 velocity=51 time=0
note_on channel=0 note=81 velocity=0 time=80
note_on channel=0 note=57 velocity=0 time=80
note_on channel=0 note=78 velocity=0 time=0
note_on channel=0 note=75 velocity=70 time=0
note_on channel=0 note=59 velocity=51 time=0
note_on channel=0 note=59 velocity=0 time=160
note_on channel=0 note=75 velocity=0 time=0
note_on channel=0 note=87 velocity=77 time=0
note_on channel=0 note=57 velocity=57 time=0
note_on channel=0 note=57 velocity=0 time=160
note_on channel=0 note=83 velocity=69 time=0
note_on channel=0 note=59 velocity=51 time=0
note_on channel=0 note=87 velocity=0 time=80
note_on channel=0 note=59 velocity=0 time=0
note_on channel=0 note=83 velocity=0 time=0
note_on channel=0 note=78 velocity=67 time=0
note_on channel=0 note=66 velocity=51 time=0
note_on channel=0 note=66 velocity=0 time=0
note_on channel=0 note=78 velocity=0 time=0
note_on channel=0 note=88 velocity=74 time=0
note_on channel=0 note=56 velocity=56 time=0
note_on channel=0 note=56 velocity=0 time=97
note_on channel=0 note=83 velocity=65 time=0
note_on channel=0 note=59 velocity=48 time=0
note_on channel=0 note=88 velocity=0 time=80
note_on channel=0 note=59 velocity=0 time=80
note_on channel=0 note=83 velocity=0 time=0
note_on channel=0 note=80 velocity=65 time=0
note_on channel=0 note=64 velocity=48 time=0
note_on channel=0 note=64 velocity=0 time=160
note_on channel=0 note=80 velocity=0 time=0
note_on channel=0 note=83 velocity=72 time=0
note_on channel=0 note=52 velocity=54 time=0
note_on channel=0 note=52 velocity=0 time=160
note_on channel=0 note=80 velocity=64 time=0
note_on channel=0 note=56 velocity=48 time=0
note_on channel=0 note=83 velocity=0 time=80
note_on channel=0 note=56 velocity=0 time=0
note_on channel=0 note=80 velocity=0 time=0
note_on channel=0 note=76 velocity=63 time=0
note_on channel=0 note=59 velocity=47 time=0
note_on channel=0 note=59 velocity=0 time=0
note_on channel=0 note=76 velocity=0 time=0
note_on channel=0 note=81 velocity=69 time=0
note_on channel=0 note=54 velocity=51 time=0
note_on channel=0 note=54 velocity=0 time=74
note_on channel=0 note=78 velocity=62 time=0
note_on channel=0 note=57 velocity=44 time=0
note_on channel=0 note=81 velocity=0 time=80
note_on channel=0 note=57 velocity=0 time=80
note_on channel=0 note=78 velocity=0 time=0
note_on channel=0 note=75 velocity=60 time=0
note_on channel=0 note=59 velocity=44 time=0
note_on channel=0 note=59 velocity=0 time=160
note_on channel=0 note=75 velocity=0 time=0
note_on channel=0 note=87 velocity=68 time=0
note_on channel=0 note=57 velocity=50 time=0
note_on channel=0 note=57 velocity=0 time=160
note_on channel=0 note=83 velocity=59 time=0
note_on channel=0 note=59 velocity=44 time=0
note_on channel=0 note=87 velocity=0 time=80
note_on channel=0 note=59 velocity=0 time=0
note_on channel=0 note=83 velocity=0 time=0
note_on channel=0 note=78 velocity=58 time=0
note_on channel=0 note=66 velocity=44 time=0
note_on channel=0 note=66 velocity=0 time=0
note_on channel=0 note=78 velocity=0 time=0
note_on channel=0 note=88 velocity=64 time=0
note_on channel=0 note=56 velocity=50 time=0
note_on channel=0 note=56 velocity=0 time=111
note_on channel=0 note=88 velocity=0 time=0
note_on channel=0 note=83 velocity=58 time=0
note_on channel=0 note=59 velocity=43 time=0
note_on channel=0 note=59 velocity=0 time=60
note_on channel=0 note=83 velocity=0 time=0
note_on channel=0 note=80 velocity=58 time=0
note_on channel=0 note=52 velocity=43 time=0
note_on channel=0 note=52 velocity=0 time=20
note_on channel=0 note=80 velocity=0 time=0
note_on channel=0 note=76 velocity=59 time=0
note_on channel=0 note=59 velocity=44 time=0
note_on channel=0 note=59 velocity=0 time=120
note_on channel=0 note=76 velocity=0 time=0
note_on channel=0 note=81 velocity=65 time=0
note_on channel=0 note=54 velocity=51 time=0
note_on channel=0 note=54 velocity=0 time=100
note_on channel=0 note=81 velocity=0 time=0
note_on channel=0 note=78 velocity=59 time=0
note_on channel=0 note=59 velocity=44 time=0
note_on channel=0 note=59 velocity=0 time=60
note_on channel=0 note=78 velocity=0 time=0
note_on channel=0 note=87 velocity=62 time=0
note_on channel=0 note=57 velocity=44 time=0
note_on channel=0 note=57 velocity=0 time=20
note_on channel=0 note=87 velocity=0 time=0
note_on channel=0 note=83 velocity=63 time=0
note_on channel=0 note=59 velocity=44 time=0
note_on channel=0 note=59 velocity=0 time=120
note_on channel=0 note=83 velocity=0 time=0
note_on channel=0 note=88 velocity=69 time=0
note_on channel=0 note=56 velocity=52 time=0
note_on channel=0 note=56 velocity=0 time=100
note_on channel=0 note=88 velocity=0 time=0
note_on channel=0 note=83 velocity=63 time=0
note_on channel=0 note=59 velocity=46 time=0
note_on channel=0 note=59 velocity=0 time=120
note_on channel=0 note=83 velocity=0 time=0
note_on channel=0 note=80 velocity=63 time=0
note_on channel=0 note=52 velocity=47 time=0
note_on channel=0 note=52 velocity=0 time=120
note_on channel=0 note=80 velocity=0 time=0
note_on channel=0 note=76 velocity=64 time=0
note_on channel=0 note=59 velocity=49 time=0
note_on channel=0 note=59 velocity=0 time=120
note_on channel=0 note=76 velocity=0 time=0
note_on channel=0 note=81 velocity=71 time=0
note_on channel=0 note=54 velocity=55 time=0
note_on channel=0 note=54 velocity=0 time=120
note_on channel=0 note=81 velocity=0 time=0
note_on channel=0 note=78 velocity=66 time=0
note_on channel=0 note=59 velocity=48 time=0
note_on channel=0 note=59 velocity=0 time=120
note_on channel=0 note=78 velocity=0 time=0
note_on channel=0 note=87 velocity=67 time=0
note_on channel=0 note=57 velocity=48 time=0
note_on channel=0 note=57 velocity=0 time=0
note_on channel=0 note=87 velocity=0 time=0
note_on channel=0 note=83 velocity=67 time=0
note_on channel=0 note=59 velocity=49 time=0
note_on channel=0 note=59 velocity=0 time=20
note_on channel=0 note=83 velocity=0 time=0
note_on channel=0 note=88 velocity=74 time=0
note_on channel=0 note=56 velocity=58 time=0
note_on channel=0 note=56 velocity=0 time=120
note_on channel=0 note=88 velocity=0 time=0
note_on channel=0 note=83 velocity=67 time=0
note_on channel=0 note=59 velocity=50 time=0
note_on channel=0 note=59 velocity=0 time=60
note_on channel=0 note=83 velocity=0 time=0
note_on channel=0 note=87 velocity=69 time=0
note_on channel=0 note=57 velocity=51 time=0
note_on channel=0 note=57 velocity=0 time=120
note_on channel=0 note=87 velocity=0 time=0
note_on channel=0 note=83 velocity=69 time=0
note_on channel=0 note=59 velocity=52 time=0
note_on channel=0 note=59 velocity=0 time=100
note_on channel=0 note=83 velocity=0 time=0
note_on channel=0 note=88 velocity=77 time=0
note_on channel=0 note=56 velocity=60 time=0
note_on channel=0 note=56 velocity=0 time=20
note_on channel=0 note=88 velocity=0 time=0
note_on channel=0 note=83 velocity=77 time=0
note_on channel=0 note=59 velocity=52 time=0
note_on channel=0 note=59 velocity=0 time=120
note_on channel=0 note=83 velocity=0 time=0
note_on channel=0 note=87 velocity=72 time=0
note_on channel=0 note=57 velocity=52 time=0
note_on channel=0 note=57 velocity=0 time=60
note_on channel=0 note=87 velocity=0 time=0
note_on channel=0 note=83 velocity=73 time=0
note_on channel=0 note=59 velocity=54 time=0
note_on channel=0 note=59 velocity=0 time=0
note_on channel=0 note=83 velocity=0 time=0
note_on channel=0 note=88 velocity=80 time=0
note_on channel=0 note=56 velocity=62 time=0
note_on channel=0 note=56 velocity=0 time=120
note_on channel=0 note=88 velocity=0 time=0
note_on channel=0 note=83 velocity=73 time=0
note_on channel=0 note=59 velocity=55 time=0
note_on channel=0 note=59 velocity=0 time=120
note_on channel=0 note=83 velocity=0 time=0
note_on channel=0 note=87 velocity=74 time=0
note_on channel=0 note=57 velocity=55 time=0
note_on channel=0 note=57 velocity=0 time=120
note_on channel=0 note=87 velocity=0 time=0
note_on channel=0 note=83 velocity=74 time=0
note_on channel=0 note=59 velocity=57 time=0
note_on channel=0 note=59 velocity=0 time=120
note_on channel=0 note=83 velocity=0 time=0
note_on channel=0 note=88 velocity=82 time=0
note_on channel=0 note=56 velocity=65 time=0
note_on channel=0 note=56 velocity=0 time=120
note_on channel=0 note=88 velocity=0 time=0
note_on channel=0 note=83 velocity=85 time=0
note_on channel=0 note=59 velocity=57 time=0
note_on channel=0 note=59 velocity=0 time=120
note_on channel=0 note=83 velocity=0 time=0
note_on channel=0 note=87 velocity=78 time=0
note_on channel=0 note=57 velocity=57 time=0
note_on channel=0 note=57 velocity=0 time=0
note_on channel=0 note=87 velocity=0 time=0
note_on channel=0 note=83 velocity=79 time=0
note_on channel=0 note=59 velocity=58 time=0
note_on channel=0 note=59 velocity=0 time=0
note_on channel=0 note=83 velocity=0 time=0
note_on channel=0 note=88 velocity=89 time=0
note_on channel=0 note=56 velocity=70 time=0
note_on channel=0 note=56 velocity=0 time=120
note_on channel=0 note=88 velocity=0 time=0
note_on channel=0 note=83 velocity=81 time=0
note_on channel=0 note=59 velocity=60 time=0
note_on channel=0 note=59 velocity=0 time=120
note_on channel=0 note=83 velocity=0 time=0
note_on channel=0 note=86 velocity=81 time=0
note_on channel=0 note=44 velocity=60 time=0
note_on channel=0 note=44 velocity=0 time=40
note_on channel=0 note=86 velocity=0 time=0
note_on channel=0 note=83 velocity=81 time=0
note_on channel=0 note=52 velocity=62 time=0
note_on channel=0 note=52 velocity=0 time=120
note_on channel=0 note=83 velocity=0 time=0
note_on channel=0 note=86 velocity=89 time=0
note_on channel=0 note=44 velocity=70 time=0
note_on channel=0 note=44 velocity=0 time=23
note_on channel=0 note=86 velocity=0 time=0
note_on channel=0 note=83 velocity=83 time=0
note_on channel=0 note=52 velocity=60 time=0
note_on channel=0 note=52 velocity=0 time=80
note_on channel=0 note=83 velocity=0 time=0
note_on channel=0 note=86 velocity=82 time=0
note_on channel=0 note=44 velocity=60 time=0
note_on channel=0 note=44 velocity=0 time=120
note_on channel=0 note=86 velocity=0 time=0
note_on channel=0 note=83 velocity=82 time=0
note_on channel=0 note=52 velocity=60 time=0
note_on channel=0 note=52 velocity=0 time=20
note_on channel=0 note=83 velocity=0 time=0
note_on channel=0 note=86 velocity=89 time=0
note_on channel=0 note=44 velocity=70 time=0
note_on channel=0 note=44 velocity=0 time=120
note_on channel=0 note=86 velocity=0 time=0
note_on channel=0 note=83 velocity=81 time=0
note_on channel=0 note=52 velocity=60 time=0
note_on channel=0 note=52 velocity=0 time=120
note_on channel=0 note=83 velocity=0 time=0
note_on channel=0 note=86 velocity=81 time=0
note_on channel=0 note=44 velocity=60 time=0
note_on channel=0 note=44 velocity=0 time=120
note_on channel=0 note=86 velocity=0 time=0
note_on channel=0 note=83 velocity=81 time=0
note_on channel=0 note=52 velocity=62 time=0
note_on channel=0 note=52 velocity=0 time=120
note_on channel=0 note=83 velocity=0 time=0
note_on channel=0 note=86 velocity=89 time=0
note_on channel=0 note=44 velocity=70 time=0
note_on channel=0 note=44 velocity=0 time=120
note_on channel=0 note=86 velocity=0 time=0
note_on channel=0 note=83 velocity=83 time=0
note_on channel=0 note=52 velocity=60 time=0
note_on channel=0 note=52 velocity=0 time=120
note_on channel=0 note=83 velocity=0 time=0
note_on channel=0 note=86 velocity=82 time=0
note_on channel=0 note=44 velocity=60 time=0
note_on channel=0 note=44 velocity=0 time=0
note_on channel=0 note=86 velocity=0 time=0
note_on channel=0 note=83 velocity=82 time=0
note_on channel=0 note=52 velocity=60 time=0
note_on channel=0 note=52 velocity=0 time=0
note_on channel=0 note=83 velocity=0 time=0
note_on channel=0 note=86 velocity=89 time=0
note_on channel=0 note=44 velocity=70 time=0
note_on channel=0 note=44 velocity=0 time=51
note_on channel=0 note=52 velocity=60 time=0
note_on channel=0 note=52 velocity=0 time=120
note_on channel=0 note=86 velocity=0 time=0
note_on channel=0 note=85 velocity=81 time=0
note_on channel=0 note=44 velocity=60 time=0
note_on channel=0 note=44 velocity=0 time=120
note_on channel=0 note=85 velocity=0 time=0
note_on channel=0 note=83 velocity=81 time=0
note_on channel=0 note=52 velocity=62 time=0
note_on channel=0 note=52 velocity=0 time=120
note_on channel=0 note=83 velocity=0 time=0
note_on channel=0 note=81 velocity=88 time=0
note_on channel=0 note=44 velocity=70 time=0
note_on channel=0 note=44 velocity=0 time=120
note_on channel=0 note=81 velocity=0 time=0
note_on channel=0 note=80 velocity=83 time=0
note_on channel=0 note=52 velocity=60 time=0
note_on channel=0 note=52 velocity=0 time=120
note_on channel=0 note=80 velocity=0 time=0
note_on channel=0 note=78 velocity=83 time=0
note_on channel=0 note=44 velocity=60 time=0
note_on channel=0 note=44 velocity=0 time=120
note_on channel=0 note=78 velocity=0 time=0
note_on channel=0 note=76 velocity=83 time=0
note_on channel=0 note=52 velocity=61 time=0
note_on channel=0 note=52 velocity=0 time=120
note_on channel=0 note=76 velocity=0 time=0
note_on channel=0 note=74 velocity=88 time=0
note_on channel=0 note=44 velocity=71 time=0
note_on channel=0 note=44 velocity=0 time=120
note_on channel=0 note=74 velocity=0 time=0
note_on channel=0 note=73 velocity=82 time=0
note_on channel=0 note=52 velocity=61 time=0
note_on channel=0 note=52 velocity=0 time=120
note_on channel=0 note=73 velocity=0 time=0
note_on channel=0 note=71 velocity=83 time=0
note_on channel=0 note=44 velocity=61 time=0
note_on channel=0 note=44 velocity=0 time=120
note_on channel=0 note=71 velocity=0 time=0
note_on channel=0 note=69 velocity=83 time=0
note_on channel=0 note=52 velocity=63 time=0
note_on channel=0 note=52 velocity=0 time=120
note_on channel=0 note=69 velocity=0 time=0
note_on channel=0 note=68 velocity=91 time=0
note_on channel=0 note=44 velocity=72 time=0
note_on channel=0 note=44 velocity=0 time=120
note_on channel=0 note=68 velocity=0 time=0
note_on channel=0 note=66 velocity=86 time=0
note_on channel=0 note=52 velocity=62 time=0
note_on channel=0 note=52 velocity=0 time=120
note_on channel=0 note=66 velocity=0 time=0
note_on channel=0 note=64 velocity=85 time=0
note_on channel=0 note=44 velocity=62 time=0
note_on channel=0 note=44 velocity=0 time=120
note_on channel=0 note=64 velocity=0 time=0
note_on channel=0 note=62 velocity=85 time=0
note_on channel=0 note=52 velocity=62 time=0
note_on channel=0 note=52 velocity=0 time=0
note_on channel=0 note=62 velocity=0 time=0
note_on channel=0 note=61 velocity=93 time=0
note_on channel=0 note=45 velocity=67 time=0
note_on channel=0 note=49 velocity=67 time=0
note_on channel=0 note=52 velocity=80 time=0
note_on channel=0 note=61 velocity=0 time=60
note_on channel=0 note=63 velocity=84 time=0
note_on channel=0 note=45 velocity=0 time=20
note_on channel=0 note=52 velocity=0 time=0
note_on channel=0 note=49 velocity=0 time=0
note_on channel=0 note=63 velocity=0 time=20
note_on channel=0 note=64 velocity=84 time=0
note_on channel=0 note=45 velocity=60 time=0
note_on channel=0 note=49 velocity=60 time=0
note_on channel=0 note=52 velocity=73 time=0
note_on channel=0 note=64 velocity=0 time=0
note_on channel=0 note=63 velocity=86 time=0
note_on channel=0 note=45 velocity=0 time=0
note_on channel=0 note=52 velocity=0 time=0
note_on channel=0 note=49 velocity=0 time=0
note_on channel=0 note=63 velocity=0 time=20
note_on channel=0 note=64 velocity=92 time=0
note_on channel=0 note=64 velocity=0 time=0
note_on channel=0 note=68 velocity=85 time=0
note_on channel=0 note=68 velocity=0 time=0
note_on channel=0 note=69 velocity=85 time=0
note_on channel=0 note=45 velocity=60 time=0
note_on channel=0 note=49 velocity=60 time=0
note_on channel=0 note=52 velocity=73 time=0
note_on channel=0 note=69 velocity=0 time=120
note_on channel=0 note=68 velocity=85 time=0
note_on channel=0 note=45 velocity=0 time=60
note_on channel=0 note=52 velocity=0 time=0
note_on channel=0 note=49 velocity=0 time=0
note_on channel=0 note=68 velocity=0 time=0
note_on channel=0 note=69 velocity=93 time=0
note_on channel=0 note=45 velocity=67 time=0
note_on channel=0 note=49 velocity=67 time=0
note_on channel=0 note=52 velocity=80 time=0
note_on channel=0 note=69 velocity=0 time=0
note_on channel=0 note=72 velocity=84 time=0
note_on channel=0 note=45 velocity=0 time=0
note_on channel=0 note=52 velocity=0 time=0
note_on channel=0 note=49 velocity=0 time=0
note_on channel=0 note=72 velocity=0 time=20
note_on channel=0 note=73 velocity=84 time=0
note_on channel=0 note=45 velocity=60 time=0
note_on channel=0 note=49 velocity=60 time=0
note_on channel=0 note=52 velocity=73 time=0
note_on channel=0 note=73 velocity=0 time=0
note_on channel=0 note=72 velocity=84 time=0
note_on channel=0 note=45 velocity=0 time=40
note_on channel=0 note=52 velocity=0 time=0
note_on channel=0 note=49 velocity=0 time=0
note_on channel=0 note=72 velocity=0 time=0
note_on channel=0 note=73 velocity=93 time=0
note_on channel=0 note=73 velocity=0 time=0
note_on channel=0 note=75 velocity=84 time=0
note_on channel=0 note=75 velocity=0 time=0
note_on channel=0 note=76 velocity=84 time=0
note_on channel=0 note=45 velocity=60 time=0
note_on channel=0 note=49 velocity=60 time=0
note_on channel=0 note=52 velocity=73 time=0
note_on channel=0 note=76 velocity=0 time=120
note_on channel=0 note=75 velocity=84 time=0
note_on channel=0 note=45 velocity=0 time=60
note_on channel=0 note=52 velocity=0 time=0
note_on channel=0 note=49 velocity=0 time=0
note_on channel=0 note=75 velocity=0 time=0
note_on channel=0 note=76 velocity=95 time=0
note_on channel=0 note=45 velocity=67 time=0
note_on channel=0 note=49 velocity=67 time=0
note_on channel=0 note=52 velocity=78 time=0
note_on channel=0 note=76 velocity=0 time=20
note_on channel=0 note=80 velocity=86 time=0
note_on channel=0 note=45 velocity=0 time=0
note_on channel=0 note=52 velocity=0 time=0
note_on channel=0 note=49 velocity=0 time=0
note_on channel=0 note=80 velocity=0 time=0
note_on channel=0 note=81 velocity=86 time=0
note_on channel=0 note=45 velocity=60 time=0
note_on channel=0 note=49 velocity=60 time=0
note_on channel=0 note=52 velocity=73 time=0
note_on channel=0 note=81 velocity=0 time=0
note_on channel=0 note=80 velocity=86 time=0
note_on channel=0 note=45 velocity=0 time=0
note_on channel=0 note=52 velocity=0 time=0
note_on channel=0 note=49 velocity=0 time=0
note_on channel=0 note=80 velocity=0 time=0
note_on channel=0 note=81 velocity=95 time=0
note_on channel=0 note=81 velocity=0 time=0
note_on channel=0 note=84 velocity=86 time=0
note_on channel=0 note=84 velocity=0 time=0
note_on channel=0 note=85 velocity=86 time=0
note_on channel=0 note=45 velocity=60 time=0
note_on channel=0 note=49 velocity=60 time=0
note_on channel=0 note=52 velocity=73 time=0
note_on channel=0 note=85 velocity=0 time=120
note_on channel=0 note=84 velocity=86 time=0
note_on channel=0 note=45 velocity=0 time=60
note_on channel=0 note=52 velocity=0 time=0
note_on channel=0 note=49 velocity=0 time=0
note_on channel=0 note=84 velocity=0 time=0
note_on channel=0 note=85 velocity=95 time=0
note_on channel=0 note=45 velocity=67 time=0
note_on channel=0 note=49 velocity=67 time=0
note_on channel=0 note=52 velocity=78 time=0
note_on channel=0 note=85 velocity=0 time=0
note_on channel=0 note=87 velocity=86 time=0
note_on channel=0 note=45 velocity=0 time=0
note_on channel=0 note=52 velocity=0 time=0
note_on channel=0 note=49 velocity=0 time=0
note_on channel=0 note=87 velocity=0 time=0
note_on channel=0 note=88 velocity=86 time=0
note_on channel=0 note=45 velocity=60 time=0
note_on channel=0 note=49 velocity=60 time=0
note_on channel=0 note=52 velocity=73 time=0
note_on channel=0 note=88 velocity=0 time=20
note_on channel=0 note=87 velocity=86 time=0
note_on channel=0 note=45 velocity=0 time=0
note_on channel=0 note=52 velocity=0 time=0
note_on channel=0 note=49 velocity=0 time=0
note_on channel=0 note=87 velocity=0 time=0
note_on channel=0 note=88 velocity=95 time=0
note_on channel=0 note=88 velocity=0 time=0
note_on channel=0 note=87 velocity=86 time=0
note_on channel=0 note=87 velocity=0 time=0
note_on channel=0 note=85 velocity=86 time=0
note_on channel=0 note=45 velocity=60 time=0
note_on channel=0 note=49 velocity=60 time=0
note_on channel=0 note=52 velocity=73 time=0
note_on channel=0 note=85 velocity=0 time=120
note_on channel=0 note=84 velocity=86 time=0
note_on channel=0 note=45 velocity=0 time=60
note_on channel=0 note=52 velocity=0 time=0
note_on channel=0 note=49 velocity=0 time=0
note_on channel=0 note=84 velocity=0 time=20
note_on channel=0 note=85 velocity=95 time=0
note_on channel=0 note=52 velocity=67 time=0
note_on channel=0 note=46 velocity=67 time=0
note_on channel=0 note=49 velocity=67 time=0
note_on channel=0 note=54 velocity=78 time=0
note_on channel=0 note=85 velocity=0 time=80
note_on channel=0 note=84 velocity=86 time=0
note_on channel=0 note=49 velocity=0 time=0
note_on channel=0 note=54 velocity=0 time=0
note_on channel=0 note=52 velocity=0 time=0
note_on channel=0 note=46 velocity=0 time=0
note_on channel=0 note=84 velocity=0 time=20
note_on channel=0 note=85 velocity=86 time=0
note_on channel=0 note=52 velocity=60 time=0
note_on channel=0 note=46 velocity=60 time=0
note_on channel=0 note=49 velocity=60 time=0
note_on channel=0 note=54 velocity=73 time=0
note_on channel=0 note=85 velocity=0 time=0
note_on channel=0 note=87 velocity=86 time=0
note_on channel=0 note=49 velocity=0 time=0
note_on channel=0 note=54 velocity=0 time=0
note_on channel=0 note=52 velocity=0 time=0
note_on channel=0 note=46 velocity=0 time=0
note_on channel=0 note=87 velocity=0 time=0
note_on channel=0 note=88 velocity=95 time=0
note_on channel=0 note=88 velocity=0 time=20
note_on channel=0 note=87 velocity=86 time=0
note_on channel=0 note=87 velocity=0 time=0
note_on channel=0 note=85 velocity=86 time=0
note_on channel=0 note=52 velocity=60 time=0
note_on channel=0 note=46 velocity=60 time=0
note_on channel=0 note=49 velocity=60 time=0
note_on channel=0 note=54 velocity=73 time=0
note_on channel=0 note=85 velocity=0 time=120
note_on channel=0 note=84 velocity=86 time=0
note_on channel=0 note=49 velocity=0 time=60
note_on channel=0 note=54 velocity=0 time=0
note_on channel=0 note=52 velocity=0 time=0
note_on channel=0 note=46 velocity=0 time=0
note_on channel=0 note=84 velocity=0 time=0
note_on channel=0 note=85 velocity=95 time=0
note_on channel=0 note=52 velocity=67 time=0
note_on channel=0 note=46 velocity=67 time=0
note_on channel=0 note=49 velocity=67 time=0
note_on channel=0 note=54 velocity=78 time=0
note_on channel=0 note=85 velocity=0 time=20
note_on channel=0 note=84 velocity=86 time=0
note_on channel=0 note=49 velocity=0 time=20
note_on channel=0 note=54 velocity=0 time=0
note_on channel=0 note=52 velocity=0 time=0
note_on channel=0 note=46 velocity=0 time=0
note_on channel=0 note=84 velocity=0 time=20
note_on channel=0 note=85 velocity=86 time=0
note_on channel=0 note=52 velocity=60 time=0
note_on channel=0 note=46 velocity=60 time=0
note_on channel=0 note=49 velocity=60 time=0
note_on channel=0 note=54 velocity=73 time=0
note_on channel=0 note=85 velocity=0 time=0
note_on channel=0 note=87 velocity=86 time=0
note_on channel=0 note=49 velocity=0 time=0
note_on channel=0 note=54 velocity=0 time=0
note_on channel=0 note=52 velocity=0 time=0
note_on channel=0 note=46 velocity=0 time=0
note_on channel=0 note=87 velocity=0 time=0
note_on channel=0 note=88 velocity=95 time=0
note_on channel=0 note=88 velocity=0 time=0
note_on channel=0 note=87 velocity=86 time=0
note_on channel=0 note=87 velocity=0 time=0
note_on channel=0 note=85 velocity=86 time=0
note_on channel=0 note=52 velocity=60 time=0
note_on channel=0 note=46 velocity=60 time=0
note_on channel=0 note=49 velocity=60 time=0
note_on channel=0 note=54 velocity=73 time=0
note_on channel=0 note=85 velocity=0 time=120
note_on channel=0 note=84 velocity=86 time=0
note_on channel=0 note=49 velocity=0 time=60
note_on channel=0 note=54 velocity=0 time=0
note_on channel=0 note=52 velocity=0 time=0
note_on channel=0 note=46 velocity=0 time=0
note_on channel=0 note=84 velocity=0 time=0
note_on channel=0 note=85 velocity=95 time=0
note_on channel=0 note=52 velocity=67 time=0
note_on channel=0 note=46 velocity=67 time=0
note_on channel=0 note=49 velocity=67 time=0
note_on channel=0 note=54 velocity=78 time=0
note_on channel=0 note=85 velocity=0 time=20
note_on channel=0 note=84 velocity=86 time=0
note_on channel=0 note=49 velocity=0 time=0
note_on channel=0 note=54 velocity=0 time=0
note_on channel=0 note=52 velocity=0 time=0
note_on channel=0 note=46 velocity=0 time=0
note_on channel=0 note=84 velocity=0 time=20
note_on channel=0 note=85 velocity=86 time=0
note_on channel=0 note=52 velocity=60 time=0
note_on channel=0 note=46 velocity=60 time=0
note_on channel=0 note=49 velocity=60 time=0
note_on channel=0 note=54 velocity=73 time=0
note_on channel=0 note=85 velocity=0 time=40
note_on channel=0 note=87 velocity=86 time=0
note_on channel=0 note=49 velocity=0 time=40
note_on channel=0 note=54 velocity=0 time=0
note_on channel=0 note=52 velocity=0 time=0
note_on channel=0 note=46 velocity=0 time=0
note_on channel=0 note=87 velocity=0 time=20
note_on channel=0 note=88 velocity=95 time=0
note_on channel=0 note=88 velocity=0 time=20
note_on channel=0 note=87 velocity=86 time=0
note_on channel=0 note=87 velocity=0 time=0
note_on channel=0 note=85 velocity=86 time=0
note_on channel=0 note=52 velocity=60 time=0
note_on channel=0 note=46 velocity=60 time=0
note_on channel=0 note=49 velocity=60 time=0
note_on channel=0 note=54 velocity=73 time=0
note_on channel=0 note=85 velocity=0 time=120
note_on channel=0 note=84 velocity=86 time=0
note_on channel=0 note=49 velocity=0 time=60
note_on channel=0 note=54 velocity=0 time=0
note_on channel=0 note=52 velocity=0 time=0
note_on channel=0 note=46 velocity=0 time=0
note_on channel=0 note=84 velocity=0 time=0
note_on channel=0 note=85 velocity=95 time=0
note_on channel=0 note=52 velocity=67 time=0
note_on channel=0 note=46 velocity=67 time=0
note_on channel=0 note=49 velocity=67 time=0
note_on channel=0 note=54 velocity=78 time=0
note_on channel=0 note=85 velocity=0 time=0
note_on channel=0 note=84 velocity=86 time=0
note_on channel=0 note=49 velocity=0 time=0
note_on channel=0 note=54 velocity=0 time=0
note_on channel=0 note=52 velocity=0 time=0
note_on channel=0 note=46 velocity=0 time=0
note_on channel=0 note=84 velocity=0 time=0
note_on channel=0 note=85 velocity=86 time=0
note_on channel=0 note=52 velocity=60 time=0
note_on channel=0 note=46 velocity=60 time=0
note_on channel=0 note=49 velocity=60 time=0
note_on channel=0 note=54 velocity=73 time=0
note_on channel=0 note=85 velocity=0 time=0
note_on channel=0 note=87 velocity=86 time=0
note_on channel=0 note=49 velocity=0 time=20
note_on channel=0 note=54 velocity=0 time=0
note_on channel=0 note=52 velocity=0 time=0
note_on channel=0 note=46 velocity=0 time=0
note_on channel=0 note=87 velocity=0 time=20
note_on channel=0 note=88 velocity=95 time=0
note_on channel=0 note=88 velocity=0 time=0
note_on channel=0 note=87 velocity=86 time=0
note_on channel=0 note=87 velocity=0 time=0
note_on channel=0 note=88 velocity=86 time=0
note_on channel=0 note=52 velocity=60 time=0
note_on channel=0 note=46 velocity=60 time=0
note_on channel=0 note=49 velocity=60 time=0
note_on channel=0 note=54 velocity=73 time=0
note_on channel=0 note=88 velocity=0 time=120
note_on channel=0 note=85 velocity=86 time=0
note_on channel=0 note=49 velocity=0 time=60
note_on channel=0 note=54 velocity=0 time=0
note_on channel=0 note=52 velocity=0 time=0
note_on channel=0 note=46 velocity=0 time=0
note_on channel=0 note=85 velocity=0 time=0
note_on channel=0 note=71 velocity=87 time=0
note_on channel=0 note=83 velocity=103 time=0
note_on channel=0 note=47 velocity=78 time=0
note_on channel=0 note=47 velocity=0 time=23
note_on channel=0 note=83 velocity=0 time=0
note_on channel=0 note=71 velocity=0 time=0
note_on channel=0 note=52 velocity=70 time=0
note_on channel=0 note=52 velocity=0 time=120
note_on channel=0 note=71 velocity=73 time=0
note_on channel=0 note=83 velocity=87 time=0
note_on channel=0 note=56 velocity=70 time=0
note_on channel=0 note=56 velocity=0 time=120
note_on channel=0 note=83 velocity=0 time=0
note_on channel=0 note=71 velocity=0 time=0
note_on channel=0 note=59 velocity=70 time=0
note_on channel=0 note=59 velocity=0 time=0
note_on channel=0 note=68 velocity=74 time=0
note_on channel=0 note=80 velocity=88 time=0
note_on channel=0 note=47 velocity=77 time=0
note_on channel=0 note=47 velocity=0 time=120
note_on channel=0 note=80 velocity=0 time=0
note_on channel=0 note=68 velocity=0 time=0
note_on channel=0 note=52 velocity=70 time=0
note_on channel=0 note=52 velocity=0 time=120
note_on channel=0 note=64 velocity=73 time=0
note_on channel=0 note=76 velocity=87 time=0
note_on channel=0 note=56 velocity=70 time=0
note_on channel=0 note=56 velocity=0 time=120
note_on channel=0 note=76 velocity=0 time=0
note_on channel=0 note=64 velocity=0 time=0
note_on channel=0 note=59 velocity=70 time=0
note_on channel=0 note=59 velocity=0 time=0
note_on channel=0 note=76 velocity=87 time=0
note_on channel=0 note=88 velocity=103 time=0
note_on channel=0 note=47 velocity=75 time=0
note_on channel=0 note=47 velocity=0 time=120
note_on channel=0 note=88 velocity=0 time=0
note_on channel=0 note=76 velocity=0 time=0
note_on channel=0 note=52 velocity=70 time=0
note_on channel=0 note=52 velocity=0 time=120
note_on channel=0 note=76 velocity=73 time=0
note_on channel=0 note=88 velocity=87 time=0
note_on channel=0 note=56 velocity=70 time=0
note_on channel=0 note=56 velocity=0 time=120
note_on channel=0 note=88 velocity=0 time=0
note_on channel=0 note=76 velocity=0 time=0
note_on channel=0 note=59 velocity=70 time=0
note_on channel=0 note=59 velocity=0 time=0
note_on channel=0 note=71 velocity=73 time=0
note_on channel=0 note=83 velocity=87 time=0
note_on channel=0 note=47 velocity=75 time=0
note_on channel=0 note=47 velocity=0 time=120
note_on channel=0 note=83 velocity=0 time=0
note_on channel=0 note=71 velocity=0 time=0
note_on channel=0 note=52 velocity=70 time=0
note_on channel=0 note=52 velocity=0 time=120
note_on channel=0 note=68 velocity=73 time=0
note_on channel=0 note=80 velocity=87 time=0
note_on channel=0 note=56 velocity=70 time=0
note_on channel=0 note=56 velocity=0 time=120
note_on channel=0 note=80 velocity=0 time=0
note_on channel=0 note=68 velocity=0 time=0
note_on channel=0 note=59 velocity=70 time=0
note_on channel=0 note=59 velocity=0 time=40
note_on channel=0 note=71 velocity=87 time=0
note_on channel=0 note=83 velocity=103 time=0
note_on channel=0 note=47 velocity=78 time=0
note_on channel=0 note=47 velocity=0 time=40
note_on channel=0 note=83 velocity=0 time=0
note_on channel=0 note=71 velocity=0 time=0
note_on channel=0 note=52 velocity=70 time=0
note_on channel=0 note=52 velocity=0 time=120
note_on channel=0 note=71 velocity=73 time=0
note_on channel=0 note=83 velocity=87 time=0
note_on channel=0 note=56 velocity=70 time=0
note_on channel=0 note=56 velocity=0 time=120
note_on channel=0 note=83 velocity=0 time=0
note_on channel=0 note=71 velocity=0 time=0
note_on channel=0 note=59 velocity=70 time=0
note_on channel=0 note=59 velocity=0 time=0
note_on channel=0 note=68 velocity=74 time=0
note_on channel=0 note=80 velocity=88 time=0
note_on channel=0 note=47 velocity=77 time=0
note_on channel=0 note=47 velocity=0 time=120
note_on channel=0 note=80 velocity=0 time=0
note_on channel=0 note=68 velocity=0 time=0
note_on channel=0 note=52 velocity=70 time=0
note_on channel=0 note=52 velocity=0 time=120
note_on channel=0 note=64 velocity=73 time=0
note_on channel=0 note=76 velocity=87 time=0
note_on channel=0 note=56 velocity=70 time=0
note_on channel=0 note=56 velocity=0 time=120
note_on channel=0 note=76 velocity=0 time=0
note_on channel=0 note=64 velocity=0 time=0
note_on channel=0 note=59 velocity=70 time=0
note_on channel=0 note=59 velocity=0 time=0
note_on channel=0 note=76 velocity=87 time=0
note_on channel=0 note=88 velocity=103 time=0
note_on channel=0 note=56 velocity=75 time=0
note_on channel=0 note=56 velocity=0 time=120
note_on channel=0 note=88 velocity=0 time=0
note_on channel=0 note=76 velocity=0 time=0
note_on channel=0 note=76 velocity=73 time=120
note_on channel=0 note=88 velocity=87 time=0
note_on channel=0 note=56 velocity=70 time=0
note_on channel=0 note=56 velocity=0 time=120
note_on channel=0 note=88 velocity=0 time=0
note_on channel=0 note=76 velocity=0 time=0
note_on channel=0 note=71 velocity=73 time=0
note_on channel=0 note=83 velocity=87 time=0
note_on channel=0 note=52 velocity=75 time=0
note_on channel=0 note=52 velocity=0 time=120
note_on channel=0 note=83 velocity=0 time=0
note_on channel=0 note=71 velocity=0 time=0
note_on channel=0 note=68 velocity=73 time=120
note_on channel=0 note=80 velocity=87 time=0
note_on channel=0 note=47 velocity=70 time=0
note_on channel=0 note=47 velocity=0 time=120
note_on channel=0 note=80 velocity=0 time=0
note_on channel=0 note=68 velocity=0 time=0
note_on channel=0 note=59 velocity=86 time=0
note_on channel=0 note=59 velocity=0 time=5
note_on channel=0 note=80 velocity=47 time=0
note_on channel=0 note=80 velocity=0 time=120
note_on channel=0 note=83 velocity=50 time=0
note_on channel=0 note=56 velocity=47 time=0
note_on channel=0 note=83 velocity=0 time=119
note_on channel=0 note=56 velocity=0 time=1
note_on channel=0 note=80 velocity=47 time=0
note_on channel=0 note=80 velocity=0 time=120
note_on channel=0 note=83 velocity=51 time=0
note_on channel=0 note=64 velocity=53 time=0
note_on channel=0 note=83 velocity=0 time=119
note_on channel=0 note=64 velocity=0 time=1
note_on channel=0 note=80 velocity=47 time=0
note_on channel=0 note=80 velocity=0 time=120
note_on channel=0 note=83 velocity=50 time=0
note_on channel=0 note=59 velocity=48 time=0
note_on channel=0 note=83 velocity=0 time=119
note_on channel=0 note=59 velocity=0 time=1
note_on channel=0 note=80 velocity=47 time=0
note_on channel=0 note=80 velocity=0 time=0
note_on channel=0 note=83 velocity=51 time=0
note_on channel=0 note=68 velocity=52 time=0
note_on channel=0 note=83 velocity=0 time=119
note_on channel=0 note=68 velocity=0 time=1
note_on channel=0 note=80 velocity=47 time=0
note_on channel=0 note=80 velocity=0 time=120
note_on channel=0 note=83 velocity=50 time=0
note_on channel=0 note=64 velocity=41 time=0
note_on channel=0 note=83 velocity=0 time=119
note_on channel=0 note=64 velocity=0 time=1
note_on channel=0 note=80 velocity=47 time=0
note_on channel=0 note=80 velocity=0 time=120
note_on channel=0 note=83 velocity=52 time=0
note_on channel=0 note=71 velocity=50 time=0
note_on channel=0 note=83 velocity=0 time=119
note_on channel=0 note=71 velocity=0 time=1
note_on channel=0 note=80 velocity=47 time=0
note_on channel=0 note=80 velocity=0 time=120
note_on channel=0 note=83 velocity=51 time=0
note_on channel=0 note=68 velocity=41 time=0
note_on channel=0 note=83 velocity=0 time=119
note_on channel=0 note=68 velocity=0 time=1
note_on channel=0 note=80 velocity=47 time=0
note_on channel=0 note=80 velocity=0 time=120
note_on channel=0 note=83 velocity=50 time=0
note_on channel=0 note=76 velocity=50 time=0
note_on channel=0 note=83 velocity=0 time=79
note_on channel=0 note=76 velocity=0 time=1
note_on channel=0 note=80 velocity=47 time=0
note_on channel=0 note=80 velocity=0 time=120
note_on channel=0 note=83 velocity=50 time=0
note_on channel=0 note=71 velocity=41 time=0
note_on channel=0 note=83 velocity=0 time=119
note_on channel=0 note=71 velocity=0 time=1
note_on channel=0 note=80 velocity=47 time=0
note_on channel=0 note=80 velocity=0 time=120
note_on channel=0 note=83 velocity=51 time=0
note_on channel=0 note=76 velocity=50 time=0
note_on channel=0 note=83 velocity=0 time=119
note_on channel=0 note=76 velocity=0 time=1
note_on channel=0 note=80 velocity=47 time=0
note_on channel=0 note=80 velocity=0 time=120
note_on channel=0 note=83 velocity=50 time=0
note_on channel=0 note=71 velocity=39 time=0
note_on channel=0 note=83 velocity=0 time=119
note_on channel=0 note=71 velocity=0 time=1
note_on channel=0 note=80 velocity=47 time=0
note_on channel=0 note=80 velocity=0 time=120
note_on channel=0 note=83 velocity=51 time=0
note_on channel=0 note=76 velocity=50 time=0
note_on channel=0 note=83 velocity=0 time=79
note_on channel=0 note=76 velocity=0 time=1
note_on channel=0 note=80 velocity=47 time=0
note_on channel=0 note=80 velocity=0 time=80
note_on channel=0 note=83 velocity=50 time=0
note_on channel=0 note=71 velocity=41 time=0
note_on channel=0 note=83 velocity=0 time=79
note_on channel=0 note=71 velocity=0 time=1
note_on channel=0 note=80 velocity=47 time=0
note_on channel=0 note=80 velocity=0 time=80
note_on channel=0 note=83 velocity=52 time=0
note_on channel=0 note=76 velocity=50 time=0
note_on channel=0 note=83 velocity=0 time=79
note_on channel=0 note=76 velocity=0 time=1
note_on channel=0 note=80 velocity=47 time=0
note_on channel=0 note=80 velocity=0 time=80
note_on channel=0 note=83 velocity=51 time=0
note_on channel=0 note=71 velocity=42 time=0
note_on channel=0 note=83 velocity=0 time=79
note_on channel=0 note=71 velocity=0 time=1
note_on channel=0 note=80 velocity=47 time=0
note_on channel=0 note=80 velocity=0 time=80
note_on channel=0 note=75 velocity=46 time=0
note_on channel=0 note=75 velocity=0 time=63
note_on channel=0 note=81 velocity=42 time=0
note_on channel=0 note=81 velocity=0 time=120
note_on channel=0 note=83 velocity=45 time=0
note_on channel=0 note=71 velocity=37 time=0
note_on channel=0 note=83 velocity=0 time=119
note_on channel=0 note=71 velocity=0 time=1
note_on channel=0 note=81 velocity=41 time=0
note_on channel=0 note=81 velocity=0 time=40
note_on channel=0 note=84 velocity=44 time=0
note_on channel=0 note=75 velocity=43 time=0
note_on channel=0 note=84 velocity=0 time=119
note_on channel=0 note=75 velocity=0 time=1
note_on channel=0 note=81 velocity=40 time=0
note_on channel=0 note=81 velocity=0 time=40
note_on channel=0 note=83 velocity=42 time=0
note_on channel=0 note=71 velocity=36 time=0
note_on channel=0 note=83 velocity=0 time=119
note_on channel=0 note=71 velocity=0 time=1
note_on channel=0 note=81 velocity=39 time=0
note_on channel=0 note=81 velocity=0 time=40
note_on channel=0 note=84 velocity=42 time=0
note_on channel=0 note=75 velocity=41 time=0
note_on channel=0 note=84 velocity=0 time=15
note_on channel=0 note=75 velocity=0 time=1
note_on channel=0 note=81 velocity=38 time=0
note_on channel=0 note=81 velocity=0 time=0
note_on channel=0 note=83 velocity=40 time=0
note_on channel=0 note=71 velocity=32 time=0
note_on channel=0 note=83 velocity=0 time=27
note_on channel=0 note=71 velocity=0 time=0
note_on channel=0 note=81 velocity=37 time=0
note_on channel=0 note=81 velocity=0 time=0
note_on channel=0 note=84 velocity=40 time=0
note_on channel=0 note=75 velocity=39 time=0
note_on channel=0 note=84 velocity=0 time=15
note_on channel=0 note=75 velocity=0 time=1
note_on channel=0 note=81 velocity=36 time=0
note_on channel=0 note=81 velocity=0 time=0
note_on channel=0 note=83 velocity=39 time=0
note_on channel=0 note=71 velocity=31 time=0
note_on channel=0 note=83 velocity=0 time=15
note_on channel=0 note=71 velocity=0 time=1
note_on channel=0 note=81 velocity=35 time=0
note_on channel=0 note=81 velocity=0 time=16
note_on channel=0 note=84 velocity=37 time=0
note_on channel=0 note=75 velocity=36 time=0
note_on channel=0 note=84 velocity=0 time=15
note_on channel=0 note=75 velocity=0 time=0
note_on channel=0 note=81 velocity=34 time=0
note_on channel=0 note=81 velocity=0 time=0
note_on channel=0 note=83 velocity=36 time=0
note_on channel=0 note=71 velocity=30 time=0
note_on channel=0 note=83 velocity=0 time=15
note_on channel=0 note=71 velocity=0 time=1
note_on channel=0 note=81 velocity=34 time=0
note_on channel=0 note=81 velocity=0 time=16
note_on channel=0 note=84 velocity=37 time=0
note_on channel=0 note=75 velocity=36 time=0
note_on channel=0 note=84 velocity=0 time=15
note_on channel=0 note=75 velocity=0 time=1
note_on channel=0 note=81 velocity=34 time=0
note_on channel=0 note=81 velocity=0 time=28
note_on channel=0 note=83 velocity=36 time=0
note_on channel=0 note=71 velocity=31 time=0
note_on channel=0 note=83 velocity=0 time=27
note_on channel=0 note=71 velocity=0 time=1
note_on channel=0 note=81 velocity=34 time=0
note_on channel=0 note=81 velocity=0 time=0
note_on channel=0 note=84 velocity=37 time=0
note_on channel=0 note=75 velocity=36 time=0
note_on channel=0 note=84 velocity=0 time=119
note_on channel=0 note=75 velocity=0 time=1
note_on channel=0 note=81 velocity=34 time=0
note_on channel=0 note=81 velocity=0 time=40
note_on channel=0 note=83 velocity=36 time=0
note_on channel=0 note=71 velocity=29 time=0
note_on channel=0 note=83 velocity=0 time=119
note_on channel=0 note=71 velocity=0 time=0
note_on channel=0 note=81 velocity=34 time=0
note_on channel=0 note=81 velocity=0 time=120
note_on channel=0 note=84 velocity=38 time=0
note_on channel=0 note=75 velocity=36 time=0
note_on channel=0 note=84 velocity=0 time=79
note_on channel=0 note=75 velocity=0 time=1
note_on channel=0 note=81 velocity=34 time=0
note_on channel=0 note=81 velocity=0 time=40
note_on channel=0 note=83 velocity=37 time=0
note_on channel=0 note=71 velocity=30 time=0
note_on channel=0 note=83 velocity=0 time=119
note_on channel=0 note=71 velocity=0 time=0
note_on channel=0 note=81 velocity=34 time=0
note_on channel=0 note=81 velocity=0 time=16
note_on channel=0 note=85 velocity=37 time=0
note_on channel=0 note=75 velocity=37 time=0
note_on channel=0 note=75 velocity=0 time=0
note_on channel=0 note=76 velocity=32 time=0
note_on channel=0 note=81 velocity=34 time=0
note_on channel=0 note=85 velocity=0 time=1
note_on channel=0 note=76 velocity=0 time=16
note_on channel=0 note=75 velocity=36 time=0
note_on channel=0 note=81 velocity=0 time=50
note_on channel=0 note=75 velocity=0 time=0
note_on channel=0 note=83 velocity=36 time=0
note_on channel=0 note=76 velocity=31 time=0
note_on channel=0 note=76 velocity=0 time=0
note_on channel=0 note=75 velocity=36 time=0
note_on channel=0 note=81 velocity=35 time=0
note_on channel=0 note=83 velocity=0 time=1
note_on channel=0 note=75 velocity=0 time=0
note_on channel=0 note=76 velocity=33 time=0
note_on channel=0 note=76 velocity=0 time=50
note_on channel=0 note=81 velocity=0 time=0
note_on channel=0 note=85 velocity=38 time=0
note_on channel=0 note=75 velocity=37 time=0
note_on channel=0 note=75 velocity=0 time=0
note_on channel=0 note=76 velocity=33 time=0
note_on channel=0 note=81 velocity=36 time=30
note_on channel=0 note=85 velocity=0 time=1
note_on channel=0 note=76 velocity=0 time=0
note_on channel=0 note=75 velocity=37 time=0
note_on channel=0 note=75 velocity=0 time=0
note_on channel=0 note=81 velocity=0 time=0
note_on channel=0 note=83 velocity=38 time=0
note_on channel=0 note=76 velocity=33 time=0
note_on channel=0 note=76 velocity=0 time=20
note_on channel=0 note=75 velocity=38 time=0
note_on channel=0 note=81 velocity=36 time=0
note_on channel=0 note=83 velocity=0 time=1
note_on channel=0 note=75 velocity=0 time=0
note_on channel=0 note=76 velocity=34 time=0
note_on channel=0 note=76 velocity=0 time=10
note_on channel=0 note=81 velocity=0 time=0
note_on channel=0 note=85 velocity=40 time=0
note_on channel=0 note=75 velocity=38 time=0
note_on channel=0 note=75 velocity=0 time=0
note_on channel=0 note=76 velocity=35 time=0
note_on channel=0 note=81 velocity=37 time=0
note_on channel=0 note=85 velocity=0 time=1
note_on channel=0 note=76 velocity=0 time=0
note_on channel=0 note=75 velocity=39 time=0
note_on channel=0 note=75 velocity=0 time=20
note_on channel=0 note=81 velocity=0 time=0
note_on channel=0 note=83 velocity=40 time=0
note_on channel=0 note=76 velocity=35 time=0
note_on channel=0 note=76 velocity=0 time=10
note_on channel=0 note=75 velocity=39 time=0
note_on channel=0 note=81 velocity=38 time=10
note_on channel=0 note=83 velocity=0 time=1
note_on channel=0 note=75 velocity=0 time=39
note_on channel=0 note=76 velocity=36 time=0
note_on channel=0 note=76 velocity=0 time=20
note_on channel=0 note=81 velocity=0 time=0
note_on channel=0 note=85 velocity=43 time=0
note_on channel=0 note=75 velocity=40 time=0
note_on channel=0 note=75 velocity=0 time=0
note_on channel=0 note=76 velocity=36 time=0
note_on channel=0 note=81 velocity=39 time=0
note_on channel=0 note=85 velocity=0 time=1
note_on channel=0 note=76 velocity=0 time=0
note_on channel=0 note=75 velocity=40 time=0
note_on channel=0 note=75 velocity=0 time=30
note_on channel=0 note=81 velocity=0 time=0
note_on channel=0 note=83 velocity=43 time=0
note_on channel=0 note=76 velocity=36 time=0
note_on channel=0 note=76 velocity=0 time=20
note_on channel=0 note=75 velocity=41 time=0
note_on channel=0 note=81 velocity=40 time=0
note_on channel=0 note=83 velocity=0 time=1
note_on channel=0 note=75 velocity=0 time=0
note_on channel=0 note=76 velocity=37 time=0
note_on channel=0 note=76 velocity=0 time=0
note_on channel=0 note=81 velocity=0 time=0
note_on channel=0 note=90 velocity=44 time=0
note_on channel=0 note=75 velocity=41 time=0
note_on channel=0 note=75 velocity=0 time=10
note_on channel=0 note=76 velocity=36 time=0
note_on channel=0 note=83 velocity=41 time=0
note_on channel=0 note=81 velocity=41 time=0
note_on channel=0 note=90 velocity=0 time=1
note_on channel=0 note=76 velocity=0 time=0
note_on channel=0 note=75 velocity=42 time=0
note_on channel=0 note=75 velocity=0 time=0
note_on channel=0 note=83 velocity=0 time=0
note_on channel=0 note=81 velocity=0 time=0
note_on channel=0 note=90 velocity=43 time=0
note_on channel=0 note=76 velocity=37 time=0
note_on channel=0 note=76 velocity=0 time=10
note_on channel=0 note=75 velocity=42 time=0
note_on channel=0 note=83 velocity=41 time=0
note_on channel=0 note=81 velocity=41 time=0
note_on channel=0 note=90 velocity=0 time=1
note_on channel=0 note=75 velocity=0 time=20
note_on channel=0 note=76 velocity=37 time=0
note_on channel=0 note=76 velocity=0 time=10
note_on channel=0 note=83 velocity=0 time=0
note_on channel=0 note=81 velocity=0 time=0
note_on channel=0 note=90 velocity=46 time=0
note_on channel=0 note=75 velocity=43 time=0
note_on channel=0 note=75 velocity=0 time=30
note_on channel=0 note=76 velocity=38 time=0
note_on channel=0 note=83 velocity=42 time=0
note_on channel=0 note=81 velocity=42 time=0
note_on channel=0 note=90 velocity=0 time=1
note_on channel=0 note=76 velocity=0 time=0
note_on channel=0 note=75 velocity=43 time=0
note_on channel=0 note=75 velocity=0 time=0
note_on channel=0 note=83 velocity=0 time=0
note_on channel=0 note=81 velocity=0 time=0
note_on channel=0 note=90 velocity=46 time=0
note_on channel=0 note=76 velocity=39 time=0
note_on channel=0 note=76 velocity=0 time=0
note_on channel=0 note=75 velocity=44 time=0
note_on channel=0 note=83 velocity=44 time=0
note_on channel=0 note=81 velocity=44 time=0
note_on channel=0 note=90 velocity=0 time=1
note_on channel=0 note=75 velocity=0 time=0
note_on channel=0 note=76 velocity=39 time=0
note_on channel=0 note=76 velocity=0 time=10
note_on channel=0 note=83 velocity=0 time=0
note_on channel=0 note=81 velocity=0 time=0
note_on channel=0 note=90 velocity=49 time=0
note_on channel=0 note=75 velocity=44 time=0
note_on channel=0 note=75 velocity=0 time=0
note_on channel=0 note=76 velocity=38 time=0
note_on channel=0 note=90 velocity=0 time=1
note_on channel=0 note=83 velocity=45 time=0
note_on channel=0 note=81 velocity=45 time=0
note_on channel=0 note=76 velocity=0 time=0
note_on channel=0 note=75 velocity=45 time=0
note_on channel=0 note=75 velocity=0 time=0
note_on channel=0 note=81 velocity=0 time=0
note_on channel=0 note=83 velocity=0 time=0
note_on channel=0 note=90 velocity=49 time=0
note_on channel=0 note=76 velocity=38 time=0
note_on channel=0 note=76 velocity=0 time=10
note_on channel=0 note=75 velocity=45 time=0
note_on channel=0 note=83 velocity=47 time=0
note_on channel=0 note=81 velocity=47 time=0
note_on channel=0 note=90 velocity=0 time=1
note_on channel=0 note=75 velocity=0 time=0
note_on channel=0 note=76 velocity=40 time=0
note_on channel=0 note=76 velocity=0 time=30
note_on channel=0 note=83 velocity=0 time=0
note_on channel=0 note=81 velocity=0 time=0
note_on channel=0 note=90 velocity=54 time=0
note_on channel=0 note=75 velocity=50 time=0
note_on channel=0 note=75 velocity=0 time=16
note_on channel=0 note=76 velocity=44 time=0
note_on channel=0 note=83 velocity=48 time=0
note_on channel=0 note=81 velocity=48 time=0
note_on channel=0 note=90 velocity=0 time=1
note_on channel=0 note=76 velocity=0 time=32
note_on channel=0 note=75 velocity=50 time=0
note_on channel=0 note=83 velocity=0 time=0
note_on channel=0 note=81 velocity=0 time=0
note_on channel=0 note=90 velocity=53 time=0
note_on channel=0 note=75 velocity=0 time=8
note_on channel=0 note=73 velocity=52 time=0
note_on channel=0 note=83 velocity=49 time=0
note_on channel=0 note=81 velocity=49 time=0
note_on channel=0 note=90 velocity=0 time=1
note_on channel=0 note=73 velocity=0 time=23
note_on channel=0 note=75 velocity=47 time=0
note_on channel=0 note=75 velocity=0 time=96
note_on channel=0 note=83 velocity=0 time=0
note_on channel=0 note=81 velocity=0 time=0
note_on channel=0 note=80 velocity=72 time=0
note_on channel=0 note=83 velocity=72 time=0
note_on channel=0 note=88 velocity=72 time=0
note_on channel=0 note=64 velocity=48 time=0
note_on channel=0 note=76 velocity=57 time=0
note_on channel=0 note=76 velocity=0 time=0
note_on channel=0 note=68 velocity=38 time=0
note_on channel=0 note=74 velocity=45 time=0
note_on channel=0 note=71 velocity=38 time=0
note_on channel=0 note=80 velocity=0 time=480
note_on channel=0 note=88 velocity=0 time=0
note_on channel=0 note=83 velocity=0 time=0
note_on channel=0 note=88 velocity=58 time=0
note_on channel=0 note=88 velocity=0 time=120
note_on channel=0 note=86 velocity=57 time=0
note_on channel=0 note=86 velocity=0 time=120
note_on channel=0 note=84 velocity=56 time=0
note_on channel=0 note=84 velocity=0 time=120
note_on channel=0 note=83 velocity=55 time=0
note_on channel=0 note=83 velocity=0 time=120
note_on channel=0 note=68 velocity=0 time=0
note_on channel=0 note=71 velocity=0 time=0
note_on channel=0 note=74 velocity=0 time=0
note_on channel=0 note=84 velocity=58 time=0
note_on channel=0 note=72 velocity=47 time=0
note_on channel=0 note=69 velocity=39 time=0
note_on channel=0 note=84 velocity=0 time=120
note_on channel=0 note=83 velocity=57 time=0
note_on channel=0 note=83 velocity=0 time=120
note_on channel=0 note=81 velocity=56 time=0
note_on channel=0 note=81 velocity=0 time=120
note_on channel=0 note=80 velocity=55 time=0
note_on channel=0 note=80 velocity=0 time=120
note_on channel=0 note=81 velocity=51 time=0
note_on channel=0 note=81 velocity=0 time=120
note_on channel=0 note=83 velocity=52 time=0
note_on channel=0 note=83 velocity=0 time=120
note_on channel=0 note=84 velocity=53 time=0
note_on channel=0 note=84 velocity=0 time=0
note_on channel=0 note=86 velocity=54 time=0
note_on channel=0 note=86 velocity=0 time=0
note_on channel=0 note=69 velocity=0 time=0
note_on channel=0 note=72 velocity=0 time=0
note_on channel=0 note=88 velocity=56 time=0
note_on channel=0 note=74 velocity=46 time=0
note_on channel=0 note=71 velocity=39 time=0
note_on channel=0 note=68 velocity=39 time=0
note_on channel=0 note=88 velocity=0 time=120
note_on channel=0 note=89 velocity=57 time=0
note_on channel=0 note=89 velocity=0 time=120
note_on channel=0 note=88 velocity=57 time=0
note_on channel=0 note=88 velocity=0 time=120
note_on channel=0 note=87 velocity=56 time=0
note_on channel=0 note=87 velocity=0 time=40
note_on channel=0 note=88 velocity=56 time=0
note_on channel=0 note=88 velocity=0 time=120
note_on channel=0 note=86 velocity=56 time=0
note_on channel=0 note=86 velocity=0 time=80
note_on channel=0 note=84 velocity=56 time=0
note_on channel=0 note=84 velocity=0 time=0
note_on channel=0 note=83 velocity=56 time=0
note_on channel=0 note=83 velocity=0 time=120
note_on channel=0 note=68 velocity=0 time=0
note_on channel=0 note=64 velocity=0 time=0
note_on channel=0 note=74 velocity=0 time=0
note_on channel=0 note=71 velocity=0 time=0
note_on channel=0 note=84 velocity=57 time=0
note_on channel=0 note=69 velocity=40 time=0
note_on channel=0 note=72 velocity=48 time=0
note_on channel=0 note=84 velocity=0 time=40
note_on channel=0 note=86 velocity=57 time=0
note_on channel=0 note=86 velocity=0 time=120
note_on channel=0 note=84 velocity=57 time=0
note_on channel=0 note=84 velocity=0 time=80
note_on channel=0 note=83 velocity=53 time=0
note_on channel=0 note=83 velocity=0 time=0
note_on channel=0 note=72 velocity=0 time=0
note_on channel=0 note=69 velocity=0 time=0
note_on channel=0 note=81 velocity=56 time=0
note_on channel=0 note=81 velocity=0 time=120
note_on channel=0 note=80 velocity=52 time=0
note_on channel=0 note=80 velocity=0 time=40
note_on channel=0 note=81 velocity=56 time=0
note_on channel=0 note=81 velocity=0 time=120
note_on channel=0 note=83 velocity=52 time=0
note_on channel=0 note=83 velocity=0 time=0
note_on channel=0 note=72 velocity=45 time=0
note_on channel=0 note=84 velocity=59 time=0
note_on channel=0 note=57 velocity=39 time=0
note_on channel=0 note=60 velocity=39 time=0
note_on channel=0 note=66 velocity=39 time=0
note_on channel=0 note=69 velocity=47 time=0
note_on channel=0 note=84 velocity=0 time=228
note_on channel=0 note=81 velocity=52 time=0
note_on channel=0 note=81 velocity=0 time=0
note_on channel=0 note=78 velocity=52 time=0
note_on channel=0 note=78 velocity=0 time=0
note_on channel=0 note=57 velocity=0 time=0
note_on channel=0 note=60 velocity=0 time=0
note_on channel=0 note=72 velocity=0 time=0
note_on channel=0 note=69 velocity=0 time=0
note_on channel=0 note=66 velocity=0 time=0
note_on channel=0 note=71 velocity=45 time=0
note_on channel=0 note=83 velocity=57 time=0
note_on channel=0 note=59 velocity=39 time=0
note_on channel=0 note=64 velocity=39 time=0
note_on channel=0 note=67 velocity=46 time=0
note_on channel=0 note=83 velocity=0 time=365
note_on channel=0 note=79 velocity=52 time=0
note_on channel=0 note=79 velocity=0 time=0
note_on channel=0 note=76 velocity=52 time=0
note_on channel=0 note=76 velocity=0 time=0
note_on channel=0 note=64 velocity=0 time=0
note_on channel=0 note=71 velocity=0 time=0
note_on channel=0 note=59 velocity=0 time=0
note_on channel=0 note=67 velocity=0 time=0
note_on channel=0 note=69 velocity=45 time=0
note_on channel=0 note=81 velocity=57 time=0
note_on channel=0 note=63 velocity=37 time=0
note_on channel=0 note=66 velocity=44 time=0
note_on channel=0 note=59 velocity=37 time=0
note_on channel=0 note=81 velocity=0 time=331
note_on channel=0 note=78 velocity=52 time=0
note_on channel=0 note=78 velocity=0 time=240
note_on channel=0 note=75 velocity=52 time=0
note_on channel=0 note=75 velocity=0 time=0
note_on channel=0 note=66 velocity=0 time=0
note_on channel=0 note=69 velocity=0 time=0
note_on channel=0 note=63 velocity=0 time=0
note_on channel=0 note=59 velocity=0 time=0
note_on channel=0 note=76 velocity=72 time=0
note_on channel=0 note=64 velocity=56 time=0
note_on channel=0 note=52 velocity=45 time=0
note_on channel=0 note=64 velocity=0 time=0
note_on channel=0 note=62 velocity=45 time=0
note_on channel=0 note=59 velocity=38 time=0
note_on channel=0 note=56 velocity=38 time=0
note_on channel=0 note=76 velocity=0 time=480
note_on channel=0 note=76 velocity=58 time=0
note_on channel=0 note=76 velocity=0 time=120
note_on channel=0 note=74 velocity=57 time=0
note_on channel=0 note=74 velocity=0 time=120
note_on channel=0 note=72 velocity=56 time=0
note_on channel=0 note=72 velocity=0 time=120
note_on channel=0 note=71 velocity=55 time=0
note_on channel=0 note=71 velocity=0 time=120
note_on channel=0 note=59 velocity=0 time=0
note_on channel=0 note=56 velocity=0 time=0
note_on channel=0 note=62 velocity=0 time=0
note_on channel=0 note=72 velocity=58 time=0
note_on channel=0 note=57 velocity=39 time=0
note_on channel=0 note=60 velocity=47 time=0
note_on channel=0 note=72 velocity=0 time=120
note_on channel=0 note=71 velocity=57 time=0
note_on channel=0 note=71 velocity=0 time=120
note_on channel=0 note=69 velocity=56 time=0
note_on channel=0 note=69 velocity=0 time=120
note_on channel=0 note=68 velocity=55 time=0
note_on channel=0 note=68 velocity=0 time=120
note_on channel=0 note=69 velocity=51 time=0
note_on channel=0 note=69 velocity=0 time=120
note_on channel=0 note=71 velocity=52 time=0
note_on channel=0 note=71 velocity=0 time=120
note_on channel=0 note=72 velocity=53 time=0
note_on channel=0 note=72 velocity=0 time=0
note_on channel=0 note=74 velocity=54 time=0
note_on channel=0 note=74 velocity=0 time=0
note_on channel=0 note=60 velocity=0 time=0
note_on channel=0 note=57 velocity=0 time=0
note_on channel=0 note=76 velocity=56 time=0
note_on channel=0 note=62 velocity=46 time=0
note_on channel=0 note=59 velocity=39 time=0
note_on channel=0 note=56 velocity=39 time=0
note_on channel=0 note=76 velocity=0 time=120
note_on channel=0 note=77 velocity=57 time=0
note_on channel=0 note=77 velocity=0 time=120
note_on channel=0 note=76 velocity=57 time=0
note_on channel=0 note=76 velocity=0 time=120
note_on channel=0 note=75 velocity=56 time=0
note_on channel=0 note=75 velocity=0 time=0
note_on channel=0 note=76 velocity=56 time=0
note_on channel=0 note=76 velocity=0 time=120
note_on channel=0 note=74 velocity=56 time=0
note_on channel=0 note=74 velocity=0 time=80
note_on channel=0 note=72 velocity=56 time=0
note_on channel=0 note=72 velocity=0 time=80
note_on channel=0 note=71 velocity=56 time=0
note_on channel=0 note=71 velocity=0 time=80
note_on channel=0 note=56 velocity=0 time=0
note_on channel=0 note=52 velocity=0 time=0
note_on channel=0 note=62 velocity=0 time=0
note_on channel=0 note=59 velocity=0 time=0
note_on channel=0 note=72 velocity=57 time=0
note_on channel=0 note=57 velocity=48 time=0
note_on channel=0 note=60 velocity=48 time=0
note_on channel=0 note=72 velocity=0 time=80
note_on channel=0 note=74 velocity=57 time=0
note_on channel=0 note=74 velocity=0 time=80
note_on channel=0 note=72 velocity=57 time=0
note_on channel=0 note=72 velocity=0 time=80
note_on channel=0 note=71 velocity=53 time=0
note_on channel=0 note=71 velocity=0 time=80
note_on channel=0 note=60 velocity=0 time=0
note_on channel=0 note=57 velocity=0 time=0
note_on channel=0 note=69 velocity=56 time=0
note_on channel=0 note=69 velocity=0 time=80
note_on channel=0 note=68 velocity=52 time=0
note_on channel=0 note=68 velocity=0 time=80
note_on channel=0 note=69 velocity=56 time=0
note_on channel=0 note=69 velocity=0 time=80
note_on channel=0 note=71 velocity=52 time=0
note_on channel=0 note=71 velocity=0 time=0
note_on channel=0 note=60 velocity=45 time=0
note_on channel=0 note=72 velocity=59 time=0
note_on channel=0 note=45 velocity=39 time=0
note_on channel=0 note=48 velocity=39 time=0
note_on channel=0 note=54 velocity=39 time=0
note_on channel=0 note=57 velocity=47 time=0
note_on channel=0 note=72 velocity=0 time=285
note_on channel=0 note=69 velocity=52 time=0
note_on channel=0 note=69 velocity=0 time=0
note_on channel=0 note=66 velocity=52 time=0
note_on channel=0 note=66 velocity=0 time=0
note_on channel=0 note=45 velocity=0 time=0
note_on channel=0 note=48 velocity=0 time=0
note_on channel=0 note=60 velocity=0 time=0
note_on channel=0 note=57 velocity=0 time=0
note_on channel=0 note=54 velocity=0 time=0
note_on channel=0 note=59 velocity=45 time=0
note_on channel=0 note=71 velocity=57 time=0
note_on channel=0 note=47 velocity=39 time=0
note_on channel=0 note=52 velocity=39 time=0
note_on channel=0 note=55 velocity=46 time=0
note_on channel=0 note=71 velocity=0 time=343
note_on channel=0 note=67 velocity=52 time=0
note_on channel=0 note=67 velocity=0 time=0
note_on channel=0 note=64 velocity=52 time=0
note_on channel=0 note=64 velocity=0 time=0
note_on channel=0 note=52 velocity=0 time=0
note_on channel=0 note=59 velocity=0 time=0
note_on channel=0 note=47 velocity=0 time=0
note_on channel=0 note=55 velocity=0 time=0
note_on channel=0 note=57 velocity=45 time=0
note_on channel=0 note=69 velocity=57 time=0
note_on channel=0 note=54 velocity=44 time=0
note_on channel=0 note=51 velocity=37 time=0
note_on channel=0 note=47 velocity=37 time=0
note_on channel=0 note=69 velocity=0 time=0
note_on channel=0 note=66 velocity=52 time=0
note_on channel=0 note=66 velocity=0 time=240
note_on channel=0 note=63 velocity=52 time=0
note_on channel=0 note=63 velocity=0 time=0
note_on channel=0 note=51 velocity=0 time=0
note_on channel=0 note=57 velocity=0 time=0
note_on channel=0 note=54 velocity=0 time=0
note_on channel=0 note=47 velocity=0 time=0
note_on channel=0 note=64 velocity=55 time=0
note_on channel=0 note=55 velocity=44 time=0
note_on channel=0 note=52 velocity=37 time=0
note_on channel=0 note=52 velocity=0 time=0
note_on channel=0 note=55 velocity=0 time=0
note_on channel=0 note=64 velocity=0 time=0
note_on channel=0 note=76 velocity=67 time=0
note_on channel=0 note=43 velocity=42 time=0
note_on channel=0 note=52 velocity=51 time=0
note_on channel=0 note=76 velocity=0 time=240
note_on channel=0 note=74 velocity=62 time=0
note_on channel=0 note=74 velocity=0 time=240
note_on channel=0 note=43 velocity=0 time=0
note_on channel=0 note=72 velocity=66 time=0
note_on channel=0 note=45 velocity=42 time=0
note_on channel=0 note=52 velocity=0 time=240
note_on channel=0 note=53 velocity=49 time=0
note_on channel=0 note=53 velocity=0 time=240
note_on channel=0 note=72 velocity=0 time=0
note_on channel=0 note=69 velocity=61 time=0
note_on channel=0 note=55 velocity=51 time=0
note_on channel=0 note=55 velocity=0 time=0
note_on channel=0 note=69 velocity=0 time=0
note_on channel=0 note=65 velocity=54 time=0
note_on channel=0 note=57 velocity=55 time=0
note_on channel=0 note=57 velocity=0 time=0
note_on channel=0 note=65 velocity=0 time=0
note_on channel=0 note=45 velocity=0 time=0
note_on channel=0 note=71 velocity=51 time=0
note_on channel=0 note=59 velocity=41 time=0
note_on channel=0 note=47 velocity=35 time=0
note_on channel=0 note=55 velocity=35 time=0
note_on channel=0 note=71 velocity=0 time=240
note_on channel=0 note=67 velocity=46 time=0
note_on channel=0 note=67 velocity=0 time=240
note_on channel=0 note=64 velocity=46 time=0
note_on channel=0 note=64 velocity=0 time=240
note_on channel=0 note=59 velocity=0 time=0
note_on channel=0 note=55 velocity=0 time=0
note_on channel=0 note=69 velocity=51 time=0
note_on channel=0 note=54 velocity=33 time=0
note_on channel=0 note=57 velocity=39 time=0
note_on channel=0 note=69 velocity=0 time=320
note_on channel=0 note=66 velocity=46 time=0
note_on channel=0 note=66 velocity=0 time=240
note_on channel=0 note=63 velocity=46 time=0
note_on channel=0 note=63 velocity=0 time=240
note_on channel=0 note=47 velocity=0 time=0
note_on channel=0 note=54 velocity=0 time=0
note_on channel=0 note=57 velocity=0 time=0
note_on channel=0 note=64 velocity=55 time=0
note_on channel=0 note=48 velocity=37 time=0
note_on channel=0 note=52 velocity=37 time=0
note_on channel=0 note=55 velocity=44 time=0
note_on channel=0 note=55 velocity=0 time=0
note_on channel=0 note=64 velocity=0 time=0
note_on channel=0 note=48 velocity=0 time=0
note_on channel=0 note=52 velocity=0 time=0
note_on channel=0 note=72 velocity=66 time=0
note_on channel=0 note=40 velocity=42 time=0
note_on channel=0 note=48 velocity=51 time=0
note_on channel=0 note=72 velocity=0 time=240
note_on channel=0 note=71 velocity=62 time=0
note_on channel=0 note=71 velocity=0 time=240
note_on channel=0 note=40 velocity=0 time=0
note_on channel=0 note=69 velocity=66 time=0
note_on channel=0 note=41 velocity=42 time=0
note_on channel=0 note=48 velocity=0 time=240
note_on channel=0 note=50 velocity=49 time=0
note_on channel=0 note=50 velocity=0 time=240
note_on channel=0 note=69 velocity=0 time=0
note_on channel=0 note=65 velocity=61 time=0
note_on channel=0 note=52 velocity=51 time=0
note_on channel=0 note=52 velocity=0 time=0
note_on channel=0 note=65 velocity=0 time=0
note_on channel=0 note=62 velocity=54 time=0
note_on channel=0 note=53 velocity=55 time=0
note_on channel=0 note=53 velocity=0 time=0
note_on channel=0 note=62 velocity=0 time=0
note_on channel=0 note=41 velocity=0 time=0
note_on channel=0 note=67 velocity=51 time=0
note_on channel=0 note=52 velocity=35 time=0
note_on channel=0 note=43 velocity=35 time=0
note_on channel=0 note=55 velocity=41 time=0
note_on channel=0 note=67 velocity=0 time=254
note_on channel=0 note=64 velocity=46 time=0
note_on channel=0 note=64 velocity=0 time=0
note_on channel=0 note=60 velocity=46 time=0
note_on channel=0 note=60 velocity=0 time=0
note_on channel=0 note=52 velocity=0 time=0
note_on channel=0 note=55 velocity=0 time=0
note_on channel=0 note=65 velocity=51 time=0
note_on channel=0 note=53 velocity=39 time=0
note_on channel=0 note=50 velocity=33 time=0
note_on channel=0 note=65 velocity=0 time=197
note_on channel=0 note=62 velocity=46 time=0
note_on channel=0 note=62 velocity=0 time=0
note_on channel=0 note=59 velocity=46 time=0
note_on channel=0 note=59 velocity=0 time=0
note_on channel=0 note=43 velocity=0 time=0
note_on channel=0 note=53 velocity=0 time=0
note_on channel=0 note=50 velocity=0 time=0
note_on channel=0 note=48 velocity=28 time=0
note_on channel=0 note=52 velocity=33 time=0
note_on channel=0 note=60 velocity=40 time=0
note_on channel=0 note=36 velocity=25 time=0
note_on channel=0 note=36 velocity=0 time=162
note_on channel=0 note=48 velocity=0 time=0
note_on channel=0 note=52 velocity=0 time=0
note_on channel=0 note=60 velocity=0 time=60
note_on channel=0 note=48 velocity=28 time=0
note_on channel=0 note=52 velocity=33 time=0
note_on channel=0 note=43 velocity=26 time=0
note_on channel=0 note=36 velocity=22 time=0
note_on channel=0 note=36 velocity=0 time=180
note_on channel=0 note=48 velocity=0 time=0
note_on channel=0 note=52 velocity=0 time=0
note_on channel=0 note=43 velocity=0 time=0
note_on channel=0 note=48 velocity=28 time=0
note_on channel=0 note=52 velocity=33 time=0
note_on channel=0 note=43 velocity=26 time=0
note_on channel=0 note=36 velocity=22 time=0
note_on channel=0 note=36 velocity=0 time=180
note_on channel=0 note=48 velocity=0 time=0
note_on channel=0 note=52 velocity=0 time=0
note_on channel=0 note=43 velocity=0 time=0
note_on channel=0 note=48 velocity=28 time=60
note_on channel=0 note=52 velocity=34 time=0
note_on channel=0 note=43 velocity=27 time=0
note_on channel=0 note=36 velocity=22 time=0
note_on channel=0 note=36 velocity=0 time=180
note_on channel=0 note=48 velocity=0 time=0
note_on channel=0 note=52 velocity=0 time=0
note_on channel=0 note=43 velocity=0 time=0
note_on channel=0 note=48 velocity=28 time=60
note_on channel=0 note=52 velocity=34 time=0
note_on channel=0 note=43 velocity=27 time=0
note_on channel=0 note=36 velocity=22 time=0
note_on channel=0 note=36 velocity=0 time=160
note_on channel=0 note=48 velocity=0 time=0
note_on channel=0 note=52 velocity=0 time=0
note_on channel=0 note=43 velocity=0 time=0
note_on channel=0 note=48 velocity=28 time=60
note_on channel=0 note=52 velocity=34 time=0
note_on channel=0 note=43 velocity=28 time=0
note_on channel=0 note=36 velocity=23 time=0
note_on channel=0 note=36 velocity=0 time=180
note_on channel=0 note=48 velocity=0 time=0
note_on channel=0 note=52 velocity=0 time=0
note_on channel=0 note=43 velocity=0 time=0
note_on channel=0 note=48 velocity=29 time=0
note_on channel=0 note=52 velocity=35 time=0
note_on channel=0 note=43 velocity=28 time=0
note_on channel=0 note=36 velocity=23 time=0
note_on channel=0 note=36 velocity=0 time=180
note_on channel=0 note=48 velocity=0 time=0
note_on channel=0 note=52 velocity=0 time=0
note_on channel=0 note=43 velocity=0 time=0
note_on channel=0 note=48 velocity=29 time=60
note_on channel=0 note=52 velocity=35 time=0
note_on channel=0 note=43 velocity=29 time=0
note_on channel=0 note=36 velocity=24 time=0
note_on channel=0 note=36 velocity=0 time=180
note_on channel=0 note=48 velocity=0 time=0
note_on channel=0 note=52 velocity=0 time=0
note_on channel=0 note=43 velocity=0 time=0
note_on channel=0 note=48 velocity=30 time=60
note_on channel=0 note=52 velocity=36 time=0
note_on channel=0 note=36 velocity=25 time=0
note_on channel=0 note=43 velocity=30 time=0
note_on channel=0 note=43 velocity=0 time=140
note_on channel=0 note=48 velocity=0 time=0
note_on channel=0 note=52 velocity=0 time=0
note_on channel=0 note=36 velocity=0 time=0
note_on channel=0 note=48 velocity=30 time=60
note_on channel=0 note=52 velocity=36 time=0
note_on channel=0 note=36 velocity=22 time=0
note_on channel=0 note=43 velocity=27 time=0
note_on channel=0 note=43 velocity=0 time=180
note_on channel=0 note=48 velocity=0 time=0
note_on channel=0 note=52 velocity=0 time=0
note_on channel=0 note=36 velocity=0 time=0
note_on channel=0 note=48 velocity=31 time=0
note_on channel=0 note=52 velocity=37 time=0
note_on channel=0 note=36 velocity=23 time=0
note_on channel=0 note=43 velocity=28 time=0
note_on channel=0 note=43 velocity=0 time=180
note_on channel=0 note=48 velocity=0 time=0
note_on channel=0 note=52 velocity=0 time=0
note_on channel=0 note=36 velocity=0 time=0
note_on channel=0 note=48 velocity=32 time=60
note_on channel=0 note=52 velocity=38 time=0
note_on channel=0 note=36 velocity=24 time=0
note_on channel=0 note=43 velocity=29 time=0
note_on channel=0 note=43 velocity=0 time=180
note_on channel=0 note=48 velocity=0 time=0
note_on channel=0 note=52 velocity=0 time=0
note_on channel=0 note=36 velocity=0 time=0
note_on channel=0 note=48 velocity=33 time=0
note_on channel=0 note=52 velocity=39 time=0
note_on channel=0 note=36 velocity=25 time=0
note_on channel=0 note=43 velocity=30 time=0
note_on channel=0 note=43 velocity=0 time=180
note_on channel=0 note=48 velocity=0 time=0
note_on channel=0 note=52 velocity=0 time=0
note_on channel=0 note=36 velocity=0 time=0
note_on channel=0 note=48 velocity=34 time=60
note_on channel=0 note=52 velocity=40 time=0
note_on channel=0 note=36 velocity=25 time=0
note_on channel=0 note=43 velocity=30 time=0
note_on channel=0 note=43 velocity=0 time=180
note_on channel=0 note=48 velocity=0 time=0
note_on channel=0 note=52 velocity=0 time=0
note_on channel=0 note=36 velocity=0 time=0
note_on channel=0 note=50 velocity=34 time=60
note_on channel=0 note=54 velocity=40 time=0
note_on channel=0 note=36 velocity=25 time=0
note_on channel=0 note=45 velocity=30 time=0
note_on channel=0 note=45 velocity=0 time=180
note_on channel=0 note=50 velocity=0 time=0
note_on channel=0 note=54 velocity=0 time=0
note_on channel=0 note=36 velocity=0 time=0
note_on channel=0 note=50 velocity=34 time=60
note_on channel=0 note=54 velocity=40 time=0
note_on channel=0 note=36 velocity=25 time=0
note_on channel=0 note=45 velocity=30 time=0
note_on channel=0 note=45 velocity=0 time=180
note_on channel=0 note=50 velocity=0 time=0
note_on channel=0 note=54 velocity=0 time=0
note_on channel=0 note=36 velocity=0 time=0
note_on channel=0 note=50 velocity=39 time=0
note_on channel=0 note=55 velocity=46 time=0
note_on channel=0 note=35 velocity=25 time=0
note_on channel=0 note=43 velocity=30 time=0
note_on channel=0 note=43 velocity=0 time=180
note_on channel=0 note=35 velocity=0 time=0
note_on channel=0 note=35 velocity=25 time=60
note_on channel=0 note=43 velocity=30 time=0
note_on channel=0 note=43 velocity=0 time=180
note_on channel=0 note=35 velocity=0 time=0
note_on channel=0 note=35 velocity=25 time=60
note_on channel=0 note=43 velocity=30 time=0
note_on channel=0 note=43 velocity=0 time=180
note_on channel=0 note=35 velocity=0 time=0
note_on channel=0 note=55 velocity=0 time=60
note_on channel=0 note=50 velocity=0 time=0
note_on channel=0 note=59 velocity=40 time=0
note_on channel=0 note=35 velocity=25 time=0
note_on channel=0 note=43 velocity=30 time=0
note_on channel=0 note=59 velocity=0 time=120
note_on channel=0 note=57 velocity=40 time=0
note_on channel=0 note=43 velocity=0 time=60
note_on channel=0 note=35 velocity=0 time=0
note_on channel=0 note=57 velocity=0 time=60
note_on channel=0 note=55 velocity=45 time=0
note_on channel=0 note=35 velocity=25 time=0
note_on channel=0 note=43 velocity=30 time=0
note_on channel=0 note=55 velocity=0 time=120
note_on channel=0 note=43 velocity=0 time=60
note_on channel=0 note=35 velocity=0 time=0
note_on channel=0 note=35 velocity=25 time=60
note_on channel=0 note=43 velocity=30 time=0
note_on channel=0 note=43 velocity=0 time=180
note_on channel=0 note=35 velocity=0 time=0
note_on channel=0 note=35 velocity=25 time=60
note_on channel=0 note=43 velocity=30 time=0
note_on channel=0 note=43 velocity=0 time=180
note_on channel=0 note=35 velocity=0 time=0
note_on channel=0 note=35 velocity=25 time=0
note_on channel=0 note=43 velocity=30 time=0
note_on channel=0 note=43 velocity=0 time=180
note_on channel=0 note=35 velocity=0 time=0
note_on channel=0 note=85 velocity=46 time=0
note_on channel=0 note=85 velocity=0 time=0
note_on channel=0 note=86 velocity=57 time=0
note_on channel=0 note=35 velocity=25 time=0
note_on channel=0 note=43 velocity=30 time=0
note_on channel=0 note=43 velocity=0 time=180
note_on channel=0 note=35 velocity=0 time=0
note_on channel=0 note=35 velocity=25 time=60
note_on channel=0 note=43 velocity=30 time=0
note_on channel=0 note=43 velocity=0 time=180
note_on channel=0 note=35 velocity=0 time=0
note_on channel=0 note=35 velocity=25 time=60
note_on channel=0 note=43 velocity=30 time=0
note_on channel=0 note=86 velocity=0 time=120
note_on channel=0 note=84 velocity=48 time=0
note_on channel=0 note=43 velocity=0 time=60
note_on channel=0 note=35 velocity=0 time=0
note_on channel=0 note=84 velocity=0 time=60
note_on channel=0 note=83 velocity=47 time=0
note_on channel=0 note=35 velocity=25 time=0
note_on channel=0 note=43 velocity=30 time=0
note_on channel=0 note=83 velocity=0 time=120
note_on channel=0 note=81 velocity=45 time=0
note_on channel=0 note=43 velocity=0 time=60
note_on channel=0 note=35 velocity=0 time=0
note_on channel=0 note=81 velocity=0 time=0
note_on channel=0 note=79 velocity=44 time=0
note_on channel=0 note=35 velocity=25 time=0
note_on channel=0 note=43 velocity=30 time=0
note_on channel=0 note=43 velocity=0 time=180
note_on channel=0 note=35 velocity=0 time=0
note_on channel=0 note=79 velocity=0 time=60
note_on channel=0 note=35 velocity=25 time=0
note_on channel=0 note=43 velocity=30 time=0
note_on channel=0 note=43 velocity=0 time=180
note_on channel=0 note=35 velocity=0 time=0
note_on channel=0 note=35 velocity=25 time=60
note_on channel=0 note=43 velocity=30 time=0
note_on channel=0 note=43 velocity=0 time=180
note_on channel=0 note=35 velocity=0 time=0
note_on channel=0 note=35 velocity=25 time=0
note_on channel=0 note=43 velocity=30 time=0
note_on channel=0 note=43 velocity=0 time=180
note_on channel=0 note=35 velocity=0 time=0
note_on channel=0 note=46 velocity=29 time=0
note_on channel=0 note=50 velocity=35 time=0
note_on channel=0 note=41 velocity=30 time=0
note_on channel=0 note=34 velocity=26 time=0
note_on channel=0 note=34 velocity=0 time=180
note_on channel=0 note=46 velocity=0 time=0
note_on channel=0 note=50 velocity=0 time=0
note_on channel=0 note=41 velocity=0 time=0
note_on channel=0 note=46 velocity=29 time=60
note_on channel=0 note=50 velocity=35 time=0
note_on channel=0 note=41 velocity=30 time=0
note_on channel=0 note=34 velocity=25 time=0
note_on channel=0 note=34 velocity=0 time=180
note_on channel=0 note=46 velocity=0 time=0
note_on channel=0 note=50 velocity=0 time=0
note_on channel=0 note=41 velocity=0 time=0
note_on channel=0 note=46 velocity=29 time=0
note_on channel=0 note=50 velocity=35 time=0
note_on channel=0 note=41 velocity=30 time=0
note_on channel=0 note=34 velocity=25 time=0
note_on channel=0 note=34 velocity=0 time=180
note_on channel=0 note=46 velocity=0 time=0
note_on channel=0 note=50 velocity=0 time=0
note_on channel=0 note=41 velocity=0 time=0
note_on channel=0 note=46 velocity=30 time=60
note_on channel=0 note=50 velocity=36 time=0
note_on channel=0 note=41 velocity=31 time=0
note_on channel=0 note=34 velocity=26 time=0
note_on channel=0 note=34 velocity=0 time=180
note_on channel=0 note=46 velocity=0 time=0
note_on channel=0 note=50 velocity=0 time=0
note_on channel=0 note=41 velocity=0 time=0
note_on channel=0 note=46 velocity=31 time=0
note_on channel=0 note=50 velocity=37 time=0
note_on channel=0 note=41 velocity=31 time=0
note_on channel=0 note=34 velocity=26 time=0
note_on channel=0 note=34 velocity=0 time=180
note_on channel=0 note=46 velocity=0 time=0
note_on channel=0 note=50 velocity=0 time=0
note_on channel=0 note=41 velocity=0 time=0
note_on channel=0 note=46 velocity=31 time=60
note_on channel=0 note=50 velocity=37 time=0
note_on channel=0 note=41 velocity=31 time=0
note_on channel=0 note=34 velocity=26 time=0
note_on channel=0 note=34 velocity=0 time=180
note_on channel=0 note=46 velocity=0 time=0
note_on channel=0 note=50 velocity=0 time=0
note_on channel=0 note=41 velocity=0 time=0
note_on channel=0 note=46 velocity=32 time=60
note_on channel=0 note=50 velocity=38 time=0
note_on channel=0 note=41 velocity=31 time=0
note_on channel=0 note=34 velocity=26 time=0
note_on channel=0 note=34 velocity=0 time=180
note_on channel=0 note=46 velocity=0 time=0
note_on channel=0 note=50 velocity=0 time=0
note_on channel=0 note=41 velocity=0 time=0
note_on channel=0 note=46 velocity=33 time=60
note_on channel=0 note=50 velocity=39 time=0
note_on channel=0 note=41 velocity=31 time=0
note_on channel=0 note=34 velocity=26 time=0
note_on channel=0 note=34 velocity=0 time=180
note_on channel=0 note=46 velocity=0 time=0
note_on channel=0 note=50 velocity=0 time=0
note_on channel=0 note=41 velocity=0 time=0
note_on channel=0 note=46 velocity=33 time=0
note_on channel=0 note=50 velocity=39 time=0
note_on channel=0 note=34 velocity=26 time=0
note_on channel=0 note=41 velocity=31 time=0
note_on channel=0 note=41 velocity=0 time=180
note_on channel=0 note=46 velocity=0 time=0
note_on channel=0 note=50 velocity=0 time=0
note_on channel=0 note=34 velocity=0 time=0
note_on channel=0 note=46 velocity=34 time=60
note_on channel=0 note=50 velocity=40 time=0
note_on channel=0 note=34 velocity=26 time=0
note_on channel=0 note=41 velocity=31 time=0
note_on channel=0 note=41 velocity=0 time=180
note_on channel=0 note=46 velocity=0 time=0
note_on channel=0 note=50 velocity=0 time=0
note_on channel=0 note=34 velocity=0 time=0
note_on channel=0 note=46 velocity=34 time=0
note_on channel=0 note=50 velocity=40 time=0
note_on channel=0 note=34 velocity=26 time=0
note_on channel=0 note=41 velocity=31 time=0
note_on channel=0 note=41 velocity=0 time=180
note_on channel=0 note=46 velocity=0 time=0
note_on channel=0 note=50 velocity=0 time=0
note_on channel=0 note=34 velocity=0 time=0
note_on channel=0 note=46 velocity=34 time=60
note_on channel=0 note=50 velocity=40 time=0
note_on channel=0 note=34 velocity=26 time=0
note_on channel=0 note=41 velocity=31 time=0
note_on channel=0 note=41 velocity=0 time=180
note_on channel=0 note=46 velocity=0 time=0
note_on channel=0 note=50 velocity=0 time=0
note_on channel=0 note=34 velocity=0 time=0
note_on channel=0 note=46 velocity=34 time=0
note_on channel=0 note=50 velocity=40 time=0
note_on channel=0 note=34 velocity=26 time=0
note_on channel=0 note=41 velocity=31 time=0
note_on channel=0 note=41 velocity=0 time=180
note_on channel=0 note=46 velocity=0 time=0
note_on channel=0 note=50 velocity=0 time=0
note_on channel=0 note=34 velocity=0 time=0
note_on channel=0 note=46 velocity=34 time=60
note_on channel=0 note=50 velocity=40 time=0
note_on channel=0 note=34 velocity=25 time=0
note_on channel=0 note=41 velocity=30 time=0
note_on channel=0 note=41 velocity=0 time=180
note_on channel=0 note=46 velocity=0 time=0
note_on channel=0 note=50 velocity=0 time=0
note_on channel=0 note=34 velocity=0 time=0
note_on channel=0 note=48 velocity=34 time=0
note_on channel=0 note=52 velocity=40 time=0
note_on channel=0 note=34 velocity=25 time=0
note_on channel=0 note=43 velocity=30 time=0
note_on channel=0 note=43 velocity=0 time=180
note_on channel=0 note=48 velocity=0 time=0
note_on channel=0 note=52 velocity=0 time=0
note_on channel=0 note=34 velocity=0 time=0
note_on channel=0 note=48 velocity=34 time=60
note_on channel=0 note=52 velocity=40 time=0
note_on channel=0 note=34 velocity=25 time=0
note_on channel=0 note=43 velocity=30 time=0
note_on channel=0 note=43 velocity=0 time=180
note_on channel=0 note=48 velocity=0 time=0
note_on channel=0 note=52 velocity=0 time=0
note_on channel=0 note=34 velocity=0 time=0
note_on channel=0 note=48 velocity=39 time=60
note_on channel=0 note=53 velocity=46 time=0
note_on channel=0 note=33 velocity=25 time=0
note_on channel=0 note=41 velocity=30 time=0
note_on channel=0 note=41 velocity=0 time=160
note_on channel=0 note=33 velocity=0 time=0
note_on channel=0 note=33 velocity=25 time=60
note_on channel=0 note=41 velocity=30 time=0
note_on channel=0 note=41 velocity=0 time=180
note_on channel=0 note=33 velocity=0 time=0
note_on channel=0 note=33 velocity=25 time=60
note_on channel=0 note=41 velocity=30 time=0
note_on channel=0 note=41 velocity=0 time=180
note_on channel=0 note=33 velocity=0 time=0
note_on channel=0 note=53 velocity=0 time=60
note_on channel=0 note=48 velocity=0 time=0
note_on channel=0 note=57 velocity=40 time=0
note_on channel=0 note=33 velocity=25 time=0
note_on channel=0 note=41 velocity=30 time=0
note_on channel=0 note=57 velocity=0 time=120
note_on channel=0 note=55 velocity=40 time=0
note_on channel=0 note=41 velocity=0 time=60
note_on channel=0 note=33 velocity=0 time=0
note_on channel=0 note=55 velocity=0 time=60
note_on channel=0 note=53 velocity=45 time=0
note_on channel=0 note=33 velocity=25 time=0
note_on channel=0 note=41 velocity=30 time=0
note_on channel=0 note=53 velocity=0 time=120
note_on channel=0 note=41 velocity=0 time=60
note_on channel=0 note=33 velocity=0 time=0
note_on channel=0 note=33 velocity=25 time=60
note_on channel=0 note=41 velocity=30 time=0
note_on channel=0 note=41 velocity=0 time=180
note_on channel=0 note=33 velocity=0 time=0
note_on channel=0 note=33 velocity=25 time=0
note_on channel=0 note=41 velocity=30 time=0
note_on channel=0 note=41 velocity=0 time=180
note_on channel=0 note=33 velocity=0 time=0
note_on channel=0 note=33 velocity=25 time=0
note_on channel=0 note=41 velocity=30 time=0
note_on channel=0 note=41 velocity=0 time=180
note_on channel=0 note=33 velocity=0 time=0
note_on channel=0 note=83 velocity=46 time=0
note_on channel=0 note=83 velocity=0 time=0
note_on channel=0 note=84 velocity=57 time=0
note_on channel=0 note=32 velocity=25 time=0
note_on channel=0 note=41 velocity=30 time=0
note_on channel=0 note=41 velocity=0 time=180
note_on channel=0 note=32 velocity=0 time=0
note_on channel=0 note=32 velocity=25 time=60
note_on channel=0 note=41 velocity=30 time=0
note_on channel=0 note=41 velocity=0 time=180
note_on channel=0 note=32 velocity=0 time=0
note_on channel=0 note=32 velocity=25 time=60
note_on channel=0 note=41 velocity=30 time=0
note_on channel=0 note=84 velocity=0 time=120
note_on channel=0 note=82 velocity=50 time=0
note_on channel=0 note=41 velocity=0 time=60
note_on channel=0 note=32 velocity=0 time=0
note_on channel=0 note=82 velocity=0 time=60
note_on channel=0 note=80 velocity=49 time=0
note_on channel=0 note=32 velocity=25 time=0
note_on channel=0 note=41 velocity=30 time=0
note_on channel=0 note=80 velocity=0 time=120
note_on channel=0 note=79 velocity=47 time=0
note_on channel=0 note=41 velocity=0 time=60
note_on channel=0 note=32 velocity=0 time=0
note_on channel=0 note=79 velocity=0 time=60
note_on channel=0 note=77 velocity=46 time=0
note_on channel=0 note=32 velocity=25 time=0
note_on channel=0 note=41 velocity=30 time=0
note_on channel=0 note=41 velocity=0 time=180
note_on channel=0 note=32 velocity=0 time=0
note_on channel=0 note=77 velocity=0 time=60
note_on channel=0 note=32 velocity=25 time=0
note_on channel=0 note=41 velocity=30 time=0
note_on channel=0 note=41 velocity=0 time=180
note_on channel=0 note=32 velocity=0 time=0
note_on channel=0 note=32 velocity=25 time=0
note_on channel=0 note=41 velocity=30 time=0
note_on channel=0 note=41 velocity=0 time=180
note_on channel=0 note=32 velocity=0 time=0
note_on channel=0 note=32 velocity=25 time=60
note_on channel=0 note=41 velocity=30 time=0
note_on channel=0 note=41 velocity=0 time=180
note_on channel=0 note=32 velocity=0 time=0
note_on channel=0 note=88 velocity=67 time=0
note_on channel=0 note=88 velocity=0 time=0
note_on channel=0 note=89 velocity=73 time=0
note_on channel=0 note=31 velocity=30 time=0
note_on channel=0 note=41 velocity=36 time=0
note_on channel=0 note=41 velocity=0 time=180
note_on channel=0 note=31 velocity=0 time=0
note_on channel=0 note=31 velocity=32 time=60
note_on channel=0 note=41 velocity=38 time=0
note_on channel=0 note=41 velocity=0 time=180
note_on channel=0 note=31 velocity=0 time=0
note_on channel=0 note=31 velocity=33 time=0
note_on channel=0 note=41 velocity=39 time=0
note_on channel=0 note=41 velocity=0 time=180
note_on channel=0 note=31 velocity=0 time=0
note_on channel=0 note=31 velocity=34 time=60
note_on channel=0 note=41 velocity=41 time=0
note_on channel=0 note=41 velocity=0 time=180
note_on channel=0 note=31 velocity=0 time=0
note_on channel=0 note=31 velocity=36 time=0
note_on channel=0 note=41 velocity=43 time=0
note_on channel=0 note=41 velocity=0 time=180
note_on channel=0 note=31 velocity=0 time=0
note_on channel=0 note=31 velocity=38 time=60
note_on channel=0 note=41 velocity=45 time=0
note_on channel=0 note=41 velocity=0 time=180
note_on channel=0 note=31 velocity=0 time=0
note_on channel=0 note=89 velocity=0 time=60
note_on channel=0 note=89 velocity=74 time=0
note_on channel=0 note=32 velocity=39 time=0
note_on channel=0 note=41 velocity=46 time=0
note_on channel=0 note=89 velocity=0 time=120
note_on channel=0 note=87 velocity=73 time=0
note_on channel=0 note=41 velocity=0 time=60
note_on channel=0 note=32 velocity=0 time=0
note_on channel=0 note=87 velocity=0 time=60
note_on channel=0 note=86 velocity=71 time=0
note_on channel=0 note=32 velocity=40 time=0
note_on channel=0 note=41 velocity=48 time=0
note_on channel=0 note=86 velocity=0 time=120
note_on channel=0 note=84 velocity=70 time=0
note_on channel=0 note=41 velocity=0 time=60
note_on channel=0 note=32 velocity=0 time=0
note_on channel=0 note=84 velocity=0 time=0
note_on channel=0 note=83 velocity=72 time=0
note_on channel=0 note=31 velocity=44 time=0
note_on channel=0 note=41 velocity=52 time=0
note_on channel=0 note=83 velocity=0 time=120
note_on channel=0 note=84 velocity=71 time=0
note_on channel=0 note=41 velocity=0 time=60
note_on channel=0 note=31 velocity=0 time=0
note_on channel=0 note=84 velocity=0 time=60
note_on channel=0 note=86 velocity=72 time=0
note_on channel=0 note=31 velocity=44 time=0
note_on channel=0 note=41 velocity=52 time=0
note_on channel=0 note=86 velocity=0 time=120
note_on channel=0 note=87 velocity=73 time=0
note_on channel=0 note=41 velocity=0 time=60
note_on channel=0 note=31 velocity=0 time=0
note_on channel=0 note=87 velocity=0 time=0
note_on channel=0 note=89 velocity=74 time=0
note_on channel=0 note=32 velocity=45 time=0
note_on channel=0 note=41 velocity=55 time=0
note_on channel=0 note=89 velocity=0 time=120
note_on channel=0 note=87 velocity=72 time=0
note_on channel=0 note=41 velocity=0 time=60
note_on channel=0 note=32 velocity=0 time=0
note_on channel=0 note=87 velocity=0 time=60
note_on channel=0 note=86 velocity=71 time=0
note_on channel=0 note=32 velocity=46 time=0
note_on channel=0 note=41 velocity=55 time=0
note_on channel=0 note=86 velocity=0 time=120
note_on channel=0 note=84 velocity=69 time=0
note_on channel=0 note=41 velocity=0 time=60
note_on channel=0 note=32 velocity=0 time=0
note_on channel=0 note=84 velocity=0 time=0
note_on channel=0 note=83 velocity=72 time=0
note_on channel=0 note=31 velocity=48 time=0
note_on channel=0 note=41 velocity=58 time=0
note_on channel=0 note=83 velocity=0 time=120
note_on channel=0 note=84 velocity=75 time=0
note_on channel=0 note=41 velocity=0 time=60
note_on channel=0 note=31 velocity=0 time=0
note_on channel=0 note=84 velocity=0 time=60
note_on channel=0 note=86 velocity=77 time=0
note_on channel=0 note=31 velocity=51 time=0
note_on channel=0 note=41 velocity=60 time=0
note_on channel=0 note=86 velocity=0 time=120
note_on channel=0 note=87 velocity=80 time=0
note_on channel=0 note=41 velocity=0 time=60
note_on channel=0 note=31 velocity=0 time=0
note_on channel=0 note=87 velocity=0 time=60
note_on channel=0 note=89 velocity=80 time=0
note_on channel=0 note=32 velocity=54 time=0
note_on channel=0 note=41 velocity=64 time=0
note_on channel=0 note=89 velocity=0 time=120
note_on channel=0 note=87 velocity=80 time=0
note_on channel=0 note=41 velocity=0 time=60
note_on channel=0 note=32 velocity=0 time=0
note_on channel=0 note=87 velocity=0 time=60
note_on channel=0 note=86 velocity=79 time=0
note_on channel=0 note=32 velocity=56 time=0
note_on channel=0 note=41 velocity=66 time=0
note_on channel=0 note=86 velocity=0 time=120
note_on channel=0 note=84 velocity=81 time=0
note_on channel=0 note=41 velocity=0 time=60
note_on channel=0 note=32 velocity=0 time=0
note_on channel=0 note=84 velocity=0 time=0
note_on channel=0 note=83 velocity=85 time=0
note_on channel=0 note=31 velocity=70 time=0
note_on channel=0 note=41 velocity=85 time=0
note_on channel=0 note=83 velocity=0 time=0
note_on channel=0 note=84 velocity=89 time=0
note_on channel=0 note=84 velocity=0 time=0
note_on channel=0 note=86 velocity=94 time=0
note_on channel=0 note=86 velocity=0 time=0
note_on channel=0 note=87 velocity=98 time=0
note_on channel=0 note=87 velocity=0 time=0
note_on channel=0 note=41 velocity=0 time=0
note_on channel=0 note=31 velocity=0 time=0
note_on channel=0 note=89 velocity=100 time=0
note_on channel=0 note=43 velocity=81 time=0
note_on channel=0 note=55 velocity=96 time=0
note_on channel=0 note=89 velocity=0 time=120
note_on channel=0 note=87 velocity=98 time=0
note_on channel=0 note=87 velocity=0 time=120
note_on channel=0 note=86 velocity=96 time=0
note_on channel=0 note=86 velocity=0 time=120
note_on channel=0 note=84 velocity=94 time=0
note_on channel=0 note=84 velocity=0 time=120
note_on channel=0 note=83 velocity=93 time=0
note_on channel=0 note=83 velocity=0 time=120
note_on channel=0 note=80 velocity=91 time=0
note_on channel=0 note=80 velocity=0 time=120
note_on channel=0 note=79 velocity=89 time=0
note_on channel=0 note=79 velocity=0 time=120
note_on channel=0 note=77 velocity=87 time=0
note_on channel=0 note=77 velocity=0 time=0
note_on channel=0 note=75 velocity=85 time=0
note_on channel=0 note=75 velocity=0 time=120
note_on channel=0 note=74 velocity=83 time=0
note_on channel=0 note=74 velocity=0 time=120
note_on channel=0 note=55 velocity=0 time=0
note_on channel=0 note=43 velocity=0 time=0
note_on channel=0 note=72 velocity=81 time=0
note_on channel=0 note=57 velocity=67 time=0
note_on channel=0 note=57 velocity=0 time=120
note_on channel=0 note=72 velocity=0 time=0
note_on channel=0 note=71 velocity=79 time=0
note_on channel=0 note=59 velocity=70 time=0
note_on channel=0 note=59 velocity=0 time=0
note_on channel=0 note=71 velocity=0 time=0
note_on channel=0 note=72 velocity=93 time=0
note_on channel=0 note=60 velocity=72 time=0
note_on channel=0 note=60 velocity=0 time=180
note_on channel=0 note=72 velocity=0 time=0
note_on channel=0 note=67 velocity=83 time=0
note_on channel=0 note=43 velocity=56 time=0
note_on channel=0 note=55 velocity=66 time=0
note_on channel=0 note=55 velocity=0 time=180
note_on channel=0 note=43 velocity=0 time=0
note_on channel=0 note=67 velocity=0 time=0
note_on channel=0 note=63 velocity=72 time=0
note_on channel=0 note=39 velocity=52 time=0
note_on channel=0 note=51 velocity=62 time=0
note_on channel=0 note=51 velocity=0 time=180
note_on channel=0 note=39 velocity=0 time=0
note_on channel=0 note=63 velocity=0 time=0
note_on channel=0 note=60 velocity=64 time=0
note_on channel=0 note=36 velocity=48 time=0
note_on channel=0 note=48 velocity=57 time=0
note_on channel=0 note=48 velocity=0 time=180
note_on channel=0 note=36 velocity=0 time=0
note_on channel=0 note=60 velocity=0 time=0
note_on channel=0 note=55 velocity=60 time=0
note_on channel=0 note=31 velocity=46 time=0
note_on channel=0 note=43 velocity=54 time=0
note_on channel=0 note=43 velocity=0 time=0
note_on channel=0 note=31 velocity=0 time=0
note_on channel=0 note=55 velocity=0 time=0
note_on channel=0 note=64 velocity=37 time=0
note_on channel=0 note=36 velocity=30 time=0
note_on channel=0 note=48 velocity=30 time=0
note_on channel=0 note=64 velocity=0 time=119
note_on channel=0 note=60 velocity=33 time=1
note_on channel=0 note=60 velocity=0 time=120
note_on channel=0 note=48 velocity=0 time=0
note_on channel=0 note=64 velocity=37 time=0
note_on channel=0 note=48 velocity=31 time=0
note_on channel=0 note=48 velocity=0 time=80
note_on channel=0 note=64 velocity=0 time=0
note_on channel=0 note=60 velocity=33 time=1
note_on channel=0 note=55 velocity=26 time=0
note_on channel=0 note=55 velocity=0 time=0
note_on channel=0 note=60 velocity=0 time=0
note_on channel=0 note=64 velocity=37 time=0
note_on channel=0 note=48 velocity=31 time=0
note_on channel=0 note=48 velocity=0 time=119
note_on channel=0 note=64 velocity=0 time=0
note_on channel=0 note=60 velocity=33 time=1
note_on channel=0 note=55 velocity=27 time=0
note_on channel=0 note=55 velocity=0 time=120
note_on channel=0 note=60 velocity=0 time=0
note_on channel=0 note=64 velocity=36 time=0
note_on channel=0 note=48 velocity=31 time=0
note_on channel=0 note=48 velocity=0 time=119
note_on channel=0 note=64 velocity=0 time=0
note_on channel=0 note=60 velocity=33 time=1
note_on channel=0 note=55 velocity=27 time=0
note_on channel=0 note=55 velocity=0 time=120
note_on channel=0 note=60 velocity=0 time=0
note_on channel=0 note=64 velocity=36 time=0
note_on channel=0 note=48 velocity=31 time=0
note_on channel=0 note=48 velocity=0 time=119
note_on channel=0 note=64 velocity=0 time=0
note_on channel=0 note=60 velocity=33 time=1
note_on channel=0 note=55 velocity=26 time=0
note_on channel=0 note=55 velocity=0 time=120
note_on channel=0 note=60 velocity=0 time=0
note_on channel=0 note=64 velocity=37 time=0
note_on channel=0 note=48 velocity=31 time=0
note_on channel=0 note=48 velocity=0 time=119
note_on channel=0 note=64 velocity=0 time=0
note_on channel=0 note=60 velocity=33 time=1
note_on channel=0 note=55 velocity=27 time=0
note_on channel=0 note=55 velocity=0 time=0
note_on channel=0 note=60 velocity=0 time=0
note_on channel=0 note=64 velocity=36 time=0
note_on channel=0 note=48 velocity=31 time=0
note_on channel=0 note=48 velocity=0 time=119
note_on channel=0 note=64 velocity=0 time=0
note_on channel=0 note=60 velocity=33 time=1
note_on channel=0 note=55 velocity=27 time=0
note_on channel=0 note=55 velocity=0 time=120
note_on channel=0 note=60 velocity=0 time=0
note_on channel=0 note=64 velocity=36 time=0
note_on channel=0 note=48 velocity=31 time=0
note_on channel=0 note=48 velocity=0 time=119
note_on channel=0 note=64 velocity=0 time=0
note_on channel=0 note=60 velocity=33 time=1
note_on channel=0 note=55 velocity=25 time=0
note_on channel=0 note=55 velocity=0 time=120
note_on channel=0 note=60 velocity=0 time=0
note_on channel=0 note=36 velocity=0 time=0
note_on channel=0 note=64 velocity=37 time=0
note_on channel=0 note=48 velocity=31 time=0
note_on channel=0 note=48 velocity=0 time=99
note_on channel=0 note=64 velocity=0 time=0
note_on channel=0 note=60 velocity=33 time=1
note_on channel=0 note=55 velocity=26 time=0
note_on channel=0 note=55 velocity=0 time=120
note_on channel=0 note=60 velocity=0 time=0
note_on channel=0 note=64 velocity=37 time=0
note_on channel=0 note=48 velocity=31 time=0
note_on channel=0 note=48 velocity=0 time=119
note_on channel=0 note=64 velocity=0 time=0
note_on channel=0 note=60 velocity=33 time=1
note_on channel=0 note=55 velocity=26 time=0
note_on channel=0 note=55 velocity=0 time=0
note_on channel=0 note=60 velocity=0 time=0
note_on channel=0 note=64 velocity=37 time=0
note_on channel=0 note=48 velocity=31 time=0
note_on channel=0 note=48 velocity=0 time=119
note_on channel=0 note=64 velocity=0 time=0
note_on channel=0 note=60 velocity=33 time=1
note_on channel=0 note=55 velocity=27 time=0
note_on channel=0 note=55 velocity=0 time=120
note_on channel=0 note=60 velocity=0 time=0
note_on channel=0 note=64 velocity=36 time=0
note_on channel=0 note=48 velocity=31 time=0
note_on channel=0 note=48 velocity=0 time=119
note_on channel=0 note=64 velocity=0 time=0
note_on channel=0 note=60 velocity=33 time=1
note_on channel=0 note=55 velocity=27 time=0
note_on channel=0 note=55 velocity=0 time=120
note_on channel=0 note=60 velocity=0 time=0
note_on channel=0 note=64 velocity=36 time=0
note_on channel=0 note=48 velocity=31 time=0
note_on channel=0 note=48 velocity=0 time=119
note_on channel=0 note=64 velocity=0 time=0
note_on channel=0 note=60 velocity=33 time=1
note_on channel=0 note=55 velocity=26 time=0
note_on channel=0 note=55 velocity=0 time=120
note_on channel=0 note=60 velocity=0 time=0
note_on channel=0 note=64 velocity=37 time=0
note_on channel=0 note=48 velocity=31 time=0
note_on channel=0 note=48 velocity=0 time=119
note_on channel=0 note=64 velocity=0 time=0
note_on channel=0 note=60 velocity=33 time=1
note_on channel=0 note=55 velocity=27 time=0
note_on channel=0 note=55 velocity=0 time=120
note_on channel=0 note=60 velocity=0 time=0
note_on channel=0 note=66 velocity=36 time=0
note_on channel=0 note=48 velocity=31 time=0
note_on channel=0 note=48 velocity=0 time=44
note_on channel=0 note=66 velocity=0 time=0
note_on channel=0 note=62 velocity=33 time=1
note_on channel=0 note=57 velocity=27 time=0
note_on channel=0 note=57 velocity=0 time=120
note_on channel=0 note=62 velocity=0 time=0
note_on channel=0 note=66 velocity=36 time=0
note_on channel=0 note=48 velocity=31 time=0
note_on channel=0 note=48 velocity=0 time=119
note_on channel=0 note=66 velocity=0 time=0
note_on channel=0 note=62 velocity=33 time=1
note_on channel=0 note=57 velocity=25 time=0
note_on channel=0 note=57 velocity=0 time=0
note_on channel=0 note=62 velocity=0 time=0
note_on channel=0 note=67 velocity=46 time=0
note_on channel=0 note=47 velocity=26 time=0
note_on channel=0 note=50 velocity=31 time=0
note_on channel=0 note=55 velocity=25 time=112
note_on channel=0 note=50 velocity=0 time=60
note_on channel=0 note=47 velocity=0 time=0
note_on channel=0 note=55 velocity=0 time=60
note_on channel=0 note=47 velocity=26 time=0
note_on channel=0 note=50 velocity=31 time=0
note_on channel=0 note=55 velocity=25 time=120
note_on channel=0 note=50 velocity=0 time=60
note_on channel=0 note=47 velocity=0 time=0
note_on channel=0 note=55 velocity=0 time=60
note_on channel=0 note=47 velocity=26 time=0
note_on channel=0 note=50 velocity=31 time=0
note_on channel=0 note=55 velocity=25 time=120
note_on channel=0 note=50 velocity=0 time=60
note_on channel=0 note=47 velocity=0 time=0
note_on channel=0 note=67 velocity=0 time=60
note_on channel=0 note=55 velocity=0 time=0
note_on channel=0 note=71 velocity=40 time=0
note_on channel=0 note=47 velocity=26 time=0
note_on channel=0 note=50 velocity=31 time=0
note_on channel=0 note=71 velocity=0 time=120
note_on channel=0 note=69 velocity=40 time=0
note_on channel=0 note=55 velocity=25 time=0
note_on channel=0 note=50 velocity=0 time=60
note_on channel=0 note=47 velocity=0 time=0
note_on channel=0 note=69 velocity=0 time=60
note_on channel=0 note=55 velocity=0 time=0
note_on channel=0 note=67 velocity=45 time=0
note_on channel=0 note=47 velocity=26 time=0
note_on channel=0 note=50 velocity=31 time=0
note_on channel=0 note=67 velocity=0 time=120
note_on channel=0 note=55 velocity=25 time=0
note_on channel=0 note=50 velocity=0 time=60
note_on channel=0 note=47 velocity=0 time=0
note_on channel=0 note=55 velocity=0 time=60
note_on channel=0 note=47 velocity=26 time=0
note_on channel=0 note=50 velocity=31 time=0
note_on channel=0 note=55 velocity=25 time=120
note_on channel=0 note=50 velocity=0 time=60
note_on channel=0 note=47 velocity=0 time=0
note_on channel=0 note=55 velocity=0 time=60
note_on channel=0 note=47 velocity=26 time=0
note_on channel=0 note=50 velocity=31 time=0
note_on channel=0 note=55 velocity=25 time=120
note_on channel=0 note=50 velocity=0 time=60
note_on channel=0 note=47 velocity=0 time=0
note_on channel=0 note=55 velocity=0 time=0
note_on channel=0 note=47 velocity=26 time=0
note_on channel=0 note=50 velocity=31 time=0
note_on channel=0 note=55 velocity=25 time=120
note_on channel=0 note=50 velocity=0 time=60
note_on channel=0 note=47 velocity=0 time=0
note_on channel=0 note=85 velocity=46 time=0
note_on channel=0 note=85 velocity=0 time=0
note_on channel=0 note=55 velocity=0 time=0
note_on channel=0 note=86 velocity=57 time=0
note_on channel=0 note=47 velocity=26 time=0
note_on channel=0 note=50 velocity=31 time=0
note_on channel=0 note=55 velocity=25 time=120
note_on channel=0 note=50 velocity=0 time=60
note_on channel=0 note=47 velocity=0 time=0
note_on channel=0 note=55 velocity=0 time=60
note_on channel=0 note=47 velocity=26 time=0
note_on channel=0 note=50 velocity=31 time=0
note_on channel=0 note=55 velocity=25 time=120
note_on channel=0 note=50 velocity=0 time=60
note_on channel=0 note=47 velocity=0 time=0
note_on channel=0 note=55 velocity=0 time=60
note_on channel=0 note=47 velocity=26 time=0
note_on channel=0 note=50 velocity=31 time=0
note_on channel=0 note=86 velocity=0 time=120
note_on channel=0 note=84 velocity=48 time=0
note_on channel=0 note=55 velocity=25 time=0
note_on channel=0 note=50 velocity=0 time=60
note_on channel=0 note=47 velocity=0 time=0
note_on channel=0 note=84 velocity=0 time=60
note_on channel=0 note=55 velocity=0 time=0
note_on channel=0 note=83 velocity=47 time=0
note_on channel=0 note=47 velocity=26 time=0
note_on channel=0 note=50 velocity=31 time=0
note_on channel=0 note=83 velocity=0 time=120
note_on channel=0 note=81 velocity=45 time=0
note_on channel=0 note=55 velocity=25 time=0
note_on channel=0 note=50 velocity=0 time=60
note_on channel=0 note=47 velocity=0 time=0
note_on channel=0 note=81 velocity=0 time=60
note_on channel=0 note=55 velocity=0 time=0
note_on channel=0 note=79 velocity=44 time=0
note_on channel=0 note=47 velocity=26 time=0
note_on channel=0 note=50 velocity=31 time=0
note_on channel=0 note=55 velocity=25 time=120
note_on channel=0 note=50 velocity=0 time=60
note_on channel=0 note=47 velocity=0 time=0
note_on channel=0 note=79 velocity=0 time=60
note_on channel=0 note=55 velocity=0 time=0
note_on channel=0 note=47 velocity=26 time=0
note_on channel=0 note=50 velocity=31 time=0
note_on channel=0 note=55 velocity=25 time=120
note_on channel=0 note=50 velocity=0 time=60
note_on channel=0 note=47 velocity=0 time=0
note_on channel=0 note=55 velocity=0 time=60
note_on channel=0 note=47 velocity=26 time=0
note_on channel=0 note=50 velocity=31 time=0
note_on channel=0 note=55 velocity=25 time=120
note_on channel=0 note=50 velocity=0 time=60
note_on channel=0 note=47 velocity=0 time=0
note_on channel=0 note=55 velocity=0 time=0
note_on channel=0 note=47 velocity=26 time=0
note_on channel=0 note=50 velocity=31 time=0
note_on channel=0 note=55 velocity=25 time=120
note_on channel=0 note=50 velocity=0 time=60
note_on channel=0 note=47 velocity=0 time=0
note_on channel=0 note=55 velocity=0 time=0
note_on channel=0 note=65 velocity=40 time=0
note_on channel=0 note=38 velocity=33 time=0
note_on channel=0 note=50 velocity=33 time=0
note_on channel=0 note=65 velocity=0 time=62
note_on channel=0 note=62 velocity=36 time=1
note_on channel=0 note=62 velocity=0 time=120
note_on channel=0 note=50 velocity=0 time=0
note_on channel=0 note=65 velocity=40 time=0
note_on channel=0 note=50 velocity=34 time=0
note_on channel=0 note=50 velocity=0 time=119
note_on channel=0 note=65 velocity=0 time=0
note_on channel=0 note=62 velocity=36 time=1
note_on channel=0 note=57 velocity=28 time=0
note_on channel=0 note=57 velocity=0 time=0
note_on channel=0 note=62 velocity=0 time=0
note_on channel=0 note=65 velocity=40 time=0
note_on channel=0 note=50 velocity=34 time=0
note_on channel=0 note=50 velocity=0 time=119
note_on channel=0 note=65 velocity=0 time=0
note_on channel=0 note=62 velocity=36 time=1
note_on channel=0 note=57 velocity=29 time=0
note_on channel=0 note=57 velocity=0 time=120
note_on channel=0 note=62 velocity=0 time=0
note_on channel=0 note=65 velocity=39 time=0
note_on channel=0 note=50 velocity=34 time=0
note_on channel=0 note=50 velocity=0 time=119
note_on channel=0 note=65 velocity=0 time=0
note_on channel=0 note=62 velocity=36 time=1
note_on channel=0 note=57 velocity=29 time=0
note_on channel=0 note=57 velocity=0 time=120
note_on channel=0 note=62 velocity=0 time=0
note_on channel=0 note=65 velocity=39 time=0
note_on channel=0 note=50 velocity=34 time=0
note_on channel=0 note=50 velocity=0 time=119
note_on channel=0 note=65 velocity=0 time=0
note_on channel=0 note=62 velocity=36 time=1
note_on channel=0 note=57 velocity=28 time=0
note_on channel=0 note=57 velocity=0 time=120
note_on channel=0 note=62 velocity=0 time=0
note_on channel=0 note=65 velocity=41 time=0
note_on channel=0 note=50 velocity=34 time=0
note_on channel=0 note=50 velocity=0 time=119
note_on channel=0 note=65 velocity=0 time=0
note_on channel=0 note=62 velocity=36 time=1
note_on channel=0 note=57 velocity=29 time=0
note_on channel=0 note=57 velocity=0 time=0
note_on channel=0 note=62 velocity=0 time=0
note_on channel=0 note=65 velocity=40 time=0
note_on channel=0 note=50 velocity=34 time=0
note_on channel=0 note=50 velocity=0 time=119
note_on channel=0 note=65 velocity=0 time=0
note_on channel=0 note=62 velocity=37 time=1
note_on channel=0 note=57 velocity=30 time=0
note_on channel=0 note=57 velocity=0 time=120
note_on channel=0 note=62 velocity=0 time=0
note_on channel=0 note=65 velocity=40 time=0
note_on channel=0 note=50 velocity=35 time=0
note_on channel=0 note=50 velocity=0 time=119
note_on channel=0 note=65 velocity=0 time=0
note_on channel=0 note=62 velocity=37 time=1
note_on channel=0 note=57 velocity=28 time=0
note_on channel=0 note=57 velocity=0 time=0
note_on channel=0 note=62 velocity=0 time=0
note_on channel=0 note=38 velocity=0 time=0
note_on channel=0 note=65 velocity=41 time=0
note_on channel=0 note=50 velocity=35 time=0
note_on channel=0 note=50 velocity=0 time=119
note_on channel=0 note=65 velocity=0 time=0
note_on channel=0 note=62 velocity=37 time=1
note_on channel=0 note=57 velocity=29 time=0
note_on channel=0 note=57 velocity=0 time=120
note_on channel=0 note=62 velocity=0 time=0
note_on channel=0 note=65 velocity=41 time=0
note_on channel=0 note=50 velocity=35 time=0
note_on channel=0 note=50 velocity=0 time=119
note_on channel=0 note=65 velocity=0 time=0
note_on channel=0 note=62 velocity=37 time=1
note_on channel=0 note=57 velocity=29 time=0
note_on channel=0 note=57 velocity=0 time=0
note_on channel=0 note=62 velocity=0 time=0
note_on channel=0 note=65 velocity=42 time=0
note_on channel=0 note=50 velocity=35 time=0
note_on channel=0 note=50 velocity=0 time=119
note_on channel=0 note=65 velocity=0 time=0
note_on channel=0 note=62 velocity=37 time=1
note_on channel=0 note=57 velocity=30 time=0
note_on channel=0 note=57 velocity=0 time=120
note_on channel=0 note=62 velocity=0 time=0
note_on channel=0 note=65 velocity=41 time=0
note_on channel=0 note=50 velocity=35 time=0
note_on channel=0 note=50 velocity=0 time=119
note_on channel=0 note=65 velocity=0 time=0
note_on channel=0 note=62 velocity=38 time=1
note_on channel=0 note=57 velocity=30 time=0
note_on channel=0 note=57 velocity=0 time=120
note_on channel=0 note=62 velocity=0 time=0
note_on channel=0 note=65 velocity=41 time=0
note_on channel=0 note=50 velocity=36 time=0
note_on channel=0 note=50 velocity=0 time=99
note_on channel=0 note=65 velocity=0 time=0
note_on channel=0 note=62 velocity=38 time=1
note_on channel=0 note=57 velocity=29 time=0
note_on channel=0 note=57 velocity=0 time=120
note_on channel=0 note=62 velocity=0 time=0
note_on channel=0 note=65 velocity=42 time=0
note_on channel=0 note=50 velocity=36 time=0
note_on channel=0 note=50 velocity=0 time=119
note_on channel=0 note=65 velocity=0 time=0
note_on channel=0 note=62 velocity=38 time=1
note_on channel=0 note=57 velocity=31 time=0
note_on channel=0 note=57 velocity=0 time=120
note_on channel=0 note=62 velocity=0 time=0
note_on channel=0 note=68 velocity=41 time=0
note_on channel=0 note=50 velocity=36 time=0
note_on channel=0 note=50 velocity=0 time=44
note_on channel=0 note=68 velocity=0 time=0
note_on channel=0 note=64 velocity=38 time=1
note_on channel=0 note=59 velocity=31 time=0
note_on channel=0 note=59 velocity=0 time=120
note_on channel=0 note=64 velocity=0 time=0
note_on channel=0 note=68 velocity=42 time=0
note_on channel=0 note=50 velocity=36 time=0
note_on channel=0 note=50 velocity=0 time=119
note_on channel=0 note=68 velocity=0 time=0
note_on channel=0 note=64 velocity=38 time=1
note_on channel=0 note=59 velocity=29 time=0
note_on channel=0 note=59 velocity=0 time=0
note_on channel=0 note=64 velocity=0 time=0
note_on channel=0 note=69 velocity=55 time=0
note_on channel=0 note=48 velocity=30 time=0
note_on channel=0 note=52 velocity=37 time=0
note_on channel=0 note=57 velocity=29 time=102
note_on channel=0 note=52 velocity=0 time=60
note_on channel=0 note=48 velocity=0 time=0
note_on channel=0 note=57 velocity=0 time=60
note_on channel=0 note=48 velocity=30 time=0
note_on channel=0 note=52 velocity=37 time=0
note_on channel=0 note=57 velocity=29 time=120
note_on channel=0 note=52 velocity=0 time=60
note_on channel=0 note=48 velocity=0 time=0
note_on channel=0 note=57 velocity=0 time=60
note_on channel=0 note=48 velocity=30 time=0
note_on channel=0 note=52 velocity=37 time=0
note_on channel=0 note=57 velocity=29 time=120
note_on channel=0 note=52 velocity=0 time=60
note_on channel=0 note=48 velocity=0 time=0
note_on channel=0 note=69 velocity=0 time=60
note_on channel=0 note=57 velocity=0 time=0
note_on channel=0 note=72 velocity=48 time=0
note_on channel=0 note=48 velocity=30 time=0
note_on channel=0 note=52 velocity=37 time=0
note_on channel=0 note=72 velocity=0 time=120
note_on channel=0 note=71 velocity=48 time=0
note_on channel=0 note=57 velocity=29 time=0
note_on channel=0 note=52 velocity=0 time=60
note_on channel=0 note=48 velocity=0 time=0
note_on channel=0 note=71 velocity=0 time=60
note_on channel=0 note=57 velocity=0 time=0
note_on channel=0 note=69 velocity=53 time=0
note_on channel=0 note=48 velocity=30 time=0
note_on channel=0 note=52 velocity=37 time=0
note_on channel=0 note=69 velocity=0 time=120
note_on channel=0 note=57 velocity=29 time=0
note_on channel=0 note=52 velocity=0 time=60
note_on channel=0 note=48 velocity=0 time=0
note_on channel=0 note=57 velocity=0 time=60
note_on channel=0 note=48 velocity=30 time=0
note_on channel=0 note=52 velocity=37 time=0
note_on channel=0 note=57 velocity=29 time=120
note_on channel=0 note=52 velocity=0 time=60
note_on channel=0 note=48 velocity=0 time=0
note_on channel=0 note=57 velocity=0 time=60
note_on channel=0 note=48 velocity=30 time=0
note_on channel=0 note=52 velocity=37 time=0
note_on channel=0 note=57 velocity=29 time=120
note_on channel=0 note=52 velocity=0 time=60
note_on channel=0 note=48 velocity=0 time=0
note_on channel=0 note=57 velocity=0 time=0
note_on channel=0 note=48 velocity=30 time=0
note_on channel=0 note=52 velocity=37 time=0
note_on channel=0 note=57 velocity=29 time=120
note_on channel=0 note=52 velocity=0 time=60
note_on channel=0 note=48 velocity=0 time=0
note_on channel=0 note=87 velocity=55 time=0
note_on channel=0 note=87 velocity=0 time=0
note_on channel=0 note=57 velocity=0 time=0
note_on channel=0 note=88 velocity=68 time=0
note_on channel=0 note=48 velocity=30 time=0
note_on channel=0 note=52 velocity=37 time=0
note_on channel=0 note=57 velocity=29 time=120
note_on channel=0 note=52 velocity=0 time=60
note_on channel=0 note=48 velocity=0 time=0
note_on channel=0 note=57 velocity=0 time=60
note_on channel=0 note=48 velocity=30 time=0
note_on channel=0 note=52 velocity=37 time=0
note_on channel=0 note=57 velocity=29 time=120
note_on channel=0 note=52 velocity=0 time=60
note_on channel=0 note=48 velocity=0 time=0
note_on channel=0 note=57 velocity=0 time=60
note_on channel=0 note=48 velocity=30 time=0
note_on channel=0 note=52 velocity=37 time=0
note_on channel=0 note=88 velocity=0 time=120
note_on channel=0 note=86 velocity=59 time=0
note_on channel=0 note=57 velocity=29 time=0
note_on channel=0 note=52 velocity=0 time=60
note_on channel=0 note=48 velocity=0 time=0
note_on channel=0 note=86 velocity=0 time=60
note_on channel=0 note=57 velocity=0 time=0
note_on channel=0 note=84 velocity=58 time=0
note_on channel=0 note=48 velocity=30 time=0
note_on channel=0 note=52 velocity=39 time=0
note_on channel=0 note=84 velocity=0 time=120
note_on channel=0 note=83 velocity=57 time=0
note_on channel=0 note=57 velocity=31 time=0
note_on channel=0 note=52 velocity=0 time=60
note_on channel=0 note=48 velocity=0 time=0
note_on channel=0 note=83 velocity=0 time=60
note_on channel=0 note=57 velocity=0 time=0
note_on channel=0 note=81 velocity=57 time=0
note_on channel=0 note=48 velocity=32 time=0
note_on channel=0 note=52 velocity=39 time=0
note_on channel=0 note=57 velocity=31 time=120
note_on channel=0 note=52 velocity=0 time=60
note_on channel=0 note=48 velocity=0 time=0
note_on channel=0 note=81 velocity=0 time=60
note_on channel=0 note=57 velocity=0 time=0
note_on channel=0 note=48 velocity=32 time=0
note_on channel=0 note=52 velocity=41 time=0
note_on channel=0 note=57 velocity=31 time=120
note_on channel=0 note=52 velocity=0 time=60
note_on channel=0 note=48 velocity=0 time=0
note_on channel=0 note=57 velocity=0 time=60
note_on channel=0 note=48 velocity=33 time=0
note_on channel=0 note=52 velocity=41 time=0
note_on channel=0 note=57 velocity=33 time=120
note_on channel=0 note=52 velocity=0 time=60
note_on channel=0 note=48 velocity=0 time=0
note_on channel=0 note=57 velocity=0 time=0
note_on channel=0 note=48 velocity=35 time=0
note_on channel=0 note=52 velocity=42 time=0
note_on channel=0 note=57 velocity=33 time=120
note_on channel=0 note=52 velocity=0 time=60
note_on channel=0 note=48 velocity=0 time=0
note_on channel=0 note=87 velocity=66 time=0
note_on channel=0 note=87 velocity=0 time=0
note_on channel=0 note=57 velocity=0 time=0
note_on channel=0 note=88 velocity=85 time=0
note_on channel=0 note=48 velocity=37 time=0
note_on channel=0 note=52 velocity=45 time=0
note_on channel=0 note=58 velocity=36 time=120
note_on channel=0 note=52 velocity=0 time=60
note_on channel=0 note=48 velocity=0 time=0
note_on channel=0 note=58 velocity=0 time=60
note_on channel=0 note=48 velocity=38 time=0
note_on channel=0 note=52 velocity=45 time=0
note_on channel=0 note=58 velocity=37 time=120
note_on channel=0 note=52 velocity=0 time=60
note_on channel=0 note=48 velocity=0 time=0
note_on channel=0 note=58 velocity=0 time=60
note_on channel=0 note=48 velocity=39 time=0
note_on channel=0 note=52 velocity=47 time=0
note_on channel=0 note=88 velocity=0 time=120
note_on channel=0 note=86 velocity=76 time=0
note_on channel=0 note=58 velocity=38 time=0
note_on channel=0 note=52 velocity=0 time=60
note_on channel=0 note=48 velocity=0 time=0
note_on channel=0 note=86 velocity=0 time=60
note_on channel=0 note=58 velocity=0 time=0
note_on channel=0 note=84 velocity=75 time=0
note_on channel=0 note=48 velocity=39 time=0
note_on channel=0 note=52 velocity=47 time=0
note_on channel=0 note=84 velocity=0 time=120
note_on channel=0 note=83 velocity=71 time=0
note_on channel=0 note=58 velocity=38 time=0
note_on channel=0 note=52 velocity=0 time=60
note_on channel=0 note=48 velocity=0 time=0
note_on channel=0 note=83 velocity=0 time=60
note_on channel=0 note=58 velocity=0 time=0
note_on channel=0 note=82 velocity=71 time=0
note_on channel=0 note=48 velocity=41 time=0
note_on channel=0 note=52 velocity=50 time=0
note_on channel=0 note=58 velocity=40 time=120
note_on channel=0 note=52 velocity=0 time=60
note_on channel=0 note=48 velocity=0 time=0
note_on channel=0 note=82 velocity=0 time=60
note_on channel=0 note=58 velocity=0 time=0
note_on channel=0 note=48 velocity=41 time=0
note_on channel=0 note=52 velocity=51 time=0
note_on channel=0 note=58 velocity=40 time=120
note_on channel=0 note=52 velocity=0 time=60
note_on channel=0 note=48 velocity=0 time=0
note_on channel=0 note=58 velocity=0 time=60
note_on channel=0 note=48 velocity=42 time=0
note_on channel=0 note=52 velocity=51 time=0
note_on channel=0 note=58 velocity=42 time=120
note_on channel=0 note=52 velocity=0 time=60
note_on channel=0 note=48 velocity=0 time=0
note_on channel=0 note=58 velocity=0 time=0
note_on channel=0 note=48 velocity=43 time=0
note_on channel=0 note=52 velocity=53 time=0
note_on channel=0 note=58 velocity=42 time=120
note_on channel=0 note=52 velocity=0 time=60
note_on channel=0 note=48 velocity=0 time=0
note_on channel=0 note=58 velocity=0 time=0
note_on channel=0 note=83 velocity=56 time=0
note_on channel=0 note=47 velocity=40 time=0
note_on channel=0 note=51 velocity=35 time=120
note_on channel=0 note=47 velocity=0 time=20
note_on channel=0 note=54 velocity=35 time=80
note_on channel=0 note=51 velocity=0 time=20
note_on channel=0 note=59 velocity=35 time=80
note_on channel=0 note=54 velocity=0 time=20
note_on channel=0 note=59 velocity=0 time=40
note_on channel=0 note=47 velocity=41 time=0
note_on channel=0 note=81 velocity=54 time=40
note_on channel=0 note=51 velocity=35 time=0
note_on channel=0 note=47 velocity=0 time=20
note_on channel=0 note=83 velocity=0 time=0
note_on channel=0 note=79 velocity=53 time=0
note_on channel=0 note=54 velocity=35 time=0
note_on channel=0 note=81 velocity=0 time=20
note_on channel=0 note=51 velocity=0 time=0
note_on channel=0 note=78 velocity=51 time=0
note_on channel=0 note=59 velocity=35 time=0
note_on channel=0 note=79 velocity=0 time=20
note_on channel=0 note=54 velocity=0 time=0
note_on channel=0 note=59 velocity=0 time=0
note_on channel=0 note=79 velocity=53 time=0
note_on channel=0 note=47 velocity=39 time=0
note_on channel=0 note=78 velocity=0 time=20
note_on channel=0 note=78 velocity=52 time=100
note_on channel=0 note=52 velocity=35 time=0
note_on channel=0 note=47 velocity=0 time=20
note_on channel=0 note=79 velocity=0 time=0
note_on channel=0 note=76 velocity=51 time=100
note_on channel=0 note=55 velocity=35 time=0
note_on channel=0 note=78 velocity=0 time=20
note_on channel=0 note=52 velocity=0 time=0
note_on channel=0 note=75 velocity=50 time=100
note_on channel=0 note=59 velocity=35 time=0
note_on channel=0 note=76 velocity=0 time=20
note_on channel=0 note=55 velocity=0 time=0
note_on channel=0 note=59 velocity=0 time=100
note_on channel=0 note=76 velocity=50 time=0
note_on channel=0 note=47 velocity=40 time=0
note_on channel=0 note=75 velocity=0 time=20
note_on channel=0 note=79 velocity=52 time=100
note_on channel=0 note=52 velocity=35 time=0
note_on channel=0 note=47 velocity=0 time=20
note_on channel=0 note=76 velocity=0 time=0
note_on channel=0 note=78 velocity=50 time=100
note_on channel=0 note=55 velocity=35 time=0
note_on channel=0 note=79 velocity=0 time=20
note_on channel=0 note=52 velocity=0 time=0
note_on channel=0 note=76 velocity=50 time=100
note_on channel=0 note=59 velocity=35 time=0
note_on channel=0 note=78 velocity=0 time=20
note_on channel=0 note=55 velocity=0 time=0
note_on channel=0 note=59 velocity=0 time=40
note_on channel=0 note=75 velocity=50 time=0
note_on channel=0 note=47 velocity=40 time=0
note_on channel=0 note=76 velocity=0 time=20
note_on channel=0 note=73 velocity=49 time=100
note_on channel=0 note=54 velocity=35 time=0
note_on channel=0 note=47 velocity=0 time=20
note_on channel=0 note=75 velocity=0 time=0
note_on channel=0 note=71 velocity=48 time=100
note_on channel=0 note=57 velocity=35 time=0
note_on channel=0 note=73 velocity=0 time=20
note_on channel=0 note=54 velocity=0 time=0
note_on channel=0 note=70 velocity=47 time=80
note_on channel=0 note=59 velocity=35 time=0
note_on channel=0 note=71 velocity=0 time=20
note_on channel=0 note=57 velocity=0 time=0
note_on channel=0 note=59 velocity=0 time=100
note_on channel=0 note=71 velocity=49 time=0
note_on channel=0 note=47 velocity=40 time=0
note_on channel=0 note=70 velocity=0 time=20
note_on channel=0 note=73 velocity=49 time=0
note_on channel=0 note=54 velocity=35 time=0
note_on channel=0 note=47 velocity=0 time=20
note_on channel=0 note=71 velocity=0 time=0
note_on channel=0 note=74 velocity=49 time=100
note_on channel=0 note=57 velocity=35 time=0
note_on channel=0 note=73 velocity=0 time=20
note_on channel=0 note=54 velocity=0 time=0
note_on channel=0 note=75 velocity=50 time=100
note_on channel=0 note=59 velocity=35 time=0
note_on channel=0 note=74 velocity=0 time=20
note_on channel=0 note=57 velocity=0 time=0
note_on channel=0 note=59 velocity=0 time=40
note_on channel=0 note=76 velocity=50 time=0
note_on channel=0 note=47 velocity=40 time=0
note_on channel=0 note=75 velocity=0 time=20
note_on channel=0 note=75 velocity=50 time=100
note_on channel=0 note=52 velocity=35 time=0
note_on channel=0 note=47 velocity=0 time=20
note_on channel=0 note=76 velocity=0 time=0
note_on channel=0 note=76 velocity=51 time=80
note_on channel=0 note=55 velocity=35 time=0
note_on channel=0 note=75 velocity=0 time=20
note_on channel=0 note=52 velocity=0 time=0
note_on channel=0 note=78 velocity=51 time=0
note_on channel=0 note=59 velocity=35 time=0
note_on channel=0 note=76 velocity=0 time=20
note_on channel=0 note=55 velocity=0 time=0
note_on channel=0 note=59 velocity=0 time=100
note_on channel=0 note=79 velocity=49 time=0
note_on channel=0 note=47 velocity=40 time=0
note_on channel=0 note=78 velocity=0 time=20
note_on channel=0 note=80 velocity=50 time=40
note_on channel=0 note=52 velocity=35 time=0
note_on channel=0 note=47 velocity=0 time=20
note_on channel=0 note=79 velocity=0 time=0
note_on channel=0 note=81 velocity=52 time=100
note_on channel=0 note=55 velocity=35 time=0
note_on channel=0 note=80 velocity=0 time=20
note_on channel=0 note=52 velocity=0 time=0
note_on channel=0 note=82 velocity=53 time=80
note_on channel=0 note=59 velocity=35 time=0
note_on channel=0 note=81 velocity=0 time=20
note_on channel=0 note=55 velocity=0 time=0
note_on channel=0 note=59 velocity=0 time=80
note_on channel=0 note=83 velocity=55 time=0
note_on channel=0 note=47 velocity=40 time=0
note_on channel=0 note=82 velocity=0 time=20
note_on channel=0 note=82 velocity=53 time=0
note_on channel=0 note=51 velocity=35 time=0
note_on channel=0 note=47 velocity=0 time=20
note_on channel=0 note=83 velocity=0 time=0
note_on channel=0 note=83 velocity=53 time=0
note_on channel=0 note=54 velocity=35 time=0
note_on channel=0 note=82 velocity=0 time=20
note_on channel=0 note=51 velocity=0 time=0
note_on channel=0 note=82 velocity=50 time=40
note_on channel=0 note=59 velocity=35 time=0
note_on channel=0 note=83 velocity=0 time=20
note_on channel=0 note=54 velocity=0 time=0
note_on channel=0 note=59 velocity=0 time=80
note_on channel=0 note=83 velocity=52 time=0
note_on channel=0 note=47 velocity=40 time=0
note_on channel=0 note=82 velocity=0 time=20
note_on channel=0 note=81 velocity=52 time=0
note_on channel=0 note=51 velocity=35 time=0
note_on channel=0 note=47 velocity=0 time=20
note_on channel=0 note=83 velocity=0 time=0
note_on channel=0 note=79 velocity=51 time=0
note_on channel=0 note=54 velocity=35 time=0
note_on channel=0 note=81 velocity=0 time=20
note_on channel=0 note=51 velocity=0 time=0
note_on channel=0 note=78 velocity=50 time=40
note_on channel=0 note=59 velocity=35 time=0
note_on channel=0 note=79 velocity=0 time=20
note_on channel=0 note=54 velocity=0 time=0
note_on channel=0 note=59 velocity=0 time=0
note_on channel=0 note=79 velocity=52 time=0
note_on channel=0 note=47 velocity=40 time=0
note_on channel=0 note=78 velocity=0 time=20
note_on channel=0 note=78 velocity=51 time=100
note_on channel=0 note=52 velocity=35 time=0
note_on channel=0 note=47 velocity=0 time=20
note_on channel=0 note=79 velocity=0 time=0
note_on channel=0 note=76 velocity=49 time=100
note_on channel=0 note=55 velocity=35 time=0
note_on channel=0 note=78 velocity=0 time=20
note_on channel=0 note=52 velocity=0 time=0
note_on channel=0 note=75 velocity=50 time=100
note_on channel=0 note=59 velocity=35 time=0
note_on channel=0 note=76 velocity=0 time=20
note_on channel=0 note=55 velocity=0 time=0
note_on channel=0 note=59 velocity=0 time=100
note_on channel=0 note=76 velocity=50 time=0
note_on channel=0 note=47 velocity=41 time=0
note_on channel=0 note=75 velocity=0 time=20
note_on channel=0 note=79 velocity=53 time=100
note_on channel=0 note=52 velocity=35 time=0
note_on channel=0 note=47 velocity=0 time=20
note_on channel=0 note=76 velocity=0 time=0
note_on channel=0 note=78 velocity=50 time=100
note_on channel=0 note=55 velocity=35 time=0
note_on channel=0 note=79 velocity=0 time=20
note_on channel=0 note=52 velocity=0 time=0
note_on channel=0 note=76 velocity=50 time=100
note_on channel=0 note=59 velocity=35 time=0
note_on channel=0 note=78 velocity=0 time=20
note_on channel=0 note=55 velocity=0 time=0
note_on channel=0 note=59 velocity=0 time=100
note_on channel=0 note=75 velocity=50 time=0
note_on channel=0 note=47 velocity=40 time=0
note_on channel=0 note=76 velocity=0 time=20
note_on channel=0 note=73 velocity=49 time=100
note_on channel=0 note=54 velocity=35 time=0
note_on channel=0 note=47 velocity=0 time=20
note_on channel=0 note=75 velocity=0 time=0
note_on channel=0 note=71 velocity=48 time=100
note_on channel=0 note=57 velocity=35 time=0
note_on channel=0 note=73 velocity=0 time=20
note_on channel=0 note=54 velocity=0 time=0
note_on channel=0 note=70 velocity=47 time=100
note_on channel=0 note=59 velocity=35 time=0
note_on channel=0 note=71 velocity=0 time=20
note_on channel=0 note=57 velocity=0 time=0
note_on channel=0 note=59 velocity=0 time=100
note_on channel=0 note=71 velocity=49 time=0
note_on channel=0 note=47 velocity=40 time=0
note_on channel=0 note=70 velocity=0 time=20
note_on channel=0 note=73 velocity=50 time=100
note_on channel=0 note=54 velocity=36 time=0
note_on channel=0 note=47 velocity=0 time=20
note_on channel=0 note=71 velocity=0 time=0
note_on channel=0 note=74 velocity=50 time=100
note_on channel=0 note=57 velocity=36 time=0
note_on channel=0 note=73 velocity=0 time=20
note_on channel=0 note=54 velocity=0 time=0
note_on channel=0 note=75 velocity=52 time=100
note_on channel=0 note=59 velocity=36 time=0
note_on channel=0 note=74 velocity=0 time=20
note_on channel=0 note=57 velocity=0 time=0
note_on channel=0 note=59 velocity=0 time=100
note_on channel=0 note=76 velocity=52 time=0
note_on channel=0 note=47 velocity=42 time=0
note_on channel=0 note=75 velocity=0 time=20
note_on channel=0 note=75 velocity=52 time=100
note_on channel=0 note=52 velocity=36 time=0
note_on channel=0 note=47 velocity=0 time=20
note_on channel=0 note=76 velocity=0 time=0
note_on channel=0 note=76 velocity=54 time=100
note_on channel=0 note=55 velocity=37 time=0
note_on channel=0 note=75 velocity=0 time=20
note_on channel=0 note=52 velocity=0 time=0
note_on channel=0 note=78 velocity=54 time=100
note_on channel=0 note=59 velocity=37 time=0
note_on channel=0 note=76 velocity=0 time=20
note_on channel=0 note=55 velocity=0 time=0
note_on channel=0 note=59 velocity=0 time=100
note_on channel=0 note=79 velocity=56 time=0
note_on channel=0 note=47 velocity=42 time=0
note_on channel=0 note=78 velocity=0 time=20
note_on channel=0 note=80 velocity=58 time=100
note_on channel=0 note=52 velocity=37 time=0
note_on channel=0 note=47 velocity=0 time=20
note_on channel=0 note=79 velocity=0 time=0
note_on channel=0 note=81 velocity=60 time=0
note_on channel=0 note=55 velocity=37 time=0
note_on channel=0 note=80 velocity=0 time=20
note_on channel=0 note=52 velocity=0 time=0
note_on channel=0 note=82 velocity=62 time=100
note_on channel=0 note=59 velocity=38 time=0
note_on channel=0 note=81 velocity=0 time=20
note_on channel=0 note=55 velocity=0 time=0
note_on channel=0 note=59 velocity=0 time=0
note_on channel=0 note=83 velocity=68 time=0
note_on channel=0 note=47 velocity=44 time=0
note_on channel=0 note=82 velocity=0 time=20
note_on channel=0 note=47 velocity=0 time=57
note_on channel=0 note=83 velocity=0 time=0
note_on channel=0 note=78 velocity=60 time=0
note_on channel=0 note=51 velocity=38 time=0
note_on channel=0 note=51 velocity=0 time=120
note_on channel=0 note=78 velocity=0 time=0
note_on channel=0 note=75 velocity=61 time=0
note_on channel=0 note=53 velocity=38 time=0
note_on channel=0 note=53 velocity=0 time=120
note_on channel=0 note=75 velocity=0 time=0
note_on channel=0 note=71 velocity=61 time=0
note_on channel=0 note=59 velocity=38 time=0
note_on channel=0 note=59 velocity=0 time=120
note_on channel=0 note=71 velocity=0 time=0
note_on channel=0 note=70 velocity=75 time=0
note_on channel=0 note=58 velocity=50 time=0
note_on channel=0 note=58 velocity=0 time=45
note_on channel=0 note=70 velocity=0 time=0
note_on channel=0 note=71 velocity=63 time=0
note_on channel=0 note=59 velocity=41 time=0
note_on channel=0 note=59 velocity=0 time=120
note_on channel=0 note=71 velocity=0 time=0
note_on channel=0 note=76 velocity=63 time=0
note_on channel=0 note=55 velocity=40 time=0
note_on channel=0 note=55 velocity=0 time=120
note_on channel=0 note=76 velocity=0 time=0
note_on channel=0 note=79 velocity=63 time=0
note_on channel=0 note=52 velocity=41 time=0
note_on channel=0 note=52 velocity=0 time=120
note_on channel=0 note=79 velocity=0 time=0
note_on channel=0 note=83 velocity=74 time=0
note_on channel=0 note=47 velocity=52 time=0
note_on channel=0 note=47 velocity=0 time=40
note_on channel=0 note=83 velocity=0 time=0
note_on channel=0 note=78 velocity=65 time=0
note_on channel=0 note=51 velocity=44 time=0
note_on channel=0 note=51 velocity=0 time=120
note_on channel=0 note=78 velocity=0 time=0
note_on channel=0 note=75 velocity=68 time=0
note_on channel=0 note=54 velocity=45 time=0
note_on channel=0 note=54 velocity=0 time=120
note_on channel=0 note=75 velocity=0 time=0
note_on channel=0 note=71 velocity=68 time=0
note_on channel=0 note=59 velocity=45 time=0
note_on channel=0 note=59 velocity=0 time=120
note_on channel=0 note=71 velocity=0 time=0
note_on channel=0 note=70 velocity=80 time=0
note_on channel=0 note=58 velocity=60 time=0
note_on channel=0 note=58 velocity=0 time=17
note_on channel=0 note=70 velocity=0 time=0
note_on channel=0 note=71 velocity=71 time=0
note_on channel=0 note=59 velocity=51 time=0
note_on channel=0 note=59 velocity=0 time=120
note_on channel=0 note=71 velocity=0 time=0
note_on channel=0 note=76 velocity=71 time=0
note_on channel=0 note=55 velocity=51 time=0
note_on channel=0 note=55 velocity=0 time=120
note_on channel=0 note=76 velocity=0 time=0
note_on channel=0 note=79 velocity=72 time=0
note_on channel=0 note=52 velocity=52 time=0
note_on channel=0 note=52 velocity=0 time=120
note_on channel=0 note=79 velocity=0 time=0
note_on channel=0 note=83 velocity=91 time=0
note_on channel=0 note=47 velocity=63 time=0
note_on channel=0 note=47 velocity=0 time=57
note_on channel=0 note=83 velocity=0 time=0
note_on channel=0 note=78 velocity=82 time=0
note_on channel=0 note=51 velocity=52 time=0
note_on channel=0 note=51 velocity=0 time=120
note_on channel=0 note=78 velocity=0 time=0
note_on channel=0 note=75 velocity=82 time=0
note_on channel=0 note=54 velocity=52 time=0
note_on channel=0 note=54 velocity=0 time=120
note_on channel=0 note=75 velocity=0 time=0
note_on channel=0 note=71 velocity=82 time=0
note_on channel=0 note=59 velocity=52 time=0
note_on channel=0 note=59 velocity=0 time=120
note_on channel=0 note=71 velocity=0 time=0
note_on channel=0 note=83 velocity=91 time=0
note_on channel=0 note=47 velocity=63 time=0
note_on channel=0 note=47 velocity=0 time=34
note_on channel=0 note=83 velocity=0 time=0
note_on channel=0 note=79 velocity=82 time=0
note_on channel=0 note=52 velocity=52 time=0
note_on channel=0 note=52 velocity=0 time=120
note_on channel=0 note=79 velocity=0 time=0
note_on channel=0 note=76 velocity=82 time=0
note_on channel=0 note=55 velocity=52 time=0
note_on channel=0 note=55 velocity=0 time=120
note_on channel=0 note=76 velocity=0 time=0
note_on channel=0 note=71 velocity=82 time=0
note_on channel=0 note=59 velocity=52 time=0
note_on channel=0 note=59 velocity=0 time=0
note_on channel=0 note=71 velocity=0 time=0
note_on channel=0 note=83 velocity=91 time=0
note_on channel=0 note=47 velocity=63 time=0
note_on channel=0 note=47 velocity=0 time=45
note_on channel=0 note=83 velocity=0 time=0
note_on channel=0 note=78 velocity=82 time=0
note_on channel=0 note=51 velocity=52 time=0
note_on channel=0 note=51 velocity=0 time=120
note_on channel=0 note=78 velocity=0 time=0
note_on channel=0 note=75 velocity=81 time=0
note_on channel=0 note=54 velocity=52 time=0
note_on channel=0 note=54 velocity=0 time=120
note_on channel=0 note=75 velocity=0 time=0
note_on channel=0 note=71 velocity=81 time=0
note_on channel=0 note=59 velocity=52 time=0
note_on channel=0 note=59 velocity=0 time=120
note_on channel=0 note=71 velocity=0 time=0
note_on channel=0 note=83 velocity=91 time=0
note_on channel=0 note=47 velocity=63 time=0
note_on channel=0 note=47 velocity=0 time=45
note_on channel=0 note=83 velocity=0 time=0
note_on channel=0 note=79 velocity=81 time=0
note_on channel=0 note=52 velocity=52 time=0
note_on channel=0 note=52 velocity=0 time=120
note_on channel=0 note=79 velocity=0 time=0
note_on channel=0 note=76 velocity=81 time=0
note_on channel=0 note=55 velocity=52 time=0
note_on channel=0 note=55 velocity=0 time=120
note_on channel=0 note=76 velocity=0 time=0
note_on channel=0 note=71 velocity=82 time=0
note_on channel=0 note=59 velocity=52 time=0
note_on channel=0 note=59 velocity=0 time=0
note_on channel=0 note=71 velocity=0 time=0
note_on channel=0 note=83 velocity=91 time=0
note_on channel=0 note=47 velocity=54 time=0
note_on channel=0 note=51 velocity=54 time=0
note_on channel=0 note=54 velocity=54 time=0
note_on channel=0 note=59 velocity=63 time=0
note_on channel=0 note=83 velocity=0 time=51
note_on channel=0 note=78 velocity=82 time=0
note_on channel=0 note=78 velocity=0 time=120
note_on channel=0 note=75 velocity=82 time=0
note_on channel=0 note=75 velocity=0 time=120
note_on channel=0 note=71 velocity=82 time=0
note_on channel=0 note=71 velocity=0 time=120
note_on channel=0 note=59 velocity=0 time=0
note_on channel=0 note=47 velocity=0 time=0
note_on channel=0 note=51 velocity=0 time=0
note_on channel=0 note=54 velocity=0 time=0
note_on channel=0 note=78 velocity=91 time=0
note_on channel=0 note=78 velocity=0 time=120
note_on channel=0 note=75 velocity=82 time=0
note_on channel=0 note=75 velocity=0 time=80
note_on channel=0 note=71 velocity=82 time=0
note_on channel=0 note=71 velocity=0 time=120
note_on channel=0 note=66 velocity=82 time=0
note_on channel=0 note=66 velocity=0 time=120
note_on channel=0 note=75 velocity=91 time=0
note_on channel=0 note=75 velocity=0 time=120
note_on channel=0 note=71 velocity=82 time=0
note_on channel=0 note=71 velocity=0 time=120
note_on channel=0 note=66 velocity=81 time=0
note_on channel=0 note=66 velocity=0 time=40
note_on channel=0 note=63 velocity=81 time=0
note_on channel=0 note=63 velocity=0 time=120
note_on channel=0 note=71 velocity=91 time=0
note_on channel=0 note=71 velocity=0 time=120
note_on channel=0 note=66 velocity=81 time=0
note_on channel=0 note=66 velocity=0 time=120
note_on channel=0 note=63 velocity=81 time=0
note_on channel=0 note=63 velocity=0 time=120
note_on channel=0 note=59 velocity=82 time=0
note_on channel=0 note=59 velocity=0 time=0
note_on channel=0 note=66 velocity=91 time=0
note_on channel=0 note=66 velocity=0 time=120
note_on channel=0 note=63 velocity=81 time=0
note_on channel=0 note=63 velocity=0 time=120
note_on channel=0 note=59 velocity=80 time=0
note_on channel=0 note=59 velocity=0 time=80
note_on channel=0 note=54 velocity=80 time=0
note_on channel=0 note=54 velocity=0 time=120
note_on channel=0 note=63 velocity=89 time=0
note_on channel=0 note=63 velocity=0 time=40
note_on channel=0 note=59 velocity=79 time=0
note_on channel=0 note=59 velocity=0 time=120
note_on channel=0 note=54 velocity=79 time=0
note_on channel=0 note=54 velocity=0 time=0
note_on channel=0 note=51 velocity=78 time=0
note_on channel=0 note=51 velocity=0 time=120
note_on channel=0 note=59 velocity=87 time=0
note_on channel=0 note=59 velocity=0 time=120
note_on channel=0 note=54 velocity=78 time=0
note_on channel=0 note=54 velocity=0 time=80
note_on channel=0 note=51 velocity=77 time=0
note_on channel=0 note=51 velocity=0 time=120
note_on channel=0 note=47 velocity=77 time=0
note_on channel=0 note=47 velocity=0 time=40
note_on channel=0 note=35 velocity=85 time=0
note_on channel=0 note=35 velocity=0 time=120
note_on channel=0 note=39 velocity=76 time=0
note_on channel=0 note=39 velocity=0 time=0
note_on channel=0 note=42 velocity=76 time=0
note_on channel=0 note=42 velocity=0 time=120
note_on channel=0 note=47 velocity=75 time=0
note_on channel=0 note=47 velocity=0 time=0
note_on channel=0 note=35 velocity=77 time=0
note_on channel=0 note=35 velocity=0 time=120
note_on channel=0 note=47 velocity=68 time=0
note_on channel=0 note=47 velocity=0 time=120
note_on channel=0 note=37 velocity=73 time=0
note_on channel=0 note=37 velocity=0 time=120
note_on channel=0 note=49 velocity=66 time=0
note_on channel=0 note=49 velocity=0 time=120
note_on channel=0 note=71 velocity=75 time=0
note_on channel=0 note=39 velocity=71 time=0
note_on channel=0 note=39 velocity=0 time=120
note_on channel=0 note=71 velocity=0 time=0
note_on channel=0 note=59 velocity=69 time=0
note_on channel=0 note=51 velocity=65 time=0
note_on channel=0 note=51 velocity=0 time=120
note_on channel=0 note=59 velocity=0 time=0
note_on channel=0 note=73 velocity=74 time=120
note_on channel=0 note=73 velocity=0 time=120
note_on channel=0 note=61 velocity=65 time=0
note_on channel=0 note=61 velocity=0 time=120
note_on channel=0 note=75 velocity=71 time=0
note_on channel=0 note=39 velocity=69 time=0
note_on channel=0 note=39 velocity=0 time=120
note_on channel=0 note=75 velocity=0 time=0
note_on channel=0 note=63 velocity=64 time=40
note_on channel=0 note=51 velocity=61 time=0
note_on channel=0 note=51 velocity=0 time=0
note_on channel=0 note=63 velocity=0 time=0
note_on channel=0 note=40 velocity=65 time=0
note_on channel=0 note=40 velocity=0 time=120
note_on channel=0 note=52 velocity=59 time=40
note_on channel=0 note=52 velocity=0 time=120
note_on channel=0 note=75 velocity=67 time=0
note_on channel=0 note=42 velocity=65 time=0
note_on channel=0 note=42 velocity=0 time=120
note_on channel=0 note=75 velocity=0 time=0
note_on channel=0 note=63 velocity=53 time=0
note_on channel=0 note=54 velocity=54 time=0
note_on channel=0 note=54 velocity=0 time=0
note_on channel=0 note=63 velocity=0 time=0
note_on channel=0 note=76 velocity=59 time=120
note_on channel=0 note=76 velocity=0 time=120
note_on channel=0 note=64 velocity=50 time=80
note_on channel=0 note=64 velocity=0 time=120
note_on channel=0 note=78 velocity=52 time=0
note_on channel=0 note=78 velocity=0 time=120
note_on channel=0 note=66 velocity=49 time=120
note_on channel=0 note=66 velocity=0 time=40
note_on channel=0 note=80 velocity=52 time=120
note_on channel=0 note=80 velocity=0 time=120
note_on channel=0 note=68 velocity=49 time=80
note_on channel=0 note=68 velocity=0 time=120
note_on channel=0 note=81 velocity=52 time=40
note_on channel=0 note=42 velocity=41 time=0
note_on channel=0 note=42 velocity=0 time=120
note_on channel=0 note=81 velocity=0 time=0
note_on channel=0 note=69 velocity=48 time=120
note_on channel=0 note=54 velocity=36 time=0
note_on channel=0 note=54 velocity=0 time=120
note_on channel=0 note=69 velocity=0 time=0
note_on channel=0 note=81 velocity=52 time=0
note_on channel=0 note=44 velocity=41 time=0
note_on channel=0 note=44 velocity=0 time=120
note_on channel=0 note=81 velocity=0 time=0
note_on channel=0 note=71 velocity=46 time=40
note_on channel=0 note=56 velocity=36 time=0
note_on channel=0 note=56 velocity=0 time=0
note_on channel=0 note=71 velocity=0 time=0
note_on channel=0 note=81 velocity=51 time=120
note_on channel=0 note=45 velocity=40 time=0
note_on channel=0 note=45 velocity=0 time=40
note_on channel=0 note=81 velocity=0 time=0
note_on channel=0 note=73 velocity=46 time=0
note_on channel=0 note=57 velocity=37 time=0
note_on channel=0 note=57 velocity=0 time=120
note_on channel=0 note=73 velocity=0 time=0
note_on channel=0 note=81 velocity=51 time=40
note_on channel=0 note=47 velocity=39 time=0
note_on channel=0 note=47 velocity=0 time=0
note_on channel=0 note=81 velocity=0 time=0
note_on channel=0 note=75 velocity=46 time=120
note_on channel=0 note=59 velocity=36 time=0
note_on channel=0 note=59 velocity=0 time=40
note_on channel=0 note=75 velocity=0 time=0
note_on channel=0 note=81 velocity=51 time=0
note_on channel=0 note=49 velocity=38 time=0
note_on channel=0 note=49 velocity=0 time=20
note_on channel=0 note=81 velocity=0 time=0
note_on channel=0 note=76 velocity=47 time=0
note_on channel=0 note=61 velocity=37 time=0
note_on channel=0 note=61 velocity=0 time=0
note_on channel=0 note=76 velocity=0 time=0
note_on channel=0 note=81 velocity=50 time=0
note_on channel=0 note=51 velocity=40 time=0
note_on channel=0 note=51 velocity=0 time=0
note_on channel=0 note=81 velocity=0 time=0
note_on channel=0 note=78 velocity=46 time=0
note_on channel=0 note=63 velocity=37 time=0
note_on channel=0 note=63 velocity=0 time=0
note_on channel=0 note=78 velocity=0 time=0
note_on channel=0 note=71 velocity=42 time=0
note_on channel=0 note=76 velocity=42 time=0
note_on channel=0 note=80 velocity=55 time=0
note_on channel=0 note=68 velocity=39 time=0
note_on channel=0 note=64 velocity=33 time=0
note_on channel=0 note=64 velocity=0 time=0
note_on channel=0 note=80 velocity=0 time=0
note_on channel=0 note=71 velocity=0 time=0
note_on channel=0 note=76 velocity=0 time=0
note_on channel=0 note=68 velocity=0 time=0
note_on channel=0 note=69 velocity=40 time=0
note_on channel=0 note=75 velocity=40 time=0
note_on channel=0 note=78 velocity=52 time=0
note_on channel=0 note=66 velocity=35 time=0
note_on channel=0 note=63 velocity=29 time=0
note_on channel=0 note=59 velocity=29 time=0
note_on channel=0 note=59 velocity=0 time=0
note_on channel=0 note=75 velocity=0 time=0
note_on channel=0 note=78 velocity=0 time=0
note_on channel=0 note=69 velocity=0 time=0
note_on channel=0 note=63 velocity=0 time=0
note_on channel=0 note=66 velocity=0 time=0
note_on channel=0 note=68 velocity=40 time=0
note_on channel=0 note=73 velocity=40 time=0
note_on channel=0 note=76 velocity=52 time=0
note_on channel=0 note=64 velocity=35 time=0
note_on channel=0 note=61 velocity=29 time=0
note_on channel=0 note=61 velocity=0 time=0
note_on channel=0 note=76 velocity=0 time=0
note_on channel=0 note=68 velocity=0 time=0
note_on channel=0 note=73 velocity=0 time=0
note_on channel=0 note=64 velocity=0 time=0
note_on channel=0 note=66 velocity=42 time=0
note_on channel=0 note=72 velocity=42 time=0
note_on channel=0 note=75 velocity=55 time=0
note_on channel=0 note=63 velocity=39 time=0
note_on channel=0 note=60 velocity=33 time=0
note_on channel=0 note=56 velocity=33 time=0
note_on channel=0 note=56 velocity=0 time=960
note_on channel=0 note=72 velocity=0 time=0
note_on channel=0 note=75 velocity=0 time=0
note_on channel=0 note=66 velocity=0 time=0
note_on channel=0 note=60 velocity=0 time=0
note_on channel=0 note=63 velocity=0 time=0
note_on channel=0 note=64 velocity=40 time=0
note_on channel=0 note=73 velocity=52 time=0
note_on channel=0 note=61 velocity=34 time=0
note_on channel=0 note=57 velocity=28 time=0
note_on channel=0 note=57 velocity=0 time=0
note_on channel=0 note=64 velocity=0 time=0
note_on channel=0 note=73 velocity=0 time=0
note_on channel=0 note=61 velocity=0 time=0
note_on channel=0 note=69 velocity=49 time=0
note_on channel=0 note=71 velocity=49 time=0
note_on channel=0 note=75 velocity=63 time=0
note_on channel=0 note=54 velocity=37 time=0
note_on channel=0 note=57 velocity=45 time=0
note_on channel=0 note=59 velocity=37 time=0
note_on channel=0 note=63 velocity=45 time=0
note_on channel=0 note=63 velocity=0 time=0
note_on channel=0 note=57 velocity=0 time=0
note_on channel=0 note=71 velocity=0 time=0
note_on channel=0 note=75 velocity=0 time=0
note_on channel=0 note=69 velocity=0 time=0
note_on channel=0 note=59 velocity=0 time=0
note_on channel=0 note=54 velocity=0 time=0
note_on channel=0 note=71 velocity=50 time=0
note_on channel=0 note=76 velocity=66 time=0
note_on channel=0 note=56 velocity=40 time=0
note_on channel=0 note=59 velocity=40 time=0
note_on channel=0 note=64 velocity=49 time=0
note_on channel=0 note=64 velocity=0 time=0
note_on channel=0 note=56 velocity=0 time=0
note_on channel=0 note=71 velocity=0 time=0
note_on channel=0 note=76 velocity=0 time=0
note_on channel=0 note=59 velocity=0 time=0
note_on channel=0 note=73 velocity=49 time=0
note_on channel=0 note=76 velocity=55 time=0
note_on channel=0 note=78 velocity=72 time=0
note_on channel=0 note=66 velocity=55 time=0
note_on channel=0 note=57 velocity=42 time=0
note_on channel=0 note=61 velocity=43 time=0
note_on channel=0 note=61 velocity=0 time=0
note_on channel=0 note=76 velocity=0 time=0
note_on channel=0 note=78 velocity=0 time=0
note_on channel=0 note=73 velocity=0 time=0
note_on channel=0 note=57 velocity=0 time=0
note_on channel=0 note=66 velocity=0 time=0
note_on channel=0 note=71 velocity=59 time=0
note_on channel=0 note=76 velocity=59 time=0
note_on channel=0 note=80 velocity=77 time=0
note_on channel=0 note=59 velocity=49 time=0
note_on channel=0 note=64 velocity=49 time=0
note_on channel=0 note=68 velocity=59 time=0
note_on channel=0 note=68 velocity=0 time=0
note_on channel=0 note=76 velocity=0 time=0
note_on channel=0 note=80 velocity=0 time=0
note_on channel=0 note=64 velocity=0 time=0
note_on channel=0 note=75 velocity=32 time=0
note_on channel=0 note=78 velocity=49 time=0
note_on channel=0 note=63 velocity=27 time=0
note_on channel=0 note=66 velocity=32 time=0
note_on channel=0 note=71 velocity=0 time=0
note_on channel=0 note=69 velocity=48 time=0
note_on channel=0 note=59 velocity=0 time=478
note_on channel=0 note=66 velocity=0 time=0
note_on channel=0 note=63 velocity=0 time=0
note_on channel=0 note=78 velocity=0 time=0
note_on channel=0 note=69 velocity=0 time=0
note_on channel=0 note=75 velocity=0 time=0
note_on channel=0 note=59 velocity=37 time=0
note_on channel=0 note=64 velocity=37 time=0
note_on channel=0 note=68 velocity=45 time=0
note_on channel=0 note=56 velocity=35 time=0
note_on channel=0 note=52 velocity=29 time=0
note_on channel=0 note=52 velocity=0 time=0
note_on channel=0 note=68 velocity=0 time=0
note_on channel=0 note=59 velocity=0 time=0
note_on channel=0 note=64 velocity=0 time=0
note_on channel=0 note=56 velocity=0 time=0
note_on channel=0 note=57 velocity=36 time=0
note_on channel=0 note=63 velocity=36 time=0
note_on channel=0 note=66 velocity=43 time=0
note_on channel=0 note=54 velocity=31 time=0
note_on channel=0 note=51 velocity=26 time=0
note_on channel=0 note=47 velocity=26 time=0
note_on channel=0 note=47 velocity=0 time=0
note_on channel=0 note=63 velocity=0 time=0
note_on channel=0 note=66 velocity=0 time=0
note_on channel=0 note=57 velocity=0 time=0
note_on channel=0 note=51 velocity=0 time=0
note_on channel=0 note=54 velocity=0 time=0
note_on channel=0 note=56 velocity=36 time=0
note_on channel=0 note=61 velocity=36 time=0
note_on channel=0 note=64 velocity=43 time=0
note_on channel=0 note=52 velocity=31 time=0
note_on channel=0 note=49 velocity=26 time=0
note_on channel=0 note=49 velocity=0 time=0
note_on channel=0 note=64 velocity=0 time=0
note_on channel=0 note=56 velocity=0 time=0
note_on channel=0 note=61 velocity=0 time=0
note_on channel=0 note=52 velocity=0 time=0
note_on channel=0 note=54 velocity=37 time=0
note_on channel=0 note=60 velocity=37 time=0
note_on channel=0 note=63 velocity=45 time=0
note_on channel=0 note=51 velocity=35 time=0
note_on channel=0 note=48 velocity=29 time=0
note_on channel=0 note=44 velocity=29 time=0
note_on channel=0 note=44 velocity=0 time=960
note_on channel=0 note=60 velocity=0 time=0
note_on channel=0 note=63 velocity=0 time=0
note_on channel=0 note=54 velocity=0 time=0
note_on channel=0 note=48 velocity=0 time=0
note_on channel=0 note=51 velocity=0 time=0
note_on channel=0 note=57 velocity=36 time=0
note_on channel=0 note=52 velocity=36 time=0
note_on channel=0 note=61 velocity=43 time=0
note_on channel=0 note=49 velocity=30 time=0
note_on channel=0 note=45 velocity=25 time=0
note_on channel=0 note=45 velocity=0 time=0
note_on channel=0 note=61 velocity=0 time=0
note_on channel=0 note=57 velocity=0 time=0
note_on channel=0 note=52 velocity=0 time=0
note_on channel=0 note=49 velocity=0 time=0
note_on channel=0 note=52 velocity=44 time=0
note_on channel=0 note=56 velocity=44 time=0
note_on channel=0 note=59 velocity=52 time=0
note_on channel=0 note=35 velocity=33 time=0
note_on channel=0 note=47 velocity=40 time=0
note_on channel=0 note=56 velocity=0 time=480
note_on channel=0 note=52 velocity=0 time=0
note_on channel=0 note=54 velocity=49 time=0
note_on channel=0 note=57 velocity=49 time=0
note_on channel=0 note=59 velocity=0 time=0
note_on channel=0 note=61 velocity=61 time=0
note_on channel=0 note=61 velocity=0 time=0
note_on channel=0 note=63 velocity=68 time=0
note_on channel=0 note=63 velocity=0 time=0
note_on channel=0 note=54 velocity=0 time=0
note_on channel=0 note=47 velocity=0 time=0
note_on channel=0 note=35 velocity=0 time=0
note_on channel=0 note=57 velocity=0 time=0
note_on channel=0 note=56 velocity=42 time=0
note_on channel=0 note=64 velocity=49 time=0
note_on channel=0 note=40 velocity=42 time=0
note_on channel=0 note=52 velocity=45 time=0
note_on channel=0 note=64 velocity=0 time=120
note_on channel=0 note=56 velocity=0 time=40
note_on channel=0 note=66 velocity=48 time=0
note_on channel=0 note=66 velocity=0 time=120
note_on channel=0 note=68 velocity=49 time=40
note_on channel=0 note=68 velocity=0 time=120
note_on channel=0 note=40 velocity=0 time=0
note_on channel=0 note=52 velocity=0 time=0
note_on channel=0 note=69 velocity=46 time=0
note_on channel=0 note=69 velocity=0 time=120
note_on channel=0 note=71 velocity=47 time=40
note_on channel=0 note=71 velocity=0 time=120
note_on channel=0 note=73 velocity=48 time=40
note_on channel=0 note=73 velocity=0 time=120
note_on channel=0 note=74 velocity=50 time=0
note_on channel=0 note=74 velocity=0 time=120
note_on channel=0 note=75 velocity=51 time=40
note_on channel=0 note=75 velocity=0 time=120
note_on channel=0 note=76 velocity=52 time=40
note_on channel=0 note=76 velocity=0 time=120
note_on channel=0 note=77 velocity=53 time=40
note_on channel=0 note=77 velocity=0 time=120
note_on channel=0 note=78 velocity=51 time=40
note_on channel=0 note=78 velocity=0 time=120
note_on channel=0 note=79 velocity=52 time=40
note_on channel=0 note=79 velocity=0 time=120
note_on channel=0 note=71 velocity=46 time=0
note_on channel=0 note=80 velocity=56 time=0
note_on channel=0 note=68 velocity=43 time=0
note_on channel=0 note=64 velocity=36 time=0
note_on channel=0 note=80 velocity=0 time=160
note_on channel=0 note=79 velocity=53 time=0
note_on channel=0 note=79 velocity=0 time=160
note_on channel=0 note=80 velocity=53 time=0
note_on channel=0 note=80 velocity=0 time=160
note_on channel=0 note=81 velocity=53 time=0
note_on channel=0 note=81 velocity=0 time=160
note_on channel=0 note=79 velocity=53 time=0
note_on channel=0 note=79 velocity=0 time=160
note_on channel=0 note=80 velocity=53 time=0
note_on channel=0 note=80 velocity=0 time=0
note_on channel=0 note=64 velocity=0 time=0
note_on channel=0 note=68 velocity=0 time=0
note_on channel=0 note=71 velocity=0 time=0
note_on channel=0 note=69 velocity=60 time=0
note_on channel=0 note=66 velocity=39 time=0
note_on channel=0 note=63 velocity=32 time=0
note_on channel=0 note=59 velocity=32 time=0
note_on channel=0 note=80 velocity=54 time=160
note_on channel=0 note=80 velocity=0 time=160
note_on channel=0 note=78 velocity=54 time=0
note_on channel=0 note=78 velocity=0 time=0
note_on channel=0 note=59 velocity=0 time=0
note_on channel=0 note=69 velocity=0 time=0
note_on channel=0 note=66 velocity=0 time=0
note_on channel=0 note=63 velocity=0 time=0
note_on channel=0 note=68 velocity=60 time=0
note_on channel=0 note=64 velocity=39 time=0
note_on channel=0 note=61 velocity=32 time=0
note_on channel=0 note=78 velocity=53 time=160
note_on channel=0 note=78 velocity=0 time=160
note_on channel=0 note=76 velocity=53 time=0
note_on channel=0 note=76 velocity=0 time=0
note_on channel=0 note=61 velocity=0 time=0
note_on channel=0 note=64 velocity=0 time=0
note_on channel=0 note=68 velocity=0 time=0
note_on channel=0 note=66 velocity=60 time=0
note_on channel=0 note=63 velocity=43 time=0
note_on channel=0 note=60 velocity=36 time=0
note_on channel=0 note=56 velocity=36 time=0
note_on channel=0 note=72 velocity=54 time=160
note_on channel=0 note=72 velocity=0 time=160
note_on channel=0 note=75 velocity=54 time=0
note_on channel=0 note=75 velocity=0 time=160
note_on channel=0 note=76 velocity=54 time=0
note_on channel=0 note=76 velocity=0 time=160
note_on channel=0 note=72 velocity=54 time=0
note_on channel=0 note=72 velocity=0 time=160
note_on channel=0 note=75 velocity=54 time=0
note_on channel=0 note=75 velocity=0 time=160
note_on channel=0 note=60 velocity=0 time=0
note_on channel=0 note=66 velocity=0 time=0
note_on channel=0 note=63 velocity=0 time=0
note_on channel=0 note=56 velocity=0 time=0
note_on channel=0 note=64 velocity=60 time=0
note_on channel=0 note=61 velocity=38 time=0
note_on channel=0 note=57 velocity=31 time=0
note_on channel=0 note=69 velocity=54 time=160
note_on channel=0 note=69 velocity=0 time=160
note_on channel=0 note=73 velocity=54 time=0
note_on channel=0 note=73 velocity=0 time=0
note_on channel=0 note=75 velocity=54 time=0
note_on channel=0 note=75 velocity=0 time=160
note_on channel=0 note=69 velocity=54 time=0
note_on channel=0 note=69 velocity=0 time=160
note_on channel=0 note=73 velocity=54 time=0
note_on channel=0 note=73 velocity=0 time=0
note_on channel=0 note=64 velocity=0 time=0
note_on channel=0 note=61 velocity=0 time=0
note_on channel=0 note=57 velocity=0 time=0
note_on channel=0 note=69 velocity=62 time=0
note_on channel=0 note=54 velocity=39 time=0
note_on channel=0 note=57 velocity=47 time=0
note_on channel=0 note=59 velocity=39 time=0
note_on channel=0 note=63 velocity=47 time=0
note_on channel=0 note=74 velocity=62 time=160
note_on channel=0 note=74 velocity=0 time=160
note_on channel=0 note=75 velocity=57 time=0
note_on channel=0 note=75 velocity=0 time=160
note_on channel=0 note=76 velocity=57 time=0
note_on channel=0 note=76 velocity=0 time=160
note_on channel=0 note=74 velocity=59 time=0
note_on channel=0 note=74 velocity=0 time=160
note_on channel=0 note=75 velocity=59 time=0
note_on channel=0 note=75 velocity=0 time=0
note_on channel=0 note=54 velocity=0 time=0
note_on channel=0 note=57 velocity=0 time=0
note_on channel=0 note=69 velocity=0 time=0
note_on channel=0 note=63 velocity=0 time=0
note_on channel=0 note=59 velocity=0 time=0
note_on channel=0 note=71 velocity=71 time=0
note_on channel=0 note=56 velocity=45 time=0
note_on channel=0 note=59 velocity=45 time=0
note_on channel=0 note=64 velocity=53 time=0
note_on channel=0 note=78 velocity=63 time=160
note_on channel=0 note=78 velocity=0 time=160
note_on channel=0 note=76 velocity=64 time=0
note_on channel=0 note=76 velocity=0 time=0
note_on channel=0 note=64 velocity=0 time=0
note_on channel=0 note=71 velocity=0 time=0
note_on channel=0 note=56 velocity=0 time=0
note_on channel=0 note=59 velocity=0 time=0
note_on channel=0 note=73 velocity=74 time=0
note_on channel=0 note=66 velocity=59 time=0
note_on channel=0 note=57 velocity=49 time=0
note_on channel=0 note=61 velocity=49 time=0
note_on channel=0 note=80 velocity=65 time=160
note_on channel=0 note=80 velocity=0 time=160
note_on channel=0 note=78 velocity=65 time=0
note_on channel=0 note=78 velocity=0 time=0
note_on channel=0 note=61 velocity=0 time=0
note_on channel=0 note=73 velocity=0 time=0
note_on channel=0 note=66 velocity=0 time=0
note_on channel=0 note=57 velocity=0 time=0
note_on channel=0 note=80 velocity=79 time=0
note_on channel=0 note=76 velocity=79 time=0
note_on channel=0 note=59 velocity=53 time=0
note_on channel=0 note=64 velocity=53 time=0
note_on channel=0 note=68 velocity=65 time=0
note_on channel=0 note=80 velocity=0 time=160
note_on channel=0 note=79 velocity=72 time=0
note_on channel=0 note=79 velocity=0 time=160
note_on channel=0 note=80 velocity=72 time=0
note_on channel=0 note=80 velocity=0 time=160
note_on channel=0 note=83 velocity=68 time=0
note_on channel=0 note=83 velocity=0 time=160
note_on channel=0 note=81 velocity=72 time=0
note_on channel=0 note=81 velocity=0 time=160
note_on channel=0 note=80 velocity=69 time=0
note_on channel=0 note=80 velocity=0 time=0
note_on channel=0 note=68 velocity=0 time=0
note_on channel=0 note=76 velocity=0 time=0
note_on channel=0 note=64 velocity=0 time=0
note_on channel=0 note=75 velocity=67 time=0
note_on channel=0 note=78 velocity=67 time=0
note_on channel=0 note=63 velocity=45 time=0
note_on channel=0 note=66 velocity=53 time=0
note_on channel=0 note=78 velocity=0 time=160
note_on channel=0 note=75 velocity=0 time=0
note_on channel=0 note=73 velocity=64 time=0
note_on channel=0 note=76 velocity=64 time=0
note_on channel=0 note=76 velocity=0 time=160
note_on channel=0 note=73 velocity=0 time=0
note_on channel=0 note=75 velocity=60 time=0
note_on channel=0 note=71 velocity=60 time=0
note_on channel=0 note=71 velocity=0 time=0
note_on channel=0 note=66 velocity=0 time=0
note_on channel=0 note=75 velocity=0 time=0
note_on channel=0 note=63 velocity=0 time=0
note_on channel=0 note=69 velocity=60 time=0
note_on channel=0 note=73 velocity=60 time=0
note_on channel=0 note=47 velocity=44 time=0
note_on channel=0 note=47 velocity=0 time=160
note_on channel=0 note=73 velocity=0 time=0
note_on channel=0 note=69 velocity=0 time=0
note_on channel=0 note=68 velocity=56 time=0
note_on channel=0 note=71 velocity=56 time=0
note_on channel=0 note=49 velocity=43 time=0
note_on channel=0 note=49 velocity=0 time=160
note_on channel=0 note=71 velocity=0 time=0
note_on channel=0 note=68 velocity=0 time=0
note_on channel=0 note=66 velocity=53 time=0
note_on channel=0 note=69 velocity=53 time=0
note_on channel=0 note=51 velocity=41 time=0
note_on channel=0 note=59 velocity=0 time=158
note_on channel=0 note=66 velocity=0 time=0
note_on channel=0 note=69 velocity=0 time=0
note_on channel=0 note=51 velocity=0 time=0
note_on channel=0 note=59 velocity=57 time=0
note_on channel=0 note=68 velocity=57 time=0
note_on channel=0 note=56 velocity=45 time=0
note_on channel=0 note=52 velocity=37 time=0
note_on channel=0 note=68 velocity=0 time=160
note_on channel=0 note=67 velocity=49 time=0
note_on channel=0 note=67 velocity=0 time=160
note_on channel=0 note=68 velocity=49 time=0
note_on channel=0 note=68 velocity=0 time=160
note_on channel=0 note=69 velocity=49 time=0
note_on channel=0 note=69 velocity=0 time=160
note_on channel=0 note=67 velocity=49 time=0
note_on channel=0 note=67 velocity=0 time=160
note_on channel=0 note=68 velocity=49 time=0
note_on channel=0 note=68 velocity=0 time=0
note_on channel=0 note=52 velocity=0 time=0
note_on channel=0 note=56 velocity=0 time=0
note_on channel=0 note=59 velocity=0 time=0
note_on channel=0 note=57 velocity=56 time=0
note_on channel=0 note=54 velocity=41 time=0
note_on channel=0 note=51 velocity=33 time=0
note_on channel=0 note=47 velocity=33 time=0
note_on channel=0 note=68 velocity=50 time=160
note_on channel=0 note=68 velocity=0 time=160
note_on channel=0 note=66 velocity=50 time=0
note_on channel=0 note=66 velocity=0 time=0
note_on channel=0 note=47 velocity=0 time=0
note_on channel=0 note=57 velocity=0 time=0
note_on channel=0 note=54 velocity=0 time=0
note_on channel=0 note=51 velocity=0 time=0
note_on channel=0 note=56 velocity=56 time=0
note_on channel=0 note=52 velocity=41 time=0
note_on channel=0 note=49 velocity=33 time=0
note_on channel=0 note=66 velocity=49 time=160
note_on channel=0 note=66 velocity=0 time=160
note_on channel=0 note=64 velocity=49 time=0
note_on channel=0 note=64 velocity=0 time=0
note_on channel=0 note=49 velocity=0 time=0
note_on channel=0 note=52 velocity=0 time=0
note_on channel=0 note=56 velocity=0 time=0
note_on channel=0 note=51 velocity=37 time=0
note_on channel=0 note=54 velocity=49 time=0
note_on channel=0 note=48 velocity=37 time=0
note_on channel=0 note=44 velocity=37 time=0
note_on channel=0 note=60 velocity=50 time=160
note_on channel=0 note=60 velocity=0 time=160
note_on channel=0 note=63 velocity=50 time=0
note_on channel=0 note=63 velocity=0 time=160
note_on channel=0 note=64 velocity=53 time=0
note_on channel=0 note=64 velocity=0 time=160
note_on channel=0 note=60 velocity=50 time=0
note_on channel=0 note=60 velocity=0 time=160
note_on channel=0 note=63 velocity=50 time=0
note_on channel=0 note=63 velocity=0 time=160
note_on channel=0 note=48 velocity=0 time=0
note_on channel=0 note=51 velocity=0 time=0
note_on channel=0 note=54 velocity=0 time=0
note_on channel=0 note=44 velocity=0 time=0
note_on channel=0 note=45 velocity=39 time=0
note_on channel=0 note=49 velocity=39 time=0
note_on channel=0 note=52 velocity=32 time=0
note_on channel=0 note=57 velocity=50 time=160
note_on channel=0 note=57 velocity=0 time=160
note_on channel=0 note=61 velocity=50 time=0
note_on channel=0 note=61 velocity=0 time=0
note_on channel=0 note=63 velocity=53 time=0
note_on channel=0 note=63 velocity=0 time=160
note_on channel=0 note=57 velocity=50 time=0
note_on channel=0 note=57 velocity=0 time=160
note_on channel=0 note=61 velocity=50 time=0
note_on channel=0 note=61 velocity=0 time=0
note_on channel=0 note=45 velocity=0 time=0
note_on channel=0 note=49 velocity=0 time=0
note_on channel=0 note=52 velocity=0 time=0
note_on channel=0 note=52 velocity=60 time=0
note_on channel=0 note=35 velocity=46 time=0
note_on channel=0 note=47 velocity=55 time=0
note_on channel=0 note=56 velocity=56 time=108
note_on channel=0 note=56 velocity=0 time=0
note_on channel=0 note=59 velocity=57 time=0
note_on channel=0 note=59 velocity=0 time=0
note_on channel=0 note=52 velocity=0 time=0
note_on channel=0 note=54 velocity=66 time=0
note_on channel=0 note=57 velocity=61 time=91
note_on channel=0 note=57 velocity=0 time=0
note_on channel=0 note=59 velocity=61 time=0
note_on channel=0 note=59 velocity=0 time=0
note_on channel=0 note=54 velocity=0 time=0
note_on channel=0 note=54 velocity=74 time=0
note_on channel=0 note=57 velocity=67 time=80
note_on channel=0 note=57 velocity=0 time=0
note_on channel=0 note=61 velocity=65 time=0
note_on channel=0 note=61 velocity=0 time=0
note_on channel=0 note=54 velocity=0 time=0
note_on channel=0 note=54 velocity=80 time=0
note_on channel=0 note=57 velocity=71 time=80
note_on channel=0 note=57 velocity=0 time=0
note_on channel=0 note=63 velocity=70 time=0
note_on channel=0 note=63 velocity=0 time=0
note_on channel=0 note=54 velocity=0 time=0
note_on channel=0 note=47 velocity=0 time=0
note_on channel=0 note=35 velocity=0 time=0
note_on channel=0 note=56 velocity=77 time=0
note_on channel=0 note=64 velocity=82 time=0
note_on channel=0 note=40 velocity=50 time=0
note_on channel=0 note=52 velocity=60 time=0
note_on channel=0 note=64 velocity=0 time=63
note_on channel=0 note=56 velocity=0 time=0
note_on channel=0 note=59 velocity=75 time=0
note_on channel=0 note=59 velocity=0 time=160
note_on channel=0 note=56 velocity=77 time=0
note_on channel=0 note=56 velocity=0 time=160
note_on channel=0 note=40 velocity=0 time=0
note_on channel=0 note=52 velocity=0 time=0
note_on channel=0 note=59 velocity=82 time=0
note_on channel=0 note=47 velocity=74 time=0
note_on channel=0 note=59 velocity=0 time=160
note_on channel=0 note=64 velocity=77 time=0
note_on channel=0 note=64 velocity=0 time=0
note_on channel=0 note=68 velocity=77 time=0
note_on channel=0 note=68 velocity=0 time=0
note_on channel=0 note=66 velocity=82 time=0
note_on channel=0 note=66 velocity=0 time=40
note_on channel=0 note=63 velocity=77 time=0
note_on channel=0 note=63 velocity=0 time=160
note_on channel=0 note=59 velocity=77 time=0
note_on channel=0 note=59 velocity=0 time=160
note_on channel=0 note=47 velocity=0 time=0
note_on channel=0 note=63 velocity=82 time=0
note_on channel=0 note=47 velocity=74 time=0
note_on channel=0 note=63 velocity=0 time=160
note_on channel=0 note=66 velocity=77 time=0
note_on channel=0 note=66 velocity=0 time=0
note_on channel=0 note=69 velocity=77 time=0
note_on channel=0 note=69 velocity=0 time=0
note_on channel=0 note=68 velocity=82 time=0
note_on channel=0 note=68 velocity=0 time=80
note_on channel=0 note=64 velocity=75 time=0
note_on channel=0 note=64 velocity=0 time=160
note_on channel=0 note=59 velocity=77 time=0
note_on channel=0 note=59 velocity=0 time=160
note_on channel=0 note=47 velocity=0 time=0
note_on channel=0 note=64 velocity=82 time=0
note_on channel=0 note=47 velocity=74 time=0
note_on channel=0 note=64 velocity=0 time=160
note_on channel=0 note=68 velocity=77 time=0
note_on channel=0 note=68 velocity=0 time=0
note_on channel=0 note=71 velocity=77 time=0
note_on channel=0 note=71 velocity=0 time=0
note_on channel=0 note=69 velocity=82 time=0
note_on channel=0 note=69 velocity=0 time=74
note_on channel=0 note=66 velocity=77 time=0
note_on channel=0 note=66 velocity=0 time=0
note_on channel=0 note=63 velocity=77 time=0
note_on channel=0 note=63 velocity=0 time=0
note_on channel=0 note=47 velocity=0 time=0
note_on channel=0 note=75 velocity=82 time=0
note_on channel=0 note=47 velocity=73 time=0
note_on channel=0 note=75 velocity=0 time=160
note_on channel=0 note=69 velocity=77 time=0
note_on channel=0 note=69 velocity=0 time=160
note_on channel=0 note=66 velocity=77 time=0
note_on channel=0 note=66 velocity=0 time=0
note_on channel=0 note=47 velocity=0 time=0
note_on channel=0 note=68 velocity=63 time=0
note_on channel=0 note=76 velocity=75 time=0
note_on channel=0 note=52 velocity=73 time=0
note_on channel=0 note=52 velocity=0 time=97
note_on channel=0 note=47 velocity=67 time=0
note_on channel=0 note=47 velocity=0 time=160
note_on channel=0 note=44 velocity=69 time=0
note_on channel=0 note=44 velocity=0 time=160
note_on channel=0 note=76 velocity=0 time=0
note_on channel=0 note=68 velocity=0 time=0
note_on channel=0 note=71 velocity=80 time=0
note_on channel=0 note=47 velocity=73 time=0
note_on channel=0 note=47 velocity=0 time=160
note_on channel=0 note=52 velocity=69 time=0
note_on channel=0 note=52 velocity=0 time=0
note_on channel=0 note=56 velocity=69 time=0
note_on channel=0 note=56 velocity=0 time=0
note_on channel=0 note=54 velocity=73 time=0
note_on channel=0 note=54 velocity=0 time=63
note_on channel=0 note=51 velocity=69 time=0
note_on channel=0 note=51 velocity=0 time=160
note_on channel=0 note=47 velocity=69 time=0
note_on channel=0 note=47 velocity=0 time=160
note_on channel=0 note=71 velocity=0 time=0
note_on channel=0 note=71 velocity=80 time=0
note_on channel=0 note=51 velocity=73 time=0
note_on channel=0 note=51 velocity=0 time=160
note_on channel=0 note=54 velocity=69 time=0
note_on channel=0 note=54 velocity=0 time=0
note_on channel=0 note=57 velocity=69 time=0
note_on channel=0 note=57 velocity=0 time=0
note_on channel=0 note=56 velocity=73 time=0
note_on channel=0 note=56 velocity=0 time=85
note_on channel=0 note=52 velocity=67 time=0
note_on channel=0 note=52 velocity=0 time=160
note_on channel=0 note=47 velocity=69 time=0
note_on channel=0 note=47 velocity=0 time=160
note_on channel=0 note=71 velocity=0 time=0
note_on channel=0 note=71 velocity=80 time=0
note_on channel=0 note=52 velocity=73 time=0
note_on channel=0 note=52 velocity=0 time=160
note_on channel=0 note=56 velocity=69 time=0
note_on channel=0 note=56 velocity=0 time=0
note_on channel=0 note=59 velocity=69 time=0
note_on channel=0 note=59 velocity=0 time=0
note_on channel=0 note=57 velocity=73 time=0
note_on channel=0 note=57 velocity=0 time=63
note_on channel=0 note=54 velocity=69 time=0
note_on channel=0 note=54 velocity=0 time=0
note_on channel=0 note=51 velocity=69 time=0
note_on channel=0 note=51 velocity=0 time=0
note_on channel=0 note=71 velocity=0 time=0
note_on channel=0 note=71 velocity=80 time=0
note_on channel=0 note=63 velocity=73 time=0
note_on channel=0 note=63 velocity=0 time=160
note_on channel=0 note=57 velocity=69 time=0
note_on channel=0 note=57 velocity=0 time=0
note_on channel=0 note=54 velocity=69 time=0
note_on channel=0 note=54 velocity=0 time=0
note_on channel=0 note=71 velocity=0 time=0
note_on channel=0 note=76 velocity=82 time=0
note_on channel=0 note=56 velocity=64 time=0
note_on channel=0 note=56 velocity=0 time=91
note_on channel=0 note=76 velocity=0 time=0
note_on channel=0 note=71 velocity=75 time=0
note_on channel=0 note=59 velocity=56 time=0
note_on channel=0 note=59 velocity=0 time=160
note_on channel=0 note=71 velocity=0 time=0
note_on channel=0 note=68 velocity=77 time=0
note_on channel=0 note=64 velocity=56 time=0
note_on channel=0 note=64 velocity=0 time=160
note_on channel=0 note=68 velocity=0 time=0
note_on channel=0 note=71 velocity=82 time=0
note_on channel=0 note=59 velocity=64 time=0
note_on channel=0 note=59 velocity=0 time=160
note_on channel=0 note=71 velocity=0 time=0
note_on channel=0 note=76 velocity=77 time=0
note_on channel=0 note=56 velocity=57 time=0
note_on channel=0 note=56 velocity=0 time=0
note_on channel=0 note=76 velocity=0 time=0
note_on channel=0 note=80 velocity=77 time=0
note_on channel=0 note=52 velocity=57 time=0
note_on channel=0 note=52 velocity=0 time=0
note_on channel=0 note=80 velocity=0 time=0
note_on channel=0 note=78 velocity=82 time=0
note_on channel=0 note=51 velocity=64 time=0
note_on channel=0 note=51 velocity=0 time=85
note_on channel=0 note=78 velocity=0 time=0
note_on channel=0 note=75 velocity=77 time=0
note_on channel=0 note=54 velocity=56 time=0
note_on channel=0 note=54 velocity=0 time=160
note_on channel=0 note=75 velocity=0 time=0
note_on channel=0 note=71 velocity=77 time=0
note_on channel=0 note=57 velocity=56 time=0
note_on channel=0 note=57 velocity=0 time=160
note_on channel=0 note=71 velocity=0 time=0
note_on channel=0 note=75 velocity=82 time=0
note_on channel=0 note=54 velocity=64 time=0
note_on channel=0 note=54 velocity=0 time=160
note_on channel=0 note=75 velocity=0 time=0
note_on channel=0 note=78 velocity=77 time=0
note_on channel=0 note=51 velocity=57 time=0
note_on channel=0 note=51 velocity=0 time=0
note_on channel=0 note=78 velocity=0 time=0
note_on channel=0 note=81 velocity=77 time=0
note_on channel=0 note=47 velocity=58 time=0
note_on channel=0 note=47 velocity=0 time=0
note_on channel=0 note=81 velocity=0 time=0
note_on channel=0 note=80 velocity=82 time=0
note_on channel=0 note=52 velocity=64 time=6
note_on channel=0 note=80 velocity=0 time=85
note_on channel=0 note=76 velocity=75 time=0
note_on channel=0 note=56 velocity=56 time=0
note_on channel=0 note=52 velocity=0 time=6
note_on channel=0 note=56 velocity=0 time=154
note_on channel=0 note=76 velocity=0 time=0
note_on channel=0 note=71 velocity=77 time=0
note_on channel=0 note=59 velocity=56 time=0
note_on channel=0 note=59 velocity=0 time=160
note_on channel=0 note=71 velocity=0 time=0
note_on channel=0 note=76 velocity=82 time=0
note_on channel=0 note=56 velocity=64 time=0
note_on channel=0 note=56 velocity=0 time=160
note_on channel=0 note=76 velocity=0 time=0
note_on channel=0 note=80 velocity=77 time=0
note_on channel=0 note=52 velocity=57 time=0
note_on channel=0 note=52 velocity=0 time=0
note_on channel=0 note=80 velocity=0 time=0
note_on channel=0 note=83 velocity=77 time=0
note_on channel=0 note=47 velocity=57 time=6
note_on channel=0 note=83 velocity=0 time=0
note_on channel=0 note=81 velocity=82 time=0
note_on channel=0 note=51 velocity=64 time=0
note_on channel=0 note=47 velocity=0 time=6
note_on channel=0 note=51 velocity=0 time=57
note_on channel=0 note=81 velocity=0 time=0
note_on channel=0 note=78 velocity=77 time=0
note_on channel=0 note=57 velocity=56 time=0
note_on channel=0 note=57 velocity=0 time=0
note_on channel=0 note=78 velocity=0 time=0
note_on channel=0 note=75 velocity=77 time=0
note_on channel=0 note=59 velocity=56 time=6
note_on channel=0 note=75 velocity=0 time=0
note_on channel=0 note=87 velocity=82 time=0
note_on channel=0 note=57 velocity=64 time=0
note_on channel=0 note=59 velocity=0 time=6
note_on channel=0 note=57 velocity=0 time=154
note_on channel=0 note=87 velocity=0 time=0
note_on channel=0 note=81 velocity=77 time=0
note_on channel=0 note=59 velocity=57 time=0
note_on channel=0 note=59 velocity=0 time=160
note_on channel=0 note=81 velocity=0 time=0
note_on channel=0 note=78 velocity=77 time=0
note_on channel=0 note=66 velocity=58 time=0
note_on channel=0 note=66 velocity=0 time=0
note_on channel=0 note=78 velocity=0 time=0
note_on channel=0 note=88 velocity=86 time=0
note_on channel=0 note=56 velocity=64 time=0
note_on channel=0 note=56 velocity=0 time=74
note_on channel=0 note=83 velocity=74 time=0
note_on channel=0 note=59 velocity=55 time=0
note_on channel=0 note=88 velocity=0 time=80
note_on channel=0 note=59 velocity=0 time=80
note_on channel=0 note=83 velocity=0 time=0
note_on channel=0 note=80 velocity=74 time=0
note_on channel=0 note=64 velocity=55 time=0
note_on channel=0 note=64 velocity=0 time=160
note_on channel=0 note=80 velocity=0 time=0
note_on channel=0 note=83 velocity=82 time=0
note_on channel=0 note=52 velocity=62 time=0
note_on channel=0 note=52 velocity=0 time=160
note_on channel=0 note=80 velocity=73 time=0
note_on channel=0 note=56 velocity=55 time=0
note_on channel=0 note=83 velocity=0 time=80
note_on channel=0 note=56 velocity=0 time=0
note_on channel=0 note=80 velocity=0 time=0
note_on channel=0 note=76 velocity=72 time=0
note_on channel=0 note=59 velocity=54 time=0
note_on channel=0 note=59 velocity=0 time=0
note_on channel=0 note=76 velocity=0 time=0
note_on channel=0 note=81 velocity=79 time=0
note_on channel=0 note=54 velocity=59 time=0
note_on channel=0 note=54 velocity=0 time=91
note_on channel=0 note=78 velocity=71 time=0
note_on channel=0 note=57 velocity=51 time=0
note_on channel=0 note=81 velocity=0 time=80
note_on channel=0 note=57 velocity=0 time=80
note_on channel=0 note=78 velocity=0 time=0
note_on channel=0 note=75 velocity=70 time=0
note_on channel=0 note=59 velocity=51 time=0
note_on channel=0 note=59 velocity=0 time=160
note_on channel=0 note=75 velocity=0 time=0
note_on channel=0 note=87 velocity=76 time=0
note_on channel=0 note=57 velocity=57 time=0
note_on channel=0 note=57 velocity=0 time=160
note_on channel=0 note=83 velocity=69 time=0
note_on channel=0 note=59 velocity=51 time=0
note_on channel=0 note=87 velocity=0 time=80
note_on channel=0 note=59 velocity=0 time=0
note_on channel=0 note=83 velocity=0 time=0
note_on channel=0 note=78 velocity=67 time=0
note_on channel=0 note=66 velocity=51 time=0
note_on channel=0 note=66 velocity=0 time=0
note_on channel=0 note=78 velocity=0 time=0
note_on channel=0 note=88 velocity=75 time=0
note_on channel=0 note=56 velocity=56 time=0
note_on channel=0 note=56 velocity=0 time=97
note_on channel=0 note=83 velocity=65 time=0
note_on channel=0 note=59 velocity=48 time=0
note_on channel=0 note=88 velocity=0 time=80
note_on channel=0 note=59 velocity=0 time=80
note_on channel=0 note=83 velocity=0 time=0
note_on channel=0 note=80 velocity=65 time=0
note_on channel=0 note=64 velocity=48 time=0
note_on channel=0 note=64 velocity=0 time=160
note_on channel=0 note=80 velocity=0 time=0
note_on channel=0 note=83 velocity=72 time=0
note_on channel=0 note=52 velocity=54 time=0
note_on channel=0 note=52 velocity=0 time=160
note_on channel=0 note=80 velocity=64 time=0
note_on channel=0 note=56 velocity=48 time=0
note_on channel=0 note=83 velocity=0 time=80
note_on channel=0 note=56 velocity=0 time=0
note_on channel=0 note=80 velocity=0 time=0
note_on channel=0 note=76 velocity=63 time=0
note_on channel=0 note=59 velocity=47 time=0
note_on channel=0 note=59 velocity=0 time=0
note_on channel=0 note=76 velocity=0 time=0
note_on channel=0 note=81 velocity=69 time=0
note_on channel=0 note=54 velocity=51 time=0
note_on channel=0 note=54 velocity=0 time=74
note_on channel=0 note=78 velocity=62 time=0
note_on channel=0 note=57 velocity=44 time=0
note_on channel=0 note=81 velocity=0 time=80
note_on channel=0 note=57 velocity=0 time=80
note_on channel=0 note=78 velocity=0 time=0
note_on channel=0 note=75 velocity=60 time=0
note_on channel=0 note=59 velocity=44 time=0
note_on channel=0 note=59 velocity=0 time=160
note_on channel=0 note=75 velocity=0 time=0
note_on channel=0 note=87 velocity=69 time=0
note_on channel=0 note=57 velocity=50 time=0
note_on channel=0 note=57 velocity=0 time=160
note_on channel=0 note=83 velocity=59 time=0
note_on channel=0 note=59 velocity=44 time=0
note_on channel=0 note=87 velocity=0 time=80
note_on channel=0 note=59 velocity=0 time=0
note_on channel=0 note=83 velocity=0 time=0
note_on channel=0 note=78 velocity=58 time=0
note_on channel=0 note=66 velocity=44 time=0
note_on channel=0 note=66 velocity=0 time=0
note_on channel=0 note=78 velocity=0 time=0
note_on channel=0 note=88 velocity=64 time=0
note_on channel=0 note=56 velocity=50 time=0
note_on channel=0 note=56 velocity=0 time=111
note_on channel=0 note=88 velocity=0 time=0
note_on channel=0 note=83 velocity=58 time=0
note_on channel=0 note=59 velocity=43 time=0
note_on channel=0 note=59 velocity=0 time=60
note_on channel=0 note=83 velocity=0 time=0
note_on channel=0 note=80 velocity=58 time=0
note_on channel=0 note=52 velocity=43 time=0
note_on channel=0 note=52 velocity=0 time=20
note_on channel=0 note=80 velocity=0 time=0
note_on channel=0 note=76 velocity=59 time=0
note_on channel=0 note=59 velocity=44 time=0
note_on channel=0 note=59 velocity=0 time=120
note_on channel=0 note=76 velocity=0 time=0
note_on channel=0 note=81 velocity=65 time=0
note_on channel=0 note=54 velocity=51 time=0
note_on channel=0 note=54 velocity=0 time=100
note_on channel=0 note=81 velocity=0 time=0
note_on channel=0 note=78 velocity=59 time=0
note_on channel=0 note=59 velocity=44 time=0
note_on channel=0 note=59 velocity=0 time=60
note_on channel=0 note=78 velocity=0 time=0
note_on channel=0 note=87 velocity=62 time=0
note_on channel=0 note=57 velocity=44 time=0
note_on channel=0 note=57 velocity=0 time=20
note_on channel=0 note=87 velocity=0 time=0
note_on channel=0 note=83 velocity=63 time=0
note_on channel=0 note=59 velocity=44 time=0
note_on channel=0 note=59 velocity=0 time=120
note_on channel=0 note=83 velocity=0 time=0
note_on channel=0 note=88 velocity=69 time=0
note_on channel=0 note=56 velocity=52 time=0
note_on channel=0 note=56 velocity=0 time=100
note_on channel=0 note=88 velocity=0 time=0
note_on channel=0 note=83 velocity=63 time=0
note_on channel=0 note=59 velocity=46 time=0
note_on channel=0 note=59 velocity=0 time=120
note_on channel=0 note=83 velocity=0 time=0
note_on channel=0 note=80 velocity=63 time=0
note_on channel=0 note=52 velocity=47 time=0
note_on channel=0 note=52 velocity=0 time=120
note_on channel=0 note=80 velocity=0 time=0
note_on channel=0 note=76 velocity=64 time=0
note_on channel=0 note=59 velocity=49 time=0
note_on channel=0 note=59 velocity=0 time=120
note_on channel=0 note=76 velocity=0 time=0
note_on channel=0 note=81 velocity=71 time=0
note_on channel=0 note=54 velocity=55 time=0
note_on channel=0 note=54 velocity=0 time=120
note_on channel=0 note=81 velocity=0 time=0
note_on channel=0 note=78 velocity=66 time=0
note_on channel=0 note=59 velocity=48 time=0
note_on channel=0 note=59 velocity=0 time=120
note_on channel=0 note=78 velocity=0 time=0
note_on channel=0 note=87 velocity=67 time=0
note_on channel=0 note=57 velocity=48 time=0
note_on channel=0 note=57 velocity=0 time=0
note_on channel=0 note=87 velocity=0 time=0
note_on channel=0 note=83 velocity=67 time=0
note_on channel=0 note=59 velocity=49 time=0
note_on channel=0 note=59 velocity=0 time=20
note_on channel=0 note=83 velocity=0 time=0
note_on channel=0 note=88 velocity=74 time=0
note_on channel=0 note=56 velocity=58 time=0
note_on channel=0 note=56 velocity=0 time=120
note_on channel=0 note=88 velocity=0 time=0
note_on channel=0 note=83 velocity=67 time=0
note_on channel=0 note=59 velocity=50 time=0
note_on channel=0 note=59 velocity=0 time=60
note_on channel=0 note=83 velocity=0 time=0
note_on channel=0 note=87 velocity=69 time=0
note_on channel=0 note=57 velocity=51 time=0
note_on channel=0 note=57 velocity=0 time=120
note_on channel=0 note=87 velocity=0 time=0
note_on channel=0 note=83 velocity=69 time=0
note_on channel=0 note=59 velocity=52 time=0
note_on channel=0 note=59 velocity=0 time=100
note_on channel=0 note=83 velocity=0 time=0
note_on channel=0 note=88 velocity=77 time=0
note_on channel=0 note=56 velocity=60 time=0
note_on channel=0 note=56 velocity=0 time=20
note_on channel=0 note=88 velocity=0 time=0
note_on channel=0 note=83 velocity=77 time=0
note_on channel=0 note=59 velocity=52 time=0
note_on channel=0 note=59 velocity=0 time=120
note_on channel=0 note=83 velocity=0 time=0
note_on channel=0 note=87 velocity=72 time=0
note_on channel=0 note=57 velocity=52 time=0
note_on channel=0 note=57 velocity=0 time=60
note_on channel=0 note=87 velocity=0 time=0
note_on channel=0 note=83 velocity=73 time=0
note_on channel=0 note=59 velocity=54 time=0
note_on channel=0 note=59 velocity=0 time=0
note_on channel=0 note=83 velocity=0 time=0
note_on channel=0 note=88 velocity=80 time=0
note_on channel=0 note=56 velocity=62 time=0
note_on channel=0 note=56 velocity=0 time=120
note_on channel=0 note=88 velocity=0 time=0
note_on channel=0 note=83 velocity=73 time=0
note_on channel=0 note=59 velocity=55 time=0
note_on channel=0 note=59 velocity=0 time=120
note_on channel=0 note=83 velocity=0 time=0
note_on channel=0 note=87 velocity=74 time=0
note_on channel=0 note=57 velocity=55 time=0
note_on channel=0 note=57 velocity=0 time=120
note_on channel=0 note=87 velocity=0 time=0
note_on channel=0 note=83 velocity=74 time=0
note_on channel=0 note=59 velocity=57 time=0
note_on channel=0 note=59 velocity=0 time=120
note_on channel=0 note=83 velocity=0 time=0
note_on channel=0 note=88 velocity=82 time=0
note_on channel=0 note=56 velocity=65 time=0
note_on channel=0 note=56 velocity=0 time=120
note_on channel=0 note=88 velocity=0 time=0
note_on channel=0 note=83 velocity=85 time=0
note_on channel=0 note=59 velocity=57 time=0
note_on channel=0 note=59 velocity=0 time=120
note_on channel=0 note=83 velocity=0 time=0
note_on channel=0 note=87 velocity=78 time=0
note_on channel=0 note=57 velocity=57 time=0
note_on channel=0 note=57 velocity=0 time=0
note_on channel=0 note=87 velocity=0 time=0
note_on channel=0 note=83 velocity=79 time=0
note_on channel=0 note=59 velocity=58 time=0
note_on channel=0 note=59 velocity=0 time=0
note_on channel=0 note=83 velocity=0 time=0
note_on channel=0 note=88 velocity=89 time=0
note_on channel=0 note=56 velocity=70 time=0
note_on channel=0 note=56 velocity=0 time=120
note_on channel=0 note=88 velocity=0 time=0
note_on channel=0 note=83 velocity=81 time=0
note_on channel=0 note=59 velocity=60 time=0
note_on channel=0 note=59 velocity=0 time=120
note_on channel=0 note=83 velocity=0 time=0
note_on channel=0 note=86 velocity=81 time=0
note_on channel=0 note=44 velocity=60 time=0
note_on channel=0 note=44 velocity=0 time=40
note_on channel=0 note=86 velocity=0 time=0
note_on channel=0 note=83 velocity=81 time=0
note_on channel=0 note=52 velocity=62 time=0
note_on channel=0 note=52 velocity=0 time=120
note_on channel=0 note=83 velocity=0 time=0
note_on channel=0 note=86 velocity=89 time=0
note_on channel=0 note=44 velocity=70 time=0
note_on channel=0 note=44 velocity=0 time=23
note_on channel=0 note=86 velocity=0 time=0
note_on channel=0 note=83 velocity=83 time=0
note_on channel=0 note=52 velocity=60 time=0
note_on channel=0 note=52 velocity=0 time=80
note_on channel=0 note=83 velocity=0 time=0
note_on channel=0 note=86 velocity=82 time=0
note_on channel=0 note=44 velocity=60 time=0
note_on channel=0 note=44 velocity=0 time=120
note_on channel=0 note=86 velocity=0 time=0
note_on channel=0 note=83 velocity=82 time=0
note_on channel=0 note=52 velocity=60 time=0
note_on channel=0 note=52 velocity=0 time=20
note_on channel=0 note=83 velocity=0 time=0
note_on channel=0 note=86 velocity=89 time=0
note_on channel=0 note=44 velocity=70 time=0
note_on channel=0 note=44 velocity=0 time=120
note_on channel=0 note=86 velocity=0 time=0
note_on channel=0 note=83 velocity=81 time=0
note_on channel=0 note=52 velocity=60 time=0
note_on channel=0 note=52 velocity=0 time=120
note_on channel=0 note=83 velocity=0 time=0
note_on channel=0 note=86 velocity=81 time=0
note_on channel=0 note=44 velocity=60 time=0
note_on channel=0 note=44 velocity=0 time=120
note_on channel=0 note=86 velocity=0 time=0
note_on channel=0 note=83 velocity=81 time=0
note_on channel=0 note=52 velocity=62 time=0
note_on channel=0 note=52 velocity=0 time=120
note_on channel=0 note=83 velocity=0 time=0
note_on channel=0 note=86 velocity=89 time=0
note_on channel=0 note=44 velocity=70 time=0
note_on channel=0 note=44 velocity=0 time=120
note_on channel=0 note=86 velocity=0 time=0
note_on channel=0 note=83 velocity=83 time=0
note_on channel=0 note=52 velocity=60 time=0
note_on channel=0 note=52 velocity=0 time=120
note_on channel=0 note=83 velocity=0 time=0
note_on channel=0 note=86 velocity=82 time=0
note_on channel=0 note=44 velocity=60 time=0
note_on channel=0 note=44 velocity=0 time=0
note_on channel=0 note=86 velocity=0 time=0
note_on channel=0 note=83 velocity=82 time=0
note_on channel=0 note=52 velocity=60 time=0
note_on channel=0 note=52 velocity=0 time=0
note_on channel=0 note=83 velocity=0 time=0
note_on channel=0 note=86 velocity=89 time=0
note_on channel=0 note=44 velocity=70 time=0
note_on channel=0 note=44 velocity=0 time=51
note_on channel=0 note=52 velocity=60 time=0
note_on channel=0 note=52 velocity=0 time=120
note_on channel=0 note=86 velocity=0 time=0
note_on channel=0 note=85 velocity=81 time=0
note_on channel=0 note=44 velocity=60 time=0
note_on channel=0 note=44 velocity=0 time=120
note_on channel=0 note=85 velocity=0 time=0
note_on channel=0 note=83 velocity=81 time=0
note_on channel=0 note=52 velocity=62 time=0
note_on channel=0 note=52 velocity=0 time=120
note_on channel=0 note=83 velocity=0 time=0
note_on channel=0 note=81 velocity=86 time=0
note_on channel=0 note=44 velocity=70 time=0
note_on channel=0 note=44 velocity=0 time=120
note_on channel=0 note=81 velocity=0 time=0
note_on channel=0 note=80 velocity=82 time=0
note_on channel=0 note=52 velocity=60 time=0
note_on channel=0 note=52 velocity=0 time=120
note_on channel=0 note=80 velocity=0 time=0
note_on channel=0 note=78 velocity=83 time=0
note_on channel=0 note=44 velocity=60 time=0
note_on channel=0 note=44 velocity=0 time=120
note_on channel=0 note=78 velocity=0 time=0
note_on channel=0 note=76 velocity=83 time=0
note_on channel=0 note=52 velocity=61 time=0
note_on channel=0 note=52 velocity=0 time=120
note_on channel=0 note=76 velocity=0 time=0
note_on channel=0 note=74 velocity=86 time=0
note_on channel=0 note=44 velocity=71 time=0
note_on channel=0 note=44 velocity=0 time=17
note_on channel=0 note=74 velocity=0 time=0
note_on channel=0 note=73 velocity=82 time=0
note_on channel=0 note=52 velocity=61 time=0
note_on channel=0 note=52 velocity=0 time=120
note_on channel=0 note=73 velocity=0 time=0
note_on channel=0 note=71 velocity=83 time=0
note_on channel=0 note=44 velocity=61 time=0
note_on channel=0 note=44 velocity=0 time=120
note_on channel=0 note=71 velocity=0 time=0
note_on channel=0 note=69 velocity=83 time=0
note_on channel=0 note=52 velocity=63 time=0
note_on channel=0 note=52 velocity=0 time=120
note_on channel=0 note=69 velocity=0 time=0
note_on channel=0 note=68 velocity=88 time=0
note_on channel=0 note=44 velocity=72 time=0
note_on channel=0 note=44 velocity=0 time=120
note_on channel=0 note=68 velocity=0 time=0
note_on channel=0 note=66 velocity=85 time=0
note_on channel=0 note=52 velocity=62 time=0
note_on channel=0 note=52 velocity=0 time=120
note_on channel=0 note=66 velocity=0 time=0
note_on channel=0 note=64 velocity=85 time=0
note_on channel=0 note=44 velocity=62 time=0
note_on channel=0 note=44 velocity=0 time=120
note_on channel=0 note=64 velocity=0 time=0
note_on channel=0 note=62 velocity=85 time=0
note_on channel=0 note=52 velocity=62 time=0
note_on channel=0 note=52 velocity=0 time=0
note_on channel=0 note=62 velocity=0 time=0
note_on channel=0 note=61 velocity=93 time=0
note_on channel=0 note=45 velocity=67 time=0
note_on channel=0 note=49 velocity=67 time=0
note_on channel=0 note=52 velocity=80 time=0
note_on channel=0 note=61 velocity=0 time=28
note_on channel=0 note=63 velocity=83 time=0
note_on channel=0 note=45 velocity=0 time=8
note_on channel=0 note=52 velocity=0 time=0
note_on channel=0 note=49 velocity=0 time=0
note_on channel=0 note=63 velocity=0 time=0
note_on channel=0 note=64 velocity=83 time=0
note_on channel=0 note=45 velocity=60 time=0
note_on channel=0 note=49 velocity=60 time=0
note_on channel=0 note=52 velocity=73 time=0
note_on channel=0 note=64 velocity=0 time=0
note_on channel=0 note=63 velocity=84 time=0
note_on channel=0 note=45 velocity=0 time=20
note_on channel=0 note=52 velocity=0 time=0
note_on channel=0 note=49 velocity=0 time=0
note_on channel=0 note=63 velocity=0 time=16
note_on channel=0 note=64 velocity=92 time=0
note_on channel=0 note=64 velocity=0 time=16
note_on channel=0 note=68 velocity=84 time=0
note_on channel=0 note=68 velocity=0 time=0
note_on channel=0 note=69 velocity=84 time=0
note_on channel=0 note=45 velocity=60 time=0
note_on channel=0 note=49 velocity=60 time=0
note_on channel=0 note=52 velocity=73 time=0
note_on channel=0 note=69 velocity=0 time=120
note_on channel=0 note=68 velocity=84 time=0
note_on channel=0 note=45 velocity=0 time=60
note_on channel=0 note=52 velocity=0 time=0
note_on channel=0 note=49 velocity=0 time=0
note_on channel=0 note=68 velocity=0 time=0
note_on channel=0 note=69 velocity=93 time=0
note_on channel=0 note=45 velocity=67 time=0
note_on channel=0 note=49 velocity=67 time=0
note_on channel=0 note=52 velocity=80 time=0
note_on channel=0 note=69 velocity=0 time=0
note_on channel=0 note=72 velocity=84 time=0
note_on channel=0 note=45 velocity=0 time=20
note_on channel=0 note=52 velocity=0 time=0
note_on channel=0 note=49 velocity=0 time=0
note_on channel=0 note=72 velocity=0 time=0
note_on channel=0 note=73 velocity=84 time=0
note_on channel=0 note=45 velocity=60 time=0
note_on channel=0 note=49 velocity=60 time=0
note_on channel=0 note=52 velocity=73 time=0
note_on channel=0 note=73 velocity=0 time=68
note_on channel=0 note=72 velocity=84 time=0
note_on channel=0 note=45 velocity=0 time=20
note_on channel=0 note=52 velocity=0 time=0
note_on channel=0 note=49 velocity=0 time=0
note_on channel=0 note=72 velocity=0 time=0
note_on channel=0 note=73 velocity=93 time=0
note_on channel=0 note=73 velocity=0 time=0
note_on channel=0 note=75 velocity=84 time=0
note_on channel=0 note=75 velocity=0 time=0
note_on channel=0 note=76 velocity=84 time=0
note_on channel=0 note=45 velocity=60 time=0
note_on channel=0 note=49 velocity=60 time=0
note_on channel=0 note=52 velocity=73 time=0
note_on channel=0 note=76 velocity=0 time=120
note_on channel=0 note=75 velocity=84 time=0
note_on channel=0 note=45 velocity=0 time=60
note_on channel=0 note=52 velocity=0 time=0
note_on channel=0 note=49 velocity=0 time=0
note_on channel=0 note=75 velocity=0 time=0
note_on channel=0 note=76 velocity=95 time=0
note_on channel=0 note=45 velocity=67 time=0
note_on channel=0 note=49 velocity=67 time=0
note_on channel=0 note=52 velocity=78 time=0
note_on channel=0 note=76 velocity=0 time=0
note_on channel=0 note=80 velocity=85 time=0
note_on channel=0 note=45 velocity=0 time=8
note_on channel=0 note=52 velocity=0 time=0
note_on channel=0 note=49 velocity=0 time=0
note_on channel=0 note=80 velocity=0 time=16
note_on channel=0 note=81 velocity=85 time=0
note_on channel=0 note=45 velocity=60 time=0
note_on channel=0 note=49 velocity=60 time=0
note_on channel=0 note=52 velocity=73 time=0
note_on channel=0 note=81 velocity=0 time=0
note_on channel=0 note=80 velocity=85 time=0
note_on channel=0 note=45 velocity=0 time=8
note_on channel=0 note=52 velocity=0 time=0
note_on channel=0 note=49 velocity=0 time=0
note_on channel=0 note=80 velocity=0 time=56
note_on channel=0 note=81 velocity=95 time=0
note_on channel=0 note=81 velocity=0 time=28
note_on channel=0 note=84 velocity=85 time=0
note_on channel=0 note=84 velocity=0 time=0
note_on channel=0 note=85 velocity=85 time=0
note_on channel=0 note=45 velocity=60 time=0
note_on channel=0 note=49 velocity=60 time=0
note_on channel=0 note=52 velocity=73 time=0
note_on channel=0 note=85 velocity=0 time=120
note_on channel=0 note=84 velocity=86 time=0
note_on channel=0 note=45 velocity=0 time=60
note_on channel=0 note=52 velocity=0 time=0
note_on channel=0 note=49 velocity=0 time=0
note_on channel=0 note=84 velocity=0 time=0
note_on channel=0 note=85 velocity=95 time=0
note_on channel=0 note=45 velocity=67 time=0
note_on channel=0 note=49 velocity=67 time=0
note_on channel=0 note=52 velocity=78 time=0
note_on channel=0 note=85 velocity=0 time=0
note_on channel=0 note=87 velocity=86 time=0
note_on channel=0 note=45 velocity=0 time=20
note_on channel=0 note=52 velocity=0 time=0
note_on channel=0 note=49 velocity=0 time=0
note_on channel=0 note=87 velocity=0 time=0
note_on channel=0 note=88 velocity=86 time=0
note_on channel=0 note=45 velocity=60 time=0
note_on channel=0 note=49 velocity=60 time=0
note_on channel=0 note=52 velocity=73 time=0
note_on channel=0 note=88 velocity=0 time=0
note_on channel=0 note=87 velocity=86 time=0
note_on channel=0 note=45 velocity=0 time=20
note_on channel=0 note=52 velocity=0 time=0
note_on channel=0 note=49 velocity=0 time=0
note_on channel=0 note=87 velocity=0 time=0
note_on channel=0 note=88 velocity=95 time=0
note_on channel=0 note=88 velocity=0 time=28
note_on channel=0 note=87 velocity=86 time=0
note_on channel=0 note=87 velocity=0 time=0
note_on channel=0 note=85 velocity=86 time=0
note_on channel=0 note=45 velocity=60 time=0
note_on channel=0 note=49 velocity=60 time=0
note_on channel=0 note=52 velocity=73 time=0
note_on channel=0 note=85 velocity=0 time=120
note_on channel=0 note=84 velocity=86 time=0
note_on channel=0 note=45 velocity=0 time=60
note_on channel=0 note=52 velocity=0 time=0
note_on channel=0 note=49 velocity=0 time=0
note_on channel=0 note=84 velocity=0 time=0
note_on channel=0 note=85 velocity=95 time=0
note_on channel=0 note=52 velocity=67 time=0
note_on channel=0 note=46 velocity=67 time=0
note_on channel=0 note=49 velocity=67 time=0
note_on channel=0 note=54 velocity=78 time=0
note_on channel=0 note=85 velocity=0 time=0
note_on channel=0 note=84 velocity=86 time=0
note_on channel=0 note=49 velocity=0 time=8
note_on channel=0 note=54 velocity=0 time=0
note_on channel=0 note=52 velocity=0 time=0
note_on channel=0 note=46 velocity=0 time=0
note_on channel=0 note=84 velocity=0 time=28
note_on channel=0 note=85 velocity=86 time=0
note_on channel=0 note=52 velocity=60 time=0
note_on channel=0 note=46 velocity=60 time=0
note_on channel=0 note=49 velocity=60 time=0
note_on channel=0 note=54 velocity=73 time=0
note_on channel=0 note=85 velocity=0 time=0
note_on channel=0 note=87 velocity=86 time=0
note_on channel=0 note=49 velocity=0 time=8
note_on channel=0 note=54 velocity=0 time=0
note_on channel=0 note=52 velocity=0 time=0
note_on channel=0 note=46 velocity=0 time=0
note_on channel=0 note=87 velocity=0 time=40
note_on channel=0 note=88 velocity=95 time=0
note_on channel=0 note=88 velocity=0 time=0
note_on channel=0 note=87 velocity=86 time=0
note_on channel=0 note=87 velocity=0 time=0
note_on channel=0 note=85 velocity=86 time=0
note_on channel=0 note=52 velocity=60 time=0
note_on channel=0 note=46 velocity=60 time=0
note_on channel=0 note=49 velocity=60 time=0
note_on channel=0 note=54 velocity=73 time=0
note_on channel=0 note=85 velocity=0 time=120
note_on channel=0 note=84 velocity=86 time=0
note_on channel=0 note=49 velocity=0 time=60
note_on channel=0 note=54 velocity=0 time=0
note_on channel=0 note=52 velocity=0 time=0
note_on channel=0 note=46 velocity=0 time=0
note_on channel=0 note=84 velocity=0 time=0
note_on channel=0 note=85 velocity=95 time=0
note_on channel=0 note=52 velocity=67 time=0
note_on channel=0 note=46 velocity=67 time=0
note_on channel=0 note=49 velocity=67 time=0
note_on channel=0 note=54 velocity=78 time=0
note_on channel=0 note=85 velocity=0 time=0
note_on channel=0 note=84 velocity=86 time=0
note_on channel=0 note=49 velocity=0 time=20
note_on channel=0 note=54 velocity=0 time=0
note_on channel=0 note=52 velocity=0 time=0
note_on channel=0 note=46 velocity=0 time=0
note_on channel=0 note=84 velocity=0 time=16
note_on channel=0 note=85 velocity=86 time=0
note_on channel=0 note=52 velocity=60 time=0
note_on channel=0 note=46 velocity=60 time=0
note_on channel=0 note=49 velocity=60 time=0
note_on channel=0 note=54 velocity=73 time=0
note_on channel=0 note=85 velocity=0 time=0
note_on channel=0 note=87 velocity=86 time=0
note_on channel=0 note=49 velocity=0 time=48
note_on channel=0 note=54 velocity=0 time=0
note_on channel=0 note=52 velocity=0 time=0
note_on channel=0 note=46 velocity=0 time=0
note_on channel=0 note=87 velocity=0 time=16
note_on channel=0 note=88 velocity=95 time=0
note_on channel=0 note=88 velocity=0 time=20
note_on channel=0 note=87 velocity=86 time=0
note_on channel=0 note=87 velocity=0 time=0
note_on channel=0 note=85 velocity=86 time=0
note_on channel=0 note=52 velocity=60 time=0
note_on channel=0 note=46 velocity=60 time=0
note_on channel=0 note=49 velocity=60 time=0
note_on channel=0 note=54 velocity=73 time=0
note_on channel=0 note=85 velocity=0 time=120
note_on channel=0 note=84 velocity=86 time=0
note_on channel=0 note=49 velocity=0 time=60
note_on channel=0 note=54 velocity=0 time=0
note_on channel=0 note=52 velocity=0 time=0
note_on channel=0 note=46 velocity=0 time=0
note_on channel=0 note=84 velocity=0 time=0
note_on channel=0 note=85 velocity=95 time=0
note_on channel=0 note=52 velocity=67 time=0
note_on channel=0 note=46 velocity=67 time=0
note_on channel=0 note=49 velocity=67 time=0
note_on channel=0 note=54 velocity=78 time=0
note_on channel=0 note=85 velocity=0 time=40
note_on channel=0 note=84 velocity=86 time=0
note_on channel=0 note=49 velocity=0 time=8
note_on channel=0 note=54 velocity=0 time=0
note_on channel=0 note=52 velocity=0 time=0
note_on channel=0 note=46 velocity=0 time=0
note_on channel=0 note=84 velocity=0 time=28
note_on channel=0 note=85 velocity=86 time=0
note_on channel=0 note=52 velocity=60 time=0
note_on channel=0 note=46 velocity=60 time=0
note_on channel=0 note=49 velocity=60 time=0
note_on channel=0 note=54 velocity=73 time=0
note_on channel=0 note=85 velocity=0 time=28
note_on channel=0 note=87 velocity=86 time=0
note_on channel=0 note=49 velocity=0 time=8
note_on channel=0 note=54 velocity=0 time=0
note_on channel=0 note=52 velocity=0 time=0
note_on channel=0 note=46 velocity=0 time=0
note_on channel=0 note=87 velocity=0 time=0
note_on channel=0 note=88 velocity=95 time=0
note_on channel=0 note=88 velocity=0 time=20
note_on channel=0 note=87 velocity=86 time=0
note_on channel=0 note=87 velocity=0 time=0
note_on channel=0 note=85 velocity=86 time=0
note_on channel=0 note=52 velocity=60 time=0
note_on channel=0 note=46 velocity=60 time=0
note_on channel=0 note=49 velocity=60 time=0
note_on channel=0 note=54 velocity=73 time=0
note_on channel=0 note=85 velocity=0 time=120
note_on channel=0 note=84 velocity=86 time=0
note_on channel=0 note=49 velocity=0 time=60
note_on channel=0 note=54 velocity=0 time=0
note_on channel=0 note=52 velocity=0 time=0
note_on channel=0 note=46 velocity=0 time=0
note_on channel=0 note=84 velocity=0 time=0
note_on channel=0 note=85 velocity=95 time=0
note_on channel=0 note=52 velocity=67 time=0
note_on channel=0 note=46 velocity=67 time=0
note_on channel=0 note=49 velocity=67 time=0
note_on channel=0 note=54 velocity=78 time=0
note_on channel=0 note=85 velocity=0 time=68
note_on channel=0 note=84 velocity=86 time=0
note_on channel=0 note=49 velocity=0 time=8
note_on channel=0 note=54 velocity=0 time=0
note_on channel=0 note=52 velocity=0 time=0
note_on channel=0 note=46 velocity=0 time=0
note_on channel=0 note=84 velocity=0 time=16
note_on channel=0 note=85 velocity=86 time=0
note_on channel=0 note=52 velocity=60 time=0
note_on channel=0 note=46 velocity=60 time=0
note_on channel=0 note=49 velocity=60 time=0
note_on channel=0 note=54 velocity=73 time=0
note_on channel=0 note=85 velocity=0 time=68
note_on channel=0 note=87 velocity=86 time=0
note_on channel=0 note=49 velocity=0 time=20
note_on channel=0 note=54 velocity=0 time=0
note_on channel=0 note=52 velocity=0 time=0
note_on channel=0 note=46 velocity=0 time=0
note_on channel=0 note=87 velocity=0 time=56
note_on channel=0 note=88 velocity=95 time=0
note_on channel=0 note=88 velocity=0 time=80
note_on channel=0 note=87 velocity=86 time=0
note_on channel=0 note=87 velocity=0 time=0
note_on channel=0 note=88 velocity=86 time=0
note_on channel=0 note=52 velocity=60 time=0
note_on channel=0 note=46 velocity=60 time=0
note_on channel=0 note=49 velocity=60 time=0
note_on channel=0 note=54 velocity=73 time=0
note_on channel=0 note=88 velocity=0 time=120
note_on channel=0 note=85 velocity=86 time=0
note_on channel=0 note=49 velocity=0 time=60
note_on channel=0 note=54 velocity=0 time=0
note_on channel=0 note=52 velocity=0 time=0
note_on channel=0 note=46 velocity=0 time=0
note_on channel=0 note=85 velocity=0 time=0
note_on channel=0 note=71 velocity=87 time=0
note_on channel=0 note=83 velocity=103 time=0
note_on channel=0 note=47 velocity=78 time=0
note_on channel=0 note=47 velocity=0 time=74
note_on channel=0 note=83 velocity=0 time=0
note_on channel=0 note=71 velocity=0 time=0
note_on channel=0 note=52 velocity=70 time=0
note_on channel=0 note=52 velocity=0 time=120
note_on channel=0 note=71 velocity=73 time=0
note_on channel=0 note=83 velocity=87 time=0
note_on channel=0 note=56 velocity=70 time=0
note_on channel=0 note=56 velocity=0 time=120
note_on channel=0 note=83 velocity=0 time=0
note_on channel=0 note=71 velocity=0 time=0
note_on channel=0 note=59 velocity=70 time=0
note_on channel=0 note=59 velocity=0 time=0
note_on channel=0 note=68 velocity=74 time=0
note_on channel=0 note=80 velocity=88 time=0
note_on channel=0 note=47 velocity=77 time=0
note_on channel=0 note=47 velocity=0 time=120
note_on channel=0 note=80 velocity=0 time=0
note_on channel=0 note=68 velocity=0 time=0
note_on channel=0 note=52 velocity=70 time=0
note_on channel=0 note=52 velocity=0 time=120
note_on channel=0 note=64 velocity=73 time=0
note_on channel=0 note=76 velocity=87 time=0
note_on channel=0 note=56 velocity=70 time=0
note_on channel=0 note=56 velocity=0 time=120
note_on channel=0 note=76 velocity=0 time=0
note_on channel=0 note=64 velocity=0 time=0
note_on channel=0 note=59 velocity=70 time=0
note_on channel=0 note=59 velocity=0 time=0
note_on channel=0 note=76 velocity=87 time=0
note_on channel=0 note=88 velocity=103 time=0
note_on channel=0 note=47 velocity=75 time=0
note_on channel=0 note=47 velocity=0 time=120
note_on channel=0 note=88 velocity=0 time=0
note_on channel=0 note=76 velocity=0 time=0
note_on channel=0 note=52 velocity=70 time=0
note_on channel=0 note=52 velocity=0 time=120
note_on channel=0 note=76 velocity=73 time=0
note_on channel=0 note=88 velocity=87 time=0
note_on channel=0 note=56 velocity=70 time=0
note_on channel=0 note=56 velocity=0 time=120
note_on channel=0 note=88 velocity=0 time=0
note_on channel=0 note=76 velocity=0 time=0
note_on channel=0 note=59 velocity=70 time=0
note_on channel=0 note=59 velocity=0 time=0
note_on channel=0 note=71 velocity=73 time=0
note_on channel=0 note=83 velocity=87 time=0
note_on channel=0 note=47 velocity=75 time=0
note_on channel=0 note=47 velocity=0 time=120
note_on channel=0 note=83 velocity=0 time=0
note_on channel=0 note=71 velocity=0 time=0
note_on channel=0 note=52 velocity=70 time=0
note_on channel=0 note=52 velocity=0 time=120
note_on channel=0 note=68 velocity=73 time=0
note_on channel=0 note=80 velocity=87 time=0
note_on channel=0 note=56 velocity=70 time=0
note_on channel=0 note=56 velocity=0 time=120
note_on channel=0 note=80 velocity=0 time=0
note_on channel=0 note=68 velocity=0 time=0
note_on channel=0 note=59 velocity=70 time=0
note_on channel=0 note=59 velocity=0 time=40
note_on channel=0 note=71 velocity=87 time=0
note_on channel=0 note=83 velocity=103 time=0
note_on channel=0 note=47 velocity=78 time=0
note_on channel=0 note=47 velocity=0 time=51
note_on channel=0 note=83 velocity=0 time=0
note_on channel=0 note=71 velocity=0 time=0
note_on channel=0 note=52 velocity=70 time=0
note_on channel=0 note=52 velocity=0 time=120
note_on channel=0 note=71 velocity=73 time=0
note_on channel=0 note=83 velocity=87 time=0
note_on channel=0 note=56 velocity=70 time=0
note_on channel=0 note=56 velocity=0 time=120
note_on channel=0 note=83 velocity=0 time=0
note_on channel=0 note=71 velocity=0 time=0
note_on channel=0 note=59 velocity=70 time=0
note_on channel=0 note=59 velocity=0 time=0
note_on channel=0 note=68 velocity=74 time=0
note_on channel=0 note=80 velocity=88 time=0
note_on channel=0 note=47 velocity=77 time=0
note_on channel=0 note=47 velocity=0 time=120
note_on channel=0 note=80 velocity=0 time=0
note_on channel=0 note=68 velocity=0 time=0
note_on channel=0 note=52 velocity=70 time=0
note_on channel=0 note=52 velocity=0 time=120
note_on channel=0 note=64 velocity=73 time=0
note_on channel=0 note=76 velocity=87 time=0
note_on channel=0 note=56 velocity=70 time=0
note_on channel=0 note=56 velocity=0 time=120
note_on channel=0 note=76 velocity=0 time=0
note_on channel=0 note=64 velocity=0 time=0
note_on channel=0 note=59 velocity=70 time=0
note_on channel=0 note=59 velocity=0 time=0
note_on channel=0 note=76 velocity=87 time=0
note_on channel=0 note=88 velocity=103 time=0
note_on channel=0 note=56 velocity=75 time=0
note_on channel=0 note=56 velocity=0 time=120
note_on channel=0 note=88 velocity=0 time=0
note_on channel=0 note=76 velocity=0 time=0
note_on channel=0 note=76 velocity=73 time=120
note_on channel=0 note=88 velocity=87 time=0
note_on channel=0 note=56 velocity=70 time=0
note_on channel=0 note=56 velocity=0 time=120
note_on channel=0 note=88 velocity=0 time=0
note_on channel=0 note=76 velocity=0 time=0
note_on channel=0 note=71 velocity=73 time=0
note_on channel=0 note=83 velocity=87 time=0
note_on channel=0 note=52 velocity=75 time=0
note_on channel=0 note=52 velocity=0 time=120
note_on channel=0 note=83 velocity=0 time=0
note_on channel=0 note=71 velocity=0 time=0
note_on channel=0 note=68 velocity=73 time=120
note_on channel=0 note=80 velocity=87 time=0
note_on channel=0 note=47 velocity=70 time=0
note_on channel=0 note=47 velocity=0 time=120
note_on channel=0 note=80 velocity=0 time=0
note_on channel=0 note=68 velocity=0 time=0
note_on channel=0 note=59 velocity=82 time=0
note_on channel=0 note=59 velocity=0 time=74
note_on channel=0 note=80 velocity=47 time=0
note_on channel=0 note=80 velocity=0 time=120
note_on channel=0 note=83 velocity=50 time=0
note_on channel=0 note=56 velocity=47 time=0
note_on channel=0 note=83 velocity=0 time=119
note_on channel=0 note=56 velocity=0 time=1
note_on channel=0 note=80 velocity=47 time=0
note_on channel=0 note=80 velocity=0 time=120
note_on channel=0 note=83 velocity=51 time=0
note_on channel=0 note=64 velocity=53 time=0
note_on channel=0 note=83 velocity=0 time=119
note_on channel=0 note=64 velocity=0 time=1
note_on channel=0 note=80 velocity=47 time=0
note_on channel=0 note=80 velocity=0 time=120
note_on channel=0 note=83 velocity=50 time=0
note_on channel=0 note=59 velocity=48 time=0
note_on channel=0 note=83 velocity=0 time=119
note_on channel=0 note=59 velocity=0 time=1
note_on channel=0 note=80 velocity=47 time=0
note_on channel=0 note=80 velocity=0 time=0
note_on channel=0 note=83 velocity=51 time=0
note_on channel=0 note=68 velocity=52 time=0
note_on channel=0 note=83 velocity=0 time=119
note_on channel=0 note=68 velocity=0 time=1
note_on channel=0 note=80 velocity=47 time=0
note_on channel=0 note=80 velocity=0 time=120
note_on channel=0 note=83 velocity=50 time=0
note_on channel=0 note=64 velocity=41 time=0
note_on channel=0 note=83 velocity=0 time=119
note_on channel=0 note=64 velocity=0 time=1
note_on channel=0 note=80 velocity=47 time=0
note_on channel=0 note=80 velocity=0 time=120
note_on channel=0 note=83 velocity=52 time=0
note_on channel=0 note=71 velocity=50 time=0
note_on channel=0 note=83 velocity=0 time=119
note_on channel=0 note=71 velocity=0 time=1
note_on channel=0 note=80 velocity=47 time=0
note_on channel=0 note=80 velocity=0 time=120
note_on channel=0 note=83 velocity=51 time=0
note_on channel=0 note=68 velocity=41 time=0
note_on channel=0 note=83 velocity=0 time=119
note_on channel=0 note=68 velocity=0 time=1
note_on channel=0 note=80 velocity=47 time=0
note_on channel=0 note=80 velocity=0 time=120
note_on channel=0 note=83 velocity=50 time=0
note_on channel=0 note=76 velocity=50 time=0
note_on channel=0 note=83 velocity=0 time=79
note_on channel=0 note=76 velocity=0 time=1
note_on channel=0 note=80 velocity=47 time=0
note_on channel=0 note=80 velocity=0 time=120
note_on channel=0 note=83 velocity=50 time=0
note_on channel=0 note=71 velocity=41 time=0
note_on channel=0 note=83 velocity=0 time=119
note_on channel=0 note=71 velocity=0 time=1
note_on channel=0 note=80 velocity=47 time=0
note_on channel=0 note=80 velocity=0 time=120
note_on channel=0 note=83 velocity=51 time=0
note_on channel=0 note=76 velocity=50 time=0
note_on channel=0 note=83 velocity=0 time=119
note_on channel=0 note=76 velocity=0 time=1
note_on channel=0 note=80 velocity=47 time=0
note_on channel=0 note=80 velocity=0 time=120
note_on channel=0 note=83 velocity=50 time=0
note_on channel=0 note=71 velocity=39 time=0
note_on channel=0 note=83 velocity=0 time=119
note_on channel=0 note=71 velocity=0 time=1
note_on channel=0 note=80 velocity=47 time=0
note_on channel=0 note=80 velocity=0 time=120
note_on channel=0 note=83 velocity=51 time=0
note_on channel=0 note=76 velocity=50 time=0
note_on channel=0 note=83 velocity=0 time=79
note_on channel=0 note=76 velocity=0 time=1
note_on channel=0 note=80 velocity=47 time=0
note_on channel=0 note=80 velocity=0 time=80
note_on channel=0 note=83 velocity=50 time=0
note_on channel=0 note=71 velocity=41 time=0
note_on channel=0 note=83 velocity=0 time=79
note_on channel=0 note=71 velocity=0 time=1
note_on channel=0 note=80 velocity=47 time=0
note_on channel=0 note=80 velocity=0 time=80
note_on channel=0 note=83 velocity=52 time=0
note_on channel=0 note=76 velocity=50 time=0
note_on channel=0 note=83 velocity=0 time=79
note_on channel=0 note=76 velocity=0 time=1
note_on channel=0 note=80 velocity=47 time=0
note_on channel=0 note=80 velocity=0 time=80
note_on channel=0 note=83 velocity=51 time=0
note_on channel=0 note=71 velocity=42 time=0
note_on channel=0 note=83 velocity=0 time=79
note_on channel=0 note=71 velocity=0 time=1
note_on channel=0 note=80 velocity=47 time=0
note_on channel=0 note=80 velocity=0 time=80
note_on channel=0 note=75 velocity=46 time=0
note_on channel=0 note=75 velocity=0 time=60
note_on channel=0 note=81 velocity=42 time=0
note_on channel=0 note=81 velocity=0 time=120
note_on channel=0 note=83 velocity=45 time=0
note_on channel=0 note=71 velocity=37 time=0
note_on channel=0 note=83 velocity=0 time=119
note_on channel=0 note=71 velocity=0 time=1
note_on channel=0 note=81 velocity=41 time=0
note_on channel=0 note=81 velocity=0 time=40
note_on channel=0 note=84 velocity=44 time=0
note_on channel=0 note=75 velocity=43 time=0
note_on channel=0 note=84 velocity=0 time=119
note_on channel=0 note=75 velocity=0 time=1
note_on channel=0 note=81 velocity=40 time=0
note_on channel=0 note=81 velocity=0 time=40
note_on channel=0 note=83 velocity=42 time=0
note_on channel=0 note=71 velocity=36 time=0
note_on channel=0 note=83 velocity=0 time=119
note_on channel=0 note=71 velocity=0 time=1
note_on channel=0 note=81 velocity=39 time=0
note_on channel=0 note=81 velocity=0 time=0
note_on channel=0 note=84 velocity=42 time=0
note_on channel=0 note=75 velocity=41 time=0
note_on channel=0 note=84 velocity=0 time=79
note_on channel=0 note=75 velocity=0 time=1
note_on channel=0 note=81 velocity=38 time=0
note_on channel=0 note=81 velocity=0 time=0
note_on channel=0 note=83 velocity=40 time=0
note_on channel=0 note=71 velocity=32 time=0
note_on channel=0 note=83 velocity=0 time=19
note_on channel=0 note=71 velocity=0 time=0
note_on channel=0 note=81 velocity=37 time=0
note_on channel=0 note=81 velocity=0 time=20
note_on channel=0 note=84 velocity=40 time=0
note_on channel=0 note=75 velocity=39 time=0
note_on channel=0 note=84 velocity=0 time=39
note_on channel=0 note=75 velocity=0 time=0
note_on channel=0 note=81 velocity=36 time=0
note_on channel=0 note=81 velocity=0 time=20
note_on channel=0 note=83 velocity=39 time=0
note_on channel=0 note=71 velocity=31 time=0
note_on channel=0 note=83 velocity=0 time=19
note_on channel=0 note=71 velocity=0 time=1
note_on channel=0 note=81 velocity=35 time=0
note_on channel=0 note=81 velocity=0 time=0
note_on channel=0 note=84 velocity=37 time=0
note_on channel=0 note=75 velocity=36 time=0
note_on channel=0 note=84 velocity=0 time=19
note_on channel=0 note=75 velocity=0 time=0
note_on channel=0 note=81 velocity=34 time=0
note_on channel=0 note=81 velocity=0 time=0
note_on channel=0 note=83 velocity=36 time=0
note_on channel=0 note=71 velocity=30 time=0
note_on channel=0 note=83 velocity=0 time=59
note_on channel=0 note=71 velocity=0 time=1
note_on channel=0 note=81 velocity=34 time=0
note_on channel=0 note=81 velocity=0 time=100
note_on channel=0 note=84 velocity=37 time=0
note_on channel=0 note=75 velocity=36 time=0
note_on channel=0 note=84 velocity=0 time=59
note_on channel=0 note=75 velocity=0 time=1
note_on channel=0 note=81 velocity=34 time=0
note_on channel=0 note=81 velocity=0 time=20
note_on channel=0 note=83 velocity=36 time=0
note_on channel=0 note=71 velocity=31 time=0
note_on channel=0 note=83 velocity=0 time=27
note_on channel=0 note=71 velocity=0 time=1
note_on channel=0 note=81 velocity=34 time=0
note_on channel=0 note=81 velocity=0 time=0
note_on channel=0 note=84 velocity=37 time=0
note_on channel=0 note=75 velocity=36 time=0
note_on channel=0 note=84 velocity=0 time=119
note_on channel=0 note=75 velocity=0 time=1
note_on channel=0 note=81 velocity=34 time=0
note_on channel=0 note=81 velocity=0 time=40
note_on channel=0 note=83 velocity=36 time=0
note_on channel=0 note=71 velocity=29 time=0
note_on channel=0 note=83 velocity=0 time=119
note_on channel=0 note=71 velocity=0 time=0
note_on channel=0 note=81 velocity=34 time=0
note_on channel=0 note=81 velocity=0 time=120
note_on channel=0 note=84 velocity=38 time=0
note_on channel=0 note=75 velocity=36 time=0
note_on channel=0 note=84 velocity=0 time=79
note_on channel=0 note=75 velocity=0 time=1
note_on channel=0 note=81 velocity=34 time=0
note_on channel=0 note=81 velocity=0 time=40
note_on channel=0 note=83 velocity=37 time=0
note_on channel=0 note=71 velocity=30 time=0
note_on channel=0 note=83 velocity=0 time=119
note_on channel=0 note=71 velocity=0 time=0
note_on channel=0 note=81 velocity=34 time=0
note_on channel=0 note=81 velocity=0 time=0
note_on channel=0 note=85 velocity=37 time=0
note_on channel=0 note=75 velocity=37 time=0
note_on channel=0 note=75 velocity=0 time=0
note_on channel=0 note=76 velocity=32 time=0
note_on channel=0 note=85 velocity=0 time=0
note_on channel=0 note=81 velocity=34 time=0
note_on channel=0 note=76 velocity=0 time=16
note_on channel=0 note=75 velocity=36 time=0
note_on channel=0 note=75 velocity=0 time=0
note_on channel=0 note=81 velocity=0 time=0
note_on channel=0 note=83 velocity=36 time=0
note_on channel=0 note=76 velocity=31 time=0
note_on channel=0 note=76 velocity=0 time=0
note_on channel=0 note=75 velocity=36 time=0
note_on channel=0 note=83 velocity=0 time=0
note_on channel=0 note=81 velocity=35 time=0
note_on channel=0 note=75 velocity=0 time=0
note_on channel=0 note=76 velocity=33 time=0
note_on channel=0 note=76 velocity=0 time=50
note_on channel=0 note=81 velocity=0 time=0
note_on channel=0 note=85 velocity=38 time=0
note_on channel=0 note=75 velocity=37 time=0
note_on channel=0 note=75 velocity=0 time=0
note_on channel=0 note=76 velocity=33 time=0
note_on channel=0 note=85 velocity=0 time=30
note_on channel=0 note=81 velocity=36 time=0
note_on channel=0 note=76 velocity=0 time=0
note_on channel=0 note=75 velocity=37 time=0
note_on channel=0 note=75 velocity=0 time=0
note_on channel=0 note=81 velocity=0 time=0
note_on channel=0 note=83 velocity=38 time=0
note_on channel=0 note=76 velocity=33 time=0
note_on channel=0 note=76 velocity=0 time=20
note_on channel=0 note=75 velocity=38 time=0
note_on channel=0 note=83 velocity=0 time=0
note_on channel=0 note=81 velocity=36 time=0
note_on channel=0 note=75 velocity=0 time=0
note_on channel=0 note=76 velocity=34 time=0
note_on channel=0 note=76 velocity=0 time=10
note_on channel=0 note=81 velocity=0 time=0
note_on channel=0 note=85 velocity=40 time=0
note_on channel=0 note=75 velocity=38 time=0
note_on channel=0 note=75 velocity=0 time=0
note_on channel=0 note=76 velocity=35 time=0
note_on channel=0 note=85 velocity=0 time=0
note_on channel=0 note=81 velocity=37 time=0
note_on channel=0 note=76 velocity=0 time=0
note_on channel=0 note=75 velocity=39 time=0
note_on channel=0 note=75 velocity=0 time=20
note_on channel=0 note=81 velocity=0 time=0
note_on channel=0 note=83 velocity=40 time=0
note_on channel=0 note=76 velocity=35 time=0
note_on channel=0 note=76 velocity=0 time=10
note_on channel=0 note=75 velocity=39 time=0
note_on channel=0 note=83 velocity=0 time=10
note_on channel=0 note=81 velocity=38 time=0
note_on channel=0 note=75 velocity=0 time=40
note_on channel=0 note=76 velocity=36 time=0
note_on channel=0 note=76 velocity=0 time=20
note_on channel=0 note=81 velocity=0 time=0
note_on channel=0 note=85 velocity=43 time=0
note_on channel=0 note=75 velocity=40 time=0
note_on channel=0 note=75 velocity=0 time=0
note_on channel=0 note=76 velocity=36 time=0
note_on channel=0 note=85 velocity=0 time=0
note_on channel=0 note=81 velocity=39 time=0
note_on channel=0 note=76 velocity=0 time=0
note_on channel=0 note=75 velocity=40 time=0
note_on channel=0 note=75 velocity=0 time=30
note_on channel=0 note=81 velocity=0 time=0
note_on channel=0 note=83 velocity=43 time=0
note_on channel=0 note=76 velocity=36 time=0
note_on channel=0 note=76 velocity=0 time=20
note_on channel=0 note=75 velocity=41 time=0
note_on channel=0 note=83 velocity=0 time=0
note_on channel=0 note=81 velocity=40 time=0
note_on channel=0 note=75 velocity=0 time=0
note_on channel=0 note=76 velocity=37 time=0
note_on channel=0 note=76 velocity=0 time=0
note_on channel=0 note=81 velocity=0 time=0
note_on channel=0 note=90 velocity=44 time=0
note_on channel=0 note=75 velocity=41 time=0
note_on channel=0 note=75 velocity=0 time=10
note_on channel=0 note=76 velocity=36 time=0
note_on channel=0 note=90 velocity=0 time=0
note_on channel=0 note=83 velocity=41 time=0
note_on channel=0 note=81 velocity=41 time=0
note_on channel=0 note=76 velocity=0 time=0
note_on channel=0 note=75 velocity=42 time=0
note_on channel=0 note=75 velocity=0 time=0
note_on channel=0 note=81 velocity=0 time=0
note_on channel=0 note=83 velocity=0 time=0
note_on channel=0 note=90 velocity=43 time=0
note_on channel=0 note=76 velocity=37 time=0
note_on channel=0 note=76 velocity=0 time=10
note_on channel=0 note=75 velocity=42 time=0
note_on channel=0 note=90 velocity=0 time=0
note_on channel=0 note=83 velocity=41 time=0
note_on channel=0 note=81 velocity=41 time=0
note_on channel=0 note=75 velocity=0 time=20
note_on channel=0 note=76 velocity=37 time=0
note_on channel=0 note=76 velocity=0 time=10
note_on channel=0 note=81 velocity=0 time=0
note_on channel=0 note=83 velocity=0 time=0
note_on channel=0 note=90 velocity=46 time=0
note_on channel=0 note=75 velocity=43 time=0
note_on channel=0 note=75 velocity=0 time=30
note_on channel=0 note=76 velocity=38 time=0
note_on channel=0 note=90 velocity=0 time=0
note_on channel=0 note=83 velocity=42 time=0
note_on channel=0 note=81 velocity=42 time=0
note_on channel=0 note=76 velocity=0 time=0
note_on channel=0 note=75 velocity=43 time=0
note_on channel=0 note=75 velocity=0 time=0
note_on channel=0 note=81 velocity=0 time=0
note_on channel=0 note=83 velocity=0 time=0
note_on channel=0 note=90 velocity=46 time=0
note_on channel=0 note=76 velocity=39 time=0
note_on channel=0 note=76 velocity=0 time=0
note_on channel=0 note=75 velocity=44 time=0
note_on channel=0 note=90 velocity=0 time=0
note_on channel=0 note=83 velocity=44 time=0
note_on channel=0 note=81 velocity=44 time=0
note_on channel=0 note=75 velocity=0 time=0
note_on channel=0 note=76 velocity=39 time=0
note_on channel=0 note=76 velocity=0 time=10
note_on channel=0 note=81 velocity=0 time=0
note_on channel=0 note=83 velocity=0 time=0
note_on channel=0 note=90 velocity=49 time=0
note_on channel=0 note=75 velocity=44 time=0
note_on channel=0 note=75 velocity=0 time=0
note_on channel=0 note=76 velocity=38 time=0
note_on channel=0 note=90 velocity=0 time=0
note_on channel=0 note=83 velocity=45 time=0
note_on channel=0 note=81 velocity=45 time=0
note_on channel=0 note=76 velocity=0 time=0
note_on channel=0 note=75 velocity=45 time=0
note_on channel=0 note=75 velocity=0 time=0
note_on channel=0 note=81 velocity=0 time=0
note_on channel=0 note=83 velocity=0 time=0
note_on channel=0 note=90 velocity=49 time=0
note_on channel=0 note=76 velocity=38 time=0
note_on channel=0 note=76 velocity=0 time=10
note_on channel=0 note=75 velocity=45 time=0
note_on channel=0 note=90 velocity=0 time=0
note_on channel=0 note=83 velocity=47 time=0
note_on channel=0 note=81 velocity=47 time=0
note_on channel=0 note=75 velocity=0 time=0
note_on channel=0 note=76 velocity=40 time=0
note_on channel=0 note=76 velocity=0 time=30
note_on channel=0 note=81 velocity=0 time=0
note_on channel=0 note=83 velocity=0 time=0
note_on channel=0 note=90 velocity=54 time=0
note_on channel=0 note=75 velocity=50 time=0
note_on channel=0 note=75 velocity=0 time=16
note_on channel=0 note=76 velocity=44 time=0
note_on channel=0 note=90 velocity=0 time=0
note_on channel=0 note=83 velocity=48 time=0
note_on channel=0 note=81 velocity=48 time=0
note_on channel=0 note=76 velocity=0 time=32
note_on channel=0 note=75 velocity=50 time=0
note_on channel=0 note=81 velocity=0 time=0
note_on channel=0 note=83 velocity=0 time=0
note_on channel=0 note=90 velocity=53 time=0
note_on channel=0 note=75 velocity=0 time=8
note_on channel=0 note=73 velocity=52 time=0
note_on channel=0 note=90 velocity=0 time=0
note_on channel=0 note=83 velocity=49 time=0
note_on channel=0 note=81 velocity=49 time=0
note_on channel=0 note=73 velocity=0 time=24
note_on channel=0 note=75 velocity=47 time=0
note_on channel=0 note=75 velocity=0 time=96
note_on channel=0 note=81 velocity=0 time=0
note_on channel=0 note=83 velocity=0 time=0
note_on channel=0 note=80 velocity=72 time=0
note_on channel=0 note=83 velocity=72 time=0
note_on channel=0 note=88 velocity=72 time=0
note_on channel=0 note=64 velocity=48 time=0
note_on channel=0 note=76 velocity=57 time=0
note_on channel=0 note=76 velocity=0 time=0
note_on channel=0 note=74 velocity=45 time=0
note_on channel=0 note=71 velocity=38 time=0
note_on channel=0 note=68 velocity=38 time=0
note_on channel=0 note=80 velocity=0 time=480
note_on channel=0 note=88 velocity=0 time=0
note_on channel=0 note=83 velocity=0 time=0
note_on channel=0 note=88 velocity=58 time=0
note_on channel=0 note=88 velocity=0 time=120
note_on channel=0 note=86 velocity=57 time=0
note_on channel=0 note=86 velocity=0 time=120
note_on channel=0 note=84 velocity=56 time=0
note_on channel=0 note=84 velocity=0 time=120
note_on channel=0 note=83 velocity=55 time=0
note_on channel=0 note=83 velocity=0 time=0
note_on channel=0 note=74 velocity=0 time=0
note_on channel=0 note=68 velocity=0 time=0
note_on channel=0 note=71 velocity=0 time=0
note_on channel=0 note=84 velocity=58 time=0
note_on channel=0 note=69 velocity=39 time=0
note_on channel=0 note=72 velocity=47 time=0
note_on channel=0 note=84 velocity=0 time=120
note_on channel=0 note=83 velocity=57 time=0
note_on channel=0 note=83 velocity=0 time=120
note_on channel=0 note=81 velocity=56 time=0
note_on channel=0 note=81 velocity=0 time=120
note_on channel=0 note=80 velocity=55 time=0
note_on channel=0 note=80 velocity=0 time=0
note_on channel=0 note=81 velocity=51 time=0
note_on channel=0 note=81 velocity=0 time=120
note_on channel=0 note=83 velocity=52 time=0
note_on channel=0 note=83 velocity=0 time=120
note_on channel=0 note=84 velocity=53 time=0
note_on channel=0 note=84 velocity=0 time=0
note_on channel=0 note=86 velocity=54 time=0
note_on channel=0 note=86 velocity=0 time=0
note_on channel=0 note=72 velocity=0 time=0
note_on channel=0 note=69 velocity=0 time=0
note_on channel=0 note=88 velocity=56 time=0
note_on channel=0 note=74 velocity=46 time=0
note_on channel=0 note=68 velocity=39 time=0
note_on channel=0 note=71 velocity=39 time=0
note_on channel=0 note=88 velocity=0 time=120
note_on channel=0 note=89 velocity=57 time=0
note_on channel=0 note=89 velocity=0 time=120
note_on channel=0 note=88 velocity=57 time=0
note_on channel=0 note=88 velocity=0 time=120
note_on channel=0 note=87 velocity=56 time=0
note_on channel=0 note=87 velocity=0 time=40
note_on channel=0 note=88 velocity=56 time=0
note_on channel=0 note=88 velocity=0 time=120
note_on channel=0 note=86 velocity=56 time=0
note_on channel=0 note=86 velocity=0 time=80
note_on channel=0 note=84 velocity=56 time=0
note_on channel=0 note=84 velocity=0 time=0
note_on channel=0 note=83 velocity=56 time=0
note_on channel=0 note=83 velocity=0 time=120
note_on channel=0 note=71 velocity=0 time=0
note_on channel=0 note=64 velocity=0 time=0
note_on channel=0 note=74 velocity=0 time=0
note_on channel=0 note=68 velocity=0 time=0
note_on channel=0 note=84 velocity=57 time=0
note_on channel=0 note=72 velocity=48 time=0
note_on channel=0 note=69 velocity=40 time=0
note_on channel=0 note=84 velocity=0 time=40
note_on channel=0 note=86 velocity=57 time=0
note_on channel=0 note=86 velocity=0 time=120
note_on channel=0 note=84 velocity=57 time=0
note_on channel=0 note=84 velocity=0 time=80
note_on channel=0 note=83 velocity=53 time=0
note_on channel=0 note=83 velocity=0 time=0
note_on channel=0 note=69 velocity=0 time=0
note_on channel=0 note=72 velocity=0 time=0
note_on channel=0 note=81 velocity=56 time=0
note_on channel=0 note=81 velocity=0 time=120
note_on channel=0 note=80 velocity=52 time=0
note_on channel=0 note=80 velocity=0 time=40
note_on channel=0 note=81 velocity=56 time=0
note_on channel=0 note=81 velocity=0 time=120
note_on channel=0 note=83 velocity=52 time=0
note_on channel=0 note=83 velocity=0 time=0
note_on channel=0 note=72 velocity=45 time=0
note_on channel=0 note=84 velocity=59 time=0
note_on channel=0 note=69 velocity=47 time=0
note_on channel=0 note=57 velocity=39 time=0
note_on channel=0 note=60 velocity=39 time=0
note_on channel=0 note=66 velocity=39 time=0
note_on channel=0 note=84 velocity=0 time=228
note_on channel=0 note=81 velocity=52 time=0
note_on channel=0 note=81 velocity=0 time=0
note_on channel=0 note=78 velocity=52 time=0
note_on channel=0 note=78 velocity=0 time=0
note_on channel=0 note=69 velocity=0 time=0
note_on channel=0 note=57 velocity=0 time=0
note_on channel=0 note=72 velocity=0 time=0
note_on channel=0 note=66 velocity=0 time=0
note_on channel=0 note=60 velocity=0 time=0
note_on channel=0 note=71 velocity=45 time=0
note_on channel=0 note=83 velocity=57 time=0
note_on channel=0 note=67 velocity=46 time=0
note_on channel=0 note=59 velocity=39 time=0
note_on channel=0 note=64 velocity=39 time=0
note_on channel=0 note=83 velocity=0 time=365
note_on channel=0 note=79 velocity=52 time=0
note_on channel=0 note=79 velocity=0 time=0
note_on channel=0 note=76 velocity=52 time=0
note_on channel=0 note=76 velocity=0 time=0
note_on channel=0 note=59 velocity=0 time=0
note_on channel=0 note=71 velocity=0 time=0
note_on channel=0 note=67 velocity=0 time=0
note_on channel=0 note=64 velocity=0 time=0
note_on channel=0 note=69 velocity=45 time=0
note_on channel=0 note=81 velocity=57 time=0
note_on channel=0 note=63 velocity=37 time=0
note_on channel=0 note=66 velocity=44 time=0
note_on channel=0 note=59 velocity=37 time=0
note_on channel=0 note=81 velocity=0 time=331
note_on channel=0 note=78 velocity=52 time=0
note_on channel=0 note=78 velocity=0 time=240
note_on channel=0 note=75 velocity=52 time=0
note_on channel=0 note=75 velocity=0 time=0
note_on channel=0 note=66 velocity=0 time=0
note_on channel=0 note=69 velocity=0 time=0
note_on channel=0 note=63 velocity=0 time=0
note_on channel=0 note=59 velocity=0 time=0
note_on channel=0 note=76 velocity=72 time=0
note_on channel=0 note=64 velocity=56 time=0
note_on channel=0 note=52 velocity=45 time=0
note_on channel=0 note=64 velocity=0 time=0
note_on channel=0 note=56 velocity=38 time=0
note_on channel=0 note=62 velocity=45 time=0
note_on channel=0 note=59 velocity=38 time=0
note_on channel=0 note=76 velocity=0 time=0
note_on channel=0 note=76 velocity=58 time=0
note_on channel=0 note=76 velocity=0 time=120
note_on channel=0 note=74 velocity=57 time=0
note_on channel=0 note=74 velocity=0 time=120
note_on channel=0 note=72 velocity=56 time=0
note_on channel=0 note=72 velocity=0 time=120
note_on channel=0 note=71 velocity=55 time=0
note_on channel=0 note=71 velocity=0 time=120
note_on channel=0 note=62 velocity=0 time=0
note_on channel=0 note=59 velocity=0 time=0
note_on channel=0 note=56 velocity=0 time=0
note_on channel=0 note=72 velocity=58 time=0
note_on channel=0 note=57 velocity=39 time=0
note_on channel=0 note=60 velocity=47 time=0
note_on channel=0 note=72 velocity=0 time=120
note_on channel=0 note=71 velocity=57 time=0
note_on channel=0 note=71 velocity=0 time=120
note_on channel=0 note=69 velocity=56 time=0
note_on channel=0 note=69 velocity=0 time=120
note_on channel=0 note=68 velocity=55 time=0
note_on channel=0 note=68 velocity=0 time=120
note_on channel=0 note=69 velocity=51 time=0
note_on channel=0 note=69 velocity=0 time=120
note_on channel=0 note=71 velocity=52 time=0
note_on channel=0 note=71 velocity=0 time=120
note_on channel=0 note=72 velocity=53 time=0
note_on channel=0 note=72 velocity=0 time=0
note_on channel=0 note=74 velocity=54 time=0
note_on channel=0 note=74 velocity=0 time=0
note_on channel=0 note=60 velocity=0 time=0
note_on channel=0 note=57 velocity=0 time=0
note_on channel=0 note=76 velocity=56 time=0
note_on channel=0 note=62 velocity=46 time=0
note_on channel=0 note=59 velocity=39 time=0
note_on channel=0 note=56 velocity=39 time=0
note_on channel=0 note=76 velocity=0 time=120
note_on channel=0 note=77 velocity=57 time=0
note_on channel=0 note=77 velocity=0 time=120
note_on channel=0 note=76 velocity=57 time=0
note_on channel=0 note=76 velocity=0 time=120
note_on channel=0 note=75 velocity=56 time=0
note_on channel=0 note=75 velocity=0 time=0
note_on channel=0 note=76 velocity=56 time=0
note_on channel=0 note=76 velocity=0 time=120
note_on channel=0 note=74 velocity=56 time=0
note_on channel=0 note=74 velocity=0 time=80
note_on channel=0 note=72 velocity=56 time=0
note_on channel=0 note=72 velocity=0 time=80
note_on channel=0 note=71 velocity=56 time=0
note_on channel=0 note=71 velocity=0 time=80
note_on channel=0 note=56 velocity=0 time=0
note_on channel=0 note=52 velocity=0 time=0
note_on channel=0 note=62 velocity=0 time=0
note_on channel=0 note=59 velocity=0 time=0
note_on channel=0 note=72 velocity=57 time=0
note_on channel=0 note=60 velocity=48 time=0
note_on channel=0 note=57 velocity=48 time=0
note_on channel=0 note=72 velocity=0 time=80
note_on channel=0 note=74 velocity=57 time=0
note_on channel=0 note=74 velocity=0 time=80
note_on channel=0 note=72 velocity=57 time=0
note_on channel=0 note=72 velocity=0 time=80
note_on channel=0 note=71 velocity=53 time=0
note_on channel=0 note=71 velocity=0 time=80
note_on channel=0 note=57 velocity=0 time=0
note_on channel=0 note=60 velocity=0 time=0
note_on channel=0 note=69 velocity=56 time=0
note_on channel=0 note=69 velocity=0 time=80
note_on channel=0 note=68 velocity=52 time=0
note_on channel=0 note=68 velocity=0 time=80
note_on channel=0 note=69 velocity=56 time=0
note_on channel=0 note=69 velocity=0 time=80
note_on channel=0 note=71 velocity=52 time=0
note_on channel=0 note=71 velocity=0 time=0
note_on channel=0 note=60 velocity=45 time=0
note_on channel=0 note=72 velocity=59 time=0
note_on channel=0 note=45 velocity=39 time=0
note_on channel=0 note=54 velocity=39 time=0
note_on channel=0 note=57 velocity=47 time=0
note_on channel=0 note=48 velocity=39 time=0
note_on channel=0 note=72 velocity=0 time=0
note_on channel=0 note=69 velocity=52 time=0
note_on channel=0 note=69 velocity=0 time=0
note_on channel=0 note=66 velocity=52 time=0
note_on channel=0 note=66 velocity=0 time=0
note_on channel=0 note=45 velocity=0 time=0
note_on channel=0 note=54 velocity=0 time=0
note_on channel=0 note=60 velocity=0 time=0
note_on channel=0 note=48 velocity=0 time=0
note_on channel=0 note=57 velocity=0 time=0
note_on channel=0 note=59 velocity=45 time=0
note_on channel=0 note=71 velocity=57 time=0
note_on channel=0 note=55 velocity=46 time=0
note_on channel=0 note=47 velocity=39 time=0
note_on channel=0 note=52 velocity=39 time=0
note_on channel=0 note=71 velocity=0 time=0
note_on channel=0 note=67 velocity=52 time=0
note_on channel=0 note=67 velocity=0 time=0
note_on channel=0 note=64 velocity=52 time=0
note_on channel=0 note=64 velocity=0 time=0
note_on channel=0 note=47 velocity=0 time=0
note_on channel=0 note=59 velocity=0 time=0
note_on channel=0 note=55 velocity=0 time=0
note_on channel=0 note=52 velocity=0 time=0
note_on channel=0 note=57 velocity=45 time=0
note_on channel=0 note=69 velocity=57 time=0
note_on channel=0 note=54 velocity=44 time=0
note_on channel=0 note=51 velocity=37 time=0
note_on channel=0 note=47 velocity=37 time=0
note_on channel=0 note=69 velocity=0 time=0
note_on channel=0 note=66 velocity=52 time=0
note_on channel=0 note=66 velocity=0 time=240
note_on channel=0 note=63 velocity=52 time=0
note_on channel=0 note=63 velocity=0 time=0
note_on channel=0 note=51 velocity=0 time=0
note_on channel=0 note=57 velocity=0 time=0
note_on channel=0 note=54 velocity=0 time=0
note_on channel=0 note=47 velocity=0 time=0
note_on channel=0 note=64 velocity=55 time=0
note_on channel=0 note=55 velocity=44 time=0
note_on channel=0 note=52 velocity=37 time=0
note_on channel=0 note=52 velocity=0 time=0
note_on channel=0 note=55 velocity=0 time=0
note_on channel=0 note=64 velocity=0 time=0
note_on channel=0 note=76 velocity=68 time=0
note_on channel=0 note=43 velocity=42 time=0
note_on channel=0 note=52 velocity=51 time=0
note_on channel=0 note=76 velocity=0 time=240
note_on channel=0 note=74 velocity=63 time=0
note_on channel=0 note=74 velocity=0 time=240
note_on channel=0 note=43 velocity=0 time=0
note_on channel=0 note=72 velocity=66 time=0
note_on channel=0 note=45 velocity=42 time=0
note_on channel=0 note=52 velocity=0 time=240
note_on channel=0 note=53 velocity=49 time=0
note_on channel=0 note=53 velocity=0 time=240
note_on channel=0 note=72 velocity=0 time=0
note_on channel=0 note=69 velocity=61 time=0
note_on channel=0 note=55 velocity=51 time=0
note_on channel=0 note=55 velocity=0 time=0
note_on channel=0 note=69 velocity=0 time=0
note_on channel=0 note=65 velocity=54 time=0
note_on channel=0 note=57 velocity=55 time=0
note_on channel=0 note=57 velocity=0 time=0
note_on channel=0 note=65 velocity=0 time=0
note_on channel=0 note=45 velocity=0 time=0
note_on channel=0 note=71 velocity=51 time=0
note_on channel=0 note=59 velocity=41 time=0
note_on channel=0 note=55 velocity=35 time=0
note_on channel=0 note=47 velocity=35 time=0
note_on channel=0 note=71 velocity=0 time=240
note_on channel=0 note=67 velocity=46 time=0
note_on channel=0 note=67 velocity=0 time=240
note_on channel=0 note=64 velocity=46 time=0
note_on channel=0 note=64 velocity=0 time=240
note_on channel=0 note=59 velocity=0 time=0
note_on channel=0 note=55 velocity=0 time=0
note_on channel=0 note=69 velocity=51 time=0
note_on channel=0 note=57 velocity=39 time=0
note_on channel=0 note=54 velocity=33 time=0
note_on channel=0 note=69 velocity=0 time=320
note_on channel=0 note=66 velocity=46 time=0
note_on channel=0 note=66 velocity=0 time=240
note_on channel=0 note=63 velocity=46 time=0
note_on channel=0 note=63 velocity=0 time=240
note_on channel=0 note=47 velocity=0 time=0
note_on channel=0 note=57 velocity=0 time=0
note_on channel=0 note=54 velocity=0 time=0
note_on channel=0 note=64 velocity=55 time=0
note_on channel=0 note=52 velocity=37 time=0
note_on channel=0 note=55 velocity=44 time=0
note_on channel=0 note=48 velocity=37 time=0
note_on channel=0 note=48 velocity=0 time=0
note_on channel=0 note=64 velocity=0 time=0
note_on channel=0 note=52 velocity=0 time=0
note_on channel=0 note=55 velocity=0 time=0
note_on channel=0 note=72 velocity=67 time=0
note_on channel=0 note=48 velocity=51 time=0
note_on channel=0 note=40 velocity=42 time=0
note_on channel=0 note=72 velocity=0 time=240
note_on channel=0 note=71 velocity=63 time=0
note_on channel=0 note=71 velocity=0 time=240
note_on channel=0 note=40 velocity=0 time=0
note_on channel=0 note=69 velocity=66 time=0
note_on channel=0 note=41 velocity=42 time=0
note_on channel=0 note=48 velocity=0 time=240
note_on channel=0 note=50 velocity=49 time=0
note_on channel=0 note=50 velocity=0 time=240
note_on channel=0 note=69 velocity=0 time=0
note_on channel=0 note=65 velocity=61 time=0
note_on channel=0 note=52 velocity=51 time=0
note_on channel=0 note=52 velocity=0 time=0
note_on channel=0 note=65 velocity=0 time=0
note_on channel=0 note=62 velocity=54 time=0
note_on channel=0 note=53 velocity=55 time=0
note_on channel=0 note=53 velocity=0 time=0
note_on channel=0 note=62 velocity=0 time=0
note_on channel=0 note=41 velocity=0 time=0
note_on channel=0 note=67 velocity=51 time=0
note_on channel=0 note=52 velocity=35 time=0
note_on channel=0 note=55 velocity=41 time=0
note_on channel=0 note=43 velocity=35 time=0
note_on channel=0 note=67 velocity=0 time=367
note_on channel=0 note=64 velocity=46 time=0
note_on channel=0 note=64 velocity=0 time=0
note_on channel=0 note=60 velocity=46 time=0
note_on channel=0 note=60 velocity=0 time=0
note_on channel=0 note=52 velocity=0 time=0
note_on channel=0 note=55 velocity=0 time=0
note_on channel=0 note=65 velocity=51 time=0
note_on channel=0 note=50 velocity=33 time=0
note_on channel=0 note=53 velocity=39 time=0
note_on channel=0 note=65 velocity=0 time=197
note_on channel=0 note=62 velocity=46 time=0
note_on channel=0 note=62 velocity=0 time=0
note_on channel=0 note=59 velocity=46 time=0
note_on channel=0 note=59 velocity=0 time=0
note_on channel=0 note=43 velocity=0 time=0
note_on channel=0 note=50 velocity=0 time=0
note_on channel=0 note=53 velocity=0 time=0
note_on channel=0 note=60 velocity=55 time=0
note_on channel=0 note=48 velocity=37 time=0
note_on channel=0 note=52 velocity=44 time=0
note_on channel=0 note=52 velocity=0 time=0
note_on channel=0 note=48 velocity=0 time=0
note_on channel=0 note=60 velocity=0 time=0
note_on channel=0 note=77 velocity=69 time=0
note_on channel=0 note=45 velocity=42 time=0
note_on channel=0 note=53 velocity=51 time=0
note_on channel=0 note=77 velocity=0 time=240
note_on channel=0 note=76 velocity=64 time=0
note_on channel=0 note=76 velocity=0 time=240
note_on channel=0 note=45 velocity=0 time=0
note_on channel=0 note=74 velocity=66 time=0
note_on channel=0 note=46 velocity=42 time=0
note_on channel=0 note=53 velocity=0 time=240
note_on channel=0 note=55 velocity=49 time=0
note_on channel=0 note=55 velocity=0 time=240
note_on channel=0 note=74 velocity=0 time=0
note_on channel=0 note=70 velocity=61 time=0
note_on channel=0 note=57 velocity=51 time=0
note_on channel=0 note=57 velocity=0 time=0
note_on channel=0 note=70 velocity=0 time=0
note_on channel=0 note=67 velocity=54 time=0
note_on channel=0 note=58 velocity=55 time=0
note_on channel=0 note=58 velocity=0 time=0
note_on channel=0 note=67 velocity=0 time=0
note_on channel=0 note=46 velocity=0 time=0
note_on channel=0 note=72 velocity=51 time=0
note_on channel=0 note=60 velocity=41 time=0
note_on channel=0 note=48 velocity=35 time=0
note_on channel=0 note=57 velocity=35 time=0
note_on channel=0 note=72 velocity=0 time=254
note_on channel=0 note=69 velocity=46 time=0
note_on channel=0 note=69 velocity=0 time=0
note_on channel=0 note=65 velocity=46 time=0
note_on channel=0 note=65 velocity=0 time=0
note_on channel=0 note=60 velocity=0 time=0
note_on channel=0 note=57 velocity=0 time=0
note_on channel=0 note=70 velocity=51 time=0
note_on channel=0 note=55 velocity=33 time=0
note_on channel=0 note=58 velocity=39 time=0
note_on channel=0 note=70 velocity=0 time=468
note_on channel=0 note=67 velocity=46 time=0
note_on channel=0 note=67 velocity=0 time=0
note_on channel=0 note=64 velocity=46 time=0
note_on channel=0 note=64 velocity=0 time=240
note_on channel=0 note=48 velocity=0 time=0
note_on channel=0 note=55 velocity=0 time=0
note_on channel=0 note=58 velocity=0 time=0
note_on channel=0 note=65 velocity=55 time=0
note_on channel=0 note=50 velocity=37 time=0
note_on channel=0 note=53 velocity=37 time=0
note_on channel=0 note=57 velocity=44 time=0
note_on channel=0 note=65 velocity=0 time=0
note_on channel=0 note=50 velocity=0 time=0
note_on channel=0 note=53 velocity=0 time=0
note_on channel=0 note=57 velocity=0 time=0
note_on channel=0 note=65 velocity=68 time=0
note_on channel=0 note=33 velocity=42 time=0
note_on channel=0 note=41 velocity=51 time=0
note_on channel=0 note=65 velocity=0 time=240
note_on channel=0 note=64 velocity=63 time=0
note_on channel=0 note=64 velocity=0 time=240
note_on channel=0 note=33 velocity=0 time=0
note_on channel=0 note=62 velocity=66 time=0
note_on channel=0 note=34 velocity=42 time=0
note_on channel=0 note=41 velocity=0 time=240
note_on channel=0 note=43 velocity=49 time=0
note_on channel=0 note=43 velocity=0 time=240
note_on channel=0 note=62 velocity=0 time=0
note_on channel=0 note=58 velocity=61 time=0
note_on channel=0 note=45 velocity=51 time=0
note_on channel=0 note=45 velocity=0 time=0
note_on channel=0 note=58 velocity=0 time=0
note_on channel=0 note=55 velocity=54 time=0
note_on channel=0 note=46 velocity=55 time=0
note_on channel=0 note=46 velocity=0 time=0
note_on channel=0 note=55 velocity=0 time=0
note_on channel=0 note=34 velocity=0 time=0
note_on channel=0 note=60 velocity=51 time=0
note_on channel=0 note=48 velocity=41 time=0
note_on channel=0 note=36 velocity=35 time=0
note_on channel=0 note=45 velocity=35 time=0
note_on channel=0 note=60 velocity=0 time=310
note_on channel=0 note=57 velocity=46 time=0
note_on channel=0 note=57 velocity=0 time=0
note_on channel=0 note=53 velocity=46 time=0
note_on channel=0 note=53 velocity=0 time=0
note_on channel=0 note=48 velocity=0 time=0
note_on channel=0 note=45 velocity=0 time=0
note_on channel=0 note=58 velocity=51 time=0
note_on channel=0 note=43 velocity=33 time=0
note_on channel=0 note=46 velocity=39 time=0
note_on channel=0 note=58 velocity=0 time=240
note_on channel=0 note=55 velocity=46 time=0
note_on channel=0 note=55 velocity=0 time=0
note_on channel=0 note=52 velocity=46 time=0
note_on channel=0 note=52 velocity=0 time=0
note_on channel=0 note=36 velocity=0 time=0
note_on channel=0 note=43 velocity=0 time=0
note_on channel=0 note=46 velocity=0 time=0
note_on channel=0 note=45 velocity=33 time=0
note_on channel=0 note=53 velocity=40 time=0
note_on channel=0 note=41 velocity=28 time=0
note_on channel=0 note=29 velocity=25 time=0
note_on channel=0 note=29 velocity=0 time=105
note_on channel=0 note=41 velocity=0 time=0
note_on channel=0 note=45 velocity=0 time=0
note_on channel=0 note=53 velocity=0 time=120
note_on channel=0 note=41 velocity=28 time=0
note_on channel=0 note=45 velocity=33 time=0
note_on channel=0 note=36 velocity=26 time=0
note_on channel=0 note=29 velocity=22 time=0
note_on channel=0 note=29 velocity=0 time=120
note_on channel=0 note=41 velocity=0 time=0
note_on channel=0 note=45 velocity=0 time=0
note_on channel=0 note=36 velocity=0 time=0
note_on channel=0 note=41 velocity=28 time=0
note_on channel=0 note=45 velocity=33 time=0
note_on channel=0 note=36 velocity=26 time=0
note_on channel=0 note=29 velocity=22 time=0
note_on channel=0 note=29 velocity=0 time=120
note_on channel=0 note=41 velocity=0 time=0
note_on channel=0 note=45 velocity=0 time=0
note_on channel=0 note=36 velocity=0 time=0
note_on channel=0 note=41 velocity=28 time=120
note_on channel=0 note=45 velocity=34 time=0
note_on channel=0 note=36 velocity=27 time=0
note_on channel=0 note=29 velocity=22 time=0
note_on channel=0 note=29 velocity=0 time=120
note_on channel=0 note=41 velocity=0 time=0
note_on channel=0 note=45 velocity=0 time=0
note_on channel=0 note=36 velocity=0 time=0
note_on channel=0 note=41 velocity=28 time=120
note_on channel=0 note=45 velocity=34 time=0
note_on channel=0 note=36 velocity=27 time=0
note_on channel=0 note=29 velocity=22 time=0
note_on channel=0 note=29 velocity=0 time=100
note_on channel=0 note=41 velocity=0 time=0
note_on channel=0 note=45 velocity=0 time=0
note_on channel=0 note=36 velocity=0 time=0
note_on channel=0 note=41 velocity=28 time=120
note_on channel=0 note=45 velocity=34 time=0
note_on channel=0 note=36 velocity=28 time=0
note_on channel=0 note=29 velocity=23 time=0
note_on channel=0 note=29 velocity=0 time=120
note_on channel=0 note=41 velocity=0 time=0
note_on channel=0 note=45 velocity=0 time=0
note_on channel=0 note=36 velocity=0 time=0
note_on channel=0 note=41 velocity=29 time=0
note_on channel=0 note=45 velocity=35 time=0
note_on channel=0 note=36 velocity=28 time=0
note_on channel=0 note=29 velocity=23 time=0
note_on channel=0 note=29 velocity=0 time=120
note_on channel=0 note=41 velocity=0 time=0
note_on channel=0 note=45 velocity=0 time=0
note_on channel=0 note=36 velocity=0 time=0
note_on channel=0 note=41 velocity=29 time=120
note_on channel=0 note=45 velocity=35 time=0
note_on channel=0 note=36 velocity=29 time=0
note_on channel=0 note=29 velocity=24 time=0
note_on channel=0 note=29 velocity=0 time=120
note_on channel=0 note=41 velocity=0 time=0
note_on channel=0 note=45 velocity=0 time=0
note_on channel=0 note=36 velocity=0 time=0
note_on channel=0 note=41 velocity=30 time=120
note_on channel=0 note=45 velocity=36 time=0
note_on channel=0 note=29 velocity=25 time=0
note_on channel=0 note=36 velocity=30 time=0
note_on channel=0 note=36 velocity=0 time=80
note_on channel=0 note=41 velocity=0 time=0
note_on channel=0 note=45 velocity=0 time=0
note_on channel=0 note=29 velocity=0 time=0
note_on channel=0 note=41 velocity=30 time=120
note_on channel=0 note=45 velocity=36 time=0
note_on channel=0 note=29 velocity=22 time=0
note_on channel=0 note=36 velocity=27 time=0
note_on channel=0 note=36 velocity=0 time=120
note_on channel=0 note=41 velocity=0 time=0
note_on channel=0 note=45 velocity=0 time=0
note_on channel=0 note=29 velocity=0 time=0
note_on channel=0 note=41 velocity=31 time=0
note_on channel=0 note=45 velocity=37 time=0
note_on channel=0 note=29 velocity=23 time=0
note_on channel=0 note=36 velocity=28 time=0
note_on channel=0 note=36 velocity=0 time=120
note_on channel=0 note=41 velocity=0 time=0
note_on channel=0 note=45 velocity=0 time=0
note_on channel=0 note=29 velocity=0 time=0
note_on channel=0 note=41 velocity=32 time=120
note_on channel=0 note=45 velocity=38 time=0
note_on channel=0 note=29 velocity=24 time=0
note_on channel=0 note=36 velocity=29 time=0
note_on channel=0 note=36 velocity=0 time=120
note_on channel=0 note=41 velocity=0 time=0
note_on channel=0 note=45 velocity=0 time=0
note_on channel=0 note=29 velocity=0 time=0
note_on channel=0 note=41 velocity=33 time=0
note_on channel=0 note=45 velocity=39 time=0
note_on channel=0 note=29 velocity=25 time=0
note_on channel=0 note=36 velocity=30 time=0
note_on channel=0 note=36 velocity=0 time=120
note_on channel=0 note=41 velocity=0 time=0
note_on channel=0 note=45 velocity=0 time=0
note_on channel=0 note=29 velocity=0 time=0
note_on channel=0 note=41 velocity=34 time=120
note_on channel=0 note=45 velocity=40 time=0
note_on channel=0 note=29 velocity=25 time=0
note_on channel=0 note=36 velocity=30 time=0
note_on channel=0 note=36 velocity=0 time=120
note_on channel=0 note=41 velocity=0 time=0
note_on channel=0 note=45 velocity=0 time=0
note_on channel=0 note=29 velocity=0 time=0
note_on channel=0 note=43 velocity=34 time=120
note_on channel=0 note=47 velocity=40 time=0
note_on channel=0 note=29 velocity=25 time=0
note_on channel=0 note=38 velocity=30 time=0
note_on channel=0 note=38 velocity=0 time=120
note_on channel=0 note=43 velocity=0 time=0
note_on channel=0 note=47 velocity=0 time=0
note_on channel=0 note=29 velocity=0 time=0
note_on channel=0 note=43 velocity=34 time=120
note_on channel=0 note=47 velocity=40 time=0
note_on channel=0 note=29 velocity=25 time=0
note_on channel=0 note=38 velocity=30 time=0
note_on channel=0 note=38 velocity=0 time=120
note_on channel=0 note=43 velocity=0 time=0
note_on channel=0 note=47 velocity=0 time=0
note_on channel=0 note=29 velocity=0 time=0
note_on channel=0 note=48 velocity=46 time=0
note_on channel=0 note=40 velocity=25 time=0
note_on channel=0 note=43 velocity=30 time=0
note_on channel=0 note=43 velocity=0 time=180
note_on channel=0 note=40 velocity=0 time=0
note_on channel=0 note=40 velocity=25 time=60
note_on channel=0 note=43 velocity=30 time=0
note_on channel=0 note=43 velocity=0 time=180
note_on channel=0 note=40 velocity=0 time=0
note_on channel=0 note=40 velocity=25 time=60
note_on channel=0 note=43 velocity=30 time=0
note_on channel=0 note=43 velocity=0 time=180
note_on channel=0 note=40 velocity=0 time=0
note_on channel=0 note=48 velocity=0 time=60
note_on channel=0 note=52 velocity=40 time=0
note_on channel=0 note=40 velocity=25 time=0
note_on channel=0 note=43 velocity=30 time=0
note_on channel=0 note=52 velocity=0 time=120
note_on channel=0 note=50 velocity=40 time=0
note_on channel=0 note=43 velocity=0 time=60
note_on channel=0 note=40 velocity=0 time=0
note_on channel=0 note=50 velocity=0 time=60
note_on channel=0 note=48 velocity=45 time=0
note_on channel=0 note=40 velocity=25 time=0
note_on channel=0 note=43 velocity=30 time=0
note_on channel=0 note=48 velocity=0 time=120
note_on channel=0 note=43 velocity=0 time=60
note_on channel=0 note=40 velocity=0 time=0
note_on channel=0 note=40 velocity=25 time=60
note_on channel=0 note=43 velocity=30 time=0
note_on channel=0 note=43 velocity=0 time=180
note_on channel=0 note=40 velocity=0 time=0
note_on channel=0 note=40 velocity=25 time=60
note_on channel=0 note=43 velocity=30 time=0
note_on channel=0 note=43 velocity=0 time=180
note_on channel=0 note=40 velocity=0 time=0
note_on channel=0 note=40 velocity=25 time=0
note_on channel=0 note=43 velocity=30 time=0
note_on channel=0 note=43 velocity=0 time=180
note_on channel=0 note=40 velocity=0 time=0
note_on channel=0 note=78 velocity=46 time=0
note_on channel=0 note=78 velocity=0 time=0
note_on channel=0 note=79 velocity=57 time=0
note_on channel=0 note=39 velocity=25 time=0
note_on channel=0 note=43 velocity=30 time=0
note_on channel=0 note=43 velocity=0 time=180
note_on channel=0 note=39 velocity=0 time=0
note_on channel=0 note=39 velocity=25 time=60
note_on channel=0 note=43 velocity=30 time=0
note_on channel=0 note=43 velocity=0 time=180
note_on channel=0 note=39 velocity=0 time=0
note_on channel=0 note=39 velocity=25 time=60
note_on channel=0 note=43 velocity=30 time=0
note_on channel=0 note=79 velocity=0 time=120
note_on channel=0 note=77 velocity=48 time=0
note_on channel=0 note=43 velocity=0 time=60
note_on channel=0 note=39 velocity=0 time=0
note_on channel=0 note=77 velocity=0 time=60
note_on channel=0 note=75 velocity=47 time=0
note_on channel=0 note=39 velocity=25 time=0
note_on channel=0 note=43 velocity=30 time=0
note_on channel=0 note=75 velocity=0 time=120
note_on channel=0 note=74 velocity=45 time=0
note_on channel=0 note=43 velocity=0 time=60
note_on channel=0 note=39 velocity=0 time=0
note_on channel=0 note=74 velocity=0 time=0
note_on channel=0 note=72 velocity=44 time=0
note_on channel=0 note=39 velocity=25 time=0
note_on channel=0 note=43 velocity=30 time=0
note_on channel=0 note=43 velocity=0 time=180
note_on channel=0 note=39 velocity=0 time=0
note_on channel=0 note=72 velocity=0 time=60
note_on channel=0 note=39 velocity=25 time=0
note_on channel=0 note=43 velocity=30 time=0
note_on channel=0 note=43 velocity=0 time=180
note_on channel=0 note=39 velocity=0 time=0
note_on channel=0 note=39 velocity=25 time=60
note_on channel=0 note=43 velocity=30 time=0
note_on channel=0 note=43 velocity=0 time=180
note_on channel=0 note=39 velocity=0 time=0
note_on channel=0 note=39 velocity=25 time=0
note_on channel=0 note=43 velocity=30 time=0
note_on channel=0 note=43 velocity=0 time=180
note_on channel=0 note=39 velocity=0 time=0
note_on channel=0 note=54 velocity=46 time=0
note_on channel=0 note=38 velocity=25 time=0
note_on channel=0 note=45 velocity=30 time=0
note_on channel=0 note=45 velocity=0 time=180
note_on channel=0 note=38 velocity=0 time=0
note_on channel=0 note=38 velocity=25 time=60
note_on channel=0 note=45 velocity=30 time=0
note_on channel=0 note=45 velocity=0 time=180
note_on channel=0 note=38 velocity=0 time=0
note_on channel=0 note=38 velocity=25 time=60
note_on channel=0 note=45 velocity=30 time=0
note_on channel=0 note=45 velocity=0 time=180
note_on channel=0 note=38 velocity=0 time=0
note_on channel=0 note=54 velocity=0 time=0
note_on channel=0 note=57 velocity=40 time=0
note_on channel=0 note=38 velocity=25 time=0
note_on channel=0 note=45 velocity=30 time=0
note_on channel=0 note=57 velocity=0 time=120
note_on channel=0 note=55 velocity=40 time=0
note_on channel=0 note=45 velocity=0 time=60
note_on channel=0 note=38 velocity=0 time=0
note_on channel=0 note=55 velocity=0 time=0
note_on channel=0 note=54 velocity=45 time=0
note_on channel=0 note=38 velocity=25 time=0
note_on channel=0 note=45 velocity=30 time=0
note_on channel=0 note=54 velocity=0 time=120
note_on channel=0 note=45 velocity=0 time=60
note_on channel=0 note=38 velocity=0 time=0
note_on channel=0 note=38 velocity=25 time=60
note_on channel=0 note=45 velocity=30 time=0
note_on channel=0 note=45 velocity=0 time=180
note_on channel=0 note=38 velocity=0 time=0
note_on channel=0 note=38 velocity=25 time=60
note_on channel=0 note=45 velocity=30 time=0
note_on channel=0 note=45 velocity=0 time=180
note_on channel=0 note=38 velocity=0 time=0
note_on channel=0 note=38 velocity=25 time=0
note_on channel=0 note=45 velocity=30 time=0
note_on channel=0 note=45 velocity=0 time=180
note_on channel=0 note=38 velocity=0 time=0
note_on channel=0 note=86 velocity=46 time=0
note_on channel=0 note=86 velocity=0 time=0
note_on channel=0 note=87 velocity=57 time=0
note_on channel=0 note=42 velocity=25 time=0
note_on channel=0 note=50 velocity=30 time=0
note_on channel=0 note=50 velocity=0 time=180
note_on channel=0 note=42 velocity=0 time=0
note_on channel=0 note=42 velocity=25 time=60
note_on channel=0 note=50 velocity=30 time=0
note_on channel=0 note=50 velocity=0 time=180
note_on channel=0 note=42 velocity=0 time=0
note_on channel=0 note=42 velocity=25 time=0
note_on channel=0 note=50 velocity=30 time=0
note_on channel=0 note=87 velocity=0 time=120
note_on channel=0 note=86 velocity=48 time=0
note_on channel=0 note=50 velocity=0 time=60
note_on channel=0 note=42 velocity=0 time=0
note_on channel=0 note=86 velocity=0 time=60
note_on channel=0 note=84 velocity=47 time=0
note_on channel=0 note=42 velocity=25 time=0
note_on channel=0 note=50 velocity=30 time=0
note_on channel=0 note=84 velocity=0 time=120
note_on channel=0 note=82 velocity=45 time=0
note_on channel=0 note=50 velocity=0 time=60
note_on channel=0 note=42 velocity=0 time=0
note_on channel=0 note=82 velocity=0 time=0
note_on channel=0 note=81 velocity=44 time=0
note_on channel=0 note=42 velocity=25 time=0
note_on channel=0 note=50 velocity=30 time=0
note_on channel=0 note=50 velocity=0 time=180
note_on channel=0 note=42 velocity=0 time=0
note_on channel=0 note=81 velocity=0 time=60
note_on channel=0 note=42 velocity=25 time=0
note_on channel=0 note=50 velocity=30 time=0
note_on channel=0 note=50 velocity=0 time=180
note_on channel=0 note=42 velocity=0 time=0
note_on channel=0 note=42 velocity=25 time=60
note_on channel=0 note=50 velocity=30 time=0
note_on channel=0 note=50 velocity=0 time=180
note_on channel=0 note=42 velocity=0 time=0
note_on channel=0 note=42 velocity=25 time=0
note_on channel=0 note=50 velocity=30 time=0
note_on channel=0 note=50 velocity=0 time=180
note_on channel=0 note=42 velocity=0 time=0
note_on channel=0 note=58 velocity=57 time=0
note_on channel=0 note=43 velocity=30 time=0
note_on channel=0 note=50 velocity=26 time=120
note_on channel=0 note=43 velocity=0 time=45
note_on channel=0 note=50 velocity=0 time=0
note_on channel=0 note=58 velocity=0 time=0
note_on channel=0 note=62 velocity=48 time=0
note_on channel=0 note=43 velocity=30 time=0
note_on channel=0 note=62 velocity=0 time=120
note_on channel=0 note=60 velocity=48 time=0
note_on channel=0 note=50 velocity=27 time=0
note_on channel=0 note=43 velocity=0 time=45
note_on channel=0 note=50 velocity=0 time=0
note_on channel=0 note=60 velocity=0 time=0
note_on channel=0 note=58 velocity=51 time=0
note_on channel=0 note=43 velocity=30 time=0
note_on channel=0 note=50 velocity=26 time=120
note_on channel=0 note=43 velocity=0 time=45
note_on channel=0 note=50 velocity=0 time=75
note_on channel=0 note=58 velocity=0 time=0
note_on channel=0 note=43 velocity=30 time=0
note_on channel=0 note=50 velocity=25 time=120
note_on channel=0 note=43 velocity=0 time=45
note_on channel=0 note=50 velocity=0 time=0
note_on channel=0 note=84 velocity=54 time=0
note_on channel=0 note=45 velocity=31 time=0
note_on channel=0 note=84 velocity=0 time=120
note_on channel=0 note=82 velocity=52 time=0
note_on channel=0 note=50 velocity=26 time=0
note_on channel=0 note=45 velocity=0 time=45
note_on channel=0 note=50 velocity=0 time=75
note_on channel=0 note=82 velocity=0 time=0
note_on channel=0 note=81 velocity=50 time=0
note_on channel=0 note=45 velocity=31 time=0
note_on channel=0 note=81 velocity=0 time=120
note_on channel=0 note=79 velocity=48 time=0
note_on channel=0 note=50 velocity=27 time=0
note_on channel=0 note=45 velocity=0 time=45
note_on channel=0 note=50 velocity=0 time=0
note_on channel=0 note=79 velocity=0 time=0
note_on channel=0 note=78 velocity=51 time=0
note_on channel=0 note=45 velocity=31 time=0
note_on channel=0 note=50 velocity=28 time=120
note_on channel=0 note=45 velocity=0 time=45
note_on channel=0 note=50 velocity=0 time=75
note_on channel=0 note=78 velocity=0 time=0
note_on channel=0 note=45 velocity=31 time=0
note_on channel=0 note=50 velocity=27 time=120
note_on channel=0 note=45 velocity=0 time=45
note_on channel=0 note=50 velocity=0 time=0
note_on channel=0 note=67 velocity=57 time=0
note_on channel=0 note=46 velocity=30 time=0
note_on channel=0 note=50 velocity=26 time=120
note_on channel=0 note=46 velocity=0 time=45
note_on channel=0 note=50 velocity=0 time=0
note_on channel=0 note=67 velocity=0 time=0
note_on channel=0 note=70 velocity=48 time=0
note_on channel=0 note=46 velocity=30 time=0
note_on channel=0 note=70 velocity=0 time=120
note_on channel=0 note=69 velocity=48 time=0
note_on channel=0 note=50 velocity=27 time=0
note_on channel=0 note=46 velocity=0 time=45
note_on channel=0 note=50 velocity=0 time=0
note_on channel=0 note=69 velocity=0 time=0
note_on channel=0 note=67 velocity=51 time=0
note_on channel=0 note=46 velocity=30 time=0
note_on channel=0 note=50 velocity=26 time=120
note_on channel=0 note=46 velocity=0 time=45
note_on channel=0 note=50 velocity=0 time=75
note_on channel=0 note=67 velocity=0 time=0
note_on channel=0 note=46 velocity=30 time=0
note_on channel=0 note=50 velocity=25 time=0
note_on channel=0 note=46 velocity=0 time=45
note_on channel=0 note=50 velocity=0 time=0
note_on channel=0 note=87 velocity=54 time=0
note_on channel=0 note=42 velocity=31 time=0
note_on channel=0 note=87 velocity=0 time=120
note_on channel=0 note=86 velocity=52 time=0
note_on channel=0 note=50 velocity=26 time=0
note_on channel=0 note=42 velocity=0 time=45
note_on channel=0 note=50 velocity=0 time=75
note_on channel=0 note=86 velocity=0 time=0
note_on channel=0 note=84 velocity=50 time=0
note_on channel=0 note=42 velocity=31 time=0
note_on channel=0 note=84 velocity=0 time=120
note_on channel=0 note=82 velocity=48 time=0
note_on channel=0 note=50 velocity=27 time=0
note_on channel=0 note=42 velocity=0 time=45
note_on channel=0 note=50 velocity=0 time=0
note_on channel=0 note=82 velocity=0 time=0
note_on channel=0 note=81 velocity=51 time=0
note_on channel=0 note=42 velocity=31 time=0
note_on channel=0 note=50 velocity=28 time=120
note_on channel=0 note=42 velocity=0 time=45
note_on channel=0 note=50 velocity=0 time=75
note_on channel=0 note=81 velocity=0 time=0
note_on channel=0 note=42 velocity=31 time=0
note_on channel=0 note=50 velocity=27 time=120
note_on channel=0 note=42 velocity=0 time=45
note_on channel=0 note=50 velocity=0 time=0
note_on channel=0 note=58 velocity=59 time=0
note_on channel=0 note=43 velocity=31 time=0
note_on channel=0 note=50 velocity=27 time=120
note_on channel=0 note=43 velocity=0 time=45
note_on channel=0 note=50 velocity=0 time=0
note_on channel=0 note=58 velocity=0 time=0
note_on channel=0 note=62 velocity=50 time=0
note_on channel=0 note=43 velocity=31 time=0
note_on channel=0 note=62 velocity=0 time=120
note_on channel=0 note=60 velocity=51 time=0
note_on channel=0 note=50 velocity=29 time=0
note_on channel=0 note=43 velocity=0 time=45
note_on channel=0 note=50 velocity=0 time=0
note_on channel=0 note=60 velocity=0 time=0
note_on channel=0 note=58 velocity=56 time=0
note_on channel=0 note=43 velocity=32 time=0
note_on channel=0 note=50 velocity=28 time=120
note_on channel=0 note=43 velocity=0 time=45
note_on channel=0 note=50 velocity=0 time=75
note_on channel=0 note=58 velocity=0 time=0
note_on channel=0 note=43 velocity=34 time=0
note_on channel=0 note=50 velocity=29 time=120
note_on channel=0 note=43 velocity=0 time=45
note_on channel=0 note=50 velocity=0 time=0
note_on channel=0 note=84 velocity=63 time=0
note_on channel=0 note=45 velocity=36 time=0
note_on channel=0 note=84 velocity=0 time=120
note_on channel=0 note=82 velocity=63 time=0
note_on channel=0 note=50 velocity=31 time=0
note_on channel=0 note=45 velocity=0 time=45
note_on channel=0 note=50 velocity=0 time=75
note_on channel=0 note=82 velocity=0 time=0
note_on channel=0 note=81 velocity=62 time=0
note_on channel=0 note=45 velocity=38 time=0
note_on channel=0 note=81 velocity=0 time=120
note_on channel=0 note=79 velocity=60 time=0
note_on channel=0 note=50 velocity=35 time=0
note_on channel=0 note=45 velocity=0 time=45
note_on channel=0 note=50 velocity=0 time=0
note_on channel=0 note=79 velocity=0 time=0
note_on channel=0 note=78 velocity=64 time=0
note_on channel=0 note=45 velocity=40 time=0
note_on channel=0 note=50 velocity=37 time=120
note_on channel=0 note=45 velocity=0 time=45
note_on channel=0 note=50 velocity=0 time=75
note_on channel=0 note=78 velocity=0 time=0
note_on channel=0 note=45 velocity=43 time=0
note_on channel=0 note=50 velocity=38 time=120
note_on channel=0 note=45 velocity=0 time=45
note_on channel=0 note=50 velocity=0 time=0
note_on channel=0 note=74 velocity=73 time=0
note_on channel=0 note=46 velocity=45 time=0
note_on channel=0 note=74 velocity=0 time=120
note_on channel=0 note=72 velocity=71 time=0
note_on channel=0 note=50 velocity=39 time=0
note_on channel=0 note=46 velocity=0 time=45
note_on channel=0 note=50 velocity=0 time=75
note_on channel=0 note=72 velocity=0 time=0
note_on channel=0 note=70 velocity=71 time=0
note_on channel=0 note=46 velocity=48 time=0
note_on channel=0 note=70 velocity=0 time=120
note_on channel=0 note=69 velocity=67 time=0
note_on channel=0 note=50 velocity=42 time=0
note_on channel=0 note=46 velocity=0 time=45
note_on channel=0 note=50 velocity=0 time=0
note_on channel=0 note=69 velocity=0 time=0
note_on channel=0 note=67 velocity=74 time=0
note_on channel=0 note=46 velocity=50 time=0
note_on channel=0 note=55 velocity=46 time=120
note_on channel=0 note=46 velocity=0 time=45
note_on channel=0 note=55 velocity=0 time=0
note_on channel=0 note=67 velocity=0 time=0
note_on channel=0 note=46 velocity=54 time=0
note_on channel=0 note=55 velocity=51 time=0
note_on channel=0 note=46 velocity=0 time=45
note_on channel=0 note=55 velocity=0 time=0
note_on channel=0 note=80 velocity=87 time=0
note_on channel=0 note=47 velocity=64 time=0
note_on channel=0 note=80 velocity=0 time=120
note_on channel=0 note=79 velocity=83 time=0
note_on channel=0 note=55 velocity=53 time=0
note_on channel=0 note=47 velocity=0 time=45
note_on channel=0 note=55 velocity=0 time=75
note_on channel=0 note=79 velocity=0 time=0
note_on channel=0 note=77 velocity=81 time=0
note_on channel=0 note=47 velocity=64 time=0
note_on channel=0 note=77 velocity=0 time=120
note_on channel=0 note=75 velocity=78 time=0
note_on channel=0 note=55 velocity=56 time=0
note_on channel=0 note=47 velocity=0 time=45
note_on channel=0 note=55 velocity=0 time=0
note_on channel=0 note=75 velocity=0 time=0
note_on channel=0 note=74 velocity=83 time=0
note_on channel=0 note=47 velocity=66 time=0
note_on channel=0 note=55 velocity=59 time=120
note_on channel=0 note=47 velocity=0 time=45
note_on channel=0 note=55 velocity=0 time=75
note_on channel=0 note=74 velocity=0 time=0
note_on channel=0 note=47 velocity=66 time=0
note_on channel=0 note=55 velocity=57 time=120
note_on channel=0 note=47 velocity=0 time=45
note_on channel=0 note=55 velocity=0 time=0
note_on channel=0 note=63 velocity=57 time=0
note_on channel=0 note=48 velocity=30 time=0
note_on channel=0 note=55 velocity=26 time=120
note_on channel=0 note=48 velocity=0 time=45
note_on channel=0 note=55 velocity=0 time=0
note_on channel=0 note=63 velocity=0 time=0
note_on channel=0 note=67 velocity=48 time=0
note_on channel=0 note=48 velocity=30 time=0
note_on channel=0 note=67 velocity=0 time=120
note_on channel=0 note=65 velocity=48 time=0
note_on channel=0 note=55 velocity=27 time=0
note_on channel=0 note=48 velocity=0 time=45
note_on channel=0 note=55 velocity=0 time=0
note_on channel=0 note=65 velocity=0 time=0
note_on channel=0 note=63 velocity=51 time=0
note_on channel=0 note=48 velocity=30 time=0
note_on channel=0 note=55 velocity=26 time=120
note_on channel=0 note=48 velocity=0 time=45
note_on channel=0 note=55 velocity=0 time=75
note_on channel=0 note=63 velocity=0 time=0
note_on channel=0 note=48 velocity=30 time=0
note_on channel=0 note=55 velocity=25 time=120
note_on channel=0 note=48 velocity=0 time=45
note_on channel=0 note=55 velocity=0 time=0
note_on channel=0 note=77 velocity=54 time=0
note_on channel=0 note=50 velocity=31 time=0
note_on channel=0 note=77 velocity=0 time=120
note_on channel=0 note=75 velocity=52 time=0
note_on channel=0 note=55 velocity=26 time=0
note_on channel=0 note=50 velocity=0 time=45
note_on channel=0 note=55 velocity=0 time=75
note_on channel=0 note=75 velocity=0 time=0
note_on channel=0 note=74 velocity=50 time=0
note_on channel=0 note=50 velocity=31 time=0
note_on channel=0 note=74 velocity=0 time=120
note_on channel=0 note=72 velocity=48 time=0
note_on channel=0 note=55 velocity=27 time=0
note_on channel=0 note=50 velocity=0 time=45
note_on channel=0 note=55 velocity=0 time=0
note_on channel=0 note=72 velocity=0 time=0
note_on channel=0 note=71 velocity=51 time=0
note_on channel=0 note=50 velocity=31 time=0
note_on channel=0 note=55 velocity=28 time=120
note_on channel=0 note=50 velocity=0 time=45
note_on channel=0 note=55 velocity=0 time=75
note_on channel=0 note=71 velocity=0 time=0
note_on channel=0 note=50 velocity=31 time=0
note_on channel=0 note=55 velocity=27 time=120
note_on channel=0 note=50 velocity=0 time=45
note_on channel=0 note=55 velocity=0 time=0
note_on channel=0 note=60 velocity=57 time=0
note_on channel=0 note=51 velocity=30 time=0
note_on channel=0 note=55 velocity=26 time=120
note_on channel=0 note=51 velocity=0 time=45
note_on channel=0 note=55 velocity=0 time=0
note_on channel=0 note=60 velocity=0 time=0
note_on channel=0 note=63 velocity=48 time=0
note_on channel=0 note=51 velocity=30 time=0
note_on channel=0 note=63 velocity=0 time=120
note_on channel=0 note=62 velocity=48 time=0
note_on channel=0 note=55 velocity=27 time=0
note_on channel=0 note=51 velocity=0 time=45
note_on channel=0 note=55 velocity=0 time=0
note_on channel=0 note=62 velocity=0 time=0
note_on channel=0 note=60 velocity=51 time=0
note_on channel=0 note=51 velocity=30 time=0
note_on channel=0 note=55 velocity=26 time=120
note_on channel=0 note=51 velocity=0 time=45
note_on channel=0 note=55 velocity=0 time=75
note_on channel=0 note=60 velocity=0 time=0
note_on channel=0 note=51 velocity=30 time=0
note_on channel=0 note=55 velocity=25 time=0
note_on channel=0 note=51 velocity=0 time=45
note_on channel=0 note=55 velocity=0 time=0
note_on channel=0 note=80 velocity=54 time=0
note_on channel=0 note=47 velocity=31 time=0
note_on channel=0 note=80 velocity=0 time=120
note_on channel=0 note=79 velocity=52 time=0
note_on channel=0 note=55 velocity=26 time=0
note_on channel=0 note=47 velocity=0 time=45
note_on channel=0 note=55 velocity=0 time=75
note_on channel=0 note=79 velocity=0 time=0
note_on channel=0 note=77 velocity=50 time=0
note_on channel=0 note=47 velocity=31 time=0
note_on channel=0 note=77 velocity=0 time=120
note_on channel=0 note=75 velocity=48 time=0
note_on channel=0 note=55 velocity=27 time=0
note_on channel=0 note=47 velocity=0 time=45
note_on channel=0 note=55 velocity=0 time=0
note_on channel=0 note=75 velocity=0 time=0
note_on channel=0 note=74 velocity=51 time=0
note_on channel=0 note=47 velocity=31 time=0
note_on channel=0 note=55 velocity=28 time=120
note_on channel=0 note=47 velocity=0 time=45
note_on channel=0 note=55 velocity=0 time=75
note_on channel=0 note=74 velocity=0 time=0
note_on channel=0 note=47 velocity=31 time=0
note_on channel=0 note=55 velocity=27 time=120
note_on channel=0 note=47 velocity=0 time=45
note_on channel=0 note=55 velocity=0 time=0
note_on channel=0 note=63 velocity=59 time=0
note_on channel=0 note=48 velocity=31 time=0
note_on channel=0 note=55 velocity=27 time=120
note_on channel=0 note=48 velocity=0 time=45
note_on channel=0 note=55 velocity=0 time=0
note_on channel=0 note=63 velocity=0 time=0
note_on channel=0 note=67 velocity=50 time=0
note_on channel=0 note=48 velocity=31 time=0
note_on channel=0 note=67 velocity=0 time=120
note_on channel=0 note=65 velocity=51 time=0
note_on channel=0 note=55 velocity=29 time=0
note_on channel=0 note=48 velocity=0 time=45
note_on channel=0 note=55 velocity=0 time=0
note_on channel=0 note=65 velocity=0 time=0
note_on channel=0 note=63 velocity=56 time=0
note_on channel=0 note=48 velocity=32 time=0
note_on channel=0 note=55 velocity=28 time=120
note_on channel=0 note=48 velocity=0 time=45
note_on channel=0 note=55 velocity=0 time=75
note_on channel=0 note=63 velocity=0 time=0
note_on channel=0 note=48 velocity=34 time=0
note_on channel=0 note=55 velocity=29 time=120
note_on channel=0 note=48 velocity=0 time=45
note_on channel=0 note=55 velocity=0 time=0
note_on channel=0 note=77 velocity=63 time=0
note_on channel=0 note=50 velocity=36 time=0
note_on channel=0 note=77 velocity=0 time=120
note_on channel=0 note=75 velocity=63 time=0
note_on channel=0 note=55 velocity=31 time=0
note_on channel=0 note=50 velocity=0 time=45
note_on channel=0 note=55 velocity=0 time=75
note_on channel=0 note=75 velocity=0 time=0
note_on channel=0 note=74 velocity=62 time=0
note_on channel=0 note=50 velocity=38 time=0
note_on channel=0 note=74 velocity=0 time=120
note_on channel=0 note=72 velocity=60 time=0
note_on channel=0 note=55 velocity=35 time=0
note_on channel=0 note=50 velocity=0 time=45
note_on channel=0 note=55 velocity=0 time=0
note_on channel=0 note=72 velocity=0 time=0
note_on channel=0 note=71 velocity=64 time=0
note_on channel=0 note=50 velocity=40 time=0
note_on channel=0 note=55 velocity=37 time=120
note_on channel=0 note=50 velocity=0 time=45
note_on channel=0 note=55 velocity=0 time=75
note_on channel=0 note=71 velocity=0 time=0
note_on channel=0 note=50 velocity=43 time=0
note_on channel=0 note=55 velocity=38 time=120
note_on channel=0 note=50 velocity=0 time=45
note_on channel=0 note=55 velocity=0 time=0
note_on channel=0 note=79 velocity=73 time=0
note_on channel=0 note=51 velocity=45 time=0
note_on channel=0 note=79 velocity=0 time=120
note_on channel=0 note=77 velocity=71 time=0
note_on channel=0 note=55 velocity=39 time=0
note_on channel=0 note=51 velocity=0 time=45
note_on channel=0 note=55 velocity=0 time=75
note_on channel=0 note=77 velocity=0 time=0
note_on channel=0 note=75 velocity=71 time=0
note_on channel=0 note=51 velocity=48 time=0
note_on channel=0 note=75 velocity=0 time=120
note_on channel=0 note=74 velocity=67 time=0
note_on channel=0 note=55 velocity=42 time=0
note_on channel=0 note=51 velocity=0 time=45
note_on channel=0 note=55 velocity=0 time=0
note_on channel=0 note=74 velocity=0 time=0
note_on channel=0 note=72 velocity=74 time=0
note_on channel=0 note=51 velocity=50 time=0
note_on channel=0 note=60 velocity=46 time=120
note_on channel=0 note=51 velocity=0 time=45
note_on channel=0 note=60 velocity=0 time=0
note_on channel=0 note=72 velocity=0 time=0
note_on channel=0 note=51 velocity=54 time=0
note_on channel=0 note=60 velocity=47 time=0
note_on channel=0 note=51 velocity=0 time=45
note_on channel=0 note=60 velocity=0 time=0
note_on channel=0 note=85 velocity=87 time=0
note_on channel=0 note=52 velocity=64 time=0
note_on channel=0 note=85 velocity=0 time=120
note_on channel=0 note=84 velocity=83 time=0
note_on channel=0 note=60 velocity=53 time=0
note_on channel=0 note=52 velocity=0 time=45
note_on channel=0 note=60 velocity=0 time=75
note_on channel=0 note=84 velocity=0 time=0
note_on channel=0 note=82 velocity=81 time=0
note_on channel=0 note=52 velocity=64 time=0
note_on channel=0 note=82 velocity=0 time=120
note_on channel=0 note=80 velocity=78 time=0
note_on channel=0 note=60 velocity=56 time=0
note_on channel=0 note=52 velocity=0 time=45
note_on channel=0 note=60 velocity=0 time=0
note_on channel=0 note=80 velocity=0 time=0
note_on channel=0 note=79 velocity=83 time=0
note_on channel=0 note=52 velocity=66 time=0
note_on channel=0 note=60 velocity=59 time=120
note_on channel=0 note=52 velocity=0 time=45
note_on channel=0 note=60 velocity=0 time=75
note_on channel=0 note=79 velocity=0 time=0
note_on channel=0 note=52 velocity=66 time=0
note_on channel=0 note=60 velocity=57 time=0
note_on channel=0 note=52 velocity=0 time=45
note_on channel=0 note=60 velocity=0 time=0
note_on channel=0 note=80 velocity=48 time=0
note_on channel=0 note=53 velocity=25 time=0
note_on channel=0 note=53 velocity=0 time=63
note_on channel=0 note=56 velocity=22 time=0
note_on channel=0 note=56 velocity=0 time=0
note_on channel=0 note=80 velocity=0 time=0
note_on channel=0 note=84 velocity=40 time=0
note_on channel=0 note=60 velocity=22 time=0
note_on channel=0 note=60 velocity=0 time=120
note_on channel=0 note=84 velocity=0 time=0
note_on channel=0 note=82 velocity=40 time=0
note_on channel=0 note=65 velocity=22 time=0
note_on channel=0 note=65 velocity=0 time=0
note_on channel=0 note=82 velocity=0 time=0
note_on channel=0 note=80 velocity=43 time=0
note_on channel=0 note=53 velocity=25 time=0
note_on channel=0 note=53 velocity=0 time=34
note_on channel=0 note=56 velocity=22 time=0
note_on channel=0 note=56 velocity=0 time=120
note_on channel=0 note=80 velocity=0 time=0
note_on channel=0 note=60 velocity=22 time=0
note_on channel=0 note=60 velocity=0 time=120
note_on channel=0 note=65 velocity=22 time=0
note_on channel=0 note=65 velocity=0 time=0
note_on channel=0 note=85 velocity=48 time=0
note_on channel=0 note=53 velocity=26 time=0
note_on channel=0 note=53 velocity=0 time=57
note_on channel=0 note=58 velocity=22 time=0
note_on channel=0 note=58 velocity=0 time=120
note_on channel=0 note=85 velocity=0 time=0
note_on channel=0 note=89 velocity=40 time=0
note_on channel=0 note=61 velocity=22 time=0
note_on channel=0 note=61 velocity=0 time=120
note_on channel=0 note=89 velocity=0 time=0
note_on channel=0 note=87 velocity=40 time=0
note_on channel=0 note=65 velocity=22 time=0
note_on channel=0 note=65 velocity=0 time=0
note_on channel=0 note=87 velocity=0 time=0
note_on channel=0 note=85 velocity=43 time=0
note_on channel=0 note=53 velocity=26 time=0
note_on channel=0 note=53 velocity=0 time=45
note_on channel=0 note=58 velocity=23 time=0
note_on channel=0 note=58 velocity=0 time=120
note_on channel=0 note=85 velocity=0 time=0
note_on channel=0 note=61 velocity=22 time=0
note_on channel=0 note=61 velocity=0 time=120
note_on channel=0 note=65 velocity=22 time=0
note_on channel=0 note=65 velocity=0 time=0
note_on channel=0 note=66 velocity=40 time=0
note_on channel=0 note=52 velocity=25 time=0
note_on channel=0 note=52 velocity=0 time=56
note_on channel=0 note=54 velocity=22 time=0
note_on channel=0 note=54 velocity=0 time=0
note_on channel=0 note=66 velocity=0 time=0
note_on channel=0 note=70 velocity=34 time=0
note_on channel=0 note=58 velocity=22 time=0
note_on channel=0 note=58 velocity=0 time=120
note_on channel=0 note=70 velocity=0 time=0
note_on channel=0 note=68 velocity=34 time=0
note_on channel=0 note=61 velocity=22 time=0
note_on channel=0 note=61 velocity=0 time=0
note_on channel=0 note=68 velocity=0 time=0
note_on channel=0 note=66 velocity=36 time=0
note_on channel=0 note=52 velocity=25 time=0
note_on channel=0 note=52 velocity=0 time=63
note_on channel=0 note=54 velocity=22 time=0
note_on channel=0 note=54 velocity=0 time=120
note_on channel=0 note=66 velocity=0 time=0
note_on channel=0 note=58 velocity=22 time=0
note_on channel=0 note=58 velocity=0 time=0
note_on channel=0 note=61 velocity=22 time=0
note_on channel=0 note=61 velocity=0 time=0
note_on channel=0 note=71 velocity=40 time=0
note_on channel=0 note=51 velocity=26 time=0
note_on channel=0 note=51 velocity=0 time=45
note_on channel=0 note=54 velocity=22 time=0
note_on channel=0 note=54 velocity=0 time=120
note_on channel=0 note=59 velocity=22 time=0
note_on channel=0 note=59 velocity=0 time=120
note_on channel=0 note=63 velocity=22 time=0
note_on channel=0 note=63 velocity=0 time=0
note_on channel=0 note=51 velocity=26 time=0
note_on channel=0 note=51 velocity=0 time=120
note_on channel=0 note=54 velocity=23 time=0
note_on channel=0 note=54 velocity=0 time=120
note_on channel=0 note=59 velocity=22 time=0
note_on channel=0 note=59 velocity=0 time=0
note_on channel=0 note=63 velocity=22 time=0
note_on channel=0 note=63 velocity=0 time=0
note_on channel=0 note=71 velocity=0 time=0
note_on channel=0 note=77 velocity=48 time=0
note_on channel=0 note=51 velocity=25 time=0
note_on channel=0 note=51 velocity=0 time=34
note_on channel=0 note=53 velocity=22 time=0
note_on channel=0 note=53 velocity=0 time=0
note_on channel=0 note=77 velocity=0 time=0
note_on channel=0 note=81 velocity=40 time=0
note_on channel=0 note=57 velocity=22 time=0
note_on channel=0 note=57 velocity=0 time=120
note_on channel=0 note=81 velocity=0 time=0
note_on channel=0 note=79 velocity=40 time=0
note_on channel=0 note=60 velocity=22 time=0
note_on channel=0 note=60 velocity=0 time=0
note_on channel=0 note=79 velocity=0 time=0
note_on channel=0 note=77 velocity=43 time=0
note_on channel=0 note=51 velocity=25 time=0
note_on channel=0 note=51 velocity=0 time=28
note_on channel=0 note=53 velocity=22 time=0
note_on channel=0 note=53 velocity=0 time=120
note_on channel=0 note=77 velocity=0 time=0
note_on channel=0 note=57 velocity=22 time=0
note_on channel=0 note=57 velocity=0 time=120
note_on channel=0 note=60 velocity=22 time=0
note_on channel=0 note=60 velocity=0 time=0
note_on channel=0 note=82 velocity=48 time=0
note_on channel=0 note=49 velocity=26 time=0
note_on channel=0 note=49 velocity=0 time=45
note_on channel=0 note=53 velocity=22 time=0
note_on channel=0 note=53 velocity=0 time=120
note_on channel=0 note=82 velocity=0 time=0
note_on channel=0 note=85 velocity=40 time=0
note_on channel=0 note=58 velocity=22 time=0
note_on channel=0 note=58 velocity=0 time=120
note_on channel=0 note=85 velocity=0 time=0
note_on channel=0 note=84 velocity=40 time=0
note_on channel=0 note=61 velocity=22 time=0
note_on channel=0 note=61 velocity=0 time=0
note_on channel=0 note=84 velocity=0 time=0
note_on channel=0 note=82 velocity=43 time=0
note_on channel=0 note=49 velocity=26 time=0
note_on channel=0 note=49 velocity=0 time=40
note_on channel=0 note=53 velocity=23 time=0
note_on channel=0 note=53 velocity=0 time=120
note_on channel=0 note=82 velocity=0 time=0
note_on channel=0 note=58 velocity=22 time=0
note_on channel=0 note=58 velocity=0 time=120
note_on channel=0 note=61 velocity=22 time=0
note_on channel=0 note=61 velocity=0 time=0
note_on channel=0 note=63 velocity=40 time=0
note_on channel=0 note=49 velocity=25 time=0
note_on channel=0 note=49 velocity=0 time=40
note_on channel=0 note=51 velocity=22 time=0
note_on channel=0 note=51 velocity=0 time=0
note_on channel=0 note=63 velocity=0 time=0
note_on channel=0 note=67 velocity=34 time=0
note_on channel=0 note=55 velocity=22 time=0
note_on channel=0 note=55 velocity=0 time=120
note_on channel=0 note=67 velocity=0 time=0
note_on channel=0 note=65 velocity=34 time=0
note_on channel=0 note=58 velocity=22 time=0
note_on channel=0 note=58 velocity=0 time=0
note_on channel=0 note=65 velocity=0 time=0
note_on channel=0 note=63 velocity=36 time=0
note_on channel=0 note=49 velocity=25 time=0
note_on channel=0 note=49 velocity=0 time=34
note_on channel=0 note=51 velocity=22 time=0
note_on channel=0 note=51 velocity=0 time=120
note_on channel=0 note=63 velocity=0 time=0
note_on channel=0 note=55 velocity=22 time=0
note_on channel=0 note=55 velocity=0 time=0
note_on channel=0 note=58 velocity=22 time=0
note_on channel=0 note=58 velocity=0 time=0
note_on channel=0 note=68 velocity=40 time=0
note_on channel=0 note=48 velocity=26 time=0
note_on channel=0 note=48 velocity=0 time=28
note_on channel=0 note=51 velocity=22 time=0
note_on channel=0 note=51 velocity=0 time=120
note_on channel=0 note=56 velocity=22 time=0
note_on channel=0 note=56 velocity=0 time=120
note_on channel=0 note=60 velocity=22 time=0
note_on channel=0 note=60 velocity=0 time=0
note_on channel=0 note=48 velocity=26 time=0
note_on channel=0 note=48 velocity=0 time=120
note_on channel=0 note=51 velocity=23 time=0
note_on channel=0 note=51 velocity=0 time=120
note_on channel=0 note=56 velocity=22 time=0
note_on channel=0 note=56 velocity=0 time=120
note_on channel=0 note=60 velocity=22 time=0
note_on channel=0 note=60 velocity=0 time=0
note_on channel=0 note=68 velocity=0 time=0
note_on channel=0 note=73 velocity=48 time=0
note_on channel=0 note=47 velocity=25 time=0
note_on channel=0 note=47 velocity=0 time=57
note_on channel=0 note=49 velocity=22 time=0
note_on channel=0 note=49 velocity=0 time=0
note_on channel=0 note=73 velocity=0 time=0
note_on channel=0 note=77 velocity=40 time=0
note_on channel=0 note=53 velocity=22 time=0
note_on channel=0 note=53 velocity=0 time=120
note_on channel=0 note=77 velocity=0 time=0
note_on channel=0 note=75 velocity=40 time=0
note_on channel=0 note=56 velocity=22 time=0
note_on channel=0 note=56 velocity=0 time=0
note_on channel=0 note=75 velocity=0 time=0
note_on channel=0 note=73 velocity=43 time=0
note_on channel=0 note=47 velocity=25 time=0
note_on channel=0 note=47 velocity=0 time=57
note_on channel=0 note=49 velocity=22 time=0
note_on channel=0 note=49 velocity=0 time=120
note_on channel=0 note=73 velocity=0 time=0
note_on channel=0 note=53 velocity=22 time=0
note_on channel=0 note=53 velocity=0 time=120
note_on channel=0 note=56 velocity=22 time=0
note_on channel=0 note=56 velocity=0 time=0
note_on channel=0 note=78 velocity=48 time=0
note_on channel=0 note=46 velocity=26 time=0
note_on channel=0 note=46 velocity=0 time=40
note_on channel=0 note=49 velocity=22 time=0
note_on channel=0 note=49 velocity=0 time=120
note_on channel=0 note=78 velocity=0 time=0
note_on channel=0 note=82 velocity=40 time=0
note_on channel=0 note=54 velocity=22 time=0
note_on channel=0 note=54 velocity=0 time=120
note_on channel=0 note=82 velocity=0 time=0
note_on channel=0 note=80 velocity=40 time=0
note_on channel=0 note=58 velocity=22 time=0
note_on channel=0 note=58 velocity=0 time=0
note_on channel=0 note=80 velocity=0 time=0
note_on channel=0 note=78 velocity=43 time=0
note_on channel=0 note=46 velocity=26 time=0
note_on channel=0 note=46 velocity=0 time=40
note_on channel=0 note=49 velocity=23 time=0
note_on channel=0 note=49 velocity=0 time=120
note_on channel=0 note=78 velocity=0 time=0
note_on channel=0 note=54 velocity=22 time=0
note_on channel=0 note=54 velocity=0 time=120
note_on channel=0 note=58 velocity=22 time=0
note_on channel=0 note=58 velocity=0 time=0
note_on channel=0 note=60 velocity=42 time=0
note_on channel=0 note=46 velocity=26 time=0
note_on channel=0 note=46 velocity=0 time=63
note_on channel=0 note=48 velocity=23 time=0
note_on channel=0 note=48 velocity=0 time=0
note_on channel=0 note=60 velocity=0 time=0
note_on channel=0 note=64 velocity=35 time=0
note_on channel=0 note=52 velocity=23 time=0
note_on channel=0 note=52 velocity=0 time=120
note_on channel=0 note=64 velocity=0 time=0
note_on channel=0 note=62 velocity=35 time=0
note_on channel=0 note=55 velocity=23 time=0
note_on channel=0 note=55 velocity=0 time=0
note_on channel=0 note=62 velocity=0 time=0
note_on channel=0 note=60 velocity=38 time=0
note_on channel=0 note=46 velocity=26 time=0
note_on channel=0 note=46 velocity=0 time=40
note_on channel=0 note=48 velocity=23 time=0
note_on channel=0 note=48 velocity=0 time=120
note_on channel=0 note=60 velocity=0 time=0
note_on channel=0 note=52 velocity=23 time=0
note_on channel=0 note=52 velocity=0 time=0
note_on channel=0 note=55 velocity=23 time=0
note_on channel=0 note=55 velocity=0 time=0
note_on channel=0 note=72 velocity=42 time=0
note_on channel=0 note=44 velocity=27 time=0
note_on channel=0 note=44 velocity=0 time=11
note_on channel=0 note=48 velocity=23 time=0
note_on channel=0 note=48 velocity=0 time=120
note_on channel=0 note=53 velocity=23 time=0
note_on channel=0 note=53 velocity=0 time=120
note_on channel=0 note=56 velocity=23 time=0
note_on channel=0 note=56 velocity=0 time=0
note_on channel=0 note=44 velocity=28 time=0
note_on channel=0 note=44 velocity=0 time=120
note_on channel=0 note=48 velocity=25 time=0
note_on channel=0 note=48 velocity=0 time=120
note_on channel=0 note=53 velocity=23 time=0
note_on channel=0 note=53 velocity=0 time=120
note_on channel=0 note=56 velocity=23 time=0
note_on channel=0 note=56 velocity=0 time=0
note_on channel=0 note=72 velocity=0 time=0
note_on channel=0 note=72 velocity=59 time=0
note_on channel=0 note=43 velocity=32 time=0
note_on channel=0 note=43 velocity=0 time=57
note_on channel=0 note=46 velocity=28 time=0
note_on channel=0 note=46 velocity=0 time=0
note_on channel=0 note=72 velocity=0 time=0
note_on channel=0 note=76 velocity=52 time=0
note_on channel=0 note=52 velocity=28 time=0
note_on channel=0 note=52 velocity=0 time=120
note_on channel=0 note=76 velocity=0 time=0
note_on channel=0 note=74 velocity=52 time=0
note_on channel=0 note=55 velocity=29 time=0
note_on channel=0 note=55 velocity=0 time=0
note_on channel=0 note=74 velocity=0 time=0
note_on channel=0 note=72 velocity=56 time=0
note_on channel=0 note=43 velocity=34 time=0
note_on channel=0 note=43 velocity=0 time=68
note_on channel=0 note=46 velocity=29 time=0
note_on channel=0 note=46 velocity=0 time=120
note_on channel=0 note=72 velocity=0 time=0
note_on channel=0 note=52 velocity=31 time=0
note_on channel=0 note=52 velocity=0 time=0
note_on channel=0 note=55 velocity=32 time=0
note_on channel=0 note=55 velocity=0 time=0
note_on channel=0 note=84 velocity=69 time=0
note_on channel=0 note=41 velocity=39 time=0
note_on channel=0 note=41 velocity=0 time=40
note_on channel=0 note=44 velocity=33 time=0
note_on channel=0 note=44 velocity=0 time=120
note_on channel=0 note=48 velocity=33 time=0
note_on channel=0 note=48 velocity=0 time=120
note_on channel=0 note=53 velocity=34 time=0
note_on channel=0 note=53 velocity=0 time=0
note_on channel=0 note=41 velocity=41 time=0
note_on channel=0 note=41 velocity=0 time=160
note_on channel=0 note=44 velocity=35 time=0
note_on channel=0 note=44 velocity=0 time=160
note_on channel=0 note=53 velocity=36 time=0
note_on channel=0 note=53 velocity=0 time=0
note_on channel=0 note=84 velocity=0 time=0
note_on channel=0 note=84 velocity=68 time=0
note_on channel=0 note=40 velocity=44 time=0
note_on channel=0 note=40 velocity=0 time=74
note_on channel=0 note=43 velocity=45 time=0
note_on channel=0 note=84 velocity=0 time=0
note_on channel=0 note=88 velocity=70 time=0
note_on channel=0 note=43 velocity=0 time=80
note_on channel=0 note=52 velocity=47 time=0
note_on channel=0 note=88 velocity=0 time=40
note_on channel=0 note=86 velocity=71 time=0
note_on channel=0 note=86 velocity=0 time=0
note_on channel=0 note=52 velocity=0 time=0
note_on channel=0 note=84 velocity=73 time=0
note_on channel=0 note=39 velocity=47 time=0
note_on channel=0 note=84 velocity=0 time=100
note_on channel=0 note=39 velocity=0 time=40
note_on channel=0 note=43 velocity=49 time=0
note_on channel=0 note=84 velocity=77 time=80
note_on channel=0 note=43 velocity=0 time=80
note_on channel=0 note=51 velocity=51 time=0
note_on channel=0 note=84 velocity=0 time=40
note_on channel=0 note=51 velocity=0 time=120
note_on channel=0 note=84 velocity=81 time=0
note_on channel=0 note=38 velocity=54 time=0
note_on channel=0 note=84 velocity=0 time=120
note_on channel=0 note=38 velocity=0 time=40
note_on channel=0 note=41 velocity=53 time=0
note_on channel=0 note=84 velocity=83 time=80
note_on channel=0 note=41 velocity=0 time=80
note_on channel=0 note=50 velocity=56 time=0
note_on channel=0 note=50 velocity=0 time=0
note_on channel=0 note=84 velocity=0 time=0
note_on channel=0 note=89 velocity=86 time=0
note_on channel=0 note=37 velocity=56 time=0
note_on channel=0 note=37 velocity=0 time=91
note_on channel=0 note=41 velocity=58 time=0
note_on channel=0 note=89 velocity=0 time=0
note_on channel=0 note=83 velocity=90 time=0
note_on channel=0 note=41 velocity=0 time=80
note_on channel=0 note=49 velocity=59 time=0
note_on channel=0 note=49 velocity=0 time=0
note_on channel=0 note=83 velocity=0 time=0
note_on channel=0 note=84 velocity=93 time=0
note_on channel=0 note=36 velocity=66 time=0
note_on channel=0 note=48 velocity=70 time=0
note_on channel=0 note=48 velocity=0 time=54
note_on channel=0 note=36 velocity=0 time=0
note_on channel=0 note=43 velocity=61 time=0
note_on channel=0 note=43 velocity=0 time=160
note_on channel=0 note=40 velocity=62 time=0
note_on channel=0 note=40 velocity=0 time=160
note_on channel=0 note=84 velocity=0 time=0
note_on channel=0 note=67 velocity=75 time=0
note_on channel=0 note=43 velocity=70 time=0
note_on channel=0 note=43 velocity=0 time=160
note_on channel=0 note=48 velocity=63 time=0
note_on channel=0 note=48 velocity=0 time=0
note_on channel=0 note=52 velocity=64 time=0
note_on channel=0 note=52 velocity=0 time=0
note_on channel=0 note=50 velocity=70 time=0
note_on channel=0 note=50 velocity=0 time=40
note_on channel=0 note=47 velocity=63 time=0
note_on channel=0 note=47 velocity=0 time=0
note_on channel=0 note=43 velocity=64 time=0
note_on channel=0 note=43 velocity=0 time=0
note_on channel=0 note=67 velocity=0 time=0
note_on channel=0 note=67 velocity=75 time=0
note_on channel=0 note=47 velocity=70 time=0
note_on channel=0 note=47 velocity=0 time=160
note_on channel=0 note=50 velocity=65 time=0
note_on channel=0 note=50 velocity=0 time=0
note_on channel=0 note=53 velocity=65 time=0
note_on channel=0 note=53 velocity=0 time=0
note_on channel=0 note=67 velocity=0 time=0
note_on channel=0 note=72 velocity=82 time=0
note_on channel=0 note=52 velocity=64 time=0
note_on channel=0 note=52 velocity=0 time=74
note_on channel=0 note=72 velocity=0 time=0
note_on channel=0 note=67 velocity=74 time=0
note_on channel=0 note=55 velocity=56 time=0
note_on channel=0 note=55 velocity=0 time=160
note_on channel=0 note=67 velocity=0 time=0
note_on channel=0 note=64 velocity=74 time=0
note_on channel=0 note=60 velocity=56 time=0
note_on channel=0 note=60 velocity=0 time=160
note_on channel=0 note=64 velocity=0 time=0
note_on channel=0 note=67 velocity=82 time=0
note_on channel=0 note=55 velocity=64 time=0
note_on channel=0 note=55 velocity=0 time=160
note_on channel=0 note=67 velocity=0 time=0
note_on channel=0 note=72 velocity=74 time=0
note_on channel=0 note=52 velocity=57 time=0
note_on channel=0 note=52 velocity=0 time=0
note_on channel=0 note=72 velocity=0 time=0
note_on channel=0 note=76 velocity=73 time=0
note_on channel=0 note=48 velocity=57 time=0
note_on channel=0 note=48 velocity=0 time=0
note_on channel=0 note=76 velocity=0 time=0
note_on channel=0 note=74 velocity=82 time=0
note_on channel=0 note=53 velocity=64 time=0
note_on channel=0 note=53 velocity=0 time=85
note_on channel=0 note=74 velocity=0 time=0
note_on channel=0 note=71 velocity=74 time=0
note_on channel=0 note=56 velocity=56 time=0
note_on channel=0 note=56 velocity=0 time=160
note_on channel=0 note=71 velocity=0 time=0
note_on channel=0 note=68 velocity=74 time=0
note_on channel=0 note=60 velocity=56 time=0
note_on channel=0 note=60 velocity=0 time=160
note_on channel=0 note=68 velocity=0 time=0
note_on channel=0 note=71 velocity=82 time=0
note_on channel=0 note=56 velocity=64 time=0
note_on channel=0 note=56 velocity=0 time=160
note_on channel=0 note=71 velocity=0 time=0
note_on channel=0 note=74 velocity=75 time=0
note_on channel=0 note=53 velocity=57 time=0
note_on channel=0 note=53 velocity=0 time=0
note_on channel=0 note=74 velocity=0 time=0
note_on channel=0 note=77 velocity=75 time=0
note_on channel=0 note=48 velocity=58 time=0
note_on channel=0 note=48 velocity=0 time=0
note_on channel=0 note=77 velocity=0 time=0
note_on channel=0 note=76 velocity=82 time=0
note_on channel=0 note=55 velocity=64 time=0
note_on channel=0 note=76 velocity=0 time=114
note_on channel=0 note=73 velocity=74 time=0
note_on channel=0 note=58 velocity=56 time=0
note_on channel=0 note=73 velocity=0 time=160
note_on channel=0 note=70 velocity=77 time=0
note_on channel=0 note=60 velocity=56 time=0
note_on channel=0 note=70 velocity=0 time=160
note_on channel=0 note=58 velocity=0 time=0
note_on channel=0 note=73 velocity=82 time=0
note_on channel=0 note=58 velocity=64 time=0
note_on channel=0 note=73 velocity=0 time=160
note_on channel=0 note=55 velocity=0 time=0
note_on channel=0 note=76 velocity=75 time=0
note_on channel=0 note=55 velocity=57 time=0
note_on channel=0 note=76 velocity=0 time=0
note_on channel=0 note=79 velocity=74 time=0
note_on channel=0 note=48 velocity=57 time=0
note_on channel=0 note=79 velocity=0 time=0
note_on channel=0 note=82 velocity=82 time=0
note_on channel=0 note=82 velocity=0 time=117
note_on channel=0 note=76 velocity=74 time=0
note_on channel=0 note=76 velocity=0 time=160
note_on channel=0 note=85 velocity=74 time=0
note_on channel=0 note=85 velocity=0 time=0
note_on channel=0 note=76 velocity=82 time=0
note_on channel=0 note=76 velocity=0 time=160
note_on channel=0 note=73 velocity=74 time=0
note_on channel=0 note=73 velocity=0 time=160
note_on channel=0 note=82 velocity=74 time=0
note_on channel=0 note=82 velocity=0 time=0
note_on channel=0 note=73 velocity=82 time=0
note_on channel=0 note=73 velocity=0 time=160
note_on channel=0 note=70 velocity=74 time=0
note_on channel=0 note=70 velocity=0 time=160
note_on channel=0 note=76 velocity=74 time=0
note_on channel=0 note=76 velocity=0 time=160
note_on channel=0 note=70 velocity=78 time=0
note_on channel=0 note=70 velocity=0 time=160
note_on channel=0 note=64 velocity=74 time=0
note_on channel=0 note=64 velocity=0 time=160
note_on channel=0 note=73 velocity=74 time=0
note_on channel=0 note=73 velocity=0 time=0
note_on channel=0 note=70 velocity=77 time=0
note_on channel=0 note=70 velocity=0 time=63
note_on channel=0 note=64 velocity=71 time=0
note_on channel=0 note=64 velocity=0 time=160
note_on channel=0 note=72 velocity=71 time=0
note_on channel=0 note=72 velocity=0 time=0
note_on channel=0 note=70 velocity=76 time=0
note_on channel=0 note=70 velocity=0 time=160
note_on channel=0 note=64 velocity=71 time=0
note_on channel=0 note=64 velocity=0 time=160
note_on channel=0 note=72 velocity=71 time=0
note_on channel=0 note=72 velocity=0 time=0
note_on channel=0 note=58 velocity=0 time=0
note_on channel=0 note=55 velocity=0 time=0
note_on channel=0 note=60 velocity=0 time=0
note_on channel=0 note=48 velocity=0 time=0
note_on channel=0 note=65 velocity=67 time=0
note_on channel=0 note=69 velocity=67 time=0
note_on channel=0 note=72 velocity=79 time=0
note_on channel=0 note=41 velocity=66 time=0
note_on channel=0 note=53 velocity=70 time=0
note_on channel=0 note=53 velocity=0 time=103
note_on channel=0 note=41 velocity=0 time=0
note_on channel=0 note=48 velocity=61 time=0
note_on channel=0 note=48 velocity=0 time=160
note_on channel=0 note=45 velocity=62 time=0
note_on channel=0 note=45 velocity=0 time=160
note_on channel=0 note=65 velocity=0 time=0
note_on channel=0 note=69 velocity=0 time=0
note_on channel=0 note=72 velocity=0 time=0
note_on channel=0 note=72 velocity=75 time=0
note_on channel=0 note=48 velocity=70 time=0
note_on channel=0 note=48 velocity=0 time=160
note_on channel=0 note=53 velocity=63 time=0
note_on channel=0 note=53 velocity=0 time=0
note_on channel=0 note=57 velocity=64 time=0
note_on channel=0 note=57 velocity=0 time=0
note_on channel=0 note=55 velocity=70 time=0
note_on channel=0 note=55 velocity=0 time=97
note_on channel=0 note=52 velocity=63 time=0
note_on channel=0 note=52 velocity=0 time=0
note_on channel=0 note=48 velocity=64 time=0
note_on channel=0 note=48 velocity=0 time=0
note_on channel=0 note=72 velocity=0 time=0
note_on channel=0 note=72 velocity=75 time=0
note_on channel=0 note=52 velocity=70 time=0
note_on channel=0 note=52 velocity=0 time=160
note_on channel=0 note=55 velocity=65 time=0
note_on channel=0 note=55 velocity=0 time=0
note_on channel=0 note=58 velocity=65 time=0
note_on channel=0 note=58 velocity=0 time=0
note_on channel=0 note=72 velocity=0 time=0
note_on channel=0 note=77 velocity=82 time=0
note_on channel=0 note=57 velocity=64 time=0
note_on channel=0 note=57 velocity=0 time=80
note_on channel=0 note=77 velocity=0 time=0
note_on channel=0 note=72 velocity=74 time=0
note_on channel=0 note=60 velocity=56 time=0
note_on channel=0 note=60 velocity=0 time=160
note_on channel=0 note=72 velocity=0 time=0
note_on channel=0 note=69 velocity=74 time=0
note_on channel=0 note=65 velocity=56 time=0
note_on channel=0 note=65 velocity=0 time=160
note_on channel=0 note=69 velocity=0 time=0
note_on channel=0 note=72 velocity=82 time=0
note_on channel=0 note=60 velocity=64 time=0
note_on channel=0 note=60 velocity=0 time=160
note_on channel=0 note=72 velocity=0 time=0
note_on channel=0 note=77 velocity=74 time=0
note_on channel=0 note=57 velocity=57 time=0
note_on channel=0 note=57 velocity=0 time=0
note_on channel=0 note=77 velocity=0 time=0
note_on channel=0 note=81 velocity=73 time=0
note_on channel=0 note=53 velocity=57 time=0
note_on channel=0 note=53 velocity=0 time=0
note_on channel=0 note=81 velocity=0 time=0
note_on channel=0 note=79 velocity=82 time=0
note_on channel=0 note=58 velocity=64 time=0
note_on channel=0 note=58 velocity=0 time=97
note_on channel=0 note=79 velocity=0 time=0
note_on channel=0 note=76 velocity=74 time=0
note_on channel=0 note=61 velocity=56 time=0
note_on channel=0 note=61 velocity=0 time=160
note_on channel=0 note=76 velocity=0 time=0
note_on channel=0 note=73 velocity=74 time=0
note_on channel=0 note=65 velocity=56 time=0
note_on channel=0 note=65 velocity=0 time=160
note_on channel=0 note=73 velocity=0 time=0
note_on channel=0 note=76 velocity=82 time=0
note_on channel=0 note=61 velocity=64 time=0
note_on channel=0 note=61 velocity=0 time=160
note_on channel=0 note=76 velocity=0 time=0
note_on channel=0 note=79 velocity=75 time=0
note_on channel=0 note=58 velocity=57 time=0
note_on channel=0 note=58 velocity=0 time=0
note_on channel=0 note=79 velocity=0 time=0
note_on channel=0 note=82 velocity=75 time=0
note_on channel=0 note=53 velocity=58 time=0
note_on channel=0 note=53 velocity=0 time=0
note_on channel=0 note=82 velocity=0 time=0
note_on channel=0 note=81 velocity=82 time=0
note_on channel=0 note=60 velocity=64 time=0
note_on channel=0 note=81 velocity=0 time=88
note_on channel=0 note=78 velocity=74 time=0
note_on channel=0 note=63 velocity=56 time=0
note_on channel=0 note=78 velocity=0 time=160
note_on channel=0 note=75 velocity=77 time=0
note_on channel=0 note=65 velocity=56 time=0
note_on channel=0 note=75 velocity=0 time=160
note_on channel=0 note=63 velocity=0 time=0
note_on channel=0 note=78 velocity=82 time=0
note_on channel=0 note=63 velocity=64 time=0
note_on channel=0 note=78 velocity=0 time=160
note_on channel=0 note=60 velocity=0 time=0
note_on channel=0 note=81 velocity=75 time=0
note_on channel=0 note=60 velocity=57 time=0
note_on channel=0 note=81 velocity=0 time=0
note_on channel=0 note=84 velocity=74 time=0
note_on channel=0 note=53 velocity=57 time=0
note_on channel=0 note=84 velocity=0 time=0
note_on channel=0 note=81 velocity=82 time=0
note_on channel=0 note=81 velocity=0 time=160
note_on channel=0 note=78 velocity=74 time=0
note_on channel=0 note=78 velocity=0 time=160
note_on channel=0 note=87 velocity=74 time=0
note_on channel=0 note=87 velocity=0 time=0
note_on channel=0 note=78 velocity=82 time=0
note_on channel=0 note=78 velocity=0 time=160
note_on channel=0 note=75 velocity=74 time=0
note_on channel=0 note=75 velocity=0 time=160
note_on channel=0 note=84 velocity=74 time=0
note_on channel=0 note=84 velocity=0 time=0
note_on channel=0 note=75 velocity=82 time=0
note_on channel=0 note=75 velocity=0 time=160
note_on channel=0 note=72 velocity=74 time=0
note_on channel=0 note=72 velocity=0 time=160
note_on channel=0 note=81 velocity=74 time=0
note_on channel=0 note=81 velocity=0 time=160
note_on channel=0 note=75 velocity=78 time=0
note_on channel=0 note=75 velocity=0 time=160
note_on channel=0 note=69 velocity=74 time=0
note_on channel=0 note=69 velocity=0 time=160
note_on channel=0 note=78 velocity=74 time=0
note_on channel=0 note=78 velocity=0 time=0
note_on channel=0 note=75 velocity=77 time=0
note_on channel=0 note=75 velocity=0 time=51
note_on channel=0 note=69 velocity=71 time=0
note_on channel=0 note=69 velocity=0 time=160
note_on channel=0 note=77 velocity=71 time=0
note_on channel=0 note=77 velocity=0 time=0
note_on channel=0 note=75 velocity=76 time=0
note_on channel=0 note=75 velocity=0 time=160
note_on channel=0 note=69 velocity=71 time=0
note_on channel=0 note=69 velocity=0 time=160
note_on channel=0 note=77 velocity=71 time=0
note_on channel=0 note=77 velocity=0 time=0
note_on channel=0 note=63 velocity=0 time=0
note_on channel=0 note=60 velocity=0 time=0
note_on channel=0 note=65 velocity=0 time=0
note_on channel=0 note=53 velocity=0 time=0
note_on channel=0 note=70 velocity=67 time=0
note_on channel=0 note=74 velocity=67 time=0
note_on channel=0 note=77 velocity=79 time=0
note_on channel=0 note=34 velocity=66 time=0
note_on channel=0 note=46 velocity=70 time=0
note_on channel=0 note=46 velocity=0 time=103
note_on channel=0 note=34 velocity=0 time=0
note_on channel=0 note=41 velocity=61 time=0
note_on channel=0 note=41 velocity=0 time=160
note_on channel=0 note=38 velocity=62 time=0
note_on channel=0 note=38 velocity=0 time=160
note_on channel=0 note=70 velocity=0 time=0
note_on channel=0 note=74 velocity=0 time=0
note_on channel=0 note=77 velocity=0 time=0
note_on channel=0 note=65 velocity=75 time=0
note_on channel=0 note=41 velocity=70 time=0
note_on channel=0 note=41 velocity=0 time=160
note_on channel=0 note=46 velocity=63 time=0
note_on channel=0 note=46 velocity=0 time=0
note_on channel=0 note=50 velocity=64 time=0
note_on channel=0 note=50 velocity=0 time=0
note_on channel=0 note=48 velocity=70 time=0
note_on channel=0 note=48 velocity=0 time=80
note_on channel=0 note=45 velocity=63 time=0
note_on channel=0 note=45 velocity=0 time=0
note_on channel=0 note=41 velocity=64 time=0
note_on channel=0 note=41 velocity=0 time=0
note_on channel=0 note=65 velocity=0 time=0
note_on channel=0 note=65 velocity=75 time=0
note_on channel=0 note=45 velocity=70 time=0
note_on channel=0 note=45 velocity=0 time=160
note_on channel=0 note=48 velocity=65 time=0
note_on channel=0 note=48 velocity=0 time=0
note_on channel=0 note=51 velocity=65 time=0
note_on channel=0 note=51 velocity=0 time=0
note_on channel=0 note=65 velocity=0 time=0
note_on channel=0 note=70 velocity=82 time=0
note_on channel=0 note=50 velocity=64 time=0
note_on channel=0 note=50 velocity=0 time=91
note_on channel=0 note=70 velocity=0 time=0
note_on channel=0 note=65 velocity=74 time=0
note_on channel=0 note=53 velocity=56 time=0
note_on channel=0 note=53 velocity=0 time=160
note_on channel=0 note=65 velocity=0 time=0
note_on channel=0 note=62 velocity=74 time=0
note_on channel=0 note=58 velocity=56 time=0
note_on channel=0 note=58 velocity=0 time=160
note_on channel=0 note=62 velocity=0 time=0
note_on channel=0 note=65 velocity=82 time=0
note_on channel=0 note=53 velocity=64 time=0
note_on channel=0 note=53 velocity=0 time=160
note_on channel=0 note=65 velocity=0 time=0
note_on channel=0 note=70 velocity=74 time=0
note_on channel=0 note=50 velocity=57 time=0
note_on channel=0 note=50 velocity=0 time=0
note_on channel=0 note=70 velocity=0 time=0
note_on channel=0 note=74 velocity=73 time=0
note_on channel=0 note=46 velocity=57 time=0
note_on channel=0 note=46 velocity=0 time=0
note_on channel=0 note=74 velocity=0 time=0
note_on channel=0 note=72 velocity=82 time=0
note_on channel=0 note=51 velocity=64 time=0
note_on channel=0 note=51 velocity=0 time=68
note_on channel=0 note=72 velocity=0 time=0
note_on channel=0 note=69 velocity=74 time=0
note_on channel=0 note=54 velocity=56 time=0
note_on channel=0 note=54 velocity=0 time=160
note_on channel=0 note=69 velocity=0 time=0
note_on channel=0 note=66 velocity=74 time=0
note_on channel=0 note=58 velocity=56 time=0
note_on channel=0 note=58 velocity=0 time=160
note_on channel=0 note=66 velocity=0 time=0
note_on channel=0 note=69 velocity=82 time=0
note_on channel=0 note=54 velocity=64 time=0
note_on channel=0 note=54 velocity=0 time=160
note_on channel=0 note=69 velocity=0 time=0
note_on channel=0 note=72 velocity=75 time=0
note_on channel=0 note=51 velocity=57 time=0
note_on channel=0 note=51 velocity=0 time=0
note_on channel=0 note=72 velocity=0 time=0
note_on channel=0 note=75 velocity=75 time=0
note_on channel=0 note=46 velocity=58 time=0
note_on channel=0 note=46 velocity=0 time=0
note_on channel=0 note=75 velocity=0 time=0
note_on channel=0 note=74 velocity=82 time=0
note_on channel=0 note=53 velocity=64 time=0
note_on channel=0 note=74 velocity=0 time=108
note_on channel=0 note=71 velocity=74 time=0
note_on channel=0 note=56 velocity=56 time=0
note_on channel=0 note=71 velocity=0 time=160
note_on channel=0 note=68 velocity=77 time=0
note_on channel=0 note=58 velocity=56 time=0
note_on channel=0 note=68 velocity=0 time=160
note_on channel=0 note=56 velocity=0 time=0
note_on channel=0 note=71 velocity=82 time=0
note_on channel=0 note=56 velocity=64 time=0
note_on channel=0 note=71 velocity=0 time=160
note_on channel=0 note=53 velocity=0 time=0
note_on channel=0 note=74 velocity=75 time=0
note_on channel=0 note=53 velocity=57 time=0
note_on channel=0 note=74 velocity=0 time=0
note_on channel=0 note=77 velocity=74 time=0
note_on channel=0 note=46 velocity=57 time=0
note_on channel=0 note=77 velocity=0 time=0
note_on channel=0 note=80 velocity=82 time=0
note_on channel=0 note=80 velocity=0 time=160
note_on channel=0 note=74 velocity=74 time=0
note_on channel=0 note=74 velocity=0 time=160
note_on channel=0 note=83 velocity=74 time=0
note_on channel=0 note=83 velocity=0 time=0
note_on channel=0 note=74 velocity=82 time=0
note_on channel=0 note=74 velocity=0 time=160
note_on channel=0 note=71 velocity=74 time=0
note_on channel=0 note=71 velocity=0 time=160
note_on channel=0 note=80 velocity=74 time=0
note_on channel=0 note=80 velocity=0 time=0
note_on channel=0 note=71 velocity=82 time=0
note_on channel=0 note=71 velocity=0 time=160
note_on channel=0 note=68 velocity=74 time=0
note_on channel=0 note=68 velocity=0 time=160
note_on channel=0 note=77 velocity=74 time=0
note_on channel=0 note=77 velocity=0 time=160
note_on channel=0 note=68 velocity=78 time=0
note_on channel=0 note=68 velocity=0 time=160
note_on channel=0 note=65 velocity=74 time=0
note_on channel=0 note=65 velocity=0 time=160
note_on channel=0 note=74 velocity=74 time=0
note_on channel=0 note=74 velocity=0 time=0
note_on channel=0 note=68 velocity=77 time=0
note_on channel=0 note=68 velocity=0 time=57
note_on channel=0 note=62 velocity=71 time=0
note_on channel=0 note=62 velocity=0 time=160
note_on channel=0 note=71 velocity=71 time=0
note_on channel=0 note=71 velocity=0 time=0
note_on channel=0 note=68 velocity=76 time=0
note_on channel=0 note=68 velocity=0 time=160
note_on channel=0 note=62 velocity=71 time=0
note_on channel=0 note=62 velocity=0 time=0
note_on channel=0 note=70 velocity=71 time=0
note_on channel=0 note=70 velocity=0 time=0
note_on channel=0 note=56 velocity=0 time=0
note_on channel=0 note=53 velocity=0 time=0
note_on channel=0 note=58 velocity=0 time=0
note_on channel=0 note=46 velocity=0 time=0
note_on channel=0 note=78 velocity=82 time=0
note_on channel=0 note=51 velocity=64 time=0
note_on channel=0 note=78 velocity=0 time=85
note_on channel=0 note=75 velocity=74 time=0
note_on channel=0 note=54 velocity=56 time=0
note_on channel=0 note=75 velocity=0 time=160
note_on channel=0 note=70 velocity=77 time=0
note_on channel=0 note=58 velocity=56 time=0
note_on channel=0 note=70 velocity=0 time=160
note_on channel=0 note=54 velocity=0 time=0
note_on channel=0 note=75 velocity=82 time=0
note_on channel=0 note=54 velocity=64 time=0
note_on channel=0 note=75 velocity=0 time=160
note_on channel=0 note=51 velocity=0 time=0
note_on channel=0 note=78 velocity=75 time=0
note_on channel=0 note=51 velocity=57 time=0
note_on channel=0 note=78 velocity=0 time=160
note_on channel=0 note=82 velocity=74 time=0
note_on channel=0 note=46 velocity=57 time=0
note_on channel=0 note=82 velocity=0 time=0
note_on channel=0 note=78 velocity=82 time=0
note_on channel=0 note=78 velocity=0 time=160
note_on channel=0 note=75 velocity=74 time=0
note_on channel=0 note=75 velocity=0 time=160
note_on channel=0 note=87 velocity=74 time=0
note_on channel=0 note=87 velocity=0 time=0
note_on channel=0 note=75 velocity=82 time=0
note_on channel=0 note=75 velocity=0 time=160
note_on channel=0 note=70 velocity=74 time=0
note_on channel=0 note=70 velocity=0 time=160
note_on channel=0 note=82 velocity=74 time=0
note_on channel=0 note=82 velocity=0 time=0
note_on channel=0 note=70 velocity=82 time=0
note_on channel=0 note=70 velocity=0 time=160
note_on channel=0 note=66 velocity=74 time=0
note_on channel=0 note=66 velocity=0 time=160
note_on channel=0 note=78 velocity=74 time=0
note_on channel=0 note=78 velocity=0 time=160
note_on channel=0 note=66 velocity=78 time=0
note_on channel=0 note=66 velocity=0 time=160
note_on channel=0 note=63 velocity=74 time=0
note_on channel=0 note=63 velocity=0 time=160
note_on channel=0 note=75 velocity=74 time=0
note_on channel=0 note=75 velocity=0 time=0
note_on channel=0 note=66 velocity=77 time=0
note_on channel=0 note=66 velocity=0 time=160
note_on channel=0 note=63 velocity=71 time=0
note_on channel=0 note=63 velocity=0 time=160
note_on channel=0 note=75 velocity=71 time=0
note_on channel=0 note=75 velocity=0 time=0
note_on channel=0 note=66 velocity=76 time=0
note_on channel=0 note=66 velocity=0 time=160
note_on channel=0 note=63 velocity=71 time=0
note_on channel=0 note=63 velocity=0 time=0
note_on channel=0 note=75 velocity=71 time=0
note_on channel=0 note=75 velocity=0 time=0
note_on channel=0 note=54 velocity=0 time=0
note_on channel=0 note=51 velocity=0 time=0
note_on channel=0 note=58 velocity=0 time=0
note_on channel=0 note=46 velocity=0 time=0
note_on channel=0 note=78 velocity=82 time=0
note_on channel=0 note=49 velocity=64 time=0
note_on channel=0 note=78 velocity=0 time=105
note_on channel=0 note=76 velocity=74 time=0
note_on channel=0 note=54 velocity=56 time=0
note_on channel=0 note=76 velocity=0 time=160
note_on channel=0 note=73 velocity=77 time=0
note_on channel=0 note=58 velocity=56 time=0
note_on channel=0 note=73 velocity=0 time=160
note_on channel=0 note=54 velocity=0 time=0
note_on channel=0 note=76 velocity=82 time=0
note_on channel=0 note=54 velocity=64 time=0
note_on channel=0 note=76 velocity=0 time=160
note_on channel=0 note=49 velocity=0 time=0
note_on channel=0 note=78 velocity=75 time=0
note_on channel=0 note=49 velocity=57 time=0
note_on channel=0 note=78 velocity=0 time=160
note_on channel=0 note=85 velocity=74 time=0
note_on channel=0 note=46 velocity=57 time=0
note_on channel=0 note=85 velocity=0 time=0
note_on channel=0 note=78 velocity=82 time=0
note_on channel=0 note=78 velocity=0 time=160
note_on channel=0 note=76 velocity=74 time=0
note_on channel=0 note=76 velocity=0 time=160
note_on channel=0 note=88 velocity=74 time=0
note_on channel=0 note=88 velocity=0 time=0
note_on channel=0 note=76 velocity=82 time=0
note_on channel=0 note=76 velocity=0 time=160
note_on channel=0 note=73 velocity=74 time=0
note_on channel=0 note=73 velocity=0 time=160
note_on channel=0 note=85 velocity=74 time=0
note_on channel=0 note=85 velocity=0 time=0
note_on channel=0 note=73 velocity=82 time=0
note_on channel=0 note=73 velocity=0 time=160
note_on channel=0 note=66 velocity=74 time=0
note_on channel=0 note=66 velocity=0 time=160
note_on channel=0 note=78 velocity=74 time=0
note_on channel=0 note=78 velocity=0 time=160
note_on channel=0 note=66 velocity=78 time=0
note_on channel=0 note=66 velocity=0 time=160
note_on channel=0 note=64 velocity=74 time=0
note_on channel=0 note=64 velocity=0 time=160
note_on channel=0 note=76 velocity=74 time=0
note_on channel=0 note=76 velocity=0 time=0
note_on channel=0 note=66 velocity=77 time=0
note_on channel=0 note=66 velocity=0 time=160
note_on channel=0 note=64 velocity=71 time=0
note_on channel=0 note=64 velocity=0 time=160
note_on channel=0 note=76 velocity=71 time=0
note_on channel=0 note=76 velocity=0 time=0
note_on channel=0 note=66 velocity=76 time=0
note_on channel=0 note=66 velocity=0 time=160
note_on channel=0 note=64 velocity=71 time=0
note_on channel=0 note=64 velocity=0 time=0
note_on channel=0 note=76 velocity=71 time=0
note_on channel=0 note=76 velocity=0 time=0
note_on channel=0 note=54 velocity=0 time=0
note_on channel=0 note=49 velocity=0 time=0
note_on channel=0 note=58 velocity=0 time=0
note_on channel=0 note=46 velocity=0 time=0
note_on channel=0 note=78 velocity=82 time=0
note_on channel=0 note=50 velocity=64 time=0
note_on channel=0 note=78 velocity=0 time=71
note_on channel=0 note=74 velocity=74 time=0
note_on channel=0 note=54 velocity=56 time=0
note_on channel=0 note=74 velocity=0 time=160
note_on channel=0 note=71 velocity=77 time=0
note_on channel=0 note=59 velocity=56 time=0
note_on channel=0 note=71 velocity=0 time=160
note_on channel=0 note=54 velocity=0 time=0
note_on channel=0 note=74 velocity=82 time=0
note_on channel=0 note=54 velocity=64 time=0
note_on channel=0 note=74 velocity=0 time=160
note_on channel=0 note=50 velocity=0 time=0
note_on channel=0 note=78 velocity=75 time=0
note_on channel=0 note=50 velocity=57 time=0
note_on channel=0 note=78 velocity=0 time=160
note_on channel=0 note=83 velocity=74 time=0
note_on channel=0 note=47 velocity=57 time=0
note_on channel=0 note=83 velocity=0 time=0
note_on channel=0 note=78 velocity=82 time=0
note_on channel=0 note=78 velocity=0 time=160
note_on channel=0 note=74 velocity=74 time=0
note_on channel=0 note=74 velocity=0 time=160
note_on channel=0 note=86 velocity=74 time=0
note_on channel=0 note=86 velocity=0 time=0
note_on channel=0 note=74 velocity=82 time=0
note_on channel=0 note=74 velocity=0 time=160
note_on channel=0 note=71 velocity=74 time=0
note_on channel=0 note=71 velocity=0 time=160
note_on channel=0 note=83 velocity=74 time=0
note_on channel=0 note=83 velocity=0 time=0
note_on channel=0 note=71 velocity=82 time=0
note_on channel=0 note=71 velocity=0 time=160
note_on channel=0 note=66 velocity=74 time=0
note_on channel=0 note=66 velocity=0 time=160
note_on channel=0 note=78 velocity=74 time=0
note_on channel=0 note=78 velocity=0 time=160
note_on channel=0 note=66 velocity=78 time=0
note_on channel=0 note=66 velocity=0 time=160
note_on channel=0 note=62 velocity=74 time=0
note_on channel=0 note=62 velocity=0 time=160
note_on channel=0 note=74 velocity=74 time=0
note_on channel=0 note=74 velocity=0 time=0
note_on channel=0 note=66 velocity=77 time=0
note_on channel=0 note=66 velocity=0 time=160
note_on channel=0 note=62 velocity=71 time=0
note_on channel=0 note=62 velocity=0 time=160
note_on channel=0 note=74 velocity=71 time=0
note_on channel=0 note=74 velocity=0 time=0
note_on channel=0 note=66 velocity=76 time=0
note_on channel=0 note=66 velocity=0 time=160
note_on channel=0 note=62 velocity=71 time=0
note_on channel=0 note=62 velocity=0 time=0
note_on channel=0 note=74 velocity=71 time=0
note_on channel=0 note=74 velocity=0 time=0
note_on channel=0 note=54 velocity=0 time=0
note_on channel=0 note=50 velocity=0 time=0
note_on channel=0 note=59 velocity=0 time=0
note_on channel=0 note=47 velocity=0 time=0
note_on channel=0 note=79 velocity=82 time=0
note_on channel=0 note=50 velocity=64 time=0
note_on channel=0 note=79 velocity=0 time=89
note_on channel=0 note=74 velocity=74 time=0
note_on channel=0 note=55 velocity=56 time=0
note_on channel=0 note=74 velocity=0 time=160
note_on channel=0 note=71 velocity=77 time=0
note_on channel=0 note=59 velocity=56 time=0
note_on channel=0 note=71 velocity=0 time=160
note_on channel=0 note=55 velocity=0 time=0
note_on channel=0 note=74 velocity=82 time=0
note_on channel=0 note=55 velocity=64 time=0
note_on channel=0 note=74 velocity=0 time=160
note_on channel=0 note=50 velocity=0 time=0
note_on channel=0 note=79 velocity=75 time=0
note_on channel=0 note=50 velocity=57 time=0
note_on channel=0 note=79 velocity=0 time=160
note_on channel=0 note=83 velocity=74 time=0
note_on channel=0 note=47 velocity=57 time=0
note_on channel=0 note=83 velocity=0 time=0
note_on channel=0 note=79 velocity=82 time=0
note_on channel=0 note=79 velocity=0 time=160
note_on channel=0 note=74 velocity=74 time=0
note_on channel=0 note=74 velocity=0 time=160
note_on channel=0 note=86 velocity=74 time=0
note_on channel=0 note=86 velocity=0 time=0
note_on channel=0 note=74 velocity=82 time=0
note_on channel=0 note=74 velocity=0 time=160
note_on channel=0 note=71 velocity=74 time=0
note_on channel=0 note=71 velocity=0 time=160
note_on channel=0 note=83 velocity=74 time=0
note_on channel=0 note=83 velocity=0 time=0
note_on channel=0 note=71 velocity=82 time=0
note_on channel=0 note=71 velocity=0 time=160
note_on channel=0 note=67 velocity=74 time=0
note_on channel=0 note=67 velocity=0 time=160
note_on channel=0 note=79 velocity=74 time=0
note_on channel=0 note=79 velocity=0 time=160
note_on channel=0 note=67 velocity=78 time=0
note_on channel=0 note=67 velocity=0 time=160
note_on channel=0 note=65 velocity=74 time=0
note_on channel=0 note=65 velocity=0 time=160
note_on channel=0 note=77 velocity=74 time=0
note_on channel=0 note=77 velocity=0 time=0
note_on channel=0 note=67 velocity=77 time=0
note_on channel=0 note=67 velocity=0 time=160
note_on channel=0 note=62 velocity=71 time=0
note_on channel=0 note=62 velocity=0 time=160
note_on channel=0 note=74 velocity=71 time=0
note_on channel=0 note=74 velocity=0 time=0
note_on channel=0 note=67 velocity=76 time=0
note_on channel=0 note=67 velocity=0 time=160
note_on channel=0 note=62 velocity=71 time=0
note_on channel=0 note=62 velocity=0 time=0
note_on channel=0 note=74 velocity=71 time=0
note_on channel=0 note=74 velocity=0 time=0
note_on channel=0 note=55 velocity=0 time=0
note_on channel=0 note=50 velocity=0 time=0
note_on channel=0 note=59 velocity=0 time=0
note_on channel=0 note=47 velocity=0 time=0
note_on channel=0 note=84 velocity=82 time=0
note_on channel=0 note=51 velocity=64 time=0
note_on channel=0 note=84 velocity=0 time=96
note_on channel=0 note=79 velocity=74 time=0
note_on channel=0 note=55 velocity=56 time=0
note_on channel=0 note=79 velocity=0 time=160
note_on channel=0 note=75 velocity=77 time=0
note_on channel=0 note=60 velocity=56 time=0
note_on channel=0 note=75 velocity=0 time=160
note_on channel=0 note=55 velocity=0 time=0
note_on channel=0 note=79 velocity=82 time=0
note_on channel=0 note=55 velocity=64 time=0
note_on channel=0 note=79 velocity=0 time=160
note_on channel=0 note=51 velocity=0 time=0
note_on channel=0 note=84 velocity=75 time=0
note_on channel=0 note=51 velocity=57 time=0
note_on channel=0 note=84 velocity=0 time=160
note_on channel=0 note=87 velocity=74 time=0
note_on channel=0 note=48 velocity=57 time=0
note_on channel=0 note=87 velocity=0 time=0
note_on channel=0 note=79 velocity=82 time=0
note_on channel=0 note=79 velocity=0 time=160
note_on channel=0 note=75 velocity=74 time=0
note_on channel=0 note=75 velocity=0 time=160
note_on channel=0 note=87 velocity=74 time=0
note_on channel=0 note=87 velocity=0 time=0
note_on channel=0 note=75 velocity=82 time=0
note_on channel=0 note=75 velocity=0 time=160
note_on channel=0 note=72 velocity=74 time=0
note_on channel=0 note=72 velocity=0 time=160
note_on channel=0 note=84 velocity=74 time=0
note_on channel=0 note=84 velocity=0 time=0
note_on channel=0 note=72 velocity=82 time=0
note_on channel=0 note=72 velocity=0 time=160
note_on channel=0 note=67 velocity=74 time=0
note_on channel=0 note=67 velocity=0 time=160
note_on channel=0 note=79 velocity=74 time=0
note_on channel=0 note=79 velocity=0 time=160
note_on channel=0 note=67 velocity=78 time=0
note_on channel=0 note=67 velocity=0 time=160
note_on channel=0 note=63 velocity=74 time=0
note_on channel=0 note=63 velocity=0 time=160
note_on channel=0 note=75 velocity=74 time=0
note_on channel=0 note=75 velocity=0 time=0
note_on channel=0 note=67 velocity=77 time=0
note_on channel=0 note=67 velocity=0 time=160
note_on channel=0 note=63 velocity=71 time=0
note_on channel=0 note=63 velocity=0 time=160
note_on channel=0 note=75 velocity=71 time=0
note_on channel=0 note=75 velocity=0 time=0
note_on channel=0 note=67 velocity=76 time=0
note_on channel=0 note=67 velocity=0 time=160
note_on channel=0 note=63 velocity=71 time=0
note_on channel=0 note=63 velocity=0 time=0
note_on channel=0 note=75 velocity=71 time=0
note_on channel=0 note=75 velocity=0 time=0
note_on channel=0 note=55 velocity=0 time=0
note_on channel=0 note=51 velocity=0 time=0
note_on channel=0 note=60 velocity=0 time=0
note_on channel=0 note=48 velocity=0 time=0
note_on channel=0 note=77 velocity=82 time=0
note_on channel=0 note=56 velocity=64 time=0
note_on channel=0 note=77 velocity=0 time=114
note_on channel=0 note=73 velocity=74 time=0
note_on channel=0 note=61 velocity=56 time=0
note_on channel=0 note=73 velocity=0 time=160
note_on channel=0 note=68 velocity=77 time=0
note_on channel=0 note=65 velocity=56 time=0
note_on channel=0 note=68 velocity=0 time=160
note_on channel=0 note=61 velocity=0 time=0
note_on channel=0 note=73 velocity=82 time=0
note_on channel=0 note=61 velocity=64 time=0
note_on channel=0 note=73 velocity=0 time=160
note_on channel=0 note=56 velocity=0 time=0
note_on channel=0 note=77 velocity=75 time=0
note_on channel=0 note=56 velocity=57 time=0
note_on channel=0 note=77 velocity=0 time=160
note_on channel=0 note=80 velocity=74 time=0
note_on channel=0 note=53 velocity=57 time=0
note_on channel=0 note=80 velocity=0 time=0
note_on channel=0 note=77 velocity=82 time=0
note_on channel=0 note=77 velocity=0 time=160
note_on channel=0 note=73 velocity=74 time=0
note_on channel=0 note=73 velocity=0 time=160
note_on channel=0 note=68 velocity=74 time=0
note_on channel=0 note=68 velocity=0 time=0
note_on channel=0 note=77 velocity=82 time=0
note_on channel=0 note=77 velocity=0 time=160
note_on channel=0 note=73 velocity=74 time=0
note_on channel=0 note=73 velocity=0 time=160
note_on channel=0 note=68 velocity=74 time=0
note_on channel=0 note=68 velocity=0 time=0
note_on channel=0 note=61 velocity=0 time=0
note_on channel=0 note=56 velocity=0 time=0
note_on channel=0 note=65 velocity=0 time=0
note_on channel=0 note=53 velocity=0 time=0
note_on channel=0 note=75 velocity=82 time=0
note_on channel=0 note=60 velocity=64 time=0
note_on channel=0 note=75 velocity=0 time=91
note_on channel=0 note=72 velocity=74 time=0
note_on channel=0 note=63 velocity=56 time=0
note_on channel=0 note=72 velocity=0 time=160
note_on channel=0 note=69 velocity=77 time=0
note_on channel=0 note=66 velocity=56 time=0
note_on channel=0 note=69 velocity=0 time=160
note_on channel=0 note=63 velocity=0 time=0
note_on channel=0 note=72 velocity=82 time=0
note_on channel=0 note=63 velocity=64 time=0
note_on channel=0 note=72 velocity=0 time=160
note_on channel=0 note=60 velocity=0 time=0
note_on channel=0 note=75 velocity=75 time=0
note_on channel=0 note=60 velocity=57 time=0
note_on channel=0 note=75 velocity=0 time=160
note_on channel=0 note=81 velocity=74 time=0
note_on channel=0 note=54 velocity=57 time=0
note_on channel=0 note=81 velocity=0 time=0
note_on channel=0 note=63 velocity=0 time=0
note_on channel=0 note=75 velocity=82 time=0
note_on channel=0 note=75 velocity=0 time=160
note_on channel=0 note=72 velocity=74 time=0
note_on channel=0 note=72 velocity=0 time=160
note_on channel=0 note=69 velocity=74 time=0
note_on channel=0 note=69 velocity=0 time=0
note_on channel=0 note=75 velocity=82 time=0
note_on channel=0 note=75 velocity=0 time=160
note_on channel=0 note=72 velocity=74 time=0
note_on channel=0 note=72 velocity=0 time=160
note_on channel=0 note=69 velocity=74 time=0
note_on channel=0 note=69 velocity=0 time=0
note_on channel=0 note=60 velocity=0 time=0
note_on channel=0 note=66 velocity=0 time=0
note_on channel=0 note=54 velocity=0 time=0
note_on channel=0 note=59 velocity=70 time=0
note_on channel=0 note=62 velocity=61 time=82
note_on channel=0 note=67 velocity=61 time=160
note_on channel=0 note=62 velocity=0 time=20
note_on channel=0 note=71 velocity=83 time=0
note_on channel=0 note=62 velocity=70 time=0
note_on channel=0 note=71 velocity=0 time=160
note_on channel=0 note=59 velocity=0 time=0
note_on channel=0 note=74 velocity=72 time=0
note_on channel=0 note=59 velocity=62 time=0
note_on channel=0 note=74 velocity=0 time=160
note_on channel=0 note=79 velocity=72 time=0
note_on channel=0 note=55 velocity=62 time=0
note_on channel=0 note=79 velocity=0 time=0
note_on channel=0 note=74 velocity=83 time=0
note_on channel=0 note=74 velocity=0 time=160
note_on channel=0 note=71 velocity=71 time=0
note_on channel=0 note=71 velocity=0 time=0
note_on channel=0 note=67 velocity=70 time=0
note_on channel=0 note=67 velocity=0 time=0
note_on channel=0 note=59 velocity=0 time=0
note_on channel=0 note=62 velocity=0 time=0
note_on channel=0 note=67 velocity=0 time=0
note_on channel=0 note=77 velocity=58 time=0
note_on channel=0 note=62 velocity=36 time=0
note_on channel=0 note=77 velocity=0 time=89
note_on channel=0 note=71 velocity=47 time=0
note_on channel=0 note=71 velocity=0 time=0
note_on channel=0 note=67 velocity=47 time=0
note_on channel=0 note=67 velocity=0 time=0
note_on channel=0 note=62 velocity=0 time=0
note_on channel=0 note=77 velocity=55 time=0
note_on channel=0 note=59 velocity=41 time=0
note_on channel=0 note=77 velocity=0 time=160
note_on channel=0 note=74 velocity=47 time=0
note_on channel=0 note=74 velocity=0 time=0
note_on channel=0 note=67 velocity=47 time=0
note_on channel=0 note=67 velocity=0 time=0
note_on channel=0 note=59 velocity=0 time=0
note_on channel=0 note=55 velocity=0 time=0
note_on channel=0 note=75 velocity=55 time=0
note_on channel=0 note=55 velocity=36 time=0
note_on channel=0 note=75 velocity=0 time=85
note_on channel=0 note=74 velocity=47 time=0
note_on channel=0 note=74 velocity=0 time=0
note_on channel=0 note=67 velocity=47 time=0
note_on channel=0 note=67 velocity=0 time=0
note_on channel=0 note=75 velocity=55 time=0
note_on channel=0 note=60 velocity=36 time=0
note_on channel=0 note=75 velocity=0 time=80
note_on channel=0 note=72 velocity=48 time=0
note_on channel=0 note=72 velocity=0 time=0
note_on channel=0 note=67 velocity=48 time=0
note_on channel=0 note=67 velocity=0 time=0
note_on channel=0 note=60 velocity=0 time=0
note_on channel=0 note=74 velocity=55 time=0
note_on channel=0 note=66 velocity=36 time=0
note_on channel=0 note=74 velocity=0 time=63
note_on channel=0 note=72 velocity=47 time=0
note_on channel=0 note=72 velocity=0 time=0
note_on channel=0 note=69 velocity=47 time=0
note_on channel=0 note=69 velocity=0 time=0
note_on channel=0 note=66 velocity=0 time=0
note_on channel=0 note=55 velocity=0 time=0
note_on channel=0 note=47 velocity=62 time=0
note_on channel=0 note=50 velocity=55 time=82
note_on channel=0 note=55 velocity=55 time=160
note_on channel=0 note=50 velocity=0 time=20
note_on channel=0 note=59 velocity=78 time=0
note_on channel=0 note=50 velocity=62 time=0
note_on channel=0 note=59 velocity=0 time=160
note_on channel=0 note=47 velocity=0 time=0
note_on channel=0 note=62 velocity=71 time=0
note_on channel=0 note=47 velocity=56 time=0
note_on channel=0 note=62 velocity=0 time=160
note_on channel=0 note=67 velocity=71 time=0
note_on channel=0 note=43 velocity=56 time=0
note_on channel=0 note=67 velocity=0 time=0
note_on channel=0 note=62 velocity=74 time=0
note_on channel=0 note=62 velocity=0 time=160
note_on channel=0 note=59 velocity=63 time=0
note_on channel=0 note=55 velocity=0 time=155
note_on channel=0 note=59 velocity=0 time=0
note_on channel=0 note=55 velocity=62 time=0
note_on channel=0 note=55 velocity=0 time=0
note_on channel=0 note=47 velocity=0 time=0
note_on channel=0 note=50 velocity=0 time=0
note_on channel=0 note=65 velocity=52 time=0
note_on channel=0 note=50 velocity=32 time=0
note_on channel=0 note=65 velocity=0 time=103
note_on channel=0 note=59 velocity=42 time=0
note_on channel=0 note=59 velocity=0 time=0
note_on channel=0 note=55 velocity=42 time=0
note_on channel=0 note=55 velocity=0 time=0
note_on channel=0 note=50 velocity=0 time=0
note_on channel=0 note=65 velocity=49 time=0
note_on channel=0 note=47 velocity=36 time=0
note_on channel=0 note=65 velocity=0 time=160
note_on channel=0 note=62 velocity=42 time=0
note_on channel=0 note=62 velocity=0 time=0
note_on channel=0 note=55 velocity=42 time=0
note_on channel=0 note=55 velocity=0 time=0
note_on channel=0 note=47 velocity=0 time=0
note_on channel=0 note=43 velocity=0 time=0
note_on channel=0 note=63 velocity=49 time=0
note_on channel=0 note=43 velocity=32 time=0
note_on channel=0 note=63 velocity=0 time=103
note_on channel=0 note=62 velocity=42 time=0
note_on channel=0 note=62 velocity=0 time=0
note_on channel=0 note=55 velocity=42 time=0
note_on channel=0 note=55 velocity=0 time=0
note_on channel=0 note=63 velocity=49 time=0
note_on channel=0 note=48 velocity=32 time=0
note_on channel=0 note=63 velocity=0 time=97
note_on channel=0 note=60 velocity=43 time=0
note_on channel=0 note=60 velocity=0 time=0
note_on channel=0 note=55 velocity=43 time=0
note_on channel=0 note=55 velocity=0 time=0
note_on channel=0 note=48 velocity=0 time=0
note_on channel=0 note=62 velocity=49 time=0
note_on channel=0 note=54 velocity=32 time=0
note_on channel=0 note=62 velocity=0 time=85
note_on channel=0 note=60 velocity=42 time=0
note_on channel=0 note=60 velocity=0 time=0
note_on channel=0 note=57 velocity=42 time=0
note_on channel=0 note=57 velocity=0 time=0
note_on channel=0 note=54 velocity=0 time=0
note_on channel=0 note=62 velocity=49 time=0
note_on channel=0 note=55 velocity=36 time=0
note_on channel=0 note=62 velocity=0 time=74
note_on channel=0 note=59 velocity=42 time=0
note_on channel=0 note=55 velocity=0 time=80
note_on channel=0 note=43 velocity=0 time=0
note_on channel=0 note=59 velocity=0 time=0
note_on channel=0 note=55 velocity=42 time=0
note_on channel=0 note=55 velocity=0 time=0
note_on channel=0 note=60 velocity=49 time=0
note_on channel=0 note=48 velocity=32 time=0
note_on channel=0 note=60 velocity=0 time=85
note_on channel=0 note=55 velocity=42 time=0
note_on channel=0 note=55 velocity=0 time=0
note_on channel=0 note=51 velocity=41 time=0
note_on channel=0 note=51 velocity=0 time=0
note_on channel=0 note=48 velocity=0 time=0
note_on channel=0 note=59 velocity=48 time=0
note_on channel=0 note=43 velocity=31 time=0
note_on channel=0 note=59 velocity=0 time=74
note_on channel=0 note=55 velocity=41 time=0
note_on channel=0 note=55 velocity=0 time=0
note_on channel=0 note=50 velocity=41 time=0
note_on channel=0 note=50 velocity=0 time=0
note_on channel=0 note=43 velocity=0 time=0
note_on channel=0 note=57 velocity=46 time=0
note_on channel=0 note=36 velocity=30 time=0
note_on channel=0 note=57 velocity=0 time=57
note_on channel=0 note=51 velocity=39 time=0
note_on channel=0 note=51 velocity=0 time=0
note_on channel=0 note=48 velocity=39 time=0
note_on channel=0 note=48 velocity=0 time=0
note_on channel=0 note=36 velocity=0 time=0
note_on channel=0 note=55 velocity=45 time=0
note_on channel=0 note=31 velocity=33 time=0
note_on channel=0 note=55 velocity=0 time=97
note_on channel=0 note=50 velocity=38 time=0
note_on channel=0 note=50 velocity=0 time=0
note_on channel=0 note=47 velocity=37 time=0
note_on channel=0 note=47 velocity=0 time=0
note_on channel=0 note=31 velocity=0 time=0
note_on channel=0 note=54 velocity=43 time=0
note_on channel=0 note=36 velocity=28 time=0
note_on channel=0 note=54 velocity=0 time=85
note_on channel=0 note=51 velocity=36 time=0
note_on channel=0 note=51 velocity=0 time=0
note_on channel=0 note=45 velocity=36 time=0
note_on channel=0 note=45 velocity=0 time=0
note_on channel=0 note=36 velocity=0 time=0
note_on channel=0 note=55 velocity=42 time=0
note_on channel=0 note=31 velocity=27 time=0
note_on channel=0 note=55 velocity=0 time=91
note_on channel=0 note=50 velocity=36 time=0
note_on channel=0 note=50 velocity=0 time=0
note_on channel=0 note=47 velocity=36 time=0
note_on channel=0 note=47 velocity=0 time=0
note_on channel=0 note=31 velocity=0 time=0
note_on channel=0 note=54 velocity=40 time=0
note_on channel=0 note=36 velocity=26 time=0
note_on channel=0 note=54 velocity=0 time=97
note_on channel=0 note=51 velocity=34 time=0
note_on channel=0 note=51 velocity=0 time=0
note_on channel=0 note=45 velocity=34 time=0
note_on channel=0 note=45 velocity=0 time=0
note_on channel=0 note=36 velocity=0 time=0
note_on channel=0 note=47 velocity=38 time=0
note_on channel=0 note=50 velocity=38 time=0
note_on channel=0 note=55 velocity=45 time=0
note_on channel=0 note=31 velocity=37 time=0
note_on channel=0 note=31 velocity=0 time=105
note_on channel=0 note=36 velocity=33 time=0
note_on channel=0 note=36 velocity=0 time=120
note_on channel=0 note=35 velocity=33 time=0
note_on channel=0 note=35 velocity=0 time=120
note_on channel=0 note=33 velocity=33 time=0
note_on channel=0 note=33 velocity=0 time=120
note_on channel=0 note=31 velocity=37 time=0
note_on channel=0 note=31 velocity=0 time=120
note_on channel=0 note=36 velocity=33 time=0
note_on channel=0 note=36 velocity=0 time=120
note_on channel=0 note=35 velocity=33 time=0
note_on channel=0 note=35 velocity=0 time=120
note_on channel=0 note=33 velocity=33 time=0
note_on channel=0 note=33 velocity=0 time=120
note_on channel=0 note=31 velocity=37 time=0
note_on channel=0 note=31 velocity=0 time=120
note_on channel=0 note=36 velocity=33 time=0
note_on channel=0 note=36 velocity=0 time=120
note_on channel=0 note=35 velocity=33 time=0
note_on channel=0 note=35 velocity=0 time=120
note_on channel=0 note=33 velocity=33 time=0
note_on channel=0 note=33 velocity=0 time=120
note_on channel=0 note=31 velocity=37 time=0
note_on channel=0 note=31 velocity=0 time=120
note_on channel=0 note=36 velocity=33 time=0
note_on channel=0 note=36 velocity=0 time=120
note_on channel=0 note=35 velocity=33 time=0
note_on channel=0 note=35 velocity=0 time=120
note_on channel=0 note=33 velocity=33 time=0
note_on channel=0 note=33 velocity=0 time=0
note_on channel=0 note=31 velocity=33 time=0
note_on channel=0 note=55 velocity=0 time=0
note_on channel=0 note=47 velocity=0 time=0
note_on channel=0 note=50 velocity=0 time=0
note_on channel=0 note=50 velocity=40 time=0
note_on channel=0 note=50 velocity=0 time=120
note_on channel=0 note=52 velocity=40 time=0
note_on channel=0 note=52 velocity=0 time=120
note_on channel=0 note=54 velocity=40 time=0
note_on channel=0 note=54 velocity=0 time=120
note_on channel=0 note=55 velocity=45 time=0
note_on channel=0 note=55 velocity=0 time=120
note_on channel=0 note=50 velocity=40 time=0
note_on channel=0 note=50 velocity=0 time=120
note_on channel=0 note=52 velocity=40 time=0
note_on channel=0 note=52 velocity=0 time=120
note_on channel=0 note=54 velocity=40 time=0
note_on channel=0 note=54 velocity=0 time=120
note_on channel=0 note=55 velocity=45 time=0
note_on channel=0 note=55 velocity=0 time=120
note_on channel=0 note=50 velocity=40 time=0
note_on channel=0 note=50 velocity=0 time=120
note_on channel=0 note=52 velocity=40 time=0
note_on channel=0 note=52 velocity=0 time=120
note_on channel=0 note=54 velocity=40 time=0
note_on channel=0 note=54 velocity=0 time=120
note_on channel=0 note=55 velocity=46 time=0
note_on channel=0 note=55 velocity=0 time=120
note_on channel=0 note=50 velocity=40 time=0
note_on channel=0 note=50 velocity=0 time=120
note_on channel=0 note=52 velocity=40 time=0
note_on channel=0 note=52 velocity=0 time=120
note_on channel=0 note=54 velocity=40 time=0
note_on channel=0 note=54 velocity=0 time=0
note_on channel=0 note=55 velocity=45 time=0
note_on channel=0 note=31 velocity=0 time=0
note_on channel=0 note=36 velocity=33 time=0
note_on channel=0 note=36 velocity=0 time=120
note_on channel=0 note=35 velocity=33 time=0
note_on channel=0 note=35 velocity=0 time=120
note_on channel=0 note=33 velocity=33 time=0
note_on channel=0 note=33 velocity=0 time=120
note_on channel=0 note=31 velocity=37 time=0
note_on channel=0 note=31 velocity=0 time=120
note_on channel=0 note=36 velocity=33 time=0
note_on channel=0 note=36 velocity=0 time=120
note_on channel=0 note=35 velocity=33 time=0
note_on channel=0 note=35 velocity=0 time=120
note_on channel=0 note=33 velocity=33 time=0
note_on channel=0 note=33 velocity=0 time=120
note_on channel=0 note=31 velocity=37 time=0
note_on channel=0 note=31 velocity=0 time=120
note_on channel=0 note=36 velocity=33 time=0
note_on channel=0 note=36 velocity=0 time=120
note_on channel=0 note=35 velocity=33 time=0
note_on channel=0 note=35 velocity=0 time=120
note_on channel=0 note=33 velocity=33 time=0
note_on channel=0 note=33 velocity=0 time=120
note_on channel=0 note=31 velocity=37 time=0
note_on channel=0 note=31 velocity=0 time=120
note_on channel=0 note=36 velocity=33 time=0
note_on channel=0 note=36 velocity=0 time=120
note_on channel=0 note=35 velocity=33 time=0
note_on channel=0 note=35 velocity=0 time=120
note_on channel=0 note=33 velocity=33 time=0
note_on channel=0 note=33 velocity=0 time=0
note_on channel=0 note=31 velocity=33 time=0
note_on channel=0 note=55 velocity=0 time=0
note_on channel=0 note=54 velocity=40 time=0
note_on channel=0 note=54 velocity=0 time=120
note_on channel=0 note=55 velocity=40 time=0
note_on channel=0 note=55 velocity=0 time=120
note_on channel=0 note=57 velocity=40 time=0
note_on channel=0 note=57 velocity=0 time=120
note_on channel=0 note=59 velocity=45 time=0
note_on channel=0 note=59 velocity=0 time=120
note_on channel=0 note=54 velocity=40 time=0
note_on channel=0 note=54 velocity=0 time=120
note_on channel=0 note=55 velocity=40 time=0
note_on channel=0 note=55 velocity=0 time=120
note_on channel=0 note=57 velocity=40 time=0
note_on channel=0 note=57 velocity=0 time=120
note_on channel=0 note=59 velocity=45 time=0
note_on channel=0 note=59 velocity=0 time=120
note_on channel=0 note=54 velocity=40 time=0
note_on channel=0 note=54 velocity=0 time=120
note_on channel=0 note=55 velocity=40 time=0
note_on channel=0 note=55 velocity=0 time=120
note_on channel=0 note=57 velocity=40 time=0
note_on channel=0 note=57 velocity=0 time=120
note_on channel=0 note=59 velocity=46 time=0
note_on channel=0 note=59 velocity=0 time=120
note_on channel=0 note=54 velocity=40 time=0
note_on channel=0 note=54 velocity=0 time=120
note_on channel=0 note=55 velocity=40 time=0
note_on channel=0 note=55 velocity=0 time=120
note_on channel=0 note=57 velocity=40 time=0
note_on channel=0 note=57 velocity=0 time=0
note_on channel=0 note=59 velocity=45 time=0
note_on channel=0 note=31 velocity=0 time=120
note_on channel=0 note=36 velocity=33 time=0
note_on channel=0 note=36 velocity=0 time=120
note_on channel=0 note=59 velocity=0 time=0
note_on channel=0 note=35 velocity=33 time=0
note_on channel=0 note=35 velocity=0 time=120
note_on channel=0 note=33 velocity=33 time=0
note_on channel=0 note=33 velocity=0 time=120
note_on channel=0 note=31 velocity=37 time=0
note_on channel=0 note=31 velocity=0 time=120
note_on channel=0 note=36 velocity=33 time=0
note_on channel=0 note=36 velocity=0 time=120
note_on channel=0 note=59 velocity=41 time=0
note_on channel=0 note=35 velocity=33 time=0
note_on channel=0 note=35 velocity=0 time=120
note_on channel=0 note=59 velocity=0 time=0
note_on channel=0 note=60 velocity=44 time=0
note_on channel=0 note=33 velocity=33 time=0
note_on channel=0 note=33 velocity=0 time=120
note_on channel=0 note=60 velocity=0 time=0
note_on channel=0 note=62 velocity=48 time=0
note_on channel=0 note=31 velocity=38 time=0
note_on channel=0 note=31 velocity=0 time=120
note_on channel=0 note=62 velocity=0 time=0
note_on channel=0 note=36 velocity=33 time=0
note_on channel=0 note=36 velocity=0 time=120
note_on channel=0 note=35 velocity=34 time=0
note_on channel=0 note=35 velocity=0 time=120
note_on channel=0 note=33 velocity=34 time=0
note_on channel=0 note=33 velocity=0 time=120
note_on channel=0 note=31 velocity=38 time=0
note_on channel=0 note=31 velocity=0 time=120
note_on channel=0 note=36 velocity=34 time=0
note_on channel=0 note=36 velocity=0 time=120
note_on channel=0 note=62 velocity=45 time=0
note_on channel=0 note=35 velocity=34 time=0
note_on channel=0 note=62 velocity=0 time=80
note_on channel=0 note=64 velocity=47 time=0
note_on channel=0 note=35 velocity=0 time=40
note_on channel=0 note=33 velocity=34 time=0
note_on channel=0 note=64 velocity=0 time=40
note_on channel=0 note=66 velocity=48 time=0
note_on channel=0 note=66 velocity=0 time=0
note_on channel=0 note=33 velocity=0 time=0
note_on channel=0 note=67 velocity=53 time=0
note_on channel=0 note=31 velocity=39 time=0
note_on channel=0 note=31 velocity=0 time=120
note_on channel=0 note=36 velocity=35 time=0
note_on channel=0 note=36 velocity=0 time=120
note_on channel=0 note=67 velocity=0 time=0
note_on channel=0 note=35 velocity=35 time=0
note_on channel=0 note=35 velocity=0 time=120
note_on channel=0 note=33 velocity=35 time=0
note_on channel=0 note=33 velocity=0 time=120
note_on channel=0 note=31 velocity=39 time=0
note_on channel=0 note=31 velocity=0 time=120
note_on channel=0 note=36 velocity=35 time=0
note_on channel=0 note=36 velocity=0 time=0
note_on channel=0 note=67 velocity=51 time=0
note_on channel=0 note=35 velocity=35 time=0
note_on channel=0 note=35 velocity=0 time=120
note_on channel=0 note=67 velocity=0 time=0
note_on channel=0 note=69 velocity=51 time=0
note_on channel=0 note=33 velocity=35 time=0
note_on channel=0 note=33 velocity=0 time=0
note_on channel=0 note=69 velocity=0 time=0
note_on channel=0 note=71 velocity=55 time=0
note_on channel=0 note=31 velocity=40 time=0
note_on channel=0 note=31 velocity=0 time=120
note_on channel=0 note=71 velocity=0 time=0
note_on channel=0 note=36 velocity=36 time=0
note_on channel=0 note=36 velocity=0 time=0
note_on channel=0 note=71 velocity=51 time=0
note_on channel=0 note=35 velocity=36 time=0
note_on channel=0 note=35 velocity=0 time=120
note_on channel=0 note=71 velocity=0 time=0
note_on channel=0 note=72 velocity=52 time=0
note_on channel=0 note=33 velocity=36 time=0
note_on channel=0 note=33 velocity=0 time=0
note_on channel=0 note=72 velocity=0 time=0
note_on channel=0 note=74 velocity=55 time=0
note_on channel=0 note=31 velocity=40 time=0
note_on channel=0 note=31 velocity=0 time=120
note_on channel=0 note=74 velocity=0 time=0
note_on channel=0 note=36 velocity=36 time=0
note_on channel=0 note=36 velocity=0 time=0
note_on channel=0 note=74 velocity=52 time=0
note_on channel=0 note=35 velocity=36 time=0
note_on channel=0 note=74 velocity=0 time=80
note_on channel=0 note=76 velocity=54 time=0
note_on channel=0 note=35 velocity=0 time=40
note_on channel=0 note=33 velocity=36 time=0
note_on channel=0 note=76 velocity=0 time=40
note_on channel=0 note=78 velocity=56 time=0
note_on channel=0 note=78 velocity=0 time=0
note_on channel=0 note=33 velocity=0 time=0
note_on channel=0 note=79 velocity=58 time=0
note_on channel=0 note=31 velocity=41 time=0
note_on channel=0 note=31 velocity=0 time=120
note_on channel=0 note=36 velocity=36 time=0
note_on channel=0 note=36 velocity=0 time=120
note_on channel=0 note=79 velocity=0 time=0
note_on channel=0 note=35 velocity=37 time=0
note_on channel=0 note=35 velocity=0 time=120
note_on channel=0 note=33 velocity=37 time=0
note_on channel=0 note=33 velocity=0 time=120
note_on channel=0 note=31 velocity=42 time=0
note_on channel=0 note=31 velocity=0 time=120
note_on channel=0 note=36 velocity=37 time=0
note_on channel=0 note=36 velocity=0 time=0
note_on channel=0 note=62 velocity=50 time=0
note_on channel=0 note=35 velocity=37 time=0
note_on channel=0 note=62 velocity=0 time=80
note_on channel=0 note=64 velocity=53 time=0
note_on channel=0 note=35 velocity=0 time=40
note_on channel=0 note=33 velocity=37 time=0
note_on channel=0 note=64 velocity=0 time=40
note_on channel=0 note=66 velocity=55 time=0
note_on channel=0 note=66 velocity=0 time=0
note_on channel=0 note=33 velocity=0 time=0
note_on channel=0 note=67 velocity=58 time=0
note_on channel=0 note=31 velocity=42 time=0
note_on channel=0 note=31 velocity=0 time=120
note_on channel=0 note=36 velocity=38 time=0
note_on channel=0 note=36 velocity=0 time=120
note_on channel=0 note=67 velocity=0 time=0
note_on channel=0 note=35 velocity=38 time=0
note_on channel=0 note=35 velocity=0 time=120
note_on channel=0 note=33 velocity=38 time=0
note_on channel=0 note=33 velocity=0 time=120
note_on channel=0 note=31 velocity=44 time=0
note_on channel=0 note=31 velocity=0 time=120
note_on channel=0 note=36 velocity=38 time=0
note_on channel=0 note=36 velocity=0 time=0
note_on channel=0 note=67 velocity=55 time=0
note_on channel=0 note=35 velocity=38 time=0
note_on channel=0 note=35 velocity=0 time=120
note_on channel=0 note=67 velocity=0 time=0
note_on channel=0 note=69 velocity=59 time=0
note_on channel=0 note=33 velocity=38 time=0
note_on channel=0 note=33 velocity=0 time=0
note_on channel=0 note=69 velocity=0 time=0
note_on channel=0 note=71 velocity=63 time=0
note_on channel=0 note=31 velocity=44 time=0
note_on channel=0 note=31 velocity=0 time=120
note_on channel=0 note=71 velocity=0 time=0
note_on channel=0 note=36 velocity=39 time=0
note_on channel=0 note=36 velocity=0 time=120
note_on channel=0 note=35 velocity=39 time=0
note_on channel=0 note=35 velocity=0 time=120
note_on channel=0 note=33 velocity=39 time=0
note_on channel=0 note=33 velocity=0 time=120
note_on channel=0 note=31 velocity=45 time=0
note_on channel=0 note=31 velocity=0 time=120
note_on channel=0 note=36 velocity=39 time=0
note_on channel=0 note=36 velocity=0 time=0
note_on channel=0 note=71 velocity=57 time=0
note_on channel=0 note=35 velocity=39 time=0
note_on channel=0 note=35 velocity=0 time=120
note_on channel=0 note=71 velocity=0 time=0
note_on channel=0 note=72 velocity=58 time=0
note_on channel=0 note=33 velocity=39 time=0
note_on channel=0 note=33 velocity=0 time=0
note_on channel=0 note=72 velocity=0 time=0
note_on channel=0 note=74 velocity=63 time=0
note_on channel=0 note=31 velocity=45 time=0
note_on channel=0 note=31 velocity=0 time=120
note_on channel=0 note=74 velocity=0 time=0
note_on channel=0 note=36 velocity=39 time=0
note_on channel=0 note=36 velocity=0 time=0
note_on channel=0 note=74 velocity=58 time=0
note_on channel=0 note=35 velocity=40 time=0
note_on channel=0 note=74 velocity=0 time=80
note_on channel=0 note=76 velocity=60 time=0
note_on channel=0 note=35 velocity=0 time=40
note_on channel=0 note=33 velocity=40 time=0
note_on channel=0 note=76 velocity=0 time=40
note_on channel=0 note=78 velocity=63 time=0
note_on channel=0 note=78 velocity=0 time=0
note_on channel=0 note=33 velocity=0 time=0
note_on channel=0 note=79 velocity=66 time=0
note_on channel=0 note=31 velocity=46 time=0
note_on channel=0 note=31 velocity=0 time=120
note_on channel=0 note=79 velocity=0 time=0
note_on channel=0 note=36 velocity=40 time=0
note_on channel=0 note=36 velocity=0 time=0
note_on channel=0 note=79 velocity=65 time=0
note_on channel=0 note=35 velocity=40 time=0
note_on channel=0 note=35 velocity=0 time=120
note_on channel=0 note=79 velocity=0 time=0
note_on channel=0 note=81 velocity=68 time=0
note_on channel=0 note=33 velocity=40 time=0
note_on channel=0 note=33 velocity=0 time=0
note_on channel=0 note=81 velocity=0 time=0
note_on channel=0 note=83 velocity=70 time=0
note_on channel=0 note=31 velocity=46 time=0
note_on channel=0 note=31 velocity=0 time=120
note_on channel=0 note=83 velocity=0 time=0
note_on channel=0 note=36 velocity=41 time=0
note_on channel=0 note=36 velocity=0 time=120
note_on channel=0 note=35 velocity=41 time=0
note_on channel=0 note=35 velocity=0 time=120
note_on channel=0 note=33 velocity=41 time=0
note_on channel=0 note=33 velocity=0 time=120
note_on channel=0 note=31 velocity=47 time=0
note_on channel=0 note=31 velocity=0 time=120
note_on channel=0 note=36 velocity=41 time=0
note_on channel=0 note=36 velocity=0 time=0
note_on channel=0 note=74 velocity=65 time=0
note_on channel=0 note=35 velocity=41 time=0
note_on channel=0 note=74 velocity=0 time=80
note_on channel=0 note=76 velocity=68 time=0
note_on channel=0 note=35 velocity=0 time=40
note_on channel=0 note=33 velocity=41 time=0
note_on channel=0 note=76 velocity=0 time=40
note_on channel=0 note=78 velocity=69 time=0
note_on channel=0 note=78 velocity=0 time=0
note_on channel=0 note=33 velocity=0 time=0
note_on channel=0 note=79 velocity=71 time=0
note_on channel=0 note=31 velocity=48 time=0
note_on channel=0 note=31 velocity=0 time=120
note_on channel=0 note=79 velocity=0 time=0
note_on channel=0 note=36 velocity=42 time=0
note_on channel=0 note=36 velocity=0 time=120
note_on channel=0 note=35 velocity=42 time=0
note_on channel=0 note=35 velocity=0 time=120
note_on channel=0 note=33 velocity=42 time=0
note_on channel=0 note=33 velocity=0 time=120
note_on channel=0 note=31 velocity=48 time=0
note_on channel=0 note=31 velocity=0 time=120
note_on channel=0 note=36 velocity=42 time=0
note_on channel=0 note=36 velocity=0 time=0
note_on channel=0 note=79 velocity=66 time=0
note_on channel=0 note=35 velocity=42 time=0
note_on channel=0 note=35 velocity=0 time=120
note_on channel=0 note=79 velocity=0 time=0
note_on channel=0 note=81 velocity=68 time=0
note_on channel=0 note=33 velocity=42 time=0
note_on channel=0 note=33 velocity=0 time=0
note_on channel=0 note=81 velocity=0 time=0
note_on channel=0 note=83 velocity=73 time=0
note_on channel=0 note=31 velocity=49 time=0
note_on channel=0 note=31 velocity=0 time=120
note_on channel=0 note=83 velocity=0 time=0
note_on channel=0 note=36 velocity=42 time=0
note_on channel=0 note=36 velocity=0 time=120
note_on channel=0 note=35 velocity=44 time=0
note_on channel=0 note=35 velocity=0 time=120
note_on channel=0 note=33 velocity=44 time=0
note_on channel=0 note=33 velocity=0 time=0
note_on channel=0 note=31 velocity=49 time=0
note_on channel=0 note=31 velocity=0 time=120
note_on channel=0 note=36 velocity=44 time=0
note_on channel=0 note=36 velocity=0 time=0
note_on channel=0 note=79 velocity=68 time=0
note_on channel=0 note=35 velocity=44 time=0
note_on channel=0 note=35 velocity=0 time=120
note_on channel=0 note=79 velocity=0 time=0
note_on channel=0 note=81 velocity=72 time=0
note_on channel=0 note=33 velocity=44 time=0
note_on channel=0 note=33 velocity=0 time=0
note_on channel=0 note=81 velocity=0 time=0
note_on channel=0 note=83 velocity=76 time=0
note_on channel=0 note=31 velocity=50 time=0
note_on channel=0 note=31 velocity=0 time=120
note_on channel=0 note=83 velocity=0 time=0
note_on channel=0 note=36 velocity=45 time=0
note_on channel=0 note=36 velocity=0 time=0
note_on channel=0 note=83 velocity=68 time=0
note_on channel=0 note=35 velocity=45 time=0
note_on channel=0 note=35 velocity=0 time=120
note_on channel=0 note=83 velocity=0 time=0
note_on channel=0 note=84 velocity=71 time=0
note_on channel=0 note=33 velocity=45 time=0
note_on channel=0 note=33 velocity=0 time=0
note_on channel=0 note=84 velocity=0 time=0
note_on channel=0 note=86 velocity=75 time=0
note_on channel=0 note=31 velocity=50 time=0
note_on channel=0 note=31 velocity=0 time=120
note_on channel=0 note=86 velocity=0 time=0
note_on channel=0 note=36 velocity=45 time=0
note_on channel=0 note=36 velocity=0 time=0
note_on channel=0 note=86 velocity=70 time=0
note_on channel=0 note=35 velocity=45 time=0
note_on channel=0 note=35 velocity=0 time=120
note_on channel=0 note=86 velocity=0 time=0
note_on channel=0 note=88 velocity=75 time=0
note_on channel=0 note=33 velocity=45 time=0
note_on channel=0 note=33 velocity=0 time=0
note_on channel=0 note=88 velocity=0 time=0
note_on channel=0 note=89 velocity=79 time=0
note_on channel=0 note=31 velocity=51 time=0
note_on channel=0 note=31 velocity=0 time=120
note_on channel=0 note=89 velocity=0 time=0
note_on channel=0 note=36 velocity=46 time=0
note_on channel=0 note=36 velocity=0 time=120
note_on channel=0 note=35 velocity=46 time=0
note_on channel=0 note=35 velocity=0 time=120
note_on channel=0 note=33 velocity=46 time=0
note_on channel=0 note=33 velocity=0 time=0
note_on channel=0 note=31 velocity=52 time=0
note_on channel=0 note=31 velocity=0 time=120
note_on channel=0 note=36 velocity=47 time=0
note_on channel=0 note=36 velocity=0 time=0
note_on channel=0 note=86 velocity=77 time=0
note_on channel=0 note=35 velocity=48 time=0
note_on channel=0 note=35 velocity=0 time=120
note_on channel=0 note=86 velocity=0 time=0
note_on channel=0 note=88 velocity=82 time=0
note_on channel=0 note=33 velocity=48 time=0
note_on channel=0 note=33 velocity=0 time=0
note_on channel=0 note=88 velocity=0 time=0
note_on channel=0 note=89 velocity=86 time=0
note_on channel=0 note=31 velocity=54 time=0
note_on channel=0 note=31 velocity=0 time=120
note_on channel=0 note=89 velocity=0 time=0
note_on channel=0 note=37 velocity=49 time=0
note_on channel=0 note=37 velocity=0 time=120
note_on channel=0 note=35 velocity=49 time=0
note_on channel=0 note=35 velocity=0 time=120
note_on channel=0 note=33 velocity=50 time=0
note_on channel=0 note=33 velocity=0 time=120
note_on channel=0 note=31 velocity=56 time=0
note_on channel=0 note=31 velocity=0 time=120
note_on channel=0 note=37 velocity=51 time=0
note_on channel=0 note=37 velocity=0 time=0
note_on channel=0 note=86 velocity=79 time=0
note_on channel=0 note=35 velocity=51 time=0
note_on channel=0 note=35 velocity=0 time=120
note_on channel=0 note=86 velocity=0 time=0
note_on channel=0 note=88 velocity=84 time=0
note_on channel=0 note=33 velocity=51 time=0
note_on channel=0 note=33 velocity=0 time=0
note_on channel=0 note=88 velocity=0 time=0
note_on channel=0 note=89 velocity=88 time=0
note_on channel=0 note=31 velocity=57 time=0
note_on channel=0 note=89 velocity=0 time=120
note_on channel=0 note=38 velocity=52 time=0
note_on channel=0 note=31 velocity=0 time=20
note_on channel=0 note=86 velocity=79 time=0
note_on channel=0 note=35 velocity=52 time=0
note_on channel=0 note=38 velocity=0 time=20
note_on channel=0 note=86 velocity=0 time=100
note_on channel=0 note=88 velocity=84 time=0
note_on channel=0 note=33 velocity=53 time=0
note_on channel=0 note=35 velocity=0 time=20
note_on channel=0 note=88 velocity=0 time=0
note_on channel=0 note=89 velocity=88 time=0
note_on channel=0 note=31 velocity=59 time=0
note_on channel=0 note=33 velocity=0 time=20
note_on channel=0 note=89 velocity=0 time=100
note_on channel=0 note=38 velocity=54 time=0
note_on channel=0 note=31 velocity=0 time=20
note_on channel=0 note=86 velocity=81 time=0
note_on channel=0 note=35 velocity=54 time=0
note_on channel=0 note=38 velocity=0 time=20
note_on channel=0 note=86 velocity=0 time=100
note_on channel=0 note=88 velocity=85 time=0
note_on channel=0 note=33 velocity=54 time=0
note_on channel=0 note=35 velocity=0 time=20
note_on channel=0 note=88 velocity=0 time=0
note_on channel=0 note=89 velocity=89 time=0
note_on channel=0 note=31 velocity=61 time=0
note_on channel=0 note=33 velocity=0 time=20
note_on channel=0 note=89 velocity=0 time=100
note_on channel=0 note=38 velocity=55 time=0
note_on channel=0 note=31 velocity=0 time=20
note_on channel=0 note=86 velocity=81 time=0
note_on channel=0 note=35 velocity=56 time=0
note_on channel=0 note=38 velocity=0 time=20
note_on channel=0 note=86 velocity=0 time=100
note_on channel=0 note=88 velocity=86 time=0
note_on channel=0 note=33 velocity=56 time=0
note_on channel=0 note=35 velocity=0 time=20
note_on channel=0 note=88 velocity=0 time=0
note_on channel=0 note=89 velocity=92 time=0
note_on channel=0 note=31 velocity=63 time=0
note_on channel=0 note=33 velocity=0 time=20
note_on channel=0 note=89 velocity=0 time=100
note_on channel=0 note=38 velocity=57 time=0
note_on channel=0 note=31 velocity=0 time=20
note_on channel=0 note=86 velocity=85 time=0
note_on channel=0 note=35 velocity=57 time=0
note_on channel=0 note=38 velocity=0 time=20
note_on channel=0 note=86 velocity=0 time=100
note_on channel=0 note=88 velocity=91 time=0
note_on channel=0 note=33 velocity=57 time=0
note_on channel=0 note=35 velocity=0 time=20
note_on channel=0 note=88 velocity=0 time=0
note_on channel=0 note=89 velocity=96 time=0
note_on channel=0 note=31 velocity=67 time=0
note_on channel=0 note=33 velocity=0 time=20
note_on channel=0 note=88 velocity=94 time=0
note_on channel=0 note=33 velocity=66 time=0
note_on channel=0 note=31 velocity=0 time=20
note_on channel=0 note=89 velocity=0 time=0
note_on channel=0 note=86 velocity=92 time=40
note_on channel=0 note=35 velocity=65 time=0
note_on channel=0 note=88 velocity=0 time=20
note_on channel=0 note=33 velocity=0 time=0
note_on channel=0 note=84 velocity=91 time=40
note_on channel=0 note=36 velocity=63 time=0
note_on channel=0 note=86 velocity=0 time=20
note_on channel=0 note=35 velocity=0 time=0
note_on channel=0 note=83 velocity=89 time=80
note_on channel=0 note=38 velocity=62 time=0
note_on channel=0 note=84 velocity=0 time=20
note_on channel=0 note=36 velocity=0 time=0
note_on channel=0 note=84 velocity=91 time=0
note_on channel=0 note=36 velocity=63 time=0
note_on channel=0 note=83 velocity=0 time=20
note_on channel=0 note=38 velocity=0 time=0
note_on channel=0 note=86 velocity=92 time=0
note_on channel=0 note=35 velocity=64 time=0
note_on channel=0 note=84 velocity=0 time=20
note_on channel=0 note=36 velocity=0 time=0
note_on channel=0 note=88 velocity=93 time=40
note_on channel=0 note=33 velocity=66 time=0
note_on channel=0 note=86 velocity=0 time=20
note_on channel=0 note=35 velocity=0 time=0
note_on channel=0 note=89 velocity=96 time=40
note_on channel=0 note=31 velocity=66 time=0
note_on channel=0 note=88 velocity=0 time=20
note_on channel=0 note=33 velocity=0 time=0
note_on channel=0 note=88 velocity=95 time=80
note_on channel=0 note=33 velocity=65 time=0
note_on channel=0 note=89 velocity=0 time=20
note_on channel=0 note=31 velocity=0 time=0
note_on channel=0 note=86 velocity=94 time=40
note_on channel=0 note=35 velocity=64 time=0
note_on channel=0 note=88 velocity=0 time=20
note_on channel=0 note=33 velocity=0 time=0
note_on channel=0 note=84 velocity=93 time=40
note_on channel=0 note=36 velocity=64 time=0
note_on channel=0 note=86 velocity=0 time=20
note_on channel=0 note=35 velocity=0 time=0
note_on channel=0 note=83 velocity=93 time=40
note_on channel=0 note=38 velocity=61 time=0
note_on channel=0 note=84 velocity=0 time=20
note_on channel=0 note=36 velocity=0 time=0
note_on channel=0 note=84 velocity=93 time=40
note_on channel=0 note=36 velocity=63 time=0
note_on channel=0 note=83 velocity=0 time=20
note_on channel=0 note=38 velocity=0 time=0
note_on channel=0 note=86 velocity=95 time=40
note_on channel=0 note=35 velocity=65 time=0
note_on channel=0 note=84 velocity=0 time=20
note_on channel=0 note=36 velocity=0 time=0
note_on channel=0 note=88 velocity=97 time=80
note_on channel=0 note=33 velocity=67 time=0
note_on channel=0 note=86 velocity=0 time=20
note_on channel=0 note=35 velocity=0 time=0
note_on channel=0 note=89 velocity=99 time=40
note_on channel=0 note=31 velocity=69 time=0
note_on channel=0 note=88 velocity=0 time=20
note_on channel=0 note=33 velocity=0 time=0
note_on channel=0 note=88 velocity=97 time=80
note_on channel=0 note=33 velocity=66 time=0
note_on channel=0 note=89 velocity=0 time=20
note_on channel=0 note=31 velocity=0 time=0
note_on channel=0 note=86 velocity=96 time=0
note_on channel=0 note=35 velocity=65 time=0
note_on channel=0 note=88 velocity=0 time=20
note_on channel=0 note=33 velocity=0 time=0
note_on channel=0 note=84 velocity=95 time=100
note_on channel=0 note=36 velocity=64 time=0
note_on channel=0 note=86 velocity=0 time=20
note_on channel=0 note=35 velocity=0 time=0
note_on channel=0 note=83 velocity=93 time=40
note_on channel=0 note=38 velocity=63 time=0
note_on channel=0 note=84 velocity=0 time=20
note_on channel=0 note=36 velocity=0 time=0
note_on channel=0 note=81 velocity=92 time=100
note_on channel=0 note=40 velocity=63 time=0
note_on channel=0 note=83 velocity=0 time=20
note_on channel=0 note=38 velocity=0 time=0
note_on channel=0 note=79 velocity=91 time=80
note_on channel=0 note=41 velocity=62 time=0
note_on channel=0 note=81 velocity=0 time=20
note_on channel=0 note=40 velocity=0 time=0
note_on channel=0 note=77 velocity=90 time=40
note_on channel=0 note=43 velocity=61 time=0
note_on channel=0 note=79 velocity=0 time=20
note_on channel=0 note=41 velocity=0 time=0
note_on channel=0 note=76 velocity=88 time=100
note_on channel=0 note=45 velocity=60 time=0
note_on channel=0 note=77 velocity=0 time=20
note_on channel=0 note=43 velocity=0 time=0
note_on channel=0 note=74 velocity=87 time=40
note_on channel=0 note=47 velocity=59 time=0
note_on channel=0 note=76 velocity=0 time=20
note_on channel=0 note=45 velocity=0 time=0
note_on channel=0 note=72 velocity=86 time=100
note_on channel=0 note=48 velocity=58 time=0
note_on channel=0 note=74 velocity=0 time=20
note_on channel=0 note=47 velocity=0 time=0
note_on channel=0 note=71 velocity=85 time=80
note_on channel=0 note=50 velocity=57 time=0
note_on channel=0 note=72 velocity=0 time=20
note_on channel=0 note=48 velocity=0 time=0
note_on channel=0 note=69 velocity=83 time=0
note_on channel=0 note=52 velocity=56 time=0
note_on channel=0 note=71 velocity=0 time=20
note_on channel=0 note=50 velocity=0 time=0
note_on channel=0 note=67 velocity=82 time=100
note_on channel=0 note=53 velocity=55 time=0
note_on channel=0 note=69 velocity=0 time=20
note_on channel=0 note=52 velocity=0 time=0
note_on channel=0 note=65 velocity=81 time=40
note_on channel=0 note=55 velocity=55 time=0
note_on channel=0 note=67 velocity=0 time=20
note_on channel=0 note=53 velocity=0 time=0
note_on channel=0 note=64 velocity=80 time=0
note_on channel=0 note=48 velocity=54 time=0
note_on channel=0 note=65 velocity=0 time=20
note_on channel=0 note=55 velocity=0 time=0
note_on channel=0 note=64 velocity=0 time=220
note_on channel=0 note=48 velocity=0 time=0
note_on channel=0 note=48 velocity=28 time=0
note_on channel=0 note=52 velocity=33 time=0
note_on channel=0 note=43 velocity=26 time=0
note_on channel=0 note=36 velocity=22 time=0
note_on channel=0 note=36 velocity=0 time=180
note_on channel=0 note=48 velocity=0 time=0
note_on channel=0 note=52 velocity=0 time=0
note_on channel=0 note=43 velocity=0 time=0
note_on channel=0 note=48 velocity=28 time=0
note_on channel=0 note=52 velocity=33 time=0
note_on channel=0 note=43 velocity=26 time=0
note_on channel=0 note=36 velocity=22 time=0
note_on channel=0 note=36 velocity=0 time=180
note_on channel=0 note=48 velocity=0 time=0
note_on channel=0 note=52 velocity=0 time=0
note_on channel=0 note=43 velocity=0 time=0
note_on channel=0 note=48 velocity=28 time=60
note_on channel=0 note=52 velocity=34 time=0
note_on channel=0 note=43 velocity=27 time=0
note_on channel=0 note=36 velocity=22 time=0
note_on channel=0 note=36 velocity=0 time=180
note_on channel=0 note=48 velocity=0 time=0
note_on channel=0 note=52 velocity=0 time=0
note_on channel=0 note=43 velocity=0 time=0
note_on channel=0 note=48 velocity=28 time=60
note_on channel=0 note=52 velocity=34 time=0
note_on channel=0 note=43 velocity=27 time=0
note_on channel=0 note=36 velocity=22 time=0
note_on channel=0 note=36 velocity=0 time=160
note_on channel=0 note=48 velocity=0 time=0
note_on channel=0 note=52 velocity=0 time=0
note_on channel=0 note=43 velocity=0 time=0
note_on channel=0 note=48 velocity=28 time=60
note_on channel=0 note=52 velocity=34 time=0
note_on channel=0 note=43 velocity=28 time=0
note_on channel=0 note=36 velocity=23 time=0
note_on channel=0 note=36 velocity=0 time=180
note_on channel=0 note=48 velocity=0 time=0
note_on channel=0 note=52 velocity=0 time=0
note_on channel=0 note=43 velocity=0 time=0
note_on channel=0 note=48 velocity=29 time=0
note_on channel=0 note=52 velocity=35 time=0
note_on channel=0 note=43 velocity=28 time=0
note_on channel=0 note=36 velocity=23 time=0
note_on channel=0 note=36 velocity=0 time=180
note_on channel=0 note=48 velocity=0 time=0
note_on channel=0 note=52 velocity=0 time=0
note_on channel=0 note=43 velocity=0 time=0
note_on channel=0 note=48 velocity=29 time=60
note_on channel=0 note=52 velocity=35 time=0
note_on channel=0 note=43 velocity=29 time=0
note_on channel=0 note=36 velocity=24 time=0
note_on channel=0 note=36 velocity=0 time=180
note_on channel=0 note=48 velocity=0 time=0
note_on channel=0 note=52 velocity=0 time=0
note_on channel=0 note=43 velocity=0 time=0
note_on channel=0 note=48 velocity=30 time=60
note_on channel=0 note=52 velocity=36 time=0
note_on channel=0 note=36 velocity=25 time=0
note_on channel=0 note=43 velocity=30 time=0
note_on channel=0 note=43 velocity=0 time=140
note_on channel=0 note=48 velocity=0 time=0
note_on channel=0 note=52 velocity=0 time=0
note_on channel=0 note=36 velocity=0 time=0
note_on channel=0 note=48 velocity=30 time=60
note_on channel=0 note=52 velocity=36 time=0
note_on channel=0 note=36 velocity=22 time=0
note_on channel=0 note=43 velocity=27 time=0
note_on channel=0 note=43 velocity=0 time=180
note_on channel=0 note=48 velocity=0 time=0
note_on channel=0 note=52 velocity=0 time=0
note_on channel=0 note=36 velocity=0 time=0
note_on channel=0 note=48 velocity=31 time=0
note_on channel=0 note=52 velocity=37 time=0
note_on channel=0 note=36 velocity=23 time=0
note_on channel=0 note=43 velocity=28 time=0
note_on channel=0 note=43 velocity=0 time=180
note_on channel=0 note=48 velocity=0 time=0
note_on channel=0 note=52 velocity=0 time=0
note_on channel=0 note=36 velocity=0 time=0
note_on channel=0 note=48 velocity=32 time=60
note_on channel=0 note=52 velocity=38 time=0
note_on channel=0 note=36 velocity=24 time=0
note_on channel=0 note=43 velocity=29 time=0
note_on channel=0 note=43 velocity=0 time=180
note_on channel=0 note=48 velocity=0 time=0
note_on channel=0 note=52 velocity=0 time=0
note_on channel=0 note=36 velocity=0 time=0
note_on channel=0 note=48 velocity=33 time=0
note_on channel=0 note=52 velocity=39 time=0
note_on channel=0 note=36 velocity=25 time=0
note_on channel=0 note=43 velocity=30 time=0
note_on channel=0 note=43 velocity=0 time=180
note_on channel=0 note=48 velocity=0 time=0
note_on channel=0 note=52 velocity=0 time=0
note_on channel=0 note=36 velocity=0 time=0
note_on channel=0 note=48 velocity=34 time=60
note_on channel=0 note=52 velocity=40 time=0
note_on channel=0 note=36 velocity=25 time=0
note_on channel=0 note=43 velocity=30 time=0
note_on channel=0 note=43 velocity=0 time=180
note_on channel=0 note=48 velocity=0 time=0
note_on channel=0 note=52 velocity=0 time=0
note_on channel=0 note=36 velocity=0 time=0
note_on channel=0 note=50 velocity=34 time=60
note_on channel=0 note=54 velocity=40 time=0
note_on channel=0 note=36 velocity=25 time=0
note_on channel=0 note=45 velocity=30 time=0
note_on channel=0 note=45 velocity=0 time=180
note_on channel=0 note=50 velocity=0 time=0
note_on channel=0 note=54 velocity=0 time=0
note_on channel=0 note=36 velocity=0 time=0
note_on channel=0 note=50 velocity=34 time=60
note_on channel=0 note=54 velocity=40 time=0
note_on channel=0 note=36 velocity=25 time=0
note_on channel=0 note=45 velocity=30 time=0
note_on channel=0 note=45 velocity=0 time=180
note_on channel=0 note=50 velocity=0 time=0
note_on channel=0 note=54 velocity=0 time=0
note_on channel=0 note=36 velocity=0 time=0
note_on channel=0 note=50 velocity=39 time=60
note_on channel=0 note=55 velocity=46 time=0
note_on channel=0 note=35 velocity=25 time=0
note_on channel=0 note=43 velocity=30 time=0
note_on channel=0 note=43 velocity=0 time=140
note_on channel=0 note=35 velocity=0 time=0
note_on channel=0 note=35 velocity=25 time=60
note_on channel=0 note=43 velocity=30 time=0
note_on channel=0 note=43 velocity=0 time=180
note_on channel=0 note=35 velocity=0 time=0
note_on channel=0 note=35 velocity=25 time=60
note_on channel=0 note=43 velocity=30 time=0
note_on channel=0 note=43 velocity=0 time=180
note_on channel=0 note=35 velocity=0 time=0
note_on channel=0 note=55 velocity=0 time=60
note_on channel=0 note=50 velocity=0 time=0
note_on channel=0 note=59 velocity=40 time=0
note_on channel=0 note=35 velocity=25 time=0
note_on channel=0 note=43 velocity=30 time=0
note_on channel=0 note=59 velocity=0 time=120
note_on channel=0 note=57 velocity=40 time=0
note_on channel=0 note=43 velocity=0 time=60
note_on channel=0 note=35 velocity=0 time=0
note_on channel=0 note=57 velocity=0 time=60
note_on channel=0 note=55 velocity=45 time=0
note_on channel=0 note=35 velocity=25 time=0
note_on channel=0 note=43 velocity=30 time=0
note_on channel=0 note=55 velocity=0 time=120
note_on channel=0 note=43 velocity=0 time=60
note_on channel=0 note=35 velocity=0 time=0
note_on channel=0 note=35 velocity=25 time=60
note_on channel=0 note=43 velocity=30 time=0
note_on channel=0 note=43 velocity=0 time=180
note_on channel=0 note=35 velocity=0 time=0
note_on channel=0 note=35 velocity=25 time=60
note_on channel=0 note=43 velocity=30 time=0
note_on channel=0 note=43 velocity=0 time=180
note_on channel=0 note=35 velocity=0 time=0
note_on channel=0 note=35 velocity=25 time=0
note_on channel=0 note=43 velocity=30 time=0
note_on channel=0 note=43 velocity=0 time=180
note_on channel=0 note=35 velocity=0 time=0
note_on channel=0 note=85 velocity=46 time=0
note_on channel=0 note=85 velocity=0 time=0
note_on channel=0 note=86 velocity=57 time=0
note_on channel=0 note=35 velocity=25 time=0
note_on channel=0 note=43 velocity=30 time=0
note_on channel=0 note=43 velocity=0 time=180
note_on channel=0 note=35 velocity=0 time=0
note_on channel=0 note=35 velocity=25 time=60
note_on channel=0 note=43 velocity=30 time=0
note_on channel=0 note=43 velocity=0 time=180
note_on channel=0 note=35 velocity=0 time=0
note_on channel=0 note=35 velocity=25 time=60
note_on channel=0 note=43 velocity=30 time=0
note_on channel=0 note=86 velocity=0 time=120
note_on channel=0 note=84 velocity=48 time=0
note_on channel=0 note=43 velocity=0 time=60
note_on channel=0 note=35 velocity=0 time=0
note_on channel=0 note=84 velocity=0 time=60
note_on channel=0 note=83 velocity=47 time=0
note_on channel=0 note=35 velocity=25 time=0
note_on channel=0 note=43 velocity=30 time=0
note_on channel=0 note=83 velocity=0 time=120
note_on channel=0 note=81 velocity=45 time=0
note_on channel=0 note=43 velocity=0 time=60
note_on channel=0 note=35 velocity=0 time=0
note_on channel=0 note=81 velocity=0 time=60
note_on channel=0 note=79 velocity=44 time=0
note_on channel=0 note=35 velocity=25 time=0
note_on channel=0 note=43 velocity=30 time=0
note_on channel=0 note=43 velocity=0 time=180
note_on channel=0 note=35 velocity=0 time=0
note_on channel=0 note=79 velocity=0 time=60
note_on channel=0 note=35 velocity=25 time=0
note_on channel=0 note=43 velocity=30 time=0
note_on channel=0 note=43 velocity=0 time=180
note_on channel=0 note=35 velocity=0 time=0
note_on channel=0 note=35 velocity=25 time=60
note_on channel=0 note=43 velocity=30 time=0
note_on channel=0 note=43 velocity=0 time=180
note_on channel=0 note=35 velocity=0 time=0
note_on channel=0 note=35 velocity=25 time=0
note_on channel=0 note=43 velocity=30 time=0
note_on channel=0 note=43 velocity=0 time=180
note_on channel=0 note=35 velocity=0 time=0
note_on channel=0 note=46 velocity=29 time=0
note_on channel=0 note=50 velocity=37 time=0
note_on channel=0 note=41 velocity=30 time=0
note_on channel=0 note=34 velocity=26 time=0
note_on channel=0 note=34 velocity=0 time=180
note_on channel=0 note=46 velocity=0 time=0
note_on channel=0 note=50 velocity=0 time=0
note_on channel=0 note=41 velocity=0 time=0
note_on channel=0 note=46 velocity=29 time=60
note_on channel=0 note=50 velocity=35 time=0
note_on channel=0 note=41 velocity=30 time=0
note_on channel=0 note=34 velocity=25 time=0
note_on channel=0 note=34 velocity=0 time=180
note_on channel=0 note=46 velocity=0 time=0
note_on channel=0 note=50 velocity=0 time=0
note_on channel=0 note=41 velocity=0 time=0
note_on channel=0 note=46 velocity=29 time=0
note_on channel=0 note=50 velocity=35 time=0
note_on channel=0 note=41 velocity=30 time=0
note_on channel=0 note=34 velocity=25 time=0
note_on channel=0 note=34 velocity=0 time=180
note_on channel=0 note=46 velocity=0 time=0
note_on channel=0 note=50 velocity=0 time=0
note_on channel=0 note=41 velocity=0 time=0
note_on channel=0 note=46 velocity=30 time=60
note_on channel=0 note=50 velocity=36 time=0
note_on channel=0 note=41 velocity=31 time=0
note_on channel=0 note=34 velocity=26 time=0
note_on channel=0 note=34 velocity=0 time=180
note_on channel=0 note=46 velocity=0 time=0
note_on channel=0 note=50 velocity=0 time=0
note_on channel=0 note=41 velocity=0 time=0
note_on channel=0 note=46 velocity=31 time=0
note_on channel=0 note=50 velocity=37 time=0
note_on channel=0 note=41 velocity=31 time=0
note_on channel=0 note=34 velocity=26 time=0
note_on channel=0 note=34 velocity=0 time=180
note_on channel=0 note=46 velocity=0 time=0
note_on channel=0 note=50 velocity=0 time=0
note_on channel=0 note=41 velocity=0 time=0
note_on channel=0 note=46 velocity=31 time=60
note_on channel=0 note=50 velocity=37 time=0
note_on channel=0 note=41 velocity=31 time=0
note_on channel=0 note=34 velocity=26 time=0
note_on channel=0 note=34 velocity=0 time=180
note_on channel=0 note=46 velocity=0 time=0
note_on channel=0 note=50 velocity=0 time=0
note_on channel=0 note=41 velocity=0 time=0
note_on channel=0 note=46 velocity=32 time=60
note_on channel=0 note=50 velocity=38 time=0
note_on channel=0 note=41 velocity=31 time=0
note_on channel=0 note=34 velocity=26 time=0
note_on channel=0 note=34 velocity=0 time=180
note_on channel=0 note=46 velocity=0 time=0
note_on channel=0 note=50 velocity=0 time=0
note_on channel=0 note=41 velocity=0 time=0
note_on channel=0 note=46 velocity=33 time=60
note_on channel=0 note=50 velocity=39 time=0
note_on channel=0 note=41 velocity=31 time=0
note_on channel=0 note=34 velocity=26 time=0
note_on channel=0 note=34 velocity=0 time=180
note_on channel=0 note=46 velocity=0 time=0
note_on channel=0 note=50 velocity=0 time=0
note_on channel=0 note=41 velocity=0 time=0
note_on channel=0 note=46 velocity=33 time=0
note_on channel=0 note=50 velocity=39 time=0
note_on channel=0 note=34 velocity=26 time=0
note_on channel=0 note=41 velocity=31 time=0
note_on channel=0 note=41 velocity=0 time=180
note_on channel=0 note=46 velocity=0 time=0
note_on channel=0 note=50 velocity=0 time=0
note_on channel=0 note=34 velocity=0 time=0
note_on channel=0 note=46 velocity=34 time=60
note_on channel=0 note=50 velocity=40 time=0
note_on channel=0 note=34 velocity=26 time=0
note_on channel=0 note=41 velocity=31 time=0
note_on channel=0 note=41 velocity=0 time=180
note_on channel=0 note=46 velocity=0 time=0
note_on channel=0 note=50 velocity=0 time=0
note_on channel=0 note=34 velocity=0 time=0
note_on channel=0 note=46 velocity=34 time=0
note_on channel=0 note=50 velocity=40 time=0
note_on channel=0 note=34 velocity=26 time=0
note_on channel=0 note=41 velocity=31 time=0
note_on channel=0 note=41 velocity=0 time=180
note_on channel=0 note=46 velocity=0 time=0
note_on channel=0 note=50 velocity=0 time=0
note_on channel=0 note=34 velocity=0 time=0
note_on channel=0 note=46 velocity=34 time=60
note_on channel=0 note=50 velocity=40 time=0
note_on channel=0 note=34 velocity=26 time=0
note_on channel=0 note=41 velocity=31 time=0
note_on channel=0 note=41 velocity=0 time=180
note_on channel=0 note=46 velocity=0 time=0
note_on channel=0 note=50 velocity=0 time=0
note_on channel=0 note=34 velocity=0 time=0
note_on channel=0 note=46 velocity=34 time=0
note_on channel=0 note=50 velocity=40 time=0
note_on channel=0 note=34 velocity=26 time=0
note_on channel=0 note=41 velocity=31 time=0
note_on channel=0 note=41 velocity=0 time=180
note_on channel=0 note=46 velocity=0 time=0
note_on channel=0 note=50 velocity=0 time=0
note_on channel=0 note=34 velocity=0 time=0
note_on channel=0 note=46 velocity=34 time=60
note_on channel=0 note=50 velocity=40 time=0
note_on channel=0 note=34 velocity=25 time=0
note_on channel=0 note=41 velocity=30 time=0
note_on channel=0 note=41 velocity=0 time=180
note_on channel=0 note=46 velocity=0 time=0
note_on channel=0 note=50 velocity=0 time=0
note_on channel=0 note=34 velocity=0 time=0
note_on channel=0 note=48 velocity=34 time=0
note_on channel=0 note=52 velocity=40 time=0
note_on channel=0 note=34 velocity=25 time=0
note_on channel=0 note=43 velocity=30 time=0
note_on channel=0 note=43 velocity=0 time=180
note_on channel=0 note=48 velocity=0 time=0
note_on channel=0 note=52 velocity=0 time=0
note_on channel=0 note=34 velocity=0 time=0
note_on channel=0 note=48 velocity=34 time=60
note_on channel=0 note=52 velocity=40 time=0
note_on channel=0 note=34 velocity=25 time=0
note_on channel=0 note=43 velocity=30 time=0
note_on channel=0 note=43 velocity=0 time=180
note_on channel=0 note=48 velocity=0 time=0
note_on channel=0 note=52 velocity=0 time=0
note_on channel=0 note=34 velocity=0 time=0
note_on channel=0 note=48 velocity=39 time=60
note_on channel=0 note=53 velocity=46 time=0
note_on channel=0 note=33 velocity=25 time=0
note_on channel=0 note=41 velocity=30 time=0
note_on channel=0 note=41 velocity=0 time=160
note_on channel=0 note=33 velocity=0 time=0
note_on channel=0 note=33 velocity=25 time=60
note_on channel=0 note=41 velocity=30 time=0
note_on channel=0 note=41 velocity=0 time=180
note_on channel=0 note=33 velocity=0 time=0
note_on channel=0 note=33 velocity=25 time=60
note_on channel=0 note=41 velocity=30 time=0
note_on channel=0 note=41 velocity=0 time=180
note_on channel=0 note=33 velocity=0 time=0
note_on channel=0 note=53 velocity=0 time=60
note_on channel=0 note=48 velocity=0 time=0
note_on channel=0 note=57 velocity=40 time=0
note_on channel=0 note=33 velocity=25 time=0
note_on channel=0 note=41 velocity=30 time=0
note_on channel=0 note=57 velocity=0 time=120
note_on channel=0 note=55 velocity=40 time=0
note_on channel=0 note=41 velocity=0 time=60
note_on channel=0 note=33 velocity=0 time=0
note_on channel=0 note=55 velocity=0 time=60
note_on channel=0 note=53 velocity=45 time=0
note_on channel=0 note=33 velocity=25 time=0
note_on channel=0 note=41 velocity=30 time=0
note_on channel=0 note=53 velocity=0 time=120
note_on channel=0 note=41 velocity=0 time=60
note_on channel=0 note=33 velocity=0 time=0
note_on channel=0 note=33 velocity=25 time=60
note_on channel=0 note=41 velocity=30 time=0
note_on channel=0 note=41 velocity=0 time=180
note_on channel=0 note=33 velocity=0 time=0
note_on channel=0 note=33 velocity=25 time=60
note_on channel=0 note=41 velocity=30 time=0
note_on channel=0 note=41 velocity=0 time=180
note_on channel=0 note=33 velocity=0 time=0
note_on channel=0 note=33 velocity=25 time=0
note_on channel=0 note=41 velocity=30 time=0
note_on channel=0 note=41 velocity=0 time=180
note_on channel=0 note=33 velocity=0 time=0
note_on channel=0 note=83 velocity=46 time=0
note_on channel=0 note=83 velocity=0 time=0
note_on channel=0 note=84 velocity=57 time=0
note_on channel=0 note=32 velocity=25 time=0
note_on channel=0 note=41 velocity=30 time=0
note_on channel=0 note=41 velocity=0 time=180
note_on channel=0 note=32 velocity=0 time=0
note_on channel=0 note=32 velocity=25 time=60
note_on channel=0 note=41 velocity=30 time=0
note_on channel=0 note=41 velocity=0 time=180
note_on channel=0 note=32 velocity=0 time=0
note_on channel=0 note=32 velocity=25 time=60
note_on channel=0 note=41 velocity=30 time=0
note_on channel=0 note=84 velocity=0 time=120
note_on channel=0 note=82 velocity=50 time=0
note_on channel=0 note=41 velocity=0 time=60
note_on channel=0 note=32 velocity=0 time=0
note_on channel=0 note=82 velocity=0 time=60
note_on channel=0 note=80 velocity=49 time=0
note_on channel=0 note=32 velocity=25 time=0
note_on channel=0 note=41 velocity=30 time=0
note_on channel=0 note=80 velocity=0 time=120
note_on channel=0 note=79 velocity=47 time=0
note_on channel=0 note=41 velocity=0 time=60
note_on channel=0 note=32 velocity=0 time=0
note_on channel=0 note=79 velocity=0 time=60
note_on channel=0 note=77 velocity=46 time=0
note_on channel=0 note=32 velocity=25 time=0
note_on channel=0 note=41 velocity=30 time=0
note_on channel=0 note=41 velocity=0 time=180
note_on channel=0 note=32 velocity=0 time=0
note_on channel=0 note=77 velocity=0 time=60
note_on channel=0 note=32 velocity=25 time=0
note_on channel=0 note=41 velocity=30 time=0
note_on channel=0 note=41 velocity=0 time=180
note_on channel=0 note=32 velocity=0 time=0
note_on channel=0 note=32 velocity=25 time=40
note_on channel=0 note=41 velocity=30 time=0
note_on channel=0 note=41 velocity=0 time=180
note_on channel=0 note=32 velocity=0 time=0
note_on channel=0 note=32 velocity=25 time=60
note_on channel=0 note=41 velocity=30 time=0
note_on channel=0 note=41 velocity=0 time=180
note_on channel=0 note=32 velocity=0 time=0
note_on channel=0 note=88 velocity=67 time=0
note_on channel=0 note=88 velocity=0 time=0
note_on channel=0 note=89 velocity=73 time=0
note_on channel=0 note=31 velocity=30 time=0
note_on channel=0 note=41 velocity=36 time=0
note_on channel=0 note=41 velocity=0 time=180
note_on channel=0 note=31 velocity=0 time=0
note_on channel=0 note=31 velocity=32 time=60
note_on channel=0 note=41 velocity=38 time=0
note_on channel=0 note=41 velocity=0 time=180
note_on channel=0 note=31 velocity=0 time=0
note_on channel=0 note=31 velocity=33 time=0
note_on channel=0 note=41 velocity=39 time=0
note_on channel=0 note=41 velocity=0 time=180
note_on channel=0 note=31 velocity=0 time=0
note_on channel=0 note=31 velocity=34 time=60
note_on channel=0 note=41 velocity=41 time=0
note_on channel=0 note=41 velocity=0 time=180
note_on channel=0 note=31 velocity=0 time=0
note_on channel=0 note=31 velocity=36 time=0
note_on channel=0 note=41 velocity=43 time=0
note_on channel=0 note=41 velocity=0 time=180
note_on channel=0 note=31 velocity=0 time=0
note_on channel=0 note=31 velocity=38 time=60
note_on channel=0 note=41 velocity=45 time=0
note_on channel=0 note=41 velocity=0 time=180
note_on channel=0 note=31 velocity=0 time=0
note_on channel=0 note=89 velocity=0 time=60
note_on channel=0 note=89 velocity=74 time=0
note_on channel=0 note=32 velocity=39 time=0
note_on channel=0 note=41 velocity=46 time=0
note_on channel=0 note=89 velocity=0 time=120
note_on channel=0 note=87 velocity=73 time=0
note_on channel=0 note=41 velocity=0 time=60
note_on channel=0 note=32 velocity=0 time=0
note_on channel=0 note=87 velocity=0 time=60
note_on channel=0 note=86 velocity=71 time=0
note_on channel=0 note=32 velocity=40 time=0
note_on channel=0 note=41 velocity=48 time=0
note_on channel=0 note=86 velocity=0 time=120
note_on channel=0 note=84 velocity=70 time=0
note_on channel=0 note=41 velocity=0 time=60
note_on channel=0 note=32 velocity=0 time=0
note_on channel=0 note=84 velocity=0 time=0
note_on channel=0 note=83 velocity=72 time=0
note_on channel=0 note=31 velocity=44 time=0
note_on channel=0 note=41 velocity=52 time=0
note_on channel=0 note=83 velocity=0 time=120
note_on channel=0 note=84 velocity=71 time=0
note_on channel=0 note=41 velocity=0 time=60
note_on channel=0 note=31 velocity=0 time=0
note_on channel=0 note=84 velocity=0 time=60
note_on channel=0 note=86 velocity=72 time=0
note_on channel=0 note=31 velocity=44 time=0
note_on channel=0 note=41 velocity=52 time=0
note_on channel=0 note=86 velocity=0 time=120
note_on channel=0 note=87 velocity=73 time=0
note_on channel=0 note=41 velocity=0 time=60
note_on channel=0 note=31 velocity=0 time=0
note_on channel=0 note=87 velocity=0 time=0
note_on channel=0 note=89 velocity=74 time=0
note_on channel=0 note=32 velocity=45 time=0
note_on channel=0 note=41 velocity=55 time=0
note_on channel=0 note=89 velocity=0 time=120
note_on channel=0 note=87 velocity=72 time=0
note_on channel=0 note=41 velocity=0 time=60
note_on channel=0 note=32 velocity=0 time=0
note_on channel=0 note=87 velocity=0 time=60
note_on channel=0 note=86 velocity=71 time=0
note_on channel=0 note=32 velocity=46 time=0
note_on channel=0 note=41 velocity=55 time=0
note_on channel=0 note=86 velocity=0 time=120
note_on channel=0 note=84 velocity=69 time=0
note_on channel=0 note=41 velocity=0 time=60
note_on channel=0 note=32 velocity=0 time=0
note_on channel=0 note=84 velocity=0 time=0
note_on channel=0 note=83 velocity=72 time=0
note_on channel=0 note=31 velocity=48 time=0
note_on channel=0 note=41 velocity=58 time=0
note_on channel=0 note=83 velocity=0 time=120
note_on channel=0 note=84 velocity=75 time=0
note_on channel=0 note=41 velocity=0 time=60
note_on channel=0 note=31 velocity=0 time=0
note_on channel=0 note=84 velocity=0 time=60
note_on channel=0 note=86 velocity=77 time=0
note_on channel=0 note=31 velocity=51 time=0
note_on channel=0 note=41 velocity=60 time=0
note_on channel=0 note=86 velocity=0 time=120
note_on channel=0 note=87 velocity=80 time=0
note_on channel=0 note=41 velocity=0 time=60
note_on channel=0 note=31 velocity=0 time=0
note_on channel=0 note=87 velocity=0 time=60
note_on channel=0 note=89 velocity=80 time=0
note_on channel=0 note=32 velocity=54 time=0
note_on channel=0 note=41 velocity=64 time=0
note_on channel=0 note=89 velocity=0 time=120
note_on channel=0 note=87 velocity=80 time=0
note_on channel=0 note=41 velocity=0 time=60
note_on channel=0 note=32 velocity=0 time=0
note_on channel=0 note=87 velocity=0 time=60
note_on channel=0 note=86 velocity=79 time=0
note_on channel=0 note=32 velocity=56 time=0
note_on channel=0 note=41 velocity=66 time=0
note_on channel=0 note=86 velocity=0 time=120
note_on channel=0 note=84 velocity=81 time=0
note_on channel=0 note=41 velocity=0 time=60
note_on channel=0 note=32 velocity=0 time=0
note_on channel=0 note=84 velocity=0 time=0
note_on channel=0 note=83 velocity=85 time=0
note_on channel=0 note=41 velocity=85 time=0
note_on channel=0 note=31 velocity=70 time=6
note_on channel=0 note=83 velocity=0 time=0
note_on channel=0 note=84 velocity=89 time=0
note_on channel=0 note=84 velocity=0 time=0
note_on channel=0 note=86 velocity=94 time=0
note_on channel=0 note=86 velocity=0 time=0
note_on channel=0 note=87 velocity=98 time=0
note_on channel=0 note=87 velocity=0 time=0
note_on channel=0 note=41 velocity=0 time=0
note_on channel=0 note=89 velocity=100 time=0
note_on channel=0 note=43 velocity=81 time=0
note_on channel=0 note=55 velocity=96 time=0
note_on channel=0 note=31 velocity=0 time=6
note_on channel=0 note=89 velocity=0 time=114
note_on channel=0 note=87 velocity=98 time=0
note_on channel=0 note=87 velocity=0 time=120
note_on channel=0 note=86 velocity=96 time=0
note_on channel=0 note=86 velocity=0 time=120
note_on channel=0 note=84 velocity=94 time=0
note_on channel=0 note=84 velocity=0 time=120
note_on channel=0 note=83 velocity=93 time=0
note_on channel=0 note=83 velocity=0 time=120
note_on channel=0 note=80 velocity=91 time=0
note_on channel=0 note=80 velocity=0 time=120
note_on channel=0 note=79 velocity=89 time=0
note_on channel=0 note=79 velocity=0 time=120
note_on channel=0 note=77 velocity=87 time=0
note_on channel=0 note=77 velocity=0 time=0
note_on channel=0 note=75 velocity=85 time=0
note_on channel=0 note=75 velocity=0 time=120
note_on channel=0 note=74 velocity=83 time=0
note_on channel=0 note=74 velocity=0 time=120
note_on channel=0 note=43 velocity=0 time=0
note_on channel=0 note=55 velocity=0 time=0
note_on channel=0 note=72 velocity=81 time=0
note_on channel=0 note=57 velocity=67 time=0
note_on channel=0 note=57 velocity=0 time=120
note_on channel=0 note=72 velocity=0 time=0
note_on channel=0 note=71 velocity=79 time=0
note_on channel=0 note=59 velocity=70 time=0
note_on channel=0 note=59 velocity=0 time=0
note_on channel=0 note=71 velocity=0 time=0
note_on channel=0 note=72 velocity=93 time=0
note_on channel=0 note=60 velocity=72 time=0
note_on channel=0 note=60 velocity=0 time=180
note_on channel=0 note=72 velocity=0 time=0
note_on channel=0 note=67 velocity=83 time=0
note_on channel=0 note=43 velocity=56 time=0
note_on channel=0 note=55 velocity=66 time=0
note_on channel=0 note=55 velocity=0 time=180
note_on channel=0 note=43 velocity=0 time=0
note_on channel=0 note=67 velocity=0 time=0
note_on channel=0 note=63 velocity=72 time=0
note_on channel=0 note=39 velocity=52 time=0
note_on channel=0 note=51 velocity=62 time=0
note_on channel=0 note=51 velocity=0 time=180
note_on channel=0 note=39 velocity=0 time=0
note_on channel=0 note=63 velocity=0 time=0
note_on channel=0 note=60 velocity=64 time=0
note_on channel=0 note=36 velocity=48 time=0
note_on channel=0 note=48 velocity=57 time=0
note_on channel=0 note=48 velocity=0 time=180
note_on channel=0 note=36 velocity=0 time=0
note_on channel=0 note=60 velocity=0 time=0
note_on channel=0 note=56 velocity=60 time=0
note_on channel=0 note=32 velocity=46 time=0
note_on channel=0 note=44 velocity=54 time=0
note_on channel=0 note=44 velocity=0 time=0
note_on channel=0 note=32 velocity=0 time=0
note_on channel=0 note=56 velocity=0 time=0
note_on channel=0 note=73 velocity=54 time=0
note_on channel=0 note=61 velocity=37 time=0
note_on channel=0 note=61 velocity=0 time=180
note_on channel=0 note=73 velocity=0 time=0
note_on channel=0 note=68 velocity=52 time=0
note_on channel=0 note=56 velocity=33 time=0
note_on channel=0 note=56 velocity=0 time=180
note_on channel=0 note=68 velocity=0 time=0
note_on channel=0 note=65 velocity=48 time=0
note_on channel=0 note=53 velocity=32 time=0
note_on channel=0 note=53 velocity=0 time=180
note_on channel=0 note=65 velocity=0 time=0
note_on channel=0 note=61 velocity=43 time=0
note_on channel=0 note=49 velocity=29 time=0
note_on channel=0 note=49 velocity=0 time=180
note_on channel=0 note=61 velocity=0 time=0
note_on channel=0 note=58 velocity=39 time=0
note_on channel=0 note=34 velocity=24 time=0
note_on channel=0 note=46 velocity=29 time=0
note_on channel=0 note=46 velocity=0 time=0
note_on channel=0 note=34 velocity=0 time=0
note_on channel=0 note=58 velocity=0 time=0
note_on channel=0 note=63 velocity=41 time=0
note_on channel=0 note=67 velocity=37 time=120
note_on channel=0 note=63 velocity=0 time=60
note_on channel=0 note=67 velocity=0 time=60
note_on channel=0 note=70 velocity=37 time=0
note_on channel=0 note=70 velocity=0 time=120
note_on channel=0 note=75 velocity=37 time=0
note_on channel=0 note=75 velocity=0 time=120
note_on channel=0 note=58 velocity=37 time=0
note_on channel=0 note=67 velocity=37 time=120
note_on channel=0 note=58 velocity=0 time=60
note_on channel=0 note=67 velocity=0 time=60
note_on channel=0 note=70 velocity=37 time=0
note_on channel=0 note=70 velocity=0 time=120
note_on channel=0 note=75 velocity=37 time=0
note_on channel=0 note=75 velocity=0 time=120
note_on channel=0 note=55 velocity=37 time=0
note_on channel=0 note=67 velocity=37 time=120
note_on channel=0 note=55 velocity=0 time=60
note_on channel=0 note=67 velocity=0 time=60
note_on channel=0 note=70 velocity=37 time=0
note_on channel=0 note=70 velocity=0 time=120
note_on channel=0 note=75 velocity=37 time=0
note_on channel=0 note=75 velocity=0 time=0
note_on channel=0 note=51 velocity=37 time=0
note_on channel=0 note=67 velocity=37 time=120
note_on channel=0 note=51 velocity=0 time=60
note_on channel=0 note=67 velocity=0 time=60
note_on channel=0 note=70 velocity=37 time=0
note_on channel=0 note=70 velocity=0 time=120
note_on channel=0 note=75 velocity=37 time=0
note_on channel=0 note=75 velocity=0 time=0
note_on channel=0 note=53 velocity=35 time=0
note_on channel=0 note=65 velocity=37 time=120
note_on channel=0 note=53 velocity=0 time=60
note_on channel=0 note=65 velocity=0 time=60
note_on channel=0 note=68 velocity=37 time=0
note_on channel=0 note=68 velocity=0 time=120
note_on channel=0 note=75 velocity=37 time=0
note_on channel=0 note=75 velocity=0 time=0
note_on channel=0 note=56 velocity=38 time=0
note_on channel=0 note=65 velocity=41 time=120
note_on channel=0 note=56 velocity=0 time=60
note_on channel=0 note=65 velocity=0 time=60
note_on channel=0 note=71 velocity=41 time=0
note_on channel=0 note=71 velocity=0 time=120
note_on channel=0 note=74 velocity=41 time=0
note_on channel=0 note=74 velocity=0 time=0
note_on channel=0 note=57 velocity=39 time=0
note_on channel=0 note=63 velocity=45 time=120
note_on channel=0 note=57 velocity=0 time=60
note_on channel=0 note=63 velocity=0 time=60
note_on channel=0 note=66 velocity=45 time=0
note_on channel=0 note=66 velocity=0 time=120
note_on channel=0 note=74 velocity=45 time=0
note_on channel=0 note=74 velocity=0 time=0
note_on channel=0 note=54 velocity=37 time=0
note_on channel=0 note=63 velocity=39 time=120
note_on channel=0 note=54 velocity=0 time=60
note_on channel=0 note=63 velocity=0 time=60
note_on channel=0 note=69 velocity=39 time=0
note_on channel=0 note=69 velocity=0 time=120
note_on channel=0 note=72 velocity=39 time=0
note_on channel=0 note=72 velocity=0 time=0
note_on channel=0 note=55 velocity=46 time=0
note_on channel=0 note=62 velocity=44 time=120
note_on channel=0 note=55 velocity=0 time=60
note_on channel=0 note=62 velocity=0 time=60
note_on channel=0 note=67 velocity=44 time=0
note_on channel=0 note=67 velocity=0 time=120
note_on channel=0 note=72 velocity=44 time=0
note_on channel=0 note=72 velocity=0 time=0
note_on channel=0 note=54 velocity=44 time=0
note_on channel=0 note=62 velocity=48 time=120
note_on channel=0 note=54 velocity=0 time=60
note_on channel=0 note=62 velocity=0 time=60
note_on channel=0 note=67 velocity=48 time=0
note_on channel=0 note=67 velocity=0 time=120
note_on channel=0 note=72 velocity=48 time=0
note_on channel=0 note=72 velocity=0 time=0
note_on channel=0 note=55 velocity=60 time=0
note_on channel=0 note=62 velocity=53 time=120
note_on channel=0 note=55 velocity=0 time=60
note_on channel=0 note=62 velocity=0 time=60
note_on channel=0 note=67 velocity=53 time=0
note_on channel=0 note=67 velocity=0 time=120
note_on channel=0 note=71 velocity=53 time=0
note_on channel=0 note=71 velocity=0 time=0
note_on channel=0 note=43 velocity=56 time=0
note_on channel=0 note=62 velocity=58 time=120
note_on channel=0 note=43 velocity=0 time=60
note_on channel=0 note=62 velocity=0 time=60
note_on channel=0 note=65 velocity=59 time=0
note_on channel=0 note=65 velocity=0 time=0
note_on channel=0 note=71 velocity=59 time=0
note_on channel=0 note=71 velocity=0 time=0
note_on channel=0 note=64 velocity=68 time=0
note_on channel=0 note=72 velocity=84 time=0
note_on channel=0 note=36 velocity=70 time=0
note_on channel=0 note=48 velocity=70 time=0
note_on channel=0 note=48 velocity=0 time=240
note_on channel=0 note=64 velocity=0 time=0
note_on channel=0 note=72 velocity=0 time=0
note_on channel=0 note=64 velocity=37 time=0
note_on channel=0 note=48 velocity=31 time=0
note_on channel=0 note=48 velocity=0 time=119
note_on channel=0 note=64 velocity=0 time=0
note_on channel=0 note=60 velocity=33 time=1
note_on channel=0 note=55 velocity=26 time=0
note_on channel=0 note=55 velocity=0 time=0
note_on channel=0 note=60 velocity=0 time=0
note_on channel=0 note=64 velocity=37 time=0
note_on channel=0 note=48 velocity=31 time=0
note_on channel=0 note=48 velocity=0 time=69
note_on channel=0 note=64 velocity=0 time=0
note_on channel=0 note=60 velocity=33 time=1
note_on channel=0 note=55 velocity=27 time=0
note_on channel=0 note=55 velocity=0 time=120
note_on channel=0 note=60 velocity=0 time=0
note_on channel=0 note=64 velocity=36 time=0
note_on channel=0 note=48 velocity=31 time=0
note_on channel=0 note=48 velocity=0 time=119
note_on channel=0 note=64 velocity=0 time=0
note_on channel=0 note=60 velocity=33 time=1
note_on channel=0 note=55 velocity=27 time=0
note_on channel=0 note=55 velocity=0 time=120
note_on channel=0 note=60 velocity=0 time=0
note_on channel=0 note=64 velocity=36 time=0
note_on channel=0 note=48 velocity=31 time=0
note_on channel=0 note=48 velocity=0 time=119
note_on channel=0 note=64 velocity=0 time=0
note_on channel=0 note=60 velocity=33 time=1
note_on channel=0 note=55 velocity=26 time=0
note_on channel=0 note=55 velocity=0 time=120
note_on channel=0 note=60 velocity=0 time=0
note_on channel=0 note=64 velocity=37 time=0
note_on channel=0 note=48 velocity=31 time=0
note_on channel=0 note=48 velocity=0 time=119
note_on channel=0 note=64 velocity=0 time=0
note_on channel=0 note=60 velocity=33 time=1
note_on channel=0 note=55 velocity=27 time=0
note_on channel=0 note=55 velocity=0 time=0
note_on channel=0 note=60 velocity=0 time=0
note_on channel=0 note=64 velocity=36 time=0
note_on channel=0 note=48 velocity=31 time=0
note_on channel=0 note=48 velocity=0 time=119
note_on channel=0 note=64 velocity=0 time=0
note_on channel=0 note=60 velocity=33 time=1
note_on channel=0 note=55 velocity=27 time=0
note_on channel=0 note=55 velocity=0 time=120
note_on channel=0 note=60 velocity=0 time=0
note_on channel=0 note=64 velocity=36 time=0
note_on channel=0 note=48 velocity=31 time=0
note_on channel=0 note=48 velocity=0 time=119
note_on channel=0 note=64 velocity=0 time=0
note_on channel=0 note=60 velocity=33 time=1
note_on channel=0 note=55 velocity=25 time=0
note_on channel=0 note=55 velocity=0 time=120
note_on channel=0 note=60 velocity=0 time=0
note_on channel=0 note=36 velocity=0 time=0
note_on channel=0 note=64 velocity=37 time=0
note_on channel=0 note=48 velocity=31 time=0
note_on channel=0 note=48 velocity=0 time=99
note_on channel=0 note=64 velocity=0 time=0
note_on channel=0 note=60 velocity=33 time=1
note_on channel=0 note=55 velocity=26 time=0
note_on channel=0 note=55 velocity=0 time=120
note_on channel=0 note=60 velocity=0 time=0
note_on channel=0 note=64 velocity=37 time=0
note_on channel=0 note=48 velocity=31 time=0
note_on channel=0 note=48 velocity=0 time=119
note_on channel=0 note=64 velocity=0 time=0
note_on channel=0 note=60 velocity=33 time=1
note_on channel=0 note=55 velocity=26 time=0
note_on channel=0 note=55 velocity=0 time=0
note_on channel=0 note=60 velocity=0 time=0
note_on channel=0 note=64 velocity=37 time=0
note_on channel=0 note=48 velocity=31 time=0
note_on channel=0 note=48 velocity=0 time=119
note_on channel=0 note=64 velocity=0 time=0
note_on channel=0 note=60 velocity=33 time=1
note_on channel=0 note=55 velocity=27 time=0
note_on channel=0 note=55 velocity=0 time=120
note_on channel=0 note=60 velocity=0 time=0
note_on channel=0 note=64 velocity=36 time=0
note_on channel=0 note=48 velocity=31 time=0
note_on channel=0 note=48 velocity=0 time=119
note_on channel=0 note=64 velocity=0 time=0
note_on channel=0 note=60 velocity=33 time=1
note_on channel=0 note=55 velocity=27 time=0
note_on channel=0 note=55 velocity=0 time=120
note_on channel=0 note=60 velocity=0 time=0
note_on channel=0 note=64 velocity=36 time=0
note_on channel=0 note=48 velocity=31 time=0
note_on channel=0 note=48 velocity=0 time=119
note_on channel=0 note=64 velocity=0 time=0
note_on channel=0 note=60 velocity=33 time=1
note_on channel=0 note=55 velocity=26 time=0
note_on channel=0 note=55 velocity=0 time=120
note_on channel=0 note=60 velocity=0 time=0
note_on channel=0 note=64 velocity=37 time=0
note_on channel=0 note=48 velocity=31 time=0
note_on channel=0 note=48 velocity=0 time=119
note_on channel=0 note=64 velocity=0 time=0
note_on channel=0 note=60 velocity=33 time=1
note_on channel=0 note=55 velocity=27 time=0
note_on channel=0 note=55 velocity=0 time=120
note_on channel=0 note=60 velocity=0 time=0
note_on channel=0 note=66 velocity=36 time=0
note_on channel=0 note=48 velocity=31 time=0
note_on channel=0 note=48 velocity=0 time=39
note_on channel=0 note=66 velocity=0 time=0
note_on channel=0 note=62 velocity=33 time=1
note_on channel=0 note=57 velocity=27 time=0
note_on channel=0 note=57 velocity=0 time=120
note_on channel=0 note=62 velocity=0 time=0
note_on channel=0 note=66 velocity=36 time=0
note_on channel=0 note=48 velocity=31 time=0
note_on channel=0 note=48 velocity=0 time=119
note_on channel=0 note=66 velocity=0 time=0
note_on channel=0 note=62 velocity=33 time=1
note_on channel=0 note=57 velocity=25 time=0
note_on channel=0 note=57 velocity=0 time=0
note_on channel=0 note=62 velocity=0 time=0
note_on channel=0 note=67 velocity=46 time=0
note_on channel=0 note=47 velocity=26 time=0
note_on channel=0 note=50 velocity=31 time=0
note_on channel=0 note=55 velocity=25 time=107
note_on channel=0 note=50 velocity=0 time=60
note_on channel=0 note=47 velocity=0 time=0
note_on channel=0 note=55 velocity=0 time=60
note_on channel=0 note=47 velocity=26 time=0
note_on channel=0 note=50 velocity=31 time=0
note_on channel=0 note=55 velocity=25 time=120
note_on channel=0 note=50 velocity=0 time=60
note_on channel=0 note=47 velocity=0 time=0
note_on channel=0 note=55 velocity=0 time=60
note_on channel=0 note=47 velocity=26 time=0
note_on channel=0 note=50 velocity=31 time=0
note_on channel=0 note=55 velocity=25 time=120
note_on channel=0 note=50 velocity=0 time=60
note_on channel=0 note=47 velocity=0 time=0
note_on channel=0 note=67 velocity=0 time=60
note_on channel=0 note=55 velocity=0 time=0
note_on channel=0 note=71 velocity=40 time=0
note_on channel=0 note=47 velocity=26 time=0
note_on channel=0 note=50 velocity=31 time=0
note_on channel=0 note=71 velocity=0 time=120
note_on channel=0 note=69 velocity=40 time=0
note_on channel=0 note=55 velocity=25 time=0
note_on channel=0 note=50 velocity=0 time=60
note_on channel=0 note=47 velocity=0 time=0
note_on channel=0 note=69 velocity=0 time=60
note_on channel=0 note=55 velocity=0 time=0
note_on channel=0 note=67 velocity=45 time=0
note_on channel=0 note=47 velocity=26 time=0
note_on channel=0 note=50 velocity=31 time=0
note_on channel=0 note=67 velocity=0 time=120
note_on channel=0 note=55 velocity=25 time=0
note_on channel=0 note=50 velocity=0 time=60
note_on channel=0 note=47 velocity=0 time=0
note_on channel=0 note=55 velocity=0 time=60
note_on channel=0 note=47 velocity=26 time=0
note_on channel=0 note=50 velocity=31 time=0
note_on channel=0 note=55 velocity=25 time=120
note_on channel=0 note=50 velocity=0 time=60
note_on channel=0 note=47 velocity=0 time=0
note_on channel=0 note=55 velocity=0 time=60
note_on channel=0 note=47 velocity=26 time=0
note_on channel=0 note=50 velocity=31 time=0
note_on channel=0 note=55 velocity=25 time=120
note_on channel=0 note=50 velocity=0 time=60
note_on channel=0 note=47 velocity=0 time=0
note_on channel=0 note=55 velocity=0 time=0
note_on channel=0 note=47 velocity=26 time=0
note_on channel=0 note=50 velocity=31 time=0
note_on channel=0 note=55 velocity=25 time=120
note_on channel=0 note=50 velocity=0 time=60
note_on channel=0 note=47 velocity=0 time=0
note_on channel=0 note=85 velocity=46 time=0
note_on channel=0 note=85 velocity=0 time=0
note_on channel=0 note=55 velocity=0 time=0
note_on channel=0 note=86 velocity=57 time=0
note_on channel=0 note=47 velocity=26 time=0
note_on channel=0 note=50 velocity=31 time=0
note_on channel=0 note=55 velocity=25 time=120
note_on channel=0 note=50 velocity=0 time=60
note_on channel=0 note=47 velocity=0 time=0
note_on channel=0 note=55 velocity=0 time=60
note_on channel=0 note=47 velocity=26 time=0
note_on channel=0 note=50 velocity=31 time=0
note_on channel=0 note=55 velocity=25 time=120
note_on channel=0 note=50 velocity=0 time=60
note_on channel=0 note=47 velocity=0 time=0
note_on channel=0 note=55 velocity=0 time=60
note_on channel=0 note=47 velocity=26 time=0
note_on channel=0 note=50 velocity=31 time=0
note_on channel=0 note=86 velocity=0 time=120
note_on channel=0 note=84 velocity=48 time=0
note_on channel=0 note=55 velocity=25 time=0
note_on channel=0 note=50 velocity=0 time=60
note_on channel=0 note=47 velocity=0 time=0
note_on channel=0 note=84 velocity=0 time=60
note_on channel=0 note=55 velocity=0 time=0
note_on channel=0 note=83 velocity=47 time=0
note_on channel=0 note=47 velocity=26 time=0
note_on channel=0 note=50 velocity=31 time=0
note_on channel=0 note=83 velocity=0 time=120
note_on channel=0 note=81 velocity=45 time=0
note_on channel=0 note=55 velocity=25 time=0
note_on channel=0 note=50 velocity=0 time=60
note_on channel=0 note=47 velocity=0 time=0
note_on channel=0 note=81 velocity=0 time=60
note_on channel=0 note=55 velocity=0 time=0
note_on channel=0 note=79 velocity=44 time=0
note_on channel=0 note=47 velocity=26 time=0
note_on channel=0 note=50 velocity=31 time=0
note_on channel=0 note=55 velocity=25 time=120
note_on channel=0 note=50 velocity=0 time=60
note_on channel=0 note=47 velocity=0 time=0
note_on channel=0 note=79 velocity=0 time=60
note_on channel=0 note=55 velocity=0 time=0
note_on channel=0 note=47 velocity=26 time=0
note_on channel=0 note=50 velocity=31 time=0
note_on channel=0 note=55 velocity=25 time=120
note_on channel=0 note=50 velocity=0 time=60
note_on channel=0 note=47 velocity=0 time=0
note_on channel=0 note=55 velocity=0 time=60
note_on channel=0 note=47 velocity=26 time=0
note_on channel=0 note=50 velocity=31 time=0
note_on channel=0 note=55 velocity=25 time=120
note_on channel=0 note=50 velocity=0 time=60
note_on channel=0 note=47 velocity=0 time=0
note_on channel=0 note=55 velocity=0 time=0
note_on channel=0 note=47 velocity=26 time=0
note_on channel=0 note=50 velocity=31 time=0
note_on channel=0 note=55 velocity=25 time=120
note_on channel=0 note=50 velocity=0 time=60
note_on channel=0 note=47 velocity=0 time=0
note_on channel=0 note=55 velocity=0 time=0
note_on channel=0 note=65 velocity=40 time=0
note_on channel=0 note=38 velocity=33 time=0
note_on channel=0 note=50 velocity=33 time=0
note_on channel=0 note=65 velocity=0 time=119
note_on channel=0 note=62 velocity=36 time=1
note_on channel=0 note=62 velocity=0 time=120
note_on channel=0 note=50 velocity=0 time=0
note_on channel=0 note=65 velocity=40 time=0
note_on channel=0 note=50 velocity=34 time=0
note_on channel=0 note=50 velocity=0 time=48
note_on channel=0 note=65 velocity=0 time=0
note_on channel=0 note=62 velocity=36 time=1
note_on channel=0 note=57 velocity=28 time=0
note_on channel=0 note=57 velocity=0 time=0
note_on channel=0 note=62 velocity=0 time=0
note_on channel=0 note=65 velocity=40 time=0
note_on channel=0 note=50 velocity=34 time=0
note_on channel=0 note=50 velocity=0 time=119
note_on channel=0 note=65 velocity=0 time=0
note_on channel=0 note=62 velocity=36 time=1
note_on channel=0 note=57 velocity=29 time=0
note_on channel=0 note=57 velocity=0 time=120
note_on channel=0 note=62 velocity=0 time=0
note_on channel=0 note=65 velocity=39 time=0
note_on channel=0 note=50 velocity=34 time=0
note_on channel=0 note=50 velocity=0 time=119
note_on channel=0 note=65 velocity=0 time=0
note_on channel=0 note=62 velocity=36 time=1
note_on channel=0 note=57 velocity=29 time=0
note_on channel=0 note=57 velocity=0 time=120
note_on channel=0 note=62 velocity=0 time=0
note_on channel=0 note=65 velocity=39 time=0
note_on channel=0 note=50 velocity=34 time=0
note_on channel=0 note=50 velocity=0 time=119
note_on channel=0 note=65 velocity=0 time=0
note_on channel=0 note=62 velocity=36 time=1
note_on channel=0 note=57 velocity=28 time=0
note_on channel=0 note=57 velocity=0 time=120
note_on channel=0 note=62 velocity=0 time=0
note_on channel=0 note=65 velocity=41 time=0
note_on channel=0 note=50 velocity=34 time=0
note_on channel=0 note=50 velocity=0 time=119
note_on channel=0 note=65 velocity=0 time=0
note_on channel=0 note=62 velocity=36 time=1
note_on channel=0 note=57 velocity=29 time=0
note_on channel=0 note=57 velocity=0 time=0
note_on channel=0 note=62 velocity=0 time=0
note_on channel=0 note=65 velocity=40 time=0
note_on channel=0 note=50 velocity=34 time=0
note_on channel=0 note=50 velocity=0 time=119
note_on channel=0 note=65 velocity=0 time=0
note_on channel=0 note=62 velocity=37 time=1
note_on channel=0 note=57 velocity=30 time=0
note_on channel=0 note=57 velocity=0 time=120
note_on channel=0 note=62 velocity=0 time=0
note_on channel=0 note=65 velocity=40 time=0
note_on channel=0 note=50 velocity=35 time=0
note_on channel=0 note=50 velocity=0 time=119
note_on channel=0 note=65 velocity=0 time=0
note_on channel=0 note=62 velocity=37 time=1
note_on channel=0 note=57 velocity=28 time=0
note_on channel=0 note=57 velocity=0 time=0
note_on channel=0 note=62 velocity=0 time=0
note_on channel=0 note=38 velocity=0 time=0
note_on channel=0 note=65 velocity=41 time=0
note_on channel=0 note=50 velocity=35 time=0
note_on channel=0 note=50 velocity=0 time=119
note_on channel=0 note=65 velocity=0 time=0
note_on channel=0 note=62 velocity=37 time=1
note_on channel=0 note=57 velocity=29 time=0
note_on channel=0 note=57 velocity=0 time=120
note_on channel=0 note=62 velocity=0 time=0
note_on channel=0 note=65 velocity=41 time=0
note_on channel=0 note=50 velocity=35 time=0
note_on channel=0 note=50 velocity=0 time=119
note_on channel=0 note=65 velocity=0 time=0
note_on channel=0 note=62 velocity=37 time=1
note_on channel=0 note=57 velocity=29 time=0
note_on channel=0 note=57 velocity=0 time=0
note_on channel=0 note=62 velocity=0 time=0
note_on channel=0 note=65 velocity=42 time=0
note_on channel=0 note=50 velocity=35 time=0
note_on channel=0 note=50 velocity=0 time=119
note_on channel=0 note=65 velocity=0 time=0
note_on channel=0 note=62 velocity=37 time=1
note_on channel=0 note=57 velocity=30 time=0
note_on channel=0 note=57 velocity=0 time=120
note_on channel=0 note=62 velocity=0 time=0
note_on channel=0 note=65 velocity=41 time=0
note_on channel=0 note=50 velocity=35 time=0
note_on channel=0 note=50 velocity=0 time=119
note_on channel=0 note=65 velocity=0 time=0
note_on channel=0 note=62 velocity=38 time=1
note_on channel=0 note=57 velocity=30 time=0
note_on channel=0 note=57 velocity=0 time=120
note_on channel=0 note=62 velocity=0 time=0
note_on channel=0 note=65 velocity=41 time=0
note_on channel=0 note=50 velocity=36 time=0
note_on channel=0 note=50 velocity=0 time=99
note_on channel=0 note=65 velocity=0 time=0
note_on channel=0 note=62 velocity=38 time=1
note_on channel=0 note=57 velocity=29 time=0
note_on channel=0 note=57 velocity=0 time=120
note_on channel=0 note=62 velocity=0 time=0
note_on channel=0 note=65 velocity=42 time=0
note_on channel=0 note=50 velocity=36 time=0
note_on channel=0 note=50 velocity=0 time=119
note_on channel=0 note=65 velocity=0 time=0
note_on channel=0 note=62 velocity=38 time=1
note_on channel=0 note=57 velocity=31 time=0
note_on channel=0 note=57 velocity=0 time=120
note_on channel=0 note=62 velocity=0 time=0
note_on channel=0 note=68 velocity=41 time=0
note_on channel=0 note=50 velocity=36 time=0
note_on channel=0 note=50 velocity=0 time=33
note_on channel=0 note=68 velocity=0 time=0
note_on channel=0 note=64 velocity=38 time=1
note_on channel=0 note=59 velocity=31 time=0
note_on channel=0 note=59 velocity=0 time=120
note_on channel=0 note=64 velocity=0 time=0
note_on channel=0 note=68 velocity=42 time=0
note_on channel=0 note=50 velocity=36 time=0
note_on channel=0 note=50 velocity=0 time=119
note_on channel=0 note=68 velocity=0 time=0
note_on channel=0 note=64 velocity=38 time=1
note_on channel=0 note=59 velocity=29 time=0
note_on channel=0 note=59 velocity=0 time=0
note_on channel=0 note=64 velocity=0 time=0
note_on channel=0 note=69 velocity=55 time=0
note_on channel=0 note=48 velocity=30 time=0
note_on channel=0 note=52 velocity=37 time=0
note_on channel=0 note=57 velocity=29 time=106
note_on channel=0 note=52 velocity=0 time=60
note_on channel=0 note=48 velocity=0 time=0
note_on channel=0 note=57 velocity=0 time=60
note_on channel=0 note=48 velocity=30 time=0
note_on channel=0 note=52 velocity=37 time=0
note_on channel=0 note=57 velocity=29 time=120
note_on channel=0 note=52 velocity=0 time=60
note_on channel=0 note=48 velocity=0 time=0
note_on channel=0 note=57 velocity=0 time=60
note_on channel=0 note=48 velocity=30 time=0
note_on channel=0 note=52 velocity=37 time=0
note_on channel=0 note=57 velocity=29 time=120
note_on channel=0 note=52 velocity=0 time=60
note_on channel=0 note=48 velocity=0 time=0
note_on channel=0 note=69 velocity=0 time=60
note_on channel=0 note=57 velocity=0 time=0
note_on channel=0 note=72 velocity=48 time=0
note_on channel=0 note=48 velocity=30 time=0
note_on channel=0 note=52 velocity=37 time=0
note_on channel=0 note=72 velocity=0 time=120
note_on channel=0 note=71 velocity=48 time=0
note_on channel=0 note=57 velocity=29 time=0
note_on channel=0 note=52 velocity=0 time=60
note_on channel=0 note=48 velocity=0 time=0
note_on channel=0 note=71 velocity=0 time=60
note_on channel=0 note=57 velocity=0 time=0
note_on channel=0 note=69 velocity=53 time=0
note_on channel=0 note=48 velocity=30 time=0
note_on channel=0 note=52 velocity=37 time=0
note_on channel=0 note=69 velocity=0 time=120
note_on channel=0 note=57 velocity=29 time=0
note_on channel=0 note=52 velocity=0 time=60
note_on channel=0 note=48 velocity=0 time=0
note_on channel=0 note=57 velocity=0 time=60
note_on channel=0 note=48 velocity=30 time=0
note_on channel=0 note=52 velocity=37 time=0
note_on channel=0 note=57 velocity=29 time=120
note_on channel=0 note=52 velocity=0 time=60
note_on channel=0 note=48 velocity=0 time=0
note_on channel=0 note=57 velocity=0 time=60
note_on channel=0 note=48 velocity=30 time=0
note_on channel=0 note=52 velocity=37 time=0
note_on channel=0 note=57 velocity=29 time=120
note_on channel=0 note=52 velocity=0 time=60
note_on channel=0 note=48 velocity=0 time=0
note_on channel=0 note=57 velocity=0 time=0
note_on channel=0 note=48 velocity=30 time=0
note_on channel=0 note=52 velocity=37 time=0
note_on channel=0 note=57 velocity=29 time=120
note_on channel=0 note=52 velocity=0 time=60
note_on channel=0 note=48 velocity=0 time=0
note_on channel=0 note=87 velocity=55 time=0
note_on channel=0 note=87 velocity=0 time=0
note_on channel=0 note=57 velocity=0 time=0
note_on channel=0 note=88 velocity=68 time=0
note_on channel=0 note=48 velocity=30 time=0
note_on channel=0 note=52 velocity=37 time=0
note_on channel=0 note=57 velocity=29 time=120
note_on channel=0 note=52 velocity=0 time=60
note_on channel=0 note=48 velocity=0 time=0
note_on channel=0 note=57 velocity=0 time=60
note_on channel=0 note=48 velocity=30 time=0
note_on channel=0 note=52 velocity=37 time=0
note_on channel=0 note=57 velocity=29 time=120
note_on channel=0 note=52 velocity=0 time=60
note_on channel=0 note=48 velocity=0 time=0
note_on channel=0 note=57 velocity=0 time=60
note_on channel=0 note=48 velocity=30 time=0
note_on channel=0 note=52 velocity=37 time=0
note_on channel=0 note=88 velocity=0 time=120
note_on channel=0 note=86 velocity=58 time=0
note_on channel=0 note=57 velocity=29 time=0
note_on channel=0 note=52 velocity=0 time=60
note_on channel=0 note=48 velocity=0 time=0
note_on channel=0 note=86 velocity=0 time=60
note_on channel=0 note=57 velocity=0 time=0
note_on channel=0 note=84 velocity=57 time=0
note_on channel=0 note=48 velocity=30 time=0
note_on channel=0 note=52 velocity=38 time=0
note_on channel=0 note=84 velocity=0 time=120
note_on channel=0 note=83 velocity=55 time=0
note_on channel=0 note=57 velocity=30 time=0
note_on channel=0 note=52 velocity=0 time=60
note_on channel=0 note=48 velocity=0 time=0
note_on channel=0 note=83 velocity=0 time=60
note_on channel=0 note=57 velocity=0 time=0
note_on channel=0 note=81 velocity=55 time=0
note_on channel=0 note=48 velocity=31 time=0
note_on channel=0 note=52 velocity=38 time=0
note_on channel=0 note=57 velocity=30 time=120
note_on channel=0 note=52 velocity=0 time=60
note_on channel=0 note=48 velocity=0 time=0
note_on channel=0 note=81 velocity=0 time=60
note_on channel=0 note=57 velocity=0 time=0
note_on channel=0 note=48 velocity=31 time=0
note_on channel=0 note=52 velocity=39 time=0
note_on channel=0 note=57 velocity=30 time=120
note_on channel=0 note=52 velocity=0 time=60
note_on channel=0 note=48 velocity=0 time=0
note_on channel=0 note=57 velocity=0 time=60
note_on channel=0 note=48 velocity=31 time=0
note_on channel=0 note=52 velocity=39 time=0
note_on channel=0 note=57 velocity=31 time=120
note_on channel=0 note=52 velocity=0 time=60
note_on channel=0 note=48 velocity=0 time=0
note_on channel=0 note=57 velocity=0 time=0
note_on channel=0 note=48 velocity=33 time=0
note_on channel=0 note=52 velocity=39 time=0
note_on channel=0 note=57 velocity=31 time=120
note_on channel=0 note=52 velocity=0 time=60
note_on channel=0 note=48 velocity=0 time=0
note_on channel=0 note=83 velocity=61 time=0
note_on channel=0 note=83 velocity=0 time=0
note_on channel=0 note=57 velocity=0 time=0
note_on channel=0 note=84 velocity=78 time=0
note_on channel=0 note=53 velocity=34 time=0
note_on channel=0 note=57 velocity=41 time=0
note_on channel=0 note=60 velocity=33 time=120
note_on channel=0 note=57 velocity=0 time=60
note_on channel=0 note=53 velocity=0 time=0
note_on channel=0 note=60 velocity=0 time=60
note_on channel=0 note=53 velocity=35 time=0
note_on channel=0 note=57 velocity=41 time=0
note_on channel=0 note=60 velocity=34 time=120
note_on channel=0 note=57 velocity=0 time=60
note_on channel=0 note=53 velocity=0 time=0
note_on channel=0 note=60 velocity=0 time=60
note_on channel=0 note=53 velocity=35 time=0
note_on channel=0 note=57 velocity=42 time=0
note_on channel=0 note=84 velocity=0 time=120
note_on channel=0 note=83 velocity=68 time=0
note_on channel=0 note=60 velocity=34 time=0
note_on channel=0 note=57 velocity=0 time=60
note_on channel=0 note=53 velocity=0 time=0
note_on channel=0 note=83 velocity=0 time=60
note_on channel=0 note=60 velocity=0 time=0
note_on channel=0 note=81 velocity=67 time=0
note_on channel=0 note=53 velocity=35 time=0
note_on channel=0 note=57 velocity=42 time=0
note_on channel=0 note=81 velocity=0 time=120
note_on channel=0 note=80 velocity=64 time=0
note_on channel=0 note=60 velocity=34 time=0
note_on channel=0 note=57 velocity=0 time=60
note_on channel=0 note=53 velocity=0 time=0
note_on channel=0 note=80 velocity=0 time=60
note_on channel=0 note=60 velocity=0 time=0
note_on channel=0 note=81 velocity=63 time=0
note_on channel=0 note=53 velocity=36 time=0
note_on channel=0 note=57 velocity=44 time=0
note_on channel=0 note=62 velocity=35 time=120
note_on channel=0 note=57 velocity=0 time=60
note_on channel=0 note=53 velocity=0 time=0
note_on channel=0 note=81 velocity=0 time=60
note_on channel=0 note=62 velocity=0 time=0
note_on channel=0 note=53 velocity=37 time=0
note_on channel=0 note=57 velocity=45 time=0
note_on channel=0 note=62 velocity=36 time=120
note_on channel=0 note=57 velocity=0 time=60
note_on channel=0 note=53 velocity=0 time=0
note_on channel=0 note=62 velocity=0 time=60
note_on channel=0 note=53 velocity=37 time=0
note_on channel=0 note=57 velocity=45 time=0
note_on channel=0 note=62 velocity=37 time=120
note_on channel=0 note=57 velocity=0 time=60
note_on channel=0 note=53 velocity=0 time=0
note_on channel=0 note=62 velocity=0 time=0
note_on channel=0 note=53 velocity=38 time=0
note_on channel=0 note=57 velocity=46 time=0
note_on channel=0 note=62 velocity=37 time=120
note_on channel=0 note=57 velocity=0 time=0
note_on channel=0 note=53 velocity=0 time=0
note_on channel=0 note=83 velocity=63 time=0
note_on channel=0 note=83 velocity=0 time=0
note_on channel=0 note=62 velocity=0 time=0
note_on channel=0 note=84 velocity=81 time=0
note_on channel=0 note=53 velocity=35 time=0
note_on channel=0 note=57 velocity=43 time=0
note_on channel=0 note=63 velocity=34 time=120
note_on channel=0 note=57 velocity=0 time=60
note_on channel=0 note=53 velocity=0 time=0
note_on channel=0 note=63 velocity=0 time=60
note_on channel=0 note=53 velocity=36 time=0
note_on channel=0 note=57 velocity=43 time=0
note_on channel=0 note=63 velocity=35 time=120
note_on channel=0 note=57 velocity=0 time=60
note_on channel=0 note=53 velocity=0 time=0
note_on channel=0 note=63 velocity=0 time=60
note_on channel=0 note=53 velocity=37 time=0
note_on channel=0 note=57 velocity=44 time=0
note_on channel=0 note=84 velocity=0 time=120
note_on channel=0 note=83 velocity=72 time=0
note_on channel=0 note=63 velocity=36 time=0
note_on channel=0 note=57 velocity=0 time=60
note_on channel=0 note=53 velocity=0 time=0
note_on channel=0 note=83 velocity=0 time=60
note_on channel=0 note=63 velocity=0 time=0
note_on channel=0 note=81 velocity=71 time=0
note_on channel=0 note=53 velocity=37 time=0
note_on channel=0 note=57 velocity=44 time=0
note_on channel=0 note=81 velocity=0 time=120
note_on channel=0 note=80 velocity=67 time=0
note_on channel=0 note=63 velocity=36 time=0
note_on channel=0 note=57 velocity=0 time=60
note_on channel=0 note=53 velocity=0 time=0
note_on channel=0 note=80 velocity=0 time=40
note_on channel=0 note=63 velocity=0 time=0
note_on channel=0 note=81 velocity=70 time=0
note_on channel=0 note=53 velocity=38 time=0
note_on channel=0 note=57 velocity=47 time=0
note_on channel=0 note=81 velocity=0 time=0
note_on channel=0 note=80 velocity=66 time=0
note_on channel=0 note=60 velocity=37 time=0
note_on channel=0 note=57 velocity=0 time=60
note_on channel=0 note=53 velocity=0 time=0
note_on channel=0 note=80 velocity=0 time=0
note_on channel=0 note=60 velocity=0 time=0
note_on channel=0 note=81 velocity=66 time=0
note_on channel=0 note=53 velocity=38 time=0
note_on channel=0 note=57 velocity=47 time=0
note_on channel=0 note=81 velocity=0 time=0
note_on channel=0 note=83 velocity=66 time=0
note_on channel=0 note=60 velocity=37 time=0
note_on channel=0 note=57 velocity=0 time=60
note_on channel=0 note=53 velocity=0 time=0
note_on channel=0 note=83 velocity=0 time=0
note_on channel=0 note=60 velocity=0 time=0
note_on channel=0 note=84 velocity=69 time=0
note_on channel=0 note=53 velocity=47 time=0
note_on channel=0 note=84 velocity=0 time=120
note_on channel=0 note=85 velocity=70 time=0
note_on channel=0 note=57 velocity=39 time=0
note_on channel=0 note=53 velocity=0 time=60
note_on channel=0 note=57 velocity=0 time=0
note_on channel=0 note=85 velocity=0 time=0
note_on channel=0 note=86 velocity=71 time=0
note_on channel=0 note=53 velocity=49 time=0
note_on channel=0 note=86 velocity=0 time=0
note_on channel=0 note=87 velocity=74 time=0
note_on channel=0 note=57 velocity=39 time=0
note_on channel=0 note=53 velocity=0 time=60
note_on channel=0 note=57 velocity=0 time=0
note_on channel=0 note=87 velocity=0 time=0
note_on channel=0 note=88 velocity=68 time=0
note_on channel=0 note=52 velocity=40 time=0
note_on channel=0 note=56 velocity=35 time=0
note_on channel=0 note=52 velocity=0 time=20
note_on channel=0 note=59 velocity=35 time=0
note_on channel=0 note=56 velocity=0 time=20
note_on channel=0 note=64 velocity=35 time=40
note_on channel=0 note=59 velocity=0 time=20
note_on channel=0 note=64 velocity=0 time=40
note_on channel=0 note=52 velocity=41 time=0
note_on channel=0 note=86 velocity=54 time=40
note_on channel=0 note=56 velocity=35 time=0
note_on channel=0 note=52 velocity=0 time=20
note_on channel=0 note=88 velocity=0 time=0
note_on channel=0 note=84 velocity=53 time=80
note_on channel=0 note=59 velocity=35 time=0
note_on channel=0 note=86 velocity=0 time=20
note_on channel=0 note=56 velocity=0 time=0
note_on channel=0 note=83 velocity=51 time=80
note_on channel=0 note=64 velocity=35 time=0
note_on channel=0 note=84 velocity=0 time=20
note_on channel=0 note=59 velocity=0 time=0
note_on channel=0 note=64 velocity=0 time=0
note_on channel=0 note=84 velocity=53 time=0
note_on channel=0 note=52 velocity=39 time=0
note_on channel=0 note=83 velocity=0 time=20
note_on channel=0 note=83 velocity=52 time=100
note_on channel=0 note=57 velocity=35 time=0
note_on channel=0 note=52 velocity=0 time=20
note_on channel=0 note=84 velocity=0 time=0
note_on channel=0 note=81 velocity=51 time=100
note_on channel=0 note=60 velocity=35 time=0
note_on channel=0 note=83 velocity=0 time=20
note_on channel=0 note=57 velocity=0 time=0
note_on channel=0 note=80 velocity=50 time=100
note_on channel=0 note=64 velocity=35 time=0
note_on channel=0 note=81 velocity=0 time=20
note_on channel=0 note=60 velocity=0 time=0
note_on channel=0 note=64 velocity=0 time=100
note_on channel=0 note=81 velocity=50 time=0
note_on channel=0 note=52 velocity=40 time=0
note_on channel=0 note=80 velocity=0 time=20
note_on channel=0 note=84 velocity=52 time=100
note_on channel=0 note=57 velocity=35 time=0
note_on channel=0 note=52 velocity=0 time=20
note_on channel=0 note=81 velocity=0 time=0
note_on channel=0 note=83 velocity=50 time=100
note_on channel=0 note=60 velocity=35 time=0
note_on channel=0 note=84 velocity=0 time=20
note_on channel=0 note=57 velocity=0 time=0
note_on channel=0 note=81 velocity=50 time=100
note_on channel=0 note=64 velocity=35 time=0
note_on channel=0 note=83 velocity=0 time=20
note_on channel=0 note=60 velocity=0 time=0
note_on channel=0 note=64 velocity=0 time=40
note_on channel=0 note=80 velocity=50 time=0
note_on channel=0 note=52 velocity=40 time=0
note_on channel=0 note=81 velocity=0 time=20
note_on channel=0 note=78 velocity=49 time=100
note_on channel=0 note=59 velocity=35 time=0
note_on channel=0 note=52 velocity=0 time=20
note_on channel=0 note=80 velocity=0 time=0
note_on channel=0 note=76 velocity=48 time=100
note_on channel=0 note=62 velocity=35 time=0
note_on channel=0 note=78 velocity=0 time=20
note_on channel=0 note=59 velocity=0 time=0
note_on channel=0 note=75 velocity=47 time=80
note_on channel=0 note=64 velocity=35 time=0
note_on channel=0 note=76 velocity=0 time=20
note_on channel=0 note=62 velocity=0 time=0
note_on channel=0 note=64 velocity=0 time=100
note_on channel=0 note=76 velocity=49 time=0
note_on channel=0 note=52 velocity=40 time=0
note_on channel=0 note=75 velocity=0 time=20
note_on channel=0 note=78 velocity=49 time=0
note_on channel=0 note=59 velocity=35 time=0
note_on channel=0 note=52 velocity=0 time=20
note_on channel=0 note=76 velocity=0 time=0
note_on channel=0 note=79 velocity=49 time=100
note_on channel=0 note=62 velocity=35 time=0
note_on channel=0 note=78 velocity=0 time=20
note_on channel=0 note=59 velocity=0 time=0
note_on channel=0 note=80 velocity=50 time=100
note_on channel=0 note=64 velocity=35 time=0
note_on channel=0 note=79 velocity=0 time=20
note_on channel=0 note=62 velocity=0 time=0
note_on channel=0 note=64 velocity=0 time=40
note_on channel=0 note=81 velocity=50 time=0
note_on channel=0 note=52 velocity=40 time=0
note_on channel=0 note=80 velocity=0 time=20
note_on channel=0 note=80 velocity=50 time=100
note_on channel=0 note=57 velocity=35 time=0
note_on channel=0 note=52 velocity=0 time=20
note_on channel=0 note=81 velocity=0 time=0
note_on channel=0 note=81 velocity=51 time=100
note_on channel=0 note=60 velocity=35 time=0
note_on channel=0 note=80 velocity=0 time=20
note_on channel=0 note=57 velocity=0 time=0
note_on channel=0 note=83 velocity=51 time=80
note_on channel=0 note=64 velocity=35 time=0
note_on channel=0 note=81 velocity=0 time=20
note_on channel=0 note=60 velocity=0 time=0
note_on channel=0 note=64 velocity=0 time=100
note_on channel=0 note=84 velocity=49 time=0
note_on channel=0 note=52 velocity=40 time=0
note_on channel=0 note=83 velocity=0 time=20
note_on channel=0 note=85 velocity=50 time=0
note_on channel=0 note=57 velocity=35 time=0
note_on channel=0 note=52 velocity=0 time=20
note_on channel=0 note=84 velocity=0 time=0
note_on channel=0 note=86 velocity=52 time=0
note_on channel=0 note=60 velocity=35 time=0
note_on channel=0 note=85 velocity=0 time=20
note_on channel=0 note=57 velocity=0 time=0
note_on channel=0 note=87 velocity=53 time=0
note_on channel=0 note=64 velocity=35 time=0
note_on channel=0 note=86 velocity=0 time=20
note_on channel=0 note=60 velocity=0 time=0
note_on channel=0 note=64 velocity=0 time=0
note_on channel=0 note=88 velocity=55 time=0
note_on channel=0 note=52 velocity=40 time=0
note_on channel=0 note=87 velocity=0 time=20
note_on channel=0 note=87 velocity=53 time=100
note_on channel=0 note=56 velocity=35 time=0
note_on channel=0 note=52 velocity=0 time=20
note_on channel=0 note=88 velocity=0 time=0
note_on channel=0 note=88 velocity=53 time=40
note_on channel=0 note=59 velocity=35 time=0
note_on channel=0 note=87 velocity=0 time=20
note_on channel=0 note=56 velocity=0 time=0
note_on channel=0 note=87 velocity=50 time=100
note_on channel=0 note=64 velocity=35 time=0
note_on channel=0 note=88 velocity=0 time=20
note_on channel=0 note=59 velocity=0 time=0
note_on channel=0 note=64 velocity=0 time=80
note_on channel=0 note=88 velocity=52 time=0
note_on channel=0 note=52 velocity=40 time=0
note_on channel=0 note=87 velocity=0 time=20
note_on channel=0 note=86 velocity=52 time=0
note_on channel=0 note=56 velocity=35 time=0
note_on channel=0 note=52 velocity=0 time=20
note_on channel=0 note=88 velocity=0 time=0
note_on channel=0 note=84 velocity=51 time=100
note_on channel=0 note=59 velocity=35 time=0
note_on channel=0 note=86 velocity=0 time=20
note_on channel=0 note=56 velocity=0 time=0
note_on channel=0 note=83 velocity=50 time=40
note_on channel=0 note=64 velocity=35 time=0
note_on channel=0 note=84 velocity=0 time=20
note_on channel=0 note=59 velocity=0 time=0
note_on channel=0 note=64 velocity=0 time=0
note_on channel=0 note=84 velocity=52 time=0
note_on channel=0 note=52 velocity=40 time=0
note_on channel=0 note=83 velocity=0 time=20
note_on channel=0 note=83 velocity=51 time=100
note_on channel=0 note=57 velocity=35 time=0
note_on channel=0 note=52 velocity=0 time=20
note_on channel=0 note=84 velocity=0 time=0
note_on channel=0 note=81 velocity=49 time=100
note_on channel=0 note=60 velocity=35 time=0
note_on channel=0 note=83 velocity=0 time=20
note_on channel=0 note=57 velocity=0 time=0
note_on channel=0 note=80 velocity=50 time=100
note_on channel=0 note=64 velocity=35 time=0
note_on channel=0 note=81 velocity=0 time=20
note_on channel=0 note=60 velocity=0 time=0
note_on channel=0 note=64 velocity=0 time=0
note_on channel=0 note=81 velocity=50 time=0
note_on channel=0 note=52 velocity=41 time=0
note_on channel=0 note=80 velocity=0 time=20
note_on channel=0 note=84 velocity=53 time=100
note_on channel=0 note=57 velocity=35 time=0
note_on channel=0 note=52 velocity=0 time=20
note_on channel=0 note=81 velocity=0 time=0
note_on channel=0 note=83 velocity=50 time=100
note_on channel=0 note=60 velocity=35 time=0
note_on channel=0 note=84 velocity=0 time=20
note_on channel=0 note=57 velocity=0 time=0
note_on channel=0 note=81 velocity=50 time=100
note_on channel=0 note=64 velocity=35 time=0
note_on channel=0 note=83 velocity=0 time=20
note_on channel=0 note=60 velocity=0 time=0
note_on channel=0 note=64 velocity=0 time=40
note_on channel=0 note=80 velocity=50 time=0
note_on channel=0 note=52 velocity=40 time=0
note_on channel=0 note=81 velocity=0 time=20
note_on channel=0 note=78 velocity=49 time=100
note_on channel=0 note=59 velocity=35 time=0
note_on channel=0 note=52 velocity=0 time=20
note_on channel=0 note=80 velocity=0 time=0
note_on channel=0 note=76 velocity=48 time=100
note_on channel=0 note=62 velocity=35 time=0
note_on channel=0 note=78 velocity=0 time=20
note_on channel=0 note=59 velocity=0 time=0
note_on channel=0 note=75 velocity=47 time=100
note_on channel=0 note=64 velocity=35 time=0
note_on channel=0 note=76 velocity=0 time=20
note_on channel=0 note=62 velocity=0 time=0
note_on channel=0 note=64 velocity=0 time=100
note_on channel=0 note=76 velocity=49 time=0
note_on channel=0 note=52 velocity=40 time=0
note_on channel=0 note=75 velocity=0 time=20
note_on channel=0 note=78 velocity=50 time=100
note_on channel=0 note=59 velocity=36 time=0
note_on channel=0 note=52 velocity=0 time=20
note_on channel=0 note=76 velocity=0 time=0
note_on channel=0 note=79 velocity=50 time=100
note_on channel=0 note=62 velocity=36 time=0
note_on channel=0 note=78 velocity=0 time=20
note_on channel=0 note=59 velocity=0 time=0
note_on channel=0 note=80 velocity=52 time=100
note_on channel=0 note=64 velocity=36 time=0
note_on channel=0 note=79 velocity=0 time=20
note_on channel=0 note=62 velocity=0 time=0
note_on channel=0 note=64 velocity=0 time=100
note_on channel=0 note=81 velocity=52 time=0
note_on channel=0 note=52 velocity=42 time=0
note_on channel=0 note=80 velocity=0 time=20
note_on channel=0 note=80 velocity=52 time=100
note_on channel=0 note=57 velocity=36 time=0
note_on channel=0 note=52 velocity=0 time=20
note_on channel=0 note=81 velocity=0 time=0
note_on channel=0 note=81 velocity=54 time=100
note_on channel=0 note=60 velocity=37 time=0
note_on channel=0 note=80 velocity=0 time=20
note_on channel=0 note=57 velocity=0 time=0
note_on channel=0 note=83 velocity=54 time=100
note_on channel=0 note=64 velocity=37 time=0
note_on channel=0 note=81 velocity=0 time=20
note_on channel=0 note=60 velocity=0 time=0
note_on channel=0 note=64 velocity=0 time=100
note_on channel=0 note=84 velocity=56 time=0
note_on channel=0 note=52 velocity=42 time=0
note_on channel=0 note=83 velocity=0 time=20
note_on channel=0 note=85 velocity=58 time=100
note_on channel=0 note=57 velocity=37 time=0
note_on channel=0 note=52 velocity=0 time=20
note_on channel=0 note=84 velocity=0 time=0
note_on channel=0 note=86 velocity=60 time=0
note_on channel=0 note=60 velocity=37 time=0
note_on channel=0 note=85 velocity=0 time=20
note_on channel=0 note=57 velocity=0 time=0
note_on channel=0 note=87 velocity=62 time=100
note_on channel=0 note=64 velocity=38 time=0
note_on channel=0 note=86 velocity=0 time=20
note_on channel=0 note=60 velocity=0 time=0
note_on channel=0 note=64 velocity=0 time=0
note_on channel=0 note=88 velocity=68 time=0
note_on channel=0 note=52 velocity=44 time=0
note_on channel=0 note=87 velocity=0 time=20
note_on channel=0 note=52 velocity=0 time=80
note_on channel=0 note=88 velocity=0 time=0
note_on channel=0 note=83 velocity=60 time=0
note_on channel=0 note=56 velocity=38 time=0
note_on channel=0 note=56 velocity=0 time=120
note_on channel=0 note=83 velocity=0 time=0
note_on channel=0 note=80 velocity=61 time=0
note_on channel=0 note=59 velocity=38 time=0
note_on channel=0 note=59 velocity=0 time=120
note_on channel=0 note=80 velocity=0 time=0
note_on channel=0 note=76 velocity=61 time=0
note_on channel=0 note=64 velocity=38 time=0
note_on channel=0 note=64 velocity=0 time=120
note_on channel=0 note=76 velocity=0 time=0
note_on channel=0 note=75 velocity=75 time=0
note_on channel=0 note=63 velocity=50 time=0
note_on channel=0 note=63 velocity=0 time=40
note_on channel=0 note=75 velocity=0 time=0
note_on channel=0 note=76 velocity=63 time=0
note_on channel=0 note=64 velocity=41 time=0
note_on channel=0 note=64 velocity=0 time=120
note_on channel=0 note=76 velocity=0 time=0
note_on channel=0 note=81 velocity=63 time=0
note_on channel=0 note=60 velocity=40 time=0
note_on channel=0 note=60 velocity=0 time=120
note_on channel=0 note=81 velocity=0 time=0
note_on channel=0 note=84 velocity=63 time=0
note_on channel=0 note=57 velocity=41 time=0
note_on channel=0 note=57 velocity=0 time=120
note_on channel=0 note=84 velocity=0 time=0
note_on channel=0 note=88 velocity=74 time=0
note_on channel=0 note=52 velocity=52 time=0
note_on channel=0 note=52 velocity=0 time=45
note_on channel=0 note=88 velocity=0 time=0
note_on channel=0 note=83 velocity=65 time=0
note_on channel=0 note=56 velocity=44 time=0
note_on channel=0 note=56 velocity=0 time=120
note_on channel=0 note=83 velocity=0 time=0
note_on channel=0 note=80 velocity=68 time=0
note_on channel=0 note=59 velocity=45 time=0
note_on channel=0 note=59 velocity=0 time=120
note_on channel=0 note=80 velocity=0 time=0
note_on channel=0 note=76 velocity=68 time=0
note_on channel=0 note=64 velocity=45 time=0
note_on channel=0 note=64 velocity=0 time=120
note_on channel=0 note=76 velocity=0 time=0
note_on channel=0 note=75 velocity=80 time=0
note_on channel=0 note=63 velocity=60 time=0
note_on channel=0 note=63 velocity=0 time=34
note_on channel=0 note=75 velocity=0 time=0
note_on channel=0 note=76 velocity=71 time=0
note_on channel=0 note=64 velocity=51 time=0
note_on channel=0 note=64 velocity=0 time=120
note_on channel=0 note=76 velocity=0 time=0
note_on channel=0 note=81 velocity=71 time=0
note_on channel=0 note=60 velocity=51 time=0
note_on channel=0 note=60 velocity=0 time=120
note_on channel=0 note=81 velocity=0 time=0
note_on channel=0 note=84 velocity=72 time=0
note_on channel=0 note=57 velocity=52 time=0
note_on channel=0 note=57 velocity=0 time=120
note_on channel=0 note=84 velocity=0 time=0
note_on channel=0 note=88 velocity=91 time=0
note_on channel=0 note=52 velocity=63 time=0
note_on channel=0 note=52 velocity=0 time=63
note_on channel=0 note=88 velocity=0 time=0
note_on channel=0 note=83 velocity=82 time=0
note_on channel=0 note=56 velocity=52 time=0
note_on channel=0 note=56 velocity=0 time=120
note_on channel=0 note=83 velocity=0 time=0
note_on channel=0 note=80 velocity=82 time=0
note_on channel=0 note=59 velocity=52 time=0
note_on channel=0 note=59 velocity=0 time=120
note_on channel=0 note=80 velocity=0 time=0
note_on channel=0 note=76 velocity=82 time=0
note_on channel=0 note=64 velocity=52 time=0
note_on channel=0 note=64 velocity=0 time=120
note_on channel=0 note=76 velocity=0 time=0
note_on channel=0 note=88 velocity=91 time=0
note_on channel=0 note=52 velocity=63 time=0
note_on channel=0 note=52 velocity=0 time=40
note_on channel=0 note=88 velocity=0 time=0
note_on channel=0 note=84 velocity=82 time=0
note_on channel=0 note=57 velocity=52 time=0
note_on channel=0 note=57 velocity=0 time=120
note_on channel=0 note=84 velocity=0 time=0
note_on channel=0 note=81 velocity=82 time=0
note_on channel=0 note=60 velocity=52 time=0
note_on channel=0 note=60 velocity=0 time=120
note_on channel=0 note=81 velocity=0 time=0
note_on channel=0 note=76 velocity=82 time=0
note_on channel=0 note=64 velocity=52 time=0
note_on channel=0 note=64 velocity=0 time=0
note_on channel=0 note=76 velocity=0 time=0
note_on channel=0 note=88 velocity=91 time=0
note_on channel=0 note=52 velocity=63 time=0
note_on channel=0 note=52 velocity=0 time=40
note_on channel=0 note=88 velocity=0 time=0
note_on channel=0 note=83 velocity=82 time=0
note_on channel=0 note=56 velocity=52 time=0
note_on channel=0 note=56 velocity=0 time=120
note_on channel=0 note=83 velocity=0 time=0
note_on channel=0 note=80 velocity=81 time=0
note_on channel=0 note=59 velocity=52 time=0
note_on channel=0 note=59 velocity=0 time=120
note_on channel=0 note=80 velocity=0 time=0
note_on channel=0 note=76 velocity=81 time=0
note_on channel=0 note=64 velocity=52 time=0
note_on channel=0 note=64 velocity=0 time=120
note_on channel=0 note=76 velocity=0 time=0
note_on channel=0 note=88 velocity=91 time=0
note_on channel=0 note=52 velocity=63 time=0
note_on channel=0 note=52 velocity=0 time=34
note_on channel=0 note=88 velocity=0 time=0
note_on channel=0 note=84 velocity=81 time=0
note_on channel=0 note=57 velocity=52 time=0
note_on channel=0 note=57 velocity=0 time=120
note_on channel=0 note=84 velocity=0 time=0
note_on channel=0 note=81 velocity=81 time=0
note_on channel=0 note=60 velocity=52 time=0
note_on channel=0 note=60 velocity=0 time=120
note_on channel=0 note=81 velocity=0 time=0
note_on channel=0 note=76 velocity=82 time=0
note_on channel=0 note=64 velocity=52 time=0
note_on channel=0 note=64 velocity=0 time=0
note_on channel=0 note=76 velocity=0 time=0
note_on channel=0 note=88 velocity=91 time=0
note_on channel=0 note=52 velocity=54 time=0
note_on channel=0 note=56 velocity=54 time=0
note_on channel=0 note=59 velocity=54 time=0
note_on channel=0 note=64 velocity=63 time=0
note_on channel=0 note=88 velocity=0 time=34
note_on channel=0 note=83 velocity=82 time=0
note_on channel=0 note=83 velocity=0 time=120
note_on channel=0 note=80 velocity=82 time=0
note_on channel=0 note=80 velocity=0 time=120
note_on channel=0 note=76 velocity=82 time=0
note_on channel=0 note=76 velocity=0 time=120
note_on channel=0 note=64 velocity=0 time=0
note_on channel=0 note=52 velocity=0 time=0
note_on channel=0 note=56 velocity=0 time=0
note_on channel=0 note=59 velocity=0 time=0
note_on channel=0 note=83 velocity=91 time=0
note_on channel=0 note=83 velocity=0 time=120
note_on channel=0 note=80 velocity=82 time=0
note_on channel=0 note=80 velocity=0 time=80
note_on channel=0 note=76 velocity=82 time=0
note_on channel=0 note=76 velocity=0 time=120
note_on channel=0 note=71 velocity=82 time=0
note_on channel=0 note=71 velocity=0 time=120
note_on channel=0 note=80 velocity=91 time=0
note_on channel=0 note=80 velocity=0 time=120
note_on channel=0 note=76 velocity=82 time=0
note_on channel=0 note=76 velocity=0 time=120
note_on channel=0 note=71 velocity=81 time=0
note_on channel=0 note=71 velocity=0 time=40
note_on channel=0 note=68 velocity=81 time=0
note_on channel=0 note=68 velocity=0 time=120
note_on channel=0 note=76 velocity=91 time=0
note_on channel=0 note=76 velocity=0 time=120
note_on channel=0 note=71 velocity=81 time=0
note_on channel=0 note=71 velocity=0 time=120
note_on channel=0 note=68 velocity=81 time=0
note_on channel=0 note=68 velocity=0 time=120
note_on channel=0 note=64 velocity=82 time=0
note_on channel=0 note=64 velocity=0 time=0
note_on channel=0 note=71 velocity=91 time=0
note_on channel=0 note=71 velocity=0 time=120
note_on channel=0 note=68 velocity=81 time=0
note_on channel=0 note=68 velocity=0 time=120
note_on channel=0 note=64 velocity=80 time=0
note_on channel=0 note=64 velocity=0 time=80
note_on channel=0 note=59 velocity=80 time=0
note_on channel=0 note=59 velocity=0 time=120
note_on channel=0 note=68 velocity=89 time=0
note_on channel=0 note=68 velocity=0 time=40
note_on channel=0 note=64 velocity=79 time=0
note_on channel=0 note=64 velocity=0 time=120
note_on channel=0 note=59 velocity=79 time=0
note_on channel=0 note=59 velocity=0 time=0
note_on channel=0 note=56 velocity=78 time=0
note_on channel=0 note=56 velocity=0 time=120
note_on channel=0 note=64 velocity=87 time=0
note_on channel=0 note=64 velocity=0 time=120
note_on channel=0 note=59 velocity=78 time=0
note_on channel=0 note=59 velocity=0 time=80
note_on channel=0 note=56 velocity=77 time=0
note_on channel=0 note=56 velocity=0 time=120
note_on channel=0 note=52 velocity=77 time=0
note_on channel=0 note=52 velocity=0 time=40
note_on channel=0 note=40 velocity=85 time=0
note_on channel=0 note=40 velocity=0 time=120
note_on channel=0 note=44 velocity=76 time=0
note_on channel=0 note=44 velocity=0 time=0
note_on channel=0 note=47 velocity=76 time=0
note_on channel=0 note=47 velocity=0 time=120
note_on channel=0 note=52 velocity=75 time=0
note_on channel=0 note=52 velocity=0 time=0
note_on channel=0 note=40 velocity=77 time=0
note_on channel=0 note=40 velocity=0 time=107
note_on channel=0 note=52 velocity=68 time=0
note_on channel=0 note=52 velocity=0 time=120
note_on channel=0 note=42 velocity=73 time=0
note_on channel=0 note=42 velocity=0 time=120
note_on channel=0 note=54 velocity=66 time=0
note_on channel=0 note=54 velocity=0 time=120
note_on channel=0 note=76 velocity=75 time=0
note_on channel=0 note=44 velocity=71 time=0
note_on channel=0 note=44 velocity=0 time=120
note_on channel=0 note=76 velocity=0 time=0
note_on channel=0 note=64 velocity=69 time=0
note_on channel=0 note=56 velocity=65 time=0
note_on channel=0 note=56 velocity=0 time=120
note_on channel=0 note=64 velocity=0 time=0
note_on channel=0 note=78 velocity=74 time=0
note_on channel=0 note=78 velocity=0 time=120
note_on channel=0 note=66 velocity=65 time=0
note_on channel=0 note=66 velocity=0 time=120
note_on channel=0 note=80 velocity=71 time=0
note_on channel=0 note=44 velocity=69 time=0
note_on channel=0 note=44 velocity=0 time=120
note_on channel=0 note=80 velocity=0 time=0
note_on channel=0 note=68 velocity=64 time=0
note_on channel=0 note=56 velocity=61 time=0
note_on channel=0 note=56 velocity=0 time=0
note_on channel=0 note=68 velocity=0 time=0
note_on channel=0 note=45 velocity=65 time=0
note_on channel=0 note=45 velocity=0 time=120
note_on channel=0 note=57 velocity=59 time=40
note_on channel=0 note=57 velocity=0 time=120
note_on channel=0 note=80 velocity=67 time=0
note_on channel=0 note=47 velocity=65 time=0
note_on channel=0 note=47 velocity=0 time=120
note_on channel=0 note=80 velocity=0 time=0
note_on channel=0 note=68 velocity=53 time=40
note_on channel=0 note=59 velocity=54 time=0
note_on channel=0 note=59 velocity=0 time=0
note_on channel=0 note=68 velocity=0 time=0
note_on channel=0 note=81 velocity=59 time=120
note_on channel=0 note=81 velocity=0 time=120
note_on channel=0 note=69 velocity=50 time=80
note_on channel=0 note=69 velocity=0 time=120
note_on channel=0 note=83 velocity=52 time=0
note_on channel=0 note=83 velocity=0 time=120
note_on channel=0 note=71 velocity=49 time=0
note_on channel=0 note=71 velocity=0 time=40
note_on channel=0 note=85 velocity=52 time=120
note_on channel=0 note=85 velocity=0 time=120
note_on channel=0 note=73 velocity=49 time=80
note_on channel=0 note=73 velocity=0 time=120
note_on channel=0 note=86 velocity=52 time=40
note_on channel=0 note=47 velocity=41 time=0
note_on channel=0 note=47 velocity=0 time=120
note_on channel=0 note=86 velocity=0 time=0
note_on channel=0 note=74 velocity=48 time=120
note_on channel=0 note=59 velocity=36 time=0
note_on channel=0 note=59 velocity=0 time=120
note_on channel=0 note=74 velocity=0 time=0
note_on channel=0 note=86 velocity=52 time=0
note_on channel=0 note=49 velocity=41 time=0
note_on channel=0 note=49 velocity=0 time=120
note_on channel=0 note=86 velocity=0 time=0
note_on channel=0 note=76 velocity=46 time=40
note_on channel=0 note=61 velocity=36 time=0
note_on channel=0 note=61 velocity=0 time=0
note_on channel=0 note=76 velocity=0 time=0
note_on channel=0 note=86 velocity=51 time=120
note_on channel=0 note=50 velocity=40 time=0
note_on channel=0 note=50 velocity=0 time=40
note_on channel=0 note=86 velocity=0 time=0
note_on channel=0 note=78 velocity=46 time=0
note_on channel=0 note=62 velocity=37 time=0
note_on channel=0 note=62 velocity=0 time=120
note_on channel=0 note=78 velocity=0 time=0
note_on channel=0 note=86 velocity=51 time=40
note_on channel=0 note=52 velocity=39 time=0
note_on channel=0 note=52 velocity=0 time=0
note_on channel=0 note=86 velocity=0 time=0
note_on channel=0 note=80 velocity=46 time=120
note_on channel=0 note=64 velocity=36 time=0
note_on channel=0 note=64 velocity=0 time=40
note_on channel=0 note=80 velocity=0 time=0
note_on channel=0 note=86 velocity=51 time=0
note_on channel=0 note=54 velocity=38 time=0
note_on channel=0 note=54 velocity=0 time=20
note_on channel=0 note=86 velocity=0 time=0
note_on channel=0 note=81 velocity=47 time=0
note_on channel=0 note=66 velocity=37 time=0
note_on channel=0 note=66 velocity=0 time=0
note_on channel=0 note=81 velocity=0 time=0
note_on channel=0 note=86 velocity=50 time=0
note_on channel=0 note=56 velocity=40 time=0
note_on channel=0 note=56 velocity=0 time=0
note_on channel=0 note=86 velocity=0 time=0
note_on channel=0 note=83 velocity=46 time=0
note_on channel=0 note=68 velocity=37 time=0
note_on channel=0 note=68 velocity=0 time=0
note_on channel=0 note=83 velocity=0 time=0
note_on channel=0 note=73 velocity=42 time=0
note_on channel=0 note=76 velocity=42 time=0
note_on channel=0 note=81 velocity=42 time=0
note_on channel=0 note=85 velocity=55 time=0
note_on channel=0 note=64 velocity=33 time=0
note_on channel=0 note=61 velocity=33 time=0
note_on channel=0 note=69 velocity=39 time=0
note_on channel=0 note=57 velocity=33 time=0
note_on channel=0 note=57 velocity=0 time=0
note_on channel=0 note=73 velocity=0 time=0
note_on channel=0 note=64 velocity=0 time=0
note_on channel=0 note=76 velocity=0 time=0
note_on channel=0 note=81 velocity=0 time=0
note_on channel=0 note=85 velocity=0 time=0
note_on channel=0 note=61 velocity=0 time=0
note_on channel=0 note=69 velocity=0 time=0
note_on channel=0 note=71 velocity=40 time=0
note_on channel=0 note=76 velocity=40 time=0
note_on channel=0 note=80 velocity=40 time=0
note_on channel=0 note=83 velocity=52 time=0
note_on channel=0 note=59 velocity=29 time=0
note_on channel=0 note=64 velocity=35 time=0
note_on channel=0 note=56 velocity=29 time=0
note_on channel=0 note=52 velocity=29 time=0
note_on channel=0 note=52 velocity=0 time=0
note_on channel=0 note=71 velocity=0 time=0
note_on channel=0 note=59 velocity=0 time=0
note_on channel=0 note=76 velocity=0 time=0
note_on channel=0 note=80 velocity=0 time=0
note_on channel=0 note=83 velocity=0 time=0
note_on channel=0 note=64 velocity=0 time=0
note_on channel=0 note=56 velocity=0 time=0
note_on channel=0 note=69 velocity=40 time=0
note_on channel=0 note=73 velocity=40 time=0
note_on channel=0 note=78 velocity=40 time=0
note_on channel=0 note=81 velocity=52 time=0
note_on channel=0 note=57 velocity=29 time=0
note_on channel=0 note=61 velocity=29 time=0
note_on channel=0 note=66 velocity=35 time=0
note_on channel=0 note=54 velocity=29 time=0
note_on channel=0 note=54 velocity=0 time=0
note_on channel=0 note=69 velocity=0 time=0
note_on channel=0 note=57 velocity=0 time=0
note_on channel=0 note=73 velocity=0 time=0
note_on channel=0 note=78 velocity=0 time=0
note_on channel=0 note=81 velocity=0 time=0
note_on channel=0 note=61 velocity=0 time=0
note_on channel=0 note=66 velocity=0 time=0
note_on channel=0 note=68 velocity=42 time=0
note_on channel=0 note=71 velocity=42 time=0
note_on channel=0 note=77 velocity=42 time=0
note_on channel=0 note=80 velocity=55 time=0
note_on channel=0 note=49 velocity=33 time=0
note_on channel=0 note=61 velocity=39 time=0
note_on channel=0 note=56 velocity=33 time=0
note_on channel=0 note=53 velocity=33 time=0
note_on channel=0 note=53 velocity=0 time=960
note_on channel=0 note=68 velocity=0 time=0
note_on channel=0 note=49 velocity=0 time=0
note_on channel=0 note=71 velocity=0 time=0
note_on channel=0 note=77 velocity=0 time=0
note_on channel=0 note=80 velocity=0 time=0
note_on channel=0 note=61 velocity=0 time=0
note_on channel=0 note=56 velocity=0 time=0
note_on channel=0 note=74 velocity=40 time=0
note_on channel=0 note=66 velocity=40 time=0
note_on channel=0 note=69 velocity=40 time=0
note_on channel=0 note=78 velocity=52 time=0
note_on channel=0 note=54 velocity=28 time=0
note_on channel=0 note=50 velocity=28 time=0
note_on channel=0 note=62 velocity=34 time=0
note_on channel=0 note=57 velocity=28 time=0
note_on channel=0 note=57 velocity=0 time=0
note_on channel=0 note=74 velocity=0 time=0
note_on channel=0 note=54 velocity=0 time=0
note_on channel=0 note=66 velocity=0 time=0
note_on channel=0 note=69 velocity=0 time=0
note_on channel=0 note=78 velocity=0 time=0
note_on channel=0 note=50 velocity=0 time=0
note_on channel=0 note=62 velocity=0 time=0
note_on channel=0 note=68 velocity=49 time=0
note_on channel=0 note=74 velocity=49 time=0
note_on channel=0 note=76 velocity=49 time=0
note_on channel=0 note=80 velocity=63 time=0
note_on channel=0 note=47 velocity=37 time=0
note_on channel=0 note=52 velocity=45 time=0
note_on channel=0 note=56 velocity=37 time=0
note_on channel=0 note=59 velocity=45 time=0
note_on channel=0 note=59 velocity=0 time=0
note_on channel=0 note=68 velocity=0 time=0
note_on channel=0 note=47 velocity=0 time=0
note_on channel=0 note=74 velocity=0 time=0
note_on channel=0 note=76 velocity=0 time=0
note_on channel=0 note=80 velocity=0 time=0
note_on channel=0 note=52 velocity=0 time=0
note_on channel=0 note=56 velocity=0 time=0
note_on channel=0 note=69 velocity=50 time=0
note_on channel=0 note=76 velocity=50 time=0
note_on channel=0 note=81 velocity=66 time=0
note_on channel=0 note=57 velocity=40 time=0
note_on channel=0 note=49 velocity=40 time=0
note_on channel=0 note=52 velocity=40 time=0
note_on channel=0 note=61 velocity=49 time=0
note_on channel=0 note=61 velocity=0 time=0
note_on channel=0 note=49 velocity=0 time=0
note_on channel=0 note=76 velocity=0 time=0
note_on channel=0 note=81 velocity=0 time=0
note_on channel=0 note=69 velocity=0 time=0
note_on channel=0 note=52 velocity=0 time=0
note_on channel=0 note=57 velocity=0 time=0
note_on channel=0 note=71 velocity=55 time=0
note_on channel=0 note=78 velocity=55 time=0
note_on channel=0 note=81 velocity=55 time=0
note_on channel=0 note=83 velocity=72 time=0
note_on channel=0 note=59 velocity=46 time=0
note_on channel=0 note=62 velocity=55 time=0
note_on channel=0 note=50 velocity=36 time=0
note_on channel=0 note=54 velocity=41 time=0
note_on channel=0 note=54 velocity=0 time=0
note_on channel=0 note=71 velocity=0 time=0
note_on channel=0 note=59 velocity=0 time=0
note_on channel=0 note=78 velocity=0 time=0
note_on channel=0 note=81 velocity=0 time=0
note_on channel=0 note=83 velocity=0 time=0
note_on channel=0 note=62 velocity=0 time=0
note_on channel=0 note=50 velocity=0 time=0
note_on channel=0 note=73 velocity=59 time=0
note_on channel=0 note=76 velocity=59 time=0
note_on channel=0 note=81 velocity=59 time=0
note_on channel=0 note=85 velocity=77 time=0
note_on channel=0 note=61 velocity=49 time=0
note_on channel=0 note=52 velocity=49 time=0
note_on channel=0 note=57 velocity=49 time=0
note_on channel=0 note=64 velocity=59 time=0
note_on channel=0 note=64 velocity=0 time=0
note_on channel=0 note=57 velocity=0 time=0
note_on channel=0 note=73 velocity=0 time=0
note_on channel=0 note=85 velocity=0 time=0
note_on channel=0 note=81 velocity=0 time=0
note_on channel=0 note=61 velocity=0 time=0
note_on channel=0 note=71 velocity=33 time=0
note_on channel=0 note=80 velocity=32 time=0
note_on channel=0 note=83 velocity=49 time=0
note_on channel=0 note=59 velocity=27 time=0
note_on channel=0 note=56 velocity=27 time=0
note_on channel=0 note=64 velocity=32 time=0
note_on channel=0 note=76 velocity=0 time=0
note_on channel=0 note=74 velocity=55 time=0
note_on channel=0 note=64 velocity=0 time=478
note_on channel=0 note=83 velocity=0 time=0
note_on channel=0 note=59 velocity=0 time=0
note_on channel=0 note=71 velocity=0 time=0
note_on channel=0 note=80 velocity=0 time=0
note_on channel=0 note=52 velocity=0 time=0
note_on channel=0 note=56 velocity=0 time=0
note_on channel=0 note=74 velocity=0 time=0
note_on channel=0 note=64 velocity=37 time=0
note_on channel=0 note=69 velocity=37 time=0
note_on channel=0 note=72 velocity=45 time=0
note_on channel=0 note=60 velocity=35 time=0
note_on channel=0 note=57 velocity=29 time=0
note_on channel=0 note=57 velocity=0 time=0
note_on channel=0 note=72 velocity=0 time=0
note_on channel=0 note=64 velocity=0 time=0
note_on channel=0 note=69 velocity=0 time=0
note_on channel=0 note=60 velocity=0 time=0
note_on channel=0 note=64 velocity=36 time=0
note_on channel=0 note=67 velocity=36 time=0
note_on channel=0 note=71 velocity=43 time=0
note_on channel=0 note=59 velocity=31 time=0
note_on channel=0 note=55 velocity=26 time=0
note_on channel=0 note=52 velocity=26 time=0
note_on channel=0 note=52 velocity=0 time=0
note_on channel=0 note=67 velocity=0 time=0
note_on channel=0 note=71 velocity=0 time=0
note_on channel=0 note=64 velocity=0 time=0
note_on channel=0 note=55 velocity=0 time=0
note_on channel=0 note=59 velocity=0 time=0
note_on channel=0 note=60 velocity=36 time=0
note_on channel=0 note=65 velocity=36 time=0
note_on channel=0 note=69 velocity=43 time=0
note_on channel=0 note=57 velocity=31 time=0
note_on channel=0 note=53 velocity=26 time=0
note_on channel=0 note=53 velocity=0 time=0
note_on channel=0 note=69 velocity=0 time=0
note_on channel=0 note=60 velocity=0 time=0
note_on channel=0 note=65 velocity=0 time=0
note_on channel=0 note=57 velocity=0 time=0
note_on channel=0 note=60 velocity=37 time=0
note_on channel=0 note=64 velocity=37 time=0
note_on channel=0 note=67 velocity=45 time=0
note_on channel=0 note=55 velocity=35 time=0
note_on channel=0 note=52 velocity=29 time=0
note_on channel=0 note=48 velocity=29 time=0
note_on channel=0 note=48 velocity=0 time=960
note_on channel=0 note=64 velocity=0 time=0
note_on channel=0 note=67 velocity=0 time=0
note_on channel=0 note=60 velocity=0 time=0
note_on channel=0 note=52 velocity=0 time=0
note_on channel=0 note=55 velocity=0 time=0
note_on channel=0 note=62 velocity=36 time=0
note_on channel=0 note=57 velocity=36 time=0
note_on channel=0 note=65 velocity=43 time=0
note_on channel=0 note=53 velocity=30 time=0
note_on channel=0 note=50 velocity=25 time=0
note_on channel=0 note=50 velocity=0 time=0
note_on channel=0 note=65 velocity=0 time=0
note_on channel=0 note=62 velocity=0 time=0
note_on channel=0 note=57 velocity=0 time=0
note_on channel=0 note=53 velocity=0 time=0
note_on channel=0 note=60 velocity=44 time=0
note_on channel=0 note=64 velocity=44 time=0
note_on channel=0 note=67 velocity=52 time=0
note_on channel=0 note=48 velocity=35 time=0
note_on channel=0 note=52 velocity=35 time=0
note_on channel=0 note=43 velocity=26 time=0
note_on channel=0 note=52 velocity=0 time=480
note_on channel=0 note=48 velocity=0 time=0
note_on channel=0 note=64 velocity=0 time=0
note_on channel=0 note=60 velocity=0 time=0
note_on channel=0 note=62 velocity=45 time=0
note_on channel=0 note=65 velocity=45 time=0
note_on channel=0 note=50 velocity=35 time=0
note_on channel=0 note=53 velocity=35 time=0
note_on channel=0 note=67 velocity=0 time=0
note_on channel=0 note=69 velocity=61 time=0
note_on channel=0 note=69 velocity=0 time=0
note_on channel=0 note=71 velocity=69 time=0
note_on channel=0 note=71 velocity=0 time=0
note_on channel=0 note=62 velocity=0 time=0
note_on channel=0 note=65 velocity=0 time=0
note_on channel=0 note=43 velocity=0 time=0
note_on channel=0 note=53 velocity=0 time=0
note_on channel=0 note=50 velocity=0 time=0
note_on channel=0 note=60 velocity=41 time=0
note_on channel=0 note=64 velocity=41 time=0
note_on channel=0 note=72 velocity=51 time=0
note_on channel=0 note=48 velocity=37 time=0
note_on channel=0 note=52 velocity=40 time=0
note_on channel=0 note=72 velocity=0 time=80
note_on channel=0 note=60 velocity=0 time=40
note_on channel=0 note=64 velocity=0 time=0
note_on channel=0 note=74 velocity=48 time=0
note_on channel=0 note=74 velocity=0 time=40
note_on channel=0 note=76 velocity=49 time=40
note_on channel=0 note=76 velocity=0 time=40
note_on channel=0 note=48 velocity=0 time=40
note_on channel=0 note=52 velocity=0 time=0
note_on channel=0 note=77 velocity=50 time=0
note_on channel=0 note=77 velocity=0 time=40
note_on channel=0 note=79 velocity=50 time=40
note_on channel=0 note=79 velocity=0 time=40
note_on channel=0 note=81 velocity=51 time=40
note_on channel=0 note=81 velocity=0 time=0
note_on channel=0 note=82 velocity=52 time=40
note_on channel=0 note=82 velocity=0 time=0
note_on channel=0 note=83 velocity=48 time=40
note_on channel=0 note=83 velocity=0 time=0
note_on channel=0 note=84 velocity=49 time=40
note_on channel=0 note=84 velocity=0 time=0
note_on channel=0 note=85 velocity=51 time=40
note_on channel=0 note=85 velocity=0 time=40
note_on channel=0 note=86 velocity=53 time=40
note_on channel=0 note=86 velocity=0 time=120
note_on channel=0 note=87 velocity=54 time=40
note_on channel=0 note=87 velocity=0 time=0
note_on channel=0 note=84 velocity=48 time=0
note_on channel=0 note=88 velocity=58 time=0
note_on channel=0 note=76 velocity=44 time=0
note_on channel=0 note=72 velocity=37 time=0
note_on channel=0 note=88 velocity=0 time=160
note_on channel=0 note=87 velocity=53 time=0
note_on channel=0 note=87 velocity=0 time=160
note_on channel=0 note=88 velocity=53 time=0
note_on channel=0 note=88 velocity=0 time=160
note_on channel=0 note=89 velocity=53 time=0
note_on channel=0 note=89 velocity=0 time=160
note_on channel=0 note=87 velocity=53 time=0
note_on channel=0 note=87 velocity=0 time=160
note_on channel=0 note=88 velocity=53 time=0
note_on channel=0 note=88 velocity=0 time=0
note_on channel=0 note=72 velocity=0 time=0
note_on channel=0 note=76 velocity=0 time=0
note_on channel=0 note=84 velocity=0 time=0
note_on channel=0 note=83 velocity=60 time=0
note_on channel=0 note=77 velocity=40 time=0
note_on channel=0 note=74 velocity=40 time=0
note_on channel=0 note=71 velocity=33 time=0
note_on channel=0 note=68 velocity=33 time=0
note_on channel=0 note=88 velocity=54 time=160
note_on channel=0 note=88 velocity=0 time=160
note_on channel=0 note=86 velocity=54 time=0
note_on channel=0 note=86 velocity=0 time=0
note_on channel=0 note=68 velocity=0 time=0
note_on channel=0 note=74 velocity=0 time=0
note_on channel=0 note=83 velocity=0 time=0
note_on channel=0 note=77 velocity=0 time=0
note_on channel=0 note=71 velocity=0 time=0
note_on channel=0 note=76 velocity=60 time=0
note_on channel=0 note=76 velocity=40 time=0
note_on channel=0 note=72 velocity=40 time=0
note_on channel=0 note=69 velocity=33 time=0
note_on channel=0 note=86 velocity=53 time=160
note_on channel=0 note=86 velocity=0 time=160
note_on channel=0 note=84 velocity=53 time=0
note_on channel=0 note=84 velocity=0 time=0
note_on channel=0 note=69 velocity=0 time=0
note_on channel=0 note=76 velocity=0 time=0
note_on channel=0 note=76 velocity=0 time=0
note_on channel=0 note=72 velocity=0 time=0
note_on channel=0 note=80 velocity=60 time=0
note_on channel=0 note=74 velocity=44 time=0
note_on channel=0 note=71 velocity=44 time=0
note_on channel=0 note=68 velocity=37 time=0
note_on channel=0 note=64 velocity=37 time=0
note_on channel=0 note=82 velocity=54 time=160
note_on channel=0 note=82 velocity=0 time=160
note_on channel=0 note=83 velocity=54 time=0
note_on channel=0 note=83 velocity=0 time=160
note_on channel=0 note=84 velocity=54 time=0
note_on channel=0 note=84 velocity=0 time=160
note_on channel=0 note=82 velocity=54 time=0
note_on channel=0 note=82 velocity=0 time=160
note_on channel=0 note=83 velocity=54 time=0
note_on channel=0 note=83 velocity=0 time=160
note_on channel=0 note=74 velocity=0 time=0
note_on channel=0 note=71 velocity=0 time=0
note_on channel=0 note=80 velocity=0 time=0
note_on channel=0 note=64 velocity=0 time=0
note_on channel=0 note=68 velocity=0 time=0
note_on channel=0 note=77 velocity=60 time=0
note_on channel=0 note=72 velocity=39 time=0
note_on channel=0 note=69 velocity=39 time=0
note_on channel=0 note=65 velocity=32 time=0
note_on channel=0 note=80 velocity=54 time=160
note_on channel=0 note=80 velocity=0 time=160
note_on channel=0 note=81 velocity=54 time=0
note_on channel=0 note=81 velocity=0 time=0
note_on channel=0 note=83 velocity=54 time=0
note_on channel=0 note=83 velocity=0 time=160
note_on channel=0 note=80 velocity=54 time=0
note_on channel=0 note=80 velocity=0 time=160
note_on channel=0 note=81 velocity=54 time=0
note_on channel=0 note=81 velocity=0 time=0
note_on channel=0 note=69 velocity=0 time=0
note_on channel=0 note=77 velocity=0 time=0
note_on channel=0 note=72 velocity=0 time=0
note_on channel=0 note=65 velocity=0 time=0
note_on channel=0 note=77 velocity=62 time=0
note_on channel=0 note=62 velocity=39 time=0
note_on channel=0 note=65 velocity=47 time=0
note_on channel=0 note=67 velocity=39 time=0
note_on channel=0 note=71 velocity=47 time=0
note_on channel=0 note=82 velocity=62 time=160
note_on channel=0 note=82 velocity=0 time=160
note_on channel=0 note=83 velocity=57 time=0
note_on channel=0 note=83 velocity=0 time=160
note_on channel=0 note=84 velocity=57 time=0
note_on channel=0 note=84 velocity=0 time=160
note_on channel=0 note=82 velocity=59 time=0
note_on channel=0 note=82 velocity=0 time=160
note_on channel=0 note=83 velocity=59 time=0
note_on channel=0 note=83 velocity=0 time=0
note_on channel=0 note=62 velocity=0 time=0
note_on channel=0 note=65 velocity=0 time=0
note_on channel=0 note=77 velocity=0 time=0
note_on channel=0 note=71 velocity=0 time=0
note_on channel=0 note=67 velocity=0 time=0
note_on channel=0 note=79 velocity=71 time=0
note_on channel=0 note=64 velocity=45 time=0
note_on channel=0 note=67 velocity=45 time=0
note_on channel=0 note=72 velocity=53 time=0
note_on channel=0 note=86 velocity=63 time=160
note_on channel=0 note=86 velocity=0 time=160
note_on channel=0 note=84 velocity=64 time=0
note_on channel=0 note=84 velocity=0 time=0
note_on channel=0 note=72 velocity=0 time=0
note_on channel=0 note=79 velocity=0 time=0
note_on channel=0 note=64 velocity=0 time=0
note_on channel=0 note=67 velocity=0 time=0
note_on channel=0 note=81 velocity=74 time=0
note_on channel=0 note=72 velocity=56 time=0
note_on channel=0 note=74 velocity=57 time=0
note_on channel=0 note=65 velocity=45 time=0
note_on channel=0 note=69 velocity=48 time=0
note_on channel=0 note=88 velocity=65 time=160
note_on channel=0 note=88 velocity=0 time=160
note_on channel=0 note=86 velocity=65 time=0
note_on channel=0 note=86 velocity=0 time=0
note_on channel=0 note=69 velocity=0 time=0
note_on channel=0 note=74 velocity=0 time=0
note_on channel=0 note=81 velocity=0 time=0
note_on channel=0 note=72 velocity=0 time=0
note_on channel=0 note=65 velocity=0 time=0
note_on channel=0 note=88 velocity=79 time=0
note_on channel=0 note=84 velocity=79 time=0
note_on channel=0 note=67 velocity=53 time=0
note_on channel=0 note=72 velocity=53 time=0
note_on channel=0 note=76 velocity=65 time=0
note_on channel=0 note=88 velocity=0 time=160
note_on channel=0 note=87 velocity=72 time=0
note_on channel=0 note=87 velocity=0 time=160
note_on channel=0 note=88 velocity=72 time=0
note_on channel=0 note=88 velocity=0 time=160
note_on channel=0 note=91 velocity=68 time=0
note_on channel=0 note=91 velocity=0 time=160
note_on channel=0 note=89 velocity=72 time=0
note_on channel=0 note=89 velocity=0 time=160
note_on channel=0 note=88 velocity=69 time=0
note_on channel=0 note=88 velocity=0 time=0
note_on channel=0 note=76 velocity=0 time=0
note_on channel=0 note=84 velocity=0 time=0
note_on channel=0 note=72 velocity=0 time=0
note_on channel=0 note=83 velocity=67 time=0
note_on channel=0 note=86 velocity=67 time=0
note_on channel=0 note=71 velocity=45 time=0
note_on channel=0 note=74 velocity=53 time=0
note_on channel=0 note=86 velocity=0 time=160
note_on channel=0 note=83 velocity=0 time=0
note_on channel=0 note=81 velocity=64 time=0
note_on channel=0 note=84 velocity=64 time=0
note_on channel=0 note=84 velocity=0 time=160
note_on channel=0 note=81 velocity=0 time=0
note_on channel=0 note=83 velocity=60 time=0
note_on channel=0 note=79 velocity=60 time=0
note_on channel=0 note=79 velocity=0 time=0
note_on channel=0 note=74 velocity=0 time=0
note_on channel=0 note=67 velocity=0 time=0
note_on channel=0 note=71 velocity=0 time=0
note_on channel=0 note=83 velocity=0 time=0
note_on channel=0 note=77 velocity=60 time=0
note_on channel=0 note=81 velocity=60 time=0
note_on channel=0 note=55 velocity=44 time=0
note_on channel=0 note=55 velocity=0 time=160
note_on channel=0 note=81 velocity=0 time=0
note_on channel=0 note=77 velocity=0 time=0
note_on channel=0 note=76 velocity=56 time=0
note_on channel=0 note=79 velocity=56 time=0
note_on channel=0 note=57 velocity=43 time=0
note_on channel=0 note=57 velocity=0 time=160
note_on channel=0 note=79 velocity=0 time=0
note_on channel=0 note=76 velocity=0 time=0
note_on channel=0 note=74 velocity=53 time=0
note_on channel=0 note=77 velocity=53 time=0
note_on channel=0 note=59 velocity=41 time=0
note_on channel=0 note=59 velocity=0 time=0
note_on channel=0 note=77 velocity=0 time=0
note_on channel=0 note=74 velocity=0 time=0
note_on channel=0 note=67 velocity=57 time=0
note_on channel=0 note=76 velocity=57 time=0
note_on channel=0 note=64 velocity=45 time=0
note_on channel=0 note=60 velocity=37 time=0
note_on channel=0 note=76 velocity=0 time=160
note_on channel=0 note=75 velocity=49 time=0
note_on channel=0 note=75 velocity=0 time=160
note_on channel=0 note=76 velocity=49 time=0
note_on channel=0 note=76 velocity=0 time=160
note_on channel=0 note=77 velocity=49 time=0
note_on channel=0 note=77 velocity=0 time=160
note_on channel=0 note=75 velocity=49 time=0
note_on channel=0 note=75 velocity=0 time=160
note_on channel=0 note=76 velocity=49 time=0
note_on channel=0 note=76 velocity=0 time=0
note_on channel=0 note=60 velocity=0 time=0
note_on channel=0 note=64 velocity=0 time=0
note_on channel=0 note=67 velocity=0 time=0
note_on channel=0 note=65 velocity=56 time=0
note_on channel=0 note=62 velocity=41 time=0
note_on channel=0 note=59 velocity=33 time=0
note_on channel=0 note=56 velocity=33 time=0
note_on channel=0 note=76 velocity=50 time=160
note_on channel=0 note=76 velocity=0 time=160
note_on channel=0 note=74 velocity=50 time=0
note_on channel=0 note=74 velocity=0 time=0
note_on channel=0 note=56 velocity=0 time=0
note_on channel=0 note=65 velocity=0 time=0
note_on channel=0 note=62 velocity=0 time=0
note_on channel=0 note=59 velocity=0 time=0
note_on channel=0 note=64 velocity=56 time=0
note_on channel=0 note=60 velocity=41 time=0
note_on channel=0 note=57 velocity=33 time=0
note_on channel=0 note=74 velocity=49 time=160
note_on channel=0 note=74 velocity=0 time=160
note_on channel=0 note=72 velocity=49 time=0
note_on channel=0 note=72 velocity=0 time=0
note_on channel=0 note=57 velocity=0 time=0
note_on channel=0 note=60 velocity=0 time=0
note_on channel=0 note=64 velocity=0 time=0
note_on channel=0 note=59 velocity=37 time=0
note_on channel=0 note=62 velocity=56 time=0
note_on channel=0 note=56 velocity=37 time=0
note_on channel=0 note=52 velocity=37 time=0
note_on channel=0 note=70 velocity=50 time=160
note_on channel=0 note=70 velocity=0 time=160
note_on channel=0 note=71 velocity=50 time=0
note_on channel=0 note=71 velocity=0 time=160
note_on channel=0 note=72 velocity=53 time=0
note_on channel=0 note=72 velocity=0 time=160
note_on channel=0 note=70 velocity=50 time=0
note_on channel=0 note=70 velocity=0 time=160
note_on channel=0 note=71 velocity=50 time=0
note_on channel=0 note=71 velocity=0 time=160
note_on channel=0 note=56 velocity=0 time=0
note_on channel=0 note=59 velocity=0 time=0
note_on channel=0 note=62 velocity=0 time=0
note_on channel=0 note=52 velocity=0 time=0
note_on channel=0 note=53 velocity=39 time=0
note_on channel=0 note=57 velocity=39 time=0
note_on channel=0 note=60 velocity=32 time=0
note_on channel=0 note=68 velocity=50 time=160
note_on channel=0 note=68 velocity=0 time=160
note_on channel=0 note=69 velocity=50 time=0
note_on channel=0 note=69 velocity=0 time=0
note_on channel=0 note=71 velocity=53 time=0
note_on channel=0 note=71 velocity=0 time=160
note_on channel=0 note=68 velocity=50 time=0
note_on channel=0 note=68 velocity=0 time=160
note_on channel=0 note=69 velocity=50 time=0
note_on channel=0 note=69 velocity=0 time=0
note_on channel=0 note=53 velocity=0 time=0
note_on channel=0 note=57 velocity=0 time=0
note_on channel=0 note=60 velocity=0 time=0
note_on channel=0 note=60 velocity=60 time=0
note_on channel=0 note=48 velocity=52 time=0
note_on channel=0 note=43 velocity=46 time=0
note_on channel=0 note=52 velocity=55 time=0
note_on channel=0 note=60 velocity=0 time=68
note_on channel=0 note=64 velocity=56 time=0
note_on channel=0 note=64 velocity=0 time=0
note_on channel=0 note=67 velocity=57 time=0
note_on channel=0 note=67 velocity=0 time=0
note_on channel=0 note=48 velocity=0 time=0
note_on channel=0 note=52 velocity=0 time=0
note_on channel=0 note=62 velocity=66 time=0
note_on channel=0 note=50 velocity=55 time=0
note_on channel=0 note=53 velocity=58 time=0
note_on channel=0 note=62 velocity=0 time=89
note_on channel=0 note=65 velocity=61 time=0
note_on channel=0 note=65 velocity=0 time=0
note_on channel=0 note=67 velocity=61 time=0
note_on channel=0 note=67 velocity=0 time=0
note_on channel=0 note=62 velocity=74 time=0
note_on channel=0 note=62 velocity=0 time=61
note_on channel=0 note=65 velocity=67 time=0
note_on channel=0 note=65 velocity=0 time=0
note_on channel=0 note=69 velocity=65 time=0
note_on channel=0 note=69 velocity=0 time=0
note_on channel=0 note=62 velocity=80 time=0
note_on channel=0 note=62 velocity=0 time=40
note_on channel=0 note=65 velocity=71 time=0
note_on channel=0 note=65 velocity=0 time=0
note_on channel=0 note=71 velocity=70 time=0
note_on channel=0 note=71 velocity=0 time=0
note_on channel=0 note=43 velocity=0 time=0
note_on channel=0 note=50 velocity=0 time=0
note_on channel=0 note=53 velocity=0 time=0
note_on channel=0 note=64 velocity=77 time=0
note_on channel=0 note=72 velocity=82 time=0
note_on channel=0 note=36 velocity=50 time=0
note_on channel=0 note=48 velocity=60 time=0
note_on channel=0 note=72 velocity=0 time=68
note_on channel=0 note=64 velocity=0 time=0
note_on channel=0 note=55 velocity=75 time=0
note_on channel=0 note=55 velocity=0 time=160
note_on channel=0 note=52 velocity=77 time=0
note_on channel=0 note=52 velocity=0 time=160
note_on channel=0 note=36 velocity=0 time=0
note_on channel=0 note=48 velocity=0 time=0
note_on channel=0 note=55 velocity=82 time=0
note_on channel=0 note=43 velocity=60 time=0
note_on channel=0 note=55 velocity=0 time=160
note_on channel=0 note=60 velocity=77 time=0
note_on channel=0 note=60 velocity=0 time=0
note_on channel=0 note=64 velocity=77 time=0
note_on channel=0 note=64 velocity=0 time=0
note_on channel=0 note=62 velocity=82 time=0
note_on channel=0 note=62 velocity=0 time=33
note_on channel=0 note=59 velocity=77 time=0
note_on channel=0 note=59 velocity=0 time=160
note_on channel=0 note=55 velocity=77 time=0
note_on channel=0 note=55 velocity=0 time=160
note_on channel=0 note=43 velocity=0 time=0
note_on channel=0 note=59 velocity=82 time=0
note_on channel=0 note=43 velocity=60 time=0
note_on channel=0 note=59 velocity=0 time=160
note_on channel=0 note=62 velocity=77 time=0
note_on channel=0 note=62 velocity=0 time=0
note_on channel=0 note=65 velocity=77 time=0
note_on channel=0 note=65 velocity=0 time=0
note_on channel=0 note=64 velocity=82 time=0
note_on channel=0 note=64 velocity=0 time=89
note_on channel=0 note=60 velocity=75 time=0
note_on channel=0 note=60 velocity=0 time=160
note_on channel=0 note=55 velocity=77 time=0
note_on channel=0 note=55 velocity=0 time=160
note_on channel=0 note=43 velocity=0 time=0
note_on channel=0 note=60 velocity=82 time=0
note_on channel=0 note=43 velocity=60 time=0
note_on channel=0 note=60 velocity=0 time=160
note_on channel=0 note=64 velocity=77 time=0
note_on channel=0 note=64 velocity=0 time=0
note_on channel=0 note=67 velocity=77 time=0
note_on channel=0 note=67 velocity=0 time=0
note_on channel=0 note=65 velocity=82 time=0
note_on channel=0 note=65 velocity=0 time=82
note_on channel=0 note=62 velocity=77 time=0
note_on channel=0 note=62 velocity=0 time=0
note_on channel=0 note=59 velocity=77 time=0
note_on channel=0 note=59 velocity=0 time=0
note_on channel=0 note=43 velocity=0 time=0
note_on channel=0 note=71 velocity=82 time=0
note_on channel=0 note=43 velocity=60 time=0
note_on channel=0 note=71 velocity=0 time=160
note_on channel=0 note=65 velocity=77 time=0
note_on channel=0 note=65 velocity=0 time=160
note_on channel=0 note=62 velocity=77 time=0
note_on channel=0 note=62 velocity=0 time=0
note_on channel=0 note=43 velocity=0 time=0
note_on channel=0 note=64 velocity=63 time=0
note_on channel=0 note=72 velocity=75 time=0
note_on channel=0 note=48 velocity=73 time=0
note_on channel=0 note=48 velocity=0 time=75
note_on channel=0 note=43 velocity=67 time=0
note_on channel=0 note=43 velocity=0 time=160
note_on channel=0 note=40 velocity=69 time=0
note_on channel=0 note=40 velocity=0 time=160
note_on channel=0 note=72 velocity=0 time=0
note_on channel=0 note=64 velocity=0 time=0
note_on channel=0 note=67 velocity=75 time=0
note_on channel=0 note=43 velocity=73 time=0
note_on channel=0 note=43 velocity=0 time=160
note_on channel=0 note=48 velocity=69 time=0
note_on channel=0 note=48 velocity=0 time=0
note_on channel=0 note=52 velocity=69 time=0
note_on channel=0 note=52 velocity=0 time=0
note_on channel=0 note=50 velocity=73 time=0
note_on channel=0 note=50 velocity=0 time=54
note_on channel=0 note=47 velocity=69 time=0
note_on channel=0 note=47 velocity=0 time=160
note_on channel=0 note=43 velocity=69 time=0
note_on channel=0 note=43 velocity=0 time=160
note_on channel=0 note=67 velocity=0 time=0
note_on channel=0 note=67 velocity=75 time=0
note_on channel=0 note=47 velocity=73 time=0
note_on channel=0 note=47 velocity=0 time=160
note_on channel=0 note=50 velocity=69 time=0
note_on channel=0 note=50 velocity=0 time=0
note_on channel=0 note=53 velocity=69 time=0
note_on channel=0 note=53 velocity=0 time=0
note_on channel=0 note=52 velocity=73 time=0
note_on channel=0 note=52 velocity=0 time=82
note_on channel=0 note=48 velocity=67 time=0
note_on channel=0 note=48 velocity=0 time=160
note_on channel=0 note=43 velocity=69 time=0
note_on channel=0 note=43 velocity=0 time=160
note_on channel=0 note=67 velocity=0 time=0
note_on channel=0 note=67 velocity=75 time=0
note_on channel=0 note=48 velocity=73 time=0
note_on channel=0 note=48 velocity=0 time=160
note_on channel=0 note=52 velocity=69 time=0
note_on channel=0 note=52 velocity=0 time=0
note_on channel=0 note=55 velocity=69 time=0
note_on channel=0 note=55 velocity=0 time=0
note_on channel=0 note=53 velocity=73 time=0
note_on channel=0 note=53 velocity=0 time=61
note_on channel=0 note=50 velocity=69 time=0
note_on channel=0 note=50 velocity=0 time=0
note_on channel=0 note=47 velocity=69 time=0
note_on channel=0 note=47 velocity=0 time=0
note_on channel=0 note=67 velocity=0 time=0
note_on channel=0 note=67 velocity=75 time=0
note_on channel=0 note=59 velocity=73 time=0
note_on channel=0 note=59 velocity=0 time=160
note_on channel=0 note=53 velocity=69 time=0
note_on channel=0 note=53 velocity=0 time=0
note_on channel=0 note=50 velocity=69 time=0
note_on channel=0 note=50 velocity=0 time=0
note_on channel=0 note=67 velocity=0 time=0
note_on channel=0 note=72 velocity=82 time=0
note_on channel=0 note=52 velocity=64 time=0
note_on channel=0 note=52 velocity=0 time=82
note_on channel=0 note=72 velocity=0 time=0
note_on channel=0 note=67 velocity=75 time=0
note_on channel=0 note=55 velocity=56 time=0
note_on channel=0 note=55 velocity=0 time=160
note_on channel=0 note=67 velocity=0 time=0
note_on channel=0 note=64 velocity=77 time=0
note_on channel=0 note=60 velocity=56 time=0
note_on channel=0 note=60 velocity=0 time=160
note_on channel=0 note=64 velocity=0 time=0
note_on channel=0 note=67 velocity=82 time=0
note_on channel=0 note=55 velocity=64 time=0
note_on channel=0 note=55 velocity=0 time=160
note_on channel=0 note=67 velocity=0 time=0
note_on channel=0 note=72 velocity=77 time=0
note_on channel=0 note=52 velocity=57 time=0
note_on channel=0 note=52 velocity=0 time=0
note_on channel=0 note=72 velocity=0 time=0
note_on channel=0 note=76 velocity=77 time=0
note_on channel=0 note=48 velocity=57 time=0
note_on channel=0 note=48 velocity=0 time=0
note_on channel=0 note=76 velocity=0 time=0
note_on channel=0 note=74 velocity=82 time=0
note_on channel=0 note=47 velocity=64 time=0
note_on channel=0 note=47 velocity=0 time=68
note_on channel=0 note=74 velocity=0 time=0
note_on channel=0 note=71 velocity=77 time=0
note_on channel=0 note=50 velocity=56 time=0
note_on channel=0 note=50 velocity=0 time=160
note_on channel=0 note=71 velocity=0 time=0
note_on channel=0 note=67 velocity=77 time=0
note_on channel=0 note=53 velocity=56 time=0
note_on channel=0 note=53 velocity=0 time=160
note_on channel=0 note=67 velocity=0 time=0
note_on channel=0 note=71 velocity=82 time=0
note_on channel=0 note=50 velocity=64 time=0
note_on channel=0 note=50 velocity=0 time=160
note_on channel=0 note=71 velocity=0 time=0
note_on channel=0 note=74 velocity=77 time=0
note_on channel=0 note=47 velocity=57 time=0
note_on channel=0 note=47 velocity=0 time=0
note_on channel=0 note=74 velocity=0 time=0
note_on channel=0 note=77 velocity=77 time=0
note_on channel=0 note=43 velocity=58 time=0
note_on channel=0 note=43 velocity=0 time=0
note_on channel=0 note=77 velocity=0 time=0
note_on channel=0 note=76 velocity=82 time=0
note_on channel=0 note=48 velocity=64 time=6
note_on channel=0 note=76 velocity=0 time=75
note_on channel=0 note=72 velocity=75 time=0
note_on channel=0 note=52 velocity=56 time=0
note_on channel=0 note=48 velocity=0 time=6
note_on channel=0 note=52 velocity=0 time=154
note_on channel=0 note=72 velocity=0 time=0
note_on channel=0 note=67 velocity=77 time=0
note_on channel=0 note=55 velocity=56 time=0
note_on channel=0 note=55 velocity=0 time=160
note_on channel=0 note=67 velocity=0 time=0
note_on channel=0 note=72 velocity=82 time=0
note_on channel=0 note=52 velocity=64 time=0
note_on channel=0 note=52 velocity=0 time=160
note_on channel=0 note=72 velocity=0 time=0
note_on channel=0 note=76 velocity=77 time=0
note_on channel=0 note=48 velocity=57 time=0
note_on channel=0 note=48 velocity=0 time=0
note_on channel=0 note=76 velocity=0 time=0
note_on channel=0 note=79 velocity=77 time=0
note_on channel=0 note=43 velocity=57 time=6
note_on channel=0 note=79 velocity=0 time=0
note_on channel=0 note=77 velocity=82 time=0
note_on channel=0 note=47 velocity=64 time=0
note_on channel=0 note=43 velocity=0 time=6
note_on channel=0 note=47 velocity=0 time=54
note_on channel=0 note=77 velocity=0 time=0
note_on channel=0 note=74 velocity=77 time=0
note_on channel=0 note=53 velocity=56 time=0
note_on channel=0 note=53 velocity=0 time=0
note_on channel=0 note=74 velocity=0 time=0
note_on channel=0 note=71 velocity=77 time=0
note_on channel=0 note=55 velocity=56 time=6
note_on channel=0 note=71 velocity=0 time=0
note_on channel=0 note=83 velocity=82 time=0
note_on channel=0 note=53 velocity=64 time=0
note_on channel=0 note=55 velocity=0 time=6
note_on channel=0 note=53 velocity=0 time=154
note_on channel=0 note=83 velocity=0 time=0
note_on channel=0 note=77 velocity=77 time=0
note_on channel=0 note=55 velocity=57 time=0
note_on channel=0 note=55 velocity=0 time=160
note_on channel=0 note=77 velocity=0 time=0
note_on channel=0 note=74 velocity=77 time=0
note_on channel=0 note=62 velocity=58 time=0
note_on channel=0 note=62 velocity=0 time=0
note_on channel=0 note=74 velocity=0 time=0
note_on channel=0 note=84 velocity=82 time=0
note_on channel=0 note=52 velocity=64 time=0
note_on channel=0 note=52 velocity=0 time=68
note_on channel=0 note=79 velocity=74 time=0
note_on channel=0 note=55 velocity=55 time=0
note_on channel=0 note=84 velocity=0 time=80
note_on channel=0 note=55 velocity=0 time=80
note_on channel=0 note=79 velocity=0 time=0
note_on channel=0 note=76 velocity=74 time=0
note_on channel=0 note=60 velocity=55 time=0
note_on channel=0 note=60 velocity=0 time=160
note_on channel=0 note=76 velocity=0 time=0
note_on channel=0 note=79 velocity=79 time=0
note_on channel=0 note=48 velocity=62 time=0
note_on channel=0 note=48 velocity=0 time=160
note_on channel=0 note=76 velocity=73 time=0
note_on channel=0 note=52 velocity=55 time=0
note_on channel=0 note=79 velocity=0 time=80
note_on channel=0 note=52 velocity=0 time=0
note_on channel=0 note=76 velocity=0 time=0
note_on channel=0 note=72 velocity=72 time=0
note_on channel=0 note=55 velocity=54 time=0
note_on channel=0 note=55 velocity=0 time=0
note_on channel=0 note=72 velocity=0 time=0
note_on channel=0 note=77 velocity=77 time=0
note_on channel=0 note=50 velocity=59 time=0
note_on channel=0 note=50 velocity=0 time=61
note_on channel=0 note=74 velocity=71 time=0
note_on channel=0 note=53 velocity=51 time=0
note_on channel=0 note=77 velocity=0 time=80
note_on channel=0 note=53 velocity=0 time=80
note_on channel=0 note=74 velocity=0 time=0
note_on channel=0 note=71 velocity=70 time=0
note_on channel=0 note=55 velocity=51 time=0
note_on channel=0 note=55 velocity=0 time=160
note_on channel=0 note=71 velocity=0 time=0
note_on channel=0 note=83 velocity=74 time=0
note_on channel=0 note=53 velocity=57 time=0
note_on channel=0 note=53 velocity=0 time=160
note_on channel=0 note=79 velocity=69 time=0
note_on channel=0 note=55 velocity=51 time=0
note_on channel=0 note=83 velocity=0 time=80
note_on channel=0 note=55 velocity=0 time=0
note_on channel=0 note=79 velocity=0 time=0
note_on channel=0 note=74 velocity=67 time=0
note_on channel=0 note=62 velocity=51 time=0
note_on channel=0 note=62 velocity=0 time=0
note_on channel=0 note=74 velocity=0 time=0
note_on channel=0 note=84 velocity=72 time=0
note_on channel=0 note=52 velocity=56 time=0
note_on channel=0 note=52 velocity=0 time=61
note_on channel=0 note=79 velocity=65 time=0
note_on channel=0 note=55 velocity=48 time=0
note_on channel=0 note=84 velocity=0 time=80
note_on channel=0 note=55 velocity=0 time=80
note_on channel=0 note=79 velocity=0 time=0
note_on channel=0 note=76 velocity=65 time=0
note_on channel=0 note=60 velocity=48 time=0
note_on channel=0 note=60 velocity=0 time=160
note_on channel=0 note=76 velocity=0 time=0
note_on channel=0 note=79 velocity=70 time=0
note_on channel=0 note=48 velocity=54 time=0
note_on channel=0 note=48 velocity=0 time=160
note_on channel=0 note=76 velocity=64 time=0
note_on channel=0 note=52 velocity=48 time=0
note_on channel=0 note=79 velocity=0 time=80
note_on channel=0 note=52 velocity=0 time=0
note_on channel=0 note=76 velocity=0 time=0
note_on channel=0 note=72 velocity=63 time=0
note_on channel=0 note=55 velocity=47 time=0
note_on channel=0 note=55 velocity=0 time=0
note_on channel=0 note=72 velocity=0 time=0
note_on channel=0 note=77 velocity=67 time=0
note_on channel=0 note=50 velocity=51 time=0
note_on channel=0 note=50 velocity=0 time=61
note_on channel=0 note=74 velocity=62 time=0
note_on channel=0 note=53 velocity=44 time=0
note_on channel=0 note=77 velocity=0 time=80
note_on channel=0 note=53 velocity=0 time=80
note_on channel=0 note=74 velocity=0 time=0
note_on channel=0 note=71 velocity=60 time=0
note_on channel=0 note=55 velocity=44 time=0
note_on channel=0 note=55 velocity=0 time=160
note_on channel=0 note=71 velocity=0 time=0
note_on channel=0 note=83 velocity=64 time=0
note_on channel=0 note=53 velocity=50 time=0
note_on channel=0 note=53 velocity=0 time=160
note_on channel=0 note=79 velocity=59 time=0
note_on channel=0 note=55 velocity=44 time=0
note_on channel=0 note=83 velocity=0 time=80
note_on channel=0 note=55 velocity=0 time=0
note_on channel=0 note=79 velocity=0 time=0
note_on channel=0 note=74 velocity=58 time=0
note_on channel=0 note=62 velocity=44 time=0
note_on channel=0 note=62 velocity=0 time=0
note_on channel=0 note=74 velocity=0 time=0
note_on channel=0 note=84 velocity=64 time=0
note_on channel=0 note=52 velocity=50 time=0
note_on channel=0 note=52 velocity=0 time=106
note_on channel=0 note=84 velocity=0 time=0
note_on channel=0 note=79 velocity=58 time=0
note_on channel=0 note=55 velocity=43 time=0
note_on channel=0 note=55 velocity=0 time=60
note_on channel=0 note=79 velocity=0 time=0
note_on channel=0 note=76 velocity=58 time=0
note_on channel=0 note=48 velocity=43 time=0
note_on channel=0 note=48 velocity=0 time=20
note_on channel=0 note=76 velocity=0 time=0
note_on channel=0 note=72 velocity=59 time=0
note_on channel=0 note=55 velocity=44 time=0
note_on channel=0 note=55 velocity=0 time=120
note_on channel=0 note=72 velocity=0 time=0
note_on channel=0 note=77 velocity=65 time=0
note_on channel=0 note=50 velocity=51 time=0
note_on channel=0 note=50 velocity=0 time=100
note_on channel=0 note=77 velocity=0 time=0
note_on channel=0 note=74 velocity=59 time=0
note_on channel=0 note=55 velocity=44 time=0
note_on channel=0 note=55 velocity=0 time=60
note_on channel=0 note=74 velocity=0 time=0
note_on channel=0 note=83 velocity=62 time=0
note_on channel=0 note=53 velocity=44 time=0
note_on channel=0 note=53 velocity=0 time=20
note_on channel=0 note=83 velocity=0 time=0
note_on channel=0 note=79 velocity=63 time=0
note_on channel=0 note=55 velocity=44 time=0
note_on channel=0 note=55 velocity=0 time=120
note_on channel=0 note=79 velocity=0 time=0
note_on channel=0 note=84 velocity=69 time=0
note_on channel=0 note=52 velocity=52 time=0
note_on channel=0 note=52 velocity=0 time=100
note_on channel=0 note=84 velocity=0 time=0
note_on channel=0 note=79 velocity=63 time=0
note_on channel=0 note=55 velocity=46 time=0
note_on channel=0 note=55 velocity=0 time=120
note_on channel=0 note=79 velocity=0 time=0
note_on channel=0 note=76 velocity=63 time=0
note_on channel=0 note=48 velocity=47 time=0
note_on channel=0 note=48 velocity=0 time=120
note_on channel=0 note=76 velocity=0 time=0
note_on channel=0 note=72 velocity=64 time=0
note_on channel=0 note=55 velocity=49 time=0
note_on channel=0 note=55 velocity=0 time=120
note_on channel=0 note=72 velocity=0 time=0
note_on channel=0 note=77 velocity=71 time=0
note_on channel=0 note=50 velocity=55 time=0
note_on channel=0 note=50 velocity=0 time=120
note_on channel=0 note=77 velocity=0 time=0
note_on channel=0 note=74 velocity=66 time=0
note_on channel=0 note=55 velocity=48 time=0
note_on channel=0 note=55 velocity=0 time=120
note_on channel=0 note=74 velocity=0 time=0
note_on channel=0 note=83 velocity=67 time=0
note_on channel=0 note=53 velocity=48 time=0
note_on channel=0 note=53 velocity=0 time=0
note_on channel=0 note=83 velocity=0 time=0
note_on channel=0 note=79 velocity=67 time=0
note_on channel=0 note=55 velocity=49 time=0
note_on channel=0 note=55 velocity=0 time=20
note_on channel=0 note=79 velocity=0 time=0
note_on channel=0 note=84 velocity=74 time=0
note_on channel=0 note=52 velocity=58 time=0
note_on channel=0 note=52 velocity=0 time=120
note_on channel=0 note=84 velocity=0 time=0
note_on channel=0 note=79 velocity=67 time=0
note_on channel=0 note=55 velocity=50 time=0
note_on channel=0 note=55 velocity=0 time=60
note_on channel=0 note=79 velocity=0 time=0
note_on channel=0 note=83 velocity=69 time=0
note_on channel=0 note=53 velocity=51 time=0
note_on channel=0 note=53 velocity=0 time=120
note_on channel=0 note=83 velocity=0 time=0
note_on channel=0 note=79 velocity=69 time=0
note_on channel=0 note=55 velocity=52 time=0
note_on channel=0 note=55 velocity=0 time=100
note_on channel=0 note=79 velocity=0 time=0
note_on channel=0 note=84 velocity=77 time=0
note_on channel=0 note=52 velocity=60 time=0
note_on channel=0 note=52 velocity=0 time=20
note_on channel=0 note=84 velocity=0 time=0
note_on channel=0 note=79 velocity=77 time=0
note_on channel=0 note=55 velocity=52 time=0
note_on channel=0 note=55 velocity=0 time=120
note_on channel=0 note=79 velocity=0 time=0
note_on channel=0 note=83 velocity=72 time=0
note_on channel=0 note=53 velocity=52 time=0
note_on channel=0 note=53 velocity=0 time=60
note_on channel=0 note=83 velocity=0 time=0
note_on channel=0 note=79 velocity=73 time=0
note_on channel=0 note=55 velocity=54 time=0
note_on channel=0 note=55 velocity=0 time=0
note_on channel=0 note=79 velocity=0 time=0
note_on channel=0 note=84 velocity=80 time=0
note_on channel=0 note=52 velocity=62 time=0
note_on channel=0 note=52 velocity=0 time=120
note_on channel=0 note=84 velocity=0 time=0
note_on channel=0 note=79 velocity=73 time=0
note_on channel=0 note=55 velocity=55 time=0
note_on channel=0 note=55 velocity=0 time=120
note_on channel=0 note=79 velocity=0 time=0
note_on channel=0 note=83 velocity=74 time=0
note_on channel=0 note=53 velocity=55 time=0
note_on channel=0 note=53 velocity=0 time=120
note_on channel=0 note=83 velocity=0 time=0
note_on channel=0 note=79 velocity=74 time=0
note_on channel=0 note=55 velocity=57 time=0
note_on channel=0 note=55 velocity=0 time=120
note_on channel=0 note=79 velocity=0 time=0
note_on channel=0 note=84 velocity=82 time=0
note_on channel=0 note=52 velocity=65 time=0
note_on channel=0 note=52 velocity=0 time=120
note_on channel=0 note=84 velocity=0 time=0
note_on channel=0 note=79 velocity=85 time=0
note_on channel=0 note=55 velocity=57 time=0
note_on channel=0 note=55 velocity=0 time=120
note_on channel=0 note=79 velocity=0 time=0
note_on channel=0 note=83 velocity=78 time=0
note_on channel=0 note=53 velocity=57 time=0
note_on channel=0 note=53 velocity=0 time=0
note_on channel=0 note=83 velocity=0 time=0
note_on channel=0 note=79 velocity=79 time=0
note_on channel=0 note=55 velocity=58 time=0
note_on channel=0 note=55 velocity=0 time=0
note_on channel=0 note=79 velocity=0 time=0
note_on channel=0 note=84 velocity=89 time=0
note_on channel=0 note=52 velocity=70 time=0
note_on channel=0 note=52 velocity=0 time=120
note_on channel=0 note=84 velocity=0 time=0
note_on channel=0 note=79 velocity=81 time=0
note_on channel=0 note=55 velocity=60 time=0
note_on channel=0 note=55 velocity=0 time=120
note_on channel=0 note=79 velocity=0 time=0
note_on channel=0 note=82 velocity=81 time=0
note_on channel=0 note=40 velocity=60 time=0
note_on channel=0 note=40 velocity=0 time=40
note_on channel=0 note=82 velocity=0 time=0
note_on channel=0 note=79 velocity=81 time=0
note_on channel=0 note=48 velocity=62 time=0
note_on channel=0 note=48 velocity=0 time=120
note_on channel=0 note=79 velocity=0 time=0
note_on channel=0 note=82 velocity=89 time=0
note_on channel=0 note=40 velocity=70 time=0
note_on channel=0 note=40 velocity=0 time=63
note_on channel=0 note=82 velocity=0 time=0
note_on channel=0 note=79 velocity=83 time=0
note_on channel=0 note=48 velocity=60 time=0
note_on channel=0 note=48 velocity=0 time=80
note_on channel=0 note=79 velocity=0 time=0
note_on channel=0 note=82 velocity=82 time=0
note_on channel=0 note=40 velocity=60 time=0
note_on channel=0 note=40 velocity=0 time=120
note_on channel=0 note=82 velocity=0 time=0
note_on channel=0 note=79 velocity=82 time=0
note_on channel=0 note=48 velocity=60 time=0
note_on channel=0 note=48 velocity=0 time=20
note_on channel=0 note=79 velocity=0 time=0
note_on channel=0 note=82 velocity=89 time=0
note_on channel=0 note=40 velocity=70 time=0
note_on channel=0 note=40 velocity=0 time=120
note_on channel=0 note=82 velocity=0 time=0
note_on channel=0 note=79 velocity=81 time=0
note_on channel=0 note=48 velocity=60 time=0
note_on channel=0 note=48 velocity=0 time=120
note_on channel=0 note=79 velocity=0 time=0
note_on channel=0 note=82 velocity=81 time=0
note_on channel=0 note=40 velocity=60 time=0
note_on channel=0 note=40 velocity=0 time=120
note_on channel=0 note=82 velocity=0 time=0
note_on channel=0 note=79 velocity=81 time=0
note_on channel=0 note=48 velocity=62 time=0
note_on channel=0 note=48 velocity=0 time=120
note_on channel=0 note=79 velocity=0 time=0
note_on channel=0 note=82 velocity=89 time=0
note_on channel=0 note=40 velocity=70 time=0
note_on channel=0 note=40 velocity=0 time=120
note_on channel=0 note=82 velocity=0 time=0
note_on channel=0 note=79 velocity=83 time=0
note_on channel=0 note=48 velocity=60 time=0
note_on channel=0 note=48 velocity=0 time=120
note_on channel=0 note=79 velocity=0 time=0
note_on channel=0 note=82 velocity=82 time=0
note_on channel=0 note=40 velocity=60 time=0
note_on channel=0 note=40 velocity=0 time=0
note_on channel=0 note=82 velocity=0 time=0
note_on channel=0 note=79 velocity=82 time=0
note_on channel=0 note=48 velocity=60 time=0
note_on channel=0 note=48 velocity=0 time=0
note_on channel=0 note=79 velocity=0 time=0
note_on channel=0 note=82 velocity=89 time=0
note_on channel=0 note=40 velocity=70 time=0
note_on channel=0 note=40 velocity=0 time=68
note_on channel=0 note=48 velocity=60 time=0
note_on channel=0 note=48 velocity=0 time=120
note_on channel=0 note=82 velocity=0 time=0
note_on channel=0 note=81 velocity=81 time=0
note_on channel=0 note=40 velocity=60 time=0
note_on channel=0 note=40 velocity=0 time=120
note_on channel=0 note=81 velocity=0 time=0
note_on channel=0 note=79 velocity=81 time=0
note_on channel=0 note=48 velocity=62 time=0
note_on channel=0 note=48 velocity=0 time=120
note_on channel=0 note=79 velocity=0 time=0
note_on channel=0 note=77 velocity=84 time=0
note_on channel=0 note=40 velocity=70 time=0
note_on channel=0 note=40 velocity=0 time=120
note_on channel=0 note=77 velocity=0 time=0
note_on channel=0 note=76 velocity=78 time=0
note_on channel=0 note=48 velocity=60 time=0
note_on channel=0 note=48 velocity=0 time=120
note_on channel=0 note=76 velocity=0 time=0
note_on channel=0 note=74 velocity=78 time=0
note_on channel=0 note=40 velocity=60 time=0
note_on channel=0 note=40 velocity=0 time=120
note_on channel=0 note=74 velocity=0 time=0
note_on channel=0 note=72 velocity=80 time=0
note_on channel=0 note=48 velocity=61 time=0
note_on channel=0 note=48 velocity=0 time=120
note_on channel=0 note=72 velocity=0 time=0
note_on channel=0 note=70 velocity=84 time=0
note_on channel=0 note=40 velocity=71 time=0
note_on channel=0 note=40 velocity=0 time=120
note_on channel=0 note=70 velocity=0 time=0
note_on channel=0 note=69 velocity=80 time=0
note_on channel=0 note=48 velocity=61 time=0
note_on channel=0 note=48 velocity=0 time=120
note_on channel=0 note=69 velocity=0 time=0
note_on channel=0 note=67 velocity=80 time=0
note_on channel=0 note=40 velocity=61 time=0
note_on channel=0 note=40 velocity=0 time=120
note_on channel=0 note=67 velocity=0 time=0
note_on channel=0 note=65 velocity=81 time=0
note_on channel=0 note=48 velocity=63 time=0
note_on channel=0 note=48 velocity=0 time=120
note_on channel=0 note=65 velocity=0 time=0
note_on channel=0 note=64 velocity=86 time=0
note_on channel=0 note=40 velocity=72 time=0
note_on channel=0 note=40 velocity=0 time=120
note_on channel=0 note=64 velocity=0 time=0
note_on channel=0 note=62 velocity=84 time=0
note_on channel=0 note=48 velocity=62 time=0
note_on channel=0 note=48 velocity=0 time=120
note_on channel=0 note=62 velocity=0 time=0
note_on channel=0 note=60 velocity=85 time=0
note_on channel=0 note=40 velocity=62 time=0
note_on channel=0 note=40 velocity=0 time=120
note_on channel=0 note=60 velocity=0 time=0
note_on channel=0 note=58 velocity=85 time=0
note_on channel=0 note=48 velocity=62 time=0
note_on channel=0 note=48 velocity=0 time=0
note_on channel=0 note=58 velocity=0 time=0
note_on channel=0 note=57 velocity=93 time=0
note_on channel=0 note=41 velocity=67 time=0
note_on channel=0 note=45 velocity=67 time=0
note_on channel=0 note=48 velocity=80 time=0
note_on channel=0 note=57 velocity=0 time=0
note_on channel=0 note=59 velocity=81 time=0
note_on channel=0 note=41 velocity=0 time=20
note_on channel=0 note=48 velocity=0 time=0
note_on channel=0 note=45 velocity=0 time=0
note_on channel=0 note=59 velocity=0 time=0
note_on channel=0 note=60 velocity=81 time=0
note_on channel=0 note=41 velocity=60 time=0
note_on channel=0 note=45 velocity=60 time=0
note_on channel=0 note=48 velocity=73 time=0
note_on channel=0 note=60 velocity=0 time=0
note_on channel=0 note=59 velocity=81 time=0
note_on channel=0 note=41 velocity=0 time=8
note_on channel=0 note=48 velocity=0 time=0
note_on channel=0 note=45 velocity=0 time=0
note_on channel=0 note=59 velocity=0 time=0
note_on channel=0 note=60 velocity=92 time=0
note_on channel=0 note=60 velocity=0 time=0
note_on channel=0 note=64 velocity=81 time=0
note_on channel=0 note=64 velocity=0 time=0
note_on channel=0 note=65 velocity=81 time=0
note_on channel=0 note=41 velocity=60 time=0
note_on channel=0 note=45 velocity=60 time=0
note_on channel=0 note=48 velocity=73 time=0
note_on channel=0 note=65 velocity=0 time=120
note_on channel=0 note=64 velocity=82 time=0
note_on channel=0 note=41 velocity=0 time=60
note_on channel=0 note=48 velocity=0 time=0
note_on channel=0 note=45 velocity=0 time=0
note_on channel=0 note=64 velocity=0 time=0
note_on channel=0 note=65 velocity=93 time=0
note_on channel=0 note=41 velocity=67 time=0
note_on channel=0 note=45 velocity=67 time=0
note_on channel=0 note=48 velocity=80 time=0
note_on channel=0 note=65 velocity=0 time=0
note_on channel=0 note=68 velocity=80 time=0
note_on channel=0 note=41 velocity=0 time=36
note_on channel=0 note=48 velocity=0 time=0
note_on channel=0 note=45 velocity=0 time=0
note_on channel=0 note=68 velocity=0 time=0
note_on channel=0 note=69 velocity=80 time=0
note_on channel=0 note=41 velocity=60 time=0
note_on channel=0 note=45 velocity=60 time=0
note_on channel=0 note=48 velocity=73 time=0
note_on channel=0 note=69 velocity=0 time=0
note_on channel=0 note=68 velocity=81 time=0
note_on channel=0 note=41 velocity=0 time=20
note_on channel=0 note=48 velocity=0 time=0
note_on channel=0 note=45 velocity=0 time=0
note_on channel=0 note=68 velocity=0 time=28
note_on channel=0 note=69 velocity=93 time=0
note_on channel=0 note=69 velocity=0 time=28
note_on channel=0 note=71 velocity=83 time=0
note_on channel=0 note=71 velocity=0 time=0
note_on channel=0 note=72 velocity=83 time=0
note_on channel=0 note=41 velocity=60 time=0
note_on channel=0 note=45 velocity=60 time=0
note_on channel=0 note=48 velocity=73 time=0
note_on channel=0 note=72 velocity=0 time=120
note_on channel=0 note=71 velocity=83 time=0
note_on channel=0 note=41 velocity=0 time=60
note_on channel=0 note=48 velocity=0 time=0
note_on channel=0 note=45 velocity=0 time=0
note_on channel=0 note=71 velocity=0 time=0
note_on channel=0 note=72 velocity=95 time=0
note_on channel=0 note=41 velocity=67 time=0
note_on channel=0 note=45 velocity=67 time=0
note_on channel=0 note=48 velocity=78 time=0
note_on channel=0 note=72 velocity=0 time=0
note_on channel=0 note=76 velocity=84 time=0
note_on channel=0 note=41 velocity=0 time=20
note_on channel=0 note=48 velocity=0 time=0
note_on channel=0 note=45 velocity=0 time=0
note_on channel=0 note=76 velocity=0 time=0
note_on channel=0 note=77 velocity=84 time=0
note_on channel=0 note=41 velocity=60 time=0
note_on channel=0 note=45 velocity=60 time=0
note_on channel=0 note=48 velocity=73 time=0
note_on channel=0 note=77 velocity=0 time=120
note_on channel=0 note=76 velocity=84 time=0
note_on channel=0 note=41 velocity=0 time=8
note_on channel=0 note=48 velocity=0 time=0
note_on channel=0 note=45 velocity=0 time=0
note_on channel=0 note=76 velocity=0 time=16
note_on channel=0 note=77 velocity=95 time=0
note_on channel=0 note=77 velocity=0 time=28
note_on channel=0 note=80 velocity=82 time=0
note_on channel=0 note=80 velocity=0 time=0
note_on channel=0 note=81 velocity=82 time=0
note_on channel=0 note=41 velocity=60 time=0
note_on channel=0 note=45 velocity=60 time=0
note_on channel=0 note=48 velocity=73 time=0
note_on channel=0 note=81 velocity=0 time=120
note_on channel=0 note=80 velocity=82 time=0
note_on channel=0 note=41 velocity=0 time=60
note_on channel=0 note=48 velocity=0 time=0
note_on channel=0 note=45 velocity=0 time=0
note_on channel=0 note=80 velocity=0 time=0
note_on channel=0 note=81 velocity=95 time=0
note_on channel=0 note=41 velocity=67 time=0
note_on channel=0 note=45 velocity=67 time=0
note_on channel=0 note=48 velocity=78 time=0
note_on channel=0 note=81 velocity=0 time=0
note_on channel=0 note=83 velocity=82 time=0
note_on channel=0 note=41 velocity=0 time=8
note_on channel=0 note=48 velocity=0 time=0
note_on channel=0 note=45 velocity=0 time=0
note_on channel=0 note=83 velocity=0 time=0
note_on channel=0 note=84 velocity=82 time=0
note_on channel=0 note=41 velocity=60 time=0
note_on channel=0 note=45 velocity=60 time=0
note_on channel=0 note=48 velocity=73 time=0
note_on channel=0 note=84 velocity=0 time=96
note_on channel=0 note=83 velocity=82 time=0
note_on channel=0 note=41 velocity=0 time=60
note_on channel=0 note=48 velocity=0 time=0
note_on channel=0 note=45 velocity=0 time=0
note_on channel=0 note=83 velocity=0 time=0
note_on channel=0 note=84 velocity=95 time=0
note_on channel=0 note=84 velocity=0 time=60
note_on channel=0 note=83 velocity=82 time=0
note_on channel=0 note=83 velocity=0 time=0
note_on channel=0 note=81 velocity=83 time=0
note_on channel=0 note=41 velocity=60 time=0
note_on channel=0 note=45 velocity=60 time=0
note_on channel=0 note=48 velocity=73 time=0
note_on channel=0 note=81 velocity=0 time=120
note_on channel=0 note=80 velocity=83 time=0
note_on channel=0 note=41 velocity=0 time=60
note_on channel=0 note=48 velocity=0 time=0
note_on channel=0 note=45 velocity=0 time=0
note_on channel=0 note=80 velocity=0 time=0
note_on channel=0 note=81 velocity=95 time=0
note_on channel=0 note=48 velocity=67 time=0
note_on channel=0 note=42 velocity=67 time=0
note_on channel=0 note=45 velocity=67 time=0
note_on channel=0 note=50 velocity=78 time=0
note_on channel=0 note=81 velocity=0 time=0
note_on channel=0 note=80 velocity=83 time=0
note_on channel=0 note=45 velocity=0 time=8
note_on channel=0 note=50 velocity=0 time=0
note_on channel=0 note=48 velocity=0 time=0
note_on channel=0 note=42 velocity=0 time=0
note_on channel=0 note=80 velocity=0 time=16
note_on channel=0 note=81 velocity=83 time=0
note_on channel=0 note=48 velocity=60 time=0
note_on channel=0 note=42 velocity=60 time=0
note_on channel=0 note=45 velocity=60 time=0
note_on channel=0 note=50 velocity=73 time=0
note_on channel=0 note=81 velocity=0 time=0
note_on channel=0 note=83 velocity=83 time=0
note_on channel=0 note=45 velocity=0 time=36
note_on channel=0 note=50 velocity=0 time=0
note_on channel=0 note=48 velocity=0 time=0
note_on channel=0 note=42 velocity=0 time=0
note_on channel=0 note=83 velocity=0 time=0
note_on channel=0 note=84 velocity=95 time=0
note_on channel=0 note=84 velocity=0 time=0
note_on channel=0 note=83 velocity=85 time=0
note_on channel=0 note=83 velocity=0 time=0
note_on channel=0 note=81 velocity=85 time=0
note_on channel=0 note=48 velocity=60 time=0
note_on channel=0 note=42 velocity=60 time=0
note_on channel=0 note=45 velocity=60 time=0
note_on channel=0 note=50 velocity=73 time=0
note_on channel=0 note=81 velocity=0 time=120
note_on channel=0 note=80 velocity=85 time=0
note_on channel=0 note=45 velocity=0 time=60
note_on channel=0 note=50 velocity=0 time=0
note_on channel=0 note=48 velocity=0 time=0
note_on channel=0 note=42 velocity=0 time=0
note_on channel=0 note=80 velocity=0 time=0
note_on channel=0 note=81 velocity=95 time=0
note_on channel=0 note=48 velocity=67 time=0
note_on channel=0 note=42 velocity=67 time=0
note_on channel=0 note=45 velocity=67 time=0
note_on channel=0 note=50 velocity=78 time=0
note_on channel=0 note=81 velocity=0 time=16
note_on channel=0 note=80 velocity=84 time=0
note_on channel=0 note=45 velocity=0 time=20
note_on channel=0 note=50 velocity=0 time=0
note_on channel=0 note=48 velocity=0 time=0
note_on channel=0 note=42 velocity=0 time=0
note_on channel=0 note=80 velocity=0 time=40
note_on channel=0 note=81 velocity=84 time=0
note_on channel=0 note=48 velocity=60 time=0
note_on channel=0 note=42 velocity=60 time=0
note_on channel=0 note=45 velocity=60 time=0
note_on channel=0 note=50 velocity=73 time=0
note_on channel=0 note=81 velocity=0 time=0
note_on channel=0 note=83 velocity=84 time=0
note_on channel=0 note=45 velocity=0 time=48
note_on channel=0 note=50 velocity=0 time=0
note_on channel=0 note=48 velocity=0 time=0
note_on channel=0 note=42 velocity=0 time=0
note_on channel=0 note=83 velocity=0 time=16
note_on channel=0 note=84 velocity=95 time=0
note_on channel=0 note=84 velocity=0 time=0
note_on channel=0 note=83 velocity=84 time=0
note_on channel=0 note=83 velocity=0 time=0
note_on channel=0 note=81 velocity=84 time=0
note_on channel=0 note=48 velocity=60 time=0
note_on channel=0 note=42 velocity=60 time=0
note_on channel=0 note=45 velocity=60 time=0
note_on channel=0 note=50 velocity=73 time=0
note_on channel=0 note=81 velocity=0 time=120
note_on channel=0 note=80 velocity=84 time=0
note_on channel=0 note=45 velocity=0 time=60
note_on channel=0 note=50 velocity=0 time=0
note_on channel=0 note=48 velocity=0 time=0
note_on channel=0 note=42 velocity=0 time=0
note_on channel=0 note=80 velocity=0 time=0
note_on channel=0 note=81 velocity=95 time=0
note_on channel=0 note=48 velocity=67 time=0
note_on channel=0 note=42 velocity=67 time=0
note_on channel=0 note=45 velocity=67 time=0
note_on channel=0 note=50 velocity=78 time=0
note_on channel=0 note=81 velocity=0 time=28
note_on channel=0 note=80 velocity=84 time=0
note_on channel=0 note=45 velocity=0 time=8
note_on channel=0 note=50 velocity=0 time=0
note_on channel=0 note=48 velocity=0 time=0
note_on channel=0 note=42 velocity=0 time=0
note_on channel=0 note=80 velocity=0 time=0
note_on channel=0 note=81 velocity=84 time=0
note_on channel=0 note=48 velocity=60 time=0
note_on channel=0 note=42 velocity=60 time=0
note_on channel=0 note=45 velocity=60 time=0
note_on channel=0 note=50 velocity=73 time=0
note_on channel=0 note=81 velocity=0 time=0
note_on channel=0 note=83 velocity=84 time=0
note_on channel=0 note=45 velocity=0 time=60
note_on channel=0 note=50 velocity=0 time=0
note_on channel=0 note=48 velocity=0 time=0
note_on channel=0 note=42 velocity=0 time=0
note_on channel=0 note=83 velocity=0 time=60
note_on channel=0 note=84 velocity=95 time=0
note_on channel=0 note=84 velocity=0 time=0
note_on channel=0 note=83 velocity=83 time=0
note_on channel=0 note=83 velocity=0 time=0
note_on channel=0 note=81 velocity=83 time=0
note_on channel=0 note=48 velocity=60 time=0
note_on channel=0 note=42 velocity=60 time=0
note_on channel=0 note=45 velocity=60 time=0
note_on channel=0 note=50 velocity=73 time=0
note_on channel=0 note=81 velocity=0 time=120
note_on channel=0 note=80 velocity=83 time=0
note_on channel=0 note=45 velocity=0 time=60
note_on channel=0 note=50 velocity=0 time=0
note_on channel=0 note=48 velocity=0 time=0
note_on channel=0 note=42 velocity=0 time=0
note_on channel=0 note=80 velocity=0 time=0
note_on channel=0 note=81 velocity=95 time=0
note_on channel=0 note=48 velocity=67 time=0
note_on channel=0 note=42 velocity=67 time=0
note_on channel=0 note=45 velocity=67 time=0
note_on channel=0 note=50 velocity=78 time=0
note_on channel=0 note=81 velocity=0 time=80
note_on channel=0 note=80 velocity=83 time=0
note_on channel=0 note=45 velocity=0 time=8
note_on channel=0 note=50 velocity=0 time=0
note_on channel=0 note=48 velocity=0 time=0
note_on channel=0 note=42 velocity=0 time=0
note_on channel=0 note=80 velocity=0 time=0
note_on channel=0 note=81 velocity=83 time=0
note_on channel=0 note=48 velocity=60 time=0
note_on channel=0 note=42 velocity=60 time=0
note_on channel=0 note=45 velocity=60 time=0
note_on channel=0 note=50 velocity=73 time=0
note_on channel=0 note=81 velocity=0 time=56
note_on channel=0 note=83 velocity=83 time=0
note_on channel=0 note=45 velocity=0 time=8
note_on channel=0 note=50 velocity=0 time=0
note_on channel=0 note=48 velocity=0 time=0
note_on channel=0 note=42 velocity=0 time=0
note_on channel=0 note=83 velocity=0 time=20
note_on channel=0 note=84 velocity=95 time=0
note_on channel=0 note=84 velocity=0 time=80
note_on channel=0 note=83 velocity=84 time=0
note_on channel=0 note=83 velocity=0 time=0
note_on channel=0 note=84 velocity=84 time=0
note_on channel=0 note=48 velocity=60 time=0
note_on channel=0 note=42 velocity=60 time=0
note_on channel=0 note=45 velocity=60 time=0
note_on channel=0 note=50 velocity=73 time=0
note_on channel=0 note=84 velocity=0 time=120
note_on channel=0 note=81 velocity=86 time=0
note_on channel=0 note=45 velocity=0 time=60
note_on channel=0 note=50 velocity=0 time=0
note_on channel=0 note=48 velocity=0 time=0
note_on channel=0 note=42 velocity=0 time=0
note_on channel=0 note=81 velocity=0 time=0
note_on channel=0 note=67 velocity=87 time=0
note_on channel=0 note=79 velocity=103 time=0
note_on channel=0 note=43 velocity=78 time=0
note_on channel=0 note=43 velocity=0 time=21
note_on channel=0 note=79 velocity=0 time=0
note_on channel=0 note=67 velocity=0 time=0
note_on channel=0 note=48 velocity=70 time=0
note_on channel=0 note=48 velocity=0 time=120
note_on channel=0 note=67 velocity=73 time=0
note_on channel=0 note=79 velocity=87 time=0
note_on channel=0 note=52 velocity=70 time=0
note_on channel=0 note=52 velocity=0 time=120
note_on channel=0 note=79 velocity=0 time=0
note_on channel=0 note=67 velocity=0 time=0
note_on channel=0 note=55 velocity=70 time=0
note_on channel=0 note=55 velocity=0 time=0
note_on channel=0 note=64 velocity=74 time=0
note_on channel=0 note=76 velocity=88 time=0
note_on channel=0 note=43 velocity=77 time=0
note_on channel=0 note=43 velocity=0 time=120
note_on channel=0 note=76 velocity=0 time=0
note_on channel=0 note=64 velocity=0 time=0
note_on channel=0 note=48 velocity=70 time=0
note_on channel=0 note=48 velocity=0 time=120
note_on channel=0 note=60 velocity=73 time=0
note_on channel=0 note=72 velocity=87 time=0
note_on channel=0 note=52 velocity=70 time=0
note_on channel=0 note=52 velocity=0 time=120
note_on channel=0 note=72 velocity=0 time=0
note_on channel=0 note=60 velocity=0 time=0
note_on channel=0 note=55 velocity=70 time=0
note_on channel=0 note=55 velocity=0 time=0
note_on channel=0 note=72 velocity=87 time=0
note_on channel=0 note=84 velocity=103 time=0
note_on channel=0 note=43 velocity=75 time=0
note_on channel=0 note=43 velocity=0 time=120
note_on channel=0 note=84 velocity=0 time=0
note_on channel=0 note=72 velocity=0 time=0
note_on channel=0 note=48 velocity=70 time=0
note_on channel=0 note=48 velocity=0 time=120
note_on channel=0 note=72 velocity=73 time=0
note_on channel=0 note=84 velocity=87 time=0
note_on channel=0 note=52 velocity=70 time=0
note_on channel=0 note=52 velocity=0 time=120
note_on channel=0 note=84 velocity=0 time=0
note_on channel=0 note=72 velocity=0 time=0
note_on channel=0 note=55 velocity=70 time=0
note_on channel=0 note=55 velocity=0 time=0
note_on channel=0 note=67 velocity=73 time=0
note_on channel=0 note=79 velocity=87 time=0
note_on channel=0 note=43 velocity=75 time=0
note_on channel=0 note=43 velocity=0 time=120
note_on channel=0 note=79 velocity=0 time=0
note_on channel=0 note=67 velocity=0 time=0
note_on channel=0 note=48 velocity=70 time=0
note_on channel=0 note=48 velocity=0 time=120
note_on channel=0 note=64 velocity=73 time=0
note_on channel=0 note=76 velocity=87 time=0
note_on channel=0 note=52 velocity=70 time=0
note_on channel=0 note=52 velocity=0 time=120
note_on channel=0 note=76 velocity=0 time=0
note_on channel=0 note=64 velocity=0 time=0
note_on channel=0 note=55 velocity=70 time=0
note_on channel=0 note=55 velocity=0 time=40
note_on channel=0 note=67 velocity=87 time=0
note_on channel=0 note=79 velocity=103 time=0
note_on channel=0 note=43 velocity=78 time=0
note_on channel=0 note=43 velocity=0 time=21
note_on channel=0 note=79 velocity=0 time=0
note_on channel=0 note=67 velocity=0 time=0
note_on channel=0 note=48 velocity=70 time=0
note_on channel=0 note=48 velocity=0 time=120
note_on channel=0 note=67 velocity=73 time=0
note_on channel=0 note=79 velocity=87 time=0
note_on channel=0 note=52 velocity=70 time=0
note_on channel=0 note=52 velocity=0 time=120
note_on channel=0 note=79 velocity=0 time=0
note_on channel=0 note=67 velocity=0 time=0
note_on channel=0 note=55 velocity=70 time=0
note_on channel=0 note=55 velocity=0 time=0
note_on channel=0 note=64 velocity=74 time=0
note_on channel=0 note=76 velocity=88 time=0
note_on channel=0 note=43 velocity=77 time=0
note_on channel=0 note=43 velocity=0 time=120
note_on channel=0 note=76 velocity=0 time=0
note_on channel=0 note=64 velocity=0 time=0
note_on channel=0 note=48 velocity=70 time=0
note_on channel=0 note=48 velocity=0 time=120
note_on channel=0 note=60 velocity=73 time=0
note_on channel=0 note=72 velocity=87 time=0
note_on channel=0 note=52 velocity=70 time=0
note_on channel=0 note=52 velocity=0 time=120
note_on channel=0 note=72 velocity=0 time=0
note_on channel=0 note=60 velocity=0 time=0
note_on channel=0 note=55 velocity=70 time=0
note_on channel=0 note=55 velocity=0 time=0
note_on channel=0 note=72 velocity=87 time=0
note_on channel=0 note=84 velocity=103 time=0
note_on channel=0 note=52 velocity=75 time=0
note_on channel=0 note=52 velocity=0 time=120
note_on channel=0 note=84 velocity=0 time=0
note_on channel=0 note=72 velocity=0 time=0
note_on channel=0 note=72 velocity=73 time=120
note_on channel=0 note=84 velocity=87 time=0
note_on channel=0 note=52 velocity=70 time=0
note_on channel=0 note=52 velocity=0 time=120
note_on channel=0 note=84 velocity=0 time=0
note_on channel=0 note=72 velocity=0 time=0
note_on channel=0 note=67 velocity=73 time=0
note_on channel=0 note=79 velocity=87 time=0
note_on channel=0 note=48 velocity=75 time=0
note_on channel=0 note=48 velocity=0 time=120
note_on channel=0 note=79 velocity=0 time=0
note_on channel=0 note=67 velocity=0 time=0
note_on channel=0 note=64 velocity=73 time=120
note_on channel=0 note=76 velocity=87 time=0
note_on channel=0 note=43 velocity=70 time=0
note_on channel=0 note=43 velocity=0 time=120
note_on channel=0 note=76 velocity=0 time=0
note_on channel=0 note=64 velocity=0 time=0
note_on channel=0 note=55 velocity=86 time=0
note_on channel=0 note=55 velocity=0 time=21
note_on channel=0 note=84 velocity=47 time=0
note_on channel=0 note=84 velocity=0 time=60
note_on channel=0 note=88 velocity=50 time=0
note_on channel=0 note=52 velocity=47 time=0
note_on channel=0 note=88 velocity=0 time=19
note_on channel=0 note=52 velocity=0 time=1
note_on channel=0 note=84 velocity=47 time=0
note_on channel=0 note=84 velocity=0 time=0
note_on channel=0 note=91 velocity=51 time=0
note_on channel=0 note=60 velocity=53 time=0
note_on channel=0 note=91 velocity=0 time=119
note_on channel=0 note=60 velocity=0 time=1
note_on channel=0 note=88 velocity=47 time=0
note_on channel=0 note=88 velocity=0 time=80
note_on channel=0 note=91 velocity=50 time=0
note_on channel=0 note=55 velocity=48 time=0
note_on channel=0 note=91 velocity=0 time=39
note_on channel=0 note=55 velocity=0 time=1
note_on channel=0 note=88 velocity=47 time=0
note_on channel=0 note=88 velocity=0 time=0
note_on channel=0 note=91 velocity=51 time=0
note_on channel=0 note=64 velocity=52 time=0
note_on channel=0 note=91 velocity=0 time=119
note_on channel=0 note=64 velocity=0 time=1
note_on channel=0 note=88 velocity=47 time=0
note_on channel=0 note=88 velocity=0 time=120
note_on channel=0 note=91 velocity=50 time=0
note_on channel=0 note=60 velocity=41 time=0
note_on channel=0 note=91 velocity=0 time=119
note_on channel=0 note=60 velocity=0 time=1
note_on channel=0 note=88 velocity=47 time=0
note_on channel=0 note=88 velocity=0 time=120
note_on channel=0 note=91 velocity=52 time=0
note_on channel=0 note=67 velocity=50 time=0
note_on channel=0 note=91 velocity=0 time=119
note_on channel=0 note=67 velocity=0 time=1
note_on channel=0 note=88 velocity=47 time=0
note_on channel=0 note=88 velocity=0 time=120
note_on channel=0 note=91 velocity=51 time=0
note_on channel=0 note=64 velocity=41 time=0
note_on channel=0 note=91 velocity=0 time=119
note_on channel=0 note=64 velocity=0 time=1
note_on channel=0 note=88 velocity=47 time=0
note_on channel=0 note=88 velocity=0 time=120
note_on channel=0 note=91 velocity=50 time=0
note_on channel=0 note=72 velocity=50 time=0
note_on channel=0 note=91 velocity=0 time=79
note_on channel=0 note=72 velocity=0 time=1
note_on channel=0 note=88 velocity=47 time=0
note_on channel=0 note=88 velocity=0 time=120
note_on channel=0 note=91 velocity=50 time=0
note_on channel=0 note=67 velocity=41 time=0
note_on channel=0 note=91 velocity=0 time=119
note_on channel=0 note=67 velocity=0 time=1
note_on channel=0 note=88 velocity=47 time=0
note_on channel=0 note=88 velocity=0 time=120
note_on channel=0 note=91 velocity=51 time=0
note_on channel=0 note=76 velocity=50 time=0
note_on channel=0 note=91 velocity=0 time=119
note_on channel=0 note=76 velocity=0 time=1
note_on channel=0 note=88 velocity=47 time=0
note_on channel=0 note=88 velocity=0 time=120
note_on channel=0 note=91 velocity=50 time=0
note_on channel=0 note=72 velocity=39 time=0
note_on channel=0 note=91 velocity=0 time=119
note_on channel=0 note=72 velocity=0 time=1
note_on channel=0 note=88 velocity=47 time=0
note_on channel=0 note=88 velocity=0 time=120
note_on channel=0 note=91 velocity=51 time=0
note_on channel=0 note=79 velocity=50 time=0
note_on channel=0 note=91 velocity=0 time=79
note_on channel=0 note=79 velocity=0 time=1
note_on channel=0 note=88 velocity=47 time=0
note_on channel=0 note=88 velocity=0 time=80
note_on channel=0 note=91 velocity=50 time=0
note_on channel=0 note=76 velocity=41 time=0
note_on channel=0 note=91 velocity=0 time=79
note_on channel=0 note=76 velocity=0 time=1
note_on channel=0 note=88 velocity=47 time=0
note_on channel=0 note=88 velocity=0 time=80
note_on channel=0 note=91 velocity=52 time=0
note_on channel=0 note=84 velocity=50 time=0
note_on channel=0 note=91 velocity=0 time=79
note_on channel=0 note=84 velocity=0 time=1
note_on channel=0 note=88 velocity=47 time=0
note_on channel=0 note=88 velocity=0 time=80
note_on channel=0 note=91 velocity=51 time=0
note_on channel=0 note=79 velocity=42 time=0
note_on channel=0 note=91 velocity=0 time=79
note_on channel=0 note=79 velocity=0 time=1
note_on channel=0 note=88 velocity=47 time=0
note_on channel=0 note=88 velocity=0 time=80
note_on channel=0 note=83 velocity=46 time=0
note_on channel=0 note=83 velocity=0 time=60
note_on channel=0 note=89 velocity=42 time=0
note_on channel=0 note=89 velocity=0 time=120
note_on channel=0 note=91 velocity=45 time=0
note_on channel=0 note=79 velocity=37 time=0
note_on channel=0 note=79 velocity=0 time=120
note_on channel=0 note=89 velocity=41 time=0
note_on channel=0 note=91 velocity=0 time=60
note_on channel=0 note=89 velocity=0 time=40
note_on channel=0 note=92 velocity=44 time=0
note_on channel=0 note=83 velocity=43 time=0
note_on channel=0 note=83 velocity=0 time=120
note_on channel=0 note=89 velocity=40 time=0
note_on channel=0 note=92 velocity=0 time=60
note_on channel=0 note=89 velocity=0 time=40
note_on channel=0 note=91 velocity=42 time=0
note_on channel=0 note=79 velocity=36 time=0
note_on channel=0 note=79 velocity=0 time=120
note_on channel=0 note=89 velocity=39 time=0
note_on channel=0 note=91 velocity=0 time=60
note_on channel=0 note=89 velocity=0 time=0
note_on channel=0 note=92 velocity=42 time=0
note_on channel=0 note=83 velocity=41 time=0
note_on channel=0 note=83 velocity=0 time=0
note_on channel=0 note=89 velocity=38 time=0
note_on channel=0 note=92 velocity=0 time=0
note_on channel=0 note=89 velocity=0 time=0
note_on channel=0 note=91 velocity=40 time=0
note_on channel=0 note=79 velocity=32 time=0
note_on channel=0 note=79 velocity=0 time=0
note_on channel=0 note=89 velocity=37 time=0
note_on channel=0 note=91 velocity=0 time=60
note_on channel=0 note=89 velocity=0 time=20
note_on channel=0 note=92 velocity=40 time=0
note_on channel=0 note=83 velocity=39 time=0
note_on channel=0 note=83 velocity=0 time=80
note_on channel=0 note=89 velocity=36 time=0
note_on channel=0 note=92 velocity=0 time=60
note_on channel=0 note=89 velocity=0 time=20
note_on channel=0 note=91 velocity=39 time=0
note_on channel=0 note=79 velocity=31 time=0
note_on channel=0 note=79 velocity=0 time=0
note_on channel=0 note=89 velocity=35 time=0
note_on channel=0 note=91 velocity=0 time=0
note_on channel=0 note=89 velocity=0 time=60
note_on channel=0 note=92 velocity=37 time=0
note_on channel=0 note=83 velocity=36 time=0
note_on channel=0 note=83 velocity=0 time=0
note_on channel=0 note=89 velocity=34 time=0
note_on channel=0 note=92 velocity=0 time=0
note_on channel=0 note=89 velocity=0 time=0
note_on channel=0 note=91 velocity=36 time=0
note_on channel=0 note=79 velocity=30 time=0
note_on channel=0 note=79 velocity=0 time=80
note_on channel=0 note=89 velocity=34 time=0
note_on channel=0 note=91 velocity=0 time=0
note_on channel=0 note=89 velocity=0 time=0
note_on channel=0 note=92 velocity=37 time=0
note_on channel=0 note=83 velocity=36 time=0
note_on channel=0 note=83 velocity=0 time=0
note_on channel=0 note=89 velocity=34 time=0
note_on channel=0 note=92 velocity=0 time=0
note_on channel=0 note=89 velocity=0 time=20
note_on channel=0 note=91 velocity=36 time=0
note_on channel=0 note=79 velocity=31 time=0
note_on channel=0 note=79 velocity=0 time=28
note_on channel=0 note=89 velocity=34 time=0
note_on channel=0 note=91 velocity=0 time=20
note_on channel=0 note=89 velocity=0 time=0
note_on channel=0 note=92 velocity=37 time=0
note_on channel=0 note=83 velocity=36 time=0
note_on channel=0 note=83 velocity=0 time=120
note_on channel=0 note=89 velocity=34 time=0
note_on channel=0 note=92 velocity=0 time=60
note_on channel=0 note=89 velocity=0 time=40
note_on channel=0 note=91 velocity=36 time=0
note_on channel=0 note=79 velocity=29 time=0
note_on channel=0 note=79 velocity=0 time=0
note_on channel=0 note=89 velocity=34 time=0
note_on channel=0 note=91 velocity=0 time=60
note_on channel=0 note=89 velocity=0 time=60
note_on channel=0 note=92 velocity=38 time=0
note_on channel=0 note=83 velocity=36 time=0
note_on channel=0 note=83 velocity=0 time=80
note_on channel=0 note=89 velocity=34 time=0
note_on channel=0 note=92 velocity=0 time=60
note_on channel=0 note=89 velocity=0 time=40
note_on channel=0 note=91 velocity=37 time=0
note_on channel=0 note=79 velocity=30 time=0
note_on channel=0 note=79 velocity=0 time=0
note_on channel=0 note=89 velocity=34 time=0
note_on channel=0 note=91 velocity=0 time=60
note_on channel=0 note=89 velocity=0 time=0
note_on channel=0 note=93 velocity=37 time=0
note_on channel=0 note=83 velocity=37 time=0
note_on channel=0 note=83 velocity=0 time=9
note_on channel=0 note=84 velocity=32 time=0
note_on channel=0 note=93 velocity=0 time=0
note_on channel=0 note=89 velocity=34 time=0
note_on channel=0 note=84 velocity=0 time=0
note_on channel=0 note=83 velocity=36 time=0
note_on channel=0 note=83 velocity=0 time=40
note_on channel=0 note=89 velocity=0 time=0
note_on channel=0 note=91 velocity=36 time=0
note_on channel=0 note=84 velocity=31 time=0
note_on channel=0 note=84 velocity=0 time=10
note_on channel=0 note=83 velocity=36 time=0
note_on channel=0 note=91 velocity=0 time=10
note_on channel=0 note=89 velocity=35 time=0
note_on channel=0 note=83 velocity=0 time=0
note_on channel=0 note=84 velocity=33 time=0
note_on channel=0 note=84 velocity=0 time=0
note_on channel=0 note=89 velocity=0 time=0
note_on channel=0 note=93 velocity=38 time=0
note_on channel=0 note=83 velocity=37 time=0
note_on channel=0 note=83 velocity=0 time=0
note_on channel=0 note=84 velocity=33 time=0
note_on channel=0 note=93 velocity=0 time=40
note_on channel=0 note=89 velocity=36 time=0
note_on channel=0 note=84 velocity=0 time=10
note_on channel=0 note=83 velocity=37 time=0
note_on channel=0 note=83 velocity=0 time=0
note_on channel=0 note=89 velocity=0 time=0
note_on channel=0 note=91 velocity=38 time=0
note_on channel=0 note=84 velocity=33 time=0
note_on channel=0 note=84 velocity=0 time=20
note_on channel=0 note=83 velocity=38 time=0
note_on channel=0 note=91 velocity=0 time=0
note_on channel=0 note=89 velocity=36 time=0
note_on channel=0 note=83 velocity=0 time=0
note_on channel=0 note=84 velocity=34 time=0
note_on channel=0 note=84 velocity=0 time=10
note_on channel=0 note=89 velocity=0 time=0
note_on channel=0 note=93 velocity=40 time=0
note_on channel=0 note=83 velocity=38 time=0
note_on channel=0 note=83 velocity=0 time=0
note_on channel=0 note=84 velocity=35 time=0
note_on channel=0 note=93 velocity=0 time=0
note_on channel=0 note=89 velocity=37 time=0
note_on channel=0 note=84 velocity=0 time=0
note_on channel=0 note=83 velocity=39 time=0
note_on channel=0 note=83 velocity=0 time=20
note_on channel=0 note=89 velocity=0 time=0
note_on channel=0 note=91 velocity=40 time=0
note_on channel=0 note=84 velocity=35 time=0
note_on channel=0 note=84 velocity=0 time=10
note_on channel=0 note=83 velocity=39 time=0
note_on channel=0 note=91 velocity=0 time=10
note_on channel=0 note=89 velocity=38 time=0
note_on channel=0 note=83 velocity=0 time=40
note_on channel=0 note=84 velocity=36 time=0
note_on channel=0 note=84 velocity=0 time=20
note_on channel=0 note=89 velocity=0 time=0
note_on channel=0 note=93 velocity=43 time=0
note_on channel=0 note=83 velocity=40 time=0
note_on channel=0 note=83 velocity=0 time=0
note_on channel=0 note=84 velocity=36 time=0
note_on channel=0 note=93 velocity=0 time=0
note_on channel=0 note=89 velocity=39 time=0
note_on channel=0 note=84 velocity=0 time=0
note_on channel=0 note=83 velocity=40 time=0
note_on channel=0 note=83 velocity=0 time=30
note_on channel=0 note=89 velocity=0 time=0
note_on channel=0 note=91 velocity=43 time=0
note_on channel=0 note=84 velocity=36 time=0
note_on channel=0 note=84 velocity=0 time=20
note_on channel=0 note=83 velocity=41 time=0
note_on channel=0 note=91 velocity=0 time=0
note_on channel=0 note=89 velocity=40 time=0
note_on channel=0 note=83 velocity=0 time=0
note_on channel=0 note=84 velocity=37 time=0
note_on channel=0 note=84 velocity=0 time=0
note_on channel=0 note=89 velocity=0 time=0
note_on channel=0 note=93 velocity=44 time=0
note_on channel=0 note=83 velocity=41 time=0
note_on channel=0 note=83 velocity=0 time=10
note_on channel=0 note=84 velocity=36 time=0
note_on channel=0 note=93 velocity=0 time=0
note_on channel=0 note=84 velocity=0 time=0
note_on channel=0 note=83 velocity=42 time=0
note_on channel=0 note=83 velocity=0 time=0
note_on channel=0 note=89 velocity=43 time=0
note_on channel=0 note=91 velocity=43 time=0
note_on channel=0 note=84 velocity=37 time=0
note_on channel=0 note=84 velocity=0 time=10
note_on channel=0 note=83 velocity=42 time=0
note_on channel=0 note=91 velocity=0 time=0
note_on channel=0 note=89 velocity=0 time=0
note_on channel=0 note=83 velocity=0 time=20
note_on channel=0 note=84 velocity=37 time=0
note_on channel=0 note=84 velocity=0 time=10
note_on channel=0 note=89 velocity=46 time=0
note_on channel=0 note=91 velocity=46 time=0
note_on channel=0 note=83 velocity=43 time=0
note_on channel=0 note=83 velocity=0 time=30
note_on channel=0 note=84 velocity=38 time=0
note_on channel=0 note=91 velocity=0 time=0
note_on channel=0 note=89 velocity=0 time=0
note_on channel=0 note=84 velocity=0 time=0
note_on channel=0 note=83 velocity=43 time=0
note_on channel=0 note=83 velocity=0 time=0
note_on channel=0 note=89 velocity=46 time=0
note_on channel=0 note=91 velocity=46 time=0
note_on channel=0 note=84 velocity=39 time=0
note_on channel=0 note=84 velocity=0 time=0
note_on channel=0 note=83 velocity=44 time=0
note_on channel=0 note=91 velocity=0 time=0
note_on channel=0 note=89 velocity=0 time=0
note_on channel=0 note=83 velocity=0 time=0
note_on channel=0 note=84 velocity=39 time=0
note_on channel=0 note=84 velocity=0 time=10
note_on channel=0 note=89 velocity=49 time=0
note_on channel=0 note=91 velocity=49 time=0
note_on channel=0 note=83 velocity=44 time=0
note_on channel=0 note=83 velocity=0 time=0
note_on channel=0 note=84 velocity=38 time=0
note_on channel=0 note=91 velocity=0 time=0
note_on channel=0 note=89 velocity=0 time=0
note_on channel=0 note=84 velocity=0 time=0
note_on channel=0 note=83 velocity=45 time=0
note_on channel=0 note=83 velocity=0 time=0
note_on channel=0 note=89 velocity=49 time=0
note_on channel=0 note=91 velocity=49 time=0
note_on channel=0 note=84 velocity=38 time=0
note_on channel=0 note=84 velocity=0 time=10
note_on channel=0 note=83 velocity=45 time=0
note_on channel=0 note=91 velocity=0 time=0
note_on channel=0 note=89 velocity=0 time=0
note_on channel=0 note=83 velocity=0 time=0
note_on channel=0 note=84 velocity=40 time=0
note_on channel=0 note=84 velocity=0 time=30
note_on channel=0 note=89 velocity=54 time=0
note_on channel=0 note=91 velocity=54 time=0
note_on channel=0 note=83 velocity=50 time=0
note_on channel=0 note=83 velocity=0 time=16
note_on channel=0 note=84 velocity=44 time=0
note_on channel=0 note=91 velocity=0 time=0
note_on channel=0 note=89 velocity=0 time=0
note_on channel=0 note=84 velocity=0 time=32
note_on channel=0 note=83 velocity=50 time=0
note_on channel=0 note=89 velocity=53 time=0
note_on channel=0 note=91 velocity=53 time=0
note_on channel=0 note=83 velocity=0 time=8
note_on channel=0 note=81 velocity=52 time=0
note_on channel=0 note=91 velocity=0 time=0
note_on channel=0 note=89 velocity=0 time=0
note_on channel=0 note=81 velocity=0 time=24
note_on channel=0 note=83 velocity=47 time=0
note_on channel=0 note=83 velocity=0 time=96
note_on channel=0 note=84 velocity=82 time=0
note_on channel=0 note=60 velocity=52 time=0
note_on channel=0 note=72 velocity=62 time=0
note_on channel=0 note=72 velocity=0 time=0
note_on channel=0 note=64 velocity=38 time=0
note_on channel=0 note=67 velocity=38 time=0
note_on channel=0 note=70 velocity=45 time=0
note_on channel=0 note=84 velocity=0 time=480
note_on channel=0 note=84 velocity=58 time=0
note_on channel=0 note=84 velocity=0 time=120
note_on channel=0 note=82 velocity=57 time=0
note_on channel=0 note=82 velocity=0 time=120
note_on channel=0 note=80 velocity=56 time=0
note_on channel=0 note=80 velocity=0 time=120
note_on channel=0 note=79 velocity=55 time=0
note_on channel=0 note=79 velocity=0 time=120
note_on channel=0 note=67 velocity=0 time=0
note_on channel=0 note=70 velocity=0 time=0
note_on channel=0 note=64 velocity=0 time=0
note_on channel=0 note=80 velocity=58 time=0
note_on channel=0 note=65 velocity=39 time=0
note_on channel=0 note=68 velocity=47 time=0
note_on channel=0 note=80 velocity=0 time=120
note_on channel=0 note=79 velocity=57 time=0
note_on channel=0 note=79 velocity=0 time=120
note_on channel=0 note=77 velocity=56 time=0
note_on channel=0 note=77 velocity=0 time=120
note_on channel=0 note=76 velocity=55 time=0
note_on channel=0 note=76 velocity=0 time=120
note_on channel=0 note=77 velocity=51 time=0
note_on channel=0 note=77 velocity=0 time=120
note_on channel=0 note=79 velocity=52 time=0
note_on channel=0 note=79 velocity=0 time=120
note_on channel=0 note=80 velocity=53 time=0
note_on channel=0 note=80 velocity=0 time=0
note_on channel=0 note=82 velocity=54 time=0
note_on channel=0 note=82 velocity=0 time=0
note_on channel=0 note=68 velocity=0 time=0
note_on channel=0 note=65 velocity=0 time=0
note_on channel=0 note=84 velocity=56 time=0
note_on channel=0 note=64 velocity=39 time=0
note_on channel=0 note=67 velocity=39 time=0
note_on channel=0 note=70 velocity=46 time=0
note_on channel=0 note=84 velocity=0 time=120
note_on channel=0 note=85 velocity=57 time=0
note_on channel=0 note=85 velocity=0 time=120
note_on channel=0 note=84 velocity=57 time=0
note_on channel=0 note=84 velocity=0 time=120
note_on channel=0 note=83 velocity=56 time=0
note_on channel=0 note=83 velocity=0 time=40
note_on channel=0 note=84 velocity=56 time=0
note_on channel=0 note=84 velocity=0 time=120
note_on channel=0 note=82 velocity=56 time=0
note_on channel=0 note=82 velocity=0 time=80
note_on channel=0 note=80 velocity=56 time=0
note_on channel=0 note=80 velocity=0 time=0
note_on channel=0 note=79 velocity=56 time=0
note_on channel=0 note=79 velocity=0 time=120
note_on channel=0 note=70 velocity=0 time=0
note_on channel=0 note=60 velocity=0 time=0
note_on channel=0 note=64 velocity=0 time=0
note_on channel=0 note=67 velocity=0 time=0
note_on channel=0 note=80 velocity=57 time=0
note_on channel=0 note=68 velocity=48 time=0
note_on channel=0 note=65 velocity=40 time=0
note_on channel=0 note=80 velocity=0 time=40
note_on channel=0 note=82 velocity=57 time=0
note_on channel=0 note=82 velocity=0 time=120
note_on channel=0 note=80 velocity=57 time=0
note_on channel=0 note=80 velocity=0 time=80
note_on channel=0 note=79 velocity=53 time=0
note_on channel=0 note=79 velocity=0 time=0
note_on channel=0 note=65 velocity=0 time=0
note_on channel=0 note=68 velocity=0 time=0
note_on channel=0 note=77 velocity=56 time=0
note_on channel=0 note=77 velocity=0 time=120
note_on channel=0 note=76 velocity=52 time=0
note_on channel=0 note=76 velocity=0 time=40
note_on channel=0 note=77 velocity=56 time=0
note_on channel=0 note=77 velocity=0 time=120
note_on channel=0 note=79 velocity=52 time=0
note_on channel=0 note=79 velocity=0 time=0
note_on channel=0 note=68 velocity=45 time=0
note_on channel=0 note=80 velocity=59 time=0
note_on channel=0 note=65 velocity=47 time=0
note_on channel=0 note=61 velocity=39 time=0
note_on channel=0 note=56 velocity=39 time=0
note_on channel=0 note=53 velocity=39 time=0
note_on channel=0 note=80 velocity=0 time=331
note_on channel=0 note=77 velocity=52 time=0
note_on channel=0 note=77 velocity=0 time=0
note_on channel=0 note=73 velocity=52 time=0
note_on channel=0 note=73 velocity=0 time=0
note_on channel=0 note=65 velocity=0 time=0
note_on channel=0 note=61 velocity=0 time=0
note_on channel=0 note=68 velocity=0 time=0
note_on channel=0 note=53 velocity=0 time=0
note_on channel=0 note=56 velocity=0 time=0
note_on channel=0 note=67 velocity=45 time=0
note_on channel=0 note=79 velocity=57 time=0
note_on channel=0 note=60 velocity=39 time=0
note_on channel=0 note=55 velocity=39 time=0
note_on channel=0 note=63 velocity=46 time=0
note_on channel=0 note=79 velocity=0 time=285
note_on channel=0 note=75 velocity=52 time=0
note_on channel=0 note=75 velocity=0 time=0
note_on channel=0 note=72 velocity=52 time=0
note_on channel=0 note=72 velocity=0 time=0
note_on channel=0 note=55 velocity=0 time=0
note_on channel=0 note=67 velocity=0 time=0
note_on channel=0 note=60 velocity=0 time=0
note_on channel=0 note=63 velocity=0 time=0
note_on channel=0 note=65 velocity=45 time=0
note_on channel=0 note=77 velocity=57 time=0
note_on channel=0 note=55 velocity=37 time=0
note_on channel=0 note=59 velocity=37 time=0
note_on channel=0 note=62 velocity=44 time=0
note_on channel=0 note=77 velocity=0 time=343
note_on channel=0 note=74 velocity=52 time=0
note_on channel=0 note=74 velocity=0 time=240
note_on channel=0 note=71 velocity=52 time=0
note_on channel=0 note=71 velocity=0 time=0
note_on channel=0 note=59 velocity=0 time=0
note_on channel=0 note=65 velocity=0 time=0
note_on channel=0 note=55 velocity=0 time=0
note_on channel=0 note=62 velocity=0 time=0
note_on channel=0 note=72 velocity=72 time=0
note_on channel=0 note=60 velocity=56 time=0
note_on channel=0 note=48 velocity=45 time=0
note_on channel=0 note=60 velocity=0 time=0
note_on channel=0 note=52 velocity=38 time=0
note_on channel=0 note=55 velocity=38 time=0
note_on channel=0 note=58 velocity=45 time=0
note_on channel=0 note=72 velocity=0 time=480
note_on channel=0 note=72 velocity=58 time=0
note_on channel=0 note=72 velocity=0 time=120
note_on channel=0 note=70 velocity=57 time=0
note_on channel=0 note=70 velocity=0 time=120
note_on channel=0 note=69 velocity=56 time=0
note_on channel=0 note=69 velocity=0 time=120
note_on channel=0 note=67 velocity=55 time=0
note_on channel=0 note=67 velocity=0 time=120
note_on channel=0 note=55 velocity=0 time=0
note_on channel=0 note=58 velocity=0 time=0
note_on channel=0 note=52 velocity=0 time=0
note_on channel=0 note=69 velocity=58 time=0
note_on channel=0 note=53 velocity=39 time=0
note_on channel=0 note=57 velocity=47 time=0
note_on channel=0 note=69 velocity=0 time=120
note_on channel=0 note=67 velocity=57 time=0
note_on channel=0 note=67 velocity=0 time=120
note_on channel=0 note=65 velocity=56 time=0
note_on channel=0 note=65 velocity=0 time=120
note_on channel=0 note=64 velocity=55 time=0
note_on channel=0 note=64 velocity=0 time=120
note_on channel=0 note=65 velocity=51 time=0
note_on channel=0 note=65 velocity=0 time=120
note_on channel=0 note=67 velocity=52 time=0
note_on channel=0 note=67 velocity=0 time=120
note_on channel=0 note=69 velocity=53 time=0
note_on channel=0 note=69 velocity=0 time=0
note_on channel=0 note=70 velocity=54 time=0
note_on channel=0 note=70 velocity=0 time=0
note_on channel=0 note=57 velocity=0 time=0
note_on channel=0 note=53 velocity=0 time=0
note_on channel=0 note=72 velocity=56 time=0
note_on channel=0 note=55 velocity=39 time=0
note_on channel=0 note=58 velocity=46 time=0
note_on channel=0 note=52 velocity=39 time=0
note_on channel=0 note=72 velocity=0 time=120
note_on channel=0 note=74 velocity=57 time=0
note_on channel=0 note=74 velocity=0 time=120
note_on channel=0 note=72 velocity=57 time=0
note_on channel=0 note=72 velocity=0 time=120
note_on channel=0 note=71 velocity=56 time=0
note_on channel=0 note=71 velocity=0 time=0
note_on channel=0 note=72 velocity=56 time=0
note_on channel=0 note=72 velocity=0 time=120
note_on channel=0 note=70 velocity=56 time=0
note_on channel=0 note=70 velocity=0 time=80
note_on channel=0 note=69 velocity=56 time=0
note_on channel=0 note=69 velocity=0 time=80
note_on channel=0 note=67 velocity=56 time=0
note_on channel=0 note=67 velocity=0 time=80
note_on channel=0 note=52 velocity=0 time=0
note_on channel=0 note=48 velocity=0 time=0
note_on channel=0 note=55 velocity=0 time=0
note_on channel=0 note=58 velocity=0 time=0
note_on channel=0 note=69 velocity=57 time=0
note_on channel=0 note=53 velocity=48 time=0
note_on channel=0 note=57 velocity=48 time=0
note_on channel=0 note=69 velocity=0 time=80
note_on channel=0 note=70 velocity=57 time=0
note_on channel=0 note=70 velocity=0 time=80
note_on channel=0 note=69 velocity=57 time=0
note_on channel=0 note=69 velocity=0 time=80
note_on channel=0 note=67 velocity=53 time=0
note_on channel=0 note=67 velocity=0 time=80
note_on channel=0 note=57 velocity=0 time=0
note_on channel=0 note=53 velocity=0 time=0
note_on channel=0 note=65 velocity=56 time=0
note_on channel=0 note=65 velocity=0 time=80
note_on channel=0 note=64 velocity=52 time=0
note_on channel=0 note=64 velocity=0 time=80
note_on channel=0 note=65 velocity=56 time=0
note_on channel=0 note=65 velocity=0 time=80
note_on channel=0 note=67 velocity=52 time=0
note_on channel=0 note=67 velocity=0 time=0
note_on channel=0 note=57 velocity=45 time=0
note_on channel=0 note=69 velocity=59 time=0
note_on channel=0 note=41 velocity=39 time=0
note_on channel=0 note=50 velocity=47 time=0
note_on channel=0 note=45 velocity=39 time=0
note_on channel=0 note=69 velocity=0 time=268
note_on channel=0 note=65 velocity=52 time=0
note_on channel=0 note=65 velocity=0 time=0
note_on channel=0 note=62 velocity=52 time=0
note_on channel=0 note=62 velocity=0 time=0
note_on channel=0 note=50 velocity=0 time=0
note_on channel=0 note=57 velocity=0 time=0
note_on channel=0 note=41 velocity=0 time=0
note_on channel=0 note=45 velocity=0 time=0
note_on channel=0 note=55 velocity=45 time=0
note_on channel=0 note=67 velocity=57 time=0
note_on channel=0 note=48 velocity=39 time=0
note_on channel=0 note=43 velocity=39 time=0
note_on channel=0 note=52 velocity=46 time=0
note_on channel=0 note=67 velocity=0 time=240
note_on channel=0 note=64 velocity=52 time=0
note_on channel=0 note=64 velocity=0 time=0
note_on channel=0 note=60 velocity=52 time=0
note_on channel=0 note=60 velocity=0 time=0
note_on channel=0 note=52 velocity=0 time=0
note_on channel=0 note=48 velocity=0 time=0
note_on channel=0 note=65 velocity=57 time=0
note_on channel=0 note=50 velocity=37 time=0
note_on channel=0 note=53 velocity=44 time=0
note_on channel=0 note=65 velocity=0 time=0
note_on channel=0 note=62 velocity=52 time=0
note_on channel=0 note=62 velocity=0 time=240
note_on channel=0 note=59 velocity=52 time=0
note_on channel=0 note=59 velocity=0 time=0
note_on channel=0 note=50 velocity=0 time=0
note_on channel=0 note=43 velocity=0 time=0
note_on channel=0 note=55 velocity=0 time=0
note_on channel=0 note=53 velocity=0 time=0
note_on channel=0 note=55 velocity=51 time=0
note_on channel=0 note=60 velocity=55 time=0
note_on channel=0 note=48 velocity=37 time=0
note_on channel=0 note=52 velocity=44 time=0
note_on channel=0 note=52 velocity=0 time=0
note_on channel=0 note=55 velocity=0 time=0
note_on channel=0 note=60 velocity=0 time=0
note_on channel=0 note=48 velocity=0 time=0
note_on channel=0 note=72 velocity=68 time=0
note_on channel=0 note=48 velocity=51 time=0
note_on channel=0 note=40 velocity=42 time=0
note_on channel=0 note=72 velocity=0 time=240
note_on channel=0 note=71 velocity=64 time=0
note_on channel=0 note=71 velocity=0 time=240
note_on channel=0 note=40 velocity=0 time=0
note_on channel=0 note=69 velocity=66 time=0
note_on channel=0 note=41 velocity=42 time=0
note_on channel=0 note=48 velocity=0 time=240
note_on channel=0 note=50 velocity=49 time=0
note_on channel=0 note=50 velocity=0 time=240
note_on channel=0 note=69 velocity=0 time=0
note_on channel=0 note=65 velocity=61 time=0
note_on channel=0 note=52 velocity=51 time=0
note_on channel=0 note=52 velocity=0 time=0
note_on channel=0 note=65 velocity=0 time=0
note_on channel=0 note=62 velocity=54 time=0
note_on channel=0 note=53 velocity=55 time=0
note_on channel=0 note=53 velocity=0 time=0
note_on channel=0 note=62 velocity=0 time=0
note_on channel=0 note=41 velocity=0 time=0
note_on channel=0 note=67 velocity=51 time=0
note_on channel=0 note=43 velocity=35 time=0
note_on channel=0 note=52 velocity=35 time=0
note_on channel=0 note=55 velocity=41 time=0
note_on channel=0 note=67 velocity=0 time=353
note_on channel=0 note=64 velocity=46 time=0
note_on channel=0 note=64 velocity=0 time=240
note_on channel=0 note=60 velocity=46 time=0
note_on channel=0 note=60 velocity=0 time=240
note_on channel=0 note=55 velocity=0 time=0
note_on channel=0 note=52 velocity=0 time=0
note_on channel=0 note=65 velocity=51 time=0
note_on channel=0 note=50 velocity=33 time=0
note_on channel=0 note=53 velocity=39 time=0
note_on channel=0 note=65 velocity=0 time=310
note_on channel=0 note=62 velocity=46 time=0
note_on channel=0 note=62 velocity=0 time=240
note_on channel=0 note=59 velocity=46 time=0
note_on channel=0 note=59 velocity=0 time=0
note_on channel=0 note=43 velocity=0 time=0
note_on channel=0 note=50 velocity=0 time=0
note_on channel=0 note=53 velocity=0 time=0
note_on channel=0 note=60 velocity=55 time=0
note_on channel=0 note=52 velocity=44 time=0
note_on channel=0 note=48 velocity=37 time=0
note_on channel=0 note=48 velocity=0 time=0
note_on channel=0 note=52 velocity=0 time=0
note_on channel=0 note=60 velocity=0 time=0
note_on channel=0 note=77 velocity=68 time=0
note_on channel=0 note=45 velocity=42 time=0
note_on channel=0 note=53 velocity=51 time=0
note_on channel=0 note=77 velocity=0 time=240
note_on channel=0 note=76 velocity=64 time=0
note_on channel=0 note=76 velocity=0 time=240
note_on channel=0 note=45 velocity=0 time=0
note_on channel=0 note=74 velocity=66 time=0
note_on channel=0 note=46 velocity=42 time=0
note_on channel=0 note=53 velocity=0 time=240
note_on channel=0 note=55 velocity=49 time=0
note_on channel=0 note=55 velocity=0 time=240
note_on channel=0 note=74 velocity=0 time=0
note_on channel=0 note=70 velocity=61 time=0
note_on channel=0 note=57 velocity=51 time=0
note_on channel=0 note=57 velocity=0 time=0
note_on channel=0 note=70 velocity=0 time=0
note_on channel=0 note=67 velocity=54 time=0
note_on channel=0 note=58 velocity=55 time=0
note_on channel=0 note=58 velocity=0 time=0
note_on channel=0 note=67 velocity=0 time=0
note_on channel=0 note=46 velocity=0 time=0
note_on channel=0 note=72 velocity=51 time=0
note_on channel=0 note=60 velocity=41 time=0
note_on channel=0 note=57 velocity=35 time=0
note_on channel=0 note=48 velocity=35 time=0
note_on channel=0 note=72 velocity=0 time=240
note_on channel=0 note=69 velocity=46 time=0
note_on channel=0 note=69 velocity=0 time=0
note_on channel=0 note=65 velocity=46 time=0
note_on channel=0 note=65 velocity=0 time=0
note_on channel=0 note=60 velocity=0 time=0
note_on channel=0 note=57 velocity=0 time=0
note_on channel=0 note=70 velocity=51 time=0
note_on channel=0 note=55 velocity=33 time=0
note_on channel=0 note=58 velocity=39 time=0
note_on channel=0 note=70 velocity=0 time=296
note_on channel=0 note=67 velocity=46 time=0
note_on channel=0 note=67 velocity=0 time=0
note_on channel=0 note=64 velocity=46 time=0
note_on channel=0 note=64 velocity=0 time=240
note_on channel=0 note=48 velocity=0 time=0
note_on channel=0 note=55 velocity=0 time=0
note_on channel=0 note=58 velocity=0 time=0
note_on channel=0 note=65 velocity=55 time=0
note_on channel=0 note=56 velocity=44 time=0
note_on channel=0 note=53 velocity=37 time=0
note_on channel=0 note=53 velocity=0 time=0
note_on channel=0 note=56 velocity=0 time=0
note_on channel=0 note=65 velocity=0 time=0
note_on channel=0 note=77 velocity=67 time=0
note_on channel=0 note=44 velocity=42 time=0
note_on channel=0 note=53 velocity=51 time=0
note_on channel=0 note=77 velocity=0 time=240
note_on channel=0 note=75 velocity=63 time=0
note_on channel=0 note=75 velocity=0 time=240
note_on channel=0 note=44 velocity=0 time=0
note_on channel=0 note=73 velocity=66 time=0
note_on channel=0 note=46 velocity=42 time=0
note_on channel=0 note=53 velocity=0 time=240
note_on channel=0 note=55 velocity=49 time=0
note_on channel=0 note=55 velocity=0 time=240
note_on channel=0 note=73 velocity=0 time=0
note_on channel=0 note=70 velocity=61 time=0
note_on channel=0 note=56 velocity=51 time=0
note_on channel=0 note=56 velocity=0 time=0
note_on channel=0 note=70 velocity=0 time=0
note_on channel=0 note=67 velocity=54 time=0
note_on channel=0 note=58 velocity=55 time=0
note_on channel=0 note=58 velocity=0 time=0
note_on channel=0 note=67 velocity=0 time=0
note_on channel=0 note=46 velocity=0 time=0
note_on channel=0 note=72 velocity=51 time=0
note_on channel=0 note=48 velocity=35 time=0
note_on channel=0 note=60 velocity=41 time=0
note_on channel=0 note=56 velocity=35 time=0
note_on channel=0 note=72 velocity=0 time=251
note_on channel=0 note=68 velocity=46 time=0
note_on channel=0 note=68 velocity=0 time=0
note_on channel=0 note=65 velocity=46 time=0
note_on channel=0 note=65 velocity=0 time=0
note_on channel=0 note=56 velocity=0 time=0
note_on channel=0 note=60 velocity=0 time=0
note_on channel=0 note=70 velocity=51 time=0
note_on channel=0 note=55 velocity=33 time=0
note_on channel=0 note=58 velocity=39 time=0
note_on channel=0 note=70 velocity=0 time=308
note_on channel=0 note=67 velocity=46 time=0
note_on channel=0 note=67 velocity=0 time=0
note_on channel=0 note=64 velocity=46 time=0
note_on channel=0 note=64 velocity=0 time=0
note_on channel=0 note=48 velocity=0 time=0
note_on channel=0 note=55 velocity=0 time=0
note_on channel=0 note=58 velocity=0 time=0
note_on channel=0 note=65 velocity=40 time=0
note_on channel=0 note=49 velocity=25 time=0
note_on channel=0 note=56 velocity=28 time=0
note_on channel=0 note=53 velocity=25 time=0
note_on channel=0 note=53 velocity=0 time=109
note_on channel=0 note=56 velocity=0 time=0
note_on channel=0 note=49 velocity=0 time=0
note_on channel=0 note=65 velocity=0 time=120
note_on channel=0 note=49 velocity=28 time=0
note_on channel=0 note=53 velocity=33 time=0
note_on channel=0 note=37 velocity=22 time=0
note_on channel=0 note=44 velocity=26 time=0
note_on channel=0 note=44 velocity=0 time=120
note_on channel=0 note=49 velocity=0 time=0
note_on channel=0 note=53 velocity=0 time=0
note_on channel=0 note=37 velocity=0 time=0
note_on channel=0 note=49 velocity=28 time=0
note_on channel=0 note=53 velocity=33 time=0
note_on channel=0 note=44 velocity=26 time=0
note_on channel=0 note=37 velocity=22 time=0
note_on channel=0 note=37 velocity=0 time=120
note_on channel=0 note=49 velocity=0 time=0
note_on channel=0 note=53 velocity=0 time=0
note_on channel=0 note=44 velocity=0 time=0
note_on channel=0 note=49 velocity=28 time=120
note_on channel=0 note=53 velocity=34 time=0
note_on channel=0 note=44 velocity=27 time=0
note_on channel=0 note=37 velocity=22 time=0
note_on channel=0 note=37 velocity=0 time=120
note_on channel=0 note=49 velocity=0 time=0
note_on channel=0 note=53 velocity=0 time=0
note_on channel=0 note=44 velocity=0 time=0
note_on channel=0 note=49 velocity=28 time=120
note_on channel=0 note=53 velocity=34 time=0
note_on channel=0 note=37 velocity=22 time=0
note_on channel=0 note=44 velocity=27 time=0
note_on channel=0 note=44 velocity=0 time=100
note_on channel=0 note=49 velocity=0 time=0
note_on channel=0 note=53 velocity=0 time=0
note_on channel=0 note=37 velocity=0 time=0
note_on channel=0 note=49 velocity=28 time=120
note_on channel=0 note=53 velocity=34 time=0
note_on channel=0 note=44 velocity=28 time=0
note_on channel=0 note=37 velocity=23 time=0
note_on channel=0 note=37 velocity=0 time=120
note_on channel=0 note=49 velocity=0 time=0
note_on channel=0 note=53 velocity=0 time=0
note_on channel=0 note=44 velocity=0 time=0
note_on channel=0 note=49 velocity=29 time=0
note_on channel=0 note=53 velocity=35 time=0
note_on channel=0 note=44 velocity=28 time=0
note_on channel=0 note=37 velocity=23 time=0
note_on channel=0 note=37 velocity=0 time=120
note_on channel=0 note=49 velocity=0 time=0
note_on channel=0 note=53 velocity=0 time=0
note_on channel=0 note=44 velocity=0 time=0
note_on channel=0 note=49 velocity=29 time=120
note_on channel=0 note=53 velocity=35 time=0
note_on channel=0 note=37 velocity=24 time=0
note_on channel=0 note=44 velocity=29 time=0
note_on channel=0 note=44 velocity=0 time=120
note_on channel=0 note=49 velocity=0 time=0
note_on channel=0 note=53 velocity=0 time=0
note_on channel=0 note=37 velocity=0 time=0
note_on channel=0 note=49 velocity=30 time=120
note_on channel=0 note=53 velocity=36 time=0
note_on channel=0 note=37 velocity=25 time=0
note_on channel=0 note=44 velocity=30 time=0
note_on channel=0 note=44 velocity=0 time=80
note_on channel=0 note=49 velocity=0 time=0
note_on channel=0 note=53 velocity=0 time=0
note_on channel=0 note=37 velocity=0 time=0
note_on channel=0 note=49 velocity=30 time=120
note_on channel=0 note=53 velocity=36 time=0
note_on channel=0 note=44 velocity=27 time=0
note_on channel=0 note=37 velocity=22 time=0
note_on channel=0 note=37 velocity=0 time=120
note_on channel=0 note=49 velocity=0 time=0
note_on channel=0 note=53 velocity=0 time=0
note_on channel=0 note=44 velocity=0 time=0
note_on channel=0 note=49 velocity=31 time=0
note_on channel=0 note=53 velocity=37 time=0
note_on channel=0 note=37 velocity=23 time=0
note_on channel=0 note=44 velocity=28 time=0
note_on channel=0 note=44 velocity=0 time=120
note_on channel=0 note=49 velocity=0 time=0
note_on channel=0 note=53 velocity=0 time=0
note_on channel=0 note=37 velocity=0 time=0
note_on channel=0 note=49 velocity=32 time=120
note_on channel=0 note=53 velocity=38 time=0
note_on channel=0 note=44 velocity=29 time=0
note_on channel=0 note=37 velocity=24 time=0
note_on channel=0 note=37 velocity=0 time=120
note_on channel=0 note=49 velocity=0 time=0
note_on channel=0 note=53 velocity=0 time=0
note_on channel=0 note=44 velocity=0 time=0
note_on channel=0 note=49 velocity=33 time=0
note_on channel=0 note=53 velocity=39 time=0
note_on channel=0 note=37 velocity=25 time=0
note_on channel=0 note=44 velocity=30 time=0
note_on channel=0 note=44 velocity=0 time=120
note_on channel=0 note=49 velocity=0 time=0
note_on channel=0 note=53 velocity=0 time=0
note_on channel=0 note=37 velocity=0 time=0
note_on channel=0 note=49 velocity=34 time=120
note_on channel=0 note=53 velocity=40 time=0
note_on channel=0 note=37 velocity=25 time=0
note_on channel=0 note=44 velocity=30 time=0
note_on channel=0 note=44 velocity=0 time=120
note_on channel=0 note=49 velocity=0 time=0
note_on channel=0 note=53 velocity=0 time=0
note_on channel=0 note=37 velocity=0 time=0
note_on channel=0 note=51 velocity=34 time=120
note_on channel=0 note=55 velocity=40 time=0
note_on channel=0 note=37 velocity=25 time=0
note_on channel=0 note=46 velocity=30 time=0
note_on channel=0 note=46 velocity=0 time=120
note_on channel=0 note=51 velocity=0 time=0
note_on channel=0 note=55 velocity=0 time=0
note_on channel=0 note=37 velocity=0 time=0
note_on channel=0 note=51 velocity=34 time=120
note_on channel=0 note=55 velocity=40 time=0
note_on channel=0 note=37 velocity=25 time=0
note_on channel=0 note=46 velocity=30 time=0
note_on channel=0 note=46 velocity=0 time=120
note_on channel=0 note=51 velocity=0 time=0
note_on channel=0 note=55 velocity=0 time=0
note_on channel=0 note=37 velocity=0 time=0
note_on channel=0 note=56 velocity=46 time=0
note_on channel=0 note=36 velocity=25 time=0
note_on channel=0 note=44 velocity=30 time=0
note_on channel=0 note=39 velocity=25 time=0
note_on channel=0 note=39 velocity=0 time=180
note_on channel=0 note=44 velocity=0 time=0
note_on channel=0 note=36 velocity=0 time=0
note_on channel=0 note=36 velocity=25 time=60
note_on channel=0 note=39 velocity=25 time=0
note_on channel=0 note=44 velocity=30 time=0
note_on channel=0 note=44 velocity=0 time=180
note_on channel=0 note=39 velocity=0 time=0
note_on channel=0 note=36 velocity=0 time=0
note_on channel=0 note=36 velocity=25 time=60
note_on channel=0 note=39 velocity=25 time=0
note_on channel=0 note=44 velocity=30 time=0
note_on channel=0 note=44 velocity=0 time=180
note_on channel=0 note=39 velocity=0 time=0
note_on channel=0 note=36 velocity=0 time=0
note_on channel=0 note=56 velocity=0 time=60
note_on channel=0 note=60 velocity=40 time=0
note_on channel=0 note=36 velocity=25 time=0
note_on channel=0 note=39 velocity=25 time=0
note_on channel=0 note=44 velocity=30 time=0
note_on channel=0 note=60 velocity=0 time=120
note_on channel=0 note=58 velocity=40 time=0
note_on channel=0 note=36 velocity=0 time=60
note_on channel=0 note=44 velocity=0 time=0
note_on channel=0 note=39 velocity=0 time=0
note_on channel=0 note=58 velocity=0 time=60
note_on channel=0 note=56 velocity=45 time=0
note_on channel=0 note=36 velocity=25 time=0
note_on channel=0 note=39 velocity=25 time=0
note_on channel=0 note=44 velocity=30 time=0
note_on channel=0 note=56 velocity=0 time=120
note_on channel=0 note=36 velocity=0 time=60
note_on channel=0 note=39 velocity=0 time=0
note_on channel=0 note=44 velocity=0 time=0
note_on channel=0 note=44 velocity=30 time=60
note_on channel=0 note=39 velocity=25 time=0
note_on channel=0 note=36 velocity=25 time=0
note_on channel=0 note=36 velocity=0 time=180
note_on channel=0 note=39 velocity=0 time=0
note_on channel=0 note=44 velocity=0 time=0
note_on channel=0 note=36 velocity=25 time=60
note_on channel=0 note=39 velocity=25 time=0
note_on channel=0 note=44 velocity=30 time=0
note_on channel=0 note=44 velocity=0 time=180
note_on channel=0 note=39 velocity=0 time=0
note_on channel=0 note=36 velocity=0 time=0
note_on channel=0 note=36 velocity=25 time=0
note_on channel=0 note=39 velocity=25 time=0
note_on channel=0 note=44 velocity=30 time=0
note_on channel=0 note=44 velocity=0 time=180
note_on channel=0 note=39 velocity=0 time=0
note_on channel=0 note=36 velocity=0 time=0
note_on channel=0 note=86 velocity=72 time=0
note_on channel=0 note=86 velocity=0 time=0
note_on channel=0 note=87 velocity=89 time=0
note_on channel=0 note=41 velocity=38 time=0
note_on channel=0 note=39 velocity=38 time=0
note_on channel=0 note=36 velocity=38 time=0
note_on channel=0 note=45 velocity=47 time=0
note_on channel=0 note=45 velocity=0 time=180
note_on channel=0 note=39 velocity=0 time=0
note_on channel=0 note=36 velocity=0 time=0
note_on channel=0 note=41 velocity=0 time=0
note_on channel=0 note=39 velocity=38 time=60
note_on channel=0 note=36 velocity=38 time=0
note_on channel=0 note=45 velocity=47 time=0
note_on channel=0 note=41 velocity=38 time=0
note_on channel=0 note=41 velocity=0 time=180
note_on channel=0 note=36 velocity=0 time=0
note_on channel=0 note=45 velocity=0 time=0
note_on channel=0 note=39 velocity=0 time=0
note_on channel=0 note=39 velocity=38 time=60
note_on channel=0 note=36 velocity=38 time=0
note_on channel=0 note=41 velocity=38 time=0
note_on channel=0 note=45 velocity=47 time=0
note_on channel=0 note=87 velocity=0 time=120
note_on channel=0 note=85 velocity=75 time=0
note_on channel=0 note=41 velocity=0 time=60
note_on channel=0 note=45 velocity=0 time=0
note_on channel=0 note=39 velocity=0 time=0
note_on channel=0 note=36 velocity=0 time=0
note_on channel=0 note=85 velocity=0 time=60
note_on channel=0 note=84 velocity=73 time=0
note_on channel=0 note=41 velocity=38 time=0
note_on channel=0 note=39 velocity=38 time=0
note_on channel=0 note=36 velocity=38 time=0
note_on channel=0 note=45 velocity=47 time=0
note_on channel=0 note=84 velocity=0 time=120
note_on channel=0 note=82 velocity=70 time=0
note_on channel=0 note=36 velocity=0 time=60
note_on channel=0 note=45 velocity=0 time=0
note_on channel=0 note=41 velocity=0 time=0
note_on channel=0 note=39 velocity=0 time=0
note_on channel=0 note=82 velocity=0 time=0
note_on channel=0 note=81 velocity=69 time=0
note_on channel=0 note=41 velocity=38 time=0
note_on channel=0 note=45 velocity=47 time=0
note_on channel=0 note=36 velocity=38 time=0
note_on channel=0 note=39 velocity=38 time=0
note_on channel=0 note=39 velocity=0 time=180
note_on channel=0 note=45 velocity=0 time=0
note_on channel=0 note=36 velocity=0 time=0
note_on channel=0 note=41 velocity=0 time=0
note_on channel=0 note=81 velocity=0 time=60
note_on channel=0 note=36 velocity=37 time=0
note_on channel=0 note=39 velocity=37 time=0
note_on channel=0 note=41 velocity=37 time=0
note_on channel=0 note=45 velocity=45 time=0
note_on channel=0 note=45 velocity=0 time=180
note_on channel=0 note=36 velocity=0 time=0
note_on channel=0 note=39 velocity=0 time=0
note_on channel=0 note=41 velocity=0 time=0
note_on channel=0 note=41 velocity=37 time=60
note_on channel=0 note=39 velocity=37 time=0
note_on channel=0 note=36 velocity=37 time=0
note_on channel=0 note=45 velocity=45 time=0
note_on channel=0 note=45 velocity=0 time=180
note_on channel=0 note=41 velocity=0 time=0
note_on channel=0 note=39 velocity=0 time=0
note_on channel=0 note=36 velocity=0 time=0
note_on channel=0 note=41 velocity=37 time=0
note_on channel=0 note=45 velocity=45 time=0
note_on channel=0 note=39 velocity=37 time=0
note_on channel=0 note=36 velocity=37 time=0
note_on channel=0 note=36 velocity=0 time=180
note_on channel=0 note=41 velocity=0 time=0
note_on channel=0 note=45 velocity=0 time=0
note_on channel=0 note=39 velocity=0 time=0
note_on channel=0 note=58 velocity=46 time=0
note_on channel=0 note=41 velocity=25 time=0
note_on channel=0 note=37 velocity=25 time=0
note_on channel=0 note=46 velocity=30 time=0
note_on channel=0 note=46 velocity=0 time=180
note_on channel=0 note=37 velocity=0 time=0
note_on channel=0 note=41 velocity=0 time=0
note_on channel=0 note=41 velocity=25 time=60
note_on channel=0 note=37 velocity=25 time=0
note_on channel=0 note=46 velocity=30 time=0
note_on channel=0 note=46 velocity=0 time=180
note_on channel=0 note=37 velocity=0 time=0
note_on channel=0 note=41 velocity=0 time=0
note_on channel=0 note=41 velocity=25 time=60
note_on channel=0 note=37 velocity=25 time=0
note_on channel=0 note=46 velocity=30 time=0
note_on channel=0 note=46 velocity=0 time=180
note_on channel=0 note=37 velocity=0 time=0
note_on channel=0 note=41 velocity=0 time=0
note_on channel=0 note=58 velocity=0 time=0
note_on channel=0 note=61 velocity=40 time=0
note_on channel=0 note=41 velocity=25 time=0
note_on channel=0 note=37 velocity=25 time=0
note_on channel=0 note=46 velocity=30 time=0
note_on channel=0 note=61 velocity=0 time=120
note_on channel=0 note=60 velocity=40 time=0
note_on channel=0 note=41 velocity=0 time=60
note_on channel=0 note=46 velocity=0 time=0
note_on channel=0 note=37 velocity=0 time=0
note_on channel=0 note=60 velocity=0 time=0
note_on channel=0 note=58 velocity=45 time=0
note_on channel=0 note=46 velocity=30 time=0
note_on channel=0 note=41 velocity=25 time=0
note_on channel=0 note=37 velocity=25 time=0
note_on channel=0 note=58 velocity=0 time=120
note_on channel=0 note=46 velocity=0 time=60
note_on channel=0 note=41 velocity=0 time=0
note_on channel=0 note=37 velocity=0 time=0
note_on channel=0 note=37 velocity=25 time=60
note_on channel=0 note=46 velocity=30 time=0
note_on channel=0 note=41 velocity=25 time=0
note_on channel=0 note=41 velocity=0 time=180
note_on channel=0 note=46 velocity=0 time=0
note_on channel=0 note=37 velocity=0 time=0
note_on channel=0 note=37 velocity=25 time=60
note_on channel=0 note=46 velocity=30 time=0
note_on channel=0 note=41 velocity=25 time=0
note_on channel=0 note=41 velocity=0 time=180
note_on channel=0 note=46 velocity=0 time=0
note_on channel=0 note=37 velocity=0 time=0
note_on channel=0 note=37 velocity=25 time=0
note_on channel=0 note=46 velocity=30 time=0
note_on channel=0 note=41 velocity=25 time=0
note_on channel=0 note=41 velocity=0 time=180
note_on channel=0 note=46 velocity=0 time=0
note_on channel=0 note=37 velocity=0 time=0
note_on channel=0 note=88 velocity=72 time=0
note_on channel=0 note=88 velocity=0 time=0
note_on channel=0 note=89 velocity=89 time=0
note_on channel=0 note=47 velocity=47 time=0
note_on channel=0 note=41 velocity=38 time=0
note_on channel=0 note=38 velocity=38 time=0
note_on channel=0 note=38 velocity=0 time=180
note_on channel=0 note=41 velocity=0 time=0
note_on channel=0 note=47 velocity=0 time=0
note_on channel=0 note=41 velocity=38 time=60
note_on channel=0 note=38 velocity=38 time=0
note_on channel=0 note=47 velocity=47 time=0
note_on channel=0 note=47 velocity=0 time=180
note_on channel=0 note=38 velocity=0 time=0
note_on channel=0 note=41 velocity=0 time=0
note_on channel=0 note=41 velocity=38 time=0
note_on channel=0 note=38 velocity=38 time=0
note_on channel=0 note=47 velocity=47 time=0
note_on channel=0 note=89 velocity=0 time=120
note_on channel=0 note=87 velocity=75 time=0
note_on channel=0 note=41 velocity=0 time=60
note_on channel=0 note=47 velocity=0 time=0
note_on channel=0 note=38 velocity=0 time=0
note_on channel=0 note=87 velocity=0 time=60
note_on channel=0 note=86 velocity=73 time=0
note_on channel=0 note=41 velocity=38 time=0
note_on channel=0 note=38 velocity=38 time=0
note_on channel=0 note=47 velocity=47 time=0
note_on channel=0 note=86 velocity=0 time=120
note_on channel=0 note=84 velocity=70 time=0
note_on channel=0 note=41 velocity=0 time=60
note_on channel=0 note=47 velocity=0 time=0
note_on channel=0 note=38 velocity=0 time=0
note_on channel=0 note=84 velocity=0 time=0
note_on channel=0 note=83 velocity=69 time=0
note_on channel=0 note=41 velocity=37 time=0
note_on channel=0 note=38 velocity=37 time=0
note_on channel=0 note=47 velocity=45 time=0
note_on channel=0 note=47 velocity=0 time=180
note_on channel=0 note=38 velocity=0 time=0
note_on channel=0 note=41 velocity=0 time=0
note_on channel=0 note=83 velocity=0 time=60
note_on channel=0 note=47 velocity=45 time=0
note_on channel=0 note=41 velocity=37 time=0
note_on channel=0 note=38 velocity=37 time=0
note_on channel=0 note=38 velocity=0 time=180
note_on channel=0 note=41 velocity=0 time=0
note_on channel=0 note=47 velocity=0 time=0
note_on channel=0 note=41 velocity=37 time=60
note_on channel=0 note=47 velocity=45 time=0
note_on channel=0 note=38 velocity=37 time=0
note_on channel=0 note=38 velocity=0 time=180
note_on channel=0 note=47 velocity=0 time=0
note_on channel=0 note=41 velocity=0 time=0
note_on channel=0 note=38 velocity=37 time=0
note_on channel=0 note=41 velocity=37 time=0
note_on channel=0 note=47 velocity=45 time=0
note_on channel=0 note=47 velocity=0 time=180
note_on channel=0 note=41 velocity=0 time=0
note_on channel=0 note=38 velocity=0 time=0
note_on channel=0 note=60 velocity=82 time=0
note_on channel=0 note=43 velocity=37 time=0
note_on channel=0 note=39 velocity=37 time=0
note_on channel=0 note=47 velocity=45 time=0
note_on channel=0 note=47 velocity=0 time=180
note_on channel=0 note=39 velocity=0 time=0
note_on channel=0 note=43 velocity=0 time=0
note_on channel=0 note=60 velocity=0 time=0
note_on channel=0 note=63 velocity=70 time=0
note_on channel=0 note=43 velocity=37 time=0
note_on channel=0 note=39 velocity=37 time=0
note_on channel=0 note=47 velocity=45 time=0
note_on channel=0 note=63 velocity=0 time=120
note_on channel=0 note=62 velocity=70 time=0
note_on channel=0 note=43 velocity=0 time=60
note_on channel=0 note=47 velocity=0 time=0
note_on channel=0 note=39 velocity=0 time=0
note_on channel=0 note=62 velocity=0 time=0
note_on channel=0 note=60 velocity=74 time=0
note_on channel=0 note=43 velocity=37 time=0
note_on channel=0 note=39 velocity=37 time=0
note_on channel=0 note=48 velocity=45 time=0
note_on channel=0 note=48 velocity=0 time=180
note_on channel=0 note=39 velocity=0 time=0
note_on channel=0 note=43 velocity=0 time=0
note_on channel=0 note=60 velocity=0 time=0
note_on channel=0 note=39 velocity=37 time=0
note_on channel=0 note=48 velocity=45 time=0
note_on channel=0 note=43 velocity=37 time=0
note_on channel=0 note=43 velocity=0 time=180
note_on channel=0 note=48 velocity=0 time=0
note_on channel=0 note=39 velocity=0 time=0
note_on channel=0 note=80 velocity=78 time=0
note_on channel=0 note=41 velocity=37 time=0
note_on channel=0 note=48 velocity=45 time=0
note_on channel=0 note=44 velocity=37 time=0
note_on channel=0 note=80 velocity=0 time=120
note_on channel=0 note=79 velocity=75 time=0
note_on channel=0 note=41 velocity=0 time=60
note_on channel=0 note=44 velocity=0 time=0
note_on channel=0 note=48 velocity=0 time=0
note_on channel=0 note=79 velocity=0 time=60
note_on channel=0 note=77 velocity=73 time=0
note_on channel=0 note=41 velocity=38 time=0
note_on channel=0 note=48 velocity=46 time=0
note_on channel=0 note=44 velocity=38 time=0
note_on channel=0 note=77 velocity=0 time=120
note_on channel=0 note=75 velocity=70 time=0
note_on channel=0 note=41 velocity=0 time=60
note_on channel=0 note=44 velocity=0 time=0
note_on channel=0 note=48 velocity=0 time=0
note_on channel=0 note=75 velocity=0 time=0
note_on channel=0 note=74 velocity=74 time=0
note_on channel=0 note=44 velocity=38 time=0
note_on channel=0 note=41 velocity=38 time=0
note_on channel=0 note=50 velocity=46 time=0
note_on channel=0 note=50 velocity=0 time=180
note_on channel=0 note=41 velocity=0 time=0
note_on channel=0 note=44 velocity=0 time=0
note_on channel=0 note=74 velocity=0 time=60
note_on channel=0 note=50 velocity=46 time=0
note_on channel=0 note=41 velocity=38 time=0
note_on channel=0 note=44 velocity=38 time=0
note_on channel=0 note=44 velocity=0 time=180
note_on channel=0 note=41 velocity=0 time=0
note_on channel=0 note=50 velocity=0 time=0
note_on channel=0 note=64 velocity=82 time=0
note_on channel=0 note=43 velocity=38 time=0
note_on channel=0 note=46 velocity=38 time=0
note_on channel=0 note=50 velocity=47 time=0
note_on channel=0 note=50 velocity=0 time=180
note_on channel=0 note=46 velocity=0 time=0
note_on channel=0 note=43 velocity=0 time=0
note_on channel=0 note=64 velocity=0 time=0
note_on channel=0 note=67 velocity=70 time=0
note_on channel=0 note=43 velocity=38 time=0
note_on channel=0 note=46 velocity=38 time=0
note_on channel=0 note=50 velocity=47 time=0
note_on channel=0 note=67 velocity=0 time=120
note_on channel=0 note=65 velocity=70 time=0
note_on channel=0 note=43 velocity=0 time=60
note_on channel=0 note=50 velocity=0 time=0
note_on channel=0 note=46 velocity=0 time=0
note_on channel=0 note=65 velocity=0 time=0
note_on channel=0 note=64 velocity=74 time=0
note_on channel=0 note=43 velocity=39 time=0
note_on channel=0 note=46 velocity=39 time=0
note_on channel=0 note=52 velocity=47 time=0
note_on channel=0 note=52 velocity=0 time=180
note_on channel=0 note=46 velocity=0 time=0
note_on channel=0 note=43 velocity=0 time=0
note_on channel=0 note=64 velocity=0 time=0
note_on channel=0 note=46 velocity=39 time=0
note_on channel=0 note=43 velocity=39 time=0
note_on channel=0 note=52 velocity=48 time=0
note_on channel=0 note=52 velocity=0 time=60
note_on channel=0 note=43 velocity=0 time=0
note_on channel=0 note=46 velocity=0 time=0
note_on channel=0 note=84 velocity=78 time=0
note_on channel=0 note=44 velocity=39 time=0
note_on channel=0 note=52 velocity=48 time=0
note_on channel=0 note=48 velocity=39 time=0
note_on channel=0 note=84 velocity=0 time=120
note_on channel=0 note=82 velocity=75 time=0
note_on channel=0 note=44 velocity=0 time=60
note_on channel=0 note=48 velocity=0 time=0
note_on channel=0 note=52 velocity=0 time=0
note_on channel=0 note=82 velocity=0 time=60
note_on channel=0 note=80 velocity=73 time=0
note_on channel=0 note=44 velocity=39 time=0
note_on channel=0 note=52 velocity=48 time=0
note_on channel=0 note=48 velocity=39 time=0
note_on channel=0 note=80 velocity=0 time=120
note_on channel=0 note=79 velocity=70 time=0
note_on channel=0 note=44 velocity=0 time=60
note_on channel=0 note=48 velocity=0 time=0
note_on channel=0 note=52 velocity=0 time=0
note_on channel=0 note=79 velocity=0 time=0
note_on channel=0 note=77 velocity=74 time=0
note_on channel=0 note=44 velocity=40 time=0
note_on channel=0 note=53 velocity=49 time=0
note_on channel=0 note=48 velocity=40 time=0
note_on channel=0 note=48 velocity=0 time=180
note_on channel=0 note=53 velocity=0 time=0
note_on channel=0 note=44 velocity=0 time=0
note_on channel=0 note=77 velocity=0 time=0
note_on channel=0 note=48 velocity=40 time=0
note_on channel=0 note=44 velocity=40 time=0
note_on channel=0 note=53 velocity=49 time=0
note_on channel=0 note=53 velocity=0 time=180
note_on channel=0 note=44 velocity=0 time=0
note_on channel=0 note=48 velocity=0 time=0
note_on channel=0 note=87 velocity=90 time=0
note_on channel=0 note=54 velocity=51 time=0
note_on channel=0 note=45 velocity=42 time=0
note_on channel=0 note=48 velocity=42 time=0
note_on channel=0 note=87 velocity=0 time=120
note_on channel=0 note=86 velocity=86 time=0
note_on channel=0 note=54 velocity=0 time=60
note_on channel=0 note=48 velocity=0 time=0
note_on channel=0 note=45 velocity=0 time=0
note_on channel=0 note=86 velocity=0 time=60
note_on channel=0 note=84 velocity=84 time=0
note_on channel=0 note=54 velocity=51 time=0
note_on channel=0 note=45 velocity=42 time=0
note_on channel=0 note=48 velocity=42 time=0
note_on channel=0 note=84 velocity=0 time=120
note_on channel=0 note=83 velocity=80 time=0
note_on channel=0 note=54 velocity=0 time=60
note_on channel=0 note=48 velocity=0 time=0
note_on channel=0 note=45 velocity=0 time=0
note_on channel=0 note=83 velocity=0 time=0
note_on channel=0 note=84 velocity=85 time=0
note_on channel=0 note=48 velocity=42 time=0
note_on channel=0 note=45 velocity=42 time=0
note_on channel=0 note=54 velocity=51 time=0
note_on channel=0 note=54 velocity=0 time=180
note_on channel=0 note=45 velocity=0 time=0
note_on channel=0 note=48 velocity=0 time=0
note_on channel=0 note=84 velocity=0 time=0
note_on channel=0 note=48 velocity=42 time=0
note_on channel=0 note=45 velocity=42 time=0
note_on channel=0 note=54 velocity=51 time=0
note_on channel=0 note=54 velocity=0 time=180
note_on channel=0 note=45 velocity=0 time=0
note_on channel=0 note=48 velocity=0 time=0
note_on channel=0 note=75 velocity=90 time=0
note_on channel=0 note=54 velocity=51 time=0
note_on channel=0 note=48 velocity=42 time=0
note_on channel=0 note=45 velocity=42 time=0
note_on channel=0 note=75 velocity=0 time=120
note_on channel=0 note=74 velocity=86 time=0
note_on channel=0 note=54 velocity=0 time=60
note_on channel=0 note=45 velocity=0 time=0
note_on channel=0 note=48 velocity=0 time=0
note_on channel=0 note=74 velocity=0 time=60
note_on channel=0 note=72 velocity=84 time=0
note_on channel=0 note=48 velocity=42 time=0
note_on channel=0 note=45 velocity=42 time=0
note_on channel=0 note=54 velocity=51 time=0
note_on channel=0 note=72 velocity=0 time=120
note_on channel=0 note=71 velocity=80 time=0
note_on channel=0 note=48 velocity=0 time=60
note_on channel=0 note=54 velocity=0 time=0
note_on channel=0 note=45 velocity=0 time=0
note_on channel=0 note=71 velocity=0 time=0
note_on channel=0 note=72 velocity=85 time=0
note_on channel=0 note=48 velocity=42 time=0
note_on channel=0 note=45 velocity=42 time=0
note_on channel=0 note=54 velocity=51 time=0
note_on channel=0 note=54 velocity=0 time=180
note_on channel=0 note=45 velocity=0 time=0
note_on channel=0 note=48 velocity=0 time=0
note_on channel=0 note=72 velocity=0 time=0
note_on channel=0 note=48 velocity=42 time=0
note_on channel=0 note=45 velocity=42 time=0
note_on channel=0 note=54 velocity=51 time=0
note_on channel=0 note=54 velocity=0 time=180
note_on channel=0 note=45 velocity=0 time=0
note_on channel=0 note=48 velocity=0 time=0
note_on channel=0 note=63 velocity=90 time=0
note_on channel=0 note=48 velocity=42 time=0
note_on channel=0 note=54 velocity=51 time=0
note_on channel=0 note=44 velocity=42 time=0
note_on channel=0 note=63 velocity=0 time=120
note_on channel=0 note=62 velocity=86 time=0
note_on channel=0 note=48 velocity=0 time=60
note_on channel=0 note=44 velocity=0 time=0
note_on channel=0 note=54 velocity=0 time=0
note_on channel=0 note=62 velocity=0 time=60
note_on channel=0 note=60 velocity=84 time=0
note_on channel=0 note=54 velocity=51 time=0
note_on channel=0 note=44 velocity=42 time=0
note_on channel=0 note=48 velocity=42 time=0
note_on channel=0 note=60 velocity=0 time=120
note_on channel=0 note=59 velocity=80 time=0
note_on channel=0 note=54 velocity=0 time=60
note_on channel=0 note=48 velocity=0 time=0
note_on channel=0 note=44 velocity=0 time=0
note_on channel=0 note=59 velocity=0 time=0
note_on channel=0 note=60 velocity=85 time=0
note_on channel=0 note=48 velocity=42 time=0
note_on channel=0 note=44 velocity=42 time=0
note_on channel=0 note=54 velocity=51 time=0
note_on channel=0 note=54 velocity=0 time=180
note_on channel=0 note=44 velocity=0 time=0
note_on channel=0 note=48 velocity=0 time=0
note_on channel=0 note=60 velocity=0 time=60
note_on channel=0 note=48 velocity=42 time=0
note_on channel=0 note=44 velocity=42 time=0
note_on channel=0 note=54 velocity=51 time=0
note_on channel=0 note=54 velocity=0 time=180
note_on channel=0 note=44 velocity=0 time=0
note_on channel=0 note=48 velocity=0 time=0
note_on channel=0 note=75 velocity=90 time=0
note_on channel=0 note=48 velocity=42 time=0
note_on channel=0 note=44 velocity=42 time=0
note_on channel=0 note=51 velocity=51 time=0
note_on channel=0 note=75 velocity=0 time=120
note_on channel=0 note=74 velocity=86 time=0
note_on channel=0 note=48 velocity=0 time=60
note_on channel=0 note=51 velocity=0 time=0
note_on channel=0 note=44 velocity=0 time=0
note_on channel=0 note=74 velocity=0 time=60
note_on channel=0 note=72 velocity=84 time=0
note_on channel=0 note=51 velocity=51 time=0
note_on channel=0 note=48 velocity=42 time=0
note_on channel=0 note=44 velocity=42 time=0
note_on channel=0 note=72 velocity=0 time=120
note_on channel=0 note=71 velocity=80 time=0
note_on channel=0 note=51 velocity=0 time=60
note_on channel=0 note=44 velocity=0 time=0
note_on channel=0 note=48 velocity=0 time=0
note_on channel=0 note=71 velocity=0 time=0
note_on channel=0 note=72 velocity=85 time=0
note_on channel=0 note=44 velocity=42 time=0
note_on channel=0 note=48 velocity=51 time=0
note_on channel=0 note=72 velocity=0 time=0
note_on channel=0 note=74 velocity=85 time=0
note_on channel=0 note=48 velocity=0 time=20
note_on channel=0 note=44 velocity=0 time=0
note_on channel=0 note=74 velocity=0 time=0
note_on channel=0 note=75 velocity=85 time=0
note_on channel=0 note=48 velocity=51 time=0
note_on channel=0 note=44 velocity=42 time=0
note_on channel=0 note=75 velocity=0 time=0
note_on channel=0 note=78 velocity=85 time=0
note_on channel=0 note=44 velocity=0 time=20
note_on channel=0 note=48 velocity=0 time=0
note_on channel=0 note=78 velocity=0 time=0
note_on channel=0 note=79 velocity=85 time=0
note_on channel=0 note=43 velocity=42 time=0
note_on channel=0 note=47 velocity=51 time=0
note_on channel=0 note=47 velocity=0 time=220
note_on channel=0 note=43 velocity=0 time=0
note_on channel=0 note=79 velocity=0 time=0
note_on channel=0 note=67 velocity=38 time=20
note_on channel=0 note=79 velocity=45 time=0
note_on channel=0 note=79 velocity=0 time=220
note_on channel=0 note=67 velocity=0 time=0
note_on channel=0 note=67 velocity=38 time=20
note_on channel=0 note=79 velocity=45 time=0
note_on channel=0 note=79 velocity=0 time=220
note_on channel=0 note=67 velocity=0 time=0
note_on channel=0 note=67 velocity=38 time=20
note_on channel=0 note=79 velocity=45 time=0
note_on channel=0 note=79 velocity=0 time=220
note_on channel=0 note=67 velocity=0 time=0
note_on channel=0 note=67 velocity=38 time=20
note_on channel=0 note=79 velocity=45 time=0
note_on channel=0 note=79 velocity=0 time=220
note_on channel=0 note=67 velocity=0 time=0
note_on channel=0 note=67 velocity=38 time=20
note_on channel=0 note=79 velocity=45 time=0
note_on channel=0 note=79 velocity=0 time=220
note_on channel=0 note=67 velocity=0 time=0
note_on channel=0 note=67 velocity=38 time=20
note_on channel=0 note=79 velocity=45 time=0
note_on channel=0 note=79 velocity=0 time=220
note_on channel=0 note=67 velocity=0 time=0
note_on channel=0 note=67 velocity=38 time=20
note_on channel=0 note=79 velocity=45 time=0
note_on channel=0 note=79 velocity=0 time=220
note_on channel=0 note=67 velocity=0 time=0
note_on channel=0 note=67 velocity=37 time=0
note_on channel=0 note=70 velocity=37 time=0
note_on channel=0 note=73 velocity=37 time=0
note_on channel=0 note=79 velocity=45 time=0
note_on channel=0 note=79 velocity=0 time=220
note_on channel=0 note=67 velocity=0 time=0
note_on channel=0 note=70 velocity=0 time=0
note_on channel=0 note=73 velocity=0 time=0
note_on channel=0 note=67 velocity=39 time=20
note_on channel=0 note=70 velocity=39 time=0
note_on channel=0 note=73 velocity=39 time=0
note_on channel=0 note=79 velocity=47 time=0
note_on channel=0 note=79 velocity=0 time=220
note_on channel=0 note=67 velocity=0 time=0
note_on channel=0 note=70 velocity=0 time=0
note_on channel=0 note=73 velocity=0 time=0
note_on channel=0 note=67 velocity=41 time=20
note_on channel=0 note=70 velocity=41 time=0
note_on channel=0 note=73 velocity=41 time=0
note_on channel=0 note=79 velocity=49 time=0
note_on channel=0 note=79 velocity=0 time=220
note_on channel=0 note=67 velocity=0 time=0
note_on channel=0 note=70 velocity=0 time=0
note_on channel=0 note=73 velocity=0 time=0
note_on channel=0 note=67 velocity=43 time=20
note_on channel=0 note=70 velocity=43 time=0
note_on channel=0 note=73 velocity=43 time=0
note_on channel=0 note=79 velocity=52 time=0
note_on channel=0 note=79 velocity=0 time=20
note_on channel=0 note=67 velocity=0 time=0
note_on channel=0 note=70 velocity=0 time=0
note_on channel=0 note=73 velocity=0 time=0
note_on channel=0 note=67 velocity=45 time=20
note_on channel=0 note=70 velocity=45 time=0
note_on channel=0 note=73 velocity=45 time=0
note_on channel=0 note=79 velocity=54 time=0
note_on channel=0 note=79 velocity=0 time=20
note_on channel=0 note=67 velocity=0 time=0
note_on channel=0 note=70 velocity=0 time=0
note_on channel=0 note=73 velocity=0 time=0
note_on channel=0 note=67 velocity=46 time=20
note_on channel=0 note=70 velocity=46 time=0
note_on channel=0 note=73 velocity=46 time=0
note_on channel=0 note=79 velocity=55 time=0
note_on channel=0 note=79 velocity=0 time=60
note_on channel=0 note=67 velocity=0 time=0
note_on channel=0 note=70 velocity=0 time=0
note_on channel=0 note=73 velocity=0 time=0
note_on channel=0 note=67 velocity=49 time=0
note_on channel=0 note=70 velocity=49 time=0
note_on channel=0 note=73 velocity=49 time=0
note_on channel=0 note=79 velocity=59 time=0
note_on channel=0 note=79 velocity=0 time=20
note_on channel=0 note=67 velocity=0 time=0
note_on channel=0 note=70 velocity=0 time=0
note_on channel=0 note=73 velocity=0 time=0
note_on channel=0 note=67 velocity=51 time=20
note_on channel=0 note=70 velocity=51 time=0
note_on channel=0 note=73 velocity=51 time=0
note_on channel=0 note=79 velocity=61 time=0
note_on channel=0 note=79 velocity=0 time=60
note_on channel=0 note=67 velocity=0 time=0
note_on channel=0 note=70 velocity=0 time=0
note_on channel=0 note=73 velocity=0 time=0
note_on channel=0 note=67 velocity=41 time=0
note_on channel=0 note=71 velocity=41 time=0
note_on channel=0 note=74 velocity=41 time=0
note_on channel=0 note=79 velocity=49 time=0
note_on channel=0 note=47 velocity=29 time=0
note_on channel=0 note=50 velocity=35 time=0
note_on channel=0 note=50 velocity=0 time=180
note_on channel=0 note=47 velocity=0 time=0
note_on channel=0 note=74 velocity=0 time=0
note_on channel=0 note=67 velocity=0 time=0
note_on channel=0 note=71 velocity=0 time=0
note_on channel=0 note=79 velocity=0 time=0
note_on channel=0 note=91 velocity=58 time=0
note_on channel=0 note=79 velocity=49 time=0
note_on channel=0 note=50 velocity=35 time=0
note_on channel=0 note=47 velocity=29 time=0
note_on channel=0 note=47 velocity=0 time=180
note_on channel=0 note=50 velocity=0 time=0
note_on channel=0 note=50 velocity=35 time=60
note_on channel=0 note=47 velocity=29 time=0
note_on channel=0 note=47 velocity=0 time=180
note_on channel=0 note=50 velocity=0 time=0
note_on channel=0 note=79 velocity=0 time=60
note_on channel=0 note=91 velocity=0 time=0
note_on channel=0 note=89 velocity=53 time=0
note_on channel=0 note=77 velocity=53 time=0
note_on channel=0 note=47 velocity=29 time=0
note_on channel=0 note=50 velocity=35 time=0
note_on channel=0 note=50 velocity=0 time=180
note_on channel=0 note=47 velocity=0 time=0
note_on channel=0 note=47 velocity=29 time=60
note_on channel=0 note=50 velocity=35 time=0
note_on channel=0 note=50 velocity=0 time=180
note_on channel=0 note=47 velocity=0 time=0
note_on channel=0 note=77 velocity=0 time=60
note_on channel=0 note=89 velocity=0 time=0
note_on channel=0 note=88 velocity=55 time=0
note_on channel=0 note=76 velocity=46 time=0
note_on channel=0 note=50 velocity=35 time=0
note_on channel=0 note=47 velocity=29 time=0
note_on channel=0 note=47 velocity=0 time=180
note_on channel=0 note=50 velocity=0 time=0
note_on channel=0 note=47 velocity=29 time=60
note_on channel=0 note=50 velocity=35 time=0
note_on channel=0 note=50 velocity=0 time=180
note_on channel=0 note=47 velocity=0 time=0
note_on channel=0 note=76 velocity=0 time=0
note_on channel=0 note=88 velocity=0 time=0
note_on channel=0 note=86 velocity=53 time=0
note_on channel=0 note=74 velocity=45 time=0
note_on channel=0 note=47 velocity=29 time=0
note_on channel=0 note=50 velocity=35 time=0
note_on channel=0 note=50 velocity=0 time=180
note_on channel=0 note=47 velocity=0 time=0
note_on channel=0 note=47 velocity=29 time=0
note_on channel=0 note=50 velocity=35 time=0
note_on channel=0 note=50 velocity=0 time=180
note_on channel=0 note=47 velocity=0 time=0
note_on channel=0 note=74 velocity=0 time=60
note_on channel=0 note=86 velocity=0 time=0
note_on channel=0 note=84 velocity=52 time=0
note_on channel=0 note=72 velocity=44 time=0
note_on channel=0 note=47 velocity=29 time=0
note_on channel=0 note=50 velocity=35 time=0
note_on channel=0 note=50 velocity=0 time=180
note_on channel=0 note=47 velocity=0 time=0
note_on channel=0 note=47 velocity=29 time=40
note_on channel=0 note=50 velocity=35 time=0
note_on channel=0 note=50 velocity=0 time=180
note_on channel=0 note=47 velocity=0 time=0
note_on channel=0 note=72 velocity=0 time=40
note_on channel=0 note=84 velocity=0 time=0
note_on channel=0 note=83 velocity=50 time=0
note_on channel=0 note=71 velocity=42 time=0
note_on channel=0 note=47 velocity=29 time=0
note_on channel=0 note=50 velocity=35 time=0
note_on channel=0 note=50 velocity=0 time=180
note_on channel=0 note=47 velocity=0 time=0
note_on channel=0 note=50 velocity=35 time=40
note_on channel=0 note=47 velocity=29 time=0
note_on channel=0 note=47 velocity=0 time=20
note_on channel=0 note=50 velocity=0 time=0
note_on channel=0 note=71 velocity=0 time=60
note_on channel=0 note=83 velocity=0 time=0
note_on channel=0 note=81 velocity=49 time=0
note_on channel=0 note=69 velocity=41 time=0
note_on channel=0 note=47 velocity=29 time=0
note_on channel=0 note=50 velocity=35 time=0
note_on channel=0 note=50 velocity=0 time=20
note_on channel=0 note=47 velocity=0 time=0
note_on channel=0 note=52 velocity=35 time=60
note_on channel=0 note=49 velocity=29 time=0
note_on channel=0 note=49 velocity=0 time=20
note_on channel=0 note=52 velocity=0 time=0
note_on channel=0 note=69 velocity=0 time=60
note_on channel=0 note=81 velocity=0 time=0
note_on channel=0 note=79 velocity=47 time=0
note_on channel=0 note=67 velocity=39 time=0
note_on channel=0 note=49 velocity=29 time=0
note_on channel=0 note=52 velocity=35 time=0
note_on channel=0 note=52 velocity=0 time=60
note_on channel=0 note=49 velocity=0 time=0
note_on channel=0 note=67 velocity=0 time=0
note_on channel=0 note=79 velocity=0 time=0
note_on channel=0 note=65 velocity=38 time=0
note_on channel=0 note=77 velocity=45 time=0
note_on channel=0 note=53 velocity=42 time=0
note_on channel=0 note=50 velocity=42 time=0
note_on channel=0 note=77 velocity=0 time=120
note_on channel=0 note=65 velocity=0 time=0
note_on channel=0 note=62 velocity=37 time=0
note_on channel=0 note=62 velocity=0 time=120
note_on channel=0 note=64 velocity=39 time=0
note_on channel=0 note=64 velocity=0 time=120
note_on channel=0 note=65 velocity=40 time=0
note_on channel=0 note=65 velocity=0 time=120
note_on channel=0 note=67 velocity=42 time=0
note_on channel=0 note=67 velocity=0 time=120
note_on channel=0 note=69 velocity=44 time=0
note_on channel=0 note=69 velocity=0 time=0
note_on channel=0 note=53 velocity=0 time=0
note_on channel=0 note=71 velocity=45 time=0
note_on channel=0 note=57 velocity=40 time=0
note_on channel=0 note=57 velocity=0 time=120
note_on channel=0 note=71 velocity=0 time=0
note_on channel=0 note=73 velocity=47 time=0
note_on channel=0 note=55 velocity=40 time=0
note_on channel=0 note=55 velocity=0 time=0
note_on channel=0 note=73 velocity=0 time=0
note_on channel=0 note=74 velocity=48 time=0
note_on channel=0 note=53 velocity=45 time=0
note_on channel=0 note=74 velocity=0 time=120
note_on channel=0 note=65 velocity=42 time=0
note_on channel=0 note=65 velocity=0 time=120
note_on channel=0 note=53 velocity=0 time=0
note_on channel=0 note=50 velocity=0 time=0
note_on channel=0 note=67 velocity=43 time=0
note_on channel=0 note=67 velocity=0 time=120
note_on channel=0 note=69 velocity=45 time=0
note_on channel=0 note=69 velocity=0 time=120
note_on channel=0 note=71 velocity=46 time=0
note_on channel=0 note=71 velocity=0 time=120
note_on channel=0 note=73 velocity=48 time=0
note_on channel=0 note=73 velocity=0 time=0
note_on channel=0 note=74 velocity=49 time=0
note_on channel=0 note=74 velocity=0 time=120
note_on channel=0 note=76 velocity=50 time=0
note_on channel=0 note=76 velocity=0 time=0
note_on channel=0 note=77 velocity=52 time=0
note_on channel=0 note=69 velocity=46 time=0
note_on channel=0 note=77 velocity=0 time=120
note_on channel=0 note=74 velocity=46 time=0
note_on channel=0 note=74 velocity=0 time=120
note_on channel=0 note=76 velocity=46 time=0
note_on channel=0 note=76 velocity=0 time=120
note_on channel=0 note=77 velocity=47 time=0
note_on channel=0 note=77 velocity=0 time=120
note_on channel=0 note=79 velocity=48 time=0
note_on channel=0 note=79 velocity=0 time=120
note_on channel=0 note=69 velocity=0 time=0
note_on channel=0 note=81 velocity=49 time=0
note_on channel=0 note=67 velocity=40 time=0
note_on channel=0 note=67 velocity=0 time=0
note_on channel=0 note=81 velocity=0 time=0
note_on channel=0 note=83 velocity=50 time=0
note_on channel=0 note=65 velocity=40 time=0
note_on channel=0 note=65 velocity=0 time=120
note_on channel=0 note=83 velocity=0 time=0
note_on channel=0 note=85 velocity=51 time=0
note_on channel=0 note=64 velocity=40 time=0
note_on channel=0 note=64 velocity=0 time=0
note_on channel=0 note=85 velocity=0 time=0
note_on channel=0 note=86 velocity=52 time=0
note_on channel=0 note=62 velocity=45 time=0
note_on channel=0 note=86 velocity=0 time=120
note_on channel=0 note=85 velocity=46 time=0
note_on channel=0 note=85 velocity=0 time=120
note_on channel=0 note=62 velocity=0 time=0
note_on channel=0 note=86 velocity=47 time=0
note_on channel=0 note=86 velocity=0 time=120
note_on channel=0 note=88 velocity=48 time=0
note_on channel=0 note=88 velocity=0 time=120
note_on channel=0 note=89 velocity=49 time=0
note_on channel=0 note=89 velocity=0 time=120
note_on channel=0 note=85 velocity=51 time=0
note_on channel=0 note=85 velocity=0 time=0
note_on channel=0 note=86 velocity=52 time=0
note_on channel=0 note=86 velocity=0 time=120
note_on channel=0 note=88 velocity=53 time=0
note_on channel=0 note=88 velocity=0 time=0
note_on channel=0 note=89 velocity=49 time=0
note_on channel=0 note=45 velocity=29 time=0
note_on channel=0 note=48 velocity=35 time=0
note_on channel=0 note=48 velocity=0 time=180
note_on channel=0 note=45 velocity=0 time=0
note_on channel=0 note=89 velocity=0 time=0
note_on channel=0 note=89 velocity=58 time=0
note_on channel=0 note=77 velocity=49 time=0
note_on channel=0 note=45 velocity=29 time=0
note_on channel=0 note=48 velocity=35 time=0
note_on channel=0 note=48 velocity=0 time=180
note_on channel=0 note=45 velocity=0 time=0
note_on channel=0 note=48 velocity=35 time=60
note_on channel=0 note=45 velocity=29 time=0
note_on channel=0 note=45 velocity=0 time=180
note_on channel=0 note=48 velocity=0 time=0
note_on channel=0 note=77 velocity=0 time=60
note_on channel=0 note=89 velocity=0 time=0
note_on channel=0 note=88 velocity=53 time=0
note_on channel=0 note=76 velocity=53 time=0
note_on channel=0 note=45 velocity=29 time=0
note_on channel=0 note=48 velocity=35 time=0
note_on channel=0 note=48 velocity=0 time=180
note_on channel=0 note=45 velocity=0 time=0
note_on channel=0 note=45 velocity=29 time=60
note_on channel=0 note=48 velocity=35 time=0
note_on channel=0 note=48 velocity=0 time=180
note_on channel=0 note=45 velocity=0 time=0
note_on channel=0 note=76 velocity=0 time=60
note_on channel=0 note=88 velocity=0 time=0
note_on channel=0 note=86 velocity=55 time=0
note_on channel=0 note=74 velocity=46 time=0
note_on channel=0 note=48 velocity=35 time=0
note_on channel=0 note=45 velocity=29 time=0
note_on channel=0 note=45 velocity=0 time=180
note_on channel=0 note=48 velocity=0 time=0
note_on channel=0 note=45 velocity=29 time=60
note_on channel=0 note=48 velocity=35 time=0
note_on channel=0 note=48 velocity=0 time=180
note_on channel=0 note=45 velocity=0 time=0
note_on channel=0 note=74 velocity=0 time=0
note_on channel=0 note=86 velocity=0 time=0
note_on channel=0 note=84 velocity=53 time=0
note_on channel=0 note=72 velocity=45 time=0
note_on channel=0 note=45 velocity=29 time=0
note_on channel=0 note=48 velocity=35 time=0
note_on channel=0 note=48 velocity=0 time=180
note_on channel=0 note=45 velocity=0 time=0
note_on channel=0 note=48 velocity=35 time=0
note_on channel=0 note=45 velocity=29 time=0
note_on channel=0 note=45 velocity=0 time=180
note_on channel=0 note=48 velocity=0 time=0
note_on channel=0 note=72 velocity=0 time=60
note_on channel=0 note=84 velocity=0 time=0
note_on channel=0 note=83 velocity=52 time=0
note_on channel=0 note=71 velocity=44 time=0
note_on channel=0 note=45 velocity=29 time=0
note_on channel=0 note=48 velocity=35 time=0
note_on channel=0 note=48 velocity=0 time=180
note_on channel=0 note=45 velocity=0 time=0
note_on channel=0 note=45 velocity=29 time=40
note_on channel=0 note=48 velocity=35 time=0
note_on channel=0 note=48 velocity=0 time=180
note_on channel=0 note=45 velocity=0 time=0
note_on channel=0 note=71 velocity=0 time=40
note_on channel=0 note=83 velocity=0 time=0
note_on channel=0 note=81 velocity=50 time=0
note_on channel=0 note=69 velocity=42 time=0
note_on channel=0 note=48 velocity=35 time=0
note_on channel=0 note=45 velocity=29 time=0
note_on channel=0 note=45 velocity=0 time=180
note_on channel=0 note=48 velocity=0 time=0
note_on channel=0 note=45 velocity=29 time=40
note_on channel=0 note=48 velocity=35 time=0
note_on channel=0 note=48 velocity=0 time=20
note_on channel=0 note=45 velocity=0 time=0
note_on channel=0 note=69 velocity=0 time=60
note_on channel=0 note=81 velocity=0 time=0
note_on channel=0 note=79 velocity=49 time=0
note_on channel=0 note=67 velocity=41 time=0
note_on channel=0 note=48 velocity=35 time=0
note_on channel=0 note=45 velocity=29 time=0
note_on channel=0 note=45 velocity=0 time=20
note_on channel=0 note=48 velocity=0 time=0
note_on channel=0 note=47 velocity=29 time=60
note_on channel=0 note=50 velocity=35 time=0
note_on channel=0 note=50 velocity=0 time=20
note_on channel=0 note=47 velocity=0 time=0
note_on channel=0 note=67 velocity=0 time=60
note_on channel=0 note=79 velocity=0 time=0
note_on channel=0 note=77 velocity=47 time=0
note_on channel=0 note=65 velocity=39 time=0
note_on channel=0 note=47 velocity=29 time=0
note_on channel=0 note=50 velocity=35 time=0
note_on channel=0 note=50 velocity=0 time=60
note_on channel=0 note=47 velocity=0 time=0
note_on channel=0 note=65 velocity=0 time=0
note_on channel=0 note=77 velocity=0 time=0
note_on channel=0 note=64 velocity=38 time=0
note_on channel=0 note=76 velocity=45 time=0
note_on channel=0 note=52 velocity=42 time=0
note_on channel=0 note=48 velocity=42 time=0
note_on channel=0 note=76 velocity=0 time=120
note_on channel=0 note=64 velocity=0 time=0
note_on channel=0 note=64 velocity=37 time=0
note_on channel=0 note=64 velocity=0 time=120
note_on channel=0 note=65 velocity=39 time=0
note_on channel=0 note=65 velocity=0 time=120
note_on channel=0 note=67 velocity=40 time=0
note_on channel=0 note=67 velocity=0 time=120
note_on channel=0 note=69 velocity=42 time=0
note_on channel=0 note=69 velocity=0 time=120
note_on channel=0 note=71 velocity=44 time=0
note_on channel=0 note=71 velocity=0 time=0
note_on channel=0 note=52 velocity=0 time=0
note_on channel=0 note=72 velocity=45 time=0
note_on channel=0 note=55 velocity=40 time=0
note_on channel=0 note=55 velocity=0 time=120
note_on channel=0 note=72 velocity=0 time=0
note_on channel=0 note=74 velocity=47 time=0
note_on channel=0 note=53 velocity=40 time=0
note_on channel=0 note=53 velocity=0 time=0
note_on channel=0 note=74 velocity=0 time=0
note_on channel=0 note=76 velocity=48 time=0
note_on channel=0 note=52 velocity=45 time=0
note_on channel=0 note=76 velocity=0 time=120
note_on channel=0 note=69 velocity=42 time=0
note_on channel=0 note=69 velocity=0 time=120
note_on channel=0 note=52 velocity=0 time=0
note_on channel=0 note=48 velocity=0 time=0
note_on channel=0 note=71 velocity=43 time=0
note_on channel=0 note=71 velocity=0 time=120
note_on channel=0 note=72 velocity=45 time=0
note_on channel=0 note=72 velocity=0 time=120
note_on channel=0 note=74 velocity=46 time=0
note_on channel=0 note=74 velocity=0 time=120
note_on channel=0 note=76 velocity=48 time=0
note_on channel=0 note=76 velocity=0 time=0
note_on channel=0 note=78 velocity=49 time=0
note_on channel=0 note=78 velocity=0 time=120
note_on channel=0 note=80 velocity=50 time=0
note_on channel=0 note=48 velocity=36 time=60
note_on channel=0 note=48 velocity=0 time=0
note_on channel=0 note=80 velocity=0 time=0
note_on channel=0 note=81 velocity=52 time=0
note_on channel=0 note=64 velocity=46 time=0
note_on channel=0 note=81 velocity=0 time=120
note_on channel=0 note=76 velocity=46 time=0
note_on channel=0 note=76 velocity=0 time=120
note_on channel=0 note=78 velocity=46 time=0
note_on channel=0 note=78 velocity=0 time=120
note_on channel=0 note=80 velocity=47 time=0
note_on channel=0 note=80 velocity=0 time=120
note_on channel=0 note=81 velocity=48 time=0
note_on channel=0 note=81 velocity=0 time=120
note_on channel=0 note=64 velocity=0 time=0
note_on channel=0 note=83 velocity=49 time=0
note_on channel=0 note=62 velocity=40 time=0
note_on channel=0 note=62 velocity=0 time=0
note_on channel=0 note=83 velocity=0 time=0
note_on channel=0 note=84 velocity=50 time=0
note_on channel=0 note=60 velocity=40 time=0
note_on channel=0 note=60 velocity=0 time=120
note_on channel=0 note=84 velocity=0 time=0
note_on channel=0 note=86 velocity=51 time=0
note_on channel=0 note=59 velocity=40 time=0
note_on channel=0 note=59 velocity=0 time=0
note_on channel=0 note=86 velocity=0 time=0
note_on channel=0 note=88 velocity=52 time=0
note_on channel=0 note=57 velocity=45 time=0
note_on channel=0 note=88 velocity=0 time=120
note_on channel=0 note=86 velocity=46 time=0
note_on channel=0 note=86 velocity=0 time=120
note_on channel=0 note=57 velocity=0 time=0
note_on channel=0 note=84 velocity=47 time=0
note_on channel=0 note=84 velocity=0 time=120
note_on channel=0 note=83 velocity=48 time=0
note_on channel=0 note=83 velocity=0 time=120
note_on channel=0 note=81 velocity=49 time=0
note_on channel=0 note=81 velocity=0 time=120
note_on channel=0 note=83 velocity=51 time=0
note_on channel=0 note=83 velocity=0 time=0
note_on channel=0 note=84 velocity=52 time=0
note_on channel=0 note=84 velocity=0 time=120
note_on channel=0 note=81 velocity=53 time=0
note_on channel=0 note=81 velocity=0 time=0
note_on channel=0 note=53 velocity=44 time=0
note_on channel=0 note=50 velocity=44 time=0
note_on channel=0 note=65 velocity=38 time=120
note_on channel=0 note=65 velocity=0 time=120
note_on channel=0 note=67 velocity=41 time=0
note_on channel=0 note=67 velocity=0 time=120
note_on channel=0 note=69 velocity=42 time=0
note_on channel=0 note=69 velocity=0 time=120
note_on channel=0 note=71 velocity=44 time=0
note_on channel=0 note=71 velocity=0 time=120
note_on channel=0 note=72 velocity=47 time=0
note_on channel=0 note=72 velocity=0 time=0
note_on channel=0 note=53 velocity=0 time=0
note_on channel=0 note=74 velocity=48 time=0
note_on channel=0 note=57 velocity=43 time=0
note_on channel=0 note=57 velocity=0 time=120
note_on channel=0 note=74 velocity=0 time=0
note_on channel=0 note=76 velocity=50 time=0
note_on channel=0 note=55 velocity=43 time=0
note_on channel=0 note=55 velocity=0 time=0
note_on channel=0 note=76 velocity=0 time=0
note_on channel=0 note=77 velocity=52 time=0
note_on channel=0 note=53 velocity=49 time=0
note_on channel=0 note=77 velocity=0 time=120
note_on channel=0 note=71 velocity=45 time=0
note_on channel=0 note=71 velocity=0 time=120
note_on channel=0 note=53 velocity=0 time=0
note_on channel=0 note=50 velocity=0 time=0
note_on channel=0 note=72 velocity=47 time=0
note_on channel=0 note=72 velocity=0 time=120
note_on channel=0 note=74 velocity=49 time=0
note_on channel=0 note=74 velocity=0 time=120
note_on channel=0 note=76 velocity=51 time=0
note_on channel=0 note=76 velocity=0 time=120
note_on channel=0 note=77 velocity=53 time=0
note_on channel=0 note=77 velocity=0 time=0
note_on channel=0 note=79 velocity=54 time=0
note_on channel=0 note=79 velocity=0 time=120
note_on channel=0 note=81 velocity=56 time=0
note_on channel=0 note=50 velocity=35 time=60
note_on channel=0 note=50 velocity=0 time=0
note_on channel=0 note=81 velocity=0 time=0
note_on channel=0 note=83 velocity=58 time=0
note_on channel=0 note=65 velocity=55 time=0
note_on channel=0 note=83 velocity=0 time=120
note_on channel=0 note=77 velocity=51 time=0
note_on channel=0 note=77 velocity=0 time=120
note_on channel=0 note=79 velocity=52 time=0
note_on channel=0 note=79 velocity=0 time=120
note_on channel=0 note=81 velocity=53 time=0
note_on channel=0 note=81 velocity=0 time=120
note_on channel=0 note=83 velocity=55 time=0
note_on channel=0 note=83 velocity=0 time=120
note_on channel=0 note=65 velocity=0 time=0
note_on channel=0 note=84 velocity=56 time=0
note_on channel=0 note=64 velocity=46 time=0
note_on channel=0 note=64 velocity=0 time=0
note_on channel=0 note=84 velocity=0 time=0
note_on channel=0 note=86 velocity=58 time=0
note_on channel=0 note=62 velocity=46 time=0
note_on channel=0 note=62 velocity=0 time=120
note_on channel=0 note=86 velocity=0 time=0
note_on channel=0 note=88 velocity=59 time=0
note_on channel=0 note=60 velocity=46 time=0
note_on channel=0 note=60 velocity=0 time=0
note_on channel=0 note=88 velocity=0 time=0
note_on channel=0 note=89 velocity=60 time=0
note_on channel=0 note=59 velocity=52 time=0
note_on channel=0 note=89 velocity=0 time=120
note_on channel=0 note=88 velocity=54 time=0
note_on channel=0 note=88 velocity=0 time=120
note_on channel=0 note=86 velocity=55 time=0
note_on channel=0 note=86 velocity=0 time=120
note_on channel=0 note=84 velocity=57 time=0
note_on channel=0 note=84 velocity=0 time=120
note_on channel=0 note=59 velocity=0 time=0
note_on channel=0 note=83 velocity=58 time=0
note_on channel=0 note=83 velocity=0 time=120
note_on channel=0 note=84 velocity=61 time=0
note_on channel=0 note=84 velocity=0 time=0
note_on channel=0 note=86 velocity=62 time=0
note_on channel=0 note=86 velocity=0 time=120
note_on channel=0 note=83 velocity=64 time=0
note_on channel=0 note=52 velocity=40 time=0
note_on channel=0 note=52 velocity=0 time=0
note_on channel=0 note=83 velocity=0 time=0
note_on channel=0 note=67 velocity=64 time=0
note_on channel=0 note=79 velocity=56 time=120
note_on channel=0 note=79 velocity=0 time=120
note_on channel=0 note=81 velocity=56 time=0
note_on channel=0 note=81 velocity=0 time=120
note_on channel=0 note=83 velocity=57 time=0
note_on channel=0 note=83 velocity=0 time=120
note_on channel=0 note=84 velocity=59 time=0
note_on channel=0 note=84 velocity=0 time=120
note_on channel=0 note=67 velocity=0 time=0
note_on channel=0 note=86 velocity=60 time=0
note_on channel=0 note=65 velocity=52 time=0
note_on channel=0 note=65 velocity=0 time=0
note_on channel=0 note=86 velocity=0 time=0
note_on channel=0 note=88 velocity=62 time=0
note_on channel=0 note=64 velocity=51 time=0
note_on channel=0 note=64 velocity=0 time=120
note_on channel=0 note=88 velocity=0 time=0
note_on channel=0 note=89 velocity=63 time=0
note_on channel=0 note=62 velocity=51 time=0
note_on channel=0 note=62 velocity=0 time=0
note_on channel=0 note=89 velocity=0 time=0
note_on channel=0 note=91 velocity=65 time=0
note_on channel=0 note=61 velocity=56 time=0
note_on channel=0 note=91 velocity=0 time=120
note_on channel=0 note=89 velocity=57 time=0
note_on channel=0 note=89 velocity=0 time=120
note_on channel=0 note=88 velocity=59 time=0
note_on channel=0 note=88 velocity=0 time=120
note_on channel=0 note=86 velocity=60 time=0
note_on channel=0 note=86 velocity=0 time=120
note_on channel=0 note=61 velocity=0 time=0
note_on channel=0 note=85 velocity=62 time=0
note_on channel=0 note=85 velocity=0 time=120
note_on channel=0 note=86 velocity=65 time=0
note_on channel=0 note=86 velocity=0 time=0
note_on channel=0 note=88 velocity=66 time=0
note_on channel=0 note=88 velocity=0 time=120
note_on channel=0 note=85 velocity=68 time=0
note_on channel=0 note=53 velocity=46 time=0
note_on channel=0 note=53 velocity=0 time=0
note_on channel=0 note=85 velocity=0 time=0
note_on channel=0 note=69 velocity=73 time=0
note_on channel=0 note=73 velocity=59 time=120
note_on channel=0 note=73 velocity=0 time=120
note_on channel=0 note=74 velocity=59 time=0
note_on channel=0 note=74 velocity=0 time=120
note_on channel=0 note=76 velocity=61 time=0
note_on channel=0 note=76 velocity=0 time=120
note_on channel=0 note=69 velocity=0 time=0
note_on channel=0 note=77 velocity=63 time=0
note_on channel=0 note=67 velocity=60 time=0
note_on channel=0 note=67 velocity=0 time=120
note_on channel=0 note=77 velocity=0 time=0
note_on channel=0 note=79 velocity=64 time=0
note_on channel=0 note=65 velocity=60 time=0
note_on channel=0 note=65 velocity=0 time=0
note_on channel=0 note=79 velocity=0 time=0
note_on channel=0 note=81 velocity=66 time=0
note_on channel=0 note=64 velocity=60 time=0
note_on channel=0 note=64 velocity=0 time=20
note_on channel=0 note=81 velocity=0 time=0
note_on channel=0 note=77 velocity=67 time=0
note_on channel=0 note=62 velocity=59 time=0
note_on channel=0 note=62 velocity=0 time=0
note_on channel=0 note=55 velocity=47 time=0
note_on channel=0 note=55 velocity=0 time=0
note_on channel=0 note=71 velocity=75 time=0
note_on channel=0 note=77 velocity=0 time=120
note_on channel=0 note=75 velocity=61 time=0
note_on channel=0 note=75 velocity=0 time=120
note_on channel=0 note=76 velocity=61 time=0
note_on channel=0 note=76 velocity=0 time=120
note_on channel=0 note=77 velocity=64 time=0
note_on channel=0 note=77 velocity=0 time=120
note_on channel=0 note=71 velocity=0 time=0
note_on channel=0 note=79 velocity=65 time=0
note_on channel=0 note=69 velocity=62 time=0
note_on channel=0 note=69 velocity=0 time=120
note_on channel=0 note=79 velocity=0 time=0
note_on channel=0 note=81 velocity=66 time=0
note_on channel=0 note=67 velocity=62 time=0
note_on channel=0 note=67 velocity=0 time=0
note_on channel=0 note=81 velocity=0 time=0
note_on channel=0 note=83 velocity=69 time=0
note_on channel=0 note=65 velocity=63 time=0
note_on channel=0 note=65 velocity=0 time=0
note_on channel=0 note=83 velocity=0 time=0
note_on channel=0 note=79 velocity=70 time=0
note_on channel=0 note=64 velocity=62 time=0
note_on channel=0 note=64 velocity=0 time=0
note_on channel=0 note=57 velocity=50 time=0
note_on channel=0 note=57 velocity=0 time=0
note_on channel=0 note=72 velocity=78 time=0
note_on channel=0 note=79 velocity=0 time=120
note_on channel=0 note=76 velocity=63 time=0
note_on channel=0 note=76 velocity=0 time=120
note_on channel=0 note=77 velocity=64 time=0
note_on channel=0 note=77 velocity=0 time=120
note_on channel=0 note=79 velocity=66 time=0
note_on channel=0 note=79 velocity=0 time=120
note_on channel=0 note=72 velocity=0 time=0
note_on channel=0 note=81 velocity=68 time=0
note_on channel=0 note=71 velocity=64 time=0
note_on channel=0 note=71 velocity=0 time=120
note_on channel=0 note=81 velocity=0 time=0
note_on channel=0 note=83 velocity=69 time=0
note_on channel=0 note=69 velocity=64 time=0
note_on channel=0 note=69 velocity=0 time=0
note_on channel=0 note=83 velocity=0 time=0
note_on channel=0 note=84 velocity=72 time=0
note_on channel=0 note=67 velocity=65 time=0
note_on channel=0 note=67 velocity=0 time=0
note_on channel=0 note=84 velocity=0 time=0
note_on channel=0 note=81 velocity=73 time=0
note_on channel=0 note=65 velocity=64 time=0
note_on channel=0 note=65 velocity=0 time=0
note_on channel=0 note=59 velocity=54 time=0
note_on channel=0 note=59 velocity=0 time=0
note_on channel=0 note=74 velocity=81 time=0
note_on channel=0 note=81 velocity=0 time=120
note_on channel=0 note=78 velocity=66 time=0
note_on channel=0 note=78 velocity=0 time=120
note_on channel=0 note=79 velocity=66 time=0
note_on channel=0 note=79 velocity=0 time=120
note_on channel=0 note=81 velocity=68 time=0
note_on channel=0 note=81 velocity=0 time=120
note_on channel=0 note=74 velocity=0 time=0
note_on channel=0 note=83 velocity=70 time=0
note_on channel=0 note=72 velocity=67 time=0
note_on channel=0 note=72 velocity=0 time=120
note_on channel=0 note=83 velocity=0 time=0
note_on channel=0 note=84 velocity=71 time=0
note_on channel=0 note=71 velocity=67 time=0
note_on channel=0 note=71 velocity=0 time=0
note_on channel=0 note=84 velocity=0 time=0
note_on channel=0 note=86 velocity=74 time=0
note_on channel=0 note=69 velocity=67 time=0
note_on channel=0 note=69 velocity=0 time=0
note_on channel=0 note=86 velocity=0 time=0
note_on channel=0 note=83 velocity=75 time=0
note_on channel=0 note=67 velocity=66 time=0
note_on channel=0 note=67 velocity=0 time=0
note_on channel=0 note=60 velocity=56 time=0
note_on channel=0 note=60 velocity=0 time=0
note_on channel=0 note=76 velocity=84 time=0
note_on channel=0 note=83 velocity=0 time=120
note_on channel=0 note=80 velocity=69 time=0
note_on channel=0 note=80 velocity=0 time=120
note_on channel=0 note=81 velocity=69 time=0
note_on channel=0 note=81 velocity=0 time=120
note_on channel=0 note=83 velocity=71 time=0
note_on channel=0 note=83 velocity=0 time=120
note_on channel=0 note=76 velocity=0 time=0
note_on channel=0 note=84 velocity=73 time=0
note_on channel=0 note=74 velocity=69 time=0
note_on channel=0 note=74 velocity=0 time=120
note_on channel=0 note=84 velocity=0 time=0
note_on channel=0 note=86 velocity=74 time=0
note_on channel=0 note=72 velocity=70 time=0
note_on channel=0 note=72 velocity=0 time=0
note_on channel=0 note=86 velocity=0 time=0
note_on channel=0 note=88 velocity=77 time=0
note_on channel=0 note=71 velocity=70 time=0
note_on channel=0 note=71 velocity=0 time=20
note_on channel=0 note=88 velocity=0 time=0
note_on channel=0 note=84 velocity=79 time=0
note_on channel=0 note=69 velocity=69 time=0
note_on channel=0 note=69 velocity=0 time=0
note_on channel=0 note=62 velocity=58 time=0
note_on channel=0 note=62 velocity=0 time=0
note_on channel=0 note=77 velocity=87 time=0
note_on channel=0 note=84 velocity=0 time=120
note_on channel=0 note=82 velocity=71 time=0
note_on channel=0 note=82 velocity=0 time=120
note_on channel=0 note=83 velocity=71 time=0
note_on channel=0 note=83 velocity=0 time=120
note_on channel=0 note=84 velocity=74 time=0
note_on channel=0 note=84 velocity=0 time=120
note_on channel=0 note=77 velocity=0 time=0
note_on channel=0 note=86 velocity=75 time=0
note_on channel=0 note=76 velocity=71 time=0
note_on channel=0 note=76 velocity=0 time=120
note_on channel=0 note=86 velocity=0 time=0
note_on channel=0 note=88 velocity=77 time=0
note_on channel=0 note=74 velocity=72 time=0
note_on channel=0 note=74 velocity=0 time=0
note_on channel=0 note=88 velocity=0 time=0
note_on channel=0 note=89 velocity=79 time=0
note_on channel=0 note=72 velocity=72 time=0
note_on channel=0 note=72 velocity=0 time=0
note_on channel=0 note=89 velocity=0 time=0
note_on channel=0 note=86 velocity=81 time=0
note_on channel=0 note=71 velocity=71 time=0
note_on channel=0 note=71 velocity=0 time=0
note_on channel=0 note=86 velocity=0 time=0
note_on channel=0 note=64 velocity=78 time=0
note_on channel=0 note=64 velocity=0 time=43
note_on channel=0 note=72 velocity=74 time=0
note_on channel=0 note=72 velocity=0 time=80
note_on channel=0 note=76 velocity=74 time=0
note_on channel=0 note=76 velocity=0 time=80
note_on channel=0 note=79 velocity=76 time=0
note_on channel=0 note=79 velocity=0 time=80
note_on channel=0 note=84 velocity=69 time=0
note_on channel=0 note=84 velocity=0 time=80
note_on channel=0 note=91 velocity=70 time=0
note_on channel=0 note=91 velocity=0 time=80
note_on channel=0 note=64 velocity=79 time=0
note_on channel=0 note=64 velocity=0 time=80
note_on channel=0 note=72 velocity=74 time=0
note_on channel=0 note=72 velocity=0 time=80
note_on channel=0 note=76 velocity=75 time=0
note_on channel=0 note=76 velocity=0 time=80
note_on channel=0 note=79 velocity=78 time=0
note_on channel=0 note=79 velocity=0 time=80
note_on channel=0 note=84 velocity=72 time=0
note_on channel=0 note=84 velocity=0 time=80
note_on channel=0 note=91 velocity=71 time=0
note_on channel=0 note=91 velocity=0 time=0
note_on channel=0 note=64 velocity=81 time=0
note_on channel=0 note=64 velocity=0 time=0
note_on channel=0 note=72 velocity=77 time=0
note_on channel=0 note=72 velocity=0 time=0
note_on channel=0 note=76 velocity=77 time=0
note_on channel=0 note=76 velocity=0 time=0
note_on channel=0 note=80 velocity=80 time=0
note_on channel=0 note=80 velocity=0 time=0
note_on channel=0 note=84 velocity=73 time=0
note_on channel=0 note=84 velocity=0 time=0
note_on channel=0 note=92 velocity=74 time=0
note_on channel=0 note=92 velocity=0 time=0
note_on channel=0 note=64 velocity=81 time=0
note_on channel=0 note=64 velocity=0 time=0
note_on channel=0 note=72 velocity=78 time=0
note_on channel=0 note=72 velocity=0 time=0
note_on channel=0 note=76 velocity=79 time=0
note_on channel=0 note=76 velocity=0 time=0
note_on channel=0 note=80 velocity=82 time=0
note_on channel=0 note=80 velocity=0 time=0
note_on channel=0 note=84 velocity=75 time=0
note_on channel=0 note=84 velocity=0 time=0
note_on channel=0 note=92 velocity=75 time=0
note_on channel=0 note=92 velocity=0 time=0
note_on channel=0 note=81 velocity=85 time=0
note_on channel=0 note=72 velocity=75 time=0
note_on channel=0 note=77 velocity=75 time=0
note_on channel=0 note=65 velocity=75 time=0
note_on channel=0 note=81 velocity=0 time=0
note_on channel=0 note=93 velocity=88 time=0
note_on channel=0 note=93 velocity=0 time=80
note_on channel=0 note=91 velocity=87 time=0
note_on channel=0 note=91 velocity=0 time=120
note_on channel=0 note=89 velocity=86 time=0
note_on channel=0 note=89 velocity=0 time=120
note_on channel=0 note=65 velocity=0 time=0
note_on channel=0 note=77 velocity=0 time=0
note_on channel=0 note=72 velocity=0 time=0
note_on channel=0 note=88 velocity=86 time=0
note_on channel=0 note=88 velocity=0 time=120
note_on channel=0 note=86 velocity=85 time=0
note_on channel=0 note=86 velocity=0 time=120
note_on channel=0 note=84 velocity=84 time=0
note_on channel=0 note=84 velocity=0 time=120
note_on channel=0 note=83 velocity=83 time=0
note_on channel=0 note=83 velocity=0 time=120
note_on channel=0 note=81 velocity=82 time=0
note_on channel=0 note=81 velocity=0 time=80
note_on channel=0 note=79 velocity=81 time=0
note_on channel=0 note=79 velocity=0 time=120
note_on channel=0 note=77 velocity=80 time=0
note_on channel=0 note=77 velocity=0 time=120
note_on channel=0 note=76 velocity=79 time=0
note_on channel=0 note=76 velocity=0 time=120
note_on channel=0 note=74 velocity=78 time=0
note_on channel=0 note=74 velocity=0 time=120
note_on channel=0 note=72 velocity=77 time=0
note_on channel=0 note=72 velocity=0 time=120
note_on channel=0 note=71 velocity=77 time=0
note_on channel=0 note=71 velocity=0 time=120
note_on channel=0 note=69 velocity=76 time=0
note_on channel=0 note=69 velocity=0 time=80
note_on channel=0 note=68 velocity=75 time=0
note_on channel=0 note=68 velocity=0 time=57
note_on channel=0 note=69 velocity=78 time=0
note_on channel=0 note=69 velocity=0 time=120
note_on channel=0 note=67 velocity=77 time=0
note_on channel=0 note=67 velocity=0 time=120
note_on channel=0 note=65 velocity=77 time=0
note_on channel=0 note=65 velocity=0 time=120
note_on channel=0 note=64 velocity=77 time=0
note_on channel=0 note=29 velocity=75 time=0
note_on channel=0 note=64 velocity=0 time=45
note_on channel=0 note=62 velocity=77 time=0
note_on channel=0 note=62 velocity=0 time=120
note_on channel=0 note=60 velocity=76 time=0
note_on channel=0 note=60 velocity=0 time=120
note_on channel=0 note=59 velocity=76 time=0
note_on channel=0 note=59 velocity=0 time=40
note_on channel=0 note=57 velocity=76 time=0
note_on channel=0 note=57 velocity=0 time=34
note_on channel=0 note=29 velocity=0 time=0
note_on channel=0 note=55 velocity=75 time=0
note_on channel=0 note=31 velocity=68 time=0
note_on channel=0 note=31 velocity=0 time=120
note_on channel=0 note=55 velocity=0 time=0
note_on channel=0 note=53 velocity=75 time=0
note_on channel=0 note=33 velocity=69 time=0
note_on channel=0 note=33 velocity=0 time=40
note_on channel=0 note=53 velocity=0 time=0
note_on channel=0 note=52 velocity=75 time=0
note_on channel=0 note=35 velocity=70 time=0
note_on channel=0 note=35 velocity=0 time=120
note_on channel=0 note=52 velocity=0 time=0
note_on channel=0 note=50 velocity=75 time=0
note_on channel=0 note=36 velocity=71 time=0
note_on channel=0 note=36 velocity=0 time=40
note_on channel=0 note=50 velocity=0 time=0
note_on channel=0 note=48 velocity=74 time=0
note_on channel=0 note=38 velocity=73 time=0
note_on channel=0 note=38 velocity=0 time=120
note_on channel=0 note=48 velocity=0 time=0
note_on channel=0 note=47 velocity=74 time=0
note_on channel=0 note=40 velocity=74 time=0
note_on channel=0 note=40 velocity=0 time=80
note_on channel=0 note=47 velocity=0 time=0
note_on channel=0 note=45 velocity=74 time=0
note_on channel=0 note=41 velocity=75 time=0
note_on channel=0 note=41 velocity=0 time=0
note_on channel=0 note=45 velocity=0 time=0
note_on channel=0 note=43 velocity=75 time=0
note_on channel=0 note=31 velocity=63 time=0
note_on channel=0 note=36 velocity=63 time=0
note_on channel=0 note=40 velocity=75 time=0
note_on channel=0 note=43 velocity=0 time=80
note_on channel=0 note=48 velocity=75 time=0
note_on channel=0 note=48 velocity=0 time=120
note_on channel=0 note=47 velocity=47 time=0
note_on channel=0 note=47 velocity=0 time=120
note_on channel=0 note=50 velocity=47 time=0
note_on channel=0 note=50 velocity=0 time=120
note_on channel=0 note=40 velocity=0 time=0
note_on channel=0 note=36 velocity=0 time=0
note_on channel=0 note=31 velocity=0 time=0
note_on channel=0 note=48 velocity=47 time=0
note_on channel=0 note=48 velocity=0 time=120
note_on channel=0 note=52 velocity=48 time=0
note_on channel=0 note=52 velocity=0 time=120
note_on channel=0 note=51 velocity=48 time=0
note_on channel=0 note=51 velocity=0 time=120
note_on channel=0 note=53 velocity=48 time=0
note_on channel=0 note=53 velocity=0 time=120
note_on channel=0 note=52 velocity=48 time=0
note_on channel=0 note=52 velocity=0 time=80
note_on channel=0 note=55 velocity=49 time=0
note_on channel=0 note=55 velocity=0 time=120
note_on channel=0 note=54 velocity=49 time=0
note_on channel=0 note=54 velocity=0 time=120
note_on channel=0 note=57 velocity=49 time=0
note_on channel=0 note=57 velocity=0 time=120
note_on channel=0 note=55 velocity=50 time=0
note_on channel=0 note=55 velocity=0 time=120
note_on channel=0 note=60 velocity=50 time=0
note_on channel=0 note=60 velocity=0 time=120
note_on channel=0 note=59 velocity=50 time=0
note_on channel=0 note=59 velocity=0 time=120
note_on channel=0 note=62 velocity=51 time=0
note_on channel=0 note=62 velocity=0 time=0
note_on channel=0 note=60 velocity=51 time=0
note_on channel=0 note=60 velocity=0 time=120
note_on channel=0 note=64 velocity=51 time=0
note_on channel=0 note=64 velocity=0 time=120
note_on channel=0 note=63 velocity=52 time=0
note_on channel=0 note=63 velocity=0 time=120
note_on channel=0 note=65 velocity=52 time=0
note_on channel=0 note=65 velocity=0 time=120
note_on channel=0 note=64 velocity=52 time=0
note_on channel=0 note=64 velocity=0 time=120
note_on channel=0 note=67 velocity=53 time=0
note_on channel=0 note=67 velocity=0 time=120
note_on channel=0 note=66 velocity=53 time=0
note_on channel=0 note=66 velocity=0 time=120
note_on channel=0 note=69 velocity=53 time=0
note_on channel=0 note=69 velocity=0 time=120
note_on channel=0 note=67 velocity=54 time=0
note_on channel=0 note=67 velocity=0 time=120
note_on channel=0 note=72 velocity=54 time=0
note_on channel=0 note=72 velocity=0 time=120
note_on channel=0 note=71 velocity=54 time=0
note_on channel=0 note=71 velocity=0 time=120
note_on channel=0 note=74 velocity=55 time=0
note_on channel=0 note=74 velocity=0 time=120
note_on channel=0 note=72 velocity=55 time=0
note_on channel=0 note=72 velocity=0 time=120
note_on channel=0 note=76 velocity=55 time=0
note_on channel=0 note=76 velocity=0 time=120
note_on channel=0 note=75 velocity=56 time=0
note_on channel=0 note=75 velocity=0 time=120
note_on channel=0 note=77 velocity=56 time=0
note_on channel=0 note=77 velocity=0 time=120
note_on channel=0 note=76 velocity=56 time=0
note_on channel=0 note=76 velocity=0 time=120
note_on channel=0 note=79 velocity=58 time=0
note_on channel=0 note=79 velocity=0 time=120
note_on channel=0 note=78 velocity=60 time=0
note_on channel=0 note=78 velocity=0 time=0
note_on channel=0 note=81 velocity=62 time=0
note_on channel=0 note=81 velocity=0 time=0
note_on channel=0 note=79 velocity=70 time=0
note_on channel=0 note=79 velocity=0 time=60
note_on channel=0 note=84 velocity=62 time=60
note_on channel=0 note=76 velocity=52 time=0
note_on channel=0 note=76 velocity=0 time=70
note_on channel=0 note=84 velocity=0 time=0
note_on channel=0 note=83 velocity=62 time=0
note_on channel=0 note=75 velocity=52 time=0
note_on channel=0 note=75 velocity=0 time=0
note_on channel=0 note=83 velocity=0 time=0
note_on channel=0 note=84 velocity=63 time=0
note_on channel=0 note=76 velocity=53 time=0
note_on channel=0 note=76 velocity=0 time=0
note_on channel=0 note=84 velocity=0 time=0
note_on channel=0 note=79 velocity=70 time=0
note_on channel=0 note=67 velocity=60 time=0
note_on channel=0 note=67 velocity=0 time=53
note_on channel=0 note=79 velocity=0 time=0
note_on channel=0 note=88 velocity=63 time=60
note_on channel=0 note=72 velocity=54 time=0
note_on channel=0 note=72 velocity=0 time=113
note_on channel=0 note=88 velocity=0 time=0
note_on channel=0 note=87 velocity=64 time=0
note_on channel=0 note=71 velocity=55 time=0
note_on channel=0 note=71 velocity=0 time=0
note_on channel=0 note=87 velocity=0 time=0
note_on channel=0 note=88 velocity=65 time=0
note_on channel=0 note=72 velocity=55 time=0
note_on channel=0 note=72 velocity=0 time=0
note_on channel=0 note=88 velocity=0 time=0
note_on channel=0 note=79 velocity=72 time=0
note_on channel=0 note=67 velocity=61 time=0
note_on channel=0 note=67 velocity=0 time=39
note_on channel=0 note=79 velocity=0 time=0
note_on channel=0 note=84 velocity=65 time=60
note_on channel=0 note=76 velocity=56 time=0
note_on channel=0 note=76 velocity=0 time=95
note_on channel=0 note=84 velocity=0 time=0
note_on channel=0 note=83 velocity=66 time=0
note_on channel=0 note=75 velocity=56 time=0
note_on channel=0 note=75 velocity=0 time=0
note_on channel=0 note=83 velocity=0 time=0
note_on channel=0 note=84 velocity=66 time=0
note_on channel=0 note=76 velocity=56 time=0
note_on channel=0 note=76 velocity=0 time=0
note_on channel=0 note=84 velocity=0 time=0
note_on channel=0 note=79 velocity=74 time=0
note_on channel=0 note=67 velocity=63 time=0
note_on channel=0 note=67 velocity=0 time=53
note_on channel=0 note=79 velocity=0 time=0
note_on channel=0 note=88 velocity=67 time=0
note_on channel=0 note=72 velocity=57 time=0
note_on channel=0 note=72 velocity=0 time=84
note_on channel=0 note=88 velocity=0 time=0
note_on channel=0 note=87 velocity=68 time=0
note_on channel=0 note=71 velocity=58 time=0
note_on channel=0 note=71 velocity=0 time=0
note_on channel=0 note=87 velocity=0 time=0
note_on channel=0 note=88 velocity=68 time=0
note_on channel=0 note=72 velocity=58 time=0
note_on channel=0 note=72 velocity=0 time=0
note_on channel=0 note=88 velocity=0 time=0
note_on channel=0 note=79 velocity=76 time=0
note_on channel=0 note=67 velocity=65 time=0
note_on channel=0 note=67 velocity=0 time=48
note_on channel=0 note=79 velocity=0 time=0
note_on channel=0 note=84 velocity=69 time=60
note_on channel=0 note=76 velocity=59 time=0
note_on channel=0 note=76 velocity=0 time=53
note_on channel=0 note=84 velocity=0 time=0
note_on channel=0 note=83 velocity=69 time=0
note_on channel=0 note=75 velocity=59 time=0
note_on channel=0 note=75 velocity=0 time=0
note_on channel=0 note=83 velocity=0 time=0
note_on channel=0 note=84 velocity=70 time=0
note_on channel=0 note=76 velocity=59 time=0
note_on channel=0 note=76 velocity=0 time=0
note_on channel=0 note=84 velocity=0 time=0
note_on channel=0 note=79 velocity=78 time=0
note_on channel=0 note=67 velocity=67 time=0
note_on channel=0 note=67 velocity=0 time=46
note_on channel=0 note=79 velocity=0 time=0
note_on channel=0 note=88 velocity=71 time=60
note_on channel=0 note=72 velocity=60 time=0
note_on channel=0 note=72 velocity=0 time=81
note_on channel=0 note=88 velocity=0 time=0
note_on channel=0 note=87 velocity=71 time=0
note_on channel=0 note=71 velocity=60 time=0
note_on channel=0 note=71 velocity=0 time=120
note_on channel=0 note=87 velocity=0 time=0
note_on channel=0 note=88 velocity=71 time=0
note_on channel=0 note=72 velocity=61 time=0
note_on channel=0 note=72 velocity=0 time=0
note_on channel=0 note=88 velocity=0 time=0
note_on channel=0 note=79 velocity=80 time=0
note_on channel=0 note=67 velocity=69 time=0
note_on channel=0 note=67 velocity=0 time=20
note_on channel=0 note=79 velocity=0 time=0
note_on channel=0 note=84 velocity=72 time=0
note_on channel=0 note=76 velocity=62 time=0
note_on channel=0 note=76 velocity=0 time=0
note_on channel=0 note=84 velocity=0 time=0
note_on channel=0 note=83 velocity=73 time=0
note_on channel=0 note=75 velocity=62 time=0
note_on channel=0 note=75 velocity=0 time=0
note_on channel=0 note=83 velocity=0 time=0
note_on channel=0 note=84 velocity=73 time=0
note_on channel=0 note=76 velocity=63 time=0
note_on channel=0 note=76 velocity=0 time=0
note_on channel=0 note=84 velocity=0 time=0
note_on channel=0 note=89 velocity=87 time=0
note_on channel=0 note=83 velocity=87 time=0
note_on channel=0 note=74 velocity=73 time=0
note_on channel=0 note=67 velocity=73 time=0
note_on channel=0 note=77 velocity=73 time=0
note_on channel=0 note=83 velocity=0 time=19
note_on channel=0 note=89 velocity=0 time=0
note_on channel=0 note=89 velocity=73 time=0
note_on channel=0 note=89 velocity=0 time=15
note_on channel=0 note=88 velocity=73 time=0
note_on channel=0 note=88 velocity=0 time=19
note_on channel=0 note=86 velocity=72 time=0
note_on channel=0 note=86 velocity=0 time=27
note_on channel=0 note=84 velocity=71 time=0
note_on channel=0 note=84 velocity=0 time=35
note_on channel=0 note=83 velocity=70 time=0
note_on channel=0 note=83 velocity=0 time=39
note_on channel=0 note=81 velocity=69 time=0
note_on channel=0 note=81 velocity=0 time=47
note_on channel=0 note=79 velocity=68 time=0
note_on channel=0 note=79 velocity=0 time=55
note_on channel=0 note=77 velocity=68 time=0
note_on channel=0 note=77 velocity=0 time=7
note_on channel=0 note=76 velocity=66 time=0
note_on channel=0 note=76 velocity=0 time=15
note_on channel=0 note=74 velocity=66 time=0
note_on channel=0 note=74 velocity=0 time=0
note_on channel=0 note=72 velocity=65 time=0
note_on channel=0 note=72 velocity=0 time=0
note_on channel=0 note=71 velocity=65 time=0
note_on channel=0 note=71 velocity=0 time=0
note_on channel=0 note=67 velocity=0 time=0
note_on channel=0 note=74 velocity=0 time=0
note_on channel=0 note=77 velocity=0 time=0
note_on channel=0 note=71 velocity=78 time=0
note_on channel=0 note=77 velocity=78 time=0
note_on channel=0 note=65 velocity=65 time=0
note_on channel=0 note=55 velocity=65 time=0
note_on channel=0 note=62 velocity=65 time=0
note_on channel=0 note=77 velocity=0 time=0
note_on channel=0 note=71 velocity=0 time=0
note_on channel=0 note=77 velocity=64 time=0
note_on channel=0 note=77 velocity=0 time=0
note_on channel=0 note=76 velocity=62 time=0
note_on channel=0 note=76 velocity=0 time=0
note_on channel=0 note=74 velocity=60 time=0
note_on channel=0 note=74 velocity=0 time=0
note_on channel=0 note=72 velocity=60 time=0
note_on channel=0 note=72 velocity=0 time=0
note_on channel=0 note=71 velocity=60 time=0
note_on channel=0 note=71 velocity=0 time=0
note_on channel=0 note=69 velocity=59 time=0
note_on channel=0 note=69 velocity=0 time=0
note_on channel=0 note=67 velocity=56 time=0
note_on channel=0 note=67 velocity=0 time=0
note_on channel=0 note=65 velocity=54 time=0
note_on channel=0 note=65 velocity=0 time=0
note_on channel=0 note=55 velocity=0 time=0
note_on channel=0 note=65 velocity=0 time=0
note_on channel=0 note=62 velocity=0 time=0
note_on channel=0 note=55 velocity=42 time=0
note_on channel=0 note=60 velocity=42 time=0
note_on channel=0 note=64 velocity=50 time=0
note_on channel=0 note=48 velocity=39 time=0
note_on channel=0 note=36 velocity=33 time=0
note_on channel=0 note=36 velocity=0 time=0
note_on channel=0 note=64 velocity=0 time=0
note_on channel=0 note=55 velocity=0 time=0
note_on channel=0 note=60 velocity=0 time=0
note_on channel=0 note=48 velocity=0 time=0
note_on channel=0 note=53 velocity=40 time=0
note_on channel=0 note=59 velocity=40 time=0
note_on channel=0 note=62 velocity=48 time=0
note_on channel=0 note=44 velocity=29 time=0
note_on channel=0 note=32 velocity=29 time=0
note_on channel=0 note=32 velocity=0 time=0
note_on channel=0 note=62 velocity=0 time=0
note_on channel=0 note=53 velocity=0 time=0
note_on channel=0 note=59 velocity=0 time=0
note_on channel=0 note=44 velocity=0 time=0
note_on channel=0 note=52 velocity=40 time=0
note_on channel=0 note=57 velocity=40 time=0
note_on channel=0 note=60 velocity=48 time=0
note_on channel=0 note=45 velocity=35 time=0
note_on channel=0 note=33 velocity=29 time=0
note_on channel=0 note=33 velocity=0 time=0
note_on channel=0 note=60 velocity=0 time=0
note_on channel=0 note=52 velocity=0 time=0
note_on channel=0 note=57 velocity=0 time=0
note_on channel=0 note=45 velocity=0 time=0
note_on channel=0 note=50 velocity=42 time=0
note_on channel=0 note=56 velocity=42 time=0
note_on channel=0 note=59 velocity=50 time=0
note_on channel=0 note=40 velocity=39 time=0
note_on channel=0 note=40 velocity=0 time=960
note_on channel=0 note=50 velocity=0 time=0
note_on channel=0 note=56 velocity=0 time=0
note_on channel=0 note=59 velocity=0 time=0
note_on channel=0 note=48 velocity=40 time=0
note_on channel=0 note=57 velocity=48 time=0
note_on channel=0 note=41 velocity=34 time=0
note_on channel=0 note=41 velocity=0 time=0
note_on channel=0 note=57 velocity=0 time=0
note_on channel=0 note=48 velocity=0 time=0
note_on channel=0 note=65 velocity=45 time=0
note_on channel=0 note=67 velocity=45 time=0
note_on channel=0 note=71 velocity=53 time=0
note_on channel=0 note=53 velocity=41 time=0
note_on channel=0 note=55 velocity=34 time=0
note_on channel=0 note=59 velocity=41 time=0
note_on channel=0 note=50 velocity=34 time=0
note_on channel=0 note=50 velocity=0 time=0
note_on channel=0 note=55 velocity=0 time=0
note_on channel=0 note=67 velocity=0 time=0
note_on channel=0 note=71 velocity=0 time=0
note_on channel=0 note=65 velocity=0 time=0
note_on channel=0 note=59 velocity=0 time=0
note_on channel=0 note=53 velocity=0 time=0
note_on channel=0 note=67 velocity=47 time=0
note_on channel=0 note=72 velocity=56 time=0
note_on channel=0 note=55 velocity=38 time=0
note_on channel=0 note=60 velocity=46 time=0
note_on channel=0 note=52 velocity=38 time=0
note_on channel=0 note=52 velocity=0 time=0
note_on channel=0 note=55 velocity=0 time=0
note_on channel=0 note=67 velocity=0 time=0
note_on channel=0 note=72 velocity=0 time=0
note_on channel=0 note=60 velocity=0 time=0
note_on channel=0 note=69 velocity=51 time=0
note_on channel=0 note=72 velocity=51 time=0
note_on channel=0 note=74 velocity=62 time=0
note_on channel=0 note=62 velocity=51 time=0
note_on channel=0 note=53 velocity=43 time=0
note_on channel=0 note=60 velocity=43 time=0
note_on channel=0 note=57 velocity=43 time=0
note_on channel=0 note=57 velocity=0 time=0
note_on channel=0 note=53 velocity=0 time=0
note_on channel=0 note=72 velocity=0 time=0
note_on channel=0 note=74 velocity=0 time=0
note_on channel=0 note=69 velocity=0 time=0
note_on channel=0 note=60 velocity=0 time=0
note_on channel=0 note=62 velocity=0 time=0
note_on channel=0 note=67 velocity=56 time=0
note_on channel=0 note=72 velocity=56 time=0
note_on channel=0 note=76 velocity=67 time=0
note_on channel=0 note=55 velocity=46 time=0
note_on channel=0 note=60 velocity=46 time=0
note_on channel=0 note=64 velocity=56 time=0
note_on channel=0 note=64 velocity=0 time=0
note_on channel=0 note=72 velocity=0 time=0
note_on channel=0 note=76 velocity=0 time=0
note_on channel=0 note=60 velocity=0 time=0
note_on channel=0 note=71 velocity=50 time=0
note_on channel=0 note=74 velocity=60 time=0
note_on channel=0 note=59 velocity=41 time=0
note_on channel=0 note=62 velocity=49 time=0
note_on channel=0 note=67 velocity=0 time=0
note_on channel=0 note=79 velocity=50 time=0
note_on channel=0 note=79 velocity=0 time=240
note_on channel=0 note=77 velocity=49 time=0
note_on channel=0 note=77 velocity=0 time=0
note_on channel=0 note=71 velocity=0 time=0
note_on channel=0 note=74 velocity=0 time=0
note_on channel=0 note=55 velocity=0 time=0
note_on channel=0 note=62 velocity=0 time=0
note_on channel=0 note=59 velocity=0 time=0
note_on channel=0 note=76 velocity=50 time=0
note_on channel=0 note=72 velocity=42 time=0
note_on channel=0 note=88 velocity=52 time=480
note_on channel=0 note=84 velocity=44 time=0
note_on channel=0 note=84 velocity=0 time=0
note_on channel=0 note=76 velocity=0 time=0
note_on channel=0 note=72 velocity=0 time=0
note_on channel=0 note=88 velocity=0 time=0
note_on channel=0 note=86 velocity=50 time=0
note_on channel=0 note=83 velocity=42 time=0
note_on channel=0 note=77 velocity=42 time=0
note_on channel=0 note=74 velocity=48 time=0
note_on channel=0 note=68 velocity=40 time=0
note_on channel=0 note=71 velocity=40 time=0
note_on channel=0 note=71 velocity=0 time=0
note_on channel=0 note=83 velocity=0 time=0
note_on channel=0 note=77 velocity=0 time=0
note_on channel=0 note=86 velocity=0 time=0
note_on channel=0 note=68 velocity=0 time=0
note_on channel=0 note=74 velocity=0 time=0
note_on channel=0 note=84 velocity=50 time=0
note_on channel=0 note=81 velocity=42 time=0
note_on channel=0 note=76 velocity=42 time=0
note_on channel=0 note=69 velocity=40 time=0
note_on channel=0 note=72 velocity=48 time=0
note_on channel=0 note=72 velocity=0 time=0
note_on channel=0 note=76 velocity=0 time=0
note_on channel=0 note=84 velocity=0 time=0
note_on channel=0 note=81 velocity=0 time=0
note_on channel=0 note=69 velocity=0 time=0
note_on channel=0 note=74 velocity=45 time=0
note_on channel=0 note=80 velocity=45 time=0
note_on channel=0 note=83 velocity=53 time=0
note_on channel=0 note=64 velocity=42 time=0
note_on channel=0 note=68 velocity=42 time=0
note_on channel=0 note=71 velocity=50 time=0
note_on channel=0 note=71 velocity=0 time=0
note_on channel=0 note=80 velocity=0 time=0
note_on channel=0 note=83 velocity=0 time=0
note_on channel=0 note=74 velocity=0 time=0
note_on channel=0 note=68 velocity=0 time=0
note_on channel=0 note=64 velocity=0 time=0
note_on channel=0 note=72 velocity=42 time=0
note_on channel=0 note=81 velocity=50 time=0
note_on channel=0 note=65 velocity=40 time=0
note_on channel=0 note=69 velocity=48 time=0
note_on channel=0 note=69 velocity=0 time=960
note_on channel=0 note=72 velocity=0 time=0
note_on channel=0 note=81 velocity=0 time=0
note_on channel=0 note=65 velocity=0 time=0
note_on channel=0 note=72 velocity=45 time=0
note_on channel=0 note=76 velocity=45 time=0
note_on channel=0 note=79 velocity=53 time=0
note_on channel=0 note=60 velocity=34 time=0
note_on channel=0 note=64 velocity=40 time=0
note_on channel=0 note=55 velocity=34 time=0
note_on channel=0 note=64 velocity=0 time=0
note_on channel=0 note=60 velocity=0 time=0
note_on channel=0 note=76 velocity=0 time=0
note_on channel=0 note=72 velocity=0 time=0
note_on channel=0 note=74 velocity=40 time=0
note_on channel=0 note=77 velocity=48 time=0
note_on channel=0 note=65 velocity=35 time=0
note_on channel=0 note=62 velocity=29 time=0
note_on channel=0 note=79 velocity=0 time=0
note_on channel=0 note=81 velocity=53 time=0
note_on channel=0 note=81 velocity=0 time=0
note_on channel=0 note=83 velocity=51 time=0
note_on channel=0 note=83 velocity=0 time=0
note_on channel=0 note=74 velocity=0 time=0
note_on channel=0 note=77 velocity=0 time=0
note_on channel=0 note=55 velocity=0 time=0
note_on channel=0 note=62 velocity=0 time=0
note_on channel=0 note=65 velocity=0 time=0
note_on channel=0 note=60 velocity=45 time=0
note_on channel=0 note=64 velocity=45 time=0
note_on channel=0 note=67 velocity=53 time=0
note_on channel=0 note=43 velocity=34 time=0
note_on channel=0 note=52 velocity=40 time=0
note_on channel=0 note=48 velocity=34 time=0
note_on channel=0 note=48 velocity=0 time=0
note_on channel=0 note=64 velocity=0 time=0
note_on channel=0 note=60 velocity=0 time=0
note_on channel=0 note=52 velocity=0 time=0
note_on channel=0 note=62 velocity=40 time=0
note_on channel=0 note=65 velocity=48 time=0
note_on channel=0 note=50 velocity=29 time=0
note_on channel=0 note=53 velocity=35 time=0
note_on channel=0 note=67 velocity=0 time=0
note_on channel=0 note=68 velocity=56 time=0
note_on channel=0 note=68 velocity=0 time=0
note_on channel=0 note=71 velocity=46 time=0
note_on channel=0 note=71 velocity=0 time=0
note_on channel=0 note=62 velocity=0 time=0
note_on channel=0 note=65 velocity=0 time=0
note_on channel=0 note=43 velocity=0 time=0
note_on channel=0 note=53 velocity=0 time=0
note_on channel=0 note=50 velocity=0 time=0
note_on channel=0 note=48 velocity=45 time=0
note_on channel=0 note=52 velocity=45 time=0
note_on channel=0 note=55 velocity=53 time=0
note_on channel=0 note=31 velocity=34 time=0
note_on channel=0 note=36 velocity=34 time=0
note_on channel=0 note=40 velocity=40 time=0
note_on channel=0 note=40 velocity=0 time=0
note_on channel=0 note=52 velocity=0 time=0
note_on channel=0 note=48 velocity=0 time=0
note_on channel=0 note=36 velocity=0 time=0
note_on channel=0 note=50 velocity=40 time=0
note_on channel=0 note=53 velocity=48 time=0
note_on channel=0 note=38 velocity=29 time=0
note_on channel=0 note=41 velocity=35 time=0
note_on channel=0 note=55 velocity=0 time=0
note_on channel=0 note=57 velocity=56 time=0
note_on channel=0 note=57 velocity=0 time=0
note_on channel=0 note=59 velocity=46 time=0
note_on channel=0 note=59 velocity=0 time=0
note_on channel=0 note=50 velocity=0 time=0
note_on channel=0 note=53 velocity=0 time=0
note_on channel=0 note=31 velocity=0 time=0
note_on channel=0 note=41 velocity=0 time=0
note_on channel=0 note=38 velocity=0 time=0
note_on channel=0 note=52 velocity=28 time=0
note_on channel=0 note=60 velocity=40 time=0
note_on channel=0 note=48 velocity=25 time=0
note_on channel=0 note=36 velocity=25 time=0
note_on channel=0 note=36 velocity=0 time=120
note_on channel=0 note=48 velocity=0 time=0
note_on channel=0 note=52 velocity=0 time=0
note_on channel=0 note=60 velocity=0 time=120
note_on channel=0 note=60 velocity=28 time=0
note_on channel=0 note=64 velocity=33 time=0
note_on channel=0 note=55 velocity=26 time=0
note_on channel=0 note=48 velocity=22 time=0
note_on channel=0 note=48 velocity=0 time=120
note_on channel=0 note=60 velocity=0 time=0
note_on channel=0 note=64 velocity=0 time=0
note_on channel=0 note=55 velocity=0 time=0
note_on channel=0 note=60 velocity=28 time=0
note_on channel=0 note=64 velocity=33 time=0
note_on channel=0 note=55 velocity=26 time=0
note_on channel=0 note=48 velocity=22 time=0
note_on channel=0 note=48 velocity=0 time=120
note_on channel=0 note=60 velocity=0 time=0
note_on channel=0 note=64 velocity=0 time=0
note_on channel=0 note=55 velocity=0 time=0
note_on channel=0 note=60 velocity=28 time=120
note_on channel=0 note=64 velocity=34 time=0
note_on channel=0 note=55 velocity=27 time=0
note_on channel=0 note=48 velocity=22 time=0
note_on channel=0 note=48 velocity=0 time=120
note_on channel=0 note=60 velocity=0 time=0
note_on channel=0 note=64 velocity=0 time=0
note_on channel=0 note=55 velocity=0 time=0
note_on channel=0 note=60 velocity=28 time=120
note_on channel=0 note=64 velocity=34 time=0
note_on channel=0 note=48 velocity=22 time=0
note_on channel=0 note=55 velocity=27 time=0
note_on channel=0 note=55 velocity=0 time=100
note_on channel=0 note=60 velocity=0 time=0
note_on channel=0 note=64 velocity=0 time=0
note_on channel=0 note=48 velocity=0 time=0
note_on channel=0 note=60 velocity=28 time=120
note_on channel=0 note=64 velocity=34 time=0
note_on channel=0 note=55 velocity=28 time=0
note_on channel=0 note=48 velocity=23 time=0
note_on channel=0 note=48 velocity=0 time=120
note_on channel=0 note=60 velocity=0 time=0
note_on channel=0 note=64 velocity=0 time=0
note_on channel=0 note=55 velocity=0 time=0
note_on channel=0 note=60 velocity=29 time=0
note_on channel=0 note=64 velocity=35 time=0
note_on channel=0 note=55 velocity=28 time=0
note_on channel=0 note=48 velocity=23 time=0
note_on channel=0 note=48 velocity=0 time=120
note_on channel=0 note=60 velocity=0 time=0
note_on channel=0 note=64 velocity=0 time=0
note_on channel=0 note=55 velocity=0 time=0
note_on channel=0 note=60 velocity=29 time=120
note_on channel=0 note=64 velocity=35 time=0
note_on channel=0 note=55 velocity=29 time=0
note_on channel=0 note=48 velocity=24 time=0
note_on channel=0 note=48 velocity=0 time=120
note_on channel=0 note=60 velocity=0 time=0
note_on channel=0 note=64 velocity=0 time=0
note_on channel=0 note=55 velocity=0 time=0
note_on channel=0 note=60 velocity=30 time=120
note_on channel=0 note=64 velocity=36 time=0
note_on channel=0 note=48 velocity=25 time=0
note_on channel=0 note=55 velocity=30 time=0
note_on channel=0 note=55 velocity=0 time=80
note_on channel=0 note=60 velocity=0 time=0
note_on channel=0 note=64 velocity=0 time=0
note_on channel=0 note=48 velocity=0 time=0
note_on channel=0 note=60 velocity=30 time=120
note_on channel=0 note=64 velocity=36 time=0
note_on channel=0 note=48 velocity=22 time=0
note_on channel=0 note=55 velocity=27 time=0
note_on channel=0 note=55 velocity=0 time=120
note_on channel=0 note=60 velocity=0 time=0
note_on channel=0 note=64 velocity=0 time=0
note_on channel=0 note=48 velocity=0 time=0
note_on channel=0 note=60 velocity=31 time=0
note_on channel=0 note=64 velocity=37 time=0
note_on channel=0 note=48 velocity=23 time=0
note_on channel=0 note=55 velocity=28 time=0
note_on channel=0 note=55 velocity=0 time=120
note_on channel=0 note=60 velocity=0 time=0
note_on channel=0 note=64 velocity=0 time=0
note_on channel=0 note=48 velocity=0 time=0
note_on channel=0 note=60 velocity=32 time=120
note_on channel=0 note=64 velocity=38 time=0
note_on channel=0 note=55 velocity=29 time=0
note_on channel=0 note=48 velocity=24 time=0
note_on channel=0 note=48 velocity=0 time=120
note_on channel=0 note=60 velocity=0 time=0
note_on channel=0 note=64 velocity=0 time=0
note_on channel=0 note=55 velocity=0 time=0
note_on channel=0 note=60 velocity=33 time=0
note_on channel=0 note=64 velocity=39 time=0
note_on channel=0 note=55 velocity=30 time=0
note_on channel=0 note=48 velocity=25 time=0
note_on channel=0 note=48 velocity=0 time=120
note_on channel=0 note=60 velocity=0 time=0
note_on channel=0 note=64 velocity=0 time=0
note_on channel=0 note=55 velocity=0 time=0
note_on channel=0 note=60 velocity=34 time=120
note_on channel=0 note=64 velocity=40 time=0
note_on channel=0 note=48 velocity=25 time=0
note_on channel=0 note=55 velocity=30 time=0
note_on channel=0 note=55 velocity=0 time=120
note_on channel=0 note=60 velocity=0 time=0
note_on channel=0 note=64 velocity=0 time=0
note_on channel=0 note=48 velocity=0 time=0
note_on channel=0 note=62 velocity=34 time=120
note_on channel=0 note=66 velocity=40 time=0
note_on channel=0 note=57 velocity=30 time=0
note_on channel=0 note=48 velocity=25 time=0
note_on channel=0 note=48 velocity=0 time=120
note_on channel=0 note=62 velocity=0 time=0
note_on channel=0 note=66 velocity=0 time=0
note_on channel=0 note=57 velocity=0 time=0
note_on channel=0 note=62 velocity=34 time=120
note_on channel=0 note=66 velocity=40 time=0
note_on channel=0 note=48 velocity=25 time=0
note_on channel=0 note=57 velocity=30 time=0
note_on channel=0 note=57 velocity=0 time=120
note_on channel=0 note=62 velocity=0 time=0
note_on channel=0 note=66 velocity=0 time=0
note_on channel=0 note=48 velocity=0 time=0
note_on channel=0 note=67 velocity=52 time=0
note_on channel=0 note=47 velocity=28 time=0
note_on channel=0 note=50 velocity=28 time=0
note_on channel=0 note=55 velocity=34 time=0
note_on channel=0 note=55 velocity=0 time=180
note_on channel=0 note=50 velocity=0 time=0
note_on channel=0 note=47 velocity=0 time=0
note_on channel=0 note=67 velocity=0 time=0
note_on channel=0 note=71 velocity=46 time=0
note_on channel=0 note=55 velocity=34 time=0
note_on channel=0 note=47 velocity=28 time=0
note_on channel=0 note=50 velocity=28 time=0
note_on channel=0 note=71 velocity=0 time=120
note_on channel=0 note=69 velocity=46 time=0
note_on channel=0 note=55 velocity=0 time=60
note_on channel=0 note=50 velocity=0 time=0
note_on channel=0 note=47 velocity=0 time=0
note_on channel=0 note=69 velocity=0 time=0
note_on channel=0 note=67 velocity=52 time=0
note_on channel=0 note=47 velocity=28 time=0
note_on channel=0 note=50 velocity=28 time=0
note_on channel=0 note=55 velocity=34 time=0
note_on channel=0 note=67 velocity=0 time=120
note_on channel=0 note=47 velocity=0 time=60
note_on channel=0 note=50 velocity=0 time=0
note_on channel=0 note=55 velocity=0 time=0
note_on channel=0 note=47 velocity=28 time=60
note_on channel=0 note=50 velocity=28 time=0
note_on channel=0 note=55 velocity=35 time=0
note_on channel=0 note=55 velocity=0 time=180
note_on channel=0 note=50 velocity=0 time=0
note_on channel=0 note=47 velocity=0 time=0
note_on channel=0 note=72 velocity=65 time=0
note_on channel=0 note=46 velocity=34 time=0
note_on channel=0 note=48 velocity=34 time=0
note_on channel=0 note=55 velocity=42 time=0
note_on channel=0 note=55 velocity=0 time=180
note_on channel=0 note=48 velocity=0 time=0
note_on channel=0 note=46 velocity=0 time=0
note_on channel=0 note=72 velocity=0 time=0
note_on channel=0 note=76 velocity=58 time=0
note_on channel=0 note=55 velocity=42 time=0
note_on channel=0 note=46 velocity=34 time=0
note_on channel=0 note=48 velocity=34 time=0
note_on channel=0 note=76 velocity=0 time=120
note_on channel=0 note=74 velocity=58 time=0
note_on channel=0 note=55 velocity=0 time=60
note_on channel=0 note=48 velocity=0 time=0
note_on channel=0 note=46 velocity=0 time=0
note_on channel=0 note=74 velocity=0 time=0
note_on channel=0 note=72 velocity=64 time=0
note_on channel=0 note=55 velocity=42 time=0
note_on channel=0 note=48 velocity=35 time=0
note_on channel=0 note=46 velocity=35 time=0
note_on channel=0 note=72 velocity=0 time=120
note_on channel=0 note=55 velocity=0 time=60
note_on channel=0 note=48 velocity=0 time=0
note_on channel=0 note=46 velocity=0 time=0
note_on channel=0 note=55 velocity=43 time=60
note_on channel=0 note=46 velocity=35 time=0
note_on channel=0 note=48 velocity=35 time=0
note_on channel=0 note=48 velocity=0 time=180
note_on channel=0 note=46 velocity=0 time=0
note_on channel=0 note=55 velocity=0 time=0
note_on channel=0 note=77 velocity=75 time=0
note_on channel=0 note=45 velocity=38 time=0
note_on channel=0 note=48 velocity=38 time=0
note_on channel=0 note=53 velocity=48 time=0
note_on channel=0 note=53 velocity=0 time=180
note_on channel=0 note=48 velocity=0 time=0
note_on channel=0 note=45 velocity=0 time=0
note_on channel=0 note=77 velocity=0 time=0
note_on channel=0 note=81 velocity=65 time=0
note_on channel=0 note=45 velocity=38 time=0
note_on channel=0 note=48 velocity=38 time=0
note_on channel=0 note=53 velocity=48 time=0
note_on channel=0 note=81 velocity=0 time=120
note_on channel=0 note=79 velocity=65 time=0
note_on channel=0 note=45 velocity=0 time=60
note_on channel=0 note=53 velocity=0 time=0
note_on channel=0 note=48 velocity=0 time=0
note_on channel=0 note=79 velocity=0 time=0
note_on channel=0 note=77 velocity=73 time=0
note_on channel=0 note=45 velocity=39 time=0
note_on channel=0 note=48 velocity=39 time=0
note_on channel=0 note=53 velocity=49 time=0
note_on channel=0 note=77 velocity=0 time=120
note_on channel=0 note=45 velocity=0 time=60
note_on channel=0 note=48 velocity=0 time=0
note_on channel=0 note=53 velocity=0 time=0
note_on channel=0 note=45 velocity=39 time=60
note_on channel=0 note=53 velocity=49 time=0
note_on channel=0 note=48 velocity=39 time=0
note_on channel=0 note=48 velocity=0 time=180
note_on channel=0 note=53 velocity=0 time=0
note_on channel=0 note=45 velocity=0 time=0
note_on channel=0 note=89 velocity=87 time=60
note_on channel=0 note=44 velocity=62 time=0
note_on channel=0 note=48 velocity=62 time=0
note_on channel=0 note=53 velocity=62 time=0
note_on channel=0 note=89 velocity=0 time=35
note_on channel=0 note=88 velocity=79 time=0
note_on channel=0 note=44 velocity=0 time=60
note_on channel=0 note=53 velocity=0 time=0
note_on channel=0 note=48 velocity=0 time=0
note_on channel=0 note=88 velocity=0 time=60
note_on channel=0 note=89 velocity=79 time=0
note_on channel=0 note=32 velocity=55 time=0
note_on channel=0 note=44 velocity=55 time=0
note_on channel=0 note=89 velocity=0 time=120
note_on channel=0 note=88 velocity=79 time=0
note_on channel=0 note=44 velocity=0 time=60
note_on channel=0 note=32 velocity=0 time=0
note_on channel=0 note=88 velocity=0 time=60
note_on channel=0 note=89 velocity=79 time=0
note_on channel=0 note=32 velocity=55 time=0
note_on channel=0 note=44 velocity=55 time=0
note_on channel=0 note=89 velocity=0 time=120
note_on channel=0 note=88 velocity=79 time=0
note_on channel=0 note=44 velocity=0 time=60
note_on channel=0 note=32 velocity=0 time=0
note_on channel=0 note=88 velocity=0 time=60
note_on channel=0 note=89 velocity=79 time=0
note_on channel=0 note=32 velocity=55 time=0
note_on channel=0 note=44 velocity=55 time=0
note_on channel=0 note=89 velocity=0 time=120
note_on channel=0 note=88 velocity=79 time=0
note_on channel=0 note=44 velocity=0 time=60
note_on channel=0 note=32 velocity=0 time=0
note_on channel=0 note=88 velocity=0 time=60
note_on channel=0 note=89 velocity=78 time=0
note_on channel=0 note=43 velocity=56 time=0
note_on channel=0 note=31 velocity=56 time=0
note_on channel=0 note=31 velocity=0 time=108
note_on channel=0 note=43 velocity=0 time=0
note_on channel=0 note=89 velocity=0 time=0
note_on channel=0 note=88 velocity=78 time=0
note_on channel=0 note=33 velocity=57 time=0
note_on channel=0 note=33 velocity=0 time=92
note_on channel=0 note=88 velocity=0 time=0
note_on channel=0 note=86 velocity=79 time=0
note_on channel=0 note=35 velocity=57 time=0
note_on channel=0 note=35 velocity=0 time=120
note_on channel=0 note=86 velocity=0 time=0
note_on channel=0 note=84 velocity=80 time=0
note_on channel=0 note=36 velocity=58 time=0
note_on channel=0 note=36 velocity=0 time=120
note_on channel=0 note=84 velocity=0 time=0
note_on channel=0 note=83 velocity=81 time=0
note_on channel=0 note=38 velocity=59 time=0
note_on channel=0 note=38 velocity=0 time=120
note_on channel=0 note=83 velocity=0 time=0
note_on channel=0 note=81 velocity=82 time=0
note_on channel=0 note=40 velocity=59 time=0
note_on channel=0 note=40 velocity=0 time=120
note_on channel=0 note=81 velocity=0 time=0
note_on channel=0 note=79 velocity=83 time=0
note_on channel=0 note=41 velocity=60 time=0
note_on channel=0 note=41 velocity=0 time=120
note_on channel=0 note=79 velocity=0 time=0
note_on channel=0 note=77 velocity=84 time=0
note_on channel=0 note=43 velocity=62 time=0
note_on channel=0 note=43 velocity=0 time=0
note_on channel=0 note=77 velocity=0 time=0
note_on channel=0 note=76 velocity=85 time=0
note_on channel=0 note=45 velocity=62 time=0
note_on channel=0 note=45 velocity=0 time=0
note_on channel=0 note=76 velocity=0 time=0
note_on channel=0 note=74 velocity=86 time=0
note_on channel=0 note=47 velocity=63 time=0
note_on channel=0 note=47 velocity=0 time=0
note_on channel=0 note=74 velocity=0 time=0
note_on channel=0 note=72 velocity=88 time=0
note_on channel=0 note=48 velocity=63 time=0
note_on channel=0 note=48 velocity=0 time=0
note_on channel=0 note=72 velocity=0 time=0
note_on channel=0 note=71 velocity=89 time=0
note_on channel=0 note=50 velocity=64 time=0
note_on channel=0 note=50 velocity=0 time=0
note_on channel=0 note=71 velocity=0 time=0
note_on channel=0 note=69 velocity=90 time=0
note_on channel=0 note=52 velocity=65 time=0
note_on channel=0 note=52 velocity=0 time=0
note_on channel=0 note=69 velocity=0 time=0
note_on channel=0 note=67 velocity=92 time=0
note_on channel=0 note=53 velocity=66 time=0
note_on channel=0 note=53 velocity=0 time=0
note_on channel=0 note=67 velocity=0 time=0
note_on channel=0 note=65 velocity=92 time=0
note_on channel=0 note=55 velocity=67 time=0
note_on channel=0 note=55 velocity=0 time=0
note_on channel=0 note=65 velocity=0 time=0
note_on channel=0 note=64 velocity=93 time=0
note_on channel=0 note=57 velocity=68 time=0
note_on channel=0 note=57 velocity=0 time=0
note_on channel=0 note=64 velocity=0 time=0
note_on channel=0 note=62 velocity=100 time=0
note_on channel=0 note=53 velocity=78 time=0
note_on channel=0 note=41 velocity=66 time=0
note_on channel=0 note=41 velocity=0 time=232
note_on channel=0 note=53 velocity=0 time=0
note_on channel=0 note=62 velocity=0 time=0
note_on channel=0 note=67 velocity=85 time=240
note_on channel=0 note=71 velocity=85 time=0
note_on channel=0 note=74 velocity=100 time=0
note_on channel=0 note=79 velocity=100 time=0
note_on channel=0 note=43 velocity=66 time=0
note_on channel=0 note=47 velocity=66 time=0
note_on channel=0 note=50 velocity=78 time=0
note_on channel=0 note=55 velocity=78 time=0
note_on channel=0 note=55 velocity=0 time=240
note_on channel=0 note=67 velocity=0 time=0
note_on channel=0 note=43 velocity=0 time=0
note_on channel=0 note=71 velocity=0 time=0
note_on channel=0 note=74 velocity=0 time=0
note_on channel=0 note=79 velocity=0 time=0
note_on channel=0 note=47 velocity=0 time=0
note_on channel=0 note=50 velocity=0 time=0
note_on channel=0 note=64 velocity=89 time=1200
note_on channel=0 note=67 velocity=89 time=0
note_on channel=0 note=72 velocity=106 time=0
note_on channel=0 note=76 velocity=106 time=0
note_on channel=0 note=60 velocity=78 time=0
note_on channel=0 note=55 velocity=78 time=0
note_on channel=0 note=48 velocity=66 time=0
note_on channel=0 note=52 velocity=66 time=0
note_on channel=0 note=52 velocity=0 time=240
note_on channel=0 note=64 velocity=0 time=0
note_on channel=0 note=60 velocity=0 time=0
note_on channel=0 note=67 velocity=0 time=0
note_on channel=0 note=72 velocity=0 time=0
note_on channel=0 note=76 velocity=0 time=0
note_on channel=0 note=55 velocity=0 time=0
note_on channel=0 note=48 velocity=0 time=0
note_on channel=0 note=67 velocity=89 time=720
note_on channel=0 note=71 velocity=89 time=0
note_on channel=0 note=74 velocity=106 time=0
note_on channel=0 note=79 velocity=106 time=0
note_on channel=0 note=47 velocity=66 time=0
note_on channel=0 note=43 velocity=66 time=0
note_on channel=0 note=50 velocity=78 time=0
note_on channel=0 note=55 velocity=78 time=0
note_on channel=0 note=55 velocity=0 time=240
note_on channel=0 note=67 velocity=0 time=0
note_on channel=0 note=47 velocity=0 time=0
note_on channel=0 note=71 velocity=0 time=0
note_on channel=0 note=74 velocity=0 time=0
note_on channel=0 note=79 velocity=0 time=0
note_on channel=0 note=43 velocity=0 time=0
note_on channel=0 note=50 velocity=0 time=0
note_on channel=0 note=84 velocity=106 time=480
note_on channel=0 note=79 velocity=106 time=0
note_on channel=0 note=76 velocity=89 time=0
note_on channel=0 note=72 velocity=89 time=0
note_on channel=0 note=36 velocity=65 time=0
note_on channel=0 note=40 velocity=65 time=0
note_on channel=0 note=43 velocity=77 time=0
note_on channel=0 note=48 velocity=77 time=0
note_on channel=0 note=48 velocity=0 time=240
note_on channel=0 note=84 velocity=0 time=0
note_on channel=0 note=36 velocity=0 time=0
note_on channel=0 note=79 velocity=0 time=0
note_on channel=0 note=76 velocity=0 time=0
note_on channel=0 note=72 velocity=0 time=0
note_on channel=0 note=40 velocity=0 time=0
note_on channel=0 note=43 velocity=0 time=0
