note_on channel=0 note=36 velocity=50 time=0
note_on channel=0 note=52 velocity=28 time=0
note_on channel=0 note=52 velocity=0 time=0
note_on channel=0 note=36 velocity=0 time=0
note_on channel=0 note=55 velocity=30 time=0
note_on channel=0 note=55 velocity=0 time=0
note_on channel=0 note=60 velocity=32 time=0
note_on channel=0 note=60 velocity=0 time=0
note_on channel=0 note=64 velocity=34 time=0
note_on channel=0 note=79 velocity=50 time=0
note_on channel=0 note=64 velocity=0 time=120
note_on channel=0 note=52 velocity=31 time=0
note_on channel=0 note=52 velocity=0 time=120
note_on channel=0 note=79 velocity=0 time=0
note_on channel=0 note=55 velocity=31 time=0
note_on channel=0 note=55 velocity=0 time=120
note_on channel=0 note=60 velocity=31 time=0
note_on channel=0 note=60 velocity=0 time=0
note_on channel=0 note=64 velocity=35 time=0
note_on channel=0 note=79 velocity=54 time=0
note_on channel=0 note=64 velocity=0 time=120
note_on channel=0 note=52 velocity=30 time=0
note_on channel=0 note=52 velocity=0 time=120
note_on channel=0 note=55 velocity=31 time=0
note_on channel=0 note=55 velocity=0 time=120
note_on channel=0 note=60 velocity=33 time=0
note_on channel=0 note=60 velocity=0 time=120
note_on channel=0 note=64 velocity=36 time=0
note_on channel=0 note=64 velocity=0 time=120
note_on channel=0 note=52 velocity=33 time=0
note_on channel=0 note=52 velocity=0 time=120
note_on channel=0 note=79 velocity=0 time=0
note_on channel=0 note=55 velocity=33 time=0
note_on channel=0 note=76 velocity=47 time=0
note_on channel=0 note=55 velocity=0 time=120
note_on channel=0 note=60 velocity=33 time=0
note_on channel=0 note=60 velocity=0 time=0
note_on channel=0 note=76 velocity=0 time=0
note_on channel=0 note=74 velocity=50 time=0
note_on channel=0 note=53 velocity=28 time=35
note_on channel=0 note=53 velocity=0 time=120
note_on channel=0 note=55 velocity=31 time=0
note_on channel=0 note=55 velocity=0 time=120
note_on channel=0 note=59 velocity=33 time=0
note_on channel=0 note=59 velocity=0 time=0
note_on channel=0 note=74 velocity=0 time=0
note_on channel=0 note=62 velocity=36 time=0
note_on channel=0 note=67 velocity=41 time=0
note_on channel=0 note=62 velocity=0 time=120
note_on channel=0 note=53 velocity=33 time=0
note_on channel=0 note=53 velocity=0 time=120
note_on channel=0 note=55 velocity=33 time=0
note_on channel=0 note=55 velocity=0 time=120
note_on channel=0 note=59 velocity=34 time=0
note_on channel=0 note=59 velocity=0 time=0
note_on channel=0 note=67 velocity=0 time=0
note_on channel=0 note=72 velocity=50 time=0
note_on channel=0 note=52 velocity=28 time=28
note_on channel=0 note=52 velocity=0 time=120
note_on channel=0 note=55 velocity=30 time=0
note_on channel=0 note=55 velocity=0 time=120
note_on channel=0 note=60 velocity=32 time=0
note_on channel=0 note=60 velocity=0 time=120
note_on channel=0 note=72 velocity=0 time=0
note_on channel=0 note=64 velocity=34 time=0
note_on channel=0 note=76 velocity=47 time=0
note_on channel=0 note=64 velocity=0 time=120
note_on channel=0 note=52 velocity=32 time=0
note_on channel=0 note=52 velocity=0 time=120
note_on channel=0 note=76 velocity=0 time=0
note_on channel=0 note=55 velocity=32 time=0
note_on channel=0 note=55 velocity=0 time=0
note_on channel=0 note=60 velocity=33 time=0
note_on channel=0 note=48 velocity=31 time=0
note_on channel=0 note=48 velocity=0 time=40
note_on channel=0 note=60 velocity=0 time=0
note_on channel=0 note=36 velocity=50 time=0
note_on channel=0 note=52 velocity=28 time=0
note_on channel=0 note=52 velocity=0 time=0
note_on channel=0 note=36 velocity=0 time=0
note_on channel=0 note=55 velocity=30 time=0
note_on channel=0 note=55 velocity=0 time=0
note_on channel=0 note=60 velocity=32 time=0
note_on channel=0 note=60 velocity=0 time=0
note_on channel=0 note=64 velocity=34 time=0
note_on channel=0 note=79 velocity=50 time=0
note_on channel=0 note=64 velocity=0 time=120
note_on channel=0 note=52 velocity=31 time=0
note_on channel=0 note=52 velocity=0 time=120
note_on channel=0 note=79 velocity=0 time=0
note_on channel=0 note=55 velocity=31 time=0
note_on channel=0 note=55 velocity=0 time=120
note_on channel=0 note=60 velocity=31 time=0
note_on channel=0 note=60 velocity=0 time=0
note_on channel=0 note=64 velocity=35 time=0
note_on channel=0 note=79 velocity=54 time=0
note_on channel=0 note=64 velocity=0 time=120
note_on channel=0 note=52 velocity=30 time=0
note_on channel=0 note=52 velocity=0 time=120
note_on channel=0 note=55 velocity=31 time=0
note_on channel=0 note=55 velocity=0 time=120
note_on channel=0 note=60 velocity=33 time=0
note_on channel=0 note=60 velocity=0 time=120
note_on channel=0 note=64 velocity=36 time=0
note_on channel=0 note=64 velocity=0 time=120
note_on channel=0 note=52 velocity=33 time=0
note_on channel=0 note=52 velocity=0 time=120
note_on channel=0 note=79 velocity=0 time=0
note_on channel=0 note=55 velocity=33 time=0
note_on channel=0 note=76 velocity=47 time=0
note_on channel=0 note=55 velocity=0 time=120
note_on channel=0 note=60 velocity=33 time=0
note_on channel=0 note=60 velocity=0 time=0
note_on channel=0 note=76 velocity=0 time=0
note_on channel=0 note=74 velocity=50 time=0
note_on channel=0 note=53 velocity=28 time=28
note_on channel=0 note=53 velocity=0 time=120
note_on channel=0 note=55 velocity=31 time=0
note_on channel=0 note=55 velocity=0 time=120
note_on channel=0 note=59 velocity=33 time=0
note_on channel=0 note=59 velocity=0 time=0
note_on channel=0 note=74 velocity=0 time=0
note_on channel=0 note=62 velocity=36 time=0
note_on channel=0 note=67 velocity=41 time=0
note_on channel=0 note=62 velocity=0 time=120
note_on channel=0 note=53 velocity=33 time=0
note_on channel=0 note=53 velocity=0 time=120
note_on channel=0 note=55 velocity=33 time=0
note_on channel=0 note=55 velocity=0 time=120
note_on channel=0 note=59 velocity=34 time=0
note_on channel=0 note=59 velocity=0 time=0
note_on channel=0 note=67 velocity=0 time=0
note_on channel=0 note=72 velocity=50 time=0
note_on channel=0 note=72 velocity=0 time=162
note_on channel=0 note=52 velocity=30 time=0
note_on channel=0 note=52 velocity=0 time=120
note_on channel=0 note=55 velocity=32 time=0
note_on channel=0 note=55 velocity=0 time=120
note_on channel=0 note=60 velocity=34 time=0
note_on channel=0 note=60 velocity=0 time=120
note_on channel=0 note=64 velocity=32 time=0
note_on channel=0 note=64 velocity=0 time=120
note_on channel=0 note=62 velocity=32 time=0
note_on channel=0 note=62 velocity=0 time=0
note_on channel=0 note=60 velocity=33 time=0
note_on channel=0 note=43 velocity=30 time=0
note_on channel=0 note=43 velocity=0 time=0
note_on channel=0 note=60 velocity=0 time=0
note_on channel=0 note=59 velocity=35 time=0
note_on channel=0 note=31 velocity=45 time=0
note_on channel=0 note=59 velocity=0 time=0
note_on channel=0 note=55 velocity=28 time=0
note_on channel=0 note=55 velocity=0 time=0
note_on channel=0 note=31 velocity=0 time=0
note_on channel=0 note=59 velocity=30 time=0
note_on channel=0 note=59 velocity=0 time=0
note_on channel=0 note=62 velocity=32 time=0
note_on channel=0 note=62 velocity=0 time=0
note_on channel=0 note=67 velocity=34 time=0
note_on channel=0 note=77 velocity=50 time=0
note_on channel=0 note=67 velocity=0 time=120
note_on channel=0 note=55 velocity=31 time=0
note_on channel=0 note=55 velocity=0 time=120
note_on channel=0 note=77 velocity=0 time=0
note_on channel=0 note=59 velocity=31 time=0
note_on channel=0 note=59 velocity=0 time=120
note_on channel=0 note=62 velocity=31 time=0
note_on channel=0 note=62 velocity=0 time=0
note_on channel=0 note=67 velocity=35 time=0
note_on channel=0 note=77 velocity=54 time=0
note_on channel=0 note=67 velocity=0 time=120
note_on channel=0 note=55 velocity=30 time=0
note_on channel=0 note=55 velocity=0 time=120
note_on channel=0 note=59 velocity=31 time=0
note_on channel=0 note=59 velocity=0 time=120
note_on channel=0 note=62 velocity=33 time=0
note_on channel=0 note=62 velocity=0 time=120
note_on channel=0 note=67 velocity=36 time=0
note_on channel=0 note=67 velocity=0 time=120
note_on channel=0 note=55 velocity=33 time=0
note_on channel=0 note=55 velocity=0 time=120
note_on channel=0 note=77 velocity=0 time=0
note_on channel=0 note=59 velocity=33 time=0
note_on channel=0 note=74 velocity=47 time=0
note_on channel=0 note=59 velocity=0 time=120
note_on channel=0 note=67 velocity=33 time=0
note_on channel=0 note=67 velocity=0 time=0
note_on channel=0 note=74 velocity=0 time=0
note_on channel=0 note=76 velocity=50 time=0
note_on channel=0 note=55 velocity=28 time=28
note_on channel=0 note=55 velocity=0 time=120
note_on channel=0 note=60 velocity=31 time=0
note_on channel=0 note=60 velocity=0 time=120
note_on channel=0 note=67 velocity=33 time=0
note_on channel=0 note=67 velocity=0 time=0
note_on channel=0 note=76 velocity=0 time=0
note_on channel=0 note=72 velocity=41 time=0
note_on channel=0 note=55 velocity=28 time=120
note_on channel=0 note=55 velocity=0 time=120
note_on channel=0 note=64 velocity=31 time=0
note_on channel=0 note=64 velocity=0 time=120
note_on channel=0 note=67 velocity=33 time=0
note_on channel=0 note=67 velocity=0 time=0
note_on channel=0 note=72 velocity=0 time=0
note_on channel=0 note=71 velocity=50 time=0
note_on channel=0 note=55 velocity=28 time=42
note_on channel=0 note=55 velocity=0 time=120
note_on channel=0 note=62 velocity=30 time=0
note_on channel=0 note=62 velocity=0 time=120
note_on channel=0 note=67 velocity=32 time=0
note_on channel=0 note=67 velocity=0 time=120
note_on channel=0 note=71 velocity=0 time=0
note_on channel=0 note=74 velocity=47 time=0
note_on channel=0 note=55 velocity=28 time=120
note_on channel=0 note=55 velocity=0 time=120
note_on channel=0 note=74 velocity=0 time=0
note_on channel=0 note=59 velocity=30 time=0
note_on channel=0 note=59 velocity=0 time=0
note_on channel=0 note=67 velocity=32 time=0
note_on channel=0 note=43 velocity=32 time=0
note_on channel=0 note=43 velocity=0 time=0
note_on channel=0 note=67 velocity=0 time=0
note_on channel=0 note=31 velocity=48 time=0
note_on channel=0 note=55 velocity=28 time=0
note_on channel=0 note=55 velocity=0 time=0
note_on channel=0 note=31 velocity=0 time=0
note_on channel=0 note=59 velocity=30 time=0
note_on channel=0 note=59 velocity=0 time=0
note_on channel=0 note=62 velocity=32 time=0
note_on channel=0 note=62 velocity=0 time=0
note_on channel=0 note=67 velocity=34 time=0
note_on channel=0 note=77 velocity=50 time=0
note_on channel=0 note=67 velocity=0 time=120
note_on channel=0 note=55 velocity=31 time=0
note_on channel=0 note=55 velocity=0 time=120
note_on channel=0 note=77 velocity=0 time=0
note_on channel=0 note=59 velocity=31 time=0
note_on channel=0 note=59 velocity=0 time=120
note_on channel=0 note=62 velocity=31 time=0
note_on channel=0 note=62 velocity=0 time=0
note_on channel=0 note=67 velocity=35 time=0
note_on channel=0 note=77 velocity=54 time=0
note_on channel=0 note=67 velocity=0 time=120
note_on channel=0 note=55 velocity=30 time=0
note_on channel=0 note=55 velocity=0 time=120
note_on channel=0 note=59 velocity=31 time=0
note_on channel=0 note=59 velocity=0 time=120
note_on channel=0 note=62 velocity=33 time=0
note_on channel=0 note=62 velocity=0 time=120
note_on channel=0 note=67 velocity=36 time=0
note_on channel=0 note=67 velocity=0 time=120
note_on channel=0 note=55 velocity=33 time=0
note_on channel=0 note=55 velocity=0 time=120
note_on channel=0 note=77 velocity=0 time=0
note_on channel=0 note=59 velocity=33 time=0
note_on channel=0 note=74 velocity=47 time=0
note_on channel=0 note=59 velocity=0 time=120
note_on channel=0 note=67 velocity=33 time=0
note_on channel=0 note=67 velocity=0 time=0
note_on channel=0 note=74 velocity=0 time=0
note_on channel=0 note=75 velocity=50 time=0
note_on channel=0 note=55 velocity=28 time=57
note_on channel=0 note=55 velocity=0 time=120
note_on channel=0 note=60 velocity=31 time=0
note_on channel=0 note=60 velocity=0 time=120
note_on channel=0 note=67 velocity=33 time=0
note_on channel=0 note=67 velocity=0 time=0
note_on channel=0 note=75 velocity=0 time=0
note_on channel=0 note=72 velocity=41 time=0
note_on channel=0 note=55 velocity=28 time=120
note_on channel=0 note=55 velocity=0 time=120
note_on channel=0 note=63 velocity=31 time=0
note_on channel=0 note=63 velocity=0 time=120
note_on channel=0 note=67 velocity=33 time=0
note_on channel=0 note=67 velocity=0 time=0
note_on channel=0 note=72 velocity=0 time=0
note_on channel=0 note=71 velocity=50 time=0
note_on channel=0 note=55 velocity=28 time=28
note_on channel=0 note=55 velocity=0 time=120
note_on channel=0 note=62 velocity=30 time=0
note_on channel=0 note=62 velocity=0 time=120
note_on channel=0 note=67 velocity=32 time=0
note_on channel=0 note=67 velocity=0 time=120
note_on channel=0 note=71 velocity=0 time=0
note_on channel=0 note=74 velocity=47 time=0
note_on channel=0 note=55 velocity=28 time=120
note_on channel=0 note=55 velocity=0 time=120
note_on channel=0 note=59 velocity=30 time=0
note_on channel=0 note=59 velocity=0 time=120
note_on channel=0 note=67 velocity=32 time=0
note_on channel=0 note=67 velocity=0 time=0
note_on channel=0 note=74 velocity=0 time=0
note_on channel=0 note=76 velocity=50 time=0
note_on channel=0 note=55 velocity=28 time=42
note_on channel=0 note=55 velocity=0 time=120
note_on channel=0 note=60 velocity=31 time=0
note_on channel=0 note=60 velocity=0 time=120
note_on channel=0 note=67 velocity=33 time=0
note_on channel=0 note=67 velocity=0 time=0
note_on channel=0 note=76 velocity=0 time=0
note_on channel=0 note=72 velocity=41 time=0
note_on channel=0 note=55 velocity=28 time=120
note_on channel=0 note=55 velocity=0 time=120
note_on channel=0 note=64 velocity=31 time=0
note_on channel=0 note=64 velocity=0 time=120
note_on channel=0 note=67 velocity=33 time=0
note_on channel=0 note=67 velocity=0 time=0
note_on channel=0 note=72 velocity=0 time=0
note_on channel=0 note=71 velocity=50 time=0
note_on channel=0 note=55 velocity=28 time=42
note_on channel=0 note=55 velocity=0 time=120
note_on channel=0 note=62 velocity=30 time=0
note_on channel=0 note=62 velocity=0 time=120
note_on channel=0 note=67 velocity=32 time=0
note_on channel=0 note=67 velocity=0 time=120
note_on channel=0 note=71 velocity=0 time=0
note_on channel=0 note=74 velocity=47 time=0
note_on channel=0 note=55 velocity=28 time=120
note_on channel=0 note=55 velocity=0 time=120
note_on channel=0 note=59 velocity=30 time=0
note_on channel=0 note=59 velocity=0 time=120
note_on channel=0 note=67 velocity=32 time=0
note_on channel=0 note=67 velocity=0 time=0
note_on channel=0 note=74 velocity=0 time=0
note_on channel=0 note=75 velocity=50 time=0
note_on channel=0 note=55 velocity=28 time=51
note_on channel=0 note=55 velocity=0 time=120
note_on channel=0 note=60 velocity=31 time=0
note_on channel=0 note=60 velocity=0 time=120
note_on channel=0 note=67 velocity=33 time=0
note_on channel=0 note=67 velocity=0 time=0
note_on channel=0 note=75 velocity=0 time=0
note_on channel=0 note=72 velocity=41 time=0
note_on channel=0 note=55 velocity=28 time=120
note_on channel=0 note=55 velocity=0 time=120
note_on channel=0 note=60 velocity=31 time=0
note_on channel=0 note=60 velocity=0 time=120
note_on channel=0 note=63 velocity=33 time=0
note_on channel=0 note=63 velocity=0 time=0
note_on channel=0 note=72 velocity=0 time=0
note_on channel=0 note=79 velocity=50 time=0
note_on channel=0 note=55 velocity=28 time=28
note_on channel=0 note=55 velocity=0 time=120
note_on channel=0 note=59 velocity=30 time=0
note_on channel=0 note=59 velocity=0 time=120
note_on channel=0 note=62 velocity=32 time=0
note_on channel=0 note=79 velocity=0 time=115
note_on channel=0 note=62 velocity=0 time=0
note_on channel=0 note=79 velocity=47 time=0
note_on channel=0 note=55 velocity=28 time=103
note_on channel=0 note=55 velocity=0 time=97
note_on channel=0 note=60 velocity=30 time=0
note_on channel=0 note=60 velocity=0 time=120
note_on channel=0 note=63 velocity=32 time=0
note_on channel=0 note=79 velocity=0 time=115
note_on channel=0 note=63 velocity=0 time=5
note_on channel=0 note=79 velocity=50 time=0
note_on channel=0 note=55 velocity=28 time=40
note_on channel=0 note=55 velocity=0 time=120
note_on channel=0 note=59 velocity=30 time=0
note_on channel=0 note=59 velocity=0 time=120
note_on channel=0 note=62 velocity=32 time=0
note_on channel=0 note=79 velocity=0 time=115
note_on channel=0 note=62 velocity=0 time=5
note_on channel=0 note=79 velocity=47 time=0
note_on channel=0 note=55 velocity=28 time=28
note_on channel=0 note=55 velocity=0 time=120
note_on channel=0 note=60 velocity=30 time=0
note_on channel=0 note=60 velocity=0 time=120
note_on channel=0 note=63 velocity=32 time=0
note_on channel=0 note=79 velocity=0 time=75
note_on channel=0 note=63 velocity=0 time=5
note_on channel=0 note=79 velocity=50 time=0
note_on channel=0 note=55 velocity=28 time=40
note_on channel=0 note=55 velocity=0 time=0
note_on channel=0 note=59 velocity=30 time=0
note_on channel=0 note=59 velocity=0 time=120
note_on channel=0 note=62 velocity=32 time=0
note_on channel=0 note=79 velocity=0 time=75
note_on channel=0 note=62 velocity=0 time=5
note_on channel=0 note=79 velocity=47 time=0
note_on channel=0 note=55 velocity=28 time=35
note_on channel=0 note=55 velocity=0 time=40
note_on channel=0 note=57 velocity=30 time=0
note_on channel=0 note=57 velocity=0 time=0
note_on channel=0 note=60 velocity=32 time=0
note_on channel=0 note=79 velocity=0 time=115
note_on channel=0 note=60 velocity=0 time=0
note_on channel=0 note=79 velocity=47 time=0
note_on channel=0 note=55 velocity=36 time=40
note_on channel=0 note=55 velocity=0 time=40
note_on channel=0 note=59 velocity=38 time=0
note_on channel=0 note=59 velocity=0 time=0
note_on channel=0 note=62 velocity=35 time=0
note_on channel=0 note=62 velocity=0 time=120
note_on channel=0 note=79 velocity=0 time=0
note_on channel=0 note=67 velocity=43 time=0
note_on channel=0 note=67 velocity=0 time=80
note_on channel=0 note=71 velocity=39 time=0
note_on channel=0 note=71 velocity=0 time=40
note_on channel=0 note=69 velocity=41 time=0
note_on channel=0 note=69 velocity=0 time=40
note_on channel=0 note=66 velocity=38 time=0
note_on channel=0 note=66 velocity=0 time=0
note_on channel=0 note=67 velocity=43 time=0
note_on channel=0 note=67 velocity=0 time=49
note_on channel=0 note=59 velocity=38 time=0
note_on channel=0 note=59 velocity=0 time=80
note_on channel=0 note=62 velocity=41 time=0
note_on channel=0 note=62 velocity=0 time=40
note_on channel=0 note=67 velocity=38 time=0
note_on channel=0 note=67 velocity=0 time=40
note_on channel=0 note=71 velocity=46 time=0
note_on channel=0 note=71 velocity=0 time=120
note_on channel=0 note=74 velocity=41 time=0
note_on channel=0 note=74 velocity=0 time=120
note_on channel=0 note=72 velocity=41 time=0
note_on channel=0 note=72 velocity=0 time=120
note_on channel=0 note=69 velocity=37 time=0
note_on channel=0 note=69 velocity=0 time=120
note_on channel=0 note=71 velocity=47 time=0
note_on channel=0 note=71 velocity=0 time=45
note_on channel=0 note=67 velocity=42 time=0
note_on channel=0 note=67 velocity=0 time=120
note_on channel=0 note=71 velocity=47 time=0
note_on channel=0 note=71 velocity=0 time=120
note_on channel=0 note=74 velocity=43 time=0
note_on channel=0 note=74 velocity=0 time=120
note_on channel=0 note=79 velocity=51 time=0
note_on channel=0 note=79 velocity=0 time=120
note_on channel=0 note=83 velocity=46 time=0
note_on channel=0 note=83 velocity=0 time=120
note_on channel=0 note=81 velocity=48 time=0
note_on channel=0 note=81 velocity=0 time=120
note_on channel=0 note=78 velocity=43 time=0
note_on channel=0 note=78 velocity=0 time=120
note_on channel=0 note=79 velocity=52 time=0
note_on channel=0 note=79 velocity=0 time=51
note_on channel=0 note=83 velocity=52 time=0
note_on channel=0 note=83 velocity=0 time=120
note_on channel=0 note=81 velocity=53 time=0
note_on channel=0 note=81 velocity=0 time=120
note_on channel=0 note=84 velocity=54 time=0
note_on channel=0 note=84 velocity=0 time=40
note_on channel=0 note=83 velocity=55 time=0
note_on channel=0 note=83 velocity=0 time=0
note_on channel=0 note=86 velocity=56 time=0
note_on channel=0 note=86 velocity=0 time=40
note_on channel=0 note=85 velocity=56 time=0
note_on channel=0 note=85 velocity=0 time=0
note_on channel=0 note=88 velocity=57 time=0
note_on channel=0 note=88 velocity=0 time=0
note_on channel=0 note=86 velocity=58 time=0
note_on channel=0 note=86 velocity=0 time=56
note_on channel=0 note=89 velocity=59 time=0
note_on channel=0 note=89 velocity=0 time=80
note_on channel=0 note=88 velocity=60 time=0
note_on channel=0 note=88 velocity=0 time=40
note_on channel=0 note=91 velocity=56 time=0
note_on channel=0 note=91 velocity=0 time=0
note_on channel=0 note=89 velocity=61 time=0
note_on channel=0 note=89 velocity=0 time=120
note_on channel=0 note=93 velocity=62 time=0
note_on channel=0 note=93 velocity=0 time=80
note_on channel=0 note=89 velocity=63 time=0
note_on channel=0 note=89 velocity=0 time=40
note_on channel=0 note=88 velocity=59 time=0
note_on channel=0 note=88 velocity=0 time=0
note_on channel=0 note=86 velocity=65 time=0
note_on channel=0 note=86 velocity=0 time=28
note_on channel=0 note=89 velocity=66 time=0
note_on channel=0 note=89 velocity=0 time=120
note_on channel=0 note=88 velocity=66 time=0
note_on channel=0 note=88 velocity=0 time=120
note_on channel=0 note=91 velocity=64 time=0
note_on channel=0 note=91 velocity=0 time=120
note_on channel=0 note=89 velocity=68 time=0
note_on channel=0 note=89 velocity=0 time=120
note_on channel=0 note=93 velocity=69 time=0
note_on channel=0 note=93 velocity=0 time=120
note_on channel=0 note=89 velocity=70 time=0
note_on channel=0 note=89 velocity=0 time=120
note_on channel=0 note=88 velocity=66 time=0
note_on channel=0 note=88 velocity=0 time=120
note_on channel=0 note=86 velocity=69 time=0
note_on channel=0 note=86 velocity=0 time=42
note_on channel=0 note=89 velocity=65 time=0
note_on channel=0 note=89 velocity=0 time=120
note_on channel=0 note=88 velocity=67 time=0
note_on channel=0 note=88 velocity=0 time=120
note_on channel=0 note=84 velocity=60 time=0
note_on channel=0 note=84 velocity=0 time=120
note_on channel=0 note=83 velocity=64 time=0
note_on channel=0 note=83 velocity=0 time=120
note_on channel=0 note=86 velocity=59 time=0
note_on channel=0 note=86 velocity=0 time=120
note_on channel=0 note=84 velocity=62 time=0
note_on channel=0 note=84 velocity=0 time=120
note_on channel=0 note=81 velocity=55 time=0
note_on channel=0 note=81 velocity=0 time=0
note_on channel=0 note=79 velocity=59 time=0
note_on channel=0 note=79 velocity=0 time=0
note_on channel=0 note=83 velocity=54 time=0
note_on channel=0 note=83 velocity=0 time=0
note_on channel=0 note=81 velocity=56 time=0
note_on channel=0 note=81 velocity=0 time=0
note_on channel=0 note=77 velocity=51 time=0
note_on channel=0 note=77 velocity=0 time=0
note_on channel=0 note=76 velocity=54 time=0
note_on channel=0 note=76 velocity=0 time=0
note_on channel=0 note=79 velocity=46 time=0
note_on channel=0 note=79 velocity=0 time=0
note_on channel=0 note=77 velocity=49 time=0
note_on channel=0 note=77 velocity=0 time=40
note_on channel=0 note=74 velocity=42 time=0
note_on channel=0 note=74 velocity=0 time=0
note_on channel=0 note=72 velocity=49 time=0
note_on channel=0 note=36 velocity=50 time=0
note_on channel=0 note=36 velocity=0 time=0
note_on channel=0 note=72 velocity=0 time=0
note_on channel=0 note=43 velocity=30 time=0
note_on channel=0 note=43 velocity=0 time=0
note_on channel=0 note=48 velocity=32 time=0
note_on channel=0 note=48 velocity=0 time=0
note_on channel=0 note=52 velocity=34 time=0
note_on channel=0 note=52 velocity=0 time=0
note_on channel=0 note=91 velocity=50 time=0
note_on channel=0 note=79 velocity=50 time=0
note_on channel=0 note=55 velocity=31 time=0
note_on channel=0 note=55 velocity=0 time=120
note_on channel=0 note=48 velocity=31 time=0
note_on channel=0 note=48 velocity=0 time=120
note_on channel=0 note=79 velocity=0 time=0
note_on channel=0 note=91 velocity=0 time=0
note_on channel=0 note=52 velocity=31 time=0
note_on channel=0 note=52 velocity=0 time=120
note_on channel=0 note=55 velocity=35 time=0
note_on channel=0 note=55 velocity=0 time=0
note_on channel=0 note=91 velocity=54 time=0
note_on channel=0 note=79 velocity=54 time=0
note_on channel=0 note=60 velocity=30 time=0
note_on channel=0 note=60 velocity=0 time=120
note_on channel=0 note=52 velocity=31 time=0
note_on channel=0 note=52 velocity=0 time=120
note_on channel=0 note=55 velocity=33 time=0
note_on channel=0 note=55 velocity=0 time=120
note_on channel=0 note=60 velocity=36 time=0
note_on channel=0 note=60 velocity=0 time=120
note_on channel=0 note=64 velocity=33 time=0
note_on channel=0 note=64 velocity=0 time=120
note_on channel=0 note=55 velocity=33 time=0
note_on channel=0 note=55 velocity=0 time=120
note_on channel=0 note=79 velocity=0 time=0
note_on channel=0 note=91 velocity=0 time=0
note_on channel=0 note=88 velocity=47 time=0
note_on channel=0 note=76 velocity=47 time=0
note_on channel=0 note=60 velocity=33 time=0
note_on channel=0 note=60 velocity=0 time=120
note_on channel=0 note=64 velocity=36 time=0
note_on channel=0 note=64 velocity=0 time=0
note_on channel=0 note=76 velocity=0 time=0
note_on channel=0 note=88 velocity=0 time=0
note_on channel=0 note=86 velocity=50 time=0
note_on channel=0 note=74 velocity=50 time=0
note_on channel=0 note=65 velocity=28 time=0
note_on channel=0 note=65 velocity=0 time=49
note_on channel=0 note=64 velocity=31 time=0
note_on channel=0 note=64 velocity=0 time=120
note_on channel=0 note=62 velocity=33 time=0
note_on channel=0 note=62 velocity=0 time=120
note_on channel=0 note=60 velocity=36 time=0
note_on channel=0 note=60 velocity=0 time=0
note_on channel=0 note=74 velocity=0 time=0
note_on channel=0 note=86 velocity=0 time=0
note_on channel=0 note=79 velocity=41 time=0
note_on channel=0 note=67 velocity=41 time=0
note_on channel=0 note=59 velocity=33 time=0
note_on channel=0 note=59 velocity=0 time=120
note_on channel=0 note=57 velocity=33 time=0
note_on channel=0 note=57 velocity=0 time=120
note_on channel=0 note=55 velocity=34 time=0
note_on channel=0 note=55 velocity=0 time=120
note_on channel=0 note=53 velocity=34 time=0
note_on channel=0 note=53 velocity=0 time=0
note_on channel=0 note=67 velocity=0 time=0
note_on channel=0 note=79 velocity=0 time=0
note_on channel=0 note=84 velocity=50 time=0
note_on channel=0 note=72 velocity=50 time=0
note_on channel=0 note=52 velocity=28 time=0
note_on channel=0 note=52 velocity=0 time=70
note_on channel=0 note=55 velocity=30 time=0
note_on channel=0 note=55 velocity=0 time=120
note_on channel=0 note=48 velocity=32 time=0
note_on channel=0 note=48 velocity=0 time=120
note_on channel=0 note=52 velocity=34 time=0
note_on channel=0 note=52 velocity=0 time=120
note_on channel=0 note=72 velocity=0 time=0
note_on channel=0 note=84 velocity=0 time=0
note_on channel=0 note=88 velocity=47 time=0
note_on channel=0 note=76 velocity=47 time=0
note_on channel=0 note=43 velocity=32 time=0
note_on channel=0 note=43 velocity=0 time=120
note_on channel=0 note=48 velocity=32 time=0
note_on channel=0 note=48 velocity=0 time=120
note_on channel=0 note=76 velocity=0 time=0
note_on channel=0 note=88 velocity=0 time=0
note_on channel=0 note=40 velocity=33 time=0
note_on channel=0 note=40 velocity=0 time=0
note_on channel=0 note=43 velocity=34 time=0
note_on channel=0 note=43 velocity=0 time=0
note_on channel=0 note=36 velocity=50 time=0
note_on channel=0 note=36 velocity=0 time=0
note_on channel=0 note=43 velocity=30 time=0
note_on channel=0 note=43 velocity=0 time=40
note_on channel=0 note=48 velocity=32 time=0
note_on channel=0 note=48 velocity=0 time=40
note_on channel=0 note=52 velocity=34 time=0
note_on channel=0 note=52 velocity=0 time=0
note_on channel=0 note=91 velocity=50 time=0
note_on channel=0 note=79 velocity=50 time=0
note_on channel=0 note=55 velocity=31 time=0
note_on channel=0 note=55 velocity=0 time=120
note_on channel=0 note=48 velocity=31 time=0
note_on channel=0 note=48 velocity=0 time=120
note_on channel=0 note=79 velocity=0 time=0
note_on channel=0 note=91 velocity=0 time=0
note_on channel=0 note=52 velocity=31 time=0
note_on channel=0 note=52 velocity=0 time=120
note_on channel=0 note=55 velocity=35 time=0
note_on channel=0 note=55 velocity=0 time=0
note_on channel=0 note=91 velocity=54 time=0
note_on channel=0 note=79 velocity=54 time=0
note_on channel=0 note=60 velocity=30 time=0
note_on channel=0 note=60 velocity=0 time=120
note_on channel=0 note=52 velocity=31 time=0
note_on channel=0 note=52 velocity=0 time=120
note_on channel=0 note=55 velocity=33 time=0
note_on channel=0 note=55 velocity=0 time=120
note_on channel=0 note=60 velocity=36 time=0
note_on channel=0 note=60 velocity=0 time=120
note_on channel=0 note=64 velocity=33 time=0
note_on channel=0 note=64 velocity=0 time=120
note_on channel=0 note=55 velocity=33 time=0
note_on channel=0 note=55 velocity=0 time=120
note_on channel=0 note=79 velocity=0 time=0
note_on channel=0 note=91 velocity=0 time=0
note_on channel=0 note=88 velocity=47 time=0
note_on channel=0 note=76 velocity=47 time=0
note_on channel=0 note=60 velocity=33 time=0
note_on channel=0 note=60 velocity=0 time=120
note_on channel=0 note=64 velocity=33 time=0
note_on channel=0 note=64 velocity=0 time=0
note_on channel=0 note=76 velocity=0 time=0
note_on channel=0 note=88 velocity=0 time=0
note_on channel=0 note=86 velocity=50 time=0
note_on channel=0 note=74 velocity=50 time=0
note_on channel=0 note=65 velocity=28 time=0
note_on channel=0 note=65 velocity=0 time=21
note_on channel=0 note=64 velocity=31 time=0
note_on channel=0 note=64 velocity=0 time=120
note_on channel=0 note=62 velocity=33 time=0
note_on channel=0 note=62 velocity=0 time=120
note_on channel=0 note=60 velocity=36 time=0
note_on channel=0 note=60 velocity=0 time=0
note_on channel=0 note=74 velocity=0 time=0
note_on channel=0 note=86 velocity=0 time=0
note_on channel=0 note=79 velocity=41 time=0
note_on channel=0 note=67 velocity=41 time=0
note_on channel=0 note=59 velocity=33 time=0
note_on channel=0 note=59 velocity=0 time=120
note_on channel=0 note=55 velocity=33 time=0
note_on channel=0 note=55 velocity=0 time=120
note_on channel=0 note=57 velocity=34 time=0
note_on channel=0 note=57 velocity=0 time=120
note_on channel=0 note=59 velocity=34 time=0
note_on channel=0 note=59 velocity=0 time=0
note_on channel=0 note=67 velocity=0 time=0
note_on channel=0 note=79 velocity=0 time=0
note_on channel=0 note=84 velocity=50 time=0
note_on channel=0 note=72 velocity=50 time=0
note_on channel=0 note=60 velocity=28 time=0
note_on channel=0 note=60 velocity=0 time=21
note_on channel=0 note=59 velocity=30 time=0
note_on channel=0 note=59 velocity=0 time=120
note_on channel=0 note=72 velocity=0 time=0
note_on channel=0 note=84 velocity=0 time=0
note_on channel=0 note=57 velocity=32 time=0
note_on channel=0 note=57 velocity=0 time=120
note_on channel=0 note=55 velocity=34 time=0
note_on channel=0 note=55 velocity=0 time=120
note_on channel=0 note=53 velocity=32 time=0
note_on channel=0 note=53 velocity=0 time=120
note_on channel=0 note=52 velocity=32 time=0
note_on channel=0 note=52 velocity=0 time=120
note_on channel=0 note=50 velocity=33 time=0
note_on channel=0 note=50 velocity=0 time=0
note_on channel=0 note=48 velocity=35 time=0
note_on channel=0 note=48 velocity=0 time=0
note_on channel=0 note=43 velocity=45 time=0
note_on channel=0 note=43 velocity=0 time=0
note_on channel=0 note=47 velocity=30 time=0
note_on channel=0 note=47 velocity=0 time=0
note_on channel=0 note=50 velocity=32 time=0
note_on channel=0 note=50 velocity=0 time=0
note_on channel=0 note=55 velocity=34 time=0
note_on channel=0 note=55 velocity=0 time=0
note_on channel=0 note=89 velocity=50 time=0
note_on channel=0 note=77 velocity=50 time=0
note_on channel=0 note=47 velocity=31 time=0
note_on channel=0 note=47 velocity=0 time=120
note_on channel=0 note=50 velocity=31 time=0
note_on channel=0 note=50 velocity=0 time=120
note_on channel=0 note=77 velocity=0 time=0
note_on channel=0 note=89 velocity=0 time=0
note_on channel=0 note=55 velocity=31 time=0
note_on channel=0 note=55 velocity=0 time=120
note_on channel=0 note=59 velocity=35 time=0
note_on channel=0 note=59 velocity=0 time=0
note_on channel=0 note=89 velocity=54 time=0
note_on channel=0 note=77 velocity=54 time=0
note_on channel=0 note=50 velocity=30 time=0
note_on channel=0 note=50 velocity=0 time=120
note_on channel=0 note=55 velocity=31 time=0
note_on channel=0 note=55 velocity=0 time=120
note_on channel=0 note=59 velocity=33 time=0
note_on channel=0 note=59 velocity=0 time=120
note_on channel=0 note=62 velocity=36 time=0
note_on channel=0 note=62 velocity=0 time=120
note_on channel=0 note=55 velocity=33 time=0
note_on channel=0 note=55 velocity=0 time=120
note_on channel=0 note=59 velocity=33 time=0
note_on channel=0 note=59 velocity=0 time=120
note_on channel=0 note=77 velocity=0 time=0
note_on channel=0 note=89 velocity=0 time=0
note_on channel=0 note=86 velocity=47 time=0
note_on channel=0 note=74 velocity=47 time=0
note_on channel=0 note=62 velocity=33 time=0
note_on channel=0 note=62 velocity=0 time=120
note_on channel=0 note=67 velocity=36 time=0
note_on channel=0 note=67 velocity=0 time=0
note_on channel=0 note=74 velocity=0 time=0
note_on channel=0 note=86 velocity=0 time=0
note_on channel=0 note=88 velocity=50 time=0
note_on channel=0 note=76 velocity=50 time=0
note_on channel=0 note=55 velocity=28 time=0
note_on channel=0 note=55 velocity=0 time=42
note_on channel=0 note=60 velocity=31 time=0
note_on channel=0 note=60 velocity=0 time=120
note_on channel=0 note=67 velocity=33 time=0
note_on channel=0 note=67 velocity=0 time=120
note_on channel=0 note=60 velocity=36 time=0
note_on channel=0 note=60 velocity=0 time=0
note_on channel=0 note=76 velocity=0 time=0
note_on channel=0 note=88 velocity=0 time=0
note_on channel=0 note=84 velocity=41 time=0
note_on channel=0 note=72 velocity=41 time=0
note_on channel=0 note=55 velocity=28 time=0
note_on channel=0 note=55 velocity=0 time=120
note_on channel=0 note=64 velocity=31 time=0
note_on channel=0 note=64 velocity=0 time=120
note_on channel=0 note=67 velocity=33 time=0
note_on channel=0 note=67 velocity=0 time=120
note_on channel=0 note=64 velocity=36 time=0
note_on channel=0 note=64 velocity=0 time=0
note_on channel=0 note=72 velocity=0 time=0
note_on channel=0 note=84 velocity=0 time=0
note_on channel=0 note=83 velocity=50 time=0
note_on channel=0 note=71 velocity=50 time=0
note_on channel=0 note=55 velocity=28 time=0
note_on channel=0 note=55 velocity=0 time=35
note_on channel=0 note=62 velocity=30 time=0
note_on channel=0 note=62 velocity=0 time=120
note_on channel=0 note=67 velocity=32 time=0
note_on channel=0 note=67 velocity=0 time=120
note_on channel=0 note=62 velocity=36 time=0
note_on channel=0 note=62 velocity=0 time=120
note_on channel=0 note=71 velocity=0 time=0
note_on channel=0 note=83 velocity=0 time=0
note_on channel=0 note=86 velocity=47 time=0
note_on channel=0 note=74 velocity=47 time=0
note_on channel=0 note=55 velocity=28 time=0
note_on channel=0 note=55 velocity=0 time=120
note_on channel=0 note=59 velocity=30 time=0
note_on channel=0 note=59 velocity=0 time=120
note_on channel=0 note=74 velocity=0 time=0
note_on channel=0 note=86 velocity=0 time=0
note_on channel=0 note=67 velocity=32 time=0
note_on channel=0 note=67 velocity=0 time=0
note_on channel=0 note=59 velocity=35 time=0
note_on channel=0 note=59 velocity=0 time=0
note_on channel=0 note=43 velocity=48 time=0
note_on channel=0 note=43 velocity=0 time=0
note_on channel=0 note=47 velocity=30 time=0
note_on channel=0 note=47 velocity=0 time=0
note_on channel=0 note=50 velocity=32 time=0
note_on channel=0 note=50 velocity=0 time=0
note_on channel=0 note=55 velocity=34 time=0
note_on channel=0 note=55 velocity=0 time=0
note_on channel=0 note=89 velocity=50 time=0
note_on channel=0 note=77 velocity=50 time=0
note_on channel=0 note=47 velocity=31 time=0
note_on channel=0 note=47 velocity=0 time=120
note_on channel=0 note=50 velocity=31 time=0
note_on channel=0 note=50 velocity=0 time=120
note_on channel=0 note=77 velocity=0 time=0
note_on channel=0 note=89 velocity=0 time=0
note_on channel=0 note=55 velocity=31 time=0
note_on channel=0 note=55 velocity=0 time=120
note_on channel=0 note=59 velocity=35 time=0
note_on channel=0 note=59 velocity=0 time=0
note_on channel=0 note=89 velocity=54 time=0
note_on channel=0 note=77 velocity=54 time=0
note_on channel=0 note=50 velocity=30 time=0
note_on channel=0 note=50 velocity=0 time=120
note_on channel=0 note=55 velocity=31 time=0
note_on channel=0 note=55 velocity=0 time=120
note_on channel=0 note=59 velocity=33 time=0
note_on channel=0 note=59 velocity=0 time=120
note_on channel=0 note=62 velocity=36 time=0
note_on channel=0 note=62 velocity=0 time=120
note_on channel=0 note=55 velocity=33 time=0
note_on channel=0 note=55 velocity=0 time=120
note_on channel=0 note=59 velocity=33 time=0
note_on channel=0 note=59 velocity=0 time=120
note_on channel=0 note=77 velocity=0 time=0
note_on channel=0 note=89 velocity=0 time=0
note_on channel=0 note=86 velocity=47 time=0
note_on channel=0 note=74 velocity=47 time=0
note_on channel=0 note=62 velocity=33 time=0
note_on channel=0 note=62 velocity=0 time=120
note_on channel=0 note=67 velocity=36 time=0
note_on channel=0 note=67 velocity=0 time=0
note_on channel=0 note=74 velocity=0 time=0
note_on channel=0 note=86 velocity=0 time=0
note_on channel=0 note=87 velocity=50 time=0
note_on channel=0 note=75 velocity=50 time=0
note_on channel=0 note=55 velocity=28 time=0
note_on channel=0 note=55 velocity=0 time=63
note_on channel=0 note=60 velocity=31 time=0
note_on channel=0 note=60 velocity=0 time=120
note_on channel=0 note=67 velocity=33 time=0
note_on channel=0 note=67 velocity=0 time=120
note_on channel=0 note=60 velocity=35 time=0
note_on channel=0 note=60 velocity=0 time=0
note_on channel=0 note=75 velocity=0 time=0
note_on channel=0 note=87 velocity=0 time=0
note_on channel=0 note=84 velocity=41 time=0
note_on channel=0 note=72 velocity=41 time=0
note_on channel=0 note=55 velocity=28 time=0
note_on channel=0 note=55 velocity=0 time=120
note_on channel=0 note=63 velocity=31 time=0
note_on channel=0 note=63 velocity=0 time=120
note_on channel=0 note=67 velocity=33 time=0
note_on channel=0 note=67 velocity=0 time=120
note_on channel=0 note=63 velocity=35 time=0
note_on channel=0 note=63 velocity=0 time=0
note_on channel=0 note=72 velocity=0 time=0
note_on channel=0 note=84 velocity=0 time=0
note_on channel=0 note=83 velocity=50 time=0
note_on channel=0 note=71 velocity=50 time=0
note_on channel=0 note=55 velocity=28 time=0
note_on channel=0 note=55 velocity=0 time=35
note_on channel=0 note=62 velocity=30 time=0
note_on channel=0 note=62 velocity=0 time=120
note_on channel=0 note=67 velocity=32 time=0
note_on channel=0 note=67 velocity=0 time=120
note_on channel=0 note=62 velocity=35 time=0
note_on channel=0 note=62 velocity=0 time=120
note_on channel=0 note=71 velocity=0 time=0
note_on channel=0 note=83 velocity=0 time=0
note_on channel=0 note=86 velocity=47 time=0
note_on channel=0 note=74 velocity=47 time=0
note_on channel=0 note=55 velocity=28 time=0
note_on channel=0 note=55 velocity=0 time=120
note_on channel=0 note=59 velocity=30 time=0
note_on channel=0 note=59 velocity=0 time=120
note_on channel=0 note=67 velocity=32 time=0
note_on channel=0 note=67 velocity=0 time=120
note_on channel=0 note=59 velocity=35 time=0
note_on channel=0 note=59 velocity=0 time=0
note_on channel=0 note=74 velocity=0 time=0
note_on channel=0 note=86 velocity=0 time=0
note_on channel=0 note=88 velocity=50 time=0
note_on channel=0 note=76 velocity=50 time=0
note_on channel=0 note=55 velocity=28 time=0
note_on channel=0 note=55 velocity=0 time=49
note_on channel=0 note=60 velocity=31 time=0
note_on channel=0 note=60 velocity=0 time=120
note_on channel=0 note=67 velocity=33 time=0
note_on channel=0 note=67 velocity=0 time=120
note_on channel=0 note=60 velocity=35 time=0
note_on channel=0 note=60 velocity=0 time=0
note_on channel=0 note=76 velocity=0 time=0
note_on channel=0 note=88 velocity=0 time=0
note_on channel=0 note=84 velocity=42 time=0
note_on channel=0 note=72 velocity=42 time=0
note_on channel=0 note=55 velocity=28 time=0
note_on channel=0 note=55 velocity=0 time=120
note_on channel=0 note=64 velocity=32 time=0
note_on channel=0 note=64 velocity=0 time=120
note_on channel=0 note=67 velocity=34 time=0
note_on channel=0 note=67 velocity=0 time=120
note_on channel=0 note=64 velocity=37 time=0
note_on channel=0 note=64 velocity=0 time=0
note_on channel=0 note=72 velocity=0 time=0
note_on channel=0 note=84 velocity=0 time=0
note_on channel=0 note=83 velocity=53 time=0
note_on channel=0 note=71 velocity=53 time=0
note_on channel=0 note=55 velocity=29 time=0
note_on channel=0 note=55 velocity=0 time=49
note_on channel=0 note=62 velocity=32 time=0
note_on channel=0 note=62 velocity=0 time=120
note_on channel=0 note=67 velocity=34 time=0
note_on channel=0 note=67 velocity=0 time=120
note_on channel=0 note=62 velocity=38 time=0
note_on channel=0 note=62 velocity=0 time=120
note_on channel=0 note=71 velocity=0 time=0
note_on channel=0 note=83 velocity=0 time=0
note_on channel=0 note=86 velocity=52 time=0
note_on channel=0 note=74 velocity=52 time=0
note_on channel=0 note=55 velocity=31 time=0
note_on channel=0 note=55 velocity=0 time=120
note_on channel=0 note=59 velocity=33 time=0
note_on channel=0 note=59 velocity=0 time=120
note_on channel=0 note=67 velocity=36 time=0
note_on channel=0 note=67 velocity=0 time=120
note_on channel=0 note=59 velocity=39 time=0
note_on channel=0 note=59 velocity=0 time=0
note_on channel=0 note=74 velocity=0 time=0
note_on channel=0 note=86 velocity=0 time=0
note_on channel=0 note=87 velocity=50 time=0
note_on channel=0 note=75 velocity=50 time=0
note_on channel=0 note=55 velocity=28 time=0
note_on channel=0 note=55 velocity=0 time=63
note_on channel=0 note=60 velocity=31 time=0
note_on channel=0 note=60 velocity=0 time=120
note_on channel=0 note=67 velocity=33 time=0
note_on channel=0 note=67 velocity=0 time=120
note_on channel=0 note=60 velocity=35 time=0
note_on channel=0 note=60 velocity=0 time=0
note_on channel=0 note=75 velocity=0 time=0
note_on channel=0 note=87 velocity=0 time=0
note_on channel=0 note=84 velocity=41 time=0
note_on channel=0 note=72 velocity=41 time=0
note_on channel=0 note=55 velocity=28 time=0
note_on channel=0 note=55 velocity=0 time=120
note_on channel=0 note=60 velocity=31 time=0
note_on channel=0 note=60 velocity=0 time=120
note_on channel=0 note=63 velocity=33 time=0
note_on channel=0 note=63 velocity=0 time=120
note_on channel=0 note=60 velocity=35 time=0
note_on channel=0 note=60 velocity=0 time=0
note_on channel=0 note=72 velocity=0 time=0
note_on channel=0 note=84 velocity=0 time=0
note_on channel=0 note=79 velocity=50 time=0
note_on channel=0 note=55 velocity=28 time=0
note_on channel=0 note=55 velocity=0 time=51
note_on channel=0 note=59 velocity=30 time=0
note_on channel=0 note=59 velocity=0 time=120
note_on channel=0 note=62 velocity=32 time=0
note_on channel=0 note=62 velocity=0 time=120
note_on channel=0 note=59 velocity=35 time=0
note_on channel=0 note=59 velocity=0 time=0
note_on channel=0 note=79 velocity=0 time=0
note_on channel=0 note=79 velocity=47 time=0
note_on channel=0 note=55 velocity=28 time=0
note_on channel=0 note=55 velocity=0 time=51
note_on channel=0 note=60 velocity=30 time=0
note_on channel=0 note=60 velocity=0 time=120
note_on channel=0 note=63 velocity=32 time=0
note_on channel=0 note=63 velocity=0 time=120
note_on channel=0 note=60 velocity=35 time=0
note_on channel=0 note=60 velocity=0 time=0
note_on channel=0 note=79 velocity=0 time=0
note_on channel=0 note=81 velocity=33 time=0
note_on channel=0 note=55 velocity=42 time=0
note_on channel=0 note=55 velocity=0 time=17
note_on channel=0 note=81 velocity=0 time=20
note_on channel=0 note=79 velocity=33 time=0
note_on channel=0 note=59 velocity=27 time=40
note_on channel=0 note=79 velocity=0 time=40
note_on channel=0 note=81 velocity=33 time=0
note_on channel=0 note=81 velocity=0 time=80
note_on channel=0 note=59 velocity=0 time=0
note_on channel=0 note=79 velocity=33 time=0
note_on channel=0 note=62 velocity=27 time=0
note_on channel=0 note=79 velocity=0 time=80
note_on channel=0 note=81 velocity=34 time=0
note_on channel=0 note=62 velocity=0 time=40
note_on channel=0 note=59 velocity=28 time=0
note_on channel=0 note=81 velocity=0 time=40
note_on channel=0 note=79 velocity=34 time=0
note_on channel=0 note=79 velocity=0 time=0
note_on channel=0 note=59 velocity=0 time=0
note_on channel=0 note=81 velocity=35 time=0
note_on channel=0 note=55 velocity=48 time=0
note_on channel=0 note=55 velocity=0 time=10
note_on channel=0 note=81 velocity=0 time=20
note_on channel=0 note=79 velocity=35 time=0
note_on channel=0 note=60 velocity=29 time=40
note_on channel=0 note=79 velocity=0 time=40
note_on channel=0 note=81 velocity=35 time=0
note_on channel=0 note=81 velocity=0 time=80
note_on channel=0 note=60 velocity=0 time=0
note_on channel=0 note=79 velocity=35 time=0
note_on channel=0 note=64 velocity=30 time=0
note_on channel=0 note=79 velocity=0 time=80
note_on channel=0 note=81 velocity=36 time=0
note_on channel=0 note=64 velocity=0 time=40
note_on channel=0 note=60 velocity=31 time=0
note_on channel=0 note=81 velocity=0 time=0
note_on channel=0 note=79 velocity=36 time=0
note_on channel=0 note=79 velocity=0 time=80
note_on channel=0 note=60 velocity=0 time=0
note_on channel=0 note=81 velocity=37 time=0
note_on channel=0 note=55 velocity=51 time=0
note_on channel=0 note=55 velocity=0 time=14
note_on channel=0 note=81 velocity=0 time=20
note_on channel=0 note=79 velocity=37 time=0
note_on channel=0 note=59 velocity=32 time=40
note_on channel=0 note=79 velocity=0 time=0
note_on channel=0 note=81 velocity=37 time=0
note_on channel=0 note=81 velocity=0 time=80
note_on channel=0 note=59 velocity=0 time=0
note_on channel=0 note=79 velocity=39 time=0
note_on channel=0 note=62 velocity=34 time=0
note_on channel=0 note=79 velocity=0 time=80
note_on channel=0 note=81 velocity=39 time=0
note_on channel=0 note=62 velocity=0 time=0
note_on channel=0 note=59 velocity=34 time=0
note_on channel=0 note=81 velocity=0 time=40
note_on channel=0 note=79 velocity=39 time=0
note_on channel=0 note=79 velocity=0 time=80
note_on channel=0 note=59 velocity=0 time=0
note_on channel=0 note=81 velocity=39 time=0
note_on channel=0 note=55 velocity=58 time=0
note_on channel=0 note=55 velocity=0 time=46
note_on channel=0 note=81 velocity=0 time=0
note_on channel=0 note=79 velocity=39 time=0
note_on channel=0 note=57 velocity=35 time=40
note_on channel=0 note=79 velocity=0 time=40
note_on channel=0 note=81 velocity=41 time=0
note_on channel=0 note=81 velocity=0 time=80
note_on channel=0 note=57 velocity=0 time=0
note_on channel=0 note=79 velocity=41 time=0
note_on channel=0 note=60 velocity=37 time=0
note_on channel=0 note=79 velocity=0 time=40
note_on channel=0 note=81 velocity=41 time=0
note_on channel=0 note=60 velocity=0 time=40
note_on channel=0 note=57 velocity=39 time=0
note_on channel=0 note=81 velocity=0 time=40
note_on channel=0 note=79 velocity=41 time=0
note_on channel=0 note=79 velocity=0 time=0
note_on channel=0 note=57 velocity=0 time=0
note_on channel=0 note=81 velocity=42 time=0
note_on channel=0 note=55 velocity=64 time=0
note_on channel=0 note=55 velocity=0 time=0
note_on channel=0 note=81 velocity=0 time=0
note_on channel=0 note=79 velocity=42 time=0
note_on channel=0 note=59 velocity=42 time=20
note_on channel=0 note=79 velocity=0 time=0
note_on channel=0 note=81 velocity=42 time=0
note_on channel=0 note=81 velocity=0 time=0
note_on channel=0 note=59 velocity=0 time=0
note_on channel=0 note=79 velocity=42 time=0
note_on channel=0 note=57 velocity=44 time=0
note_on channel=0 note=79 velocity=0 time=60
note_on channel=0 note=81 velocity=42 time=0
note_on channel=0 note=57 velocity=0 time=0
note_on channel=0 note=55 velocity=45 time=0
note_on channel=0 note=81 velocity=0 time=0
note_on channel=0 note=79 velocity=44 time=0
note_on channel=0 note=79 velocity=0 time=0
note_on channel=0 note=55 velocity=0 time=0
note_on channel=0 note=81 velocity=44 time=0
note_on channel=0 note=53 velocity=69 time=0
note_on channel=0 note=53 velocity=0 time=7
note_on channel=0 note=81 velocity=0 time=20
note_on channel=0 note=79 velocity=44 time=0
note_on channel=0 note=57 velocity=50 time=0
note_on channel=0 note=79 velocity=0 time=0
note_on channel=0 note=81 velocity=45 time=0
note_on channel=0 note=81 velocity=0 time=0
note_on channel=0 note=57 velocity=0 time=0
note_on channel=0 note=79 velocity=45 time=0
note_on channel=0 note=55 velocity=53 time=0
note_on channel=0 note=79 velocity=0 time=0
note_on channel=0 note=81 velocity=45 time=0
note_on channel=0 note=55 velocity=0 time=0
note_on channel=0 note=53 velocity=56 time=0
note_on channel=0 note=81 velocity=0 time=0
note_on channel=0 note=79 velocity=46 time=0
note_on channel=0 note=79 velocity=0 time=80
note_on channel=0 note=53 velocity=0 time=0
note_on channel=0 note=81 velocity=46 time=0
note_on channel=0 note=52 velocity=77 time=0
note_on channel=0 note=52 velocity=0 time=0
note_on channel=0 note=81 velocity=0 time=20
note_on channel=0 note=79 velocity=47 time=0
note_on channel=0 note=55 velocity=60 time=40
note_on channel=0 note=79 velocity=0 time=20
note_on channel=0 note=81 velocity=47 time=0
note_on channel=0 note=81 velocity=0 time=0
note_on channel=0 note=55 velocity=0 time=0
note_on channel=0 note=79 velocity=48 time=0
note_on channel=0 note=53 velocity=62 time=0
note_on channel=0 note=79 velocity=0 time=80
note_on channel=0 note=81 velocity=49 time=0
note_on channel=0 note=53 velocity=0 time=0
note_on channel=0 note=52 velocity=64 time=0
note_on channel=0 note=81 velocity=0 time=0
note_on channel=0 note=79 velocity=49 time=0
note_on channel=0 note=79 velocity=0 time=0
note_on channel=0 note=52 velocity=0 time=0
note_on channel=0 note=81 velocity=49 time=0
note_on channel=0 note=50 velocity=82 time=0
note_on channel=0 note=50 velocity=0 time=10
note_on channel=0 note=81 velocity=0 time=0
note_on channel=0 note=79 velocity=49 time=0
note_on channel=0 note=53 velocity=64 time=40
note_on channel=0 note=79 velocity=0 time=0
note_on channel=0 note=81 velocity=50 time=0
note_on channel=0 note=81 velocity=0 time=40
note_on channel=0 note=53 velocity=0 time=0
note_on channel=0 note=79 velocity=50 time=0
note_on channel=0 note=52 velocity=67 time=0
note_on channel=0 note=79 velocity=0 time=0
note_on channel=0 note=81 velocity=51 time=0
note_on channel=0 note=52 velocity=0 time=40
note_on channel=0 note=50 velocity=71 time=0
note_on channel=0 note=81 velocity=0 time=0
note_on channel=0 note=79 velocity=51 time=0
note_on channel=0 note=79 velocity=0 time=0
note_on channel=0 note=50 velocity=0 time=0
note_on channel=0 note=81 velocity=48 time=0
note_on channel=0 note=36 velocity=94 time=0
note_on channel=0 note=48 velocity=94 time=0
note_on channel=0 note=81 velocity=0 time=20
note_on channel=0 note=79 velocity=35 time=0
note_on channel=0 note=50 velocity=56 time=0
note_on channel=0 note=79 velocity=0 time=20
note_on channel=0 note=81 velocity=38 time=0
note_on channel=0 note=50 velocity=0 time=0
note_on channel=0 note=52 velocity=57 time=0
note_on channel=0 note=52 velocity=0 time=0
note_on channel=0 note=81 velocity=0 time=0
note_on channel=0 note=48 velocity=0 time=0
note_on channel=0 note=36 velocity=0 time=0
note_on channel=0 note=79 velocity=35 time=0
note_on channel=0 note=53 velocity=60 time=0
note_on channel=0 note=53 velocity=0 time=0
note_on channel=0 note=55 velocity=60 time=0
note_on channel=0 note=79 velocity=0 time=0
note_on channel=0 note=81 velocity=38 time=0
note_on channel=0 note=55 velocity=0 time=20
note_on channel=0 note=57 velocity=62 time=0
note_on channel=0 note=81 velocity=0 time=20
note_on channel=0 note=79 velocity=36 time=0
note_on channel=0 note=57 velocity=0 time=20
note_on channel=0 note=59 velocity=63 time=0
note_on channel=0 note=59 velocity=0 time=0
note_on channel=0 note=79 velocity=0 time=0
note_on channel=0 note=81 velocity=40 time=0
note_on channel=0 note=91 velocity=89 time=0
note_on channel=0 note=60 velocity=63 time=0
note_on channel=0 note=81 velocity=0 time=40
note_on channel=0 note=79 velocity=36 time=0
note_on channel=0 note=60 velocity=0 time=0
note_on channel=0 note=62 velocity=65 time=0
note_on channel=0 note=79 velocity=0 time=0
note_on channel=0 note=81 velocity=40 time=0
note_on channel=0 note=62 velocity=0 time=20
note_on channel=0 note=64 velocity=66 time=0
note_on channel=0 note=64 velocity=0 time=0
note_on channel=0 note=81 velocity=0 time=0
note_on channel=0 note=91 velocity=0 time=0
note_on channel=0 note=79 velocity=36 time=0
note_on channel=0 note=65 velocity=67 time=0
note_on channel=0 note=65 velocity=0 time=0
note_on channel=0 note=67 velocity=69 time=0
note_on channel=0 note=79 velocity=0 time=0
note_on channel=0 note=81 velocity=40 time=0
note_on channel=0 note=67 velocity=0 time=0
note_on channel=0 note=69 velocity=70 time=0
note_on channel=0 note=81 velocity=0 time=0
note_on channel=0 note=79 velocity=36 time=0
note_on channel=0 note=69 velocity=0 time=20
note_on channel=0 note=71 velocity=71 time=0
note_on channel=0 note=71 velocity=0 time=60
note_on channel=0 note=79 velocity=0 time=0
note_on channel=0 note=81 velocity=40 time=0
note_on channel=0 note=91 velocity=90 time=0
note_on channel=0 note=72 velocity=74 time=0
note_on channel=0 note=72 velocity=0 time=0
note_on channel=0 note=81 velocity=0 time=0
note_on channel=0 note=79 velocity=37 time=0
note_on channel=0 note=71 velocity=71 time=0
note_on channel=0 note=79 velocity=0 time=0
note_on channel=0 note=81 velocity=40 time=0
note_on channel=0 note=71 velocity=0 time=0
note_on channel=0 note=81 velocity=0 time=0
note_on channel=0 note=79 velocity=36 time=0
note_on channel=0 note=69 velocity=71 time=0
note_on channel=0 note=69 velocity=0 time=0
note_on channel=0 note=79 velocity=0 time=0
note_on channel=0 note=81 velocity=40 time=0
note_on channel=0 note=67 velocity=71 time=0
note_on channel=0 note=81 velocity=0 time=20
note_on channel=0 note=79 velocity=36 time=0
note_on channel=0 note=67 velocity=0 time=20
note_on channel=0 note=79 velocity=0 time=0
note_on channel=0 note=81 velocity=40 time=0
note_on channel=0 note=65 velocity=72 time=0
note_on channel=0 note=65 velocity=0 time=0
note_on channel=0 note=81 velocity=0 time=20
note_on channel=0 note=79 velocity=35 time=0
note_on channel=0 note=64 velocity=69 time=0
note_on channel=0 note=79 velocity=0 time=0
note_on channel=0 note=81 velocity=38 time=0
note_on channel=0 note=64 velocity=0 time=20
note_on channel=0 note=81 velocity=0 time=0
note_on channel=0 note=91 velocity=0 time=0
note_on channel=0 note=79 velocity=33 time=0
note_on channel=0 note=88 velocity=85 time=0
note_on channel=0 note=62 velocity=69 time=0
note_on channel=0 note=62 velocity=0 time=40
note_on channel=0 note=79 velocity=0 time=20
note_on channel=0 note=81 velocity=38 time=0
note_on channel=0 note=60 velocity=67 time=0
note_on channel=0 note=81 velocity=0 time=40
note_on channel=0 note=79 velocity=34 time=0
note_on channel=0 note=60 velocity=0 time=0
note_on channel=0 note=79 velocity=0 time=0
note_on channel=0 note=88 velocity=0 time=0
note_on channel=0 note=81 velocity=38 time=0
note_on channel=0 note=86 velocity=90 time=0
note_on channel=0 note=59 velocity=73 time=0
note_on channel=0 note=59 velocity=0 time=0
note_on channel=0 note=81 velocity=0 time=20
note_on channel=0 note=79 velocity=34 time=0
note_on channel=0 note=60 velocity=69 time=0
note_on channel=0 note=79 velocity=0 time=0
note_on channel=0 note=81 velocity=36 time=0
note_on channel=0 note=60 velocity=0 time=0
note_on channel=0 note=81 velocity=0 time=0
note_on channel=0 note=79 velocity=33 time=0
note_on channel=0 note=59 velocity=69 time=0
note_on channel=0 note=59 velocity=0 time=40
note_on channel=0 note=79 velocity=0 time=0
note_on channel=0 note=81 velocity=37 time=0
note_on channel=0 note=57 velocity=69 time=0
note_on channel=0 note=81 velocity=0 time=0
note_on channel=0 note=79 velocity=33 time=0
note_on channel=0 note=57 velocity=0 time=0
note_on channel=0 note=79 velocity=0 time=20
note_on channel=0 note=86 velocity=0 time=0
note_on channel=0 note=81 velocity=37 time=0
note_on channel=0 note=79 velocity=84 time=0
note_on channel=0 note=55 velocity=75 time=0
note_on channel=0 note=55 velocity=0 time=0
note_on channel=0 note=79 velocity=0 time=10
note_on channel=0 note=81 velocity=0 time=0
note_on channel=0 note=79 velocity=33 time=0
note_on channel=0 note=53 velocity=69 time=0
note_on channel=0 note=79 velocity=0 time=0
note_on channel=0 note=81 velocity=38 time=0
note_on channel=0 note=53 velocity=0 time=0
note_on channel=0 note=81 velocity=0 time=0
note_on channel=0 note=79 velocity=32 time=0
note_on channel=0 note=52 velocity=69 time=0
note_on channel=0 note=52 velocity=0 time=0
note_on channel=0 note=79 velocity=0 time=0
note_on channel=0 note=81 velocity=37 time=0
note_on channel=0 note=50 velocity=69 time=20
note_on channel=0 note=81 velocity=0 time=20
note_on channel=0 note=79 velocity=32 time=0
note_on channel=0 note=50 velocity=0 time=20
note_on channel=0 note=79 velocity=0 time=0
note_on channel=0 note=81 velocity=38 time=0
note_on channel=0 note=84 velocity=87 time=0
note_on channel=0 note=48 velocity=75 time=0
note_on channel=0 note=48 velocity=0 time=0
note_on channel=0 note=81 velocity=0 time=0
note_on channel=0 note=79 velocity=32 time=0
note_on channel=0 note=48 velocity=69 time=40
note_on channel=0 note=79 velocity=0 time=0
note_on channel=0 note=81 velocity=37 time=0
note_on channel=0 note=48 velocity=0 time=0
note_on channel=0 note=81 velocity=0 time=20
note_on channel=0 note=79 velocity=32 time=0
note_on channel=0 note=47 velocity=69 time=0
note_on channel=0 note=47 velocity=0 time=0
note_on channel=0 note=79 velocity=0 time=0
note_on channel=0 note=81 velocity=36 time=0
note_on channel=0 note=45 velocity=69 time=20
note_on channel=0 note=81 velocity=0 time=40
note_on channel=0 note=79 velocity=32 time=0
note_on channel=0 note=45 velocity=0 time=20
note_on channel=0 note=79 velocity=0 time=0
note_on channel=0 note=84 velocity=0 time=0
note_on channel=0 note=81 velocity=36 time=0
note_on channel=0 note=88 velocity=84 time=0
note_on channel=0 note=43 velocity=72 time=0
note_on channel=0 note=43 velocity=0 time=0
note_on channel=0 note=81 velocity=0 time=0
note_on channel=0 note=79 velocity=34 time=0
note_on channel=0 note=41 velocity=71 time=40
note_on channel=0 note=79 velocity=0 time=0
note_on channel=0 note=81 velocity=37 time=0
note_on channel=0 note=41 velocity=0 time=0
note_on channel=0 note=81 velocity=0 time=40
note_on channel=0 note=88 velocity=0 time=0
note_on channel=0 note=79 velocity=33 time=0
note_on channel=0 note=40 velocity=75 time=0
note_on channel=0 note=40 velocity=0 time=40
note_on channel=0 note=79 velocity=0 time=20
note_on channel=0 note=81 velocity=36 time=0
note_on channel=0 note=38 velocity=80 time=0
note_on channel=0 note=81 velocity=0 time=40
note_on channel=0 note=79 velocity=32 time=0
note_on channel=0 note=38 velocity=0 time=20
note_on channel=0 note=79 velocity=0 time=0
note_on channel=0 note=81 velocity=36 time=0
note_on channel=0 note=36 velocity=95 time=0
note_on channel=0 note=48 velocity=95 time=0
note_on channel=0 note=81 velocity=0 time=0
note_on channel=0 note=79 velocity=32 time=0
note_on channel=0 note=50 velocity=56 time=20
note_on channel=0 note=79 velocity=0 time=0
note_on channel=0 note=81 velocity=37 time=0
note_on channel=0 note=50 velocity=0 time=20
note_on channel=0 note=52 velocity=57 time=0
note_on channel=0 note=52 velocity=0 time=0
note_on channel=0 note=81 velocity=0 time=0
note_on channel=0 note=48 velocity=0 time=0
note_on channel=0 note=36 velocity=0 time=0
note_on channel=0 note=79 velocity=33 time=0
note_on channel=0 note=53 velocity=60 time=0
note_on channel=0 note=53 velocity=0 time=0
note_on channel=0 note=55 velocity=60 time=0
note_on channel=0 note=79 velocity=0 time=0
note_on channel=0 note=81 velocity=38 time=0
note_on channel=0 note=55 velocity=0 time=20
note_on channel=0 note=57 velocity=62 time=0
note_on channel=0 note=81 velocity=0 time=40
note_on channel=0 note=79 velocity=33 time=0
note_on channel=0 note=57 velocity=0 time=0
note_on channel=0 note=59 velocity=63 time=0
note_on channel=0 note=59 velocity=0 time=0
note_on channel=0 note=79 velocity=0 time=0
note_on channel=0 note=81 velocity=39 time=0
note_on channel=0 note=91 velocity=90 time=0
note_on channel=0 note=60 velocity=63 time=0
note_on channel=0 note=81 velocity=0 time=0
note_on channel=0 note=79 velocity=35 time=0
note_on channel=0 note=60 velocity=0 time=0
note_on channel=0 note=62 velocity=65 time=0
note_on channel=0 note=79 velocity=0 time=0
note_on channel=0 note=81 velocity=40 time=0
note_on channel=0 note=62 velocity=0 time=20
note_on channel=0 note=64 velocity=66 time=0
note_on channel=0 note=64 velocity=0 time=0
note_on channel=0 note=81 velocity=0 time=0
note_on channel=0 note=91 velocity=0 time=0
note_on channel=0 note=79 velocity=36 time=0
note_on channel=0 note=65 velocity=67 time=0
note_on channel=0 note=65 velocity=0 time=0
note_on channel=0 note=67 velocity=69 time=0
note_on channel=0 note=79 velocity=0 time=0
note_on channel=0 note=81 velocity=40 time=0
note_on channel=0 note=67 velocity=0 time=40
note_on channel=0 note=69 velocity=70 time=0
note_on channel=0 note=81 velocity=0 time=0
note_on channel=0 note=79 velocity=36 time=0
note_on channel=0 note=69 velocity=0 time=20
note_on channel=0 note=71 velocity=71 time=0
note_on channel=0 note=71 velocity=0 time=0
note_on channel=0 note=79 velocity=0 time=0
note_on channel=0 note=81 velocity=40 time=0
note_on channel=0 note=91 velocity=92 time=0
note_on channel=0 note=72 velocity=74 time=0
note_on channel=0 note=72 velocity=0 time=0
note_on channel=0 note=81 velocity=0 time=20
note_on channel=0 note=79 velocity=37 time=0
note_on channel=0 note=71 velocity=71 time=0
note_on channel=0 note=79 velocity=0 time=0
note_on channel=0 note=81 velocity=40 time=0
note_on channel=0 note=71 velocity=0 time=20
note_on channel=0 note=81 velocity=0 time=0
note_on channel=0 note=79 velocity=36 time=0
note_on channel=0 note=69 velocity=71 time=0
note_on channel=0 note=69 velocity=0 time=0
note_on channel=0 note=79 velocity=0 time=0
note_on channel=0 note=81 velocity=40 time=0
note_on channel=0 note=67 velocity=71 time=0
note_on channel=0 note=81 velocity=0 time=0
note_on channel=0 note=79 velocity=36 time=0
note_on channel=0 note=67 velocity=0 time=0
note_on channel=0 note=79 velocity=0 time=0
note_on channel=0 note=81 velocity=39 time=0
note_on channel=0 note=65 velocity=72 time=0
note_on channel=0 note=65 velocity=0 time=0
note_on channel=0 note=81 velocity=0 time=0
note_on channel=0 note=79 velocity=36 time=0
note_on channel=0 note=64 velocity=69 time=40
note_on channel=0 note=79 velocity=0 time=0
note_on channel=0 note=81 velocity=38 time=0
note_on channel=0 note=64 velocity=0 time=0
note_on channel=0 note=81 velocity=0 time=20
note_on channel=0 note=91 velocity=0 time=0
note_on channel=0 note=79 velocity=32 time=0
note_on channel=0 note=88 velocity=84 time=0
note_on channel=0 note=62 velocity=69 time=0
note_on channel=0 note=62 velocity=0 time=0
note_on channel=0 note=79 velocity=0 time=0
note_on channel=0 note=81 velocity=37 time=0
note_on channel=0 note=60 velocity=67 time=40
note_on channel=0 note=81 velocity=0 time=20
note_on channel=0 note=79 velocity=33 time=0
note_on channel=0 note=60 velocity=0 time=20
note_on channel=0 note=79 velocity=0 time=0
note_on channel=0 note=88 velocity=0 time=0
note_on channel=0 note=81 velocity=39 time=0
note_on channel=0 note=86 velocity=90 time=0
note_on channel=0 note=59 velocity=73 time=0
note_on channel=0 note=59 velocity=0 time=0
note_on channel=0 note=81 velocity=0 time=20
note_on channel=0 note=79 velocity=32 time=0
note_on channel=0 note=60 velocity=69 time=20
note_on channel=0 note=79 velocity=0 time=0
note_on channel=0 note=81 velocity=36 time=0
note_on channel=0 note=60 velocity=0 time=20
note_on channel=0 note=81 velocity=0 time=20
note_on channel=0 note=79 velocity=31 time=0
note_on channel=0 note=59 velocity=69 time=0
note_on channel=0 note=59 velocity=0 time=0
note_on channel=0 note=79 velocity=0 time=20
note_on channel=0 note=81 velocity=36 time=0
note_on channel=0 note=57 velocity=69 time=0
note_on channel=0 note=81 velocity=0 time=20
note_on channel=0 note=79 velocity=30 time=0
note_on channel=0 note=57 velocity=0 time=20
note_on channel=0 note=79 velocity=0 time=40
note_on channel=0 note=86 velocity=0 time=0
note_on channel=0 note=81 velocity=36 time=0
note_on channel=0 note=79 velocity=82 time=0
note_on channel=0 note=55 velocity=75 time=0
note_on channel=0 note=55 velocity=0 time=0
note_on channel=0 note=79 velocity=0 time=10
note_on channel=0 note=81 velocity=0 time=0
note_on channel=0 note=79 velocity=31 time=0
note_on channel=0 note=53 velocity=69 time=40
note_on channel=0 note=79 velocity=0 time=0
note_on channel=0 note=81 velocity=36 time=0
note_on channel=0 note=53 velocity=0 time=0
note_on channel=0 note=81 velocity=0 time=0
note_on channel=0 note=79 velocity=34 time=0
note_on channel=0 note=52 velocity=69 time=0
note_on channel=0 note=52 velocity=0 time=0
note_on channel=0 note=79 velocity=0 time=0
note_on channel=0 note=78 velocity=36 time=0
note_on channel=0 note=50 velocity=69 time=40
note_on channel=0 note=78 velocity=0 time=0
note_on channel=0 note=79 velocity=31 time=0
note_on channel=0 note=50 velocity=0 time=20
note_on channel=0 note=79 velocity=0 time=0
note_on channel=0 note=84 velocity=86 time=0
note_on channel=0 note=48 velocity=75 time=0
note_on channel=0 note=48 velocity=0 time=231
note_on channel=0 note=84 velocity=0 time=0
note_on channel=0 note=36 velocity=75 time=0
note_on channel=0 note=36 velocity=0 time=240
note_on channel=0 note=60 velocity=68 time=0
note_on channel=0 note=60 velocity=0 time=80
note_on channel=0 note=64 velocity=62 time=0
note_on channel=0 note=64 velocity=0 time=80
note_on channel=0 note=60 velocity=62 time=0
note_on channel=0 note=60 velocity=0 time=80
note_on channel=0 note=55 velocity=62 time=0
note_on channel=0 note=36 velocity=60 time=0
note_on channel=0 note=48 velocity=71 time=0
note_on channel=0 note=55 velocity=0 time=55
note_on channel=0 note=52 velocity=62 time=0
note_on channel=0 note=52 velocity=0 time=80
note_on channel=0 note=55 velocity=62 time=0
note_on channel=0 note=55 velocity=0 time=0
note_on channel=0 note=48 velocity=0 time=0
note_on channel=0 note=36 velocity=0 time=0
note_on channel=0 note=60 velocity=68 time=0
note_on channel=0 note=60 velocity=0 time=74
note_on channel=0 note=65 velocity=62 time=0
note_on channel=0 note=65 velocity=0 time=80
note_on channel=0 note=60 velocity=62 time=0
note_on channel=0 note=60 velocity=0 time=80
note_on channel=0 note=57 velocity=62 time=0
note_on channel=0 note=36 velocity=60 time=0
note_on channel=0 note=48 velocity=71 time=0
note_on channel=0 note=57 velocity=0 time=73
note_on channel=0 note=53 velocity=62 time=0
note_on channel=0 note=53 velocity=0 time=80
note_on channel=0 note=57 velocity=62 time=0
note_on channel=0 note=57 velocity=0 time=80
note_on channel=0 note=48 velocity=0 time=0
note_on channel=0 note=36 velocity=0 time=0
note_on channel=0 note=60 velocity=68 time=0
note_on channel=0 note=60 velocity=0 time=67
note_on channel=0 note=64 velocity=61 time=0
note_on channel=0 note=64 velocity=0 time=80
note_on channel=0 note=60 velocity=61 time=0
note_on channel=0 note=60 velocity=0 time=80
note_on channel=0 note=55 velocity=61 time=0
note_on channel=0 note=36 velocity=57 time=0
note_on channel=0 note=48 velocity=68 time=0
note_on channel=0 note=55 velocity=0 time=80
note_on channel=0 note=52 velocity=61 time=0
note_on channel=0 note=52 velocity=0 time=80
note_on channel=0 note=55 velocity=61 time=0
note_on channel=0 note=55 velocity=0 time=80
note_on channel=0 note=48 velocity=0 time=0
note_on channel=0 note=36 velocity=0 time=0
note_on channel=0 note=60 velocity=63 time=0
note_on channel=0 note=60 velocity=0 time=72
note_on channel=0 note=62 velocity=59 time=0
note_on channel=0 note=62 velocity=0 time=80
note_on channel=0 note=60 velocity=59 time=0
note_on channel=0 note=60 velocity=0 time=80
note_on channel=0 note=53 velocity=59 time=0
note_on channel=0 note=36 velocity=53 time=0
note_on channel=0 note=48 velocity=63 time=0
note_on channel=0 note=53 velocity=0 time=65
note_on channel=0 note=50 velocity=59 time=0
note_on channel=0 note=50 velocity=0 time=80
note_on channel=0 note=53 velocity=59 time=0
note_on channel=0 note=53 velocity=0 time=0
note_on channel=0 note=48 velocity=0 time=0
note_on channel=0 note=36 velocity=0 time=0
note_on channel=0 note=60 velocity=68 time=0
note_on channel=0 note=60 velocity=0 time=63
note_on channel=0 note=63 velocity=61 time=0
note_on channel=0 note=63 velocity=0 time=80
note_on channel=0 note=60 velocity=61 time=0
note_on channel=0 note=60 velocity=0 time=80
note_on channel=0 note=54 velocity=61 time=0
note_on channel=0 note=36 velocity=59 time=0
note_on channel=0 note=48 velocity=70 time=0
note_on channel=0 note=54 velocity=0 time=68
note_on channel=0 note=51 velocity=61 time=0
note_on channel=0 note=51 velocity=0 time=80
note_on channel=0 note=54 velocity=61 time=0
note_on channel=0 note=54 velocity=0 time=80
note_on channel=0 note=48 velocity=0 time=0
note_on channel=0 note=36 velocity=0 time=0
note_on channel=0 note=60 velocity=68 time=0
note_on channel=0 note=60 velocity=0 time=80
note_on channel=0 note=64 velocity=62 time=0
note_on channel=0 note=64 velocity=0 time=80
note_on channel=0 note=60 velocity=62 time=0
note_on channel=0 note=60 velocity=0 time=80
note_on channel=0 note=55 velocity=62 time=0
note_on channel=0 note=36 velocity=60 time=0
note_on channel=0 note=48 velocity=71 time=0
note_on channel=0 note=55 velocity=0 time=41
note_on channel=0 note=52 velocity=62 time=0
note_on channel=0 note=52 velocity=0 time=80
note_on channel=0 note=55 velocity=62 time=0
note_on channel=0 note=55 velocity=0 time=0
note_on channel=0 note=48 velocity=0 time=0
note_on channel=0 note=36 velocity=0 time=0
note_on channel=0 note=59 velocity=68 time=0
note_on channel=0 note=59 velocity=0 time=67
note_on channel=0 note=62 velocity=61 time=0
note_on channel=0 note=62 velocity=0 time=80
note_on channel=0 note=59 velocity=61 time=0
note_on channel=0 note=59 velocity=0 time=80
note_on channel=0 note=53 velocity=61 time=0
note_on channel=0 note=36 velocity=60 time=0
note_on channel=0 note=48 velocity=71 time=0
note_on channel=0 note=53 velocity=0 time=37
note_on channel=0 note=50 velocity=61 time=0
note_on channel=0 note=50 velocity=0 time=80
note_on channel=0 note=53 velocity=61 time=0
note_on channel=0 note=53 velocity=0 time=0
note_on channel=0 note=48 velocity=0 time=0
note_on channel=0 note=36 velocity=0 time=0
note_on channel=0 note=55 velocity=68 time=0
note_on channel=0 note=55 velocity=0 time=73
note_on channel=0 note=60 velocity=62 time=0
note_on channel=0 note=60 velocity=0 time=80
note_on channel=0 note=55 velocity=62 time=0
note_on channel=0 note=55 velocity=0 time=80
note_on channel=0 note=52 velocity=62 time=0
note_on channel=0 note=36 velocity=71 time=0
note_on channel=0 note=52 velocity=0 time=37
note_on channel=0 note=48 velocity=62 time=0
note_on channel=0 note=48 velocity=0 time=80
note_on channel=0 note=52 velocity=62 time=0
note_on channel=0 note=52 velocity=0 time=80
note_on channel=0 note=36 velocity=0 time=0
note_on channel=0 note=64 velocity=68 time=0
note_on channel=0 note=64 velocity=0 time=65
note_on channel=0 note=67 velocity=62 time=0
note_on channel=0 note=67 velocity=0 time=80
note_on channel=0 note=64 velocity=62 time=0
note_on channel=0 note=64 velocity=0 time=80
note_on channel=0 note=60 velocity=62 time=0
note_on channel=0 note=48 velocity=60 time=0
note_on channel=0 note=40 velocity=60 time=0
note_on channel=0 note=52 velocity=71 time=0
note_on channel=0 note=60 velocity=0 time=37
note_on channel=0 note=55 velocity=62 time=0
note_on channel=0 note=55 velocity=0 time=80
note_on channel=0 note=60 velocity=62 time=0
note_on channel=0 note=60 velocity=0 time=0
note_on channel=0 note=48 velocity=0 time=0
note_on channel=0 note=40 velocity=0 time=0
note_on channel=0 note=52 velocity=0 time=0
note_on channel=0 note=65 velocity=68 time=0
note_on channel=0 note=65 velocity=0 time=72
note_on channel=0 note=69 velocity=62 time=0
note_on channel=0 note=69 velocity=0 time=80
note_on channel=0 note=65 velocity=62 time=0
note_on channel=0 note=65 velocity=0 time=80
note_on channel=0 note=60 velocity=62 time=0
note_on channel=0 note=48 velocity=60 time=0
note_on channel=0 note=41 velocity=60 time=0
note_on channel=0 note=53 velocity=71 time=0
note_on channel=0 note=60 velocity=0 time=23
note_on channel=0 note=57 velocity=62 time=0
note_on channel=0 note=57 velocity=0 time=80
note_on channel=0 note=60 velocity=62 time=0
note_on channel=0 note=60 velocity=0 time=80
note_on channel=0 note=48 velocity=0 time=0
note_on channel=0 note=41 velocity=0 time=0
note_on channel=0 note=53 velocity=0 time=0
note_on channel=0 note=64 velocity=68 time=0
note_on channel=0 note=64 velocity=0 time=66
note_on channel=0 note=67 velocity=61 time=0
note_on channel=0 note=67 velocity=0 time=80
note_on channel=0 note=64 velocity=61 time=0
note_on channel=0 note=64 velocity=0 time=80
note_on channel=0 note=60 velocity=61 time=0
note_on channel=0 note=48 velocity=57 time=0
note_on channel=0 note=40 velocity=57 time=0
note_on channel=0 note=52 velocity=68 time=0
note_on channel=0 note=60 velocity=0 time=52
note_on channel=0 note=55 velocity=61 time=0
note_on channel=0 note=55 velocity=0 time=80
note_on channel=0 note=60 velocity=61 time=0
note_on channel=0 note=60 velocity=0 time=80
note_on channel=0 note=48 velocity=0 time=0
note_on channel=0 note=40 velocity=0 time=0
note_on channel=0 note=52 velocity=0 time=0
note_on channel=0 note=62 velocity=63 time=0
note_on channel=0 note=62 velocity=0 time=71
note_on channel=0 note=65 velocity=59 time=0
note_on channel=0 note=65 velocity=0 time=80
note_on channel=0 note=62 velocity=59 time=0
note_on channel=0 note=62 velocity=0 time=80
note_on channel=0 note=60 velocity=59 time=0
note_on channel=0 note=48 velocity=53 time=0
note_on channel=0 note=38 velocity=53 time=0
note_on channel=0 note=50 velocity=63 time=0
note_on channel=0 note=60 velocity=0 time=40
note_on channel=0 note=53 velocity=59 time=0
note_on channel=0 note=53 velocity=0 time=80
note_on channel=0 note=60 velocity=59 time=0
note_on channel=0 note=60 velocity=0 time=0
note_on channel=0 note=48 velocity=0 time=0
note_on channel=0 note=38 velocity=0 time=0
note_on channel=0 note=50 velocity=0 time=0
note_on channel=0 note=63 velocity=68 time=0
note_on channel=0 note=63 velocity=0 time=66
note_on channel=0 note=66 velocity=61 time=0
note_on channel=0 note=66 velocity=0 time=80
note_on channel=0 note=63 velocity=61 time=0
note_on channel=0 note=63 velocity=0 time=80
note_on channel=0 note=60 velocity=61 time=0
note_on channel=0 note=48 velocity=59 time=0
note_on channel=0 note=39 velocity=59 time=0
note_on channel=0 note=51 velocity=70 time=0
note_on channel=0 note=60 velocity=0 time=37
note_on channel=0 note=54 velocity=61 time=0
note_on channel=0 note=54 velocity=0 time=80
note_on channel=0 note=60 velocity=61 time=0
note_on channel=0 note=60 velocity=0 time=80
note_on channel=0 note=48 velocity=0 time=0
note_on channel=0 note=39 velocity=0 time=0
note_on channel=0 note=51 velocity=0 time=0
note_on channel=0 note=64 velocity=68 time=0
note_on channel=0 note=64 velocity=0 time=69
note_on channel=0 note=67 velocity=62 time=0
note_on channel=0 note=67 velocity=0 time=80
note_on channel=0 note=64 velocity=62 time=0
note_on channel=0 note=64 velocity=0 time=80
note_on channel=0 note=60 velocity=62 time=0
note_on channel=0 note=48 velocity=60 time=0
note_on channel=0 note=40 velocity=60 time=0
note_on channel=0 note=52 velocity=71 time=0
note_on channel=0 note=60 velocity=0 time=73
note_on channel=0 note=55 velocity=62 time=0
note_on channel=0 note=55 velocity=0 time=80
note_on channel=0 note=60 velocity=62 time=0
note_on channel=0 note=60 velocity=0 time=0
note_on channel=0 note=48 velocity=0 time=0
note_on channel=0 note=40 velocity=0 time=0
note_on channel=0 note=52 velocity=0 time=0
note_on channel=0 note=62 velocity=68 time=0
note_on channel=0 note=62 velocity=0 time=66
note_on channel=0 note=65 velocity=61 time=0
note_on channel=0 note=65 velocity=0 time=80
note_on channel=0 note=62 velocity=61 time=0
note_on channel=0 note=62 velocity=0 time=80
note_on channel=0 note=59 velocity=61 time=0
note_on channel=0 note=48 velocity=60 time=0
note_on channel=0 note=38 velocity=60 time=0
note_on channel=0 note=50 velocity=71 time=0
note_on channel=0 note=59 velocity=0 time=34
note_on channel=0 note=53 velocity=61 time=0
note_on channel=0 note=53 velocity=0 time=80
note_on channel=0 note=59 velocity=61 time=0
note_on channel=0 note=59 velocity=0 time=0
note_on channel=0 note=48 velocity=0 time=0
note_on channel=0 note=38 velocity=0 time=0
note_on channel=0 note=50 velocity=0 time=0
note_on channel=0 note=60 velocity=68 time=0
note_on channel=0 note=60 velocity=0 time=0
note_on channel=0 note=64 velocity=62 time=0
note_on channel=0 note=64 velocity=0 time=0
note_on channel=0 note=60 velocity=62 time=0
note_on channel=0 note=60 velocity=0 time=0
note_on channel=0 note=52 velocity=62 time=0
note_on channel=0 note=36 velocity=63 time=0
note_on channel=0 note=48 velocity=63 time=0
note_on channel=0 note=52 velocity=0 time=0
note_on channel=0 note=64 velocity=62 time=0
note_on channel=0 note=64 velocity=0 time=0
note_on channel=0 note=52 velocity=62 time=0
note_on channel=0 note=52 velocity=0 time=0
note_on channel=0 note=48 velocity=0 time=0
note_on channel=0 note=36 velocity=0 time=0
note_on channel=0 note=40 velocity=82 time=0
note_on channel=0 note=52 velocity=70 time=71
note_on channel=0 note=40 velocity=0 time=40
note_on channel=0 note=52 velocity=0 time=40
note_on channel=0 note=64 velocity=70 time=0
note_on channel=0 note=64 velocity=0 time=80
note_on channel=0 note=40 velocity=82 time=0
note_on channel=0 note=52 velocity=71 time=80
note_on channel=0 note=40 velocity=0 time=40
note_on channel=0 note=52 velocity=0 time=40
note_on channel=0 note=64 velocity=72 time=0
note_on channel=0 note=64 velocity=0 time=0
note_on channel=0 note=33 velocity=68 time=0
note_on channel=0 note=45 velocity=80 time=0
note_on channel=0 note=57 velocity=73 time=80
note_on channel=0 note=45 velocity=0 time=40
note_on channel=0 note=33 velocity=0 time=0
note_on channel=0 note=57 velocity=0 time=40
note_on channel=0 note=69 velocity=74 time=0
note_on channel=0 note=69 velocity=0 time=80
note_on channel=0 note=35 velocity=70 time=0
note_on channel=0 note=47 velocity=83 time=0
note_on channel=0 note=59 velocity=75 time=80
note_on channel=0 note=47 velocity=0 time=40
note_on channel=0 note=35 velocity=0 time=0
note_on channel=0 note=59 velocity=0 time=40
note_on channel=0 note=71 velocity=77 time=0
note_on channel=0 note=71 velocity=0 time=0
note_on channel=0 note=36 velocity=72 time=0
note_on channel=0 note=48 velocity=85 time=0
note_on channel=0 note=60 velocity=78 time=0
note_on channel=0 note=48 velocity=0 time=40
note_on channel=0 note=36 velocity=0 time=0
note_on channel=0 note=60 velocity=0 time=20
note_on channel=0 note=72 velocity=79 time=0
note_on channel=0 note=72 velocity=0 time=40
note_on channel=0 note=38 velocity=74 time=0
note_on channel=0 note=50 velocity=89 time=0
note_on channel=0 note=62 velocity=80 time=40
note_on channel=0 note=50 velocity=0 time=20
note_on channel=0 note=38 velocity=0 time=0
note_on channel=0 note=62 velocity=0 time=0
note_on channel=0 note=74 velocity=81 time=0
note_on channel=0 note=74 velocity=0 time=0
note_on channel=0 note=76 velocity=85 time=0
note_on channel=0 note=40 velocity=80 time=0
note_on channel=0 note=52 velocity=95 time=0
note_on channel=0 note=76 velocity=0 time=9
note_on channel=0 note=64 velocity=85 time=0
note_on channel=0 note=64 velocity=0 time=80
note_on channel=0 note=76 velocity=84 time=0
note_on channel=0 note=76 velocity=0 time=80
note_on channel=0 note=64 velocity=84 time=0
note_on channel=0 note=64 velocity=0 time=80
note_on channel=0 note=76 velocity=84 time=0
note_on channel=0 note=76 velocity=0 time=80
note_on channel=0 note=64 velocity=82 time=0
note_on channel=0 note=64 velocity=0 time=0
note_on channel=0 note=52 velocity=0 time=0
note_on channel=0 note=40 velocity=0 time=0
note_on channel=0 note=40 velocity=74 time=0
note_on channel=0 note=52 velocity=88 time=0
note_on channel=0 note=64 velocity=79 time=80
note_on channel=0 note=52 velocity=0 time=40
note_on channel=0 note=40 velocity=0 time=0
note_on channel=0 note=64 velocity=0 time=40
note_on channel=0 note=76 velocity=78 time=0
note_on channel=0 note=76 velocity=0 time=80
note_on channel=0 note=38 velocity=73 time=0
note_on channel=0 note=50 velocity=86 time=0
note_on channel=0 note=62 velocity=77 time=80
note_on channel=0 note=50 velocity=0 time=40
note_on channel=0 note=38 velocity=0 time=0
note_on channel=0 note=62 velocity=0 time=40
note_on channel=0 note=74 velocity=77 time=0
note_on channel=0 note=74 velocity=0 time=0
note_on channel=0 note=36 velocity=71 time=0
note_on channel=0 note=48 velocity=84 time=0
note_on channel=0 note=60 velocity=75 time=80
note_on channel=0 note=48 velocity=0 time=40
note_on channel=0 note=36 velocity=0 time=0
note_on channel=0 note=60 velocity=0 time=40
note_on channel=0 note=72 velocity=75 time=0
note_on channel=0 note=72 velocity=0 time=80
note_on channel=0 note=35 velocity=69 time=0
note_on channel=0 note=47 velocity=82 time=0
note_on channel=0 note=59 velocity=74 time=80
note_on channel=0 note=47 velocity=0 time=40
note_on channel=0 note=35 velocity=0 time=0
note_on channel=0 note=59 velocity=0 time=40
note_on channel=0 note=71 velocity=74 time=0
note_on channel=0 note=71 velocity=0 time=20
note_on channel=0 note=36 velocity=68 time=0
note_on channel=0 note=48 velocity=80 time=0
note_on channel=0 note=60 velocity=73 time=40
note_on channel=0 note=48 velocity=0 time=20
note_on channel=0 note=36 velocity=0 time=0
note_on channel=0 note=60 velocity=0 time=0
note_on channel=0 note=72 velocity=73 time=0
note_on channel=0 note=72 velocity=0 time=20
note_on channel=0 note=33 velocity=67 time=0
note_on channel=0 note=45 velocity=79 time=0
note_on channel=0 note=57 velocity=72 time=40
note_on channel=0 note=45 velocity=0 time=20
note_on channel=0 note=33 velocity=0 time=0
note_on channel=0 note=57 velocity=0 time=0
note_on channel=0 note=69 velocity=73 time=0
note_on channel=0 note=69 velocity=0 time=0
note_on channel=0 note=64 velocity=85 time=0
note_on channel=0 note=40 velocity=92 time=0
note_on channel=0 note=64 velocity=0 time=0
note_on channel=0 note=52 velocity=77 time=0
note_on channel=0 note=52 velocity=0 time=0
note_on channel=0 note=64 velocity=77 time=0
note_on channel=0 note=64 velocity=0 time=0
note_on channel=0 note=52 velocity=77 time=0
note_on channel=0 note=52 velocity=0 time=0
note_on channel=0 note=64 velocity=77 time=0
note_on channel=0 note=64 velocity=0 time=0
note_on channel=0 note=52 velocity=77 time=0
note_on channel=0 note=52 velocity=0 time=0
note_on channel=0 note=40 velocity=0 time=0
note_on channel=0 note=40 velocity=69 time=0
note_on channel=0 note=52 velocity=82 time=0
note_on channel=0 note=64 velocity=70 time=69
note_on channel=0 note=52 velocity=0 time=40
note_on channel=0 note=40 velocity=0 time=0
note_on channel=0 note=64 velocity=0 time=40
note_on channel=0 note=76 velocity=70 time=0
note_on channel=0 note=76 velocity=0 time=80
note_on channel=0 note=40 velocity=69 time=0
note_on channel=0 note=52 velocity=82 time=0
note_on channel=0 note=64 velocity=71 time=80
note_on channel=0 note=52 velocity=0 time=40
note_on channel=0 note=40 velocity=0 time=0
note_on channel=0 note=64 velocity=0 time=40
note_on channel=0 note=76 velocity=72 time=0
note_on channel=0 note=76 velocity=0 time=0
note_on channel=0 note=45 velocity=68 time=0
note_on channel=0 note=57 velocity=80 time=0
note_on channel=0 note=69 velocity=73 time=80
note_on channel=0 note=57 velocity=0 time=40
note_on channel=0 note=45 velocity=0 time=0
note_on channel=0 note=69 velocity=0 time=40
note_on channel=0 note=81 velocity=74 time=0
note_on channel=0 note=81 velocity=0 time=80
note_on channel=0 note=47 velocity=70 time=0
note_on channel=0 note=59 velocity=83 time=0
note_on channel=0 note=71 velocity=75 time=80
note_on channel=0 note=59 velocity=0 time=40
note_on channel=0 note=47 velocity=0 time=0
note_on channel=0 note=71 velocity=0 time=40
note_on channel=0 note=83 velocity=77 time=0
note_on channel=0 note=83 velocity=0 time=0
note_on channel=0 note=48 velocity=72 time=0
note_on channel=0 note=60 velocity=85 time=0
note_on channel=0 note=72 velocity=78 time=0
note_on channel=0 note=60 velocity=0 time=40
note_on channel=0 note=48 velocity=0 time=0
note_on channel=0 note=72 velocity=0 time=20
note_on channel=0 note=84 velocity=79 time=0
note_on channel=0 note=84 velocity=0 time=40
note_on channel=0 note=50 velocity=74 time=0
note_on channel=0 note=62 velocity=89 time=0
note_on channel=0 note=74 velocity=80 time=40
note_on channel=0 note=62 velocity=0 time=20
note_on channel=0 note=50 velocity=0 time=0
note_on channel=0 note=74 velocity=0 time=0
note_on channel=0 note=86 velocity=81 time=0
note_on channel=0 note=86 velocity=0 time=0
note_on channel=0 note=88 velocity=85 time=0
note_on channel=0 note=52 velocity=80 time=0
note_on channel=0 note=64 velocity=95 time=0
note_on channel=0 note=88 velocity=0 time=37
note_on channel=0 note=76 velocity=85 time=0
note_on channel=0 note=76 velocity=0 time=80
note_on channel=0 note=88 velocity=84 time=0
note_on channel=0 note=88 velocity=0 time=80
note_on channel=0 note=76 velocity=84 time=0
note_on channel=0 note=76 velocity=0 time=80
note_on channel=0 note=88 velocity=84 time=0
note_on channel=0 note=88 velocity=0 time=80
note_on channel=0 note=76 velocity=82 time=0
note_on channel=0 note=76 velocity=0 time=0
note_on channel=0 note=64 velocity=0 time=0
note_on channel=0 note=52 velocity=0 time=0
note_on channel=0 note=52 velocity=74 time=0
note_on channel=0 note=64 velocity=88 time=0
note_on channel=0 note=76 velocity=79 time=73
note_on channel=0 note=64 velocity=0 time=40
note_on channel=0 note=52 velocity=0 time=0
note_on channel=0 note=76 velocity=0 time=40
note_on channel=0 note=88 velocity=78 time=0
note_on channel=0 note=88 velocity=0 time=80
note_on channel=0 note=50 velocity=73 time=0
note_on channel=0 note=62 velocity=86 time=0
note_on channel=0 note=74 velocity=77 time=80
note_on channel=0 note=62 velocity=0 time=40
note_on channel=0 note=50 velocity=0 time=0
note_on channel=0 note=74 velocity=0 time=40
note_on channel=0 note=86 velocity=77 time=0
note_on channel=0 note=86 velocity=0 time=0
note_on channel=0 note=48 velocity=71 time=0
note_on channel=0 note=60 velocity=84 time=0
note_on channel=0 note=72 velocity=75 time=80
note_on channel=0 note=60 velocity=0 time=40
note_on channel=0 note=48 velocity=0 time=0
note_on channel=0 note=72 velocity=0 time=40
note_on channel=0 note=84 velocity=75 time=0
note_on channel=0 note=84 velocity=0 time=80
note_on channel=0 note=47 velocity=69 time=0
note_on channel=0 note=59 velocity=82 time=0
note_on channel=0 note=71 velocity=74 time=80
note_on channel=0 note=59 velocity=0 time=40
note_on channel=0 note=47 velocity=0 time=0
note_on channel=0 note=71 velocity=0 time=40
note_on channel=0 note=83 velocity=74 time=0
note_on channel=0 note=83 velocity=0 time=20
note_on channel=0 note=48 velocity=68 time=0
note_on channel=0 note=60 velocity=80 time=0
note_on channel=0 note=72 velocity=73 time=40
note_on channel=0 note=60 velocity=0 time=20
note_on channel=0 note=48 velocity=0 time=0
note_on channel=0 note=72 velocity=0 time=0
note_on channel=0 note=84 velocity=73 time=0
note_on channel=0 note=84 velocity=0 time=20
note_on channel=0 note=45 velocity=67 time=0
note_on channel=0 note=57 velocity=79 time=0
note_on channel=0 note=69 velocity=72 time=40
note_on channel=0 note=57 velocity=0 time=20
note_on channel=0 note=45 velocity=0 time=0
note_on channel=0 note=69 velocity=0 time=0
note_on channel=0 note=81 velocity=73 time=0
note_on channel=0 note=81 velocity=0 time=20
note_on channel=0 note=76 velocity=82 time=0
note_on channel=0 note=40 velocity=70 time=0
note_on channel=0 note=52 velocity=82 time=0
note_on channel=0 note=76 velocity=0 time=30
note_on channel=0 note=64 velocity=78 time=0
note_on channel=0 note=64 velocity=0 time=80
note_on channel=0 note=76 velocity=78 time=0
note_on channel=0 note=76 velocity=0 time=80
note_on channel=0 note=64 velocity=78 time=0
note_on channel=0 note=64 velocity=0 time=80
note_on channel=0 note=76 velocity=78 time=0
note_on channel=0 note=76 velocity=0 time=80
note_on channel=0 note=64 velocity=78 time=0
note_on channel=0 note=64 velocity=0 time=0
note_on channel=0 note=52 velocity=0 time=0
note_on channel=0 note=40 velocity=0 time=0
note_on channel=0 note=81 velocity=80 time=0
note_on channel=0 note=41 velocity=56 time=0
note_on channel=0 note=45 velocity=67 time=0
note_on channel=0 note=53 velocity=79 time=0
note_on channel=0 note=81 velocity=0 time=76
note_on channel=0 note=69 velocity=75 time=0
note_on channel=0 note=41 velocity=0 time=39
note_on channel=0 note=53 velocity=0 time=0
note_on channel=0 note=45 velocity=0 time=0
note_on channel=0 note=69 velocity=0 time=40
note_on channel=0 note=81 velocity=75 time=0
note_on channel=0 note=81 velocity=0 time=80
note_on channel=0 note=69 velocity=75 time=0
note_on channel=0 note=41 velocity=53 time=0
note_on channel=0 note=45 velocity=63 time=0
note_on channel=0 note=53 velocity=75 time=0
note_on channel=0 note=69 velocity=0 time=80
note_on channel=0 note=81 velocity=75 time=0
note_on channel=0 note=41 velocity=0 time=40
note_on channel=0 note=53 velocity=0 time=0
note_on channel=0 note=45 velocity=0 time=0
note_on channel=0 note=81 velocity=0 time=40
note_on channel=0 note=69 velocity=75 time=0
note_on channel=0 note=69 velocity=0 time=80
note_on channel=0 note=81 velocity=82 time=0
note_on channel=0 note=40 velocity=56 time=0
note_on channel=0 note=45 velocity=67 time=0
note_on channel=0 note=52 velocity=79 time=0
note_on channel=0 note=81 velocity=0 time=27
note_on channel=0 note=69 velocity=75 time=0
note_on channel=0 note=40 velocity=0 time=40
note_on channel=0 note=52 velocity=0 time=0
note_on channel=0 note=45 velocity=0 time=0
note_on channel=0 note=69 velocity=0 time=40
note_on channel=0 note=81 velocity=75 time=0
note_on channel=0 note=81 velocity=0 time=80
note_on channel=0 note=69 velocity=75 time=0
note_on channel=0 note=40 velocity=56 time=0
note_on channel=0 note=45 velocity=67 time=0
note_on channel=0 note=52 velocity=79 time=0
note_on channel=0 note=69 velocity=0 time=80
note_on channel=0 note=81 velocity=75 time=0
note_on channel=0 note=40 velocity=0 time=40
note_on channel=0 note=52 velocity=0 time=0
note_on channel=0 note=45 velocity=0 time=0
note_on channel=0 note=81 velocity=0 time=40
note_on channel=0 note=69 velocity=75 time=0
note_on channel=0 note=69 velocity=0 time=0
note_on channel=0 note=81 velocity=82 time=0
note_on channel=0 note=38 velocity=56 time=0
note_on channel=0 note=45 velocity=66 time=0
note_on channel=0 note=50 velocity=78 time=0
note_on channel=0 note=81 velocity=0 time=13
note_on channel=0 note=69 velocity=75 time=0
note_on channel=0 note=38 velocity=0 time=40
note_on channel=0 note=50 velocity=0 time=0
note_on channel=0 note=45 velocity=0 time=0
note_on channel=0 note=69 velocity=0 time=40
note_on channel=0 note=81 velocity=75 time=0
note_on channel=0 note=81 velocity=0 time=80
note_on channel=0 note=69 velocity=75 time=0
note_on channel=0 note=38 velocity=56 time=0
note_on channel=0 note=45 velocity=66 time=0
note_on channel=0 note=50 velocity=78 time=0
note_on channel=0 note=69 velocity=0 time=80
note_on channel=0 note=81 velocity=75 time=0
note_on channel=0 note=38 velocity=0 time=40
note_on channel=0 note=50 velocity=0 time=0
note_on channel=0 note=45 velocity=0 time=0
note_on channel=0 note=81 velocity=0 time=40
note_on channel=0 note=69 velocity=75 time=0
note_on channel=0 note=69 velocity=0 time=80
note_on channel=0 note=81 velocity=81 time=0
note_on channel=0 note=36 velocity=56 time=0
note_on channel=0 note=45 velocity=66 time=0
note_on channel=0 note=48 velocity=78 time=0
note_on channel=0 note=81 velocity=0 time=37
note_on channel=0 note=69 velocity=75 time=0
note_on channel=0 note=36 velocity=0 time=40
note_on channel=0 note=48 velocity=0 time=0
note_on channel=0 note=45 velocity=0 time=0
note_on channel=0 note=69 velocity=0 time=40
note_on channel=0 note=81 velocity=75 time=0
note_on channel=0 note=81 velocity=0 time=80
note_on channel=0 note=69 velocity=75 time=0
note_on channel=0 note=36 velocity=56 time=0
note_on channel=0 note=45 velocity=67 time=0
note_on channel=0 note=48 velocity=79 time=0
note_on channel=0 note=69 velocity=0 time=0
note_on channel=0 note=81 velocity=75 time=0
note_on channel=0 note=36 velocity=0 time=40
note_on channel=0 note=48 velocity=0 time=0
note_on channel=0 note=45 velocity=0 time=0
note_on channel=0 note=81 velocity=0 time=40
note_on channel=0 note=69 velocity=75 time=0
note_on channel=0 note=69 velocity=0 time=0
note_on channel=0 note=77 velocity=81 time=0
note_on channel=0 note=38 velocity=53 time=0
note_on channel=0 note=45 velocity=63 time=0
note_on channel=0 note=50 velocity=75 time=0
note_on channel=0 note=77 velocity=0 time=64
note_on channel=0 note=79 velocity=77 time=0
note_on channel=0 note=38 velocity=0 time=40
note_on channel=0 note=50 velocity=0 time=0
note_on channel=0 note=45 velocity=0 time=0
note_on channel=0 note=79 velocity=0 time=40
note_on channel=0 note=81 velocity=77 time=0
note_on channel=0 note=81 velocity=0 time=80
note_on channel=0 note=77 velocity=79 time=0
note_on channel=0 note=38 velocity=52 time=0
note_on channel=0 note=45 velocity=62 time=0
note_on channel=0 note=50 velocity=74 time=0
note_on channel=0 note=77 velocity=0 time=80
note_on channel=0 note=76 velocity=75 time=0
note_on channel=0 note=38 velocity=0 time=40
note_on channel=0 note=50 velocity=0 time=0
note_on channel=0 note=45 velocity=0 time=0
note_on channel=0 note=76 velocity=0 time=40
note_on channel=0 note=74 velocity=75 time=0
note_on channel=0 note=74 velocity=0 time=80
note_on channel=0 note=72 velocity=80 time=0
note_on channel=0 note=40 velocity=56 time=0
note_on channel=0 note=45 velocity=67 time=0
note_on channel=0 note=52 velocity=79 time=0
note_on channel=0 note=72 velocity=0 time=60
note_on channel=0 note=74 velocity=74 time=0
note_on channel=0 note=40 velocity=0 time=40
note_on channel=0 note=52 velocity=0 time=0
note_on channel=0 note=45 velocity=0 time=0
note_on channel=0 note=74 velocity=0 time=40
note_on channel=0 note=76 velocity=74 time=0
note_on channel=0 note=76 velocity=0 time=80
note_on channel=0 note=72 velocity=78 time=0
note_on channel=0 note=40 velocity=64 time=0
note_on channel=0 note=52 velocity=77 time=0
note_on channel=0 note=72 velocity=0 time=80
note_on channel=0 note=71 velocity=71 time=0
note_on channel=0 note=52 velocity=0 time=40
note_on channel=0 note=40 velocity=0 time=0
note_on channel=0 note=71 velocity=0 time=40
note_on channel=0 note=69 velocity=71 time=0
note_on channel=0 note=69 velocity=0 time=0
note_on channel=0 note=71 velocity=81 time=0
note_on channel=0 note=40 velocity=62 time=0
note_on channel=0 note=52 velocity=74 time=0
note_on channel=0 note=71 velocity=0 time=80
note_on channel=0 note=72 velocity=73 time=0
note_on channel=0 note=52 velocity=0 time=40
note_on channel=0 note=40 velocity=0 time=0
note_on channel=0 note=72 velocity=0 time=40
note_on channel=0 note=74 velocity=73 time=0
note_on channel=0 note=74 velocity=0 time=80
note_on channel=0 note=71 velocity=79 time=0
note_on channel=0 note=40 velocity=62 time=0
note_on channel=0 note=52 velocity=74 time=0
note_on channel=0 note=71 velocity=0 time=0
note_on channel=0 note=69 velocity=75 time=0
note_on channel=0 note=52 velocity=0 time=40
note_on channel=0 note=40 velocity=0 time=0
note_on channel=0 note=69 velocity=0 time=40
note_on channel=0 note=68 velocity=75 time=0
note_on channel=0 note=68 velocity=0 time=0
note_on channel=0 note=69 velocity=79 time=0
note_on channel=0 note=36 velocity=80 time=0
note_on channel=0 note=69 velocity=0 time=48
note_on channel=0 note=57 velocity=75 time=0
note_on channel=0 note=36 velocity=0 time=40
note_on channel=0 note=45 velocity=66 time=0
note_on channel=0 note=57 velocity=0 time=40
note_on channel=0 note=69 velocity=75 time=0
note_on channel=0 note=69 velocity=0 time=80
note_on channel=0 note=45 velocity=0 time=0
note_on channel=0 note=57 velocity=75 time=0
note_on channel=0 note=44 velocity=66 time=0
note_on channel=0 note=57 velocity=0 time=80
note_on channel=0 note=69 velocity=75 time=0
note_on channel=0 note=44 velocity=0 time=40
note_on channel=0 note=45 velocity=66 time=0
note_on channel=0 note=69 velocity=0 time=40
note_on channel=0 note=57 velocity=75 time=0
note_on channel=0 note=57 velocity=0 time=0
note_on channel=0 note=45 velocity=0 time=0
note_on channel=0 note=69 velocity=80 time=0
note_on channel=0 note=41 velocity=84 time=0
note_on channel=0 note=69 velocity=0 time=23
note_on channel=0 note=57 velocity=75 time=0
note_on channel=0 note=41 velocity=0 time=40
note_on channel=0 note=45 velocity=64 time=0
note_on channel=0 note=57 velocity=0 time=40
note_on channel=0 note=69 velocity=75 time=0
note_on channel=0 note=69 velocity=0 time=80
note_on channel=0 note=45 velocity=0 time=0
note_on channel=0 note=57 velocity=75 time=0
note_on channel=0 note=44 velocity=64 time=0
note_on channel=0 note=57 velocity=0 time=80
note_on channel=0 note=69 velocity=75 time=0
note_on channel=0 note=44 velocity=0 time=40
note_on channel=0 note=45 velocity=64 time=0
note_on channel=0 note=69 velocity=0 time=40
note_on channel=0 note=57 velocity=75 time=0
note_on channel=0 note=57 velocity=0 time=80
note_on channel=0 note=45 velocity=0 time=0
note_on channel=0 note=69 velocity=82 time=0
note_on channel=0 note=40 velocity=84 time=0
note_on channel=0 note=69 velocity=0 time=44
note_on channel=0 note=57 velocity=75 time=0
note_on channel=0 note=40 velocity=0 time=39
note_on channel=0 note=45 velocity=67 time=0
note_on channel=0 note=57 velocity=0 time=40
note_on channel=0 note=69 velocity=75 time=0
note_on channel=0 note=69 velocity=0 time=80
note_on channel=0 note=45 velocity=0 time=0
note_on channel=0 note=57 velocity=75 time=0
note_on channel=0 note=44 velocity=67 time=0
note_on channel=0 note=57 velocity=0 time=80
note_on channel=0 note=69 velocity=75 time=0
note_on channel=0 note=44 velocity=0 time=40
note_on channel=0 note=45 velocity=67 time=0
note_on channel=0 note=69 velocity=0 time=40
note_on channel=0 note=57 velocity=75 time=0
note_on channel=0 note=57 velocity=0 time=0
note_on channel=0 note=45 velocity=0 time=0
note_on channel=0 note=69 velocity=82 time=0
note_on channel=0 note=38 velocity=82 time=0
note_on channel=0 note=69 velocity=0 time=30
note_on channel=0 note=57 velocity=75 time=0
note_on channel=0 note=38 velocity=0 time=40
note_on channel=0 note=45 velocity=66 time=0
note_on channel=0 note=57 velocity=0 time=40
note_on channel=0 note=69 velocity=75 time=0
note_on channel=0 note=69 velocity=0 time=80
note_on channel=0 note=45 velocity=0 time=0
note_on channel=0 note=57 velocity=75 time=0
note_on channel=0 note=44 velocity=66 time=0
note_on channel=0 note=57 velocity=0 time=80
note_on channel=0 note=69 velocity=75 time=0
note_on channel=0 note=44 velocity=0 time=40
note_on channel=0 note=45 velocity=66 time=0
note_on channel=0 note=69 velocity=0 time=40
note_on channel=0 note=57 velocity=75 time=0
note_on channel=0 note=57 velocity=0 time=80
note_on channel=0 note=45 velocity=0 time=0
note_on channel=0 note=69 velocity=81 time=0
note_on channel=0 note=36 velocity=82 time=0
note_on channel=0 note=69 velocity=0 time=48
note_on channel=0 note=57 velocity=75 time=0
note_on channel=0 note=36 velocity=0 time=40
note_on channel=0 note=45 velocity=63 time=0
note_on channel=0 note=57 velocity=0 time=40
note_on channel=0 note=69 velocity=75 time=0
note_on channel=0 note=69 velocity=0 time=80
note_on channel=0 note=45 velocity=0 time=0
note_on channel=0 note=57 velocity=75 time=0
note_on channel=0 note=44 velocity=66 time=0
note_on channel=0 note=57 velocity=0 time=0
note_on channel=0 note=69 velocity=75 time=0
note_on channel=0 note=44 velocity=0 time=40
note_on channel=0 note=45 velocity=67 time=0
note_on channel=0 note=69 velocity=0 time=40
note_on channel=0 note=57 velocity=75 time=0
note_on channel=0 note=57 velocity=0 time=0
note_on channel=0 note=45 velocity=0 time=0
note_on channel=0 note=65 velocity=81 time=0
note_on channel=0 note=38 velocity=85 time=0
note_on channel=0 note=65 velocity=0 time=67
note_on channel=0 note=67 velocity=77 time=0
note_on channel=0 note=38 velocity=0 time=40
note_on channel=0 note=45 velocity=66 time=0
note_on channel=0 note=67 velocity=0 time=40
note_on channel=0 note=69 velocity=77 time=0
note_on channel=0 note=69 velocity=0 time=80
note_on channel=0 note=45 velocity=0 time=0
note_on channel=0 note=65 velocity=79 time=0
note_on channel=0 note=38 velocity=66 time=0
note_on channel=0 note=65 velocity=0 time=80
note_on channel=0 note=64 velocity=75 time=0
note_on channel=0 note=38 velocity=0 time=40
note_on channel=0 note=45 velocity=66 time=0
note_on channel=0 note=64 velocity=0 time=40
note_on channel=0 note=62 velocity=75 time=0
note_on channel=0 note=62 velocity=0 time=80
note_on channel=0 note=45 velocity=0 time=0
note_on channel=0 note=60 velocity=80 time=0
note_on channel=0 note=40 velocity=85 time=0
note_on channel=0 note=60 velocity=0 time=60
note_on channel=0 note=62 velocity=74 time=0
note_on channel=0 note=40 velocity=0 time=40
note_on channel=0 note=45 velocity=67 time=0
note_on channel=0 note=62 velocity=0 time=40
note_on channel=0 note=64 velocity=74 time=0
note_on channel=0 note=64 velocity=0 time=80
note_on channel=0 note=45 velocity=0 time=0
note_on channel=0 note=60 velocity=78 time=0
note_on channel=0 note=40 velocity=74 time=0
note_on channel=0 note=60 velocity=0 time=80
note_on channel=0 note=59 velocity=71 time=0
note_on channel=0 note=40 velocity=0 time=40
note_on channel=0 note=52 velocity=67 time=0
note_on channel=0 note=59 velocity=0 time=40
note_on channel=0 note=57 velocity=71 time=0
note_on channel=0 note=57 velocity=0 time=0
note_on channel=0 note=52 velocity=0 time=0
note_on channel=0 note=59 velocity=81 time=0
note_on channel=0 note=40 velocity=83 time=0
note_on channel=0 note=59 velocity=0 time=80
note_on channel=0 note=60 velocity=73 time=0
note_on channel=0 note=40 velocity=0 time=40
note_on channel=0 note=52 velocity=66 time=0
note_on channel=0 note=60 velocity=0 time=40
note_on channel=0 note=62 velocity=73 time=0
note_on channel=0 note=62 velocity=0 time=80
note_on channel=0 note=52 velocity=0 time=0
note_on channel=0 note=59 velocity=79 time=0
note_on channel=0 note=40 velocity=69 time=0
note_on channel=0 note=59 velocity=0 time=0
note_on channel=0 note=57 velocity=75 time=0
note_on channel=0 note=40 velocity=0 time=40
note_on channel=0 note=52 velocity=63 time=0
note_on channel=0 note=57 velocity=0 time=40
note_on channel=0 note=56 velocity=75 time=0
note_on channel=0 note=56 velocity=0 time=0
note_on channel=0 note=52 velocity=0 time=0
note_on channel=0 note=57 velocity=79 time=0
note_on channel=0 note=45 velocity=70 time=0
note_on channel=0 note=45 velocity=0 time=120
note_on channel=0 note=52 velocity=67 time=0
note_on channel=0 note=52 velocity=0 time=120
note_on channel=0 note=57 velocity=0 time=0
note_on channel=0 note=48 velocity=68 time=0
note_on channel=0 note=48 velocity=0 time=120
note_on channel=0 note=52 velocity=68 time=0
note_on channel=0 note=52 velocity=0 time=0
note_on channel=0 note=88 velocity=95 time=0
note_on channel=0 note=76 velocity=80 time=0
note_on channel=0 note=45 velocity=59 time=0
note_on channel=0 note=47 velocity=70 time=0
note_on channel=0 note=47 velocity=0 time=120
note_on channel=0 note=88 velocity=0 time=0
note_on channel=0 note=76 velocity=0 time=0
note_on channel=0 note=52 velocity=66 time=0
note_on channel=0 note=52 velocity=0 time=120
note_on channel=0 note=45 velocity=0 time=0
note_on channel=0 note=88 velocity=95 time=0
note_on channel=0 note=76 velocity=80 time=0
note_on channel=0 note=45 velocity=55 time=0
note_on channel=0 note=50 velocity=66 time=0
note_on channel=0 note=50 velocity=0 time=120
note_on channel=0 note=88 velocity=0 time=0
note_on channel=0 note=76 velocity=0 time=0
note_on channel=0 note=52 velocity=66 time=0
note_on channel=0 note=52 velocity=0 time=0
note_on channel=0 note=45 velocity=0 time=0
note_on channel=0 note=76 velocity=91 time=0
note_on channel=0 note=64 velocity=77 time=0
note_on channel=0 note=45 velocity=59 time=0
note_on channel=0 note=48 velocity=70 time=0
note_on channel=0 note=48 velocity=0 time=120
note_on channel=0 note=76 velocity=0 time=0
note_on channel=0 note=64 velocity=0 time=0
note_on channel=0 note=52 velocity=63 time=0
note_on channel=0 note=52 velocity=0 time=120
note_on channel=0 note=45 velocity=0 time=0
note_on channel=0 note=76 velocity=91 time=0
note_on channel=0 note=64 velocity=77 time=0
note_on channel=0 note=45 velocity=53 time=0
note_on channel=0 note=48 velocity=63 time=0
note_on channel=0 note=48 velocity=0 time=120
note_on channel=0 note=76 velocity=0 time=0
note_on channel=0 note=64 velocity=0 time=0
note_on channel=0 note=52 velocity=63 time=0
note_on channel=0 note=52 velocity=0 time=0
note_on channel=0 note=45 velocity=0 time=0
note_on channel=0 note=64 velocity=79 time=0
note_on channel=0 note=76 velocity=93 time=0
note_on channel=0 note=45 velocity=59 time=0
note_on channel=0 note=47 velocity=70 time=0
note_on channel=0 note=47 velocity=0 time=120
note_on channel=0 note=64 velocity=0 time=0
note_on channel=0 note=76 velocity=0 time=0
note_on channel=0 note=52 velocity=66 time=0
note_on channel=0 note=52 velocity=0 time=120
note_on channel=0 note=45 velocity=0 time=0
note_on channel=0 note=68 velocity=82 time=0
note_on channel=0 note=80 velocity=97 time=0
note_on channel=0 note=45 velocity=55 time=0
note_on channel=0 note=50 velocity=66 time=0
note_on channel=0 note=50 velocity=0 time=120
note_on channel=0 note=68 velocity=0 time=0
note_on channel=0 note=80 velocity=0 time=0
note_on channel=0 note=52 velocity=66 time=0
note_on channel=0 note=52 velocity=0 time=0
note_on channel=0 note=45 velocity=0 time=0
note_on channel=0 note=69 velocity=85 time=0
note_on channel=0 note=81 velocity=100 time=0
note_on channel=0 note=45 velocity=59 time=0
note_on channel=0 note=48 velocity=70 time=0
note_on channel=0 note=48 velocity=0 time=74
note_on channel=0 note=57 velocity=63 time=0
note_on channel=0 note=57 velocity=0 time=120
note_on channel=0 note=45 velocity=0 time=0
note_on channel=0 note=52 velocity=63 time=0
note_on channel=0 note=52 velocity=0 time=120
note_on channel=0 note=57 velocity=63 time=0
note_on channel=0 note=57 velocity=0 time=0
note_on channel=0 note=81 velocity=0 time=0
note_on channel=0 note=69 velocity=0 time=0
note_on channel=0 note=83 velocity=58 time=0
note_on channel=0 note=45 velocity=36 time=0
note_on channel=0 note=50 velocity=43 time=0
note_on channel=0 note=50 velocity=0 time=114
note_on channel=0 note=83 velocity=0 time=0
note_on channel=0 note=86 velocity=53 time=0
note_on channel=0 note=56 velocity=37 time=0
note_on channel=0 note=56 velocity=0 time=120
note_on channel=0 note=86 velocity=0 time=0
note_on channel=0 note=45 velocity=0 time=0
note_on channel=0 note=84 velocity=53 time=0
note_on channel=0 note=52 velocity=37 time=0
note_on channel=0 note=52 velocity=0 time=120
note_on channel=0 note=84 velocity=0 time=0
note_on channel=0 note=83 velocity=53 time=0
note_on channel=0 note=56 velocity=37 time=0
note_on channel=0 note=56 velocity=0 time=120
note_on channel=0 note=83 velocity=0 time=0
note_on channel=0 note=84 velocity=56 time=0
note_on channel=0 note=45 velocity=36 time=0
note_on channel=0 note=48 velocity=44 time=0
note_on channel=0 note=48 velocity=0 time=120
note_on channel=0 note=84 velocity=0 time=0
note_on channel=0 note=88 velocity=53 time=0
note_on channel=0 note=57 velocity=38 time=0
note_on channel=0 note=57 velocity=0 time=120
note_on channel=0 note=88 velocity=0 time=0
note_on channel=0 note=45 velocity=0 time=0
note_on channel=0 note=86 velocity=53 time=0
note_on channel=0 note=52 velocity=38 time=0
note_on channel=0 note=52 velocity=0 time=120
note_on channel=0 note=86 velocity=0 time=0
note_on channel=0 note=84 velocity=53 time=0
note_on channel=0 note=57 velocity=38 time=0
note_on channel=0 note=57 velocity=0 time=0
note_on channel=0 note=84 velocity=0 time=0
note_on channel=0 note=83 velocity=58 time=0
note_on channel=0 note=45 velocity=36 time=0
note_on channel=0 note=50 velocity=44 time=0
note_on channel=0 note=50 velocity=0 time=0
note_on channel=0 note=83 velocity=0 time=0
note_on channel=0 note=86 velocity=53 time=0
note_on channel=0 note=56 velocity=38 time=0
note_on channel=0 note=56 velocity=0 time=40
note_on channel=0 note=86 velocity=0 time=0
note_on channel=0 note=45 velocity=0 time=0
note_on channel=0 note=84 velocity=53 time=0
note_on channel=0 note=52 velocity=38 time=0
note_on channel=0 note=52 velocity=0 time=0
note_on channel=0 note=84 velocity=0 time=0
note_on channel=0 note=83 velocity=53 time=0
note_on channel=0 note=56 velocity=38 time=0
note_on channel=0 note=56 velocity=0 time=0
note_on channel=0 note=83 velocity=0 time=0
note_on channel=0 note=81 velocity=52 time=0
note_on channel=0 note=45 velocity=36 time=0
note_on channel=0 note=48 velocity=44 time=0
note_on channel=0 note=48 velocity=0 time=63
note_on channel=0 note=57 velocity=37 time=0
note_on channel=0 note=57 velocity=0 time=120
note_on channel=0 note=45 velocity=0 time=0
note_on channel=0 note=52 velocity=37 time=0
note_on channel=0 note=52 velocity=0 time=120
note_on channel=0 note=57 velocity=37 time=0
note_on channel=0 note=57 velocity=0 time=120
note_on channel=0 note=81 velocity=0 time=0
note_on channel=0 note=88 velocity=95 time=0
note_on channel=0 note=76 velocity=80 time=0
note_on channel=0 note=45 velocity=59 time=0
note_on channel=0 note=47 velocity=70 time=0
note_on channel=0 note=47 velocity=0 time=99
note_on channel=0 note=88 velocity=0 time=0
note_on channel=0 note=76 velocity=0 time=0
note_on channel=0 note=52 velocity=66 time=0
note_on channel=0 note=52 velocity=0 time=120
note_on channel=0 note=45 velocity=0 time=0
note_on channel=0 note=88 velocity=95 time=0
note_on channel=0 note=76 velocity=80 time=0
note_on channel=0 note=45 velocity=55 time=0
note_on channel=0 note=50 velocity=66 time=0
note_on channel=0 note=50 velocity=0 time=120
note_on channel=0 note=88 velocity=0 time=0
note_on channel=0 note=76 velocity=0 time=0
note_on channel=0 note=52 velocity=66 time=0
note_on channel=0 note=52 velocity=0 time=120
note_on channel=0 note=45 velocity=0 time=0
note_on channel=0 note=76 velocity=91 time=0
note_on channel=0 note=64 velocity=77 time=0
note_on channel=0 note=45 velocity=59 time=0
note_on channel=0 note=48 velocity=70 time=0
note_on channel=0 note=48 velocity=0 time=106
note_on channel=0 note=76 velocity=0 time=0
note_on channel=0 note=64 velocity=0 time=0
note_on channel=0 note=52 velocity=63 time=0
note_on channel=0 note=52 velocity=0 time=120
note_on channel=0 note=45 velocity=0 time=0
note_on channel=0 note=76 velocity=91 time=0
note_on channel=0 note=64 velocity=77 time=0
note_on channel=0 note=45 velocity=53 time=0
note_on channel=0 note=48 velocity=63 time=0
note_on channel=0 note=48 velocity=0 time=120
note_on channel=0 note=76 velocity=0 time=0
note_on channel=0 note=64 velocity=0 time=0
note_on channel=0 note=52 velocity=63 time=0
note_on channel=0 note=52 velocity=0 time=120
note_on channel=0 note=45 velocity=0 time=0
note_on channel=0 note=64 velocity=79 time=0
note_on channel=0 note=76 velocity=93 time=0
note_on channel=0 note=45 velocity=59 time=0
note_on channel=0 note=47 velocity=70 time=0
note_on channel=0 note=47 velocity=0 time=106
note_on channel=0 note=64 velocity=0 time=0
note_on channel=0 note=76 velocity=0 time=0
note_on channel=0 note=52 velocity=66 time=0
note_on channel=0 note=52 velocity=0 time=120
note_on channel=0 note=45 velocity=0 time=0
note_on channel=0 note=68 velocity=82 time=0
note_on channel=0 note=80 velocity=97 time=0
note_on channel=0 note=45 velocity=55 time=0
note_on channel=0 note=50 velocity=66 time=0
note_on channel=0 note=50 velocity=0 time=120
note_on channel=0 note=68 velocity=0 time=0
note_on channel=0 note=80 velocity=0 time=0
note_on channel=0 note=52 velocity=66 time=0
note_on channel=0 note=52 velocity=0 time=120
note_on channel=0 note=45 velocity=0 time=0
note_on channel=0 note=69 velocity=85 time=0
note_on channel=0 note=81 velocity=100 time=0
note_on channel=0 note=45 velocity=59 time=0
note_on channel=0 note=48 velocity=70 time=0
note_on channel=0 note=48 velocity=0 time=74
note_on channel=0 note=57 velocity=63 time=0
note_on channel=0 note=57 velocity=0 time=120
note_on channel=0 note=45 velocity=0 time=0
note_on channel=0 note=52 velocity=63 time=0
note_on channel=0 note=52 velocity=0 time=120
note_on channel=0 note=57 velocity=63 time=0
note_on channel=0 note=57 velocity=0 time=0
note_on channel=0 note=81 velocity=0 time=0
note_on channel=0 note=69 velocity=0 time=0
note_on channel=0 note=83 velocity=58 time=0
note_on channel=0 note=50 velocity=43 time=0
note_on channel=0 note=45 velocity=36 time=0
note_on channel=0 note=50 velocity=0 time=97
note_on channel=0 note=83 velocity=0 time=0
note_on channel=0 note=86 velocity=53 time=0
note_on channel=0 note=56 velocity=37 time=0
note_on channel=0 note=56 velocity=0 time=120
note_on channel=0 note=86 velocity=0 time=0
note_on channel=0 note=45 velocity=0 time=0
note_on channel=0 note=84 velocity=53 time=0
note_on channel=0 note=52 velocity=37 time=0
note_on channel=0 note=52 velocity=0 time=120
note_on channel=0 note=84 velocity=0 time=0
note_on channel=0 note=83 velocity=52 time=0
note_on channel=0 note=56 velocity=37 time=0
note_on channel=0 note=56 velocity=0 time=120
note_on channel=0 note=83 velocity=0 time=0
note_on channel=0 note=84 velocity=55 time=0
note_on channel=0 note=48 velocity=43 time=0
note_on channel=0 note=45 velocity=35 time=0
note_on channel=0 note=48 velocity=0 time=120
note_on channel=0 note=84 velocity=0 time=0
note_on channel=0 note=88 velocity=52 time=0
note_on channel=0 note=57 velocity=37 time=0
note_on channel=0 note=57 velocity=0 time=120
note_on channel=0 note=88 velocity=0 time=0
note_on channel=0 note=45 velocity=0 time=0
note_on channel=0 note=86 velocity=51 time=0
note_on channel=0 note=52 velocity=37 time=0
note_on channel=0 note=52 velocity=0 time=120
note_on channel=0 note=86 velocity=0 time=0
note_on channel=0 note=84 velocity=51 time=0
note_on channel=0 note=57 velocity=37 time=0
note_on channel=0 note=57 velocity=0 time=40
note_on channel=0 note=84 velocity=0 time=0
note_on channel=0 note=83 velocity=56 time=0
note_on channel=0 note=50 velocity=43 time=0
note_on channel=0 note=45 velocity=35 time=0
note_on channel=0 note=50 velocity=0 time=0
note_on channel=0 note=83 velocity=0 time=0
note_on channel=0 note=86 velocity=51 time=0
note_on channel=0 note=56 velocity=37 time=0
note_on channel=0 note=56 velocity=0 time=120
note_on channel=0 note=86 velocity=0 time=0
note_on channel=0 note=45 velocity=0 time=0
note_on channel=0 note=84 velocity=51 time=0
note_on channel=0 note=52 velocity=37 time=0
note_on channel=0 note=52 velocity=0 time=80
note_on channel=0 note=84 velocity=0 time=0
note_on channel=0 note=83 velocity=51 time=0
note_on channel=0 note=56 velocity=37 time=0
note_on channel=0 note=56 velocity=0 time=0
note_on channel=0 note=83 velocity=0 time=0
note_on channel=0 note=81 velocity=53 time=0
note_on channel=0 note=45 velocity=34 time=0
note_on channel=0 note=48 velocity=42 time=0
note_on channel=0 note=48 velocity=0 time=120
note_on channel=0 note=81 velocity=0 time=0
note_on channel=0 note=84 velocity=49 time=0
note_on channel=0 note=57 velocity=36 time=0
note_on channel=0 note=57 velocity=0 time=120
note_on channel=0 note=84 velocity=0 time=0
note_on channel=0 note=45 velocity=0 time=0
note_on channel=0 note=83 velocity=48 time=0
note_on channel=0 note=52 velocity=35 time=0
note_on channel=0 note=52 velocity=0 time=120
note_on channel=0 note=83 velocity=0 time=0
note_on channel=0 note=81 velocity=48 time=0
note_on channel=0 note=57 velocity=35 time=0
note_on channel=0 note=57 velocity=0 time=120
note_on channel=0 note=81 velocity=0 time=0
note_on channel=0 note=83 velocity=52 time=0
note_on channel=0 note=50 velocity=37 time=0
note_on channel=0 note=45 velocity=32 time=0
note_on channel=0 note=50 velocity=0 time=120
note_on channel=0 note=83 velocity=0 time=0
note_on channel=0 note=86 velocity=46 time=0
note_on channel=0 note=56 velocity=33 time=0
note_on channel=0 note=56 velocity=0 time=120
note_on channel=0 note=86 velocity=0 time=0
note_on channel=0 note=45 velocity=0 time=0
note_on channel=0 note=84 velocity=46 time=0
note_on channel=0 note=52 velocity=33 time=0
note_on channel=0 note=52 velocity=0 time=120
note_on channel=0 note=84 velocity=0 time=0
note_on channel=0 note=83 velocity=45 time=0
note_on channel=0 note=56 velocity=32 time=0
note_on channel=0 note=56 velocity=0 time=120
note_on channel=0 note=83 velocity=0 time=0
note_on channel=0 note=84 velocity=46 time=0
note_on channel=0 note=48 velocity=38 time=0
note_on channel=0 note=45 velocity=31 time=0
note_on channel=0 note=48 velocity=0 time=120
note_on channel=0 note=84 velocity=0 time=0
note_on channel=0 note=88 velocity=43 time=0
note_on channel=0 note=57 velocity=33 time=0
note_on channel=0 note=57 velocity=0 time=120
note_on channel=0 note=88 velocity=0 time=0
note_on channel=0 note=45 velocity=0 time=0
note_on channel=0 note=86 velocity=42 time=0
note_on channel=0 note=52 velocity=32 time=0
note_on channel=0 note=52 velocity=0 time=120
note_on channel=0 note=86 velocity=0 time=0
note_on channel=0 note=84 velocity=42 time=0
note_on channel=0 note=57 velocity=32 time=0
note_on channel=0 note=57 velocity=0 time=0
note_on channel=0 note=84 velocity=0 time=0
note_on channel=0 note=83 velocity=45 time=0
note_on channel=0 note=50 velocity=34 time=0
note_on channel=0 note=45 velocity=29 time=0
note_on channel=0 note=50 velocity=0 time=120
note_on channel=0 note=83 velocity=0 time=0
note_on channel=0 note=86 velocity=40 time=0
note_on channel=0 note=56 velocity=31 time=0
note_on channel=0 note=56 velocity=0 time=120
note_on channel=0 note=86 velocity=0 time=0
note_on channel=0 note=45 velocity=0 time=0
note_on channel=0 note=84 velocity=39 time=0
note_on channel=0 note=52 velocity=29 time=0
note_on channel=0 note=52 velocity=0 time=120
note_on channel=0 note=84 velocity=0 time=0
note_on channel=0 note=83 velocity=39 time=0
note_on channel=0 note=56 velocity=29 time=0
note_on channel=0 note=56 velocity=0 time=0
note_on channel=0 note=83 velocity=0 time=0
note_on channel=0 note=81 velocity=39 time=0
note_on channel=0 note=45 velocity=26 time=0
note_on channel=0 note=48 velocity=32 time=0
note_on channel=0 note=48 velocity=0 time=120
note_on channel=0 note=81 velocity=0 time=0
note_on channel=0 note=84 velocity=37 time=0
note_on channel=0 note=57 velocity=28 time=0
note_on channel=0 note=57 velocity=0 time=120
note_on channel=0 note=84 velocity=0 time=0
note_on channel=0 note=45 velocity=0 time=0
note_on channel=0 note=83 velocity=37 time=0
note_on channel=0 note=52 velocity=28 time=0
note_on channel=0 note=52 velocity=0 time=40
note_on channel=0 note=83 velocity=0 time=0
note_on channel=0 note=81 velocity=37 time=0
note_on channel=0 note=57 velocity=28 time=0
note_on channel=0 note=57 velocity=0 time=120
note_on channel=0 note=81 velocity=0 time=0
note_on channel=0 note=83 velocity=41 time=0
note_on channel=0 note=50 velocity=32 time=0
note_on channel=0 note=45 velocity=26 time=0
note_on channel=0 note=50 velocity=0 time=120
note_on channel=0 note=83 velocity=0 time=0
note_on channel=0 note=86 velocity=37 time=0
note_on channel=0 note=56 velocity=28 time=0
note_on channel=0 note=56 velocity=0 time=80
note_on channel=0 note=86 velocity=0 time=0
note_on channel=0 note=45 velocity=0 time=0
note_on channel=0 note=84 velocity=37 time=0
note_on channel=0 note=52 velocity=28 time=0
note_on channel=0 note=52 velocity=0 time=120
note_on channel=0 note=84 velocity=0 time=0
note_on channel=0 note=83 velocity=37 time=0
note_on channel=0 note=56 velocity=28 time=0
note_on channel=0 note=56 velocity=0 time=0
note_on channel=0 note=83 velocity=0 time=0
note_on channel=0 note=81 velocity=39 time=0
note_on channel=0 note=45 velocity=26 time=0
note_on channel=0 note=48 velocity=32 time=0
note_on channel=0 note=48 velocity=0 time=120
note_on channel=0 note=81 velocity=0 time=0
note_on channel=0 note=84 velocity=37 time=0
note_on channel=0 note=57 velocity=28 time=0
note_on channel=0 note=57 velocity=0 time=120
note_on channel=0 note=84 velocity=0 time=0
note_on channel=0 note=45 velocity=0 time=0
note_on channel=0 note=83 velocity=37 time=0
note_on channel=0 note=52 velocity=28 time=0
note_on channel=0 note=52 velocity=0 time=40
note_on channel=0 note=83 velocity=0 time=0
note_on channel=0 note=81 velocity=37 time=0
note_on channel=0 note=57 velocity=28 time=0
note_on channel=0 note=57 velocity=0 time=120
note_on channel=0 note=81 velocity=0 time=0
note_on channel=0 note=83 velocity=41 time=0
note_on channel=0 note=50 velocity=32 time=0
note_on channel=0 note=45 velocity=26 time=0
note_on channel=0 note=50 velocity=0 time=120
note_on channel=0 note=83 velocity=0 time=0
note_on channel=0 note=86 velocity=37 time=0
note_on channel=0 note=56 velocity=28 time=0
note_on channel=0 note=56 velocity=0 time=80
note_on channel=0 note=86 velocity=0 time=0
note_on channel=0 note=45 velocity=0 time=0
note_on channel=0 note=84 velocity=37 time=0
note_on channel=0 note=52 velocity=28 time=0
note_on channel=0 note=52 velocity=0 time=120
note_on channel=0 note=84 velocity=0 time=0
note_on channel=0 note=83 velocity=37 time=0
note_on channel=0 note=56 velocity=28 time=0
note_on channel=0 note=56 velocity=0 time=0
note_on channel=0 note=83 velocity=0 time=0
note_on channel=0 note=81 velocity=92 time=0
note_on channel=0 note=45 velocity=62 time=0
note_on channel=0 note=57 velocity=62 time=0
note_on channel=0 note=57 velocity=0 time=56
note_on channel=0 note=45 velocity=0 time=0
note_on channel=0 note=81 velocity=0 time=0
note_on channel=0 note=76 velocity=92 time=240
note_on channel=0 note=64 velocity=63 time=0
note_on channel=0 note=64 velocity=0 time=0
note_on channel=0 note=76 velocity=0 time=0
note_on channel=0 note=76 velocity=97 time=0
note_on channel=0 note=64 velocity=74 time=0
note_on channel=0 note=64 velocity=0 time=720
note_on channel=0 note=76 velocity=0 time=0
note_on channel=0 note=72 velocity=53 time=0
note_on channel=0 note=60 velocity=47 time=0
note_on channel=0 note=60 velocity=0 time=0
note_on channel=0 note=72 velocity=0 time=0
note_on channel=0 note=71 velocity=58 time=0
note_on channel=0 note=59 velocity=50 time=0
note_on channel=0 note=59 velocity=0 time=0
note_on channel=0 note=71 velocity=0 time=0
note_on channel=0 note=64 velocity=54 time=0
note_on channel=0 note=52 velocity=47 time=0
note_on channel=0 note=52 velocity=0 time=480
note_on channel=0 note=64 velocity=0 time=0
note_on channel=0 note=69 velocity=54 time=0
note_on channel=0 note=57 velocity=47 time=0
note_on channel=0 note=57 velocity=0 time=240
note_on channel=0 note=69 velocity=0 time=0
note_on channel=0 note=53 velocity=102 time=0
note_on channel=0 note=29 velocity=74 time=0
note_on channel=0 note=41 velocity=74 time=0
note_on channel=0 note=41 velocity=0 time=56
note_on channel=0 note=29 velocity=0 time=0
note_on channel=0 note=53 velocity=0 time=0
note_on channel=0 note=72 velocity=92 time=240
note_on channel=0 note=84 velocity=92 time=0
note_on channel=0 note=60 velocity=74 time=0
note_on channel=0 note=60 velocity=0 time=0
note_on channel=0 note=84 velocity=0 time=0
note_on channel=0 note=72 velocity=0 time=0
note_on channel=0 note=72 velocity=95 time=0
note_on channel=0 note=84 velocity=95 time=0
note_on channel=0 note=60 velocity=79 time=0
note_on channel=0 note=60 velocity=0 time=720
note_on channel=0 note=84 velocity=0 time=0
note_on channel=0 note=72 velocity=0 time=0
note_on channel=0 note=69 velocity=57 time=0
note_on channel=0 note=81 velocity=57 time=0
note_on channel=0 note=57 velocity=48 time=0
note_on channel=0 note=57 velocity=0 time=0
note_on channel=0 note=81 velocity=0 time=0
note_on channel=0 note=69 velocity=0 time=0
note_on channel=0 note=67 velocity=60 time=0
note_on channel=0 note=79 velocity=60 time=0
note_on channel=0 note=55 velocity=53 time=0
note_on channel=0 note=55 velocity=0 time=0
note_on channel=0 note=79 velocity=0 time=0
note_on channel=0 note=67 velocity=0 time=0
note_on channel=0 note=60 velocity=56 time=0
note_on channel=0 note=72 velocity=56 time=0
note_on channel=0 note=48 velocity=49 time=0
note_on channel=0 note=48 velocity=0 time=480
note_on channel=0 note=72 velocity=0 time=0
note_on channel=0 note=60 velocity=0 time=0
note_on channel=0 note=65 velocity=56 time=0
note_on channel=0 note=77 velocity=56 time=0
note_on channel=0 note=53 velocity=49 time=0
note_on channel=0 note=53 velocity=0 time=240
note_on channel=0 note=77 velocity=0 time=0
note_on channel=0 note=65 velocity=0 time=0
note_on channel=0 note=55 velocity=103 time=0
note_on channel=0 note=31 velocity=90 time=0
note_on channel=0 note=43 velocity=90 time=0
note_on channel=0 note=43 velocity=0 time=56
note_on channel=0 note=31 velocity=0 time=0
note_on channel=0 note=55 velocity=0 time=0
note_on channel=0 note=77 velocity=63 time=240
note_on channel=0 note=89 velocity=90 time=0
note_on channel=0 note=65 velocity=80 time=0
note_on channel=0 note=65 velocity=0 time=0
note_on channel=0 note=89 velocity=0 time=0
note_on channel=0 note=77 velocity=0 time=0
note_on channel=0 note=77 velocity=67 time=0
note_on channel=0 note=89 velocity=93 time=0
note_on channel=0 note=65 velocity=81 time=0
note_on channel=0 note=65 velocity=0 time=720
note_on channel=0 note=89 velocity=0 time=0
note_on channel=0 note=77 velocity=0 time=0
note_on channel=0 note=74 velocity=56 time=0
note_on channel=0 note=86 velocity=66 time=0
note_on channel=0 note=62 velocity=53 time=0
note_on channel=0 note=62 velocity=0 time=0
note_on channel=0 note=86 velocity=0 time=0
note_on channel=0 note=74 velocity=0 time=0
note_on channel=0 note=71 velocity=58 time=0
note_on channel=0 note=83 velocity=69 time=0
note_on channel=0 note=59 velocity=59 time=0
note_on channel=0 note=59 velocity=0 time=0
note_on channel=0 note=83 velocity=0 time=0
note_on channel=0 note=71 velocity=0 time=0
note_on channel=0 note=67 velocity=49 time=0
note_on channel=0 note=79 velocity=58 time=0
note_on channel=0 note=55 velocity=55 time=0
note_on channel=0 note=55 velocity=0 time=480
note_on channel=0 note=79 velocity=0 time=0
note_on channel=0 note=67 velocity=0 time=0
note_on channel=0 note=65 velocity=54 time=0
note_on channel=0 note=77 velocity=64 time=0
note_on channel=0 note=53 velocity=55 time=0
note_on channel=0 note=53 velocity=0 time=0
note_on channel=0 note=77 velocity=0 time=0
note_on channel=0 note=65 velocity=0 time=0
note_on channel=0 note=62 velocity=44 time=0
note_on channel=0 note=74 velocity=52 time=0
note_on channel=0 note=50 velocity=44 time=0
note_on channel=0 note=50 velocity=0 time=120
note_on channel=0 note=74 velocity=0 time=0
note_on channel=0 note=62 velocity=0 time=0
note_on channel=0 note=59 velocity=46 time=0
note_on channel=0 note=71 velocity=55 time=0
note_on channel=0 note=47 velocity=51 time=0
note_on channel=0 note=47 velocity=0 time=480
note_on channel=0 note=71 velocity=0 time=0
note_on channel=0 note=59 velocity=0 time=0
note_on channel=0 note=55 velocity=41 time=0
note_on channel=0 note=67 velocity=49 time=0
note_on channel=0 note=43 velocity=36 time=0
note_on channel=0 note=43 velocity=0 time=240
note_on channel=0 note=67 velocity=0 time=0
note_on channel=0 note=55 velocity=0 time=0
note_on channel=0 note=53 velocity=43 time=0
note_on channel=0 note=65 velocity=51 time=0
note_on channel=0 note=41 velocity=41 time=0
note_on channel=0 note=41 velocity=0 time=240
note_on channel=0 note=65 velocity=0 time=0
note_on channel=0 note=53 velocity=0 time=0
note_on channel=0 note=50 velocity=34 time=0
note_on channel=0 note=62 velocity=40 time=0
note_on channel=0 note=38 velocity=33 time=0
note_on channel=0 note=38 velocity=0 time=0
note_on channel=0 note=62 velocity=0 time=0
note_on channel=0 note=50 velocity=0 time=0
note_on channel=0 note=47 velocity=34 time=0
note_on channel=0 note=59 velocity=40 time=0
note_on channel=0 note=35 velocity=33 time=0
note_on channel=0 note=35 velocity=0 time=480
note_on channel=0 note=59 velocity=0 time=0
note_on channel=0 note=47 velocity=0 time=0
note_on channel=0 note=55 velocity=40 time=480
note_on channel=0 note=31 velocity=28 time=0
note_on channel=0 note=43 velocity=33 time=0
note_on channel=0 note=43 velocity=0 time=53
note_on channel=0 note=31 velocity=0 time=0
note_on channel=0 note=55 velocity=0 time=0
note_on channel=0 note=36 velocity=50 time=0
note_on channel=0 note=52 velocity=28 time=0
note_on channel=0 note=52 velocity=0 time=40
note_on channel=0 note=36 velocity=0 time=0
note_on channel=0 note=55 velocity=30 time=0
note_on channel=0 note=55 velocity=0 time=0
note_on channel=0 note=60 velocity=32 time=0
note_on channel=0 note=60 velocity=0 time=0
note_on channel=0 note=64 velocity=34 time=0
note_on channel=0 note=79 velocity=50 time=0
note_on channel=0 note=64 velocity=0 time=120
note_on channel=0 note=52 velocity=31 time=0
note_on channel=0 note=52 velocity=0 time=120
note_on channel=0 note=79 velocity=0 time=0
note_on channel=0 note=55 velocity=31 time=0
note_on channel=0 note=55 velocity=0 time=120
note_on channel=0 note=60 velocity=31 time=0
note_on channel=0 note=60 velocity=0 time=0
note_on channel=0 note=64 velocity=35 time=0
note_on channel=0 note=79 velocity=54 time=0
note_on channel=0 note=64 velocity=0 time=120
note_on channel=0 note=52 velocity=30 time=0
note_on channel=0 note=52 velocity=0 time=120
note_on channel=0 note=55 velocity=31 time=0
note_on channel=0 note=55 velocity=0 time=120
note_on channel=0 note=60 velocity=33 time=0
note_on channel=0 note=60 velocity=0 time=120
note_on channel=0 note=64 velocity=36 time=0
note_on channel=0 note=64 velocity=0 time=120
note_on channel=0 note=52 velocity=33 time=0
note_on channel=0 note=52 velocity=0 time=120
note_on channel=0 note=79 velocity=0 time=0
note_on channel=0 note=55 velocity=33 time=0
note_on channel=0 note=76 velocity=47 time=0
note_on channel=0 note=55 velocity=0 time=120
note_on channel=0 note=60 velocity=33 time=0
note_on channel=0 note=60 velocity=0 time=0
note_on channel=0 note=76 velocity=0 time=0
note_on channel=0 note=74 velocity=50 time=0
note_on channel=0 note=53 velocity=28 time=49
note_on channel=0 note=53 velocity=0 time=120
note_on channel=0 note=55 velocity=31 time=0
note_on channel=0 note=55 velocity=0 time=120
note_on channel=0 note=59 velocity=33 time=0
note_on channel=0 note=59 velocity=0 time=0
note_on channel=0 note=74 velocity=0 time=0
note_on channel=0 note=62 velocity=36 time=0
note_on channel=0 note=67 velocity=41 time=0
note_on channel=0 note=62 velocity=0 time=120
note_on channel=0 note=53 velocity=33 time=0
note_on channel=0 note=53 velocity=0 time=120
note_on channel=0 note=55 velocity=33 time=0
note_on channel=0 note=55 velocity=0 time=120
note_on channel=0 note=59 velocity=34 time=0
note_on channel=0 note=59 velocity=0 time=0
note_on channel=0 note=67 velocity=0 time=0
note_on channel=0 note=72 velocity=50 time=0
note_on channel=0 note=52 velocity=28 time=21
note_on channel=0 note=52 velocity=0 time=120
note_on channel=0 note=55 velocity=30 time=0
note_on channel=0 note=55 velocity=0 time=120
note_on channel=0 note=60 velocity=32 time=0
note_on channel=0 note=60 velocity=0 time=120
note_on channel=0 note=72 velocity=0 time=0
note_on channel=0 note=64 velocity=34 time=0
note_on channel=0 note=76 velocity=47 time=0
note_on channel=0 note=64 velocity=0 time=120
note_on channel=0 note=52 velocity=32 time=0
note_on channel=0 note=52 velocity=0 time=120
note_on channel=0 note=76 velocity=0 time=0
note_on channel=0 note=55 velocity=32 time=0
note_on channel=0 note=55 velocity=0 time=0
note_on channel=0 note=60 velocity=33 time=0
note_on channel=0 note=48 velocity=31 time=0
note_on channel=0 note=48 velocity=0 time=0
note_on channel=0 note=60 velocity=0 time=0
note_on channel=0 note=36 velocity=50 time=0
note_on channel=0 note=52 velocity=28 time=0
note_on channel=0 note=52 velocity=0 time=0
note_on channel=0 note=36 velocity=0 time=0
note_on channel=0 note=55 velocity=30 time=0
note_on channel=0 note=55 velocity=0 time=0
note_on channel=0 note=60 velocity=32 time=0
note_on channel=0 note=60 velocity=0 time=0
note_on channel=0 note=64 velocity=34 time=0
note_on channel=0 note=79 velocity=50 time=0
note_on channel=0 note=64 velocity=0 time=120
note_on channel=0 note=52 velocity=31 time=0
note_on channel=0 note=52 velocity=0 time=120
note_on channel=0 note=79 velocity=0 time=0
note_on channel=0 note=55 velocity=31 time=0
note_on channel=0 note=55 velocity=0 time=120
note_on channel=0 note=60 velocity=31 time=0
note_on channel=0 note=60 velocity=0 time=0
note_on channel=0 note=64 velocity=35 time=0
note_on channel=0 note=79 velocity=54 time=0
note_on channel=0 note=64 velocity=0 time=120
note_on channel=0 note=52 velocity=30 time=0
note_on channel=0 note=52 velocity=0 time=120
note_on channel=0 note=55 velocity=31 time=0
note_on channel=0 note=55 velocity=0 time=120
note_on channel=0 note=60 velocity=33 time=0
note_on channel=0 note=60 velocity=0 time=120
note_on channel=0 note=64 velocity=36 time=0
note_on channel=0 note=64 velocity=0 time=120
note_on channel=0 note=52 velocity=33 time=0
note_on channel=0 note=52 velocity=0 time=120
note_on channel=0 note=79 velocity=0 time=0
note_on channel=0 note=55 velocity=33 time=0
note_on channel=0 note=76 velocity=47 time=0
note_on channel=0 note=55 velocity=0 time=120
note_on channel=0 note=60 velocity=33 time=0
note_on channel=0 note=60 velocity=0 time=0
note_on channel=0 note=76 velocity=0 time=0
note_on channel=0 note=74 velocity=50 time=0
note_on channel=0 note=53 velocity=28 time=35
note_on channel=0 note=53 velocity=0 time=120
note_on channel=0 note=55 velocity=31 time=0
note_on channel=0 note=55 velocity=0 time=120
note_on channel=0 note=59 velocity=33 time=0
note_on channel=0 note=59 velocity=0 time=0
note_on channel=0 note=74 velocity=0 time=0
note_on channel=0 note=62 velocity=36 time=0
note_on channel=0 note=67 velocity=41 time=0
note_on channel=0 note=62 velocity=0 time=120
note_on channel=0 note=53 velocity=33 time=0
note_on channel=0 note=53 velocity=0 time=120
note_on channel=0 note=55 velocity=33 time=0
note_on channel=0 note=55 velocity=0 time=120
note_on channel=0 note=59 velocity=34 time=0
note_on channel=0 note=59 velocity=0 time=0
note_on channel=0 note=67 velocity=0 time=0
note_on channel=0 note=72 velocity=50 time=0
note_on channel=0 note=72 velocity=0 time=148
note_on channel=0 note=52 velocity=30 time=0
note_on channel=0 note=52 velocity=0 time=120
note_on channel=0 note=55 velocity=32 time=0
note_on channel=0 note=55 velocity=0 time=120
note_on channel=0 note=60 velocity=34 time=0
note_on channel=0 note=60 velocity=0 time=120
note_on channel=0 note=64 velocity=32 time=0
note_on channel=0 note=64 velocity=0 time=120
note_on channel=0 note=62 velocity=32 time=0
note_on channel=0 note=62 velocity=0 time=0
note_on channel=0 note=60 velocity=33 time=0
note_on channel=0 note=43 velocity=30 time=0
note_on channel=0 note=43 velocity=0 time=0
note_on channel=0 note=60 velocity=0 time=0
note_on channel=0 note=59 velocity=35 time=0
note_on channel=0 note=31 velocity=45 time=0
note_on channel=0 note=59 velocity=0 time=0
note_on channel=0 note=55 velocity=28 time=0
note_on channel=0 note=55 velocity=0 time=0
note_on channel=0 note=31 velocity=0 time=0
note_on channel=0 note=59 velocity=30 time=0
note_on channel=0 note=59 velocity=0 time=0
note_on channel=0 note=62 velocity=32 time=0
note_on channel=0 note=62 velocity=0 time=0
note_on channel=0 note=67 velocity=34 time=0
note_on channel=0 note=77 velocity=50 time=0
note_on channel=0 note=67 velocity=0 time=120
note_on channel=0 note=55 velocity=31 time=0
note_on channel=0 note=55 velocity=0 time=120
note_on channel=0 note=77 velocity=0 time=0
note_on channel=0 note=59 velocity=31 time=0
note_on channel=0 note=59 velocity=0 time=120
note_on channel=0 note=62 velocity=31 time=0
note_on channel=0 note=62 velocity=0 time=0
note_on channel=0 note=67 velocity=35 time=0
note_on channel=0 note=77 velocity=54 time=0
note_on channel=0 note=67 velocity=0 time=120
note_on channel=0 note=55 velocity=30 time=0
note_on channel=0 note=55 velocity=0 time=120
note_on channel=0 note=59 velocity=31 time=0
note_on channel=0 note=59 velocity=0 time=120
note_on channel=0 note=62 velocity=33 time=0
note_on channel=0 note=62 velocity=0 time=120
note_on channel=0 note=67 velocity=36 time=0
note_on channel=0 note=67 velocity=0 time=120
note_on channel=0 note=55 velocity=33 time=0
note_on channel=0 note=55 velocity=0 time=120
note_on channel=0 note=77 velocity=0 time=0
note_on channel=0 note=59 velocity=33 time=0
note_on channel=0 note=74 velocity=47 time=0
note_on channel=0 note=59 velocity=0 time=120
note_on channel=0 note=67 velocity=33 time=0
note_on channel=0 note=67 velocity=0 time=0
note_on channel=0 note=74 velocity=0 time=0
note_on channel=0 note=76 velocity=50 time=0
note_on channel=0 note=55 velocity=28 time=35
note_on channel=0 note=55 velocity=0 time=120
note_on channel=0 note=60 velocity=31 time=0
note_on channel=0 note=60 velocity=0 time=120
note_on channel=0 note=67 velocity=33 time=0
note_on channel=0 note=67 velocity=0 time=0
note_on channel=0 note=76 velocity=0 time=0
note_on channel=0 note=72 velocity=41 time=0
note_on channel=0 note=55 velocity=28 time=120
note_on channel=0 note=55 velocity=0 time=120
note_on channel=0 note=64 velocity=31 time=0
note_on channel=0 note=64 velocity=0 time=120
note_on channel=0 note=67 velocity=33 time=0
note_on channel=0 note=67 velocity=0 time=0
note_on channel=0 note=72 velocity=0 time=0
note_on channel=0 note=71 velocity=50 time=0
note_on channel=0 note=55 velocity=28 time=42
note_on channel=0 note=55 velocity=0 time=120
note_on channel=0 note=62 velocity=30 time=0
note_on channel=0 note=62 velocity=0 time=120
note_on channel=0 note=67 velocity=32 time=0
note_on channel=0 note=67 velocity=0 time=120
note_on channel=0 note=71 velocity=0 time=0
note_on channel=0 note=74 velocity=47 time=0
note_on channel=0 note=55 velocity=28 time=120
note_on channel=0 note=55 velocity=0 time=120
note_on channel=0 note=74 velocity=0 time=0
note_on channel=0 note=59 velocity=30 time=0
note_on channel=0 note=59 velocity=0 time=0
note_on channel=0 note=67 velocity=32 time=0
note_on channel=0 note=43 velocity=32 time=0
note_on channel=0 note=43 velocity=0 time=0
note_on channel=0 note=67 velocity=0 time=0
note_on channel=0 note=31 velocity=48 time=0
note_on channel=0 note=55 velocity=28 time=0
note_on channel=0 note=55 velocity=0 time=0
note_on channel=0 note=31 velocity=0 time=0
note_on channel=0 note=59 velocity=30 time=0
note_on channel=0 note=59 velocity=0 time=0
note_on channel=0 note=62 velocity=32 time=0
note_on channel=0 note=62 velocity=0 time=0
note_on channel=0 note=67 velocity=34 time=0
note_on channel=0 note=77 velocity=50 time=0
note_on channel=0 note=67 velocity=0 time=120
note_on channel=0 note=55 velocity=31 time=0
note_on channel=0 note=55 velocity=0 time=120
note_on channel=0 note=77 velocity=0 time=0
note_on channel=0 note=59 velocity=31 time=0
note_on channel=0 note=59 velocity=0 time=120
note_on channel=0 note=62 velocity=31 time=0
note_on channel=0 note=62 velocity=0 time=0
note_on channel=0 note=67 velocity=35 time=0
note_on channel=0 note=77 velocity=54 time=0
note_on channel=0 note=67 velocity=0 time=120
note_on channel=0 note=55 velocity=30 time=0
note_on channel=0 note=55 velocity=0 time=120
note_on channel=0 note=59 velocity=31 time=0
note_on channel=0 note=59 velocity=0 time=120
note_on channel=0 note=62 velocity=33 time=0
note_on channel=0 note=62 velocity=0 time=120
note_on channel=0 note=67 velocity=36 time=0
note_on channel=0 note=67 velocity=0 time=120
note_on channel=0 note=55 velocity=33 time=0
note_on channel=0 note=55 velocity=0 time=120
note_on channel=0 note=77 velocity=0 time=0
note_on channel=0 note=59 velocity=33 time=0
note_on channel=0 note=74 velocity=47 time=0
note_on channel=0 note=59 velocity=0 time=120
note_on channel=0 note=67 velocity=33 time=0
note_on channel=0 note=67 velocity=0 time=0
note_on channel=0 note=74 velocity=0 time=0
note_on channel=0 note=75 velocity=50 time=0
note_on channel=0 note=55 velocity=28 time=17
note_on channel=0 note=55 velocity=0 time=120
note_on channel=0 note=60 velocity=31 time=0
note_on channel=0 note=60 velocity=0 time=120
note_on channel=0 note=67 velocity=33 time=0
note_on channel=0 note=67 velocity=0 time=0
note_on channel=0 note=75 velocity=0 time=0
note_on channel=0 note=72 velocity=41 time=0
note_on channel=0 note=55 velocity=28 time=120
note_on channel=0 note=55 velocity=0 time=120
note_on channel=0 note=63 velocity=31 time=0
note_on channel=0 note=63 velocity=0 time=120
note_on channel=0 note=67 velocity=33 time=0
note_on channel=0 note=67 velocity=0 time=0
note_on channel=0 note=72 velocity=0 time=0
note_on channel=0 note=71 velocity=50 time=0
note_on channel=0 note=55 velocity=28 time=28
note_on channel=0 note=55 velocity=0 time=120
note_on channel=0 note=62 velocity=30 time=0
note_on channel=0 note=62 velocity=0 time=120
note_on channel=0 note=67 velocity=32 time=0
note_on channel=0 note=67 velocity=0 time=120
note_on channel=0 note=71 velocity=0 time=0
note_on channel=0 note=74 velocity=47 time=0
note_on channel=0 note=55 velocity=28 time=120
note_on channel=0 note=55 velocity=0 time=120
note_on channel=0 note=59 velocity=30 time=0
note_on channel=0 note=59 velocity=0 time=120
note_on channel=0 note=67 velocity=32 time=0
note_on channel=0 note=67 velocity=0 time=0
note_on channel=0 note=74 velocity=0 time=0
note_on channel=0 note=76 velocity=50 time=0
note_on channel=0 note=55 velocity=28 time=21
note_on channel=0 note=55 velocity=0 time=120
note_on channel=0 note=60 velocity=31 time=0
note_on channel=0 note=60 velocity=0 time=120
note_on channel=0 note=67 velocity=33 time=0
note_on channel=0 note=67 velocity=0 time=0
note_on channel=0 note=76 velocity=0 time=0
note_on channel=0 note=72 velocity=41 time=0
note_on channel=0 note=55 velocity=28 time=120
note_on channel=0 note=55 velocity=0 time=120
note_on channel=0 note=64 velocity=31 time=0
note_on channel=0 note=64 velocity=0 time=120
note_on channel=0 note=67 velocity=33 time=0
note_on channel=0 note=67 velocity=0 time=0
note_on channel=0 note=72 velocity=0 time=0
note_on channel=0 note=71 velocity=50 time=0
note_on channel=0 note=55 velocity=28 time=21
note_on channel=0 note=55 velocity=0 time=120
note_on channel=0 note=62 velocity=30 time=0
note_on channel=0 note=62 velocity=0 time=120
note_on channel=0 note=67 velocity=32 time=0
note_on channel=0 note=67 velocity=0 time=120
note_on channel=0 note=71 velocity=0 time=0
note_on channel=0 note=74 velocity=47 time=0
note_on channel=0 note=55 velocity=28 time=120
note_on channel=0 note=55 velocity=0 time=120
note_on channel=0 note=59 velocity=30 time=0
note_on channel=0 note=59 velocity=0 time=120
note_on channel=0 note=67 velocity=32 time=0
note_on channel=0 note=67 velocity=0 time=0
note_on channel=0 note=74 velocity=0 time=0
note_on channel=0 note=75 velocity=50 time=0
note_on channel=0 note=55 velocity=28 time=74
note_on channel=0 note=55 velocity=0 time=120
note_on channel=0 note=60 velocity=31 time=0
note_on channel=0 note=60 velocity=0 time=120
note_on channel=0 note=67 velocity=33 time=0
note_on channel=0 note=67 velocity=0 time=0
note_on channel=0 note=75 velocity=0 time=0
note_on channel=0 note=72 velocity=41 time=0
note_on channel=0 note=55 velocity=28 time=120
note_on channel=0 note=55 velocity=0 time=120
note_on channel=0 note=60 velocity=31 time=0
note_on channel=0 note=60 velocity=0 time=120
note_on channel=0 note=63 velocity=33 time=0
note_on channel=0 note=63 velocity=0 time=0
note_on channel=0 note=72 velocity=0 time=0
note_on channel=0 note=79 velocity=50 time=0
note_on channel=0 note=55 velocity=28 time=45
note_on channel=0 note=55 velocity=0 time=120
note_on channel=0 note=59 velocity=30 time=0
note_on channel=0 note=59 velocity=0 time=120
note_on channel=0 note=62 velocity=32 time=0
note_on channel=0 note=79 velocity=0 time=115
note_on channel=0 note=62 velocity=0 time=0
note_on channel=0 note=79 velocity=47 time=0
note_on channel=0 note=55 velocity=28 time=28
note_on channel=0 note=55 velocity=0 time=120
note_on channel=0 note=60 velocity=30 time=0
note_on channel=0 note=60 velocity=0 time=120
note_on channel=0 note=63 velocity=32 time=0
note_on channel=0 note=79 velocity=0 time=115
note_on channel=0 note=63 velocity=0 time=5
note_on channel=0 note=79 velocity=50 time=0
note_on channel=0 note=55 velocity=28 time=45
note_on channel=0 note=55 velocity=0 time=120
note_on channel=0 note=59 velocity=30 time=0
note_on channel=0 note=59 velocity=0 time=120
note_on channel=0 note=62 velocity=32 time=0
note_on channel=0 note=79 velocity=0 time=115
note_on channel=0 note=62 velocity=0 time=5
note_on channel=0 note=79 velocity=47 time=0
note_on channel=0 note=55 velocity=28 time=40
note_on channel=0 note=55 velocity=0 time=120
note_on channel=0 note=60 velocity=30 time=0
note_on channel=0 note=60 velocity=0 time=120
note_on channel=0 note=63 velocity=32 time=0
note_on channel=0 note=79 velocity=0 time=75
note_on channel=0 note=63 velocity=0 time=5
note_on channel=0 note=79 velocity=50 time=0
note_on channel=0 note=55 velocity=28 time=40
note_on channel=0 note=55 velocity=0 time=0
note_on channel=0 note=59 velocity=30 time=0
note_on channel=0 note=59 velocity=0 time=120
note_on channel=0 note=62 velocity=32 time=0
note_on channel=0 note=79 velocity=0 time=75
note_on channel=0 note=62 velocity=0 time=5
note_on channel=0 note=79 velocity=47 time=0
note_on channel=0 note=55 velocity=28 time=14
note_on channel=0 note=55 velocity=0 time=40
note_on channel=0 note=57 velocity=30 time=0
note_on channel=0 note=57 velocity=0 time=0
note_on channel=0 note=60 velocity=32 time=0
note_on channel=0 note=79 velocity=0 time=115
note_on channel=0 note=60 velocity=0 time=0
note_on channel=0 note=79 velocity=47 time=0
note_on channel=0 note=55 velocity=36 time=28
note_on channel=0 note=55 velocity=0 time=40
note_on channel=0 note=59 velocity=38 time=0
note_on channel=0 note=59 velocity=0 time=0
note_on channel=0 note=62 velocity=35 time=0
note_on channel=0 note=62 velocity=0 time=120
note_on channel=0 note=79 velocity=0 time=0
note_on channel=0 note=67 velocity=43 time=0
note_on channel=0 note=67 velocity=0 time=80
note_on channel=0 note=71 velocity=39 time=0
note_on channel=0 note=71 velocity=0 time=40
note_on channel=0 note=69 velocity=41 time=0
note_on channel=0 note=69 velocity=0 time=40
note_on channel=0 note=66 velocity=38 time=0
note_on channel=0 note=66 velocity=0 time=0
note_on channel=0 note=67 velocity=43 time=0
note_on channel=0 note=67 velocity=0 time=21
note_on channel=0 note=59 velocity=38 time=0
note_on channel=0 note=59 velocity=0 time=80
note_on channel=0 note=62 velocity=41 time=0
note_on channel=0 note=62 velocity=0 time=40
note_on channel=0 note=67 velocity=38 time=0
note_on channel=0 note=67 velocity=0 time=40
note_on channel=0 note=71 velocity=46 time=0
note_on channel=0 note=71 velocity=0 time=120
note_on channel=0 note=74 velocity=41 time=0
note_on channel=0 note=74 velocity=0 time=120
note_on channel=0 note=72 velocity=41 time=0
note_on channel=0 note=72 velocity=0 time=120
note_on channel=0 note=69 velocity=37 time=0
note_on channel=0 note=69 velocity=0 time=120
note_on channel=0 note=71 velocity=47 time=0
note_on channel=0 note=71 velocity=0 time=34
note_on channel=0 note=67 velocity=42 time=0
note_on channel=0 note=67 velocity=0 time=120
note_on channel=0 note=71 velocity=47 time=0
note_on channel=0 note=71 velocity=0 time=120
note_on channel=0 note=74 velocity=43 time=0
note_on channel=0 note=74 velocity=0 time=120
note_on channel=0 note=79 velocity=51 time=0
note_on channel=0 note=79 velocity=0 time=120
note_on channel=0 note=83 velocity=46 time=0
note_on channel=0 note=83 velocity=0 time=120
note_on channel=0 note=81 velocity=48 time=0
note_on channel=0 note=81 velocity=0 time=120
note_on channel=0 note=78 velocity=43 time=0
note_on channel=0 note=78 velocity=0 time=0
note_on channel=0 note=79 velocity=52 time=0
note_on channel=0 note=79 velocity=0 time=51
note_on channel=0 note=83 velocity=52 time=0
note_on channel=0 note=83 velocity=0 time=40
note_on channel=0 note=81 velocity=53 time=0
note_on channel=0 note=81 velocity=0 time=120
note_on channel=0 note=84 velocity=54 time=0
note_on channel=0 note=84 velocity=0 time=80
note_on channel=0 note=83 velocity=55 time=0
note_on channel=0 note=83 velocity=0 time=40
note_on channel=0 note=86 velocity=56 time=0
note_on channel=0 note=86 velocity=0 time=120
note_on channel=0 note=85 velocity=56 time=0
note_on channel=0 note=85 velocity=0 time=80
note_on channel=0 note=88 velocity=57 time=0
note_on channel=0 note=88 velocity=0 time=40
note_on channel=0 note=86 velocity=58 time=0
note_on channel=0 note=86 velocity=0 time=42
note_on channel=0 note=89 velocity=59 time=0
note_on channel=0 note=89 velocity=0 time=0
note_on channel=0 note=88 velocity=60 time=0
note_on channel=0 note=88 velocity=0 time=120
note_on channel=0 note=91 velocity=56 time=0
note_on channel=0 note=91 velocity=0 time=120
note_on channel=0 note=89 velocity=61 time=0
note_on channel=0 note=89 velocity=0 time=80
note_on channel=0 note=93 velocity=62 time=0
note_on channel=0 note=93 velocity=0 time=120
note_on channel=0 note=89 velocity=63 time=0
note_on channel=0 note=89 velocity=0 time=40
note_on channel=0 note=88 velocity=59 time=0
note_on channel=0 note=88 velocity=0 time=120
note_on channel=0 note=86 velocity=65 time=0
note_on channel=0 note=86 velocity=0 time=28
note_on channel=0 note=89 velocity=66 time=0
note_on channel=0 note=89 velocity=0 time=120
note_on channel=0 note=88 velocity=66 time=0
note_on channel=0 note=88 velocity=0 time=120
note_on channel=0 note=91 velocity=64 time=0
note_on channel=0 note=91 velocity=0 time=120
note_on channel=0 note=89 velocity=68 time=0
note_on channel=0 note=89 velocity=0 time=120
note_on channel=0 note=93 velocity=69 time=0
note_on channel=0 note=93 velocity=0 time=120
note_on channel=0 note=89 velocity=70 time=0
note_on channel=0 note=89 velocity=0 time=120
note_on channel=0 note=88 velocity=66 time=0
note_on channel=0 note=88 velocity=0 time=120
note_on channel=0 note=86 velocity=69 time=0
note_on channel=0 note=86 velocity=0 time=7
note_on channel=0 note=89 velocity=65 time=0
note_on channel=0 note=89 velocity=0 time=120
note_on channel=0 note=88 velocity=67 time=0
note_on channel=0 note=88 velocity=0 time=120
note_on channel=0 note=84 velocity=60 time=0
note_on channel=0 note=84 velocity=0 time=120
note_on channel=0 note=83 velocity=64 time=0
note_on channel=0 note=83 velocity=0 time=120
note_on channel=0 note=86 velocity=59 time=0
note_on channel=0 note=86 velocity=0 time=120
note_on channel=0 note=84 velocity=62 time=0
note_on channel=0 note=84 velocity=0 time=120
note_on channel=0 note=81 velocity=55 time=0
note_on channel=0 note=81 velocity=0 time=40
note_on channel=0 note=79 velocity=59 time=0
note_on channel=0 note=79 velocity=0 time=0
note_on channel=0 note=83 velocity=54 time=0
note_on channel=0 note=83 velocity=0 time=120
note_on channel=0 note=81 velocity=56 time=0
note_on channel=0 note=81 velocity=0 time=80
note_on channel=0 note=77 velocity=51 time=0
note_on channel=0 note=77 velocity=0 time=40
note_on channel=0 note=76 velocity=54 time=0
note_on channel=0 note=76 velocity=0 time=40
note_on channel=0 note=79 velocity=46 time=0
note_on channel=0 note=79 velocity=0 time=0
note_on channel=0 note=77 velocity=49 time=0
note_on channel=0 note=77 velocity=0 time=0
note_on channel=0 note=74 velocity=42 time=0
note_on channel=0 note=74 velocity=0 time=0
note_on channel=0 note=72 velocity=49 time=0
note_on channel=0 note=36 velocity=50 time=0
note_on channel=0 note=36 velocity=0 time=0
note_on channel=0 note=72 velocity=0 time=0
note_on channel=0 note=43 velocity=30 time=0
note_on channel=0 note=43 velocity=0 time=0
note_on channel=0 note=48 velocity=32 time=0
note_on channel=0 note=48 velocity=0 time=0
note_on channel=0 note=52 velocity=34 time=0
note_on channel=0 note=52 velocity=0 time=0
note_on channel=0 note=91 velocity=50 time=0
note_on channel=0 note=79 velocity=50 time=0
note_on channel=0 note=55 velocity=31 time=0
note_on channel=0 note=55 velocity=0 time=120
note_on channel=0 note=48 velocity=31 time=0
note_on channel=0 note=48 velocity=0 time=120
note_on channel=0 note=79 velocity=0 time=0
note_on channel=0 note=91 velocity=0 time=0
note_on channel=0 note=52 velocity=31 time=0
note_on channel=0 note=52 velocity=0 time=120
note_on channel=0 note=55 velocity=35 time=0
note_on channel=0 note=55 velocity=0 time=0
note_on channel=0 note=91 velocity=54 time=0
note_on channel=0 note=79 velocity=54 time=0
note_on channel=0 note=60 velocity=30 time=0
note_on channel=0 note=60 velocity=0 time=120
note_on channel=0 note=52 velocity=31 time=0
note_on channel=0 note=52 velocity=0 time=120
note_on channel=0 note=55 velocity=33 time=0
note_on channel=0 note=55 velocity=0 time=120
note_on channel=0 note=60 velocity=36 time=0
note_on channel=0 note=60 velocity=0 time=120
note_on channel=0 note=64 velocity=33 time=0
note_on channel=0 note=64 velocity=0 time=120
note_on channel=0 note=55 velocity=33 time=0
note_on channel=0 note=55 velocity=0 time=120
note_on channel=0 note=79 velocity=0 time=0
note_on channel=0 note=91 velocity=0 time=0
note_on channel=0 note=88 velocity=47 time=0
note_on channel=0 note=76 velocity=47 time=0
note_on channel=0 note=60 velocity=33 time=0
note_on channel=0 note=60 velocity=0 time=120
note_on channel=0 note=64 velocity=36 time=0
note_on channel=0 note=64 velocity=0 time=0
note_on channel=0 note=76 velocity=0 time=0
note_on channel=0 note=88 velocity=0 time=0
note_on channel=0 note=86 velocity=50 time=0
note_on channel=0 note=74 velocity=50 time=0
note_on channel=0 note=65 velocity=28 time=0
note_on channel=0 note=65 velocity=0 time=63
note_on channel=0 note=64 velocity=31 time=0
note_on channel=0 note=64 velocity=0 time=120
note_on channel=0 note=62 velocity=33 time=0
note_on channel=0 note=62 velocity=0 time=120
note_on channel=0 note=60 velocity=36 time=0
note_on channel=0 note=60 velocity=0 time=0
note_on channel=0 note=74 velocity=0 time=0
note_on channel=0 note=86 velocity=0 time=0
note_on channel=0 note=79 velocity=41 time=0
note_on channel=0 note=67 velocity=41 time=0
note_on channel=0 note=59 velocity=33 time=0
note_on channel=0 note=59 velocity=0 time=120
note_on channel=0 note=57 velocity=33 time=0
note_on channel=0 note=57 velocity=0 time=120
note_on channel=0 note=55 velocity=34 time=0
note_on channel=0 note=55 velocity=0 time=120
note_on channel=0 note=53 velocity=34 time=0
note_on channel=0 note=53 velocity=0 time=0
note_on channel=0 note=67 velocity=0 time=0
note_on channel=0 note=79 velocity=0 time=0
note_on channel=0 note=84 velocity=50 time=0
note_on channel=0 note=72 velocity=50 time=0
note_on channel=0 note=52 velocity=28 time=0
note_on channel=0 note=52 velocity=0 time=42
note_on channel=0 note=55 velocity=30 time=0
note_on channel=0 note=55 velocity=0 time=120
note_on channel=0 note=48 velocity=32 time=0
note_on channel=0 note=48 velocity=0 time=120
note_on channel=0 note=52 velocity=34 time=0
note_on channel=0 note=52 velocity=0 time=120
note_on channel=0 note=72 velocity=0 time=0
note_on channel=0 note=84 velocity=0 time=0
note_on channel=0 note=88 velocity=47 time=0
note_on channel=0 note=76 velocity=47 time=0
note_on channel=0 note=43 velocity=32 time=0
note_on channel=0 note=43 velocity=0 time=120
note_on channel=0 note=48 velocity=32 time=0
note_on channel=0 note=48 velocity=0 time=120
note_on channel=0 note=76 velocity=0 time=0
note_on channel=0 note=88 velocity=0 time=0
note_on channel=0 note=40 velocity=33 time=0
note_on channel=0 note=40 velocity=0 time=0
note_on channel=0 note=43 velocity=34 time=0
note_on channel=0 note=43 velocity=0 time=0
note_on channel=0 note=36 velocity=50 time=0
note_on channel=0 note=36 velocity=0 time=0
note_on channel=0 note=43 velocity=30 time=0
note_on channel=0 note=43 velocity=0 time=40
note_on channel=0 note=48 velocity=32 time=0
note_on channel=0 note=48 velocity=0 time=40
note_on channel=0 note=52 velocity=34 time=0
note_on channel=0 note=52 velocity=0 time=0
note_on channel=0 note=91 velocity=50 time=0
note_on channel=0 note=79 velocity=50 time=0
note_on channel=0 note=55 velocity=31 time=0
note_on channel=0 note=55 velocity=0 time=120
note_on channel=0 note=48 velocity=31 time=0
note_on channel=0 note=48 velocity=0 time=120
note_on channel=0 note=79 velocity=0 time=0
note_on channel=0 note=91 velocity=0 time=0
note_on channel=0 note=52 velocity=31 time=0
note_on channel=0 note=52 velocity=0 time=120
note_on channel=0 note=55 velocity=35 time=0
note_on channel=0 note=55 velocity=0 time=0
note_on channel=0 note=91 velocity=54 time=0
note_on channel=0 note=79 velocity=54 time=0
note_on channel=0 note=60 velocity=30 time=0
note_on channel=0 note=60 velocity=0 time=120
note_on channel=0 note=52 velocity=31 time=0
note_on channel=0 note=52 velocity=0 time=120
note_on channel=0 note=55 velocity=33 time=0
note_on channel=0 note=55 velocity=0 time=120
note_on channel=0 note=60 velocity=36 time=0
note_on channel=0 note=60 velocity=0 time=120
note_on channel=0 note=64 velocity=33 time=0
note_on channel=0 note=64 velocity=0 time=120
note_on channel=0 note=55 velocity=33 time=0
note_on channel=0 note=55 velocity=0 time=120
note_on channel=0 note=79 velocity=0 time=0
note_on channel=0 note=91 velocity=0 time=0
note_on channel=0 note=88 velocity=47 time=0
note_on channel=0 note=76 velocity=47 time=0
note_on channel=0 note=60 velocity=33 time=0
note_on channel=0 note=60 velocity=0 time=120
note_on channel=0 note=64 velocity=33 time=0
note_on channel=0 note=64 velocity=0 time=0
note_on channel=0 note=76 velocity=0 time=0
note_on channel=0 note=88 velocity=0 time=0
note_on channel=0 note=86 velocity=50 time=0
note_on channel=0 note=74 velocity=50 time=0
note_on channel=0 note=65 velocity=28 time=0
note_on channel=0 note=65 velocity=0 time=56
note_on channel=0 note=64 velocity=31 time=0
note_on channel=0 note=64 velocity=0 time=120
note_on channel=0 note=62 velocity=33 time=0
note_on channel=0 note=62 velocity=0 time=120
note_on channel=0 note=60 velocity=36 time=0
note_on channel=0 note=60 velocity=0 time=0
note_on channel=0 note=74 velocity=0 time=0
note_on channel=0 note=86 velocity=0 time=0
note_on channel=0 note=79 velocity=41 time=0
note_on channel=0 note=67 velocity=41 time=0
note_on channel=0 note=59 velocity=33 time=0
note_on channel=0 note=59 velocity=0 time=120
note_on channel=0 note=55 velocity=33 time=0
note_on channel=0 note=55 velocity=0 time=120
note_on channel=0 note=57 velocity=34 time=0
note_on channel=0 note=57 velocity=0 time=120
note_on channel=0 note=59 velocity=34 time=0
note_on channel=0 note=59 velocity=0 time=0
note_on channel=0 note=67 velocity=0 time=0
note_on channel=0 note=79 velocity=0 time=0
note_on channel=0 note=84 velocity=50 time=0
note_on channel=0 note=72 velocity=50 time=0
note_on channel=0 note=60 velocity=28 time=0
note_on channel=0 note=60 velocity=0 time=70
note_on channel=0 note=59 velocity=30 time=0
note_on channel=0 note=59 velocity=0 time=120
note_on channel=0 note=72 velocity=0 time=0
note_on channel=0 note=84 velocity=0 time=0
note_on channel=0 note=57 velocity=32 time=0
note_on channel=0 note=57 velocity=0 time=120
note_on channel=0 note=55 velocity=34 time=0
note_on channel=0 note=55 velocity=0 time=120
note_on channel=0 note=53 velocity=32 time=0
note_on channel=0 note=53 velocity=0 time=120
note_on channel=0 note=52 velocity=32 time=0
note_on channel=0 note=52 velocity=0 time=120
note_on channel=0 note=50 velocity=33 time=0
note_on channel=0 note=50 velocity=0 time=0
note_on channel=0 note=48 velocity=35 time=0
note_on channel=0 note=48 velocity=0 time=0
note_on channel=0 note=43 velocity=45 time=0
note_on channel=0 note=43 velocity=0 time=0
note_on channel=0 note=47 velocity=30 time=0
note_on channel=0 note=47 velocity=0 time=0
note_on channel=0 note=50 velocity=32 time=0
note_on channel=0 note=50 velocity=0 time=0
note_on channel=0 note=55 velocity=34 time=0
note_on channel=0 note=55 velocity=0 time=0
note_on channel=0 note=89 velocity=50 time=0
note_on channel=0 note=77 velocity=50 time=0
note_on channel=0 note=47 velocity=31 time=0
note_on channel=0 note=47 velocity=0 time=120
note_on channel=0 note=50 velocity=31 time=0
note_on channel=0 note=50 velocity=0 time=120
note_on channel=0 note=77 velocity=0 time=0
note_on channel=0 note=89 velocity=0 time=0
note_on channel=0 note=55 velocity=31 time=0
note_on channel=0 note=55 velocity=0 time=120
note_on channel=0 note=59 velocity=35 time=0
note_on channel=0 note=59 velocity=0 time=0
note_on channel=0 note=89 velocity=54 time=0
note_on channel=0 note=77 velocity=54 time=0
note_on channel=0 note=50 velocity=30 time=0
note_on channel=0 note=50 velocity=0 time=120
note_on channel=0 note=55 velocity=31 time=0
note_on channel=0 note=55 velocity=0 time=120
note_on channel=0 note=59 velocity=33 time=0
note_on channel=0 note=59 velocity=0 time=120
note_on channel=0 note=62 velocity=36 time=0
note_on channel=0 note=62 velocity=0 time=120
note_on channel=0 note=55 velocity=33 time=0
note_on channel=0 note=55 velocity=0 time=120
note_on channel=0 note=59 velocity=33 time=0
note_on channel=0 note=59 velocity=0 time=120
note_on channel=0 note=77 velocity=0 time=0
note_on channel=0 note=89 velocity=0 time=0
note_on channel=0 note=86 velocity=47 time=0
note_on channel=0 note=74 velocity=47 time=0
note_on channel=0 note=62 velocity=33 time=0
note_on channel=0 note=62 velocity=0 time=120
note_on channel=0 note=67 velocity=36 time=0
note_on channel=0 note=67 velocity=0 time=0
note_on channel=0 note=74 velocity=0 time=0
note_on channel=0 note=86 velocity=0 time=0
note_on channel=0 note=88 velocity=50 time=0
note_on channel=0 note=76 velocity=50 time=0
note_on channel=0 note=55 velocity=28 time=0
note_on channel=0 note=55 velocity=0 time=28
note_on channel=0 note=60 velocity=31 time=0
note_on channel=0 note=60 velocity=0 time=120
note_on channel=0 note=67 velocity=33 time=0
note_on channel=0 note=67 velocity=0 time=120
note_on channel=0 note=60 velocity=36 time=0
note_on channel=0 note=60 velocity=0 time=0
note_on channel=0 note=76 velocity=0 time=0
note_on channel=0 note=88 velocity=0 time=0
note_on channel=0 note=84 velocity=41 time=0
note_on channel=0 note=72 velocity=41 time=0
note_on channel=0 note=55 velocity=28 time=0
note_on channel=0 note=55 velocity=0 time=120
note_on channel=0 note=64 velocity=31 time=0
note_on channel=0 note=64 velocity=0 time=120
note_on channel=0 note=67 velocity=33 time=0
note_on channel=0 note=67 velocity=0 time=120
note_on channel=0 note=64 velocity=36 time=0
note_on channel=0 note=64 velocity=0 time=0
note_on channel=0 note=72 velocity=0 time=0
note_on channel=0 note=84 velocity=0 time=0
note_on channel=0 note=83 velocity=50 time=0
note_on channel=0 note=71 velocity=50 time=0
note_on channel=0 note=55 velocity=28 time=0
note_on channel=0 note=55 velocity=0 time=49
note_on channel=0 note=62 velocity=30 time=0
note_on channel=0 note=62 velocity=0 time=120
note_on channel=0 note=67 velocity=32 time=0
note_on channel=0 note=67 velocity=0 time=120
note_on channel=0 note=62 velocity=36 time=0
note_on channel=0 note=62 velocity=0 time=120
note_on channel=0 note=71 velocity=0 time=0
note_on channel=0 note=83 velocity=0 time=0
note_on channel=0 note=86 velocity=47 time=0
note_on channel=0 note=74 velocity=47 time=0
note_on channel=0 note=55 velocity=28 time=0
note_on channel=0 note=55 velocity=0 time=120
note_on channel=0 note=59 velocity=30 time=0
note_on channel=0 note=59 velocity=0 time=120
note_on channel=0 note=74 velocity=0 time=0
note_on channel=0 note=86 velocity=0 time=0
note_on channel=0 note=67 velocity=32 time=0
note_on channel=0 note=67 velocity=0 time=0
note_on channel=0 note=59 velocity=35 time=0
note_on channel=0 note=59 velocity=0 time=0
note_on channel=0 note=43 velocity=48 time=0
note_on channel=0 note=43 velocity=0 time=0
note_on channel=0 note=47 velocity=30 time=0
note_on channel=0 note=47 velocity=0 time=0
note_on channel=0 note=50 velocity=32 time=0
note_on channel=0 note=50 velocity=0 time=0
note_on channel=0 note=55 velocity=34 time=0
note_on channel=0 note=55 velocity=0 time=0
note_on channel=0 note=89 velocity=50 time=0
note_on channel=0 note=77 velocity=50 time=0
note_on channel=0 note=47 velocity=31 time=0
note_on channel=0 note=47 velocity=0 time=120
note_on channel=0 note=50 velocity=31 time=0
note_on channel=0 note=50 velocity=0 time=120
note_on channel=0 note=77 velocity=0 time=0
note_on channel=0 note=89 velocity=0 time=0
note_on channel=0 note=55 velocity=31 time=0
note_on channel=0 note=55 velocity=0 time=120
note_on channel=0 note=59 velocity=35 time=0
note_on channel=0 note=59 velocity=0 time=0
note_on channel=0 note=89 velocity=54 time=0
note_on channel=0 note=77 velocity=54 time=0
note_on channel=0 note=50 velocity=30 time=0
note_on channel=0 note=50 velocity=0 time=120
note_on channel=0 note=55 velocity=31 time=0
note_on channel=0 note=55 velocity=0 time=120
note_on channel=0 note=59 velocity=33 time=0
note_on channel=0 note=59 velocity=0 time=120
note_on channel=0 note=62 velocity=36 time=0
note_on channel=0 note=62 velocity=0 time=120
note_on channel=0 note=55 velocity=33 time=0
note_on channel=0 note=55 velocity=0 time=120
note_on channel=0 note=59 velocity=33 time=0
note_on channel=0 note=59 velocity=0 time=120
note_on channel=0 note=77 velocity=0 time=0
note_on channel=0 note=89 velocity=0 time=0
note_on channel=0 note=86 velocity=47 time=0
note_on channel=0 note=74 velocity=47 time=0
note_on channel=0 note=62 velocity=33 time=0
note_on channel=0 note=62 velocity=0 time=120
note_on channel=0 note=67 velocity=36 time=0
note_on channel=0 note=67 velocity=0 time=0
note_on channel=0 note=74 velocity=0 time=0
note_on channel=0 note=86 velocity=0 time=0
note_on channel=0 note=87 velocity=50 time=0
note_on channel=0 note=75 velocity=50 time=0
note_on channel=0 note=55 velocity=28 time=0
note_on channel=0 note=55 velocity=0 time=45
note_on channel=0 note=60 velocity=31 time=0
note_on channel=0 note=60 velocity=0 time=120
note_on channel=0 note=67 velocity=33 time=0
note_on channel=0 note=67 velocity=0 time=120
note_on channel=0 note=60 velocity=35 time=0
note_on channel=0 note=60 velocity=0 time=0
note_on channel=0 note=75 velocity=0 time=0
note_on channel=0 note=87 velocity=0 time=0
note_on channel=0 note=84 velocity=41 time=0
note_on channel=0 note=72 velocity=41 time=0
note_on channel=0 note=55 velocity=28 time=0
note_on channel=0 note=55 velocity=0 time=120
note_on channel=0 note=63 velocity=31 time=0
note_on channel=0 note=63 velocity=0 time=120
note_on channel=0 note=67 velocity=33 time=0
note_on channel=0 note=67 velocity=0 time=120
note_on channel=0 note=63 velocity=35 time=0
note_on channel=0 note=63 velocity=0 time=0
note_on channel=0 note=72 velocity=0 time=0
note_on channel=0 note=84 velocity=0 time=0
note_on channel=0 note=83 velocity=50 time=0
note_on channel=0 note=71 velocity=50 time=0
note_on channel=0 note=55 velocity=28 time=0
note_on channel=0 note=55 velocity=0 time=56
note_on channel=0 note=62 velocity=30 time=0
note_on channel=0 note=62 velocity=0 time=120
note_on channel=0 note=67 velocity=32 time=0
note_on channel=0 note=67 velocity=0 time=120
note_on channel=0 note=62 velocity=35 time=0
note_on channel=0 note=62 velocity=0 time=120
note_on channel=0 note=71 velocity=0 time=0
note_on channel=0 note=83 velocity=0 time=0
note_on channel=0 note=86 velocity=47 time=0
note_on channel=0 note=74 velocity=47 time=0
note_on channel=0 note=55 velocity=28 time=0
note_on channel=0 note=55 velocity=0 time=120
note_on channel=0 note=59 velocity=30 time=0
note_on channel=0 note=59 velocity=0 time=120
note_on channel=0 note=67 velocity=32 time=0
note_on channel=0 note=67 velocity=0 time=120
note_on channel=0 note=59 velocity=35 time=0
note_on channel=0 note=59 velocity=0 time=0
note_on channel=0 note=74 velocity=0 time=0
note_on channel=0 note=86 velocity=0 time=0
note_on channel=0 note=88 velocity=50 time=0
note_on channel=0 note=76 velocity=50 time=0
note_on channel=0 note=55 velocity=28 time=0
note_on channel=0 note=55 velocity=0 time=21
note_on channel=0 note=60 velocity=31 time=0
note_on channel=0 note=60 velocity=0 time=120
note_on channel=0 note=67 velocity=33 time=0
note_on channel=0 note=67 velocity=0 time=120
note_on channel=0 note=60 velocity=35 time=0
note_on channel=0 note=60 velocity=0 time=0
note_on channel=0 note=76 velocity=0 time=0
note_on channel=0 note=88 velocity=0 time=0
note_on channel=0 note=84 velocity=42 time=0
note_on channel=0 note=72 velocity=42 time=0
note_on channel=0 note=55 velocity=28 time=0
note_on channel=0 note=55 velocity=0 time=120
note_on channel=0 note=64 velocity=32 time=0
note_on channel=0 note=64 velocity=0 time=120
note_on channel=0 note=67 velocity=34 time=0
note_on channel=0 note=67 velocity=0 time=120
note_on channel=0 note=64 velocity=37 time=0
note_on channel=0 note=64 velocity=0 time=0
note_on channel=0 note=72 velocity=0 time=0
note_on channel=0 note=84 velocity=0 time=0
note_on channel=0 note=83 velocity=53 time=0
note_on channel=0 note=71 velocity=53 time=0
note_on channel=0 note=55 velocity=29 time=0
note_on channel=0 note=55 velocity=0 time=42
note_on channel=0 note=62 velocity=32 time=0
note_on channel=0 note=62 velocity=0 time=120
note_on channel=0 note=67 velocity=34 time=0
note_on channel=0 note=67 velocity=0 time=120
note_on channel=0 note=62 velocity=38 time=0
note_on channel=0 note=62 velocity=0 time=120
note_on channel=0 note=71 velocity=0 time=0
note_on channel=0 note=83 velocity=0 time=0
note_on channel=0 note=86 velocity=52 time=0
note_on channel=0 note=74 velocity=52 time=0
note_on channel=0 note=55 velocity=31 time=0
note_on channel=0 note=55 velocity=0 time=120
note_on channel=0 note=59 velocity=33 time=0
note_on channel=0 note=59 velocity=0 time=120
note_on channel=0 note=67 velocity=36 time=0
note_on channel=0 note=67 velocity=0 time=120
note_on channel=0 note=59 velocity=39 time=0
note_on channel=0 note=59 velocity=0 time=0
note_on channel=0 note=74 velocity=0 time=0
note_on channel=0 note=86 velocity=0 time=0
note_on channel=0 note=87 velocity=50 time=0
note_on channel=0 note=75 velocity=50 time=0
note_on channel=0 note=55 velocity=28 time=0
note_on channel=0 note=55 velocity=0 time=63
note_on channel=0 note=60 velocity=31 time=0
note_on channel=0 note=60 velocity=0 time=120
note_on channel=0 note=67 velocity=33 time=0
note_on channel=0 note=67 velocity=0 time=120
note_on channel=0 note=60 velocity=35 time=0
note_on channel=0 note=60 velocity=0 time=0
note_on channel=0 note=75 velocity=0 time=0
note_on channel=0 note=87 velocity=0 time=0
note_on channel=0 note=84 velocity=41 time=0
note_on channel=0 note=72 velocity=41 time=0
note_on channel=0 note=55 velocity=28 time=0
note_on channel=0 note=55 velocity=0 time=120
note_on channel=0 note=60 velocity=31 time=0
note_on channel=0 note=60 velocity=0 time=120
note_on channel=0 note=63 velocity=33 time=0
note_on channel=0 note=63 velocity=0 time=120
note_on channel=0 note=60 velocity=35 time=0
note_on channel=0 note=60 velocity=0 time=0
note_on channel=0 note=72 velocity=0 time=0
note_on channel=0 note=84 velocity=0 time=0
note_on channel=0 note=79 velocity=50 time=0
note_on channel=0 note=55 velocity=28 time=0
note_on channel=0 note=55 velocity=0 time=45
note_on channel=0 note=59 velocity=30 time=0
note_on channel=0 note=59 velocity=0 time=120
note_on channel=0 note=62 velocity=32 time=0
note_on channel=0 note=62 velocity=0 time=120
note_on channel=0 note=59 velocity=35 time=0
note_on channel=0 note=59 velocity=0 time=0
note_on channel=0 note=79 velocity=0 time=0
note_on channel=0 note=79 velocity=47 time=0
note_on channel=0 note=55 velocity=28 time=0
note_on channel=0 note=55 velocity=0 time=34
note_on channel=0 note=60 velocity=30 time=0
note_on channel=0 note=60 velocity=0 time=120
note_on channel=0 note=63 velocity=32 time=0
note_on channel=0 note=63 velocity=0 time=120
note_on channel=0 note=60 velocity=35 time=0
note_on channel=0 note=60 velocity=0 time=0
note_on channel=0 note=79 velocity=0 time=0
note_on channel=0 note=81 velocity=37 time=0
note_on channel=0 note=55 velocity=47 time=0
note_on channel=0 note=55 velocity=0 time=10
note_on channel=0 note=81 velocity=0 time=20
note_on channel=0 note=79 velocity=37 time=0
note_on channel=0 note=59 velocity=30 time=40
note_on channel=0 note=79 velocity=0 time=40
note_on channel=0 note=81 velocity=37 time=0
note_on channel=0 note=81 velocity=0 time=80
note_on channel=0 note=59 velocity=0 time=0
note_on channel=0 note=79 velocity=37 time=0
note_on channel=0 note=62 velocity=31 time=0
note_on channel=0 note=79 velocity=0 time=80
note_on channel=0 note=81 velocity=38 time=0
note_on channel=0 note=62 velocity=0 time=40
note_on channel=0 note=59 velocity=32 time=0
note_on channel=0 note=81 velocity=0 time=40
note_on channel=0 note=79 velocity=38 time=0
note_on channel=0 note=79 velocity=0 time=0
note_on channel=0 note=59 velocity=0 time=0
note_on channel=0 note=81 velocity=39 time=0
note_on channel=0 note=55 velocity=53 time=0
note_on channel=0 note=55 velocity=0 time=7
note_on channel=0 note=81 velocity=0 time=20
note_on channel=0 note=79 velocity=39 time=0
note_on channel=0 note=60 velocity=32 time=40
note_on channel=0 note=79 velocity=0 time=40
note_on channel=0 note=81 velocity=39 time=0
note_on channel=0 note=81 velocity=0 time=80
note_on channel=0 note=60 velocity=0 time=0
note_on channel=0 note=79 velocity=39 time=0
note_on channel=0 note=64 velocity=33 time=0
note_on channel=0 note=79 velocity=0 time=80
note_on channel=0 note=81 velocity=40 time=0
note_on channel=0 note=64 velocity=0 time=40
note_on channel=0 note=60 velocity=34 time=0
note_on channel=0 note=81 velocity=0 time=0
note_on channel=0 note=79 velocity=40 time=0
note_on channel=0 note=79 velocity=0 time=80
note_on channel=0 note=60 velocity=0 time=0
note_on channel=0 note=81 velocity=41 time=0
note_on channel=0 note=55 velocity=57 time=0
note_on channel=0 note=55 velocity=0 time=24
note_on channel=0 note=81 velocity=0 time=20
note_on channel=0 note=79 velocity=41 time=0
note_on channel=0 note=59 velocity=35 time=40
note_on channel=0 note=79 velocity=0 time=0
note_on channel=0 note=81 velocity=41 time=0
note_on channel=0 note=81 velocity=0 time=80
note_on channel=0 note=59 velocity=0 time=0
note_on channel=0 note=79 velocity=43 time=0
note_on channel=0 note=62 velocity=38 time=0
note_on channel=0 note=79 velocity=0 time=80
note_on channel=0 note=81 velocity=43 time=0
note_on channel=0 note=62 velocity=0 time=0
note_on channel=0 note=59 velocity=38 time=0
note_on channel=0 note=81 velocity=0 time=40
note_on channel=0 note=79 velocity=43 time=0
note_on channel=0 note=79 velocity=0 time=80
note_on channel=0 note=59 velocity=0 time=0
note_on channel=0 note=81 velocity=44 time=0
note_on channel=0 note=55 velocity=64 time=0
note_on channel=0 note=55 velocity=0 time=7
note_on channel=0 note=81 velocity=0 time=0
note_on channel=0 note=79 velocity=44 time=0
note_on channel=0 note=57 velocity=39 time=40
note_on channel=0 note=79 velocity=0 time=40
note_on channel=0 note=81 velocity=45 time=0
note_on channel=0 note=81 velocity=0 time=80
note_on channel=0 note=57 velocity=0 time=0
note_on channel=0 note=79 velocity=45 time=0
note_on channel=0 note=60 velocity=41 time=0
note_on channel=0 note=79 velocity=0 time=40
note_on channel=0 note=81 velocity=45 time=0
note_on channel=0 note=60 velocity=0 time=40
note_on channel=0 note=57 velocity=43 time=0
note_on channel=0 note=81 velocity=0 time=40
note_on channel=0 note=79 velocity=45 time=0
note_on channel=0 note=79 velocity=0 time=0
note_on channel=0 note=57 velocity=0 time=0
note_on channel=0 note=81 velocity=47 time=0
note_on channel=0 note=55 velocity=71 time=0
note_on channel=0 note=55 velocity=0 time=0
note_on channel=0 note=81 velocity=0 time=0
note_on channel=0 note=79 velocity=47 time=0
note_on channel=0 note=59 velocity=47 time=20
note_on channel=0 note=79 velocity=0 time=0
note_on channel=0 note=81 velocity=47 time=0
note_on channel=0 note=81 velocity=0 time=0
note_on channel=0 note=59 velocity=0 time=0
note_on channel=0 note=79 velocity=47 time=0
note_on channel=0 note=57 velocity=49 time=0
note_on channel=0 note=79 velocity=0 time=60
note_on channel=0 note=81 velocity=47 time=0
note_on channel=0 note=57 velocity=0 time=0
note_on channel=0 note=55 velocity=50 time=0
note_on channel=0 note=81 velocity=0 time=0
note_on channel=0 note=79 velocity=48 time=0
note_on channel=0 note=79 velocity=0 time=0
note_on channel=0 note=55 velocity=0 time=0
note_on channel=0 note=81 velocity=48 time=0
note_on channel=0 note=53 velocity=76 time=0
note_on channel=0 note=53 velocity=0 time=3
note_on channel=0 note=81 velocity=0 time=20
note_on channel=0 note=79 velocity=48 time=0
note_on channel=0 note=57 velocity=55 time=0
note_on channel=0 note=79 velocity=0 time=0
note_on channel=0 note=81 velocity=49 time=0
note_on channel=0 note=81 velocity=0 time=0
note_on channel=0 note=57 velocity=0 time=0
note_on channel=0 note=79 velocity=49 time=0
note_on channel=0 note=55 velocity=58 time=0
note_on channel=0 note=79 velocity=0 time=0
note_on channel=0 note=81 velocity=50 time=0
note_on channel=0 note=55 velocity=0 time=0
note_on channel=0 note=53 velocity=62 time=0
note_on channel=0 note=81 velocity=0 time=0
note_on channel=0 note=79 velocity=51 time=0
note_on channel=0 note=79 velocity=0 time=80
note_on channel=0 note=53 velocity=0 time=0
note_on channel=0 note=81 velocity=51 time=0
note_on channel=0 note=52 velocity=85 time=0
note_on channel=0 note=52 velocity=0 time=0
note_on channel=0 note=81 velocity=0 time=20
note_on channel=0 note=79 velocity=52 time=0
note_on channel=0 note=55 velocity=63 time=40
note_on channel=0 note=79 velocity=0 time=20
note_on channel=0 note=81 velocity=52 time=0
note_on channel=0 note=81 velocity=0 time=0
note_on channel=0 note=55 velocity=0 time=0
note_on channel=0 note=79 velocity=52 time=0
note_on channel=0 note=53 velocity=68 time=0
note_on channel=0 note=79 velocity=0 time=80
note_on channel=0 note=81 velocity=54 time=0
note_on channel=0 note=53 velocity=0 time=0
note_on channel=0 note=52 velocity=70 time=0
note_on channel=0 note=81 velocity=0 time=0
note_on channel=0 note=79 velocity=54 time=0
note_on channel=0 note=79 velocity=0 time=0
note_on channel=0 note=52 velocity=0 time=0
note_on channel=0 note=81 velocity=54 time=0
note_on channel=0 note=50 velocity=90 time=0
note_on channel=0 note=50 velocity=0 time=10
note_on channel=0 note=81 velocity=0 time=0
note_on channel=0 note=79 velocity=55 time=0
note_on channel=0 note=53 velocity=72 time=40
note_on channel=0 note=79 velocity=0 time=0
note_on channel=0 note=81 velocity=55 time=0
note_on channel=0 note=81 velocity=0 time=40
note_on channel=0 note=53 velocity=0 time=0
note_on channel=0 note=79 velocity=55 time=0
note_on channel=0 note=52 velocity=73 time=0
note_on channel=0 note=79 velocity=0 time=0
note_on channel=0 note=81 velocity=56 time=0
note_on channel=0 note=52 velocity=0 time=40
note_on channel=0 note=50 velocity=79 time=0
note_on channel=0 note=81 velocity=0 time=0
note_on channel=0 note=79 velocity=56 time=0
note_on channel=0 note=79 velocity=0 time=0
note_on channel=0 note=50 velocity=0 time=0
note_on channel=0 note=81 velocity=48 time=0
note_on channel=0 note=36 velocity=94 time=0
note_on channel=0 note=48 velocity=94 time=0
note_on channel=0 note=81 velocity=0 time=20
note_on channel=0 note=79 velocity=35 time=0
note_on channel=0 note=50 velocity=56 time=0
note_on channel=0 note=79 velocity=0 time=20
note_on channel=0 note=81 velocity=38 time=0
note_on channel=0 note=50 velocity=0 time=0
note_on channel=0 note=52 velocity=57 time=0
note_on channel=0 note=52 velocity=0 time=0
note_on channel=0 note=81 velocity=0 time=0
note_on channel=0 note=48 velocity=0 time=0
note_on channel=0 note=36 velocity=0 time=0
note_on channel=0 note=79 velocity=35 time=0
note_on channel=0 note=53 velocity=60 time=0
note_on channel=0 note=53 velocity=0 time=0
note_on channel=0 note=55 velocity=60 time=0
note_on channel=0 note=79 velocity=0 time=0
note_on channel=0 note=81 velocity=38 time=0
note_on channel=0 note=55 velocity=0 time=20
note_on channel=0 note=57 velocity=62 time=0
note_on channel=0 note=81 velocity=0 time=20
note_on channel=0 note=79 velocity=36 time=0
note_on channel=0 note=57 velocity=0 time=20
note_on channel=0 note=59 velocity=63 time=0
note_on channel=0 note=59 velocity=0 time=0
note_on channel=0 note=79 velocity=0 time=0
note_on channel=0 note=81 velocity=40 time=0
note_on channel=0 note=91 velocity=89 time=0
note_on channel=0 note=60 velocity=63 time=0
note_on channel=0 note=81 velocity=0 time=40
note_on channel=0 note=79 velocity=36 time=0
note_on channel=0 note=60 velocity=0 time=0
note_on channel=0 note=62 velocity=65 time=0
note_on channel=0 note=79 velocity=0 time=0
note_on channel=0 note=81 velocity=40 time=0
note_on channel=0 note=62 velocity=0 time=20
note_on channel=0 note=64 velocity=66 time=0
note_on channel=0 note=64 velocity=0 time=0
note_on channel=0 note=81 velocity=0 time=0
note_on channel=0 note=91 velocity=0 time=0
note_on channel=0 note=79 velocity=36 time=0
note_on channel=0 note=65 velocity=67 time=0
note_on channel=0 note=65 velocity=0 time=0
note_on channel=0 note=67 velocity=69 time=0
note_on channel=0 note=79 velocity=0 time=0
note_on channel=0 note=81 velocity=40 time=0
note_on channel=0 note=67 velocity=0 time=0
note_on channel=0 note=69 velocity=70 time=0
note_on channel=0 note=81 velocity=0 time=0
note_on channel=0 note=79 velocity=36 time=0
note_on channel=0 note=69 velocity=0 time=20
note_on channel=0 note=71 velocity=71 time=0
note_on channel=0 note=71 velocity=0 time=60
note_on channel=0 note=79 velocity=0 time=0
note_on channel=0 note=81 velocity=40 time=0
note_on channel=0 note=91 velocity=90 time=0
note_on channel=0 note=72 velocity=74 time=0
note_on channel=0 note=72 velocity=0 time=0
note_on channel=0 note=81 velocity=0 time=0
note_on channel=0 note=79 velocity=37 time=0
note_on channel=0 note=71 velocity=71 time=0
note_on channel=0 note=79 velocity=0 time=0
note_on channel=0 note=81 velocity=40 time=0
note_on channel=0 note=71 velocity=0 time=0
note_on channel=0 note=81 velocity=0 time=0
note_on channel=0 note=79 velocity=36 time=0
note_on channel=0 note=69 velocity=71 time=0
note_on channel=0 note=69 velocity=0 time=0
note_on channel=0 note=79 velocity=0 time=0
note_on channel=0 note=81 velocity=40 time=0
note_on channel=0 note=67 velocity=71 time=0
note_on channel=0 note=81 velocity=0 time=20
note_on channel=0 note=79 velocity=36 time=0
note_on channel=0 note=67 velocity=0 time=20
note_on channel=0 note=79 velocity=0 time=0
note_on channel=0 note=81 velocity=40 time=0
note_on channel=0 note=65 velocity=72 time=0
note_on channel=0 note=65 velocity=0 time=0
note_on channel=0 note=81 velocity=0 time=20
note_on channel=0 note=79 velocity=35 time=0
note_on channel=0 note=64 velocity=69 time=0
note_on channel=0 note=79 velocity=0 time=0
note_on channel=0 note=81 velocity=38 time=0
note_on channel=0 note=64 velocity=0 time=20
note_on channel=0 note=81 velocity=0 time=0
note_on channel=0 note=91 velocity=0 time=0
note_on channel=0 note=79 velocity=33 time=0
note_on channel=0 note=88 velocity=85 time=0
note_on channel=0 note=62 velocity=69 time=0
note_on channel=0 note=62 velocity=0 time=40
note_on channel=0 note=79 velocity=0 time=20
note_on channel=0 note=81 velocity=38 time=0
note_on channel=0 note=60 velocity=67 time=0
note_on channel=0 note=81 velocity=0 time=40
note_on channel=0 note=79 velocity=34 time=0
note_on channel=0 note=60 velocity=0 time=0
note_on channel=0 note=79 velocity=0 time=0
note_on channel=0 note=88 velocity=0 time=0
note_on channel=0 note=81 velocity=38 time=0
note_on channel=0 note=86 velocity=90 time=0
note_on channel=0 note=59 velocity=73 time=0
note_on channel=0 note=59 velocity=0 time=0
note_on channel=0 note=81 velocity=0 time=20
note_on channel=0 note=79 velocity=34 time=0
note_on channel=0 note=60 velocity=69 time=0
note_on channel=0 note=79 velocity=0 time=0
note_on channel=0 note=81 velocity=36 time=0
note_on channel=0 note=60 velocity=0 time=0
note_on channel=0 note=81 velocity=0 time=0
note_on channel=0 note=79 velocity=33 time=0
note_on channel=0 note=59 velocity=69 time=0
note_on channel=0 note=59 velocity=0 time=40
note_on channel=0 note=79 velocity=0 time=0
note_on channel=0 note=81 velocity=37 time=0
note_on channel=0 note=57 velocity=69 time=0
note_on channel=0 note=81 velocity=0 time=0
note_on channel=0 note=79 velocity=33 time=0
note_on channel=0 note=57 velocity=0 time=0
note_on channel=0 note=79 velocity=0 time=20
note_on channel=0 note=86 velocity=0 time=0
note_on channel=0 note=81 velocity=37 time=0
note_on channel=0 note=79 velocity=84 time=0
note_on channel=0 note=55 velocity=75 time=0
note_on channel=0 note=55 velocity=0 time=0
note_on channel=0 note=79 velocity=0 time=10
note_on channel=0 note=81 velocity=0 time=0
note_on channel=0 note=79 velocity=33 time=0
note_on channel=0 note=53 velocity=69 time=0
note_on channel=0 note=79 velocity=0 time=0
note_on channel=0 note=81 velocity=38 time=0
note_on channel=0 note=53 velocity=0 time=0
note_on channel=0 note=81 velocity=0 time=0
note_on channel=0 note=79 velocity=32 time=0
note_on channel=0 note=52 velocity=69 time=0
note_on channel=0 note=52 velocity=0 time=0
note_on channel=0 note=79 velocity=0 time=0
note_on channel=0 note=81 velocity=37 time=0
note_on channel=0 note=50 velocity=69 time=20
note_on channel=0 note=81 velocity=0 time=20
note_on channel=0 note=79 velocity=32 time=0
note_on channel=0 note=50 velocity=0 time=20
note_on channel=0 note=79 velocity=0 time=0
note_on channel=0 note=81 velocity=38 time=0
note_on channel=0 note=84 velocity=87 time=0
note_on channel=0 note=48 velocity=75 time=0
note_on channel=0 note=48 velocity=0 time=0
note_on channel=0 note=81 velocity=0 time=0
note_on channel=0 note=79 velocity=32 time=0
note_on channel=0 note=48 velocity=69 time=40
note_on channel=0 note=79 velocity=0 time=0
note_on channel=0 note=81 velocity=37 time=0
note_on channel=0 note=48 velocity=0 time=0
note_on channel=0 note=81 velocity=0 time=20
note_on channel=0 note=79 velocity=32 time=0
note_on channel=0 note=47 velocity=69 time=0
note_on channel=0 note=47 velocity=0 time=0
note_on channel=0 note=79 velocity=0 time=0
note_on channel=0 note=81 velocity=36 time=0
note_on channel=0 note=45 velocity=69 time=20
note_on channel=0 note=81 velocity=0 time=40
note_on channel=0 note=79 velocity=32 time=0
note_on channel=0 note=45 velocity=0 time=20
note_on channel=0 note=79 velocity=0 time=0
note_on channel=0 note=84 velocity=0 time=0
note_on channel=0 note=81 velocity=36 time=0
note_on channel=0 note=88 velocity=84 time=0
note_on channel=0 note=43 velocity=72 time=0
note_on channel=0 note=43 velocity=0 time=0
note_on channel=0 note=81 velocity=0 time=0
note_on channel=0 note=79 velocity=34 time=0
note_on channel=0 note=41 velocity=71 time=40
note_on channel=0 note=79 velocity=0 time=0
note_on channel=0 note=81 velocity=37 time=0
note_on channel=0 note=41 velocity=0 time=0
note_on channel=0 note=81 velocity=0 time=40
note_on channel=0 note=88 velocity=0 time=0
note_on channel=0 note=79 velocity=33 time=0
note_on channel=0 note=40 velocity=75 time=0
note_on channel=0 note=40 velocity=0 time=40
note_on channel=0 note=79 velocity=0 time=20
note_on channel=0 note=81 velocity=36 time=0
note_on channel=0 note=38 velocity=80 time=0
note_on channel=0 note=81 velocity=0 time=40
note_on channel=0 note=79 velocity=32 time=0
note_on channel=0 note=38 velocity=0 time=20
note_on channel=0 note=79 velocity=0 time=0
note_on channel=0 note=81 velocity=36 time=0
note_on channel=0 note=36 velocity=95 time=0
note_on channel=0 note=48 velocity=95 time=0
note_on channel=0 note=81 velocity=0 time=0
note_on channel=0 note=79 velocity=32 time=0
note_on channel=0 note=50 velocity=56 time=20
note_on channel=0 note=79 velocity=0 time=0
note_on channel=0 note=81 velocity=37 time=0
note_on channel=0 note=50 velocity=0 time=20
note_on channel=0 note=52 velocity=57 time=0
note_on channel=0 note=52 velocity=0 time=0
note_on channel=0 note=81 velocity=0 time=0
note_on channel=0 note=48 velocity=0 time=0
note_on channel=0 note=36 velocity=0 time=0
note_on channel=0 note=79 velocity=33 time=0
note_on channel=0 note=53 velocity=60 time=0
note_on channel=0 note=53 velocity=0 time=0
note_on channel=0 note=55 velocity=60 time=0
note_on channel=0 note=79 velocity=0 time=0
note_on channel=0 note=81 velocity=38 time=0
note_on channel=0 note=55 velocity=0 time=20
note_on channel=0 note=57 velocity=62 time=0
note_on channel=0 note=81 velocity=0 time=40
note_on channel=0 note=79 velocity=33 time=0
note_on channel=0 note=57 velocity=0 time=0
note_on channel=0 note=59 velocity=63 time=0
note_on channel=0 note=59 velocity=0 time=0
note_on channel=0 note=79 velocity=0 time=0
note_on channel=0 note=81 velocity=39 time=0
note_on channel=0 note=91 velocity=90 time=0
note_on channel=0 note=60 velocity=63 time=0
note_on channel=0 note=81 velocity=0 time=0
note_on channel=0 note=79 velocity=35 time=0
note_on channel=0 note=60 velocity=0 time=0
note_on channel=0 note=62 velocity=65 time=0
note_on channel=0 note=79 velocity=0 time=0
note_on channel=0 note=81 velocity=40 time=0
note_on channel=0 note=62 velocity=0 time=20
note_on channel=0 note=64 velocity=66 time=0
note_on channel=0 note=64 velocity=0 time=0
note_on channel=0 note=81 velocity=0 time=0
note_on channel=0 note=91 velocity=0 time=0
note_on channel=0 note=79 velocity=36 time=0
note_on channel=0 note=65 velocity=67 time=0
note_on channel=0 note=65 velocity=0 time=0
note_on channel=0 note=67 velocity=69 time=0
note_on channel=0 note=79 velocity=0 time=0
note_on channel=0 note=81 velocity=40 time=0
note_on channel=0 note=67 velocity=0 time=40
note_on channel=0 note=69 velocity=70 time=0
note_on channel=0 note=81 velocity=0 time=0
note_on channel=0 note=79 velocity=36 time=0
note_on channel=0 note=69 velocity=0 time=20
note_on channel=0 note=71 velocity=71 time=0
note_on channel=0 note=71 velocity=0 time=0
note_on channel=0 note=79 velocity=0 time=0
note_on channel=0 note=81 velocity=40 time=0
note_on channel=0 note=91 velocity=92 time=0
note_on channel=0 note=72 velocity=74 time=0
note_on channel=0 note=72 velocity=0 time=0
note_on channel=0 note=81 velocity=0 time=20
note_on channel=0 note=79 velocity=37 time=0
note_on channel=0 note=71 velocity=71 time=0
note_on channel=0 note=79 velocity=0 time=0
note_on channel=0 note=81 velocity=40 time=0
note_on channel=0 note=71 velocity=0 time=20
note_on channel=0 note=81 velocity=0 time=0
note_on channel=0 note=79 velocity=36 time=0
note_on channel=0 note=69 velocity=71 time=0
note_on channel=0 note=69 velocity=0 time=0
note_on channel=0 note=79 velocity=0 time=0
note_on channel=0 note=81 velocity=40 time=0
note_on channel=0 note=67 velocity=71 time=0
note_on channel=0 note=81 velocity=0 time=0
note_on channel=0 note=79 velocity=36 time=0
note_on channel=0 note=67 velocity=0 time=0
note_on channel=0 note=79 velocity=0 time=0
note_on channel=0 note=81 velocity=39 time=0
note_on channel=0 note=65 velocity=72 time=0
note_on channel=0 note=65 velocity=0 time=0
note_on channel=0 note=81 velocity=0 time=0
note_on channel=0 note=79 velocity=36 time=0
note_on channel=0 note=64 velocity=69 time=40
note_on channel=0 note=79 velocity=0 time=0
note_on channel=0 note=81 velocity=38 time=0
note_on channel=0 note=64 velocity=0 time=0
note_on channel=0 note=81 velocity=0 time=20
note_on channel=0 note=91 velocity=0 time=0
note_on channel=0 note=79 velocity=32 time=0
note_on channel=0 note=88 velocity=84 time=0
note_on channel=0 note=62 velocity=69 time=0
note_on channel=0 note=62 velocity=0 time=0
note_on channel=0 note=79 velocity=0 time=0
note_on channel=0 note=81 velocity=37 time=0
note_on channel=0 note=60 velocity=67 time=40
note_on channel=0 note=81 velocity=0 time=20
note_on channel=0 note=79 velocity=33 time=0
note_on channel=0 note=60 velocity=0 time=20
note_on channel=0 note=79 velocity=0 time=0
note_on channel=0 note=88 velocity=0 time=0
note_on channel=0 note=81 velocity=39 time=0
note_on channel=0 note=86 velocity=90 time=0
note_on channel=0 note=59 velocity=73 time=0
note_on channel=0 note=59 velocity=0 time=0
note_on channel=0 note=81 velocity=0 time=20
note_on channel=0 note=79 velocity=32 time=0
note_on channel=0 note=60 velocity=69 time=20
note_on channel=0 note=79 velocity=0 time=0
note_on channel=0 note=81 velocity=36 time=0
note_on channel=0 note=60 velocity=0 time=20
note_on channel=0 note=81 velocity=0 time=20
note_on channel=0 note=79 velocity=31 time=0
note_on channel=0 note=59 velocity=69 time=0
note_on channel=0 note=59 velocity=0 time=0
note_on channel=0 note=79 velocity=0 time=20
note_on channel=0 note=81 velocity=36 time=0
note_on channel=0 note=57 velocity=69 time=0
note_on channel=0 note=81 velocity=0 time=20
note_on channel=0 note=79 velocity=30 time=0
note_on channel=0 note=57 velocity=0 time=20
note_on channel=0 note=79 velocity=0 time=40
note_on channel=0 note=86 velocity=0 time=0
note_on channel=0 note=81 velocity=36 time=0
note_on channel=0 note=79 velocity=82 time=0
note_on channel=0 note=55 velocity=75 time=0
note_on channel=0 note=55 velocity=0 time=0
note_on channel=0 note=79 velocity=0 time=10
note_on channel=0 note=81 velocity=0 time=0
note_on channel=0 note=79 velocity=31 time=0
note_on channel=0 note=53 velocity=69 time=40
note_on channel=0 note=79 velocity=0 time=0
note_on channel=0 note=81 velocity=36 time=0
note_on channel=0 note=53 velocity=0 time=0
note_on channel=0 note=81 velocity=0 time=0
note_on channel=0 note=79 velocity=34 time=0
note_on channel=0 note=52 velocity=69 time=0
note_on channel=0 note=52 velocity=0 time=0
note_on channel=0 note=79 velocity=0 time=0
note_on channel=0 note=78 velocity=36 time=0
note_on channel=0 note=50 velocity=69 time=40
note_on channel=0 note=78 velocity=0 time=0
note_on channel=0 note=79 velocity=31 time=0
note_on channel=0 note=50 velocity=0 time=20
note_on channel=0 note=79 velocity=0 time=0
note_on channel=0 note=84 velocity=86 time=0
note_on channel=0 note=48 velocity=75 time=0
note_on channel=0 note=48 velocity=0 time=0
note_on channel=0 note=84 velocity=0 time=0
note_on channel=0 note=31 velocity=77 time=0
note_on channel=0 note=43 velocity=77 time=0
note_on channel=0 note=43 velocity=0 time=120
note_on channel=0 note=31 velocity=0 time=0
note_on channel=0 note=55 velocity=67 time=0
note_on channel=0 note=55 velocity=0 time=0
note_on channel=0 note=39 velocity=62 time=0
note_on channel=0 note=51 velocity=74 time=0
note_on channel=0 note=51 velocity=0 time=120
note_on channel=0 note=39 velocity=0 time=0
note_on channel=0 note=63 velocity=62 time=0
note_on channel=0 note=63 velocity=0 time=120
note_on channel=0 note=38 velocity=62 time=0
note_on channel=0 note=50 velocity=74 time=0
note_on channel=0 note=50 velocity=0 time=120
note_on channel=0 note=38 velocity=0 time=0
note_on channel=0 note=62 velocity=62 time=0
note_on channel=0 note=62 velocity=0 time=0
note_on channel=0 note=36 velocity=65 time=0
note_on channel=0 note=48 velocity=77 time=0
note_on channel=0 note=48 velocity=0 time=120
note_on channel=0 note=36 velocity=0 time=0
note_on channel=0 note=60 velocity=65 time=0
note_on channel=0 note=60 velocity=0 time=120
note_on channel=0 note=31 velocity=61 time=0
note_on channel=0 note=43 velocity=72 time=0
note_on channel=0 note=43 velocity=0 time=120
note_on channel=0 note=31 velocity=0 time=0
note_on channel=0 note=55 velocity=61 time=0
note_on channel=0 note=55 velocity=0 time=0
note_on channel=0 note=33 velocity=62 time=0
note_on channel=0 note=45 velocity=73 time=0
note_on channel=0 note=45 velocity=0 time=120
note_on channel=0 note=33 velocity=0 time=0
note_on channel=0 note=57 velocity=62 time=0
note_on channel=0 note=57 velocity=0 time=0
note_on channel=0 note=35 velocity=62 time=0
note_on channel=0 note=47 velocity=73 time=0
note_on channel=0 note=47 velocity=0 time=120
note_on channel=0 note=35 velocity=0 time=0
note_on channel=0 note=59 velocity=62 time=0
note_on channel=0 note=59 velocity=0 time=0
note_on channel=0 note=36 velocity=65 time=0
note_on channel=0 note=48 velocity=77 time=0
note_on channel=0 note=48 velocity=0 time=120
note_on channel=0 note=36 velocity=0 time=0
note_on channel=0 note=60 velocity=65 time=0
note_on channel=0 note=60 velocity=0 time=120
note_on channel=0 note=36 velocity=61 time=0
note_on channel=0 note=48 velocity=72 time=0
note_on channel=0 note=48 velocity=0 time=120
note_on channel=0 note=36 velocity=0 time=0
note_on channel=0 note=60 velocity=61 time=0
note_on channel=0 note=60 velocity=0 time=0
note_on channel=0 note=44 velocity=66 time=0
note_on channel=0 note=56 velocity=78 time=0
note_on channel=0 note=56 velocity=0 time=120
note_on channel=0 note=44 velocity=0 time=0
note_on channel=0 note=68 velocity=66 time=0
note_on channel=0 note=68 velocity=0 time=120
note_on channel=0 note=43 velocity=62 time=0
note_on channel=0 note=55 velocity=73 time=0
note_on channel=0 note=55 velocity=0 time=120
note_on channel=0 note=43 velocity=0 time=0
note_on channel=0 note=67 velocity=62 time=0
note_on channel=0 note=67 velocity=0 time=0
note_on channel=0 note=41 velocity=68 time=0
note_on channel=0 note=53 velocity=80 time=0
note_on channel=0 note=53 velocity=0 time=120
note_on channel=0 note=41 velocity=0 time=0
note_on channel=0 note=65 velocity=68 time=0
note_on channel=0 note=65 velocity=0 time=120
note_on channel=0 note=36 velocity=63 time=0
note_on channel=0 note=48 velocity=75 time=0
note_on channel=0 note=48 velocity=0 time=120
note_on channel=0 note=36 velocity=0 time=0
note_on channel=0 note=60 velocity=63 time=0
note_on channel=0 note=60 velocity=0 time=20
note_on channel=0 note=38 velocity=63 time=0
note_on channel=0 note=50 velocity=75 time=0
note_on channel=0 note=50 velocity=0 time=80
note_on channel=0 note=38 velocity=0 time=0
note_on channel=0 note=62 velocity=63 time=0
note_on channel=0 note=62 velocity=0 time=0
note_on channel=0 note=40 velocity=63 time=0
note_on channel=0 note=52 velocity=75 time=0
note_on channel=0 note=52 velocity=0 time=120
note_on channel=0 note=40 velocity=0 time=0
note_on channel=0 note=64 velocity=63 time=0
note_on channel=0 note=64 velocity=0 time=120
note_on channel=0 note=41 velocity=66 time=0
note_on channel=0 note=53 velocity=78 time=0
note_on channel=0 note=53 velocity=0 time=120
note_on channel=0 note=41 velocity=0 time=0
note_on channel=0 note=65 velocity=66 time=0
note_on channel=0 note=65 velocity=0 time=120
note_on channel=0 note=41 velocity=62 time=0
note_on channel=0 note=53 velocity=74 time=0
note_on channel=0 note=53 velocity=0 time=120
note_on channel=0 note=41 velocity=0 time=0
note_on channel=0 note=65 velocity=62 time=0
note_on channel=0 note=65 velocity=0 time=0
note_on channel=0 note=49 velocity=68 time=0
note_on channel=0 note=61 velocity=80 time=0
note_on channel=0 note=61 velocity=0 time=120
note_on channel=0 note=49 velocity=0 time=0
note_on channel=0 note=73 velocity=68 time=0
note_on channel=0 note=73 velocity=0 time=120
note_on channel=0 note=48 velocity=64 time=0
note_on channel=0 note=60 velocity=76 time=0
note_on channel=0 note=60 velocity=0 time=120
note_on channel=0 note=48 velocity=0 time=0
note_on channel=0 note=72 velocity=64 time=0
note_on channel=0 note=72 velocity=0 time=0
note_on channel=0 note=46 velocity=68 time=0
note_on channel=0 note=58 velocity=80 time=0
note_on channel=0 note=58 velocity=0 time=120
note_on channel=0 note=46 velocity=0 time=0
note_on channel=0 note=70 velocity=68 time=0
note_on channel=0 note=70 velocity=0 time=120
note_on channel=0 note=44 velocity=62 time=0
note_on channel=0 note=56 velocity=73 time=0
note_on channel=0 note=56 velocity=0 time=120
note_on channel=0 note=44 velocity=0 time=0
note_on channel=0 note=68 velocity=62 time=0
note_on channel=0 note=68 velocity=0 time=120
note_on channel=0 note=43 velocity=62 time=0
note_on channel=0 note=55 velocity=74 time=0
note_on channel=0 note=55 velocity=0 time=120
note_on channel=0 note=43 velocity=0 time=0
note_on channel=0 note=67 velocity=62 time=0
note_on channel=0 note=67 velocity=0 time=120
note_on channel=0 note=41 velocity=62 time=0
note_on channel=0 note=53 velocity=74 time=0
note_on channel=0 note=53 velocity=0 time=120
note_on channel=0 note=41 velocity=0 time=0
note_on channel=0 note=65 velocity=62 time=0
note_on channel=0 note=65 velocity=0 time=120
note_on channel=0 note=39 velocity=69 time=0
note_on channel=0 note=51 velocity=82 time=0
note_on channel=0 note=51 velocity=0 time=120
note_on channel=0 note=39 velocity=0 time=0
note_on channel=0 note=63 velocity=69 time=0
note_on channel=0 note=63 velocity=0 time=120
note_on channel=0 note=49 velocity=75 time=0
note_on channel=0 note=49 velocity=0 time=120
note_on channel=0 note=63 velocity=63 time=0
note_on channel=0 note=63 velocity=0 time=0
note_on channel=0 note=48 velocity=75 time=0
note_on channel=0 note=48 velocity=0 time=120
note_on channel=0 note=51 velocity=40 time=0
note_on channel=0 note=55 velocity=40 time=0
note_on channel=0 note=63 velocity=63 time=0
note_on channel=0 note=63 velocity=0 time=120
note_on channel=0 note=55 velocity=0 time=0
note_on channel=0 note=51 velocity=0 time=0
note_on channel=0 note=46 velocity=75 time=0
note_on channel=0 note=46 velocity=0 time=120
note_on channel=0 note=53 velocity=40 time=0
note_on channel=0 note=56 velocity=50 time=0
note_on channel=0 note=63 velocity=63 time=0
note_on channel=0 note=63 velocity=0 time=0
note_on channel=0 note=56 velocity=0 time=0
note_on channel=0 note=53 velocity=0 time=0
note_on channel=0 note=44 velocity=84 time=0
note_on channel=0 note=44 velocity=0 time=120
note_on channel=0 note=55 velocity=44 time=0
note_on channel=0 note=58 velocity=56 time=0
note_on channel=0 note=63 velocity=71 time=0
note_on channel=0 note=63 velocity=0 time=80
note_on channel=0 note=58 velocity=0 time=0
note_on channel=0 note=55 velocity=0 time=0
note_on channel=0 note=43 velocity=76 time=0
note_on channel=0 note=43 velocity=0 time=80
note_on channel=0 note=56 velocity=40 time=0
note_on channel=0 note=60 velocity=51 time=0
note_on channel=0 note=63 velocity=64 time=0
note_on channel=0 note=63 velocity=0 time=80
note_on channel=0 note=60 velocity=0 time=0
note_on channel=0 note=56 velocity=0 time=0
note_on channel=0 note=41 velocity=76 time=0
note_on channel=0 note=41 velocity=0 time=80
note_on channel=0 note=58 velocity=40 time=0
note_on channel=0 note=61 velocity=51 time=0
note_on channel=0 note=63 velocity=64 time=0
note_on channel=0 note=63 velocity=0 time=80
note_on channel=0 note=61 velocity=0 time=0
note_on channel=0 note=58 velocity=0 time=0
note_on channel=0 note=39 velocity=76 time=0
note_on channel=0 note=39 velocity=0 time=80
note_on channel=0 note=55 velocity=40 time=0
note_on channel=0 note=58 velocity=51 time=0
note_on channel=0 note=63 velocity=64 time=0
note_on channel=0 note=63 velocity=0 time=0
note_on channel=0 note=58 velocity=0 time=0
note_on channel=0 note=55 velocity=0 time=0
note_on channel=0 note=60 velocity=82 time=0
note_on channel=0 note=44 velocity=84 time=0
note_on channel=0 note=44 velocity=0 time=0
note_on channel=0 note=60 velocity=0 time=0
note_on channel=0 note=55 velocity=79 time=0
note_on channel=0 note=67 velocity=79 time=0
note_on channel=0 note=35 velocity=63 time=0
note_on channel=0 note=35 velocity=0 time=80
note_on channel=0 note=33 velocity=56 time=0
note_on channel=0 note=67 velocity=0 time=40
note_on channel=0 note=55 velocity=0 time=0
note_on channel=0 note=33 velocity=0 time=40
note_on channel=0 note=35 velocity=57 time=0
note_on channel=0 note=35 velocity=0 time=0
note_on channel=0 note=63 velocity=62 time=0
note_on channel=0 note=75 velocity=74 time=0
note_on channel=0 note=36 velocity=57 time=0
note_on channel=0 note=36 velocity=0 time=80
note_on channel=0 note=39 velocity=58 time=0
note_on channel=0 note=75 velocity=0 time=40
note_on channel=0 note=63 velocity=0 time=0
note_on channel=0 note=39 velocity=0 time=40
note_on channel=0 note=41 velocity=59 time=0
note_on channel=0 note=41 velocity=0 time=80
note_on channel=0 note=62 velocity=62 time=0
note_on channel=0 note=74 velocity=74 time=0
note_on channel=0 note=43 velocity=60 time=0
note_on channel=0 note=43 velocity=0 time=80
note_on channel=0 note=45 velocity=62 time=0
note_on channel=0 note=74 velocity=0 time=40
note_on channel=0 note=62 velocity=0 time=0
note_on channel=0 note=45 velocity=0 time=40
note_on channel=0 note=47 velocity=63 time=0
note_on channel=0 note=47 velocity=0 time=0
note_on channel=0 note=60 velocity=65 time=0
note_on channel=0 note=72 velocity=77 time=0
note_on channel=0 note=48 velocity=60 time=0
note_on channel=0 note=48 velocity=0 time=80
note_on channel=0 note=50 velocity=62 time=0
note_on channel=0 note=72 velocity=0 time=40
note_on channel=0 note=60 velocity=0 time=0
note_on channel=0 note=50 velocity=0 time=40
note_on channel=0 note=51 velocity=63 time=0
note_on channel=0 note=51 velocity=0 time=80
note_on channel=0 note=55 velocity=61 time=0
note_on channel=0 note=67 velocity=72 time=0
note_on channel=0 note=53 velocity=65 time=0
note_on channel=0 note=53 velocity=0 time=80
note_on channel=0 note=51 velocity=63 time=0
note_on channel=0 note=67 velocity=0 time=40
note_on channel=0 note=55 velocity=0 time=0
note_on channel=0 note=51 velocity=0 time=40
note_on channel=0 note=50 velocity=62 time=0
note_on channel=0 note=50 velocity=0 time=0
note_on channel=0 note=57 velocity=62 time=0
note_on channel=0 note=69 velocity=73 time=0
note_on channel=0 note=48 velocity=63 time=0
note_on channel=0 note=48 velocity=0 time=80
note_on channel=0 note=50 velocity=62 time=0
note_on channel=0 note=69 velocity=0 time=40
note_on channel=0 note=57 velocity=0 time=0
note_on channel=0 note=50 velocity=0 time=40
note_on channel=0 note=51 velocity=63 time=0
note_on channel=0 note=51 velocity=0 time=0
note_on channel=0 note=59 velocity=62 time=0
note_on channel=0 note=71 velocity=73 time=0
note_on channel=0 note=53 velocity=65 time=0
note_on channel=0 note=53 velocity=0 time=80
note_on channel=0 note=51 velocity=64 time=0
note_on channel=0 note=71 velocity=0 time=40
note_on channel=0 note=59 velocity=0 time=0
note_on channel=0 note=51 velocity=0 time=40
note_on channel=0 note=50 velocity=63 time=0
note_on channel=0 note=50 velocity=0 time=0
note_on channel=0 note=60 velocity=65 time=0
note_on channel=0 note=72 velocity=77 time=0
note_on channel=0 note=48 velocity=68 time=0
note_on channel=0 note=72 velocity=0 time=120
note_on channel=0 note=60 velocity=0 time=0
note_on channel=0 note=48 velocity=0 time=120
note_on channel=0 note=60 velocity=61 time=0
note_on channel=0 note=72 velocity=72 time=0
note_on channel=0 note=40 velocity=63 time=0
note_on channel=0 note=40 velocity=0 time=80
note_on channel=0 note=38 velocity=56 time=0
note_on channel=0 note=72 velocity=0 time=40
note_on channel=0 note=60 velocity=0 time=0
note_on channel=0 note=38 velocity=0 time=40
note_on channel=0 note=40 velocity=56 time=0
note_on channel=0 note=40 velocity=0 time=0
note_on channel=0 note=68 velocity=66 time=0
note_on channel=0 note=80 velocity=78 time=0
note_on channel=0 note=41 velocity=54 time=0
note_on channel=0 note=41 velocity=0 time=80
note_on channel=0 note=44 velocity=56 time=0
note_on channel=0 note=80 velocity=0 time=40
note_on channel=0 note=68 velocity=0 time=0
note_on channel=0 note=44 velocity=0 time=40
note_on channel=0 note=46 velocity=58 time=0
note_on channel=0 note=46 velocity=0 time=80
note_on channel=0 note=67 velocity=62 time=0
note_on channel=0 note=79 velocity=73 time=0
note_on channel=0 note=48 velocity=60 time=0
note_on channel=0 note=48 velocity=0 time=80
note_on channel=0 note=50 velocity=62 time=0
note_on channel=0 note=79 velocity=0 time=40
note_on channel=0 note=67 velocity=0 time=0
note_on channel=0 note=50 velocity=0 time=40
note_on channel=0 note=52 velocity=63 time=0
note_on channel=0 note=52 velocity=0 time=0
note_on channel=0 note=65 velocity=68 time=0
note_on channel=0 note=77 velocity=80 time=0
note_on channel=0 note=53 velocity=65 time=0
note_on channel=0 note=53 velocity=0 time=80
note_on channel=0 note=55 velocity=65 time=0
note_on channel=0 note=77 velocity=0 time=40
note_on channel=0 note=65 velocity=0 time=0
note_on channel=0 note=55 velocity=0 time=40
note_on channel=0 note=56 velocity=66 time=0
note_on channel=0 note=56 velocity=0 time=80
note_on channel=0 note=60 velocity=63 time=0
note_on channel=0 note=72 velocity=75 time=0
note_on channel=0 note=58 velocity=68 time=0
note_on channel=0 note=58 velocity=0 time=80
note_on channel=0 note=56 velocity=65 time=0
note_on channel=0 note=72 velocity=0 time=40
note_on channel=0 note=60 velocity=0 time=0
note_on channel=0 note=56 velocity=0 time=40
note_on channel=0 note=55 velocity=63 time=0
note_on channel=0 note=55 velocity=0 time=20
note_on channel=0 note=62 velocity=63 time=0
note_on channel=0 note=74 velocity=75 time=0
note_on channel=0 note=53 velocity=60 time=0
note_on channel=0 note=53 velocity=0 time=40
note_on channel=0 note=55 velocity=62 time=0
note_on channel=0 note=74 velocity=0 time=40
note_on channel=0 note=62 velocity=0 time=0
note_on channel=0 note=55 velocity=0 time=40
note_on channel=0 note=56 velocity=64 time=0
note_on channel=0 note=56 velocity=0 time=0
note_on channel=0 note=64 velocity=63 time=0
note_on channel=0 note=76 velocity=75 time=0
note_on channel=0 note=58 velocity=66 time=0
note_on channel=0 note=58 velocity=0 time=80
note_on channel=0 note=56 velocity=64 time=0
note_on channel=0 note=76 velocity=0 time=40
note_on channel=0 note=64 velocity=0 time=0
note_on channel=0 note=56 velocity=0 time=40
note_on channel=0 note=55 velocity=63 time=0
note_on channel=0 note=55 velocity=0 time=80
note_on channel=0 note=65 velocity=66 time=0
note_on channel=0 note=77 velocity=78 time=0
note_on channel=0 note=53 velocity=67 time=0
note_on channel=0 note=77 velocity=0 time=120
note_on channel=0 note=65 velocity=0 time=0
note_on channel=0 note=53 velocity=0 time=120
note_on channel=0 note=65 velocity=62 time=0
note_on channel=0 note=77 velocity=74 time=0
note_on channel=0 note=45 velocity=63 time=0
note_on channel=0 note=45 velocity=0 time=80
note_on channel=0 note=43 velocity=58 time=0
note_on channel=0 note=77 velocity=0 time=40
note_on channel=0 note=65 velocity=0 time=0
note_on channel=0 note=43 velocity=0 time=0
note_on channel=0 note=45 velocity=58 time=0
note_on channel=0 note=45 velocity=0 time=0
note_on channel=0 note=73 velocity=68 time=0
note_on channel=0 note=85 velocity=80 time=0
note_on channel=0 note=46 velocity=63 time=0
note_on channel=0 note=46 velocity=0 time=80
note_on channel=0 note=48 velocity=58 time=0
note_on channel=0 note=85 velocity=0 time=40
note_on channel=0 note=73 velocity=0 time=0
note_on channel=0 note=48 velocity=0 time=40
note_on channel=0 note=46 velocity=58 time=0
note_on channel=0 note=46 velocity=0 time=80
note_on channel=0 note=72 velocity=64 time=0
note_on channel=0 note=84 velocity=76 time=0
note_on channel=0 note=45 velocity=63 time=0
note_on channel=0 note=45 velocity=0 time=80
note_on channel=0 note=43 velocity=60 time=0
note_on channel=0 note=84 velocity=0 time=40
note_on channel=0 note=72 velocity=0 time=0
note_on channel=0 note=43 velocity=0 time=40
note_on channel=0 note=45 velocity=60 time=0
note_on channel=0 note=45 velocity=0 time=0
note_on channel=0 note=70 velocity=68 time=0
note_on channel=0 note=82 velocity=80 time=0
note_on channel=0 note=46 velocity=59 time=0
note_on channel=0 note=46 velocity=0 time=80
note_on channel=0 note=45 velocity=59 time=0
note_on channel=0 note=82 velocity=0 time=40
note_on channel=0 note=70 velocity=0 time=0
note_on channel=0 note=45 velocity=0 time=40
note_on channel=0 note=46 velocity=60 time=0
note_on channel=0 note=46 velocity=0 time=80
note_on channel=0 note=68 velocity=62 time=0
note_on channel=0 note=80 velocity=73 time=0
note_on channel=0 note=48 velocity=61 time=0
note_on channel=0 note=48 velocity=0 time=80
note_on channel=0 note=47 velocity=59 time=0
note_on channel=0 note=80 velocity=0 time=40
note_on channel=0 note=68 velocity=0 time=0
note_on channel=0 note=47 velocity=0 time=40
note_on channel=0 note=48 velocity=59 time=0
note_on channel=0 note=48 velocity=0 time=80
note_on channel=0 note=67 velocity=62 time=0
note_on channel=0 note=79 velocity=74 time=0
note_on channel=0 note=49 velocity=63 time=0
note_on channel=0 note=49 velocity=0 time=80
note_on channel=0 note=48 velocity=61 time=0
note_on channel=0 note=79 velocity=0 time=40
note_on channel=0 note=67 velocity=0 time=0
note_on channel=0 note=48 velocity=0 time=40
note_on channel=0 note=49 velocity=61 time=0
note_on channel=0 note=49 velocity=0 time=80
note_on channel=0 note=65 velocity=62 time=0
note_on channel=0 note=77 velocity=74 time=0
note_on channel=0 note=50 velocity=64 time=0
note_on channel=0 note=50 velocity=0 time=80
note_on channel=0 note=48 velocity=62 time=0
note_on channel=0 note=77 velocity=0 time=40
note_on channel=0 note=65 velocity=0 time=0
note_on channel=0 note=48 velocity=0 time=40
note_on channel=0 note=50 velocity=62 time=0
note_on channel=0 note=50 velocity=0 time=80
note_on channel=0 note=63 velocity=69 time=0
note_on channel=0 note=75 velocity=82 time=0
note_on channel=0 note=51 velocity=67 time=0
note_on channel=0 note=51 velocity=0 time=80
note_on channel=0 note=53 velocity=63 time=0
note_on channel=0 note=75 velocity=0 time=40
note_on channel=0 note=63 velocity=0 time=0
note_on channel=0 note=53 velocity=0 time=40
note_on channel=0 note=51 velocity=63 time=0
note_on channel=0 note=51 velocity=0 time=80
note_on channel=0 note=63 velocity=63 time=0
note_on channel=0 note=75 velocity=75 time=0
note_on channel=0 note=49 velocity=67 time=0
note_on channel=0 note=49 velocity=0 time=80
note_on channel=0 note=51 velocity=63 time=0
note_on channel=0 note=75 velocity=0 time=40
note_on channel=0 note=63 velocity=0 time=0
note_on channel=0 note=51 velocity=0 time=40
note_on channel=0 note=49 velocity=63 time=0
note_on channel=0 note=49 velocity=0 time=0
note_on channel=0 note=63 velocity=60 time=0
note_on channel=0 note=67 velocity=60 time=0
note_on channel=0 note=75 velocity=75 time=0
note_on channel=0 note=48 velocity=66 time=0
note_on channel=0 note=48 velocity=0 time=80
note_on channel=0 note=49 velocity=63 time=0
note_on channel=0 note=63 velocity=0 time=40
note_on channel=0 note=75 velocity=0 time=0
note_on channel=0 note=67 velocity=0 time=0
note_on channel=0 note=49 velocity=0 time=40
note_on channel=0 note=48 velocity=63 time=0
note_on channel=0 note=48 velocity=0 time=80
note_on channel=0 note=65 velocity=60 time=0
note_on channel=0 note=68 velocity=60 time=0
note_on channel=0 note=75 velocity=75 time=0
note_on channel=0 note=46 velocity=66 time=0
note_on channel=0 note=46 velocity=0 time=80
note_on channel=0 note=48 velocity=62 time=0
note_on channel=0 note=65 velocity=0 time=40
note_on channel=0 note=75 velocity=0 time=0
note_on channel=0 note=68 velocity=0 time=0
note_on channel=0 note=48 velocity=0 time=40
note_on channel=0 note=46 velocity=62 time=0
note_on channel=0 note=46 velocity=0 time=0
note_on channel=0 note=67 velocity=67 time=0
note_on channel=0 note=70 velocity=67 time=0
note_on channel=0 note=75 velocity=84 time=0
note_on channel=0 note=44 velocity=64 time=0
note_on channel=0 note=44 velocity=0 time=80
note_on channel=0 note=46 velocity=62 time=0
note_on channel=0 note=67 velocity=0 time=40
note_on channel=0 note=75 velocity=0 time=0
note_on channel=0 note=70 velocity=0 time=0
note_on channel=0 note=46 velocity=0 time=0
note_on channel=0 note=44 velocity=62 time=0
note_on channel=0 note=44 velocity=0 time=80
note_on channel=0 note=68 velocity=60 time=0
note_on channel=0 note=72 velocity=60 time=0
note_on channel=0 note=75 velocity=76 time=0
note_on channel=0 note=43 velocity=64 time=0
note_on channel=0 note=43 velocity=0 time=40
note_on channel=0 note=44 velocity=61 time=0
note_on channel=0 note=68 velocity=0 time=40
note_on channel=0 note=75 velocity=0 time=0
note_on channel=0 note=72 velocity=0 time=0
note_on channel=0 note=44 velocity=0 time=0
note_on channel=0 note=43 velocity=61 time=0
note_on channel=0 note=43 velocity=0 time=80
note_on channel=0 note=70 velocity=60 time=0
note_on channel=0 note=73 velocity=60 time=0
note_on channel=0 note=75 velocity=76 time=0
note_on channel=0 note=41 velocity=63 time=0
note_on channel=0 note=41 velocity=0 time=40
note_on channel=0 note=43 velocity=62 time=0
note_on channel=0 note=70 velocity=0 time=40
note_on channel=0 note=75 velocity=0 time=0
note_on channel=0 note=73 velocity=0 time=0
note_on channel=0 note=43 velocity=0 time=0
note_on channel=0 note=41 velocity=62 time=0
note_on channel=0 note=41 velocity=0 time=80
note_on channel=0 note=67 velocity=60 time=0
note_on channel=0 note=70 velocity=60 time=0
note_on channel=0 note=75 velocity=76 time=0
note_on channel=0 note=39 velocity=63 time=0
note_on channel=0 note=39 velocity=0 time=80
note_on channel=0 note=41 velocity=60 time=0
note_on channel=0 note=67 velocity=0 time=40
note_on channel=0 note=75 velocity=0 time=0
note_on channel=0 note=70 velocity=0 time=0
note_on channel=0 note=41 velocity=0 time=40
note_on channel=0 note=39 velocity=60 time=0
note_on channel=0 note=39 velocity=0 time=0
note_on channel=0 note=68 velocity=71 time=0
note_on channel=0 note=72 velocity=76 time=0
note_on channel=0 note=44 velocity=77 time=0
note_on channel=0 note=44 velocity=0 time=120
note_on channel=0 note=72 velocity=0 time=0
note_on channel=0 note=68 velocity=0 time=0
note_on channel=0 note=67 velocity=55 time=0
note_on channel=0 note=39 velocity=79 time=0
note_on channel=0 note=51 velocity=79 time=0
note_on channel=0 note=67 velocity=0 time=80
note_on channel=0 note=65 velocity=56 time=0
note_on channel=0 note=51 velocity=0 time=40
note_on channel=0 note=39 velocity=0 time=0
note_on channel=0 note=65 velocity=0 time=40
note_on channel=0 note=67 velocity=57 time=0
note_on channel=0 note=67 velocity=0 time=0
note_on channel=0 note=68 velocity=58 time=0
note_on channel=0 note=48 velocity=62 time=0
note_on channel=0 note=60 velocity=74 time=0
note_on channel=0 note=68 velocity=0 time=80
note_on channel=0 note=72 velocity=60 time=0
note_on channel=0 note=60 velocity=0 time=40
note_on channel=0 note=48 velocity=0 time=0
note_on channel=0 note=72 velocity=0 time=40
note_on channel=0 note=73 velocity=61 time=0
note_on channel=0 note=73 velocity=0 time=80
note_on channel=0 note=75 velocity=62 time=0
note_on channel=0 note=46 velocity=62 time=0
note_on channel=0 note=58 velocity=74 time=0
note_on channel=0 note=75 velocity=0 time=80
note_on channel=0 note=77 velocity=63 time=0
note_on channel=0 note=58 velocity=0 time=40
note_on channel=0 note=46 velocity=0 time=0
note_on channel=0 note=77 velocity=0 time=40
note_on channel=0 note=79 velocity=63 time=0
note_on channel=0 note=79 velocity=0 time=0
note_on channel=0 note=80 velocity=63 time=0
note_on channel=0 note=44 velocity=65 time=0
note_on channel=0 note=56 velocity=77 time=0
note_on channel=0 note=80 velocity=0 time=80
note_on channel=0 note=82 velocity=63 time=0
note_on channel=0 note=56 velocity=0 time=40
note_on channel=0 note=44 velocity=0 time=0
note_on channel=0 note=82 velocity=0 time=40
note_on channel=0 note=84 velocity=65 time=0
note_on channel=0 note=84 velocity=0 time=80
note_on channel=0 note=85 velocity=66 time=0
note_on channel=0 note=39 velocity=61 time=0
note_on channel=0 note=51 velocity=72 time=0
note_on channel=0 note=85 velocity=0 time=80
note_on channel=0 note=84 velocity=63 time=0
note_on channel=0 note=51 velocity=0 time=40
note_on channel=0 note=39 velocity=0 time=0
note_on channel=0 note=84 velocity=0 time=40
note_on channel=0 note=82 velocity=63 time=0
note_on channel=0 note=82 velocity=0 time=0
note_on channel=0 note=85 velocity=66 time=0
note_on channel=0 note=41 velocity=62 time=0
note_on channel=0 note=53 velocity=73 time=0
note_on channel=0 note=85 velocity=0 time=80
note_on channel=0 note=84 velocity=63 time=0
note_on channel=0 note=53 velocity=0 time=40
note_on channel=0 note=41 velocity=0 time=0
note_on channel=0 note=84 velocity=0 time=40
note_on channel=0 note=82 velocity=63 time=0
note_on channel=0 note=82 velocity=0 time=0
note_on channel=0 note=85 velocity=67 time=0
note_on channel=0 note=43 velocity=62 time=0
note_on channel=0 note=55 velocity=73 time=0
note_on channel=0 note=85 velocity=0 time=80
note_on channel=0 note=84 velocity=63 time=0
note_on channel=0 note=55 velocity=0 time=40
note_on channel=0 note=43 velocity=0 time=0
note_on channel=0 note=84 velocity=0 time=40
note_on channel=0 note=82 velocity=63 time=0
note_on channel=0 note=82 velocity=0 time=0
note_on channel=0 note=80 velocity=76 time=0
note_on channel=0 note=44 velocity=65 time=0
note_on channel=0 note=56 velocity=77 time=0
note_on channel=0 note=56 velocity=0 time=120
note_on channel=0 note=44 velocity=0 time=0
note_on channel=0 note=80 velocity=0 time=120
note_on channel=0 note=64 velocity=55 time=0
note_on channel=0 note=36 velocity=61 time=0
note_on channel=0 note=48 velocity=72 time=0
note_on channel=0 note=64 velocity=0 time=80
note_on channel=0 note=62 velocity=56 time=0
note_on channel=0 note=48 velocity=0 time=40
note_on channel=0 note=36 velocity=0 time=0
note_on channel=0 note=62 velocity=0 time=40
note_on channel=0 note=64 velocity=57 time=0
note_on channel=0 note=64 velocity=0 time=0
note_on channel=0 note=65 velocity=58 time=0
note_on channel=0 note=44 velocity=66 time=0
note_on channel=0 note=56 velocity=78 time=0
note_on channel=0 note=65 velocity=0 time=80
note_on channel=0 note=68 velocity=60 time=0
note_on channel=0 note=56 velocity=0 time=40
note_on channel=0 note=44 velocity=0 time=0
note_on channel=0 note=68 velocity=0 time=40
note_on channel=0 note=70 velocity=61 time=0
note_on channel=0 note=70 velocity=0 time=80
note_on channel=0 note=72 velocity=62 time=0
note_on channel=0 note=43 velocity=62 time=0
note_on channel=0 note=55 velocity=73 time=0
note_on channel=0 note=72 velocity=0 time=80
note_on channel=0 note=74 velocity=63 time=0
note_on channel=0 note=55 velocity=0 time=40
note_on channel=0 note=43 velocity=0 time=0
note_on channel=0 note=74 velocity=0 time=40
note_on channel=0 note=76 velocity=63 time=0
note_on channel=0 note=76 velocity=0 time=0
note_on channel=0 note=77 velocity=63 time=0
note_on channel=0 note=41 velocity=68 time=0
note_on channel=0 note=53 velocity=80 time=0
note_on channel=0 note=77 velocity=0 time=80
note_on channel=0 note=79 velocity=63 time=0
note_on channel=0 note=53 velocity=0 time=40
note_on channel=0 note=41 velocity=0 time=0
note_on channel=0 note=79 velocity=0 time=40
note_on channel=0 note=80 velocity=65 time=0
note_on channel=0 note=80 velocity=0 time=80
note_on channel=0 note=82 velocity=66 time=0
note_on channel=0 note=36 velocity=63 time=0
note_on channel=0 note=48 velocity=75 time=0
note_on channel=0 note=82 velocity=0 time=80
note_on channel=0 note=80 velocity=63 time=0
note_on channel=0 note=48 velocity=0 time=40
note_on channel=0 note=36 velocity=0 time=0
note_on channel=0 note=80 velocity=0 time=40
note_on channel=0 note=79 velocity=63 time=0
note_on channel=0 note=79 velocity=0 time=20
note_on channel=0 note=82 velocity=66 time=0
note_on channel=0 note=38 velocity=63 time=0
note_on channel=0 note=50 velocity=75 time=0
note_on channel=0 note=82 velocity=0 time=40
note_on channel=0 note=80 velocity=63 time=0
note_on channel=0 note=50 velocity=0 time=40
note_on channel=0 note=38 velocity=0 time=0
note_on channel=0 note=80 velocity=0 time=40
note_on channel=0 note=79 velocity=63 time=0
note_on channel=0 note=79 velocity=0 time=0
note_on channel=0 note=82 velocity=67 time=0
note_on channel=0 note=40 velocity=63 time=0
note_on channel=0 note=52 velocity=75 time=0
note_on channel=0 note=82 velocity=0 time=80
note_on channel=0 note=80 velocity=63 time=0
note_on channel=0 note=52 velocity=0 time=40
note_on channel=0 note=40 velocity=0 time=0
note_on channel=0 note=80 velocity=0 time=40
note_on channel=0 note=79 velocity=63 time=0
note_on channel=0 note=79 velocity=0 time=80
note_on channel=0 note=80 velocity=70 time=0
note_on channel=0 note=41 velocity=66 time=0
note_on channel=0 note=53 velocity=78 time=0
note_on channel=0 note=80 velocity=0 time=80
note_on channel=0 note=82 velocity=68 time=0
note_on channel=0 note=53 velocity=0 time=40
note_on channel=0 note=41 velocity=0 time=0
note_on channel=0 note=82 velocity=0 time=40
note_on channel=0 note=80 velocity=68 time=0
note_on channel=0 note=80 velocity=0 time=80
note_on channel=0 note=79 velocity=70 time=0
note_on channel=0 note=53 velocity=62 time=0
note_on channel=0 note=65 velocity=74 time=0
note_on channel=0 note=79 velocity=0 time=80
note_on channel=0 note=80 velocity=66 time=0
note_on channel=0 note=65 velocity=0 time=40
note_on channel=0 note=53 velocity=0 time=0
note_on channel=0 note=80 velocity=0 time=0
note_on channel=0 note=79 velocity=66 time=0
note_on channel=0 note=79 velocity=0 time=0
note_on channel=0 note=77 velocity=69 time=0
note_on channel=0 note=56 velocity=68 time=0
note_on channel=0 note=68 velocity=80 time=0
note_on channel=0 note=77 velocity=0 time=80
note_on channel=0 note=79 velocity=66 time=0
note_on channel=0 note=68 velocity=0 time=40
note_on channel=0 note=56 velocity=0 time=0
note_on channel=0 note=79 velocity=0 time=40
note_on channel=0 note=77 velocity=65 time=0
note_on channel=0 note=77 velocity=0 time=80
note_on channel=0 note=75 velocity=69 time=0
note_on channel=0 note=55 velocity=64 time=0
note_on channel=0 note=67 velocity=76 time=0
note_on channel=0 note=75 velocity=0 time=80
note_on channel=0 note=77 velocity=64 time=0
note_on channel=0 note=67 velocity=0 time=40
note_on channel=0 note=55 velocity=0 time=0
note_on channel=0 note=77 velocity=0 time=40
note_on channel=0 note=75 velocity=64 time=0
note_on channel=0 note=75 velocity=0 time=0
note_on channel=0 note=74 velocity=68 time=0
note_on channel=0 note=53 velocity=68 time=0
note_on channel=0 note=65 velocity=80 time=0
note_on channel=0 note=74 velocity=0 time=80
note_on channel=0 note=75 velocity=64 time=0
note_on channel=0 note=65 velocity=0 time=40
note_on channel=0 note=53 velocity=0 time=0
note_on channel=0 note=75 velocity=0 time=40
note_on channel=0 note=74 velocity=64 time=0
note_on channel=0 note=74 velocity=0 time=80
note_on channel=0 note=75 velocity=68 time=0
note_on channel=0 note=51 velocity=62 time=0
note_on channel=0 note=63 velocity=73 time=0
note_on channel=0 note=75 velocity=0 time=80
note_on channel=0 note=77 velocity=64 time=0
note_on channel=0 note=63 velocity=0 time=40
note_on channel=0 note=51 velocity=0 time=0
note_on channel=0 note=77 velocity=0 time=40
note_on channel=0 note=75 velocity=64 time=0
note_on channel=0 note=75 velocity=0 time=80
note_on channel=0 note=77 velocity=70 time=0
note_on channel=0 note=50 velocity=62 time=0
note_on channel=0 note=62 velocity=74 time=0
note_on channel=0 note=77 velocity=0 time=80
note_on channel=0 note=79 velocity=65 time=0
note_on channel=0 note=62 velocity=0 time=40
note_on channel=0 note=50 velocity=0 time=0
note_on channel=0 note=79 velocity=0 time=40
note_on channel=0 note=77 velocity=66 time=0
note_on channel=0 note=77 velocity=0 time=80
note_on channel=0 note=78 velocity=70 time=0
note_on channel=0 note=48 velocity=62 time=0
note_on channel=0 note=60 velocity=74 time=0
note_on channel=0 note=78 velocity=0 time=80
note_on channel=0 note=79 velocity=66 time=0
note_on channel=0 note=60 velocity=0 time=40
note_on channel=0 note=48 velocity=0 time=0
note_on channel=0 note=79 velocity=0 time=40
note_on channel=0 note=78 velocity=66 time=0
note_on channel=0 note=78 velocity=0 time=80
note_on channel=0 note=79 velocity=72 time=0
note_on channel=0 note=47 velocity=69 time=0
note_on channel=0 note=59 velocity=82 time=0
note_on channel=0 note=79 velocity=0 time=80
note_on channel=0 note=80 velocity=67 time=0
note_on channel=0 note=80 velocity=0 time=80
note_on channel=0 note=79 velocity=67 time=0
note_on channel=0 note=79 velocity=0 time=80
note_on channel=0 note=78 velocity=67 time=0
note_on channel=0 note=78 velocity=0 time=80
note_on channel=0 note=79 velocity=67 time=0
note_on channel=0 note=79 velocity=0 time=80
note_on channel=0 note=78 velocity=67 time=0
note_on channel=0 note=78 velocity=0 time=0
note_on channel=0 note=59 velocity=0 time=0
note_on channel=0 note=47 velocity=0 time=0
note_on channel=0 note=79 velocity=72 time=0
note_on channel=0 note=43 velocity=64 time=0
note_on channel=0 note=55 velocity=76 time=0
note_on channel=0 note=79 velocity=0 time=51
note_on channel=0 note=80 velocity=67 time=0
note_on channel=0 note=80 velocity=0 time=80
note_on channel=0 note=79 velocity=67 time=0
note_on channel=0 note=79 velocity=0 time=80
note_on channel=0 note=55 velocity=0 time=0
note_on channel=0 note=43 velocity=0 time=0
note_on channel=0 note=78 velocity=67 time=0
note_on channel=0 note=43 velocity=61 time=0
note_on channel=0 note=55 velocity=72 time=0
note_on channel=0 note=78 velocity=0 time=80
note_on channel=0 note=79 velocity=67 time=0
note_on channel=0 note=79 velocity=0 time=80
note_on channel=0 note=78 velocity=67 time=0
note_on channel=0 note=78 velocity=0 time=0
note_on channel=0 note=55 velocity=0 time=0
note_on channel=0 note=43 velocity=0 time=0
note_on channel=0 note=79 velocity=72 time=0
note_on channel=0 note=43 velocity=64 time=0
note_on channel=0 note=55 velocity=76 time=0
note_on channel=0 note=79 velocity=0 time=16
note_on channel=0 note=80 velocity=67 time=0
note_on channel=0 note=80 velocity=0 time=0
note_on channel=0 note=79 velocity=67 time=0
note_on channel=0 note=79 velocity=0 time=80
note_on channel=0 note=55 velocity=0 time=0
note_on channel=0 note=43 velocity=0 time=0
note_on channel=0 note=77 velocity=69 time=0
note_on channel=0 note=43 velocity=60 time=0
note_on channel=0 note=55 velocity=71 time=0
note_on channel=0 note=77 velocity=0 time=40
note_on channel=0 note=79 velocity=65 time=0
note_on channel=0 note=79 velocity=0 time=0
note_on channel=0 note=77 velocity=65 time=0
note_on channel=0 note=77 velocity=0 time=80
note_on channel=0 note=55 velocity=0 time=0
note_on channel=0 note=43 velocity=0 time=0
note_on channel=0 note=75 velocity=68 time=0
note_on channel=0 note=43 velocity=64 time=0
note_on channel=0 note=55 velocity=76 time=0
note_on channel=0 note=75 velocity=0 time=23
note_on channel=0 note=77 velocity=63 time=0
note_on channel=0 note=77 velocity=0 time=0
note_on channel=0 note=75 velocity=63 time=0
note_on channel=0 note=75 velocity=0 time=80
note_on channel=0 note=55 velocity=0 time=0
note_on channel=0 note=43 velocity=0 time=0
note_on channel=0 note=74 velocity=67 time=0
note_on channel=0 note=43 velocity=61 time=0
note_on channel=0 note=55 velocity=72 time=0
note_on channel=0 note=74 velocity=0 time=40
note_on channel=0 note=75 velocity=62 time=0
note_on channel=0 note=75 velocity=0 time=0
note_on channel=0 note=74 velocity=62 time=0
note_on channel=0 note=74 velocity=0 time=0
note_on channel=0 note=55 velocity=0 time=0
note_on channel=0 note=43 velocity=0 time=0
note_on channel=0 note=72 velocity=82 time=0
note_on channel=0 note=48 velocity=71 time=0
note_on channel=0 note=60 velocity=84 time=0
note_on channel=0 note=60 velocity=0 time=0
note_on channel=0 note=48 velocity=0 time=0
note_on channel=0 note=72 velocity=0 time=0
note_on channel=0 note=63 velocity=79 time=0
note_on channel=0 note=75 velocity=79 time=0
note_on channel=0 note=43 velocity=63 time=0
note_on channel=0 note=43 velocity=0 time=80
note_on channel=0 note=41 velocity=56 time=0
note_on channel=0 note=75 velocity=0 time=40
note_on channel=0 note=63 velocity=0 time=0
note_on channel=0 note=41 velocity=0 time=40
note_on channel=0 note=43 velocity=57 time=0
note_on channel=0 note=43 velocity=0 time=0
note_on channel=0 note=72 velocity=62 time=0
note_on channel=0 note=84 velocity=74 time=0
note_on channel=0 note=44 velocity=57 time=0
note_on channel=0 note=44 velocity=0 time=80
note_on channel=0 note=48 velocity=58 time=0
note_on channel=0 note=84 velocity=0 time=40
note_on channel=0 note=72 velocity=0 time=0
note_on channel=0 note=48 velocity=0 time=40
note_on channel=0 note=49 velocity=59 time=0
note_on channel=0 note=49 velocity=0 time=80
note_on channel=0 note=70 velocity=62 time=0
note_on channel=0 note=82 velocity=74 time=0
note_on channel=0 note=51 velocity=60 time=0
note_on channel=0 note=51 velocity=0 time=80
note_on channel=0 note=53 velocity=62 time=0
note_on channel=0 note=82 velocity=0 time=40
note_on channel=0 note=70 velocity=0 time=0
note_on channel=0 note=53 velocity=0 time=40
note_on channel=0 note=55 velocity=63 time=0
note_on channel=0 note=55 velocity=0 time=0
note_on channel=0 note=68 velocity=65 time=0
note_on channel=0 note=80 velocity=77 time=0
note_on channel=0 note=56 velocity=60 time=0
note_on channel=0 note=56 velocity=0 time=80
note_on channel=0 note=58 velocity=62 time=0
note_on channel=0 note=80 velocity=0 time=40
note_on channel=0 note=68 velocity=0 time=0
note_on channel=0 note=58 velocity=0 time=40
note_on channel=0 note=60 velocity=63 time=0
note_on channel=0 note=60 velocity=0 time=80
note_on channel=0 note=63 velocity=61 time=0
note_on channel=0 note=75 velocity=72 time=0
note_on channel=0 note=61 velocity=65 time=0
note_on channel=0 note=61 velocity=0 time=80
note_on channel=0 note=60 velocity=63 time=0
note_on channel=0 note=75 velocity=0 time=40
note_on channel=0 note=63 velocity=0 time=0
note_on channel=0 note=60 velocity=0 time=40
note_on channel=0 note=58 velocity=62 time=0
note_on channel=0 note=58 velocity=0 time=0
note_on channel=0 note=65 velocity=62 time=0
note_on channel=0 note=77 velocity=73 time=0
note_on channel=0 note=56 velocity=63 time=0
note_on channel=0 note=56 velocity=0 time=80
note_on channel=0 note=58 velocity=62 time=0
note_on channel=0 note=77 velocity=0 time=40
note_on channel=0 note=65 velocity=0 time=0
note_on channel=0 note=58 velocity=0 time=40
note_on channel=0 note=60 velocity=63 time=0
note_on channel=0 note=60 velocity=0 time=0
note_on channel=0 note=67 velocity=62 time=0
note_on channel=0 note=79 velocity=73 time=0
note_on channel=0 note=61 velocity=65 time=0
note_on channel=0 note=61 velocity=0 time=80
note_on channel=0 note=60 velocity=64 time=0
note_on channel=0 note=79 velocity=0 time=40
note_on channel=0 note=67 velocity=0 time=0
note_on channel=0 note=60 velocity=0 time=40
note_on channel=0 note=58 velocity=63 time=0
note_on channel=0 note=58 velocity=0 time=0
note_on channel=0 note=68 velocity=65 time=0
note_on channel=0 note=80 velocity=77 time=0
note_on channel=0 note=56 velocity=68 time=0
note_on channel=0 note=80 velocity=0 time=120
note_on channel=0 note=68 velocity=0 time=0
note_on channel=0 note=56 velocity=0 time=120
note_on channel=0 note=60 velocity=61 time=0
note_on channel=0 note=72 velocity=72 time=0
note_on channel=0 note=40 velocity=63 time=0
note_on channel=0 note=40 velocity=0 time=80
note_on channel=0 note=38 velocity=56 time=0
note_on channel=0 note=72 velocity=0 time=40
note_on channel=0 note=60 velocity=0 time=0
note_on channel=0 note=38 velocity=0 time=40
note_on channel=0 note=40 velocity=56 time=0
note_on channel=0 note=40 velocity=0 time=0
note_on channel=0 note=68 velocity=66 time=0
note_on channel=0 note=80 velocity=78 time=0
note_on channel=0 note=41 velocity=54 time=0
note_on channel=0 note=41 velocity=0 time=80
note_on channel=0 note=44 velocity=56 time=0
note_on channel=0 note=80 velocity=0 time=40
note_on channel=0 note=68 velocity=0 time=0
note_on channel=0 note=44 velocity=0 time=40
note_on channel=0 note=46 velocity=58 time=0
note_on channel=0 note=46 velocity=0 time=80
note_on channel=0 note=67 velocity=62 time=0
note_on channel=0 note=79 velocity=73 time=0
note_on channel=0 note=48 velocity=60 time=0
note_on channel=0 note=48 velocity=0 time=80
note_on channel=0 note=50 velocity=62 time=0
note_on channel=0 note=79 velocity=0 time=40
note_on channel=0 note=67 velocity=0 time=0
note_on channel=0 note=50 velocity=0 time=40
note_on channel=0 note=52 velocity=63 time=0
note_on channel=0 note=52 velocity=0 time=0
note_on channel=0 note=65 velocity=68 time=0
note_on channel=0 note=77 velocity=80 time=0
note_on channel=0 note=53 velocity=65 time=0
note_on channel=0 note=53 velocity=0 time=80
note_on channel=0 note=55 velocity=65 time=0
note_on channel=0 note=77 velocity=0 time=40
note_on channel=0 note=65 velocity=0 time=0
note_on channel=0 note=55 velocity=0 time=40
note_on channel=0 note=56 velocity=66 time=0
note_on channel=0 note=56 velocity=0 time=80
note_on channel=0 note=60 velocity=63 time=0
note_on channel=0 note=72 velocity=75 time=0
note_on channel=0 note=58 velocity=68 time=0
note_on channel=0 note=58 velocity=0 time=80
note_on channel=0 note=56 velocity=65 time=0
note_on channel=0 note=72 velocity=0 time=40
note_on channel=0 note=60 velocity=0 time=0
note_on channel=0 note=56 velocity=0 time=40
note_on channel=0 note=55 velocity=63 time=0
note_on channel=0 note=55 velocity=0 time=20
note_on channel=0 note=62 velocity=63 time=0
note_on channel=0 note=74 velocity=75 time=0
note_on channel=0 note=53 velocity=60 time=0
note_on channel=0 note=53 velocity=0 time=40
note_on channel=0 note=55 velocity=62 time=0
note_on channel=0 note=74 velocity=0 time=40
note_on channel=0 note=62 velocity=0 time=0
note_on channel=0 note=55 velocity=0 time=40
note_on channel=0 note=56 velocity=64 time=0
note_on channel=0 note=56 velocity=0 time=0
note_on channel=0 note=64 velocity=63 time=0
note_on channel=0 note=76 velocity=75 time=0
note_on channel=0 note=58 velocity=66 time=0
note_on channel=0 note=58 velocity=0 time=80
note_on channel=0 note=56 velocity=64 time=0
note_on channel=0 note=76 velocity=0 time=40
note_on channel=0 note=64 velocity=0 time=0
note_on channel=0 note=56 velocity=0 time=40
note_on channel=0 note=55 velocity=63 time=0
note_on channel=0 note=55 velocity=0 time=80
note_on channel=0 note=65 velocity=66 time=0
note_on channel=0 note=77 velocity=78 time=0
note_on channel=0 note=53 velocity=67 time=0
note_on channel=0 note=77 velocity=0 time=120
note_on channel=0 note=65 velocity=0 time=0
note_on channel=0 note=53 velocity=0 time=120
note_on channel=0 note=77 velocity=62 time=0
note_on channel=0 note=89 velocity=74 time=0
note_on channel=0 note=36 velocity=63 time=0
note_on channel=0 note=36 velocity=0 time=80
note_on channel=0 note=38 velocity=58 time=0
note_on channel=0 note=89 velocity=0 time=40
note_on channel=0 note=77 velocity=0 time=0
note_on channel=0 note=38 velocity=0 time=0
note_on channel=0 note=40 velocity=58 time=0
note_on channel=0 note=40 velocity=0 time=0
note_on channel=0 note=80 velocity=68 time=0
note_on channel=0 note=92 velocity=80 time=0
note_on channel=0 note=41 velocity=63 time=0
note_on channel=0 note=41 velocity=0 time=80
note_on channel=0 note=40 velocity=58 time=0
note_on channel=0 note=92 velocity=0 time=40
note_on channel=0 note=80 velocity=0 time=0
note_on channel=0 note=40 velocity=0 time=40
note_on channel=0 note=41 velocity=58 time=0
note_on channel=0 note=41 velocity=0 time=80
note_on channel=0 note=79 velocity=64 time=0
note_on channel=0 note=91 velocity=76 time=0
note_on channel=0 note=43 velocity=63 time=0
note_on channel=0 note=43 velocity=0 time=80
note_on channel=0 note=41 velocity=60 time=0
note_on channel=0 note=91 velocity=0 time=40
note_on channel=0 note=79 velocity=0 time=0
note_on channel=0 note=41 velocity=0 time=40
note_on channel=0 note=43 velocity=60 time=0
note_on channel=0 note=43 velocity=0 time=0
note_on channel=0 note=77 velocity=68 time=0
note_on channel=0 note=89 velocity=80 time=0
note_on channel=0 note=44 velocity=59 time=0
note_on channel=0 note=44 velocity=0 time=80
note_on channel=0 note=46 velocity=59 time=0
note_on channel=0 note=89 velocity=0 time=40
note_on channel=0 note=77 velocity=0 time=0
note_on channel=0 note=46 velocity=0 time=40
note_on channel=0 note=44 velocity=60 time=0
note_on channel=0 note=44 velocity=0 time=80
note_on channel=0 note=75 velocity=62 time=0
note_on channel=0 note=87 velocity=73 time=0
note_on channel=0 note=43 velocity=61 time=0
note_on channel=0 note=43 velocity=0 time=80
note_on channel=0 note=44 velocity=59 time=0
note_on channel=0 note=87 velocity=0 time=40
note_on channel=0 note=75 velocity=0 time=0
note_on channel=0 note=44 velocity=0 time=40
note_on channel=0 note=43 velocity=59 time=0
note_on channel=0 note=43 velocity=0 time=80
note_on channel=0 note=74 velocity=62 time=0
note_on channel=0 note=86 velocity=74 time=0
note_on channel=0 note=41 velocity=63 time=0
note_on channel=0 note=41 velocity=0 time=80
note_on channel=0 note=43 velocity=61 time=0
note_on channel=0 note=86 velocity=0 time=40
note_on channel=0 note=74 velocity=0 time=0
note_on channel=0 note=43 velocity=0 time=40
note_on channel=0 note=41 velocity=61 time=0
note_on channel=0 note=41 velocity=0 time=80
note_on channel=0 note=72 velocity=62 time=0
note_on channel=0 note=84 velocity=74 time=0
note_on channel=0 note=42 velocity=64 time=0
note_on channel=0 note=42 velocity=0 time=80
note_on channel=0 note=43 velocity=62 time=0
note_on channel=0 note=84 velocity=0 time=40
note_on channel=0 note=72 velocity=0 time=0
note_on channel=0 note=43 velocity=0 time=40
note_on channel=0 note=42 velocity=62 time=0
note_on channel=0 note=42 velocity=0 time=80
note_on channel=0 note=71 velocity=69 time=0
note_on channel=0 note=83 velocity=82 time=0
note_on channel=0 note=43 velocity=67 time=0
note_on channel=0 note=43 velocity=0 time=80
note_on channel=0 note=44 velocity=63 time=0
note_on channel=0 note=44 velocity=0 time=80
note_on channel=0 note=43 velocity=63 time=0
note_on channel=0 note=43 velocity=0 time=80
note_on channel=0 note=42 velocity=67 time=0
note_on channel=0 note=42 velocity=0 time=80
note_on channel=0 note=43 velocity=63 time=0
note_on channel=0 note=43 velocity=0 time=80
note_on channel=0 note=42 velocity=63 time=0
note_on channel=0 note=42 velocity=0 time=0
note_on channel=0 note=83 velocity=0 time=0
note_on channel=0 note=71 velocity=0 time=0
note_on channel=0 note=67 velocity=66 time=0
note_on channel=0 note=79 velocity=78 time=0
note_on channel=0 note=43 velocity=66 time=0
note_on channel=0 note=43 velocity=0 time=51
note_on channel=0 note=44 velocity=63 time=0
note_on channel=0 note=44 velocity=0 time=80
note_on channel=0 note=43 velocity=63 time=0
note_on channel=0 note=79 velocity=0 time=78
note_on channel=0 note=67 velocity=0 time=0
note_on channel=0 note=43 velocity=0 time=2
note_on channel=0 note=67 velocity=62 time=0
note_on channel=0 note=79 velocity=73 time=0
note_on channel=0 note=42 velocity=66 time=0
note_on channel=0 note=42 velocity=0 time=80
note_on channel=0 note=43 velocity=62 time=0
note_on channel=0 note=43 velocity=0 time=80
note_on channel=0 note=42 velocity=62 time=0
note_on channel=0 note=79 velocity=0 time=78
note_on channel=0 note=67 velocity=0 time=0
note_on channel=0 note=42 velocity=0 time=0
note_on channel=0 note=67 velocity=66 time=0
note_on channel=0 note=79 velocity=78 time=0
note_on channel=0 note=43 velocity=64 time=0
note_on channel=0 note=43 velocity=0 time=41
note_on channel=0 note=44 velocity=62 time=0
note_on channel=0 note=44 velocity=0 time=0
note_on channel=0 note=43 velocity=62 time=0
note_on channel=0 note=79 velocity=0 time=78
note_on channel=0 note=67 velocity=0 time=0
note_on channel=0 note=43 velocity=0 time=2
note_on channel=0 note=67 velocity=61 time=0
note_on channel=0 note=79 velocity=72 time=0
note_on channel=0 note=41 velocity=64 time=0
note_on channel=0 note=41 velocity=0 time=40
note_on channel=0 note=43 velocity=61 time=0
note_on channel=0 note=43 velocity=0 time=0
note_on channel=0 note=41 velocity=61 time=0
note_on channel=0 note=79 velocity=0 time=78
note_on channel=0 note=67 velocity=0 time=0
note_on channel=0 note=41 velocity=0 time=2
note_on channel=0 note=67 velocity=66 time=0
note_on channel=0 note=79 velocity=78 time=0
note_on channel=0 note=39 velocity=63 time=0
note_on channel=0 note=39 velocity=0 time=20
note_on channel=0 note=41 velocity=62 time=0
note_on channel=0 note=41 velocity=0 time=0
note_on channel=0 note=39 velocity=62 time=0
note_on channel=0 note=79 velocity=0 time=78
note_on channel=0 note=67 velocity=0 time=0
note_on channel=0 note=39 velocity=0 time=2
note_on channel=0 note=67 velocity=62 time=0
note_on channel=0 note=79 velocity=73 time=0
note_on channel=0 note=38 velocity=63 time=0
note_on channel=0 note=38 velocity=0 time=80
note_on channel=0 note=39 velocity=60 time=0
note_on channel=0 note=39 velocity=0 time=80
note_on channel=0 note=38 velocity=60 time=0
note_on channel=0 note=79 velocity=0 time=78
note_on channel=0 note=67 velocity=0 time=0
note_on channel=0 note=38 velocity=0 time=0
note_on channel=0 note=72 velocity=71 time=0
note_on channel=0 note=84 velocity=76 time=0
note_on channel=0 note=36 velocity=77 time=0
note_on channel=0 note=36 velocity=0 time=109
note_on channel=0 note=84 velocity=0 time=0
note_on channel=0 note=72 velocity=0 time=0
note_on channel=0 note=72 velocity=55 time=0
note_on channel=0 note=41 velocity=79 time=0
note_on channel=0 note=53 velocity=79 time=0
note_on channel=0 note=72 velocity=0 time=80
note_on channel=0 note=74 velocity=56 time=0
note_on channel=0 note=53 velocity=0 time=40
note_on channel=0 note=41 velocity=0 time=0
note_on channel=0 note=74 velocity=0 time=40
note_on channel=0 note=76 velocity=57 time=0
note_on channel=0 note=76 velocity=0 time=0
note_on channel=0 note=77 velocity=58 time=0
note_on channel=0 note=44 velocity=62 time=0
note_on channel=0 note=56 velocity=74 time=0
note_on channel=0 note=77 velocity=0 time=80
note_on channel=0 note=76 velocity=60 time=0
note_on channel=0 note=56 velocity=0 time=40
note_on channel=0 note=44 velocity=0 time=0
note_on channel=0 note=76 velocity=0 time=40
note_on channel=0 note=77 velocity=61 time=0
note_on channel=0 note=77 velocity=0 time=80
note_on channel=0 note=79 velocity=62 time=0
note_on channel=0 note=43 velocity=62 time=0
note_on channel=0 note=55 velocity=74 time=0
note_on channel=0 note=79 velocity=0 time=80
note_on channel=0 note=77 velocity=63 time=0
note_on channel=0 note=55 velocity=0 time=40
note_on channel=0 note=43 velocity=0 time=0
note_on channel=0 note=77 velocity=0 time=40
note_on channel=0 note=79 velocity=63 time=0
note_on channel=0 note=79 velocity=0 time=0
note_on channel=0 note=80 velocity=68 time=0
note_on channel=0 note=41 velocity=68 time=0
note_on channel=0 note=53 velocity=80 time=0
note_on channel=0 note=80 velocity=0 time=80
note_on channel=0 note=82 velocity=64 time=0
note_on channel=0 note=53 velocity=0 time=40
note_on channel=0 note=41 velocity=0 time=0
note_on channel=0 note=82 velocity=0 time=40
note_on channel=0 note=80 velocity=64 time=0
note_on channel=0 note=80 velocity=0 time=80
note_on channel=0 note=79 velocity=68 time=0
note_on channel=0 note=39 velocity=62 time=0
note_on channel=0 note=51 velocity=73 time=0
note_on channel=0 note=79 velocity=0 time=80
note_on channel=0 note=80 velocity=64 time=0
note_on channel=0 note=51 velocity=0 time=40
note_on channel=0 note=39 velocity=0 time=0
note_on channel=0 note=80 velocity=0 time=40
note_on channel=0 note=79 velocity=64 time=0
note_on channel=0 note=79 velocity=0 time=80
note_on channel=0 note=77 velocity=70 time=0
note_on channel=0 note=38 velocity=62 time=0
note_on channel=0 note=50 velocity=74 time=0
note_on channel=0 note=77 velocity=0 time=80
note_on channel=0 note=79 velocity=65 time=0
note_on channel=0 note=50 velocity=0 time=40
note_on channel=0 note=38 velocity=0 time=0
note_on channel=0 note=79 velocity=0 time=40
note_on channel=0 note=77 velocity=66 time=0
note_on channel=0 note=77 velocity=0 time=80
note_on channel=0 note=78 velocity=70 time=0
note_on channel=0 note=36 velocity=62 time=0
note_on channel=0 note=48 velocity=74 time=0
note_on channel=0 note=78 velocity=0 time=80
note_on channel=0 note=79 velocity=66 time=0
note_on channel=0 note=48 velocity=0 time=40
note_on channel=0 note=36 velocity=0 time=0
note_on channel=0 note=79 velocity=0 time=40
note_on channel=0 note=78 velocity=66 time=0
note_on channel=0 note=78 velocity=0 time=80
note_on channel=0 note=79 velocity=72 time=0
note_on channel=0 note=35 velocity=69 time=0
note_on channel=0 note=47 velocity=82 time=0
note_on channel=0 note=79 velocity=0 time=80
note_on channel=0 note=80 velocity=67 time=0
note_on channel=0 note=80 velocity=0 time=80
note_on channel=0 note=79 velocity=67 time=0
note_on channel=0 note=79 velocity=0 time=80
note_on channel=0 note=78 velocity=67 time=0
note_on channel=0 note=78 velocity=0 time=80
note_on channel=0 note=79 velocity=67 time=0
note_on channel=0 note=79 velocity=0 time=80
note_on channel=0 note=78 velocity=67 time=0
note_on channel=0 note=78 velocity=0 time=0
note_on channel=0 note=47 velocity=0 time=0
note_on channel=0 note=35 velocity=0 time=0
note_on channel=0 note=79 velocity=72 time=0
note_on channel=0 note=31 velocity=64 time=0
note_on channel=0 note=43 velocity=76 time=0
note_on channel=0 note=79 velocity=0 time=43
note_on channel=0 note=80 velocity=67 time=0
note_on channel=0 note=80 velocity=0 time=80
note_on channel=0 note=79 velocity=67 time=0
note_on channel=0 note=43 velocity=0 time=78
note_on channel=0 note=31 velocity=0 time=0
note_on channel=0 note=79 velocity=0 time=2
note_on channel=0 note=78 velocity=67 time=0
note_on channel=0 note=31 velocity=61 time=0
note_on channel=0 note=43 velocity=72 time=0
note_on channel=0 note=78 velocity=0 time=80
note_on channel=0 note=79 velocity=67 time=0
note_on channel=0 note=79 velocity=0 time=80
note_on channel=0 note=78 velocity=67 time=0
note_on channel=0 note=43 velocity=0 time=78
note_on channel=0 note=31 velocity=0 time=0
note_on channel=0 note=78 velocity=0 time=0
note_on channel=0 note=79 velocity=72 time=0
note_on channel=0 note=31 velocity=64 time=0
note_on channel=0 note=43 velocity=76 time=0
note_on channel=0 note=79 velocity=0 time=44
note_on channel=0 note=80 velocity=67 time=0
note_on channel=0 note=80 velocity=0 time=0
note_on channel=0 note=79 velocity=67 time=0
note_on channel=0 note=43 velocity=0 time=78
note_on channel=0 note=31 velocity=0 time=0
note_on channel=0 note=79 velocity=0 time=2
note_on channel=0 note=77 velocity=69 time=0
note_on channel=0 note=31 velocity=60 time=0
note_on channel=0 note=43 velocity=71 time=0
note_on channel=0 note=77 velocity=0 time=40
note_on channel=0 note=79 velocity=65 time=0
note_on channel=0 note=79 velocity=0 time=0
note_on channel=0 note=77 velocity=65 time=0
note_on channel=0 note=43 velocity=0 time=78
note_on channel=0 note=31 velocity=0 time=0
note_on channel=0 note=77 velocity=0 time=2
note_on channel=0 note=75 velocity=68 time=0
note_on channel=0 note=31 velocity=64 time=0
note_on channel=0 note=43 velocity=76 time=0
note_on channel=0 note=75 velocity=0 time=13
note_on channel=0 note=77 velocity=63 time=0
note_on channel=0 note=77 velocity=0 time=0
note_on channel=0 note=75 velocity=63 time=0
note_on channel=0 note=43 velocity=0 time=78
note_on channel=0 note=31 velocity=0 time=0
note_on channel=0 note=75 velocity=0 time=2
note_on channel=0 note=74 velocity=67 time=0
note_on channel=0 note=31 velocity=61 time=0
note_on channel=0 note=43 velocity=72 time=0
note_on channel=0 note=74 velocity=0 time=40
note_on channel=0 note=75 velocity=62 time=0
note_on channel=0 note=75 velocity=0 time=0
note_on channel=0 note=74 velocity=62 time=0
note_on channel=0 note=43 velocity=0 time=78
note_on channel=0 note=31 velocity=0 time=0
note_on channel=0 note=74 velocity=0 time=0
note_on channel=0 note=72 velocity=72 time=0
note_on channel=0 note=36 velocity=69 time=0
note_on channel=0 note=48 velocity=82 time=0
note_on channel=0 note=72 velocity=0 time=80
note_on channel=0 note=71 velocity=67 time=0
note_on channel=0 note=71 velocity=0 time=80
note_on channel=0 note=72 velocity=67 time=0
note_on channel=0 note=72 velocity=0 time=80
note_on channel=0 note=48 velocity=0 time=0
note_on channel=0 note=36 velocity=0 time=0
note_on channel=0 note=74 velocity=67 time=0
note_on channel=0 note=74 velocity=0 time=80
note_on channel=0 note=72 velocity=67 time=0
note_on channel=0 note=72 velocity=0 time=80
note_on channel=0 note=74 velocity=67 time=0
note_on channel=0 note=74 velocity=0 time=0
note_on channel=0 note=75 velocity=75 time=0
note_on channel=0 note=43 velocity=67 time=0
note_on channel=0 note=55 velocity=79 time=0
note_on channel=0 note=75 velocity=0 time=51
note_on channel=0 note=74 velocity=70 time=0
note_on channel=0 note=74 velocity=0 time=80
note_on channel=0 note=75 velocity=70 time=0
note_on channel=0 note=55 velocity=0 time=78
note_on channel=0 note=43 velocity=0 time=0
note_on channel=0 note=75 velocity=0 time=2
note_on channel=0 note=77 velocity=70 time=0
note_on channel=0 note=43 velocity=64 time=0
note_on channel=0 note=55 velocity=75 time=0
note_on channel=0 note=77 velocity=0 time=80
note_on channel=0 note=75 velocity=70 time=0
note_on channel=0 note=75 velocity=0 time=80
note_on channel=0 note=77 velocity=70 time=0
note_on channel=0 note=55 velocity=0 time=78
note_on channel=0 note=43 velocity=0 time=0
note_on channel=0 note=77 velocity=0 time=0
note_on channel=0 note=79 velocity=75 time=0
note_on channel=0 note=43 velocity=67 time=0
note_on channel=0 note=55 velocity=79 time=0
note_on channel=0 note=79 velocity=0 time=34
note_on channel=0 note=80 velocity=70 time=0
note_on channel=0 note=80 velocity=0 time=0
note_on channel=0 note=79 velocity=70 time=0
note_on channel=0 note=55 velocity=0 time=78
note_on channel=0 note=43 velocity=0 time=0
note_on channel=0 note=79 velocity=0 time=2
note_on channel=0 note=77 velocity=72 time=0
note_on channel=0 note=43 velocity=63 time=0
note_on channel=0 note=55 velocity=74 time=0
note_on channel=0 note=77 velocity=0 time=40
note_on channel=0 note=79 velocity=68 time=0
note_on channel=0 note=79 velocity=0 time=0
note_on channel=0 note=77 velocity=68 time=0
note_on channel=0 note=55 velocity=0 time=78
note_on channel=0 note=43 velocity=0 time=0
note_on channel=0 note=77 velocity=0 time=2
note_on channel=0 note=75 velocity=71 time=0
note_on channel=0 note=43 velocity=67 time=0
note_on channel=0 note=55 velocity=79 time=0
note_on channel=0 note=75 velocity=0 time=16
note_on channel=0 note=77 velocity=66 time=0
note_on channel=0 note=77 velocity=0 time=0
note_on channel=0 note=75 velocity=66 time=0
note_on channel=0 note=55 velocity=0 time=78
note_on channel=0 note=43 velocity=0 time=0
note_on channel=0 note=75 velocity=0 time=2
note_on channel=0 note=74 velocity=70 time=0
note_on channel=0 note=43 velocity=64 time=0
note_on channel=0 note=55 velocity=75 time=0
note_on channel=0 note=74 velocity=0 time=40
note_on channel=0 note=75 velocity=65 time=0
note_on channel=0 note=75 velocity=0 time=0
note_on channel=0 note=74 velocity=65 time=0
note_on channel=0 note=55 velocity=0 time=78
note_on channel=0 note=43 velocity=0 time=0
note_on channel=0 note=74 velocity=0 time=0
note_on channel=0 note=72 velocity=75 time=0
note_on channel=0 note=48 velocity=72 time=0
note_on channel=0 note=60 velocity=86 time=0
note_on channel=0 note=72 velocity=0 time=80
note_on channel=0 note=71 velocity=70 time=0
note_on channel=0 note=71 velocity=0 time=80
note_on channel=0 note=72 velocity=70 time=0
note_on channel=0 note=72 velocity=0 time=80
note_on channel=0 note=60 velocity=0 time=0
note_on channel=0 note=48 velocity=0 time=0
note_on channel=0 note=74 velocity=70 time=0
note_on channel=0 note=74 velocity=0 time=80
note_on channel=0 note=72 velocity=70 time=0
note_on channel=0 note=72 velocity=0 time=80
note_on channel=0 note=74 velocity=70 time=0
note_on channel=0 note=74 velocity=0 time=0
note_on channel=0 note=75 velocity=79 time=0
note_on channel=0 note=31 velocity=80 time=0
note_on channel=0 note=43 velocity=95 time=0
note_on channel=0 note=75 velocity=0 time=48
note_on channel=0 note=74 velocity=73 time=0
note_on channel=0 note=74 velocity=0 time=80
note_on channel=0 note=75 velocity=73 time=0
note_on channel=0 note=43 velocity=0 time=78
note_on channel=0 note=31 velocity=0 time=0
note_on channel=0 note=75 velocity=0 time=2
note_on channel=0 note=77 velocity=73 time=0
note_on channel=0 note=31 velocity=77 time=0
note_on channel=0 note=43 velocity=90 time=0
note_on channel=0 note=77 velocity=0 time=80
note_on channel=0 note=75 velocity=73 time=0
note_on channel=0 note=75 velocity=0 time=80
note_on channel=0 note=77 velocity=73 time=0
note_on channel=0 note=43 velocity=0 time=78
note_on channel=0 note=31 velocity=0 time=0
note_on channel=0 note=77 velocity=0 time=0
note_on channel=0 note=79 velocity=79 time=0
note_on channel=0 note=31 velocity=80 time=0
note_on channel=0 note=43 velocity=95 time=0
note_on channel=0 note=79 velocity=0 time=16
note_on channel=0 note=80 velocity=73 time=0
note_on channel=0 note=80 velocity=0 time=0
note_on channel=0 note=79 velocity=73 time=0
note_on channel=0 note=43 velocity=0 time=78
note_on channel=0 note=31 velocity=0 time=0
note_on channel=0 note=79 velocity=0 time=2
note_on channel=0 note=77 velocity=75 time=0
note_on channel=0 note=31 velocity=75 time=0
note_on channel=0 note=43 velocity=89 time=0
note_on channel=0 note=77 velocity=0 time=40
note_on channel=0 note=79 velocity=71 time=0
note_on channel=0 note=79 velocity=0 time=0
note_on channel=0 note=77 velocity=71 time=0
note_on channel=0 note=43 velocity=0 time=78
note_on channel=0 note=31 velocity=0 time=0
note_on channel=0 note=77 velocity=0 time=2
note_on channel=0 note=75 velocity=74 time=0
note_on channel=0 note=31 velocity=80 time=0
note_on channel=0 note=43 velocity=95 time=0
note_on channel=0 note=75 velocity=0 time=30
note_on channel=0 note=77 velocity=69 time=0
note_on channel=0 note=77 velocity=0 time=0
note_on channel=0 note=75 velocity=69 time=0
note_on channel=0 note=43 velocity=0 time=78
note_on channel=0 note=31 velocity=0 time=0
note_on channel=0 note=75 velocity=0 time=2
note_on channel=0 note=74 velocity=73 time=0
note_on channel=0 note=31 velocity=77 time=0
note_on channel=0 note=43 velocity=90 time=0
note_on channel=0 note=74 velocity=0 time=40
note_on channel=0 note=75 velocity=68 time=0
note_on channel=0 note=75 velocity=0 time=0
note_on channel=0 note=74 velocity=68 time=0
note_on channel=0 note=43 velocity=0 time=78
note_on channel=0 note=31 velocity=0 time=0
note_on channel=0 note=74 velocity=0 time=0
note_on channel=0 note=72 velocity=79 time=0
note_on channel=0 note=36 velocity=85 time=0
note_on channel=0 note=48 velocity=103 time=0
note_on channel=0 note=72 velocity=0 time=76
note_on channel=0 note=71 velocity=69 time=0
note_on channel=0 note=71 velocity=0 time=80
note_on channel=0 note=72 velocity=71 time=0
note_on channel=0 note=72 velocity=0 time=77
note_on channel=0 note=48 velocity=0 time=0
note_on channel=0 note=36 velocity=0 time=0
note_on channel=0 note=74 velocity=73 time=0
note_on channel=0 note=74 velocity=0 time=80
note_on channel=0 note=75 velocity=75 time=0
note_on channel=0 note=75 velocity=0 time=80
note_on channel=0 note=77 velocity=78 time=0
note_on channel=0 note=77 velocity=0 time=0
note_on channel=0 note=79 velocity=80 time=0
note_on channel=0 note=31 velocity=80 time=0
note_on channel=0 note=43 velocity=95 time=0
note_on channel=0 note=79 velocity=0 time=63
note_on channel=0 note=80 velocity=77 time=0
note_on channel=0 note=80 velocity=0 time=8
note_on channel=0 note=79 velocity=75 time=0
note_on channel=0 note=79 velocity=0 time=80
note_on channel=0 note=43 velocity=0 time=0
note_on channel=0 note=31 velocity=0 time=0
note_on channel=0 note=77 velocity=74 time=0
note_on channel=0 note=77 velocity=0 time=80
note_on channel=0 note=75 velocity=73 time=0
note_on channel=0 note=75 velocity=0 time=80
note_on channel=0 note=74 velocity=73 time=0
note_on channel=0 note=74 velocity=0 time=0
note_on channel=0 note=72 velocity=79 time=0
note_on channel=0 note=36 velocity=85 time=0
note_on channel=0 note=48 velocity=103 time=0
note_on channel=0 note=72 velocity=0 time=28
note_on channel=0 note=71 velocity=69 time=0
note_on channel=0 note=71 velocity=0 time=80
note_on channel=0 note=72 velocity=71 time=0
note_on channel=0 note=72 velocity=0 time=80
note_on channel=0 note=48 velocity=0 time=0
note_on channel=0 note=36 velocity=0 time=0
note_on channel=0 note=74 velocity=73 time=0
note_on channel=0 note=74 velocity=0 time=80
note_on channel=0 note=75 velocity=75 time=0
note_on channel=0 note=75 velocity=0 time=80
note_on channel=0 note=77 velocity=78 time=0
note_on channel=0 note=77 velocity=0 time=0
note_on channel=0 note=79 velocity=80 time=0
note_on channel=0 note=31 velocity=80 time=0
note_on channel=0 note=43 velocity=95 time=0
note_on channel=0 note=79 velocity=0 time=25
note_on channel=0 note=80 velocity=77 time=0
note_on channel=0 note=80 velocity=0 time=80
note_on channel=0 note=79 velocity=75 time=0
note_on channel=0 note=79 velocity=0 time=80
note_on channel=0 note=43 velocity=0 time=0
note_on channel=0 note=31 velocity=0 time=0
note_on channel=0 note=77 velocity=74 time=0
note_on channel=0 note=77 velocity=0 time=80
note_on channel=0 note=75 velocity=73 time=0
note_on channel=0 note=75 velocity=0 time=80
note_on channel=0 note=74 velocity=73 time=0
note_on channel=0 note=74 velocity=0 time=0
note_on channel=0 note=60 velocity=85 time=0
note_on channel=0 note=72 velocity=101 time=0
note_on channel=0 note=36 velocity=73 time=0
note_on channel=0 note=48 velocity=86 time=0
note_on channel=0 note=48 velocity=0 time=99
note_on channel=0 note=60 velocity=0 time=0
note_on channel=0 note=72 velocity=0 time=0
note_on channel=0 note=36 velocity=0 time=0
note_on channel=0 note=60 velocity=85 time=360
note_on channel=0 note=72 velocity=101 time=0
note_on channel=0 note=36 velocity=73 time=0
note_on channel=0 note=48 velocity=86 time=0
note_on channel=0 note=48 velocity=0 time=120
note_on channel=0 note=60 velocity=0 time=0
note_on channel=0 note=72 velocity=0 time=0
note_on channel=0 note=36 velocity=0 time=0
note_on channel=0 note=60 velocity=83 time=360
note_on channel=0 note=72 velocity=99 time=0
note_on channel=0 note=36 velocity=73 time=0
note_on channel=0 note=48 velocity=86 time=0
note_on channel=0 note=48 velocity=0 time=240
note_on channel=0 note=60 velocity=0 time=0
note_on channel=0 note=72 velocity=0 time=0
note_on channel=0 note=36 velocity=0 time=0
note_on channel=0 note=60 velocity=62 time=480
note_on channel=0 note=72 velocity=73 time=0
note_on channel=0 note=36 velocity=48 time=0
note_on channel=0 note=48 velocity=57 time=0
note_on channel=0 note=48 velocity=0 time=480
note_on channel=0 note=60 velocity=0 time=0
note_on channel=0 note=72 velocity=0 time=0
note_on channel=0 note=36 velocity=0 time=0
note_on channel=0 note=60 velocity=47 time=480
note_on channel=0 note=72 velocity=56 time=0
note_on channel=0 note=36 velocity=39 time=0
note_on channel=0 note=48 velocity=46 time=0
note_on channel=0 note=48 velocity=0 time=480
note_on channel=0 note=60 velocity=0 time=0
note_on channel=0 note=72 velocity=0 time=0
note_on channel=0 note=36 velocity=0 time=0
note_on channel=0 note=56 velocity=108 time=0
note_on channel=0 note=32 velocity=70 time=0
note_on channel=0 note=44 velocity=82 time=0
note_on channel=0 note=44 velocity=0 time=113
note_on channel=0 note=32 velocity=0 time=0
note_on channel=0 note=56 velocity=0 time=0
note_on channel=0 note=63 velocity=81 time=0
note_on channel=0 note=68 velocity=81 time=0
note_on channel=0 note=72 velocity=81 time=0
note_on channel=0 note=75 velocity=96 time=0
note_on channel=0 note=44 velocity=58 time=0
note_on channel=0 note=48 velocity=58 time=0
note_on channel=0 note=51 velocity=58 time=0
note_on channel=0 note=56 velocity=69 time=0
note_on channel=0 note=56 velocity=0 time=240
note_on channel=0 note=63 velocity=0 time=0
note_on channel=0 note=44 velocity=0 time=0
note_on channel=0 note=68 velocity=0 time=0
note_on channel=0 note=72 velocity=0 time=0
note_on channel=0 note=75 velocity=0 time=0
note_on channel=0 note=48 velocity=0 time=0
note_on channel=0 note=51 velocity=0 time=0
note_on channel=0 note=75 velocity=81 time=0
note_on channel=0 note=80 velocity=81 time=0
note_on channel=0 note=84 velocity=81 time=0
note_on channel=0 note=87 velocity=97 time=0
note_on channel=0 note=56 velocity=60 time=0
note_on channel=0 note=60 velocity=60 time=0
note_on channel=0 note=63 velocity=60 time=0
note_on channel=0 note=68 velocity=71 time=0
note_on channel=0 note=68 velocity=0 time=0
note_on channel=0 note=75 velocity=0 time=0
note_on channel=0 note=56 velocity=0 time=0
note_on channel=0 note=80 velocity=0 time=0
note_on channel=0 note=84 velocity=0 time=0
note_on channel=0 note=87 velocity=0 time=0
note_on channel=0 note=60 velocity=0 time=0
note_on channel=0 note=63 velocity=0 time=0
note_on channel=0 note=84 velocity=64 time=0
note_on channel=0 note=75 velocity=54 time=0
note_on channel=0 note=56 velocity=40 time=0
note_on channel=0 note=60 velocity=40 time=0
note_on channel=0 note=63 velocity=40 time=0
note_on channel=0 note=68 velocity=48 time=0
note_on channel=0 note=68 velocity=0 time=0
note_on channel=0 note=75 velocity=0 time=0
note_on channel=0 note=56 velocity=0 time=0
note_on channel=0 note=84 velocity=0 time=0
note_on channel=0 note=63 velocity=0 time=0
note_on channel=0 note=60 velocity=0 time=0
note_on channel=0 note=73 velocity=57 time=0
note_on channel=0 note=82 velocity=68 time=0
note_on channel=0 note=56 velocity=44 time=0
note_on channel=0 note=58 velocity=44 time=0
note_on channel=0 note=61 velocity=44 time=0
note_on channel=0 note=63 velocity=44 time=0
note_on channel=0 note=67 velocity=52 time=0
note_on channel=0 note=67 velocity=0 time=0
note_on channel=0 note=61 velocity=0 time=0
note_on channel=0 note=82 velocity=0 time=0
note_on channel=0 note=56 velocity=0 time=0
note_on channel=0 note=73 velocity=0 time=0
note_on channel=0 note=63 velocity=0 time=0
note_on channel=0 note=58 velocity=0 time=0
note_on channel=0 note=73 velocity=50 time=0
note_on channel=0 note=75 velocity=60 time=0
note_on channel=0 note=56 velocity=33 time=0
note_on channel=0 note=58 velocity=33 time=0
note_on channel=0 note=61 velocity=33 time=0
note_on channel=0 note=63 velocity=33 time=0
note_on channel=0 note=67 velocity=39 time=0
note_on channel=0 note=67 velocity=0 time=480
note_on channel=0 note=61 velocity=0 time=0
note_on channel=0 note=75 velocity=0 time=0
note_on channel=0 note=56 velocity=0 time=0
note_on channel=0 note=73 velocity=0 time=0
note_on channel=0 note=63 velocity=0 time=0
note_on channel=0 note=58 velocity=0 time=0
note_on channel=0 note=72 velocity=50 time=0
note_on channel=0 note=80 velocity=60 time=0
note_on channel=0 note=56 velocity=33 time=0
note_on channel=0 note=60 velocity=33 time=0
note_on channel=0 note=63 velocity=33 time=0
note_on channel=0 note=68 velocity=39 time=0
note_on channel=0 note=68 velocity=0 time=473
note_on channel=0 note=80 velocity=0 time=0
note_on channel=0 note=56 velocity=0 time=0
note_on channel=0 note=72 velocity=0 time=0
note_on channel=0 note=63 velocity=0 time=0
note_on channel=0 note=60 velocity=0 time=0
note_on channel=0 note=53 velocity=108 time=0
note_on channel=0 note=29 velocity=70 time=0
note_on channel=0 note=41 velocity=82 time=0
note_on channel=0 note=41 velocity=0 time=197
note_on channel=0 note=29 velocity=0 time=0
note_on channel=0 note=53 velocity=0 time=0
note_on channel=0 note=60 velocity=81 time=0
note_on channel=0 note=65 velocity=81 time=0
note_on channel=0 note=68 velocity=81 time=0
note_on channel=0 note=72 velocity=96 time=0
note_on channel=0 note=41 velocity=58 time=0
note_on channel=0 note=44 velocity=58 time=0
note_on channel=0 note=48 velocity=58 time=0
note_on channel=0 note=53 velocity=69 time=0
note_on channel=0 note=53 velocity=0 time=240
note_on channel=0 note=60 velocity=0 time=0
note_on channel=0 note=41 velocity=0 time=0
note_on channel=0 note=65 velocity=0 time=0
note_on channel=0 note=68 velocity=0 time=0
note_on channel=0 note=72 velocity=0 time=0
note_on channel=0 note=44 velocity=0 time=0
note_on channel=0 note=48 velocity=0 time=0
note_on channel=0 note=72 velocity=79 time=0
note_on channel=0 note=77 velocity=79 time=0
note_on channel=0 note=80 velocity=79 time=0
note_on channel=0 note=84 velocity=95 time=0
note_on channel=0 note=53 velocity=59 time=0
note_on channel=0 note=56 velocity=59 time=0
note_on channel=0 note=60 velocity=59 time=0
note_on channel=0 note=65 velocity=70 time=0
note_on channel=0 note=65 velocity=0 time=0
note_on channel=0 note=72 velocity=0 time=0
note_on channel=0 note=53 velocity=0 time=0
note_on channel=0 note=77 velocity=0 time=0
note_on channel=0 note=80 velocity=0 time=0
note_on channel=0 note=84 velocity=0 time=0
note_on channel=0 note=56 velocity=0 time=0
note_on channel=0 note=60 velocity=0 time=0
note_on channel=0 note=80 velocity=64 time=0
note_on channel=0 note=72 velocity=54 time=0
note_on channel=0 note=53 velocity=40 time=0
note_on channel=0 note=56 velocity=40 time=0
note_on channel=0 note=60 velocity=40 time=0
note_on channel=0 note=65 velocity=48 time=0
note_on channel=0 note=65 velocity=0 time=0
note_on channel=0 note=72 velocity=0 time=0
note_on channel=0 note=53 velocity=0 time=0
note_on channel=0 note=80 velocity=0 time=0
note_on channel=0 note=60 velocity=0 time=0
note_on channel=0 note=56 velocity=0 time=0
note_on channel=0 note=70 velocity=57 time=0
note_on channel=0 note=79 velocity=68 time=0
note_on channel=0 note=53 velocity=44 time=0
note_on channel=0 note=55 velocity=44 time=0
note_on channel=0 note=58 velocity=44 time=0
note_on channel=0 note=60 velocity=44 time=0
note_on channel=0 note=64 velocity=52 time=0
note_on channel=0 note=64 velocity=0 time=0
note_on channel=0 note=58 velocity=0 time=0
note_on channel=0 note=79 velocity=0 time=0
note_on channel=0 note=53 velocity=0 time=0
note_on channel=0 note=70 velocity=0 time=0
note_on channel=0 note=60 velocity=0 time=0
note_on channel=0 note=55 velocity=0 time=0
note_on channel=0 note=70 velocity=50 time=0
note_on channel=0 note=72 velocity=60 time=0
note_on channel=0 note=53 velocity=33 time=0
note_on channel=0 note=55 velocity=33 time=0
note_on channel=0 note=58 velocity=33 time=0
note_on channel=0 note=60 velocity=33 time=0
note_on channel=0 note=64 velocity=39 time=0
note_on channel=0 note=64 velocity=0 time=480
note_on channel=0 note=58 velocity=0 time=0
note_on channel=0 note=72 velocity=0 time=0
note_on channel=0 note=53 velocity=0 time=0
note_on channel=0 note=70 velocity=0 time=0
note_on channel=0 note=60 velocity=0 time=0
note_on channel=0 note=55 velocity=0 time=0
note_on channel=0 note=68 velocity=50 time=0
note_on channel=0 note=77 velocity=60 time=0
note_on channel=0 note=53 velocity=33 time=0
note_on channel=0 note=56 velocity=33 time=0
note_on channel=0 note=60 velocity=33 time=0
note_on channel=0 note=65 velocity=39 time=0
note_on channel=0 note=65 velocity=0 time=476
note_on channel=0 note=77 velocity=0 time=0
note_on channel=0 note=53 velocity=0 time=0
note_on channel=0 note=68 velocity=0 time=0
note_on channel=0 note=60 velocity=0 time=0
note_on channel=0 note=56 velocity=0 time=0
note_on channel=0 note=61 velocity=108 time=0
note_on channel=0 note=37 velocity=70 time=0
note_on channel=0 note=49 velocity=82 time=0
note_on channel=0 note=49 velocity=0 time=171
note_on channel=0 note=37 velocity=0 time=0
note_on channel=0 note=61 velocity=0 time=0
note_on channel=0 note=68 velocity=81 time=0
note_on channel=0 note=73 velocity=81 time=0
note_on channel=0 note=77 velocity=81 time=0
note_on channel=0 note=80 velocity=96 time=0
note_on channel=0 note=49 velocity=58 time=0
note_on channel=0 note=53 velocity=58 time=0
note_on channel=0 note=56 velocity=58 time=0
note_on channel=0 note=61 velocity=69 time=0
note_on channel=0 note=61 velocity=0 time=240
note_on channel=0 note=68 velocity=0 time=0
note_on channel=0 note=49 velocity=0 time=0
note_on channel=0 note=73 velocity=0 time=0
note_on channel=0 note=77 velocity=0 time=0
note_on channel=0 note=80 velocity=0 time=0
note_on channel=0 note=53 velocity=0 time=0
note_on channel=0 note=56 velocity=0 time=0
note_on channel=0 note=80 velocity=81 time=0
note_on channel=0 note=85 velocity=81 time=0
note_on channel=0 note=89 velocity=81 time=0
note_on channel=0 note=92 velocity=97 time=0
note_on channel=0 note=61 velocity=60 time=0
note_on channel=0 note=65 velocity=60 time=0
note_on channel=0 note=68 velocity=60 time=0
note_on channel=0 note=73 velocity=71 time=0
note_on channel=0 note=73 velocity=0 time=0
note_on channel=0 note=80 velocity=0 time=0
note_on channel=0 note=61 velocity=0 time=0
note_on channel=0 note=85 velocity=0 time=0
note_on channel=0 note=89 velocity=0 time=0
note_on channel=0 note=92 velocity=0 time=0
note_on channel=0 note=65 velocity=0 time=0
note_on channel=0 note=68 velocity=0 time=0
note_on channel=0 note=89 velocity=64 time=0
note_on channel=0 note=80 velocity=54 time=0
note_on channel=0 note=61 velocity=40 time=0
note_on channel=0 note=65 velocity=40 time=0
note_on channel=0 note=68 velocity=40 time=0
note_on channel=0 note=73 velocity=48 time=0
note_on channel=0 note=73 velocity=0 time=0
note_on channel=0 note=80 velocity=0 time=0
note_on channel=0 note=61 velocity=0 time=0
note_on channel=0 note=89 velocity=0 time=0
note_on channel=0 note=68 velocity=0 time=0
note_on channel=0 note=65 velocity=0 time=0
note_on channel=0 note=78 velocity=57 time=0
note_on channel=0 note=87 velocity=68 time=0
note_on channel=0 note=61 velocity=44 time=0
note_on channel=0 note=63 velocity=44 time=0
note_on channel=0 note=66 velocity=44 time=0
note_on channel=0 note=68 velocity=44 time=0
note_on channel=0 note=72 velocity=52 time=0
note_on channel=0 note=72 velocity=0 time=0
note_on channel=0 note=66 velocity=0 time=0
note_on channel=0 note=87 velocity=0 time=0
note_on channel=0 note=61 velocity=0 time=0
note_on channel=0 note=78 velocity=0 time=0
note_on channel=0 note=68 velocity=0 time=0
note_on channel=0 note=63 velocity=0 time=0
note_on channel=0 note=78 velocity=50 time=0
note_on channel=0 note=80 velocity=60 time=0
note_on channel=0 note=61 velocity=33 time=0
note_on channel=0 note=63 velocity=33 time=0
note_on channel=0 note=66 velocity=33 time=0
note_on channel=0 note=68 velocity=33 time=0
note_on channel=0 note=72 velocity=39 time=0
note_on channel=0 note=72 velocity=0 time=480
note_on channel=0 note=66 velocity=0 time=0
note_on channel=0 note=80 velocity=0 time=0
note_on channel=0 note=61 velocity=0 time=0
note_on channel=0 note=78 velocity=0 time=0
note_on channel=0 note=68 velocity=0 time=0
note_on channel=0 note=63 velocity=0 time=0
note_on channel=0 note=77 velocity=50 time=0
note_on channel=0 note=85 velocity=60 time=0
note_on channel=0 note=61 velocity=33 time=0
note_on channel=0 note=65 velocity=33 time=0
note_on channel=0 note=68 velocity=33 time=0
note_on channel=0 note=73 velocity=39 time=0
note_on channel=0 note=73 velocity=0 time=0
note_on channel=0 note=85 velocity=0 time=0
note_on channel=0 note=61 velocity=0 time=0
note_on channel=0 note=77 velocity=0 time=0
note_on channel=0 note=68 velocity=0 time=0
note_on channel=0 note=65 velocity=0 time=0
note_on channel=0 note=77 velocity=51 time=0
note_on channel=0 note=68 velocity=43 time=0
note_on channel=0 note=49 velocity=32 time=0
note_on channel=0 note=56 velocity=32 time=0
note_on channel=0 note=61 velocity=38 time=0
note_on channel=0 note=61 velocity=0 time=0
note_on channel=0 note=49 velocity=0 time=0
note_on channel=0 note=77 velocity=0 time=0
note_on channel=0 note=68 velocity=0 time=0
note_on channel=0 note=56 velocity=0 time=0
note_on channel=0 note=66 velocity=45 time=0
note_on channel=0 note=75 velocity=54 time=0
note_on channel=0 note=49 velocity=35 time=0
note_on channel=0 note=56 velocity=35 time=0
note_on channel=0 note=60 velocity=41 time=0
note_on channel=0 note=60 velocity=0 time=0
note_on channel=0 note=49 velocity=0 time=0
note_on channel=0 note=66 velocity=0 time=0
note_on channel=0 note=75 velocity=0 time=0
note_on channel=0 note=56 velocity=0 time=0
note_on channel=0 note=66 velocity=39 time=0
note_on channel=0 note=68 velocity=47 time=0
note_on channel=0 note=49 velocity=26 time=0
note_on channel=0 note=56 velocity=26 time=0
note_on channel=0 note=60 velocity=31 time=0
note_on channel=0 note=60 velocity=0 time=480
note_on channel=0 note=49 velocity=0 time=0
note_on channel=0 note=66 velocity=0 time=0
note_on channel=0 note=68 velocity=0 time=0
note_on channel=0 note=56 velocity=0 time=0
note_on channel=0 note=65 velocity=39 time=0
note_on channel=0 note=73 velocity=47 time=0
note_on channel=0 note=49 velocity=26 time=0
note_on channel=0 note=56 velocity=26 time=0
note_on channel=0 note=61 velocity=31 time=0
note_on channel=0 note=61 velocity=0 time=0
note_on channel=0 note=49 velocity=0 time=0
note_on channel=0 note=65 velocity=0 time=0
note_on channel=0 note=73 velocity=0 time=0
note_on channel=0 note=56 velocity=0 time=0
note_on channel=0 note=65 velocity=38 time=0
note_on channel=0 note=56 velocity=32 time=0
note_on channel=0 note=37 velocity=19 time=0
note_on channel=0 note=44 velocity=23 time=0
note_on channel=0 note=49 velocity=28 time=0
note_on channel=0 note=49 velocity=0 time=0
note_on channel=0 note=37 velocity=0 time=0
note_on channel=0 note=65 velocity=0 time=0
note_on channel=0 note=56 velocity=0 time=0
note_on channel=0 note=44 velocity=0 time=0
note_on channel=0 note=54 velocity=34 time=0
note_on channel=0 note=63 velocity=40 time=0
note_on channel=0 note=37 velocity=22 time=0
note_on channel=0 note=44 velocity=26 time=0
note_on channel=0 note=48 velocity=30 time=0
note_on channel=0 note=48 velocity=0 time=383
note_on channel=0 note=37 velocity=0 time=0
note_on channel=0 note=54 velocity=0 time=0
note_on channel=0 note=63 velocity=0 time=0
note_on channel=0 note=44 velocity=0 time=0
note_on channel=0 note=54 velocity=29 time=0
note_on channel=0 note=56 velocity=35 time=0
note_on channel=0 note=37 velocity=16 time=0
note_on channel=0 note=44 velocity=19 time=0
note_on channel=0 note=48 velocity=23 time=0
note_on channel=0 note=48 velocity=0 time=475
note_on channel=0 note=37 velocity=0 time=0
note_on channel=0 note=54 velocity=0 time=0
note_on channel=0 note=56 velocity=0 time=0
note_on channel=0 note=44 velocity=0 time=0
note_on channel=0 note=53 velocity=29 time=5
note_on channel=0 note=61 velocity=35 time=0
note_on channel=0 note=37 velocity=16 time=0
note_on channel=0 note=44 velocity=19 time=0
note_on channel=0 note=49 velocity=23 time=0
note_on channel=0 note=49 velocity=0 time=475
note_on channel=0 note=37 velocity=0 time=0
note_on channel=0 note=53 velocity=0 time=0
note_on channel=0 note=61 velocity=0 time=0
note_on channel=0 note=44 velocity=0 time=0
note_on channel=0 note=56 velocity=35 time=5
note_on channel=0 note=53 velocity=29 time=0
note_on channel=0 note=37 velocity=16 time=0
note_on channel=0 note=44 velocity=19 time=0
note_on channel=0 note=49 velocity=23 time=0
note_on channel=0 note=49 velocity=0 time=475
note_on channel=0 note=37 velocity=0 time=0
note_on channel=0 note=56 velocity=0 time=0
note_on channel=0 note=53 velocity=0 time=0
note_on channel=0 note=44 velocity=0 time=0
note_on channel=0 note=54 velocity=34 time=0
note_on channel=0 note=63 velocity=40 time=0
note_on channel=0 note=48 velocity=30 time=0
note_on channel=0 note=37 velocity=22 time=0
note_on channel=0 note=44 velocity=26 time=0
note_on channel=0 note=44 velocity=0 time=475
note_on channel=0 note=48 velocity=0 time=0
note_on channel=0 note=54 velocity=0 time=0
note_on channel=0 note=63 velocity=0 time=0
note_on channel=0 note=37 velocity=0 time=0
note_on channel=0 note=54 velocity=29 time=5
note_on channel=0 note=56 velocity=35 time=0
note_on channel=0 note=48 velocity=23 time=0
note_on channel=0 note=37 velocity=16 time=0
note_on channel=0 note=44 velocity=19 time=0
note_on channel=0 note=44 velocity=0 time=475
note_on channel=0 note=48 velocity=0 time=0
note_on channel=0 note=54 velocity=0 time=0
note_on channel=0 note=56 velocity=0 time=0
note_on channel=0 note=37 velocity=0 time=0
note_on channel=0 note=54 velocity=34 time=0
note_on channel=0 note=63 velocity=40 time=0
note_on channel=0 note=48 velocity=30 time=0
note_on channel=0 note=37 velocity=22 time=0
note_on channel=0 note=44 velocity=26 time=0
note_on channel=0 note=44 velocity=0 time=475
note_on channel=0 note=48 velocity=0 time=0
note_on channel=0 note=54 velocity=0 time=0
note_on channel=0 note=63 velocity=0 time=0
note_on channel=0 note=37 velocity=0 time=0
note_on channel=0 note=54 velocity=29 time=5
note_on channel=0 note=56 velocity=35 time=0
note_on channel=0 note=48 velocity=23 time=0
note_on channel=0 note=37 velocity=16 time=0
note_on channel=0 note=44 velocity=19 time=0
note_on channel=0 note=44 velocity=0 time=475
note_on channel=0 note=48 velocity=0 time=0
note_on channel=0 note=54 velocity=0 time=0
note_on channel=0 note=56 velocity=0 time=0
note_on channel=0 note=37 velocity=0 time=0
note_on channel=0 note=53 velocity=30 time=0
note_on channel=0 note=61 velocity=36 time=0
note_on channel=0 note=37 velocity=16 time=0
note_on channel=0 note=44 velocity=19 time=0
note_on channel=0 note=49 velocity=23 time=0
note_on channel=0 note=49 velocity=0 time=0
note_on channel=0 note=37 velocity=0 time=0
note_on channel=0 note=53 velocity=0 time=0
note_on channel=0 note=61 velocity=0 time=0
note_on channel=0 note=44 velocity=0 time=0
note_on channel=0 note=56 velocity=27 time=0
note_on channel=0 note=61 velocity=32 time=0
note_on channel=0 note=65 velocity=38 time=0
note_on channel=0 note=49 velocity=36 time=80
note_on channel=0 note=65 velocity=0 time=235
note_on channel=0 note=56 velocity=0 time=0
note_on channel=0 note=61 velocity=0 time=0
note_on channel=0 note=49 velocity=0 time=5
note_on channel=0 note=56 velocity=27 time=0
note_on channel=0 note=61 velocity=32 time=0
note_on channel=0 note=65 velocity=38 time=0
note_on channel=0 note=49 velocity=38 time=240
note_on channel=0 note=65 velocity=0 time=235
note_on channel=0 note=56 velocity=0 time=0
note_on channel=0 note=61 velocity=0 time=0
note_on channel=0 note=49 velocity=0 time=5
note_on channel=0 note=56 velocity=27 time=0
note_on channel=0 note=61 velocity=32 time=0
note_on channel=0 note=65 velocity=38 time=0
note_on channel=0 note=49 velocity=38 time=0
note_on channel=0 note=65 velocity=0 time=120
note_on channel=0 note=56 velocity=0 time=0
note_on channel=0 note=61 velocity=0 time=0
note_on channel=0 note=49 velocity=0 time=0
note_on channel=0 note=65 velocity=52 time=0
note_on channel=0 note=56 velocity=37 time=0
note_on channel=0 note=61 velocity=44 time=0
note_on channel=0 note=65 velocity=0 time=238
note_on channel=0 note=63 velocity=52 time=0
note_on channel=0 note=44 velocity=45 time=0
note_on channel=0 note=61 velocity=0 time=235
note_on channel=0 note=56 velocity=0 time=0
note_on channel=0 note=63 velocity=0 time=3
note_on channel=0 note=44 velocity=0 time=0
note_on channel=0 note=56 velocity=30 time=0
note_on channel=0 note=60 velocity=36 time=0
note_on channel=0 note=63 velocity=43 time=0
note_on channel=0 note=44 velocity=42 time=0
note_on channel=0 note=63 velocity=0 time=235
note_on channel=0 note=56 velocity=0 time=0
note_on channel=0 note=60 velocity=0 time=0
note_on channel=0 note=44 velocity=0 time=5
note_on channel=0 note=56 velocity=30 time=0
note_on channel=0 note=60 velocity=36 time=0
note_on channel=0 note=63 velocity=43 time=0
note_on channel=0 note=60 velocity=0 time=238
note_on channel=0 note=59 velocity=30 time=2
note_on channel=0 note=44 velocity=38 time=0
note_on channel=0 note=63 velocity=0 time=235
note_on channel=0 note=56 velocity=0 time=0
note_on channel=0 note=59 velocity=0 time=3
note_on channel=0 note=44 velocity=0 time=2
note_on channel=0 note=56 velocity=30 time=0
note_on channel=0 note=59 velocity=36 time=0
note_on channel=0 note=63 velocity=43 time=0
note_on channel=0 note=44 velocity=38 time=0
note_on channel=0 note=63 velocity=0 time=34
note_on channel=0 note=56 velocity=0 time=0
note_on channel=0 note=59 velocity=0 time=0
note_on channel=0 note=44 velocity=0 time=0
note_on channel=0 note=56 velocity=41 time=0
note_on channel=0 note=60 velocity=41 time=0
note_on channel=0 note=62 velocity=49 time=0
note_on channel=0 note=65 velocity=58 time=0
note_on channel=0 note=65 velocity=0 time=238
note_on channel=0 note=56 velocity=0 time=0
note_on channel=0 note=60 velocity=0 time=0
note_on channel=0 note=62 velocity=0 time=0
note_on channel=0 note=54 velocity=25 time=0
note_on channel=0 note=58 velocity=30 time=0
note_on channel=0 note=63 velocity=39 time=0
note_on channel=0 note=66 velocity=47 time=0
note_on channel=0 note=39 velocity=25 time=0
note_on channel=0 note=66 velocity=0 time=238
note_on channel=0 note=63 velocity=0 time=0
note_on channel=0 note=54 velocity=0 time=0
note_on channel=0 note=58 velocity=0 time=0
note_on channel=0 note=39 velocity=0 time=0
note_on channel=0 note=58 velocity=27 time=0
note_on channel=0 note=63 velocity=32 time=0
note_on channel=0 note=66 velocity=38 time=0
note_on channel=0 note=51 velocity=36 time=0
note_on channel=0 note=66 velocity=0 time=86
note_on channel=0 note=58 velocity=0 time=0
note_on channel=0 note=63 velocity=0 time=0
note_on channel=0 note=51 velocity=0 time=5
note_on channel=0 note=58 velocity=27 time=0
note_on channel=0 note=63 velocity=32 time=0
note_on channel=0 note=66 velocity=38 time=0
note_on channel=0 note=51 velocity=38 time=240
note_on channel=0 note=66 velocity=0 time=235
note_on channel=0 note=58 velocity=0 time=0
note_on channel=0 note=63 velocity=0 time=0
note_on channel=0 note=51 velocity=0 time=5
note_on channel=0 note=58 velocity=27 time=0
note_on channel=0 note=63 velocity=32 time=0
note_on channel=0 note=66 velocity=38 time=0
note_on channel=0 note=51 velocity=38 time=0
note_on channel=0 note=66 velocity=0 time=86
note_on channel=0 note=58 velocity=0 time=0
note_on channel=0 note=63 velocity=0 time=0
note_on channel=0 note=51 velocity=0 time=0
note_on channel=0 note=66 velocity=52 time=0
note_on channel=0 note=58 velocity=37 time=0
note_on channel=0 note=63 velocity=44 time=0
note_on channel=0 note=66 velocity=0 time=238
note_on channel=0 note=65 velocity=52 time=0
note_on channel=0 note=46 velocity=45 time=0
note_on channel=0 note=63 velocity=0 time=235
note_on channel=0 note=58 velocity=0 time=0
note_on channel=0 note=65 velocity=0 time=3
note_on channel=0 note=46 velocity=0 time=0
note_on channel=0 note=58 velocity=30 time=0
note_on channel=0 note=62 velocity=36 time=0
note_on channel=0 note=65 velocity=43 time=0
note_on channel=0 note=46 velocity=42 time=113
note_on channel=0 note=65 velocity=0 time=235
note_on channel=0 note=58 velocity=0 time=0
note_on channel=0 note=62 velocity=0 time=0
note_on channel=0 note=46 velocity=0 time=5
note_on channel=0 note=58 velocity=30 time=0
note_on channel=0 note=62 velocity=36 time=0
note_on channel=0 note=65 velocity=43 time=0
note_on channel=0 note=62 velocity=0 time=238
note_on channel=0 note=61 velocity=30 time=2
note_on channel=0 note=46 velocity=38 time=0
note_on channel=0 note=65 velocity=0 time=137
note_on channel=0 note=58 velocity=0 time=0
note_on channel=0 note=61 velocity=0 time=3
note_on channel=0 note=46 velocity=0 time=2
note_on channel=0 note=58 velocity=30 time=0
note_on channel=0 note=61 velocity=36 time=0
note_on channel=0 note=65 velocity=43 time=0
note_on channel=0 note=46 velocity=41 time=0
note_on channel=0 note=65 velocity=0 time=235
note_on channel=0 note=58 velocity=0 time=0
note_on channel=0 note=61 velocity=0 time=0
note_on channel=0 note=46 velocity=0 time=0
note_on channel=0 note=58 velocity=41 time=0
note_on channel=0 note=62 velocity=41 time=0
note_on channel=0 note=64 velocity=49 time=0
note_on channel=0 note=67 velocity=58 time=0
note_on channel=0 note=67 velocity=0 time=0
note_on channel=0 note=58 velocity=0 time=0
note_on channel=0 note=62 velocity=0 time=0
note_on channel=0 note=64 velocity=0 time=0
note_on channel=0 note=56 velocity=25 time=0
note_on channel=0 note=60 velocity=30 time=0
note_on channel=0 note=65 velocity=39 time=0
note_on channel=0 note=68 velocity=47 time=0
note_on channel=0 note=41 velocity=25 time=0
note_on channel=0 note=68 velocity=0 time=238
note_on channel=0 note=65 velocity=0 time=0
note_on channel=0 note=56 velocity=0 time=0
note_on channel=0 note=60 velocity=0 time=0
note_on channel=0 note=41 velocity=0 time=0
note_on channel=0 note=60 velocity=27 time=0
note_on channel=0 note=65 velocity=32 time=0
note_on channel=0 note=68 velocity=38 time=0
note_on channel=0 note=53 velocity=36 time=14
note_on channel=0 note=68 velocity=0 time=235
note_on channel=0 note=60 velocity=0 time=0
note_on channel=0 note=65 velocity=0 time=0
note_on channel=0 note=53 velocity=0 time=5
note_on channel=0 note=60 velocity=27 time=0
note_on channel=0 note=65 velocity=32 time=0
note_on channel=0 note=68 velocity=38 time=0
note_on channel=0 note=53 velocity=38 time=240
note_on channel=0 note=68 velocity=0 time=235
note_on channel=0 note=60 velocity=0 time=0
note_on channel=0 note=65 velocity=0 time=0
note_on channel=0 note=53 velocity=0 time=5
note_on channel=0 note=60 velocity=27 time=0
note_on channel=0 note=65 velocity=32 time=0
note_on channel=0 note=68 velocity=38 time=0
note_on channel=0 note=53 velocity=38 time=0
note_on channel=0 note=68 velocity=0 time=79
note_on channel=0 note=60 velocity=0 time=0
note_on channel=0 note=65 velocity=0 time=0
note_on channel=0 note=53 velocity=0 time=0
note_on channel=0 note=68 velocity=48 time=0
note_on channel=0 note=60 velocity=34 time=0
note_on channel=0 note=65 velocity=40 time=0
note_on channel=0 note=68 velocity=0 time=238
note_on channel=0 note=67 velocity=48 time=0
note_on channel=0 note=48 velocity=41 time=0
note_on channel=0 note=65 velocity=0 time=235
note_on channel=0 note=60 velocity=0 time=0
note_on channel=0 note=67 velocity=0 time=3
note_on channel=0 note=48 velocity=0 time=0
note_on channel=0 note=60 velocity=30 time=0
note_on channel=0 note=64 velocity=36 time=0
note_on channel=0 note=67 velocity=43 time=0
note_on channel=0 note=48 velocity=42 time=240
note_on channel=0 note=67 velocity=0 time=222
note_on channel=0 note=60 velocity=0 time=0
note_on channel=0 note=64 velocity=0 time=0
note_on channel=0 note=48 velocity=0 time=0
note_on channel=0 note=60 velocity=34 time=0
note_on channel=0 note=64 velocity=40 time=0
note_on channel=0 note=67 velocity=48 time=0
note_on channel=0 note=67 velocity=0 time=238
note_on channel=0 note=64 velocity=0 time=0
note_on channel=0 note=68 velocity=48 time=0
note_on channel=0 note=65 velocity=34 time=0
note_on channel=0 note=53 velocity=38 time=0
note_on channel=0 note=60 velocity=0 time=94
note_on channel=0 note=68 velocity=0 time=3
note_on channel=0 note=65 velocity=0 time=0
note_on channel=0 note=53 velocity=0 time=0
note_on channel=0 note=60 velocity=30 time=0
note_on channel=0 note=65 velocity=36 time=0
note_on channel=0 note=68 velocity=43 time=0
note_on channel=0 note=53 velocity=38 time=240
note_on channel=0 note=68 velocity=0 time=235
note_on channel=0 note=60 velocity=0 time=0
note_on channel=0 note=65 velocity=0 time=0
note_on channel=0 note=53 velocity=0 time=5
note_on channel=0 note=60 velocity=34 time=0
note_on channel=0 note=65 velocity=40 time=0
note_on channel=0 note=68 velocity=47 time=0
note_on channel=0 note=68 velocity=0 time=0
note_on channel=0 note=65 velocity=0 time=0
note_on channel=0 note=60 velocity=0 time=0
note_on channel=0 note=36 velocity=46 time=0
note_on channel=0 note=60 velocity=36 time=0
note_on channel=0 note=60 velocity=0 time=120
note_on channel=0 note=36 velocity=0 time=0
note_on channel=0 note=64 velocity=37 time=0
note_on channel=0 note=64 velocity=0 time=120
note_on channel=0 note=67 velocity=38 time=0
note_on channel=0 note=67 velocity=0 time=120
note_on channel=0 note=71 velocity=40 time=0
note_on channel=0 note=52 velocity=39 time=0
note_on channel=0 note=55 velocity=39 time=0
note_on channel=0 note=71 velocity=0 time=120
note_on channel=0 note=72 velocity=41 time=0
note_on channel=0 note=72 velocity=0 time=0
note_on channel=0 note=76 velocity=42 time=0
note_on channel=0 note=76 velocity=0 time=0
note_on channel=0 note=79 velocity=44 time=0
note_on channel=0 note=79 velocity=0 time=0
note_on channel=0 note=55 velocity=0 time=0
note_on channel=0 note=52 velocity=0 time=0
note_on channel=0 note=83 velocity=45 time=0
note_on channel=0 note=52 velocity=39 time=0
note_on channel=0 note=55 velocity=39 time=0
note_on channel=0 note=83 velocity=0 time=120
note_on channel=0 note=84 velocity=44 time=0
note_on channel=0 note=84 velocity=0 time=120
note_on channel=0 note=79 velocity=43 time=0
note_on channel=0 note=79 velocity=0 time=120
note_on channel=0 note=76 velocity=43 time=0
note_on channel=0 note=76 velocity=0 time=120
note_on channel=0 note=72 velocity=42 time=0
note_on channel=0 note=72 velocity=0 time=120
note_on channel=0 note=67 velocity=41 time=0
note_on channel=0 note=67 velocity=0 time=0
note_on channel=0 note=64 velocity=41 time=0
note_on channel=0 note=64 velocity=0 time=0
note_on channel=0 note=60 velocity=40 time=0
note_on channel=0 note=60 velocity=0 time=0
note_on channel=0 note=55 velocity=0 time=0
note_on channel=0 note=52 velocity=0 time=0
note_on channel=0 note=36 velocity=46 time=0
note_on channel=0 note=61 velocity=36 time=0
note_on channel=0 note=61 velocity=0 time=120
note_on channel=0 note=36 velocity=0 time=0
note_on channel=0 note=65 velocity=37 time=0
note_on channel=0 note=65 velocity=0 time=120
note_on channel=0 note=68 velocity=38 time=0
note_on channel=0 note=68 velocity=0 time=120
note_on channel=0 note=72 velocity=40 time=0
note_on channel=0 note=53 velocity=39 time=0
note_on channel=0 note=56 velocity=39 time=0
note_on channel=0 note=72 velocity=0 time=120
note_on channel=0 note=73 velocity=41 time=0
note_on channel=0 note=73 velocity=0 time=0
note_on channel=0 note=77 velocity=42 time=0
note_on channel=0 note=77 velocity=0 time=0
note_on channel=0 note=80 velocity=44 time=0
note_on channel=0 note=80 velocity=0 time=0
note_on channel=0 note=56 velocity=0 time=0
note_on channel=0 note=53 velocity=0 time=0
note_on channel=0 note=84 velocity=45 time=0
note_on channel=0 note=53 velocity=39 time=0
note_on channel=0 note=56 velocity=39 time=0
note_on channel=0 note=84 velocity=0 time=120
note_on channel=0 note=85 velocity=44 time=0
note_on channel=0 note=85 velocity=0 time=120
note_on channel=0 note=80 velocity=43 time=0
note_on channel=0 note=80 velocity=0 time=120
note_on channel=0 note=77 velocity=43 time=0
note_on channel=0 note=77 velocity=0 time=120
note_on channel=0 note=73 velocity=42 time=0
note_on channel=0 note=73 velocity=0 time=120
note_on channel=0 note=68 velocity=41 time=0
note_on channel=0 note=68 velocity=0 time=0
note_on channel=0 note=65 velocity=41 time=0
note_on channel=0 note=65 velocity=0 time=0
note_on channel=0 note=61 velocity=40 time=0
note_on channel=0 note=61 velocity=0 time=0
note_on channel=0 note=56 velocity=0 time=0
note_on channel=0 note=53 velocity=0 time=0
note_on channel=0 note=36 velocity=46 time=0
note_on channel=0 note=64 velocity=36 time=0
note_on channel=0 note=64 velocity=0 time=0
note_on channel=0 note=36 velocity=0 time=0
note_on channel=0 note=67 velocity=37 time=0
note_on channel=0 note=67 velocity=0 time=120
note_on channel=0 note=70 velocity=38 time=0
note_on channel=0 note=70 velocity=0 time=120
note_on channel=0 note=75 velocity=40 time=0
note_on channel=0 note=55 velocity=39 time=0
note_on channel=0 note=58 velocity=39 time=0
note_on channel=0 note=75 velocity=0 time=120
note_on channel=0 note=76 velocity=41 time=0
note_on channel=0 note=76 velocity=0 time=0
note_on channel=0 note=79 velocity=42 time=0
note_on channel=0 note=79 velocity=0 time=0
note_on channel=0 note=82 velocity=44 time=0
note_on channel=0 note=82 velocity=0 time=0
note_on channel=0 note=58 velocity=0 time=0
note_on channel=0 note=55 velocity=0 time=0
note_on channel=0 note=87 velocity=45 time=0
note_on channel=0 note=55 velocity=39 time=0
note_on channel=0 note=58 velocity=39 time=0
note_on channel=0 note=87 velocity=0 time=120
note_on channel=0 note=88 velocity=44 time=0
note_on channel=0 note=88 velocity=0 time=120
note_on channel=0 note=82 velocity=43 time=0
note_on channel=0 note=82 velocity=0 time=120
note_on channel=0 note=79 velocity=43 time=0
note_on channel=0 note=79 velocity=0 time=120
note_on channel=0 note=76 velocity=42 time=0
note_on channel=0 note=76 velocity=0 time=120
note_on channel=0 note=70 velocity=41 time=0
note_on channel=0 note=70 velocity=0 time=0
note_on channel=0 note=67 velocity=41 time=0
note_on channel=0 note=67 velocity=0 time=0
note_on channel=0 note=64 velocity=40 time=0
note_on channel=0 note=64 velocity=0 time=0
note_on channel=0 note=58 velocity=0 time=0
note_on channel=0 note=55 velocity=0 time=0
note_on channel=0 note=41 velocity=46 time=0
note_on channel=0 note=65 velocity=36 time=0
note_on channel=0 note=65 velocity=0 time=0
note_on channel=0 note=41 velocity=0 time=0
note_on channel=0 note=69 velocity=37 time=0
note_on channel=0 note=69 velocity=0 time=120
note_on channel=0 note=72 velocity=38 time=0
note_on channel=0 note=72 velocity=0 time=120
note_on channel=0 note=76 velocity=40 time=0
note_on channel=0 note=57 velocity=39 time=0
note_on channel=0 note=60 velocity=39 time=0
note_on channel=0 note=76 velocity=0 time=120
note_on channel=0 note=77 velocity=41 time=0
note_on channel=0 note=77 velocity=0 time=0
note_on channel=0 note=81 velocity=42 time=0
note_on channel=0 note=81 velocity=0 time=0
note_on channel=0 note=84 velocity=44 time=0
note_on channel=0 note=84 velocity=0 time=0
note_on channel=0 note=60 velocity=0 time=0
note_on channel=0 note=57 velocity=0 time=0
note_on channel=0 note=88 velocity=45 time=0
note_on channel=0 note=57 velocity=39 time=0
note_on channel=0 note=60 velocity=39 time=0
note_on channel=0 note=88 velocity=0 time=120
note_on channel=0 note=89 velocity=44 time=0
note_on channel=0 note=89 velocity=0 time=120
note_on channel=0 note=84 velocity=43 time=0
note_on channel=0 note=84 velocity=0 time=120
note_on channel=0 note=81 velocity=43 time=0
note_on channel=0 note=81 velocity=0 time=120
note_on channel=0 note=77 velocity=42 time=0
note_on channel=0 note=77 velocity=0 time=120
note_on channel=0 note=72 velocity=41 time=0
note_on channel=0 note=72 velocity=0 time=0
note_on channel=0 note=69 velocity=41 time=0
note_on channel=0 note=69 velocity=0 time=0
note_on channel=0 note=65 velocity=40 time=0
note_on channel=0 note=65 velocity=0 time=0
note_on channel=0 note=60 velocity=0 time=0
note_on channel=0 note=57 velocity=0 time=0
note_on channel=0 note=41 velocity=46 time=0
note_on channel=0 note=66 velocity=36 time=0
note_on channel=0 note=66 velocity=0 time=0
note_on channel=0 note=41 velocity=0 time=0
note_on channel=0 note=70 velocity=37 time=0
note_on channel=0 note=70 velocity=0 time=120
note_on channel=0 note=73 velocity=38 time=0
note_on channel=0 note=73 velocity=0 time=120
note_on channel=0 note=77 velocity=40 time=0
note_on channel=0 note=58 velocity=39 time=0
note_on channel=0 note=61 velocity=39 time=0
note_on channel=0 note=77 velocity=0 time=120
note_on channel=0 note=78 velocity=41 time=0
note_on channel=0 note=78 velocity=0 time=0
note_on channel=0 note=82 velocity=42 time=0
note_on channel=0 note=82 velocity=0 time=0
note_on channel=0 note=85 velocity=44 time=0
note_on channel=0 note=85 velocity=0 time=0
note_on channel=0 note=61 velocity=0 time=0
note_on channel=0 note=58 velocity=0 time=0
note_on channel=0 note=89 velocity=45 time=0
note_on channel=0 note=58 velocity=39 time=0
note_on channel=0 note=61 velocity=39 time=0
note_on channel=0 note=89 velocity=0 time=120
note_on channel=0 note=90 velocity=44 time=0
note_on channel=0 note=90 velocity=0 time=120
note_on channel=0 note=85 velocity=43 time=0
note_on channel=0 note=85 velocity=0 time=120
note_on channel=0 note=82 velocity=43 time=0
note_on channel=0 note=82 velocity=0 time=120
note_on channel=0 note=78 velocity=42 time=0
note_on channel=0 note=78 velocity=0 time=120
note_on channel=0 note=73 velocity=41 time=0
note_on channel=0 note=73 velocity=0 time=0
note_on channel=0 note=70 velocity=41 time=0
note_on channel=0 note=70 velocity=0 time=0
note_on channel=0 note=66 velocity=40 time=0
note_on channel=0 note=66 velocity=0 time=0
note_on channel=0 note=61 velocity=0 time=0
note_on channel=0 note=58 velocity=0 time=0
note_on channel=0 note=41 velocity=46 time=0
note_on channel=0 note=69 velocity=36 time=0
note_on channel=0 note=69 velocity=0 time=0
note_on channel=0 note=41 velocity=0 time=0
note_on channel=0 note=72 velocity=37 time=0
note_on channel=0 note=72 velocity=0 time=120
note_on channel=0 note=75 velocity=38 time=0
note_on channel=0 note=75 velocity=0 time=120
note_on channel=0 note=80 velocity=40 time=0
note_on channel=0 note=60 velocity=39 time=0
note_on channel=0 note=63 velocity=39 time=0
note_on channel=0 note=80 velocity=0 time=120
note_on channel=0 note=81 velocity=41 time=0
note_on channel=0 note=81 velocity=0 time=0
note_on channel=0 note=84 velocity=42 time=0
note_on channel=0 note=84 velocity=0 time=0
note_on channel=0 note=87 velocity=44 time=0
note_on channel=0 note=87 velocity=0 time=0
note_on channel=0 note=63 velocity=0 time=0
note_on channel=0 note=60 velocity=0 time=0
note_on channel=0 note=92 velocity=45 time=0
note_on channel=0 note=60 velocity=39 time=0
note_on channel=0 note=63 velocity=39 time=0
note_on channel=0 note=92 velocity=0 time=120
note_on channel=0 note=93 velocity=44 time=0
note_on channel=0 note=93 velocity=0 time=120
note_on channel=0 note=87 velocity=43 time=0
note_on channel=0 note=87 velocity=0 time=120
note_on channel=0 note=84 velocity=43 time=0
note_on channel=0 note=84 velocity=0 time=120
note_on channel=0 note=81 velocity=42 time=0
note_on channel=0 note=81 velocity=0 time=120
note_on channel=0 note=75 velocity=41 time=0
note_on channel=0 note=75 velocity=0 time=0
note_on channel=0 note=72 velocity=41 time=0
note_on channel=0 note=72 velocity=0 time=0
note_on channel=0 note=69 velocity=40 time=0
note_on channel=0 note=69 velocity=0 time=0
note_on channel=0 note=63 velocity=0 time=0
note_on channel=0 note=60 velocity=0 time=0
note_on channel=0 note=46 velocity=46 time=0
note_on channel=0 note=70 velocity=39 time=40
note_on channel=0 note=70 velocity=0 time=0
note_on channel=0 note=46 velocity=0 time=0
note_on channel=0 note=74 velocity=41 time=0
note_on channel=0 note=74 velocity=0 time=40
note_on channel=0 note=77 velocity=44 time=0
note_on channel=0 note=77 velocity=0 time=40
note_on channel=0 note=81 velocity=46 time=0
note_on channel=0 note=62 velocity=39 time=0
note_on channel=0 note=65 velocity=39 time=0
note_on channel=0 note=81 velocity=0 time=40
note_on channel=0 note=82 velocity=44 time=0
note_on channel=0 note=82 velocity=0 time=0
note_on channel=0 note=77 velocity=42 time=0
note_on channel=0 note=77 velocity=0 time=40
note_on channel=0 note=74 velocity=40 time=0
note_on channel=0 note=74 velocity=0 time=0
note_on channel=0 note=65 velocity=0 time=0
note_on channel=0 note=62 velocity=0 time=0
note_on channel=0 note=70 velocity=45 time=0
note_on channel=0 note=62 velocity=39 time=0
note_on channel=0 note=65 velocity=39 time=0
note_on channel=0 note=70 velocity=0 time=0
note_on channel=0 note=74 velocity=41 time=0
note_on channel=0 note=74 velocity=0 time=0
note_on channel=0 note=77 velocity=43 time=0
note_on channel=0 note=77 velocity=0 time=120
note_on channel=0 note=81 velocity=45 time=0
note_on channel=0 note=81 velocity=0 time=0
note_on channel=0 note=82 velocity=47 time=0
note_on channel=0 note=82 velocity=0 time=0
note_on channel=0 note=77 velocity=45 time=0
note_on channel=0 note=77 velocity=0 time=0
note_on channel=0 note=74 velocity=44 time=0
note_on channel=0 note=74 velocity=0 time=0
note_on channel=0 note=70 velocity=42 time=0
note_on channel=0 note=70 velocity=0 time=0
note_on channel=0 note=65 velocity=0 time=0
note_on channel=0 note=62 velocity=0 time=0
note_on channel=0 note=46 velocity=46 time=0
note_on channel=0 note=71 velocity=39 time=40
note_on channel=0 note=71 velocity=0 time=20
note_on channel=0 note=46 velocity=0 time=0
note_on channel=0 note=75 velocity=41 time=0
note_on channel=0 note=75 velocity=0 time=0
note_on channel=0 note=78 velocity=44 time=0
note_on channel=0 note=78 velocity=0 time=0
note_on channel=0 note=82 velocity=46 time=0
note_on channel=0 note=63 velocity=39 time=0
note_on channel=0 note=66 velocity=39 time=0
note_on channel=0 note=82 velocity=0 time=40
note_on channel=0 note=83 velocity=44 time=0
note_on channel=0 note=83 velocity=0 time=0
note_on channel=0 note=78 velocity=42 time=0
note_on channel=0 note=78 velocity=0 time=40
note_on channel=0 note=75 velocity=40 time=0
note_on channel=0 note=75 velocity=0 time=0
note_on channel=0 note=66 velocity=0 time=0
note_on channel=0 note=63 velocity=0 time=0
note_on channel=0 note=71 velocity=45 time=0
note_on channel=0 note=63 velocity=39 time=0
note_on channel=0 note=66 velocity=39 time=0
note_on channel=0 note=71 velocity=0 time=0
note_on channel=0 note=75 velocity=41 time=0
note_on channel=0 note=75 velocity=0 time=0
note_on channel=0 note=78 velocity=43 time=0
note_on channel=0 note=78 velocity=0 time=120
note_on channel=0 note=82 velocity=45 time=0
note_on channel=0 note=82 velocity=0 time=0
note_on channel=0 note=83 velocity=47 time=0
note_on channel=0 note=83 velocity=0 time=0
note_on channel=0 note=78 velocity=45 time=0
note_on channel=0 note=78 velocity=0 time=0
note_on channel=0 note=75 velocity=44 time=0
note_on channel=0 note=75 velocity=0 time=0
note_on channel=0 note=71 velocity=42 time=0
note_on channel=0 note=71 velocity=0 time=0
note_on channel=0 note=66 velocity=0 time=0
note_on channel=0 note=63 velocity=0 time=0
note_on channel=0 note=46 velocity=46 time=0
note_on channel=0 note=74 velocity=39 time=40
note_on channel=0 note=74 velocity=0 time=40
note_on channel=0 note=46 velocity=0 time=0
note_on channel=0 note=77 velocity=41 time=0
note_on channel=0 note=77 velocity=0 time=40
note_on channel=0 note=80 velocity=44 time=0
note_on channel=0 note=80 velocity=0 time=0
note_on channel=0 note=85 velocity=46 time=0
note_on channel=0 note=65 velocity=39 time=0
note_on channel=0 note=68 velocity=39 time=0
note_on channel=0 note=85 velocity=0 time=40
note_on channel=0 note=86 velocity=44 time=0
note_on channel=0 note=86 velocity=0 time=0
note_on channel=0 note=80 velocity=42 time=0
note_on channel=0 note=80 velocity=0 time=40
note_on channel=0 note=77 velocity=40 time=0
note_on channel=0 note=77 velocity=0 time=0
note_on channel=0 note=68 velocity=0 time=0
note_on channel=0 note=65 velocity=0 time=0
note_on channel=0 note=74 velocity=45 time=0
note_on channel=0 note=65 velocity=39 time=0
note_on channel=0 note=68 velocity=39 time=0
note_on channel=0 note=74 velocity=0 time=0
note_on channel=0 note=77 velocity=41 time=0
note_on channel=0 note=77 velocity=0 time=0
note_on channel=0 note=80 velocity=43 time=0
note_on channel=0 note=80 velocity=0 time=120
note_on channel=0 note=85 velocity=45 time=0
note_on channel=0 note=85 velocity=0 time=0
note_on channel=0 note=86 velocity=47 time=0
note_on channel=0 note=86 velocity=0 time=0
note_on channel=0 note=80 velocity=45 time=0
note_on channel=0 note=80 velocity=0 time=0
note_on channel=0 note=77 velocity=44 time=0
note_on channel=0 note=77 velocity=0 time=0
note_on channel=0 note=74 velocity=42 time=0
note_on channel=0 note=74 velocity=0 time=0
note_on channel=0 note=68 velocity=0 time=0
note_on channel=0 note=65 velocity=0 time=0
note_on channel=0 note=51 velocity=46 time=0
note_on channel=0 note=78 velocity=39 time=17
note_on channel=0 note=78 velocity=0 time=0
note_on channel=0 note=51 velocity=0 time=0
note_on channel=0 note=77 velocity=46 time=0
note_on channel=0 note=77 velocity=0 time=40
note_on channel=0 note=78 velocity=44 time=0
note_on channel=0 note=78 velocity=0 time=40
note_on channel=0 note=58 velocity=39 time=0
note_on channel=0 note=63 velocity=39 time=0
note_on channel=0 note=66 velocity=39 time=0
note_on channel=0 note=82 velocity=44 time=40
note_on channel=0 note=82 velocity=0 time=0
note_on channel=0 note=81 velocity=47 time=0
note_on channel=0 note=81 velocity=0 time=40
note_on channel=0 note=82 velocity=40 time=0
note_on channel=0 note=82 velocity=0 time=0
note_on channel=0 note=58 velocity=0 time=0
note_on channel=0 note=63 velocity=0 time=0
note_on channel=0 note=66 velocity=0 time=0
note_on channel=0 note=58 velocity=39 time=0
note_on channel=0 note=63 velocity=39 time=0
note_on channel=0 note=66 velocity=39 time=0
note_on channel=0 note=87 velocity=41 time=0
note_on channel=0 note=87 velocity=0 time=0
note_on channel=0 note=86 velocity=43 time=0
note_on channel=0 note=86 velocity=0 time=120
note_on channel=0 note=87 velocity=42 time=0
note_on channel=0 note=87 velocity=0 time=0
note_on channel=0 note=90 velocity=47 time=0
note_on channel=0 note=90 velocity=0 time=0
note_on channel=0 note=87 velocity=45 time=0
note_on channel=0 note=87 velocity=0 time=0
note_on channel=0 note=90 velocity=49 time=0
note_on channel=0 note=90 velocity=0 time=0
note_on channel=0 note=87 velocity=42 time=0
note_on channel=0 note=87 velocity=0 time=0
note_on channel=0 note=58 velocity=0 time=0
note_on channel=0 note=63 velocity=0 time=0
note_on channel=0 note=66 velocity=0 time=0
note_on channel=0 note=90 velocity=53 time=0
note_on channel=0 note=48 velocity=46 time=0
note_on channel=0 note=90 velocity=0 time=17
note_on channel=0 note=89 velocity=51 time=0
note_on channel=0 note=89 velocity=0 time=0
note_on channel=0 note=48 velocity=0 time=0
note_on channel=0 note=87 velocity=49 time=0
note_on channel=0 note=87 velocity=0 time=40
note_on channel=0 note=85 velocity=47 time=0
note_on channel=0 note=85 velocity=0 time=40
note_on channel=0 note=84 velocity=45 time=0
note_on channel=0 note=56 velocity=39 time=0
note_on channel=0 note=63 velocity=39 time=0
note_on channel=0 note=66 velocity=39 time=0
note_on channel=0 note=84 velocity=0 time=40
note_on channel=0 note=85 velocity=46 time=0
note_on channel=0 note=85 velocity=0 time=0
note_on channel=0 note=87 velocity=47 time=0
note_on channel=0 note=87 velocity=0 time=40
note_on channel=0 note=89 velocity=48 time=0
note_on channel=0 note=89 velocity=0 time=0
note_on channel=0 note=66 velocity=0 time=0
note_on channel=0 note=63 velocity=0 time=0
note_on channel=0 note=56 velocity=0 time=0
note_on channel=0 note=90 velocity=53 time=0
note_on channel=0 note=56 velocity=39 time=0
note_on channel=0 note=63 velocity=39 time=0
note_on channel=0 note=66 velocity=39 time=0
note_on channel=0 note=90 velocity=0 time=0
note_on channel=0 note=89 velocity=52 time=0
note_on channel=0 note=89 velocity=0 time=0
note_on channel=0 note=87 velocity=51 time=0
note_on channel=0 note=87 velocity=0 time=120
note_on channel=0 note=85 velocity=50 time=0
note_on channel=0 note=85 velocity=0 time=0
note_on channel=0 note=84 velocity=49 time=0
note_on channel=0 note=84 velocity=0 time=0
note_on channel=0 note=82 velocity=48 time=0
note_on channel=0 note=82 velocity=0 time=0
note_on channel=0 note=80 velocity=47 time=0
note_on channel=0 note=80 velocity=0 time=0
note_on channel=0 note=78 velocity=46 time=0
note_on channel=0 note=78 velocity=0 time=0
note_on channel=0 note=66 velocity=0 time=0
note_on channel=0 note=63 velocity=0 time=0
note_on channel=0 note=56 velocity=0 time=0
note_on channel=0 note=49 velocity=39 time=0
note_on channel=0 note=77 velocity=39 time=17
note_on channel=0 note=77 velocity=0 time=0
note_on channel=0 note=49 velocity=0 time=0
note_on channel=0 note=76 velocity=46 time=0
note_on channel=0 note=76 velocity=0 time=40
note_on channel=0 note=77 velocity=44 time=0
note_on channel=0 note=77 velocity=0 time=40
note_on channel=0 note=56 velocity=33 time=0
note_on channel=0 note=61 velocity=33 time=0
note_on channel=0 note=65 velocity=33 time=0
note_on channel=0 note=80 velocity=44 time=40
note_on channel=0 note=80 velocity=0 time=0
note_on channel=0 note=79 velocity=47 time=0
note_on channel=0 note=79 velocity=0 time=40
note_on channel=0 note=80 velocity=40 time=0
note_on channel=0 note=80 velocity=0 time=0
note_on channel=0 note=56 velocity=0 time=0
note_on channel=0 note=61 velocity=0 time=0
note_on channel=0 note=65 velocity=0 time=0
note_on channel=0 note=56 velocity=33 time=0
note_on channel=0 note=61 velocity=33 time=0
note_on channel=0 note=65 velocity=33 time=0
note_on channel=0 note=85 velocity=41 time=0
note_on channel=0 note=85 velocity=0 time=0
note_on channel=0 note=84 velocity=43 time=0
note_on channel=0 note=84 velocity=0 time=120
note_on channel=0 note=85 velocity=42 time=0
note_on channel=0 note=85 velocity=0 time=0
note_on channel=0 note=89 velocity=47 time=0
note_on channel=0 note=89 velocity=0 time=0
note_on channel=0 note=85 velocity=45 time=0
note_on channel=0 note=85 velocity=0 time=0
note_on channel=0 note=89 velocity=49 time=0
note_on channel=0 note=89 velocity=0 time=0
note_on channel=0 note=85 velocity=42 time=0
note_on channel=0 note=85 velocity=0 time=0
note_on channel=0 note=56 velocity=0 time=0
note_on channel=0 note=61 velocity=0 time=0
note_on channel=0 note=65 velocity=0 time=0
note_on channel=0 note=89 velocity=53 time=0
note_on channel=0 note=47 velocity=39 time=0
note_on channel=0 note=89 velocity=0 time=28
note_on channel=0 note=87 velocity=51 time=0
note_on channel=0 note=87 velocity=0 time=0
note_on channel=0 note=47 velocity=0 time=0
note_on channel=0 note=86 velocity=49 time=0
note_on channel=0 note=86 velocity=0 time=40
note_on channel=0 note=84 velocity=47 time=0
note_on channel=0 note=84 velocity=0 time=40
note_on channel=0 note=83 velocity=45 time=0
note_on channel=0 note=55 velocity=33 time=0
note_on channel=0 note=62 velocity=33 time=0
note_on channel=0 note=65 velocity=33 time=0
note_on channel=0 note=83 velocity=0 time=40
note_on channel=0 note=84 velocity=46 time=0
note_on channel=0 note=84 velocity=0 time=0
note_on channel=0 note=86 velocity=47 time=0
note_on channel=0 note=86 velocity=0 time=40
note_on channel=0 note=87 velocity=48 time=0
note_on channel=0 note=87 velocity=0 time=0
note_on channel=0 note=65 velocity=0 time=0
note_on channel=0 note=62 velocity=0 time=0
note_on channel=0 note=55 velocity=0 time=0
note_on channel=0 note=89 velocity=53 time=0
note_on channel=0 note=55 velocity=33 time=0
note_on channel=0 note=62 velocity=33 time=0
note_on channel=0 note=65 velocity=33 time=0
note_on channel=0 note=89 velocity=0 time=0
note_on channel=0 note=87 velocity=52 time=0
note_on channel=0 note=87 velocity=0 time=0
note_on channel=0 note=86 velocity=51 time=0
note_on channel=0 note=86 velocity=0 time=120
note_on channel=0 note=84 velocity=50 time=0
note_on channel=0 note=84 velocity=0 time=0
note_on channel=0 note=83 velocity=49 time=0
note_on channel=0 note=83 velocity=0 time=0
note_on channel=0 note=80 velocity=48 time=0
note_on channel=0 note=80 velocity=0 time=0
note_on channel=0 note=79 velocity=47 time=0
note_on channel=0 note=79 velocity=0 time=0
note_on channel=0 note=77 velocity=46 time=0
note_on channel=0 note=77 velocity=0 time=0
note_on channel=0 note=65 velocity=0 time=0
note_on channel=0 note=62 velocity=0 time=0
note_on channel=0 note=55 velocity=0 time=0
note_on channel=0 note=48 velocity=39 time=0
note_on channel=0 note=75 velocity=39 time=40
note_on channel=0 note=75 velocity=0 time=0
note_on channel=0 note=48 velocity=0 time=0
note_on channel=0 note=74 velocity=46 time=0
note_on channel=0 note=74 velocity=0 time=40
note_on channel=0 note=75 velocity=44 time=0
note_on channel=0 note=75 velocity=0 time=40
note_on channel=0 note=55 velocity=33 time=0
note_on channel=0 note=60 velocity=33 time=0
note_on channel=0 note=63 velocity=33 time=0
note_on channel=0 note=79 velocity=44 time=40
note_on channel=0 note=79 velocity=0 time=0
note_on channel=0 note=78 velocity=47 time=0
note_on channel=0 note=78 velocity=0 time=40
note_on channel=0 note=79 velocity=40 time=0
note_on channel=0 note=79 velocity=0 time=0
note_on channel=0 note=55 velocity=0 time=0
note_on channel=0 note=60 velocity=0 time=0
note_on channel=0 note=63 velocity=0 time=0
note_on channel=0 note=55 velocity=33 time=0
note_on channel=0 note=60 velocity=33 time=0
note_on channel=0 note=63 velocity=33 time=0
note_on channel=0 note=83 velocity=41 time=0
note_on channel=0 note=83 velocity=0 time=0
note_on channel=0 note=84 velocity=43 time=0
note_on channel=0 note=84 velocity=0 time=120
note_on channel=0 note=83 velocity=42 time=0
note_on channel=0 note=83 velocity=0 time=0
note_on channel=0 note=55 velocity=0 time=0
note_on channel=0 note=60 velocity=0 time=0
note_on channel=0 note=63 velocity=0 time=0
note_on channel=0 note=84 velocity=47 time=0
note_on channel=0 note=48 velocity=33 time=0
note_on channel=0 note=84 velocity=0 time=0
note_on channel=0 note=86 velocity=45 time=0
note_on channel=0 note=86 velocity=0 time=0
note_on channel=0 note=87 velocity=49 time=0
note_on channel=0 note=87 velocity=0 time=0
note_on channel=0 note=90 velocity=42 time=0
note_on channel=0 note=90 velocity=0 time=0
note_on channel=0 note=48 velocity=0 time=0
note_on channel=0 note=91 velocity=53 time=0
note_on channel=0 note=43 velocity=33 time=0
note_on channel=0 note=91 velocity=0 time=40
note_on channel=0 note=86 velocity=51 time=0
note_on channel=0 note=86 velocity=0 time=0
note_on channel=0 note=83 velocity=49 time=0
note_on channel=0 note=83 velocity=0 time=20
note_on channel=0 note=79 velocity=47 time=0
note_on channel=0 note=79 velocity=0 time=0
note_on channel=0 note=43 velocity=0 time=0
note_on channel=0 note=78 velocity=45 time=0
note_on channel=0 note=55 velocity=29 time=0
note_on channel=0 note=59 velocity=29 time=0
note_on channel=0 note=62 velocity=29 time=0
note_on channel=0 note=78 velocity=0 time=0
note_on channel=0 note=79 velocity=46 time=0
note_on channel=0 note=79 velocity=0 time=20
note_on channel=0 note=83 velocity=47 time=0
note_on channel=0 note=83 velocity=0 time=0
note_on channel=0 note=86 velocity=48 time=0
note_on channel=0 note=86 velocity=0 time=0
note_on channel=0 note=62 velocity=0 time=0
note_on channel=0 note=59 velocity=0 time=0
note_on channel=0 note=55 velocity=0 time=0
note_on channel=0 note=87 velocity=53 time=0
note_on channel=0 note=48 velocity=35 time=0
note_on channel=0 note=87 velocity=0 time=35
note_on channel=0 note=84 velocity=51 time=0
note_on channel=0 note=84 velocity=0 time=20
note_on channel=0 note=79 velocity=49 time=0
note_on channel=0 note=79 velocity=0 time=20
note_on channel=0 note=75 velocity=47 time=0
note_on channel=0 note=75 velocity=0 time=20
note_on channel=0 note=48 velocity=0 time=0
note_on channel=0 note=84 velocity=51 time=0
note_on channel=0 note=55 velocity=30 time=0
note_on channel=0 note=60 velocity=30 time=0
note_on channel=0 note=63 velocity=30 time=0
note_on channel=0 note=84 velocity=0 time=20
note_on channel=0 note=79 velocity=50 time=0
note_on channel=0 note=79 velocity=0 time=0
note_on channel=0 note=75 velocity=49 time=0
note_on channel=0 note=75 velocity=0 time=0
note_on channel=0 note=72 velocity=48 time=0
note_on channel=0 note=72 velocity=0 time=0
note_on channel=0 note=63 velocity=0 time=0
note_on channel=0 note=60 velocity=0 time=0
note_on channel=0 note=55 velocity=0 time=0
note_on channel=0 note=83 velocity=53 time=0
note_on channel=0 note=43 velocity=37 time=0
note_on channel=0 note=83 velocity=0 time=40
note_on channel=0 note=79 velocity=51 time=0
note_on channel=0 note=79 velocity=0 time=0
note_on channel=0 note=74 velocity=49 time=0
note_on channel=0 note=74 velocity=0 time=40
note_on channel=0 note=71 velocity=47 time=0
note_on channel=0 note=71 velocity=0 time=40
note_on channel=0 note=43 velocity=0 time=0
note_on channel=0 note=79 velocity=51 time=0
note_on channel=0 note=50 velocity=32 time=0
note_on channel=0 note=55 velocity=32 time=0
note_on channel=0 note=59 velocity=32 time=0
note_on channel=0 note=79 velocity=0 time=40
note_on channel=0 note=74 velocity=50 time=0
note_on channel=0 note=74 velocity=0 time=0
note_on channel=0 note=71 velocity=49 time=0
note_on channel=0 note=71 velocity=0 time=40
note_on channel=0 note=67 velocity=48 time=0
note_on channel=0 note=67 velocity=0 time=0
note_on channel=0 note=59 velocity=0 time=0
note_on channel=0 note=55 velocity=0 time=0
note_on channel=0 note=50 velocity=0 time=0
note_on channel=0 note=75 velocity=53 time=0
note_on channel=0 note=36 velocity=46 time=0
note_on channel=0 note=75 velocity=0 time=40
note_on channel=0 note=72 velocity=51 time=0
note_on channel=0 note=72 velocity=0 time=0
note_on channel=0 note=67 velocity=49 time=0
note_on channel=0 note=67 velocity=0 time=20
note_on channel=0 note=63 velocity=47 time=0
note_on channel=0 note=63 velocity=0 time=0
note_on channel=0 note=36 velocity=0 time=0
note_on channel=0 note=72 velocity=51 time=0
note_on channel=0 note=48 velocity=39 time=0
note_on channel=0 note=51 velocity=39 time=0
note_on channel=0 note=55 velocity=39 time=0
note_on channel=0 note=72 velocity=0 time=20
note_on channel=0 note=67 velocity=50 time=0
note_on channel=0 note=67 velocity=0 time=20
note_on channel=0 note=63 velocity=49 time=0
note_on channel=0 note=63 velocity=0 time=20
note_on channel=0 note=60 velocity=48 time=0
note_on channel=0 note=60 velocity=0 time=0
note_on channel=0 note=55 velocity=0 time=0
note_on channel=0 note=51 velocity=0 time=0
note_on channel=0 note=48 velocity=0 time=0
note_on channel=0 note=71 velocity=53 time=0
note_on channel=0 note=31 velocity=46 time=0
note_on channel=0 note=71 velocity=0 time=11
note_on channel=0 note=67 velocity=51 time=0
note_on channel=0 note=67 velocity=0 time=20
note_on channel=0 note=62 velocity=49 time=0
note_on channel=0 note=62 velocity=0 time=40
note_on channel=0 note=59 velocity=47 time=0
note_on channel=0 note=59 velocity=0 time=0
note_on channel=0 note=31 velocity=0 time=0
note_on channel=0 note=62 velocity=47 time=0
note_on channel=0 note=47 velocity=39 time=0
note_on channel=0 note=50 velocity=39 time=0
note_on channel=0 note=55 velocity=39 time=0
note_on channel=0 note=62 velocity=0 time=0
note_on channel=0 note=65 velocity=48 time=0
note_on channel=0 note=65 velocity=0 time=0
note_on channel=0 note=71 velocity=50 time=0
note_on channel=0 note=71 velocity=0 time=0
note_on channel=0 note=74 velocity=52 time=0
note_on channel=0 note=74 velocity=0 time=0
note_on channel=0 note=55 velocity=0 time=0
note_on channel=0 note=50 velocity=0 time=0
note_on channel=0 note=47 velocity=0 time=0
note_on channel=0 note=72 velocity=53 time=0
note_on channel=0 note=36 velocity=46 time=0
note_on channel=0 note=72 velocity=0 time=28
note_on channel=0 note=67 velocity=51 time=0
note_on channel=0 note=67 velocity=0 time=40
note_on channel=0 note=63 velocity=49 time=0
note_on channel=0 note=63 velocity=0 time=40
note_on channel=0 note=60 velocity=47 time=0
note_on channel=0 note=60 velocity=0 time=0
note_on channel=0 note=36 velocity=0 time=0
note_on channel=0 note=67 velocity=51 time=0
note_on channel=0 note=43 velocity=39 time=0
note_on channel=0 note=48 velocity=39 time=0
note_on channel=0 note=51 velocity=39 time=0
note_on channel=0 note=67 velocity=0 time=0
note_on channel=0 note=63 velocity=50 time=0
note_on channel=0 note=63 velocity=0 time=0
note_on channel=0 note=60 velocity=49 time=0
note_on channel=0 note=60 velocity=0 time=0
note_on channel=0 note=55 velocity=48 time=0
note_on channel=0 note=55 velocity=0 time=0
note_on channel=0 note=51 velocity=0 time=0
note_on channel=0 note=48 velocity=0 time=0
note_on channel=0 note=43 velocity=0 time=0
note_on channel=0 note=67 velocity=79 time=0
note_on channel=0 note=43 velocity=69 time=0
note_on channel=0 note=31 velocity=69 time=0
note_on channel=0 note=67 velocity=0 time=40
note_on channel=0 note=62 velocity=75 time=0
note_on channel=0 note=62 velocity=0 time=0
note_on channel=0 note=31 velocity=0 time=0
note_on channel=0 note=43 velocity=0 time=0
note_on channel=0 note=59 velocity=75 time=0
note_on channel=0 note=59 velocity=0 time=40
note_on channel=0 note=55 velocity=70 time=0
note_on channel=0 note=55 velocity=0 time=40
note_on channel=0 note=59 velocity=75 time=0
note_on channel=0 note=47 velocity=69 time=0
note_on channel=0 note=47 velocity=0 time=120
note_on channel=0 note=59 velocity=0 time=0
note_on channel=0 note=62 velocity=71 time=0
note_on channel=0 note=50 velocity=60 time=0
note_on channel=0 note=50 velocity=0 time=120
note_on channel=0 note=62 velocity=0 time=0
note_on channel=0 note=59 velocity=71 time=0
note_on channel=0 note=47 velocity=60 time=0
note_on channel=0 note=47 velocity=0 time=0
note_on channel=0 note=59 velocity=0 time=0
note_on channel=0 note=55 velocity=71 time=0
note_on channel=0 note=43 velocity=59 time=0
note_on channel=0 note=43 velocity=0 time=0
note_on channel=0 note=55 velocity=0 time=0
note_on channel=0 note=60 velocity=70 time=0
note_on channel=0 note=48 velocity=63 time=0
note_on channel=0 note=48 velocity=0 time=35
note_on channel=0 note=60 velocity=0 time=0
note_on channel=0 note=55 velocity=61 time=0
note_on channel=0 note=43 velocity=52 time=0
note_on channel=0 note=43 velocity=0 time=120
note_on channel=0 note=55 velocity=0 time=0
note_on channel=0 note=51 velocity=61 time=0
note_on channel=0 note=39 velocity=52 time=0
note_on channel=0 note=39 velocity=0 time=0
note_on channel=0 note=51 velocity=0 time=0
note_on channel=0 note=55 velocity=60 time=0
note_on channel=0 note=43 velocity=52 time=0
note_on channel=0 note=43 velocity=0 time=0
note_on channel=0 note=55 velocity=0 time=0
note_on channel=0 note=51 velocity=64 time=0
note_on channel=0 note=39 velocity=57 time=0
note_on channel=0 note=39 velocity=0 time=120
note_on channel=0 note=51 velocity=0 time=0
note_on channel=0 note=55 velocity=54 time=0
note_on channel=0 note=43 velocity=47 time=0
note_on channel=0 note=43 velocity=0 time=120
note_on channel=0 note=55 velocity=0 time=0
note_on channel=0 note=51 velocity=54 time=0
note_on channel=0 note=39 velocity=46 time=0
note_on channel=0 note=39 velocity=0 time=120
note_on channel=0 note=51 velocity=0 time=0
note_on channel=0 note=48 velocity=54 time=0
note_on channel=0 note=36 velocity=45 time=0
note_on channel=0 note=36 velocity=0 time=0
note_on channel=0 note=48 velocity=0 time=0
note_on channel=0 note=31 velocity=57 time=0
note_on channel=0 note=55 velocity=34 time=34
note_on channel=0 note=55 velocity=0 time=0
note_on channel=0 note=31 velocity=0 time=0
note_on channel=0 note=50 velocity=34 time=0
note_on channel=0 note=50 velocity=0 time=120
note_on channel=0 note=47 velocity=34 time=0
note_on channel=0 note=47 velocity=0 time=120
note_on channel=0 note=56 velocity=40 time=0
note_on channel=0 note=55 velocity=34 time=120
note_on channel=0 note=55 velocity=0 time=120
note_on channel=0 note=50 velocity=34 time=0
note_on channel=0 note=50 velocity=0 time=120
note_on channel=0 note=47 velocity=34 time=0
note_on channel=0 note=47 velocity=0 time=120
note_on channel=0 note=56 velocity=0 time=0
note_on channel=0 note=56 velocity=40 time=0
note_on channel=0 note=55 velocity=34 time=120
note_on channel=0 note=55 velocity=0 time=120
note_on channel=0 note=50 velocity=34 time=0
note_on channel=0 note=50 velocity=0 time=120
note_on channel=0 note=47 velocity=34 time=0
note_on channel=0 note=47 velocity=0 time=0
note_on channel=0 note=56 velocity=0 time=0
note_on channel=0 note=56 velocity=39 time=0
note_on channel=0 note=55 velocity=34 time=0
note_on channel=0 note=55 velocity=0 time=0
note_on channel=0 note=50 velocity=34 time=0
note_on channel=0 note=50 velocity=0 time=0
note_on channel=0 note=47 velocity=34 time=0
note_on channel=0 note=47 velocity=0 time=0
note_on channel=0 note=56 velocity=0 time=0
note_on channel=0 note=36 velocity=50 time=0
note_on channel=0 note=57 velocity=34 time=120
note_on channel=0 note=57 velocity=0 time=0
note_on channel=0 note=36 velocity=0 time=0
note_on channel=0 note=51 velocity=34 time=0
note_on channel=0 note=51 velocity=0 time=120
note_on channel=0 note=48 velocity=34 time=0
note_on channel=0 note=48 velocity=0 time=120
note_on channel=0 note=54 velocity=40 time=0
note_on channel=0 note=57 velocity=34 time=120
note_on channel=0 note=57 velocity=0 time=120
note_on channel=0 note=51 velocity=34 time=0
note_on channel=0 note=51 velocity=0 time=120
note_on channel=0 note=48 velocity=34 time=0
note_on channel=0 note=48 velocity=0 time=120
note_on channel=0 note=54 velocity=0 time=0
note_on channel=0 note=54 velocity=40 time=0
note_on channel=0 note=57 velocity=34 time=120
note_on channel=0 note=57 velocity=0 time=120
note_on channel=0 note=51 velocity=34 time=0
note_on channel=0 note=51 velocity=0 time=120
note_on channel=0 note=48 velocity=34 time=0
note_on channel=0 note=48 velocity=0 time=0
note_on channel=0 note=54 velocity=0 time=0
note_on channel=0 note=54 velocity=40 time=0
note_on channel=0 note=57 velocity=34 time=0
note_on channel=0 note=57 velocity=0 time=40
note_on channel=0 note=51 velocity=34 time=0
note_on channel=0 note=51 velocity=0 time=0
note_on channel=0 note=48 velocity=34 time=0
note_on channel=0 note=48 velocity=0 time=0
note_on channel=0 note=54 velocity=0 time=0
note_on channel=0 note=31 velocity=50 time=0
note_on channel=0 note=55 velocity=34 time=5
note_on channel=0 note=55 velocity=0 time=0
note_on channel=0 note=31 velocity=0 time=0
note_on channel=0 note=50 velocity=34 time=0
note_on channel=0 note=50 velocity=0 time=120
note_on channel=0 note=47 velocity=34 time=0
note_on channel=0 note=47 velocity=0 time=120
note_on channel=0 note=56 velocity=39 time=0
note_on channel=0 note=55 velocity=34 time=120
note_on channel=0 note=55 velocity=0 time=120
note_on channel=0 note=50 velocity=34 time=0
note_on channel=0 note=50 velocity=0 time=120
note_on channel=0 note=47 velocity=34 time=0
note_on channel=0 note=47 velocity=0 time=120
note_on channel=0 note=56 velocity=0 time=0
note_on channel=0 note=56 velocity=39 time=0
note_on channel=0 note=55 velocity=34 time=120
note_on channel=0 note=55 velocity=0 time=120
note_on channel=0 note=50 velocity=34 time=0
note_on channel=0 note=50 velocity=0 time=120
note_on channel=0 note=47 velocity=34 time=0
note_on channel=0 note=47 velocity=0 time=0
note_on channel=0 note=56 velocity=0 time=0
note_on channel=0 note=56 velocity=39 time=0
note_on channel=0 note=55 velocity=34 time=0
note_on channel=0 note=55 velocity=0 time=40
note_on channel=0 note=50 velocity=34 time=0
note_on channel=0 note=50 velocity=0 time=0
note_on channel=0 note=47 velocity=34 time=0
note_on channel=0 note=47 velocity=0 time=0
note_on channel=0 note=56 velocity=0 time=0
note_on channel=0 note=36 velocity=50 time=0
note_on channel=0 note=57 velocity=34 time=107
note_on channel=0 note=57 velocity=0 time=0
note_on channel=0 note=36 velocity=0 time=0
note_on channel=0 note=51 velocity=34 time=0
note_on channel=0 note=51 velocity=0 time=120
note_on channel=0 note=48 velocity=34 time=0
note_on channel=0 note=48 velocity=0 time=0
note_on channel=0 note=54 velocity=39 time=0
note_on channel=0 note=57 velocity=34 time=120
note_on channel=0 note=57 velocity=0 time=120
note_on channel=0 note=51 velocity=34 time=0
note_on channel=0 note=51 velocity=0 time=120
note_on channel=0 note=48 velocity=34 time=0
note_on channel=0 note=48 velocity=0 time=120
note_on channel=0 note=54 velocity=0 time=0
note_on channel=0 note=54 velocity=39 time=0
note_on channel=0 note=57 velocity=34 time=120
note_on channel=0 note=57 velocity=0 time=120
note_on channel=0 note=51 velocity=34 time=0
note_on channel=0 note=51 velocity=0 time=120
note_on channel=0 note=48 velocity=34 time=0
note_on channel=0 note=48 velocity=0 time=0
note_on channel=0 note=54 velocity=0 time=0
note_on channel=0 note=54 velocity=39 time=0
note_on channel=0 note=57 velocity=34 time=0
note_on channel=0 note=57 velocity=0 time=0
note_on channel=0 note=51 velocity=34 time=0
note_on channel=0 note=51 velocity=0 time=0
note_on channel=0 note=48 velocity=34 time=0
note_on channel=0 note=48 velocity=0 time=0
note_on channel=0 note=54 velocity=0 time=0
note_on channel=0 note=55 velocity=77 time=0
note_on channel=0 note=31 velocity=85 time=0
note_on channel=0 note=55 velocity=0 time=0
note_on channel=0 note=50 velocity=60 time=0
note_on channel=0 note=50 velocity=0 time=0
note_on channel=0 note=31 velocity=0 time=0
note_on channel=0 note=47 velocity=60 time=0
note_on channel=0 note=47 velocity=0 time=120
note_on channel=0 note=50 velocity=60 time=0
note_on channel=0 note=50 velocity=0 time=0
note_on channel=0 note=55 velocity=76 time=0
note_on channel=0 note=59 velocity=75 time=0
note_on channel=0 note=55 velocity=0 time=120
note_on channel=0 note=50 velocity=60 time=0
note_on channel=0 note=50 velocity=0 time=120
note_on channel=0 note=47 velocity=60 time=0
note_on channel=0 note=47 velocity=0 time=120
note_on channel=0 note=50 velocity=60 time=0
note_on channel=0 note=50 velocity=0 time=0
note_on channel=0 note=59 velocity=0 time=0
note_on channel=0 note=55 velocity=76 time=0
note_on channel=0 note=59 velocity=75 time=0
note_on channel=0 note=55 velocity=0 time=120
note_on channel=0 note=50 velocity=59 time=0
note_on channel=0 note=50 velocity=0 time=120
note_on channel=0 note=47 velocity=59 time=0
note_on channel=0 note=47 velocity=0 time=120
note_on channel=0 note=50 velocity=59 time=0
note_on channel=0 note=50 velocity=0 time=0
note_on channel=0 note=55 velocity=67 time=0
note_on channel=0 note=55 velocity=0 time=0
note_on channel=0 note=50 velocity=61 time=0
note_on channel=0 note=50 velocity=0 time=40
note_on channel=0 note=47 velocity=61 time=0
note_on channel=0 note=47 velocity=0 time=0
note_on channel=0 note=50 velocity=61 time=0
note_on channel=0 note=50 velocity=0 time=0
note_on channel=0 note=59 velocity=0 time=0
note_on channel=0 note=59 velocity=77 time=0
note_on channel=0 note=31 velocity=85 time=0
note_on channel=0 note=59 velocity=0 time=0
note_on channel=0 note=55 velocity=60 time=0
note_on channel=0 note=55 velocity=0 time=0
note_on channel=0 note=31 velocity=0 time=0
note_on channel=0 note=50 velocity=60 time=0
note_on channel=0 note=50 velocity=0 time=120
note_on channel=0 note=55 velocity=60 time=0
note_on channel=0 note=55 velocity=0 time=0
note_on channel=0 note=59 velocity=76 time=0
note_on channel=0 note=62 velocity=75 time=0
note_on channel=0 note=59 velocity=0 time=120
note_on channel=0 note=55 velocity=60 time=0
note_on channel=0 note=55 velocity=0 time=120
note_on channel=0 note=50 velocity=60 time=0
note_on channel=0 note=50 velocity=0 time=120
note_on channel=0 note=55 velocity=60 time=0
note_on channel=0 note=55 velocity=0 time=0
note_on channel=0 note=62 velocity=0 time=0
note_on channel=0 note=59 velocity=76 time=0
note_on channel=0 note=62 velocity=75 time=0
note_on channel=0 note=59 velocity=0 time=120
note_on channel=0 note=55 velocity=59 time=0
note_on channel=0 note=55 velocity=0 time=120
note_on channel=0 note=50 velocity=59 time=0
note_on channel=0 note=50 velocity=0 time=120
note_on channel=0 note=55 velocity=59 time=0
note_on channel=0 note=55 velocity=0 time=0
note_on channel=0 note=59 velocity=66 time=0
note_on channel=0 note=59 velocity=0 time=0
note_on channel=0 note=55 velocity=58 time=0
note_on channel=0 note=55 velocity=0 time=40
note_on channel=0 note=50 velocity=58 time=0
note_on channel=0 note=50 velocity=0 time=0
note_on channel=0 note=55 velocity=58 time=0
note_on channel=0 note=55 velocity=0 time=0
note_on channel=0 note=62 velocity=0 time=0
note_on channel=0 note=62 velocity=77 time=0
note_on channel=0 note=31 velocity=85 time=0
note_on channel=0 note=62 velocity=0 time=0
note_on channel=0 note=59 velocity=60 time=0
note_on channel=0 note=59 velocity=0 time=0
note_on channel=0 note=31 velocity=0 time=0
note_on channel=0 note=55 velocity=60 time=0
note_on channel=0 note=55 velocity=0 time=120
note_on channel=0 note=59 velocity=60 time=0
note_on channel=0 note=59 velocity=0 time=0
note_on channel=0 note=62 velocity=76 time=0
note_on channel=0 note=65 velocity=75 time=0
note_on channel=0 note=62 velocity=0 time=120
note_on channel=0 note=59 velocity=60 time=0
note_on channel=0 note=59 velocity=0 time=120
note_on channel=0 note=55 velocity=60 time=0
note_on channel=0 note=55 velocity=0 time=120
note_on channel=0 note=59 velocity=60 time=0
note_on channel=0 note=65 velocity=0 time=110
note_on channel=0 note=59 velocity=0 time=0
note_on channel=0 note=62 velocity=76 time=0
note_on channel=0 note=65 velocity=75 time=0
note_on channel=0 note=62 velocity=0 time=120
note_on channel=0 note=59 velocity=59 time=0
note_on channel=0 note=59 velocity=0 time=120
note_on channel=0 note=55 velocity=59 time=0
note_on channel=0 note=55 velocity=0 time=120
note_on channel=0 note=59 velocity=59 time=0
note_on channel=0 note=59 velocity=0 time=0
note_on channel=0 note=62 velocity=66 time=0
note_on channel=0 note=62 velocity=0 time=0
note_on channel=0 note=59 velocity=58 time=0
note_on channel=0 note=59 velocity=0 time=40
note_on channel=0 note=55 velocity=58 time=0
note_on channel=0 note=55 velocity=0 time=0
note_on channel=0 note=59 velocity=58 time=0
note_on channel=0 note=65 velocity=0 time=37
note_on channel=0 note=59 velocity=0 time=0
note_on channel=0 note=65 velocity=64 time=0
note_on channel=0 note=65 velocity=0 time=28
note_on channel=0 note=59 velocity=39 time=0
note_on channel=0 note=62 velocity=50 time=0
note_on channel=0 note=62 velocity=0 time=120
note_on channel=0 note=59 velocity=0 time=0
note_on channel=0 note=55 velocity=49 time=0
note_on channel=0 note=55 velocity=0 time=120
note_on channel=0 note=62 velocity=49 time=0
note_on channel=0 note=59 velocity=39 time=0
note_on channel=0 note=59 velocity=0 time=0
note_on channel=0 note=62 velocity=0 time=0
note_on channel=0 note=65 velocity=58 time=0
note_on channel=0 note=71 velocity=64 time=0
note_on channel=0 note=65 velocity=0 time=120
note_on channel=0 note=62 velocity=47 time=0
note_on channel=0 note=59 velocity=38 time=0
note_on channel=0 note=59 velocity=0 time=120
note_on channel=0 note=62 velocity=0 time=0
note_on channel=0 note=55 velocity=47 time=0
note_on channel=0 note=55 velocity=0 time=120
note_on channel=0 note=62 velocity=47 time=0
note_on channel=0 note=59 velocity=37 time=0
note_on channel=0 note=59 velocity=0 time=0
note_on channel=0 note=62 velocity=0 time=0
note_on channel=0 note=71 velocity=0 time=0
note_on channel=0 note=65 velocity=61 time=0
note_on channel=0 note=65 velocity=0 time=120
note_on channel=0 note=59 velocity=37 time=0
note_on channel=0 note=62 velocity=47 time=0
note_on channel=0 note=62 velocity=0 time=120
note_on channel=0 note=59 velocity=0 time=0
note_on channel=0 note=55 velocity=47 time=0
note_on channel=0 note=55 velocity=0 time=120
note_on channel=0 note=62 velocity=46 time=0
note_on channel=0 note=59 velocity=35 time=0
note_on channel=0 note=59 velocity=0 time=0
note_on channel=0 note=62 velocity=0 time=0
note_on channel=0 note=65 velocity=54 time=0
note_on channel=0 note=74 velocity=57 time=0
note_on channel=0 note=65 velocity=0 time=120
note_on channel=0 note=62 velocity=44 time=0
note_on channel=0 note=59 velocity=35 time=0
note_on channel=0 note=59 velocity=0 time=120
note_on channel=0 note=62 velocity=0 time=0
note_on channel=0 note=55 velocity=44 time=0
note_on channel=0 note=55 velocity=0 time=120
note_on channel=0 note=62 velocity=43 time=0
note_on channel=0 note=59 velocity=34 time=0
note_on channel=0 note=59 velocity=0 time=0
note_on channel=0 note=62 velocity=0 time=0
note_on channel=0 note=74 velocity=0 time=0
note_on channel=0 note=65 velocity=56 time=0
note_on channel=0 note=65 velocity=0 time=120
note_on channel=0 note=59 velocity=33 time=0
note_on channel=0 note=62 velocity=42 time=0
note_on channel=0 note=62 velocity=0 time=120
note_on channel=0 note=59 velocity=0 time=0
note_on channel=0 note=55 velocity=42 time=0
note_on channel=0 note=55 velocity=0 time=120
note_on channel=0 note=62 velocity=42 time=0
note_on channel=0 note=59 velocity=32 time=0
note_on channel=0 note=59 velocity=0 time=0
note_on channel=0 note=62 velocity=0 time=0
note_on channel=0 note=65 velocity=49 time=0
note_on channel=0 note=77 velocity=52 time=0
note_on channel=0 note=65 velocity=0 time=120
note_on channel=0 note=62 velocity=39 time=0
note_on channel=0 note=59 velocity=32 time=0
note_on channel=0 note=59 velocity=0 time=120
note_on channel=0 note=62 velocity=0 time=0
note_on channel=0 note=55 velocity=39 time=0
note_on channel=0 note=55 velocity=0 time=120
note_on channel=0 note=62 velocity=39 time=0
note_on channel=0 note=59 velocity=31 time=0
note_on channel=0 note=59 velocity=0 time=0
note_on channel=0 note=62 velocity=0 time=0
note_on channel=0 note=77 velocity=0 time=0
note_on channel=0 note=65 velocity=50 time=0
note_on channel=0 note=65 velocity=0 time=120
note_on channel=0 note=59 velocity=30 time=0
note_on channel=0 note=62 velocity=39 time=0
note_on channel=0 note=62 velocity=0 time=120
note_on channel=0 note=59 velocity=0 time=0
note_on channel=0 note=55 velocity=39 time=0
note_on channel=0 note=55 velocity=0 time=120
note_on channel=0 note=62 velocity=38 time=0
note_on channel=0 note=59 velocity=29 time=0
note_on channel=0 note=59 velocity=0 time=0
note_on channel=0 note=62 velocity=0 time=0
note_on channel=0 note=65 velocity=45 time=0
note_on channel=0 note=77 velocity=52 time=0
note_on channel=0 note=65 velocity=0 time=120
note_on channel=0 note=62 velocity=36 time=0
note_on channel=0 note=59 velocity=29 time=0
note_on channel=0 note=59 velocity=0 time=120
note_on channel=0 note=62 velocity=0 time=0
note_on channel=0 note=55 velocity=35 time=0
note_on channel=0 note=55 velocity=0 time=120
note_on channel=0 note=62 velocity=35 time=0
note_on channel=0 note=59 velocity=28 time=0
note_on channel=0 note=59 velocity=0 time=0
note_on channel=0 note=62 velocity=0 time=0
note_on channel=0 note=77 velocity=0 time=0
note_on channel=0 note=65 velocity=43 time=0
note_on channel=0 note=77 velocity=49 time=0
note_on channel=0 note=65 velocity=0 time=120
note_on channel=0 note=59 velocity=26 time=0
note_on channel=0 note=62 velocity=33 time=0
note_on channel=0 note=62 velocity=0 time=120
note_on channel=0 note=59 velocity=0 time=0
note_on channel=0 note=55 velocity=33 time=0
note_on channel=0 note=55 velocity=0 time=120
note_on channel=0 note=62 velocity=31 time=0
note_on channel=0 note=59 velocity=24 time=0
note_on channel=0 note=59 velocity=0 time=0
note_on channel=0 note=62 velocity=0 time=0
note_on channel=0 note=77 velocity=0 time=0
note_on channel=0 note=65 velocity=38 time=0
note_on channel=0 note=32 velocity=41 time=0
note_on channel=0 note=44 velocity=41 time=0
note_on channel=0 note=65 velocity=0 time=120
note_on channel=0 note=62 velocity=31 time=0
note_on channel=0 note=59 velocity=24 time=0
note_on channel=0 note=59 velocity=0 time=120
note_on channel=0 note=62 velocity=0 time=0
note_on channel=0 note=55 velocity=30 time=0
note_on channel=0 note=55 velocity=0 time=120
note_on channel=0 note=62 velocity=30 time=0
note_on channel=0 note=59 velocity=23 time=0
note_on channel=0 note=59 velocity=0 time=0
note_on channel=0 note=32 velocity=0 time=0
note_on channel=0 note=44 velocity=0 time=0
note_on channel=0 note=62 velocity=0 time=0
note_on channel=0 note=65 velocity=42 time=0
note_on channel=0 note=31 velocity=38 time=0
note_on channel=0 note=43 velocity=38 time=0
note_on channel=0 note=65 velocity=0 time=120
note_on channel=0 note=59 velocity=25 time=0
note_on channel=0 note=62 velocity=31 time=0
note_on channel=0 note=62 velocity=0 time=120
note_on channel=0 note=31 velocity=0 time=0
note_on channel=0 note=43 velocity=0 time=0
note_on channel=0 note=59 velocity=0 time=0
note_on channel=0 note=55 velocity=31 time=0
note_on channel=0 note=55 velocity=0 time=120
note_on channel=0 note=62 velocity=30 time=0
note_on channel=0 note=59 velocity=24 time=0
note_on channel=0 note=59 velocity=0 time=0
note_on channel=0 note=62 velocity=0 time=0
note_on channel=0 note=65 velocity=38 time=0
note_on channel=0 note=77 velocity=50 time=0
note_on channel=0 note=65 velocity=0 time=120
note_on channel=0 note=62 velocity=30 time=0
note_on channel=0 note=59 velocity=23 time=0
note_on channel=0 note=59 velocity=0 time=120
note_on channel=0 note=62 velocity=0 time=0
note_on channel=0 note=55 velocity=30 time=0
note_on channel=0 note=55 velocity=0 time=120
note_on channel=0 note=62 velocity=30 time=0
note_on channel=0 note=59 velocity=22 time=0
note_on channel=0 note=77 velocity=0 time=110
note_on channel=0 note=59 velocity=0 time=0
note_on channel=0 note=62 velocity=0 time=0
note_on channel=0 note=65 velocity=40 time=0
note_on channel=0 note=77 velocity=50 time=0
note_on channel=0 note=65 velocity=0 time=120
note_on channel=0 note=59 velocity=24 time=0
note_on channel=0 note=62 velocity=30 time=0
note_on channel=0 note=62 velocity=0 time=120
note_on channel=0 note=59 velocity=0 time=0
note_on channel=0 note=55 velocity=30 time=0
note_on channel=0 note=55 velocity=0 time=120
note_on channel=0 note=62 velocity=30 time=0
note_on channel=0 note=59 velocity=23 time=0
note_on channel=0 note=59 velocity=0 time=0
note_on channel=0 note=62 velocity=0 time=0
note_on channel=0 note=77 velocity=0 time=0
note_on channel=0 note=65 velocity=36 time=0
note_on channel=0 note=32 velocity=41 time=0
note_on channel=0 note=44 velocity=41 time=0
note_on channel=0 note=65 velocity=0 time=120
note_on channel=0 note=62 velocity=30 time=0
note_on channel=0 note=59 velocity=23 time=0
note_on channel=0 note=59 velocity=0 time=120
note_on channel=0 note=62 velocity=0 time=0
note_on channel=0 note=55 velocity=29 time=0
note_on channel=0 note=55 velocity=0 time=120
note_on channel=0 note=62 velocity=29 time=0
note_on channel=0 note=59 velocity=21 time=0
note_on channel=0 note=59 velocity=0 time=0
note_on channel=0 note=32 velocity=0 time=0
note_on channel=0 note=44 velocity=0 time=0
note_on channel=0 note=62 velocity=0 time=0
note_on channel=0 note=65 velocity=40 time=0
note_on channel=0 note=31 velocity=39 time=0
note_on channel=0 note=43 velocity=39 time=0
note_on channel=0 note=65 velocity=0 time=120
note_on channel=0 note=59 velocity=23 time=0
note_on channel=0 note=62 velocity=31 time=0
note_on channel=0 note=62 velocity=0 time=120
note_on channel=0 note=31 velocity=0 time=0
note_on channel=0 note=43 velocity=0 time=0
note_on channel=0 note=59 velocity=0 time=0
note_on channel=0 note=55 velocity=30 time=0
note_on channel=0 note=55 velocity=0 time=120
note_on channel=0 note=62 velocity=29 time=0
note_on channel=0 note=59 velocity=23 time=0
note_on channel=0 note=59 velocity=0 time=0
note_on channel=0 note=62 velocity=0 time=0
note_on channel=0 note=65 velocity=35 time=0
note_on channel=0 note=77 velocity=45 time=0
note_on channel=0 note=65 velocity=0 time=120
note_on channel=0 note=62 velocity=29 time=0
note_on channel=0 note=59 velocity=23 time=0
note_on channel=0 note=59 velocity=0 time=120
note_on channel=0 note=62 velocity=0 time=0
note_on channel=0 note=55 velocity=28 time=0
note_on channel=0 note=55 velocity=0 time=120
note_on channel=0 note=62 velocity=28 time=0
note_on channel=0 note=59 velocity=22 time=0
note_on channel=0 note=59 velocity=0 time=0
note_on channel=0 note=62 velocity=0 time=0
note_on channel=0 note=77 velocity=0 time=0
note_on channel=0 note=65 velocity=39 time=0
note_on channel=0 note=65 velocity=0 time=120
note_on channel=0 note=59 velocity=23 time=0
note_on channel=0 note=62 velocity=30 time=0
note_on channel=0 note=62 velocity=0 time=120
note_on channel=0 note=59 velocity=0 time=0
note_on channel=0 note=55 velocity=30 time=0
note_on channel=0 note=55 velocity=0 time=120
note_on channel=0 note=62 velocity=29 time=0
note_on channel=0 note=59 velocity=23 time=0
note_on channel=0 note=59 velocity=0 time=0
note_on channel=0 note=62 velocity=0 time=0
note_on channel=0 note=65 velocity=36 time=0
note_on channel=0 note=77 velocity=45 time=0
note_on channel=0 note=65 velocity=0 time=120
note_on channel=0 note=62 velocity=29 time=0
note_on channel=0 note=59 velocity=23 time=0
note_on channel=0 note=59 velocity=0 time=120
note_on channel=0 note=62 velocity=0 time=0
note_on channel=0 note=55 velocity=28 time=0
note_on channel=0 note=55 velocity=0 time=120
note_on channel=0 note=62 velocity=28 time=0
note_on channel=0 note=59 velocity=22 time=0
note_on channel=0 note=59 velocity=0 time=0
note_on channel=0 note=62 velocity=0 time=0
note_on channel=0 note=77 velocity=0 time=0
note_on channel=0 note=65 velocity=39 time=0
note_on channel=0 note=65 velocity=0 time=120
note_on channel=0 note=59 velocity=24 time=0
note_on channel=0 note=62 velocity=30 time=0
note_on channel=0 note=62 velocity=0 time=120
note_on channel=0 note=59 velocity=0 time=0
note_on channel=0 note=55 velocity=30 time=0
note_on channel=0 note=55 velocity=0 time=120
note_on channel=0 note=62 velocity=29 time=0
note_on channel=0 note=59 velocity=23 time=0
note_on channel=0 note=59 velocity=0 time=0
note_on channel=0 note=62 velocity=0 time=0
note_on channel=0 note=65 velocity=36 time=0
note_on channel=0 note=56 velocity=45 time=0
note_on channel=0 note=65 velocity=0 time=120
note_on channel=0 note=62 velocity=29 time=0
note_on channel=0 note=59 velocity=23 time=0
note_on channel=0 note=59 velocity=0 time=120
note_on channel=0 note=62 velocity=0 time=0
note_on channel=0 note=55 velocity=28 time=0
note_on channel=0 note=55 velocity=0 time=120
note_on channel=0 note=62 velocity=28 time=0
note_on channel=0 note=59 velocity=22 time=0
note_on channel=0 note=59 velocity=0 time=0
note_on channel=0 note=62 velocity=0 time=0
note_on channel=0 note=56 velocity=0 time=0
note_on channel=0 note=65 velocity=40 time=0
note_on channel=0 note=65 velocity=0 time=120
note_on channel=0 note=59 velocity=24 time=0
note_on channel=0 note=62 velocity=31 time=0
note_on channel=0 note=62 velocity=0 time=120
note_on channel=0 note=59 velocity=0 time=0
note_on channel=0 note=55 velocity=31 time=0
note_on channel=0 note=55 velocity=0 time=120
note_on channel=0 note=62 velocity=30 time=0
note_on channel=0 note=59 velocity=23 time=0
note_on channel=0 note=59 velocity=0 time=0
note_on channel=0 note=62 velocity=0 time=0
note_on channel=0 note=65 velocity=36 time=0
note_on channel=0 note=43 velocity=46 time=0
note_on channel=0 note=65 velocity=0 time=120
note_on channel=0 note=62 velocity=30 time=0
note_on channel=0 note=59 velocity=23 time=0
note_on channel=0 note=59 velocity=0 time=120
note_on channel=0 note=62 velocity=0 time=0
note_on channel=0 note=55 velocity=29 time=0
note_on channel=0 note=55 velocity=0 time=120
note_on channel=0 note=62 velocity=29 time=0
note_on channel=0 note=59 velocity=22 time=0
note_on channel=0 note=59 velocity=0 time=0
note_on channel=0 note=62 velocity=0 time=0
note_on channel=0 note=43 velocity=0 time=0
note_on channel=0 note=65 velocity=40 time=0
note_on channel=0 note=65 velocity=0 time=120
note_on channel=0 note=59 velocity=24 time=0
note_on channel=0 note=62 velocity=31 time=0
note_on channel=0 note=62 velocity=0 time=120
note_on channel=0 note=59 velocity=0 time=0
note_on channel=0 note=55 velocity=31 time=0
note_on channel=0 note=55 velocity=0 time=120
note_on channel=0 note=62 velocity=30 time=0
note_on channel=0 note=59 velocity=23 time=0
note_on channel=0 note=59 velocity=0 time=0
note_on channel=0 note=62 velocity=0 time=0
note_on channel=0 note=59 velocity=68 time=0
note_on channel=0 note=71 velocity=80 time=0
note_on channel=0 note=31 velocity=65 time=0
note_on channel=0 note=43 velocity=77 time=0
note_on channel=0 note=71 velocity=0 time=120
note_on channel=0 note=59 velocity=0 time=0
note_on channel=0 note=62 velocity=68 time=0
note_on channel=0 note=59 velocity=57 time=0
note_on channel=0 note=59 velocity=0 time=120
note_on channel=0 note=43 velocity=0 time=0
note_on channel=0 note=31 velocity=0 time=0
note_on channel=0 note=62 velocity=0 time=0
note_on channel=0 note=59 velocity=57 time=0
note_on channel=0 note=71 velocity=69 time=0
note_on channel=0 note=31 velocity=65 time=0
note_on channel=0 note=43 velocity=77 time=0
note_on channel=0 note=71 velocity=0 time=120
note_on channel=0 note=59 velocity=0 time=0
note_on channel=0 note=62 velocity=69 time=0
note_on channel=0 note=59 velocity=57 time=0
note_on channel=0 note=59 velocity=0 time=0
note_on channel=0 note=43 velocity=0 time=0
note_on channel=0 note=31 velocity=0 time=0
note_on channel=0 note=62 velocity=0 time=0
note_on channel=0 note=60 velocity=87 time=0
note_on channel=0 note=64 velocity=91 time=0
note_on channel=0 note=72 velocity=104 time=0
note_on channel=0 note=48 velocity=79 time=0
note_on channel=0 note=36 velocity=71 time=0
note_on channel=0 note=36 velocity=0 time=0
note_on channel=0 note=72 velocity=0 time=0
note_on channel=0 note=60 velocity=0 time=0
note_on channel=0 note=64 velocity=0 time=0
note_on channel=0 note=48 velocity=0 time=0
note_on channel=0 note=43 velocity=66 time=0
note_on channel=0 note=43 velocity=0 time=0
note_on channel=0 note=48 velocity=70 time=0
note_on channel=0 note=48 velocity=0 time=0
note_on channel=0 note=52 velocity=76 time=0
note_on channel=0 note=52 velocity=0 time=0
note_on channel=0 note=91 velocity=94 time=0
note_on channel=0 note=79 velocity=77 time=0
note_on channel=0 note=55 velocity=68 time=0
note_on channel=0 note=55 velocity=0 time=120
note_on channel=0 note=48 velocity=68 time=0
note_on channel=0 note=48 velocity=0 time=120
note_on channel=0 note=79 velocity=0 time=0
note_on channel=0 note=91 velocity=0 time=0
note_on channel=0 note=52 velocity=68 time=0
note_on channel=0 note=52 velocity=0 time=120
note_on channel=0 note=55 velocity=76 time=0
note_on channel=0 note=55 velocity=0 time=0
note_on channel=0 note=91 velocity=100 time=0
note_on channel=0 note=79 velocity=84 time=0
note_on channel=0 note=60 velocity=66 time=0
note_on channel=0 note=60 velocity=0 time=120
note_on channel=0 note=52 velocity=68 time=0
note_on channel=0 note=52 velocity=0 time=120
note_on channel=0 note=55 velocity=71 time=0
note_on channel=0 note=55 velocity=0 time=120
note_on channel=0 note=60 velocity=78 time=0
note_on channel=0 note=60 velocity=0 time=120
note_on channel=0 note=64 velocity=71 time=0
note_on channel=0 note=64 velocity=0 time=120
note_on channel=0 note=55 velocity=71 time=0
note_on channel=0 note=55 velocity=0 time=120
note_on channel=0 note=79 velocity=0 time=0
note_on channel=0 note=91 velocity=0 time=0
note_on channel=0 note=88 velocity=87 time=0
note_on channel=0 note=76 velocity=73 time=0
note_on channel=0 note=60 velocity=71 time=0
note_on channel=0 note=60 velocity=0 time=120
note_on channel=0 note=64 velocity=78 time=0
note_on channel=0 note=64 velocity=0 time=0
note_on channel=0 note=76 velocity=0 time=0
note_on channel=0 note=88 velocity=0 time=0
note_on channel=0 note=86 velocity=94 time=0
note_on channel=0 note=74 velocity=77 time=0
note_on channel=0 note=65 velocity=62 time=0
note_on channel=0 note=65 velocity=0 time=28
note_on channel=0 note=64 velocity=68 time=0
note_on channel=0 note=64 velocity=0 time=120
note_on channel=0 note=62 velocity=71 time=0
note_on channel=0 note=62 velocity=0 time=120
note_on channel=0 note=60 velocity=78 time=0
note_on channel=0 note=60 velocity=0 time=0
note_on channel=0 note=74 velocity=0 time=0
note_on channel=0 note=86 velocity=0 time=0
note_on channel=0 note=79 velocity=76 time=0
note_on channel=0 note=67 velocity=63 time=0
note_on channel=0 note=59 velocity=71 time=0
note_on channel=0 note=59 velocity=0 time=120
note_on channel=0 note=57 velocity=71 time=0
note_on channel=0 note=57 velocity=0 time=120
note_on channel=0 note=55 velocity=76 time=0
note_on channel=0 note=55 velocity=0 time=120
note_on channel=0 note=53 velocity=76 time=0
note_on channel=0 note=53 velocity=0 time=0
note_on channel=0 note=67 velocity=0 time=0
note_on channel=0 note=79 velocity=0 time=0
note_on channel=0 note=84 velocity=88 time=0
note_on channel=0 note=72 velocity=75 time=0
note_on channel=0 note=52 velocity=62 time=0
note_on channel=0 note=52 velocity=0 time=56
note_on channel=0 note=55 velocity=66 time=0
note_on channel=0 note=55 velocity=0 time=120
note_on channel=0 note=48 velocity=70 time=0
note_on channel=0 note=48 velocity=0 time=120
note_on channel=0 note=52 velocity=76 time=0
note_on channel=0 note=52 velocity=0 time=120
note_on channel=0 note=72 velocity=0 time=0
note_on channel=0 note=84 velocity=0 time=0
note_on channel=0 note=88 velocity=87 time=0
note_on channel=0 note=76 velocity=73 time=0
note_on channel=0 note=43 velocity=70 time=0
note_on channel=0 note=43 velocity=0 time=120
note_on channel=0 note=48 velocity=70 time=0
note_on channel=0 note=48 velocity=0 time=120
note_on channel=0 note=76 velocity=0 time=0
note_on channel=0 note=88 velocity=0 time=0
note_on channel=0 note=40 velocity=71 time=0
note_on channel=0 note=40 velocity=0 time=0
note_on channel=0 note=43 velocity=76 time=0
note_on channel=0 note=43 velocity=0 time=0
note_on channel=0 note=36 velocity=94 time=0
note_on channel=0 note=36 velocity=0 time=0
note_on channel=0 note=43 velocity=66 time=0
note_on channel=0 note=43 velocity=0 time=40
note_on channel=0 note=48 velocity=70 time=0
note_on channel=0 note=48 velocity=0 time=40
note_on channel=0 note=52 velocity=76 time=0
note_on channel=0 note=52 velocity=0 time=0
note_on channel=0 note=91 velocity=94 time=0
note_on channel=0 note=79 velocity=77 time=0
note_on channel=0 note=55 velocity=68 time=0
note_on channel=0 note=55 velocity=0 time=120
note_on channel=0 note=48 velocity=68 time=0
note_on channel=0 note=48 velocity=0 time=120
note_on channel=0 note=79 velocity=0 time=0
note_on channel=0 note=91 velocity=0 time=0
note_on channel=0 note=52 velocity=68 time=0
note_on channel=0 note=52 velocity=0 time=120
note_on channel=0 note=55 velocity=76 time=0
note_on channel=0 note=55 velocity=0 time=0
note_on channel=0 note=91 velocity=100 time=0
note_on channel=0 note=79 velocity=84 time=0
note_on channel=0 note=60 velocity=66 time=0
note_on channel=0 note=60 velocity=0 time=120
note_on channel=0 note=52 velocity=68 time=0
note_on channel=0 note=52 velocity=0 time=120
note_on channel=0 note=55 velocity=71 time=0
note_on channel=0 note=55 velocity=0 time=120
note_on channel=0 note=60 velocity=78 time=0
note_on channel=0 note=60 velocity=0 time=120
note_on channel=0 note=64 velocity=71 time=0
note_on channel=0 note=64 velocity=0 time=120
note_on channel=0 note=55 velocity=71 time=0
note_on channel=0 note=55 velocity=0 time=120
note_on channel=0 note=79 velocity=0 time=0
note_on channel=0 note=91 velocity=0 time=0
note_on channel=0 note=88 velocity=87 time=0
note_on channel=0 note=76 velocity=73 time=0
note_on channel=0 note=60 velocity=71 time=0
note_on channel=0 note=60 velocity=0 time=120
note_on channel=0 note=64 velocity=71 time=0
note_on channel=0 note=64 velocity=0 time=0
note_on channel=0 note=76 velocity=0 time=0
note_on channel=0 note=88 velocity=0 time=0
note_on channel=0 note=86 velocity=94 time=0
note_on channel=0 note=74 velocity=77 time=0
note_on channel=0 note=65 velocity=62 time=0
note_on channel=0 note=65 velocity=0 time=35
note_on channel=0 note=64 velocity=68 time=0
note_on channel=0 note=64 velocity=0 time=120
note_on channel=0 note=62 velocity=71 time=0
note_on channel=0 note=62 velocity=0 time=120
note_on channel=0 note=60 velocity=78 time=0
note_on channel=0 note=60 velocity=0 time=0
note_on channel=0 note=74 velocity=0 time=0
note_on channel=0 note=86 velocity=0 time=0
note_on channel=0 note=79 velocity=76 time=0
note_on channel=0 note=67 velocity=63 time=0
note_on channel=0 note=59 velocity=71 time=0
note_on channel=0 note=59 velocity=0 time=120
note_on channel=0 note=55 velocity=71 time=0
note_on channel=0 note=55 velocity=0 time=120
note_on channel=0 note=57 velocity=76 time=0
note_on channel=0 note=57 velocity=0 time=120
note_on channel=0 note=59 velocity=76 time=0
note_on channel=0 note=59 velocity=0 time=0
note_on channel=0 note=67 velocity=0 time=0
note_on channel=0 note=79 velocity=0 time=0
note_on channel=0 note=84 velocity=83 time=0
note_on channel=0 note=72 velocity=69 time=0
note_on channel=0 note=60 velocity=62 time=0
note_on channel=0 note=60 velocity=0 time=35
note_on channel=0 note=59 velocity=64 time=0
note_on channel=0 note=59 velocity=0 time=120
note_on channel=0 note=72 velocity=0 time=0
note_on channel=0 note=84 velocity=0 time=0
note_on channel=0 note=57 velocity=68 time=0
note_on channel=0 note=57 velocity=0 time=120
note_on channel=0 note=55 velocity=73 time=0
note_on channel=0 note=55 velocity=0 time=120
note_on channel=0 note=53 velocity=68 time=0
note_on channel=0 note=53 velocity=0 time=120
note_on channel=0 note=52 velocity=68 time=0
note_on channel=0 note=52 velocity=0 time=120
note_on channel=0 note=50 velocity=69 time=0
note_on channel=0 note=50 velocity=0 time=0
note_on channel=0 note=48 velocity=74 time=0
note_on channel=0 note=48 velocity=0 time=0
note_on channel=0 note=43 velocity=80 time=0
note_on channel=0 note=43 velocity=0 time=0
note_on channel=0 note=47 velocity=58 time=0
note_on channel=0 note=47 velocity=0 time=0
note_on channel=0 note=50 velocity=62 time=0
note_on channel=0 note=50 velocity=0 time=0
note_on channel=0 note=55 velocity=67 time=0
note_on channel=0 note=55 velocity=0 time=0
note_on channel=0 note=89 velocity=82 time=0
note_on channel=0 note=77 velocity=69 time=0
note_on channel=0 note=47 velocity=60 time=0
note_on channel=0 note=47 velocity=0 time=120
note_on channel=0 note=50 velocity=60 time=0
note_on channel=0 note=50 velocity=0 time=120
note_on channel=0 note=77 velocity=0 time=0
note_on channel=0 note=89 velocity=0 time=0
note_on channel=0 note=55 velocity=60 time=0
note_on channel=0 note=55 velocity=0 time=120
note_on channel=0 note=59 velocity=68 time=0
note_on channel=0 note=59 velocity=0 time=0
note_on channel=0 note=89 velocity=86 time=0
note_on channel=0 note=77 velocity=73 time=0
note_on channel=0 note=50 velocity=58 time=0
note_on channel=0 note=50 velocity=0 time=120
note_on channel=0 note=55 velocity=60 time=0
note_on channel=0 note=55 velocity=0 time=120
note_on channel=0 note=59 velocity=63 time=0
note_on channel=0 note=59 velocity=0 time=120
note_on channel=0 note=62 velocity=70 time=0
note_on channel=0 note=62 velocity=0 time=120
note_on channel=0 note=55 velocity=53 time=0
note_on channel=0 note=55 velocity=0 time=120
note_on channel=0 note=59 velocity=53 time=0
note_on channel=0 note=59 velocity=0 time=120
note_on channel=0 note=77 velocity=0 time=0
note_on channel=0 note=89 velocity=0 time=0
note_on channel=0 note=86 velocity=55 time=0
note_on channel=0 note=74 velocity=45 time=0
note_on channel=0 note=62 velocity=45 time=0
note_on channel=0 note=62 velocity=0 time=120
note_on channel=0 note=67 velocity=50 time=0
note_on channel=0 note=67 velocity=0 time=0
note_on channel=0 note=74 velocity=0 time=0
note_on channel=0 note=86 velocity=0 time=0
note_on channel=0 note=88 velocity=52 time=0
note_on channel=0 note=76 velocity=44 time=0
note_on channel=0 note=55 velocity=28 time=0
note_on channel=0 note=55 velocity=0 time=35
note_on channel=0 note=60 velocity=32 time=0
note_on channel=0 note=60 velocity=0 time=120
note_on channel=0 note=67 velocity=34 time=0
note_on channel=0 note=67 velocity=0 time=120
note_on channel=0 note=60 velocity=37 time=0
note_on channel=0 note=60 velocity=0 time=0
note_on channel=0 note=76 velocity=0 time=0
note_on channel=0 note=88 velocity=0 time=0
note_on channel=0 note=84 velocity=42 time=0
note_on channel=0 note=72 velocity=35 time=0
note_on channel=0 note=55 velocity=28 time=0
note_on channel=0 note=55 velocity=0 time=120
note_on channel=0 note=64 velocity=32 time=0
note_on channel=0 note=64 velocity=0 time=120
note_on channel=0 note=67 velocity=34 time=0
note_on channel=0 note=67 velocity=0 time=120
note_on channel=0 note=64 velocity=37 time=0
note_on channel=0 note=64 velocity=0 time=0
note_on channel=0 note=72 velocity=0 time=0
note_on channel=0 note=84 velocity=0 time=0
note_on channel=0 note=83 velocity=52 time=0
note_on channel=0 note=71 velocity=44 time=0
note_on channel=0 note=55 velocity=28 time=0
note_on channel=0 note=55 velocity=0 time=21
note_on channel=0 note=62 velocity=31 time=0
note_on channel=0 note=62 velocity=0 time=120
note_on channel=0 note=67 velocity=33 time=0
note_on channel=0 note=67 velocity=0 time=120
note_on channel=0 note=62 velocity=37 time=0
note_on channel=0 note=62 velocity=0 time=120
note_on channel=0 note=71 velocity=0 time=0
note_on channel=0 note=83 velocity=0 time=0
note_on channel=0 note=86 velocity=49 time=0
note_on channel=0 note=74 velocity=41 time=0
note_on channel=0 note=55 velocity=28 time=0
note_on channel=0 note=55 velocity=0 time=120
note_on channel=0 note=59 velocity=31 time=0
note_on channel=0 note=59 velocity=0 time=120
note_on channel=0 note=74 velocity=0 time=0
note_on channel=0 note=86 velocity=0 time=0
note_on channel=0 note=67 velocity=33 time=0
note_on channel=0 note=67 velocity=0 time=0
note_on channel=0 note=59 velocity=36 time=0
note_on channel=0 note=59 velocity=0 time=0
note_on channel=0 note=43 velocity=86 time=0
note_on channel=0 note=43 velocity=0 time=0
note_on channel=0 note=47 velocity=58 time=0
note_on channel=0 note=47 velocity=0 time=0
note_on channel=0 note=50 velocity=62 time=0
note_on channel=0 note=50 velocity=0 time=0
note_on channel=0 note=55 velocity=67 time=0
note_on channel=0 note=55 velocity=0 time=0
note_on channel=0 note=89 velocity=78 time=0
note_on channel=0 note=77 velocity=66 time=0
note_on channel=0 note=47 velocity=60 time=0
note_on channel=0 note=47 velocity=0 time=120
note_on channel=0 note=50 velocity=60 time=0
note_on channel=0 note=50 velocity=0 time=120
note_on channel=0 note=77 velocity=0 time=0
note_on channel=0 note=89 velocity=0 time=0
note_on channel=0 note=55 velocity=60 time=0
note_on channel=0 note=55 velocity=0 time=120
note_on channel=0 note=59 velocity=68 time=0
note_on channel=0 note=59 velocity=0 time=0
note_on channel=0 note=89 velocity=85 time=0
note_on channel=0 note=77 velocity=71 time=0
note_on channel=0 note=50 velocity=58 time=0
note_on channel=0 note=50 velocity=0 time=120
note_on channel=0 note=55 velocity=60 time=0
note_on channel=0 note=55 velocity=0 time=120
note_on channel=0 note=59 velocity=63 time=0
note_on channel=0 note=59 velocity=0 time=120
note_on channel=0 note=62 velocity=70 time=0
note_on channel=0 note=62 velocity=0 time=120
note_on channel=0 note=55 velocity=53 time=0
note_on channel=0 note=55 velocity=0 time=120
note_on channel=0 note=59 velocity=53 time=0
note_on channel=0 note=59 velocity=0 time=120
note_on channel=0 note=77 velocity=0 time=0
note_on channel=0 note=89 velocity=0 time=0
note_on channel=0 note=86 velocity=62 time=0
note_on channel=0 note=74 velocity=51 time=0
note_on channel=0 note=62 velocity=53 time=0
note_on channel=0 note=62 velocity=0 time=120
note_on channel=0 note=67 velocity=59 time=0
note_on channel=0 note=67 velocity=0 time=0
note_on channel=0 note=74 velocity=0 time=0
note_on channel=0 note=86 velocity=0 time=0
note_on channel=0 note=87 velocity=50 time=0
note_on channel=0 note=75 velocity=42 time=0
note_on channel=0 note=55 velocity=26 time=0
note_on channel=0 note=55 velocity=0 time=40
note_on channel=0 note=60 velocity=30 time=0
note_on channel=0 note=60 velocity=0 time=120
note_on channel=0 note=67 velocity=32 time=0
note_on channel=0 note=67 velocity=0 time=120
note_on channel=0 note=60 velocity=33 time=0
note_on channel=0 note=60 velocity=0 time=0
note_on channel=0 note=75 velocity=0 time=0
note_on channel=0 note=87 velocity=0 time=0
note_on channel=0 note=84 velocity=39 time=0
note_on channel=0 note=72 velocity=33 time=0
note_on channel=0 note=55 velocity=26 time=0
note_on channel=0 note=55 velocity=0 time=120
note_on channel=0 note=63 velocity=30 time=0
note_on channel=0 note=63 velocity=0 time=120
note_on channel=0 note=67 velocity=32 time=0
note_on channel=0 note=67 velocity=0 time=120
note_on channel=0 note=63 velocity=33 time=0
note_on channel=0 note=63 velocity=0 time=0
note_on channel=0 note=72 velocity=0 time=0
note_on channel=0 note=84 velocity=0 time=0
note_on channel=0 note=83 velocity=50 time=0
note_on channel=0 note=71 velocity=42 time=0
note_on channel=0 note=55 velocity=26 time=0
note_on channel=0 note=55 velocity=0 time=42
note_on channel=0 note=62 velocity=30 time=0
note_on channel=0 note=62 velocity=0 time=120
note_on channel=0 note=67 velocity=31 time=0
note_on channel=0 note=67 velocity=0 time=120
note_on channel=0 note=62 velocity=33 time=0
note_on channel=0 note=62 velocity=0 time=120
note_on channel=0 note=71 velocity=0 time=0
note_on channel=0 note=83 velocity=0 time=0
note_on channel=0 note=86 velocity=45 time=0
note_on channel=0 note=74 velocity=38 time=0
note_on channel=0 note=55 velocity=26 time=0
note_on channel=0 note=55 velocity=0 time=120
note_on channel=0 note=59 velocity=30 time=0
note_on channel=0 note=59 velocity=0 time=120
note_on channel=0 note=67 velocity=31 time=0
note_on channel=0 note=67 velocity=0 time=120
note_on channel=0 note=59 velocity=33 time=0
note_on channel=0 note=59 velocity=0 time=0
note_on channel=0 note=74 velocity=0 time=0
note_on channel=0 note=86 velocity=0 time=0
note_on channel=0 note=88 velocity=60 time=0
note_on channel=0 note=76 velocity=50 time=0
note_on channel=0 note=55 velocity=33 time=0
note_on channel=0 note=55 velocity=0 time=56
note_on channel=0 note=60 velocity=37 time=0
note_on channel=0 note=60 velocity=0 time=120
note_on channel=0 note=67 velocity=39 time=0
note_on channel=0 note=67 velocity=0 time=120
note_on channel=0 note=60 velocity=42 time=0
note_on channel=0 note=60 velocity=0 time=0
note_on channel=0 note=76 velocity=0 time=0
note_on channel=0 note=88 velocity=0 time=0
note_on channel=0 note=84 velocity=50 time=0
note_on channel=0 note=72 velocity=42 time=0
note_on channel=0 note=55 velocity=33 time=0
note_on channel=0 note=55 velocity=0 time=120
note_on channel=0 note=64 velocity=38 time=0
note_on channel=0 note=64 velocity=0 time=120
note_on channel=0 note=67 velocity=40 time=0
note_on channel=0 note=67 velocity=0 time=120
note_on channel=0 note=64 velocity=44 time=0
note_on channel=0 note=64 velocity=0 time=0
note_on channel=0 note=72 velocity=0 time=0
note_on channel=0 note=84 velocity=0 time=0
note_on channel=0 note=83 velocity=63 time=0
note_on channel=0 note=71 velocity=54 time=0
note_on channel=0 note=55 velocity=34 time=0
note_on channel=0 note=55 velocity=0 time=42
note_on channel=0 note=62 velocity=38 time=0
note_on channel=0 note=62 velocity=0 time=120
note_on channel=0 note=67 velocity=40 time=0
note_on channel=0 note=67 velocity=0 time=120
note_on channel=0 note=62 velocity=45 time=0
note_on channel=0 note=62 velocity=0 time=120
note_on channel=0 note=71 velocity=0 time=0
note_on channel=0 note=83 velocity=0 time=0
note_on channel=0 note=86 velocity=62 time=0
note_on channel=0 note=74 velocity=52 time=0
note_on channel=0 note=55 velocity=37 time=0
note_on channel=0 note=55 velocity=0 time=120
note_on channel=0 note=59 velocity=39 time=0
note_on channel=0 note=59 velocity=0 time=120
note_on channel=0 note=67 velocity=43 time=0
note_on channel=0 note=67 velocity=0 time=120
note_on channel=0 note=59 velocity=46 time=0
note_on channel=0 note=59 velocity=0 time=0
note_on channel=0 note=74 velocity=0 time=0
note_on channel=0 note=86 velocity=0 time=0
note_on channel=0 note=87 velocity=60 time=0
note_on channel=0 note=75 velocity=60 time=0
note_on channel=0 note=55 velocity=33 time=0
note_on channel=0 note=55 velocity=0 time=45
note_on channel=0 note=60 velocity=37 time=0
note_on channel=0 note=60 velocity=0 time=120
note_on channel=0 note=67 velocity=39 time=0
note_on channel=0 note=67 velocity=0 time=120
note_on channel=0 note=60 velocity=42 time=0
note_on channel=0 note=60 velocity=0 time=0
note_on channel=0 note=75 velocity=0 time=0
note_on channel=0 note=87 velocity=0 time=0
note_on channel=0 note=84 velocity=49 time=0
note_on channel=0 note=72 velocity=40 time=0
note_on channel=0 note=55 velocity=33 time=0
note_on channel=0 note=55 velocity=0 time=120
note_on channel=0 note=60 velocity=37 time=0
note_on channel=0 note=60 velocity=0 time=120
note_on channel=0 note=63 velocity=39 time=0
note_on channel=0 note=63 velocity=0 time=120
note_on channel=0 note=60 velocity=42 time=0
note_on channel=0 note=60 velocity=0 time=0
note_on channel=0 note=72 velocity=0 time=0
note_on channel=0 note=84 velocity=0 time=0
note_on channel=0 note=79 velocity=50 time=0
note_on channel=0 note=55 velocity=28 time=0
note_on channel=0 note=55 velocity=0 time=40
note_on channel=0 note=59 velocity=30 time=0
note_on channel=0 note=59 velocity=0 time=120
note_on channel=0 note=62 velocity=32 time=0
note_on channel=0 note=62 velocity=0 time=120
note_on channel=0 note=59 velocity=35 time=0
note_on channel=0 note=59 velocity=0 time=0
note_on channel=0 note=79 velocity=0 time=0
note_on channel=0 note=79 velocity=47 time=0
note_on channel=0 note=55 velocity=28 time=0
note_on channel=0 note=55 velocity=0 time=34
note_on channel=0 note=60 velocity=30 time=0
note_on channel=0 note=60 velocity=0 time=120
note_on channel=0 note=63 velocity=32 time=0
note_on channel=0 note=63 velocity=0 time=120
note_on channel=0 note=60 velocity=35 time=0
note_on channel=0 note=60 velocity=0 time=0
note_on channel=0 note=79 velocity=0 time=0
note_on channel=0 note=81 velocity=37 time=0
note_on channel=0 note=55 velocity=47 time=0
note_on channel=0 note=55 velocity=0 time=14
note_on channel=0 note=81 velocity=0 time=20
note_on channel=0 note=79 velocity=37 time=0
note_on channel=0 note=59 velocity=30 time=40
note_on channel=0 note=79 velocity=0 time=40
note_on channel=0 note=81 velocity=37 time=0
note_on channel=0 note=81 velocity=0 time=80
note_on channel=0 note=59 velocity=0 time=0
note_on channel=0 note=79 velocity=37 time=0
note_on channel=0 note=62 velocity=31 time=0
note_on channel=0 note=79 velocity=0 time=80
note_on channel=0 note=81 velocity=38 time=0
note_on channel=0 note=62 velocity=0 time=40
note_on channel=0 note=59 velocity=32 time=0
note_on channel=0 note=81 velocity=0 time=40
note_on channel=0 note=79 velocity=38 time=0
note_on channel=0 note=79 velocity=0 time=0
note_on channel=0 note=59 velocity=0 time=0
note_on channel=0 note=81 velocity=39 time=0
note_on channel=0 note=55 velocity=53 time=0
note_on channel=0 note=55 velocity=0 time=51
note_on channel=0 note=81 velocity=0 time=16
note_on channel=0 note=79 velocity=39 time=0
note_on channel=0 note=60 velocity=32 time=40
note_on channel=0 note=79 velocity=0 time=40
note_on channel=0 note=81 velocity=39 time=0
note_on channel=0 note=81 velocity=0 time=80
note_on channel=0 note=60 velocity=0 time=0
note_on channel=0 note=79 velocity=39 time=0
note_on channel=0 note=64 velocity=33 time=0
note_on channel=0 note=79 velocity=0 time=80
note_on channel=0 note=81 velocity=40 time=0
note_on channel=0 note=64 velocity=0 time=40
note_on channel=0 note=60 velocity=34 time=0
note_on channel=0 note=81 velocity=0 time=0
note_on channel=0 note=79 velocity=40 time=0
note_on channel=0 note=79 velocity=0 time=80
note_on channel=0 note=60 velocity=0 time=0
note_on channel=0 note=81 velocity=41 time=0
note_on channel=0 note=55 velocity=57 time=0
note_on channel=0 note=55 velocity=0 time=10
note_on channel=0 note=81 velocity=0 time=20
note_on channel=0 note=79 velocity=41 time=0
note_on channel=0 note=59 velocity=35 time=40
note_on channel=0 note=79 velocity=0 time=0
note_on channel=0 note=81 velocity=41 time=0
note_on channel=0 note=81 velocity=0 time=80
note_on channel=0 note=59 velocity=0 time=0
note_on channel=0 note=79 velocity=43 time=0
note_on channel=0 note=62 velocity=38 time=0
note_on channel=0 note=79 velocity=0 time=80
note_on channel=0 note=81 velocity=43 time=0
note_on channel=0 note=62 velocity=0 time=0
note_on channel=0 note=59 velocity=38 time=0
note_on channel=0 note=81 velocity=0 time=40
note_on channel=0 note=79 velocity=43 time=0
note_on channel=0 note=79 velocity=0 time=80
note_on channel=0 note=59 velocity=0 time=0
note_on channel=0 note=81 velocity=44 time=0
note_on channel=0 note=55 velocity=64 time=0
note_on channel=0 note=55 velocity=0 time=51
note_on channel=0 note=81 velocity=0 time=0
note_on channel=0 note=79 velocity=44 time=0
note_on channel=0 note=57 velocity=39 time=40
note_on channel=0 note=79 velocity=0 time=40
note_on channel=0 note=81 velocity=45 time=0
note_on channel=0 note=81 velocity=0 time=80
note_on channel=0 note=57 velocity=0 time=0
note_on channel=0 note=79 velocity=45 time=0
note_on channel=0 note=60 velocity=41 time=0
note_on channel=0 note=79 velocity=0 time=40
note_on channel=0 note=81 velocity=45 time=0
note_on channel=0 note=60 velocity=0 time=40
note_on channel=0 note=57 velocity=43 time=0
note_on channel=0 note=81 velocity=0 time=40
note_on channel=0 note=79 velocity=45 time=0
note_on channel=0 note=79 velocity=0 time=0
note_on channel=0 note=57 velocity=0 time=0
note_on channel=0 note=81 velocity=47 time=0
note_on channel=0 note=55 velocity=71 time=0
note_on channel=0 note=55 velocity=0 time=0
note_on channel=0 note=81 velocity=0 time=0
note_on channel=0 note=79 velocity=47 time=0
note_on channel=0 note=59 velocity=47 time=20
note_on channel=0 note=79 velocity=0 time=0
note_on channel=0 note=81 velocity=47 time=0
note_on channel=0 note=81 velocity=0 time=0
note_on channel=0 note=59 velocity=0 time=0
note_on channel=0 note=79 velocity=47 time=0
note_on channel=0 note=57 velocity=49 time=0
note_on channel=0 note=79 velocity=0 time=60
note_on channel=0 note=81 velocity=47 time=0
note_on channel=0 note=57 velocity=0 time=0
note_on channel=0 note=55 velocity=50 time=0
note_on channel=0 note=81 velocity=0 time=0
note_on channel=0 note=79 velocity=48 time=0
note_on channel=0 note=79 velocity=0 time=0
note_on channel=0 note=55 velocity=0 time=0
note_on channel=0 note=81 velocity=48 time=0
note_on channel=0 note=53 velocity=76 time=0
note_on channel=0 note=53 velocity=0 time=3
note_on channel=0 note=81 velocity=0 time=20
note_on channel=0 note=79 velocity=48 time=0
note_on channel=0 note=57 velocity=50 time=0
note_on channel=0 note=79 velocity=0 time=0
note_on channel=0 note=81 velocity=49 time=0
note_on channel=0 note=81 velocity=0 time=0
note_on channel=0 note=57 velocity=0 time=0
note_on channel=0 note=79 velocity=49 time=0
note_on channel=0 note=55 velocity=53 time=0
note_on channel=0 note=79 velocity=0 time=0
note_on channel=0 note=81 velocity=50 time=0
note_on channel=0 note=55 velocity=0 time=0
note_on channel=0 note=53 velocity=55 time=0
note_on channel=0 note=81 velocity=0 time=0
note_on channel=0 note=79 velocity=51 time=0
note_on channel=0 note=79 velocity=0 time=80
note_on channel=0 note=53 velocity=0 time=0
note_on channel=0 note=81 velocity=51 time=0
note_on channel=0 note=52 velocity=85 time=0
note_on channel=0 note=52 velocity=0 time=0
note_on channel=0 note=81 velocity=0 time=20
note_on channel=0 note=79 velocity=52 time=0
note_on channel=0 note=55 velocity=58 time=40
note_on channel=0 note=79 velocity=0 time=20
note_on channel=0 note=81 velocity=52 time=0
note_on channel=0 note=81 velocity=0 time=0
note_on channel=0 note=55 velocity=0 time=0
note_on channel=0 note=79 velocity=52 time=0
note_on channel=0 note=53 velocity=61 time=0
note_on channel=0 note=79 velocity=0 time=80
note_on channel=0 note=81 velocity=54 time=0
note_on channel=0 note=53 velocity=0 time=0
note_on channel=0 note=52 velocity=64 time=0
note_on channel=0 note=81 velocity=0 time=0
note_on channel=0 note=79 velocity=54 time=0
note_on channel=0 note=79 velocity=0 time=0
note_on channel=0 note=52 velocity=0 time=0
note_on channel=0 note=81 velocity=54 time=0
note_on channel=0 note=50 velocity=90 time=0
note_on channel=0 note=50 velocity=0 time=3
note_on channel=0 note=81 velocity=0 time=0
note_on channel=0 note=79 velocity=55 time=0
note_on channel=0 note=53 velocity=68 time=40
note_on channel=0 note=79 velocity=0 time=0
note_on channel=0 note=81 velocity=55 time=0
note_on channel=0 note=81 velocity=0 time=40
note_on channel=0 note=53 velocity=0 time=0
note_on channel=0 note=79 velocity=55 time=0
note_on channel=0 note=52 velocity=72 time=0
note_on channel=0 note=79 velocity=0 time=0
note_on channel=0 note=81 velocity=56 time=0
note_on channel=0 note=52 velocity=0 time=40
note_on channel=0 note=50 velocity=76 time=0
note_on channel=0 note=81 velocity=0 time=0
note_on channel=0 note=79 velocity=56 time=0
note_on channel=0 note=79 velocity=0 time=0
note_on channel=0 note=50 velocity=0 time=0
note_on channel=0 note=81 velocity=48 time=0
note_on channel=0 note=36 velocity=94 time=0
note_on channel=0 note=48 velocity=94 time=0
note_on channel=0 note=81 velocity=0 time=20
note_on channel=0 note=79 velocity=35 time=0
note_on channel=0 note=50 velocity=56 time=0
note_on channel=0 note=79 velocity=0 time=20
note_on channel=0 note=81 velocity=38 time=0
note_on channel=0 note=50 velocity=0 time=0
note_on channel=0 note=52 velocity=57 time=0
note_on channel=0 note=52 velocity=0 time=0
note_on channel=0 note=81 velocity=0 time=0
note_on channel=0 note=48 velocity=0 time=0
note_on channel=0 note=36 velocity=0 time=0
note_on channel=0 note=79 velocity=35 time=0
note_on channel=0 note=53 velocity=60 time=0
note_on channel=0 note=53 velocity=0 time=0
note_on channel=0 note=55 velocity=60 time=0
note_on channel=0 note=79 velocity=0 time=0
note_on channel=0 note=81 velocity=38 time=0
note_on channel=0 note=55 velocity=0 time=20
note_on channel=0 note=57 velocity=62 time=0
note_on channel=0 note=81 velocity=0 time=20
note_on channel=0 note=79 velocity=36 time=0
note_on channel=0 note=57 velocity=0 time=20
note_on channel=0 note=59 velocity=63 time=0
note_on channel=0 note=59 velocity=0 time=0
note_on channel=0 note=79 velocity=0 time=0
note_on channel=0 note=81 velocity=40 time=0
note_on channel=0 note=91 velocity=89 time=0
note_on channel=0 note=60 velocity=63 time=0
note_on channel=0 note=81 velocity=0 time=40
note_on channel=0 note=79 velocity=36 time=0
note_on channel=0 note=60 velocity=0 time=0
note_on channel=0 note=62 velocity=65 time=0
note_on channel=0 note=79 velocity=0 time=0
note_on channel=0 note=81 velocity=40 time=0
note_on channel=0 note=62 velocity=0 time=20
note_on channel=0 note=64 velocity=66 time=0
note_on channel=0 note=64 velocity=0 time=0
note_on channel=0 note=81 velocity=0 time=0
note_on channel=0 note=91 velocity=0 time=0
note_on channel=0 note=79 velocity=36 time=0
note_on channel=0 note=65 velocity=67 time=0
note_on channel=0 note=65 velocity=0 time=0
note_on channel=0 note=67 velocity=69 time=0
note_on channel=0 note=79 velocity=0 time=0
note_on channel=0 note=81 velocity=40 time=0
note_on channel=0 note=67 velocity=0 time=0
note_on channel=0 note=69 velocity=70 time=0
note_on channel=0 note=81 velocity=0 time=0
note_on channel=0 note=79 velocity=36 time=0
note_on channel=0 note=69 velocity=0 time=20
note_on channel=0 note=71 velocity=71 time=0
note_on channel=0 note=71 velocity=0 time=60
note_on channel=0 note=79 velocity=0 time=0
note_on channel=0 note=81 velocity=40 time=0
note_on channel=0 note=91 velocity=90 time=0
note_on channel=0 note=72 velocity=74 time=0
note_on channel=0 note=72 velocity=0 time=0
note_on channel=0 note=81 velocity=0 time=0
note_on channel=0 note=79 velocity=37 time=0
note_on channel=0 note=71 velocity=71 time=0
note_on channel=0 note=79 velocity=0 time=0
note_on channel=0 note=81 velocity=40 time=0
note_on channel=0 note=71 velocity=0 time=0
note_on channel=0 note=81 velocity=0 time=0
note_on channel=0 note=79 velocity=36 time=0
note_on channel=0 note=69 velocity=71 time=0
note_on channel=0 note=69 velocity=0 time=0
note_on channel=0 note=79 velocity=0 time=0
note_on channel=0 note=81 velocity=40 time=0
note_on channel=0 note=67 velocity=71 time=0
note_on channel=0 note=81 velocity=0 time=20
note_on channel=0 note=79 velocity=36 time=0
note_on channel=0 note=67 velocity=0 time=20
note_on channel=0 note=79 velocity=0 time=0
note_on channel=0 note=81 velocity=40 time=0
note_on channel=0 note=65 velocity=72 time=0
note_on channel=0 note=65 velocity=0 time=0
note_on channel=0 note=81 velocity=0 time=20
note_on channel=0 note=79 velocity=35 time=0
note_on channel=0 note=64 velocity=69 time=0
note_on channel=0 note=79 velocity=0 time=0
note_on channel=0 note=81 velocity=38 time=0
note_on channel=0 note=64 velocity=0 time=20
note_on channel=0 note=81 velocity=0 time=0
note_on channel=0 note=91 velocity=0 time=0
note_on channel=0 note=79 velocity=33 time=0
note_on channel=0 note=88 velocity=85 time=0
note_on channel=0 note=62 velocity=69 time=0
note_on channel=0 note=62 velocity=0 time=40
note_on channel=0 note=79 velocity=0 time=20
note_on channel=0 note=81 velocity=38 time=0
note_on channel=0 note=60 velocity=67 time=0
note_on channel=0 note=81 velocity=0 time=40
note_on channel=0 note=79 velocity=34 time=0
note_on channel=0 note=60 velocity=0 time=0
note_on channel=0 note=79 velocity=0 time=0
note_on channel=0 note=88 velocity=0 time=0
note_on channel=0 note=81 velocity=38 time=0
note_on channel=0 note=86 velocity=90 time=0
note_on channel=0 note=59 velocity=73 time=0
note_on channel=0 note=59 velocity=0 time=0
note_on channel=0 note=81 velocity=0 time=20
note_on channel=0 note=79 velocity=34 time=0
note_on channel=0 note=60 velocity=69 time=0
note_on channel=0 note=79 velocity=0 time=0
note_on channel=0 note=81 velocity=36 time=0
note_on channel=0 note=60 velocity=0 time=0
note_on channel=0 note=81 velocity=0 time=0
note_on channel=0 note=79 velocity=33 time=0
note_on channel=0 note=59 velocity=69 time=0
note_on channel=0 note=59 velocity=0 time=40
note_on channel=0 note=79 velocity=0 time=0
note_on channel=0 note=81 velocity=37 time=0
note_on channel=0 note=57 velocity=69 time=0
note_on channel=0 note=81 velocity=0 time=0
note_on channel=0 note=79 velocity=33 time=0
note_on channel=0 note=57 velocity=0 time=0
note_on channel=0 note=79 velocity=0 time=20
note_on channel=0 note=86 velocity=0 time=0
note_on channel=0 note=81 velocity=37 time=0
note_on channel=0 note=79 velocity=84 time=0
note_on channel=0 note=55 velocity=75 time=0
note_on channel=0 note=55 velocity=0 time=0
note_on channel=0 note=81 velocity=0 time=0
note_on channel=0 note=79 velocity=33 time=0
note_on channel=0 note=53 velocity=69 time=0
note_on channel=0 note=79 velocity=0 time=0
note_on channel=0 note=81 velocity=38 time=0
note_on channel=0 note=53 velocity=0 time=0
note_on channel=0 note=81 velocity=0 time=0
note_on channel=0 note=79 velocity=32 time=0
note_on channel=0 note=52 velocity=69 time=0
note_on channel=0 note=52 velocity=0 time=0
note_on channel=0 note=79 velocity=0 time=0
note_on channel=0 note=81 velocity=37 time=0
note_on channel=0 note=50 velocity=69 time=20
note_on channel=0 note=81 velocity=0 time=20
note_on channel=0 note=79 velocity=32 time=0
note_on channel=0 note=50 velocity=0 time=20
note_on channel=0 note=79 velocity=0 time=0
note_on channel=0 note=79 velocity=0 time=0
note_on channel=0 note=81 velocity=38 time=0
note_on channel=0 note=84 velocity=87 time=0
note_on channel=0 note=48 velocity=75 time=0
note_on channel=0 note=48 velocity=0 time=0
note_on channel=0 note=81 velocity=0 time=0
note_on channel=0 note=79 velocity=32 time=0
note_on channel=0 note=48 velocity=69 time=40
note_on channel=0 note=79 velocity=0 time=0
note_on channel=0 note=81 velocity=37 time=0
note_on channel=0 note=48 velocity=0 time=0
note_on channel=0 note=81 velocity=0 time=20
note_on channel=0 note=79 velocity=32 time=0
note_on channel=0 note=47 velocity=69 time=0
note_on channel=0 note=47 velocity=0 time=0
note_on channel=0 note=79 velocity=0 time=0
note_on channel=0 note=81 velocity=36 time=0
note_on channel=0 note=45 velocity=69 time=20
note_on channel=0 note=81 velocity=0 time=40
note_on channel=0 note=79 velocity=32 time=0
note_on channel=0 note=45 velocity=0 time=20
note_on channel=0 note=79 velocity=0 time=0
note_on channel=0 note=84 velocity=0 time=0
note_on channel=0 note=81 velocity=36 time=0
note_on channel=0 note=88 velocity=84 time=0
note_on channel=0 note=43 velocity=72 time=0
note_on channel=0 note=43 velocity=0 time=0
note_on channel=0 note=81 velocity=0 time=0
note_on channel=0 note=79 velocity=34 time=0
note_on channel=0 note=41 velocity=71 time=40
note_on channel=0 note=79 velocity=0 time=0
note_on channel=0 note=81 velocity=37 time=0
note_on channel=0 note=41 velocity=0 time=0
note_on channel=0 note=81 velocity=0 time=40
note_on channel=0 note=88 velocity=0 time=0
note_on channel=0 note=79 velocity=33 time=0
note_on channel=0 note=40 velocity=75 time=0
note_on channel=0 note=40 velocity=0 time=40
note_on channel=0 note=79 velocity=0 time=20
note_on channel=0 note=81 velocity=36 time=0
note_on channel=0 note=38 velocity=80 time=0
note_on channel=0 note=81 velocity=0 time=40
note_on channel=0 note=79 velocity=32 time=0
note_on channel=0 note=38 velocity=0 time=20
note_on channel=0 note=79 velocity=0 time=0
note_on channel=0 note=81 velocity=36 time=0
note_on channel=0 note=36 velocity=95 time=0
note_on channel=0 note=48 velocity=95 time=0
note_on channel=0 note=81 velocity=0 time=0
note_on channel=0 note=79 velocity=32 time=0
note_on channel=0 note=50 velocity=56 time=20
note_on channel=0 note=79 velocity=0 time=0
note_on channel=0 note=81 velocity=37 time=0
note_on channel=0 note=50 velocity=0 time=20
note_on channel=0 note=52 velocity=57 time=0
note_on channel=0 note=52 velocity=0 time=0
note_on channel=0 note=81 velocity=0 time=0
note_on channel=0 note=48 velocity=0 time=0
note_on channel=0 note=36 velocity=0 time=0
note_on channel=0 note=79 velocity=33 time=0
note_on channel=0 note=53 velocity=60 time=0
note_on channel=0 note=53 velocity=0 time=0
note_on channel=0 note=55 velocity=60 time=0
note_on channel=0 note=79 velocity=0 time=0
note_on channel=0 note=81 velocity=38 time=0
note_on channel=0 note=55 velocity=0 time=20
note_on channel=0 note=57 velocity=62 time=0
note_on channel=0 note=81 velocity=0 time=40
note_on channel=0 note=79 velocity=33 time=0
note_on channel=0 note=57 velocity=0 time=0
note_on channel=0 note=59 velocity=63 time=0
note_on channel=0 note=59 velocity=0 time=0
note_on channel=0 note=79 velocity=0 time=0
note_on channel=0 note=81 velocity=39 time=0
note_on channel=0 note=91 velocity=90 time=0
note_on channel=0 note=60 velocity=63 time=0
note_on channel=0 note=81 velocity=0 time=0
note_on channel=0 note=79 velocity=35 time=0
note_on channel=0 note=60 velocity=0 time=0
note_on channel=0 note=62 velocity=65 time=0
note_on channel=0 note=79 velocity=0 time=0
note_on channel=0 note=81 velocity=40 time=0
note_on channel=0 note=62 velocity=0 time=20
note_on channel=0 note=64 velocity=66 time=0
note_on channel=0 note=64 velocity=0 time=0
note_on channel=0 note=81 velocity=0 time=0
note_on channel=0 note=91 velocity=0 time=0
note_on channel=0 note=79 velocity=36 time=0
note_on channel=0 note=65 velocity=67 time=0
note_on channel=0 note=65 velocity=0 time=0
note_on channel=0 note=67 velocity=69 time=0
note_on channel=0 note=79 velocity=0 time=0
note_on channel=0 note=81 velocity=40 time=0
note_on channel=0 note=67 velocity=0 time=40
note_on channel=0 note=69 velocity=70 time=0
note_on channel=0 note=81 velocity=0 time=0
note_on channel=0 note=79 velocity=36 time=0
note_on channel=0 note=69 velocity=0 time=20
note_on channel=0 note=71 velocity=71 time=0
note_on channel=0 note=71 velocity=0 time=0
note_on channel=0 note=79 velocity=0 time=0
note_on channel=0 note=81 velocity=40 time=0
note_on channel=0 note=91 velocity=92 time=0
note_on channel=0 note=72 velocity=74 time=0
note_on channel=0 note=72 velocity=0 time=0
note_on channel=0 note=81 velocity=0 time=20
note_on channel=0 note=79 velocity=37 time=0
note_on channel=0 note=71 velocity=71 time=0
note_on channel=0 note=79 velocity=0 time=0
note_on channel=0 note=81 velocity=40 time=0
note_on channel=0 note=71 velocity=0 time=20
note_on channel=0 note=81 velocity=0 time=0
note_on channel=0 note=79 velocity=36 time=0
note_on channel=0 note=69 velocity=71 time=0
note_on channel=0 note=69 velocity=0 time=0
note_on channel=0 note=79 velocity=0 time=0
note_on channel=0 note=81 velocity=40 time=0
note_on channel=0 note=67 velocity=71 time=0
note_on channel=0 note=81 velocity=0 time=0
note_on channel=0 note=79 velocity=36 time=0
note_on channel=0 note=67 velocity=0 time=0
note_on channel=0 note=79 velocity=0 time=0
note_on channel=0 note=81 velocity=39 time=0
note_on channel=0 note=65 velocity=72 time=0
note_on channel=0 note=65 velocity=0 time=0
note_on channel=0 note=81 velocity=0 time=0
note_on channel=0 note=79 velocity=36 time=0
note_on channel=0 note=64 velocity=69 time=40
note_on channel=0 note=79 velocity=0 time=0
note_on channel=0 note=81 velocity=38 time=0
note_on channel=0 note=64 velocity=0 time=0
note_on channel=0 note=81 velocity=0 time=20
note_on channel=0 note=91 velocity=0 time=0
note_on channel=0 note=79 velocity=32 time=0
note_on channel=0 note=88 velocity=84 time=0
note_on channel=0 note=62 velocity=69 time=0
note_on channel=0 note=62 velocity=0 time=0
note_on channel=0 note=79 velocity=0 time=0
note_on channel=0 note=81 velocity=37 time=0
note_on channel=0 note=60 velocity=67 time=40
note_on channel=0 note=81 velocity=0 time=20
note_on channel=0 note=79 velocity=33 time=0
note_on channel=0 note=60 velocity=0 time=20
note_on channel=0 note=79 velocity=0 time=0
note_on channel=0 note=88 velocity=0 time=0
note_on channel=0 note=81 velocity=39 time=0
note_on channel=0 note=86 velocity=90 time=0
note_on channel=0 note=59 velocity=73 time=0
note_on channel=0 note=59 velocity=0 time=0
note_on channel=0 note=81 velocity=0 time=20
note_on channel=0 note=79 velocity=32 time=0
note_on channel=0 note=60 velocity=69 time=20
note_on channel=0 note=79 velocity=0 time=0
note_on channel=0 note=81 velocity=36 time=0
note_on channel=0 note=60 velocity=0 time=20
note_on channel=0 note=81 velocity=0 time=20
note_on channel=0 note=79 velocity=31 time=0
note_on channel=0 note=59 velocity=69 time=0
note_on channel=0 note=59 velocity=0 time=0
note_on channel=0 note=79 velocity=0 time=20
note_on channel=0 note=81 velocity=36 time=0
note_on channel=0 note=57 velocity=69 time=0
note_on channel=0 note=81 velocity=0 time=20
note_on channel=0 note=79 velocity=30 time=0
note_on channel=0 note=57 velocity=0 time=20
note_on channel=0 note=79 velocity=0 time=40
note_on channel=0 note=86 velocity=0 time=0
note_on channel=0 note=81 velocity=36 time=0
note_on channel=0 note=79 velocity=82 time=0
note_on channel=0 note=55 velocity=75 time=0
note_on channel=0 note=55 velocity=0 time=0
note_on channel=0 note=81 velocity=0 time=0
note_on channel=0 note=79 velocity=31 time=0
note_on channel=0 note=53 velocity=69 time=40
note_on channel=0 note=79 velocity=0 time=0
note_on channel=0 note=81 velocity=36 time=0
note_on channel=0 note=53 velocity=0 time=0
note_on channel=0 note=81 velocity=0 time=0
note_on channel=0 note=79 velocity=34 time=0
note_on channel=0 note=52 velocity=69 time=0
note_on channel=0 note=52 velocity=0 time=0
note_on channel=0 note=79 velocity=0 time=0
note_on channel=0 note=78 velocity=36 time=0
note_on channel=0 note=50 velocity=69 time=40
note_on channel=0 note=78 velocity=0 time=0
note_on channel=0 note=79 velocity=31 time=0
note_on channel=0 note=50 velocity=0 time=20
note_on channel=0 note=79 velocity=0 time=0
note_on channel=0 note=79 velocity=0 time=0
note_on channel=0 note=84 velocity=86 time=0
note_on channel=0 note=48 velocity=75 time=0
note_on channel=0 note=48 velocity=0 time=228
note_on channel=0 note=84 velocity=0 time=0
note_on channel=0 note=36 velocity=75 time=0
note_on channel=0 note=36 velocity=0 time=240
note_on channel=0 note=60 velocity=68 time=0
note_on channel=0 note=60 velocity=0 time=80
note_on channel=0 note=64 velocity=62 time=0
note_on channel=0 note=64 velocity=0 time=80
note_on channel=0 note=60 velocity=62 time=0
note_on channel=0 note=60 velocity=0 time=80
note_on channel=0 note=55 velocity=62 time=0
note_on channel=0 note=36 velocity=60 time=0
note_on channel=0 note=48 velocity=71 time=0
note_on channel=0 note=55 velocity=0 time=48
note_on channel=0 note=52 velocity=62 time=0
note_on channel=0 note=52 velocity=0 time=80
note_on channel=0 note=55 velocity=62 time=0
note_on channel=0 note=55 velocity=0 time=0
note_on channel=0 note=48 velocity=0 time=0
note_on channel=0 note=36 velocity=0 time=0
note_on channel=0 note=60 velocity=68 time=0
note_on channel=0 note=60 velocity=0 time=72
note_on channel=0 note=65 velocity=62 time=0
note_on channel=0 note=65 velocity=0 time=80
note_on channel=0 note=60 velocity=62 time=0
note_on channel=0 note=60 velocity=0 time=80
note_on channel=0 note=57 velocity=62 time=0
note_on channel=0 note=36 velocity=60 time=0
note_on channel=0 note=48 velocity=71 time=0
note_on channel=0 note=57 velocity=0 time=41
note_on channel=0 note=53 velocity=62 time=0
note_on channel=0 note=53 velocity=0 time=80
note_on channel=0 note=57 velocity=62 time=0
note_on channel=0 note=57 velocity=0 time=80
note_on channel=0 note=48 velocity=0 time=0
note_on channel=0 note=36 velocity=0 time=0
note_on channel=0 note=60 velocity=68 time=0
note_on channel=0 note=60 velocity=0 time=62
note_on channel=0 note=64 velocity=61 time=0
note_on channel=0 note=64 velocity=0 time=80
note_on channel=0 note=60 velocity=61 time=0
note_on channel=0 note=60 velocity=0 time=80
note_on channel=0 note=55 velocity=61 time=0
note_on channel=0 note=36 velocity=57 time=0
note_on channel=0 note=48 velocity=68 time=0
note_on channel=0 note=55 velocity=0 time=34
note_on channel=0 note=52 velocity=61 time=0
note_on channel=0 note=52 velocity=0 time=80
note_on channel=0 note=55 velocity=61 time=0
note_on channel=0 note=55 velocity=0 time=80
note_on channel=0 note=48 velocity=0 time=0
note_on channel=0 note=36 velocity=0 time=0
note_on channel=0 note=60 velocity=63 time=0
note_on channel=0 note=60 velocity=0 time=65
note_on channel=0 note=62 velocity=59 time=0
note_on channel=0 note=62 velocity=0 time=80
note_on channel=0 note=60 velocity=59 time=0
note_on channel=0 note=60 velocity=0 time=80
note_on channel=0 note=53 velocity=59 time=0
note_on channel=0 note=36 velocity=53 time=0
note_on channel=0 note=48 velocity=63 time=0
note_on channel=0 note=53 velocity=0 time=34
note_on channel=0 note=50 velocity=59 time=0
note_on channel=0 note=50 velocity=0 time=80
note_on channel=0 note=53 velocity=59 time=0
note_on channel=0 note=53 velocity=0 time=0
note_on channel=0 note=48 velocity=0 time=0
note_on channel=0 note=36 velocity=0 time=0
note_on channel=0 note=60 velocity=68 time=0
note_on channel=0 note=60 velocity=0 time=71
note_on channel=0 note=63 velocity=61 time=0
note_on channel=0 note=63 velocity=0 time=80
note_on channel=0 note=60 velocity=61 time=0
note_on channel=0 note=60 velocity=0 time=80
note_on channel=0 note=54 velocity=61 time=0
note_on channel=0 note=36 velocity=59 time=0
note_on channel=0 note=48 velocity=70 time=0
note_on channel=0 note=54 velocity=0 time=51
note_on channel=0 note=51 velocity=61 time=0
note_on channel=0 note=51 velocity=0 time=80
note_on channel=0 note=54 velocity=61 time=0
note_on channel=0 note=54 velocity=0 time=80
note_on channel=0 note=48 velocity=0 time=0
note_on channel=0 note=36 velocity=0 time=0
note_on channel=0 note=60 velocity=68 time=0
note_on channel=0 note=60 velocity=0 time=72
note_on channel=0 note=64 velocity=62 time=0
note_on channel=0 note=64 velocity=0 time=80
note_on channel=0 note=60 velocity=62 time=0
note_on channel=0 note=60 velocity=0 time=80
note_on channel=0 note=55 velocity=62 time=0
note_on channel=0 note=36 velocity=60 time=0
note_on channel=0 note=48 velocity=71 time=0
note_on channel=0 note=55 velocity=0 time=37
note_on channel=0 note=52 velocity=62 time=0
note_on channel=0 note=52 velocity=0 time=80
note_on channel=0 note=55 velocity=62 time=0
note_on channel=0 note=55 velocity=0 time=0
note_on channel=0 note=48 velocity=0 time=0
note_on channel=0 note=36 velocity=0 time=0
note_on channel=0 note=59 velocity=68 time=0
note_on channel=0 note=59 velocity=0 time=62
note_on channel=0 note=62 velocity=61 time=0
note_on channel=0 note=62 velocity=0 time=80
note_on channel=0 note=59 velocity=61 time=0
note_on channel=0 note=59 velocity=0 time=80
note_on channel=0 note=53 velocity=61 time=0
note_on channel=0 note=36 velocity=60 time=0
note_on channel=0 note=48 velocity=71 time=0
note_on channel=0 note=53 velocity=0 time=13
note_on channel=0 note=50 velocity=61 time=0
note_on channel=0 note=50 velocity=0 time=80
note_on channel=0 note=53 velocity=61 time=0
note_on channel=0 note=53 velocity=0 time=0
note_on channel=0 note=48 velocity=0 time=0
note_on channel=0 note=36 velocity=0 time=0
note_on channel=0 note=55 velocity=68 time=0
note_on channel=0 note=55 velocity=0 time=72
note_on channel=0 note=60 velocity=62 time=0
note_on channel=0 note=60 velocity=0 time=80
note_on channel=0 note=55 velocity=62 time=0
note_on channel=0 note=55 velocity=0 time=80
note_on channel=0 note=52 velocity=62 time=0
note_on channel=0 note=36 velocity=71 time=0
note_on channel=0 note=52 velocity=0 time=30
note_on channel=0 note=48 velocity=62 time=0
note_on channel=0 note=48 velocity=0 time=80
note_on channel=0 note=52 velocity=62 time=0
note_on channel=0 note=52 velocity=0 time=0
note_on channel=0 note=36 velocity=0 time=0
note_on channel=0 note=64 velocity=68 time=0
note_on channel=0 note=64 velocity=0 time=66
note_on channel=0 note=67 velocity=62 time=0
note_on channel=0 note=67 velocity=0 time=80
note_on channel=0 note=64 velocity=62 time=0
note_on channel=0 note=64 velocity=0 time=80
note_on channel=0 note=60 velocity=62 time=0
note_on channel=0 note=48 velocity=60 time=0
note_on channel=0 note=40 velocity=60 time=0
note_on channel=0 note=52 velocity=71 time=0
note_on channel=0 note=60 velocity=0 time=34
note_on channel=0 note=55 velocity=62 time=0
note_on channel=0 note=55 velocity=0 time=80
note_on channel=0 note=60 velocity=62 time=0
note_on channel=0 note=60 velocity=0 time=0
note_on channel=0 note=48 velocity=0 time=0
note_on channel=0 note=40 velocity=0 time=0
note_on channel=0 note=52 velocity=0 time=0
note_on channel=0 note=65 velocity=68 time=0
note_on channel=0 note=65 velocity=0 time=70
note_on channel=0 note=69 velocity=62 time=0
note_on channel=0 note=69 velocity=0 time=80
note_on channel=0 note=65 velocity=62 time=0
note_on channel=0 note=65 velocity=0 time=80
note_on channel=0 note=60 velocity=62 time=0
note_on channel=0 note=48 velocity=60 time=0
note_on channel=0 note=41 velocity=60 time=0
note_on channel=0 note=53 velocity=71 time=0
note_on channel=0 note=60 velocity=0 time=30
note_on channel=0 note=57 velocity=62 time=0
note_on channel=0 note=57 velocity=0 time=80
note_on channel=0 note=60 velocity=62 time=0
note_on channel=0 note=60 velocity=0 time=0
note_on channel=0 note=48 velocity=0 time=0
note_on channel=0 note=41 velocity=0 time=0
note_on channel=0 note=53 velocity=0 time=0
note_on channel=0 note=64 velocity=68 time=0
note_on channel=0 note=64 velocity=0 time=69
note_on channel=0 note=67 velocity=61 time=0
note_on channel=0 note=67 velocity=0 time=80
note_on channel=0 note=64 velocity=61 time=0
note_on channel=0 note=64 velocity=0 time=80
note_on channel=0 note=60 velocity=61 time=0
note_on channel=0 note=48 velocity=57 time=0
note_on channel=0 note=40 velocity=57 time=0
note_on channel=0 note=52 velocity=68 time=0
note_on channel=0 note=60 velocity=0 time=27
note_on channel=0 note=55 velocity=61 time=0
note_on channel=0 note=55 velocity=0 time=80
note_on channel=0 note=60 velocity=61 time=0
note_on channel=0 note=60 velocity=0 time=80
note_on channel=0 note=48 velocity=0 time=0
note_on channel=0 note=40 velocity=0 time=0
note_on channel=0 note=52 velocity=0 time=0
note_on channel=0 note=62 velocity=63 time=0
note_on channel=0 note=62 velocity=0 time=71
note_on channel=0 note=65 velocity=59 time=0
note_on channel=0 note=65 velocity=0 time=80
note_on channel=0 note=62 velocity=59 time=0
note_on channel=0 note=62 velocity=0 time=80
note_on channel=0 note=60 velocity=59 time=0
note_on channel=0 note=48 velocity=53 time=0
note_on channel=0 note=38 velocity=53 time=0
note_on channel=0 note=50 velocity=63 time=0
note_on channel=0 note=60 velocity=0 time=28
note_on channel=0 note=53 velocity=59 time=0
note_on channel=0 note=53 velocity=0 time=80
note_on channel=0 note=60 velocity=59 time=0
note_on channel=0 note=60 velocity=0 time=0
note_on channel=0 note=48 velocity=0 time=0
note_on channel=0 note=38 velocity=0 time=0
note_on channel=0 note=50 velocity=0 time=0
note_on channel=0 note=63 velocity=68 time=0
note_on channel=0 note=63 velocity=0 time=80
note_on channel=0 note=66 velocity=61 time=0
note_on channel=0 note=66 velocity=0 time=80
note_on channel=0 note=63 velocity=61 time=0
note_on channel=0 note=63 velocity=0 time=80
note_on channel=0 note=60 velocity=61 time=0
note_on channel=0 note=48 velocity=59 time=0
note_on channel=0 note=39 velocity=59 time=0
note_on channel=0 note=51 velocity=70 time=0
note_on channel=0 note=60 velocity=0 time=37
note_on channel=0 note=54 velocity=61 time=0
note_on channel=0 note=54 velocity=0 time=80
note_on channel=0 note=60 velocity=61 time=0
note_on channel=0 note=60 velocity=0 time=80
note_on channel=0 note=48 velocity=0 time=0
note_on channel=0 note=39 velocity=0 time=0
note_on channel=0 note=51 velocity=0 time=0
note_on channel=0 note=64 velocity=68 time=0
note_on channel=0 note=64 velocity=0 time=61
note_on channel=0 note=67 velocity=62 time=0
note_on channel=0 note=67 velocity=0 time=80
note_on channel=0 note=64 velocity=62 time=0
note_on channel=0 note=64 velocity=0 time=80
note_on channel=0 note=60 velocity=62 time=0
note_on channel=0 note=48 velocity=60 time=0
note_on channel=0 note=40 velocity=60 time=0
note_on channel=0 note=52 velocity=71 time=0
note_on channel=0 note=60 velocity=0 time=23
note_on channel=0 note=55 velocity=62 time=0
note_on channel=0 note=55 velocity=0 time=80
note_on channel=0 note=60 velocity=62 time=0
note_on channel=0 note=60 velocity=0 time=0
note_on channel=0 note=48 velocity=0 time=0
note_on channel=0 note=40 velocity=0 time=0
note_on channel=0 note=52 velocity=0 time=0
note_on channel=0 note=62 velocity=68 time=0
note_on channel=0 note=62 velocity=0 time=59
note_on channel=0 note=65 velocity=61 time=0
note_on channel=0 note=65 velocity=0 time=80
note_on channel=0 note=62 velocity=61 time=0
note_on channel=0 note=62 velocity=0 time=80
note_on channel=0 note=59 velocity=61 time=0
note_on channel=0 note=48 velocity=60 time=0
note_on channel=0 note=38 velocity=60 time=0
note_on channel=0 note=50 velocity=71 time=0
note_on channel=0 note=59 velocity=0 time=2
note_on channel=0 note=53 velocity=61 time=0
note_on channel=0 note=53 velocity=0 time=80
note_on channel=0 note=59 velocity=61 time=0
note_on channel=0 note=59 velocity=0 time=0
note_on channel=0 note=48 velocity=0 time=0
note_on channel=0 note=38 velocity=0 time=0
note_on channel=0 note=50 velocity=0 time=0
note_on channel=0 note=60 velocity=68 time=0
note_on channel=0 note=60 velocity=0 time=0
note_on channel=0 note=64 velocity=62 time=0
note_on channel=0 note=64 velocity=0 time=80
note_on channel=0 note=60 velocity=62 time=0
note_on channel=0 note=60 velocity=0 time=80
note_on channel=0 note=55 velocity=62 time=0
note_on channel=0 note=36 velocity=63 time=0
note_on channel=0 note=48 velocity=63 time=0
note_on channel=0 note=55 velocity=0 time=41
note_on channel=0 note=52 velocity=62 time=0
note_on channel=0 note=52 velocity=0 time=80
note_on channel=0 note=55 velocity=62 time=0
note_on channel=0 note=55 velocity=0 time=80
note_on channel=0 note=48 velocity=0 time=0
note_on channel=0 note=36 velocity=0 time=0
note_on channel=0 note=67 velocity=68 time=0
note_on channel=0 note=36 velocity=51 time=0
note_on channel=0 note=36 velocity=0 time=23
note_on channel=0 note=67 velocity=0 time=0
note_on channel=0 note=72 velocity=59 time=0
note_on channel=0 note=40 velocity=45 time=0
note_on channel=0 note=40 velocity=0 time=80
note_on channel=0 note=72 velocity=0 time=0
note_on channel=0 note=67 velocity=59 time=0
note_on channel=0 note=43 velocity=45 time=0
note_on channel=0 note=43 velocity=0 time=80
note_on channel=0 note=67 velocity=0 time=0
note_on channel=0 note=64 velocity=67 time=0
note_on channel=0 note=48 velocity=51 time=0
note_on channel=0 note=48 velocity=0 time=37
note_on channel=0 note=64 velocity=0 time=0
note_on channel=0 note=60 velocity=58 time=0
note_on channel=0 note=43 velocity=46 time=0
note_on channel=0 note=43 velocity=0 time=80
note_on channel=0 note=60 velocity=0 time=0
note_on channel=0 note=64 velocity=58 time=0
note_on channel=0 note=40 velocity=46 time=0
note_on channel=0 note=40 velocity=0 time=0
note_on channel=0 note=64 velocity=0 time=0
note_on channel=0 note=69 velocity=71 time=0
note_on channel=0 note=36 velocity=51 time=0
note_on channel=0 note=36 velocity=0 time=48
note_on channel=0 note=69 velocity=0 time=0
note_on channel=0 note=72 velocity=61 time=0
note_on channel=0 note=41 velocity=46 time=0
note_on channel=0 note=41 velocity=0 time=80
note_on channel=0 note=72 velocity=0 time=0
note_on channel=0 note=69 velocity=61 time=0
note_on channel=0 note=45 velocity=46 time=0
note_on channel=0 note=45 velocity=0 time=80
note_on channel=0 note=69 velocity=0 time=0
note_on channel=0 note=65 velocity=67 time=0
note_on channel=0 note=48 velocity=51 time=0
note_on channel=0 note=48 velocity=0 time=27
note_on channel=0 note=65 velocity=0 time=0
note_on channel=0 note=60 velocity=60 time=0
note_on channel=0 note=45 velocity=45 time=0
note_on channel=0 note=45 velocity=0 time=80
note_on channel=0 note=60 velocity=0 time=0
note_on channel=0 note=65 velocity=60 time=0
note_on channel=0 note=41 velocity=45 time=0
note_on channel=0 note=41 velocity=0 time=0
note_on channel=0 note=65 velocity=0 time=0
note_on channel=0 note=67 velocity=68 time=0
note_on channel=0 note=36 velocity=51 time=0
note_on channel=0 note=36 velocity=0 time=44
note_on channel=0 note=67 velocity=0 time=0
note_on channel=0 note=72 velocity=59 time=0
note_on channel=0 note=40 velocity=46 time=0
note_on channel=0 note=40 velocity=0 time=80
note_on channel=0 note=72 velocity=0 time=0
note_on channel=0 note=67 velocity=60 time=0
note_on channel=0 note=43 velocity=46 time=0
note_on channel=0 note=43 velocity=0 time=80
note_on channel=0 note=67 velocity=0 time=0
note_on channel=0 note=64 velocity=67 time=0
note_on channel=0 note=48 velocity=51 time=0
note_on channel=0 note=48 velocity=0 time=23
note_on channel=0 note=64 velocity=0 time=0
note_on channel=0 note=60 velocity=58 time=0
note_on channel=0 note=43 velocity=46 time=0
note_on channel=0 note=43 velocity=0 time=80
note_on channel=0 note=60 velocity=0 time=0
note_on channel=0 note=64 velocity=58 time=0
note_on channel=0 note=40 velocity=46 time=0
note_on channel=0 note=40 velocity=0 time=80
note_on channel=0 note=64 velocity=0 time=0
note_on channel=0 note=65 velocity=70 time=0
note_on channel=0 note=36 velocity=51 time=0
note_on channel=0 note=36 velocity=0 time=45
note_on channel=0 note=65 velocity=0 time=0
note_on channel=0 note=72 velocity=59 time=0
note_on channel=0 note=38 velocity=46 time=0
note_on channel=0 note=38 velocity=0 time=80
note_on channel=0 note=72 velocity=0 time=0
note_on channel=0 note=65 velocity=59 time=0
note_on channel=0 note=41 velocity=46 time=0
note_on channel=0 note=41 velocity=0 time=80
note_on channel=0 note=65 velocity=0 time=0
note_on channel=0 note=62 velocity=67 time=0
note_on channel=0 note=48 velocity=51 time=0
note_on channel=0 note=48 velocity=0 time=37
note_on channel=0 note=62 velocity=0 time=0
note_on channel=0 note=60 velocity=60 time=0
note_on channel=0 note=41 velocity=45 time=0
note_on channel=0 note=41 velocity=0 time=80
note_on channel=0 note=60 velocity=0 time=0
note_on channel=0 note=62 velocity=59 time=0
note_on channel=0 note=38 velocity=45 time=0
note_on channel=0 note=38 velocity=0 time=0
note_on channel=0 note=62 velocity=0 time=0
note_on channel=0 note=66 velocity=66 time=0
note_on channel=0 note=36 velocity=56 time=0
note_on channel=0 note=36 velocity=0 time=37
note_on channel=0 note=66 velocity=0 time=0
note_on channel=0 note=72 velocity=57 time=0
note_on channel=0 note=39 velocity=46 time=0
note_on channel=0 note=39 velocity=0 time=80
note_on channel=0 note=72 velocity=0 time=0
note_on channel=0 note=66 velocity=60 time=0
note_on channel=0 note=42 velocity=46 time=0
note_on channel=0 note=42 velocity=0 time=80
note_on channel=0 note=66 velocity=0 time=0
note_on channel=0 note=63 velocity=70 time=0
note_on channel=0 note=48 velocity=51 time=0
note_on channel=0 note=48 velocity=0 time=40
note_on channel=0 note=63 velocity=0 time=0
note_on channel=0 note=60 velocity=58 time=0
note_on channel=0 note=42 velocity=46 time=0
note_on channel=0 note=42 velocity=0 time=80
note_on channel=0 note=60 velocity=0 time=0
note_on channel=0 note=63 velocity=58 time=0
note_on channel=0 note=39 velocity=46 time=0
note_on channel=0 note=39 velocity=0 time=80
note_on channel=0 note=63 velocity=0 time=0
note_on channel=0 note=67 velocity=71 time=0
note_on channel=0 note=36 velocity=57 time=0
note_on channel=0 note=36 velocity=0 time=41
note_on channel=0 note=67 velocity=0 time=0
note_on channel=0 note=72 velocity=61 time=0
note_on channel=0 note=40 velocity=46 time=0
note_on channel=0 note=40 velocity=0 time=80
note_on channel=0 note=72 velocity=0 time=0
note_on channel=0 note=67 velocity=61 time=0
note_on channel=0 note=43 velocity=46 time=0
note_on channel=0 note=43 velocity=0 time=80
note_on channel=0 note=67 velocity=0 time=0
note_on channel=0 note=64 velocity=67 time=0
note_on channel=0 note=48 velocity=51 time=0
note_on channel=0 note=48 velocity=0 time=44
note_on channel=0 note=64 velocity=0 time=0
note_on channel=0 note=60 velocity=60 time=0
note_on channel=0 note=43 velocity=45 time=0
note_on channel=0 note=43 velocity=0 time=80
note_on channel=0 note=60 velocity=0 time=0
note_on channel=0 note=64 velocity=60 time=0
note_on channel=0 note=40 velocity=45 time=0
note_on channel=0 note=40 velocity=0 time=0
note_on channel=0 note=64 velocity=0 time=0
note_on channel=0 note=65 velocity=68 time=0
note_on channel=0 note=36 velocity=51 time=0
note_on channel=0 note=36 velocity=0 time=16
note_on channel=0 note=65 velocity=0 time=0
note_on channel=0 note=72 velocity=56 time=0
note_on channel=0 note=38 velocity=45 time=0
note_on channel=0 note=38 velocity=0 time=80
note_on channel=0 note=72 velocity=0 time=0
note_on channel=0 note=65 velocity=57 time=0
note_on channel=0 note=41 velocity=44 time=0
note_on channel=0 note=41 velocity=0 time=80
note_on channel=0 note=65 velocity=0 time=0
note_on channel=0 note=62 velocity=62 time=0
note_on channel=0 note=48 velocity=51 time=0
note_on channel=0 note=48 velocity=0 time=30
note_on channel=0 note=62 velocity=0 time=0
note_on channel=0 note=59 velocity=58 time=0
note_on channel=0 note=41 velocity=44 time=0
note_on channel=0 note=41 velocity=0 time=80
note_on channel=0 note=59 velocity=0 time=0
note_on channel=0 note=62 velocity=58 time=0
note_on channel=0 note=38 velocity=44 time=0
note_on channel=0 note=38 velocity=0 time=0
note_on channel=0 note=62 velocity=0 time=0
note_on channel=0 note=67 velocity=63 time=0
note_on channel=0 note=36 velocity=51 time=0
note_on channel=0 note=36 velocity=0 time=41
note_on channel=0 note=67 velocity=0 time=0
note_on channel=0 note=72 velocity=57 time=0
note_on channel=0 note=40 velocity=44 time=0
note_on channel=0 note=40 velocity=0 time=80
note_on channel=0 note=72 velocity=0 time=0
note_on channel=0 note=67 velocity=57 time=0
note_on channel=0 note=43 velocity=44 time=0
note_on channel=0 note=43 velocity=0 time=80
note_on channel=0 note=67 velocity=0 time=0
note_on channel=0 note=64 velocity=60 time=0
note_on channel=0 note=48 velocity=51 time=0
note_on channel=0 note=48 velocity=0 time=44
note_on channel=0 note=64 velocity=0 time=0
note_on channel=0 note=60 velocity=57 time=0
note_on channel=0 note=43 velocity=44 time=0
note_on channel=0 note=43 velocity=0 time=40
note_on channel=0 note=60 velocity=0 time=0
note_on channel=0 note=64 velocity=57 time=0
note_on channel=0 note=40 velocity=46 time=0
note_on channel=0 note=40 velocity=0 time=0
note_on channel=0 note=64 velocity=0 time=0
note_on channel=0 note=72 velocity=68 time=0
note_on channel=0 note=36 velocity=51 time=0
note_on channel=0 note=36 velocity=0 time=16
note_on channel=0 note=72 velocity=0 time=0
note_on channel=0 note=76 velocity=59 time=0
note_on channel=0 note=48 velocity=45 time=0
note_on channel=0 note=48 velocity=0 time=80
note_on channel=0 note=76 velocity=0 time=0
note_on channel=0 note=72 velocity=59 time=0
note_on channel=0 note=52 velocity=45 time=0
note_on channel=0 note=52 velocity=0 time=80
note_on channel=0 note=72 velocity=0 time=0
note_on channel=0 note=67 velocity=67 time=0
note_on channel=0 note=55 velocity=51 time=0
note_on channel=0 note=55 velocity=0 time=80
note_on channel=0 note=67 velocity=0 time=0
note_on channel=0 note=64 velocity=58 time=0
note_on channel=0 note=52 velocity=46 time=0
note_on channel=0 note=52 velocity=0 time=80
note_on channel=0 note=64 velocity=0 time=0
note_on channel=0 note=67 velocity=58 time=0
note_on channel=0 note=48 velocity=46 time=0
note_on channel=0 note=48 velocity=0 time=0
note_on channel=0 note=67 velocity=0 time=0
note_on channel=0 note=72 velocity=71 time=0
note_on channel=0 note=36 velocity=51 time=0
note_on channel=0 note=36 velocity=0 time=41
note_on channel=0 note=72 velocity=0 time=0
note_on channel=0 note=77 velocity=61 time=0
note_on channel=0 note=48 velocity=46 time=0
note_on channel=0 note=48 velocity=0 time=80
note_on channel=0 note=77 velocity=0 time=0
note_on channel=0 note=72 velocity=61 time=0
note_on channel=0 note=53 velocity=46 time=0
note_on channel=0 note=53 velocity=0 time=80
note_on channel=0 note=72 velocity=0 time=0
note_on channel=0 note=69 velocity=67 time=0
note_on channel=0 note=57 velocity=51 time=0
note_on channel=0 note=57 velocity=0 time=80
note_on channel=0 note=69 velocity=0 time=0
note_on channel=0 note=65 velocity=60 time=0
note_on channel=0 note=53 velocity=45 time=0
note_on channel=0 note=53 velocity=0 time=80
note_on channel=0 note=65 velocity=0 time=0
note_on channel=0 note=69 velocity=60 time=0
note_on channel=0 note=48 velocity=45 time=0
note_on channel=0 note=48 velocity=0 time=0
note_on channel=0 note=69 velocity=0 time=0
note_on channel=0 note=72 velocity=68 time=0
note_on channel=0 note=36 velocity=51 time=0
note_on channel=0 note=36 velocity=0 time=23
note_on channel=0 note=72 velocity=0 time=0
note_on channel=0 note=76 velocity=59 time=0
note_on channel=0 note=48 velocity=46 time=0
note_on channel=0 note=48 velocity=0 time=80
note_on channel=0 note=76 velocity=0 time=0
note_on channel=0 note=72 velocity=60 time=0
note_on channel=0 note=52 velocity=46 time=0
note_on channel=0 note=52 velocity=0 time=80
note_on channel=0 note=72 velocity=0 time=0
note_on channel=0 note=67 velocity=67 time=0
note_on channel=0 note=55 velocity=51 time=0
note_on channel=0 note=55 velocity=0 time=80
note_on channel=0 note=67 velocity=0 time=0
note_on channel=0 note=64 velocity=58 time=0
note_on channel=0 note=52 velocity=46 time=0
note_on channel=0 note=52 velocity=0 time=80
note_on channel=0 note=64 velocity=0 time=0
note_on channel=0 note=67 velocity=58 time=0
note_on channel=0 note=48 velocity=46 time=0
note_on channel=0 note=48 velocity=0 time=80
note_on channel=0 note=67 velocity=0 time=0
note_on channel=0 note=72 velocity=70 time=0
note_on channel=0 note=36 velocity=51 time=0
note_on channel=0 note=36 velocity=0 time=37
note_on channel=0 note=72 velocity=0 time=0
note_on channel=0 note=74 velocity=59 time=0
note_on channel=0 note=48 velocity=46 time=0
note_on channel=0 note=48 velocity=0 time=80
note_on channel=0 note=74 velocity=0 time=0
note_on channel=0 note=72 velocity=59 time=0
note_on channel=0 note=50 velocity=46 time=0
note_on channel=0 note=50 velocity=0 time=80
note_on channel=0 note=72 velocity=0 time=0
note_on channel=0 note=65 velocity=67 time=0
note_on channel=0 note=53 velocity=51 time=0
note_on channel=0 note=53 velocity=0 time=80
note_on channel=0 note=65 velocity=0 time=0
note_on channel=0 note=62 velocity=60 time=0
note_on channel=0 note=50 velocity=45 time=0
note_on channel=0 note=50 velocity=0 time=80
note_on channel=0 note=62 velocity=0 time=0
note_on channel=0 note=65 velocity=59 time=0
note_on channel=0 note=48 velocity=45 time=0
note_on channel=0 note=48 velocity=0 time=0
note_on channel=0 note=65 velocity=0 time=0
note_on channel=0 note=72 velocity=66 time=0
note_on channel=0 note=36 velocity=56 time=0
note_on channel=0 note=36 velocity=0 time=31
note_on channel=0 note=72 velocity=0 time=0
note_on channel=0 note=75 velocity=57 time=0
note_on channel=0 note=48 velocity=46 time=0
note_on channel=0 note=48 velocity=0 time=80
note_on channel=0 note=75 velocity=0 time=0
note_on channel=0 note=72 velocity=60 time=0
note_on channel=0 note=51 velocity=46 time=0
note_on channel=0 note=51 velocity=0 time=80
note_on channel=0 note=72 velocity=0 time=0
note_on channel=0 note=66 velocity=70 time=0
note_on channel=0 note=54 velocity=51 time=0
note_on channel=0 note=54 velocity=0 time=80
note_on channel=0 note=66 velocity=0 time=0
note_on channel=0 note=63 velocity=58 time=0
note_on channel=0 note=51 velocity=46 time=0
note_on channel=0 note=51 velocity=0 time=80
note_on channel=0 note=63 velocity=0 time=0
note_on channel=0 note=66 velocity=58 time=0
note_on channel=0 note=48 velocity=46 time=0
note_on channel=0 note=48 velocity=0 time=80
note_on channel=0 note=66 velocity=0 time=0
note_on channel=0 note=72 velocity=71 time=0
note_on channel=0 note=36 velocity=57 time=0
note_on channel=0 note=36 velocity=0 time=41
note_on channel=0 note=72 velocity=0 time=0
note_on channel=0 note=76 velocity=61 time=0
note_on channel=0 note=48 velocity=46 time=0
note_on channel=0 note=48 velocity=0 time=80
note_on channel=0 note=76 velocity=0 time=0
note_on channel=0 note=72 velocity=61 time=0
note_on channel=0 note=52 velocity=46 time=0
note_on channel=0 note=52 velocity=0 time=80
note_on channel=0 note=72 velocity=0 time=0
note_on channel=0 note=67 velocity=67 time=0
note_on channel=0 note=55 velocity=51 time=0
note_on channel=0 note=55 velocity=0 time=80
note_on channel=0 note=67 velocity=0 time=0
note_on channel=0 note=64 velocity=60 time=0
note_on channel=0 note=52 velocity=45 time=0
note_on channel=0 note=52 velocity=0 time=80
note_on channel=0 note=64 velocity=0 time=0
note_on channel=0 note=67 velocity=60 time=0
note_on channel=0 note=48 velocity=45 time=0
note_on channel=0 note=48 velocity=0 time=0
note_on channel=0 note=67 velocity=0 time=0
note_on channel=0 note=71 velocity=68 time=0
note_on channel=0 note=36 velocity=51 time=0
note_on channel=0 note=36 velocity=0 time=9
note_on channel=0 note=71 velocity=0 time=0
note_on channel=0 note=74 velocity=56 time=0
note_on channel=0 note=48 velocity=45 time=0
note_on channel=0 note=48 velocity=0 time=80
note_on channel=0 note=74 velocity=0 time=0
note_on channel=0 note=71 velocity=57 time=0
note_on channel=0 note=50 velocity=44 time=0
note_on channel=0 note=50 velocity=0 time=80
note_on channel=0 note=71 velocity=0 time=0
note_on channel=0 note=65 velocity=62 time=0
note_on channel=0 note=53 velocity=51 time=0
note_on channel=0 note=53 velocity=0 time=80
note_on channel=0 note=65 velocity=0 time=0
note_on channel=0 note=62 velocity=58 time=0
note_on channel=0 note=50 velocity=44 time=0
note_on channel=0 note=50 velocity=0 time=80
note_on channel=0 note=62 velocity=0 time=0
note_on channel=0 note=65 velocity=58 time=0
note_on channel=0 note=48 velocity=44 time=0
note_on channel=0 note=48 velocity=0 time=0
note_on channel=0 note=65 velocity=0 time=0
note_on channel=0 note=67 velocity=63 time=0
note_on channel=0 note=36 velocity=51 time=0
note_on channel=0 note=36 velocity=0 time=23
note_on channel=0 note=67 velocity=0 time=0
note_on channel=0 note=72 velocity=57 time=0
note_on channel=0 note=48 velocity=44 time=0
note_on channel=0 note=48 velocity=0 time=80
note_on channel=0 note=72 velocity=0 time=0
note_on channel=0 note=67 velocity=57 time=0
note_on channel=0 note=52 velocity=44 time=0
note_on channel=0 note=52 velocity=0 time=80
note_on channel=0 note=67 velocity=0 time=0
note_on channel=0 note=64 velocity=60 time=0
note_on channel=0 note=55 velocity=51 time=0
note_on channel=0 note=55 velocity=0 time=80
note_on channel=0 note=64 velocity=0 time=0
note_on channel=0 note=60 velocity=57 time=0
note_on channel=0 note=52 velocity=44 time=0
note_on channel=0 note=52 velocity=0 time=40
note_on channel=0 note=60 velocity=0 time=0
note_on channel=0 note=64 velocity=57 time=0
note_on channel=0 note=48 velocity=46 time=0
note_on channel=0 note=48 velocity=0 time=0
note_on channel=0 note=64 velocity=0 time=0
note_on channel=0 note=72 velocity=74 time=0
note_on channel=0 note=36 velocity=59 time=0
note_on channel=0 note=36 velocity=0 time=27
note_on channel=0 note=72 velocity=0 time=0
note_on channel=0 note=76 velocity=59 time=0
note_on channel=0 note=48 velocity=45 time=0
note_on channel=0 note=48 velocity=0 time=80
note_on channel=0 note=76 velocity=0 time=0
note_on channel=0 note=72 velocity=59 time=0
note_on channel=0 note=52 velocity=45 time=0
note_on channel=0 note=52 velocity=0 time=80
note_on channel=0 note=72 velocity=0 time=0
note_on channel=0 note=67 velocity=70 time=0
note_on channel=0 note=55 velocity=51 time=0
note_on channel=0 note=55 velocity=0 time=80
note_on channel=0 note=67 velocity=0 time=0
note_on channel=0 note=64 velocity=58 time=0
note_on channel=0 note=52 velocity=46 time=0
note_on channel=0 note=52 velocity=0 time=80
note_on channel=0 note=64 velocity=0 time=0
note_on channel=0 note=67 velocity=58 time=0
note_on channel=0 note=48 velocity=46 time=0
note_on channel=0 note=48 velocity=0 time=0
note_on channel=0 note=67 velocity=0 time=0
note_on channel=0 note=71 velocity=71 time=0
note_on channel=0 note=43 velocity=51 time=0
note_on channel=0 note=43 velocity=0 time=34
note_on channel=0 note=71 velocity=0 time=0
note_on channel=0 note=74 velocity=61 time=0
note_on channel=0 note=47 velocity=46 time=0
note_on channel=0 note=47 velocity=0 time=80
note_on channel=0 note=74 velocity=0 time=0
note_on channel=0 note=71 velocity=61 time=0
note_on channel=0 note=50 velocity=46 time=0
note_on channel=0 note=50 velocity=0 time=80
note_on channel=0 note=71 velocity=0 time=0
note_on channel=0 note=67 velocity=67 time=0
note_on channel=0 note=55 velocity=51 time=0
note_on channel=0 note=55 velocity=0 time=80
note_on channel=0 note=67 velocity=0 time=0
note_on channel=0 note=62 velocity=60 time=0
note_on channel=0 note=50 velocity=45 time=0
note_on channel=0 note=50 velocity=0 time=40
note_on channel=0 note=62 velocity=0 time=0
note_on channel=0 note=67 velocity=60 time=0
note_on channel=0 note=47 velocity=45 time=0
note_on channel=0 note=47 velocity=0 time=0
note_on channel=0 note=67 velocity=0 time=0
note_on channel=0 note=74 velocity=74 time=0
note_on channel=0 note=38 velocity=59 time=0
note_on channel=0 note=38 velocity=0 time=20
note_on channel=0 note=74 velocity=0 time=0
note_on channel=0 note=77 velocity=59 time=0
note_on channel=0 note=50 velocity=45 time=0
note_on channel=0 note=50 velocity=0 time=80
note_on channel=0 note=77 velocity=0 time=0
note_on channel=0 note=74 velocity=59 time=0
note_on channel=0 note=53 velocity=45 time=0
note_on channel=0 note=53 velocity=0 time=80
note_on channel=0 note=74 velocity=0 time=0
note_on channel=0 note=69 velocity=70 time=0
note_on channel=0 note=57 velocity=51 time=0
note_on channel=0 note=57 velocity=0 time=80
note_on channel=0 note=69 velocity=0 time=0
note_on channel=0 note=65 velocity=58 time=0
note_on channel=0 note=53 velocity=46 time=0
note_on channel=0 note=53 velocity=0 time=80
note_on channel=0 note=65 velocity=0 time=0
note_on channel=0 note=69 velocity=58 time=0
note_on channel=0 note=50 velocity=46 time=0
note_on channel=0 note=50 velocity=0 time=0
note_on channel=0 note=69 velocity=0 time=0
note_on channel=0 note=72 velocity=71 time=0
note_on channel=0 note=45 velocity=51 time=0
note_on channel=0 note=45 velocity=0 time=23
note_on channel=0 note=72 velocity=0 time=0
note_on channel=0 note=76 velocity=61 time=0
note_on channel=0 note=48 velocity=46 time=0
note_on channel=0 note=48 velocity=0 time=80
note_on channel=0 note=76 velocity=0 time=0
note_on channel=0 note=72 velocity=61 time=0
note_on channel=0 note=52 velocity=46 time=0
note_on channel=0 note=52 velocity=0 time=80
note_on channel=0 note=72 velocity=0 time=0
note_on channel=0 note=69 velocity=67 time=0
note_on channel=0 note=57 velocity=51 time=0
note_on channel=0 note=57 velocity=0 time=80
note_on channel=0 note=69 velocity=0 time=0
note_on channel=0 note=64 velocity=60 time=0
note_on channel=0 note=52 velocity=45 time=0
note_on channel=0 note=52 velocity=0 time=40
note_on channel=0 note=64 velocity=0 time=0
note_on channel=0 note=69 velocity=60 time=0
note_on channel=0 note=48 velocity=45 time=0
note_on channel=0 note=48 velocity=0 time=0
note_on channel=0 note=69 velocity=0 time=0
note_on channel=0 note=77 velocity=74 time=0
note_on channel=0 note=41 velocity=59 time=0
note_on channel=0 note=41 velocity=0 time=13
note_on channel=0 note=77 velocity=0 time=0
note_on channel=0 note=81 velocity=59 time=0
note_on channel=0 note=48 velocity=45 time=0
note_on channel=0 note=48 velocity=0 time=80
note_on channel=0 note=81 velocity=0 time=0
note_on channel=0 note=77 velocity=59 time=0
note_on channel=0 note=50 velocity=45 time=0
note_on channel=0 note=50 velocity=0 time=80
note_on channel=0 note=77 velocity=0 time=0
note_on channel=0 note=72 velocity=70 time=0
note_on channel=0 note=53 velocity=51 time=0
note_on channel=0 note=53 velocity=0 time=80
note_on channel=0 note=72 velocity=0 time=0
note_on channel=0 note=69 velocity=58 time=0
note_on channel=0 note=50 velocity=46 time=0
note_on channel=0 note=50 velocity=0 time=80
note_on channel=0 note=69 velocity=0 time=0
note_on channel=0 note=72 velocity=58 time=0
note_on channel=0 note=48 velocity=46 time=0
note_on channel=0 note=48 velocity=0 time=0
note_on channel=0 note=72 velocity=0 time=0
note_on channel=0 note=74 velocity=75 time=0
note_on channel=0 note=43 velocity=51 time=0
note_on channel=0 note=43 velocity=0 time=41
note_on channel=0 note=74 velocity=0 time=0
note_on channel=0 note=79 velocity=61 time=0
note_on channel=0 note=48 velocity=46 time=0
note_on channel=0 note=48 velocity=0 time=80
note_on channel=0 note=79 velocity=0 time=0
note_on channel=0 note=74 velocity=61 time=0
note_on channel=0 note=50 velocity=46 time=0
note_on channel=0 note=50 velocity=0 time=80
note_on channel=0 note=74 velocity=0 time=0
note_on channel=0 note=72 velocity=67 time=0
note_on channel=0 note=55 velocity=51 time=0
note_on channel=0 note=55 velocity=0 time=80
note_on channel=0 note=72 velocity=0 time=0
note_on channel=0 note=67 velocity=60 time=0
note_on channel=0 note=50 velocity=45 time=0
note_on channel=0 note=50 velocity=0 time=80
note_on channel=0 note=67 velocity=0 time=0
note_on channel=0 note=72 velocity=60 time=0
note_on channel=0 note=48 velocity=45 time=0
note_on channel=0 note=48 velocity=0 time=0
note_on channel=0 note=72 velocity=0 time=0
note_on channel=0 note=74 velocity=74 time=0
note_on channel=0 note=43 velocity=59 time=0
note_on channel=0 note=43 velocity=0 time=30
note_on channel=0 note=74 velocity=0 time=0
note_on channel=0 note=79 velocity=59 time=0
note_on channel=0 note=47 velocity=45 time=0
note_on channel=0 note=47 velocity=0 time=80
note_on channel=0 note=79 velocity=0 time=0
note_on channel=0 note=74 velocity=59 time=0
note_on channel=0 note=50 velocity=45 time=0
note_on channel=0 note=50 velocity=0 time=80
note_on channel=0 note=74 velocity=0 time=0
note_on channel=0 note=71 velocity=70 time=0
note_on channel=0 note=55 velocity=51 time=0
note_on channel=0 note=55 velocity=0 time=80
note_on channel=0 note=71 velocity=0 time=0
note_on channel=0 note=67 velocity=58 time=0
note_on channel=0 note=50 velocity=46 time=0
note_on channel=0 note=50 velocity=0 time=80
note_on channel=0 note=67 velocity=0 time=0
note_on channel=0 note=71 velocity=58 time=0
note_on channel=0 note=47 velocity=46 time=0
note_on channel=0 note=47 velocity=0 time=0
note_on channel=0 note=71 velocity=0 time=0
note_on channel=0 note=76 velocity=71 time=0
note_on channel=0 note=36 velocity=51 time=0
note_on channel=0 note=36 velocity=0 time=23
note_on channel=0 note=76 velocity=0 time=0
note_on channel=0 note=79 velocity=58 time=0
note_on channel=0 note=48 velocity=44 time=0
note_on channel=0 note=48 velocity=0 time=0
note_on channel=0 note=79 velocity=0 time=0
note_on channel=0 note=76 velocity=58 time=0
note_on channel=0 note=52 velocity=44 time=0
note_on channel=0 note=52 velocity=0 time=80
note_on channel=0 note=76 velocity=0 time=0
note_on channel=0 note=72 velocity=63 time=0
note_on channel=0 note=55 velocity=50 time=0
note_on channel=0 note=55 velocity=0 time=0
note_on channel=0 note=72 velocity=0 time=0
note_on channel=0 note=67 velocity=60 time=0
note_on channel=0 note=52 velocity=43 time=0
note_on channel=0 note=52 velocity=0 time=80
note_on channel=0 note=67 velocity=0 time=0
note_on channel=0 note=72 velocity=58 time=0
note_on channel=0 note=48 velocity=43 time=0
note_on channel=0 note=48 velocity=0 time=0
note_on channel=0 note=72 velocity=0 time=0
note_on channel=0 note=76 velocity=74 time=0
note_on channel=0 note=36 velocity=59 time=0
note_on channel=0 note=36 velocity=0 time=23
note_on channel=0 note=76 velocity=0 time=0
note_on channel=0 note=79 velocity=59 time=0
note_on channel=0 note=48 velocity=45 time=0
note_on channel=0 note=48 velocity=0 time=80
note_on channel=0 note=79 velocity=0 time=0
note_on channel=0 note=76 velocity=59 time=0
note_on channel=0 note=52 velocity=45 time=0
note_on channel=0 note=52 velocity=0 time=80
note_on channel=0 note=76 velocity=0 time=0
note_on channel=0 note=72 velocity=70 time=0
note_on channel=0 note=55 velocity=51 time=0
note_on channel=0 note=55 velocity=0 time=80
note_on channel=0 note=72 velocity=0 time=0
note_on channel=0 note=67 velocity=58 time=0
note_on channel=0 note=52 velocity=46 time=0
note_on channel=0 note=52 velocity=0 time=80
note_on channel=0 note=67 velocity=0 time=0
note_on channel=0 note=72 velocity=58 time=0
note_on channel=0 note=48 velocity=46 time=0
note_on channel=0 note=48 velocity=0 time=40
note_on channel=0 note=72 velocity=0 time=0
note_on channel=0 note=74 velocity=71 time=0
note_on channel=0 note=43 velocity=51 time=0
note_on channel=0 note=43 velocity=0 time=0
note_on channel=0 note=74 velocity=0 time=0
note_on channel=0 note=79 velocity=61 time=0
note_on channel=0 note=47 velocity=46 time=0
note_on channel=0 note=47 velocity=0 time=80
note_on channel=0 note=79 velocity=0 time=0
note_on channel=0 note=74 velocity=61 time=0
note_on channel=0 note=50 velocity=46 time=0
note_on channel=0 note=50 velocity=0 time=40
note_on channel=0 note=74 velocity=0 time=0
note_on channel=0 note=71 velocity=67 time=0
note_on channel=0 note=55 velocity=51 time=0
note_on channel=0 note=55 velocity=0 time=0
note_on channel=0 note=71 velocity=0 time=0
note_on channel=0 note=67 velocity=60 time=0
note_on channel=0 note=50 velocity=45 time=0
note_on channel=0 note=50 velocity=0 time=40
note_on channel=0 note=67 velocity=0 time=0
note_on channel=0 note=71 velocity=60 time=0
note_on channel=0 note=47 velocity=45 time=0
note_on channel=0 note=47 velocity=0 time=40
note_on channel=0 note=71 velocity=0 time=0
note_on channel=0 note=77 velocity=74 time=0
note_on channel=0 note=38 velocity=59 time=0
note_on channel=0 note=38 velocity=0 time=16
note_on channel=0 note=77 velocity=0 time=0
note_on channel=0 note=81 velocity=59 time=0
note_on channel=0 note=50 velocity=45 time=0
note_on channel=0 note=50 velocity=0 time=80
note_on channel=0 note=81 velocity=0 time=0
note_on channel=0 note=77 velocity=59 time=0
note_on channel=0 note=53 velocity=45 time=0
note_on channel=0 note=53 velocity=0 time=80
note_on channel=0 note=77 velocity=0 time=0
note_on channel=0 note=74 velocity=70 time=0
note_on channel=0 note=57 velocity=51 time=0
note_on channel=0 note=57 velocity=0 time=80
note_on channel=0 note=74 velocity=0 time=0
note_on channel=0 note=69 velocity=58 time=0
note_on channel=0 note=53 velocity=46 time=0
note_on channel=0 note=53 velocity=0 time=80
note_on channel=0 note=69 velocity=0 time=0
note_on channel=0 note=74 velocity=58 time=0
note_on channel=0 note=50 velocity=46 time=0
note_on channel=0 note=50 velocity=0 time=0
note_on channel=0 note=74 velocity=0 time=0
note_on channel=0 note=76 velocity=71 time=0
note_on channel=0 note=45 velocity=51 time=0
note_on channel=0 note=45 velocity=0 time=20
note_on channel=0 note=76 velocity=0 time=0
note_on channel=0 note=81 velocity=61 time=0
note_on channel=0 note=48 velocity=46 time=0
note_on channel=0 note=48 velocity=0 time=80
note_on channel=0 note=81 velocity=0 time=0
note_on channel=0 note=76 velocity=61 time=0
note_on channel=0 note=52 velocity=46 time=0
note_on channel=0 note=52 velocity=0 time=80
note_on channel=0 note=76 velocity=0 time=0
note_on channel=0 note=72 velocity=67 time=0
note_on channel=0 note=57 velocity=51 time=0
note_on channel=0 note=57 velocity=0 time=80
note_on channel=0 note=72 velocity=0 time=0
note_on channel=0 note=69 velocity=60 time=0
note_on channel=0 note=52 velocity=45 time=0
note_on channel=0 note=52 velocity=0 time=40
note_on channel=0 note=69 velocity=0 time=0
note_on channel=0 note=72 velocity=60 time=0
note_on channel=0 note=48 velocity=45 time=0
note_on channel=0 note=48 velocity=0 time=0
note_on channel=0 note=72 velocity=0 time=0
note_on channel=0 note=81 velocity=74 time=0
note_on channel=0 note=45 velocity=59 time=0
note_on channel=0 note=45 velocity=0 time=20
note_on channel=0 note=81 velocity=0 time=0
note_on channel=0 note=84 velocity=59 time=0
note_on channel=0 note=48 velocity=45 time=0
note_on channel=0 note=48 velocity=0 time=80
note_on channel=0 note=84 velocity=0 time=0
note_on channel=0 note=81 velocity=59 time=0
note_on channel=0 note=52 velocity=45 time=0
note_on channel=0 note=52 velocity=0 time=80
note_on channel=0 note=81 velocity=0 time=0
note_on channel=0 note=76 velocity=70 time=0
note_on channel=0 note=57 velocity=51 time=0
note_on channel=0 note=57 velocity=0 time=80
note_on channel=0 note=76 velocity=0 time=0
note_on channel=0 note=72 velocity=58 time=0
note_on channel=0 note=52 velocity=46 time=0
note_on channel=0 note=52 velocity=0 time=80
note_on channel=0 note=72 velocity=0 time=0
note_on channel=0 note=76 velocity=58 time=0
note_on channel=0 note=48 velocity=46 time=0
note_on channel=0 note=48 velocity=0 time=0
note_on channel=0 note=76 velocity=0 time=0
note_on channel=0 note=81 velocity=75 time=0
note_on channel=0 note=38 velocity=51 time=0
note_on channel=0 note=38 velocity=0 time=48
note_on channel=0 note=81 velocity=0 time=0
note_on channel=0 note=84 velocity=61 time=0
note_on channel=0 note=45 velocity=46 time=0
note_on channel=0 note=45 velocity=0 time=80
note_on channel=0 note=84 velocity=0 time=0
note_on channel=0 note=81 velocity=61 time=0
note_on channel=0 note=48 velocity=46 time=0
note_on channel=0 note=48 velocity=0 time=80
note_on channel=0 note=81 velocity=0 time=0
note_on channel=0 note=78 velocity=67 time=0
note_on channel=0 note=50 velocity=51 time=0
note_on channel=0 note=50 velocity=0 time=80
note_on channel=0 note=78 velocity=0 time=0
note_on channel=0 note=72 velocity=60 time=0
note_on channel=0 note=48 velocity=45 time=0
note_on channel=0 note=48 velocity=0 time=80
note_on channel=0 note=72 velocity=0 time=0
note_on channel=0 note=78 velocity=60 time=0
note_on channel=0 note=45 velocity=45 time=0
note_on channel=0 note=45 velocity=0 time=0
note_on channel=0 note=78 velocity=0 time=0
note_on channel=0 note=81 velocity=74 time=0
note_on channel=0 note=38 velocity=59 time=0
note_on channel=0 note=38 velocity=0 time=34
note_on channel=0 note=81 velocity=0 time=0
note_on channel=0 note=84 velocity=59 time=0
note_on channel=0 note=45 velocity=45 time=0
note_on channel=0 note=45 velocity=0 time=80
note_on channel=0 note=84 velocity=0 time=0
note_on channel=0 note=81 velocity=59 time=0
note_on channel=0 note=48 velocity=45 time=0
note_on channel=0 note=48 velocity=0 time=80
note_on channel=0 note=81 velocity=0 time=0
note_on channel=0 note=78 velocity=70 time=0
note_on channel=0 note=50 velocity=51 time=0
note_on channel=0 note=50 velocity=0 time=80
note_on channel=0 note=78 velocity=0 time=0
note_on channel=0 note=72 velocity=58 time=0
note_on channel=0 note=48 velocity=46 time=0
note_on channel=0 note=48 velocity=0 time=80
note_on channel=0 note=72 velocity=0 time=0
note_on channel=0 note=78 velocity=58 time=0
note_on channel=0 note=45 velocity=46 time=0
note_on channel=0 note=45 velocity=0 time=0
note_on channel=0 note=78 velocity=0 time=0
note_on channel=0 note=79 velocity=71 time=0
note_on channel=0 note=43 velocity=51 time=0
note_on channel=0 note=43 velocity=0 time=37
note_on channel=0 note=79 velocity=0 time=0
note_on channel=0 note=83 velocity=58 time=0
note_on channel=0 note=50 velocity=44 time=0
note_on channel=0 note=50 velocity=0 time=80
note_on channel=0 note=83 velocity=0 time=0
note_on channel=0 note=79 velocity=58 time=0
note_on channel=0 note=55 velocity=44 time=0
note_on channel=0 note=55 velocity=0 time=80
note_on channel=0 note=79 velocity=0 time=0
note_on channel=0 note=74 velocity=63 time=0
note_on channel=0 note=43 velocity=50 time=0
note_on channel=0 note=43 velocity=0 time=80
note_on channel=0 note=74 velocity=0 time=0
note_on channel=0 note=71 velocity=60 time=0
note_on channel=0 note=47 velocity=43 time=0
note_on channel=0 note=47 velocity=0 time=40
note_on channel=0 note=71 velocity=0 time=0
note_on channel=0 note=74 velocity=58 time=0
note_on channel=0 note=55 velocity=43 time=0
note_on channel=0 note=55 velocity=0 time=0
note_on channel=0 note=74 velocity=0 time=0
note_on channel=0 note=81 velocity=74 time=0
note_on channel=0 note=43 velocity=59 time=0
note_on channel=0 note=43 velocity=0 time=17
note_on channel=0 note=81 velocity=0 time=0
note_on channel=0 note=86 velocity=59 time=0
note_on channel=0 note=48 velocity=45 time=0
note_on channel=0 note=48 velocity=0 time=80
note_on channel=0 note=86 velocity=0 time=0
note_on channel=0 note=81 velocity=59 time=0
note_on channel=0 note=50 velocity=45 time=0
note_on channel=0 note=50 velocity=0 time=80
note_on channel=0 note=81 velocity=0 time=0
note_on channel=0 note=78 velocity=70 time=0
note_on channel=0 note=43 velocity=51 time=0
note_on channel=0 note=43 velocity=0 time=80
note_on channel=0 note=78 velocity=0 time=0
note_on channel=0 note=74 velocity=58 time=0
note_on channel=0 note=48 velocity=46 time=0
note_on channel=0 note=48 velocity=0 time=80
note_on channel=0 note=74 velocity=0 time=0
note_on channel=0 note=78 velocity=58 time=0
note_on channel=0 note=50 velocity=46 time=0
note_on channel=0 note=50 velocity=0 time=0
note_on channel=0 note=78 velocity=0 time=0
note_on channel=0 note=83 velocity=75 time=0
note_on channel=0 note=43 velocity=51 time=0
note_on channel=0 note=43 velocity=0 time=28
note_on channel=0 note=83 velocity=0 time=0
note_on channel=0 note=86 velocity=61 time=0
note_on channel=0 note=47 velocity=46 time=0
note_on channel=0 note=47 velocity=0 time=80
note_on channel=0 note=86 velocity=0 time=0
note_on channel=0 note=83 velocity=61 time=0
note_on channel=0 note=50 velocity=46 time=0
note_on channel=0 note=50 velocity=0 time=80
note_on channel=0 note=83 velocity=0 time=0
note_on channel=0 note=79 velocity=67 time=0
note_on channel=0 note=43 velocity=51 time=0
note_on channel=0 note=43 velocity=0 time=80
note_on channel=0 note=79 velocity=0 time=0
note_on channel=0 note=74 velocity=60 time=0
note_on channel=0 note=47 velocity=45 time=0
note_on channel=0 note=47 velocity=0 time=80
note_on channel=0 note=74 velocity=0 time=0
note_on channel=0 note=79 velocity=60 time=0
note_on channel=0 note=50 velocity=45 time=0
note_on channel=0 note=50 velocity=0 time=0
note_on channel=0 note=79 velocity=0 time=0
note_on channel=0 note=81 velocity=74 time=0
note_on channel=0 note=43 velocity=59 time=0
note_on channel=0 note=43 velocity=0 time=28
note_on channel=0 note=81 velocity=0 time=0
note_on channel=0 note=86 velocity=59 time=0
note_on channel=0 note=48 velocity=45 time=0
note_on channel=0 note=48 velocity=0 time=80
note_on channel=0 note=86 velocity=0 time=0
note_on channel=0 note=81 velocity=59 time=0
note_on channel=0 note=50 velocity=45 time=0
note_on channel=0 note=50 velocity=0 time=80
note_on channel=0 note=81 velocity=0 time=0
note_on channel=0 note=78 velocity=70 time=0
note_on channel=0 note=43 velocity=51 time=0
note_on channel=0 note=43 velocity=0 time=80
note_on channel=0 note=78 velocity=0 time=0
note_on channel=0 note=74 velocity=58 time=0
note_on channel=0 note=48 velocity=46 time=0
note_on channel=0 note=48 velocity=0 time=80
note_on channel=0 note=74 velocity=0 time=0
note_on channel=0 note=78 velocity=58 time=0
note_on channel=0 note=50 velocity=46 time=0
note_on channel=0 note=50 velocity=0 time=0
note_on channel=0 note=78 velocity=0 time=0
note_on channel=0 note=83 velocity=77 time=0
note_on channel=0 note=43 velocity=58 time=0
note_on channel=0 note=43 velocity=0 time=40
note_on channel=0 note=83 velocity=0 time=0
note_on channel=0 note=86 velocity=58 time=0
note_on channel=0 note=47 velocity=44 time=0
note_on channel=0 note=47 velocity=0 time=80
note_on channel=0 note=86 velocity=0 time=0
note_on channel=0 note=83 velocity=58 time=0
note_on channel=0 note=50 velocity=44 time=0
note_on channel=0 note=50 velocity=0 time=80
note_on channel=0 note=83 velocity=0 time=0
note_on channel=0 note=79 velocity=63 time=0
note_on channel=0 note=43 velocity=50 time=0
note_on channel=0 note=43 velocity=0 time=80
note_on channel=0 note=79 velocity=0 time=0
note_on channel=0 note=74 velocity=60 time=0
note_on channel=0 note=47 velocity=43 time=0
note_on channel=0 note=47 velocity=0 time=40
note_on channel=0 note=74 velocity=0 time=0
note_on channel=0 note=79 velocity=58 time=0
note_on channel=0 note=50 velocity=43 time=0
note_on channel=0 note=50 velocity=0 time=0
note_on channel=0 note=79 velocity=0 time=0
note_on channel=0 note=86 velocity=51 time=0
note_on channel=0 note=43 velocity=40 time=0
note_on channel=0 note=43 velocity=0 time=63
note_on channel=0 note=86 velocity=0 time=0
note_on channel=0 note=90 velocity=40 time=0
note_on channel=0 note=48 velocity=30 time=0
note_on channel=0 note=48 velocity=0 time=80
note_on channel=0 note=90 velocity=0 time=0
note_on channel=0 note=86 velocity=40 time=0
note_on channel=0 note=50 velocity=30 time=0
note_on channel=0 note=50 velocity=0 time=80
note_on channel=0 note=86 velocity=0 time=0
note_on channel=0 note=81 velocity=48 time=0
note_on channel=0 note=57 velocity=34 time=0
note_on channel=0 note=57 velocity=0 time=80
note_on channel=0 note=81 velocity=0 time=0
note_on channel=0 note=78 velocity=39 time=0
note_on channel=0 note=50 velocity=31 time=0
note_on channel=0 note=50 velocity=0 time=80
note_on channel=0 note=78 velocity=0 time=0
note_on channel=0 note=81 velocity=39 time=0
note_on channel=0 note=48 velocity=31 time=0
note_on channel=0 note=48 velocity=0 time=0
note_on channel=0 note=81 velocity=0 time=0
note_on channel=0 note=86 velocity=51 time=0
note_on channel=0 note=43 velocity=35 time=0
note_on channel=0 note=43 velocity=0 time=80
note_on channel=0 note=86 velocity=0 time=0
note_on channel=0 note=91 velocity=42 time=0
note_on channel=0 note=47 velocity=31 time=0
note_on channel=0 note=47 velocity=0 time=80
note_on channel=0 note=91 velocity=0 time=0
note_on channel=0 note=86 velocity=42 time=0
note_on channel=0 note=50 velocity=31 time=0
note_on channel=0 note=50 velocity=0 time=80
note_on channel=0 note=86 velocity=0 time=0
note_on channel=0 note=83 velocity=45 time=0
note_on channel=0 note=55 velocity=34 time=0
note_on channel=0 note=55 velocity=0 time=80
note_on channel=0 note=83 velocity=0 time=0
note_on channel=0 note=79 velocity=41 time=0
note_on channel=0 note=50 velocity=30 time=0
note_on channel=0 note=50 velocity=0 time=80
note_on channel=0 note=79 velocity=0 time=0
note_on channel=0 note=83 velocity=41 time=0
note_on channel=0 note=47 velocity=30 time=0
note_on channel=0 note=47 velocity=0 time=0
note_on channel=0 note=83 velocity=0 time=0
note_on channel=0 note=86 velocity=51 time=0
note_on channel=0 note=43 velocity=40 time=0
note_on channel=0 note=43 velocity=0 time=80
note_on channel=0 note=86 velocity=0 time=0
note_on channel=0 note=90 velocity=40 time=0
note_on channel=0 note=48 velocity=30 time=0
note_on channel=0 note=48 velocity=0 time=80
note_on channel=0 note=90 velocity=0 time=0
note_on channel=0 note=86 velocity=40 time=0
note_on channel=0 note=50 velocity=30 time=0
note_on channel=0 note=50 velocity=0 time=80
note_on channel=0 note=86 velocity=0 time=0
note_on channel=0 note=81 velocity=48 time=0
note_on channel=0 note=57 velocity=34 time=0
note_on channel=0 note=57 velocity=0 time=80
note_on channel=0 note=81 velocity=0 time=0
note_on channel=0 note=78 velocity=39 time=0
note_on channel=0 note=50 velocity=31 time=0
note_on channel=0 note=50 velocity=0 time=80
note_on channel=0 note=78 velocity=0 time=0
note_on channel=0 note=81 velocity=39 time=0
note_on channel=0 note=48 velocity=31 time=0
note_on channel=0 note=48 velocity=0 time=0
note_on channel=0 note=81 velocity=0 time=0
note_on channel=0 note=86 velocity=52 time=0
note_on channel=0 note=43 velocity=39 time=0
note_on channel=0 note=43 velocity=0 time=80
note_on channel=0 note=86 velocity=0 time=0
note_on channel=0 note=91 velocity=39 time=0
note_on channel=0 note=47 velocity=30 time=0
note_on channel=0 note=47 velocity=0 time=80
note_on channel=0 note=91 velocity=0 time=0
note_on channel=0 note=86 velocity=39 time=0
note_on channel=0 note=50 velocity=30 time=0
note_on channel=0 note=50 velocity=0 time=80
note_on channel=0 note=86 velocity=0 time=0
note_on channel=0 note=83 velocity=43 time=0
note_on channel=0 note=55 velocity=34 time=0
note_on channel=0 note=55 velocity=0 time=80
note_on channel=0 note=83 velocity=0 time=0
note_on channel=0 note=79 velocity=41 time=0
note_on channel=0 note=50 velocity=29 time=0
note_on channel=0 note=50 velocity=0 time=40
note_on channel=0 note=79 velocity=0 time=0
note_on channel=0 note=83 velocity=39 time=0
note_on channel=0 note=47 velocity=29 time=0
note_on channel=0 note=47 velocity=0 time=0
note_on channel=0 note=83 velocity=0 time=0
note_on channel=0 note=81 velocity=81 time=0
note_on channel=0 note=43 velocity=65 time=0
note_on channel=0 note=43 velocity=0 time=25
note_on channel=0 note=81 velocity=0 time=0
note_on channel=0 note=86 velocity=61 time=0
note_on channel=0 note=48 velocity=49 time=0
note_on channel=0 note=48 velocity=0 time=80
note_on channel=0 note=86 velocity=0 time=0
note_on channel=0 note=81 velocity=61 time=0
note_on channel=0 note=50 velocity=49 time=0
note_on channel=0 note=50 velocity=0 time=80
note_on channel=0 note=81 velocity=0 time=0
note_on channel=0 note=78 velocity=69 time=0
note_on channel=0 note=43 velocity=56 time=0
note_on channel=0 note=43 velocity=0 time=80
note_on channel=0 note=78 velocity=0 time=0
note_on channel=0 note=74 velocity=63 time=0
note_on channel=0 note=48 velocity=51 time=0
note_on channel=0 note=48 velocity=0 time=80
note_on channel=0 note=74 velocity=0 time=0
note_on channel=0 note=78 velocity=63 time=0
note_on channel=0 note=50 velocity=51 time=0
note_on channel=0 note=50 velocity=0 time=0
note_on channel=0 note=78 velocity=0 time=0
note_on channel=0 note=83 velocity=82 time=0
note_on channel=0 note=43 velocity=56 time=0
note_on channel=0 note=43 velocity=0 time=45
note_on channel=0 note=83 velocity=0 time=0
note_on channel=0 note=86 velocity=62 time=0
note_on channel=0 note=47 velocity=51 time=0
note_on channel=0 note=47 velocity=0 time=80
note_on channel=0 note=86 velocity=0 time=0
note_on channel=0 note=83 velocity=62 time=0
note_on channel=0 note=50 velocity=51 time=0
note_on channel=0 note=50 velocity=0 time=80
note_on channel=0 note=83 velocity=0 time=0
note_on channel=0 note=79 velocity=67 time=0
note_on channel=0 note=43 velocity=56 time=0
note_on channel=0 note=43 velocity=0 time=80
note_on channel=0 note=79 velocity=0 time=0
note_on channel=0 note=74 velocity=63 time=0
note_on channel=0 note=47 velocity=49 time=0
note_on channel=0 note=47 velocity=0 time=80
note_on channel=0 note=74 velocity=0 time=0
note_on channel=0 note=79 velocity=66 time=0
note_on channel=0 note=50 velocity=49 time=0
note_on channel=0 note=50 velocity=0 time=0
note_on channel=0 note=79 velocity=0 time=0
note_on channel=0 note=81 velocity=81 time=0
note_on channel=0 note=43 velocity=65 time=0
note_on channel=0 note=43 velocity=0 time=31
note_on channel=0 note=81 velocity=0 time=0
note_on channel=0 note=86 velocity=61 time=0
note_on channel=0 note=48 velocity=49 time=0
note_on channel=0 note=48 velocity=0 time=80
note_on channel=0 note=86 velocity=0 time=0
note_on channel=0 note=81 velocity=61 time=0
note_on channel=0 note=50 velocity=49 time=0
note_on channel=0 note=50 velocity=0 time=80
note_on channel=0 note=81 velocity=0 time=0
note_on channel=0 note=78 velocity=68 time=0
note_on channel=0 note=43 velocity=56 time=0
note_on channel=0 note=43 velocity=0 time=80
note_on channel=0 note=78 velocity=0 time=0
note_on channel=0 note=74 velocity=63 time=0
note_on channel=0 note=48 velocity=51 time=0
note_on channel=0 note=48 velocity=0 time=80
note_on channel=0 note=74 velocity=0 time=0
note_on channel=0 note=78 velocity=63 time=0
note_on channel=0 note=50 velocity=51 time=0
note_on channel=0 note=50 velocity=0 time=0
note_on channel=0 note=78 velocity=0 time=0
note_on channel=0 note=83 velocity=84 time=0
note_on channel=0 note=43 velocity=63 time=0
note_on channel=0 note=43 velocity=0 time=40
note_on channel=0 note=83 velocity=0 time=0
note_on channel=0 note=86 velocity=63 time=0
note_on channel=0 note=47 velocity=48 time=0
note_on channel=0 note=47 velocity=0 time=80
note_on channel=0 note=86 velocity=0 time=0
note_on channel=0 note=83 velocity=63 time=0
note_on channel=0 note=50 velocity=48 time=0
note_on channel=0 note=50 velocity=0 time=80
note_on channel=0 note=83 velocity=0 time=0
note_on channel=0 note=79 velocity=69 time=0
note_on channel=0 note=43 velocity=54 time=0
note_on channel=0 note=43 velocity=0 time=80
note_on channel=0 note=79 velocity=0 time=0
note_on channel=0 note=74 velocity=66 time=0
note_on channel=0 note=47 velocity=47 time=0
note_on channel=0 note=47 velocity=0 time=40
note_on channel=0 note=74 velocity=0 time=0
note_on channel=0 note=79 velocity=63 time=0
note_on channel=0 note=50 velocity=47 time=0
note_on channel=0 note=50 velocity=0 time=0
note_on channel=0 note=79 velocity=0 time=0
note_on channel=0 note=86 velocity=51 time=0
note_on channel=0 note=43 velocity=40 time=0
note_on channel=0 note=43 velocity=0 time=74
note_on channel=0 note=86 velocity=0 time=0
note_on channel=0 note=90 velocity=40 time=0
note_on channel=0 note=48 velocity=30 time=0
note_on channel=0 note=48 velocity=0 time=80
note_on channel=0 note=90 velocity=0 time=0
note_on channel=0 note=86 velocity=40 time=0
note_on channel=0 note=50 velocity=30 time=0
note_on channel=0 note=50 velocity=0 time=80
note_on channel=0 note=86 velocity=0 time=0
note_on channel=0 note=81 velocity=48 time=0
note_on channel=0 note=57 velocity=34 time=0
note_on channel=0 note=57 velocity=0 time=80
note_on channel=0 note=81 velocity=0 time=0
note_on channel=0 note=78 velocity=39 time=0
note_on channel=0 note=50 velocity=31 time=0
note_on channel=0 note=50 velocity=0 time=80
note_on channel=0 note=78 velocity=0 time=0
note_on channel=0 note=81 velocity=39 time=0
note_on channel=0 note=48 velocity=31 time=0
note_on channel=0 note=48 velocity=0 time=0
note_on channel=0 note=81 velocity=0 time=0
note_on channel=0 note=86 velocity=51 time=0
note_on channel=0 note=43 velocity=35 time=0
note_on channel=0 note=43 velocity=0 time=80
note_on channel=0 note=86 velocity=0 time=0
note_on channel=0 note=91 velocity=42 time=0
note_on channel=0 note=47 velocity=31 time=0
note_on channel=0 note=47 velocity=0 time=80
note_on channel=0 note=91 velocity=0 time=0
note_on channel=0 note=86 velocity=42 time=0
note_on channel=0 note=50 velocity=31 time=0
note_on channel=0 note=50 velocity=0 time=80
note_on channel=0 note=86 velocity=0 time=0
note_on channel=0 note=83 velocity=45 time=0
note_on channel=0 note=55 velocity=34 time=0
note_on channel=0 note=55 velocity=0 time=80
note_on channel=0 note=83 velocity=0 time=0
note_on channel=0 note=79 velocity=41 time=0
note_on channel=0 note=50 velocity=30 time=0
note_on channel=0 note=50 velocity=0 time=80
note_on channel=0 note=79 velocity=0 time=0
note_on channel=0 note=83 velocity=41 time=0
note_on channel=0 note=47 velocity=30 time=0
note_on channel=0 note=47 velocity=0 time=0
note_on channel=0 note=83 velocity=0 time=0
note_on channel=0 note=86 velocity=51 time=0
note_on channel=0 note=43 velocity=40 time=0
note_on channel=0 note=43 velocity=0 time=80
note_on channel=0 note=86 velocity=0 time=0
note_on channel=0 note=90 velocity=40 time=0
note_on channel=0 note=48 velocity=30 time=0
note_on channel=0 note=48 velocity=0 time=80
note_on channel=0 note=90 velocity=0 time=0
note_on channel=0 note=86 velocity=40 time=0
note_on channel=0 note=50 velocity=30 time=0
note_on channel=0 note=50 velocity=0 time=80
note_on channel=0 note=86 velocity=0 time=0
note_on channel=0 note=81 velocity=48 time=0
note_on channel=0 note=57 velocity=34 time=0
note_on channel=0 note=57 velocity=0 time=80
note_on channel=0 note=81 velocity=0 time=0
note_on channel=0 note=78 velocity=39 time=0
note_on channel=0 note=50 velocity=31 time=0
note_on channel=0 note=50 velocity=0 time=80
note_on channel=0 note=78 velocity=0 time=0
note_on channel=0 note=81 velocity=39 time=0
note_on channel=0 note=48 velocity=31 time=0
note_on channel=0 note=48 velocity=0 time=0
note_on channel=0 note=81 velocity=0 time=0
note_on channel=0 note=86 velocity=57 time=0
note_on channel=0 note=43 velocity=43 time=0
note_on channel=0 note=43 velocity=0 time=45
note_on channel=0 note=86 velocity=0 time=0
note_on channel=0 note=91 velocity=42 time=0
note_on channel=0 note=47 velocity=33 time=0
note_on channel=0 note=47 velocity=0 time=80
note_on channel=0 note=91 velocity=0 time=0
note_on channel=0 note=86 velocity=44 time=0
note_on channel=0 note=50 velocity=34 time=0
note_on channel=0 note=50 velocity=0 time=80
note_on channel=0 note=86 velocity=0 time=0
note_on channel=0 note=83 velocity=49 time=0
note_on channel=0 note=55 velocity=39 time=0
note_on channel=0 note=55 velocity=0 time=80
note_on channel=0 note=83 velocity=0 time=0
note_on channel=0 note=79 velocity=48 time=0
note_on channel=0 note=50 velocity=34 time=0
note_on channel=0 note=50 velocity=0 time=80
note_on channel=0 note=79 velocity=0 time=0
note_on channel=0 note=83 velocity=47 time=0
note_on channel=0 note=47 velocity=35 time=0
note_on channel=0 note=47 velocity=0 time=0
note_on channel=0 note=83 velocity=0 time=0
note_on channel=0 note=86 velocity=63 time=0
note_on channel=0 note=43 velocity=50 time=0
note_on channel=0 note=43 velocity=0 time=25
note_on channel=0 note=86 velocity=0 time=0
note_on channel=0 note=90 velocity=50 time=0
note_on channel=0 note=48 velocity=38 time=0
note_on channel=0 note=48 velocity=0 time=80
note_on channel=0 note=90 velocity=0 time=0
note_on channel=0 note=86 velocity=51 time=0
note_on channel=0 note=50 velocity=39 time=0
note_on channel=0 note=50 velocity=0 time=80
note_on channel=0 note=86 velocity=0 time=0
note_on channel=0 note=81 velocity=63 time=0
note_on channel=0 note=57 velocity=45 time=0
note_on channel=0 note=57 velocity=0 time=80
note_on channel=0 note=81 velocity=0 time=0
note_on channel=0 note=78 velocity=52 time=0
note_on channel=0 note=50 velocity=42 time=0
note_on channel=0 note=50 velocity=0 time=80
note_on channel=0 note=78 velocity=0 time=0
note_on channel=0 note=81 velocity=53 time=0
note_on channel=0 note=48 velocity=43 time=0
note_on channel=0 note=48 velocity=0 time=0
note_on channel=0 note=81 velocity=0 time=0
note_on channel=0 note=86 velocity=72 time=0
note_on channel=0 note=43 velocity=50 time=0
note_on channel=0 note=43 velocity=0 time=48
note_on channel=0 note=86 velocity=0 time=0
note_on channel=0 note=91 velocity=60 time=0
note_on channel=0 note=47 velocity=44 time=0
note_on channel=0 note=47 velocity=0 time=80
note_on channel=0 note=91 velocity=0 time=0
note_on channel=0 note=86 velocity=62 time=0
note_on channel=0 note=50 velocity=45 time=0
note_on channel=0 note=50 velocity=0 time=80
note_on channel=0 note=86 velocity=0 time=0
note_on channel=0 note=83 velocity=67 time=0
note_on channel=0 note=55 velocity=51 time=0
note_on channel=0 note=55 velocity=0 time=80
note_on channel=0 note=83 velocity=0 time=0
note_on channel=0 note=79 velocity=62 time=0
note_on channel=0 note=50 velocity=45 time=0
note_on channel=0 note=50 velocity=0 time=80
note_on channel=0 note=79 velocity=0 time=0
note_on channel=0 note=83 velocity=64 time=0
note_on channel=0 note=47 velocity=47 time=0
note_on channel=0 note=47 velocity=0 time=0
note_on channel=0 note=83 velocity=0 time=0
note_on channel=0 note=86 velocity=80 time=0
note_on channel=0 note=43 velocity=64 time=0
note_on channel=0 note=43 velocity=0 time=25
note_on channel=0 note=86 velocity=0 time=0
note_on channel=0 note=90 velocity=64 time=0
note_on channel=0 note=48 velocity=49 time=0
note_on channel=0 note=48 velocity=0 time=80
note_on channel=0 note=90 velocity=0 time=0
note_on channel=0 note=86 velocity=66 time=0
note_on channel=0 note=50 velocity=50 time=0
note_on channel=0 note=50 velocity=0 time=80
note_on channel=0 note=86 velocity=0 time=0
note_on channel=0 note=81 velocity=80 time=0
note_on channel=0 note=57 velocity=57 time=0
note_on channel=0 note=57 velocity=0 time=80
note_on channel=0 note=81 velocity=0 time=0
note_on channel=0 note=78 velocity=66 time=0
note_on channel=0 note=50 velocity=53 time=0
note_on channel=0 note=50 velocity=0 time=80
note_on channel=0 note=78 velocity=0 time=0
note_on channel=0 note=81 velocity=67 time=0
note_on channel=0 note=48 velocity=54 time=0
note_on channel=0 note=48 velocity=0 time=0
note_on channel=0 note=81 velocity=0 time=0
note_on channel=0 note=91 velocity=104 time=0
note_on channel=0 note=79 velocity=98 time=0
note_on channel=0 note=43 velocity=68 time=0
note_on channel=0 note=47 velocity=68 time=0
note_on channel=0 note=50 velocity=68 time=0
note_on channel=0 note=55 velocity=80 time=0
note_on channel=0 note=55 velocity=0 time=99
note_on channel=0 note=79 velocity=0 time=0
note_on channel=0 note=43 velocity=0 time=0
note_on channel=0 note=91 velocity=0 time=0
note_on channel=0 note=50 velocity=0 time=0
note_on channel=0 note=47 velocity=0 time=0
note_on channel=0 note=67 velocity=81 time=0
note_on channel=0 note=71 velocity=81 time=0
note_on channel=0 note=74 velocity=81 time=0
note_on channel=0 note=79 velocity=96 time=0
note_on channel=0 note=79 velocity=0 time=240
note_on channel=0 note=67 velocity=0 time=0
note_on channel=0 note=71 velocity=0 time=0
note_on channel=0 note=74 velocity=0 time=0
note_on channel=0 note=67 velocity=81 time=0
note_on channel=0 note=71 velocity=81 time=0
note_on channel=0 note=74 velocity=81 time=0
note_on channel=0 note=79 velocity=96 time=0
note_on channel=0 note=43 velocity=78 time=480
note_on channel=0 note=47 velocity=78 time=0
note_on channel=0 note=50 velocity=78 time=0
note_on channel=0 note=55 velocity=92 time=0
note_on channel=0 note=55 velocity=0 time=240
note_on channel=0 note=50 velocity=0 time=0
note_on channel=0 note=43 velocity=0 time=0
note_on channel=0 note=47 velocity=0 time=0
note_on channel=0 note=74 velocity=0 time=240
note_on channel=0 note=79 velocity=0 time=0
note_on channel=0 note=71 velocity=0 time=0
note_on channel=0 note=67 velocity=0 time=0
note_on channel=0 note=31 velocity=85 time=0
note_on channel=0 note=43 velocity=101 time=0
note_on channel=0 note=43 velocity=0 time=240
note_on channel=0 note=31 velocity=0 time=0
note_on channel=0 note=71 velocity=81 time=0
note_on channel=0 note=74 velocity=81 time=0
note_on channel=0 note=79 velocity=81 time=0
note_on channel=0 note=83 velocity=96 time=0
note_on channel=0 note=83 velocity=0 time=240
note_on channel=0 note=71 velocity=0 time=0
note_on channel=0 note=74 velocity=0 time=0
note_on channel=0 note=79 velocity=0 time=0
note_on channel=0 note=71 velocity=81 time=0
note_on channel=0 note=74 velocity=81 time=0
note_on channel=0 note=79 velocity=81 time=0
note_on channel=0 note=83 velocity=96 time=0
note_on channel=0 note=43 velocity=78 time=494
note_on channel=0 note=47 velocity=78 time=0
note_on channel=0 note=50 velocity=78 time=0
note_on channel=0 note=55 velocity=92 time=0
note_on channel=0 note=55 velocity=0 time=240
note_on channel=0 note=50 velocity=0 time=0
note_on channel=0 note=43 velocity=0 time=0
note_on channel=0 note=47 velocity=0 time=0
note_on channel=0 note=79 velocity=0 time=226
note_on channel=0 note=83 velocity=0 time=0
note_on channel=0 note=74 velocity=0 time=0
note_on channel=0 note=71 velocity=0 time=0
note_on channel=0 note=31 velocity=85 time=14
note_on channel=0 note=43 velocity=101 time=0
note_on channel=0 note=43 velocity=0 time=240
note_on channel=0 note=31 velocity=0 time=0
note_on channel=0 note=74 velocity=81 time=0
note_on channel=0 note=77 velocity=81 time=0
note_on channel=0 note=83 velocity=81 time=0
note_on channel=0 note=86 velocity=96 time=0
note_on channel=0 note=86 velocity=0 time=240
note_on channel=0 note=74 velocity=0 time=0
note_on channel=0 note=77 velocity=0 time=0
note_on channel=0 note=83 velocity=0 time=0
note_on channel=0 note=74 velocity=81 time=0
note_on channel=0 note=77 velocity=81 time=0
note_on channel=0 note=83 velocity=81 time=0
note_on channel=0 note=86 velocity=96 time=0
note_on channel=0 note=43 velocity=78 time=494
note_on channel=0 note=47 velocity=78 time=0
note_on channel=0 note=50 velocity=78 time=0
note_on channel=0 note=55 velocity=92 time=0
note_on channel=0 note=55 velocity=0 time=240
note_on channel=0 note=50 velocity=0 time=0
note_on channel=0 note=43 velocity=0 time=0
note_on channel=0 note=47 velocity=0 time=0
note_on channel=0 note=83 velocity=0 time=226
note_on channel=0 note=86 velocity=0 time=0
note_on channel=0 note=77 velocity=0 time=0
note_on channel=0 note=74 velocity=0 time=0
note_on channel=0 note=31 velocity=85 time=14
note_on channel=0 note=43 velocity=101 time=0
note_on channel=0 note=43 velocity=0 time=240
note_on channel=0 note=31 velocity=0 time=0
note_on channel=0 note=77 velocity=81 time=0
note_on channel=0 note=83 velocity=81 time=0
note_on channel=0 note=86 velocity=81 time=0
note_on channel=0 note=89 velocity=96 time=0
note_on channel=0 note=89 velocity=0 time=240
note_on channel=0 note=77 velocity=0 time=0
note_on channel=0 note=83 velocity=0 time=0
note_on channel=0 note=86 velocity=0 time=0
note_on channel=0 note=77 velocity=81 time=0
note_on channel=0 note=83 velocity=81 time=0
note_on channel=0 note=86 velocity=81 time=0
note_on channel=0 note=89 velocity=96 time=0
note_on channel=0 note=43 velocity=78 time=494
note_on channel=0 note=47 velocity=78 time=0
note_on channel=0 note=50 velocity=78 time=0
note_on channel=0 note=55 velocity=92 time=0
note_on channel=0 note=55 velocity=0 time=240
note_on channel=0 note=50 velocity=0 time=0
note_on channel=0 note=43 velocity=0 time=0
note_on channel=0 note=47 velocity=0 time=0
note_on channel=0 note=86 velocity=0 time=0
note_on channel=0 note=89 velocity=0 time=0
note_on channel=0 note=83 velocity=0 time=0
note_on channel=0 note=77 velocity=0 time=0
note_on channel=0 note=31 velocity=76 time=14
note_on channel=0 note=43 velocity=90 time=0
note_on channel=0 note=43 velocity=0 time=240
note_on channel=0 note=31 velocity=0 time=0
note_on channel=0 note=83 velocity=69 time=0
note_on channel=0 note=86 velocity=69 time=0
note_on channel=0 note=89 velocity=69 time=0
note_on channel=0 note=92 velocity=81 time=0
note_on channel=0 note=92 velocity=0 time=240
note_on channel=0 note=83 velocity=0 time=0
note_on channel=0 note=86 velocity=0 time=0
note_on channel=0 note=89 velocity=0 time=0
note_on channel=0 note=65 velocity=64 time=0
note_on channel=0 note=62 velocity=54 time=0
note_on channel=0 note=59 velocity=54 time=0
note_on channel=0 note=55 velocity=54 time=0
note_on channel=0 note=55 velocity=0 time=240
note_on channel=0 note=65 velocity=0 time=0
note_on channel=0 note=62 velocity=0 time=0
note_on channel=0 note=59 velocity=0 time=0
note_on channel=0 note=80 velocity=60 time=0
note_on channel=0 note=83 velocity=60 time=0
note_on channel=0 note=86 velocity=60 time=0
note_on channel=0 note=89 velocity=70 time=0
note_on channel=0 note=89 velocity=0 time=240
note_on channel=0 note=80 velocity=0 time=0
note_on channel=0 note=83 velocity=0 time=0
note_on channel=0 note=86 velocity=0 time=0
note_on channel=0 note=65 velocity=58 time=0
note_on channel=0 note=62 velocity=49 time=0
note_on channel=0 note=59 velocity=49 time=0
note_on channel=0 note=55 velocity=49 time=0
note_on channel=0 note=55 velocity=0 time=240
note_on channel=0 note=65 velocity=0 time=0
note_on channel=0 note=62 velocity=0 time=0
note_on channel=0 note=59 velocity=0 time=0
note_on channel=0 note=86 velocity=67 time=0
note_on channel=0 note=83 velocity=57 time=0
note_on channel=0 note=80 velocity=57 time=0
note_on channel=0 note=77 velocity=57 time=0
note_on channel=0 note=77 velocity=0 time=240
note_on channel=0 note=86 velocity=0 time=0
note_on channel=0 note=83 velocity=0 time=0
note_on channel=0 note=80 velocity=0 time=0
note_on channel=0 note=65 velocity=51 time=0
note_on channel=0 note=62 velocity=43 time=0
note_on channel=0 note=59 velocity=43 time=0
note_on channel=0 note=55 velocity=43 time=0
note_on channel=0 note=55 velocity=0 time=240
note_on channel=0 note=65 velocity=0 time=0
note_on channel=0 note=62 velocity=0 time=0
note_on channel=0 note=59 velocity=0 time=0
note_on channel=0 note=83 velocity=60 time=0
note_on channel=0 note=80 velocity=50 time=0
note_on channel=0 note=77 velocity=50 time=0
note_on channel=0 note=74 velocity=50 time=0
note_on channel=0 note=74 velocity=0 time=240
note_on channel=0 note=83 velocity=0 time=0
note_on channel=0 note=80 velocity=0 time=0
note_on channel=0 note=77 velocity=0 time=0
note_on channel=0 note=55 velocity=40 time=240
note_on channel=0 note=59 velocity=40 time=0
note_on channel=0 note=62 velocity=40 time=0
note_on channel=0 note=65 velocity=48 time=0
note_on channel=0 note=65 velocity=0 time=240
note_on channel=0 note=55 velocity=0 time=0
note_on channel=0 note=59 velocity=0 time=0
note_on channel=0 note=62 velocity=0 time=0
note_on channel=0 note=71 velocity=41 time=240
note_on channel=0 note=74 velocity=41 time=0
note_on channel=0 note=77 velocity=41 time=0
note_on channel=0 note=80 velocity=49 time=0
note_on channel=0 note=80 velocity=0 time=240
note_on channel=0 note=71 velocity=0 time=0
note_on channel=0 note=74 velocity=0 time=0
note_on channel=0 note=77 velocity=0 time=0
note_on channel=0 note=43 velocity=32 time=240
note_on channel=0 note=47 velocity=32 time=0
note_on channel=0 note=50 velocity=32 time=0
note_on channel=0 note=53 velocity=38 time=0
note_on channel=0 note=53 velocity=0 time=240
note_on channel=0 note=43 velocity=0 time=0
note_on channel=0 note=47 velocity=0 time=0
note_on channel=0 note=50 velocity=0 time=0
note_on channel=0 note=68 velocity=39 time=240
note_on channel=0 note=71 velocity=39 time=0
note_on channel=0 note=77 velocity=46 time=0
note_on channel=0 note=74 velocity=39 time=0
note_on channel=0 note=74 velocity=0 time=240
note_on channel=0 note=68 velocity=0 time=0
note_on channel=0 note=71 velocity=0 time=0
note_on channel=0 note=77 velocity=0 time=0
note_on channel=0 note=43 velocity=30 time=0
note_on channel=0 note=47 velocity=30 time=0
note_on channel=0 note=50 velocity=30 time=0
note_on channel=0 note=53 velocity=36 time=0
note_on channel=0 note=53 velocity=0 time=0
note_on channel=0 note=43 velocity=0 time=0
note_on channel=0 note=47 velocity=0 time=0
note_on channel=0 note=50 velocity=0 time=0
note_on channel=0 note=65 velocity=36 time=40
note_on channel=0 note=68 velocity=36 time=0
note_on channel=0 note=71 velocity=36 time=0
note_on channel=0 note=74 velocity=44 time=0
note_on channel=0 note=74 velocity=0 time=80
note_on channel=0 note=65 velocity=0 time=0
note_on channel=0 note=68 velocity=0 time=0
note_on channel=0 note=71 velocity=0 time=0
note_on channel=0 note=43 velocity=28 time=0
note_on channel=0 note=47 velocity=28 time=0
note_on channel=0 note=50 velocity=28 time=0
note_on channel=0 note=53 velocity=34 time=0
note_on channel=0 note=53 velocity=0 time=160
note_on channel=0 note=43 velocity=0 time=0
note_on channel=0 note=47 velocity=0 time=0
note_on channel=0 note=50 velocity=0 time=0
note_on channel=0 note=62 velocity=34 time=240
note_on channel=0 note=65 velocity=34 time=0
note_on channel=0 note=68 velocity=34 time=0
note_on channel=0 note=71 velocity=41 time=0
note_on channel=0 note=71 velocity=0 time=240
note_on channel=0 note=62 velocity=0 time=0
note_on channel=0 note=65 velocity=0 time=0
note_on channel=0 note=68 velocity=0 time=0
note_on channel=0 note=43 velocity=21 time=240
note_on channel=0 note=47 velocity=21 time=0
note_on channel=0 note=50 velocity=21 time=0
note_on channel=0 note=53 velocity=25 time=0
note_on channel=0 note=53 velocity=0 time=240
note_on channel=0 note=43 velocity=0 time=0
note_on channel=0 note=47 velocity=0 time=0
note_on channel=0 note=50 velocity=0 time=0
note_on channel=0 note=59 velocity=26 time=240
note_on channel=0 note=62 velocity=26 time=0
note_on channel=0 note=65 velocity=26 time=0
note_on channel=0 note=68 velocity=32 time=0
note_on channel=0 note=68 velocity=0 time=240
note_on channel=0 note=59 velocity=0 time=0
note_on channel=0 note=62 velocity=0 time=0
note_on channel=0 note=65 velocity=0 time=0
note_on channel=0 note=43 velocity=21 time=0
note_on channel=0 note=46 velocity=21 time=0
note_on channel=0 note=49 velocity=21 time=0
note_on channel=0 note=52 velocity=25 time=0
note_on channel=0 note=52 velocity=0 time=220
note_on channel=0 note=43 velocity=0 time=0
note_on channel=0 note=46 velocity=0 time=0
note_on channel=0 note=49 velocity=0 time=0
note_on channel=0 note=58 velocity=26 time=0
note_on channel=0 note=61 velocity=26 time=0
note_on channel=0 note=64 velocity=26 time=0
note_on channel=0 note=67 velocity=32 time=0
note_on channel=0 note=67 velocity=0 time=480
note_on channel=0 note=58 velocity=0 time=0
note_on channel=0 note=61 velocity=0 time=0
note_on channel=0 note=64 velocity=0 time=0
note_on channel=0 note=43 velocity=21 time=0
note_on channel=0 note=45 velocity=21 time=0
note_on channel=0 note=48 velocity=21 time=0
note_on channel=0 note=51 velocity=25 time=0
note_on channel=0 note=51 velocity=0 time=0
note_on channel=0 note=43 velocity=0 time=0
note_on channel=0 note=45 velocity=0 time=0
note_on channel=0 note=48 velocity=0 time=0
note_on channel=0 note=57 velocity=26 time=0
note_on channel=0 note=60 velocity=26 time=0
note_on channel=0 note=63 velocity=26 time=0
note_on channel=0 note=66 velocity=32 time=0
note_on channel=0 note=66 velocity=0 time=40
note_on channel=0 note=57 velocity=0 time=0
note_on channel=0 note=60 velocity=0 time=0
note_on channel=0 note=63 velocity=0 time=0
note_on channel=0 note=43 velocity=25 time=0
note_on channel=0 note=43 velocity=0 time=84
note_on channel=0 note=59 velocity=22 time=240
note_on channel=0 note=62 velocity=22 time=0
note_on channel=0 note=65 velocity=27 time=0
note_on channel=0 note=79 velocity=30 time=0
note_on channel=0 note=79 velocity=0 time=240
note_on channel=0 note=55 velocity=27 time=0
note_on channel=0 note=55 velocity=0 time=240
note_on channel=0 note=43 velocity=25 time=0
note_on channel=0 note=43 velocity=0 time=240
note_on channel=0 note=31 velocity=25 time=0
note_on channel=0 note=31 velocity=0 time=0
note_on channel=0 note=65 velocity=0 time=0
note_on channel=0 note=62 velocity=0 time=0
note_on channel=0 note=59 velocity=0 time=0
note_on channel=0 note=60 velocity=85 time=0
note_on channel=0 note=36 velocity=72 time=0
note_on channel=0 note=48 velocity=75 time=0
note_on channel=0 note=48 velocity=0 time=0
note_on channel=0 note=36 velocity=0 time=0
note_on channel=0 note=60 velocity=0 time=0
note_on channel=0 note=91 velocity=50 time=0
note_on channel=0 note=64 velocity=41 time=0
note_on channel=0 note=64 velocity=0 time=120
note_on channel=0 note=91 velocity=0 time=0
note_on channel=0 note=67 velocity=34 time=0
note_on channel=0 note=67 velocity=0 time=0
note_on channel=0 note=91 velocity=53 time=0
note_on channel=0 note=64 velocity=41 time=0
note_on channel=0 note=64 velocity=0 time=120
note_on channel=0 note=67 velocity=34 time=0
note_on channel=0 note=67 velocity=0 time=120
note_on channel=0 note=64 velocity=41 time=0
note_on channel=0 note=64 velocity=0 time=120
note_on channel=0 note=91 velocity=0 time=0
note_on channel=0 note=88 velocity=50 time=0
note_on channel=0 note=67 velocity=33 time=0
note_on channel=0 note=67 velocity=0 time=0
note_on channel=0 note=88 velocity=0 time=0
note_on channel=0 note=86 velocity=54 time=0
note_on channel=0 note=65 velocity=41 time=0
note_on channel=0 note=65 velocity=0 time=120
note_on channel=0 note=67 velocity=34 time=0
note_on channel=0 note=67 velocity=0 time=0
note_on channel=0 note=86 velocity=0 time=0
note_on channel=0 note=79 velocity=50 time=0
note_on channel=0 note=65 velocity=41 time=0
note_on channel=0 note=65 velocity=0 time=120
note_on channel=0 note=67 velocity=35 time=0
note_on channel=0 note=67 velocity=0 time=0
note_on channel=0 note=79 velocity=0 time=0
note_on channel=0 note=84 velocity=50 time=0
note_on channel=0 note=64 velocity=41 time=0
note_on channel=0 note=64 velocity=0 time=120
note_on channel=0 note=67 velocity=34 time=0
note_on channel=0 note=67 velocity=0 time=120
note_on channel=0 note=84 velocity=0 time=0
note_on channel=0 note=88 velocity=49 time=0
note_on channel=0 note=64 velocity=41 time=0
note_on channel=0 note=64 velocity=0 time=120
note_on channel=0 note=67 velocity=35 time=0
note_on channel=0 note=67 velocity=0 time=0
note_on channel=0 note=88 velocity=0 time=0
note_on channel=0 note=64 velocity=41 time=0
note_on channel=0 note=64 velocity=0 time=120
note_on channel=0 note=67 velocity=34 time=0
note_on channel=0 note=67 velocity=0 time=0
note_on channel=0 note=91 velocity=50 time=0
note_on channel=0 note=64 velocity=41 time=0
note_on channel=0 note=64 velocity=0 time=120
note_on channel=0 note=91 velocity=0 time=0
note_on channel=0 note=67 velocity=34 time=0
note_on channel=0 note=67 velocity=0 time=0
note_on channel=0 note=91 velocity=53 time=0
note_on channel=0 note=64 velocity=41 time=0
note_on channel=0 note=64 velocity=0 time=120
note_on channel=0 note=67 velocity=34 time=0
note_on channel=0 note=67 velocity=0 time=120
note_on channel=0 note=64 velocity=41 time=0
note_on channel=0 note=64 velocity=0 time=120
note_on channel=0 note=91 velocity=0 time=0
note_on channel=0 note=88 velocity=50 time=0
note_on channel=0 note=67 velocity=33 time=0
note_on channel=0 note=67 velocity=0 time=0
note_on channel=0 note=88 velocity=0 time=0
note_on channel=0 note=86 velocity=54 time=0
note_on channel=0 note=65 velocity=41 time=0
note_on channel=0 note=65 velocity=0 time=120
note_on channel=0 note=67 velocity=34 time=0
note_on channel=0 note=67 velocity=0 time=0
note_on channel=0 note=86 velocity=0 time=0
note_on channel=0 note=79 velocity=50 time=0
note_on channel=0 note=65 velocity=41 time=0
note_on channel=0 note=65 velocity=0 time=120
note_on channel=0 note=67 velocity=35 time=0
note_on channel=0 note=67 velocity=0 time=0
note_on channel=0 note=79 velocity=0 time=0
note_on channel=0 note=84 velocity=50 time=0
note_on channel=0 note=64 velocity=41 time=0
note_on channel=0 note=64 velocity=0 time=120
note_on channel=0 note=67 velocity=34 time=0
note_on channel=0 note=67 velocity=0 time=120
note_on channel=0 note=84 velocity=0 time=0
note_on channel=0 note=64 velocity=41 time=0
note_on channel=0 note=64 velocity=0 time=120
note_on channel=0 note=67 velocity=35 time=0
note_on channel=0 note=67 velocity=0 time=0
note_on channel=0 note=91 velocity=50 time=0
note_on channel=0 note=60 velocity=41 time=0
note_on channel=0 note=64 velocity=41 time=0
note_on channel=0 note=64 velocity=0 time=45
note_on channel=0 note=91 velocity=0 time=0
note_on channel=0 note=90 velocity=47 time=0
note_on channel=0 note=67 velocity=34 time=0
note_on channel=0 note=67 velocity=0 time=120
note_on channel=0 note=90 velocity=0 time=0
note_on channel=0 note=60 velocity=0 time=0
note_on channel=0 note=91 velocity=50 time=0
note_on channel=0 note=60 velocity=41 time=0
note_on channel=0 note=64 velocity=41 time=0
note_on channel=0 note=64 velocity=0 time=120
note_on channel=0 note=91 velocity=0 time=0
note_on channel=0 note=90 velocity=46 time=0
note_on channel=0 note=67 velocity=34 time=0
note_on channel=0 note=67 velocity=0 time=120
note_on channel=0 note=90 velocity=0 time=0
note_on channel=0 note=60 velocity=0 time=0
note_on channel=0 note=91 velocity=50 time=0
note_on channel=0 note=60 velocity=41 time=0
note_on channel=0 note=64 velocity=41 time=0
note_on channel=0 note=64 velocity=0 time=120
note_on channel=0 note=91 velocity=0 time=0
note_on channel=0 note=90 velocity=47 time=0
note_on channel=0 note=67 velocity=34 time=0
note_on channel=0 note=67 velocity=0 time=0
note_on channel=0 note=90 velocity=0 time=0
note_on channel=0 note=60 velocity=0 time=0
note_on channel=0 note=91 velocity=50 time=0
note_on channel=0 note=60 velocity=41 time=0
note_on channel=0 note=64 velocity=41 time=0
note_on channel=0 note=64 velocity=0 time=0
note_on channel=0 note=91 velocity=0 time=0
note_on channel=0 note=88 velocity=47 time=0
note_on channel=0 note=67 velocity=33 time=0
note_on channel=0 note=67 velocity=0 time=120
note_on channel=0 note=88 velocity=0 time=0
note_on channel=0 note=60 velocity=0 time=0
note_on channel=0 note=86 velocity=48 time=0
note_on channel=0 note=60 velocity=38 time=0
note_on channel=0 note=65 velocity=38 time=0
note_on channel=0 note=65 velocity=0 time=40
note_on channel=0 note=86 velocity=0 time=0
note_on channel=0 note=85 velocity=43 time=0
note_on channel=0 note=67 velocity=32 time=0
note_on channel=0 note=67 velocity=0 time=120
note_on channel=0 note=85 velocity=0 time=0
note_on channel=0 note=60 velocity=0 time=0
note_on channel=0 note=86 velocity=48 time=0
note_on channel=0 note=60 velocity=38 time=0
note_on channel=0 note=65 velocity=38 time=0
note_on channel=0 note=65 velocity=0 time=120
note_on channel=0 note=86 velocity=0 time=0
note_on channel=0 note=79 velocity=45 time=0
note_on channel=0 note=67 velocity=33 time=0
note_on channel=0 note=67 velocity=0 time=0
note_on channel=0 note=79 velocity=0 time=0
note_on channel=0 note=60 velocity=0 time=0
note_on channel=0 note=84 velocity=48 time=0
note_on channel=0 note=60 velocity=38 time=0
note_on channel=0 note=64 velocity=38 time=0
note_on channel=0 note=64 velocity=0 time=120
note_on channel=0 note=84 velocity=0 time=0
note_on channel=0 note=83 velocity=44 time=0
note_on channel=0 note=67 velocity=32 time=0
note_on channel=0 note=67 velocity=0 time=120
note_on channel=0 note=83 velocity=0 time=0
note_on channel=0 note=60 velocity=0 time=0
note_on channel=0 note=84 velocity=50 time=0
note_on channel=0 note=60 velocity=38 time=0
note_on channel=0 note=64 velocity=38 time=0
note_on channel=0 note=64 velocity=0 time=120
note_on channel=0 note=84 velocity=0 time=0
note_on channel=0 note=88 velocity=46 time=0
note_on channel=0 note=67 velocity=33 time=0
note_on channel=0 note=67 velocity=0 time=0
note_on channel=0 note=88 velocity=0 time=0
note_on channel=0 note=60 velocity=0 time=0
note_on channel=0 note=91 velocity=50 time=0
note_on channel=0 note=60 velocity=41 time=0
note_on channel=0 note=64 velocity=41 time=0
note_on channel=0 note=64 velocity=0 time=57
note_on channel=0 note=91 velocity=0 time=0
note_on channel=0 note=90 velocity=46 time=0
note_on channel=0 note=67 velocity=34 time=0
note_on channel=0 note=67 velocity=0 time=120
note_on channel=0 note=90 velocity=0 time=0
note_on channel=0 note=60 velocity=0 time=0
note_on channel=0 note=91 velocity=50 time=0
note_on channel=0 note=60 velocity=41 time=0
note_on channel=0 note=64 velocity=41 time=0
note_on channel=0 note=64 velocity=0 time=120
note_on channel=0 note=91 velocity=0 time=0
note_on channel=0 note=90 velocity=47 time=0
note_on channel=0 note=67 velocity=34 time=0
note_on channel=0 note=67 velocity=0 time=120
note_on channel=0 note=90 velocity=0 time=0
note_on channel=0 note=60 velocity=0 time=0
note_on channel=0 note=91 velocity=50 time=0
note_on channel=0 note=60 velocity=41 time=0
note_on channel=0 note=64 velocity=41 time=0
note_on channel=0 note=64 velocity=0 time=120
note_on channel=0 note=91 velocity=0 time=0
note_on channel=0 note=90 velocity=46 time=0
note_on channel=0 note=67 velocity=34 time=0
note_on channel=0 note=67 velocity=0 time=0
note_on channel=0 note=90 velocity=0 time=0
note_on channel=0 note=60 velocity=0 time=0
note_on channel=0 note=91 velocity=50 time=0
note_on channel=0 note=60 velocity=41 time=0
note_on channel=0 note=64 velocity=41 time=0
note_on channel=0 note=64 velocity=0 time=0
note_on channel=0 note=91 velocity=0 time=0
note_on channel=0 note=88 velocity=44 time=0
note_on channel=0 note=67 velocity=33 time=0
note_on channel=0 note=67 velocity=0 time=120
note_on channel=0 note=88 velocity=0 time=0
note_on channel=0 note=60 velocity=0 time=0
note_on channel=0 note=86 velocity=48 time=0
note_on channel=0 note=60 velocity=38 time=0
note_on channel=0 note=65 velocity=38 time=0
note_on channel=0 note=65 velocity=0 time=40
note_on channel=0 note=86 velocity=0 time=0
note_on channel=0 note=85 velocity=45 time=0
note_on channel=0 note=67 velocity=32 time=0
note_on channel=0 note=67 velocity=0 time=120
note_on channel=0 note=85 velocity=0 time=0
note_on channel=0 note=60 velocity=0 time=0
note_on channel=0 note=86 velocity=49 time=0
note_on channel=0 note=60 velocity=38 time=0
note_on channel=0 note=65 velocity=38 time=0
note_on channel=0 note=65 velocity=0 time=120
note_on channel=0 note=86 velocity=0 time=0
note_on channel=0 note=79 velocity=45 time=0
note_on channel=0 note=67 velocity=33 time=0
note_on channel=0 note=67 velocity=0 time=0
note_on channel=0 note=79 velocity=0 time=0
note_on channel=0 note=60 velocity=0 time=0
note_on channel=0 note=84 velocity=49 time=0
note_on channel=0 note=60 velocity=38 time=0
note_on channel=0 note=64 velocity=38 time=0
note_on channel=0 note=64 velocity=0 time=34
note_on channel=0 note=84 velocity=0 time=0
note_on channel=0 note=83 velocity=46 time=0
note_on channel=0 note=67 velocity=32 time=0
note_on channel=0 note=67 velocity=0 time=120
note_on channel=0 note=83 velocity=0 time=0
note_on channel=0 note=60 velocity=0 time=0
note_on channel=0 note=84 velocity=49 time=0
note_on channel=0 note=60 velocity=38 time=0
note_on channel=0 note=64 velocity=38 time=0
note_on channel=0 note=64 velocity=0 time=120
note_on channel=0 note=84 velocity=0 time=0
note_on channel=0 note=88 velocity=46 time=0
note_on channel=0 note=67 velocity=33 time=0
note_on channel=0 note=67 velocity=0 time=0
note_on channel=0 note=88 velocity=0 time=0
note_on channel=0 note=60 velocity=0 time=0
note_on channel=0 note=86 velocity=59 time=0
note_on channel=0 note=60 velocity=48 time=0
note_on channel=0 note=65 velocity=48 time=0
note_on channel=0 note=65 velocity=0 time=57
note_on channel=0 note=86 velocity=0 time=0
note_on channel=0 note=85 velocity=55 time=0
note_on channel=0 note=67 velocity=43 time=0
note_on channel=0 note=67 velocity=0 time=120
note_on channel=0 note=85 velocity=0 time=0
note_on channel=0 note=60 velocity=0 time=0
note_on channel=0 note=86 velocity=68 time=0
note_on channel=0 note=60 velocity=54 time=0
note_on channel=0 note=65 velocity=54 time=0
note_on channel=0 note=65 velocity=0 time=120
note_on channel=0 note=86 velocity=0 time=0
note_on channel=0 note=79 velocity=62 time=0
note_on channel=0 note=67 velocity=47 time=0
note_on channel=0 note=67 velocity=0 time=0
note_on channel=0 note=79 velocity=0 time=0
note_on channel=0 note=60 velocity=0 time=0
note_on channel=0 note=84 velocity=74 time=0
note_on channel=0 note=64 velocity=60 time=0
note_on channel=0 note=83 velocity=67 time=91
note_on channel=0 note=63 velocity=53 time=0
note_on channel=0 note=64 velocity=0 time=10
note_on channel=0 note=84 velocity=0 time=0
note_on channel=0 note=84 velocity=67 time=110
note_on channel=0 note=64 velocity=53 time=0
note_on channel=0 note=83 velocity=0 time=10
note_on channel=0 note=63 velocity=0 time=0
note_on channel=0 note=88 velocity=67 time=0
note_on channel=0 note=60 velocity=54 time=0
note_on channel=0 note=84 velocity=0 time=10
note_on channel=0 note=64 velocity=0 time=0
note_on channel=0 note=88 velocity=0 time=0
note_on channel=0 note=60 velocity=0 time=0
note_on channel=0 note=83 velocity=76 time=0
note_on channel=0 note=62 velocity=61 time=0
note_on channel=0 note=82 velocity=69 time=120
note_on channel=0 note=61 velocity=54 time=0
note_on channel=0 note=62 velocity=0 time=10
note_on channel=0 note=83 velocity=0 time=0
note_on channel=0 note=83 velocity=69 time=110
note_on channel=0 note=62 velocity=54 time=0
note_on channel=0 note=82 velocity=0 time=10
note_on channel=0 note=61 velocity=0 time=0
note_on channel=0 note=86 velocity=69 time=0
note_on channel=0 note=59 velocity=54 time=0
note_on channel=0 note=83 velocity=0 time=10
note_on channel=0 note=62 velocity=0 time=0
note_on channel=0 note=86 velocity=0 time=0
note_on channel=0 note=59 velocity=0 time=0
note_on channel=0 note=81 velocity=75 time=0
note_on channel=0 note=60 velocity=61 time=0
note_on channel=0 note=80 velocity=70 time=113
note_on channel=0 note=59 velocity=54 time=0
note_on channel=0 note=60 velocity=0 time=10
note_on channel=0 note=81 velocity=0 time=0
note_on channel=0 note=81 velocity=70 time=110
note_on channel=0 note=60 velocity=54 time=0
note_on channel=0 note=80 velocity=0 time=10
note_on channel=0 note=59 velocity=0 time=0
note_on channel=0 note=84 velocity=70 time=0
note_on channel=0 note=57 velocity=54 time=0
note_on channel=0 note=81 velocity=0 time=10
note_on channel=0 note=60 velocity=0 time=0
note_on channel=0 note=84 velocity=0 time=0
note_on channel=0 note=57 velocity=0 time=0
note_on channel=0 note=79 velocity=75 time=0
note_on channel=0 note=59 velocity=60 time=0
note_on channel=0 note=78 velocity=69 time=118
note_on channel=0 note=58 velocity=54 time=0
note_on channel=0 note=59 velocity=0 time=10
note_on channel=0 note=79 velocity=0 time=0
note_on channel=0 note=79 velocity=69 time=5
note_on channel=0 note=59 velocity=54 time=0
note_on channel=0 note=78 velocity=0 time=10
note_on channel=0 note=58 velocity=0 time=0
note_on channel=0 note=83 velocity=69 time=0
note_on channel=0 note=55 velocity=54 time=0
note_on channel=0 note=79 velocity=0 time=10
note_on channel=0 note=59 velocity=0 time=0
note_on channel=0 note=83 velocity=0 time=0
note_on channel=0 note=55 velocity=0 time=0
note_on channel=0 note=77 velocity=75 time=0
note_on channel=0 note=57 velocity=60 time=0
note_on channel=0 note=76 velocity=69 time=110
note_on channel=0 note=56 velocity=54 time=0
note_on channel=0 note=57 velocity=0 time=10
note_on channel=0 note=77 velocity=0 time=0
note_on channel=0 note=77 velocity=69 time=110
note_on channel=0 note=57 velocity=54 time=0
note_on channel=0 note=76 velocity=0 time=10
note_on channel=0 note=56 velocity=0 time=0
note_on channel=0 note=81 velocity=69 time=0
note_on channel=0 note=53 velocity=54 time=0
note_on channel=0 note=77 velocity=0 time=10
note_on channel=0 note=57 velocity=0 time=0
note_on channel=0 note=81 velocity=0 time=0
note_on channel=0 note=53 velocity=0 time=0
note_on channel=0 note=76 velocity=75 time=0
note_on channel=0 note=55 velocity=60 time=0
note_on channel=0 note=75 velocity=70 time=110
note_on channel=0 note=54 velocity=54 time=0
note_on channel=0 note=55 velocity=0 time=10
note_on channel=0 note=76 velocity=0 time=0
note_on channel=0 note=76 velocity=70 time=110
note_on channel=0 note=55 velocity=54 time=0
note_on channel=0 note=75 velocity=0 time=10
note_on channel=0 note=54 velocity=0 time=0
note_on channel=0 note=79 velocity=70 time=0
note_on channel=0 note=52 velocity=54 time=0
note_on channel=0 note=76 velocity=0 time=10
note_on channel=0 note=55 velocity=0 time=0
note_on channel=0 note=79 velocity=0 time=0
note_on channel=0 note=52 velocity=0 time=0
note_on channel=0 note=74 velocity=75 time=0
note_on channel=0 note=53 velocity=61 time=0
note_on channel=0 note=73 velocity=70 time=112
note_on channel=0 note=52 velocity=54 time=0
note_on channel=0 note=53 velocity=0 time=10
note_on channel=0 note=74 velocity=0 time=0
note_on channel=0 note=74 velocity=70 time=110
note_on channel=0 note=53 velocity=54 time=0
note_on channel=0 note=73 velocity=0 time=10
note_on channel=0 note=52 velocity=0 time=0
note_on channel=0 note=77 velocity=69 time=0
note_on channel=0 note=50 velocity=54 time=0
note_on channel=0 note=74 velocity=0 time=10
note_on channel=0 note=53 velocity=0 time=0
note_on channel=0 note=77 velocity=0 time=0
note_on channel=0 note=50 velocity=0 time=0
note_on channel=0 note=72 velocity=75 time=0
note_on channel=0 note=52 velocity=62 time=0
note_on channel=0 note=71 velocity=69 time=110
note_on channel=0 note=51 velocity=54 time=0
note_on channel=0 note=52 velocity=0 time=10
note_on channel=0 note=72 velocity=0 time=0
note_on channel=0 note=72 velocity=69 time=110
note_on channel=0 note=52 velocity=54 time=0
note_on channel=0 note=71 velocity=0 time=10
note_on channel=0 note=51 velocity=0 time=0
note_on channel=0 note=76 velocity=69 time=0
note_on channel=0 note=48 velocity=54 time=0
note_on channel=0 note=72 velocity=0 time=10
note_on channel=0 note=52 velocity=0 time=0
note_on channel=0 note=76 velocity=0 time=0
note_on channel=0 note=48 velocity=0 time=0
note_on channel=0 note=76 velocity=75 time=0
note_on channel=0 note=60 velocity=61 time=0
note_on channel=0 note=75 velocity=68 time=114
note_on channel=0 note=59 velocity=54 time=0
note_on channel=0 note=60 velocity=0 time=10
note_on channel=0 note=76 velocity=0 time=0
note_on channel=0 note=76 velocity=68 time=110
note_on channel=0 note=60 velocity=54 time=0
note_on channel=0 note=75 velocity=0 time=10
note_on channel=0 note=59 velocity=0 time=0
note_on channel=0 note=79 velocity=68 time=0
note_on channel=0 note=64 velocity=54 time=0
note_on channel=0 note=76 velocity=0 time=10
note_on channel=0 note=60 velocity=0 time=0
note_on channel=0 note=79 velocity=0 time=0
note_on channel=0 note=64 velocity=0 time=0
note_on channel=0 note=74 velocity=75 time=0
note_on channel=0 note=59 velocity=61 time=0
note_on channel=0 note=73 velocity=68 time=110
note_on channel=0 note=58 velocity=54 time=0
note_on channel=0 note=59 velocity=0 time=10
note_on channel=0 note=74 velocity=0 time=0
note_on channel=0 note=74 velocity=68 time=110
note_on channel=0 note=59 velocity=54 time=0
note_on channel=0 note=73 velocity=0 time=4
note_on channel=0 note=58 velocity=0 time=0
note_on channel=0 note=71 velocity=68 time=0
note_on channel=0 note=62 velocity=54 time=0
note_on channel=0 note=74 velocity=0 time=10
note_on channel=0 note=59 velocity=0 time=0
note_on channel=0 note=71 velocity=0 time=0
note_on channel=0 note=62 velocity=0 time=0
note_on channel=0 note=72 velocity=74 time=0
note_on channel=0 note=57 velocity=61 time=0
note_on channel=0 note=71 velocity=68 time=107
note_on channel=0 note=56 velocity=54 time=0
note_on channel=0 note=57 velocity=0 time=10
note_on channel=0 note=72 velocity=0 time=0
note_on channel=0 note=72 velocity=68 time=110
note_on channel=0 note=57 velocity=54 time=0
note_on channel=0 note=71 velocity=0 time=10
note_on channel=0 note=56 velocity=0 time=0
note_on channel=0 note=69 velocity=68 time=0
note_on channel=0 note=60 velocity=54 time=0
note_on channel=0 note=72 velocity=0 time=10
note_on channel=0 note=57 velocity=0 time=0
note_on channel=0 note=69 velocity=0 time=0
note_on channel=0 note=60 velocity=0 time=0
note_on channel=0 note=71 velocity=74 time=0
note_on channel=0 note=55 velocity=60 time=0
note_on channel=0 note=70 velocity=69 time=114
note_on channel=0 note=54 velocity=54 time=0
note_on channel=0 note=55 velocity=0 time=10
note_on channel=0 note=71 velocity=0 time=0
note_on channel=0 note=71 velocity=68 time=110
note_on channel=0 note=55 velocity=54 time=0
note_on channel=0 note=70 velocity=0 time=10
note_on channel=0 note=54 velocity=0 time=0
note_on channel=0 note=67 velocity=68 time=0
note_on channel=0 note=59 velocity=54 time=0
note_on channel=0 note=71 velocity=0 time=10
note_on channel=0 note=55 velocity=0 time=0
note_on channel=0 note=67 velocity=0 time=0
note_on channel=0 note=59 velocity=0 time=0
note_on channel=0 note=69 velocity=74 time=0
note_on channel=0 note=53 velocity=61 time=0
note_on channel=0 note=68 velocity=68 time=108
note_on channel=0 note=52 velocity=54 time=0
note_on channel=0 note=53 velocity=0 time=10
note_on channel=0 note=69 velocity=0 time=0
note_on channel=0 note=69 velocity=68 time=110
note_on channel=0 note=53 velocity=54 time=0
note_on channel=0 note=68 velocity=0 time=10
note_on channel=0 note=52 velocity=0 time=0
note_on channel=0 note=65 velocity=68 time=0
note_on channel=0 note=57 velocity=54 time=0
note_on channel=0 note=69 velocity=0 time=10
note_on channel=0 note=53 velocity=0 time=0
note_on channel=0 note=65 velocity=0 time=0
note_on channel=0 note=57 velocity=0 time=0
note_on channel=0 note=67 velocity=74 time=0
note_on channel=0 note=52 velocity=62 time=0
note_on channel=0 note=66 velocity=68 time=120
note_on channel=0 note=51 velocity=54 time=0
note_on channel=0 note=52 velocity=0 time=10
note_on channel=0 note=67 velocity=0 time=0
note_on channel=0 note=67 velocity=68 time=110
note_on channel=0 note=52 velocity=54 time=0
note_on channel=0 note=66 velocity=0 time=10
note_on channel=0 note=51 velocity=0 time=0
note_on channel=0 note=64 velocity=68 time=0
note_on channel=0 note=55 velocity=54 time=0
note_on channel=0 note=67 velocity=0 time=10
note_on channel=0 note=52 velocity=0 time=0
note_on channel=0 note=64 velocity=0 time=0
note_on channel=0 note=55 velocity=0 time=0
note_on channel=0 note=65 velocity=74 time=0
note_on channel=0 note=50 velocity=60 time=0
note_on channel=0 note=64 velocity=68 time=108
note_on channel=0 note=49 velocity=54 time=0
note_on channel=0 note=50 velocity=0 time=10
note_on channel=0 note=65 velocity=0 time=0
note_on channel=0 note=65 velocity=68 time=110
note_on channel=0 note=50 velocity=54 time=0
note_on channel=0 note=64 velocity=0 time=10
note_on channel=0 note=49 velocity=0 time=0
note_on channel=0 note=62 velocity=68 time=0
note_on channel=0 note=53 velocity=53 time=0
note_on channel=0 note=65 velocity=0 time=10
note_on channel=0 note=50 velocity=0 time=0
note_on channel=0 note=62 velocity=0 time=0
note_on channel=0 note=53 velocity=0 time=0
note_on channel=0 note=64 velocity=91 time=0
note_on channel=0 note=48 velocity=84 time=0
note_on channel=0 note=60 velocity=81 time=14
note_on channel=0 note=64 velocity=0 time=10
note_on channel=0 note=48 velocity=0 time=110
note_on channel=0 note=55 velocity=81 time=0
note_on channel=0 note=60 velocity=0 time=10
note_on channel=0 note=64 velocity=81 time=0
note_on channel=0 note=48 velocity=72 time=0
note_on channel=0 note=55 velocity=0 time=10
note_on channel=0 note=48 velocity=0 time=0
note_on channel=0 note=64 velocity=0 time=0
note_on channel=0 note=62 velocity=90 time=0
note_on channel=0 note=43 velocity=84 time=0
note_on channel=0 note=59 velocity=81 time=49
note_on channel=0 note=62 velocity=0 time=10
note_on channel=0 note=43 velocity=0 time=110
note_on channel=0 note=55 velocity=81 time=0
note_on channel=0 note=59 velocity=0 time=10
note_on channel=0 note=62 velocity=81 time=0
note_on channel=0 note=43 velocity=72 time=0
note_on channel=0 note=55 velocity=0 time=10
note_on channel=0 note=43 velocity=0 time=0
note_on channel=0 note=62 velocity=0 time=0
note_on channel=0 note=65 velocity=91 time=0
note_on channel=0 note=50 velocity=84 time=0
note_on channel=0 note=62 velocity=81 time=49
note_on channel=0 note=65 velocity=0 time=10
note_on channel=0 note=50 velocity=0 time=110
note_on channel=0 note=57 velocity=81 time=0
note_on channel=0 note=62 velocity=0 time=10
note_on channel=0 note=65 velocity=81 time=0
note_on channel=0 note=50 velocity=72 time=0
note_on channel=0 note=57 velocity=0 time=10
note_on channel=0 note=50 velocity=0 time=0
note_on channel=0 note=65 velocity=0 time=0
note_on channel=0 note=64 velocity=90 time=0
note_on channel=0 note=45 velocity=84 time=0
note_on channel=0 note=60 velocity=81 time=35
note_on channel=0 note=64 velocity=0 time=10
note_on channel=0 note=45 velocity=0 time=110
note_on channel=0 note=57 velocity=81 time=0
note_on channel=0 note=60 velocity=0 time=10
note_on channel=0 note=64 velocity=81 time=0
note_on channel=0 note=45 velocity=72 time=0
note_on channel=0 note=57 velocity=0 time=10
note_on channel=0 note=45 velocity=0 time=0
note_on channel=0 note=64 velocity=0 time=0
note_on channel=0 note=69 velocity=90 time=0
note_on channel=0 note=53 velocity=84 time=0
note_on channel=0 note=65 velocity=81 time=7
note_on channel=0 note=69 velocity=0 time=10
note_on channel=0 note=53 velocity=0 time=110
note_on channel=0 note=60 velocity=81 time=0
note_on channel=0 note=65 velocity=0 time=10
note_on channel=0 note=69 velocity=81 time=0
note_on channel=0 note=53 velocity=73 time=0
note_on channel=0 note=60 velocity=0 time=10
note_on channel=0 note=53 velocity=0 time=0
note_on channel=0 note=69 velocity=0 time=0
note_on channel=0 note=67 velocity=90 time=0
note_on channel=0 note=48 velocity=84 time=0
note_on channel=0 note=64 velocity=81 time=35
note_on channel=0 note=67 velocity=0 time=10
note_on channel=0 note=48 velocity=0 time=110
note_on channel=0 note=60 velocity=81 time=0
note_on channel=0 note=64 velocity=0 time=10
note_on channel=0 note=72 velocity=81 time=0
note_on channel=0 note=48 velocity=74 time=0
note_on channel=0 note=60 velocity=0 time=10
note_on channel=0 note=48 velocity=0 time=0
note_on channel=0 note=72 velocity=0 time=0
note_on channel=0 note=62 velocity=91 time=0
note_on channel=0 note=55 velocity=84 time=0
note_on channel=0 note=72 velocity=81 time=42
note_on channel=0 note=62 velocity=0 time=10
note_on channel=0 note=55 velocity=0 time=110
note_on channel=0 note=67 velocity=81 time=0
note_on channel=0 note=72 velocity=0 time=10
note_on channel=0 note=62 velocity=81 time=0
note_on channel=0 note=55 velocity=73 time=0
note_on channel=0 note=67 velocity=0 time=10
note_on channel=0 note=55 velocity=0 time=0
note_on channel=0 note=62 velocity=0 time=0
note_on channel=0 note=71 velocity=91 time=0
note_on channel=0 note=43 velocity=84 time=0
note_on channel=0 note=67 velocity=81 time=14
note_on channel=0 note=71 velocity=0 time=10
note_on channel=0 note=43 velocity=0 time=110
note_on channel=0 note=62 velocity=81 time=0
note_on channel=0 note=67 velocity=0 time=10
note_on channel=0 note=71 velocity=81 time=0
note_on channel=0 note=43 velocity=74 time=0
note_on channel=0 note=62 velocity=0 time=10
note_on channel=0 note=43 velocity=0 time=0
note_on channel=0 note=71 velocity=0 time=0
note_on channel=0 note=76 velocity=91 time=0
note_on channel=0 note=48 velocity=84 time=0
note_on channel=0 note=72 velocity=81 time=42
note_on channel=0 note=76 velocity=0 time=10
note_on channel=0 note=48 velocity=0 time=110
note_on channel=0 note=67 velocity=81 time=0
note_on channel=0 note=72 velocity=0 time=10
note_on channel=0 note=76 velocity=81 time=0
note_on channel=0 note=60 velocity=73 time=0
note_on channel=0 note=67 velocity=0 time=10
note_on channel=0 note=60 velocity=0 time=0
note_on channel=0 note=76 velocity=0 time=0
note_on channel=0 note=67 velocity=91 time=0
note_on channel=0 note=55 velocity=84 time=0
note_on channel=0 note=74 velocity=81 time=21
note_on channel=0 note=67 velocity=0 time=10
note_on channel=0 note=55 velocity=0 time=110
note_on channel=0 note=71 velocity=81 time=0
note_on channel=0 note=74 velocity=0 time=10
note_on channel=0 note=67 velocity=81 time=0
note_on channel=0 note=55 velocity=73 time=0
note_on channel=0 note=71 velocity=0 time=10
note_on channel=0 note=55 velocity=0 time=0
note_on channel=0 note=67 velocity=0 time=0
note_on channel=0 note=77 velocity=91 time=0
note_on channel=0 note=50 velocity=84 time=0
note_on channel=0 note=74 velocity=81 time=110
note_on channel=0 note=77 velocity=0 time=10
note_on channel=0 note=50 velocity=0 time=110
note_on channel=0 note=69 velocity=81 time=0
note_on channel=0 note=74 velocity=0 time=10
note_on channel=0 note=77 velocity=81 time=0
note_on channel=0 note=62 velocity=72 time=0
note_on channel=0 note=69 velocity=0 time=10
note_on channel=0 note=62 velocity=0 time=0
note_on channel=0 note=77 velocity=0 time=0
note_on channel=0 note=69 velocity=93 time=0
note_on channel=0 note=57 velocity=84 time=0
note_on channel=0 note=76 velocity=81 time=14
note_on channel=0 note=69 velocity=0 time=10
note_on channel=0 note=57 velocity=0 time=110
note_on channel=0 note=72 velocity=81 time=0
note_on channel=0 note=76 velocity=0 time=10
note_on channel=0 note=69 velocity=81 time=0
note_on channel=0 note=57 velocity=72 time=0
note_on channel=0 note=72 velocity=0 time=10
note_on channel=0 note=57 velocity=0 time=0
note_on channel=0 note=69 velocity=0 time=0
note_on channel=0 note=81 velocity=92 time=0
note_on channel=0 note=53 velocity=84 time=0
note_on channel=0 note=77 velocity=81 time=99
note_on channel=0 note=81 velocity=0 time=10
note_on channel=0 note=53 velocity=0 time=110
note_on channel=0 note=72 velocity=81 time=0
note_on channel=0 note=77 velocity=0 time=10
note_on channel=0 note=81 velocity=81 time=0
note_on channel=0 note=65 velocity=73 time=0
note_on channel=0 note=72 velocity=0 time=10
note_on channel=0 note=65 velocity=0 time=0
note_on channel=0 note=81 velocity=0 time=0
note_on channel=0 note=72 velocity=92 time=0
note_on channel=0 note=53 velocity=84 time=0
note_on channel=0 note=81 velocity=81 time=120
note_on channel=0 note=72 velocity=0 time=10
note_on channel=0 note=53 velocity=0 time=110
note_on channel=0 note=77 velocity=81 time=0
note_on channel=0 note=81 velocity=0 time=10
note_on channel=0 note=72 velocity=81 time=0
note_on channel=0 note=65 velocity=73 time=0
note_on channel=0 note=77 velocity=0 time=10
note_on channel=0 note=65 velocity=0 time=0
note_on channel=0 note=72 velocity=0 time=0
note_on channel=0 note=81 velocity=92 time=0
note_on channel=0 note=53 velocity=83 time=0
note_on channel=0 note=77 velocity=81 time=120
note_on channel=0 note=81 velocity=0 time=10
note_on channel=0 note=53 velocity=0 time=110
note_on channel=0 note=72 velocity=81 time=0
note_on channel=0 note=77 velocity=0 time=10
note_on channel=0 note=81 velocity=81 time=0
note_on channel=0 note=65 velocity=72 time=0
note_on channel=0 note=72 velocity=0 time=10
note_on channel=0 note=65 velocity=0 time=0
note_on channel=0 note=81 velocity=0 time=0
note_on channel=0 note=72 velocity=91 time=0
note_on channel=0 note=53 velocity=82 time=0
note_on channel=0 note=81 velocity=81 time=120
note_on channel=0 note=72 velocity=0 time=10
note_on channel=0 note=53 velocity=0 time=110
note_on channel=0 note=77 velocity=81 time=0
note_on channel=0 note=81 velocity=0 time=10
note_on channel=0 note=72 velocity=81 time=0
note_on channel=0 note=53 velocity=72 time=0
note_on channel=0 note=77 velocity=0 time=10
note_on channel=0 note=53 velocity=0 time=0
note_on channel=0 note=72 velocity=0 time=0
note_on channel=0 note=41 velocity=82 time=0
note_on channel=0 note=41 velocity=0 time=0
note_on channel=0 note=84 velocity=50 time=0
note_on channel=0 note=57 velocity=41 time=0
note_on channel=0 note=57 velocity=0 time=120
note_on channel=0 note=84 velocity=0 time=0
note_on channel=0 note=60 velocity=34 time=0
note_on channel=0 note=60 velocity=0 time=0
note_on channel=0 note=84 velocity=53 time=0
note_on channel=0 note=57 velocity=41 time=0
note_on channel=0 note=57 velocity=0 time=120
note_on channel=0 note=60 velocity=34 time=0
note_on channel=0 note=60 velocity=0 time=120
note_on channel=0 note=57 velocity=41 time=0
note_on channel=0 note=57 velocity=0 time=120
note_on channel=0 note=84 velocity=0 time=0
note_on channel=0 note=81 velocity=50 time=0
note_on channel=0 note=60 velocity=33 time=0
note_on channel=0 note=60 velocity=0 time=0
note_on channel=0 note=81 velocity=0 time=0
note_on channel=0 note=79 velocity=54 time=0
note_on channel=0 note=58 velocity=41 time=0
note_on channel=0 note=58 velocity=0 time=120
note_on channel=0 note=60 velocity=34 time=0
note_on channel=0 note=60 velocity=0 time=0
note_on channel=0 note=79 velocity=0 time=0
note_on channel=0 note=72 velocity=50 time=0
note_on channel=0 note=58 velocity=41 time=0
note_on channel=0 note=58 velocity=0 time=120
note_on channel=0 note=60 velocity=35 time=0
note_on channel=0 note=60 velocity=0 time=0
note_on channel=0 note=72 velocity=0 time=0
note_on channel=0 note=77 velocity=50 time=0
note_on channel=0 note=57 velocity=41 time=0
note_on channel=0 note=57 velocity=0 time=120
note_on channel=0 note=60 velocity=34 time=0
note_on channel=0 note=60 velocity=0 time=120
note_on channel=0 note=77 velocity=0 time=0
note_on channel=0 note=81 velocity=47 time=0
note_on channel=0 note=57 velocity=41 time=0
note_on channel=0 note=57 velocity=0 time=120
note_on channel=0 note=60 velocity=35 time=0
note_on channel=0 note=60 velocity=0 time=0
note_on channel=0 note=81 velocity=0 time=0
note_on channel=0 note=57 velocity=41 time=0
note_on channel=0 note=57 velocity=0 time=120
note_on channel=0 note=60 velocity=34 time=0
note_on channel=0 note=60 velocity=0 time=120
note_on channel=0 note=84 velocity=50 time=0
note_on channel=0 note=57 velocity=41 time=0
note_on channel=0 note=57 velocity=0 time=120
note_on channel=0 note=84 velocity=0 time=0
note_on channel=0 note=83 velocity=46 time=0
note_on channel=0 note=60 velocity=34 time=0
note_on channel=0 note=60 velocity=0 time=120
note_on channel=0 note=83 velocity=0 time=0
note_on channel=0 note=84 velocity=50 time=0
note_on channel=0 note=57 velocity=41 time=0
note_on channel=0 note=57 velocity=0 time=120
note_on channel=0 note=84 velocity=0 time=0
note_on channel=0 note=83 velocity=47 time=0
note_on channel=0 note=60 velocity=34 time=0
note_on channel=0 note=60 velocity=0 time=0
note_on channel=0 note=83 velocity=0 time=0
note_on channel=0 note=84 velocity=50 time=0
note_on channel=0 note=57 velocity=41 time=0
note_on channel=0 note=57 velocity=0 time=0
note_on channel=0 note=84 velocity=0 time=0
note_on channel=0 note=81 velocity=47 time=0
note_on channel=0 note=60 velocity=33 time=0
note_on channel=0 note=60 velocity=0 time=120
note_on channel=0 note=81 velocity=0 time=0
note_on channel=0 note=79 velocity=48 time=0
note_on channel=0 note=58 velocity=38 time=0
note_on channel=0 note=58 velocity=0 time=34
note_on channel=0 note=79 velocity=0 time=0
note_on channel=0 note=78 velocity=43 time=0
note_on channel=0 note=60 velocity=32 time=0
note_on channel=0 note=60 velocity=0 time=120
note_on channel=0 note=78 velocity=0 time=0
note_on channel=0 note=79 velocity=48 time=0
note_on channel=0 note=58 velocity=38 time=0
note_on channel=0 note=58 velocity=0 time=120
note_on channel=0 note=79 velocity=0 time=0
note_on channel=0 note=72 velocity=45 time=0
note_on channel=0 note=60 velocity=33 time=0
note_on channel=0 note=60 velocity=0 time=0
note_on channel=0 note=72 velocity=0 time=0
note_on channel=0 note=77 velocity=48 time=0
note_on channel=0 note=57 velocity=38 time=0
note_on channel=0 note=57 velocity=0 time=23
note_on channel=0 note=77 velocity=0 time=0
note_on channel=0 note=76 velocity=44 time=0
note_on channel=0 note=60 velocity=32 time=0
note_on channel=0 note=60 velocity=0 time=120
note_on channel=0 note=76 velocity=0 time=0
note_on channel=0 note=77 velocity=50 time=0
note_on channel=0 note=57 velocity=38 time=0
note_on channel=0 note=57 velocity=0 time=120
note_on channel=0 note=77 velocity=0 time=0
note_on channel=0 note=81 velocity=46 time=0
note_on channel=0 note=60 velocity=33 time=0
note_on channel=0 note=60 velocity=0 time=0
note_on channel=0 note=81 velocity=0 time=0
note_on channel=0 note=43 velocity=85 time=0
note_on channel=0 note=43 velocity=0 time=0
note_on channel=0 note=89 velocity=46 time=0
note_on channel=0 note=77 velocity=39 time=0
note_on channel=0 note=59 velocity=42 time=0
note_on channel=0 note=59 velocity=0 time=0
note_on channel=0 note=77 velocity=0 time=0
note_on channel=0 note=89 velocity=0 time=0
note_on channel=0 note=89 velocity=48 time=0
note_on channel=0 note=77 velocity=40 time=0
note_on channel=0 note=62 velocity=43 time=0
note_on channel=0 note=62 velocity=0 time=240
note_on channel=0 note=59 velocity=39 time=0
note_on channel=0 note=77 velocity=0 time=120
note_on channel=0 note=89 velocity=0 time=0
note_on channel=0 note=86 velocity=46 time=0
note_on channel=0 note=74 velocity=39 time=0
note_on channel=0 note=74 velocity=0 time=0
note_on channel=0 note=86 velocity=0 time=0
note_on channel=0 note=59 velocity=0 time=0
note_on channel=0 note=88 velocity=49 time=0
note_on channel=0 note=76 velocity=41 time=0
note_on channel=0 note=60 velocity=43 time=0
note_on channel=0 note=60 velocity=0 time=0
note_on channel=0 note=76 velocity=0 time=0
note_on channel=0 note=88 velocity=0 time=0
note_on channel=0 note=84 velocity=46 time=0
note_on channel=0 note=72 velocity=39 time=0
note_on channel=0 note=64 velocity=42 time=0
note_on channel=0 note=64 velocity=0 time=0
note_on channel=0 note=72 velocity=0 time=0
note_on channel=0 note=84 velocity=0 time=0
note_on channel=0 note=83 velocity=46 time=0
note_on channel=0 note=71 velocity=39 time=0
note_on channel=0 note=62 velocity=42 time=0
note_on channel=0 note=62 velocity=0 time=120
note_on channel=0 note=71 velocity=0 time=0
note_on channel=0 note=83 velocity=0 time=0
note_on channel=0 note=86 velocity=42 time=0
note_on channel=0 note=74 velocity=35 time=0
note_on channel=0 note=59 velocity=39 time=0
note_on channel=0 note=59 velocity=0 time=0
note_on channel=0 note=74 velocity=0 time=0
note_on channel=0 note=86 velocity=0 time=0
note_on channel=0 note=55 velocity=46 time=0
note_on channel=0 note=55 velocity=0 time=0
note_on channel=0 note=89 velocity=46 time=0
note_on channel=0 note=77 velocity=39 time=0
note_on channel=0 note=59 velocity=42 time=0
note_on channel=0 note=59 velocity=0 time=0
note_on channel=0 note=77 velocity=0 time=0
note_on channel=0 note=89 velocity=0 time=0
note_on channel=0 note=89 velocity=48 time=0
note_on channel=0 note=77 velocity=40 time=0
note_on channel=0 note=62 velocity=43 time=0
note_on channel=0 note=62 velocity=0 time=240
note_on channel=0 note=59 velocity=39 time=0
note_on channel=0 note=77 velocity=0 time=120
note_on channel=0 note=89 velocity=0 time=0
note_on channel=0 note=86 velocity=46 time=0
note_on channel=0 note=74 velocity=39 time=0
note_on channel=0 note=74 velocity=0 time=0
note_on channel=0 note=86 velocity=0 time=0
note_on channel=0 note=59 velocity=0 time=0
note_on channel=0 note=88 velocity=49 time=0
note_on channel=0 note=76 velocity=41 time=0
note_on channel=0 note=60 velocity=43 time=0
note_on channel=0 note=84 velocity=46 time=0
note_on channel=0 note=72 velocity=39 time=0
note_on channel=0 note=64 velocity=42 time=0
note_on channel=0 note=60 velocity=0 time=10
note_on channel=0 note=88 velocity=0 time=0
note_on channel=0 note=76 velocity=0 time=0
note_on channel=0 note=83 velocity=46 time=0
note_on channel=0 note=71 velocity=39 time=0
note_on channel=0 note=62 velocity=42 time=0
note_on channel=0 note=84 velocity=0 time=10
note_on channel=0 note=64 velocity=0 time=0
note_on channel=0 note=72 velocity=0 time=0
note_on channel=0 note=86 velocity=42 time=230
note_on channel=0 note=74 velocity=35 time=0
note_on channel=0 note=59 velocity=39 time=0
note_on channel=0 note=83 velocity=0 time=10
note_on channel=0 note=62 velocity=0 time=0
note_on channel=0 note=71 velocity=0 time=0
note_on channel=0 note=86 velocity=0 time=0
note_on channel=0 note=74 velocity=0 time=0
note_on channel=0 note=59 velocity=0 time=0
note_on channel=0 note=84 velocity=49 time=0
note_on channel=0 note=72 velocity=41 time=0
note_on channel=0 note=57 velocity=43 time=0
note_on channel=0 note=81 velocity=46 time=0
note_on channel=0 note=69 velocity=39 time=0
note_on channel=0 note=60 velocity=42 time=0
note_on channel=0 note=57 velocity=0 time=10
note_on channel=0 note=84 velocity=0 time=0
note_on channel=0 note=72 velocity=0 time=0
note_on channel=0 note=79 velocity=46 time=0
note_on channel=0 note=67 velocity=39 time=0
note_on channel=0 note=59 velocity=42 time=0
note_on channel=0 note=81 velocity=0 time=10
note_on channel=0 note=60 velocity=0 time=0
note_on channel=0 note=69 velocity=0 time=0
note_on channel=0 note=83 velocity=42 time=230
note_on channel=0 note=71 velocity=35 time=0
note_on channel=0 note=55 velocity=39 time=0
note_on channel=0 note=79 velocity=0 time=10
note_on channel=0 note=59 velocity=0 time=0
note_on channel=0 note=67 velocity=0 time=0
note_on channel=0 note=83 velocity=0 time=0
note_on channel=0 note=71 velocity=0 time=0
note_on channel=0 note=55 velocity=0 time=0
note_on channel=0 note=81 velocity=49 time=0
note_on channel=0 note=69 velocity=41 time=0
note_on channel=0 note=53 velocity=43 time=0
note_on channel=0 note=77 velocity=46 time=0
note_on channel=0 note=65 velocity=39 time=0
note_on channel=0 note=57 velocity=42 time=0
note_on channel=0 note=53 velocity=0 time=10
note_on channel=0 note=81 velocity=0 time=0
note_on channel=0 note=69 velocity=0 time=0
note_on channel=0 note=76 velocity=46 time=0
note_on channel=0 note=64 velocity=39 time=0
note_on channel=0 note=55 velocity=42 time=0
note_on channel=0 note=77 velocity=0 time=10
note_on channel=0 note=57 velocity=0 time=0
note_on channel=0 note=65 velocity=0 time=0
note_on channel=0 note=79 velocity=42 time=230
note_on channel=0 note=67 velocity=35 time=0
note_on channel=0 note=52 velocity=39 time=0
note_on channel=0 note=76 velocity=0 time=10
note_on channel=0 note=55 velocity=0 time=0
note_on channel=0 note=64 velocity=0 time=0
note_on channel=0 note=79 velocity=0 time=0
note_on channel=0 note=67 velocity=0 time=0
note_on channel=0 note=52 velocity=0 time=0
note_on channel=0 note=77 velocity=51 time=0
note_on channel=0 note=65 velocity=42 time=0
note_on channel=0 note=50 velocity=44 time=0
note_on channel=0 note=74 velocity=48 time=0
note_on channel=0 note=62 velocity=40 time=0
note_on channel=0 note=53 velocity=43 time=0
note_on channel=0 note=50 velocity=0 time=10
note_on channel=0 note=77 velocity=0 time=0
note_on channel=0 note=65 velocity=0 time=0
note_on channel=0 note=76 velocity=48 time=0
note_on channel=0 note=64 velocity=41 time=0
note_on channel=0 note=48 velocity=44 time=0
note_on channel=0 note=74 velocity=0 time=10
note_on channel=0 note=53 velocity=0 time=0
note_on channel=0 note=62 velocity=0 time=0
note_on channel=0 note=72 velocity=44 time=0
note_on channel=0 note=60 velocity=36 time=0
note_on channel=0 note=52 velocity=41 time=0
note_on channel=0 note=76 velocity=0 time=10
note_on channel=0 note=48 velocity=0 time=0
note_on channel=0 note=64 velocity=0 time=0
note_on channel=0 note=72 velocity=0 time=0
note_on channel=0 note=60 velocity=0 time=0
note_on channel=0 note=52 velocity=0 time=0
note_on channel=0 note=74 velocity=52 time=0
note_on channel=0 note=62 velocity=43 time=0
note_on channel=0 note=47 velocity=46 time=0
note_on channel=0 note=71 velocity=49 time=0
note_on channel=0 note=59 velocity=41 time=0
note_on channel=0 note=50 velocity=44 time=0
note_on channel=0 note=47 velocity=0 time=10
note_on channel=0 note=74 velocity=0 time=0
note_on channel=0 note=62 velocity=0 time=0
note_on channel=0 note=72 velocity=49 time=0
note_on channel=0 note=60 velocity=41 time=0
note_on channel=0 note=45 velocity=44 time=0
note_on channel=0 note=71 velocity=0 time=10
note_on channel=0 note=50 velocity=0 time=0
note_on channel=0 note=59 velocity=0 time=0
note_on channel=0 note=69 velocity=46 time=0
note_on channel=0 note=57 velocity=37 time=0
note_on channel=0 note=48 velocity=42 time=0
note_on channel=0 note=72 velocity=0 time=10
note_on channel=0 note=45 velocity=0 time=0
note_on channel=0 note=60 velocity=0 time=0
note_on channel=0 note=69 velocity=0 time=0
note_on channel=0 note=57 velocity=0 time=0
note_on channel=0 note=48 velocity=0 time=0
note_on channel=0 note=71 velocity=54 time=0
note_on channel=0 note=59 velocity=44 time=0
note_on channel=0 note=43 velocity=47 time=0
note_on channel=0 note=67 velocity=50 time=0
note_on channel=0 note=55 velocity=42 time=0
note_on channel=0 note=47 velocity=46 time=0
note_on channel=0 note=43 velocity=0 time=10
note_on channel=0 note=71 velocity=0 time=0
note_on channel=0 note=59 velocity=0 time=0
note_on channel=0 note=69 velocity=50 time=0
note_on channel=0 note=57 velocity=42 time=0
note_on channel=0 note=41 velocity=47 time=0
note_on channel=0 note=67 velocity=0 time=10
note_on channel=0 note=47 velocity=0 time=0
note_on channel=0 note=55 velocity=0 time=0
note_on channel=0 note=65 velocity=47 time=0
note_on channel=0 note=53 velocity=39 time=0
note_on channel=0 note=45 velocity=42 time=0
note_on channel=0 note=69 velocity=0 time=10
note_on channel=0 note=41 velocity=0 time=0
note_on channel=0 note=57 velocity=0 time=0
note_on channel=0 note=65 velocity=0 time=0
note_on channel=0 note=53 velocity=0 time=0
note_on channel=0 note=45 velocity=0 time=0
note_on channel=0 note=67 velocity=55 time=0
note_on channel=0 note=55 velocity=46 time=0
note_on channel=0 note=40 velocity=48 time=0
note_on channel=0 note=64 velocity=51 time=0
note_on channel=0 note=52 velocity=43 time=0
note_on channel=0 note=43 velocity=47 time=0
note_on channel=0 note=40 velocity=0 time=10
note_on channel=0 note=67 velocity=0 time=0
note_on channel=0 note=55 velocity=0 time=0
note_on channel=0 note=65 velocity=51 time=0
note_on channel=0 note=53 velocity=43 time=0
note_on channel=0 note=31 velocity=47 time=0
note_on channel=0 note=38 velocity=47 time=0
note_on channel=0 note=64 velocity=0 time=10
note_on channel=0 note=43 velocity=0 time=0
note_on channel=0 note=52 velocity=0 time=0
note_on channel=0 note=59 velocity=48 time=0
note_on channel=0 note=47 velocity=40 time=0
note_on channel=0 note=43 velocity=43 time=0
note_on channel=0 note=53 velocity=0 time=10
note_on channel=0 note=38 velocity=0 time=0
note_on channel=0 note=65 velocity=0 time=0
note_on channel=0 note=31 velocity=0 time=0
note_on channel=0 note=43 velocity=0 time=0
note_on channel=0 note=59 velocity=0 time=0
note_on channel=0 note=47 velocity=0 time=0
note_on channel=0 note=51 velocity=104 time=0
note_on channel=0 note=60 velocity=104 time=0
note_on channel=0 note=32 velocity=79 time=0
note_on channel=0 note=44 velocity=94 time=0
note_on channel=0 note=44 velocity=0 time=148
note_on channel=0 note=51 velocity=0 time=0
note_on channel=0 note=60 velocity=0 time=0
note_on channel=0 note=32 velocity=0 time=0
note_on channel=0 note=63 velocity=98 time=240
note_on channel=0 note=60 velocity=89 time=0
note_on channel=0 note=56 velocity=82 time=0
note_on channel=0 note=56 velocity=0 time=120
note_on channel=0 note=60 velocity=0 time=0
note_on channel=0 note=63 velocity=0 time=0
note_on channel=0 note=63 velocity=98 time=360
note_on channel=0 note=60 velocity=89 time=0
note_on channel=0 note=56 velocity=82 time=0
note_on channel=0 note=72 velocity=74 time=0
note_on channel=0 note=72 velocity=0 time=160
note_on channel=0 note=75 velocity=74 time=0
note_on channel=0 note=75 velocity=0 time=160
note_on channel=0 note=80 velocity=78 time=0
note_on channel=0 note=80 velocity=0 time=160
note_on channel=0 note=84 velocity=74 time=0
note_on channel=0 note=84 velocity=0 time=0
note_on channel=0 note=87 velocity=74 time=0
note_on channel=0 note=87 velocity=0 time=0
note_on channel=0 note=63 velocity=0 time=0
note_on channel=0 note=60 velocity=0 time=0
note_on channel=0 note=56 velocity=0 time=0
note_on channel=0 note=85 velocity=58 time=0
note_on channel=0 note=39 velocity=47 time=0
note_on channel=0 note=85 velocity=0 time=63
note_on channel=0 note=82 velocity=49 time=0
note_on channel=0 note=39 velocity=0 time=80
note_on channel=0 note=82 velocity=0 time=80
note_on channel=0 note=79 velocity=49 time=0
note_on channel=0 note=79 velocity=0 time=0
note_on channel=0 note=73 velocity=55 time=0
note_on channel=0 note=61 velocity=40 time=0
note_on channel=0 note=58 velocity=34 time=0
note_on channel=0 note=55 velocity=34 time=0
note_on channel=0 note=51 velocity=34 time=0
note_on channel=0 note=73 velocity=0 time=20
note_on channel=0 note=70 velocity=50 time=0
note_on channel=0 note=55 velocity=0 time=40
note_on channel=0 note=51 velocity=0 time=0
note_on channel=0 note=61 velocity=0 time=0
note_on channel=0 note=58 velocity=0 time=0
note_on channel=0 note=70 velocity=0 time=0
note_on channel=0 note=67 velocity=50 time=0
note_on channel=0 note=67 velocity=0 time=0
note_on channel=0 note=85 velocity=56 time=0
note_on channel=0 note=40 velocity=47 time=0
note_on channel=0 note=85 velocity=0 time=97
note_on channel=0 note=82 velocity=49 time=0
note_on channel=0 note=40 velocity=0 time=80
note_on channel=0 note=82 velocity=0 time=80
note_on channel=0 note=79 velocity=49 time=0
note_on channel=0 note=79 velocity=0 time=160
note_on channel=0 note=73 velocity=55 time=0
note_on channel=0 note=61 velocity=40 time=0
note_on channel=0 note=58 velocity=34 time=0
note_on channel=0 note=55 velocity=34 time=0
note_on channel=0 note=52 velocity=34 time=0
note_on channel=0 note=73 velocity=0 time=160
note_on channel=0 note=70 velocity=50 time=0
note_on channel=0 note=55 velocity=0 time=80
note_on channel=0 note=52 velocity=0 time=0
note_on channel=0 note=61 velocity=0 time=0
note_on channel=0 note=58 velocity=0 time=0
note_on channel=0 note=70 velocity=0 time=0
note_on channel=0 note=67 velocity=50 time=0
note_on channel=0 note=67 velocity=0 time=0
note_on channel=0 note=41 velocity=94 time=0
note_on channel=0 note=41 velocity=0 time=154
note_on channel=0 note=60 velocity=98 time=240
note_on channel=0 note=56 velocity=89 time=0
note_on channel=0 note=53 velocity=82 time=0
note_on channel=0 note=53 velocity=0 time=120
note_on channel=0 note=56 velocity=0 time=0
note_on channel=0 note=60 velocity=0 time=0
note_on channel=0 note=60 velocity=98 time=360
note_on channel=0 note=56 velocity=89 time=0
note_on channel=0 note=53 velocity=82 time=0
note_on channel=0 note=68 velocity=74 time=0
note_on channel=0 note=68 velocity=0 time=160
note_on channel=0 note=72 velocity=74 time=0
note_on channel=0 note=72 velocity=0 time=160
note_on channel=0 note=77 velocity=78 time=0
note_on channel=0 note=77 velocity=0 time=160
note_on channel=0 note=80 velocity=74 time=0
note_on channel=0 note=80 velocity=0 time=0
note_on channel=0 note=84 velocity=74 time=0
note_on channel=0 note=84 velocity=0 time=0
note_on channel=0 note=60 velocity=0 time=0
note_on channel=0 note=56 velocity=0 time=0
note_on channel=0 note=53 velocity=0 time=0
note_on channel=0 note=82 velocity=58 time=0
note_on channel=0 note=36 velocity=47 time=0
note_on channel=0 note=82 velocity=0 time=63
note_on channel=0 note=79 velocity=49 time=0
note_on channel=0 note=36 velocity=0 time=80
note_on channel=0 note=79 velocity=0 time=80
note_on channel=0 note=76 velocity=49 time=0
note_on channel=0 note=76 velocity=0 time=160
note_on channel=0 note=70 velocity=55 time=0
note_on channel=0 note=58 velocity=40 time=0
note_on channel=0 note=55 velocity=34 time=0
note_on channel=0 note=52 velocity=34 time=0
note_on channel=0 note=48 velocity=34 time=0
note_on channel=0 note=70 velocity=0 time=160
note_on channel=0 note=67 velocity=50 time=0
note_on channel=0 note=52 velocity=0 time=80
note_on channel=0 note=48 velocity=0 time=0
note_on channel=0 note=58 velocity=0 time=0
note_on channel=0 note=55 velocity=0 time=0
note_on channel=0 note=67 velocity=0 time=0
note_on channel=0 note=64 velocity=50 time=0
note_on channel=0 note=64 velocity=0 time=0
note_on channel=0 note=82 velocity=56 time=0
note_on channel=0 note=36 velocity=47 time=0
note_on channel=0 note=82 velocity=0 time=160
note_on channel=0 note=79 velocity=49 time=0
note_on channel=0 note=36 velocity=0 time=80
note_on channel=0 note=79 velocity=0 time=80
note_on channel=0 note=76 velocity=49 time=0
note_on channel=0 note=76 velocity=0 time=160
note_on channel=0 note=70 velocity=55 time=0
note_on channel=0 note=58 velocity=40 time=0
note_on channel=0 note=55 velocity=34 time=0
note_on channel=0 note=52 velocity=34 time=0
note_on channel=0 note=48 velocity=34 time=0
note_on channel=0 note=70 velocity=0 time=160
note_on channel=0 note=67 velocity=50 time=0
note_on channel=0 note=52 velocity=0 time=80
note_on channel=0 note=48 velocity=0 time=0
note_on channel=0 note=58 velocity=0 time=0
note_on channel=0 note=55 velocity=0 time=0
note_on channel=0 note=67 velocity=0 time=80
note_on channel=0 note=64 velocity=50 time=0
note_on channel=0 note=64 velocity=0 time=0
note_on channel=0 note=37 velocity=94 time=0
note_on channel=0 note=37 velocity=0 time=143
note_on channel=0 note=56 velocity=88 time=240
note_on channel=0 note=53 velocity=80 time=0
note_on channel=0 note=49 velocity=73 time=0
note_on channel=0 note=49 velocity=0 time=120
note_on channel=0 note=53 velocity=0 time=0
note_on channel=0 note=56 velocity=0 time=0
note_on channel=0 note=56 velocity=88 time=360
note_on channel=0 note=53 velocity=80 time=0
note_on channel=0 note=49 velocity=73 time=0
note_on channel=0 note=65 velocity=74 time=0
note_on channel=0 note=65 velocity=0 time=160
note_on channel=0 note=68 velocity=74 time=0
note_on channel=0 note=68 velocity=0 time=160
note_on channel=0 note=73 velocity=78 time=0
note_on channel=0 note=73 velocity=0 time=160
note_on channel=0 note=77 velocity=74 time=0
note_on channel=0 note=77 velocity=0 time=0
note_on channel=0 note=80 velocity=74 time=0
note_on channel=0 note=80 velocity=0 time=0
note_on channel=0 note=56 velocity=0 time=0
note_on channel=0 note=53 velocity=0 time=0
note_on channel=0 note=49 velocity=0 time=0
note_on channel=0 note=78 velocity=58 time=0
note_on channel=0 note=32 velocity=47 time=0
note_on channel=0 note=78 velocity=0 time=74
note_on channel=0 note=75 velocity=49 time=0
note_on channel=0 note=32 velocity=0 time=80
note_on channel=0 note=75 velocity=0 time=80
note_on channel=0 note=72 velocity=49 time=0
note_on channel=0 note=72 velocity=0 time=160
note_on channel=0 note=66 velocity=55 time=0
note_on channel=0 note=54 velocity=40 time=0
note_on channel=0 note=51 velocity=34 time=0
note_on channel=0 note=48 velocity=34 time=0
note_on channel=0 note=44 velocity=34 time=0
note_on channel=0 note=66 velocity=0 time=160
note_on channel=0 note=63 velocity=50 time=0
note_on channel=0 note=48 velocity=0 time=80
note_on channel=0 note=44 velocity=0 time=0
note_on channel=0 note=54 velocity=0 time=0
note_on channel=0 note=51 velocity=0 time=0
note_on channel=0 note=63 velocity=0 time=0
note_on channel=0 note=60 velocity=50 time=0
note_on channel=0 note=60 velocity=0 time=0
note_on channel=0 note=78 velocity=56 time=0
note_on channel=0 note=33 velocity=47 time=0
note_on channel=0 note=78 velocity=0 time=63
note_on channel=0 note=75 velocity=49 time=0
note_on channel=0 note=33 velocity=0 time=80
note_on channel=0 note=75 velocity=0 time=80
note_on channel=0 note=72 velocity=49 time=0
note_on channel=0 note=72 velocity=0 time=160
note_on channel=0 note=66 velocity=55 time=0
note_on channel=0 note=54 velocity=40 time=0
note_on channel=0 note=51 velocity=34 time=0
note_on channel=0 note=48 velocity=34 time=0
note_on channel=0 note=45 velocity=34 time=0
note_on channel=0 note=66 velocity=0 time=160
note_on channel=0 note=63 velocity=50 time=0
note_on channel=0 note=48 velocity=0 time=80
note_on channel=0 note=45 velocity=0 time=0
note_on channel=0 note=54 velocity=0 time=0
note_on channel=0 note=51 velocity=0 time=0
note_on channel=0 note=63 velocity=0 time=80
note_on channel=0 note=60 velocity=50 time=0
note_on channel=0 note=60 velocity=0 time=0
note_on channel=0 note=34 velocity=58 time=0
note_on channel=0 note=34 velocity=0 time=110
note_on channel=0 note=53 velocity=39 time=0
note_on channel=0 note=53 velocity=0 time=160
note_on channel=0 note=58 velocity=40 time=0
note_on channel=0 note=58 velocity=0 time=160
note_on channel=0 note=61 velocity=41 time=0
note_on channel=0 note=53 velocity=32 time=0
note_on channel=0 note=49 velocity=27 time=0
note_on channel=0 note=46 velocity=27 time=0
note_on channel=0 note=61 velocity=0 time=160
note_on channel=0 note=65 velocity=43 time=0
note_on channel=0 note=53 velocity=0 time=80
note_on channel=0 note=46 velocity=0 time=0
note_on channel=0 note=49 velocity=0 time=0
note_on channel=0 note=65 velocity=0 time=80
note_on channel=0 note=70 velocity=44 time=0
note_on channel=0 note=70 velocity=0 time=160
note_on channel=0 note=73 velocity=46 time=0
note_on channel=0 note=46 velocity=27 time=0
note_on channel=0 note=49 velocity=27 time=0
note_on channel=0 note=53 velocity=32 time=0
note_on channel=0 note=73 velocity=0 time=160
note_on channel=0 note=77 velocity=45 time=0
note_on channel=0 note=77 velocity=0 time=0
note_on channel=0 note=82 velocity=47 time=0
note_on channel=0 note=82 velocity=0 time=0
note_on channel=0 note=85 velocity=49 time=0
note_on channel=0 note=85 velocity=0 time=160
note_on channel=0 note=89 velocity=45 time=0
note_on channel=0 note=89 velocity=0 time=0
note_on channel=0 note=77 velocity=41 time=0
note_on channel=0 note=77 velocity=0 time=0
note_on channel=0 note=53 velocity=0 time=0
note_on channel=0 note=49 velocity=0 time=0
note_on channel=0 note=46 velocity=0 time=0
note_on channel=0 note=32 velocity=58 time=0
note_on channel=0 note=32 velocity=0 time=107
note_on channel=0 note=53 velocity=39 time=0
note_on channel=0 note=53 velocity=0 time=160
note_on channel=0 note=56 velocity=40 time=0
note_on channel=0 note=56 velocity=0 time=160
note_on channel=0 note=60 velocity=41 time=0
note_on channel=0 note=53 velocity=32 time=0
note_on channel=0 note=48 velocity=27 time=0
note_on channel=0 note=44 velocity=27 time=0
note_on channel=0 note=60 velocity=0 time=160
note_on channel=0 note=65 velocity=43 time=0
note_on channel=0 note=53 velocity=0 time=80
note_on channel=0 note=44 velocity=0 time=0
note_on channel=0 note=48 velocity=0 time=0
note_on channel=0 note=65 velocity=0 time=80
note_on channel=0 note=68 velocity=44 time=0
note_on channel=0 note=68 velocity=0 time=160
note_on channel=0 note=72 velocity=46 time=0
note_on channel=0 note=44 velocity=27 time=0
note_on channel=0 note=48 velocity=27 time=0
note_on channel=0 note=53 velocity=32 time=0
note_on channel=0 note=72 velocity=0 time=160
note_on channel=0 note=77 velocity=45 time=0
note_on channel=0 note=77 velocity=0 time=0
note_on channel=0 note=80 velocity=47 time=0
note_on channel=0 note=80 velocity=0 time=0
note_on channel=0 note=84 velocity=49 time=0
note_on channel=0 note=84 velocity=0 time=160
note_on channel=0 note=89 velocity=45 time=0
note_on channel=0 note=89 velocity=0 time=0
note_on channel=0 note=77 velocity=41 time=0
note_on channel=0 note=77 velocity=0 time=0
note_on channel=0 note=53 velocity=0 time=0
note_on channel=0 note=48 velocity=0 time=0
note_on channel=0 note=44 velocity=0 time=0
note_on channel=0 note=31 velocity=58 time=0
note_on channel=0 note=31 velocity=0 time=96
note_on channel=0 note=53 velocity=39 time=0
note_on channel=0 note=53 velocity=0 time=160
note_on channel=0 note=59 velocity=40 time=0
note_on channel=0 note=59 velocity=0 time=160
note_on channel=0 note=62 velocity=41 time=0
note_on channel=0 note=43 velocity=27 time=0
note_on channel=0 note=53 velocity=32 time=0
note_on channel=0 note=50 velocity=27 time=0
note_on channel=0 note=47 velocity=27 time=0
note_on channel=0 note=62 velocity=0 time=160
note_on channel=0 note=65 velocity=43 time=0
note_on channel=0 note=50 velocity=0 time=80
note_on channel=0 note=47 velocity=0 time=0
note_on channel=0 note=43 velocity=0 time=0
note_on channel=0 note=53 velocity=0 time=0
note_on channel=0 note=65 velocity=0 time=80
note_on channel=0 note=71 velocity=44 time=0
note_on channel=0 note=71 velocity=0 time=160
note_on channel=0 note=74 velocity=46 time=0
note_on channel=0 note=43 velocity=27 time=0
note_on channel=0 note=47 velocity=27 time=0
note_on channel=0 note=50 velocity=27 time=0
note_on channel=0 note=53 velocity=32 time=0
note_on channel=0 note=74 velocity=0 time=160
note_on channel=0 note=77 velocity=45 time=0
note_on channel=0 note=77 velocity=0 time=0
note_on channel=0 note=83 velocity=47 time=0
note_on channel=0 note=83 velocity=0 time=0
note_on channel=0 note=86 velocity=49 time=0
note_on channel=0 note=86 velocity=0 time=160
note_on channel=0 note=89 velocity=45 time=0
note_on channel=0 note=89 velocity=0 time=0
note_on channel=0 note=77 velocity=41 time=0
note_on channel=0 note=77 velocity=0 time=0
note_on channel=0 note=53 velocity=0 time=0
note_on channel=0 note=43 velocity=0 time=0
note_on channel=0 note=47 velocity=0 time=0
note_on channel=0 note=50 velocity=0 time=0
note_on channel=0 note=32 velocity=58 time=0
note_on channel=0 note=32 velocity=0 time=94
note_on channel=0 note=51 velocity=39 time=0
note_on channel=0 note=51 velocity=0 time=160
note_on channel=0 note=56 velocity=40 time=0
note_on channel=0 note=56 velocity=0 time=160
note_on channel=0 note=60 velocity=41 time=0
note_on channel=0 note=51 velocity=32 time=0
note_on channel=0 note=48 velocity=27 time=0
note_on channel=0 note=44 velocity=27 time=0
note_on channel=0 note=60 velocity=0 time=160
note_on channel=0 note=63 velocity=43 time=0
note_on channel=0 note=51 velocity=0 time=80
note_on channel=0 note=44 velocity=0 time=0
note_on channel=0 note=48 velocity=0 time=0
note_on channel=0 note=63 velocity=0 time=80
note_on channel=0 note=68 velocity=44 time=0
note_on channel=0 note=68 velocity=0 time=160
note_on channel=0 note=72 velocity=46 time=0
note_on channel=0 note=44 velocity=27 time=0
note_on channel=0 note=48 velocity=27 time=0
note_on channel=0 note=51 velocity=32 time=0
note_on channel=0 note=72 velocity=0 time=160
note_on channel=0 note=75 velocity=45 time=0
note_on channel=0 note=75 velocity=0 time=0
note_on channel=0 note=80 velocity=47 time=0
note_on channel=0 note=80 velocity=0 time=0
note_on channel=0 note=84 velocity=49 time=0
note_on channel=0 note=84 velocity=0 time=160
note_on channel=0 note=87 velocity=45 time=0
note_on channel=0 note=87 velocity=0 time=0
note_on channel=0 note=75 velocity=41 time=0
note_on channel=0 note=75 velocity=0 time=0
note_on channel=0 note=51 velocity=0 time=0
note_on channel=0 note=48 velocity=0 time=0
note_on channel=0 note=44 velocity=0 time=0
note_on channel=0 note=33 velocity=41 time=0
note_on channel=0 note=33 velocity=0 time=97
note_on channel=0 note=36 velocity=37 time=0
note_on channel=0 note=36 velocity=0 time=160
note_on channel=0 note=39 velocity=37 time=0
note_on channel=0 note=39 velocity=0 time=160
note_on channel=0 note=42 velocity=41 time=0
note_on channel=0 note=42 velocity=0 time=160
note_on channel=0 note=45 velocity=37 time=0
note_on channel=0 note=45 velocity=0 time=160
note_on channel=0 note=48 velocity=37 time=0
note_on channel=0 note=48 velocity=0 time=160
note_on channel=0 note=51 velocity=41 time=0
note_on channel=0 note=51 velocity=0 time=160
note_on channel=0 note=54 velocity=38 time=0
note_on channel=0 note=54 velocity=0 time=160
note_on channel=0 note=57 velocity=39 time=0
note_on channel=0 note=57 velocity=0 time=160
note_on channel=0 note=60 velocity=45 time=0
note_on channel=0 note=60 velocity=0 time=160
note_on channel=0 note=63 velocity=41 time=0
note_on channel=0 note=63 velocity=0 time=160
note_on channel=0 note=66 velocity=41 time=0
note_on channel=0 note=66 velocity=0 time=160
note_on channel=0 note=69 velocity=46 time=0
note_on channel=0 note=69 velocity=0 time=160
note_on channel=0 note=72 velocity=41 time=0
note_on channel=0 note=72 velocity=0 time=160
note_on channel=0 note=75 velocity=41 time=0
note_on channel=0 note=75 velocity=0 time=160
note_on channel=0 note=78 velocity=46 time=0
note_on channel=0 note=78 velocity=0 time=160
note_on channel=0 note=81 velocity=41 time=0
note_on channel=0 note=81 velocity=0 time=160
note_on channel=0 note=84 velocity=41 time=0
note_on channel=0 note=84 velocity=0 time=0
note_on channel=0 note=87 velocity=47 time=0
note_on channel=0 note=87 velocity=0 time=0
note_on channel=0 note=84 velocity=43 time=0
note_on channel=0 note=84 velocity=0 time=0
note_on channel=0 note=81 velocity=43 time=0
note_on channel=0 note=81 velocity=0 time=0
note_on channel=0 note=90 velocity=47 time=0
note_on channel=0 note=90 velocity=0 time=0
note_on channel=0 note=87 velocity=43 time=0
note_on channel=0 note=87 velocity=0 time=0
note_on channel=0 note=84 velocity=43 time=0
note_on channel=0 note=84 velocity=0 time=0
note_on channel=0 note=31 velocity=41 time=0
note_on channel=0 note=36 velocity=41 time=0
note_on channel=0 note=40 velocity=41 time=0
note_on channel=0 note=43 velocity=41 time=0
note_on channel=0 note=91 velocity=49 time=0
note_on channel=0 note=79 velocity=41 time=0
note_on channel=0 note=43 velocity=0 time=120
note_on channel=0 note=40 velocity=0 time=0
note_on channel=0 note=31 velocity=0 time=0
note_on channel=0 note=36 velocity=0 time=0
note_on channel=0 note=89 velocity=49 time=0
note_on channel=0 note=77 velocity=41 time=0
note_on channel=0 note=79 velocity=0 time=10
note_on channel=0 note=91 velocity=0 time=0
note_on channel=0 note=88 velocity=49 time=110
note_on channel=0 note=76 velocity=41 time=0
note_on channel=0 note=89 velocity=0 time=10
note_on channel=0 note=77 velocity=0 time=0
note_on channel=0 note=86 velocity=48 time=110
note_on channel=0 note=74 velocity=40 time=0
note_on channel=0 note=88 velocity=0 time=10
note_on channel=0 note=76 velocity=0 time=0
note_on channel=0 note=84 velocity=48 time=110
note_on channel=0 note=72 velocity=40 time=0
note_on channel=0 note=86 velocity=0 time=10
note_on channel=0 note=74 velocity=0 time=0
note_on channel=0 note=83 velocity=47 time=110
note_on channel=0 note=71 velocity=39 time=0
note_on channel=0 note=84 velocity=0 time=10
note_on channel=0 note=72 velocity=0 time=0
note_on channel=0 note=81 velocity=39 time=110
note_on channel=0 note=69 velocity=39 time=0
note_on channel=0 note=83 velocity=0 time=10
note_on channel=0 note=71 velocity=0 time=0
note_on channel=0 note=67 velocity=39 time=110
note_on channel=0 note=79 velocity=47 time=0
note_on channel=0 note=81 velocity=0 time=10
note_on channel=0 note=69 velocity=0 time=0
note_on channel=0 note=67 velocity=0 time=20
note_on channel=0 note=79 velocity=0 time=0
note_on channel=0 note=65 velocity=38 time=0
note_on channel=0 note=77 velocity=45 time=0
note_on channel=0 note=64 velocity=38 time=20
note_on channel=0 note=76 velocity=45 time=0
note_on channel=0 note=77 velocity=0 time=10
note_on channel=0 note=65 velocity=0 time=0
note_on channel=0 note=62 velocity=37 time=0
note_on channel=0 note=74 velocity=44 time=0
note_on channel=0 note=64 velocity=0 time=10
note_on channel=0 note=76 velocity=0 time=0
note_on channel=0 note=60 velocity=37 time=20
note_on channel=0 note=72 velocity=44 time=0
note_on channel=0 note=62 velocity=0 time=10
note_on channel=0 note=74 velocity=0 time=0
note_on channel=0 note=59 velocity=36 time=0
note_on channel=0 note=71 velocity=43 time=0
note_on channel=0 note=60 velocity=0 time=10
note_on channel=0 note=72 velocity=0 time=0
note_on channel=0 note=57 velocity=35 time=0
note_on channel=0 note=69 velocity=42 time=0
note_on channel=0 note=59 velocity=0 time=10
note_on channel=0 note=71 velocity=0 time=0
note_on channel=0 note=60 velocity=35 time=0
note_on channel=0 note=55 velocity=35 time=0
note_on channel=0 note=64 velocity=35 time=0
note_on channel=0 note=67 velocity=42 time=0
note_on channel=0 note=57 velocity=0 time=10
note_on channel=0 note=69 velocity=0 time=0
note_on channel=0 note=31 velocity=29 time=0
note_on channel=0 note=43 velocity=35 time=0
note_on channel=0 note=33 velocity=29 time=120
note_on channel=0 note=45 velocity=35 time=0
note_on channel=0 note=43 velocity=0 time=10
note_on channel=0 note=31 velocity=0 time=0
note_on channel=0 note=35 velocity=30 time=110
note_on channel=0 note=47 velocity=36 time=0
note_on channel=0 note=45 velocity=0 time=10
note_on channel=0 note=33 velocity=0 time=0
note_on channel=0 note=36 velocity=31 time=110
note_on channel=0 note=48 velocity=37 time=0
note_on channel=0 note=47 velocity=0 time=10
note_on channel=0 note=35 velocity=0 time=0
note_on channel=0 note=38 velocity=31 time=110
note_on channel=0 note=50 velocity=37 time=0
note_on channel=0 note=48 velocity=0 time=10
note_on channel=0 note=36 velocity=0 time=0
note_on channel=0 note=40 velocity=32 time=110
note_on channel=0 note=52 velocity=38 time=0
note_on channel=0 note=50 velocity=0 time=10
note_on channel=0 note=38 velocity=0 time=0
note_on channel=0 note=41 velocity=32 time=110
note_on channel=0 note=53 velocity=38 time=0
note_on channel=0 note=52 velocity=0 time=10
note_on channel=0 note=40 velocity=0 time=0
note_on channel=0 note=64 velocity=0 time=110
note_on channel=0 note=55 velocity=0 time=0
note_on channel=0 note=60 velocity=0 time=0
note_on channel=0 note=59 velocity=35 time=0
note_on channel=0 note=62 velocity=35 time=0
note_on channel=0 note=43 velocity=33 time=0
note_on channel=0 note=55 velocity=39 time=0
note_on channel=0 note=53 velocity=0 time=10
note_on channel=0 note=41 velocity=0 time=0
note_on channel=0 note=43 velocity=0 time=230
note_on channel=0 note=55 velocity=0 time=0
note_on channel=0 note=45 velocity=31 time=0
note_on channel=0 note=57 velocity=37 time=0
note_on channel=0 note=47 velocity=32 time=120
note_on channel=0 note=59 velocity=38 time=0
note_on channel=0 note=57 velocity=0 time=10
note_on channel=0 note=45 velocity=0 time=0
note_on channel=0 note=62 velocity=0 time=110
note_on channel=0 note=67 velocity=0 time=0
note_on channel=0 note=59 velocity=0 time=0
note_on channel=0 note=74 velocity=42 time=0
note_on channel=0 note=77 velocity=46 time=0
note_on channel=0 note=48 velocity=33 time=0
note_on channel=0 note=60 velocity=39 time=0
note_on channel=0 note=59 velocity=0 time=10
note_on channel=0 note=47 velocity=0 time=0
note_on channel=0 note=50 velocity=34 time=110
note_on channel=0 note=62 velocity=40 time=0
note_on channel=0 note=48 velocity=0 time=10
note_on channel=0 note=60 velocity=0 time=0
note_on channel=0 note=52 velocity=35 time=110
note_on channel=0 note=64 velocity=42 time=0
note_on channel=0 note=50 velocity=0 time=10
note_on channel=0 note=62 velocity=0 time=0
note_on channel=0 note=53 velocity=36 time=110
note_on channel=0 note=65 velocity=43 time=0
note_on channel=0 note=52 velocity=0 time=10
note_on channel=0 note=64 velocity=0 time=0
note_on channel=0 note=74 velocity=0 time=110
note_on channel=0 note=77 velocity=0 time=0
note_on channel=0 note=72 velocity=41 time=0
note_on channel=0 note=76 velocity=49 time=0
note_on channel=0 note=55 velocity=37 time=0
note_on channel=0 note=67 velocity=44 time=0
note_on channel=0 note=65 velocity=0 time=10
note_on channel=0 note=53 velocity=0 time=0
note_on channel=0 note=76 velocity=0 time=50
note_on channel=0 note=72 velocity=0 time=0
note_on channel=0 note=91 velocity=49 time=0
note_on channel=0 note=79 velocity=41 time=0
note_on channel=0 note=67 velocity=0 time=120
note_on channel=0 note=55 velocity=0 time=0
note_on channel=0 note=89 velocity=49 time=0
note_on channel=0 note=77 velocity=41 time=0
note_on channel=0 note=91 velocity=0 time=10
note_on channel=0 note=79 velocity=0 time=0
note_on channel=0 note=88 velocity=49 time=110
note_on channel=0 note=76 velocity=41 time=0
note_on channel=0 note=89 velocity=0 time=10
note_on channel=0 note=77 velocity=0 time=0
note_on channel=0 note=86 velocity=48 time=110
note_on channel=0 note=74 velocity=40 time=0
note_on channel=0 note=88 velocity=0 time=10
note_on channel=0 note=76 velocity=0 time=0
note_on channel=0 note=84 velocity=48 time=110
note_on channel=0 note=72 velocity=40 time=0
note_on channel=0 note=86 velocity=0 time=10
note_on channel=0 note=74 velocity=0 time=0
note_on channel=0 note=83 velocity=47 time=110
note_on channel=0 note=71 velocity=39 time=0
note_on channel=0 note=84 velocity=0 time=10
note_on channel=0 note=72 velocity=0 time=0
note_on channel=0 note=81 velocity=39 time=110
note_on channel=0 note=69 velocity=39 time=0
note_on channel=0 note=83 velocity=0 time=10
note_on channel=0 note=71 velocity=0 time=0
note_on channel=0 note=67 velocity=39 time=110
note_on channel=0 note=79 velocity=47 time=0
note_on channel=0 note=81 velocity=0 time=10
note_on channel=0 note=69 velocity=0 time=0
note_on channel=0 note=67 velocity=0 time=20
note_on channel=0 note=79 velocity=0 time=0
note_on channel=0 note=65 velocity=38 time=0
note_on channel=0 note=77 velocity=45 time=0
note_on channel=0 note=64 velocity=38 time=20
note_on channel=0 note=76 velocity=45 time=0
note_on channel=0 note=77 velocity=0 time=10
note_on channel=0 note=65 velocity=0 time=0
note_on channel=0 note=62 velocity=37 time=0
note_on channel=0 note=74 velocity=44 time=0
note_on channel=0 note=64 velocity=0 time=10
note_on channel=0 note=76 velocity=0 time=0
note_on channel=0 note=60 velocity=37 time=20
note_on channel=0 note=72 velocity=44 time=0
note_on channel=0 note=62 velocity=0 time=10
note_on channel=0 note=74 velocity=0 time=0
note_on channel=0 note=59 velocity=36 time=0
note_on channel=0 note=71 velocity=43 time=0
note_on channel=0 note=60 velocity=0 time=10
note_on channel=0 note=72 velocity=0 time=0
note_on channel=0 note=57 velocity=35 time=0
note_on channel=0 note=69 velocity=42 time=0
note_on channel=0 note=59 velocity=0 time=10
note_on channel=0 note=71 velocity=0 time=0
note_on channel=0 note=60 velocity=35 time=0
note_on channel=0 note=55 velocity=35 time=0
note_on channel=0 note=64 velocity=35 time=0
note_on channel=0 note=67 velocity=42 time=0
note_on channel=0 note=57 velocity=0 time=10
note_on channel=0 note=69 velocity=0 time=0
note_on channel=0 note=31 velocity=29 time=0
note_on channel=0 note=43 velocity=35 time=0
note_on channel=0 note=33 velocity=29 time=120
note_on channel=0 note=45 velocity=35 time=0
note_on channel=0 note=43 velocity=0 time=10
note_on channel=0 note=31 velocity=0 time=0
note_on channel=0 note=35 velocity=30 time=110
note_on channel=0 note=47 velocity=36 time=0
note_on channel=0 note=45 velocity=0 time=10
note_on channel=0 note=33 velocity=0 time=0
note_on channel=0 note=36 velocity=31 time=110
note_on channel=0 note=48 velocity=37 time=0
note_on channel=0 note=47 velocity=0 time=10
note_on channel=0 note=35 velocity=0 time=0
note_on channel=0 note=38 velocity=31 time=110
note_on channel=0 note=50 velocity=37 time=0
note_on channel=0 note=48 velocity=0 time=10
note_on channel=0 note=36 velocity=0 time=0
note_on channel=0 note=40 velocity=32 time=110
note_on channel=0 note=52 velocity=38 time=0
note_on channel=0 note=50 velocity=0 time=10
note_on channel=0 note=38 velocity=0 time=0
note_on channel=0 note=41 velocity=32 time=110
note_on channel=0 note=53 velocity=38 time=0
note_on channel=0 note=52 velocity=0 time=10
note_on channel=0 note=40 velocity=0 time=0
note_on channel=0 note=64 velocity=0 time=110
note_on channel=0 note=55 velocity=0 time=0
note_on channel=0 note=60 velocity=0 time=0
note_on channel=0 note=59 velocity=35 time=0
note_on channel=0 note=62 velocity=35 time=0
note_on channel=0 note=43 velocity=33 time=0
note_on channel=0 note=55 velocity=39 time=0
note_on channel=0 note=53 velocity=0 time=10
note_on channel=0 note=41 velocity=0 time=0
note_on channel=0 note=43 velocity=0 time=230
note_on channel=0 note=55 velocity=0 time=0
note_on channel=0 note=45 velocity=31 time=0
note_on channel=0 note=57 velocity=37 time=0
note_on channel=0 note=47 velocity=32 time=120
note_on channel=0 note=59 velocity=38 time=0
note_on channel=0 note=57 velocity=0 time=10
note_on channel=0 note=45 velocity=0 time=0
note_on channel=0 note=62 velocity=0 time=110
note_on channel=0 note=67 velocity=0 time=0
note_on channel=0 note=59 velocity=0 time=0
note_on channel=0 note=74 velocity=42 time=0
note_on channel=0 note=77 velocity=46 time=0
note_on channel=0 note=48 velocity=33 time=0
note_on channel=0 note=60 velocity=39 time=0
note_on channel=0 note=59 velocity=0 time=10
note_on channel=0 note=47 velocity=0 time=0
note_on channel=0 note=50 velocity=34 time=110
note_on channel=0 note=62 velocity=40 time=0
note_on channel=0 note=48 velocity=0 time=10
note_on channel=0 note=60 velocity=0 time=0
note_on channel=0 note=52 velocity=35 time=110
note_on channel=0 note=64 velocity=42 time=0
note_on channel=0 note=50 velocity=0 time=10
note_on channel=0 note=62 velocity=0 time=0
note_on channel=0 note=53 velocity=36 time=110
note_on channel=0 note=65 velocity=43 time=0
note_on channel=0 note=52 velocity=0 time=10
note_on channel=0 note=64 velocity=0 time=0
note_on channel=0 note=74 velocity=0 time=0
note_on channel=0 note=77 velocity=0 time=0
note_on channel=0 note=72 velocity=41 time=0
note_on channel=0 note=76 velocity=49 time=0
note_on channel=0 note=55 velocity=37 time=0
note_on channel=0 note=67 velocity=44 time=0
note_on channel=0 note=65 velocity=0 time=10
note_on channel=0 note=53 velocity=0 time=0
note_on channel=0 note=76 velocity=0 time=50
note_on channel=0 note=72 velocity=0 time=0
note_on channel=0 note=91 velocity=49 time=0
note_on channel=0 note=79 velocity=41 time=0
note_on channel=0 note=67 velocity=0 time=120
note_on channel=0 note=55 velocity=0 time=0
note_on channel=0 note=89 velocity=49 time=0
note_on channel=0 note=77 velocity=41 time=0
note_on channel=0 note=91 velocity=0 time=10
note_on channel=0 note=79 velocity=0 time=0
note_on channel=0 note=88 velocity=49 time=110
note_on channel=0 note=76 velocity=41 time=0
note_on channel=0 note=89 velocity=0 time=10
note_on channel=0 note=77 velocity=0 time=0
note_on channel=0 note=86 velocity=48 time=110
note_on channel=0 note=74 velocity=40 time=0
note_on channel=0 note=88 velocity=0 time=10
note_on channel=0 note=76 velocity=0 time=0
note_on channel=0 note=84 velocity=48 time=110
note_on channel=0 note=72 velocity=40 time=0
note_on channel=0 note=86 velocity=0 time=10
note_on channel=0 note=74 velocity=0 time=0
note_on channel=0 note=83 velocity=47 time=110
note_on channel=0 note=71 velocity=39 time=0
note_on channel=0 note=84 velocity=0 time=10
note_on channel=0 note=72 velocity=0 time=0
note_on channel=0 note=81 velocity=39 time=110
note_on channel=0 note=69 velocity=39 time=0
note_on channel=0 note=83 velocity=0 time=10
note_on channel=0 note=71 velocity=0 time=0
note_on channel=0 note=67 velocity=39 time=110
note_on channel=0 note=79 velocity=47 time=0
note_on channel=0 note=81 velocity=0 time=10
note_on channel=0 note=69 velocity=0 time=0
note_on channel=0 note=67 velocity=0 time=20
note_on channel=0 note=79 velocity=0 time=0
note_on channel=0 note=65 velocity=38 time=0
note_on channel=0 note=77 velocity=45 time=0
note_on channel=0 note=64 velocity=38 time=20
note_on channel=0 note=76 velocity=45 time=0
note_on channel=0 note=77 velocity=0 time=10
note_on channel=0 note=65 velocity=0 time=0
note_on channel=0 note=62 velocity=37 time=0
note_on channel=0 note=74 velocity=44 time=0
note_on channel=0 note=64 velocity=0 time=10
note_on channel=0 note=76 velocity=0 time=0
note_on channel=0 note=60 velocity=37 time=20
note_on channel=0 note=72 velocity=44 time=0
note_on channel=0 note=62 velocity=0 time=10
note_on channel=0 note=74 velocity=0 time=0
note_on channel=0 note=59 velocity=36 time=0
note_on channel=0 note=71 velocity=43 time=0
note_on channel=0 note=60 velocity=0 time=10
note_on channel=0 note=72 velocity=0 time=0
note_on channel=0 note=57 velocity=35 time=0
note_on channel=0 note=69 velocity=42 time=0
note_on channel=0 note=59 velocity=0 time=10
note_on channel=0 note=71 velocity=0 time=0
note_on channel=0 note=55 velocity=44 time=20
note_on channel=0 note=67 velocity=44 time=0
note_on channel=0 note=57 velocity=0 time=10
note_on channel=0 note=69 velocity=0 time=0
note_on channel=0 note=57 velocity=46 time=0
note_on channel=0 note=55 velocity=35 time=0
note_on channel=0 note=55 velocity=0 time=10
note_on channel=0 note=67 velocity=0 time=0
note_on channel=0 note=59 velocity=47 time=110
note_on channel=0 note=53 velocity=37 time=0
note_on channel=0 note=57 velocity=0 time=10
note_on channel=0 note=55 velocity=0 time=0
note_on channel=0 note=60 velocity=49 time=110
note_on channel=0 note=52 velocity=38 time=0
note_on channel=0 note=59 velocity=0 time=10
note_on channel=0 note=53 velocity=0 time=0
note_on channel=0 note=62 velocity=51 time=110
note_on channel=0 note=50 velocity=40 time=0
note_on channel=0 note=60 velocity=0 time=10
note_on channel=0 note=52 velocity=0 time=0
note_on channel=0 note=64 velocity=53 time=110
note_on channel=0 note=48 velocity=41 time=0
note_on channel=0 note=62 velocity=0 time=10
note_on channel=0 note=50 velocity=0 time=0
note_on channel=0 note=65 velocity=54 time=110
note_on channel=0 note=47 velocity=43 time=0
note_on channel=0 note=64 velocity=0 time=10
note_on channel=0 note=48 velocity=0 time=0
note_on channel=0 note=66 velocity=56 time=110
note_on channel=0 note=45 velocity=44 time=0
note_on channel=0 note=65 velocity=0 time=10
note_on channel=0 note=47 velocity=0 time=0
note_on channel=0 note=67 velocity=58 time=110
note_on channel=0 note=43 velocity=46 time=0
note_on channel=0 note=66 velocity=0 time=10
note_on channel=0 note=45 velocity=0 time=0
note_on channel=0 note=69 velocity=59 time=45
note_on channel=0 note=67 velocity=0 time=10
note_on channel=0 note=43 velocity=0 time=20
note_on channel=0 note=71 velocity=61 time=0
note_on channel=0 note=41 velocity=47 time=0
note_on channel=0 note=69 velocity=0 time=10
note_on channel=0 note=72 velocity=63 time=40
note_on channel=0 note=40 velocity=48 time=0
note_on channel=0 note=41 velocity=0 time=10
note_on channel=0 note=71 velocity=0 time=0
note_on channel=0 note=74 velocity=65 time=0
note_on channel=0 note=38 velocity=50 time=0
note_on channel=0 note=72 velocity=0 time=10
note_on channel=0 note=40 velocity=0 time=0
note_on channel=0 note=76 velocity=66 time=40
note_on channel=0 note=36 velocity=51 time=0
note_on channel=0 note=74 velocity=0 time=10
note_on channel=0 note=38 velocity=0 time=0
note_on channel=0 note=77 velocity=68 time=60
note_on channel=0 note=35 velocity=53 time=0
note_on channel=0 note=76 velocity=0 time=10
note_on channel=0 note=36 velocity=0 time=0
note_on channel=0 note=78 velocity=70 time=20
note_on channel=0 note=33 velocity=54 time=0
note_on channel=0 note=77 velocity=0 time=10
note_on channel=0 note=35 velocity=0 time=0
note_on channel=0 note=79 velocity=54 time=0
note_on channel=0 note=31 velocity=57 time=0
note_on channel=0 note=78 velocity=0 time=10
note_on channel=0 note=33 velocity=0 time=0
note_on channel=0 note=79 velocity=0 time=20
note_on channel=0 note=81 velocity=35 time=0
note_on channel=0 note=33 velocity=57 time=0
note_on channel=0 note=31 velocity=0 time=10
note_on channel=0 note=81 velocity=0 time=30
note_on channel=0 note=79 velocity=44 time=0
note_on channel=0 note=79 velocity=0 time=0
note_on channel=0 note=81 velocity=38 time=0
note_on channel=0 note=35 velocity=58 time=0
note_on channel=0 note=33 velocity=0 time=10
note_on channel=0 note=81 velocity=0 time=20
note_on channel=0 note=79 velocity=44 time=0
note_on channel=0 note=36 velocity=58 time=0
note_on channel=0 note=35 velocity=0 time=10
note_on channel=0 note=79 velocity=0 time=30
note_on channel=0 note=81 velocity=37 time=0
note_on channel=0 note=81 velocity=0 time=0
note_on channel=0 note=79 velocity=41 time=0
note_on channel=0 note=38 velocity=59 time=0
note_on channel=0 note=36 velocity=0 time=10
note_on channel=0 note=79 velocity=0 time=70
note_on channel=0 note=81 velocity=36 time=0
note_on channel=0 note=40 velocity=59 time=40
note_on channel=0 note=38 velocity=0 time=10
note_on channel=0 note=81 velocity=0 time=30
note_on channel=0 note=79 velocity=41 time=0
note_on channel=0 note=79 velocity=0 time=80
note_on channel=0 note=81 velocity=37 time=0
note_on channel=0 note=41 velocity=60 time=0
note_on channel=0 note=40 velocity=0 time=10
note_on channel=0 note=81 velocity=0 time=70
note_on channel=0 note=79 velocity=41 time=0
note_on channel=0 note=42 velocity=60 time=40
note_on channel=0 note=41 velocity=0 time=10
note_on channel=0 note=79 velocity=0 time=30
note_on channel=0 note=81 velocity=35 time=0
note_on channel=0 note=81 velocity=0 time=20
note_on channel=0 note=79 velocity=41 time=0
note_on channel=0 note=43 velocity=61 time=0
note_on channel=0 note=42 velocity=0 time=10
note_on channel=0 note=79 velocity=0 time=70
note_on channel=0 note=81 velocity=37 time=0
note_on channel=0 note=45 velocity=61 time=40
note_on channel=0 note=43 velocity=0 time=10
note_on channel=0 note=81 velocity=0 time=0
note_on channel=0 note=79 velocity=41 time=0
note_on channel=0 note=79 velocity=0 time=80
note_on channel=0 note=81 velocity=36 time=0
note_on channel=0 note=47 velocity=62 time=0
note_on channel=0 note=45 velocity=0 time=10
note_on channel=0 note=81 velocity=0 time=0
note_on channel=0 note=79 velocity=41 time=0
note_on channel=0 note=48 velocity=62 time=40
note_on channel=0 note=47 velocity=0 time=10
note_on channel=0 note=79 velocity=0 time=30
note_on channel=0 note=81 velocity=36 time=0
note_on channel=0 note=81 velocity=0 time=0
note_on channel=0 note=79 velocity=41 time=0
note_on channel=0 note=50 velocity=63 time=0
note_on channel=0 note=48 velocity=0 time=10
note_on channel=0 note=79 velocity=0 time=70
note_on channel=0 note=81 velocity=37 time=0
note_on channel=0 note=52 velocity=63 time=40
note_on channel=0 note=50 velocity=0 time=10
note_on channel=0 note=81 velocity=0 time=0
note_on channel=0 note=79 velocity=41 time=0
note_on channel=0 note=79 velocity=0 time=80
note_on channel=0 note=81 velocity=37 time=0
note_on channel=0 note=53 velocity=64 time=0
note_on channel=0 note=52 velocity=0 time=10
note_on channel=0 note=81 velocity=0 time=0
note_on channel=0 note=79 velocity=41 time=0
note_on channel=0 note=54 velocity=64 time=40
note_on channel=0 note=53 velocity=0 time=10
note_on channel=0 note=79 velocity=0 time=30
note_on channel=0 note=81 velocity=36 time=0
note_on channel=0 note=81 velocity=0 time=0
note_on channel=0 note=79 velocity=41 time=0
note_on channel=0 note=55 velocity=64 time=0
note_on channel=0 note=54 velocity=0 time=10
note_on channel=0 note=79 velocity=0 time=0
note_on channel=0 note=81 velocity=36 time=0
note_on channel=0 note=57 velocity=64 time=0
note_on channel=0 note=55 velocity=0 time=10
note_on channel=0 note=81 velocity=0 time=0
note_on channel=0 note=79 velocity=41 time=0
note_on channel=0 note=79 velocity=0 time=16
note_on channel=0 note=81 velocity=37 time=0
note_on channel=0 note=59 velocity=65 time=0
note_on channel=0 note=57 velocity=0 time=10
note_on channel=0 note=81 velocity=0 time=0
note_on channel=0 note=79 velocity=41 time=0
note_on channel=0 note=60 velocity=65 time=40
note_on channel=0 note=59 velocity=0 time=10
note_on channel=0 note=79 velocity=0 time=30
note_on channel=0 note=81 velocity=37 time=0
note_on channel=0 note=81 velocity=0 time=0
note_on channel=0 note=79 velocity=41 time=0
note_on channel=0 note=62 velocity=66 time=0
note_on channel=0 note=60 velocity=0 time=10
note_on channel=0 note=79 velocity=0 time=0
note_on channel=0 note=81 velocity=36 time=0
note_on channel=0 note=64 velocity=66 time=0
note_on channel=0 note=62 velocity=0 time=10
note_on channel=0 note=81 velocity=0 time=28
note_on channel=0 note=79 velocity=41 time=0
note_on channel=0 note=79 velocity=0 time=0
note_on channel=0 note=81 velocity=37 time=0
note_on channel=0 note=65 velocity=67 time=0
note_on channel=0 note=64 velocity=0 time=10
note_on channel=0 note=81 velocity=0 time=70
note_on channel=0 note=79 velocity=41 time=0
note_on channel=0 note=66 velocity=67 time=0
note_on channel=0 note=65 velocity=0 time=10
note_on channel=0 note=79 velocity=0 time=0
note_on channel=0 note=81 velocity=36 time=0
note_on channel=0 note=81 velocity=0 time=40
note_on channel=0 note=79 velocity=40 time=0
note_on channel=0 note=67 velocity=68 time=0
note_on channel=0 note=66 velocity=0 time=10
note_on channel=0 note=79 velocity=0 time=0
note_on channel=0 note=81 velocity=36 time=0
note_on channel=0 note=69 velocity=66 time=0
note_on channel=0 note=67 velocity=0 time=10
note_on channel=0 note=81 velocity=0 time=16
note_on channel=0 note=79 velocity=39 time=0
note_on channel=0 note=79 velocity=0 time=0
note_on channel=0 note=81 velocity=35 time=0
note_on channel=0 note=71 velocity=65 time=0
note_on channel=0 note=69 velocity=0 time=10
note_on channel=0 note=81 velocity=0 time=0
note_on channel=0 note=79 velocity=39 time=0
note_on channel=0 note=72 velocity=63 time=40
note_on channel=0 note=71 velocity=0 time=10
note_on channel=0 note=79 velocity=0 time=30
note_on channel=0 note=81 velocity=35 time=0
note_on channel=0 note=81 velocity=0 time=60
note_on channel=0 note=79 velocity=39 time=0
note_on channel=0 note=74 velocity=62 time=0
note_on channel=0 note=72 velocity=0 time=10
note_on channel=0 note=79 velocity=0 time=60
note_on channel=0 note=81 velocity=35 time=0
note_on channel=0 note=76 velocity=57 time=20
note_on channel=0 note=74 velocity=0 time=10
note_on channel=0 note=81 velocity=0 time=30
note_on channel=0 note=79 velocity=39 time=0
note_on channel=0 note=79 velocity=0 time=0
note_on channel=0 note=81 velocity=35 time=0
note_on channel=0 note=77 velocity=55 time=0
note_on channel=0 note=76 velocity=0 time=10
note_on channel=0 note=81 velocity=0 time=0
note_on channel=0 note=79 velocity=39 time=0
note_on channel=0 note=76 velocity=53 time=40
note_on channel=0 note=77 velocity=0 time=10
note_on channel=0 note=79 velocity=0 time=0
note_on channel=0 note=81 velocity=35 time=0
note_on channel=0 note=81 velocity=0 time=0
note_on channel=0 note=79 velocity=36 time=0
note_on channel=0 note=77 velocity=56 time=0
note_on channel=0 note=76 velocity=0 time=10
note_on channel=0 note=79 velocity=0 time=0
note_on channel=0 note=81 velocity=32 time=0
note_on channel=0 note=81 velocity=0 time=0
note_on channel=0 note=79 velocity=35 time=0
note_on channel=0 note=79 velocity=0 time=0
note_on channel=0 note=77 velocity=0 time=0
note_on channel=0 note=81 velocity=31 time=0
note_on channel=0 note=81 velocity=0 time=16
note_on channel=0 note=79 velocity=35 time=0
note_on channel=0 note=79 velocity=0 time=16
note_on channel=0 note=81 velocity=31 time=0
note_on channel=0 note=81 velocity=0 time=16
note_on channel=0 note=79 velocity=35 time=0
note_on channel=0 note=79 velocity=0 time=28
note_on channel=0 note=81 velocity=31 time=0
note_on channel=0 note=76 velocity=43 time=28
note_on channel=0 note=81 velocity=0 time=28
note_on channel=0 note=79 velocity=35 time=0
note_on channel=0 note=79 velocity=0 time=0
note_on channel=0 note=76 velocity=0 time=0
note_on channel=0 note=81 velocity=31 time=0
note_on channel=0 note=77 velocity=46 time=0
note_on channel=0 note=81 velocity=0 time=28
note_on channel=0 note=79 velocity=35 time=0
note_on channel=0 note=77 velocity=0 time=0
note_on channel=0 note=76 velocity=43 time=0
note_on channel=0 note=79 velocity=0 time=0
note_on channel=0 note=81 velocity=31 time=0
note_on channel=0 note=81 velocity=0 time=0
note_on channel=0 note=76 velocity=0 time=0
note_on channel=0 note=79 velocity=36 time=0
note_on channel=0 note=77 velocity=51 time=0
note_on channel=0 note=79 velocity=0 time=28
note_on channel=0 note=81 velocity=32 time=0
note_on channel=0 note=81 velocity=0 time=0
note_on channel=0 note=79 velocity=35 time=0
note_on channel=0 note=79 velocity=0 time=0
note_on channel=0 note=77 velocity=0 time=0
note_on channel=0 note=81 velocity=31 time=0
note_on channel=0 note=81 velocity=0 time=0
note_on channel=0 note=79 velocity=35 time=0
note_on channel=0 note=79 velocity=0 time=16
note_on channel=0 note=81 velocity=31 time=0
note_on channel=0 note=81 velocity=0 time=28
note_on channel=0 note=79 velocity=35 time=0
note_on channel=0 note=79 velocity=0 time=0
note_on channel=0 note=81 velocity=31 time=0
note_on channel=0 note=76 velocity=42 time=28
note_on channel=0 note=81 velocity=0 time=0
note_on channel=0 note=79 velocity=35 time=0
note_on channel=0 note=79 velocity=0 time=0
note_on channel=0 note=76 velocity=0 time=0
note_on channel=0 note=81 velocity=31 time=0
note_on channel=0 note=77 velocity=46 time=0
note_on channel=0 note=81 velocity=0 time=28
note_on channel=0 note=79 velocity=35 time=0
note_on channel=0 note=77 velocity=0 time=28
note_on channel=0 note=76 velocity=42 time=0
note_on channel=0 note=79 velocity=0 time=28
note_on channel=0 note=81 velocity=31 time=0
note_on channel=0 note=81 velocity=0 time=0
note_on channel=0 note=76 velocity=0 time=0
note_on channel=0 note=79 velocity=36 time=0
note_on channel=0 note=77 velocity=50 time=0
note_on channel=0 note=79 velocity=0 time=0
note_on channel=0 note=81 velocity=32 time=0
note_on channel=0 note=81 velocity=0 time=16
note_on channel=0 note=79 velocity=35 time=0
note_on channel=0 note=79 velocity=0 time=0
note_on channel=0 note=77 velocity=0 time=0
note_on channel=0 note=81 velocity=32 time=0
note_on channel=0 note=81 velocity=0 time=16
note_on channel=0 note=79 velocity=36 time=0
note_on channel=0 note=79 velocity=0 time=16
note_on channel=0 note=81 velocity=32 time=0
note_on channel=0 note=81 velocity=0 time=16
note_on channel=0 note=79 velocity=37 time=0
note_on channel=0 note=79 velocity=0 time=0
note_on channel=0 note=81 velocity=33 time=0
note_on channel=0 note=81 velocity=0 time=28
note_on channel=0 note=79 velocity=38 time=0
note_on channel=0 note=79 velocity=0 time=0
note_on channel=0 note=81 velocity=34 time=0
note_on channel=0 note=81 velocity=0 time=0
note_on channel=0 note=79 velocity=39 time=0
note_on channel=0 note=79 velocity=0 time=0
note_on channel=0 note=81 velocity=35 time=0
note_on channel=0 note=81 velocity=0 time=0
note_on channel=0 note=79 velocity=41 time=0
note_on channel=0 note=79 velocity=0 time=0
note_on channel=0 note=81 velocity=37 time=0
note_on channel=0 note=81 velocity=0 time=0
note_on channel=0 note=79 velocity=40 time=0
note_on channel=0 note=79 velocity=0 time=0
note_on channel=0 note=81 velocity=36 time=0
note_on channel=0 note=81 velocity=0 time=28
note_on channel=0 note=79 velocity=42 time=0
note_on channel=0 note=79 velocity=0 time=0
note_on channel=0 note=81 velocity=37 time=0
note_on channel=0 note=81 velocity=0 time=16
note_on channel=0 note=79 velocity=42 time=0
note_on channel=0 note=79 velocity=0 time=0
note_on channel=0 note=81 velocity=38 time=0
note_on channel=0 note=81 velocity=0 time=40
note_on channel=0 note=79 velocity=43 time=0
note_on channel=0 note=79 velocity=0 time=0
note_on channel=0 note=81 velocity=39 time=0
note_on channel=0 note=81 velocity=0 time=0
note_on channel=0 note=79 velocity=44 time=0
note_on channel=0 note=79 velocity=0 time=0
note_on channel=0 note=81 velocity=39 time=0
note_on channel=0 note=81 velocity=0 time=40
note_on channel=0 note=79 velocity=46 time=0
note_on channel=0 note=48 velocity=51 time=0
note_on channel=0 note=79 velocity=0 time=0
note_on channel=0 note=81 velocity=31 time=0
note_on channel=0 note=81 velocity=0 time=0
note_on channel=0 note=48 velocity=0 time=0
note_on channel=0 note=79 velocity=33 time=0
note_on channel=0 note=55 velocity=31 time=0
note_on channel=0 note=79 velocity=0 time=20
note_on channel=0 note=81 velocity=29 time=0
note_on channel=0 note=81 velocity=0 time=0
note_on channel=0 note=55 velocity=0 time=0
note_on channel=0 note=79 velocity=32 time=0
note_on channel=0 note=60 velocity=31 time=0
note_on channel=0 note=79 velocity=0 time=0
note_on channel=0 note=81 velocity=28 time=0
note_on channel=0 note=81 velocity=0 time=0
note_on channel=0 note=60 velocity=0 time=0
note_on channel=0 note=79 velocity=31 time=0
note_on channel=0 note=91 velocity=57 time=0
note_on channel=0 note=64 velocity=33 time=0
note_on channel=0 note=79 velocity=0 time=0
note_on channel=0 note=81 velocity=27 time=0
note_on channel=0 note=81 velocity=0 time=0
note_on channel=0 note=64 velocity=0 time=0
note_on channel=0 note=79 velocity=31 time=0
note_on channel=0 note=60 velocity=31 time=0
note_on channel=0 note=79 velocity=0 time=0
note_on channel=0 note=81 velocity=27 time=0
note_on channel=0 note=81 velocity=0 time=0
note_on channel=0 note=60 velocity=0 time=0
note_on channel=0 note=79 velocity=31 time=0
note_on channel=0 note=64 velocity=31 time=0
note_on channel=0 note=79 velocity=0 time=0
note_on channel=0 note=81 velocity=27 time=0
note_on channel=0 note=81 velocity=0 time=20
note_on channel=0 note=64 velocity=0 time=0
note_on channel=0 note=91 velocity=0 time=0
note_on channel=0 note=79 velocity=32 time=0
note_on channel=0 note=91 velocity=59 time=0
note_on channel=0 note=67 velocity=35 time=0
note_on channel=0 note=79 velocity=0 time=0
note_on channel=0 note=81 velocity=28 time=0
note_on channel=0 note=81 velocity=0 time=20
note_on channel=0 note=67 velocity=0 time=0
note_on channel=0 note=79 velocity=31 time=0
note_on channel=0 note=64 velocity=31 time=0
note_on channel=0 note=79 velocity=0 time=0
note_on channel=0 note=81 velocity=27 time=0
note_on channel=0 note=81 velocity=0 time=20
note_on channel=0 note=64 velocity=0 time=0
note_on channel=0 note=79 velocity=31 time=0
note_on channel=0 note=67 velocity=31 time=0
note_on channel=0 note=79 velocity=0 time=20
note_on channel=0 note=81 velocity=27 time=0
note_on channel=0 note=81 velocity=0 time=20
note_on channel=0 note=67 velocity=0 time=0
note_on channel=0 note=79 velocity=31 time=0
note_on channel=0 note=64 velocity=35 time=0
note_on channel=0 note=79 velocity=0 time=40
note_on channel=0 note=81 velocity=27 time=0
note_on channel=0 note=81 velocity=0 time=0
note_on channel=0 note=64 velocity=0 time=0
note_on channel=0 note=79 velocity=31 time=0
note_on channel=0 note=60 velocity=31 time=0
note_on channel=0 note=79 velocity=0 time=0
note_on channel=0 note=91 velocity=0 time=0
note_on channel=0 note=81 velocity=27 time=0
note_on channel=0 note=88 velocity=50 time=0
note_on channel=0 note=81 velocity=0 time=0
note_on channel=0 note=60 velocity=0 time=0
note_on channel=0 note=79 velocity=31 time=0
note_on channel=0 note=64 velocity=31 time=0
note_on channel=0 note=79 velocity=0 time=20
note_on channel=0 note=81 velocity=27 time=0
note_on channel=0 note=81 velocity=0 time=20
note_on channel=0 note=64 velocity=0 time=0
note_on channel=0 note=88 velocity=0 time=0
note_on channel=0 note=79 velocity=37 time=0
note_on channel=0 note=86 velocity=57 time=0
note_on channel=0 note=65 velocity=35 time=0
note_on channel=0 note=79 velocity=0 time=0
note_on channel=0 note=81 velocity=28 time=0
note_on channel=0 note=81 velocity=0 time=0
note_on channel=0 note=65 velocity=0 time=0
note_on channel=0 note=79 velocity=34 time=0
note_on channel=0 note=62 velocity=31 time=0
note_on channel=0 note=79 velocity=0 time=0
note_on channel=0 note=81 velocity=28 time=0
note_on channel=0 note=81 velocity=0 time=0
note_on channel=0 note=62 velocity=0 time=0
note_on channel=0 note=79 velocity=34 time=0
note_on channel=0 note=65 velocity=31 time=0
note_on channel=0 note=79 velocity=0 time=0
note_on channel=0 note=81 velocity=28 time=0
note_on channel=0 note=81 velocity=0 time=20
note_on channel=0 note=65 velocity=0 time=0
note_on channel=0 note=86 velocity=0 time=0
note_on channel=0 note=79 velocity=50 time=0
note_on channel=0 note=62 velocity=36 time=0
note_on channel=0 note=79 velocity=0 time=30
note_on channel=0 note=81 velocity=27 time=10
note_on channel=0 note=81 velocity=0 time=60
note_on channel=0 note=62 velocity=0 time=0
note_on channel=0 note=79 velocity=31 time=0
note_on channel=0 note=59 velocity=31 time=0
note_on channel=0 note=79 velocity=0 time=20
note_on channel=0 note=81 velocity=27 time=0
note_on channel=0 note=81 velocity=0 time=0
note_on channel=0 note=59 velocity=0 time=0
note_on channel=0 note=79 velocity=31 time=0
note_on channel=0 note=62 velocity=31 time=0
note_on channel=0 note=79 velocity=0 time=0
note_on channel=0 note=81 velocity=27 time=0
note_on channel=0 note=81 velocity=0 time=0
note_on channel=0 note=62 velocity=0 time=0
note_on channel=0 note=79 velocity=32 time=0
note_on channel=0 note=84 velocity=53 time=0
note_on channel=0 note=64 velocity=35 time=0
note_on channel=0 note=79 velocity=0 time=20
note_on channel=0 note=81 velocity=28 time=0
note_on channel=0 note=81 velocity=0 time=40
note_on channel=0 note=64 velocity=0 time=0
note_on channel=0 note=79 velocity=31 time=0
note_on channel=0 note=60 velocity=31 time=0
note_on channel=0 note=79 velocity=0 time=0
note_on channel=0 note=81 velocity=27 time=0
note_on channel=0 note=81 velocity=0 time=0
note_on channel=0 note=60 velocity=0 time=0
note_on channel=0 note=79 velocity=31 time=0
note_on channel=0 note=55 velocity=31 time=0
note_on channel=0 note=79 velocity=0 time=20
note_on channel=0 note=81 velocity=27 time=0
note_on channel=0 note=81 velocity=0 time=0
note_on channel=0 note=55 velocity=0 time=0
note_on channel=0 note=84 velocity=0 time=0
note_on channel=0 note=79 velocity=31 time=0
note_on channel=0 note=88 velocity=53 time=0
note_on channel=0 note=60 velocity=35 time=0
note_on channel=0 note=79 velocity=0 time=40
note_on channel=0 note=81 velocity=27 time=0
note_on channel=0 note=81 velocity=0 time=0
note_on channel=0 note=60 velocity=0 time=0
note_on channel=0 note=79 velocity=31 time=0
note_on channel=0 note=55 velocity=31 time=0
note_on channel=0 note=79 velocity=0 time=0
note_on channel=0 note=88 velocity=0 time=0
note_on channel=0 note=81 velocity=27 time=0
note_on channel=0 note=81 velocity=0 time=0
note_on channel=0 note=55 velocity=0 time=0
note_on channel=0 note=79 velocity=31 time=0
note_on channel=0 note=52 velocity=31 time=0
note_on channel=0 note=79 velocity=0 time=0
note_on channel=0 note=81 velocity=27 time=0
note_on channel=0 note=81 velocity=0 time=0
note_on channel=0 note=52 velocity=0 time=0
note_on channel=0 note=79 velocity=36 time=0
note_on channel=0 note=48 velocity=49 time=0
note_on channel=0 note=79 velocity=0 time=0
note_on channel=0 note=81 velocity=31 time=0
note_on channel=0 note=81 velocity=0 time=0
note_on channel=0 note=48 velocity=0 time=0
note_on channel=0 note=79 velocity=33 time=0
note_on channel=0 note=55 velocity=31 time=0
note_on channel=0 note=79 velocity=0 time=20
note_on channel=0 note=81 velocity=29 time=0
note_on channel=0 note=81 velocity=0 time=0
note_on channel=0 note=55 velocity=0 time=0
note_on channel=0 note=79 velocity=32 time=0
note_on channel=0 note=60 velocity=31 time=0
note_on channel=0 note=79 velocity=0 time=0
note_on channel=0 note=81 velocity=28 time=0
note_on channel=0 note=81 velocity=0 time=0
note_on channel=0 note=60 velocity=0 time=0
note_on channel=0 note=79 velocity=31 time=0
note_on channel=0 note=91 velocity=57 time=0
note_on channel=0 note=64 velocity=33 time=0
note_on channel=0 note=79 velocity=0 time=0
note_on channel=0 note=81 velocity=27 time=0
note_on channel=0 note=81 velocity=0 time=0
note_on channel=0 note=64 velocity=0 time=0
note_on channel=0 note=79 velocity=31 time=0
note_on channel=0 note=60 velocity=31 time=0
note_on channel=0 note=79 velocity=0 time=0
note_on channel=0 note=81 velocity=27 time=0
note_on channel=0 note=81 velocity=0 time=0
note_on channel=0 note=60 velocity=0 time=0
note_on channel=0 note=79 velocity=31 time=0
note_on channel=0 note=64 velocity=31 time=0
note_on channel=0 note=79 velocity=0 time=0
note_on channel=0 note=81 velocity=27 time=0
note_on channel=0 note=81 velocity=0 time=20
note_on channel=0 note=64 velocity=0 time=0
note_on channel=0 note=91 velocity=0 time=0
note_on channel=0 note=79 velocity=32 time=0
note_on channel=0 note=91 velocity=59 time=0
note_on channel=0 note=67 velocity=35 time=0
note_on channel=0 note=79 velocity=0 time=0
note_on channel=0 note=81 velocity=28 time=0
note_on channel=0 note=81 velocity=0 time=20
note_on channel=0 note=67 velocity=0 time=0
note_on channel=0 note=79 velocity=31 time=0
note_on channel=0 note=64 velocity=31 time=0
note_on channel=0 note=79 velocity=0 time=0
note_on channel=0 note=81 velocity=27 time=0
note_on channel=0 note=81 velocity=0 time=20
note_on channel=0 note=64 velocity=0 time=0
note_on channel=0 note=79 velocity=31 time=0
note_on channel=0 note=67 velocity=31 time=0
note_on channel=0 note=79 velocity=0 time=20
note_on channel=0 note=81 velocity=27 time=0
note_on channel=0 note=81 velocity=0 time=20
note_on channel=0 note=67 velocity=0 time=0
note_on channel=0 note=79 velocity=31 time=0
note_on channel=0 note=64 velocity=35 time=0
note_on channel=0 note=79 velocity=0 time=40
note_on channel=0 note=81 velocity=27 time=0
note_on channel=0 note=81 velocity=0 time=0
note_on channel=0 note=64 velocity=0 time=0
note_on channel=0 note=79 velocity=31 time=0
note_on channel=0 note=60 velocity=31 time=0
note_on channel=0 note=79 velocity=0 time=0
note_on channel=0 note=91 velocity=0 time=0
note_on channel=0 note=81 velocity=27 time=0
note_on channel=0 note=88 velocity=50 time=0
note_on channel=0 note=81 velocity=0 time=0
note_on channel=0 note=60 velocity=0 time=0
note_on channel=0 note=79 velocity=31 time=0
note_on channel=0 note=64 velocity=31 time=0
note_on channel=0 note=79 velocity=0 time=20
note_on channel=0 note=81 velocity=27 time=0
note_on channel=0 note=81 velocity=0 time=20
note_on channel=0 note=64 velocity=0 time=0
note_on channel=0 note=88 velocity=0 time=0
note_on channel=0 note=79 velocity=32 time=0
note_on channel=0 note=86 velocity=57 time=0
note_on channel=0 note=65 velocity=35 time=0
note_on channel=0 note=79 velocity=0 time=0
note_on channel=0 note=81 velocity=28 time=0
note_on channel=0 note=81 velocity=0 time=0
note_on channel=0 note=65 velocity=0 time=0
note_on channel=0 note=79 velocity=31 time=0
note_on channel=0 note=62 velocity=31 time=0
note_on channel=0 note=79 velocity=0 time=0
note_on channel=0 note=81 velocity=27 time=0
note_on channel=0 note=81 velocity=0 time=0
note_on channel=0 note=62 velocity=0 time=0
note_on channel=0 note=79 velocity=31 time=0
note_on channel=0 note=65 velocity=31 time=0
note_on channel=0 note=79 velocity=0 time=0
note_on channel=0 note=81 velocity=27 time=0
note_on channel=0 note=81 velocity=0 time=20
note_on channel=0 note=65 velocity=0 time=0
note_on channel=0 note=86 velocity=0 time=0
note_on channel=0 note=79 velocity=31 time=0
note_on channel=0 note=79 velocity=50 time=0
note_on channel=0 note=59 velocity=36 time=0
note_on channel=0 note=79 velocity=0 time=30
note_on channel=0 note=79 velocity=0 time=10
note_on channel=0 note=81 velocity=27 time=0
note_on channel=0 note=81 velocity=0 time=60
note_on channel=0 note=59 velocity=0 time=0
note_on channel=0 note=79 velocity=31 time=0
note_on channel=0 note=62 velocity=31 time=0
note_on channel=0 note=79 velocity=0 time=20
note_on channel=0 note=81 velocity=27 time=0
note_on channel=0 note=81 velocity=0 time=0
note_on channel=0 note=62 velocity=0 time=0
note_on channel=0 note=79 velocity=31 time=0
note_on channel=0 note=59 velocity=31 time=0
note_on channel=0 note=79 velocity=0 time=0
note_on channel=0 note=81 velocity=27 time=0
note_on channel=0 note=81 velocity=0 time=0
note_on channel=0 note=59 velocity=0 time=0
note_on channel=0 note=79 velocity=32 time=0
note_on channel=0 note=84 velocity=53 time=0
note_on channel=0 note=60 velocity=35 time=0
note_on channel=0 note=79 velocity=0 time=20
note_on channel=0 note=81 velocity=28 time=0
note_on channel=0 note=81 velocity=0 time=0
note_on channel=0 note=60 velocity=0 time=0
note_on channel=0 note=79 velocity=32 time=0
note_on channel=0 note=57 velocity=31 time=0
note_on channel=0 note=79 velocity=0 time=39
note_on channel=0 note=84 velocity=0 time=0
note_on channel=0 note=81 velocity=28 time=0
note_on channel=0 note=81 velocity=0 time=0
note_on channel=0 note=57 velocity=0 time=0
note_on channel=0 note=79 velocity=34 time=0
note_on channel=0 note=55 velocity=31 time=0
note_on channel=0 note=79 velocity=0 time=0
note_on channel=0 note=81 velocity=30 time=0
note_on channel=0 note=81 velocity=0 time=60
note_on channel=0 note=55 velocity=0 time=0
note_on channel=0 note=79 velocity=35 time=0
note_on channel=0 note=53 velocity=35 time=0
note_on channel=0 note=79 velocity=0 time=0
note_on channel=0 note=81 velocity=31 time=0
note_on channel=0 note=81 velocity=0 time=0
note_on channel=0 note=53 velocity=0 time=0
note_on channel=0 note=79 velocity=36 time=0
note_on channel=0 note=52 velocity=31 time=0
note_on channel=0 note=79 velocity=0 time=20
note_on channel=0 note=81 velocity=32 time=0
note_on channel=0 note=81 velocity=0 time=0
note_on channel=0 note=52 velocity=0 time=0
note_on channel=0 note=79 velocity=38 time=0
note_on channel=0 note=50 velocity=31 time=0
note_on channel=0 note=79 velocity=0 time=0
note_on channel=0 note=81 velocity=34 time=0
note_on channel=0 note=81 velocity=0 time=20
note_on channel=0 note=50 velocity=0 time=0
note_on channel=0 note=80 velocity=46 time=0
note_on channel=0 note=48 velocity=63 time=0
note_on channel=0 note=80 velocity=0 time=0
note_on channel=0 note=79 velocity=31 time=0
note_on channel=0 note=79 velocity=0 time=0
note_on channel=0 note=48 velocity=0 time=0
note_on channel=0 note=80 velocity=33 time=0
note_on channel=0 note=55 velocity=31 time=0
note_on channel=0 note=80 velocity=0 time=20
note_on channel=0 note=79 velocity=29 time=0
note_on channel=0 note=79 velocity=0 time=0
note_on channel=0 note=55 velocity=0 time=0
note_on channel=0 note=80 velocity=32 time=0
note_on channel=0 note=60 velocity=31 time=0
note_on channel=0 note=80 velocity=0 time=0
note_on channel=0 note=79 velocity=28 time=0
note_on channel=0 note=79 velocity=0 time=0
note_on channel=0 note=60 velocity=0 time=0
note_on channel=0 note=80 velocity=31 time=0
note_on channel=0 note=91 velocity=57 time=0
note_on channel=0 note=63 velocity=33 time=0
note_on channel=0 note=80 velocity=0 time=0
note_on channel=0 note=79 velocity=27 time=0
note_on channel=0 note=79 velocity=0 time=0
note_on channel=0 note=63 velocity=0 time=0
note_on channel=0 note=80 velocity=31 time=0
note_on channel=0 note=60 velocity=31 time=0
note_on channel=0 note=80 velocity=0 time=0
note_on channel=0 note=79 velocity=27 time=0
note_on channel=0 note=79 velocity=0 time=0
note_on channel=0 note=60 velocity=0 time=0
note_on channel=0 note=80 velocity=31 time=0
note_on channel=0 note=63 velocity=31 time=0
note_on channel=0 note=80 velocity=0 time=0
note_on channel=0 note=79 velocity=27 time=0
note_on channel=0 note=79 velocity=0 time=20
note_on channel=0 note=63 velocity=0 time=0
note_on channel=0 note=91 velocity=0 time=0
note_on channel=0 note=80 velocity=32 time=0
note_on channel=0 note=91 velocity=59 time=0
note_on channel=0 note=67 velocity=35 time=0
note_on channel=0 note=80 velocity=0 time=0
note_on channel=0 note=79 velocity=28 time=0
note_on channel=0 note=79 velocity=0 time=20
note_on channel=0 note=67 velocity=0 time=0
note_on channel=0 note=80 velocity=31 time=0
note_on channel=0 note=63 velocity=31 time=0
note_on channel=0 note=80 velocity=0 time=0
note_on channel=0 note=79 velocity=27 time=0
note_on channel=0 note=79 velocity=0 time=20
note_on channel=0 note=63 velocity=0 time=0
note_on channel=0 note=80 velocity=31 time=0
note_on channel=0 note=67 velocity=31 time=0
note_on channel=0 note=80 velocity=0 time=20
note_on channel=0 note=79 velocity=27 time=0
note_on channel=0 note=79 velocity=0 time=20
note_on channel=0 note=67 velocity=0 time=0
note_on channel=0 note=80 velocity=31 time=0
note_on channel=0 note=63 velocity=35 time=0
note_on channel=0 note=80 velocity=0 time=40
note_on channel=0 note=79 velocity=27 time=0
note_on channel=0 note=79 velocity=0 time=0
note_on channel=0 note=63 velocity=0 time=0
note_on channel=0 note=80 velocity=31 time=0
note_on channel=0 note=60 velocity=31 time=0
note_on channel=0 note=80 velocity=0 time=0
note_on channel=0 note=91 velocity=0 time=0
note_on channel=0 note=79 velocity=27 time=0
note_on channel=0 note=87 velocity=50 time=0
note_on channel=0 note=79 velocity=0 time=0
note_on channel=0 note=60 velocity=0 time=0
note_on channel=0 note=80 velocity=31 time=0
note_on channel=0 note=63 velocity=31 time=0
note_on channel=0 note=80 velocity=0 time=20
note_on channel=0 note=79 velocity=27 time=0
note_on channel=0 note=79 velocity=0 time=20
note_on channel=0 note=63 velocity=0 time=0
note_on channel=0 note=87 velocity=0 time=0
note_on channel=0 note=80 velocity=37 time=0
note_on channel=0 note=86 velocity=57 time=0
note_on channel=0 note=65 velocity=35 time=0
note_on channel=0 note=80 velocity=0 time=0
note_on channel=0 note=79 velocity=28 time=0
note_on channel=0 note=79 velocity=0 time=0
note_on channel=0 note=65 velocity=0 time=0
note_on channel=0 note=80 velocity=34 time=0
note_on channel=0 note=62 velocity=31 time=0
note_on channel=0 note=80 velocity=0 time=0
note_on channel=0 note=79 velocity=28 time=0
note_on channel=0 note=79 velocity=0 time=0
note_on channel=0 note=62 velocity=0 time=0
note_on channel=0 note=80 velocity=34 time=0
note_on channel=0 note=65 velocity=31 time=0
note_on channel=0 note=80 velocity=0 time=0
note_on channel=0 note=79 velocity=28 time=0
note_on channel=0 note=79 velocity=0 time=20
note_on channel=0 note=65 velocity=0 time=0
note_on channel=0 note=86 velocity=0 time=0
note_on channel=0 note=80 velocity=31 time=0
note_on channel=0 note=79 velocity=50 time=0
note_on channel=0 note=62 velocity=36 time=0
note_on channel=0 note=79 velocity=0 time=30
note_on channel=0 note=80 velocity=0 time=10
note_on channel=0 note=79 velocity=27 time=0
note_on channel=0 note=79 velocity=0 time=60
note_on channel=0 note=62 velocity=0 time=0
note_on channel=0 note=80 velocity=31 time=0
note_on channel=0 note=59 velocity=31 time=0
note_on channel=0 note=80 velocity=0 time=20
note_on channel=0 note=79 velocity=27 time=0
note_on channel=0 note=79 velocity=0 time=0
note_on channel=0 note=59 velocity=0 time=0
note_on channel=0 note=80 velocity=31 time=0
note_on channel=0 note=62 velocity=31 time=0
note_on channel=0 note=80 velocity=0 time=0
note_on channel=0 note=79 velocity=27 time=0
note_on channel=0 note=79 velocity=0 time=0
note_on channel=0 note=62 velocity=0 time=0
note_on channel=0 note=80 velocity=32 time=0
note_on channel=0 note=84 velocity=53 time=0
note_on channel=0 note=63 velocity=35 time=0
note_on channel=0 note=80 velocity=0 time=0
note_on channel=0 note=79 velocity=28 time=0
note_on channel=0 note=79 velocity=0 time=40
note_on channel=0 note=63 velocity=0 time=0
note_on channel=0 note=80 velocity=31 time=0
note_on channel=0 note=60 velocity=31 time=0
note_on channel=0 note=80 velocity=0 time=0
note_on channel=0 note=84 velocity=0 time=0
note_on channel=0 note=79 velocity=27 time=0
note_on channel=0 note=79 velocity=0 time=0
note_on channel=0 note=60 velocity=0 time=0
note_on channel=0 note=80 velocity=31 time=0
note_on channel=0 note=63 velocity=31 time=0
note_on channel=0 note=80 velocity=0 time=40
note_on channel=0 note=79 velocity=27 time=0
note_on channel=0 note=79 velocity=0 time=0
note_on channel=0 note=63 velocity=0 time=0
note_on channel=0 note=80 velocity=31 time=0
note_on channel=0 note=51 velocity=35 time=0
note_on channel=0 note=58 velocity=35 time=0
note_on channel=0 note=80 velocity=0 time=80
note_on channel=0 note=79 velocity=27 time=0
note_on channel=0 note=79 velocity=0 time=20
note_on channel=0 note=58 velocity=0 time=0
note_on channel=0 note=80 velocity=31 time=0
note_on channel=0 note=61 velocity=31 time=0
note_on channel=0 note=80 velocity=0 time=0
note_on channel=0 note=51 velocity=0 time=0
note_on channel=0 note=79 velocity=27 time=0
note_on channel=0 note=79 velocity=0 time=0
note_on channel=0 note=61 velocity=0 time=0
note_on channel=0 note=77 velocity=31 time=0
note_on channel=0 note=58 velocity=31 time=0
note_on channel=0 note=77 velocity=0 time=0
note_on channel=0 note=79 velocity=27 time=0
note_on channel=0 note=79 velocity=0 time=0
note_on channel=0 note=58 velocity=0 time=0
note_on channel=0 note=80 velocity=36 time=0
note_on channel=0 note=44 velocity=45 time=0
note_on channel=0 note=80 velocity=0 time=0
note_on channel=0 note=82 velocity=31 time=0
note_on channel=0 note=82 velocity=0 time=0
note_on channel=0 note=44 velocity=0 time=0
note_on channel=0 note=80 velocity=33 time=0
note_on channel=0 note=51 velocity=31 time=0
note_on channel=0 note=80 velocity=0 time=20
note_on channel=0 note=82 velocity=29 time=0
note_on channel=0 note=82 velocity=0 time=0
note_on channel=0 note=51 velocity=0 time=0
note_on channel=0 note=80 velocity=32 time=0
note_on channel=0 note=56 velocity=31 time=0
note_on channel=0 note=80 velocity=0 time=0
note_on channel=0 note=82 velocity=28 time=0
note_on channel=0 note=82 velocity=0 time=0
note_on channel=0 note=56 velocity=0 time=0
note_on channel=0 note=75 velocity=31 time=0
note_on channel=0 note=87 velocity=57 time=0
note_on channel=0 note=60 velocity=33 time=0
note_on channel=0 note=75 velocity=0 time=0
note_on channel=0 note=77 velocity=27 time=0
note_on channel=0 note=77 velocity=0 time=0
note_on channel=0 note=60 velocity=0 time=0
note_on channel=0 note=75 velocity=31 time=0
note_on channel=0 note=56 velocity=31 time=0
note_on channel=0 note=75 velocity=0 time=0
note_on channel=0 note=77 velocity=27 time=0
note_on channel=0 note=77 velocity=0 time=0
note_on channel=0 note=56 velocity=0 time=0
note_on channel=0 note=75 velocity=31 time=0
note_on channel=0 note=60 velocity=31 time=0
note_on channel=0 note=75 velocity=0 time=0
note_on channel=0 note=77 velocity=27 time=0
note_on channel=0 note=77 velocity=0 time=20
note_on channel=0 note=60 velocity=0 time=0
note_on channel=0 note=87 velocity=0 time=0
note_on channel=0 note=75 velocity=32 time=0
note_on channel=0 note=87 velocity=59 time=0
note_on channel=0 note=63 velocity=35 time=0
note_on channel=0 note=75 velocity=0 time=0
note_on channel=0 note=77 velocity=28 time=0
note_on channel=0 note=77 velocity=0 time=20
note_on channel=0 note=63 velocity=0 time=0
note_on channel=0 note=75 velocity=31 time=0
note_on channel=0 note=60 velocity=31 time=0
note_on channel=0 note=75 velocity=0 time=0
note_on channel=0 note=77 velocity=27 time=0
note_on channel=0 note=77 velocity=0 time=20
note_on channel=0 note=60 velocity=0 time=0
note_on channel=0 note=75 velocity=31 time=0
note_on channel=0 note=63 velocity=31 time=0
note_on channel=0 note=75 velocity=0 time=20
note_on channel=0 note=77 velocity=27 time=0
note_on channel=0 note=77 velocity=0 time=20
note_on channel=0 note=63 velocity=0 time=0
note_on channel=0 note=75 velocity=31 time=0
note_on channel=0 note=60 velocity=35 time=0
note_on channel=0 note=75 velocity=0 time=40
note_on channel=0 note=77 velocity=27 time=0
note_on channel=0 note=77 velocity=0 time=0
note_on channel=0 note=60 velocity=0 time=0
note_on channel=0 note=75 velocity=31 time=0
note_on channel=0 note=56 velocity=31 time=0
note_on channel=0 note=75 velocity=0 time=0
note_on channel=0 note=87 velocity=0 time=0
note_on channel=0 note=77 velocity=27 time=0
note_on channel=0 note=84 velocity=50 time=0
note_on channel=0 note=77 velocity=0 time=0
note_on channel=0 note=56 velocity=0 time=0
note_on channel=0 note=75 velocity=31 time=0
note_on channel=0 note=60 velocity=31 time=0
note_on channel=0 note=75 velocity=0 time=20
note_on channel=0 note=77 velocity=27 time=0
note_on channel=0 note=77 velocity=0 time=20
note_on channel=0 note=60 velocity=0 time=0
note_on channel=0 note=84 velocity=0 time=0
note_on channel=0 note=75 velocity=32 time=0
note_on channel=0 note=82 velocity=57 time=0
note_on channel=0 note=61 velocity=35 time=0
note_on channel=0 note=75 velocity=0 time=0
note_on channel=0 note=77 velocity=28 time=0
note_on channel=0 note=77 velocity=0 time=0
note_on channel=0 note=61 velocity=0 time=0
note_on channel=0 note=75 velocity=31 time=0
note_on channel=0 note=58 velocity=31 time=0
note_on channel=0 note=75 velocity=0 time=0
note_on channel=0 note=77 velocity=27 time=0
note_on channel=0 note=77 velocity=0 time=0
note_on channel=0 note=58 velocity=0 time=0
note_on channel=0 note=75 velocity=31 time=0
note_on channel=0 note=61 velocity=31 time=0
note_on channel=0 note=75 velocity=0 time=0
note_on channel=0 note=77 velocity=27 time=0
note_on channel=0 note=77 velocity=0 time=20
note_on channel=0 note=61 velocity=0 time=0
note_on channel=0 note=82 velocity=0 time=0
note_on channel=0 note=75 velocity=31 time=0
note_on channel=0 note=75 velocity=50 time=0
note_on channel=0 note=58 velocity=36 time=0
note_on channel=0 note=75 velocity=0 time=40
note_on channel=0 note=77 velocity=27 time=0
note_on channel=0 note=77 velocity=0 time=60
note_on channel=0 note=58 velocity=0 time=0
note_on channel=0 note=75 velocity=31 time=0
note_on channel=0 note=55 velocity=31 time=0
note_on channel=0 note=75 velocity=0 time=20
note_on channel=0 note=77 velocity=27 time=0
note_on channel=0 note=77 velocity=0 time=0
note_on channel=0 note=55 velocity=0 time=0
note_on channel=0 note=75 velocity=31 time=0
note_on channel=0 note=58 velocity=31 time=0
note_on channel=0 note=75 velocity=0 time=0
note_on channel=0 note=77 velocity=27 time=0
note_on channel=0 note=77 velocity=0 time=0
note_on channel=0 note=58 velocity=0 time=0
note_on channel=0 note=75 velocity=0 time=0
note_on channel=0 note=75 velocity=32 time=0
note_on channel=0 note=80 velocity=53 time=0
note_on channel=0 note=60 velocity=35 time=0
note_on channel=0 note=75 velocity=0 time=40
note_on channel=0 note=77 velocity=28 time=0
note_on channel=0 note=77 velocity=0 time=0
note_on channel=0 note=60 velocity=0 time=0
note_on channel=0 note=75 velocity=32 time=0
note_on channel=0 note=56 velocity=31 time=0
note_on channel=0 note=75 velocity=0 time=0
note_on channel=0 note=80 velocity=0 time=0
note_on channel=0 note=77 velocity=28 time=0
note_on channel=0 note=77 velocity=0 time=0
note_on channel=0 note=56 velocity=0 time=0
note_on channel=0 note=75 velocity=34 time=0
note_on channel=0 note=60 velocity=31 time=0
note_on channel=0 note=75 velocity=0 time=0
note_on channel=0 note=77 velocity=30 time=0
note_on channel=0 note=77 velocity=0 time=0
note_on channel=0 note=60 velocity=0 time=0
note_on channel=0 note=76 velocity=35 time=0
note_on channel=0 note=48 velocity=35 time=0
note_on channel=0 note=55 velocity=35 time=0
note_on channel=0 note=76 velocity=0 time=0
note_on channel=0 note=77 velocity=31 time=0
note_on channel=0 note=77 velocity=0 time=20
note_on channel=0 note=55 velocity=0 time=0
note_on channel=0 note=76 velocity=36 time=0
note_on channel=0 note=58 velocity=31 time=0
note_on channel=0 note=76 velocity=0 time=0
note_on channel=0 note=48 velocity=0 time=0
note_on channel=0 note=77 velocity=32 time=0
note_on channel=0 note=77 velocity=0 time=60
note_on channel=0 note=76 velocity=38 time=0
note_on channel=0 note=58 velocity=0 time=20
note_on channel=0 note=55 velocity=31 time=0
note_on channel=0 note=76 velocity=0 time=40
note_on channel=0 note=77 velocity=34 time=0
note_on channel=0 note=76 velocity=34 time=55
note_on channel=0 note=77 velocity=0 time=5
note_on channel=0 note=76 velocity=0 time=55
note_on channel=0 note=55 velocity=0 time=0
note_on channel=0 note=77 velocity=36 time=0
note_on channel=0 note=41 velocity=45 time=0
note_on channel=0 note=77 velocity=0 time=0
note_on channel=0 note=79 velocity=31 time=0
note_on channel=0 note=79 velocity=0 time=0
note_on channel=0 note=41 velocity=0 time=0
note_on channel=0 note=77 velocity=33 time=0
note_on channel=0 note=48 velocity=31 time=0
note_on channel=0 note=77 velocity=0 time=20
note_on channel=0 note=79 velocity=29 time=0
note_on channel=0 note=79 velocity=0 time=0
note_on channel=0 note=48 velocity=0 time=0
note_on channel=0 note=77 velocity=32 time=0
note_on channel=0 note=53 velocity=31 time=0
note_on channel=0 note=77 velocity=0 time=0
note_on channel=0 note=79 velocity=28 time=0
note_on channel=0 note=79 velocity=0 time=0
note_on channel=0 note=53 velocity=0 time=0
note_on channel=0 note=73 velocity=31 time=0
note_on channel=0 note=84 velocity=57 time=0
note_on channel=0 note=56 velocity=33 time=0
note_on channel=0 note=73 velocity=0 time=0
note_on channel=0 note=72 velocity=27 time=0
note_on channel=0 note=72 velocity=0 time=0
note_on channel=0 note=56 velocity=0 time=0
note_on channel=0 note=73 velocity=31 time=0
note_on channel=0 note=53 velocity=31 time=0
note_on channel=0 note=73 velocity=0 time=0
note_on channel=0 note=72 velocity=27 time=0
note_on channel=0 note=72 velocity=0 time=0
note_on channel=0 note=53 velocity=0 time=0
note_on channel=0 note=73 velocity=31 time=0
note_on channel=0 note=56 velocity=31 time=0
note_on channel=0 note=73 velocity=0 time=0
note_on channel=0 note=72 velocity=27 time=0
note_on channel=0 note=72 velocity=0 time=20
note_on channel=0 note=56 velocity=0 time=0
note_on channel=0 note=84 velocity=0 time=0
note_on channel=0 note=73 velocity=32 time=0
note_on channel=0 note=84 velocity=59 time=0
note_on channel=0 note=60 velocity=35 time=0
note_on channel=0 note=73 velocity=0 time=0
note_on channel=0 note=72 velocity=28 time=0
note_on channel=0 note=72 velocity=0 time=20
note_on channel=0 note=60 velocity=0 time=0
note_on channel=0 note=73 velocity=31 time=0
note_on channel=0 note=56 velocity=31 time=0
note_on channel=0 note=73 velocity=0 time=0
note_on channel=0 note=72 velocity=27 time=0
note_on channel=0 note=72 velocity=0 time=20
note_on channel=0 note=56 velocity=0 time=0
note_on channel=0 note=73 velocity=31 time=0
note_on channel=0 note=60 velocity=31 time=0
note_on channel=0 note=73 velocity=0 time=20
note_on channel=0 note=72 velocity=27 time=0
note_on channel=0 note=72 velocity=0 time=20
note_on channel=0 note=60 velocity=0 time=0
note_on channel=0 note=73 velocity=31 time=0
note_on channel=0 note=56 velocity=35 time=0
note_on channel=0 note=73 velocity=0 time=40
note_on channel=0 note=72 velocity=27 time=0
note_on channel=0 note=72 velocity=0 time=0
note_on channel=0 note=56 velocity=0 time=0
note_on channel=0 note=73 velocity=31 time=0
note_on channel=0 note=53 velocity=31 time=0
note_on channel=0 note=73 velocity=0 time=0
note_on channel=0 note=84 velocity=0 time=0
note_on channel=0 note=72 velocity=27 time=0
note_on channel=0 note=80 velocity=50 time=0
note_on channel=0 note=72 velocity=0 time=0
note_on channel=0 note=53 velocity=0 time=0
note_on channel=0 note=73 velocity=31 time=0
note_on channel=0 note=56 velocity=31 time=0
note_on channel=0 note=73 velocity=0 time=20
note_on channel=0 note=72 velocity=27 time=0
note_on channel=0 note=72 velocity=0 time=20
note_on channel=0 note=56 velocity=0 time=0
note_on channel=0 note=80 velocity=0 time=0
note_on channel=0 note=73 velocity=32 time=0
note_on channel=0 note=79 velocity=57 time=0
note_on channel=0 note=58 velocity=35 time=0
note_on channel=0 note=73 velocity=0 time=0
note_on channel=0 note=72 velocity=28 time=0
note_on channel=0 note=72 velocity=0 time=0
note_on channel=0 note=58 velocity=0 time=0
note_on channel=0 note=73 velocity=31 time=0
note_on channel=0 note=55 velocity=31 time=0
note_on channel=0 note=73 velocity=0 time=0
note_on channel=0 note=72 velocity=27 time=0
note_on channel=0 note=72 velocity=0 time=0
note_on channel=0 note=55 velocity=0 time=0
note_on channel=0 note=73 velocity=31 time=0
note_on channel=0 note=58 velocity=31 time=0
note_on channel=0 note=73 velocity=0 time=0
note_on channel=0 note=72 velocity=27 time=0
note_on channel=0 note=72 velocity=0 time=20
note_on channel=0 note=58 velocity=0 time=0
note_on channel=0 note=79 velocity=0 time=0
note_on channel=0 note=73 velocity=31 time=0
note_on channel=0 note=72 velocity=50 time=0
note_on channel=0 note=55 velocity=36 time=0
note_on channel=0 note=72 velocity=0 time=30
note_on channel=0 note=73 velocity=0 time=10
note_on channel=0 note=72 velocity=27 time=0
note_on channel=0 note=72 velocity=0 time=60
note_on channel=0 note=55 velocity=0 time=0
note_on channel=0 note=73 velocity=31 time=0
note_on channel=0 note=52 velocity=31 time=0
note_on channel=0 note=73 velocity=0 time=20
note_on channel=0 note=72 velocity=27 time=0
note_on channel=0 note=72 velocity=0 time=0
note_on channel=0 note=52 velocity=0 time=0
note_on channel=0 note=73 velocity=31 time=0
note_on channel=0 note=55 velocity=31 time=0
note_on channel=0 note=73 velocity=0 time=0
note_on channel=0 note=72 velocity=27 time=0
note_on channel=0 note=72 velocity=0 time=0
note_on channel=0 note=55 velocity=0 time=0
note_on channel=0 note=73 velocity=32 time=0
note_on channel=0 note=77 velocity=57 time=0
note_on channel=0 note=56 velocity=35 time=0
note_on channel=0 note=73 velocity=0 time=23
note_on channel=0 note=72 velocity=28 time=0
note_on channel=0 note=72 velocity=0 time=0
note_on channel=0 note=56 velocity=0 time=0
note_on channel=0 note=73 velocity=32 time=0
note_on channel=0 note=53 velocity=31 time=0
note_on channel=0 note=73 velocity=0 time=0
note_on channel=0 note=72 velocity=28 time=0
note_on channel=0 note=72 velocity=0 time=0
note_on channel=0 note=53 velocity=0 time=0
note_on channel=0 note=73 velocity=34 time=0
note_on channel=0 note=56 velocity=31 time=0
note_on channel=0 note=73 velocity=0 time=0
note_on channel=0 note=72 velocity=30 time=0
note_on channel=0 note=72 velocity=0 time=0
note_on channel=0 note=56 velocity=0 time=0
note_on channel=0 note=73 velocity=35 time=0
note_on channel=0 note=53 velocity=35 time=0
note_on channel=0 note=73 velocity=0 time=0
note_on channel=0 note=72 velocity=29 time=0
note_on channel=0 note=72 velocity=0 time=20
note_on channel=0 note=53 velocity=0 time=0
note_on channel=0 note=73 velocity=34 time=0
note_on channel=0 note=48 velocity=31 time=0
note_on channel=0 note=73 velocity=0 time=0
note_on channel=0 note=77 velocity=0 time=0
note_on channel=0 note=72 velocity=29 time=0
note_on channel=0 note=80 velocity=53 time=0
note_on channel=0 note=72 velocity=0 time=80
note_on channel=0 note=48 velocity=0 time=0
note_on channel=0 note=73 velocity=34 time=0
note_on channel=0 note=53 velocity=31 time=0
note_on channel=0 note=73 velocity=0 time=80
note_on channel=0 note=72 velocity=28 time=0
note_on channel=0 note=72 velocity=0 time=4
note_on channel=0 note=53 velocity=0 time=0
note_on channel=0 note=80 velocity=0 time=0
note_on channel=0 note=73 velocity=32 time=0
note_on channel=0 note=79 velocity=57 time=0
note_on channel=0 note=58 velocity=35 time=0
note_on channel=0 note=73 velocity=0 time=0
note_on channel=0 note=72 velocity=28 time=0
note_on channel=0 note=72 velocity=0 time=0
note_on channel=0 note=58 velocity=0 time=0
note_on channel=0 note=73 velocity=31 time=0
note_on channel=0 note=55 velocity=31 time=0
note_on channel=0 note=73 velocity=0 time=0
note_on channel=0 note=72 velocity=27 time=0
note_on channel=0 note=72 velocity=0 time=0
note_on channel=0 note=55 velocity=0 time=0
note_on channel=0 note=73 velocity=31 time=0
note_on channel=0 note=58 velocity=31 time=0
note_on channel=0 note=73 velocity=0 time=0
note_on channel=0 note=72 velocity=27 time=0
note_on channel=0 note=72 velocity=0 time=20
note_on channel=0 note=58 velocity=0 time=0
note_on channel=0 note=79 velocity=0 time=0
note_on channel=0 note=73 velocity=31 time=0
note_on channel=0 note=72 velocity=50 time=0
note_on channel=0 note=52 velocity=36 time=0
note_on channel=0 note=72 velocity=0 time=21
note_on channel=0 note=73 velocity=0 time=10
note_on channel=0 note=72 velocity=27 time=0
note_on channel=0 note=72 velocity=0 time=60
note_on channel=0 note=52 velocity=0 time=0
note_on channel=0 note=73 velocity=31 time=0
note_on channel=0 note=55 velocity=31 time=0
note_on channel=0 note=73 velocity=0 time=20
note_on channel=0 note=72 velocity=27 time=0
note_on channel=0 note=72 velocity=0 time=0
note_on channel=0 note=55 velocity=0 time=0
note_on channel=0 note=73 velocity=31 time=0
note_on channel=0 note=52 velocity=31 time=0
note_on channel=0 note=73 velocity=0 time=0
note_on channel=0 note=72 velocity=27 time=0
note_on channel=0 note=72 velocity=0 time=0
note_on channel=0 note=52 velocity=0 time=0
note_on channel=0 note=73 velocity=32 time=0
note_on channel=0 note=77 velocity=57 time=0
note_on channel=0 note=53 velocity=35 time=0
note_on channel=0 note=73 velocity=0 time=40
note_on channel=0 note=72 velocity=28 time=0
note_on channel=0 note=72 velocity=0 time=0
note_on channel=0 note=53 velocity=0 time=0
note_on channel=0 note=73 velocity=32 time=0
note_on channel=0 note=56 velocity=31 time=0
note_on channel=0 note=73 velocity=0 time=0
note_on channel=0 note=72 velocity=28 time=0
note_on channel=0 note=72 velocity=0 time=0
note_on channel=0 note=56 velocity=0 time=0
note_on channel=0 note=73 velocity=34 time=0
note_on channel=0 note=53 velocity=31 time=0
note_on channel=0 note=73 velocity=0 time=0
note_on channel=0 note=72 velocity=30 time=0
note_on channel=0 note=72 velocity=0 time=0
note_on channel=0 note=53 velocity=0 time=0
note_on channel=0 note=77 velocity=0 time=0
note_on channel=0 note=73 velocity=34 time=0
note_on channel=0 note=75 velocity=53 time=0
note_on channel=0 note=55 velocity=35 time=0
note_on channel=0 note=73 velocity=0 time=0
note_on channel=0 note=72 velocity=29 time=0
note_on channel=0 note=72 velocity=0 time=20
note_on channel=0 note=55 velocity=0 time=0
note_on channel=0 note=73 velocity=34 time=0
note_on channel=0 note=60 velocity=31 time=0
note_on channel=0 note=73 velocity=0 time=0
note_on channel=0 note=72 velocity=28 time=0
note_on channel=0 note=72 velocity=0 time=80
note_on channel=0 note=60 velocity=0 time=0
note_on channel=0 note=73 velocity=34 time=0
note_on channel=0 note=55 velocity=31 time=0
note_on channel=0 note=73 velocity=0 time=80
note_on channel=0 note=72 velocity=29 time=0
note_on channel=0 note=72 velocity=0 time=80
note_on channel=0 note=55 velocity=0 time=0
note_on channel=0 note=75 velocity=0 time=0
note_on channel=0 note=74 velocity=32 time=0
note_on channel=0 note=65 velocity=40 time=0
note_on channel=0 note=56 velocity=40 time=0
note_on channel=0 note=74 velocity=0 time=41
note_on channel=0 note=72 velocity=28 time=0
note_on channel=0 note=72 velocity=0 time=80
note_on channel=0 note=74 velocity=32 time=0
note_on channel=0 note=74 velocity=0 time=80
note_on channel=0 note=56 velocity=0 time=0
note_on channel=0 note=65 velocity=0 time=0
note_on channel=0 note=72 velocity=28 time=0
note_on channel=0 note=72 velocity=0 time=80
note_on channel=0 note=74 velocity=34 time=0
note_on channel=0 note=74 velocity=0 time=80
note_on channel=0 note=72 velocity=30 time=0
note_on channel=0 note=72 velocity=0 time=80
note_on channel=0 note=74 velocity=33 time=0
note_on channel=0 note=74 velocity=0 time=80
note_on channel=0 note=72 velocity=28 time=0
note_on channel=0 note=72 velocity=0 time=80
note_on channel=0 note=74 velocity=35 time=0
note_on channel=0 note=74 velocity=0 time=80
note_on channel=0 note=72 velocity=28 time=0
note_on channel=0 note=56 velocity=40 time=0
note_on channel=0 note=65 velocity=40 time=0
note_on channel=0 note=72 velocity=0 time=80
note_on channel=0 note=74 velocity=34 time=0
note_on channel=0 note=74 velocity=0 time=80
note_on channel=0 note=72 velocity=30 time=0
note_on channel=0 note=72 velocity=0 time=20
note_on channel=0 note=65 velocity=0 time=0
note_on channel=0 note=56 velocity=0 time=0
note_on channel=0 note=74 velocity=33 time=0
note_on channel=0 note=56 velocity=44 time=0
note_on channel=0 note=65 velocity=44 time=0
note_on channel=0 note=74 velocity=0 time=80
note_on channel=0 note=72 velocity=29 time=0
note_on channel=0 note=72 velocity=0 time=20
note_on channel=0 note=74 velocity=33 time=0
note_on channel=0 note=74 velocity=0 time=80
note_on channel=0 note=65 velocity=0 time=0
note_on channel=0 note=56 velocity=0 time=0
note_on channel=0 note=72 velocity=29 time=0
note_on channel=0 note=72 velocity=0 time=20
note_on channel=0 note=74 velocity=36 time=0
note_on channel=0 note=74 velocity=0 time=80
note_on channel=0 note=72 velocity=32 time=0
note_on channel=0 note=72 velocity=0 time=20
note_on channel=0 note=74 velocity=37 time=0
note_on channel=0 note=74 velocity=0 time=80
note_on channel=0 note=72 velocity=33 time=0
note_on channel=0 note=72 velocity=0 time=20
note_on channel=0 note=74 velocity=36 time=0
note_on channel=0 note=74 velocity=0 time=80
note_on channel=0 note=72 velocity=31 time=0
note_on channel=0 note=56 velocity=41 time=0
note_on channel=0 note=65 velocity=41 time=0
note_on channel=0 note=72 velocity=0 time=20
note_on channel=0 note=74 velocity=37 time=0
note_on channel=0 note=74 velocity=0 time=80
note_on channel=0 note=72 velocity=31 time=0
note_on channel=0 note=72 velocity=0 time=0
note_on channel=0 note=65 velocity=0 time=0
note_on channel=0 note=56 velocity=0 time=0
note_on channel=0 note=74 velocity=35 time=0
note_on channel=0 note=56 velocity=49 time=0
note_on channel=0 note=66 velocity=49 time=0
note_on channel=0 note=74 velocity=0 time=0
note_on channel=0 note=72 velocity=30 time=0
note_on channel=0 note=72 velocity=0 time=0
note_on channel=0 note=74 velocity=35 time=0
note_on channel=0 note=74 velocity=0 time=40
note_on channel=0 note=66 velocity=0 time=0
note_on channel=0 note=56 velocity=0 time=0
note_on channel=0 note=72 velocity=31 time=0
note_on channel=0 note=72 velocity=0 time=0
note_on channel=0 note=74 velocity=37 time=0
note_on channel=0 note=74 velocity=0 time=0
note_on channel=0 note=72 velocity=33 time=0
note_on channel=0 note=72 velocity=0 time=0
note_on channel=0 note=74 velocity=39 time=0
note_on channel=0 note=74 velocity=0 time=0
note_on channel=0 note=72 velocity=34 time=0
note_on channel=0 note=72 velocity=0 time=0
note_on channel=0 note=74 velocity=39 time=0
note_on channel=0 note=74 velocity=0 time=20
note_on channel=0 note=72 velocity=36 time=0
note_on channel=0 note=56 velocity=47 time=0
note_on channel=0 note=66 velocity=47 time=0
note_on channel=0 note=72 velocity=0 time=20
note_on channel=0 note=74 velocity=39 time=0
note_on channel=0 note=74 velocity=0 time=80
note_on channel=0 note=72 velocity=35 time=0
note_on channel=0 note=72 velocity=0 time=0
note_on channel=0 note=66 velocity=0 time=0
note_on channel=0 note=56 velocity=0 time=0
note_on channel=0 note=74 velocity=36 time=0
note_on channel=0 note=56 velocity=52 time=0
note_on channel=0 note=66 velocity=52 time=0
note_on channel=0 note=74 velocity=0 time=0
note_on channel=0 note=72 velocity=32 time=0
note_on channel=0 note=72 velocity=0 time=40
note_on channel=0 note=74 velocity=36 time=0
note_on channel=0 note=74 velocity=0 time=0
note_on channel=0 note=66 velocity=0 time=0
note_on channel=0 note=56 velocity=0 time=0
note_on channel=0 note=72 velocity=32 time=0
note_on channel=0 note=72 velocity=0 time=0
note_on channel=0 note=74 velocity=39 time=0
note_on channel=0 note=74 velocity=0 time=20
note_on channel=0 note=72 velocity=35 time=0
note_on channel=0 note=72 velocity=0 time=60
note_on channel=0 note=74 velocity=40 time=0
note_on channel=0 note=74 velocity=0 time=20
note_on channel=0 note=72 velocity=36 time=0
note_on channel=0 note=72 velocity=0 time=0
note_on channel=0 note=74 velocity=40 time=0
note_on channel=0 note=74 velocity=0 time=0
note_on channel=0 note=72 velocity=35 time=0
note_on channel=0 note=56 velocity=48 time=0
note_on channel=0 note=66 velocity=48 time=0
note_on channel=0 note=72 velocity=0 time=20
note_on channel=0 note=74 velocity=40 time=0
note_on channel=0 note=74 velocity=0 time=0
note_on channel=0 note=72 velocity=34 time=0
note_on channel=0 note=72 velocity=0 time=0
note_on channel=0 note=74 velocity=34 time=0
note_on channel=0 note=74 velocity=0 time=0
note_on channel=0 note=66 velocity=0 time=0
note_on channel=0 note=56 velocity=0 time=0
note_on channel=0 note=72 velocity=38 time=0
note_on channel=0 note=55 velocity=56 time=0
note_on channel=0 note=67 velocity=56 time=0
note_on channel=0 note=72 velocity=0 time=0
note_on channel=0 note=74 velocity=33 time=0
note_on channel=0 note=74 velocity=0 time=20
note_on channel=0 note=76 velocity=39 time=0
note_on channel=0 note=76 velocity=0 time=0
note_on channel=0 note=67 velocity=0 time=0
note_on channel=0 note=55 velocity=0 time=0
note_on channel=0 note=74 velocity=34 time=0
note_on channel=0 note=67 velocity=57 time=0
note_on channel=0 note=72 velocity=57 time=0
note_on channel=0 note=74 velocity=0 time=20
note_on channel=0 note=76 velocity=42 time=0
note_on channel=0 note=76 velocity=0 time=60
note_on channel=0 note=74 velocity=37 time=0
note_on channel=0 note=74 velocity=0 time=20
note_on channel=0 note=72 velocity=0 time=0
note_on channel=0 note=67 velocity=0 time=0
note_on channel=0 note=76 velocity=44 time=0
note_on channel=0 note=67 velocity=59 time=0
note_on channel=0 note=72 velocity=59 time=0
note_on channel=0 note=76 velocity=0 time=20
note_on channel=0 note=74 velocity=39 time=0
note_on channel=0 note=74 velocity=0 time=0
note_on channel=0 note=76 velocity=43 time=0
note_on channel=0 note=76 velocity=0 time=0
note_on channel=0 note=72 velocity=0 time=0
note_on channel=0 note=67 velocity=0 time=0
note_on channel=0 note=74 velocity=37 time=0
note_on channel=0 note=67 velocity=60 time=0
note_on channel=0 note=72 velocity=60 time=0
note_on channel=0 note=74 velocity=0 time=40
note_on channel=0 note=76 velocity=45 time=0
note_on channel=0 note=76 velocity=0 time=20
note_on channel=0 note=74 velocity=40 time=0
note_on channel=0 note=74 velocity=0 time=20
note_on channel=0 note=72 velocity=0 time=0
note_on channel=0 note=67 velocity=0 time=0
note_on channel=0 note=76 velocity=42 time=0
note_on channel=0 note=67 velocity=62 time=0
note_on channel=0 note=72 velocity=62 time=0
note_on channel=0 note=76 velocity=0 time=0
note_on channel=0 note=74 velocity=37 time=0
note_on channel=0 note=74 velocity=0 time=20
note_on channel=0 note=76 velocity=42 time=0
note_on channel=0 note=76 velocity=0 time=0
note_on channel=0 note=72 velocity=0 time=0
note_on channel=0 note=67 velocity=0 time=0
note_on channel=0 note=74 velocity=37 time=0
note_on channel=0 note=67 velocity=63 time=0
note_on channel=0 note=72 velocity=63 time=0
note_on channel=0 note=74 velocity=0 time=0
note_on channel=0 note=76 velocity=46 time=0
note_on channel=0 note=76 velocity=0 time=20
note_on channel=0 note=74 velocity=41 time=0
note_on channel=0 note=74 velocity=0 time=40
note_on channel=0 note=72 velocity=0 time=0
note_on channel=0 note=67 velocity=0 time=0
note_on channel=0 note=76 velocity=48 time=0
note_on channel=0 note=67 velocity=64 time=0
note_on channel=0 note=72 velocity=64 time=0
note_on channel=0 note=76 velocity=0 time=0
note_on channel=0 note=74 velocity=43 time=0
note_on channel=0 note=74 velocity=0 time=20
note_on channel=0 note=76 velocity=49 time=0
note_on channel=0 note=76 velocity=0 time=0
note_on channel=0 note=72 velocity=0 time=0
note_on channel=0 note=67 velocity=0 time=0
note_on channel=0 note=74 velocity=40 time=0
note_on channel=0 note=67 velocity=66 time=0
note_on channel=0 note=72 velocity=66 time=0
note_on channel=0 note=74 velocity=0 time=0
note_on channel=0 note=76 velocity=49 time=0
note_on channel=0 note=76 velocity=0 time=80
note_on channel=0 note=74 velocity=42 time=0
note_on channel=0 note=74 velocity=0 time=0
note_on channel=0 note=72 velocity=0 time=0
note_on channel=0 note=67 velocity=0 time=0
note_on channel=0 note=76 velocity=46 time=0
note_on channel=0 note=67 velocity=68 time=0
note_on channel=0 note=72 velocity=46 time=0
note_on channel=0 note=72 velocity=0 time=0
note_on channel=0 note=76 velocity=0 time=0
note_on channel=0 note=74 velocity=40 time=0
note_on channel=0 note=71 velocity=40 time=0
note_on channel=0 note=71 velocity=0 time=20
note_on channel=0 note=74 velocity=0 time=0
note_on channel=0 note=76 velocity=47 time=0
note_on channel=0 note=72 velocity=47 time=0
note_on channel=0 note=72 velocity=0 time=0
note_on channel=0 note=76 velocity=0 time=0
note_on channel=0 note=74 velocity=41 time=0
note_on channel=0 note=79 velocity=63 time=0
note_on channel=0 note=71 velocity=41 time=0
note_on channel=0 note=71 velocity=0 time=0
note_on channel=0 note=74 velocity=0 time=0
note_on channel=0 note=76 velocity=49 time=0
note_on channel=0 note=72 velocity=50 time=0
note_on channel=0 note=72 velocity=0 time=0
note_on channel=0 note=76 velocity=0 time=0
note_on channel=0 note=74 velocity=45 time=0
note_on channel=0 note=71 velocity=45 time=0
note_on channel=0 note=79 velocity=0 time=58
note_on channel=0 note=71 velocity=0 time=2
note_on channel=0 note=74 velocity=0 time=0
note_on channel=0 note=76 velocity=52 time=0
note_on channel=0 note=79 velocity=64 time=0
note_on channel=0 note=72 velocity=52 time=0
note_on channel=0 note=72 velocity=0 time=0
note_on channel=0 note=76 velocity=0 time=0
note_on channel=0 note=74 velocity=47 time=0
note_on channel=0 note=71 velocity=44 time=0
note_on channel=0 note=71 velocity=0 time=20
note_on channel=0 note=74 velocity=0 time=0
note_on channel=0 note=76 velocity=53 time=0
note_on channel=0 note=72 velocity=52 time=0
note_on channel=0 note=79 velocity=0 time=38
note_on channel=0 note=72 velocity=0 time=2
note_on channel=0 note=76 velocity=0 time=0
note_on channel=0 note=74 velocity=43 time=0
note_on channel=0 note=79 velocity=66 time=0
note_on channel=0 note=71 velocity=43 time=0
note_on channel=0 note=71 velocity=0 time=0
note_on channel=0 note=74 velocity=0 time=0
note_on channel=0 note=76 velocity=52 time=0
note_on channel=0 note=72 velocity=54 time=0
note_on channel=0 note=72 velocity=0 time=20
note_on channel=0 note=76 velocity=0 time=0
note_on channel=0 note=74 velocity=53 time=0
note_on channel=0 note=71 velocity=45 time=0
note_on channel=0 note=79 velocity=0 time=78
note_on channel=0 note=71 velocity=0 time=2
note_on channel=0 note=74 velocity=0 time=0
note_on channel=0 note=76 velocity=50 time=0
note_on channel=0 note=79 velocity=68 time=0
note_on channel=0 note=72 velocity=50 time=0
note_on channel=0 note=72 velocity=0 time=40
note_on channel=0 note=76 velocity=0 time=0
note_on channel=0 note=74 velocity=44 time=0
note_on channel=0 note=71 velocity=44 time=0
note_on channel=0 note=71 velocity=0 time=80
note_on channel=0 note=74 velocity=0 time=0
note_on channel=0 note=76 velocity=50 time=0
note_on channel=0 note=72 velocity=50 time=0
note_on channel=0 note=79 velocity=0 time=78
note_on channel=0 note=72 velocity=0 time=2
note_on channel=0 note=76 velocity=0 time=0
note_on channel=0 note=74 velocity=44 time=0
note_on channel=0 note=79 velocity=69 time=0
note_on channel=0 note=71 velocity=44 time=0
note_on channel=0 note=71 velocity=0 time=0
note_on channel=0 note=74 velocity=0 time=0
note_on channel=0 note=76 velocity=54 time=0
note_on channel=0 note=72 velocity=54 time=0
note_on channel=0 note=72 velocity=0 time=40
note_on channel=0 note=76 velocity=0 time=0
note_on channel=0 note=74 velocity=48 time=0
note_on channel=0 note=71 velocity=48 time=0
note_on channel=0 note=79 velocity=0 time=38
note_on channel=0 note=71 velocity=0 time=0
note_on channel=0 note=74 velocity=0 time=0
note_on channel=0 note=76 velocity=58 time=0
note_on channel=0 note=79 velocity=71 time=0
note_on channel=0 note=72 velocity=55 time=0
note_on channel=0 note=72 velocity=0 time=0
note_on channel=0 note=76 velocity=0 time=0
note_on channel=0 note=74 velocity=47 time=0
note_on channel=0 note=71 velocity=44 time=0
note_on channel=0 note=71 velocity=0 time=0
note_on channel=0 note=74 velocity=0 time=0
note_on channel=0 note=76 velocity=56 time=0
note_on channel=0 note=72 velocity=54 time=0
note_on channel=0 note=79 velocity=0 time=18
note_on channel=0 note=72 velocity=0 time=0
note_on channel=0 note=76 velocity=0 time=0
note_on channel=0 note=74 velocity=48 time=0
note_on channel=0 note=79 velocity=72 time=0
note_on channel=0 note=71 velocity=48 time=0
note_on channel=0 note=71 velocity=0 time=40
note_on channel=0 note=74 velocity=0 time=0
note_on channel=0 note=76 velocity=58 time=0
note_on channel=0 note=72 velocity=56 time=0
note_on channel=0 note=72 velocity=0 time=0
note_on channel=0 note=76 velocity=0 time=0
note_on channel=0 note=74 velocity=48 time=0
note_on channel=0 note=71 velocity=50 time=0
note_on channel=0 note=71 velocity=0 time=0
note_on channel=0 note=67 velocity=0 time=0
note_on channel=0 note=79 velocity=0 time=0
note_on channel=0 note=74 velocity=0 time=0
note_on channel=0 note=72 velocity=97 time=0
note_on channel=0 note=76 velocity=97 time=0
note_on channel=0 note=36 velocity=85 time=0
note_on channel=0 note=36 velocity=0 time=0
note_on channel=0 note=76 velocity=0 time=0
note_on channel=0 note=72 velocity=0 time=0
note_on channel=0 note=79 velocity=75 time=0
note_on channel=0 note=91 velocity=75 time=0
note_on channel=0 note=48 velocity=66 time=0
note_on channel=0 note=52 velocity=66 time=0
note_on channel=0 note=55 velocity=66 time=0
note_on channel=0 note=60 velocity=78 time=0
note_on channel=0 note=60 velocity=0 time=120
note_on channel=0 note=91 velocity=0 time=0
note_on channel=0 note=48 velocity=0 time=0
note_on channel=0 note=52 velocity=0 time=0
note_on channel=0 note=55 velocity=0 time=0
note_on channel=0 note=79 velocity=0 time=0
note_on channel=0 note=79 velocity=75 time=0
note_on channel=0 note=91 velocity=79 time=0
note_on channel=0 note=48 velocity=66 time=0
note_on channel=0 note=52 velocity=66 time=0
note_on channel=0 note=55 velocity=66 time=0
note_on channel=0 note=60 velocity=78 time=0
note_on channel=0 note=91 velocity=0 time=360
note_on channel=0 note=88 velocity=75 time=0
note_on channel=0 note=88 velocity=0 time=0
note_on channel=0 note=60 velocity=0 time=0
note_on channel=0 note=52 velocity=0 time=0
note_on channel=0 note=55 velocity=0 time=0
note_on channel=0 note=86 velocity=81 time=0
note_on channel=0 note=53 velocity=69 time=0
note_on channel=0 note=55 velocity=69 time=0
note_on channel=0 note=59 velocity=82 time=0
note_on channel=0 note=86 velocity=0 time=0
note_on channel=0 note=79 velocity=0 time=0
note_on channel=0 note=79 velocity=75 time=0
note_on channel=0 note=53 velocity=0 time=0
note_on channel=0 note=55 velocity=0 time=0
note_on channel=0 note=59 velocity=0 time=0
note_on channel=0 note=84 velocity=75 time=0
note_on channel=0 note=52 velocity=65 time=0
note_on channel=0 note=55 velocity=65 time=0
note_on channel=0 note=60 velocity=77 time=0
note_on channel=0 note=84 velocity=0 time=240
note_on channel=0 note=88 velocity=73 time=0
note_on channel=0 note=88 velocity=0 time=0
note_on channel=0 note=60 velocity=0 time=0
note_on channel=0 note=52 velocity=0 time=0
note_on channel=0 note=79 velocity=0 time=0
note_on channel=0 note=48 velocity=0 time=0
note_on channel=0 note=55 velocity=0 time=0
note_on channel=0 note=36 velocity=48 time=0
note_on channel=0 note=36 velocity=0 time=0
note_on channel=0 note=67 velocity=50 time=0
note_on channel=0 note=79 velocity=50 time=0
note_on channel=0 note=48 velocity=37 time=0
note_on channel=0 note=52 velocity=37 time=0
note_on channel=0 note=55 velocity=37 time=0
note_on channel=0 note=60 velocity=43 time=0
note_on channel=0 note=60 velocity=0 time=120
note_on channel=0 note=79 velocity=0 time=0
note_on channel=0 note=48 velocity=0 time=0
note_on channel=0 note=52 velocity=0 time=0
note_on channel=0 note=55 velocity=0 time=0
note_on channel=0 note=67 velocity=0 time=0
note_on channel=0 note=67 velocity=50 time=0
note_on channel=0 note=79 velocity=53 time=0
note_on channel=0 note=48 velocity=37 time=0
note_on channel=0 note=52 velocity=37 time=0
note_on channel=0 note=55 velocity=37 time=0
note_on channel=0 note=60 velocity=43 time=0
note_on channel=0 note=79 velocity=0 time=360
note_on channel=0 note=76 velocity=50 time=0
note_on channel=0 note=76 velocity=0 time=0
note_on channel=0 note=60 velocity=0 time=0
note_on channel=0 note=52 velocity=0 time=0
note_on channel=0 note=55 velocity=0 time=0
note_on channel=0 note=74 velocity=54 time=0
note_on channel=0 note=53 velocity=38 time=0
note_on channel=0 note=55 velocity=38 time=0
note_on channel=0 note=59 velocity=46 time=0
note_on channel=0 note=74 velocity=0 time=0
note_on channel=0 note=67 velocity=0 time=0
note_on channel=0 note=67 velocity=50 time=0
note_on channel=0 note=53 velocity=0 time=0
note_on channel=0 note=55 velocity=0 time=0
note_on channel=0 note=59 velocity=0 time=0
note_on channel=0 note=72 velocity=50 time=0
note_on channel=0 note=52 velocity=37 time=0
note_on channel=0 note=55 velocity=37 time=0
note_on channel=0 note=60 velocity=43 time=0
note_on channel=0 note=72 velocity=0 time=240
note_on channel=0 note=76 velocity=49 time=0
note_on channel=0 note=76 velocity=0 time=0
note_on channel=0 note=60 velocity=0 time=0
note_on channel=0 note=52 velocity=0 time=0
note_on channel=0 note=67 velocity=0 time=0
note_on channel=0 note=48 velocity=0 time=0
note_on channel=0 note=55 velocity=0 time=0
note_on channel=0 note=36 velocity=85 time=0
note_on channel=0 note=36 velocity=0 time=0
note_on channel=0 note=91 velocity=75 time=0
note_on channel=0 note=48 velocity=66 time=0
note_on channel=0 note=52 velocity=66 time=0
note_on channel=0 note=55 velocity=66 time=0
note_on channel=0 note=60 velocity=78 time=0
note_on channel=0 note=60 velocity=0 time=120
note_on channel=0 note=52 velocity=0 time=0
note_on channel=0 note=91 velocity=0 time=0
note_on channel=0 note=48 velocity=0 time=0
note_on channel=0 note=55 velocity=0 time=0
note_on channel=0 note=90 velocity=69 time=0
note_on channel=0 note=90 velocity=0 time=120
note_on channel=0 note=91 velocity=75 time=0
note_on channel=0 note=48 velocity=66 time=0
note_on channel=0 note=52 velocity=66 time=0
note_on channel=0 note=55 velocity=66 time=0
note_on channel=0 note=60 velocity=78 time=0
note_on channel=0 note=91 velocity=0 time=120
note_on channel=0 note=90 velocity=70 time=0
note_on channel=0 note=90 velocity=0 time=0
note_on channel=0 note=91 velocity=75 time=0
note_on channel=0 note=91 velocity=0 time=20
note_on channel=0 note=88 velocity=70 time=0
note_on channel=0 note=88 velocity=0 time=0
note_on channel=0 note=60 velocity=0 time=0
note_on channel=0 note=55 velocity=0 time=0
note_on channel=0 note=52 velocity=0 time=0
note_on channel=0 note=86 velocity=72 time=0
note_on channel=0 note=53 velocity=69 time=0
note_on channel=0 note=55 velocity=69 time=0
note_on channel=0 note=59 velocity=82 time=0
note_on channel=0 note=86 velocity=0 time=45
note_on channel=0 note=85 velocity=64 time=0
note_on channel=0 note=85 velocity=0 time=120
note_on channel=0 note=86 velocity=72 time=0
note_on channel=0 note=86 velocity=0 time=120
note_on channel=0 note=79 velocity=67 time=0
note_on channel=0 note=79 velocity=0 time=0
note_on channel=0 note=59 velocity=0 time=0
note_on channel=0 note=55 velocity=0 time=0
note_on channel=0 note=53 velocity=0 time=0
note_on channel=0 note=84 velocity=72 time=0
note_on channel=0 note=52 velocity=65 time=0
note_on channel=0 note=55 velocity=65 time=0
note_on channel=0 note=60 velocity=77 time=0
note_on channel=0 note=84 velocity=0 time=23
note_on channel=0 note=83 velocity=66 time=0
note_on channel=0 note=83 velocity=0 time=120
note_on channel=0 note=84 velocity=75 time=0
note_on channel=0 note=84 velocity=0 time=120
note_on channel=0 note=88 velocity=69 time=0
note_on channel=0 note=88 velocity=0 time=0
note_on channel=0 note=60 velocity=0 time=0
note_on channel=0 note=48 velocity=0 time=0
note_on channel=0 note=52 velocity=0 time=0
note_on channel=0 note=55 velocity=0 time=0
note_on channel=0 note=36 velocity=48 time=0
note_on channel=0 note=36 velocity=0 time=0
note_on channel=0 note=79 velocity=50 time=0
note_on channel=0 note=48 velocity=37 time=0
note_on channel=0 note=52 velocity=37 time=0
note_on channel=0 note=55 velocity=37 time=0
note_on channel=0 note=60 velocity=43 time=0
note_on channel=0 note=60 velocity=0 time=120
note_on channel=0 note=52 velocity=0 time=0
note_on channel=0 note=79 velocity=0 time=0
note_on channel=0 note=48 velocity=0 time=0
note_on channel=0 note=55 velocity=0 time=0
note_on channel=0 note=78 velocity=47 time=0
note_on channel=0 note=78 velocity=0 time=120
note_on channel=0 note=79 velocity=50 time=0
note_on channel=0 note=48 velocity=37 time=0
note_on channel=0 note=52 velocity=37 time=0
note_on channel=0 note=55 velocity=37 time=0
note_on channel=0 note=60 velocity=43 time=0
note_on channel=0 note=79 velocity=0 time=120
note_on channel=0 note=78 velocity=46 time=0
note_on channel=0 note=78 velocity=0 time=0
note_on channel=0 note=79 velocity=50 time=0
note_on channel=0 note=79 velocity=0 time=20
note_on channel=0 note=76 velocity=44 time=0
note_on channel=0 note=76 velocity=0 time=40
note_on channel=0 note=60 velocity=0 time=0
note_on channel=0 note=55 velocity=0 time=0
note_on channel=0 note=52 velocity=0 time=0
note_on channel=0 note=74 velocity=48 time=0
note_on channel=0 note=53 velocity=38 time=0
note_on channel=0 note=55 velocity=38 time=0
note_on channel=0 note=59 velocity=46 time=0
note_on channel=0 note=74 velocity=0 time=112
note_on channel=0 note=73 velocity=45 time=0
note_on channel=0 note=73 velocity=0 time=120
note_on channel=0 note=74 velocity=49 time=0
note_on channel=0 note=74 velocity=0 time=120
note_on channel=0 note=67 velocity=45 time=0
note_on channel=0 note=67 velocity=0 time=20
note_on channel=0 note=59 velocity=0 time=0
note_on channel=0 note=55 velocity=0 time=0
note_on channel=0 note=53 velocity=0 time=0
note_on channel=0 note=72 velocity=49 time=0
note_on channel=0 note=52 velocity=37 time=0
note_on channel=0 note=55 velocity=37 time=0
note_on channel=0 note=60 velocity=43 time=0
note_on channel=0 note=72 velocity=0 time=120
note_on channel=0 note=71 velocity=46 time=0
note_on channel=0 note=71 velocity=0 time=120
note_on channel=0 note=72 velocity=49 time=0
note_on channel=0 note=72 velocity=0 time=120
note_on channel=0 note=76 velocity=46 time=0
note_on channel=0 note=76 velocity=0 time=0
note_on channel=0 note=60 velocity=0 time=0
note_on channel=0 note=48 velocity=0 time=0
note_on channel=0 note=52 velocity=0 time=0
note_on channel=0 note=55 velocity=0 time=0
note_on channel=0 note=62 velocity=50 time=0
note_on channel=0 note=48 velocity=34 time=0
note_on channel=0 note=53 velocity=41 time=0
note_on channel=0 note=62 velocity=0 time=120
note_on channel=0 note=61 velocity=45 time=0
note_on channel=0 note=53 velocity=0 time=118
note_on channel=0 note=48 velocity=0 time=0
note_on channel=0 note=61 velocity=0 time=2
note_on channel=0 note=62 velocity=51 time=0
note_on channel=0 note=48 velocity=30 time=0
note_on channel=0 note=53 velocity=36 time=0
note_on channel=0 note=62 velocity=0 time=120
note_on channel=0 note=55 velocity=46 time=0
note_on channel=0 note=53 velocity=0 time=118
note_on channel=0 note=48 velocity=0 time=0
note_on channel=0 note=55 velocity=0 time=0
note_on channel=0 note=60 velocity=51 time=0
note_on channel=0 note=48 velocity=31 time=0
note_on channel=0 note=52 velocity=37 time=0
note_on channel=0 note=59 velocity=46 time=120
note_on channel=0 note=60 velocity=0 time=10
note_on channel=0 note=48 velocity=0 time=108
note_on channel=0 note=52 velocity=0 time=0
note_on channel=0 note=60 velocity=51 time=2
note_on channel=0 note=48 velocity=32 time=0
note_on channel=0 note=52 velocity=38 time=0
note_on channel=0 note=59 velocity=0 time=10
note_on channel=0 note=64 velocity=46 time=0
note_on channel=0 note=60 velocity=0 time=10
note_on channel=0 note=52 velocity=0 time=108
note_on channel=0 note=48 velocity=0 time=0
note_on channel=0 note=64 velocity=0 time=0
note_on channel=0 note=62 velocity=50 time=0
note_on channel=0 note=48 velocity=34 time=0
note_on channel=0 note=53 velocity=41 time=0
note_on channel=0 note=62 velocity=0 time=120
note_on channel=0 note=61 velocity=45 time=0
note_on channel=0 note=53 velocity=0 time=118
note_on channel=0 note=48 velocity=0 time=0
note_on channel=0 note=61 velocity=0 time=2
note_on channel=0 note=62 velocity=51 time=0
note_on channel=0 note=48 velocity=30 time=0
note_on channel=0 note=53 velocity=36 time=0
note_on channel=0 note=62 velocity=0 time=120
note_on channel=0 note=55 velocity=46 time=0
note_on channel=0 note=53 velocity=0 time=118
note_on channel=0 note=48 velocity=0 time=0
note_on channel=0 note=55 velocity=0 time=0
note_on channel=0 note=60 velocity=51 time=0
note_on channel=0 note=48 velocity=31 time=0
note_on channel=0 note=52 velocity=37 time=0
note_on channel=0 note=59 velocity=46 time=120
note_on channel=0 note=60 velocity=0 time=10
note_on channel=0 note=48 velocity=0 time=108
note_on channel=0 note=52 velocity=0 time=0
note_on channel=0 note=60 velocity=51 time=2
note_on channel=0 note=48 velocity=32 time=0
note_on channel=0 note=52 velocity=38 time=0
note_on channel=0 note=59 velocity=0 time=10
note_on channel=0 note=64 velocity=46 time=0
note_on channel=0 note=60 velocity=0 time=10
note_on channel=0 note=52 velocity=0 time=108
note_on channel=0 note=48 velocity=0 time=0
note_on channel=0 note=64 velocity=0 time=0
note_on channel=0 note=62 velocity=55 time=0
note_on channel=0 note=48 velocity=37 time=0
note_on channel=0 note=53 velocity=45 time=0
note_on channel=0 note=62 velocity=0 time=120
note_on channel=0 note=61 velocity=49 time=0
note_on channel=0 note=53 velocity=0 time=118
note_on channel=0 note=48 velocity=0 time=0
note_on channel=0 note=61 velocity=0 time=2
note_on channel=0 note=62 velocity=57 time=0
note_on channel=0 note=53 velocity=33 time=0
note_on channel=0 note=48 velocity=33 time=0
note_on channel=0 note=55 velocity=40 time=0
note_on channel=0 note=62 velocity=0 time=120
note_on channel=0 note=59 velocity=52 time=0
note_on channel=0 note=53 velocity=0 time=118
note_on channel=0 note=55 velocity=0 time=0
note_on channel=0 note=48 velocity=0 time=0
note_on channel=0 note=59 velocity=0 time=0
note_on channel=0 note=65 velocity=59 time=0
note_on channel=0 note=50 velocity=36 time=0
note_on channel=0 note=53 velocity=36 time=0
note_on channel=0 note=55 velocity=36 time=0
note_on channel=0 note=48 velocity=36 time=0
note_on channel=0 note=59 velocity=43 time=0
note_on channel=0 note=64 velocity=54 time=120
note_on channel=0 note=65 velocity=0 time=10
note_on channel=0 note=48 velocity=0 time=108
note_on channel=0 note=53 velocity=0 time=0
note_on channel=0 note=55 velocity=0 time=0
note_on channel=0 note=50 velocity=0 time=0
note_on channel=0 note=59 velocity=0 time=0
note_on channel=0 note=65 velocity=61 time=2
note_on channel=0 note=50 velocity=38 time=0
note_on channel=0 note=53 velocity=38 time=0
note_on channel=0 note=55 velocity=38 time=0
note_on channel=0 note=48 velocity=38 time=0
note_on channel=0 note=59 velocity=45 time=0
note_on channel=0 note=64 velocity=0 time=10
note_on channel=0 note=62 velocity=56 time=0
note_on channel=0 note=65 velocity=0 time=10
note_on channel=0 note=48 velocity=0 time=108
note_on channel=0 note=50 velocity=0 time=0
note_on channel=0 note=55 velocity=0 time=0
note_on channel=0 note=53 velocity=0 time=0
note_on channel=0 note=59 velocity=0 time=0
note_on channel=0 note=62 velocity=0 time=0
note_on channel=0 note=71 velocity=62 time=0
note_on channel=0 note=50 velocity=42 time=0
note_on channel=0 note=53 velocity=42 time=0
note_on channel=0 note=55 velocity=42 time=0
note_on channel=0 note=48 velocity=42 time=0
note_on channel=0 note=59 velocity=51 time=0
note_on channel=0 note=71 velocity=0 time=85
note_on channel=0 note=70 velocity=56 time=0
note_on channel=0 note=53 velocity=0 time=118
note_on channel=0 note=48 velocity=0 time=0
note_on channel=0 note=55 velocity=0 time=0
note_on channel=0 note=50 velocity=0 time=0
note_on channel=0 note=59 velocity=0 time=0
note_on channel=0 note=70 velocity=0 time=2
note_on channel=0 note=71 velocity=65 time=0
note_on channel=0 note=50 velocity=38 time=0
note_on channel=0 note=55 velocity=38 time=0
note_on channel=0 note=53 velocity=38 time=0
note_on channel=0 note=48 velocity=38 time=0
note_on channel=0 note=59 velocity=46 time=0
note_on channel=0 note=71 velocity=0 time=120
note_on channel=0 note=65 velocity=59 time=0
note_on channel=0 note=55 velocity=0 time=118
note_on channel=0 note=48 velocity=0 time=0
note_on channel=0 note=53 velocity=0 time=0
note_on channel=0 note=50 velocity=0 time=0
note_on channel=0 note=59 velocity=0 time=0
note_on channel=0 note=65 velocity=0 time=0
note_on channel=0 note=74 velocity=67 time=0
note_on channel=0 note=50 velocity=40 time=0
note_on channel=0 note=53 velocity=40 time=0
note_on channel=0 note=55 velocity=40 time=0
note_on channel=0 note=48 velocity=40 time=0
note_on channel=0 note=59 velocity=48 time=0
note_on channel=0 note=73 velocity=61 time=51
note_on channel=0 note=74 velocity=0 time=10
note_on channel=0 note=48 velocity=0 time=108
note_on channel=0 note=53 velocity=0 time=0
note_on channel=0 note=55 velocity=0 time=0
note_on channel=0 note=50 velocity=0 time=0
note_on channel=0 note=59 velocity=0 time=0
note_on channel=0 note=74 velocity=69 time=2
note_on channel=0 note=50 velocity=43 time=0
note_on channel=0 note=53 velocity=43 time=0
note_on channel=0 note=55 velocity=43 time=0
note_on channel=0 note=48 velocity=43 time=0
note_on channel=0 note=59 velocity=51 time=0
note_on channel=0 note=73 velocity=0 time=10
note_on channel=0 note=71 velocity=63 time=0
note_on channel=0 note=74 velocity=0 time=10
note_on channel=0 note=48 velocity=0 time=108
note_on channel=0 note=50 velocity=0 time=0
note_on channel=0 note=55 velocity=0 time=0
note_on channel=0 note=53 velocity=0 time=0
note_on channel=0 note=59 velocity=0 time=0
note_on channel=0 note=71 velocity=0 time=0
note_on channel=0 note=77 velocity=70 time=0
note_on channel=0 note=50 velocity=47 time=0
note_on channel=0 note=53 velocity=47 time=0
note_on channel=0 note=55 velocity=47 time=0
note_on channel=0 note=48 velocity=47 time=0
note_on channel=0 note=59 velocity=57 time=0
note_on channel=0 note=77 velocity=0 time=68
note_on channel=0 note=76 velocity=63 time=0
note_on channel=0 note=53 velocity=0 time=118
note_on channel=0 note=48 velocity=0 time=0
note_on channel=0 note=55 velocity=0 time=0
note_on channel=0 note=50 velocity=0 time=0
note_on channel=0 note=59 velocity=0 time=0
note_on channel=0 note=76 velocity=0 time=2
note_on channel=0 note=77 velocity=71 time=0
note_on channel=0 note=50 velocity=42 time=0
note_on channel=0 note=55 velocity=42 time=0
note_on channel=0 note=53 velocity=42 time=0
note_on channel=0 note=48 velocity=42 time=0
note_on channel=0 note=59 velocity=50 time=0
note_on channel=0 note=77 velocity=0 time=120
note_on channel=0 note=74 velocity=65 time=0
note_on channel=0 note=55 velocity=0 time=118
note_on channel=0 note=48 velocity=0 time=0
note_on channel=0 note=53 velocity=0 time=0
note_on channel=0 note=50 velocity=0 time=0
note_on channel=0 note=59 velocity=0 time=0
note_on channel=0 note=74 velocity=0 time=0
note_on channel=0 note=83 velocity=73 time=0
note_on channel=0 note=50 velocity=44 time=0
note_on channel=0 note=53 velocity=44 time=0
note_on channel=0 note=55 velocity=44 time=0
note_on channel=0 note=48 velocity=44 time=0
note_on channel=0 note=59 velocity=52 time=0
note_on channel=0 note=82 velocity=66 time=40
note_on channel=0 note=83 velocity=0 time=10
note_on channel=0 note=48 velocity=0 time=108
note_on channel=0 note=53 velocity=0 time=0
note_on channel=0 note=55 velocity=0 time=0
note_on channel=0 note=50 velocity=0 time=0
note_on channel=0 note=59 velocity=0 time=0
note_on channel=0 note=83 velocity=73 time=2
note_on channel=0 note=50 velocity=45 time=0
note_on channel=0 note=53 velocity=45 time=0
note_on channel=0 note=55 velocity=45 time=0
note_on channel=0 note=48 velocity=45 time=0
note_on channel=0 note=59 velocity=55 time=0
note_on channel=0 note=82 velocity=0 time=10
note_on channel=0 note=77 velocity=67 time=0
note_on channel=0 note=83 velocity=0 time=10
note_on channel=0 note=48 velocity=0 time=108
note_on channel=0 note=50 velocity=0 time=0
note_on channel=0 note=55 velocity=0 time=0
note_on channel=0 note=53 velocity=0 time=0
note_on channel=0 note=59 velocity=0 time=0
note_on channel=0 note=77 velocity=0 time=0
note_on channel=0 note=86 velocity=74 time=0
note_on channel=0 note=50 velocity=49 time=0
note_on channel=0 note=53 velocity=49 time=0
note_on channel=0 note=55 velocity=49 time=0
note_on channel=0 note=48 velocity=49 time=0
note_on channel=0 note=59 velocity=60 time=0
note_on channel=0 note=86 velocity=0 time=57
note_on channel=0 note=85 velocity=67 time=0
note_on channel=0 note=53 velocity=0 time=118
note_on channel=0 note=48 velocity=0 time=0
note_on channel=0 note=55 velocity=0 time=0
note_on channel=0 note=50 velocity=0 time=0
note_on channel=0 note=59 velocity=0 time=0
note_on channel=0 note=85 velocity=0 time=2
note_on channel=0 note=86 velocity=76 time=0
note_on channel=0 note=50 velocity=45 time=0
note_on channel=0 note=55 velocity=45 time=0
note_on channel=0 note=53 velocity=45 time=0
note_on channel=0 note=48 velocity=45 time=0
note_on channel=0 note=59 velocity=54 time=0
note_on channel=0 note=86 velocity=0 time=120
note_on channel=0 note=83 velocity=69 time=0
note_on channel=0 note=55 velocity=0 time=118
note_on channel=0 note=48 velocity=0 time=0
note_on channel=0 note=53 velocity=0 time=0
note_on channel=0 note=50 velocity=0 time=0
note_on channel=0 note=59 velocity=0 time=0
note_on channel=0 note=83 velocity=0 time=0
note_on channel=0 note=89 velocity=77 time=0
note_on channel=0 note=50 velocity=46 time=0
note_on channel=0 note=53 velocity=46 time=0
note_on channel=0 note=55 velocity=46 time=0
note_on channel=0 note=48 velocity=46 time=0
note_on channel=0 note=59 velocity=55 time=0
note_on channel=0 note=88 velocity=70 time=40
note_on channel=0 note=89 velocity=0 time=10
note_on channel=0 note=48 velocity=0 time=108
note_on channel=0 note=53 velocity=0 time=0
note_on channel=0 note=55 velocity=0 time=0
note_on channel=0 note=50 velocity=0 time=0
note_on channel=0 note=59 velocity=0 time=0
note_on channel=0 note=89 velocity=78 time=2
note_on channel=0 note=50 velocity=48 time=0
note_on channel=0 note=53 velocity=48 time=0
note_on channel=0 note=55 velocity=48 time=0
note_on channel=0 note=48 velocity=48 time=0
note_on channel=0 note=59 velocity=58 time=0
note_on channel=0 note=88 velocity=0 time=10
note_on channel=0 note=83 velocity=71 time=0
note_on channel=0 note=89 velocity=0 time=10
note_on channel=0 note=48 velocity=0 time=108
note_on channel=0 note=50 velocity=0 time=0
note_on channel=0 note=55 velocity=0 time=0
note_on channel=0 note=53 velocity=0 time=0
note_on channel=0 note=59 velocity=0 time=0
note_on channel=0 note=83 velocity=0 time=2
note_on channel=0 note=84 velocity=91 time=0
note_on channel=0 note=36 velocity=71 time=0
note_on channel=0 note=48 velocity=71 time=0
note_on channel=0 note=48 velocity=0 time=63
note_on channel=0 note=36 velocity=0 time=0
note_on channel=0 note=84 velocity=0 time=0
note_on channel=0 note=64 velocity=68 time=0
note_on channel=0 note=67 velocity=81 time=0
note_on channel=0 note=52 velocity=56 time=0
note_on channel=0 note=55 velocity=67 time=0
note_on channel=0 note=55 velocity=0 time=120
note_on channel=0 note=64 velocity=0 time=0
note_on channel=0 note=67 velocity=0 time=0
note_on channel=0 note=52 velocity=0 time=0
note_on channel=0 note=60 velocity=72 time=120
note_on channel=0 note=64 velocity=85 time=0
note_on channel=0 note=48 velocity=59 time=0
note_on channel=0 note=52 velocity=70 time=0
note_on channel=0 note=52 velocity=0 time=120
note_on channel=0 note=60 velocity=0 time=0
note_on channel=0 note=64 velocity=0 time=0
note_on channel=0 note=48 velocity=0 time=0
note_on channel=0 note=67 velocity=68 time=120
note_on channel=0 note=72 velocity=81 time=0
note_on channel=0 note=60 velocity=67 time=0
note_on channel=0 note=55 velocity=56 time=0
note_on channel=0 note=55 velocity=0 time=120
note_on channel=0 note=67 velocity=0 time=0
note_on channel=0 note=72 velocity=0 time=0
note_on channel=0 note=60 velocity=0 time=0
note_on channel=0 note=64 velocity=71 time=120
note_on channel=0 note=67 velocity=84 time=0
note_on channel=0 note=52 velocity=59 time=0
note_on channel=0 note=55 velocity=70 time=0
note_on channel=0 note=55 velocity=0 time=120
note_on channel=0 note=64 velocity=0 time=0
note_on channel=0 note=67 velocity=0 time=0
note_on channel=0 note=52 velocity=0 time=0
note_on channel=0 note=72 velocity=68 time=120
note_on channel=0 note=76 velocity=81 time=0
note_on channel=0 note=60 velocity=56 time=0
note_on channel=0 note=64 velocity=67 time=0
note_on channel=0 note=64 velocity=0 time=120
note_on channel=0 note=72 velocity=0 time=0
note_on channel=0 note=76 velocity=0 time=0
note_on channel=0 note=60 velocity=0 time=0
note_on channel=0 note=67 velocity=73 time=120
note_on channel=0 note=72 velocity=86 time=0
note_on channel=0 note=55 velocity=60 time=0
note_on channel=0 note=60 velocity=71 time=0
note_on channel=0 note=60 velocity=0 time=120
note_on channel=0 note=67 velocity=0 time=0
note_on channel=0 note=72 velocity=0 time=0
note_on channel=0 note=55 velocity=0 time=0
note_on channel=0 note=76 velocity=68 time=120
note_on channel=0 note=79 velocity=81 time=0
note_on channel=0 note=60 velocity=56 time=0
note_on channel=0 note=64 velocity=67 time=0
note_on channel=0 note=64 velocity=0 time=120
note_on channel=0 note=76 velocity=0 time=0
note_on channel=0 note=79 velocity=0 time=0
note_on channel=0 note=60 velocity=0 time=0
note_on channel=0 note=72 velocity=73 time=120
note_on channel=0 note=76 velocity=86 time=0
note_on channel=0 note=64 velocity=59 time=0
note_on channel=0 note=67 velocity=70 time=0
note_on channel=0 note=67 velocity=0 time=120
note_on channel=0 note=72 velocity=0 time=0
note_on channel=0 note=76 velocity=0 time=0
note_on channel=0 note=64 velocity=0 time=0
note_on channel=0 note=84 velocity=81 time=120
note_on channel=0 note=79 velocity=68 time=0
note_on channel=0 note=67 velocity=57 time=0
note_on channel=0 note=72 velocity=68 time=0
note_on channel=0 note=72 velocity=0 time=120
note_on channel=0 note=84 velocity=0 time=0
note_on channel=0 note=79 velocity=0 time=0
note_on channel=0 note=67 velocity=0 time=0
note_on channel=0 note=76 velocity=73 time=120
note_on channel=0 note=79 velocity=86 time=0
note_on channel=0 note=64 velocity=59 time=0
note_on channel=0 note=67 velocity=70 time=0
note_on channel=0 note=67 velocity=0 time=120
note_on channel=0 note=76 velocity=0 time=0
note_on channel=0 note=79 velocity=0 time=0
note_on channel=0 note=64 velocity=0 time=0
note_on channel=0 note=88 velocity=82 time=120
note_on channel=0 note=84 velocity=69 time=0
note_on channel=0 note=72 velocity=57 time=0
note_on channel=0 note=76 velocity=68 time=0
note_on channel=0 note=76 velocity=0 time=120
note_on channel=0 note=88 velocity=0 time=0
note_on channel=0 note=84 velocity=0 time=0
note_on channel=0 note=72 velocity=0 time=0
note_on channel=0 note=84 velocity=87 time=120
note_on channel=0 note=79 velocity=73 time=0
note_on channel=0 note=67 velocity=60 time=0
note_on channel=0 note=72 velocity=71 time=0
note_on channel=0 note=72 velocity=0 time=120
note_on channel=0 note=84 velocity=0 time=0
note_on channel=0 note=79 velocity=0 time=0
note_on channel=0 note=67 velocity=0 time=0
note_on channel=0 note=91 velocity=82 time=120
note_on channel=0 note=88 velocity=69 time=0
note_on channel=0 note=76 velocity=58 time=0
note_on channel=0 note=79 velocity=69 time=0
note_on channel=0 note=79 velocity=0 time=120
note_on channel=0 note=91 velocity=0 time=0
note_on channel=0 note=88 velocity=0 time=0
note_on channel=0 note=76 velocity=0 time=0
note_on channel=0 note=84 velocity=74 time=120
note_on channel=0 note=88 velocity=88 time=0
note_on channel=0 note=72 velocity=61 time=0
note_on channel=0 note=76 velocity=72 time=0
note_on channel=0 note=76 velocity=0 time=120
note_on channel=0 note=84 velocity=0 time=0
note_on channel=0 note=88 velocity=0 time=0
note_on channel=0 note=72 velocity=0 time=0
note_on channel=0 note=91 velocity=82 time=120
note_on channel=0 note=88 velocity=69 time=0
note_on channel=0 note=76 velocity=58 time=0
note_on channel=0 note=79 velocity=69 time=0
note_on channel=0 note=79 velocity=0 time=120
note_on channel=0 note=91 velocity=0 time=0
note_on channel=0 note=88 velocity=0 time=0
note_on channel=0 note=76 velocity=0 time=0
note_on channel=0 note=88 velocity=87 time=120
note_on channel=0 note=84 velocity=73 time=0
note_on channel=0 note=72 velocity=61 time=0
note_on channel=0 note=76 velocity=72 time=0
note_on channel=0 note=76 velocity=0 time=120
note_on channel=0 note=88 velocity=0 time=0
note_on channel=0 note=84 velocity=0 time=0
note_on channel=0 note=72 velocity=0 time=0
note_on channel=0 note=76 velocity=54 time=0
note_on channel=0 note=79 velocity=76 time=0
note_on channel=0 note=64 velocity=44 time=0
note_on channel=0 note=67 velocity=62 time=0
note_on channel=0 note=67 velocity=0 time=240
note_on channel=0 note=76 velocity=0 time=0
note_on channel=0 note=79 velocity=0 time=0
note_on channel=0 note=64 velocity=0 time=0
note_on channel=0 note=72 velocity=50 time=720
note_on channel=0 note=76 velocity=70 time=0
note_on channel=0 note=60 velocity=39 time=0
note_on channel=0 note=64 velocity=56 time=0
note_on channel=0 note=64 velocity=0 time=240
note_on channel=0 note=72 velocity=0 time=0
note_on channel=0 note=76 velocity=0 time=0
note_on channel=0 note=60 velocity=0 time=0
note_on channel=0 note=64 velocity=43 time=720
note_on channel=0 note=67 velocity=60 time=0
note_on channel=0 note=52 velocity=37 time=0
note_on channel=0 note=55 velocity=52 time=0
note_on channel=0 note=55 velocity=0 time=240
note_on channel=0 note=64 velocity=0 time=0
note_on channel=0 note=67 velocity=0 time=0
note_on channel=0 note=52 velocity=0 time=0
note_on channel=0 note=60 velocity=39 time=720
note_on channel=0 note=64 velocity=56 time=0
note_on channel=0 note=48 velocity=32 time=0
note_on channel=0 note=52 velocity=45 time=0
note_on channel=0 note=52 velocity=0 time=240
note_on channel=0 note=60 velocity=0 time=0
note_on channel=0 note=64 velocity=0 time=0
note_on channel=0 note=48 velocity=0 time=0
note_on channel=0 note=76 velocity=36 time=720
note_on channel=0 note=79 velocity=43 time=0
note_on channel=0 note=64 velocity=28 time=0
note_on channel=0 note=67 velocity=34 time=0
note_on channel=0 note=67 velocity=0 time=240
note_on channel=0 note=76 velocity=0 time=0
note_on channel=0 note=79 velocity=0 time=0
note_on channel=0 note=64 velocity=0 time=0
note_on channel=0 note=76 velocity=36 time=240
note_on channel=0 note=79 velocity=43 time=0
note_on channel=0 note=64 velocity=28 time=0
note_on channel=0 note=67 velocity=34 time=0
note_on channel=0 note=67 velocity=0 time=240
note_on channel=0 note=76 velocity=0 time=0
note_on channel=0 note=79 velocity=0 time=0
note_on channel=0 note=64 velocity=0 time=0
note_on channel=0 note=72 velocity=35 time=240
note_on channel=0 note=76 velocity=42 time=0
note_on channel=0 note=60 velocity=28 time=0
note_on channel=0 note=64 velocity=34 time=0
note_on channel=0 note=64 velocity=0 time=240
note_on channel=0 note=72 velocity=0 time=0
note_on channel=0 note=76 velocity=0 time=0
note_on channel=0 note=60 velocity=0 time=0
note_on channel=0 note=91 velocity=101 time=0
note_on channel=0 note=88 velocity=101 time=0
note_on channel=0 note=84 velocity=85 time=0
note_on channel=0 note=79 velocity=85 time=0
note_on channel=0 note=36 velocity=69 time=0
note_on channel=0 note=40 velocity=69 time=0
note_on channel=0 note=43 velocity=69 time=0
note_on channel=0 note=48 velocity=82 time=0
note_on channel=0 note=48 velocity=0 time=120
note_on channel=0 note=91 velocity=0 time=0
note_on channel=0 note=36 velocity=0 time=0
note_on channel=0 note=88 velocity=0 time=0
note_on channel=0 note=84 velocity=0 time=0
note_on channel=0 note=79 velocity=0 time=0
note_on channel=0 note=40 velocity=0 time=0
note_on channel=0 note=43 velocity=0 time=0
note_on channel=0 note=79 velocity=85 time=360
note_on channel=0 note=84 velocity=85 time=0
note_on channel=0 note=88 velocity=101 time=0
note_on channel=0 note=91 velocity=101 time=0
note_on channel=0 note=36 velocity=69 time=0
note_on channel=0 note=40 velocity=69 time=0
note_on channel=0 note=43 velocity=69 time=0
note_on channel=0 note=48 velocity=82 time=0
note_on channel=0 note=48 velocity=0 time=120
note_on channel=0 note=79 velocity=0 time=0
note_on channel=0 note=36 velocity=0 time=0
note_on channel=0 note=84 velocity=0 time=0
note_on channel=0 note=88 velocity=0 time=0
note_on channel=0 note=91 velocity=0 time=0
note_on channel=0 note=40 velocity=0 time=0
note_on channel=0 note=43 velocity=0 time=0
note_on channel=0 note=88 velocity=101 time=360
note_on channel=0 note=84 velocity=101 time=0
note_on channel=0 note=79 velocity=85 time=0
note_on channel=0 note=76 velocity=85 time=0
note_on channel=0 note=36 velocity=69 time=0
note_on channel=0 note=40 velocity=69 time=0
note_on channel=0 note=43 velocity=69 time=0
note_on channel=0 note=48 velocity=82 time=0
note_on channel=0 note=48 velocity=0 time=120
note_on channel=0 note=88 velocity=0 time=0
note_on channel=0 note=36 velocity=0 time=0
note_on channel=0 note=84 velocity=0 time=0
note_on channel=0 note=79 velocity=0 time=0
note_on channel=0 note=76 velocity=0 time=0
note_on channel=0 note=40 velocity=0 time=0
note_on channel=0 note=43 velocity=0 time=0
note_on channel=0 note=64 velocity=85 time=0
note_on channel=0 note=67 velocity=85 time=0
note_on channel=0 note=72 velocity=101 time=0
note_on channel=0 note=76 velocity=101 time=0
note_on channel=0 note=36 velocity=69 time=0
note_on channel=0 note=40 velocity=69 time=0
note_on channel=0 note=43 velocity=69 time=0
note_on channel=0 note=48 velocity=82 time=0
note_on channel=0 note=48 velocity=0 time=70
note_on channel=0 note=64 velocity=0 time=0
note_on channel=0 note=36 velocity=0 time=0
note_on channel=0 note=67 velocity=0 time=0
note_on channel=0 note=72 velocity=0 time=0
note_on channel=0 note=76 velocity=0 time=0
note_on channel=0 note=40 velocity=0 time=0
note_on channel=0 note=43 velocity=0 time=0
note_on channel=0 note=60 velocity=85 time=720
note_on channel=0 note=64 velocity=85 time=0
note_on channel=0 note=67 velocity=101 time=0
note_on channel=0 note=72 velocity=101 time=0
note_on channel=0 note=36 velocity=69 time=0
note_on channel=0 note=40 velocity=69 time=0
note_on channel=0 note=43 velocity=69 time=0
note_on channel=0 note=48 velocity=82 time=0
note_on channel=0 note=48 velocity=0 time=63
note_on channel=0 note=60 velocity=0 time=0
note_on channel=0 note=36 velocity=0 time=0
note_on channel=0 note=64 velocity=0 time=0
note_on channel=0 note=67 velocity=0 time=0
note_on channel=0 note=72 velocity=0 time=0
note_on channel=0 note=40 velocity=0 time=0
note_on channel=0 note=43 velocity=0 time=0
