control_change channel=0 control=7 value=100 time=0
control_change channel=0 control=10 value=64 time=0
control_change channel=0 control=91 value=127 time=0
control_change channel=0 control=7 value=100 time=0
control_change channel=0 control=10 value=64 time=0
note_on channel=0 note=29 velocity=29 time=0
note_on channel=0 note=41 velocity=35 time=0
control_change channel=0 control=64 value=127 time=57
note_on channel=0 note=48 velocity=41 time=183
note_on channel=0 note=48 velocity=0 time=0
note_on channel=0 note=48 velocity=41 time=0
note_on channel=0 note=48 velocity=0 time=0
note_on channel=0 note=57 velocity=47 time=0
note_on channel=0 note=57 velocity=0 time=240
note_on channel=0 note=41 velocity=0 time=0
note_on channel=0 note=29 velocity=0 time=0
note_on channel=0 note=29 velocity=29 time=0
note_on channel=0 note=41 velocity=35 time=0
control_change channel=0 control=64 value=0 time=18
control_change channel=0 control=64 value=127 time=92
note_on channel=0 note=57 velocity=40 time=130
note_on channel=0 note=57 velocity=0 time=0
note_on channel=0 note=57 velocity=40 time=0
note_on channel=0 note=57 velocity=0 time=0
note_on channel=0 note=63 velocity=46 time=0
note_on channel=0 note=63 velocity=0 time=240
note_on channel=0 note=41 velocity=0 time=0
note_on channel=0 note=29 velocity=0 time=0
control_change channel=0 control=64 value=0 time=10
note_on channel=0 note=56 velocity=36 time=0
note_on channel=0 note=64 velocity=36 time=0
note_on channel=0 note=40 velocity=26 time=0
note_on channel=0 note=52 velocity=31 time=0
control_change channel=0 control=64 value=127 time=149
note_on channel=0 note=52 velocity=0 time=79
note_on channel=0 note=56 velocity=0 time=0
note_on channel=0 note=64 velocity=0 time=0
note_on channel=0 note=40 velocity=0 time=0
note_on channel=0 note=59 velocity=30 time=0
note_on channel=0 note=56 velocity=25 time=0
note_on channel=0 note=64 velocity=30 time=0
note_on channel=0 note=40 velocity=21 time=0
note_on channel=0 note=52 velocity=25 time=0
note_on channel=0 note=52 velocity=0 time=228
note_on channel=0 note=64 velocity=0 time=0
note_on channel=0 note=59 velocity=0 time=0
note_on channel=0 note=56 velocity=0 time=0
note_on channel=0 note=40 velocity=0 time=0
note_on channel=0 note=56 velocity=24 time=12
note_on channel=0 note=59 velocity=28 time=0
note_on channel=0 note=64 velocity=28 time=0
note_on channel=0 note=40 velocity=20 time=0
note_on channel=0 note=52 velocity=24 time=0
note_on channel=0 note=52 velocity=0 time=480
note_on channel=0 note=64 velocity=0 time=0
note_on channel=0 note=56 velocity=0 time=0
note_on channel=0 note=59 velocity=0 time=0
note_on channel=0 note=40 velocity=0 time=0
control_change channel=0 control=64 value=0 time=12
control_change channel=0 control=91 value=127 time=228
note_on channel=0 note=40 velocity=31 time=0
note_on channel=0 note=52 velocity=38 time=0
control_change channel=0 control=64 value=127 time=67
note_on channel=0 note=59 velocity=41 time=173
note_on channel=0 note=59 velocity=0 time=0
note_on channel=0 note=59 velocity=41 time=0
note_on channel=0 note=59 velocity=0 time=0
note_on channel=0 note=67 velocity=47 time=0
note_on channel=0 note=67 velocity=0 time=240
note_on channel=0 note=52 velocity=0 time=0
note_on channel=0 note=40 velocity=0 time=0
note_on channel=0 note=40 velocity=31 time=0
note_on channel=0 note=52 velocity=38 time=0
control_change channel=0 control=64 value=0 time=18
control_change channel=0 control=64 value=127 time=53
note_on channel=0 note=61 velocity=40 time=169
note_on channel=0 note=61 velocity=0 time=0
note_on channel=0 note=61 velocity=40 time=0
note_on channel=0 note=61 velocity=0 time=0
note_on channel=0 note=70 velocity=46 time=0
note_on channel=0 note=70 velocity=0 time=240
note_on channel=0 note=52 velocity=0 time=0
note_on channel=0 note=40 velocity=0 time=0
control_change channel=0 control=64 value=0 time=15
note_on channel=0 note=66 velocity=32 time=0
note_on channel=0 note=59 velocity=36 time=0
note_on channel=0 note=71 velocity=36 time=0
note_on channel=0 note=47 velocity=26 time=0
note_on channel=0 note=39 velocity=26 time=0
note_on channel=0 note=51 velocity=31 time=0
control_change channel=0 control=64 value=127 time=149
note_on channel=0 note=51 velocity=0 time=79
note_on channel=0 note=59 velocity=0 time=0
note_on channel=0 note=71 velocity=0 time=0
note_on channel=0 note=66 velocity=0 time=0
note_on channel=0 note=39 velocity=0 time=0
note_on channel=0 note=47 velocity=0 time=0
note_on channel=0 note=66 velocity=32 time=0
note_on channel=0 note=59 velocity=27 time=0
note_on channel=0 note=71 velocity=32 time=0
note_on channel=0 note=47 velocity=23 time=0
note_on channel=0 note=39 velocity=23 time=0
note_on channel=0 note=51 velocity=27 time=0
note_on channel=0 note=51 velocity=0 time=228
note_on channel=0 note=59 velocity=0 time=0
note_on channel=0 note=71 velocity=0 time=0
note_on channel=0 note=66 velocity=0 time=0
note_on channel=0 note=39 velocity=0 time=0
note_on channel=0 note=47 velocity=0 time=0
note_on channel=0 note=59 velocity=24 time=12
note_on channel=0 note=66 velocity=28 time=0
note_on channel=0 note=71 velocity=28 time=0
note_on channel=0 note=47 velocity=20 time=0
note_on channel=0 note=39 velocity=20 time=0
note_on channel=0 note=51 velocity=24 time=0
note_on channel=0 note=51 velocity=0 time=480
note_on channel=0 note=66 velocity=0 time=0
note_on channel=0 note=71 velocity=0 time=0
note_on channel=0 note=59 velocity=0 time=0
note_on channel=0 note=39 velocity=0 time=0
note_on channel=0 note=47 velocity=0 time=0
control_change channel=0 control=64 value=0 time=12
control_change channel=0 control=91 value=127 time=228
note_on channel=0 note=38 velocity=38 time=0
note_on channel=0 note=50 velocity=45 time=0
control_change channel=0 control=64 value=127 time=53
note_on channel=0 note=65 velocity=46 time=187
note_on channel=0 note=65 velocity=0 time=0
note_on channel=0 note=65 velocity=54 time=0
note_on channel=0 note=65 velocity=0 time=0
note_on channel=0 note=71 velocity=60 time=0
note_on channel=0 note=71 velocity=0 time=240
note_on channel=0 note=50 velocity=0 time=0
note_on channel=0 note=38 velocity=0 time=0
note_on channel=0 note=37 velocity=42 time=0
note_on channel=0 note=49 velocity=50 time=0
control_change channel=0 control=64 value=0 time=11
control_change channel=0 control=64 value=127 time=102
note_on channel=0 note=71 velocity=60 time=0
note_on channel=0 note=71 velocity=0 time=0
note_on channel=0 note=71 velocity=60 time=0
note_on channel=0 note=71 velocity=0 time=0
note_on channel=0 note=77 velocity=70 time=0
note_on channel=0 note=49 velocity=0 time=240
note_on channel=0 note=37 velocity=0 time=0
note_on channel=0 note=36 velocity=44 time=0
note_on channel=0 note=48 velocity=52 time=0
control_change channel=0 control=64 value=0 time=17
control_change channel=0 control=64 value=127 time=157
note_on channel=0 note=48 velocity=0 time=54
note_on channel=0 note=36 velocity=0 time=0
note_on channel=0 note=77 velocity=0 time=0
note_on channel=0 note=76 velocity=65 time=0
note_on channel=0 note=36 velocity=44 time=0
note_on channel=0 note=48 velocity=52 time=0
note_on channel=0 note=48 velocity=0 time=228
note_on channel=0 note=36 velocity=0 time=0
note_on channel=0 note=76 velocity=0 time=0
note_on channel=0 note=79 velocity=68 time=0
note_on channel=0 note=36 velocity=44 time=0
note_on channel=0 note=48 velocity=52 time=0
note_on channel=0 note=48 velocity=0 time=228
note_on channel=0 note=36 velocity=0 time=0
note_on channel=0 note=79 velocity=0 time=0
note_on channel=0 note=64 velocity=32 time=0
note_on channel=0 note=70 velocity=39 time=0
note_on channel=0 note=36 velocity=31 time=0
note_on channel=0 note=48 velocity=36 time=0
control_change channel=0 control=64 value=0 time=334
note_on channel=0 note=48 velocity=0 time=146
note_on channel=0 note=64 velocity=0 time=0
note_on channel=0 note=70 velocity=0 time=0
note_on channel=0 note=36 velocity=0 time=0
note_on channel=0 note=65 velocity=35 time=0
note_on channel=0 note=69 velocity=42 time=0
note_on channel=0 note=38 velocity=28 time=0
note_on channel=0 note=50 velocity=34 time=0
control_change channel=0 control=64 value=127 time=0
note_on channel=0 note=50 velocity=0 time=228
note_on channel=0 note=65 velocity=0 time=0
note_on channel=0 note=69 velocity=0 time=0
note_on channel=0 note=38 velocity=0 time=0
note_on channel=0 note=69 velocity=40 time=0
note_on channel=0 note=77 velocity=48 time=0
note_on channel=0 note=38 velocity=35 time=0
note_on channel=0 note=50 velocity=42 time=0
note_on channel=0 note=50 velocity=0 time=8
note_on channel=0 note=69 velocity=0 time=0
note_on channel=0 note=77 velocity=0 time=0
note_on channel=0 note=38 velocity=0 time=0
note_on channel=0 note=65 velocity=30 time=12
note_on channel=0 note=69 velocity=36 time=0
note_on channel=0 note=38 velocity=24 time=0
note_on channel=0 note=50 velocity=29 time=0
control_change channel=0 control=64 value=0 time=254
note_on channel=0 note=50 velocity=0 time=226
note_on channel=0 note=65 velocity=0 time=0
note_on channel=0 note=69 velocity=0 time=0
note_on channel=0 note=38 velocity=0 time=0
note_on channel=0 note=34 velocity=38 time=0
note_on channel=0 note=46 velocity=45 time=0
control_change channel=0 control=64 value=127 time=160
note_on channel=0 note=46 velocity=0 time=0
note_on channel=0 note=34 velocity=0 time=0
note_on channel=0 note=58 velocity=36 time=0
note_on channel=0 note=62 velocity=36 time=0
note_on channel=0 note=67 velocity=43 time=0
note_on channel=0 note=67 velocity=0 time=240
note_on channel=0 note=62 velocity=0 time=0
note_on channel=0 note=58 velocity=0 time=0
control_change channel=0 control=64 value=0 time=14
note_on channel=0 note=36 velocity=35 time=0
note_on channel=0 note=48 velocity=42 time=0
control_change channel=0 control=64 value=127 time=147
note_on channel=0 note=48 velocity=0 time=0
note_on channel=0 note=36 velocity=0 time=0
note_on channel=0 note=55 velocity=34 time=0
note_on channel=0 note=58 velocity=34 time=0
note_on channel=0 note=64 velocity=40 time=0
control_change channel=0 control=64 value=0 time=227
note_on channel=0 note=64 velocity=0 time=13
note_on channel=0 note=58 velocity=0 time=0
note_on channel=0 note=55 velocity=0 time=0
note_on channel=0 note=29 velocity=32 time=0
note_on channel=0 note=41 velocity=38 time=0
control_change channel=0 control=64 value=127 time=50
note_on channel=0 note=41 velocity=0 time=178
note_on channel=0 note=29 velocity=0 time=0
note_on channel=0 note=57 velocity=27 time=0
note_on channel=0 note=60 velocity=27 time=0
note_on channel=0 note=65 velocity=33 time=0
note_on channel=0 note=29 velocity=23 time=0
note_on channel=0 note=41 velocity=27 time=0
note_on channel=0 note=41 velocity=0 time=228
note_on channel=0 note=65 velocity=0 time=0
note_on channel=0 note=57 velocity=0 time=0
note_on channel=0 note=60 velocity=0 time=0
note_on channel=0 note=29 velocity=0 time=0
note_on channel=0 note=57 velocity=27 time=12
note_on channel=0 note=60 velocity=27 time=0
note_on channel=0 note=69 velocity=33 time=0
note_on channel=0 note=29 velocity=23 time=0
note_on channel=0 note=41 velocity=27 time=0
note_on channel=0 note=41 velocity=0 time=228
note_on channel=0 note=69 velocity=0 time=0
note_on channel=0 note=57 velocity=0 time=0
note_on channel=0 note=60 velocity=0 time=0
note_on channel=0 note=29 velocity=0 time=0
note_on channel=0 note=57 velocity=27 time=0
note_on channel=0 note=60 velocity=27 time=0
note_on channel=0 note=65 velocity=33 time=0
note_on channel=0 note=29 velocity=23 time=0
note_on channel=0 note=41 velocity=27 time=0
control_change channel=0 control=64 value=0 time=445
note_on channel=0 note=41 velocity=0 time=0
note_on channel=0 note=65 velocity=0 time=0
note_on channel=0 note=57 velocity=0 time=0
note_on channel=0 note=60 velocity=0 time=0
note_on channel=0 note=29 velocity=0 time=0
note_on channel=0 note=48 velocity=53 time=0
note_on channel=0 note=48 velocity=0 time=180
note_on channel=0 note=48 velocity=53 time=0
note_on channel=0 note=48 velocity=0 time=30
note_on channel=0 note=48 velocity=53 time=0
note_on channel=0 note=48 velocity=0 time=28
note_on channel=0 note=57 velocity=61 time=2
note_on channel=0 note=41 velocity=41 time=0
note_on channel=0 note=48 velocity=49 time=0
note_on channel=0 note=48 velocity=0 time=360
note_on channel=0 note=41 velocity=0 time=0
note_on channel=0 note=57 velocity=0 time=0
note_on channel=0 note=55 velocity=58 time=0
note_on channel=0 note=40 velocity=39 time=0
note_on channel=0 note=48 velocity=48 time=0
note_on channel=0 note=48 velocity=0 time=110
note_on channel=0 note=40 velocity=0 time=0
note_on channel=0 note=55 velocity=0 time=0
note_on channel=0 note=57 velocity=61 time=10
note_on channel=0 note=41 velocity=42 time=0
note_on channel=0 note=48 velocity=50 time=0
note_on channel=0 note=48 velocity=0 time=110
note_on channel=0 note=41 velocity=0 time=0
note_on channel=0 note=57 velocity=0 time=0
note_on channel=0 note=58 velocity=64 time=10
note_on channel=0 note=43 velocity=45 time=0
note_on channel=0 note=48 velocity=53 time=0
note_on channel=0 note=48 velocity=0 time=110
note_on channel=0 note=43 velocity=0 time=0
note_on channel=0 note=58 velocity=0 time=0
note_on channel=0 note=59 velocity=68 time=0
note_on channel=0 note=44 velocity=48 time=0
note_on channel=0 note=48 velocity=58 time=0
note_on channel=0 note=48 velocity=0 time=0
note_on channel=0 note=44 velocity=0 time=0
note_on channel=0 note=59 velocity=0 time=0
note_on channel=0 note=60 velocity=73 time=0
note_on channel=0 note=45 velocity=50 time=0
note_on channel=0 note=48 velocity=60 time=0
note_on channel=0 note=48 velocity=0 time=0
note_on channel=0 note=45 velocity=0 time=0
note_on channel=0 note=60 velocity=0 time=0
note_on channel=0 note=62 velocity=71 time=0
note_on channel=0 note=46 velocity=50 time=0
note_on channel=0 note=48 velocity=61 time=0
note_on channel=0 note=48 velocity=0 time=240
note_on channel=0 note=46 velocity=0 time=0
note_on channel=0 note=62 velocity=0 time=0
note_on channel=0 note=58 velocity=48 time=0
note_on channel=0 note=43 velocity=40 time=0
note_on channel=0 note=48 velocity=40 time=0
note_on channel=0 note=43 velocity=0 time=60
note_on channel=0 note=58 velocity=0 time=0
note_on channel=0 note=57 velocity=43 time=0
note_on channel=0 note=41 velocity=35 time=0
note_on channel=0 note=41 velocity=0 time=0
note_on channel=0 note=57 velocity=0 time=0
note_on channel=0 note=48 velocity=0 time=0
note_on channel=0 note=55 velocity=45 time=0
note_on channel=0 note=40 velocity=40 time=0
note_on channel=0 note=48 velocity=40 time=0
note_on channel=0 note=55 velocity=0 time=120
note_on channel=0 note=66 velocity=48 time=0
note_on channel=0 note=66 velocity=0 time=110
note_on channel=0 note=67 velocity=48 time=10
note_on channel=0 note=67 velocity=0 time=110
note_on channel=0 note=48 velocity=0 time=10
note_on channel=0 note=40 velocity=0 time=0
note_on channel=0 note=69 velocity=49 time=0
note_on channel=0 note=54 velocity=35 time=0
note_on channel=0 note=60 velocity=29 time=0
note_on channel=0 note=60 velocity=0 time=110
note_on channel=0 note=54 velocity=0 time=0
note_on channel=0 note=69 velocity=0 time=0
note_on channel=0 note=70 velocity=53 time=0
note_on channel=0 note=55 velocity=38 time=0
note_on channel=0 note=60 velocity=32 time=0
note_on channel=0 note=60 velocity=0 time=110
note_on channel=0 note=55 velocity=0 time=0
note_on channel=0 note=70 velocity=0 time=0
note_on channel=0 note=78 velocity=54 time=0
note_on channel=0 note=57 velocity=40 time=0
note_on channel=0 note=60 velocity=34 time=0
note_on channel=0 note=60 velocity=0 time=110
note_on channel=0 note=57 velocity=0 time=0
note_on channel=0 note=78 velocity=0 time=0
note_on channel=0 note=79 velocity=55 time=10
note_on channel=0 note=58 velocity=51 time=0
note_on channel=0 note=60 velocity=51 time=0
note_on channel=0 note=60 velocity=0 time=110
note_on channel=0 note=58 velocity=0 time=0
note_on channel=0 note=79 velocity=0 time=0
note_on channel=0 note=81 velocity=56 time=10
note_on channel=0 note=42 velocity=51 time=0
note_on channel=0 note=42 velocity=0 time=110
note_on channel=0 note=81 velocity=0 time=0
note_on channel=0 note=82 velocity=57 time=10
note_on channel=0 note=43 velocity=55 time=0
note_on channel=0 note=43 velocity=0 time=110
note_on channel=0 note=82 velocity=0 time=0
note_on channel=0 note=45 velocity=51 time=10
note_on channel=0 note=45 velocity=0 time=110
note_on channel=0 note=48 velocity=57 time=0
note_on channel=0 note=46 velocity=57 time=0
note_on channel=0 note=46 velocity=0 time=110
note_on channel=0 note=43 velocity=50 time=10
note_on channel=0 note=48 velocity=0 time=0
note_on channel=0 note=48 velocity=57 time=0
note_on channel=0 note=48 velocity=0 time=30
note_on channel=0 note=48 velocity=53 time=0
note_on channel=0 note=43 velocity=0 time=20
note_on channel=0 note=48 velocity=0 time=0
note_on channel=0 note=58 velocity=69 time=0
note_on channel=0 note=40 velocity=41 time=0
note_on channel=0 note=40 velocity=0 time=0
note_on channel=0 note=43 velocity=40 time=0
note_on channel=0 note=48 velocity=46 time=0
note_on channel=0 note=48 velocity=0 time=240
note_on channel=0 note=43 velocity=0 time=0
note_on channel=0 note=58 velocity=0 time=0
note_on channel=0 note=57 velocity=63 time=0
note_on channel=0 note=42 velocity=42 time=0
note_on channel=0 note=48 velocity=52 time=0
note_on channel=0 note=48 velocity=0 time=110
note_on channel=0 note=42 velocity=0 time=0
note_on channel=0 note=57 velocity=0 time=0
note_on channel=0 note=58 velocity=66 time=10
note_on channel=0 note=43 velocity=46 time=0
note_on channel=0 note=48 velocity=55 time=0
note_on channel=0 note=48 velocity=0 time=110
note_on channel=0 note=43 velocity=0 time=0
note_on channel=0 note=58 velocity=0 time=0
note_on channel=0 note=60 velocity=68 time=0
note_on channel=0 note=45 velocity=49 time=0
note_on channel=0 note=48 velocity=58 time=0
note_on channel=0 note=48 velocity=0 time=110
note_on channel=0 note=45 velocity=0 time=0
note_on channel=0 note=60 velocity=0 time=0
note_on channel=0 note=61 velocity=71 time=0
note_on channel=0 note=46 velocity=52 time=0
note_on channel=0 note=48 velocity=63 time=0
note_on channel=0 note=46 velocity=0 time=0
note_on channel=0 note=61 velocity=0 time=0
note_on channel=0 note=62 velocity=69 time=0
note_on channel=0 note=46 velocity=55 time=0
note_on channel=0 note=46 velocity=0 time=240
note_on channel=0 note=62 velocity=0 time=0
note_on channel=0 note=48 velocity=0 time=0
note_on channel=0 note=60 velocity=74 time=0
note_on channel=0 note=40 velocity=50 time=0
note_on channel=0 note=48 velocity=50 time=0
note_on channel=0 note=55 velocity=61 time=0
note_on channel=0 note=55 velocity=0 time=0
note_on channel=0 note=60 velocity=0 time=0
note_on channel=0 note=40 velocity=0 time=0
note_on channel=0 note=48 velocity=0 time=0
note_on channel=0 note=62 velocity=55 time=0
note_on channel=0 note=36 velocity=26 time=0
note_on channel=0 note=48 velocity=26 time=0
note_on channel=0 note=52 velocity=37 time=0
note_on channel=0 note=62 velocity=0 time=60
note_on channel=0 note=58 velocity=50 time=0
note_on channel=0 note=58 velocity=0 time=0
note_on channel=0 note=52 velocity=0 time=0
note_on channel=0 note=48 velocity=0 time=0
note_on channel=0 note=36 velocity=0 time=0
note_on channel=0 note=53 velocity=44 time=0
note_on channel=0 note=57 velocity=44 time=0
note_on channel=0 note=41 velocity=29 time=0
note_on channel=0 note=48 velocity=38 time=0
note_on channel=0 note=57 velocity=0 time=0
note_on channel=0 note=53 velocity=0 time=0
note_on channel=0 note=68 velocity=48 time=0
note_on channel=0 note=68 velocity=0 time=110
note_on channel=0 note=69 velocity=48 time=10
note_on channel=0 note=69 velocity=0 time=110
note_on channel=0 note=41 velocity=0 time=10
note_on channel=0 note=48 velocity=0 time=0
note_on channel=0 note=71 velocity=49 time=0
note_on channel=0 note=56 velocity=35 time=0
note_on channel=0 note=56 velocity=0 time=110
note_on channel=0 note=71 velocity=0 time=0
note_on channel=0 note=72 velocity=49 time=0
note_on channel=0 note=57 velocity=38 time=0
note_on channel=0 note=57 velocity=0 time=110
note_on channel=0 note=72 velocity=0 time=0
note_on channel=0 note=80 velocity=54 time=10
note_on channel=0 note=59 velocity=40 time=0
note_on channel=0 note=59 velocity=0 time=110
note_on channel=0 note=80 velocity=0 time=0
note_on channel=0 note=81 velocity=55 time=10
note_on channel=0 note=60 velocity=47 time=0
note_on channel=0 note=60 velocity=0 time=110
note_on channel=0 note=81 velocity=0 time=0
note_on channel=0 note=83 velocity=56 time=10
note_on channel=0 note=44 velocity=41 time=0
note_on channel=0 note=44 velocity=0 time=110
note_on channel=0 note=83 velocity=0 time=0
note_on channel=0 note=84 velocity=57 time=10
note_on channel=0 note=45 velocity=50 time=0
note_on channel=0 note=45 velocity=0 time=110
note_on channel=0 note=84 velocity=0 time=0
note_on channel=0 note=47 velocity=51 time=10
note_on channel=0 note=47 velocity=0 time=110
note_on channel=0 note=72 velocity=61 time=10
note_on channel=0 note=48 velocity=56 time=0
note_on channel=0 note=48 velocity=0 time=110
note_on channel=0 note=46 velocity=51 time=10
note_on channel=0 note=72 velocity=0 time=60
note_on channel=0 note=72 velocity=61 time=0
note_on channel=0 note=46 velocity=0 time=50
note_on channel=0 note=72 velocity=0 time=0
note_on channel=0 note=65 velocity=68 time=0
note_on channel=0 note=45 velocity=56 time=0
note_on channel=0 note=45 velocity=0 time=240
note_on channel=0 note=77 velocity=68 time=0
note_on channel=0 note=60 velocity=54 time=0
note_on channel=0 note=57 velocity=45 time=0
control_change channel=0 control=64 value=127 time=29
note_on channel=0 note=77 velocity=0 time=151
note_on channel=0 note=77 velocity=59 time=0
note_on channel=0 note=77 velocity=0 time=0
note_on channel=0 note=57 velocity=0 time=0
note_on channel=0 note=60 velocity=0 time=0
note_on channel=0 note=65 velocity=0 time=0
note_on channel=0 note=67 velocity=58 time=0
note_on channel=0 note=76 velocity=69 time=0
note_on channel=0 note=60 velocity=60 time=0
note_on channel=0 note=58 velocity=51 time=0
control_change channel=0 control=64 value=0 time=9
note_on channel=0 note=58 velocity=0 time=0
note_on channel=0 note=76 velocity=0 time=0
note_on channel=0 note=79 velocity=66 time=0
note_on channel=0 note=52 velocity=46 time=0
note_on channel=0 note=52 velocity=0 time=240
note_on channel=0 note=67 velocity=0 time=0
note_on channel=0 note=60 velocity=0 time=0
note_on channel=0 note=79 velocity=0 time=0
note_on channel=0 note=64 velocity=53 time=0
note_on channel=0 note=70 velocity=63 time=0
note_on channel=0 note=48 velocity=46 time=0
note_on channel=0 note=55 velocity=55 time=0
note_on channel=0 note=70 velocity=0 time=172
note_on channel=0 note=70 velocity=59 time=0
note_on channel=0 note=70 velocity=0 time=25
note_on channel=0 note=70 velocity=56 time=5
note_on channel=0 note=70 velocity=0 time=25
note_on channel=0 note=64 velocity=0 time=0
note_on channel=0 note=48 velocity=0 time=0
note_on channel=0 note=55 velocity=0 time=0
note_on channel=0 note=65 velocity=43 time=0
note_on channel=0 note=69 velocity=52 time=0
note_on channel=0 note=53 velocity=45 time=0
note_on channel=0 note=57 velocity=53 time=0
note_on channel=0 note=69 velocity=0 time=60
note_on channel=0 note=68 velocity=51 time=0
note_on channel=0 note=68 velocity=0 time=60
note_on channel=0 note=69 velocity=51 time=0
note_on channel=0 note=69 velocity=0 time=60
note_on channel=0 note=72 velocity=47 time=0
note_on channel=0 note=72 velocity=0 time=0
note_on channel=0 note=57 velocity=0 time=0
note_on channel=0 note=53 velocity=0 time=0
note_on channel=0 note=65 velocity=0 time=0
note_on channel=0 note=65 velocity=52 time=0
note_on channel=0 note=77 velocity=62 time=240
note_on channel=0 note=60 velocity=54 time=0
note_on channel=0 note=57 velocity=45 time=0
control_change channel=0 control=64 value=127 time=46
note_on channel=0 note=77 velocity=0 time=134
note_on channel=0 note=77 velocity=54 time=0
note_on channel=0 note=77 velocity=0 time=0
note_on channel=0 note=57 velocity=0 time=0
note_on channel=0 note=60 velocity=0 time=0
note_on channel=0 note=65 velocity=0 time=0
note_on channel=0 note=67 velocity=58 time=0
note_on channel=0 note=76 velocity=69 time=0
note_on channel=0 note=60 velocity=60 time=0
note_on channel=0 note=58 velocity=51 time=0
control_change channel=0 control=64 value=0 time=13
note_on channel=0 note=58 velocity=0 time=0
note_on channel=0 note=76 velocity=0 time=0
note_on channel=0 note=79 velocity=60 time=0
note_on channel=0 note=52 velocity=46 time=0
note_on channel=0 note=52 velocity=0 time=240
note_on channel=0 note=67 velocity=0 time=0
note_on channel=0 note=60 velocity=0 time=0
note_on channel=0 note=79 velocity=0 time=0
note_on channel=0 note=64 velocity=49 time=0
note_on channel=0 note=70 velocity=58 time=0
note_on channel=0 note=48 velocity=46 time=0
note_on channel=0 note=55 velocity=55 time=0
control_change channel=0 control=64 value=127 time=78
note_on channel=0 note=70 velocity=0 time=102
note_on channel=0 note=70 velocity=49 time=0
note_on channel=0 note=70 velocity=0 time=60
note_on channel=0 note=55 velocity=0 time=0
note_on channel=0 note=48 velocity=0 time=0
note_on channel=0 note=64 velocity=0 time=0
note_on channel=0 note=65 velocity=49 time=0
note_on channel=0 note=69 velocity=58 time=0
note_on channel=0 note=50 velocity=45 time=0
note_on channel=0 note=53 velocity=53 time=0
control_change channel=0 control=64 value=0 time=14
note_on channel=0 note=53 velocity=0 time=226
note_on channel=0 note=65 velocity=0 time=0
note_on channel=0 note=69 velocity=0 time=0
note_on channel=0 note=50 velocity=0 time=0
note_on channel=0 note=34 velocity=38 time=0
note_on channel=0 note=46 velocity=45 time=0
control_change channel=0 control=64 value=127 time=187
note_on channel=0 note=46 velocity=0 time=0
note_on channel=0 note=34 velocity=0 time=0
note_on channel=0 note=58 velocity=40 time=0
note_on channel=0 note=62 velocity=40 time=0
note_on channel=0 note=67 velocity=48 time=0
note_on channel=0 note=67 velocity=0 time=240
note_on channel=0 note=62 velocity=0 time=0
note_on channel=0 note=58 velocity=0 time=0
control_change channel=0 control=64 value=0 time=67
note_on channel=0 note=36 velocity=35 time=0
note_on channel=0 note=48 velocity=42 time=0
control_change channel=0 control=64 value=127 time=200
note_on channel=0 note=48 velocity=0 time=0
note_on channel=0 note=36 velocity=0 time=0
note_on channel=0 note=55 velocity=38 time=0
note_on channel=0 note=58 velocity=38 time=0
note_on channel=0 note=64 velocity=45 time=0
control_change channel=0 control=64 value=0 time=227
note_on channel=0 note=64 velocity=0 time=13
note_on channel=0 note=58 velocity=0 time=0
note_on channel=0 note=55 velocity=0 time=0
control_change channel=0 control=91 value=127 time=240
note_on channel=0 note=29 velocity=29 time=0
note_on channel=0 note=41 velocity=35 time=0
control_change channel=0 control=64 value=127 time=67
note_on channel=0 note=48 velocity=41 time=173
note_on channel=0 note=48 velocity=0 time=0
note_on channel=0 note=48 velocity=41 time=0
note_on channel=0 note=48 velocity=0 time=0
note_on channel=0 note=57 velocity=47 time=0
note_on channel=0 note=57 velocity=0 time=240
note_on channel=0 note=41 velocity=0 time=0
note_on channel=0 note=29 velocity=0 time=0
note_on channel=0 note=29 velocity=31 time=0
note_on channel=0 note=41 velocity=38 time=0
control_change channel=0 control=64 value=0 time=14
control_change channel=0 control=64 value=127 time=103
note_on channel=0 note=57 velocity=40 time=123
note_on channel=0 note=57 velocity=0 time=0
note_on channel=0 note=57 velocity=40 time=0
note_on channel=0 note=57 velocity=0 time=0
note_on channel=0 note=29 velocity=0 time=0
note_on channel=0 note=63 velocity=50 time=0
note_on channel=0 note=41 velocity=0 time=0
note_on channel=0 note=45 velocity=39 time=0
note_on channel=0 note=45 velocity=0 time=60
note_on channel=0 note=48 velocity=44 time=0
note_on channel=0 note=48 velocity=0 time=0
note_on channel=0 note=45 velocity=38 time=0
note_on channel=0 note=45 velocity=0 time=0
note_on channel=0 note=63 velocity=0 time=0
note_on channel=0 note=64 velocity=47 time=0
note_on channel=0 note=40 velocity=41 time=0
control_change channel=0 control=64 value=0 time=12
note_on channel=0 note=40 velocity=0 time=216
note_on channel=0 note=64 velocity=0 time=0
note_on channel=0 note=59 velocity=36 time=0
note_on channel=0 note=56 velocity=36 time=0
note_on channel=0 note=64 velocity=36 time=0
note_on channel=0 note=40 velocity=26 time=0
note_on channel=0 note=52 velocity=31 time=0
control_change channel=0 control=64 value=127 time=137
note_on channel=0 note=52 velocity=0 time=91
note_on channel=0 note=64 velocity=0 time=0
note_on channel=0 note=59 velocity=0 time=0
note_on channel=0 note=56 velocity=0 time=0
note_on channel=0 note=40 velocity=0 time=0
note_on channel=0 note=59 velocity=30 time=12
note_on channel=0 note=56 velocity=25 time=0
note_on channel=0 note=64 velocity=30 time=0
note_on channel=0 note=40 velocity=21 time=0
note_on channel=0 note=52 velocity=25 time=0
note_on channel=0 note=52 velocity=0 time=228
note_on channel=0 note=64 velocity=0 time=0
note_on channel=0 note=59 velocity=0 time=0
note_on channel=0 note=56 velocity=0 time=0
note_on channel=0 note=40 velocity=0 time=0
note_on channel=0 note=56 velocity=24 time=12
note_on channel=0 note=59 velocity=28 time=0
note_on channel=0 note=64 velocity=28 time=0
note_on channel=0 note=40 velocity=20 time=0
note_on channel=0 note=52 velocity=23 time=0
note_on channel=0 note=64 velocity=0 time=228
note_on channel=0 note=56 velocity=0 time=0
note_on channel=0 note=59 velocity=0 time=0
note_on channel=0 note=55 velocity=58 time=0
control_change channel=0 control=64 value=0 time=21
note_on channel=0 note=55 velocity=0 time=207
note_on channel=0 note=40 velocity=0 time=0
note_on channel=0 note=52 velocity=0 time=0
note_on channel=0 note=55 velocity=63 time=0
note_on channel=0 note=55 velocity=0 time=228
note_on channel=0 note=55 velocity=46 time=0
control_change channel=0 control=91 value=127 time=0
note_on channel=0 note=40 velocity=27 time=0
note_on channel=0 note=52 velocity=34 time=0
control_change channel=0 control=64 value=127 time=96
note_on channel=0 note=59 velocity=41 time=144
note_on channel=0 note=59 velocity=0 time=0
note_on channel=0 note=59 velocity=41 time=0
note_on channel=0 note=59 velocity=0 time=0
note_on channel=0 note=67 velocity=47 time=0
note_on channel=0 note=67 velocity=0 time=240
note_on channel=0 note=55 velocity=0 time=0
note_on channel=0 note=40 velocity=0 time=0
note_on channel=0 note=52 velocity=0 time=0
note_on channel=0 note=40 velocity=31 time=0
note_on channel=0 note=52 velocity=38 time=0
control_change channel=0 control=64 value=0 time=13
control_change channel=0 control=64 value=127 time=65
note_on channel=0 note=61 velocity=40 time=162
note_on channel=0 note=61 velocity=0 time=0
note_on channel=0 note=61 velocity=40 time=0
note_on channel=0 note=61 velocity=0 time=0
note_on channel=0 note=70 velocity=46 time=0
note_on channel=0 note=52 velocity=0 time=0
note_on channel=0 note=52 velocity=38 time=0
note_on channel=0 note=52 velocity=0 time=0
note_on channel=0 note=55 velocity=42 time=0
note_on channel=0 note=55 velocity=0 time=0
note_on channel=0 note=52 velocity=38 time=0
note_on channel=0 note=52 velocity=0 time=60
note_on channel=0 note=70 velocity=0 time=0
note_on channel=0 note=40 velocity=0 time=0
note_on channel=0 note=71 velocity=47 time=0
note_on channel=0 note=51 velocity=46 time=0
control_change channel=0 control=64 value=0 time=16
note_on channel=0 note=51 velocity=0 time=212
note_on channel=0 note=71 velocity=0 time=0
note_on channel=0 note=66 velocity=32 time=0
note_on channel=0 note=59 velocity=36 time=0
note_on channel=0 note=71 velocity=36 time=0
note_on channel=0 note=47 velocity=26 time=0
note_on channel=0 note=39 velocity=26 time=0
note_on channel=0 note=51 velocity=31 time=0
control_change channel=0 control=64 value=127 time=149
note_on channel=0 note=51 velocity=0 time=79
note_on channel=0 note=59 velocity=0 time=0
note_on channel=0 note=71 velocity=0 time=0
note_on channel=0 note=66 velocity=0 time=0
note_on channel=0 note=39 velocity=0 time=0
note_on channel=0 note=47 velocity=0 time=0
note_on channel=0 note=66 velocity=32 time=12
note_on channel=0 note=59 velocity=27 time=0
note_on channel=0 note=71 velocity=32 time=0
note_on channel=0 note=47 velocity=23 time=0
note_on channel=0 note=39 velocity=23 time=0
note_on channel=0 note=51 velocity=27 time=0
note_on channel=0 note=51 velocity=0 time=228
note_on channel=0 note=59 velocity=0 time=0
note_on channel=0 note=71 velocity=0 time=0
note_on channel=0 note=66 velocity=0 time=0
note_on channel=0 note=39 velocity=0 time=0
note_on channel=0 note=47 velocity=0 time=0
note_on channel=0 note=59 velocity=27 time=12
note_on channel=0 note=66 velocity=32 time=0
note_on channel=0 note=71 velocity=32 time=0
note_on channel=0 note=47 velocity=23 time=0
note_on channel=0 note=39 velocity=23 time=0
note_on channel=0 note=51 velocity=27 time=0
note_on channel=0 note=71 velocity=0 time=228
note_on channel=0 note=59 velocity=0 time=0
note_on channel=0 note=66 velocity=0 time=0
note_on channel=0 note=47 velocity=0 time=0
note_on channel=0 note=39 velocity=0 time=0
note_on channel=0 note=51 velocity=0 time=0
note_on channel=0 note=50 velocity=45 time=0
note_on channel=0 note=53 velocity=55 time=0
note_on channel=0 note=53 velocity=0 time=228
note_on channel=0 note=50 velocity=0 time=0
note_on channel=0 note=50 velocity=49 time=0
note_on channel=0 note=53 velocity=60 time=0
note_on channel=0 note=53 velocity=0 time=228
note_on channel=0 note=50 velocity=0 time=0
note_on channel=0 note=53 velocity=37 time=0
control_change channel=0 control=91 value=127 time=0
note_on channel=0 note=50 velocity=30 time=0
control_change channel=0 control=64 value=0 time=0
control_change channel=0 control=64 value=127 time=86
note_on channel=0 note=65 velocity=46 time=0
note_on channel=0 note=65 velocity=0 time=0
note_on channel=0 note=65 velocity=48 time=0
note_on channel=0 note=65 velocity=0 time=0
note_on channel=0 note=53 velocity=0 time=0
note_on channel=0 note=71 velocity=54 time=0
note_on channel=0 note=50 velocity=0 time=0
note_on channel=0 note=53 velocity=40 time=0
note_on channel=0 note=53 velocity=0 time=0
note_on channel=0 note=56 velocity=45 time=0
note_on channel=0 note=56 velocity=0 time=60
note_on channel=0 note=53 velocity=41 time=0
note_on channel=0 note=53 velocity=0 time=0
note_on channel=0 note=49 velocity=52 time=0
control_change channel=0 control=64 value=0 time=13
control_change channel=0 control=64 value=127 time=73
note_on channel=0 note=71 velocity=0 time=154
note_on channel=0 note=71 velocity=50 time=0
note_on channel=0 note=71 velocity=0 time=0
note_on channel=0 note=71 velocity=54 time=0
note_on channel=0 note=71 velocity=0 time=0
note_on channel=0 note=77 velocity=58 time=0
note_on channel=0 note=49 velocity=0 time=0
note_on channel=0 note=53 velocity=46 time=0
note_on channel=0 note=53 velocity=0 time=0
note_on channel=0 note=56 velocity=50 time=0
note_on channel=0 note=56 velocity=0 time=0
note_on channel=0 note=53 velocity=46 time=0
note_on channel=0 note=53 velocity=0 time=60
control_change channel=0 control=91 value=127 time=0
note_on channel=0 note=48 velocity=56 time=0
control_change channel=0 control=64 value=0 time=17
control_change channel=0 control=64 value=127 time=66
note_on channel=0 note=77 velocity=0 time=157
note_on channel=0 note=77 velocity=51 time=0
note_on channel=0 note=77 velocity=0 time=0
note_on channel=0 note=77 velocity=53 time=0
note_on channel=0 note=77 velocity=0 time=0
note_on channel=0 note=80 velocity=66 time=0
note_on channel=0 note=48 velocity=0 time=0
note_on channel=0 note=53 velocity=51 time=0
note_on channel=0 note=53 velocity=0 time=0
note_on channel=0 note=56 velocity=55 time=0
note_on channel=0 note=56 velocity=0 time=60
note_on channel=0 note=53 velocity=50 time=0
note_on channel=0 note=53 velocity=0 time=60
note_on channel=0 note=47 velocity=62 time=0
control_change channel=0 control=64 value=0 time=14
control_change channel=0 control=64 value=127 time=81
note_on channel=0 note=80 velocity=0 time=145
note_on channel=0 note=77 velocity=61 time=0
note_on channel=0 note=77 velocity=0 time=0
note_on channel=0 note=77 velocity=61 time=0
note_on channel=0 note=77 velocity=0 time=0
note_on channel=0 note=86 velocity=75 time=0
note_on channel=0 note=47 velocity=0 time=0
note_on channel=0 note=53 velocity=58 time=0
note_on channel=0 note=53 velocity=0 time=0
note_on channel=0 note=56 velocity=62 time=0
note_on channel=0 note=56 velocity=0 time=60
note_on channel=0 note=53 velocity=56 time=0
note_on channel=0 note=53 velocity=0 time=60
control_change channel=0 control=91 value=127 time=0
note_on channel=0 note=44 velocity=70 time=0
control_change channel=0 control=64 value=0 time=12
control_change channel=0 control=64 value=127 time=48
note_on channel=0 note=86 velocity=0 time=180
note_on channel=0 note=77 velocity=70 time=0
note_on channel=0 note=77 velocity=0 time=0
note_on channel=0 note=77 velocity=70 time=0
note_on channel=0 note=77 velocity=0 time=0
note_on channel=0 note=89 velocity=82 time=0
note_on channel=0 note=44 velocity=0 time=0
note_on channel=0 note=53 velocity=68 time=0
note_on channel=0 note=53 velocity=0 time=60
note_on channel=0 note=59 velocity=73 time=0
note_on channel=0 note=59 velocity=0 time=0
note_on channel=0 note=53 velocity=68 time=0
note_on channel=0 note=53 velocity=0 time=0
note_on channel=0 note=43 velocity=82 time=0
control_change channel=0 control=64 value=0 time=18
control_change channel=0 control=64 value=127 time=51
note_on channel=0 note=89 velocity=0 time=171
note_on channel=0 note=77 velocity=73 time=0
note_on channel=0 note=77 velocity=0 time=0
note_on channel=0 note=77 velocity=66 time=0
note_on channel=0 note=77 velocity=0 time=0
note_on channel=0 note=89 velocity=88 time=0
note_on channel=0 note=43 velocity=0 time=0
note_on channel=0 note=53 velocity=76 time=0
note_on channel=0 note=53 velocity=0 time=0
note_on channel=0 note=59 velocity=80 time=0
note_on channel=0 note=59 velocity=0 time=60
note_on channel=0 note=53 velocity=76 time=0
note_on channel=0 note=53 velocity=0 time=60
control_change channel=0 control=91 value=127 time=0
note_on channel=0 note=44 velocity=92 time=0
control_change channel=0 control=64 value=0 time=11
control_change channel=0 control=64 value=127 time=46
note_on channel=0 note=89 velocity=0 time=183
note_on channel=0 note=77 velocity=72 time=0
note_on channel=0 note=77 velocity=0 time=0
note_on channel=0 note=77 velocity=74 time=0
note_on channel=0 note=77 velocity=0 time=0
note_on channel=0 note=89 velocity=90 time=0
note_on channel=0 note=44 velocity=0 time=0
note_on channel=0 note=53 velocity=75 time=0
note_on channel=0 note=53 velocity=0 time=60
note_on channel=0 note=59 velocity=82 time=0
note_on channel=0 note=59 velocity=0 time=0
note_on channel=0 note=53 velocity=74 time=0
note_on channel=0 note=53 velocity=0 time=60
note_on channel=0 note=44 velocity=90 time=0
control_change channel=0 control=64 value=0 time=12
note_on channel=0 note=44 velocity=0 time=48
note_on channel=0 note=53 velocity=72 time=0
control_change channel=0 control=64 value=127 time=9
note_on channel=0 note=53 velocity=0 time=51
note_on channel=0 note=59 velocity=81 time=0
note_on channel=0 note=59 velocity=0 time=0
note_on channel=0 note=89 velocity=0 time=0
note_on channel=0 note=77 velocity=79 time=0
note_on channel=0 note=53 velocity=64 time=0
note_on channel=0 note=53 velocity=0 time=0
note_on channel=0 note=77 velocity=0 time=0
note_on channel=0 note=89 velocity=93 time=0
note_on channel=0 note=44 velocity=71 time=0
note_on channel=0 note=44 velocity=0 time=60
note_on channel=0 note=89 velocity=0 time=0
note_on channel=0 note=53 velocity=52 time=0
note_on channel=0 note=53 velocity=0 time=60
note_on channel=0 note=59 velocity=54 time=0
note_on channel=0 note=59 velocity=0 time=0
note_on channel=0 note=74 velocity=74 time=0
note_on channel=0 note=53 velocity=51 time=0
note_on channel=0 note=53 velocity=0 time=0
note_on channel=0 note=74 velocity=0 time=0
note_on channel=0 note=86 velocity=89 time=0
note_on channel=0 note=44 velocity=57 time=0
note_on channel=0 note=44 velocity=0 time=60
note_on channel=0 note=86 velocity=0 time=0
note_on channel=0 note=53 velocity=49 time=0
note_on channel=0 note=53 velocity=0 time=60
note_on channel=0 note=59 velocity=52 time=0
note_on channel=0 note=59 velocity=0 time=0
note_on channel=0 note=71 velocity=64 time=0
note_on channel=0 note=53 velocity=48 time=0
note_on channel=0 note=53 velocity=0 time=0
note_on channel=0 note=71 velocity=0 time=0
note_on channel=0 note=83 velocity=75 time=0
note_on channel=0 note=43 velocity=55 time=0
control_change channel=0 control=64 value=0 time=12
control_change channel=0 control=64 value=127 time=28
note_on channel=0 note=43 velocity=0 time=20
note_on channel=0 note=83 velocity=0 time=0
note_on channel=0 note=53 velocity=47 time=0
note_on channel=0 note=53 velocity=0 time=60
note_on channel=0 note=59 velocity=50 time=0
note_on channel=0 note=59 velocity=0 time=0
note_on channel=0 note=65 velocity=63 time=0
note_on channel=0 note=53 velocity=46 time=0
note_on channel=0 note=53 velocity=0 time=0
note_on channel=0 note=65 velocity=0 time=0
note_on channel=0 note=77 velocity=72 time=0
note_on channel=0 note=43 velocity=53 time=0
note_on channel=0 note=43 velocity=0 time=60
note_on channel=0 note=77 velocity=0 time=0
note_on channel=0 note=50 velocity=45 time=0
note_on channel=0 note=50 velocity=0 time=60
note_on channel=0 note=53 velocity=48 time=0
note_on channel=0 note=53 velocity=0 time=0
note_on channel=0 note=62 velocity=52 time=0
note_on channel=0 note=50 velocity=44 time=0
note_on channel=0 note=50 velocity=0 time=0
note_on channel=0 note=62 velocity=0 time=0
note_on channel=0 note=74 velocity=60 time=0
note_on channel=0 note=43 velocity=51 time=0
note_on channel=0 note=43 velocity=0 time=60
note_on channel=0 note=74 velocity=0 time=0
note_on channel=0 note=47 velocity=42 time=0
note_on channel=0 note=47 velocity=0 time=60
note_on channel=0 note=50 velocity=44 time=0
note_on channel=0 note=50 velocity=0 time=0
note_on channel=0 note=59 velocity=47 time=0
note_on channel=0 note=47 velocity=40 time=0
note_on channel=0 note=47 velocity=0 time=0
note_on channel=0 note=59 velocity=0 time=0
note_on channel=0 note=71 velocity=55 time=0
note_on channel=0 note=43 velocity=45 time=0
control_change channel=0 control=64 value=0 time=15
control_change channel=0 control=64 value=127 time=37
note_on channel=0 note=43 velocity=0 time=8
note_on channel=0 note=71 velocity=0 time=0
note_on channel=0 note=47 velocity=37 time=0
note_on channel=0 note=47 velocity=0 time=60
note_on channel=0 note=50 velocity=39 time=0
note_on channel=0 note=50 velocity=0 time=0
note_on channel=0 note=53 velocity=42 time=0
note_on channel=0 note=47 velocity=35 time=0
note_on channel=0 note=47 velocity=0 time=0
note_on channel=0 note=53 velocity=0 time=0
note_on channel=0 note=65 velocity=48 time=0
note_on channel=0 note=43 velocity=42 time=0
note_on channel=0 note=43 velocity=0 time=60
note_on channel=0 note=65 velocity=0 time=0
note_on channel=0 note=47 velocity=33 time=0
note_on channel=0 note=47 velocity=0 time=60
note_on channel=0 note=50 velocity=36 time=0
note_on channel=0 note=50 velocity=0 time=58
note_on channel=0 note=50 velocity=38 time=0
note_on channel=0 note=47 velocity=32 time=0
note_on channel=0 note=47 velocity=0 time=0
note_on channel=0 note=50 velocity=0 time=0
note_on channel=0 note=62 velocity=42 time=0
note_on channel=0 note=43 velocity=37 time=0
note_on channel=0 note=43 velocity=0 time=60
note_on channel=0 note=62 velocity=0 time=0
note_on channel=0 note=38 velocity=30 time=0
note_on channel=0 note=38 velocity=0 time=60
note_on channel=0 note=35 velocity=31 time=0
note_on channel=0 note=35 velocity=0 time=0
note_on channel=0 note=47 velocity=32 time=0
note_on channel=0 note=38 velocity=28 time=0
note_on channel=0 note=38 velocity=0 time=0
note_on channel=0 note=47 velocity=0 time=0
note_on channel=0 note=59 velocity=40 time=0
note_on channel=0 note=31 velocity=32 time=0
control_change channel=0 control=64 value=0 time=17
note_on channel=0 note=31 velocity=0 time=211
note_on channel=0 note=59 velocity=0 time=0
note_on channel=0 note=47 velocity=25 time=12
note_on channel=0 note=50 velocity=25 time=0
note_on channel=0 note=53 velocity=30 time=0
note_on channel=0 note=43 velocity=25 time=0
note_on channel=0 note=31 velocity=21 time=0
note_on channel=0 note=31 velocity=0 time=228
note_on channel=0 note=53 velocity=0 time=0
note_on channel=0 note=47 velocity=0 time=0
note_on channel=0 note=50 velocity=0 time=0
note_on channel=0 note=43 velocity=0 time=0
note_on channel=0 note=47 velocity=23 time=0
note_on channel=0 note=50 velocity=23 time=0
note_on channel=0 note=53 velocity=28 time=0
note_on channel=0 note=43 velocity=25 time=0
note_on channel=0 note=31 velocity=21 time=0
note_on channel=0 note=31 velocity=0 time=228
note_on channel=0 note=53 velocity=0 time=0
note_on channel=0 note=47 velocity=0 time=0
note_on channel=0 note=50 velocity=0 time=0
note_on channel=0 note=43 velocity=0 time=0
note_on channel=0 note=47 velocity=23 time=0
note_on channel=0 note=50 velocity=23 time=0
note_on channel=0 note=53 velocity=28 time=0
note_on channel=0 note=32 velocity=21 time=0
note_on channel=0 note=44 velocity=25 time=0
note_on channel=0 note=44 velocity=0 time=480
note_on channel=0 note=53 velocity=0 time=0
note_on channel=0 note=47 velocity=0 time=0
note_on channel=0 note=50 velocity=0 time=0
note_on channel=0 note=32 velocity=0 time=0
note_on channel=0 note=77 velocity=40 time=0
note_on channel=0 note=77 velocity=0 time=240
note_on channel=0 note=76 velocity=40 time=0
control_change channel=0 control=64 value=127 time=94
note_on channel=0 note=76 velocity=0 time=146
note_on channel=0 note=48 velocity=24 time=0
note_on channel=0 note=52 velocity=28 time=0
note_on channel=0 note=33 velocity=18 time=0
note_on channel=0 note=45 velocity=22 time=0
note_on channel=0 note=45 velocity=0 time=228
note_on channel=0 note=48 velocity=0 time=0
note_on channel=0 note=52 velocity=0 time=0
note_on channel=0 note=33 velocity=0 time=0
note_on channel=0 note=45 velocity=21 time=12
note_on channel=0 note=33 velocity=17 time=0
note_on channel=0 note=52 velocity=26 time=0
note_on channel=0 note=48 velocity=22 time=0
note_on channel=0 note=48 velocity=0 time=228
note_on channel=0 note=45 velocity=0 time=0
note_on channel=0 note=33 velocity=0 time=0
note_on channel=0 note=52 velocity=0 time=0
note_on channel=0 note=52 velocity=25 time=12
note_on channel=0 note=48 velocity=21 time=0
note_on channel=0 note=33 velocity=17 time=0
note_on channel=0 note=45 velocity=20 time=0
control_change channel=0 control=64 value=0 time=360
note_on channel=0 note=45 velocity=0 time=120
note_on channel=0 note=52 velocity=0 time=0
note_on channel=0 note=48 velocity=0 time=0
note_on channel=0 note=33 velocity=0 time=0
note_on channel=0 note=76 velocity=40 time=0
note_on channel=0 note=76 velocity=0 time=240
note_on channel=0 note=74 velocity=40 time=0
note_on channel=0 note=29 velocity=21 time=0
note_on channel=0 note=41 velocity=25 time=0
control_change channel=0 control=64 value=127 time=103
note_on channel=0 note=41 velocity=0 time=137
note_on channel=0 note=29 velocity=0 time=0
note_on channel=0 note=74 velocity=0 time=0
note_on channel=0 note=50 velocity=20 time=0
note_on channel=0 note=53 velocity=25 time=0
note_on channel=0 note=57 velocity=30 time=0
control_change channel=0 control=64 value=0 time=206
note_on channel=0 note=57 velocity=0 time=0
note_on channel=0 note=53 velocity=0 time=0
note_on channel=0 note=50 velocity=0 time=0
note_on channel=0 note=74 velocity=40 time=0
control_change channel=0 control=64 value=127 time=103
note_on channel=0 note=74 velocity=0 time=0
note_on channel=0 note=79 velocity=40 time=0
note_on channel=0 note=31 velocity=21 time=0
note_on channel=0 note=43 velocity=25 time=0
note_on channel=0 note=43 velocity=0 time=0
note_on channel=0 note=31 velocity=0 time=0
note_on channel=0 note=79 velocity=0 time=0
note_on channel=0 note=47 velocity=21 time=0
note_on channel=0 note=50 velocity=25 time=0
note_on channel=0 note=55 velocity=30 time=0
note_on channel=0 note=55 velocity=0 time=0
note_on channel=0 note=50 velocity=0 time=0
note_on channel=0 note=47 velocity=0 time=0
note_on channel=0 note=79 velocity=71 time=0
control_change channel=0 control=64 value=0 time=5
note_on channel=0 note=79 velocity=0 time=0
