note_on channel=0 note=81 velocity=127 time=0
note_on channel=0 note=81 velocity=0 time=7
note_on channel=0 note=79 velocity=127 time=1
note_on channel=0 note=79 velocity=0 time=6
note_on channel=0 note=81 velocity=127 time=1
note_on channel=0 note=81 velocity=0 time=44
note_on channel=0 note=79 velocity=127 time=16
note_on channel=0 note=79 velocity=0 time=6
note_on channel=0 note=77 velocity=127 time=1
note_on channel=0 note=77 velocity=0 time=6
note_on channel=0 note=76 velocity=127 time=1
note_on channel=0 note=76 velocity=0 time=7
note_on channel=0 note=74 velocity=127 time=1
note_on channel=0 note=74 velocity=0 time=7
note_on channel=0 note=73 velocity=127 time=1
note_on channel=0 note=73 velocity=0 time=14
note_on channel=0 note=74 velocity=127 time=1
note_on channel=0 note=74 velocity=0 time=29
note_on channel=0 note=69 velocity=127 time=91
note_on channel=0 note=69 velocity=0 time=7
note_on channel=0 note=67 velocity=127 time=1
note_on channel=0 note=67 velocity=0 time=6
note_on channel=0 note=69 velocity=127 time=1
note_on channel=0 note=69 velocity=0 time=44
note_on channel=0 note=64 velocity=127 time=16
note_on channel=0 note=64 velocity=0 time=14
note_on channel=0 note=65 velocity=127 time=1
note_on channel=0 note=65 velocity=0 time=14
note_on channel=0 note=61 velocity=127 time=1
note_on channel=0 note=61 velocity=0 time=14
note_on channel=0 note=62 velocity=127 time=1
note_on channel=0 note=62 velocity=0 time=29
note_on channel=0 note=57 velocity=127 time=91
note_on channel=0 note=57 velocity=0 time=7
note_on channel=0 note=55 velocity=127 time=1
note_on channel=0 note=55 velocity=0 time=6
note_on channel=0 note=57 velocity=127 time=1
note_on channel=0 note=57 velocity=0 time=44
note_on channel=0 note=55 velocity=127 time=16
note_on channel=0 note=55 velocity=0 time=6
note_on channel=0 note=53 velocity=127 time=1
note_on channel=0 note=53 velocity=0 time=6
note_on channel=0 note=52 velocity=127 time=1
note_on channel=0 note=52 velocity=0 time=7
note_on channel=0 note=50 velocity=127 time=1
note_on channel=0 note=50 velocity=0 time=7
note_on channel=0 note=49 velocity=127 time=1
note_on channel=0 note=49 velocity=0 time=14
note_on channel=0 note=50 velocity=127 time=1
note_on channel=0 note=50 velocity=0 time=29
note_on channel=0 note=58 velocity=127 time=241
note_on channel=0 note=61 velocity=127 time=10
note_on channel=0 note=64 velocity=127 time=10
note_on channel=0 note=64 velocity=0 time=189
note_on channel=0 note=61 velocity=0 time=0
note_on channel=0 note=58 velocity=0 time=0
note_on channel=0 note=62 velocity=127 time=0
note_on channel=0 note=57 velocity=127 time=1
note_on channel=0 note=62 velocity=0 time=118
note_on channel=0 note=57 velocity=0 time=1
note_on channel=0 note=61 velocity=127 time=211
note_on channel=0 note=61 velocity=0 time=29
note_on channel=0 note=62 velocity=127 time=1
note_on channel=0 note=62 velocity=0 time=19
note_on channel=0 note=64 velocity=127 time=1
note_on channel=0 note=64 velocity=0 time=19
note_on channel=0 note=61 velocity=127 time=1
note_on channel=0 note=61 velocity=0 time=19
note_on channel=0 note=62 velocity=127 time=1
note_on channel=0 note=62 velocity=0 time=19
note_on channel=0 note=64 velocity=127 time=1
note_on channel=0 note=64 velocity=0 time=19
note_on channel=0 note=61 velocity=127 time=1
note_on channel=0 note=61 velocity=0 time=19
note_on channel=0 note=62 velocity=127 time=1
note_on channel=0 note=62 velocity=0 time=19
note_on channel=0 note=64 velocity=127 time=1
note_on channel=0 note=64 velocity=0 time=19
note_on channel=0 note=61 velocity=127 time=1
note_on channel=0 note=61 velocity=0 time=19
note_on channel=0 note=62 velocity=127 time=1
note_on channel=0 note=62 velocity=0 time=29
note_on channel=0 note=64 velocity=127 time=1
note_on channel=0 note=64 velocity=0 time=29
note_on channel=0 note=65 velocity=127 time=1
note_on channel=0 note=65 velocity=0 time=19
note_on channel=0 note=67 velocity=127 time=1
note_on channel=0 note=67 velocity=0 time=19
note_on channel=0 note=64 velocity=127 time=1
note_on channel=0 note=64 velocity=0 time=19
note_on channel=0 note=65 velocity=127 time=1
note_on channel=0 note=65 velocity=0 time=19
note_on channel=0 note=67 velocity=127 time=1
note_on channel=0 note=67 velocity=0 time=19
note_on channel=0 note=64 velocity=127 time=1
note_on channel=0 note=64 velocity=0 time=19
note_on channel=0 note=65 velocity=127 time=1
note_on channel=0 note=65 velocity=0 time=19
note_on channel=0 note=67 velocity=127 time=1
note_on channel=0 note=67 velocity=0 time=19
note_on channel=0 note=64 velocity=127 time=1
note_on channel=0 note=64 velocity=0 time=19
note_on channel=0 note=65 velocity=127 time=1
note_on channel=0 note=65 velocity=0 time=29
note_on channel=0 note=67 velocity=127 time=1
note_on channel=0 note=67 velocity=0 time=29
note_on channel=0 note=69 velocity=127 time=1
note_on channel=0 note=69 velocity=0 time=19
note_on channel=0 note=70 velocity=127 time=1
note_on channel=0 note=70 velocity=0 time=19
note_on channel=0 note=67 velocity=127 time=1
note_on channel=0 note=67 velocity=0 time=19
note_on channel=0 note=69 velocity=127 time=1
note_on channel=0 note=69 velocity=0 time=19
note_on channel=0 note=70 velocity=127 time=1
note_on channel=0 note=70 velocity=0 time=19
note_on channel=0 note=67 velocity=127 time=1
note_on channel=0 note=67 velocity=0 time=19
note_on channel=0 note=69 velocity=127 time=1
note_on channel=0 note=69 velocity=0 time=19
note_on channel=0 note=70 velocity=127 time=1
note_on channel=0 note=70 velocity=0 time=19
note_on channel=0 note=67 velocity=127 time=1
note_on channel=0 note=67 velocity=0 time=19
note_on channel=0 note=69 velocity=127 time=1
note_on channel=0 note=69 velocity=0 time=29
note_on channel=0 note=73 velocity=127 time=241
note_on channel=0 note=73 velocity=0 time=29
note_on channel=0 note=74 velocity=127 time=1
note_on channel=0 note=74 velocity=0 time=19
note_on channel=0 note=76 velocity=127 time=1
note_on channel=0 note=76 velocity=0 time=19
note_on channel=0 note=73 velocity=127 time=1
note_on channel=0 note=73 velocity=0 time=19
note_on channel=0 note=74 velocity=127 time=1
note_on channel=0 note=74 velocity=0 time=19
note_on channel=0 note=76 velocity=127 time=1
note_on channel=0 note=76 velocity=0 time=19
note_on channel=0 note=73 velocity=127 time=1
note_on channel=0 note=73 velocity=0 time=19
note_on channel=0 note=74 velocity=127 time=1
note_on channel=0 note=74 velocity=0 time=19
note_on channel=0 note=76 velocity=127 time=1
note_on channel=0 note=76 velocity=0 time=19
note_on channel=0 note=73 velocity=127 time=1
note_on channel=0 note=73 velocity=0 time=19
note_on channel=0 note=74 velocity=127 time=1
note_on channel=0 note=74 velocity=0 time=29
note_on channel=0 note=76 velocity=127 time=1
note_on channel=0 note=76 velocity=0 time=29
note_on channel=0 note=77 velocity=127 time=1
note_on channel=0 note=77 velocity=0 time=19
note_on channel=0 note=79 velocity=127 time=1
note_on channel=0 note=79 velocity=0 time=19
note_on channel=0 note=76 velocity=127 time=1
note_on channel=0 note=76 velocity=0 time=19
note_on channel=0 note=77 velocity=127 time=1
note_on channel=0 note=77 velocity=0 time=19
note_on channel=0 note=79 velocity=127 time=1
note_on channel=0 note=79 velocity=0 time=19
note_on channel=0 note=76 velocity=127 time=1
note_on channel=0 note=76 velocity=0 time=19
note_on channel=0 note=77 velocity=127 time=1
note_on channel=0 note=77 velocity=0 time=19
note_on channel=0 note=79 velocity=127 time=1
note_on channel=0 note=79 velocity=0 time=19
note_on channel=0 note=76 velocity=127 time=1
note_on channel=0 note=76 velocity=0 time=19
note_on channel=0 note=77 velocity=127 time=1
note_on channel=0 note=77 velocity=0 time=29
note_on channel=0 note=79 velocity=127 time=1
note_on channel=0 note=79 velocity=0 time=29
note_on channel=0 note=81 velocity=127 time=1
note_on channel=0 note=81 velocity=0 time=19
note_on channel=0 note=82 velocity=127 time=1
note_on channel=0 note=82 velocity=0 time=19
note_on channel=0 note=79 velocity=127 time=1
note_on channel=0 note=79 velocity=0 time=19
note_on channel=0 note=81 velocity=127 time=1
note_on channel=0 note=81 velocity=0 time=19
note_on channel=0 note=82 velocity=127 time=1
note_on channel=0 note=82 velocity=0 time=19
note_on channel=0 note=79 velocity=127 time=1
note_on channel=0 note=79 velocity=0 time=19
note_on channel=0 note=81 velocity=127 time=1
note_on channel=0 note=81 velocity=0 time=19
note_on channel=0 note=82 velocity=127 time=1
note_on channel=0 note=82 velocity=0 time=19
note_on channel=0 note=79 velocity=127 time=1
note_on channel=0 note=79 velocity=0 time=19
note_on channel=0 note=81 velocity=127 time=1
note_on channel=0 note=81 velocity=0 time=29
note_on channel=0 note=81 velocity=127 time=241
note_on channel=0 note=81 velocity=0 time=29
note_on channel=0 note=79 velocity=127 time=1
note_on channel=0 note=79 velocity=0 time=19
note_on channel=0 note=82 velocity=127 time=1
note_on channel=0 note=82 velocity=0 time=19
note_on channel=0 note=76 velocity=127 time=1
note_on channel=0 note=76 velocity=0 time=19
note_on channel=0 note=79 velocity=127 time=1
note_on channel=0 note=79 velocity=0 time=19
note_on channel=0 note=82 velocity=127 time=1
note_on channel=0 note=82 velocity=0 time=19
note_on channel=0 note=76 velocity=127 time=1
note_on channel=0 note=76 velocity=0 time=19
note_on channel=0 note=77 velocity=127 time=1
note_on channel=0 note=77 velocity=0 time=19
note_on channel=0 note=81 velocity=127 time=1
note_on channel=0 note=81 velocity=0 time=19
note_on channel=0 note=74 velocity=127 time=1
note_on channel=0 note=74 velocity=0 time=19
note_on channel=0 note=77 velocity=127 time=1
note_on channel=0 note=77 velocity=0 time=19
note_on channel=0 note=81 velocity=127 time=1
note_on channel=0 note=81 velocity=0 time=19
note_on channel=0 note=74 velocity=127 time=1
note_on channel=0 note=74 velocity=0 time=19
note_on channel=0 note=76 velocity=127 time=1
note_on channel=0 note=76 velocity=0 time=19
note_on channel=0 note=79 velocity=127 time=1
note_on channel=0 note=79 velocity=0 time=19
note_on channel=0 note=73 velocity=127 time=1
note_on channel=0 note=73 velocity=0 time=19
note_on channel=0 note=76 velocity=127 time=1
note_on channel=0 note=76 velocity=0 time=19
note_on channel=0 note=79 velocity=127 time=1
note_on channel=0 note=79 velocity=0 time=19
note_on channel=0 note=73 velocity=127 time=1
note_on channel=0 note=73 velocity=0 time=19
note_on channel=0 note=74 velocity=127 time=1
note_on channel=0 note=74 velocity=0 time=19
note_on channel=0 note=77 velocity=127 time=1
note_on channel=0 note=77 velocity=0 time=19
note_on channel=0 note=71 velocity=127 time=1
note_on channel=0 note=71 velocity=0 time=19
note_on channel=0 note=74 velocity=127 time=1
note_on channel=0 note=74 velocity=0 time=19
note_on channel=0 note=77 velocity=127 time=1
note_on channel=0 note=77 velocity=0 time=19
note_on channel=0 note=71 velocity=127 time=1
note_on channel=0 note=71 velocity=0 time=19
note_on channel=0 note=72 velocity=127 time=1
note_on channel=0 note=72 velocity=0 time=19
note_on channel=0 note=76 velocity=127 time=1
note_on channel=0 note=76 velocity=0 time=19
note_on channel=0 note=69 velocity=127 time=1
note_on channel=0 note=69 velocity=0 time=19
note_on channel=0 note=72 velocity=127 time=1
note_on channel=0 note=72 velocity=0 time=19
note_on channel=0 note=76 velocity=127 time=1
note_on channel=0 note=76 velocity=0 time=19
note_on channel=0 note=69 velocity=127 time=1
note_on channel=0 note=69 velocity=0 time=19
note_on channel=0 note=71 velocity=127 time=1
note_on channel=0 note=71 velocity=0 time=19
note_on channel=0 note=74 velocity=127 time=1
note_on channel=0 note=74 velocity=0 time=19
note_on channel=0 note=67 velocity=127 time=1
note_on channel=0 note=67 velocity=0 time=19
note_on channel=0 note=71 velocity=127 time=1
note_on channel=0 note=71 velocity=0 time=19
note_on channel=0 note=74 velocity=127 time=1
note_on channel=0 note=74 velocity=0 time=19
note_on channel=0 note=67 velocity=127 time=1
note_on channel=0 note=67 velocity=0 time=19
note_on channel=0 note=69 velocity=127 time=1
note_on channel=0 note=69 velocity=0 time=19
note_on channel=0 note=72 velocity=127 time=1
note_on channel=0 note=72 velocity=0 time=19
note_on channel=0 note=65 velocity=127 time=1
note_on channel=0 note=65 velocity=0 time=19
note_on channel=0 note=69 velocity=127 time=1
note_on channel=0 note=69 velocity=0 time=19
note_on channel=0 note=72 velocity=127 time=1
note_on channel=0 note=72 velocity=0 time=19
note_on channel=0 note=65 velocity=127 time=1
note_on channel=0 note=65 velocity=0 time=19
note_on channel=0 note=67 velocity=127 time=1
note_on channel=0 note=67 velocity=0 time=19
note_on channel=0 note=70 velocity=127 time=1
note_on channel=0 note=70 velocity=0 time=19
note_on channel=0 note=64 velocity=127 time=1
note_on channel=0 note=64 velocity=0 time=19
note_on channel=0 note=67 velocity=127 time=1
note_on channel=0 note=67 velocity=0 time=19
note_on channel=0 note=70 velocity=127 time=1
note_on channel=0 note=70 velocity=0 time=19
note_on channel=0 note=64 velocity=127 time=1
note_on channel=0 note=64 velocity=0 time=19
note_on channel=0 note=65 velocity=127 time=1
note_on channel=0 note=65 velocity=0 time=19
note_on channel=0 note=69 velocity=127 time=1
note_on channel=0 note=69 velocity=0 time=19
note_on channel=0 note=62 velocity=127 time=1
note_on channel=0 note=62 velocity=0 time=19
note_on channel=0 note=65 velocity=127 time=1
note_on channel=0 note=65 velocity=0 time=19
note_on channel=0 note=69 velocity=127 time=1
note_on channel=0 note=69 velocity=0 time=19
note_on channel=0 note=62 velocity=127 time=1
note_on channel=0 note=62 velocity=0 time=19
note_on channel=0 note=64 velocity=127 time=1
note_on channel=0 note=64 velocity=0 time=19
note_on channel=0 note=67 velocity=127 time=1
note_on channel=0 note=67 velocity=0 time=19
note_on channel=0 note=61 velocity=127 time=1
note_on channel=0 note=61 velocity=0 time=19
note_on channel=0 note=64 velocity=127 time=1
note_on channel=0 note=64 velocity=0 time=19
note_on channel=0 note=67 velocity=127 time=1
note_on channel=0 note=67 velocity=0 time=19
note_on channel=0 note=61 velocity=127 time=1
note_on channel=0 note=61 velocity=0 time=19
note_on channel=0 note=61 velocity=127 time=141
note_on channel=0 note=64 velocity=127 time=5
note_on channel=0 note=67 velocity=127 time=5
note_on channel=0 note=70 velocity=127 time=5
note_on channel=0 note=70 velocity=0 time=204
note_on channel=0 note=61 velocity=0 time=0
note_on channel=0 note=64 velocity=0 time=0
note_on channel=0 note=67 velocity=0 time=0
note_on channel=0 note=65 velocity=127 time=361
note_on channel=0 note=62 velocity=127 time=0
note_on channel=0 note=62 velocity=0 time=119
note_on channel=0 note=65 velocity=0 time=0
note_on channel=0 note=69 velocity=127 time=91
note_on channel=0 note=69 velocity=0 time=29
note_on channel=0 note=74 velocity=127 time=1
note_on channel=0 note=74 velocity=0 time=29
note_on channel=0 note=76 velocity=127 time=1
note_on channel=0 note=76 velocity=0 time=29
note_on channel=0 note=77 velocity=127 time=1
note_on channel=0 note=77 velocity=0 time=29
note_on channel=0 note=74 velocity=127 time=1
note_on channel=0 note=74 velocity=0 time=29
note_on channel=0 note=76 velocity=127 time=1
note_on channel=0 note=76 velocity=0 time=29
note_on channel=0 note=77 velocity=127 time=1
note_on channel=0 note=77 velocity=0 time=29
note_on channel=0 note=79 velocity=127 time=1
note_on channel=0 note=79 velocity=0 time=29
note_on channel=0 note=76 velocity=127 time=1
note_on channel=0 note=76 velocity=0 time=29
note_on channel=0 note=77 velocity=127 time=1
note_on channel=0 note=77 velocity=0 time=29
note_on channel=0 note=79 velocity=127 time=1
note_on channel=0 note=79 velocity=0 time=29
note_on channel=0 note=81 velocity=127 time=1
note_on channel=0 note=81 velocity=0 time=29
note_on channel=0 note=77 velocity=127 time=1
note_on channel=0 note=77 velocity=0 time=29
note_on channel=0 note=79 velocity=127 time=1
note_on channel=0 note=79 velocity=0 time=29
note_on channel=0 note=81 velocity=127 time=1
note_on channel=0 note=81 velocity=0 time=29
note_on channel=0 note=82 velocity=127 time=1
note_on channel=0 note=82 velocity=0 time=29
note_on channel=0 note=79 velocity=127 time=1
note_on channel=0 note=79 velocity=0 time=29
note_on channel=0 note=81 velocity=127 time=1
note_on channel=0 note=81 velocity=0 time=29
note_on channel=0 note=77 velocity=127 time=1
note_on channel=0 note=77 velocity=0 time=29
note_on channel=0 note=79 velocity=127 time=1
note_on channel=0 note=79 velocity=0 time=29
note_on channel=0 note=76 velocity=127 time=1
note_on channel=0 note=76 velocity=0 time=29
note_on channel=0 note=77 velocity=127 time=1
note_on channel=0 note=77 velocity=0 time=29
note_on channel=0 note=74 velocity=127 time=1
note_on channel=0 note=74 velocity=0 time=29
note_on channel=0 note=76 velocity=127 time=1
note_on channel=0 note=76 velocity=0 time=29
note_on channel=0 note=73 velocity=127 time=1
note_on channel=0 note=73 velocity=0 time=29
note_on channel=0 note=74 velocity=127 time=1
note_on channel=0 note=74 velocity=0 time=29
note_on channel=0 note=69 velocity=127 time=1
note_on channel=0 note=69 velocity=0 time=29
note_on channel=0 note=70 velocity=127 time=1
note_on channel=0 note=70 velocity=0 time=29
note_on channel=0 note=67 velocity=127 time=1
note_on channel=0 note=67 velocity=0 time=29
note_on channel=0 note=69 velocity=127 time=1
note_on channel=0 note=69 velocity=0 time=29
note_on channel=0 note=65 velocity=127 time=1
note_on channel=0 note=65 velocity=0 time=29
note_on channel=0 note=67 velocity=127 time=1
note_on channel=0 note=67 velocity=0 time=29
note_on channel=0 note=64 velocity=127 time=1
note_on channel=0 note=64 velocity=0 time=29
note_on channel=0 note=65 velocity=127 time=1
note_on channel=0 note=65 velocity=0 time=29
note_on channel=0 note=62 velocity=127 time=1
note_on channel=0 note=62 velocity=0 time=29
note_on channel=0 note=67 velocity=127 time=1
note_on channel=0 note=67 velocity=0 time=29
note_on channel=0 note=64 velocity=127 time=1
note_on channel=0 note=64 velocity=0 time=29
note_on channel=0 note=65 velocity=127 time=1
note_on channel=0 note=65 velocity=0 time=29
note_on channel=0 note=62 velocity=127 time=1
note_on channel=0 note=62 velocity=0 time=29
note_on channel=0 note=64 velocity=127 time=1
note_on channel=0 note=64 velocity=0 time=29
note_on channel=0 note=61 velocity=127 time=1
note_on channel=0 note=61 velocity=0 time=29
note_on channel=0 note=62 velocity=127 time=1
note_on channel=0 note=62 velocity=0 time=29
note_on channel=0 note=57 velocity=127 time=1
note_on channel=0 note=57 velocity=0 time=29
note_on channel=0 note=58 velocity=127 time=1
note_on channel=0 note=58 velocity=0 time=29
note_on channel=0 note=55 velocity=127 time=1
note_on channel=0 note=55 velocity=0 time=29
note_on channel=0 note=57 velocity=127 time=1
note_on channel=0 note=57 velocity=0 time=29
note_on channel=0 note=53 velocity=127 time=1
note_on channel=0 note=53 velocity=0 time=29
note_on channel=0 note=55 velocity=127 time=1
note_on channel=0 note=55 velocity=0 time=29
note_on channel=0 note=52 velocity=127 time=1
note_on channel=0 note=52 velocity=0 time=29
note_on channel=0 note=53 velocity=127 time=1
note_on channel=0 note=53 velocity=0 time=29
note_on channel=0 note=50 velocity=127 time=1
note_on channel=0 note=50 velocity=0 time=29
note_on channel=0 note=55 velocity=127 time=1
note_on channel=0 note=55 velocity=0 time=29
note_on channel=0 note=52 velocity=127 time=1
note_on channel=0 note=52 velocity=0 time=29
note_on channel=0 note=53 velocity=127 time=1
note_on channel=0 note=53 velocity=0 time=29
note_on channel=0 note=50 velocity=127 time=1
note_on channel=0 note=50 velocity=0 time=29
note_on channel=0 note=52 velocity=127 time=1
note_on channel=0 note=52 velocity=0 time=29
note_on channel=0 note=49 velocity=127 time=1
note_on channel=0 note=49 velocity=0 time=29
note_on channel=0 note=50 velocity=127 time=1
note_on channel=0 note=50 velocity=0 time=59
note_on channel=0 note=61 velocity=127 time=901
note_on channel=0 note=69 velocity=127 time=0
note_on channel=0 note=64 velocity=127 time=0
note_on channel=0 note=64 velocity=0 time=119
note_on channel=0 note=69 velocity=0 time=0
note_on channel=0 note=61 velocity=0 time=0
note_on channel=0 note=69 velocity=127 time=1
note_on channel=0 note=69 velocity=0 time=14
note_on channel=0 note=67 velocity=127 time=1
note_on channel=0 note=67 velocity=0 time=14
note_on channel=0 note=65 velocity=127 time=1
note_on channel=0 note=65 velocity=0 time=14
note_on channel=0 note=64 velocity=127 time=1
note_on channel=0 note=64 velocity=0 time=14
note_on channel=0 note=62 velocity=127 time=1
note_on channel=0 note=62 velocity=0 time=14
note_on channel=0 note=61 velocity=127 time=1
note_on channel=0 note=61 velocity=0 time=14
note_on channel=0 note=59 velocity=127 time=1
note_on channel=0 note=59 velocity=0 time=14
note_on channel=0 note=61 velocity=127 time=1
note_on channel=0 note=61 velocity=0 time=14
note_on channel=0 note=57 velocity=127 time=1
note_on channel=0 note=57 velocity=0 time=14
note_on channel=0 note=59 velocity=127 time=1
note_on channel=0 note=59 velocity=0 time=14
note_on channel=0 note=61 velocity=127 time=1
note_on channel=0 note=61 velocity=0 time=14
note_on channel=0 note=62 velocity=127 time=1
note_on channel=0 note=62 velocity=0 time=14
note_on channel=0 note=64 velocity=127 time=1
note_on channel=0 note=64 velocity=0 time=14
note_on channel=0 note=65 velocity=127 time=1
note_on channel=0 note=65 velocity=0 time=14
note_on channel=0 note=67 velocity=127 time=1
note_on channel=0 note=67 velocity=0 time=14
note_on channel=0 note=69 velocity=127 time=1
note_on channel=0 note=69 velocity=0 time=14
note_on channel=0 note=67 velocity=127 time=1
note_on channel=0 note=67 velocity=0 time=14
note_on channel=0 note=65 velocity=127 time=1
note_on channel=0 note=65 velocity=0 time=14
note_on channel=0 note=64 velocity=127 time=1
note_on channel=0 note=64 velocity=0 time=14
note_on channel=0 note=65 velocity=127 time=1
note_on channel=0 note=65 velocity=0 time=14
note_on channel=0 note=62 velocity=127 time=1
note_on channel=0 note=62 velocity=0 time=14
note_on channel=0 note=65 velocity=127 time=1
note_on channel=0 note=65 velocity=0 time=14
note_on channel=0 note=69 velocity=127 time=1
note_on channel=0 note=69 velocity=0 time=14
note_on channel=0 note=73 velocity=127 time=1
note_on channel=0 note=73 velocity=0 time=14
note_on channel=0 note=74 velocity=127 time=1
note_on channel=0 note=74 velocity=0 time=14
note_on channel=0 note=69 velocity=127 time=1
note_on channel=0 note=69 velocity=0 time=14
note_on channel=0 note=71 velocity=127 time=1
note_on channel=0 note=71 velocity=0 time=14
note_on channel=0 note=73 velocity=127 time=1
note_on channel=0 note=73 velocity=0 time=14
note_on channel=0 note=74 velocity=127 time=1
note_on channel=0 note=74 velocity=0 time=14
note_on channel=0 note=76 velocity=127 time=1
note_on channel=0 note=76 velocity=0 time=14
note_on channel=0 note=77 velocity=127 time=1
note_on channel=0 note=77 velocity=0 time=6
note_on channel=0 note=79 velocity=127 time=1
note_on channel=0 note=79 velocity=0 time=7
note_on channel=0 note=81 velocity=127 time=1
note_on channel=0 note=81 velocity=0 time=14
note_on channel=0 note=82 velocity=127 time=1
note_on channel=0 note=82 velocity=0 time=59
note_on channel=0 note=70 velocity=127 time=1261
note_on channel=0 note=73 velocity=127 time=0
note_on channel=0 note=76 velocity=127 time=0
note_on channel=0 note=76 velocity=0 time=239
note_on channel=0 note=73 velocity=0 time=0
note_on channel=0 note=70 velocity=0 time=0
note_on channel=0 note=73 velocity=127 time=1
note_on channel=0 note=73 velocity=0 time=19
note_on channel=0 note=76 velocity=127 time=1
note_on channel=0 note=76 velocity=0 time=19
note_on channel=0 note=73 velocity=127 time=1
note_on channel=0 note=73 velocity=0 time=19
note_on channel=0 note=70 velocity=127 time=1
note_on channel=0 note=70 velocity=0 time=19
note_on channel=0 note=73 velocity=127 time=1
note_on channel=0 note=73 velocity=0 time=19
note_on channel=0 note=70 velocity=127 time=1
note_on channel=0 note=70 velocity=0 time=19
note_on channel=0 note=73 velocity=127 time=1
note_on channel=0 note=73 velocity=0 time=19
note_on channel=0 note=76 velocity=127 time=1
note_on channel=0 note=76 velocity=0 time=19
note_on channel=0 note=73 velocity=127 time=1
note_on channel=0 note=73 velocity=0 time=19
note_on channel=0 note=70 velocity=127 time=1
note_on channel=0 note=70 velocity=0 time=19
note_on channel=0 note=73 velocity=127 time=1
note_on channel=0 note=73 velocity=0 time=19
note_on channel=0 note=70 velocity=127 time=1
note_on channel=0 note=70 velocity=0 time=19
note_on channel=0 note=73 velocity=127 time=1
note_on channel=0 note=73 velocity=0 time=19
note_on channel=0 note=76 velocity=127 time=1
note_on channel=0 note=76 velocity=0 time=19
note_on channel=0 note=73 velocity=127 time=1
note_on channel=0 note=73 velocity=0 time=19
note_on channel=0 note=70 velocity=127 time=1
note_on channel=0 note=70 velocity=0 time=19
note_on channel=0 note=73 velocity=127 time=1
note_on channel=0 note=73 velocity=0 time=19
note_on channel=0 note=70 velocity=127 time=1
note_on channel=0 note=70 velocity=0 time=19
note_on channel=0 note=73 velocity=127 time=1
note_on channel=0 note=73 velocity=0 time=19
note_on channel=0 note=76 velocity=127 time=1
note_on channel=0 note=76 velocity=0 time=19
note_on channel=0 note=73 velocity=127 time=1
note_on channel=0 note=73 velocity=0 time=19
note_on channel=0 note=70 velocity=127 time=1
note_on channel=0 note=70 velocity=0 time=19
note_on channel=0 note=73 velocity=127 time=1
note_on channel=0 note=73 velocity=0 time=19
note_on channel=0 note=70 velocity=127 time=1
note_on channel=0 note=70 velocity=0 time=19
note_on channel=0 note=67 velocity=127 time=1
note_on channel=0 note=67 velocity=0 time=19
note_on channel=0 note=70 velocity=127 time=1
note_on channel=0 note=70 velocity=0 time=19
note_on channel=0 note=67 velocity=127 time=1
note_on channel=0 note=67 velocity=0 time=19
note_on channel=0 note=64 velocity=127 time=1
note_on channel=0 note=64 velocity=0 time=19
note_on channel=0 note=67 velocity=127 time=1
note_on channel=0 note=67 velocity=0 time=19
note_on channel=0 note=64 velocity=127 time=1
note_on channel=0 note=64 velocity=0 time=19
note_on channel=0 note=67 velocity=127 time=1
note_on channel=0 note=67 velocity=0 time=19
note_on channel=0 note=70 velocity=127 time=1
note_on channel=0 note=70 velocity=0 time=19
note_on channel=0 note=67 velocity=127 time=1
note_on channel=0 note=67 velocity=0 time=19
note_on channel=0 note=64 velocity=127 time=1
note_on channel=0 note=64 velocity=0 time=19
note_on channel=0 note=67 velocity=127 time=1
note_on channel=0 note=67 velocity=0 time=19
note_on channel=0 note=64 velocity=127 time=1
note_on channel=0 note=64 velocity=0 time=19
note_on channel=0 note=67 velocity=127 time=1
note_on channel=0 note=67 velocity=0 time=19
note_on channel=0 note=70 velocity=127 time=1
note_on channel=0 note=70 velocity=0 time=19
note_on channel=0 note=67 velocity=127 time=1
note_on channel=0 note=67 velocity=0 time=19
note_on channel=0 note=64 velocity=127 time=1
note_on channel=0 note=64 velocity=0 time=19
note_on channel=0 note=67 velocity=127 time=1
note_on channel=0 note=67 velocity=0 time=19
note_on channel=0 note=64 velocity=127 time=1
note_on channel=0 note=64 velocity=0 time=19
note_on channel=0 note=67 velocity=127 time=1
note_on channel=0 note=67 velocity=0 time=19
note_on channel=0 note=70 velocity=127 time=1
note_on channel=0 note=70 velocity=0 time=19
note_on channel=0 note=67 velocity=127 time=1
note_on channel=0 note=67 velocity=0 time=19
note_on channel=0 note=64 velocity=127 time=1
note_on channel=0 note=64 velocity=0 time=19
note_on channel=0 note=67 velocity=127 time=1
note_on channel=0 note=67 velocity=0 time=19
note_on channel=0 note=64 velocity=127 time=1
note_on channel=0 note=64 velocity=0 time=19
note_on channel=0 note=61 velocity=127 time=1
note_on channel=0 note=61 velocity=0 time=19
note_on channel=0 note=64 velocity=127 time=1
note_on channel=0 note=64 velocity=0 time=19
note_on channel=0 note=61 velocity=127 time=1
note_on channel=0 note=61 velocity=0 time=19
note_on channel=0 note=58 velocity=127 time=1
note_on channel=0 note=58 velocity=0 time=19
note_on channel=0 note=61 velocity=127 time=1
note_on channel=0 note=61 velocity=0 time=19
note_on channel=0 note=58 velocity=127 time=1
note_on channel=0 note=58 velocity=0 time=19
note_on channel=0 note=61 velocity=127 time=1
note_on channel=0 note=61 velocity=0 time=19
note_on channel=0 note=64 velocity=127 time=1
note_on channel=0 note=64 velocity=0 time=19
note_on channel=0 note=61 velocity=127 time=1
note_on channel=0 note=61 velocity=0 time=19
note_on channel=0 note=58 velocity=127 time=1
note_on channel=0 note=58 velocity=0 time=19
note_on channel=0 note=61 velocity=127 time=1
note_on channel=0 note=61 velocity=0 time=19
note_on channel=0 note=58 velocity=127 time=1
note_on channel=0 note=58 velocity=0 time=19
note_on channel=0 note=61 velocity=127 time=1
note_on channel=0 note=61 velocity=0 time=19
note_on channel=0 note=64 velocity=127 time=1
note_on channel=0 note=64 velocity=0 time=19
note_on channel=0 note=61 velocity=127 time=1
note_on channel=0 note=61 velocity=0 time=19
note_on channel=0 note=58 velocity=127 time=1
note_on channel=0 note=58 velocity=0 time=19
note_on channel=0 note=61 velocity=127 time=1
note_on channel=0 note=61 velocity=0 time=19
note_on channel=0 note=58 velocity=127 time=1
note_on channel=0 note=58 velocity=0 time=19
note_on channel=0 note=61 velocity=127 time=1
note_on channel=0 note=61 velocity=0 time=19
note_on channel=0 note=64 velocity=127 time=1
note_on channel=0 note=64 velocity=0 time=19
note_on channel=0 note=61 velocity=127 time=1
note_on channel=0 note=61 velocity=0 time=19
note_on channel=0 note=58 velocity=127 time=1
note_on channel=0 note=58 velocity=0 time=19
note_on channel=0 note=61 velocity=127 time=1
note_on channel=0 note=61 velocity=0 time=19
note_on channel=0 note=58 velocity=127 time=1
note_on channel=0 note=58 velocity=0 time=19
note_on channel=0 note=61 velocity=127 time=1
note_on channel=0 note=61 velocity=0 time=19
note_on channel=0 note=64 velocity=127 time=1
note_on channel=0 note=64 velocity=0 time=19
note_on channel=0 note=61 velocity=127 time=1
note_on channel=0 note=61 velocity=0 time=19
note_on channel=0 note=64 velocity=127 time=1
note_on channel=0 note=64 velocity=0 time=19
note_on channel=0 note=67 velocity=127 time=1
note_on channel=0 note=67 velocity=0 time=19
note_on channel=0 note=64 velocity=127 time=1
note_on channel=0 note=64 velocity=0 time=19
note_on channel=0 note=61 velocity=127 time=1
note_on channel=0 note=61 velocity=0 time=19
note_on channel=0 note=64 velocity=127 time=1
note_on channel=0 note=64 velocity=0 time=19
note_on channel=0 note=61 velocity=127 time=1
note_on channel=0 note=61 velocity=0 time=19
note_on channel=0 note=64 velocity=127 time=1
note_on channel=0 note=64 velocity=0 time=19
note_on channel=0 note=67 velocity=127 time=1
note_on channel=0 note=67 velocity=0 time=19
note_on channel=0 note=64 velocity=127 time=1
note_on channel=0 note=64 velocity=0 time=19
note_on channel=0 note=61 velocity=127 time=1
note_on channel=0 note=61 velocity=0 time=19
note_on channel=0 note=64 velocity=127 time=1
note_on channel=0 note=64 velocity=0 time=19
note_on channel=0 note=61 velocity=127 time=1
note_on channel=0 note=61 velocity=0 time=19
note_on channel=0 note=64 velocity=127 time=1
note_on channel=0 note=64 velocity=0 time=19
note_on channel=0 note=67 velocity=127 time=1
note_on channel=0 note=67 velocity=0 time=19
note_on channel=0 note=64 velocity=127 time=1
note_on channel=0 note=64 velocity=0 time=19
note_on channel=0 note=61 velocity=127 time=1
note_on channel=0 note=61 velocity=0 time=19
note_on channel=0 note=64 velocity=127 time=1
note_on channel=0 note=64 velocity=0 time=19
note_on channel=0 note=61 velocity=127 time=1
note_on channel=0 note=61 velocity=0 time=19
note_on channel=0 note=64 velocity=127 time=1
note_on channel=0 note=64 velocity=0 time=19
note_on channel=0 note=67 velocity=127 time=1
note_on channel=0 note=67 velocity=0 time=19
note_on channel=0 note=64 velocity=127 time=1
note_on channel=0 note=64 velocity=0 time=19
note_on channel=0 note=67 velocity=127 time=1
note_on channel=0 note=67 velocity=0 time=19
note_on channel=0 note=70 velocity=127 time=1
note_on channel=0 note=70 velocity=0 time=19
note_on channel=0 note=67 velocity=127 time=1
note_on channel=0 note=67 velocity=0 time=19
note_on channel=0 note=70 velocity=127 time=1
note_on channel=0 note=70 velocity=0 time=19
note_on channel=0 note=67 velocity=127 time=1
note_on channel=0 note=67 velocity=0 time=19
note_on channel=0 note=70 velocity=127 time=1
note_on channel=0 note=70 velocity=0 time=19
note_on channel=0 note=67 velocity=127 time=1
note_on channel=0 note=67 velocity=0 time=19
note_on channel=0 note=70 velocity=127 time=1
note_on channel=0 note=70 velocity=0 time=19
note_on channel=0 note=67 velocity=127 time=1
note_on channel=0 note=67 velocity=0 time=19
note_on channel=0 note=70 velocity=127 time=1
note_on channel=0 note=70 velocity=0 time=19
note_on channel=0 note=67 velocity=127 time=1
note_on channel=0 note=67 velocity=0 time=19
note_on channel=0 note=70 velocity=127 time=1
note_on channel=0 note=70 velocity=0 time=19
note_on channel=0 note=73 velocity=127 time=1
note_on channel=0 note=73 velocity=0 time=19
note_on channel=0 note=70 velocity=127 time=1
note_on channel=0 note=70 velocity=0 time=19
note_on channel=0 note=73 velocity=127 time=1
note_on channel=0 note=73 velocity=0 time=19
note_on channel=0 note=76 velocity=127 time=1
note_on channel=0 note=76 velocity=0 time=19
note_on channel=0 note=73 velocity=127 time=1
note_on channel=0 note=73 velocity=0 time=19
note_on channel=0 note=76 velocity=127 time=1
note_on channel=0 note=76 velocity=0 time=19
note_on channel=0 note=73 velocity=127 time=1
note_on channel=0 note=73 velocity=0 time=19
note_on channel=0 note=76 velocity=127 time=1
note_on channel=0 note=76 velocity=0 time=19
note_on channel=0 note=73 velocity=127 time=1
note_on channel=0 note=73 velocity=0 time=19
note_on channel=0 note=76 velocity=127 time=1
note_on channel=0 note=76 velocity=0 time=19
note_on channel=0 note=73 velocity=127 time=1
note_on channel=0 note=73 velocity=0 time=19
note_on channel=0 note=76 velocity=127 time=1
note_on channel=0 note=76 velocity=0 time=19
note_on channel=0 note=76 velocity=127 time=1
note_on channel=0 note=73 velocity=127 time=0
note_on channel=0 note=69 velocity=127 time=0
note_on channel=0 note=81 velocity=127 time=0
note_on channel=0 note=81 velocity=0 time=119
note_on channel=0 note=76 velocity=0 time=0
note_on channel=0 note=73 velocity=0 time=0
note_on channel=0 note=69 velocity=0 time=0
note_on channel=0 note=69 velocity=127 time=1
note_on channel=0 note=77 velocity=127 time=0
note_on channel=0 note=81 velocity=127 time=0
note_on channel=0 note=74 velocity=127 time=0
note_on channel=0 note=74 velocity=0 time=119
note_on channel=0 note=69 velocity=0 time=0
note_on channel=0 note=77 velocity=0 time=0
note_on channel=0 note=81 velocity=0 time=0
note_on channel=0 note=79 velocity=127 time=1
note_on channel=0 note=70 velocity=127 time=0
note_on channel=0 note=74 velocity=127 time=0
note_on channel=0 note=74 velocity=0 time=119
note_on channel=0 note=70 velocity=0 time=0
note_on channel=0 note=79 velocity=0 time=0
note_on channel=0 note=79 velocity=127 time=121
note_on channel=0 note=73 velocity=127 time=0
note_on channel=0 note=76 velocity=127 time=0
note_on channel=0 note=69 velocity=127 time=0
note_on channel=0 note=69 velocity=0 time=119
note_on channel=0 note=79 velocity=0 time=0
note_on channel=0 note=73 velocity=0 time=0
note_on channel=0 note=76 velocity=0 time=0
note_on channel=0 note=69 velocity=127 time=0
note_on channel=0 note=69 velocity=0 time=7
note_on channel=0 note=67 velocity=127 time=1
note_on channel=0 note=67 velocity=0 time=6
note_on channel=0 note=69 velocity=127 time=1
note_on channel=0 note=69 velocity=0 time=44
note_on channel=0 note=67 velocity=127 time=16
note_on channel=0 note=67 velocity=0 time=6
note_on channel=0 note=65 velocity=127 time=1
note_on channel=0 note=65 velocity=0 time=6
note_on channel=0 note=64 velocity=127 time=1
note_on channel=0 note=64 velocity=0 time=7
note_on channel=0 note=62 velocity=127 time=1
note_on channel=0 note=62 velocity=0 time=7
note_on channel=0 note=61 velocity=127 time=1
note_on channel=0 note=61 velocity=0 time=14
note_on channel=0 note=62 velocity=127 time=1
note_on channel=0 note=62 velocity=0 time=29
note_on channel=0 note=57 velocity=127 time=91
note_on channel=0 note=57 velocity=0 time=7
note_on channel=0 note=55 velocity=127 time=1
note_on channel=0 note=55 velocity=0 time=6
note_on channel=0 note=57 velocity=127 time=1
note_on channel=0 note=57 velocity=0 time=44
note_on channel=0 note=52 velocity=127 time=16
note_on channel=0 note=52 velocity=0 time=14
note_on channel=0 note=53 velocity=127 time=1
note_on channel=0 note=53 velocity=0 time=14
note_on channel=0 note=49 velocity=127 time=1
note_on channel=0 note=49 velocity=0 time=14
note_on channel=0 note=50 velocity=127 time=1
note_on channel=0 note=50 velocity=0 time=29
note_on channel=0 note=45 velocity=127 time=91
note_on channel=0 note=45 velocity=0 time=7
note_on channel=0 note=43 velocity=127 time=1
note_on channel=0 note=43 velocity=0 time=6
note_on channel=0 note=45 velocity=127 time=1
note_on channel=0 note=45 velocity=0 time=44
note_on channel=0 note=43 velocity=127 time=16
note_on channel=0 note=43 velocity=0 time=6
note_on channel=0 note=41 velocity=127 time=1
note_on channel=0 note=41 velocity=0 time=6
note_on channel=0 note=40 velocity=127 time=1
note_on channel=0 note=40 velocity=0 time=7
note_on channel=0 note=38 velocity=127 time=1
note_on channel=0 note=38 velocity=0 time=7
note_on channel=0 note=37 velocity=127 time=1
note_on channel=0 note=37 velocity=0 time=14
note_on channel=0 note=38 velocity=127 time=1
note_on channel=0 note=38 velocity=0 time=29
note_on channel=0 note=49 velocity=127 time=211
note_on channel=0 note=52 velocity=127 time=10
note_on channel=0 note=55 velocity=127 time=10
note_on channel=0 note=55 velocity=0 time=219
note_on channel=0 note=52 velocity=0 time=0
note_on channel=0 note=49 velocity=0 time=0
note_on channel=0 note=50 velocity=127 time=1
note_on channel=0 note=55 velocity=127 time=0
note_on channel=0 note=55 velocity=0 time=29
note_on channel=0 note=52 velocity=127 time=1
note_on channel=0 note=52 velocity=0 time=29
note_on channel=0 note=54 velocity=127 time=1
note_on channel=0 note=54 velocity=0 time=59
note_on channel=0 note=50 velocity=0 time=0
note_on channel=0 note=49 velocity=127 time=211
note_on channel=0 note=49 velocity=0 time=29
note_on channel=0 note=50 velocity=127 time=1
note_on channel=0 note=50 velocity=0 time=19
note_on channel=0 note=52 velocity=127 time=1
note_on channel=0 note=52 velocity=0 time=19
note_on channel=0 note=49 velocity=127 time=1
note_on channel=0 note=49 velocity=0 time=19
note_on channel=0 note=50 velocity=127 time=1
note_on channel=0 note=50 velocity=0 time=19
note_on channel=0 note=52 velocity=127 time=1
note_on channel=0 note=52 velocity=0 time=19
note_on channel=0 note=49 velocity=127 time=1
note_on channel=0 note=49 velocity=0 time=19
note_on channel=0 note=50 velocity=127 time=1
note_on channel=0 note=50 velocity=0 time=19
note_on channel=0 note=52 velocity=127 time=1
note_on channel=0 note=52 velocity=0 time=19
note_on channel=0 note=49 velocity=127 time=1
note_on channel=0 note=49 velocity=0 time=19
note_on channel=0 note=50 velocity=127 time=1
note_on channel=0 note=50 velocity=0 time=29
note_on channel=0 note=52 velocity=127 time=1
note_on channel=0 note=52 velocity=0 time=29
note_on channel=0 note=53 velocity=127 time=1
note_on channel=0 note=53 velocity=0 time=19
note_on channel=0 note=55 velocity=127 time=1
note_on channel=0 note=55 velocity=0 time=19
note_on channel=0 note=52 velocity=127 time=1
note_on channel=0 note=52 velocity=0 time=19
note_on channel=0 note=53 velocity=127 time=1
note_on channel=0 note=53 velocity=0 time=19
note_on channel=0 note=55 velocity=127 time=1
note_on channel=0 note=55 velocity=0 time=19
note_on channel=0 note=52 velocity=127 time=1
note_on channel=0 note=52 velocity=0 time=19
note_on channel=0 note=53 velocity=127 time=1
note_on channel=0 note=53 velocity=0 time=19
note_on channel=0 note=55 velocity=127 time=1
note_on channel=0 note=55 velocity=0 time=19
note_on channel=0 note=52 velocity=127 time=1
note_on channel=0 note=52 velocity=0 time=19
note_on channel=0 note=53 velocity=127 time=1
note_on channel=0 note=53 velocity=0 time=29
note_on channel=0 note=55 velocity=127 time=1
note_on channel=0 note=55 velocity=0 time=29
note_on channel=0 note=57 velocity=127 time=1
note_on channel=0 note=57 velocity=0 time=19
note_on channel=0 note=58 velocity=127 time=1
note_on channel=0 note=58 velocity=0 time=19
note_on channel=0 note=55 velocity=127 time=1
note_on channel=0 note=55 velocity=0 time=19
note_on channel=0 note=57 velocity=127 time=1
note_on channel=0 note=57 velocity=0 time=19
note_on channel=0 note=58 velocity=127 time=1
note_on channel=0 note=58 velocity=0 time=19
note_on channel=0 note=55 velocity=127 time=1
note_on channel=0 note=55 velocity=0 time=19
note_on channel=0 note=57 velocity=127 time=1
note_on channel=0 note=57 velocity=0 time=19
note_on channel=0 note=58 velocity=127 time=1
note_on channel=0 note=58 velocity=0 time=19
note_on channel=0 note=55 velocity=127 time=1
note_on channel=0 note=55 velocity=0 time=19
note_on channel=0 note=57 velocity=127 time=1
note_on channel=0 note=57 velocity=0 time=29
note_on channel=0 note=61 velocity=127 time=241
note_on channel=0 note=61 velocity=0 time=29
note_on channel=0 note=62 velocity=127 time=1
note_on channel=0 note=62 velocity=0 time=19
note_on channel=0 note=64 velocity=127 time=1
note_on channel=0 note=64 velocity=0 time=19
note_on channel=0 note=61 velocity=127 time=1
note_on channel=0 note=61 velocity=0 time=19
note_on channel=0 note=62 velocity=127 time=1
note_on channel=0 note=62 velocity=0 time=19
note_on channel=0 note=64 velocity=127 time=1
note_on channel=0 note=64 velocity=0 time=19
note_on channel=0 note=61 velocity=127 time=1
note_on channel=0 note=61 velocity=0 time=19
note_on channel=0 note=62 velocity=127 time=1
note_on channel=0 note=62 velocity=0 time=19
note_on channel=0 note=64 velocity=127 time=1
note_on channel=0 note=64 velocity=0 time=19
note_on channel=0 note=61 velocity=127 time=1
note_on channel=0 note=61 velocity=0 time=19
note_on channel=0 note=62 velocity=127 time=1
note_on channel=0 note=62 velocity=0 time=29
note_on channel=0 note=64 velocity=127 time=1
note_on channel=0 note=64 velocity=0 time=29
note_on channel=0 note=65 velocity=127 time=1
note_on channel=0 note=65 velocity=0 time=19
note_on channel=0 note=67 velocity=127 time=1
note_on channel=0 note=67 velocity=0 time=19
note_on channel=0 note=64 velocity=127 time=1
note_on channel=0 note=64 velocity=0 time=19
note_on channel=0 note=65 velocity=127 time=1
note_on channel=0 note=65 velocity=0 time=19
note_on channel=0 note=67 velocity=127 time=1
note_on channel=0 note=67 velocity=0 time=19
note_on channel=0 note=64 velocity=127 time=1
note_on channel=0 note=64 velocity=0 time=19
note_on channel=0 note=65 velocity=127 time=1
note_on channel=0 note=65 velocity=0 time=19
note_on channel=0 note=67 velocity=127 time=1
note_on channel=0 note=67 velocity=0 time=19
note_on channel=0 note=64 velocity=127 time=1
note_on channel=0 note=64 velocity=0 time=19
note_on channel=0 note=65 velocity=127 time=1
note_on channel=0 note=65 velocity=0 time=29
note_on channel=0 note=67 velocity=127 time=1
note_on channel=0 note=67 velocity=0 time=29
note_on channel=0 note=69 velocity=127 time=1
note_on channel=0 note=69 velocity=0 time=19
note_on channel=0 note=70 velocity=127 time=1
note_on channel=0 note=70 velocity=0 time=19
note_on channel=0 note=67 velocity=127 time=1
note_on channel=0 note=67 velocity=0 time=19
note_on channel=0 note=69 velocity=127 time=1
note_on channel=0 note=69 velocity=0 time=19
note_on channel=0 note=70 velocity=127 time=1
note_on channel=0 note=70 velocity=0 time=19
note_on channel=0 note=67 velocity=127 time=1
note_on channel=0 note=67 velocity=0 time=19
note_on channel=0 note=69 velocity=127 time=1
note_on channel=0 note=69 velocity=0 time=19
note_on channel=0 note=70 velocity=127 time=1
note_on channel=0 note=70 velocity=0 time=19
note_on channel=0 note=67 velocity=127 time=1
note_on channel=0 note=67 velocity=0 time=19
note_on channel=0 note=69 velocity=127 time=1
note_on channel=0 note=69 velocity=0 time=29
note_on channel=0 note=69 velocity=127 time=241
note_on channel=0 note=69 velocity=0 time=29
note_on channel=0 note=67 velocity=127 time=1
note_on channel=0 note=67 velocity=0 time=19
note_on channel=0 note=70 velocity=127 time=1
note_on channel=0 note=70 velocity=0 time=19
note_on channel=0 note=64 velocity=127 time=1
note_on channel=0 note=64 velocity=0 time=19
note_on channel=0 note=67 velocity=127 time=1
note_on channel=0 note=67 velocity=0 time=19
note_on channel=0 note=70 velocity=127 time=1
note_on channel=0 note=70 velocity=0 time=19
note_on channel=0 note=64 velocity=127 time=1
note_on channel=0 note=64 velocity=0 time=19
note_on channel=0 note=65 velocity=127 time=1
note_on channel=0 note=65 velocity=0 time=19
note_on channel=0 note=69 velocity=127 time=1
note_on channel=0 note=69 velocity=0 time=19
note_on channel=0 note=62 velocity=127 time=1
note_on channel=0 note=62 velocity=0 time=19
note_on channel=0 note=65 velocity=127 time=1
note_on channel=0 note=65 velocity=0 time=19
note_on channel=0 note=69 velocity=127 time=1
note_on channel=0 note=69 velocity=0 time=19
note_on channel=0 note=62 velocity=127 time=1
note_on channel=0 note=62 velocity=0 time=19
note_on channel=0 note=64 velocity=127 time=1
note_on channel=0 note=64 velocity=0 time=19
note_on channel=0 note=67 velocity=127 time=1
note_on channel=0 note=67 velocity=0 time=19
note_on channel=0 note=61 velocity=127 time=1
note_on channel=0 note=61 velocity=0 time=19
note_on channel=0 note=64 velocity=127 time=1
note_on channel=0 note=64 velocity=0 time=19
note_on channel=0 note=67 velocity=127 time=1
note_on channel=0 note=67 velocity=0 time=19
note_on channel=0 note=61 velocity=127 time=1
note_on channel=0 note=61 velocity=0 time=19
note_on channel=0 note=62 velocity=127 time=1
note_on channel=0 note=62 velocity=0 time=19
note_on channel=0 note=65 velocity=127 time=1
note_on channel=0 note=65 velocity=0 time=19
note_on channel=0 note=59 velocity=127 time=1
note_on channel=0 note=59 velocity=0 time=19
note_on channel=0 note=62 velocity=127 time=1
note_on channel=0 note=62 velocity=0 time=19
note_on channel=0 note=65 velocity=127 time=1
note_on channel=0 note=65 velocity=0 time=19
note_on channel=0 note=59 velocity=127 time=1
note_on channel=0 note=59 velocity=0 time=19
note_on channel=0 note=60 velocity=127 time=1
note_on channel=0 note=60 velocity=0 time=19
note_on channel=0 note=64 velocity=127 time=1
note_on channel=0 note=64 velocity=0 time=19
note_on channel=0 note=57 velocity=127 time=1
note_on channel=0 note=57 velocity=0 time=19
note_on channel=0 note=60 velocity=127 time=1
note_on channel=0 note=60 velocity=0 time=19
note_on channel=0 note=64 velocity=127 time=1
note_on channel=0 note=64 velocity=0 time=19
note_on channel=0 note=57 velocity=127 time=1
note_on channel=0 note=57 velocity=0 time=19
note_on channel=0 note=59 velocity=127 time=1
note_on channel=0 note=59 velocity=0 time=19
note_on channel=0 note=62 velocity=127 time=1
note_on channel=0 note=62 velocity=0 time=19
note_on channel=0 note=55 velocity=127 time=1
note_on channel=0 note=55 velocity=0 time=19
note_on channel=0 note=59 velocity=127 time=1
note_on channel=0 note=59 velocity=0 time=19
note_on channel=0 note=62 velocity=127 time=1
note_on channel=0 note=62 velocity=0 time=19
note_on channel=0 note=55 velocity=127 time=1
note_on channel=0 note=55 velocity=0 time=19
note_on channel=0 note=57 velocity=127 time=1
note_on channel=0 note=57 velocity=0 time=19
note_on channel=0 note=60 velocity=127 time=1
note_on channel=0 note=60 velocity=0 time=19
note_on channel=0 note=53 velocity=127 time=1
note_on channel=0 note=53 velocity=0 time=19
note_on channel=0 note=57 velocity=127 time=1
note_on channel=0 note=57 velocity=0 time=19
note_on channel=0 note=60 velocity=127 time=1
note_on channel=0 note=60 velocity=0 time=19
note_on channel=0 note=53 velocity=127 time=1
note_on channel=0 note=53 velocity=0 time=19
note_on channel=0 note=55 velocity=127 time=1
note_on channel=0 note=55 velocity=0 time=19
note_on channel=0 note=58 velocity=127 time=1
note_on channel=0 note=58 velocity=0 time=19
note_on channel=0 note=52 velocity=127 time=1
note_on channel=0 note=52 velocity=0 time=19
note_on channel=0 note=55 velocity=127 time=1
note_on channel=0 note=55 velocity=0 time=19
note_on channel=0 note=58 velocity=127 time=1
note_on channel=0 note=58 velocity=0 time=19
note_on channel=0 note=52 velocity=127 time=1
note_on channel=0 note=52 velocity=0 time=19
note_on channel=0 note=53 velocity=127 time=1
note_on channel=0 note=53 velocity=0 time=19
note_on channel=0 note=57 velocity=127 time=1
note_on channel=0 note=57 velocity=0 time=19
note_on channel=0 note=50 velocity=127 time=1
note_on channel=0 note=50 velocity=0 time=19
note_on channel=0 note=53 velocity=127 time=1
note_on channel=0 note=53 velocity=0 time=19
note_on channel=0 note=57 velocity=127 time=1
note_on channel=0 note=57 velocity=0 time=19
note_on channel=0 note=50 velocity=127 time=1
note_on channel=0 note=50 velocity=0 time=19
note_on channel=0 note=52 velocity=127 time=1
note_on channel=0 note=52 velocity=0 time=19
note_on channel=0 note=55 velocity=127 time=1
note_on channel=0 note=55 velocity=0 time=19
note_on channel=0 note=49 velocity=127 time=1
note_on channel=0 note=49 velocity=0 time=19
note_on channel=0 note=52 velocity=127 time=1
note_on channel=0 note=52 velocity=0 time=19
note_on channel=0 note=55 velocity=127 time=1
note_on channel=0 note=55 velocity=0 time=19
note_on channel=0 note=49 velocity=127 time=1
note_on channel=0 note=49 velocity=0 time=19
note_on channel=0 note=49 velocity=127 time=121
note_on channel=0 note=52 velocity=127 time=5
note_on channel=0 note=55 velocity=127 time=5
note_on channel=0 note=58 velocity=127 time=5
note_on channel=0 note=58 velocity=0 time=224
note_on channel=0 note=49 velocity=0 time=0
note_on channel=0 note=52 velocity=0 time=0
note_on channel=0 note=55 velocity=0 time=0
note_on channel=0 note=50 velocity=127 time=361
note_on channel=0 note=57 velocity=127 time=0
note_on channel=0 note=53 velocity=127 time=0
note_on channel=0 note=53 velocity=0 time=119
note_on channel=0 note=57 velocity=0 time=0
note_on channel=0 note=50 velocity=0 time=0
note_on channel=0 note=69 velocity=127 time=136
note_on channel=0 note=69 velocity=0 time=24
note_on channel=0 note=69 velocity=127 time=6
note_on channel=0 note=69 velocity=0 time=24
note_on channel=0 note=69 velocity=127 time=6
note_on channel=0 note=69 velocity=0 time=24
note_on channel=0 note=69 velocity=127 time=6
note_on channel=0 note=69 velocity=0 time=24
note_on channel=0 note=69 velocity=127 time=6
note_on channel=0 note=69 velocity=0 time=24
note_on channel=0 note=69 velocity=127 time=6
note_on channel=0 note=69 velocity=0 time=24
note_on channel=0 note=69 velocity=127 time=6
note_on channel=0 note=69 velocity=0 time=24
note_on channel=0 note=69 velocity=127 time=6
note_on channel=0 note=69 velocity=0 time=24
note_on channel=0 note=69 velocity=127 time=6
note_on channel=0 note=69 velocity=0 time=24
note_on channel=0 note=69 velocity=127 time=6
note_on channel=0 note=69 velocity=0 time=24
note_on channel=0 note=69 velocity=127 time=6
note_on channel=0 note=69 velocity=0 time=24
note_on channel=0 note=69 velocity=127 time=6
note_on channel=0 note=69 velocity=0 time=24
note_on channel=0 note=69 velocity=127 time=6
note_on channel=0 note=69 velocity=0 time=24
note_on channel=0 note=69 velocity=127 time=6
note_on channel=0 note=69 velocity=0 time=24
note_on channel=0 note=69 velocity=127 time=6
note_on channel=0 note=69 velocity=0 time=24
note_on channel=0 note=69 velocity=127 time=6
note_on channel=0 note=69 velocity=0 time=24
note_on channel=0 note=69 velocity=127 time=6
note_on channel=0 note=69 velocity=0 time=24
note_on channel=0 note=69 velocity=127 time=6
note_on channel=0 note=69 velocity=0 time=24
note_on channel=0 note=69 velocity=127 time=6
note_on channel=0 note=69 velocity=0 time=24
note_on channel=0 note=69 velocity=127 time=6
note_on channel=0 note=69 velocity=0 time=24
note_on channel=0 note=69 velocity=127 time=6
note_on channel=0 note=69 velocity=0 time=24
note_on channel=0 note=69 velocity=127 time=6
note_on channel=0 note=69 velocity=0 time=24
note_on channel=0 note=69 velocity=127 time=6
note_on channel=0 note=69 velocity=0 time=24
note_on channel=0 note=69 velocity=127 time=6
note_on channel=0 note=69 velocity=0 time=14
note_on channel=0 note=69 velocity=127 time=16
note_on channel=0 note=69 velocity=0 time=24
note_on channel=0 note=69 velocity=127 time=6
note_on channel=0 note=69 velocity=0 time=24
note_on channel=0 note=69 velocity=127 time=6
note_on channel=0 note=69 velocity=0 time=24
note_on channel=0 note=69 velocity=127 time=6
note_on channel=0 note=69 velocity=0 time=24
note_on channel=0 note=69 velocity=127 time=6
note_on channel=0 note=69 velocity=0 time=24
note_on channel=0 note=69 velocity=127 time=6
note_on channel=0 note=69 velocity=0 time=24
note_on channel=0 note=69 velocity=127 time=6
note_on channel=0 note=69 velocity=0 time=24
note_on channel=0 note=69 velocity=127 time=6
note_on channel=0 note=69 velocity=0 time=24
note_on channel=0 note=69 velocity=127 time=6
note_on channel=0 note=69 velocity=0 time=24
note_on channel=0 note=69 velocity=127 time=6
note_on channel=0 note=69 velocity=0 time=24
note_on channel=0 note=69 velocity=127 time=6
note_on channel=0 note=69 velocity=0 time=24
note_on channel=0 note=69 velocity=127 time=6
note_on channel=0 note=69 velocity=0 time=24
note_on channel=0 note=69 velocity=127 time=6
note_on channel=0 note=69 velocity=0 time=24
note_on channel=0 note=69 velocity=127 time=6
note_on channel=0 note=69 velocity=0 time=24
note_on channel=0 note=69 velocity=127 time=6
note_on channel=0 note=69 velocity=0 time=24
note_on channel=0 note=69 velocity=127 time=6
note_on channel=0 note=69 velocity=0 time=14
note_on channel=0 note=69 velocity=127 time=16
note_on channel=0 note=69 velocity=0 time=24
note_on channel=0 note=69 velocity=127 time=6
note_on channel=0 note=69 velocity=0 time=24
note_on channel=0 note=69 velocity=127 time=6
note_on channel=0 note=69 velocity=0 time=24
note_on channel=0 note=69 velocity=127 time=6
note_on channel=0 note=69 velocity=0 time=24
note_on channel=0 note=69 velocity=127 time=6
note_on channel=0 note=69 velocity=0 time=24
note_on channel=0 note=69 velocity=127 time=6
note_on channel=0 note=69 velocity=0 time=24
note_on channel=0 note=69 velocity=127 time=6
note_on channel=0 note=69 velocity=0 time=24
note_on channel=0 note=69 velocity=127 time=6
note_on channel=0 note=69 velocity=0 time=24
note_on channel=0 note=69 velocity=127 time=6
note_on channel=0 note=69 velocity=0 time=24
note_on channel=0 note=69 velocity=127 time=6
note_on channel=0 note=69 velocity=0 time=24
note_on channel=0 note=69 velocity=127 time=6
note_on channel=0 note=69 velocity=0 time=24
note_on channel=0 note=69 velocity=127 time=6
note_on channel=0 note=69 velocity=0 time=24
note_on channel=0 note=69 velocity=127 time=6
note_on channel=0 note=69 velocity=0 time=24
note_on channel=0 note=69 velocity=127 time=6
note_on channel=0 note=69 velocity=0 time=24
note_on channel=0 note=69 velocity=127 time=6
note_on channel=0 note=69 velocity=0 time=24
note_on channel=0 note=69 velocity=127 time=6
note_on channel=0 note=69 velocity=0 time=14
note_on channel=0 note=61 velocity=127 time=2881
note_on channel=0 note=67 velocity=127 time=0
note_on channel=0 note=64 velocity=127 time=0
note_on channel=0 note=64 velocity=0 time=239
note_on channel=0 note=67 velocity=0 time=0
note_on channel=0 note=61 velocity=0 time=0
note_on channel=0 note=64 velocity=127 time=1
note_on channel=0 note=64 velocity=0 time=19
note_on channel=0 note=67 velocity=127 time=1
note_on channel=0 note=67 velocity=0 time=19
note_on channel=0 note=64 velocity=127 time=1
note_on channel=0 note=64 velocity=0 time=19
note_on channel=0 note=61 velocity=127 time=1
note_on channel=0 note=61 velocity=0 time=19
note_on channel=0 note=64 velocity=127 time=1
note_on channel=0 note=64 velocity=0 time=19
note_on channel=0 note=61 velocity=127 time=1
note_on channel=0 note=61 velocity=0 time=19
note_on channel=0 note=64 velocity=127 time=1
note_on channel=0 note=64 velocity=0 time=19
note_on channel=0 note=67 velocity=127 time=1
note_on channel=0 note=67 velocity=0 time=19
note_on channel=0 note=64 velocity=127 time=1
note_on channel=0 note=64 velocity=0 time=19
note_on channel=0 note=61 velocity=127 time=1
note_on channel=0 note=61 velocity=0 time=19
note_on channel=0 note=64 velocity=127 time=1
note_on channel=0 note=64 velocity=0 time=19
note_on channel=0 note=61 velocity=127 time=1
note_on channel=0 note=61 velocity=0 time=19
note_on channel=0 note=64 velocity=127 time=1
note_on channel=0 note=64 velocity=0 time=19
note_on channel=0 note=67 velocity=127 time=1
note_on channel=0 note=67 velocity=0 time=19
note_on channel=0 note=64 velocity=127 time=1
note_on channel=0 note=64 velocity=0 time=19
note_on channel=0 note=61 velocity=127 time=1
note_on channel=0 note=61 velocity=0 time=19
note_on channel=0 note=64 velocity=127 time=1
note_on channel=0 note=64 velocity=0 time=19
note_on channel=0 note=61 velocity=127 time=1
note_on channel=0 note=61 velocity=0 time=19
note_on channel=0 note=64 velocity=127 time=1
note_on channel=0 note=64 velocity=0 time=19
note_on channel=0 note=67 velocity=127 time=1
note_on channel=0 note=67 velocity=0 time=19
note_on channel=0 note=64 velocity=127 time=1
note_on channel=0 note=64 velocity=0 time=19
note_on channel=0 note=61 velocity=127 time=1
note_on channel=0 note=61 velocity=0 time=19
note_on channel=0 note=64 velocity=127 time=1
note_on channel=0 note=64 velocity=0 time=19
note_on channel=0 note=61 velocity=127 time=1
note_on channel=0 note=61 velocity=0 time=19
note_on channel=0 note=58 velocity=127 time=1
note_on channel=0 note=58 velocity=0 time=19
note_on channel=0 note=61 velocity=127 time=1
note_on channel=0 note=61 velocity=0 time=19
note_on channel=0 note=58 velocity=127 time=1
note_on channel=0 note=58 velocity=0 time=19
note_on channel=0 note=55 velocity=127 time=1
note_on channel=0 note=55 velocity=0 time=19
note_on channel=0 note=58 velocity=127 time=1
note_on channel=0 note=58 velocity=0 time=19
note_on channel=0 note=55 velocity=127 time=1
note_on channel=0 note=55 velocity=0 time=19
note_on channel=0 note=58 velocity=127 time=1
note_on channel=0 note=58 velocity=0 time=19
note_on channel=0 note=61 velocity=127 time=1
note_on channel=0 note=61 velocity=0 time=19
note_on channel=0 note=58 velocity=127 time=1
note_on channel=0 note=58 velocity=0 time=19
note_on channel=0 note=55 velocity=127 time=1
note_on channel=0 note=55 velocity=0 time=19
note_on channel=0 note=58 velocity=127 time=1
note_on channel=0 note=58 velocity=0 time=19
note_on channel=0 note=55 velocity=127 time=1
note_on channel=0 note=55 velocity=0 time=19
note_on channel=0 note=58 velocity=127 time=1
note_on channel=0 note=58 velocity=0 time=19
note_on channel=0 note=61 velocity=127 time=1
note_on channel=0 note=61 velocity=0 time=19
note_on channel=0 note=58 velocity=127 time=1
note_on channel=0 note=58 velocity=0 time=19
note_on channel=0 note=55 velocity=127 time=1
note_on channel=0 note=55 velocity=0 time=19
note_on channel=0 note=58 velocity=127 time=1
note_on channel=0 note=58 velocity=0 time=19
note_on channel=0 note=55 velocity=127 time=1
note_on channel=0 note=55 velocity=0 time=19
note_on channel=0 note=58 velocity=127 time=1
note_on channel=0 note=58 velocity=0 time=19
note_on channel=0 note=61 velocity=127 time=1
note_on channel=0 note=61 velocity=0 time=19
note_on channel=0 note=58 velocity=127 time=1
note_on channel=0 note=58 velocity=0 time=19
note_on channel=0 note=55 velocity=127 time=1
note_on channel=0 note=55 velocity=0 time=19
note_on channel=0 note=58 velocity=127 time=1
note_on channel=0 note=58 velocity=0 time=19
note_on channel=0 note=55 velocity=127 time=1
note_on channel=0 note=55 velocity=0 time=19
note_on channel=0 note=52 velocity=127 time=1
note_on channel=0 note=52 velocity=0 time=19
note_on channel=0 note=55 velocity=127 time=1
note_on channel=0 note=55 velocity=0 time=19
note_on channel=0 note=52 velocity=127 time=1
note_on channel=0 note=52 velocity=0 time=19
note_on channel=0 note=49 velocity=127 time=1
note_on channel=0 note=49 velocity=0 time=19
note_on channel=0 note=52 velocity=127 time=1
note_on channel=0 note=52 velocity=0 time=19
note_on channel=0 note=49 velocity=127 time=1
note_on channel=0 note=49 velocity=0 time=19
note_on channel=0 note=52 velocity=127 time=1
note_on channel=0 note=52 velocity=0 time=19
note_on channel=0 note=55 velocity=127 time=1
note_on channel=0 note=55 velocity=0 time=19
note_on channel=0 note=52 velocity=127 time=1
note_on channel=0 note=52 velocity=0 time=19
note_on channel=0 note=49 velocity=127 time=1
note_on channel=0 note=49 velocity=0 time=19
note_on channel=0 note=52 velocity=127 time=1
note_on channel=0 note=52 velocity=0 time=19
note_on channel=0 note=49 velocity=127 time=1
note_on channel=0 note=49 velocity=0 time=19
note_on channel=0 note=52 velocity=127 time=1
note_on channel=0 note=52 velocity=0 time=19
note_on channel=0 note=55 velocity=127 time=1
note_on channel=0 note=55 velocity=0 time=19
note_on channel=0 note=52 velocity=127 time=1
note_on channel=0 note=52 velocity=0 time=19
note_on channel=0 note=49 velocity=127 time=1
note_on channel=0 note=49 velocity=0 time=19
note_on channel=0 note=52 velocity=127 time=1
note_on channel=0 note=52 velocity=0 time=19
note_on channel=0 note=49 velocity=127 time=1
note_on channel=0 note=49 velocity=0 time=19
note_on channel=0 note=52 velocity=127 time=1
note_on channel=0 note=52 velocity=0 time=19
note_on channel=0 note=55 velocity=127 time=1
note_on channel=0 note=55 velocity=0 time=19
note_on channel=0 note=52 velocity=127 time=1
note_on channel=0 note=52 velocity=0 time=19
note_on channel=0 note=49 velocity=127 time=1
note_on channel=0 note=49 velocity=0 time=19
note_on channel=0 note=52 velocity=127 time=1
note_on channel=0 note=52 velocity=0 time=19
note_on channel=0 note=49 velocity=127 time=1
note_on channel=0 note=49 velocity=0 time=19
note_on channel=0 note=52 velocity=127 time=1
note_on channel=0 note=52 velocity=0 time=19
note_on channel=0 note=55 velocity=127 time=1
note_on channel=0 note=55 velocity=0 time=19
note_on channel=0 note=52 velocity=127 time=1
note_on channel=0 note=52 velocity=0 time=19
note_on channel=0 note=55 velocity=127 time=1
note_on channel=0 note=55 velocity=0 time=19
note_on channel=0 note=58 velocity=127 time=1
note_on channel=0 note=58 velocity=0 time=19
note_on channel=0 note=55 velocity=127 time=1
note_on channel=0 note=55 velocity=0 time=19
note_on channel=0 note=52 velocity=127 time=1
note_on channel=0 note=52 velocity=0 time=19
note_on channel=0 note=55 velocity=127 time=1
note_on channel=0 note=55 velocity=0 time=19
note_on channel=0 note=52 velocity=127 time=1
note_on channel=0 note=52 velocity=0 time=19
note_on channel=0 note=55 velocity=127 time=1
note_on channel=0 note=55 velocity=0 time=19
note_on channel=0 note=58 velocity=127 time=1
note_on channel=0 note=58 velocity=0 time=19
note_on channel=0 note=55 velocity=127 time=1
note_on channel=0 note=55 velocity=0 time=19
note_on channel=0 note=52 velocity=127 time=1
note_on channel=0 note=52 velocity=0 time=19
note_on channel=0 note=55 velocity=127 time=1
note_on channel=0 note=55 velocity=0 time=19
note_on channel=0 note=52 velocity=127 time=1
note_on channel=0 note=52 velocity=0 time=19
note_on channel=0 note=55 velocity=127 time=1
note_on channel=0 note=55 velocity=0 time=19
note_on channel=0 note=58 velocity=127 time=1
note_on channel=0 note=58 velocity=0 time=19
note_on channel=0 note=55 velocity=127 time=1
note_on channel=0 note=55 velocity=0 time=19
note_on channel=0 note=52 velocity=127 time=1
note_on channel=0 note=52 velocity=0 time=19
note_on channel=0 note=55 velocity=127 time=1
note_on channel=0 note=55 velocity=0 time=19
note_on channel=0 note=52 velocity=127 time=1
note_on channel=0 note=52 velocity=0 time=19
note_on channel=0 note=55 velocity=127 time=1
note_on channel=0 note=55 velocity=0 time=19
note_on channel=0 note=58 velocity=127 time=1
note_on channel=0 note=58 velocity=0 time=19
note_on channel=0 note=55 velocity=127 time=1
note_on channel=0 note=55 velocity=0 time=19
note_on channel=0 note=52 velocity=127 time=1
note_on channel=0 note=52 velocity=0 time=19
note_on channel=0 note=55 velocity=127 time=1
note_on channel=0 note=55 velocity=0 time=19
note_on channel=0 note=52 velocity=127 time=1
note_on channel=0 note=52 velocity=0 time=19
note_on channel=0 note=55 velocity=127 time=1
note_on channel=0 note=55 velocity=0 time=19
note_on channel=0 note=52 velocity=127 time=1
note_on channel=0 note=52 velocity=0 time=19
note_on channel=0 note=55 velocity=127 time=1
note_on channel=0 note=55 velocity=0 time=19
note_on channel=0 note=58 velocity=127 time=1
note_on channel=0 note=58 velocity=0 time=19
note_on channel=0 note=61 velocity=127 time=1
note_on channel=0 note=61 velocity=0 time=19
note_on channel=0 note=58 velocity=127 time=1
note_on channel=0 note=58 velocity=0 time=19
note_on channel=0 note=61 velocity=127 time=1
note_on channel=0 note=61 velocity=0 time=19
note_on channel=0 note=58 velocity=127 time=1
note_on channel=0 note=58 velocity=0 time=19
note_on channel=0 note=61 velocity=127 time=1
note_on channel=0 note=61 velocity=0 time=19
note_on channel=0 note=64 velocity=127 time=1
note_on channel=0 note=64 velocity=0 time=19
note_on channel=0 note=61 velocity=127 time=1
note_on channel=0 note=61 velocity=0 time=19
note_on channel=0 note=64 velocity=127 time=1
note_on channel=0 note=64 velocity=0 time=19
note_on channel=0 note=61 velocity=127 time=1
note_on channel=0 note=61 velocity=0 time=19
note_on channel=0 note=64 velocity=127 time=1
note_on channel=0 note=64 velocity=0 time=19
note_on channel=0 note=61 velocity=127 time=1
note_on channel=0 note=61 velocity=0 time=19
note_on channel=0 note=64 velocity=127 time=1
note_on channel=0 note=64 velocity=0 time=19
note_on channel=0 note=61 velocity=127 time=1
note_on channel=0 note=61 velocity=0 time=19
note_on channel=0 note=64 velocity=127 time=1
note_on channel=0 note=64 velocity=0 time=19
note_on channel=0 note=61 velocity=127 time=1
note_on channel=0 note=61 velocity=0 time=19
note_on channel=0 note=64 velocity=127 time=1
note_on channel=0 note=64 velocity=0 time=19
note_on channel=0 note=61 velocity=127 time=1
note_on channel=0 note=61 velocity=0 time=19
note_on channel=0 note=57 velocity=127 time=1
note_on channel=0 note=57 velocity=0 time=119
note_on channel=0 note=57 velocity=127 time=1
note_on channel=0 note=57 velocity=0 time=119
note_on channel=0 note=67 velocity=127 time=1
note_on channel=0 note=62 velocity=127 time=0
note_on channel=0 note=62 velocity=0 time=119
note_on channel=0 note=67 velocity=0 time=0
note_on channel=0 note=61 velocity=127 time=121
note_on channel=0 note=64 velocity=127 time=0
note_on channel=0 note=64 velocity=0 time=119
note_on channel=0 note=61 velocity=0 time=0
note_on channel=0 note=38 velocity=127 time=720
note_on channel=0 note=38 velocity=0 time=479
note_on channel=0 note=38 velocity=127 time=3361
note_on channel=0 note=38 velocity=0 time=359
note_on channel=0 note=38 velocity=127 time=361
note_on channel=0 note=38 velocity=0 time=119
note_on channel=0 note=50 velocity=127 time=2101
note_on channel=0 note=50 velocity=0 time=59
note_on channel=0 note=48 velocity=127 time=1
note_on channel=0 note=48 velocity=0 time=59
note_on channel=0 note=46 velocity=127 time=1
note_on channel=0 note=46 velocity=0 time=59
note_on channel=0 note=45 velocity=127 time=1
note_on channel=0 note=45 velocity=0 time=59
note_on channel=0 note=50 velocity=127 time=241
note_on channel=0 note=50 velocity=0 time=59
note_on channel=0 note=48 velocity=127 time=1
note_on channel=0 note=48 velocity=0 time=59
note_on channel=0 note=46 velocity=127 time=1
note_on channel=0 note=46 velocity=0 time=59
note_on channel=0 note=45 velocity=127 time=1
note_on channel=0 note=45 velocity=0 time=119
note_on channel=0 note=50 velocity=127 time=541
note_on channel=0 note=50 velocity=0 time=59
note_on channel=0 note=48 velocity=127 time=1
note_on channel=0 note=48 velocity=0 time=59
note_on channel=0 note=46 velocity=127 time=1
note_on channel=0 note=46 velocity=0 time=59
note_on channel=0 note=45 velocity=127 time=1
note_on channel=0 note=45 velocity=0 time=59
note_on channel=0 note=50 velocity=127 time=241
note_on channel=0 note=50 velocity=0 time=59
note_on channel=0 note=48 velocity=127 time=1
note_on channel=0 note=48 velocity=0 time=59
note_on channel=0 note=46 velocity=127 time=1
note_on channel=0 note=46 velocity=0 time=59
note_on channel=0 note=45 velocity=127 time=1
note_on channel=0 note=45 velocity=0 time=59
note_on channel=0 note=44 velocity=127 time=1
note_on channel=0 note=44 velocity=0 time=59
note_on channel=0 note=43 velocity=127 time=1
note_on channel=0 note=43 velocity=0 time=59
note_on channel=0 note=55 velocity=127 time=421
note_on channel=0 note=55 velocity=0 time=239
note_on channel=0 note=55 velocity=127 time=2401
note_on channel=0 note=55 velocity=0 time=119
note_on channel=0 note=53 velocity=127 time=1
note_on channel=0 note=53 velocity=0 time=119
note_on channel=0 note=58 velocity=127 time=1
note_on channel=0 note=58 velocity=0 time=179
note_on channel=0 note=57 velocity=127 time=1
note_on channel=0 note=57 velocity=0 time=29
note_on channel=0 note=55 velocity=127 time=1
note_on channel=0 note=55 velocity=0 time=29
note_on channel=0 note=57 velocity=127 time=1
note_on channel=0 note=57 velocity=0 time=89
note_on channel=0 note=52 velocity=127 time=1
note_on channel=0 note=52 velocity=0 time=29
note_on channel=0 note=53 velocity=127 time=1
note_on channel=0 note=53 velocity=0 time=29
note_on channel=0 note=50 velocity=127 time=1
note_on channel=0 note=50 velocity=0 time=29
note_on channel=0 note=52 velocity=127 time=1
note_on channel=0 note=52 velocity=0 time=29
note_on channel=0 note=49 velocity=127 time=1
note_on channel=0 note=49 velocity=0 time=29
note_on channel=0 note=50 velocity=127 time=1
note_on channel=0 note=50 velocity=0 time=29
note_on channel=0 note=47 velocity=127 time=1
note_on channel=0 note=47 velocity=0 time=29
note_on channel=0 note=49 velocity=127 time=1
note_on channel=0 note=49 velocity=0 time=29
note_on channel=0 note=45 velocity=127 time=1
note_on channel=0 note=45 velocity=0 time=29
note_on channel=0 note=46 velocity=127 time=1
note_on channel=0 note=46 velocity=0 time=29
note_on channel=0 note=44 velocity=127 time=1
note_on channel=0 note=44 velocity=0 time=29
note_on channel=0 note=45 velocity=127 time=1
note_on channel=0 note=45 velocity=0 time=29
note_on channel=0 note=55 velocity=127 time=1
note_on channel=0 note=55 velocity=0 time=29
note_on channel=0 note=53 velocity=127 time=1
note_on channel=0 note=53 velocity=0 time=59
note_on channel=0 note=50 velocity=127 time=1
note_on channel=0 note=50 velocity=0 time=59
note_on channel=0 note=45 velocity=127 time=1
note_on channel=0 note=45 velocity=0 time=119
note_on channel=0 note=38 velocity=127 time=1
note_on channel=0 note=38 velocity=0 time=239
note_on channel=0 note=70 velocity=127 time=4920
note_on channel=0 note=70 velocity=0 time=14
note_on channel=0 note=69 velocity=127 time=1
note_on channel=0 note=69 velocity=0 time=14
note_on channel=0 note=67 velocity=127 time=1
note_on channel=0 note=67 velocity=0 time=14
note_on channel=0 note=65 velocity=127 time=1
note_on channel=0 note=65 velocity=0 time=14
note_on channel=0 note=64 velocity=127 time=1
note_on channel=0 note=64 velocity=0 time=14
note_on channel=0 note=62 velocity=127 time=1
note_on channel=0 note=62 velocity=0 time=14
note_on channel=0 note=61 velocity=127 time=1
note_on channel=0 note=61 velocity=0 time=14
note_on channel=0 note=59 velocity=127 time=1
note_on channel=0 note=59 velocity=0 time=14
note_on channel=0 note=61 velocity=127 time=1
note_on channel=0 note=61 velocity=0 time=29
note_on channel=0 note=57 velocity=127 time=1
note_on channel=0 note=57 velocity=0 time=29
note_on channel=0 note=61 velocity=127 time=1
note_on channel=0 note=61 velocity=0 time=29
note_on channel=0 note=64 velocity=127 time=1
note_on channel=0 note=64 velocity=0 time=14
note_on channel=0 note=67 velocity=127 time=1
note_on channel=0 note=67 velocity=0 time=14
note_on channel=0 note=65 velocity=127 time=1
note_on channel=0 note=65 velocity=0 time=14
note_on channel=0 note=67 velocity=127 time=1
note_on channel=0 note=67 velocity=0 time=14
note_on channel=0 note=65 velocity=127 time=1
note_on channel=0 note=65 velocity=0 time=14
note_on channel=0 note=67 velocity=127 time=1
note_on channel=0 note=67 velocity=0 time=14
note_on channel=0 note=65 velocity=127 time=1
note_on channel=0 note=65 velocity=0 time=14
note_on channel=0 note=67 velocity=127 time=1
note_on channel=0 note=67 velocity=0 time=14
note_on channel=0 note=64 velocity=127 time=1
note_on channel=0 note=64 velocity=0 time=29
note_on channel=0 note=62 velocity=127 time=2221
note_on channel=0 note=62 velocity=0 time=29
note_on channel=0 note=70 velocity=127 time=1
note_on channel=0 note=65 velocity=127 time=0
note_on channel=0 note=65 velocity=0 time=29
note_on channel=0 note=70 velocity=0 time=0
note_on channel=0 note=57 velocity=127 time=1
note_on channel=0 note=57 velocity=0 time=29
note_on channel=0 note=69 velocity=127 time=1
note_on channel=0 note=64 velocity=127 time=0
note_on channel=0 note=64 velocity=0 time=29
note_on channel=0 note=69 velocity=0 time=0
note_on channel=0 note=58 velocity=127 time=1
note_on channel=0 note=58 velocity=0 time=29
note_on channel=0 note=67 velocity=127 time=1
note_on channel=0 note=62 velocity=127 time=0
note_on channel=0 note=62 velocity=0 time=29
note_on channel=0 note=67 velocity=0 time=0
note_on channel=0 note=61 velocity=127 time=1
note_on channel=0 note=69 velocity=127 time=0
note_on channel=0 note=64 velocity=127 time=0
note_on channel=0 note=64 velocity=0 time=59
note_on channel=0 note=69 velocity=0 time=0
note_on channel=0 note=61 velocity=0 time=0
note_on channel=0 note=62 velocity=127 time=241
note_on channel=0 note=62 velocity=0 time=29
note_on channel=0 note=70 velocity=127 time=1
note_on channel=0 note=65 velocity=127 time=0
note_on channel=0 note=65 velocity=0 time=29
note_on channel=0 note=70 velocity=0 time=0
note_on channel=0 note=57 velocity=127 time=1
note_on channel=0 note=57 velocity=0 time=29
note_on channel=0 note=69 velocity=127 time=1
note_on channel=0 note=64 velocity=127 time=0
note_on channel=0 note=64 velocity=0 time=29
note_on channel=0 note=69 velocity=0 time=0
note_on channel=0 note=58 velocity=127 time=1
note_on channel=0 note=58 velocity=0 time=29
note_on channel=0 note=67 velocity=127 time=1
note_on channel=0 note=62 velocity=127 time=0
note_on channel=0 note=62 velocity=0 time=29
note_on channel=0 note=67 velocity=0 time=0
note_on channel=0 note=61 velocity=127 time=1
note_on channel=0 note=52 velocity=127 time=0
note_on channel=0 note=69 velocity=127 time=0
note_on channel=0 note=64 velocity=127 time=0
note_on channel=0 note=64 velocity=0 time=119
note_on channel=0 note=61 velocity=0 time=0
note_on channel=0 note=52 velocity=0 time=0
note_on channel=0 note=69 velocity=0 time=0
note_on channel=0 note=74 velocity=127 time=541
note_on channel=0 note=74 velocity=0 time=29
note_on channel=0 note=82 velocity=127 time=1
note_on channel=0 note=77 velocity=127 time=0
note_on channel=0 note=77 velocity=0 time=29
note_on channel=0 note=82 velocity=0 time=0
note_on channel=0 note=69 velocity=127 time=1
note_on channel=0 note=69 velocity=0 time=29
note_on channel=0 note=74 velocity=127 time=1
note_on channel=0 note=81 velocity=127 time=0
note_on channel=0 note=81 velocity=0 time=29
note_on channel=0 note=74 velocity=0 time=0
note_on channel=0 note=70 velocity=127 time=1
note_on channel=0 note=70 velocity=0 time=29
note_on channel=0 note=79 velocity=127 time=1
note_on channel=0 note=74 velocity=127 time=0
note_on channel=0 note=74 velocity=0 time=29
note_on channel=0 note=79 velocity=0 time=0
note_on channel=0 note=64 velocity=127 time=1
note_on channel=0 note=73 velocity=127 time=0
note_on channel=0 note=81 velocity=127 time=0
note_on channel=0 note=76 velocity=127 time=0
note_on channel=0 note=76 velocity=0 time=29
note_on channel=0 note=64 velocity=0 time=0
note_on channel=0 note=73 velocity=0 time=0
note_on channel=0 note=81 velocity=0 time=0
note_on channel=0 note=74 velocity=127 time=271
note_on channel=0 note=74 velocity=0 time=29
note_on channel=0 note=82 velocity=127 time=1
note_on channel=0 note=77 velocity=127 time=0
note_on channel=0 note=77 velocity=0 time=29
note_on channel=0 note=82 velocity=0 time=0
note_on channel=0 note=69 velocity=127 time=1
note_on channel=0 note=69 velocity=0 time=29
note_on channel=0 note=81 velocity=127 time=0
note_on channel=0 note=76 velocity=127 time=1
note_on channel=0 note=81 velocity=0 time=28
note_on channel=0 note=76 velocity=0 time=1
note_on channel=0 note=70 velocity=127 time=1
note_on channel=0 note=70 velocity=0 time=29
note_on channel=0 note=79 velocity=127 time=1
note_on channel=0 note=74 velocity=127 time=0
note_on channel=0 note=74 velocity=0 time=29
note_on channel=0 note=79 velocity=0 time=0
note_on channel=0 note=64 velocity=127 time=2
note_on channel=0 note=69 velocity=127 time=1
note_on channel=0 note=73 velocity=127 time=1
note_on channel=0 note=76 velocity=127 time=1
note_on channel=0 note=81 velocity=127 time=1
note_on channel=0 note=64 velocity=0 time=55
note_on channel=0 note=65 velocity=127 time=0
note_on channel=0 note=59 velocity=127 time=0
note_on channel=0 note=74 velocity=127 time=0
note_on channel=0 note=71 velocity=127 time=0
note_on channel=0 note=69 velocity=0 time=1
note_on channel=0 note=73 velocity=0 time=1
note_on channel=0 note=76 velocity=0 time=1
note_on channel=0 note=81 velocity=0 time=1
note_on channel=0 note=65 velocity=0 time=55
note_on channel=0 note=74 velocity=0 time=0
note_on channel=0 note=71 velocity=0 time=0
note_on channel=0 note=59 velocity=0 time=0
note_on channel=0 note=73 velocity=127 time=1
note_on channel=0 note=57 velocity=127 time=0
note_on channel=0 note=69 velocity=127 time=0
note_on channel=0 note=64 velocity=127 time=0
note_on channel=0 note=73 velocity=0 time=89
note_on channel=0 note=71 velocity=127 time=1
note_on channel=0 note=71 velocity=0 time=29
note_on channel=0 note=64 velocity=0 time=0
note_on channel=0 note=69 velocity=0 time=0
note_on channel=0 note=57 velocity=0 time=0
note_on channel=0 note=69 velocity=127 time=1
note_on channel=0 note=69 velocity=0 time=29
note_on channel=0 note=73 velocity=127 time=1
note_on channel=0 note=73 velocity=0 time=29
note_on channel=0 note=76 velocity=127 time=1
note_on channel=0 note=76 velocity=0 time=14
note_on channel=0 note=79 velocity=127 time=1
note_on channel=0 note=79 velocity=0 time=14
note_on channel=0 note=82 velocity=127 time=1
note_on channel=0 note=82 velocity=0 time=29
note_on channel=0 note=81 velocity=127 time=1
note_on channel=0 note=81 velocity=0 time=14
note_on channel=0 note=79 velocity=127 time=1
note_on channel=0 note=79 velocity=0 time=14
note_on channel=0 note=77 velocity=127 time=1
note_on channel=0 note=77 velocity=0 time=14
note_on channel=0 note=76 velocity=127 time=1
note_on channel=0 note=76 velocity=0 time=14
note_on channel=0 note=77 velocity=127 time=1
note_on channel=0 note=77 velocity=0 time=14
note_on channel=0 note=76 velocity=127 time=1
note_on channel=0 note=76 velocity=0 time=14
note_on channel=0 note=74 velocity=127 time=1
note_on channel=0 note=74 velocity=0 time=14
note_on channel=0 note=73 velocity=127 time=1
note_on channel=0 note=73 velocity=0 time=14
note_on channel=0 note=74 velocity=127 time=1
note_on channel=0 note=74 velocity=0 time=14
note_on channel=0 note=72 velocity=127 time=1
note_on channel=0 note=72 velocity=0 time=14
note_on channel=0 note=70 velocity=127 time=1
note_on channel=0 note=70 velocity=0 time=14
note_on channel=0 note=69 velocity=127 time=1
note_on channel=0 note=69 velocity=0 time=14
note_on channel=0 note=67 velocity=127 time=1
note_on channel=0 note=67 velocity=0 time=14
note_on channel=0 note=65 velocity=127 time=1
note_on channel=0 note=65 velocity=0 time=14
note_on channel=0 note=64 velocity=127 time=1
note_on channel=0 note=64 velocity=0 time=14
note_on channel=0 note=62 velocity=127 time=1
note_on channel=0 note=62 velocity=0 time=14
note_on channel=0 note=73 velocity=127 time=3571
note_on channel=0 note=57 velocity=127 time=0
note_on channel=0 note=69 velocity=127 time=0
note_on channel=0 note=64 velocity=127 time=0
note_on channel=0 note=64 velocity=0 time=29
note_on channel=0 note=73 velocity=0 time=0
note_on channel=0 note=57 velocity=0 time=0
note_on channel=0 note=69 velocity=0 time=0
note_on channel=0 note=74 velocity=127 time=1
note_on channel=0 note=57 velocity=127 time=0
note_on channel=0 note=69 velocity=127 time=0
note_on channel=0 note=65 velocity=127 time=0
note_on channel=0 note=62 velocity=127 time=0
note_on channel=0 note=62 velocity=0 time=59
note_on channel=0 note=69 velocity=0 time=0
note_on channel=0 note=74 velocity=0 time=0
note_on channel=0 note=57 velocity=0 time=0
note_on channel=0 note=65 velocity=0 time=0
note_on channel=0 note=65 velocity=127 time=1
note_on channel=0 note=62 velocity=127 time=0
note_on channel=0 note=57 velocity=127 time=0
note_on channel=0 note=57 velocity=0 time=29
note_on channel=0 note=65 velocity=0 time=30
note_on channel=0 note=64 velocity=127 time=1
note_on channel=0 note=62 velocity=0 time=59
note_on channel=0 note=61 velocity=127 time=1
note_on channel=0 note=55 velocity=127 time=30
note_on channel=0 note=55 velocity=0 time=29
note_on channel=0 note=61 velocity=0 time=0
note_on channel=0 note=64 velocity=0 time=0
note_on channel=0 note=55 velocity=127 time=1
note_on channel=0 note=62 velocity=127 time=0
note_on channel=0 note=57 velocity=127 time=0
note_on channel=0 note=50 velocity=127 time=0
note_on channel=0 note=55 velocity=0 time=59
note_on channel=0 note=53 velocity=127 time=1
note_on channel=0 note=53 velocity=0 time=29
note_on channel=0 note=52 velocity=127 time=1
note_on channel=0 note=52 velocity=0 time=29
note_on channel=0 note=53 velocity=127 time=1
note_on channel=0 note=53 velocity=0 time=119
note_on channel=0 note=50 velocity=0 time=0
note_on channel=0 note=57 velocity=0 time=0
note_on channel=0 note=62 velocity=0 time=0
note_on channel=0 note=62 velocity=127 time=7260
note_on channel=0 note=62 velocity=0 time=14
note_on channel=0 note=65 velocity=127 time=1
note_on channel=0 note=65 velocity=0 time=14
note_on channel=0 note=70 velocity=127 time=1
note_on channel=0 note=70 velocity=0 time=14
note_on channel=0 note=65 velocity=127 time=1
note_on channel=0 note=65 velocity=0 time=14
note_on channel=0 note=60 velocity=127 time=1
note_on channel=0 note=60 velocity=0 time=14
note_on channel=0 note=64 velocity=127 time=1
note_on channel=0 note=64 velocity=0 time=14
note_on channel=0 note=69 velocity=127 time=1
note_on channel=0 note=69 velocity=0 time=14
note_on channel=0 note=64 velocity=127 time=1
note_on channel=0 note=64 velocity=0 time=14
note_on channel=0 note=58 velocity=127 time=1
note_on channel=0 note=58 velocity=0 time=14
note_on channel=0 note=62 velocity=127 time=1
note_on channel=0 note=62 velocity=0 time=14
note_on channel=0 note=67 velocity=127 time=1
note_on channel=0 note=67 velocity=0 time=14
note_on channel=0 note=62 velocity=127 time=1
note_on channel=0 note=62 velocity=0 time=14
note_on channel=0 note=57 velocity=127 time=1
note_on channel=0 note=57 velocity=0 time=14
note_on channel=0 note=61 velocity=127 time=1
note_on channel=0 note=61 velocity=0 time=14
note_on channel=0 note=64 velocity=127 time=1
note_on channel=0 note=64 velocity=0 time=14
note_on channel=0 note=69 velocity=127 time=1
note_on channel=0 note=69 velocity=0 time=14
note_on channel=0 note=62 velocity=127 time=241
note_on channel=0 note=62 velocity=0 time=14
note_on channel=0 note=65 velocity=127 time=1
note_on channel=0 note=65 velocity=0 time=14
note_on channel=0 note=70 velocity=127 time=1
note_on channel=0 note=70 velocity=0 time=14
note_on channel=0 note=65 velocity=127 time=1
note_on channel=0 note=65 velocity=0 time=14
note_on channel=0 note=60 velocity=127 time=1
note_on channel=0 note=60 velocity=0 time=14
note_on channel=0 note=64 velocity=127 time=1
note_on channel=0 note=64 velocity=0 time=14
note_on channel=0 note=69 velocity=127 time=1
note_on channel=0 note=69 velocity=0 time=14
note_on channel=0 note=64 velocity=127 time=1
note_on channel=0 note=64 velocity=0 time=14
note_on channel=0 note=58 velocity=127 time=1
note_on channel=0 note=58 velocity=0 time=14
note_on channel=0 note=62 velocity=127 time=1
note_on channel=0 note=62 velocity=0 time=14
note_on channel=0 note=67 velocity=127 time=1
note_on channel=0 note=67 velocity=0 time=14
note_on channel=0 note=62 velocity=127 time=1
note_on channel=0 note=62 velocity=0 time=14
note_on channel=0 note=57 velocity=127 time=1
note_on channel=0 note=57 velocity=0 time=14
note_on channel=0 note=61 velocity=127 time=1
note_on channel=0 note=61 velocity=0 time=14
note_on channel=0 note=64 velocity=127 time=1
note_on channel=0 note=64 velocity=0 time=14
note_on channel=0 note=69 velocity=127 time=1
note_on channel=0 note=69 velocity=0 time=14
note_on channel=0 note=74 velocity=127 time=1081
note_on channel=0 note=74 velocity=0 time=14
note_on channel=0 note=77 velocity=127 time=1
note_on channel=0 note=77 velocity=0 time=14
note_on channel=0 note=82 velocity=127 time=1
note_on channel=0 note=82 velocity=0 time=14
note_on channel=0 note=77 velocity=127 time=1
note_on channel=0 note=77 velocity=0 time=14
note_on channel=0 note=72 velocity=127 time=1
note_on channel=0 note=72 velocity=0 time=14
note_on channel=0 note=76 velocity=127 time=1
note_on channel=0 note=76 velocity=0 time=14
note_on channel=0 note=81 velocity=127 time=1
note_on channel=0 note=81 velocity=0 time=14
note_on channel=0 note=76 velocity=127 time=1
note_on channel=0 note=76 velocity=0 time=14
note_on channel=0 note=70 velocity=127 time=1
note_on channel=0 note=70 velocity=0 time=14
note_on channel=0 note=74 velocity=127 time=1
note_on channel=0 note=74 velocity=0 time=14
note_on channel=0 note=79 velocity=127 time=1
note_on channel=0 note=79 velocity=0 time=14
note_on channel=0 note=74 velocity=127 time=1
note_on channel=0 note=74 velocity=0 time=14
note_on channel=0 note=69 velocity=127 time=1
note_on channel=0 note=69 velocity=0 time=14
note_on channel=0 note=73 velocity=127 time=1
note_on channel=0 note=73 velocity=0 time=14
note_on channel=0 note=76 velocity=127 time=1
note_on channel=0 note=76 velocity=0 time=14
note_on channel=0 note=81 velocity=127 time=1
note_on channel=0 note=81 velocity=0 time=14
note_on channel=0 note=69 velocity=127 time=14190
note_on channel=0 note=69 velocity=0 time=29
note_on channel=0 note=67 velocity=127 time=1
note_on channel=0 note=67 velocity=0 time=29
note_on channel=0 note=69 velocity=127 time=1
note_on channel=0 note=69 velocity=0 time=29
note_on channel=0 note=65 velocity=127 time=1
note_on channel=0 note=65 velocity=0 time=29
note_on channel=0 note=69 velocity=127 time=1
note_on channel=0 note=69 velocity=0 time=29
note_on channel=0 note=64 velocity=127 time=1
note_on channel=0 note=64 velocity=0 time=29
note_on channel=0 note=69 velocity=127 time=1
note_on channel=0 note=69 velocity=0 time=29
note_on channel=0 note=62 velocity=127 time=1
note_on channel=0 note=62 velocity=0 time=29
note_on channel=0 note=69 velocity=127 time=1
note_on channel=0 note=69 velocity=0 time=29
note_on channel=0 note=61 velocity=127 time=1
note_on channel=0 note=61 velocity=0 time=29
note_on channel=0 note=69 velocity=127 time=1
note_on channel=0 note=69 velocity=0 time=29
note_on channel=0 note=62 velocity=127 time=1
note_on channel=0 note=62 velocity=0 time=29
note_on channel=0 note=69 velocity=127 time=1
note_on channel=0 note=69 velocity=0 time=29
note_on channel=0 note=64 velocity=127 time=1
note_on channel=0 note=64 velocity=0 time=29
note_on channel=0 note=69 velocity=127 time=1
note_on channel=0 note=69 velocity=0 time=29
note_on channel=0 note=65 velocity=127 time=1
note_on channel=0 note=65 velocity=0 time=29
note_on channel=0 note=69 velocity=127 time=1
note_on channel=0 note=69 velocity=0 time=29
note_on channel=0 note=57 velocity=127 time=1
note_on channel=0 note=57 velocity=0 time=29
note_on channel=0 note=69 velocity=127 time=1
note_on channel=0 note=69 velocity=0 time=29
note_on channel=0 note=59 velocity=127 time=1
note_on channel=0 note=59 velocity=0 time=29
note_on channel=0 note=69 velocity=127 time=1
note_on channel=0 note=69 velocity=0 time=29
note_on channel=0 note=61 velocity=127 time=1
note_on channel=0 note=61 velocity=0 time=29
note_on channel=0 note=69 velocity=127 time=1
note_on channel=0 note=69 velocity=0 time=29
note_on channel=0 note=62 velocity=127 time=1
note_on channel=0 note=62 velocity=0 time=29
note_on channel=0 note=69 velocity=127 time=1
note_on channel=0 note=69 velocity=0 time=29
note_on channel=0 note=61 velocity=127 time=1
note_on channel=0 note=61 velocity=0 time=29
note_on channel=0 note=69 velocity=127 time=1
note_on channel=0 note=69 velocity=0 time=29
note_on channel=0 note=62 velocity=127 time=1
note_on channel=0 note=62 velocity=0 time=29
note_on channel=0 note=69 velocity=127 time=1
note_on channel=0 note=69 velocity=0 time=29
note_on channel=0 note=64 velocity=127 time=1
note_on channel=0 note=64 velocity=0 time=29
note_on channel=0 note=69 velocity=127 time=1
note_on channel=0 note=69 velocity=0 time=29
note_on channel=0 note=65 velocity=127 time=1
note_on channel=0 note=65 velocity=0 time=59
note_on channel=0 note=66 velocity=127 time=1
note_on channel=0 note=66 velocity=0 time=59
note_on channel=0 note=67 velocity=127 time=1
note_on channel=0 note=67 velocity=0 time=59
note_on channel=0 note=60 velocity=127 time=1
note_on channel=0 note=60 velocity=0 time=59
note_on channel=0 note=58 velocity=127 time=1
note_on channel=0 note=58 velocity=0 time=59
note_on channel=0 note=57 velocity=127 time=1
note_on channel=0 note=57 velocity=0 time=59
note_on channel=0 note=58 velocity=127 time=1
note_on channel=0 note=58 velocity=0 time=59
note_on channel=0 note=60 velocity=127 time=1
note_on channel=0 note=60 velocity=0 time=59
note_on channel=0 note=62 velocity=127 time=1
note_on channel=0 note=62 velocity=0 time=59
note_on channel=0 note=54 velocity=127 time=1
note_on channel=0 note=54 velocity=0 time=59
note_on channel=0 note=55 velocity=127 time=1
note_on channel=0 note=55 velocity=0 time=59
note_on channel=0 note=57 velocity=127 time=1
note_on channel=0 note=57 velocity=0 time=59
note_on channel=0 note=58 velocity=127 time=1
note_on channel=0 note=58 velocity=0 time=59
note_on channel=0 note=57 velocity=127 time=1
note_on channel=0 note=57 velocity=0 time=59
note_on channel=0 note=58 velocity=127 time=1
note_on channel=0 note=58 velocity=0 time=59
note_on channel=0 note=54 velocity=127 time=1
note_on channel=0 note=54 velocity=0 time=59
note_on channel=0 note=55 velocity=127 time=1
note_on channel=0 note=55 velocity=0 time=29
note_on channel=0 note=67 velocity=127 time=1
note_on channel=0 note=67 velocity=0 time=29
note_on channel=0 note=55 velocity=127 time=1
note_on channel=0 note=55 velocity=0 time=29
note_on channel=0 note=67 velocity=127 time=1
note_on channel=0 note=67 velocity=0 time=29
note_on channel=0 note=62 velocity=127 time=1
note_on channel=0 note=62 velocity=0 time=29
note_on channel=0 note=67 velocity=127 time=1
note_on channel=0 note=67 velocity=0 time=29
note_on channel=0 note=62 velocity=127 time=1
note_on channel=0 note=62 velocity=0 time=29
note_on channel=0 note=67 velocity=127 time=1
note_on channel=0 note=67 velocity=0 time=29
note_on channel=0 note=60 velocity=127 time=1
note_on channel=0 note=60 velocity=0 time=29
note_on channel=0 note=63 velocity=127 time=1
note_on channel=0 note=63 velocity=0 time=29
note_on channel=0 note=60 velocity=127 time=1
note_on channel=0 note=60 velocity=0 time=29
note_on channel=0 note=63 velocity=127 time=1
note_on channel=0 note=63 velocity=0 time=29
note_on channel=0 note=60 velocity=127 time=1
note_on channel=0 note=60 velocity=0 time=29
note_on channel=0 note=63 velocity=127 time=1
note_on channel=0 note=63 velocity=0 time=29
note_on channel=0 note=60 velocity=127 time=1
note_on channel=0 note=60 velocity=0 time=29
note_on channel=0 note=63 velocity=127 time=1
note_on channel=0 note=63 velocity=0 time=29
note_on channel=0 note=60 velocity=127 time=1
note_on channel=0 note=60 velocity=0 time=29
note_on channel=0 note=65 velocity=127 time=1
note_on channel=0 note=65 velocity=0 time=29
note_on channel=0 note=60 velocity=127 time=1
note_on channel=0 note=60 velocity=0 time=29
note_on channel=0 note=65 velocity=127 time=1
note_on channel=0 note=65 velocity=0 time=29
note_on channel=0 note=60 velocity=127 time=1
note_on channel=0 note=60 velocity=0 time=29
note_on channel=0 note=65 velocity=127 time=1
note_on channel=0 note=65 velocity=0 time=29
note_on channel=0 note=60 velocity=127 time=1
note_on channel=0 note=60 velocity=0 time=29
note_on channel=0 note=65 velocity=127 time=1
note_on channel=0 note=65 velocity=0 time=29
note_on channel=0 note=58 velocity=127 time=1
note_on channel=0 note=58 velocity=0 time=29
note_on channel=0 note=62 velocity=127 time=1
note_on channel=0 note=62 velocity=0 time=29
note_on channel=0 note=58 velocity=127 time=1
note_on channel=0 note=58 velocity=0 time=29
note_on channel=0 note=62 velocity=127 time=1
note_on channel=0 note=62 velocity=0 time=29
note_on channel=0 note=58 velocity=127 time=1
note_on channel=0 note=58 velocity=0 time=29
note_on channel=0 note=62 velocity=127 time=1
note_on channel=0 note=62 velocity=0 time=29
note_on channel=0 note=58 velocity=127 time=1
note_on channel=0 note=58 velocity=0 time=29
note_on channel=0 note=62 velocity=127 time=1
note_on channel=0 note=62 velocity=0 time=29
note_on channel=0 note=58 velocity=127 time=1
note_on channel=0 note=58 velocity=0 time=29
note_on channel=0 note=64 velocity=127 time=1
note_on channel=0 note=64 velocity=0 time=29
note_on channel=0 note=58 velocity=127 time=1
note_on channel=0 note=58 velocity=0 time=29
note_on channel=0 note=64 velocity=127 time=1
note_on channel=0 note=64 velocity=0 time=29
note_on channel=0 note=58 velocity=127 time=1
note_on channel=0 note=58 velocity=0 time=29
note_on channel=0 note=64 velocity=127 time=1
note_on channel=0 note=64 velocity=0 time=29
note_on channel=0 note=58 velocity=127 time=1
note_on channel=0 note=58 velocity=0 time=29
note_on channel=0 note=64 velocity=127 time=1
note_on channel=0 note=64 velocity=0 time=29
note_on channel=0 note=57 velocity=127 time=1
note_on channel=0 note=57 velocity=0 time=29
note_on channel=0 note=61 velocity=127 time=1
note_on channel=0 note=61 velocity=0 time=29
note_on channel=0 note=57 velocity=127 time=1
note_on channel=0 note=57 velocity=0 time=29
note_on channel=0 note=61 velocity=127 time=1
note_on channel=0 note=61 velocity=0 time=29
note_on channel=0 note=57 velocity=127 time=1
note_on channel=0 note=57 velocity=0 time=29
note_on channel=0 note=61 velocity=127 time=1
note_on channel=0 note=61 velocity=0 time=29
note_on channel=0 note=57 velocity=127 time=1
note_on channel=0 note=57 velocity=0 time=29
note_on channel=0 note=61 velocity=127 time=1
note_on channel=0 note=61 velocity=0 time=29
note_on channel=0 note=53 velocity=127 time=1
note_on channel=0 note=53 velocity=0 time=29
note_on channel=0 note=62 velocity=127 time=1
note_on channel=0 note=62 velocity=0 time=29
note_on channel=0 note=53 velocity=127 time=1
note_on channel=0 note=53 velocity=0 time=29
note_on channel=0 note=62 velocity=127 time=1
note_on channel=0 note=62 velocity=0 time=29
note_on channel=0 note=53 velocity=127 time=1
note_on channel=0 note=53 velocity=0 time=29
note_on channel=0 note=62 velocity=127 time=1
note_on channel=0 note=62 velocity=0 time=29
note_on channel=0 note=53 velocity=127 time=1
note_on channel=0 note=53 velocity=0 time=29
note_on channel=0 note=62 velocity=127 time=1
note_on channel=0 note=62 velocity=0 time=29
note_on channel=0 note=52 velocity=127 time=1
note_on channel=0 note=52 velocity=0 time=29
note_on channel=0 note=58 velocity=127 time=1
note_on channel=0 note=58 velocity=0 time=29
note_on channel=0 note=52 velocity=127 time=1
note_on channel=0 note=52 velocity=0 time=29
note_on channel=0 note=58 velocity=127 time=1
note_on channel=0 note=58 velocity=0 time=29
note_on channel=0 note=52 velocity=127 time=1
note_on channel=0 note=52 velocity=0 time=29
note_on channel=0 note=58 velocity=127 time=1
note_on channel=0 note=58 velocity=0 time=29
note_on channel=0 note=52 velocity=127 time=1
note_on channel=0 note=52 velocity=0 time=29
note_on channel=0 note=58 velocity=127 time=1
note_on channel=0 note=58 velocity=0 time=29
note_on channel=0 note=50 velocity=127 time=1
note_on channel=0 note=50 velocity=0 time=29
note_on channel=0 note=57 velocity=127 time=1
note_on channel=0 note=57 velocity=0 time=29
note_on channel=0 note=50 velocity=127 time=1
note_on channel=0 note=50 velocity=0 time=29
note_on channel=0 note=57 velocity=127 time=1
note_on channel=0 note=57 velocity=0 time=29
note_on channel=0 note=50 velocity=127 time=1
note_on channel=0 note=50 velocity=0 time=29
note_on channel=0 note=57 velocity=127 time=1
note_on channel=0 note=57 velocity=0 time=29
note_on channel=0 note=50 velocity=127 time=1
note_on channel=0 note=50 velocity=0 time=29
note_on channel=0 note=57 velocity=127 time=1
note_on channel=0 note=57 velocity=0 time=29
note_on channel=0 note=52 velocity=127 time=1
note_on channel=0 note=52 velocity=0 time=29
note_on channel=0 note=55 velocity=127 time=1
note_on channel=0 note=55 velocity=0 time=29
note_on channel=0 note=52 velocity=127 time=1
note_on channel=0 note=52 velocity=0 time=29
note_on channel=0 note=55 velocity=127 time=1
note_on channel=0 note=55 velocity=0 time=29
note_on channel=0 note=52 velocity=127 time=1
note_on channel=0 note=52 velocity=0 time=29
note_on channel=0 note=55 velocity=127 time=1
note_on channel=0 note=55 velocity=0 time=29
note_on channel=0 note=52 velocity=127 time=1
note_on channel=0 note=52 velocity=0 time=29
note_on channel=0 note=55 velocity=127 time=1
note_on channel=0 note=55 velocity=0 time=29
note_on channel=0 note=53 velocity=127 time=1
note_on channel=0 note=57 velocity=127 time=0
note_on channel=0 note=57 velocity=0 time=59
note_on channel=0 note=53 velocity=0 time=0
note_on channel=0 note=57 velocity=127 time=1
note_on channel=0 note=52 velocity=127 time=0
note_on channel=0 note=52 velocity=0 time=59
note_on channel=0 note=57 velocity=0 time=0
note_on channel=0 note=57 velocity=127 time=1
note_on channel=0 note=50 velocity=127 time=0
note_on channel=0 note=50 velocity=0 time=59
note_on channel=0 note=57 velocity=0 time=0
note_on channel=0 note=55 velocity=127 time=1
note_on channel=0 note=57 velocity=127 time=0
note_on channel=0 note=57 velocity=0 time=59
note_on channel=0 note=55 velocity=0 time=0
note_on channel=0 note=53 velocity=127 time=1
note_on channel=0 note=57 velocity=127 time=0
note_on channel=0 note=57 velocity=0 time=59
note_on channel=0 note=53 velocity=0 time=0
note_on channel=0 note=52 velocity=127 time=1
note_on channel=0 note=57 velocity=127 time=0
note_on channel=0 note=57 velocity=0 time=59
note_on channel=0 note=52 velocity=0 time=0
note_on channel=0 note=53 velocity=127 time=1
note_on channel=0 note=57 velocity=127 time=0
note_on channel=0 note=57 velocity=0 time=59
note_on channel=0 note=53 velocity=0 time=0
note_on channel=0 note=57 velocity=127 time=1
note_on channel=0 note=49 velocity=127 time=0
note_on channel=0 note=49 velocity=0 time=59
note_on channel=0 note=57 velocity=0 time=0
note_on channel=0 note=57 velocity=127 time=1
note_on channel=0 note=50 velocity=127 time=0
note_on channel=0 note=50 velocity=0 time=59
note_on channel=0 note=57 velocity=0 time=0
note_on channel=0 note=49 velocity=127 time=1
note_on channel=0 note=57 velocity=127 time=0
note_on channel=0 note=57 velocity=0 time=59
note_on channel=0 note=49 velocity=0 time=0
note_on channel=0 note=50 velocity=127 time=1
note_on channel=0 note=57 velocity=127 time=0
note_on channel=0 note=57 velocity=0 time=59
note_on channel=0 note=50 velocity=0 time=0
note_on channel=0 note=57 velocity=127 time=1
note_on channel=0 note=52 velocity=127 time=0
note_on channel=0 note=52 velocity=0 time=59
note_on channel=0 note=57 velocity=0 time=0
note_on channel=0 note=57 velocity=127 time=1
note_on channel=0 note=53 velocity=127 time=0
note_on channel=0 note=53 velocity=0 time=59
note_on channel=0 note=57 velocity=0 time=0
note_on channel=0 note=57 velocity=127 time=1
note_on channel=0 note=52 velocity=127 time=0
note_on channel=0 note=52 velocity=0 time=59
note_on channel=0 note=57 velocity=0 time=0
note_on channel=0 note=57 velocity=127 time=1
note_on channel=0 note=53 velocity=127 time=0
note_on channel=0 note=53 velocity=0 time=59
note_on channel=0 note=57 velocity=0 time=0
note_on channel=0 note=49 velocity=127 time=1
note_on channel=0 note=57 velocity=127 time=0
note_on channel=0 note=57 velocity=0 time=59
note_on channel=0 note=49 velocity=0 time=0
note_on channel=0 note=57 velocity=127 time=1
note_on channel=0 note=50 velocity=127 time=0
note_on channel=0 note=50 velocity=0 time=119
note_on channel=0 note=57 velocity=0 time=0
note_on channel=0 note=62 velocity=127 time=1
note_on channel=0 note=53 velocity=127 time=0
note_on channel=0 note=53 velocity=0 time=119
note_on channel=0 note=62 velocity=0 time=0
note_on channel=0 note=70 velocity=127 time=1
note_on channel=0 note=70 velocity=0 time=29
note_on channel=0 note=81 velocity=127 time=1
note_on channel=0 note=81 velocity=0 time=29
note_on channel=0 note=72 velocity=127 time=1
note_on channel=0 note=72 velocity=0 time=29
note_on channel=0 note=81 velocity=127 time=1
note_on channel=0 note=81 velocity=0 time=29
note_on channel=0 note=74 velocity=127 time=1
note_on channel=0 note=74 velocity=0 time=29
note_on channel=0 note=79 velocity=127 time=1
note_on channel=0 note=79 velocity=0 time=29
note_on channel=0 note=70 velocity=127 time=1
note_on channel=0 note=70 velocity=0 time=29
note_on channel=0 note=79 velocity=127 time=1
note_on channel=0 note=79 velocity=0 time=29
note_on channel=0 note=76 velocity=127 time=1
note_on channel=0 note=76 velocity=0 time=29
note_on channel=0 note=79 velocity=127 time=1
note_on channel=0 note=79 velocity=0 time=29
note_on channel=0 note=74 velocity=127 time=1
note_on channel=0 note=74 velocity=0 time=29
note_on channel=0 note=79 velocity=127 time=1
note_on channel=0 note=79 velocity=0 time=29
note_on channel=0 note=72 velocity=127 time=1
note_on channel=0 note=72 velocity=0 time=29
note_on channel=0 note=79 velocity=127 time=1
note_on channel=0 note=79 velocity=0 time=29
note_on channel=0 note=70 velocity=127 time=1
note_on channel=0 note=70 velocity=0 time=29
note_on channel=0 note=79 velocity=127 time=1
note_on channel=0 note=79 velocity=0 time=29
note_on channel=0 note=69 velocity=127 time=1
note_on channel=0 note=69 velocity=0 time=29
note_on channel=0 note=79 velocity=127 time=1
note_on channel=0 note=79 velocity=0 time=29
note_on channel=0 note=70 velocity=127 time=1
note_on channel=0 note=70 velocity=0 time=29
note_on channel=0 note=79 velocity=127 time=1
note_on channel=0 note=79 velocity=0 time=29
note_on channel=0 note=72 velocity=127 time=1
note_on channel=0 note=72 velocity=0 time=29
note_on channel=0 note=77 velocity=127 time=1
note_on channel=0 note=77 velocity=0 time=29
note_on channel=0 note=69 velocity=127 time=1
note_on channel=0 note=69 velocity=0 time=29
note_on channel=0 note=77 velocity=127 time=1
note_on channel=0 note=77 velocity=0 time=29
note_on channel=0 note=74 velocity=127 time=1
note_on channel=0 note=74 velocity=0 time=29
note_on channel=0 note=77 velocity=127 time=1
note_on channel=0 note=77 velocity=0 time=29
note_on channel=0 note=72 velocity=127 time=1
note_on channel=0 note=72 velocity=0 time=29
note_on channel=0 note=77 velocity=127 time=1
note_on channel=0 note=77 velocity=0 time=29
note_on channel=0 note=70 velocity=127 time=1
note_on channel=0 note=70 velocity=0 time=29
note_on channel=0 note=77 velocity=127 time=1
note_on channel=0 note=77 velocity=0 time=29
note_on channel=0 note=69 velocity=127 time=1
note_on channel=0 note=69 velocity=0 time=29
note_on channel=0 note=77 velocity=127 time=1
note_on channel=0 note=77 velocity=0 time=29
note_on channel=0 note=67 velocity=127 time=1
note_on channel=0 note=67 velocity=0 time=29
note_on channel=0 note=77 velocity=127 time=1
note_on channel=0 note=77 velocity=0 time=29
note_on channel=0 note=69 velocity=127 time=1
note_on channel=0 note=69 velocity=0 time=29
note_on channel=0 note=77 velocity=127 time=1
note_on channel=0 note=77 velocity=0 time=29
note_on channel=0 note=70 velocity=127 time=1
note_on channel=0 note=70 velocity=0 time=29
note_on channel=0 note=76 velocity=127 time=1
note_on channel=0 note=76 velocity=0 time=29
note_on channel=0 note=67 velocity=127 time=1
note_on channel=0 note=67 velocity=0 time=29
note_on channel=0 note=76 velocity=127 time=1
note_on channel=0 note=76 velocity=0 time=29
note_on channel=0 note=73 velocity=127 time=1
note_on channel=0 note=73 velocity=0 time=29
note_on channel=0 note=76 velocity=127 time=1
note_on channel=0 note=76 velocity=0 time=29
note_on channel=0 note=71 velocity=127 time=1
note_on channel=0 note=71 velocity=0 time=29
note_on channel=0 note=76 velocity=127 time=1
note_on channel=0 note=76 velocity=0 time=29
note_on channel=0 note=69 velocity=127 time=1
note_on channel=0 note=69 velocity=0 time=29
note_on channel=0 note=76 velocity=127 time=1
note_on channel=0 note=76 velocity=0 time=29
note_on channel=0 note=67 velocity=127 time=1
note_on channel=0 note=67 velocity=0 time=29
note_on channel=0 note=76 velocity=127 time=1
note_on channel=0 note=76 velocity=0 time=29
note_on channel=0 note=65 velocity=127 time=1
note_on channel=0 note=65 velocity=0 time=29
note_on channel=0 note=76 velocity=127 time=1
note_on channel=0 note=76 velocity=0 time=29
note_on channel=0 note=67 velocity=127 time=1
note_on channel=0 note=67 velocity=0 time=29
note_on channel=0 note=76 velocity=127 time=1
note_on channel=0 note=76 velocity=0 time=29
note_on channel=0 note=69 velocity=127 time=1
note_on channel=0 note=69 velocity=0 time=29
note_on channel=0 note=74 velocity=127 time=1
note_on channel=0 note=74 velocity=0 time=29
note_on channel=0 note=65 velocity=127 time=1
note_on channel=0 note=65 velocity=0 time=29
note_on channel=0 note=74 velocity=127 time=1
note_on channel=0 note=74 velocity=0 time=29
note_on channel=0 note=64 velocity=127 time=1
note_on channel=0 note=64 velocity=0 time=29
note_on channel=0 note=76 velocity=127 time=1
note_on channel=0 note=76 velocity=0 time=29
note_on channel=0 note=64 velocity=127 time=1
note_on channel=0 note=64 velocity=0 time=29
note_on channel=0 note=76 velocity=127 time=1
note_on channel=0 note=76 velocity=0 time=29
note_on channel=0 note=65 velocity=127 time=1
note_on channel=0 note=65 velocity=0 time=29
note_on channel=0 note=74 velocity=127 time=1
note_on channel=0 note=74 velocity=0 time=29
note_on channel=0 note=65 velocity=127 time=1
note_on channel=0 note=65 velocity=0 time=29
note_on channel=0 note=74 velocity=127 time=1
note_on channel=0 note=74 velocity=0 time=29
note_on channel=0 note=70 velocity=127 time=1
note_on channel=0 note=70 velocity=0 time=29
note_on channel=0 note=73 velocity=127 time=1
note_on channel=0 note=73 velocity=0 time=29
note_on channel=0 note=70 velocity=127 time=1
note_on channel=0 note=70 velocity=0 time=29
note_on channel=0 note=73 velocity=127 time=1
note_on channel=0 note=73 velocity=0 time=29
note_on channel=0 note=69 velocity=127 time=1
note_on channel=0 note=69 velocity=0 time=29
note_on channel=0 note=74 velocity=127 time=1
note_on channel=0 note=74 velocity=0 time=29
note_on channel=0 note=65 velocity=127 time=1
note_on channel=0 note=65 velocity=0 time=29
note_on channel=0 note=74 velocity=127 time=1
note_on channel=0 note=74 velocity=0 time=29
note_on channel=0 note=64 velocity=127 time=1
note_on channel=0 note=64 velocity=0 time=29
note_on channel=0 note=76 velocity=127 time=1
note_on channel=0 note=76 velocity=0 time=29
note_on channel=0 note=64 velocity=127 time=1
note_on channel=0 note=64 velocity=0 time=29
note_on channel=0 note=76 velocity=127 time=1
note_on channel=0 note=76 velocity=0 time=29
note_on channel=0 note=65 velocity=127 time=1
note_on channel=0 note=65 velocity=0 time=29
note_on channel=0 note=74 velocity=127 time=1
note_on channel=0 note=74 velocity=0 time=29
note_on channel=0 note=65 velocity=127 time=1
note_on channel=0 note=65 velocity=0 time=29
note_on channel=0 note=74 velocity=127 time=1
note_on channel=0 note=74 velocity=0 time=29
note_on channel=0 note=74 velocity=127 time=31
note_on channel=0 note=74 velocity=0 time=29
note_on channel=0 note=73 velocity=127 time=1
note_on channel=0 note=73 velocity=0 time=29
note_on channel=0 note=74 velocity=127 time=1
note_on channel=0 note=74 velocity=0 time=29
note_on channel=0 note=71 velocity=127 time=1
note_on channel=0 note=71 velocity=0 time=29
note_on channel=0 note=74 velocity=127 time=1
note_on channel=0 note=74 velocity=0 time=29
note_on channel=0 note=73 velocity=127 time=1
note_on channel=0 note=73 velocity=0 time=29
note_on channel=0 note=71 velocity=127 time=1
note_on channel=0 note=71 velocity=0 time=29
note_on channel=0 note=73 velocity=127 time=1
note_on channel=0 note=69 velocity=127 time=30
note_on channel=0 note=69 velocity=0 time=29
note_on channel=0 note=67 velocity=127 time=1
note_on channel=0 note=67 velocity=0 time=29
note_on channel=0 note=69 velocity=127 time=1
note_on channel=0 note=69 velocity=0 time=29
note_on channel=0 note=73 velocity=0 time=0
note_on channel=0 note=64 velocity=127 time=1
note_on channel=0 note=64 velocity=0 time=29
note_on channel=0 note=67 velocity=127 time=1
note_on channel=0 note=67 velocity=0 time=29
note_on channel=0 note=65 velocity=127 time=1
note_on channel=0 note=65 velocity=0 time=29
note_on channel=0 note=64 velocity=127 time=1
note_on channel=0 note=64 velocity=0 time=29
note_on channel=0 note=74 velocity=127 time=31
note_on channel=0 note=74 velocity=0 time=29
note_on channel=0 note=73 velocity=127 time=1
note_on channel=0 note=73 velocity=0 time=29
note_on channel=0 note=74 velocity=127 time=1
note_on channel=0 note=74 velocity=0 time=29
note_on channel=0 note=77 velocity=127 time=1
note_on channel=0 note=77 velocity=0 time=29
note_on channel=0 note=74 velocity=127 time=1
note_on channel=0 note=74 velocity=0 time=29
note_on channel=0 note=73 velocity=127 time=1
note_on channel=0 note=73 velocity=0 time=29
note_on channel=0 note=71 velocity=127 time=1
note_on channel=0 note=71 velocity=0 time=29
note_on channel=0 note=73 velocity=127 time=1
note_on channel=0 note=73 velocity=0 time=119
note_on channel=0 note=76 velocity=127 time=1
note_on channel=0 note=65 velocity=127 time=120
note_on channel=0 note=76 velocity=0 time=59
note_on channel=0 note=74 velocity=127 time=1
note_on channel=0 note=65 velocity=0 time=59
note_on channel=0 note=64 velocity=127 time=1
note_on channel=0 note=74 velocity=0 time=59
note_on channel=0 note=73 velocity=127 time=1
note_on channel=0 note=73 velocity=0 time=59
note_on channel=0 note=64 velocity=0 time=0
note_on channel=0 note=62 velocity=127 time=1
note_on channel=0 note=72 velocity=127 time=0
note_on channel=0 note=62 velocity=0 time=59
note_on channel=0 note=69 velocity=127 time=1
note_on channel=0 note=72 velocity=0 time=59
note_on channel=0 note=70 velocity=127 time=1
note_on channel=0 note=69 velocity=0 time=59
note_on channel=0 note=67 velocity=127 time=1
note_on channel=0 note=70 velocity=0 time=59
note_on channel=0 note=69 velocity=127 time=1
note_on channel=0 note=69 velocity=0 time=119
note_on channel=0 note=67 velocity=0 time=0
note_on channel=0 note=66 velocity=127 time=1
note_on channel=0 note=69 velocity=127 time=0
note_on channel=0 note=69 velocity=0 time=119
note_on channel=0 note=66 velocity=0 time=0
note_on channel=0 note=65 velocity=127 time=1
note_on channel=0 note=67 velocity=127 time=0
note_on channel=0 note=67 velocity=0 time=119
note_on channel=0 note=65 velocity=0 time=0
note_on channel=0 note=63 velocity=127 time=1
note_on channel=0 note=67 velocity=127 time=0
note_on channel=0 note=67 velocity=0 time=119
note_on channel=0 note=66 velocity=127 time=1
note_on channel=0 note=66 velocity=0 time=59
note_on channel=0 note=63 velocity=0 time=0
note_on channel=0 note=62 velocity=127 time=1
note_on channel=0 note=69 velocity=127 time=0
note_on channel=0 note=62 velocity=0 time=59
note_on channel=0 note=66 velocity=127 time=1
note_on channel=0 note=66 velocity=0 time=59
note_on channel=0 note=69 velocity=0 time=0
note_on channel=0 note=72 velocity=127 time=1
note_on channel=0 note=75 velocity=127 time=0
note_on channel=0 note=75 velocity=0 time=59
note_on channel=0 note=74 velocity=127 time=1
note_on channel=0 note=72 velocity=0 time=59
note_on channel=0 note=70 velocity=127 time=1
note_on channel=0 note=70 velocity=0 time=29
note_on channel=0 note=69 velocity=127 time=1
note_on channel=0 note=69 velocity=0 time=29
note_on channel=0 note=74 velocity=0 time=0
note_on channel=0 note=70 velocity=127 time=1
note_on channel=0 note=70 velocity=0 time=59
note_on channel=0 note=70 velocity=127 time=1
note_on channel=0 note=79 velocity=127 time=0
note_on channel=0 note=70 velocity=0 time=59
note_on channel=0 note=69 velocity=127 time=1
note_on channel=0 note=79 velocity=0 time=59
note_on channel=0 note=78 velocity=127 time=1
note_on channel=0 note=78 velocity=0 time=59
note_on channel=0 note=69 velocity=0 time=0
note_on channel=0 note=74 velocity=127 time=1
note_on channel=0 note=79 velocity=127 time=0
note_on channel=0 note=74 velocity=0 time=59
note_on channel=0 note=72 velocity=127 time=1
note_on channel=0 note=72 velocity=0 time=59
note_on channel=0 note=79 velocity=0 time=0
note_on channel=0 note=70 velocity=127 time=1
note_on channel=0 note=70 velocity=0 time=59
note_on channel=0 note=74 velocity=127 time=1
note_on channel=0 note=69 velocity=127 time=0
note_on channel=0 note=69 velocity=0 time=59
note_on channel=0 note=74 velocity=0 time=0
note_on channel=0 note=70 velocity=127 time=1
note_on channel=0 note=74 velocity=127 time=0
note_on channel=0 note=74 velocity=0 time=59
note_on channel=0 note=70 velocity=0 time=0
note_on channel=0 note=66 velocity=127 time=1
note_on channel=0 note=74 velocity=127 time=0
note_on channel=0 note=74 velocity=0 time=59
note_on channel=0 note=66 velocity=0 time=0
note_on channel=0 note=67 velocity=127 time=1
note_on channel=0 note=74 velocity=127 time=0
note_on channel=0 note=74 velocity=0 time=59
note_on channel=0 note=67 velocity=0 time=0
note_on channel=0 note=66 velocity=127 time=1
note_on channel=0 note=74 velocity=127 time=0
note_on channel=0 note=74 velocity=0 time=59
note_on channel=0 note=66 velocity=0 time=0
note_on channel=0 note=67 velocity=127 time=1
note_on channel=0 note=74 velocity=127 time=0
note_on channel=0 note=74 velocity=0 time=59
note_on channel=0 note=67 velocity=0 time=0
note_on channel=0 note=69 velocity=127 time=1
note_on channel=0 note=74 velocity=127 time=0
note_on channel=0 note=74 velocity=0 time=59
note_on channel=0 note=69 velocity=0 time=0
note_on channel=0 note=70 velocity=127 time=1
note_on channel=0 note=74 velocity=127 time=0
note_on channel=0 note=74 velocity=0 time=59
note_on channel=0 note=70 velocity=0 time=0
note_on channel=0 note=74 velocity=127 time=1
note_on channel=0 note=69 velocity=127 time=0
note_on channel=0 note=69 velocity=0 time=59
note_on channel=0 note=74 velocity=0 time=0
note_on channel=0 note=70 velocity=127 time=1
note_on channel=0 note=74 velocity=127 time=0
note_on channel=0 note=74 velocity=0 time=59
note_on channel=0 note=70 velocity=0 time=0
note_on channel=0 note=66 velocity=127 time=1
note_on channel=0 note=74 velocity=127 time=0
note_on channel=0 note=74 velocity=0 time=59
note_on channel=0 note=66 velocity=0 time=0
note_on channel=0 note=74 velocity=127 time=1
note_on channel=0 note=74 velocity=0 time=29
note_on channel=0 note=79 velocity=127 time=1
note_on channel=0 note=79 velocity=0 time=29
note_on channel=0 note=77 velocity=127 time=1
note_on channel=0 note=77 velocity=0 time=29
note_on channel=0 note=79 velocity=127 time=1
note_on channel=0 note=79 velocity=0 time=29
note_on channel=0 note=76 velocity=127 time=1
note_on channel=0 note=76 velocity=0 time=29
note_on channel=0 note=77 velocity=127 time=1
note_on channel=0 note=77 velocity=0 time=29
note_on channel=0 note=74 velocity=127 time=1
note_on channel=0 note=74 velocity=0 time=29
note_on channel=0 note=76 velocity=127 time=1
note_on channel=0 note=76 velocity=0 time=29
note_on channel=0 note=72 velocity=127 time=1
note_on channel=0 note=72 velocity=0 time=29
note_on channel=0 note=81 velocity=127 time=1
note_on channel=0 note=81 velocity=0 time=29
note_on channel=0 note=79 velocity=127 time=1
note_on channel=0 note=79 velocity=0 time=29
note_on channel=0 note=81 velocity=127 time=1
note_on channel=0 note=81 velocity=0 time=29
note_on channel=0 note=77 velocity=127 time=1
note_on channel=0 note=77 velocity=0 time=29
note_on channel=0 note=79 velocity=127 time=1
note_on channel=0 note=79 velocity=0 time=29
note_on channel=0 note=76 velocity=127 time=1
note_on channel=0 note=76 velocity=0 time=29
note_on channel=0 note=77 velocity=127 time=1
note_on channel=0 note=77 velocity=0 time=29
note_on channel=0 note=74 velocity=127 time=1
note_on channel=0 note=74 velocity=0 time=29
note_on channel=0 note=82 velocity=127 time=1
note_on channel=0 note=82 velocity=0 time=29
note_on channel=0 note=81 velocity=127 time=1
note_on channel=0 note=81 velocity=0 time=29
note_on channel=0 note=82 velocity=127 time=1
note_on channel=0 note=82 velocity=0 time=29
note_on channel=0 note=79 velocity=127 time=1
note_on channel=0 note=79 velocity=0 time=29
note_on channel=0 note=81 velocity=127 time=1
note_on channel=0 note=81 velocity=0 time=29
note_on channel=0 note=77 velocity=127 time=1
note_on channel=0 note=77 velocity=0 time=29
note_on channel=0 note=79 velocity=127 time=1
note_on channel=0 note=79 velocity=0 time=29
note_on channel=0 note=76 velocity=127 time=1
note_on channel=0 note=76 velocity=0 time=29
note_on channel=0 note=84 velocity=127 time=1
note_on channel=0 note=84 velocity=0 time=29
note_on channel=0 note=82 velocity=127 time=1
note_on channel=0 note=82 velocity=0 time=29
note_on channel=0 note=84 velocity=127 time=1
note_on channel=0 note=84 velocity=0 time=29
note_on channel=0 note=81 velocity=127 time=1
note_on channel=0 note=81 velocity=0 time=29
note_on channel=0 note=82 velocity=127 time=1
note_on channel=0 note=82 velocity=0 time=29
note_on channel=0 note=79 velocity=127 time=1
note_on channel=0 note=79 velocity=0 time=29
note_on channel=0 note=81 velocity=127 time=1
note_on channel=0 note=81 velocity=0 time=29
note_on channel=0 note=77 velocity=127 time=1
note_on channel=0 note=77 velocity=0 time=29
note_on channel=0 note=75 velocity=127 time=1
note_on channel=0 note=75 velocity=0 time=29
note_on channel=0 note=74 velocity=127 time=1
note_on channel=0 note=74 velocity=0 time=29
note_on channel=0 note=72 velocity=127 time=1
note_on channel=0 note=72 velocity=0 time=29
note_on channel=0 note=74 velocity=127 time=1
note_on channel=0 note=74 velocity=0 time=29
note_on channel=0 note=72 velocity=127 time=1
note_on channel=0 note=72 velocity=0 time=29
note_on channel=0 note=70 velocity=127 time=1
note_on channel=0 note=70 velocity=0 time=29
note_on channel=0 note=69 velocity=127 time=1
note_on channel=0 note=69 velocity=0 time=29
note_on channel=0 note=70 velocity=127 time=1
note_on channel=0 note=70 velocity=0 time=29
note_on channel=0 note=74 velocity=127 time=1
note_on channel=0 note=74 velocity=0 time=29
note_on channel=0 note=70 velocity=127 time=1
note_on channel=0 note=70 velocity=0 time=29
note_on channel=0 note=69 velocity=127 time=1
note_on channel=0 note=69 velocity=0 time=29
note_on channel=0 note=67 velocity=127 time=1
note_on channel=0 note=67 velocity=0 time=29
note_on channel=0 note=70 velocity=127 time=1
note_on channel=0 note=70 velocity=0 time=29
note_on channel=0 note=67 velocity=127 time=1
note_on channel=0 note=67 velocity=0 time=29
note_on channel=0 note=65 velocity=127 time=1
note_on channel=0 note=65 velocity=0 time=29
note_on channel=0 note=64 velocity=127 time=1
note_on channel=0 note=64 velocity=0 time=29
note_on channel=0 note=65 velocity=127 time=1
note_on channel=0 note=65 velocity=0 time=29
note_on channel=0 note=67 velocity=127 time=1
note_on channel=0 note=67 velocity=0 time=29
note_on channel=0 note=69 velocity=127 time=1
note_on channel=0 note=69 velocity=0 time=29
note_on channel=0 note=70 velocity=127 time=1
note_on channel=0 note=70 velocity=0 time=29
note_on channel=0 note=74 velocity=127 time=1
note_on channel=0 note=74 velocity=0 time=29
note_on channel=0 note=72 velocity=127 time=1
note_on channel=0 note=72 velocity=0 time=29
note_on channel=0 note=70 velocity=127 time=1
note_on channel=0 note=70 velocity=0 time=29
note_on channel=0 note=69 velocity=127 time=1
note_on channel=0 note=69 velocity=0 time=119
note_on channel=0 note=72 velocity=127 time=1
note_on channel=0 note=72 velocity=0 time=59
note_on channel=0 note=70 velocity=127 time=1
note_on channel=0 note=70 velocity=0 time=59
note_on channel=0 note=69 velocity=127 time=1
note_on channel=0 note=69 velocity=0 time=59
note_on channel=0 note=67 velocity=127 time=1
note_on channel=0 note=67 velocity=0 time=59
note_on channel=0 note=69 velocity=127 time=1
note_on channel=0 note=69 velocity=0 time=59
note_on channel=0 note=70 velocity=127 time=1
note_on channel=0 note=70 velocity=0 time=59
note_on channel=0 note=72 velocity=127 time=1
note_on channel=0 note=72 velocity=0 time=59
note_on channel=0 note=64 velocity=127 time=1
note_on channel=0 note=64 velocity=0 time=59
note_on channel=0 note=65 velocity=127 time=1
note_on channel=0 note=65 velocity=0 time=59
note_on channel=0 note=67 velocity=127 time=1
note_on channel=0 note=67 velocity=0 time=59
note_on channel=0 note=69 velocity=127 time=1
note_on channel=0 note=69 velocity=0 time=59
note_on channel=0 note=67 velocity=127 time=1
note_on channel=0 note=67 velocity=0 time=59
note_on channel=0 note=69 velocity=127 time=1
note_on channel=0 note=69 velocity=0 time=59
note_on channel=0 note=70 velocity=127 time=1
note_on channel=0 note=70 velocity=0 time=59
note_on channel=0 note=72 velocity=127 time=1
note_on channel=0 note=72 velocity=0 time=29
note_on channel=0 note=70 velocity=127 time=1
note_on channel=0 note=70 velocity=0 time=29
note_on channel=0 note=69 velocity=127 time=1
note_on channel=0 note=69 velocity=0 time=29
note_on channel=0 note=67 velocity=127 time=1
note_on channel=0 note=67 velocity=0 time=29
note_on channel=0 note=65 velocity=127 time=1
note_on channel=0 note=65 velocity=0 time=29
note_on channel=0 note=74 velocity=127 time=91
note_on channel=0 note=74 velocity=0 time=29
note_on channel=0 note=72 velocity=127 time=1
note_on channel=0 note=72 velocity=0 time=29
note_on channel=0 note=70 velocity=127 time=1
note_on channel=0 note=70 velocity=0 time=29
note_on channel=0 note=69 velocity=127 time=1
note_on channel=0 note=69 velocity=0 time=29
note_on channel=0 note=67 velocity=127 time=1
note_on channel=0 note=67 velocity=0 time=29
note_on channel=0 note=76 velocity=127 time=91
note_on channel=0 note=76 velocity=0 time=29
note_on channel=0 note=74 velocity=127 time=1
note_on channel=0 note=74 velocity=0 time=29
note_on channel=0 note=72 velocity=127 time=1
note_on channel=0 note=72 velocity=0 time=29
note_on channel=0 note=70 velocity=127 time=1
note_on channel=0 note=70 velocity=0 time=29
note_on channel=0 note=69 velocity=127 time=1
note_on channel=0 note=69 velocity=0 time=29
note_on channel=0 note=77 velocity=127 time=91
note_on channel=0 note=77 velocity=0 time=29
note_on channel=0 note=76 velocity=127 time=1
note_on channel=0 note=76 velocity=0 time=29
note_on channel=0 note=74 velocity=127 time=1
note_on channel=0 note=74 velocity=0 time=29
note_on channel=0 note=72 velocity=127 time=1
note_on channel=0 note=72 velocity=0 time=29
note_on channel=0 note=70 velocity=127 time=1
note_on channel=0 note=70 velocity=0 time=29
note_on channel=0 note=79 velocity=127 time=91
note_on channel=0 note=79 velocity=0 time=29
note_on channel=0 note=77 velocity=127 time=1
note_on channel=0 note=77 velocity=0 time=29
note_on channel=0 note=76 velocity=127 time=1
note_on channel=0 note=76 velocity=0 time=29
note_on channel=0 note=74 velocity=127 time=1
note_on channel=0 note=74 velocity=0 time=29
note_on channel=0 note=72 velocity=127 time=1
note_on channel=0 note=72 velocity=0 time=29
note_on channel=0 note=81 velocity=127 time=91
note_on channel=0 note=81 velocity=0 time=29
note_on channel=0 note=77 velocity=127 time=1
note_on channel=0 note=77 velocity=0 time=29
note_on channel=0 note=76 velocity=127 time=1
note_on channel=0 note=76 velocity=0 time=29
note_on channel=0 note=77 velocity=127 time=1
note_on channel=0 note=77 velocity=0 time=29
note_on channel=0 note=72 velocity=127 time=1
note_on channel=0 note=72 velocity=0 time=29
note_on channel=0 note=77 velocity=127 time=1
note_on channel=0 note=77 velocity=0 time=29
note_on channel=0 note=76 velocity=127 time=1
note_on channel=0 note=76 velocity=0 time=29
note_on channel=0 note=77 velocity=127 time=1
note_on channel=0 note=77 velocity=0 time=29
note_on channel=0 note=81 velocity=127 time=1
note_on channel=0 note=81 velocity=0 time=29
note_on channel=0 note=77 velocity=127 time=1
note_on channel=0 note=77 velocity=0 time=29
note_on channel=0 note=76 velocity=127 time=1
note_on channel=0 note=76 velocity=0 time=29
note_on channel=0 note=77 velocity=127 time=1
note_on channel=0 note=77 velocity=0 time=29
note_on channel=0 note=72 velocity=127 time=1
note_on channel=0 note=72 velocity=0 time=29
note_on channel=0 note=77 velocity=127 time=1
note_on channel=0 note=77 velocity=0 time=29
note_on channel=0 note=76 velocity=127 time=1
note_on channel=0 note=76 velocity=0 time=29
note_on channel=0 note=77 velocity=127 time=1
note_on channel=0 note=77 velocity=0 time=29
note_on channel=0 note=79 velocity=127 time=1
note_on channel=0 note=79 velocity=0 time=29
note_on channel=0 note=76 velocity=127 time=1
note_on channel=0 note=76 velocity=0 time=29
note_on channel=0 note=74 velocity=127 time=1
note_on channel=0 note=74 velocity=0 time=29
note_on channel=0 note=76 velocity=127 time=1
note_on channel=0 note=76 velocity=0 time=29
note_on channel=0 note=72 velocity=127 time=1
note_on channel=0 note=72 velocity=0 time=29
note_on channel=0 note=76 velocity=127 time=1
note_on channel=0 note=76 velocity=0 time=29
note_on channel=0 note=74 velocity=127 time=1
note_on channel=0 note=74 velocity=0 time=29
note_on channel=0 note=76 velocity=127 time=1
note_on channel=0 note=76 velocity=0 time=29
note_on channel=0 note=79 velocity=127 time=1
note_on channel=0 note=79 velocity=0 time=29
note_on channel=0 note=76 velocity=127 time=1
note_on channel=0 note=76 velocity=0 time=29
note_on channel=0 note=74 velocity=127 time=1
note_on channel=0 note=74 velocity=0 time=29
note_on channel=0 note=76 velocity=127 time=1
note_on channel=0 note=76 velocity=0 time=29
note_on channel=0 note=72 velocity=127 time=1
note_on channel=0 note=72 velocity=0 time=29
note_on channel=0 note=76 velocity=127 time=1
note_on channel=0 note=76 velocity=0 time=29
note_on channel=0 note=74 velocity=127 time=1
note_on channel=0 note=74 velocity=0 time=29
note_on channel=0 note=76 velocity=127 time=1
note_on channel=0 note=76 velocity=0 time=29
note_on channel=0 note=81 velocity=127 time=1
note_on channel=0 note=81 velocity=0 time=29
note_on channel=0 note=77 velocity=127 time=1
note_on channel=0 note=77 velocity=0 time=29
note_on channel=0 note=76 velocity=127 time=1
note_on channel=0 note=76 velocity=0 time=29
note_on channel=0 note=77 velocity=127 time=1
note_on channel=0 note=77 velocity=0 time=29
note_on channel=0 note=72 velocity=127 time=1
note_on channel=0 note=72 velocity=0 time=29
note_on channel=0 note=77 velocity=127 time=1
note_on channel=0 note=77 velocity=0 time=29
note_on channel=0 note=76 velocity=127 time=1
note_on channel=0 note=76 velocity=0 time=29
note_on channel=0 note=77 velocity=127 time=1
note_on channel=0 note=77 velocity=0 time=29
note_on channel=0 note=81 velocity=127 time=1
note_on channel=0 note=81 velocity=0 time=29
note_on channel=0 note=77 velocity=127 time=1
note_on channel=0 note=77 velocity=0 time=29
note_on channel=0 note=76 velocity=127 time=1
note_on channel=0 note=76 velocity=0 time=29
note_on channel=0 note=77 velocity=127 time=1
note_on channel=0 note=77 velocity=0 time=29
note_on channel=0 note=72 velocity=127 time=1
note_on channel=0 note=72 velocity=0 time=29
note_on channel=0 note=77 velocity=127 time=1
note_on channel=0 note=77 velocity=0 time=29
note_on channel=0 note=76 velocity=127 time=1
note_on channel=0 note=76 velocity=0 time=29
note_on channel=0 note=77 velocity=127 time=1
note_on channel=0 note=77 velocity=0 time=29
note_on channel=0 note=79 velocity=127 time=1
note_on channel=0 note=79 velocity=0 time=29
note_on channel=0 note=76 velocity=127 time=1
note_on channel=0 note=76 velocity=0 time=29
note_on channel=0 note=74 velocity=127 time=1
note_on channel=0 note=74 velocity=0 time=29
note_on channel=0 note=76 velocity=127 time=1
note_on channel=0 note=76 velocity=0 time=29
note_on channel=0 note=72 velocity=127 time=1
note_on channel=0 note=72 velocity=0 time=29
note_on channel=0 note=76 velocity=127 time=1
note_on channel=0 note=76 velocity=0 time=29
note_on channel=0 note=74 velocity=127 time=1
note_on channel=0 note=74 velocity=0 time=29
note_on channel=0 note=76 velocity=127 time=1
note_on channel=0 note=76 velocity=0 time=29
note_on channel=0 note=79 velocity=127 time=1
note_on channel=0 note=79 velocity=0 time=29
note_on channel=0 note=76 velocity=127 time=1
note_on channel=0 note=76 velocity=0 time=29
note_on channel=0 note=74 velocity=127 time=1
note_on channel=0 note=74 velocity=0 time=29
note_on channel=0 note=76 velocity=127 time=1
note_on channel=0 note=76 velocity=0 time=29
note_on channel=0 note=72 velocity=127 time=1
note_on channel=0 note=72 velocity=0 time=29
note_on channel=0 note=76 velocity=127 time=1
note_on channel=0 note=76 velocity=0 time=29
note_on channel=0 note=74 velocity=127 time=1
note_on channel=0 note=74 velocity=0 time=29
note_on channel=0 note=76 velocity=127 time=1
note_on channel=0 note=76 velocity=0 time=29
note_on channel=0 note=77 velocity=127 time=1
note_on channel=0 note=77 velocity=0 time=29
note_on channel=0 note=79 velocity=127 time=1
note_on channel=0 note=79 velocity=0 time=29
note_on channel=0 note=77 velocity=127 time=1
note_on channel=0 note=77 velocity=0 time=29
note_on channel=0 note=76 velocity=127 time=1
note_on channel=0 note=76 velocity=0 time=29
note_on channel=0 note=74 velocity=127 time=1
note_on channel=0 note=74 velocity=0 time=29
note_on channel=0 note=77 velocity=127 time=211
note_on channel=0 note=77 velocity=0 time=29
note_on channel=0 note=81 velocity=127 time=1
note_on channel=0 note=81 velocity=0 time=29
note_on channel=0 note=77 velocity=127 time=1
note_on channel=0 note=77 velocity=0 time=29
note_on channel=0 note=74 velocity=127 time=1
note_on channel=0 note=74 velocity=0 time=29
note_on channel=0 note=77 velocity=127 time=121
note_on channel=0 note=77 velocity=0 time=29
note_on channel=0 note=81 velocity=127 time=1
note_on channel=0 note=81 velocity=0 time=29
note_on channel=0 note=77 velocity=127 time=1
note_on channel=0 note=77 velocity=0 time=29
note_on channel=0 note=74 velocity=127 time=1
note_on channel=0 note=74 velocity=0 time=29
note_on channel=0 note=76 velocity=127 time=121
note_on channel=0 note=76 velocity=0 time=29
note_on channel=0 note=79 velocity=127 time=1
note_on channel=0 note=79 velocity=0 time=29
note_on channel=0 note=76 velocity=127 time=1
note_on channel=0 note=76 velocity=0 time=29
note_on channel=0 note=72 velocity=127 time=1
note_on channel=0 note=72 velocity=0 time=29
note_on channel=0 note=76 velocity=127 time=121
note_on channel=0 note=76 velocity=0 time=29
note_on channel=0 note=79 velocity=127 time=1
note_on channel=0 note=79 velocity=0 time=29
note_on channel=0 note=76 velocity=127 time=1
note_on channel=0 note=76 velocity=0 time=29
note_on channel=0 note=72 velocity=127 time=1
note_on channel=0 note=72 velocity=0 time=29
note_on channel=0 note=74 velocity=127 time=121
note_on channel=0 note=74 velocity=0 time=29
note_on channel=0 note=77 velocity=127 time=1
note_on channel=0 note=77 velocity=0 time=29
note_on channel=0 note=74 velocity=127 time=1
note_on channel=0 note=74 velocity=0 time=29
note_on channel=0 note=70 velocity=127 time=1
note_on channel=0 note=70 velocity=0 time=29
note_on channel=0 note=74 velocity=127 time=121
note_on channel=0 note=74 velocity=0 time=29
note_on channel=0 note=77 velocity=127 time=1
note_on channel=0 note=77 velocity=0 time=29
note_on channel=0 note=74 velocity=127 time=1
note_on channel=0 note=74 velocity=0 time=29
note_on channel=0 note=70 velocity=127 time=1
note_on channel=0 note=70 velocity=0 time=29
note_on channel=0 note=73 velocity=127 time=121
note_on channel=0 note=73 velocity=0 time=29
note_on channel=0 note=76 velocity=127 time=1
note_on channel=0 note=76 velocity=0 time=29
note_on channel=0 note=73 velocity=127 time=1
note_on channel=0 note=73 velocity=0 time=29
note_on channel=0 note=70 velocity=127 time=1
note_on channel=0 note=70 velocity=0 time=29
note_on channel=0 note=73 velocity=127 time=121
note_on channel=0 note=73 velocity=0 time=29
note_on channel=0 note=76 velocity=127 time=1
note_on channel=0 note=76 velocity=0 time=29
note_on channel=0 note=73 velocity=127 time=1
note_on channel=0 note=73 velocity=0 time=29
note_on channel=0 note=70 velocity=127 time=1
note_on channel=0 note=70 velocity=0 time=29
note_on channel=0 note=81 velocity=127 time=31
note_on channel=0 note=81 velocity=0 time=29
note_on channel=0 note=79 velocity=127 time=1
note_on channel=0 note=79 velocity=0 time=29
note_on channel=0 note=81 velocity=127 time=1
note_on channel=0 note=81 velocity=0 time=29
note_on channel=0 note=77 velocity=127 time=1
note_on channel=0 note=77 velocity=0 time=29
note_on channel=0 note=81 velocity=127 time=1
note_on channel=0 note=81 velocity=0 time=29
note_on channel=0 note=76 velocity=127 time=1
note_on channel=0 note=76 velocity=0 time=29
note_on channel=0 note=81 velocity=127 time=1
note_on channel=0 note=81 velocity=0 time=29
note_on channel=0 note=74 velocity=127 time=1
note_on channel=0 note=74 velocity=0 time=29
note_on channel=0 note=81 velocity=127 time=1
note_on channel=0 note=81 velocity=0 time=29
note_on channel=0 note=73 velocity=127 time=1
note_on channel=0 note=73 velocity=0 time=29
note_on channel=0 note=81 velocity=127 time=1
note_on channel=0 note=81 velocity=0 time=29
note_on channel=0 note=74 velocity=127 time=1
note_on channel=0 note=74 velocity=0 time=29
note_on channel=0 note=81 velocity=127 time=1
note_on channel=0 note=81 velocity=0 time=29
note_on channel=0 note=76 velocity=127 time=1
note_on channel=0 note=76 velocity=0 time=29
note_on channel=0 note=81 velocity=127 time=1
note_on channel=0 note=81 velocity=0 time=29
note_on channel=0 note=77 velocity=127 time=1
note_on channel=0 note=77 velocity=0 time=29
note_on channel=0 note=81 velocity=127 time=1
note_on channel=0 note=81 velocity=0 time=29
note_on channel=0 note=69 velocity=127 time=1
note_on channel=0 note=69 velocity=0 time=29
note_on channel=0 note=81 velocity=127 time=1
note_on channel=0 note=81 velocity=0 time=29
note_on channel=0 note=71 velocity=127 time=1
note_on channel=0 note=71 velocity=0 time=29
note_on channel=0 note=81 velocity=127 time=1
note_on channel=0 note=81 velocity=0 time=29
note_on channel=0 note=73 velocity=127 time=1
note_on channel=0 note=73 velocity=0 time=29
note_on channel=0 note=81 velocity=127 time=1
note_on channel=0 note=81 velocity=0 time=29
note_on channel=0 note=74 velocity=127 time=1
note_on channel=0 note=74 velocity=0 time=29
note_on channel=0 note=81 velocity=127 time=1
note_on channel=0 note=81 velocity=0 time=29
note_on channel=0 note=73 velocity=127 time=1
note_on channel=0 note=73 velocity=0 time=29
note_on channel=0 note=81 velocity=127 time=1
note_on channel=0 note=81 velocity=0 time=29
note_on channel=0 note=74 velocity=127 time=1
note_on channel=0 note=74 velocity=0 time=59
note_on channel=0 note=76 velocity=127 time=1
note_on channel=0 note=76 velocity=0 time=59
note_on channel=0 note=74 velocity=127 time=1
note_on channel=0 note=74 velocity=0 time=59
note_on channel=0 note=69 velocity=127 time=1
note_on channel=0 note=72 velocity=127 time=0
note_on channel=0 note=72 velocity=0 time=59
note_on channel=0 note=69 velocity=0 time=0
note_on channel=0 note=67 velocity=127 time=1
note_on channel=0 note=70 velocity=127 time=0
note_on channel=0 note=70 velocity=0 time=59
note_on channel=0 note=67 velocity=0 time=0
note_on channel=0 note=66 velocity=127 time=1
note_on channel=0 note=69 velocity=127 time=0
note_on channel=0 note=69 velocity=0 time=59
note_on channel=0 note=66 velocity=0 time=0
note_on channel=0 note=67 velocity=127 time=1
note_on channel=0 note=70 velocity=127 time=0
note_on channel=0 note=70 velocity=0 time=29
note_on channel=0 note=69 velocity=127 time=1
note_on channel=0 note=69 velocity=0 time=29
note_on channel=0 note=67 velocity=0 time=0
note_on channel=0 note=67 velocity=127 time=1
note_on channel=0 note=67 velocity=0 time=29
note_on channel=0 note=65 velocity=127 time=1
note_on channel=0 note=65 velocity=0 time=29
note_on channel=0 note=64 velocity=127 time=1
note_on channel=0 note=64 velocity=0 time=29
note_on channel=0 note=62 velocity=127 time=1
note_on channel=0 note=62 velocity=0 time=29
note_on channel=0 note=61 velocity=127 time=1
note_on channel=0 note=61 velocity=0 time=29
note_on channel=0 note=59 velocity=127 time=1
note_on channel=0 note=59 velocity=0 time=29
note_on channel=0 note=57 velocity=127 time=1
note_on channel=0 note=57 velocity=0 time=29
note_on channel=0 note=55 velocity=127 time=91
note_on channel=0 note=55 velocity=0 time=29
note_on channel=0 note=58 velocity=127 time=1
note_on channel=0 note=58 velocity=0 time=29
note_on channel=0 note=55 velocity=127 time=1
note_on channel=0 note=55 velocity=0 time=29
note_on channel=0 note=52 velocity=127 time=1
note_on channel=0 note=52 velocity=0 time=29
note_on channel=0 note=55 velocity=127 time=121
note_on channel=0 note=55 velocity=0 time=29
note_on channel=0 note=58 velocity=127 time=1
note_on channel=0 note=58 velocity=0 time=29
note_on channel=0 note=55 velocity=127 time=1
note_on channel=0 note=55 velocity=0 time=29
note_on channel=0 note=52 velocity=127 time=1
note_on channel=0 note=52 velocity=0 time=29
note_on channel=0 note=57 velocity=127 time=121
note_on channel=0 note=57 velocity=0 time=29
note_on channel=0 note=62 velocity=127 time=1
note_on channel=0 note=62 velocity=0 time=29
note_on channel=0 note=57 velocity=127 time=1
note_on channel=0 note=57 velocity=0 time=29
note_on channel=0 note=53 velocity=127 time=1
note_on channel=0 note=53 velocity=0 time=29
note_on channel=0 note=57 velocity=127 time=121
note_on channel=0 note=57 velocity=0 time=29
note_on channel=0 note=62 velocity=127 time=1
note_on channel=0 note=62 velocity=0 time=29
note_on channel=0 note=57 velocity=127 time=1
note_on channel=0 note=57 velocity=0 time=29
note_on channel=0 note=53 velocity=127 time=1
note_on channel=0 note=53 velocity=0 time=29
note_on channel=0 note=55 velocity=127 time=121
note_on channel=0 note=55 velocity=0 time=29
note_on channel=0 note=58 velocity=127 time=1
note_on channel=0 note=58 velocity=0 time=29
note_on channel=0 note=55 velocity=127 time=1
note_on channel=0 note=55 velocity=0 time=29
note_on channel=0 note=52 velocity=127 time=1
note_on channel=0 note=52 velocity=0 time=29
note_on channel=0 note=55 velocity=127 time=121
note_on channel=0 note=55 velocity=0 time=29
note_on channel=0 note=58 velocity=127 time=1
note_on channel=0 note=58 velocity=0 time=29
note_on channel=0 note=55 velocity=127 time=1
note_on channel=0 note=55 velocity=0 time=29
note_on channel=0 note=52 velocity=127 time=1
note_on channel=0 note=52 velocity=0 time=29
note_on channel=0 note=57 velocity=127 time=121
note_on channel=0 note=57 velocity=0 time=29
note_on channel=0 note=62 velocity=127 time=1
note_on channel=0 note=62 velocity=0 time=29
note_on channel=0 note=57 velocity=127 time=1
note_on channel=0 note=57 velocity=0 time=29
note_on channel=0 note=53 velocity=127 time=1
note_on channel=0 note=53 velocity=0 time=29
note_on channel=0 note=57 velocity=127 time=121
note_on channel=0 note=57 velocity=0 time=29
note_on channel=0 note=62 velocity=127 time=1
note_on channel=0 note=62 velocity=0 time=29
note_on channel=0 note=57 velocity=127 time=1
note_on channel=0 note=57 velocity=0 time=29
note_on channel=0 note=53 velocity=127 time=1
note_on channel=0 note=53 velocity=0 time=29
note_on channel=0 note=58 velocity=127 time=121
note_on channel=0 note=58 velocity=0 time=29
note_on channel=0 note=61 velocity=127 time=1
note_on channel=0 note=61 velocity=0 time=29
note_on channel=0 note=58 velocity=127 time=1
note_on channel=0 note=58 velocity=0 time=29
note_on channel=0 note=55 velocity=127 time=1
note_on channel=0 note=55 velocity=0 time=29
note_on channel=0 note=58 velocity=127 time=121
note_on channel=0 note=58 velocity=0 time=29
note_on channel=0 note=61 velocity=127 time=1
note_on channel=0 note=61 velocity=0 time=29
note_on channel=0 note=58 velocity=127 time=1
note_on channel=0 note=58 velocity=0 time=29
note_on channel=0 note=55 velocity=127 time=1
note_on channel=0 note=55 velocity=0 time=29
note_on channel=0 note=62 velocity=127 time=121
note_on channel=0 note=62 velocity=0 time=29
note_on channel=0 note=65 velocity=127 time=1
note_on channel=0 note=65 velocity=0 time=29
note_on channel=0 note=62 velocity=127 time=1
note_on channel=0 note=62 velocity=0 time=29
note_on channel=0 note=57 velocity=127 time=1
note_on channel=0 note=57 velocity=0 time=29
note_on channel=0 note=62 velocity=127 time=121
note_on channel=0 note=62 velocity=0 time=29
note_on channel=0 note=65 velocity=127 time=1
note_on channel=0 note=65 velocity=0 time=29
note_on channel=0 note=62 velocity=127 time=1
note_on channel=0 note=62 velocity=0 time=29
note_on channel=0 note=57 velocity=127 time=1
note_on channel=0 note=57 velocity=0 time=29
note_on channel=0 note=58 velocity=127 time=121
note_on channel=0 note=58 velocity=0 time=29
note_on channel=0 note=61 velocity=127 time=1
note_on channel=0 note=61 velocity=0 time=29
note_on channel=0 note=58 velocity=127 time=1
note_on channel=0 note=58 velocity=0 time=29
note_on channel=0 note=55 velocity=127 time=1
note_on channel=0 note=55 velocity=0 time=29
note_on channel=0 note=58 velocity=127 time=121
note_on channel=0 note=58 velocity=0 time=29
note_on channel=0 note=61 velocity=127 time=1
note_on channel=0 note=61 velocity=0 time=29
note_on channel=0 note=58 velocity=127 time=1
note_on channel=0 note=58 velocity=0 time=29
note_on channel=0 note=55 velocity=127 time=1
note_on channel=0 note=55 velocity=0 time=29
note_on channel=0 note=62 velocity=127 time=121
note_on channel=0 note=62 velocity=0 time=29
note_on channel=0 note=65 velocity=127 time=1
note_on channel=0 note=65 velocity=0 time=29
note_on channel=0 note=62 velocity=127 time=1
note_on channel=0 note=62 velocity=0 time=29
note_on channel=0 note=57 velocity=127 time=1
note_on channel=0 note=57 velocity=0 time=29
note_on channel=0 note=62 velocity=127 time=121
note_on channel=0 note=62 velocity=0 time=29
note_on channel=0 note=65 velocity=127 time=1
note_on channel=0 note=65 velocity=0 time=29
note_on channel=0 note=62 velocity=127 time=1
note_on channel=0 note=62 velocity=0 time=29
note_on channel=0 note=57 velocity=127 time=1
note_on channel=0 note=57 velocity=0 time=29
note_on channel=0 note=61 velocity=127 time=121
note_on channel=0 note=61 velocity=0 time=29
note_on channel=0 note=64 velocity=127 time=1
note_on channel=0 note=64 velocity=0 time=29
note_on channel=0 note=61 velocity=127 time=1
note_on channel=0 note=61 velocity=0 time=29
note_on channel=0 note=58 velocity=127 time=1
note_on channel=0 note=58 velocity=0 time=29
note_on channel=0 note=61 velocity=127 time=121
note_on channel=0 note=61 velocity=0 time=29
note_on channel=0 note=64 velocity=127 time=1
note_on channel=0 note=64 velocity=0 time=29
note_on channel=0 note=61 velocity=127 time=1
note_on channel=0 note=61 velocity=0 time=29
note_on channel=0 note=58 velocity=127 time=1
note_on channel=0 note=58 velocity=0 time=29
note_on channel=0 note=62 velocity=127 time=121
note_on channel=0 note=62 velocity=0 time=29
note_on channel=0 note=65 velocity=127 time=1
note_on channel=0 note=65 velocity=0 time=29
note_on channel=0 note=62 velocity=127 time=1
note_on channel=0 note=62 velocity=0 time=29
note_on channel=0 note=62 velocity=127 time=61
note_on channel=0 note=62 velocity=0 time=29
note_on channel=0 note=58 velocity=127 time=1
note_on channel=0 note=58 velocity=0 time=29
note_on channel=0 note=57 velocity=127 time=61
note_on channel=0 note=57 velocity=0 time=29
note_on channel=0 note=53 velocity=127 time=1
note_on channel=0 note=53 velocity=0 time=29
note_on channel=0 note=50 velocity=127 time=61
note_on channel=0 note=50 velocity=0 time=29
note_on channel=0 note=45 velocity=127 time=1
note_on channel=0 note=45 velocity=0 time=29
note_on channel=0 note=50 velocity=127 time=61
note_on channel=0 note=50 velocity=0 time=29
note_on channel=0 note=49 velocity=127 time=1
note_on channel=0 note=49 velocity=0 time=29
note_on channel=0 note=47 velocity=127 time=1
note_on channel=0 note=47 velocity=0 time=29
note_on channel=0 note=58 velocity=127 time=31
note_on channel=0 note=58 velocity=0 time=29
note_on channel=0 note=57 velocity=127 time=1
note_on channel=0 note=57 velocity=0 time=29
note_on channel=0 note=55 velocity=127 time=1
note_on channel=0 note=55 velocity=0 time=29
note_on channel=0 note=55 velocity=127 time=31
note_on channel=0 note=55 velocity=0 time=29
note_on channel=0 note=53 velocity=127 time=1
note_on channel=0 note=53 velocity=0 time=29
note_on channel=0 note=52 velocity=127 time=1
note_on channel=0 note=52 velocity=0 time=29
note_on channel=0 note=58 velocity=127 time=31
note_on channel=0 note=58 velocity=0 time=29
note_on channel=0 note=57 velocity=127 time=1
note_on channel=0 note=57 velocity=0 time=29
note_on channel=0 note=55 velocity=127 time=1
note_on channel=0 note=55 velocity=0 time=29
note_on channel=0 note=55 velocity=127 time=31
note_on channel=0 note=55 velocity=0 time=29
note_on channel=0 note=53 velocity=127 time=1
note_on channel=0 note=53 velocity=0 time=29
note_on channel=0 note=52 velocity=127 time=1
note_on channel=0 note=52 velocity=0 time=29
note_on channel=0 note=65 velocity=127 time=151
note_on channel=0 note=65 velocity=0 time=29
note_on channel=0 note=64 velocity=127 time=1
note_on channel=0 note=64 velocity=0 time=29
note_on channel=0 note=62 velocity=127 time=1
note_on channel=0 note=62 velocity=0 time=29
note_on channel=0 note=69 velocity=127 time=1
note_on channel=0 note=69 velocity=0 time=29
note_on channel=0 note=76 velocity=127 time=121
note_on channel=0 note=76 velocity=0 time=29
note_on channel=0 note=74 velocity=127 time=1
note_on channel=0 note=74 velocity=0 time=29
note_on channel=0 note=73 velocity=127 time=1
note_on channel=0 note=73 velocity=0 time=29
note_on channel=0 note=74 velocity=127 time=1
note_on channel=0 note=74 velocity=0 time=29
note_on channel=0 note=75 velocity=127 time=1
note_on channel=0 note=75 velocity=0 time=14
note_on channel=0 note=74 velocity=127 time=1
note_on channel=0 note=74 velocity=0 time=14
note_on channel=0 note=72 velocity=127 time=1
note_on channel=0 note=72 velocity=0 time=14
note_on channel=0 note=70 velocity=127 time=1
note_on channel=0 note=70 velocity=0 time=14
note_on channel=0 note=69 velocity=127 time=1
note_on channel=0 note=69 velocity=0 time=14
note_on channel=0 note=67 velocity=127 time=1
note_on channel=0 note=67 velocity=0 time=14
note_on channel=0 note=66 velocity=127 time=1
note_on channel=0 note=66 velocity=0 time=59
note_on channel=0 note=69 velocity=127 time=1
note_on channel=0 note=69 velocity=0 time=119
note_on channel=0 note=67 velocity=127 time=1
note_on channel=0 note=67 velocity=0 time=59
note_on channel=0 note=72 velocity=127 time=1
note_on channel=0 note=72 velocity=0 time=59
note_on channel=0 note=71 velocity=127 time=1
note_on channel=0 note=71 velocity=0 time=59
note_on channel=0 note=75 velocity=127 time=1
note_on channel=0 note=75 velocity=0 time=59
note_on channel=0 note=74 velocity=127 time=1
note_on channel=0 note=74 velocity=0 time=59
note_on channel=0 note=75 velocity=127 time=1
note_on channel=0 note=75 velocity=0 time=59
note_on channel=0 note=71 velocity=127 time=1
note_on channel=0 note=71 velocity=0 time=59
note_on channel=0 note=72 velocity=127 time=1
note_on channel=0 note=72 velocity=0 time=59
note_on channel=0 note=71 velocity=127 time=1
note_on channel=0 note=71 velocity=0 time=59
note_on channel=0 note=72 velocity=127 time=1
note_on channel=0 note=72 velocity=0 time=59
note_on channel=0 note=74 velocity=127 time=1
note_on channel=0 note=74 velocity=0 time=59
note_on channel=0 note=75 velocity=127 time=1
note_on channel=0 note=75 velocity=0 time=59
note_on channel=0 note=74 velocity=127 time=1
note_on channel=0 note=74 velocity=0 time=59
note_on channel=0 note=75 velocity=127 time=1
note_on channel=0 note=75 velocity=0 time=59
note_on channel=0 note=77 velocity=127 time=1
note_on channel=0 note=77 velocity=0 time=59
note_on channel=0 note=79 velocity=127 time=1
note_on channel=0 note=79 velocity=0 time=14
note_on channel=0 note=81 velocity=127 time=1
note_on channel=0 note=81 velocity=0 time=14
note_on channel=0 note=79 velocity=127 time=1
note_on channel=0 note=79 velocity=0 time=14
note_on channel=0 note=81 velocity=127 time=1
note_on channel=0 note=81 velocity=0 time=14
note_on channel=0 note=79 velocity=127 time=1
note_on channel=0 note=79 velocity=0 time=14
note_on channel=0 note=81 velocity=127 time=1
note_on channel=0 note=81 velocity=0 time=14
note_on channel=0 note=79 velocity=127 time=1
note_on channel=0 note=79 velocity=0 time=14
note_on channel=0 note=81 velocity=127 time=1
note_on channel=0 note=81 velocity=0 time=14
note_on channel=0 note=79 velocity=127 time=1
note_on channel=0 note=79 velocity=0 time=14
note_on channel=0 note=81 velocity=127 time=1
note_on channel=0 note=81 velocity=0 time=14
note_on channel=0 note=79 velocity=127 time=1
note_on channel=0 note=79 velocity=0 time=14
note_on channel=0 note=81 velocity=127 time=1
note_on channel=0 note=81 velocity=0 time=14
note_on channel=0 note=79 velocity=127 time=1
note_on channel=0 note=79 velocity=0 time=14
note_on channel=0 note=81 velocity=127 time=1
note_on channel=0 note=81 velocity=0 time=14
note_on channel=0 note=79 velocity=127 time=1
note_on channel=0 note=79 velocity=0 time=14
note_on channel=0 note=81 velocity=127 time=1
note_on channel=0 note=81 velocity=0 time=14
note_on channel=0 note=79 velocity=127 time=1
note_on channel=0 note=79 velocity=0 time=14
note_on channel=0 note=81 velocity=127 time=1
note_on channel=0 note=81 velocity=0 time=14
note_on channel=0 note=79 velocity=127 time=1
note_on channel=0 note=79 velocity=0 time=14
note_on channel=0 note=81 velocity=127 time=1
note_on channel=0 note=81 velocity=0 time=14
note_on channel=0 note=79 velocity=127 time=1
note_on channel=0 note=79 velocity=0 time=14
note_on channel=0 note=81 velocity=127 time=1
note_on channel=0 note=81 velocity=0 time=14
note_on channel=0 note=79 velocity=127 time=1
note_on channel=0 note=79 velocity=0 time=14
note_on channel=0 note=81 velocity=127 time=1
note_on channel=0 note=81 velocity=0 time=14
note_on channel=0 note=79 velocity=127 time=1
note_on channel=0 note=79 velocity=0 time=14
note_on channel=0 note=81 velocity=127 time=1
note_on channel=0 note=81 velocity=0 time=14
note_on channel=0 note=79 velocity=127 time=1
note_on channel=0 note=79 velocity=0 time=14
note_on channel=0 note=81 velocity=127 time=1
note_on channel=0 note=81 velocity=0 time=14
note_on channel=0 note=79 velocity=127 time=1
note_on channel=0 note=79 velocity=0 time=14
note_on channel=0 note=81 velocity=127 time=1
note_on channel=0 note=81 velocity=0 time=14
note_on channel=0 note=79 velocity=127 time=1
note_on channel=0 note=79 velocity=0 time=14
note_on channel=0 note=81 velocity=127 time=1
note_on channel=0 note=81 velocity=0 time=14
note_on channel=0 note=79 velocity=127 time=1
note_on channel=0 note=79 velocity=0 time=14
note_on channel=0 note=81 velocity=127 time=1
note_on channel=0 note=81 velocity=0 time=14
note_on channel=0 note=79 velocity=127 time=1
note_on channel=0 note=79 velocity=0 time=14
note_on channel=0 note=81 velocity=127 time=1
note_on channel=0 note=81 velocity=0 time=14
note_on channel=0 note=79 velocity=127 time=1
note_on channel=0 note=79 velocity=0 time=14
note_on channel=0 note=81 velocity=127 time=1
note_on channel=0 note=81 velocity=0 time=14
note_on channel=0 note=79 velocity=127 time=1
note_on channel=0 note=79 velocity=0 time=14
note_on channel=0 note=81 velocity=127 time=1
note_on channel=0 note=81 velocity=0 time=14
note_on channel=0 note=79 velocity=127 time=1
note_on channel=0 note=79 velocity=0 time=14
note_on channel=0 note=81 velocity=127 time=1
note_on channel=0 note=81 velocity=0 time=14
note_on channel=0 note=79 velocity=127 time=1
note_on channel=0 note=79 velocity=0 time=14
note_on channel=0 note=81 velocity=127 time=1
note_on channel=0 note=81 velocity=0 time=14
note_on channel=0 note=79 velocity=127 time=1
note_on channel=0 note=79 velocity=0 time=14
note_on channel=0 note=81 velocity=127 time=1
note_on channel=0 note=81 velocity=0 time=14
note_on channel=0 note=79 velocity=127 time=1
note_on channel=0 note=79 velocity=0 time=14
note_on channel=0 note=81 velocity=127 time=1
note_on channel=0 note=81 velocity=0 time=14
note_on channel=0 note=79 velocity=127 time=1
note_on channel=0 note=79 velocity=0 time=14
note_on channel=0 note=81 velocity=127 time=1
note_on channel=0 note=81 velocity=0 time=14
note_on channel=0 note=79 velocity=127 time=1
note_on channel=0 note=79 velocity=0 time=14
note_on channel=0 note=81 velocity=127 time=1
note_on channel=0 note=81 velocity=0 time=14
note_on channel=0 note=79 velocity=127 time=1
note_on channel=0 note=79 velocity=0 time=14
note_on channel=0 note=81 velocity=127 time=1
note_on channel=0 note=81 velocity=0 time=14
note_on channel=0 note=79 velocity=127 time=1
note_on channel=0 note=79 velocity=0 time=14
note_on channel=0 note=81 velocity=127 time=1
note_on channel=0 note=81 velocity=0 time=14
note_on channel=0 note=79 velocity=127 time=1
note_on channel=0 note=79 velocity=0 time=14
note_on channel=0 note=81 velocity=127 time=1
note_on channel=0 note=81 velocity=0 time=14
note_on channel=0 note=79 velocity=127 time=1
note_on channel=0 note=79 velocity=0 time=14
note_on channel=0 note=81 velocity=127 time=1
note_on channel=0 note=81 velocity=0 time=14
note_on channel=0 note=79 velocity=127 time=1
note_on channel=0 note=79 velocity=0 time=14
note_on channel=0 note=81 velocity=127 time=1
note_on channel=0 note=81 velocity=0 time=14
note_on channel=0 note=79 velocity=127 time=1
note_on channel=0 note=79 velocity=0 time=14
note_on channel=0 note=81 velocity=127 time=1
note_on channel=0 note=81 velocity=0 time=14
note_on channel=0 note=79 velocity=127 time=1
note_on channel=0 note=79 velocity=0 time=29
note_on channel=0 note=79 velocity=127 time=1
note_on channel=0 note=79 velocity=0 time=29
note_on channel=0 note=77 velocity=127 time=1
note_on channel=0 note=77 velocity=0 time=29
note_on channel=0 note=79 velocity=127 time=1
note_on channel=0 note=79 velocity=0 time=29
note_on channel=0 note=75 velocity=127 time=1
note_on channel=0 note=75 velocity=0 time=29
note_on channel=0 note=77 velocity=127 time=1
note_on channel=0 note=77 velocity=0 time=29
note_on channel=0 note=74 velocity=127 time=1
note_on channel=0 note=74 velocity=0 time=29
note_on channel=0 note=75 velocity=127 time=1
note_on channel=0 note=75 velocity=0 time=29
note_on channel=0 note=72 velocity=127 time=1
note_on channel=0 note=72 velocity=0 time=29
note_on channel=0 note=77 velocity=127 time=1
note_on channel=0 note=77 velocity=0 time=29
note_on channel=0 note=75 velocity=127 time=1
note_on channel=0 note=75 velocity=0 time=29
note_on channel=0 note=77 velocity=127 time=1
note_on channel=0 note=77 velocity=0 time=29
note_on channel=0 note=74 velocity=127 time=1
note_on channel=0 note=74 velocity=0 time=29
note_on channel=0 note=75 velocity=127 time=1
note_on channel=0 note=75 velocity=0 time=29
note_on channel=0 note=72 velocity=127 time=1
note_on channel=0 note=72 velocity=0 time=29
note_on channel=0 note=74 velocity=127 time=1
note_on channel=0 note=74 velocity=0 time=29
note_on channel=0 note=70 velocity=127 time=1
note_on channel=0 note=70 velocity=0 time=29
note_on channel=0 note=75 velocity=127 time=1
note_on channel=0 note=75 velocity=0 time=29
note_on channel=0 note=74 velocity=127 time=1
note_on channel=0 note=74 velocity=0 time=29
note_on channel=0 note=75 velocity=127 time=1
note_on channel=0 note=75 velocity=0 time=29
note_on channel=0 note=72 velocity=127 time=1
note_on channel=0 note=72 velocity=0 time=29
note_on channel=0 note=74 velocity=127 time=1
note_on channel=0 note=74 velocity=0 time=29
note_on channel=0 note=70 velocity=127 time=1
note_on channel=0 note=70 velocity=0 time=29
note_on channel=0 note=72 velocity=127 time=1
note_on channel=0 note=72 velocity=0 time=29
note_on channel=0 note=69 velocity=127 time=1
note_on channel=0 note=69 velocity=0 time=29
note_on channel=0 note=74 velocity=127 time=1
note_on channel=0 note=74 velocity=0 time=29
note_on channel=0 note=72 velocity=127 time=1
note_on channel=0 note=72 velocity=0 time=29
note_on channel=0 note=74 velocity=127 time=1
note_on channel=0 note=74 velocity=0 time=29
note_on channel=0 note=70 velocity=127 time=1
note_on channel=0 note=70 velocity=0 time=29
note_on channel=0 note=72 velocity=127 time=1
note_on channel=0 note=72 velocity=0 time=29
note_on channel=0 note=69 velocity=127 time=1
note_on channel=0 note=69 velocity=0 time=29
note_on channel=0 note=70 velocity=127 time=1
note_on channel=0 note=70 velocity=0 time=29
note_on channel=0 note=67 velocity=127 time=1
note_on channel=0 note=67 velocity=0 time=29
note_on channel=0 note=70 velocity=127 time=1
note_on channel=0 note=70 velocity=0 time=29
note_on channel=0 note=69 velocity=127 time=1
note_on channel=0 note=69 velocity=0 time=29
note_on channel=0 note=70 velocity=127 time=1
note_on channel=0 note=70 velocity=0 time=29
note_on channel=0 note=72 velocity=127 time=1
note_on channel=0 note=72 velocity=0 time=29
note_on channel=0 note=70 velocity=127 time=1
note_on channel=0 note=70 velocity=0 time=29
note_on channel=0 note=69 velocity=127 time=1
note_on channel=0 note=69 velocity=0 time=29
note_on channel=0 note=67 velocity=127 time=1
note_on channel=0 note=67 velocity=0 time=29
note_on channel=0 note=66 velocity=127 time=1
note_on channel=0 note=66 velocity=0 time=59
note_on channel=0 note=69 velocity=127 time=1
note_on channel=0 note=69 velocity=0 time=59
note_on channel=0 note=74 velocity=127 time=1
note_on channel=0 note=74 velocity=0 time=29
note_on channel=0 note=67 velocity=127 time=1
note_on channel=0 note=67 velocity=0 time=29
note_on channel=0 note=72 velocity=127 time=1
note_on channel=0 note=72 velocity=0 time=29
note_on channel=0 note=66 velocity=127 time=1
note_on channel=0 note=66 velocity=0 time=29
note_on channel=0 note=70 velocity=127 time=1
note_on channel=0 note=70 velocity=0 time=29
note_on channel=0 note=67 velocity=127 time=1
note_on channel=0 note=67 velocity=0 time=29
note_on channel=0 note=74 velocity=127 time=1
note_on channel=0 note=74 velocity=0 time=29
note_on channel=0 note=69 velocity=127 time=1
note_on channel=0 note=69 velocity=0 time=29
note_on channel=0 note=70 velocity=127 time=1
note_on channel=0 note=70 velocity=0 time=29
note_on channel=0 note=67 velocity=127 time=1
note_on channel=0 note=67 velocity=0 time=29
note_on channel=0 note=69 velocity=127 time=1
note_on channel=0 note=69 velocity=0 time=29
note_on channel=0 note=66 velocity=127 time=1
note_on channel=0 note=66 velocity=0 time=29
note_on channel=0 note=67 velocity=127 time=1
note_on channel=0 note=67 velocity=0 time=29
note_on channel=0 note=74 velocity=127 time=1
note_on channel=0 note=74 velocity=0 time=29
note_on channel=0 note=66 velocity=127 time=1
note_on channel=0 note=66 velocity=0 time=29
note_on channel=0 note=74 velocity=127 time=1
note_on channel=0 note=74 velocity=0 time=29
note_on channel=0 note=67 velocity=127 time=1
note_on channel=0 note=67 velocity=0 time=29
note_on channel=0 note=74 velocity=127 time=1
note_on channel=0 note=74 velocity=0 time=29
note_on channel=0 note=69 velocity=127 time=1
note_on channel=0 note=69 velocity=0 time=29
note_on channel=0 note=74 velocity=127 time=1
note_on channel=0 note=74 velocity=0 time=29
note_on channel=0 note=70 velocity=127 time=1
note_on channel=0 note=70 velocity=0 time=29
note_on channel=0 note=67 velocity=127 time=1
note_on channel=0 note=67 velocity=0 time=29
note_on channel=0 note=74 velocity=127 time=1
note_on channel=0 note=74 velocity=0 time=29
note_on channel=0 note=69 velocity=127 time=1
note_on channel=0 note=69 velocity=0 time=29
note_on channel=0 note=70 velocity=127 time=1
note_on channel=0 note=70 velocity=0 time=29
note_on channel=0 note=67 velocity=127 time=1
note_on channel=0 note=67 velocity=0 time=29
note_on channel=0 note=72 velocity=127 time=1
note_on channel=0 note=72 velocity=0 time=29
note_on channel=0 note=69 velocity=127 time=1
note_on channel=0 note=69 velocity=0 time=29
note_on channel=0 note=74 velocity=127 time=1
note_on channel=0 note=74 velocity=0 time=29
note_on channel=0 note=72 velocity=127 time=1
note_on channel=0 note=72 velocity=0 time=29
note_on channel=0 note=70 velocity=127 time=1
note_on channel=0 note=70 velocity=0 time=29
note_on channel=0 note=69 velocity=127 time=1
note_on channel=0 note=69 velocity=0 time=29
note_on channel=0 note=70 velocity=127 time=1
note_on channel=0 note=70 velocity=0 time=29
note_on channel=0 note=69 velocity=127 time=1
note_on channel=0 note=69 velocity=0 time=29
note_on channel=0 note=70 velocity=127 time=1
note_on channel=0 note=70 velocity=0 time=29
note_on channel=0 note=67 velocity=127 time=1
note_on channel=0 note=67 velocity=0 time=29
note_on channel=0 note=69 velocity=127 time=1
note_on channel=0 note=69 velocity=0 time=29
note_on channel=0 note=70 velocity=127 time=1
note_on channel=0 note=70 velocity=0 time=29
note_on channel=0 note=72 velocity=127 time=1
note_on channel=0 note=72 velocity=0 time=29
note_on channel=0 note=74 velocity=127 time=1
note_on channel=0 note=74 velocity=0 time=29
note_on channel=0 note=75 velocity=127 time=1
note_on channel=0 note=75 velocity=0 time=29
note_on channel=0 note=74 velocity=127 time=1
note_on channel=0 note=74 velocity=0 time=29
note_on channel=0 note=72 velocity=127 time=1
note_on channel=0 note=72 velocity=0 time=29
note_on channel=0 note=74 velocity=127 time=1
note_on channel=0 note=74 velocity=0 time=29
note_on channel=0 note=70 velocity=127 time=1
note_on channel=0 note=70 velocity=0 time=29
note_on channel=0 note=72 velocity=127 time=1
note_on channel=0 note=72 velocity=0 time=29
note_on channel=0 note=69 velocity=127 time=1
note_on channel=0 note=69 velocity=0 time=29
note_on channel=0 note=70 velocity=127 time=1
note_on channel=0 note=70 velocity=0 time=29
note_on channel=0 note=67 velocity=127 time=1
note_on channel=0 note=67 velocity=0 time=59
note_on channel=0 note=71 velocity=127 time=1
note_on channel=0 note=71 velocity=0 time=59
note_on channel=0 note=72 velocity=127 time=1
note_on channel=0 note=72 velocity=0 time=29
note_on channel=0 note=75 velocity=127 time=1
note_on channel=0 note=75 velocity=0 time=29
note_on channel=0 note=77 velocity=127 time=1
note_on channel=0 note=77 velocity=0 time=29
note_on channel=0 note=79 velocity=127 time=1
note_on channel=0 note=79 velocity=0 time=29
note_on channel=0 note=80 velocity=127 time=1
note_on channel=0 note=80 velocity=0 time=29
note_on channel=0 note=79 velocity=127 time=1
note_on channel=0 note=79 velocity=0 time=29
note_on channel=0 note=77 velocity=127 time=1
note_on channel=0 note=77 velocity=0 time=29
note_on channel=0 note=79 velocity=127 time=1
note_on channel=0 note=79 velocity=0 time=29
note_on channel=0 note=75 velocity=127 time=1
note_on channel=0 note=75 velocity=0 time=29
note_on channel=0 note=77 velocity=127 time=1
note_on channel=0 note=77 velocity=0 time=29
note_on channel=0 note=74 velocity=127 time=1
note_on channel=0 note=74 velocity=0 time=29
note_on channel=0 note=75 velocity=127 time=1
note_on channel=0 note=75 velocity=0 time=29
note_on channel=0 note=72 velocity=127 time=1
note_on channel=0 note=72 velocity=0 time=59
note_on channel=0 note=70 velocity=127 time=1
note_on channel=0 note=70 velocity=0 time=59
note_on channel=0 note=69 velocity=127 time=1
note_on channel=0 note=69 velocity=0 time=59
note_on channel=0 note=70 velocity=127 time=1
note_on channel=0 note=70 velocity=0 time=119
note_on channel=0 note=69 velocity=127 time=1
note_on channel=0 note=69 velocity=0 time=119
note_on channel=0 note=67 velocity=127 time=1
note_on channel=0 note=67 velocity=0 time=119
note_on channel=0 note=66 velocity=127 time=1
note_on channel=0 note=66 velocity=0 time=59
note_on channel=0 note=65 velocity=127 time=1
note_on channel=0 note=65 velocity=0 time=59
note_on channel=0 note=63 velocity=127 time=1
note_on channel=0 note=63 velocity=0 time=119
note_on channel=0 note=62 velocity=127 time=1
note_on channel=0 note=62 velocity=0 time=29
note_on channel=0 note=70 velocity=127 time=1
note_on channel=0 note=70 velocity=0 time=29
note_on channel=0 note=69 velocity=127 time=1
note_on channel=0 note=69 velocity=0 time=29
note_on channel=0 note=70 velocity=127 time=1
note_on channel=0 note=70 velocity=0 time=29
note_on channel=0 note=69 velocity=127 time=1
note_on channel=0 note=69 velocity=0 time=29
note_on channel=0 note=67 velocity=127 time=1
note_on channel=0 note=67 velocity=0 time=29
note_on channel=0 note=66 velocity=127 time=1
note_on channel=0 note=66 velocity=0 time=29
note_on channel=0 note=75 velocity=127 time=1
note_on channel=0 note=75 velocity=0 time=29
note_on channel=0 note=74 velocity=127 time=1
note_on channel=0 note=74 velocity=0 time=29
note_on channel=0 note=72 velocity=127 time=1
note_on channel=0 note=72 velocity=0 time=29
note_on channel=0 note=70 velocity=127 time=1
note_on channel=0 note=70 velocity=0 time=29
note_on channel=0 note=81 velocity=127 time=1
note_on channel=0 note=81 velocity=0 time=29
note_on channel=0 note=79 velocity=127 time=1
note_on channel=0 note=79 velocity=0 time=29
note_on channel=0 note=78 velocity=127 time=1
note_on channel=0 note=78 velocity=0 time=29
note_on channel=0 note=79 velocity=127 time=1
note_on channel=0 note=79 velocity=0 time=89
note_on channel=0 note=77 velocity=127 time=1
note_on channel=0 note=77 velocity=0 time=29
note_on channel=0 note=75 velocity=127 time=1
note_on channel=0 note=75 velocity=0 time=29
note_on channel=0 note=77 velocity=127 time=1
note_on channel=0 note=77 velocity=0 time=29
note_on channel=0 note=74 velocity=127 time=1
note_on channel=0 note=74 velocity=0 time=29
note_on channel=0 note=75 velocity=127 time=1
note_on channel=0 note=75 velocity=0 time=29
note_on channel=0 note=73 velocity=127 time=1
note_on channel=0 note=73 velocity=0 time=119
note_on channel=0 note=69 velocity=127 time=1
note_on channel=0 note=74 velocity=127 time=0
note_on channel=0 note=74 velocity=0 time=119
note_on channel=0 note=69 velocity=0 time=0
note_on channel=0 note=66 velocity=127 time=1
note_on channel=0 note=72 velocity=127 time=0
note_on channel=0 note=72 velocity=0 time=119
note_on channel=0 note=66 velocity=0 time=0
note_on channel=0 note=70 velocity=127 time=1
note_on channel=0 note=70 velocity=0 time=119
note_on channel=0 note=61 velocity=127 time=1
note_on channel=0 note=69 velocity=127 time=0
note_on channel=0 note=69 velocity=0 time=59
note_on channel=0 note=61 velocity=0 time=0
note_on channel=0 note=64 velocity=127 time=1
note_on channel=0 note=73 velocity=127 time=0
note_on channel=0 note=73 velocity=0 time=59
note_on channel=0 note=64 velocity=0 time=0
note_on channel=0 note=65 velocity=127 time=1
note_on channel=0 note=74 velocity=127 time=0
note_on channel=0 note=74 velocity=0 time=59
note_on channel=0 note=65 velocity=0 time=0
note_on channel=0 note=67 velocity=127 time=1
note_on channel=0 note=76 velocity=127 time=0
note_on channel=0 note=76 velocity=0 time=59
note_on channel=0 note=67 velocity=0 time=0
note_on channel=0 note=77 velocity=127 time=1
note_on channel=0 note=74 velocity=127 time=60
note_on channel=0 note=77 velocity=0 time=59
note_on channel=0 note=76 velocity=127 time=1
note_on channel=0 note=74 velocity=0 time=119
note_on channel=0 note=73 velocity=127 time=1
note_on channel=0 note=73 velocity=0 time=119
note_on channel=0 note=76 velocity=0 time=0
note_on channel=0 note=74 velocity=127 time=1
note_on channel=0 note=74 velocity=0 time=179
note_on channel=0 note=77 velocity=127 time=1
note_on channel=0 note=77 velocity=0 time=59
note_on channel=0 note=79 velocity=127 time=1
note_on channel=0 note=79 velocity=0 time=59
note_on channel=0 note=74 velocity=127 time=1
note_on channel=0 note=74 velocity=0 time=59
note_on channel=0 note=73 velocity=127 time=1
note_on channel=0 note=73 velocity=0 time=59
note_on channel=0 note=74 velocity=127 time=1
note_on channel=0 note=74 velocity=0 time=59
note_on channel=0 note=76 velocity=127 time=1
note_on channel=0 note=76 velocity=0 time=59
note_on channel=0 note=74 velocity=127 time=1
note_on channel=0 note=74 velocity=0 time=59
note_on channel=0 note=73 velocity=127 time=1
note_on channel=0 note=73 velocity=0 time=59
note_on channel=0 note=74 velocity=127 time=1
note_on channel=0 note=74 velocity=0 time=59
note_on channel=0 note=76 velocity=127 time=1
note_on channel=0 note=76 velocity=0 time=59
note_on channel=0 note=74 velocity=127 time=1
note_on channel=0 note=74 velocity=0 time=59
note_on channel=0 note=73 velocity=127 time=1
note_on channel=0 note=73 velocity=0 time=59
note_on channel=0 note=74 velocity=127 time=1
note_on channel=0 note=74 velocity=0 time=59
note_on channel=0 note=76 velocity=127 time=1
note_on channel=0 note=76 velocity=0 time=59
note_on channel=0 note=79 velocity=127 time=1
note_on channel=0 note=79 velocity=0 time=59
note_on channel=0 note=77 velocity=127 time=1
note_on channel=0 note=77 velocity=0 time=59
note_on channel=0 note=74 velocity=127 time=1
note_on channel=0 note=74 velocity=0 time=59
note_on channel=0 note=70 velocity=127 time=1
note_on channel=0 note=70 velocity=0 time=59
note_on channel=0 note=76 velocity=127 time=1
note_on channel=0 note=76 velocity=0 time=59
note_on channel=0 note=74 velocity=127 time=1
note_on channel=0 note=74 velocity=0 time=59
note_on channel=0 note=74 velocity=127 time=1
note_on channel=0 note=74 velocity=0 time=59
note_on channel=0 note=73 velocity=127 time=1
note_on channel=0 note=73 velocity=0 time=119
note_on channel=0 note=74 velocity=127 time=1
note_on channel=0 note=74 velocity=0 time=59
note_on channel=0 note=76 velocity=127 time=1
note_on channel=0 note=76 velocity=0 time=59
note_on channel=0 note=77 velocity=127 time=1
note_on channel=0 note=77 velocity=0 time=59
note_on channel=0 note=76 velocity=127 time=1
note_on channel=0 note=76 velocity=0 time=59
note_on channel=0 note=77 velocity=127 time=1
note_on channel=0 note=77 velocity=0 time=59
note_on channel=0 note=73 velocity=127 time=1
note_on channel=0 note=73 velocity=0 time=59
note_on channel=0 note=74 velocity=127 time=1
note_on channel=0 note=74 velocity=0 time=59
note_on channel=0 note=73 velocity=127 time=1
note_on channel=0 note=73 velocity=0 time=59
note_on channel=0 note=74 velocity=127 time=1
note_on channel=0 note=74 velocity=0 time=59
note_on channel=0 note=76 velocity=127 time=1
note_on channel=0 note=76 velocity=0 time=59
note_on channel=0 note=77 velocity=127 time=1
note_on channel=0 note=77 velocity=0 time=59
note_on channel=0 note=76 velocity=127 time=1
note_on channel=0 note=76 velocity=0 time=59
note_on channel=0 note=77 velocity=127 time=1
note_on channel=0 note=77 velocity=0 time=59
note_on channel=0 note=79 velocity=127 time=1
note_on channel=0 note=79 velocity=0 time=59
note_on channel=0 note=81 velocity=127 time=1
note_on channel=0 note=81 velocity=0 time=29
note_on channel=0 note=82 velocity=127 time=1
note_on channel=0 note=82 velocity=0 time=29
note_on channel=0 note=79 velocity=127 time=1
note_on channel=0 note=79 velocity=0 time=29
note_on channel=0 note=81 velocity=127 time=1
note_on channel=0 note=81 velocity=0 time=29
note_on channel=0 note=77 velocity=127 time=1
note_on channel=0 note=77 velocity=0 time=29
note_on channel=0 note=79 velocity=127 time=1
note_on channel=0 note=79 velocity=0 time=29
note_on channel=0 note=76 velocity=127 time=1
note_on channel=0 note=76 velocity=0 time=29
note_on channel=0 note=77 velocity=127 time=1
note_on channel=0 note=77 velocity=0 time=29
note_on channel=0 note=74 velocity=127 time=1
note_on channel=0 note=74 velocity=0 time=29
note_on channel=0 note=69 velocity=127 time=1
note_on channel=0 note=69 velocity=0 time=29
note_on channel=0 note=73 velocity=127 time=1
note_on channel=0 note=73 velocity=0 time=29
note_on channel=0 note=69 velocity=127 time=1
note_on channel=0 note=69 velocity=0 time=29
note_on channel=0 note=74 velocity=127 time=1
note_on channel=0 note=74 velocity=0 time=29
note_on channel=0 note=69 velocity=127 time=1
note_on channel=0 note=69 velocity=0 time=29
note_on channel=0 note=76 velocity=127 time=1
note_on channel=0 note=76 velocity=0 time=29
note_on channel=0 note=69 velocity=127 time=1
note_on channel=0 note=69 velocity=0 time=29
note_on channel=0 note=77 velocity=127 time=1
note_on channel=0 note=77 velocity=0 time=29
note_on channel=0 note=69 velocity=127 time=1
note_on channel=0 note=69 velocity=0 time=29
note_on channel=0 note=76 velocity=127 time=1
note_on channel=0 note=76 velocity=0 time=29
note_on channel=0 note=69 velocity=127 time=1
note_on channel=0 note=69 velocity=0 time=29
note_on channel=0 note=77 velocity=127 time=1
note_on channel=0 note=77 velocity=0 time=29
note_on channel=0 note=69 velocity=127 time=1
note_on channel=0 note=69 velocity=0 time=29
note_on channel=0 note=79 velocity=127 time=1
note_on channel=0 note=79 velocity=0 time=29
note_on channel=0 note=69 velocity=127 time=1
note_on channel=0 note=69 velocity=0 time=29
note_on channel=0 note=81 velocity=127 time=1
note_on channel=0 note=81 velocity=0 time=29
note_on channel=0 note=69 velocity=127 time=1
note_on channel=0 note=69 velocity=0 time=29
note_on channel=0 note=76 velocity=127 time=1
note_on channel=0 note=76 velocity=0 time=29
note_on channel=0 note=69 velocity=127 time=1
note_on channel=0 note=69 velocity=0 time=29
note_on channel=0 note=77 velocity=127 time=1
note_on channel=0 note=77 velocity=0 time=29
note_on channel=0 note=69 velocity=127 time=1
note_on channel=0 note=69 velocity=0 time=29
note_on channel=0 note=79 velocity=127 time=1
note_on channel=0 note=79 velocity=0 time=29
note_on channel=0 note=69 velocity=127 time=1
note_on channel=0 note=69 velocity=0 time=29
note_on channel=0 note=81 velocity=127 time=1
note_on channel=0 note=81 velocity=0 time=119
note_on channel=0 note=76 velocity=127 time=871
note_on channel=0 note=76 velocity=0 time=29
note_on channel=0 note=74 velocity=127 time=1
note_on channel=0 note=74 velocity=0 time=29
note_on channel=0 note=73 velocity=127 time=1
note_on channel=0 note=73 velocity=0 time=29
note_on channel=0 note=74 velocity=127 time=1
note_on channel=0 note=74 velocity=0 time=59
note_on channel=0 note=77 velocity=127 time=31
note_on channel=0 note=77 velocity=0 time=29
note_on channel=0 note=76 velocity=127 time=1
note_on channel=0 note=76 velocity=0 time=29
note_on channel=0 note=77 velocity=127 time=1
note_on channel=0 note=77 velocity=0 time=29
note_on channel=0 note=79 velocity=127 time=1
note_on channel=0 note=79 velocity=0 time=29
note_on channel=0 note=81 velocity=127 time=1
note_on channel=0 note=81 velocity=0 time=29
note_on channel=0 note=82 velocity=127 time=1
note_on channel=0 note=82 velocity=0 time=29
note_on channel=0 note=81 velocity=127 time=1
note_on channel=0 note=81 velocity=0 time=29
note_on channel=0 note=79 velocity=127 time=1
note_on channel=0 note=79 velocity=0 time=29
note_on channel=0 note=81 velocity=127 time=1
note_on channel=0 note=81 velocity=0 time=29
note_on channel=0 note=77 velocity=127 time=1
note_on channel=0 note=77 velocity=0 time=59
note_on channel=0 note=76 velocity=127 time=1
note_on channel=0 note=76 velocity=0 time=59
note_on channel=0 note=74 velocity=127 time=1
note_on channel=0 note=74 velocity=0 time=29
note_on channel=0 note=76 velocity=127 time=1
note_on channel=0 note=76 velocity=0 time=29
note_on channel=0 note=77 velocity=127 time=1
note_on channel=0 note=77 velocity=0 time=29
note_on channel=0 note=75 velocity=127 time=1
note_on channel=0 note=75 velocity=0 time=29
note_on channel=0 note=74 velocity=127 time=1
note_on channel=0 note=74 velocity=0 time=29
note_on channel=0 note=72 velocity=127 time=1
note_on channel=0 note=72 velocity=0 time=29
note_on channel=0 note=70 velocity=127 time=1
note_on channel=0 note=70 velocity=0 time=29
note_on channel=0 note=69 velocity=127 time=1
note_on channel=0 note=69 velocity=0 time=29
note_on channel=0 note=67 velocity=127 time=1
note_on channel=0 note=67 velocity=0 time=29
note_on channel=0 note=69 velocity=127 time=1
note_on channel=0 note=69 velocity=0 time=29
note_on channel=0 note=70 velocity=127 time=1
note_on channel=0 note=70 velocity=0 time=29
note_on channel=0 note=72 velocity=127 time=1
note_on channel=0 note=72 velocity=0 time=29
note_on channel=0 note=69 velocity=127 time=1
note_on channel=0 note=69 velocity=0 time=119
note_on channel=0 note=72 velocity=127 time=61
note_on channel=0 note=72 velocity=0 time=119
note_on channel=0 note=70 velocity=127 time=1
note_on channel=0 note=70 velocity=0 time=59
note_on channel=0 note=79 velocity=127 time=61
note_on channel=0 note=79 velocity=0 time=59
note_on channel=0 note=75 velocity=127 time=1
note_on channel=0 note=75 velocity=0 time=29
note_on channel=0 note=77 velocity=127 time=1
note_on channel=0 note=77 velocity=0 time=29
note_on channel=0 note=74 velocity=127 time=1
note_on channel=0 note=74 velocity=0 time=29
note_on channel=0 note=75 velocity=127 time=1
note_on channel=0 note=75 velocity=0 time=29
note_on channel=0 note=72 velocity=127 time=1
note_on channel=0 note=72 velocity=0 time=29
note_on channel=0 note=70 velocity=127 time=1
note_on channel=0 note=70 velocity=0 time=29
note_on channel=0 note=69 velocity=127 time=1
note_on channel=0 note=69 velocity=0 time=29
note_on channel=0 note=67 velocity=127 time=1
note_on channel=0 note=67 velocity=0 time=29
note_on channel=0 note=69 velocity=127 time=1
note_on channel=0 note=69 velocity=0 time=119
note_on channel=0 note=57 velocity=127 time=1
note_on channel=0 note=57 velocity=0 time=29
note_on channel=0 note=62 velocity=127 time=1
note_on channel=0 note=62 velocity=0 time=29
note_on channel=0 note=57 velocity=127 time=1
note_on channel=0 note=57 velocity=0 time=29
note_on channel=0 note=55 velocity=127 time=1
note_on channel=0 note=55 velocity=0 time=29
note_on channel=0 note=57 velocity=127 time=121
note_on channel=0 note=57 velocity=0 time=29
note_on channel=0 note=62 velocity=127 time=1
note_on channel=0 note=62 velocity=0 time=29
note_on channel=0 note=57 velocity=127 time=1
note_on channel=0 note=57 velocity=0 time=29
note_on channel=0 note=54 velocity=127 time=1
note_on channel=0 note=54 velocity=0 time=29
note_on channel=0 note=58 velocity=127 time=121
note_on channel=0 note=58 velocity=0 time=29
note_on channel=0 note=62 velocity=127 time=1
note_on channel=0 note=62 velocity=0 time=29
note_on channel=0 note=58 velocity=127 time=1
note_on channel=0 note=58 velocity=0 time=29
note_on channel=0 note=57 velocity=127 time=1
note_on channel=0 note=57 velocity=0 time=29
note_on channel=0 note=58 velocity=127 time=121
note_on channel=0 note=58 velocity=0 time=29
note_on channel=0 note=62 velocity=127 time=1
note_on channel=0 note=62 velocity=0 time=29
note_on channel=0 note=60 velocity=127 time=1
note_on channel=0 note=60 velocity=0 time=29
note_on channel=0 note=58 velocity=127 time=1
note_on channel=0 note=58 velocity=0 time=29
note_on channel=0 note=60 velocity=127 time=121
note_on channel=0 note=60 velocity=0 time=29
note_on channel=0 note=63 velocity=127 time=1
note_on channel=0 note=63 velocity=0 time=29
note_on channel=0 note=60 velocity=127 time=1
note_on channel=0 note=60 velocity=0 time=29
note_on channel=0 note=58 velocity=127 time=1
note_on channel=0 note=58 velocity=0 time=29
note_on channel=0 note=60 velocity=127 time=121
note_on channel=0 note=60 velocity=0 time=29
note_on channel=0 note=63 velocity=127 time=1
note_on channel=0 note=63 velocity=0 time=29
note_on channel=0 note=60 velocity=127 time=1
note_on channel=0 note=60 velocity=0 time=29
note_on channel=0 note=58 velocity=127 time=1
note_on channel=0 note=58 velocity=0 time=29
note_on channel=0 note=67 velocity=127 time=121
note_on channel=0 note=67 velocity=0 time=29
note_on channel=0 note=70 velocity=127 time=1
note_on channel=0 note=70 velocity=0 time=29
note_on channel=0 note=67 velocity=127 time=1
note_on channel=0 note=67 velocity=0 time=29
note_on channel=0 note=62 velocity=127 time=1
note_on channel=0 note=62 velocity=0 time=29
note_on channel=0 note=67 velocity=127 time=121
note_on channel=0 note=67 velocity=0 time=29
note_on channel=0 note=70 velocity=127 time=1
note_on channel=0 note=70 velocity=0 time=29
note_on channel=0 note=67 velocity=127 time=1
note_on channel=0 note=67 velocity=0 time=29
note_on channel=0 note=62 velocity=127 time=1
note_on channel=0 note=62 velocity=0 time=29
note_on channel=0 note=66 velocity=127 time=121
note_on channel=0 note=66 velocity=0 time=29
note_on channel=0 note=69 velocity=127 time=1
note_on channel=0 note=69 velocity=0 time=29
note_on channel=0 note=66 velocity=127 time=1
note_on channel=0 note=66 velocity=0 time=29
note_on channel=0 note=63 velocity=127 time=1
note_on channel=0 note=63 velocity=0 time=29
note_on channel=0 note=66 velocity=127 time=121
note_on channel=0 note=66 velocity=0 time=29
note_on channel=0 note=69 velocity=127 time=1
note_on channel=0 note=69 velocity=0 time=29
note_on channel=0 note=66 velocity=127 time=1
note_on channel=0 note=66 velocity=0 time=29
note_on channel=0 note=63 velocity=127 time=1
note_on channel=0 note=63 velocity=0 time=29
note_on channel=0 note=62 velocity=127 time=1
note_on channel=0 note=62 velocity=0 time=59
note_on channel=0 note=67 velocity=127 time=61
note_on channel=0 note=74 velocity=127 time=0
note_on channel=0 note=74 velocity=0 time=59
note_on channel=0 note=67 velocity=0 time=0
note_on channel=0 note=66 velocity=127 time=1
note_on channel=0 note=72 velocity=127 time=0
note_on channel=0 note=72 velocity=0 time=59
note_on channel=0 note=66 velocity=0 time=0
note_on channel=0 note=70 velocity=127 time=1
note_on channel=0 note=67 velocity=127 time=0
note_on channel=0 note=67 velocity=0 time=119
note_on channel=0 note=70 velocity=0 time=0
note_on channel=0 note=67 velocity=127 time=1
note_on channel=0 note=72 velocity=127 time=0
note_on channel=0 note=72 velocity=0 time=59
note_on channel=0 note=67 velocity=0 time=0
note_on channel=0 note=74 velocity=127 time=1
note_on channel=0 note=71 velocity=127 time=0
note_on channel=0 note=71 velocity=0 time=59
note_on channel=0 note=74 velocity=0 time=0
note_on channel=0 note=75 velocity=127 time=1
note_on channel=0 note=72 velocity=127 time=0
note_on channel=0 note=72 velocity=0 time=119
note_on channel=0 note=75 velocity=0 time=0
note_on channel=0 note=72 velocity=127 time=1
note_on channel=0 note=77 velocity=127 time=0
note_on channel=0 note=77 velocity=0 time=59
note_on channel=0 note=72 velocity=0 time=0
note_on channel=0 note=76 velocity=127 time=1
note_on channel=0 note=79 velocity=127 time=0
note_on channel=0 note=79 velocity=0 time=59
note_on channel=0 note=76 velocity=0 time=0
note_on channel=0 note=77 velocity=127 time=1
note_on channel=0 note=81 velocity=127 time=0
note_on channel=0 note=81 velocity=0 time=119
note_on channel=0 note=77 velocity=0 time=0
note_on channel=0 note=70 velocity=127 time=1
note_on channel=0 note=77 velocity=127 time=0
note_on channel=0 note=77 velocity=0 time=59
note_on channel=0 note=70 velocity=0 time=0
note_on channel=0 note=75 velocity=127 time=1
note_on channel=0 note=69 velocity=127 time=0
note_on channel=0 note=69 velocity=0 time=59
note_on channel=0 note=75 velocity=0 time=0
note_on channel=0 note=70 velocity=127 time=1
note_on channel=0 note=74 velocity=127 time=0
note_on channel=0 note=74 velocity=0 time=29
note_on channel=0 note=70 velocity=0 time=0
note_on channel=0 note=75 velocity=127 time=1
note_on channel=0 note=75 velocity=0 time=29
note_on channel=0 note=74 velocity=127 time=1
note_on channel=0 note=74 velocity=0 time=29
note_on channel=0 note=72 velocity=127 time=1
note_on channel=0 note=72 velocity=0 time=29
note_on channel=0 note=70 velocity=127 time=1
note_on channel=0 note=70 velocity=0 time=29
note_on channel=0 note=72 velocity=127 time=1
note_on channel=0 note=72 velocity=0 time=29
note_on channel=0 note=70 velocity=127 time=1
note_on channel=0 note=70 velocity=0 time=29
note_on channel=0 note=69 velocity=127 time=1
note_on channel=0 note=69 velocity=0 time=29
note_on channel=0 note=67 velocity=127 time=1
note_on channel=0 note=67 velocity=0 time=29
note_on channel=0 note=72 velocity=127 time=1
note_on channel=0 note=72 velocity=0 time=29
note_on channel=0 note=70 velocity=127 time=1
note_on channel=0 note=70 velocity=0 time=29
note_on channel=0 note=69 velocity=127 time=1
note_on channel=0 note=69 velocity=0 time=29
note_on channel=0 note=67 velocity=127 time=1
note_on channel=0 note=67 velocity=0 time=29
note_on channel=0 note=69 velocity=127 time=1
note_on channel=0 note=69 velocity=0 time=29
note_on channel=0 note=67 velocity=127 time=1
note_on channel=0 note=67 velocity=0 time=29
note_on channel=0 note=66 velocity=127 time=1
note_on channel=0 note=66 velocity=0 time=29
note_on channel=0 note=67 velocity=127 time=1
note_on channel=0 note=67 velocity=0 time=29
note_on channel=0 note=65 velocity=127 time=1
note_on channel=0 note=65 velocity=0 time=29
note_on channel=0 note=64 velocity=127 time=1
note_on channel=0 note=64 velocity=0 time=29
note_on channel=0 note=62 velocity=127 time=1
note_on channel=0 note=62 velocity=0 time=29
note_on channel=0 note=61 velocity=127 time=1
note_on channel=0 note=61 velocity=0 time=59
note_on channel=0 note=64 velocity=127 time=1
note_on channel=0 note=64 velocity=0 time=59
note_on channel=0 note=65 velocity=127 time=1
note_on channel=0 note=65 velocity=0 time=29
note_on channel=0 note=67 velocity=127 time=1
note_on channel=0 note=67 velocity=0 time=29
note_on channel=0 note=69 velocity=127 time=1
note_on channel=0 note=69 velocity=0 time=29
note_on channel=0 note=71 velocity=127 time=1
note_on channel=0 note=71 velocity=0 time=29
note_on channel=0 note=73 velocity=127 time=1
note_on channel=0 note=73 velocity=0 time=29
note_on channel=0 note=74 velocity=127 time=1
note_on channel=0 note=74 velocity=0 time=29
note_on channel=0 note=76 velocity=127 time=1
note_on channel=0 note=76 velocity=0 time=29
note_on channel=0 note=77 velocity=127 time=1
note_on channel=0 note=77 velocity=0 time=29
note_on channel=0 note=79 velocity=127 time=1
note_on channel=0 note=79 velocity=0 time=59
note_on channel=0 note=77 velocity=127 time=1
note_on channel=0 note=77 velocity=0 time=29
note_on channel=0 note=76 velocity=127 time=1
note_on channel=0 note=76 velocity=0 time=29
note_on channel=0 note=74 velocity=127 time=1
note_on channel=0 note=74 velocity=0 time=59
note_on channel=0 note=73 velocity=127 time=1
note_on channel=0 note=73 velocity=0 time=59
note_on channel=0 note=74 velocity=127 time=1
note_on channel=0 note=74 velocity=0 time=59
note_on channel=0 note=76 velocity=127 time=1
note_on channel=0 note=76 velocity=0 time=59
note_on channel=0 note=77 velocity=127 time=1
note_on channel=0 note=77 velocity=0 time=59
note_on channel=0 note=79 velocity=127 time=1
note_on channel=0 note=79 velocity=0 time=59
note_on channel=0 note=81 velocity=127 time=1
note_on channel=0 note=81 velocity=0 time=59
note_on channel=0 note=73 velocity=127 time=1
note_on channel=0 note=73 velocity=0 time=59
note_on channel=0 note=74 velocity=127 time=1
note_on channel=0 note=74 velocity=0 time=59
note_on channel=0 note=76 velocity=127 time=1
note_on channel=0 note=76 velocity=0 time=59
note_on channel=0 note=77 velocity=127 time=1
note_on channel=0 note=77 velocity=0 time=59
note_on channel=0 note=76 velocity=127 time=1
note_on channel=0 note=76 velocity=0 time=59
note_on channel=0 note=77 velocity=127 time=1
note_on channel=0 note=77 velocity=0 time=59
note_on channel=0 note=74 velocity=127 time=1
note_on channel=0 note=74 velocity=0 time=59
note_on channel=0 note=76 velocity=127 time=1
note_on channel=0 note=76 velocity=0 time=59
note_on channel=0 note=74 velocity=127 time=1
note_on channel=0 note=69 velocity=127 time=0
note_on channel=0 note=69 velocity=0 time=59
note_on channel=0 note=74 velocity=0 time=0
note_on channel=0 note=70 velocity=127 time=1
note_on channel=0 note=74 velocity=127 time=0
note_on channel=0 note=74 velocity=0 time=59
note_on channel=0 note=70 velocity=0 time=0
note_on channel=0 note=73 velocity=127 time=1
note_on channel=0 note=69 velocity=127 time=0
note_on channel=0 note=69 velocity=0 time=59
note_on channel=0 note=73 velocity=0 time=0
note_on channel=0 note=74 velocity=127 time=1
note_on channel=0 note=69 velocity=127 time=0
note_on channel=0 note=69 velocity=0 time=59
note_on channel=0 note=74 velocity=0 time=0
note_on channel=0 note=77 velocity=127 time=1
note_on channel=0 note=74 velocity=127 time=0
note_on channel=0 note=74 velocity=0 time=59
note_on channel=0 note=77 velocity=0 time=0
note_on channel=0 note=76 velocity=127 time=1
note_on channel=0 note=74 velocity=127 time=0
note_on channel=0 note=74 velocity=0 time=59
note_on channel=0 note=72 velocity=127 time=1
note_on channel=0 note=72 velocity=0 time=59
note_on channel=0 note=76 velocity=0 time=0
note_on channel=0 note=70 velocity=127 time=1
note_on channel=0 note=65 velocity=127 time=0
note_on channel=0 note=74 velocity=127 time=0
note_on channel=0 note=74 velocity=0 time=239
note_on channel=0 note=65 velocity=0 time=0
note_on channel=0 note=70 velocity=0 time=0
note_on channel=0 note=77 velocity=127 time=16
note_on channel=0 note=77 velocity=0 time=14
note_on channel=0 note=79 velocity=127 time=1
note_on channel=0 note=79 velocity=0 time=14
note_on channel=0 note=81 velocity=127 time=1
note_on channel=0 note=81 velocity=0 time=14
note_on channel=0 note=82 velocity=127 time=1
note_on channel=0 note=82 velocity=0 time=14
note_on channel=0 note=72 velocity=127 time=61
note_on channel=0 note=72 velocity=0 time=14
note_on channel=0 note=74 velocity=127 time=1
note_on channel=0 note=74 velocity=0 time=14
note_on channel=0 note=75 velocity=127 time=1
note_on channel=0 note=75 velocity=0 time=14
note_on channel=0 note=77 velocity=127 time=1
note_on channel=0 note=77 velocity=0 time=14
note_on channel=0 note=69 velocity=127 time=61
note_on channel=0 note=69 velocity=0 time=14
note_on channel=0 note=70 velocity=127 time=1
note_on channel=0 note=70 velocity=0 time=14
note_on channel=0 note=72 velocity=127 time=1
note_on channel=0 note=72 velocity=0 time=14
note_on channel=0 note=74 velocity=127 time=1
note_on channel=0 note=74 velocity=0 time=14
note_on channel=0 note=67 velocity=127 time=61
note_on channel=0 note=67 velocity=0 time=14
note_on channel=0 note=69 velocity=127 time=1
note_on channel=0 note=69 velocity=0 time=14
note_on channel=0 note=70 velocity=127 time=1
note_on channel=0 note=70 velocity=0 time=14
note_on channel=0 note=72 velocity=127 time=1
note_on channel=0 note=72 velocity=0 time=14
note_on channel=0 note=65 velocity=127 time=61
note_on channel=0 note=65 velocity=0 time=14
note_on channel=0 note=67 velocity=127 time=1
note_on channel=0 note=67 velocity=0 time=14
note_on channel=0 note=69 velocity=127 time=1
note_on channel=0 note=69 velocity=0 time=14
note_on channel=0 note=70 velocity=127 time=1
note_on channel=0 note=70 velocity=0 time=14
note_on channel=0 note=60 velocity=127 time=61
note_on channel=0 note=60 velocity=0 time=14
note_on channel=0 note=62 velocity=127 time=1
note_on channel=0 note=62 velocity=0 time=14
note_on channel=0 note=63 velocity=127 time=1
note_on channel=0 note=63 velocity=0 time=14
note_on channel=0 note=65 velocity=127 time=1
note_on channel=0 note=65 velocity=0 time=14
note_on channel=0 note=57 velocity=127 time=61
note_on channel=0 note=57 velocity=0 time=14
note_on channel=0 note=58 velocity=127 time=1
note_on channel=0 note=58 velocity=0 time=14
note_on channel=0 note=60 velocity=127 time=1
note_on channel=0 note=60 velocity=0 time=14
note_on channel=0 note=62 velocity=127 time=1
note_on channel=0 note=62 velocity=0 time=14
note_on channel=0 note=58 velocity=127 time=61
note_on channel=0 note=58 velocity=0 time=14
note_on channel=0 note=60 velocity=127 time=1
note_on channel=0 note=60 velocity=0 time=14
note_on channel=0 note=62 velocity=127 time=1
note_on channel=0 note=62 velocity=0 time=14
note_on channel=0 note=63 velocity=127 time=1
note_on channel=0 note=63 velocity=0 time=14
note_on channel=0 note=60 velocity=127 time=61
note_on channel=0 note=60 velocity=0 time=14
note_on channel=0 note=62 velocity=127 time=1
note_on channel=0 note=62 velocity=0 time=14
note_on channel=0 note=64 velocity=127 time=1
note_on channel=0 note=64 velocity=0 time=14
note_on channel=0 note=66 velocity=127 time=1
note_on channel=0 note=66 velocity=0 time=14
note_on channel=0 note=66 velocity=127 time=61
note_on channel=0 note=66 velocity=0 time=14
note_on channel=0 note=67 velocity=127 time=1
note_on channel=0 note=67 velocity=0 time=14
note_on channel=0 note=69 velocity=127 time=1
note_on channel=0 note=69 velocity=0 time=14
note_on channel=0 note=70 velocity=127 time=1
note_on channel=0 note=72 velocity=127 time=15
note_on channel=0 note=72 velocity=0 time=14
note_on channel=0 note=74 velocity=127 time=1
note_on channel=0 note=74 velocity=127 time=0
note_on channel=0 note=74 velocity=0 time=14
note_on channel=0 note=67 velocity=127 time=1
note_on channel=0 note=67 velocity=0 time=14
note_on channel=0 note=74 velocity=0 time=0
note_on channel=0 note=70 velocity=0 time=0
note_on channel=0 note=70 velocity=127 time=1
note_on channel=0 note=76 velocity=127 time=0
note_on channel=0 note=67 velocity=127 time=0
note_on channel=0 note=64 velocity=127 time=0
note_on channel=0 note=64 velocity=0 time=359
note_on channel=0 note=70 velocity=0 time=0
note_on channel=0 note=76 velocity=0 time=0
note_on channel=0 note=67 velocity=0 time=0
note_on channel=0 note=74 velocity=127 time=1
note_on channel=0 note=69 velocity=127 time=0
note_on channel=0 note=65 velocity=127 time=0
note_on channel=0 note=65 velocity=0 time=119
note_on channel=0 note=69 velocity=0 time=0
note_on channel=0 note=74 velocity=0 time=0
note_on channel=0 note=62 velocity=127 time=1
note_on channel=0 note=65 velocity=127 time=0
note_on channel=0 note=74 velocity=127 time=0
note_on channel=0 note=71 velocity=127 time=0
note_on channel=0 note=71 velocity=0 time=239
note_on channel=0 note=62 velocity=0 time=0
note_on channel=0 note=65 velocity=0 time=0
note_on channel=0 note=74 velocity=0 time=0
note_on channel=0 note=71 velocity=127 time=421
note_on channel=0 note=74 velocity=127 time=0
note_on channel=0 note=68 velocity=127 time=0
note_on channel=0 note=64 velocity=127 time=0
note_on channel=0 note=64 velocity=0 time=59
note_on channel=0 note=71 velocity=0 time=0
note_on channel=0 note=74 velocity=0 time=0
note_on channel=0 note=68 velocity=0 time=0
note_on channel=0 note=72 velocity=127 time=1
note_on channel=0 note=64 velocity=127 time=0
note_on channel=0 note=69 velocity=127 time=0
note_on channel=0 note=69 velocity=0 time=179
note_on channel=0 note=67 velocity=127 time=1
note_on channel=0 note=67 velocity=0 time=29
note_on channel=0 note=65 velocity=127 time=1
note_on channel=0 note=65 velocity=0 time=29
note_on channel=0 note=64 velocity=0 time=0
note_on channel=0 note=72 velocity=0 time=240
note_on channel=0 note=67 velocity=127 time=16
note_on channel=0 note=67 velocity=0 time=14
note_on channel=0 note=65 velocity=127 time=1
note_on channel=0 note=65 velocity=0 time=14
note_on channel=0 note=67 velocity=127 time=1
note_on channel=0 note=67 velocity=0 time=14
note_on channel=0 note=64 velocity=127 time=1
note_on channel=0 note=64 velocity=0 time=14
note_on channel=0 note=69 velocity=127 time=61
note_on channel=0 note=69 velocity=0 time=14
note_on channel=0 note=67 velocity=127 time=1
note_on channel=0 note=67 velocity=0 time=14
note_on channel=0 note=69 velocity=127 time=1
note_on channel=0 note=69 velocity=0 time=14
note_on channel=0 note=65 velocity=127 time=1
note_on channel=0 note=65 velocity=0 time=14
note_on channel=0 note=71 velocity=127 time=61
note_on channel=0 note=71 velocity=0 time=14
note_on channel=0 note=69 velocity=127 time=1
note_on channel=0 note=69 velocity=0 time=14
note_on channel=0 note=71 velocity=127 time=1
note_on channel=0 note=71 velocity=0 time=14
note_on channel=0 note=67 velocity=127 time=1
note_on channel=0 note=67 velocity=0 time=14
note_on channel=0 note=72 velocity=127 time=61
note_on channel=0 note=72 velocity=0 time=14
note_on channel=0 note=71 velocity=127 time=1
note_on channel=0 note=71 velocity=0 time=14
note_on channel=0 note=72 velocity=127 time=1
note_on channel=0 note=72 velocity=0 time=14
note_on channel=0 note=74 velocity=127 time=16
note_on channel=0 note=74 velocity=0 time=14
note_on channel=0 note=72 velocity=127 time=1
note_on channel=0 note=72 velocity=0 time=14
note_on channel=0 note=74 velocity=127 time=1
note_on channel=0 note=74 velocity=0 time=14
note_on channel=0 note=76 velocity=127 time=16
note_on channel=0 note=76 velocity=0 time=14
note_on channel=0 note=74 velocity=127 time=1
note_on channel=0 note=74 velocity=0 time=14
note_on channel=0 note=76 velocity=127 time=1
note_on channel=0 note=76 velocity=0 time=14
note_on channel=0 note=77 velocity=127 time=16
note_on channel=0 note=77 velocity=0 time=14
note_on channel=0 note=76 velocity=127 time=1
note_on channel=0 note=76 velocity=0 time=14
note_on channel=0 note=77 velocity=127 time=1
note_on channel=0 note=77 velocity=0 time=14
note_on channel=0 note=79 velocity=127 time=16
note_on channel=0 note=79 velocity=0 time=14
note_on channel=0 note=77 velocity=127 time=1
note_on channel=0 note=77 velocity=0 time=14
note_on channel=0 note=76 velocity=127 time=1
note_on channel=0 note=76 velocity=0 time=14
note_on channel=0 note=79 velocity=127 time=1
note_on channel=0 note=79 velocity=0 time=14
note_on channel=0 note=72 velocity=127 time=1
note_on channel=0 note=72 velocity=0 time=14
note_on channel=0 note=71 velocity=127 time=1
note_on channel=0 note=71 velocity=0 time=14
note_on channel=0 note=72 velocity=127 time=1
note_on channel=0 note=72 velocity=0 time=14
note_on channel=0 note=74 velocity=127 time=16
note_on channel=0 note=74 velocity=0 time=14
note_on channel=0 note=72 velocity=127 time=1
note_on channel=0 note=72 velocity=0 time=14
note_on channel=0 note=74 velocity=127 time=1
note_on channel=0 note=74 velocity=0 time=14
note_on channel=0 note=71 velocity=127 time=1
note_on channel=0 note=71 velocity=0 time=14
note_on channel=0 note=72 velocity=127 time=61
note_on channel=0 note=72 velocity=0 time=14
note_on channel=0 note=71 velocity=127 time=1
note_on channel=0 note=71 velocity=0 time=14
note_on channel=0 note=72 velocity=127 time=1
note_on channel=0 note=72 velocity=0 time=14
note_on channel=0 note=69 velocity=127 time=1
note_on channel=0 note=69 velocity=0 time=14
note_on channel=0 note=71 velocity=127 time=61
note_on channel=0 note=71 velocity=0 time=14
note_on channel=0 note=69 velocity=127 time=1
note_on channel=0 note=69 velocity=0 time=14
note_on channel=0 note=71 velocity=127 time=1
note_on channel=0 note=71 velocity=0 time=14
note_on channel=0 note=69 velocity=127 time=16
note_on channel=0 note=69 velocity=0 time=14
note_on channel=0 note=67 velocity=127 time=1
note_on channel=0 note=67 velocity=0 time=14
note_on channel=0 note=69 velocity=127 time=1
note_on channel=0 note=69 velocity=0 time=14
note_on channel=0 note=68 velocity=127 time=16
note_on channel=0 note=68 velocity=0 time=14
note_on channel=0 note=66 velocity=127 time=1
note_on channel=0 note=66 velocity=0 time=14
note_on channel=0 note=68 velocity=127 time=1
note_on channel=0 note=68 velocity=0 time=14
note_on channel=0 note=64 velocity=127 time=1
note_on channel=0 note=64 velocity=0 time=14
note_on channel=0 note=62 velocity=127 time=61
note_on channel=0 note=62 velocity=0 time=14
note_on channel=0 note=60 velocity=127 time=1
note_on channel=0 note=60 velocity=0 time=14
note_on channel=0 note=59 velocity=127 time=1
note_on channel=0 note=59 velocity=0 time=14
note_on channel=0 note=64 velocity=127 time=16
note_on channel=0 note=64 velocity=0 time=14
note_on channel=0 note=62 velocity=127 time=1
note_on channel=0 note=62 velocity=0 time=14
note_on channel=0 note=60 velocity=127 time=1
note_on channel=0 note=60 velocity=0 time=14
note_on channel=0 note=65 velocity=127 time=16
note_on channel=0 note=65 velocity=0 time=14
note_on channel=0 note=64 velocity=127 time=1
note_on channel=0 note=64 velocity=0 time=14
note_on channel=0 note=62 velocity=127 time=1
note_on channel=0 note=62 velocity=0 time=14
note_on channel=0 note=67 velocity=127 time=16
note_on channel=0 note=67 velocity=0 time=14
note_on channel=0 note=65 velocity=127 time=1
note_on channel=0 note=65 velocity=0 time=14
note_on channel=0 note=64 velocity=127 time=1
note_on channel=0 note=64 velocity=0 time=14
note_on channel=0 note=69 velocity=127 time=16
note_on channel=0 note=69 velocity=0 time=14
note_on channel=0 note=67 velocity=127 time=1
note_on channel=0 note=67 velocity=0 time=14
note_on channel=0 note=65 velocity=127 time=1
note_on channel=0 note=65 velocity=0 time=14
note_on channel=0 note=67 velocity=127 time=16
note_on channel=0 note=67 velocity=0 time=14
note_on channel=0 note=69 velocity=127 time=1
note_on channel=0 note=69 velocity=0 time=14
note_on channel=0 note=71 velocity=127 time=1
note_on channel=0 note=71 velocity=0 time=14
note_on channel=0 note=72 velocity=127 time=1
note_on channel=0 note=60 velocity=127 time=60
note_on channel=0 note=67 velocity=127 time=0
note_on channel=0 note=64 velocity=127 time=0
note_on channel=0 note=64 velocity=0 time=59
note_on channel=0 note=72 velocity=0 time=0
note_on channel=0 note=60 velocity=0 time=0
note_on channel=0 note=67 velocity=0 time=0
note_on channel=0 note=73 velocity=127 time=1
note_on channel=0 note=69 velocity=127 time=0
note_on channel=0 note=64 velocity=127 time=0
note_on channel=0 note=64 velocity=0 time=59
note_on channel=0 note=69 velocity=0 time=0
note_on channel=0 note=73 velocity=0 time=0
note_on channel=0 note=69 velocity=127 time=46
note_on channel=0 note=69 velocity=0 time=14
note_on channel=0 note=73 velocity=127 time=1
note_on channel=0 note=73 velocity=0 time=59
note_on channel=0 note=73 velocity=127 time=1
note_on channel=0 note=64 velocity=127 time=0
note_on channel=0 note=69 velocity=127 time=0
note_on channel=0 note=69 velocity=0 time=59
note_on channel=0 note=64 velocity=0 time=0
note_on channel=0 note=73 velocity=0 time=0
note_on channel=0 note=69 velocity=127 time=1
note_on channel=0 note=74 velocity=127 time=0
note_on channel=0 note=65 velocity=127 time=0
note_on channel=0 note=65 velocity=0 time=59
note_on channel=0 note=74 velocity=0 time=0
note_on channel=0 note=69 velocity=0 time=0
note_on channel=0 note=69 velocity=127 time=46
note_on channel=0 note=69 velocity=0 time=14
note_on channel=0 note=74 velocity=127 time=1
note_on channel=0 note=74 velocity=0 time=59
note_on channel=0 note=74 velocity=127 time=1
note_on channel=0 note=69 velocity=127 time=0
note_on channel=0 note=65 velocity=127 time=0
note_on channel=0 note=65 velocity=0 time=59
note_on channel=0 note=69 velocity=0 time=0
note_on channel=0 note=74 velocity=0 time=0
note_on channel=0 note=71 velocity=127 time=1
note_on channel=0 note=67 velocity=127 time=0
note_on channel=0 note=62 velocity=127 time=0
note_on channel=0 note=62 velocity=0 time=59
note_on channel=0 note=67 velocity=0 time=0
note_on channel=0 note=71 velocity=0 time=0
note_on channel=0 note=67 velocity=127 time=46
note_on channel=0 note=67 velocity=0 time=14
note_on channel=0 note=71 velocity=127 time=1
note_on channel=0 note=71 velocity=0 time=59
note_on channel=0 note=67 velocity=127 time=1
note_on channel=0 note=71 velocity=127 time=0
note_on channel=0 note=62 velocity=127 time=0
note_on channel=0 note=62 velocity=0 time=59
note_on channel=0 note=71 velocity=0 time=0
note_on channel=0 note=67 velocity=0 time=0
note_on channel=0 note=72 velocity=127 time=1
note_on channel=0 note=67 velocity=127 time=0
note_on channel=0 note=64 velocity=127 time=0
note_on channel=0 note=64 velocity=0 time=59
note_on channel=0 note=67 velocity=0 time=0
note_on channel=0 note=72 velocity=0 time=0
note_on channel=0 note=67 velocity=127 time=46
note_on channel=0 note=67 velocity=0 time=14
note_on channel=0 note=72 velocity=127 time=1
note_on channel=0 note=72 velocity=0 time=59
note_on channel=0 note=72 velocity=127 time=1
note_on channel=0 note=67 velocity=127 time=0
note_on channel=0 note=64 velocity=127 time=0
note_on channel=0 note=64 velocity=0 time=59
note_on channel=0 note=67 velocity=0 time=0
note_on channel=0 note=72 velocity=0 time=0
note_on channel=0 note=69 velocity=127 time=1
note_on channel=0 note=65 velocity=127 time=0
note_on channel=0 note=60 velocity=127 time=0
note_on channel=0 note=60 velocity=0 time=59
note_on channel=0 note=65 velocity=0 time=0
note_on channel=0 note=69 velocity=0 time=0
note_on channel=0 note=65 velocity=127 time=46
note_on channel=0 note=65 velocity=0 time=14
note_on channel=0 note=69 velocity=127 time=1
note_on channel=0 note=69 velocity=0 time=59
note_on channel=0 note=65 velocity=127 time=1
note_on channel=0 note=69 velocity=127 time=0
note_on channel=0 note=60 velocity=127 time=0
note_on channel=0 note=60 velocity=0 time=59
note_on channel=0 note=69 velocity=0 time=0
note_on channel=0 note=65 velocity=0 time=0
note_on channel=0 note=70 velocity=127 time=1
note_on channel=0 note=65 velocity=127 time=0
note_on channel=0 note=62 velocity=127 time=0
note_on channel=0 note=62 velocity=0 time=59
note_on channel=0 note=65 velocity=0 time=0
note_on channel=0 note=70 velocity=0 time=0
note_on channel=0 note=65 velocity=127 time=46
note_on channel=0 note=65 velocity=0 time=14
note_on channel=0 note=70 velocity=127 time=1
note_on channel=0 note=70 velocity=0 time=59
note_on channel=0 note=70 velocity=127 time=1
note_on channel=0 note=62 velocity=127 time=0
note_on channel=0 note=65 velocity=127 time=0
note_on channel=0 note=65 velocity=0 time=59
note_on channel=0 note=62 velocity=0 time=0
note_on channel=0 note=70 velocity=0 time=0
note_on channel=0 note=70 velocity=127 time=1
note_on channel=0 note=67 velocity=127 time=0
note_on channel=0 note=64 velocity=127 time=0
note_on channel=0 note=64 velocity=0 time=59
note_on channel=0 note=67 velocity=0 time=0
note_on channel=0 note=70 velocity=0 time=0
note_on channel=0 note=61 velocity=127 time=46
note_on channel=0 note=61 velocity=0 time=14
note_on channel=0 note=70 velocity=127 time=1
note_on channel=0 note=70 velocity=0 time=59
note_on channel=0 note=61 velocity=127 time=1
note_on channel=0 note=70 velocity=127 time=0
note_on channel=0 note=67 velocity=127 time=0
note_on channel=0 note=64 velocity=127 time=0
note_on channel=0 note=64 velocity=0 time=59
note_on channel=0 note=61 velocity=0 time=0
note_on channel=0 note=70 velocity=0 time=0
note_on channel=0 note=67 velocity=0 time=0
note_on channel=0 note=66 velocity=127 time=1
note_on channel=0 note=69 velocity=127 time=0
note_on channel=0 note=62 velocity=127 time=0
note_on channel=0 note=62 velocity=0 time=59
note_on channel=0 note=69 velocity=0 time=0
note_on channel=0 note=66 velocity=0 time=0
note_on channel=0 note=66 velocity=127 time=46
note_on channel=0 note=66 velocity=0 time=14
note_on channel=0 note=69 velocity=127 time=1
note_on channel=0 note=69 velocity=0 time=59
note_on channel=0 note=69 velocity=127 time=1
note_on channel=0 note=66 velocity=127 time=0
note_on channel=0 note=62 velocity=127 time=0
note_on channel=0 note=62 velocity=0 time=59
note_on channel=0 note=66 velocity=0 time=0
note_on channel=0 note=58 velocity=127 time=1
note_on channel=0 note=62 velocity=127 time=0
note_on channel=0 note=69 velocity=0 time=119
note_on channel=0 note=67 velocity=127 time=1
note_on channel=0 note=62 velocity=0 time=119
note_on channel=0 note=58 velocity=0 time=0
note_on channel=0 note=61 velocity=127 time=1
note_on channel=0 note=64 velocity=127 time=0
note_on channel=0 note=64 velocity=0 time=119
note_on channel=0 note=61 velocity=0 time=0
note_on channel=0 note=67 velocity=0 time=0
note_on channel=0 note=62 velocity=127 time=1
note_on channel=0 note=65 velocity=127 time=0
note_on channel=0 note=65 velocity=0 time=119
note_on channel=0 note=64 velocity=127 time=1
note_on channel=0 note=62 velocity=0 time=119
note_on channel=0 note=60 velocity=127 time=1
note_on channel=0 note=64 velocity=0 time=119
note_on channel=0 note=62 velocity=127 time=1
note_on channel=0 note=60 velocity=0 time=119
note_on channel=0 note=58 velocity=127 time=1
note_on channel=0 note=58 velocity=0 time=119
note_on channel=0 note=62 velocity=127 time=1
note_on channel=0 note=57 velocity=127 time=0
note_on channel=0 note=57 velocity=0 time=479
note_on channel=0 note=62 velocity=0 time=0
note_on channel=0 note=62 velocity=0 time=0
note_on channel=0 note=74 velocity=127 time=15150
note_on channel=0 note=74 velocity=0 time=29
note_on channel=0 note=72 velocity=127 time=1
note_on channel=0 note=72 velocity=0 time=29
note_on channel=0 note=74 velocity=127 time=1
note_on channel=0 note=74 velocity=0 time=29
note_on channel=0 note=70 velocity=127 time=1
note_on channel=0 note=70 velocity=0 time=29
note_on channel=0 note=74 velocity=127 time=1
note_on channel=0 note=74 velocity=0 time=29
note_on channel=0 note=69 velocity=127 time=1
note_on channel=0 note=69 velocity=0 time=29
note_on channel=0 note=74 velocity=127 time=1
note_on channel=0 note=74 velocity=0 time=29
note_on channel=0 note=67 velocity=127 time=1
note_on channel=0 note=67 velocity=0 time=29
note_on channel=0 note=74 velocity=127 time=1
note_on channel=0 note=74 velocity=0 time=29
note_on channel=0 note=66 velocity=127 time=1
note_on channel=0 note=66 velocity=0 time=29
note_on channel=0 note=74 velocity=127 time=1
note_on channel=0 note=74 velocity=0 time=29
note_on channel=0 note=67 velocity=127 time=1
note_on channel=0 note=67 velocity=0 time=29
note_on channel=0 note=74 velocity=127 time=1
note_on channel=0 note=74 velocity=0 time=29
note_on channel=0 note=69 velocity=127 time=1
note_on channel=0 note=69 velocity=0 time=29
note_on channel=0 note=74 velocity=127 time=1
note_on channel=0 note=74 velocity=0 time=29
note_on channel=0 note=70 velocity=127 time=1
note_on channel=0 note=70 velocity=0 time=29
note_on channel=0 note=74 velocity=127 time=1
note_on channel=0 note=74 velocity=0 time=29
note_on channel=0 note=62 velocity=127 time=1
note_on channel=0 note=62 velocity=0 time=29
note_on channel=0 note=74 velocity=127 time=1
note_on channel=0 note=74 velocity=0 time=29
note_on channel=0 note=64 velocity=127 time=1
note_on channel=0 note=64 velocity=0 time=29
note_on channel=0 note=74 velocity=127 time=1
note_on channel=0 note=74 velocity=0 time=29
note_on channel=0 note=66 velocity=127 time=1
note_on channel=0 note=66 velocity=0 time=29
note_on channel=0 note=74 velocity=127 time=1
note_on channel=0 note=74 velocity=0 time=29
note_on channel=0 note=67 velocity=127 time=1
note_on channel=0 note=67 velocity=0 time=29
note_on channel=0 note=74 velocity=127 time=1
note_on channel=0 note=74 velocity=0 time=29
note_on channel=0 note=66 velocity=127 time=1
note_on channel=0 note=66 velocity=0 time=29
note_on channel=0 note=74 velocity=127 time=1
note_on channel=0 note=74 velocity=0 time=29
note_on channel=0 note=67 velocity=127 time=1
note_on channel=0 note=67 velocity=0 time=29
note_on channel=0 note=74 velocity=127 time=1
note_on channel=0 note=74 velocity=0 time=29
note_on channel=0 note=69 velocity=127 time=1
note_on channel=0 note=69 velocity=0 time=29
note_on channel=0 note=74 velocity=127 time=1
note_on channel=0 note=74 velocity=0 time=29
note_on channel=0 note=70 velocity=127 time=1
note_on channel=0 note=70 velocity=0 time=59
note_on channel=0 note=74 velocity=127 time=1
note_on channel=0 note=74 velocity=0 time=59
note_on channel=0 note=70 velocity=127 time=1
note_on channel=0 note=70 velocity=0 time=59
note_on channel=0 note=74 velocity=127 time=1
note_on channel=0 note=74 velocity=0 time=59
note_on channel=0 note=75 velocity=127 time=1
note_on channel=0 note=75 velocity=0 time=59
note_on channel=0 note=67 velocity=127 time=1
note_on channel=0 note=67 velocity=0 time=59
note_on channel=0 note=75 velocity=127 time=1
note_on channel=0 note=75 velocity=0 time=59
note_on channel=0 note=67 velocity=127 time=1
note_on channel=0 note=67 velocity=0 time=59
note_on channel=0 note=72 velocity=127 time=1
note_on channel=0 note=72 velocity=0 time=59
note_on channel=0 note=69 velocity=127 time=1
note_on channel=0 note=69 velocity=0 time=59
note_on channel=0 note=72 velocity=127 time=1
note_on channel=0 note=72 velocity=0 time=59
note_on channel=0 note=69 velocity=127 time=1
note_on channel=0 note=69 velocity=0 time=59
note_on channel=0 note=74 velocity=127 time=1
note_on channel=0 note=74 velocity=0 time=59
note_on channel=0 note=65 velocity=127 time=1
note_on channel=0 note=65 velocity=0 time=59
note_on channel=0 note=74 velocity=127 time=1
note_on channel=0 note=74 velocity=0 time=59
note_on channel=0 note=65 velocity=127 time=1
note_on channel=0 note=65 velocity=0 time=59
note_on channel=0 note=70 velocity=127 time=1
note_on channel=0 note=70 velocity=0 time=59
note_on channel=0 note=67 velocity=127 time=1
note_on channel=0 note=67 velocity=0 time=59
note_on channel=0 note=70 velocity=127 time=1
note_on channel=0 note=70 velocity=0 time=59
note_on channel=0 note=67 velocity=127 time=1
note_on channel=0 note=67 velocity=0 time=59
note_on channel=0 note=73 velocity=127 time=1
note_on channel=0 note=73 velocity=0 time=59
note_on channel=0 note=64 velocity=127 time=1
note_on channel=0 note=64 velocity=0 time=59
note_on channel=0 note=73 velocity=127 time=1
note_on channel=0 note=73 velocity=0 time=59
note_on channel=0 note=64 velocity=127 time=1
note_on channel=0 note=64 velocity=0 time=59
note_on channel=0 note=69 velocity=127 time=1
note_on channel=0 note=69 velocity=0 time=59
note_on channel=0 note=65 velocity=127 time=1
note_on channel=0 note=65 velocity=0 time=59
note_on channel=0 note=69 velocity=127 time=1
note_on channel=0 note=69 velocity=0 time=59
note_on channel=0 note=65 velocity=127 time=1
note_on channel=0 note=65 velocity=0 time=59
note_on channel=0 note=67 velocity=127 time=1
note_on channel=0 note=67 velocity=0 time=59
note_on channel=0 note=61 velocity=127 time=1
note_on channel=0 note=61 velocity=0 time=59
note_on channel=0 note=67 velocity=127 time=1
note_on channel=0 note=67 velocity=0 time=59
note_on channel=0 note=61 velocity=127 time=1
note_on channel=0 note=61 velocity=0 time=59
note_on channel=0 note=65 velocity=127 time=1
note_on channel=0 note=65 velocity=0 time=59
note_on channel=0 note=62 velocity=127 time=1
note_on channel=0 note=62 velocity=0 time=59
note_on channel=0 note=65 velocity=127 time=1
note_on channel=0 note=65 velocity=0 time=59
note_on channel=0 note=62 velocity=127 time=1
note_on channel=0 note=62 velocity=0 time=59
note_on channel=0 note=64 velocity=127 time=1
note_on channel=0 note=64 velocity=0 time=59
note_on channel=0 note=58 velocity=127 time=1
note_on channel=0 note=58 velocity=0 time=59
note_on channel=0 note=64 velocity=127 time=1
note_on channel=0 note=64 velocity=0 time=59
note_on channel=0 note=58 velocity=127 time=1
note_on channel=0 note=58 velocity=0 time=59
note_on channel=0 note=81 velocity=127 time=31
note_on channel=0 note=81 velocity=0 time=29
note_on channel=0 note=79 velocity=127 time=1
note_on channel=0 note=79 velocity=0 time=29
note_on channel=0 note=81 velocity=127 time=1
note_on channel=0 note=81 velocity=0 time=29
note_on channel=0 note=77 velocity=127 time=1
note_on channel=0 note=77 velocity=0 time=29
note_on channel=0 note=81 velocity=127 time=1
note_on channel=0 note=81 velocity=0 time=29
note_on channel=0 note=76 velocity=127 time=1
note_on channel=0 note=76 velocity=0 time=29
note_on channel=0 note=81 velocity=127 time=1
note_on channel=0 note=81 velocity=0 time=29
note_on channel=0 note=74 velocity=127 time=1
note_on channel=0 note=74 velocity=0 time=29
note_on channel=0 note=81 velocity=127 time=1
note_on channel=0 note=81 velocity=0 time=29
note_on channel=0 note=73 velocity=127 time=1
note_on channel=0 note=73 velocity=0 time=29
note_on channel=0 note=81 velocity=127 time=1
note_on channel=0 note=81 velocity=0 time=29
note_on channel=0 note=74 velocity=127 time=1
note_on channel=0 note=74 velocity=0 time=29
note_on channel=0 note=81 velocity=127 time=1
note_on channel=0 note=81 velocity=0 time=29
note_on channel=0 note=76 velocity=127 time=1
note_on channel=0 note=76 velocity=0 time=29
note_on channel=0 note=81 velocity=127 time=1
note_on channel=0 note=81 velocity=0 time=29
note_on channel=0 note=77 velocity=127 time=1
note_on channel=0 note=77 velocity=0 time=29
note_on channel=0 note=81 velocity=127 time=1
note_on channel=0 note=81 velocity=0 time=29
note_on channel=0 note=69 velocity=127 time=1
note_on channel=0 note=69 velocity=0 time=29
note_on channel=0 note=81 velocity=127 time=1
note_on channel=0 note=81 velocity=0 time=29
note_on channel=0 note=71 velocity=127 time=1
note_on channel=0 note=71 velocity=0 time=29
note_on channel=0 note=81 velocity=127 time=1
note_on channel=0 note=81 velocity=0 time=29
note_on channel=0 note=73 velocity=127 time=1
note_on channel=0 note=73 velocity=0 time=29
note_on channel=0 note=81 velocity=127 time=1
note_on channel=0 note=81 velocity=0 time=29
note_on channel=0 note=74 velocity=127 time=1
note_on channel=0 note=74 velocity=0 time=29
note_on channel=0 note=81 velocity=127 time=1
note_on channel=0 note=81 velocity=0 time=29
note_on channel=0 note=73 velocity=127 time=1
note_on channel=0 note=73 velocity=0 time=29
note_on channel=0 note=81 velocity=127 time=1
note_on channel=0 note=81 velocity=0 time=29
note_on channel=0 note=74 velocity=127 time=1
note_on channel=0 note=74 velocity=0 time=29
note_on channel=0 note=81 velocity=127 time=1
note_on channel=0 note=81 velocity=0 time=29
note_on channel=0 note=76 velocity=127 time=1
note_on channel=0 note=76 velocity=0 time=29
note_on channel=0 note=81 velocity=127 time=1
note_on channel=0 note=81 velocity=0 time=29
note_on channel=0 note=77 velocity=127 time=1
note_on channel=0 note=77 velocity=0 time=29
note_on channel=0 note=81 velocity=127 time=1
note_on channel=0 note=81 velocity=0 time=29
note_on channel=0 note=76 velocity=127 time=1
note_on channel=0 note=76 velocity=0 time=29
note_on channel=0 note=81 velocity=127 time=1
note_on channel=0 note=81 velocity=0 time=29
note_on channel=0 note=74 velocity=127 time=1
note_on channel=0 note=74 velocity=0 time=29
note_on channel=0 note=81 velocity=127 time=1
note_on channel=0 note=81 velocity=0 time=29
note_on channel=0 note=72 velocity=127 time=1
note_on channel=0 note=72 velocity=0 time=29
note_on channel=0 note=81 velocity=127 time=1
note_on channel=0 note=81 velocity=0 time=29
note_on channel=0 note=62 velocity=127 time=1
note_on channel=0 note=55 velocity=127 time=0
note_on channel=0 note=55 velocity=0 time=119
note_on channel=0 note=62 velocity=0 time=0
note_on channel=0 note=48 velocity=127 time=121
note_on channel=0 note=60 velocity=127 time=0
note_on channel=0 note=60 velocity=0 time=119
note_on channel=0 note=48 velocity=0 time=0
note_on channel=0 note=52 velocity=127 time=1
note_on channel=0 note=60 velocity=127 time=0
note_on channel=0 note=60 velocity=0 time=119
note_on channel=0 note=52 velocity=0 time=0
note_on channel=0 note=60 velocity=127 time=1
note_on channel=0 note=53 velocity=127 time=0
note_on channel=0 note=53 velocity=0 time=119
note_on channel=0 note=60 velocity=0 time=0
note_on channel=0 note=46 velocity=127 time=121
note_on channel=0 note=58 velocity=127 time=0
note_on channel=0 note=58 velocity=0 time=119
note_on channel=0 note=46 velocity=0 time=0
note_on channel=0 note=58 velocity=127 time=1
note_on channel=0 note=50 velocity=127 time=0
note_on channel=0 note=50 velocity=0 time=119
note_on channel=0 note=58 velocity=0 time=0
note_on channel=0 note=58 velocity=127 time=1
note_on channel=0 note=51 velocity=127 time=0
note_on channel=0 note=51 velocity=0 time=119
note_on channel=0 note=58 velocity=0 time=0
note_on channel=0 note=45 velocity=127 time=121
note_on channel=0 note=57 velocity=127 time=0
note_on channel=0 note=57 velocity=0 time=119
note_on channel=0 note=45 velocity=0 time=0
note_on channel=0 note=49 velocity=127 time=1
note_on channel=0 note=57 velocity=127 time=0
note_on channel=0 note=57 velocity=0 time=119
note_on channel=0 note=49 velocity=0 time=0
note_on channel=0 note=57 velocity=127 time=1
note_on channel=0 note=50 velocity=127 time=0
note_on channel=0 note=50 velocity=0 time=119
note_on channel=0 note=57 velocity=0 time=0
note_on channel=0 note=53 velocity=127 time=61
note_on channel=0 note=62 velocity=127 time=0
note_on channel=0 note=62 velocity=0 time=59
note_on channel=0 note=53 velocity=0 time=0
note_on channel=0 note=61 velocity=127 time=1
note_on channel=0 note=58 velocity=127 time=0
note_on channel=0 note=58 velocity=0 time=59
note_on channel=0 note=61 velocity=0 time=0
note_on channel=0 note=61 velocity=127 time=1
note_on channel=0 note=58 velocity=127 time=0
note_on channel=0 note=58 velocity=0 time=59
note_on channel=0 note=61 velocity=0 time=0
note_on channel=0 note=62 velocity=127 time=1
note_on channel=0 note=57 velocity=127 time=0
note_on channel=0 note=57 velocity=0 time=59
note_on channel=0 note=62 velocity=0 time=0
note_on channel=0 note=62 velocity=127 time=1
note_on channel=0 note=57 velocity=127 time=0
note_on channel=0 note=57 velocity=0 time=59
note_on channel=0 note=62 velocity=0 time=0
note_on channel=0 note=64 velocity=127 time=1
note_on channel=0 note=55 velocity=127 time=0
note_on channel=0 note=55 velocity=0 time=119
note_on channel=0 note=64 velocity=0 time=0
note_on channel=0 note=62 velocity=127 time=61
note_on channel=0 note=57 velocity=127 time=0
note_on channel=0 note=57 velocity=0 time=59
note_on channel=0 note=62 velocity=0 time=0
note_on channel=0 note=61 velocity=127 time=1
note_on channel=0 note=58 velocity=127 time=0
note_on channel=0 note=58 velocity=0 time=59
note_on channel=0 note=61 velocity=0 time=0
note_on channel=0 note=61 velocity=127 time=1
note_on channel=0 note=58 velocity=127 time=0
note_on channel=0 note=58 velocity=0 time=59
note_on channel=0 note=61 velocity=0 time=0
note_on channel=0 note=62 velocity=127 time=1
note_on channel=0 note=57 velocity=127 time=0
note_on channel=0 note=57 velocity=0 time=59
note_on channel=0 note=62 velocity=0 time=0
note_on channel=0 note=57 velocity=127 time=1
note_on channel=0 note=62 velocity=127 time=0
note_on channel=0 note=62 velocity=0 time=59
note_on channel=0 note=57 velocity=0 time=0
note_on channel=0 note=56 velocity=127 time=1
note_on channel=0 note=64 velocity=127 time=0
note_on channel=0 note=64 velocity=0 time=119
note_on channel=0 note=56 velocity=0 time=0
note_on channel=0 note=57 velocity=127 time=121
note_on channel=0 note=57 velocity=0 time=119
note_on channel=0 note=65 velocity=127 time=121
note_on channel=0 note=65 velocity=0 time=119
note_on channel=0 note=62 velocity=127 time=1
note_on channel=0 note=62 velocity=0 time=119
note_on channel=0 note=57 velocity=127 time=1
note_on channel=0 note=57 velocity=0 time=29
note_on channel=0 note=69 velocity=127 time=1
note_on channel=0 note=69 velocity=0 time=29
note_on channel=0 note=67 velocity=127 time=1
note_on channel=0 note=67 velocity=0 time=29
note_on channel=0 note=69 velocity=127 time=1
note_on channel=0 note=69 velocity=0 time=29
note_on channel=0 note=61 velocity=127 time=1
note_on channel=0 note=61 velocity=0 time=29
note_on channel=0 note=67 velocity=127 time=1
note_on channel=0 note=67 velocity=0 time=29
note_on channel=0 note=65 velocity=127 time=1
note_on channel=0 note=65 velocity=0 time=29
note_on channel=0 note=64 velocity=127 time=1
note_on channel=0 note=64 velocity=0 time=29
note_on channel=0 note=62 velocity=127 time=31
note_on channel=0 note=62 velocity=0 time=29
note_on channel=0 note=61 velocity=127 time=1
note_on channel=0 note=61 velocity=0 time=29
note_on channel=0 note=62 velocity=127 time=1
note_on channel=0 note=62 velocity=0 time=29
note_on channel=0 note=57 velocity=127 time=1
note_on channel=0 note=57 velocity=0 time=29
note_on channel=0 note=57 velocity=127 time=1
note_on channel=0 note=57 velocity=0 time=29
note_on channel=0 note=55 velocity=127 time=1
note_on channel=0 note=55 velocity=0 time=29
note_on channel=0 note=57 velocity=127 time=1
note_on channel=0 note=57 velocity=0 time=29
note_on channel=0 note=54 velocity=127 time=1
note_on channel=0 note=54 velocity=0 time=29
note_on channel=0 note=62 velocity=127 time=1
note_on channel=0 note=62 velocity=0 time=29
note_on channel=0 note=61 velocity=127 time=1
note_on channel=0 note=61 velocity=0 time=29
note_on channel=0 note=62 velocity=127 time=1
note_on channel=0 note=62 velocity=0 time=29
note_on channel=0 note=55 velocity=127 time=1
note_on channel=0 note=55 velocity=0 time=29
note_on channel=0 note=65 velocity=127 time=1
note_on channel=0 note=65 velocity=0 time=29
note_on channel=0 note=63 velocity=127 time=1
note_on channel=0 note=63 velocity=0 time=29
note_on channel=0 note=62 velocity=127 time=1
note_on channel=0 note=62 velocity=0 time=29
note_on channel=0 note=61 velocity=127 time=1
note_on channel=0 note=61 velocity=0 time=29
note_on channel=0 note=64 velocity=127 time=1
note_on channel=0 note=64 velocity=0 time=29
note_on channel=0 note=57 velocity=127 time=1
note_on channel=0 note=57 velocity=0 time=29
note_on channel=0 note=61 velocity=127 time=1
note_on channel=0 note=61 velocity=0 time=29
note_on channel=0 note=50 velocity=127 time=1
note_on channel=0 note=50 velocity=0 time=29
note_on channel=0 note=63 velocity=127 time=1
note_on channel=0 note=63 velocity=0 time=29
note_on channel=0 note=62 velocity=127 time=1
note_on channel=0 note=62 velocity=0 time=29
note_on channel=0 note=60 velocity=127 time=1
note_on channel=0 note=60 velocity=0 time=29
note_on channel=0 note=59 velocity=127 time=1
note_on channel=0 note=59 velocity=0 time=29
note_on channel=0 note=62 velocity=127 time=1
note_on channel=0 note=62 velocity=0 time=29
note_on channel=0 note=55 velocity=127 time=1
note_on channel=0 note=55 velocity=0 time=29
note_on channel=0 note=59 velocity=127 time=1
note_on channel=0 note=59 velocity=0 time=29
note_on channel=0 note=48 velocity=127 time=1
note_on channel=0 note=48 velocity=0 time=29
note_on channel=0 note=62 velocity=127 time=1
note_on channel=0 note=62 velocity=0 time=29
note_on channel=0 note=60 velocity=127 time=1
note_on channel=0 note=60 velocity=0 time=29
note_on channel=0 note=58 velocity=127 time=1
note_on channel=0 note=58 velocity=0 time=29
note_on channel=0 note=57 velocity=127 time=1
note_on channel=0 note=57 velocity=0 time=29
note_on channel=0 note=60 velocity=127 time=1
note_on channel=0 note=60 velocity=0 time=29
note_on channel=0 note=54 velocity=127 time=1
note_on channel=0 note=54 velocity=0 time=29
note_on channel=0 note=57 velocity=127 time=1
note_on channel=0 note=57 velocity=0 time=29
note_on channel=0 note=50 velocity=127 time=1
note_on channel=0 note=50 velocity=0 time=29
note_on channel=0 note=60 velocity=127 time=1
note_on channel=0 note=60 velocity=0 time=29
note_on channel=0 note=58 velocity=127 time=1
note_on channel=0 note=58 velocity=0 time=29
note_on channel=0 note=57 velocity=127 time=1
note_on channel=0 note=57 velocity=0 time=29
note_on channel=0 note=58 velocity=127 time=1
note_on channel=0 note=58 velocity=0 time=29
note_on channel=0 note=69 velocity=127 time=1
note_on channel=0 note=69 velocity=0 time=29
note_on channel=0 note=67 velocity=127 time=1
note_on channel=0 note=67 velocity=0 time=29
note_on channel=0 note=66 velocity=127 time=1
note_on channel=0 note=66 velocity=0 time=29
note_on channel=0 note=67 velocity=127 time=1
note_on channel=0 note=67 velocity=0 time=29
note_on channel=0 note=58 velocity=127 time=1
note_on channel=0 note=58 velocity=0 time=29
note_on channel=0 note=57 velocity=127 time=1
note_on channel=0 note=57 velocity=0 time=29
note_on channel=0 note=55 velocity=127 time=1
note_on channel=0 note=55 velocity=0 time=29
note_on channel=0 note=62 velocity=127 time=1
note_on channel=0 note=62 velocity=0 time=119
note_on channel=0 note=62 velocity=127 time=61
note_on channel=0 note=62 velocity=0 time=59
note_on channel=0 note=62 velocity=127 time=1
note_on channel=0 note=62 velocity=0 time=59
note_on channel=0 note=62 velocity=127 time=1
note_on channel=0 note=62 velocity=0 time=59
note_on channel=0 note=62 velocity=127 time=1
note_on channel=0 note=62 velocity=0 time=59
note_on channel=0 note=60 velocity=127 time=1
note_on channel=0 note=60 velocity=0 time=59
note_on channel=0 note=58 velocity=127 time=1
note_on channel=0 note=58 velocity=0 time=59
note_on channel=0 note=62 velocity=127 time=1
note_on channel=0 note=62 velocity=0 time=59
note_on channel=0 note=62 velocity=127 time=1
note_on channel=0 note=62 velocity=0 time=59
note_on channel=0 note=60 velocity=127 time=1
note_on channel=0 note=60 velocity=0 time=59
note_on channel=0 note=58 velocity=127 time=1
note_on channel=0 note=58 velocity=0 time=59
note_on channel=0 note=62 velocity=127 time=1
note_on channel=0 note=62 velocity=0 time=59
note_on channel=0 note=62 velocity=127 time=1
note_on channel=0 note=62 velocity=0 time=59
note_on channel=0 note=60 velocity=127 time=1
note_on channel=0 note=60 velocity=0 time=59
note_on channel=0 note=58 velocity=127 time=1
note_on channel=0 note=58 velocity=0 time=119
note_on channel=0 note=60 velocity=127 time=1591
note_on channel=0 note=60 velocity=0 time=29
note_on channel=0 note=58 velocity=127 time=1
note_on channel=0 note=58 velocity=0 time=29
note_on channel=0 note=60 velocity=127 time=1
note_on channel=0 note=60 velocity=0 time=29
note_on channel=0 note=57 velocity=127 time=1
note_on channel=0 note=57 velocity=0 time=29
note_on channel=0 note=60 velocity=127 time=1
note_on channel=0 note=60 velocity=0 time=29
note_on channel=0 note=55 velocity=127 time=1
note_on channel=0 note=55 velocity=0 time=29
note_on channel=0 note=60 velocity=127 time=1
note_on channel=0 note=60 velocity=0 time=29
note_on channel=0 note=53 velocity=127 time=1
note_on channel=0 note=53 velocity=0 time=29
note_on channel=0 note=60 velocity=127 time=1
note_on channel=0 note=60 velocity=0 time=29
note_on channel=0 note=52 velocity=127 time=1
note_on channel=0 note=52 velocity=0 time=29
note_on channel=0 note=60 velocity=127 time=1
note_on channel=0 note=60 velocity=0 time=29
note_on channel=0 note=53 velocity=127 time=1
note_on channel=0 note=53 velocity=0 time=29
note_on channel=0 note=60 velocity=127 time=1
note_on channel=0 note=60 velocity=0 time=29
note_on channel=0 note=55 velocity=127 time=1
note_on channel=0 note=55 velocity=0 time=29
note_on channel=0 note=60 velocity=127 time=1
note_on channel=0 note=60 velocity=0 time=29
note_on channel=0 note=57 velocity=127 time=1
note_on channel=0 note=57 velocity=0 time=29
note_on channel=0 note=60 velocity=127 time=1
note_on channel=0 note=60 velocity=0 time=29
note_on channel=0 note=48 velocity=127 time=1
note_on channel=0 note=48 velocity=0 time=29
note_on channel=0 note=60 velocity=127 time=1
note_on channel=0 note=60 velocity=0 time=29
note_on channel=0 note=50 velocity=127 time=1
note_on channel=0 note=50 velocity=0 time=29
note_on channel=0 note=60 velocity=127 time=1
note_on channel=0 note=60 velocity=0 time=29
note_on channel=0 note=52 velocity=127 time=1
note_on channel=0 note=52 velocity=0 time=29
note_on channel=0 note=60 velocity=127 time=1
note_on channel=0 note=60 velocity=0 time=29
note_on channel=0 note=53 velocity=127 time=1
note_on channel=0 note=53 velocity=0 time=29
note_on channel=0 note=60 velocity=127 time=1
note_on channel=0 note=60 velocity=0 time=29
note_on channel=0 note=52 velocity=127 time=1
note_on channel=0 note=52 velocity=0 time=29
note_on channel=0 note=60 velocity=127 time=1
note_on channel=0 note=60 velocity=0 time=29
note_on channel=0 note=53 velocity=127 time=1
note_on channel=0 note=53 velocity=0 time=29
note_on channel=0 note=60 velocity=127 time=1
note_on channel=0 note=60 velocity=0 time=29
note_on channel=0 note=55 velocity=127 time=1
note_on channel=0 note=55 velocity=0 time=29
note_on channel=0 note=60 velocity=127 time=1
note_on channel=0 note=60 velocity=0 time=29
note_on channel=0 note=57 velocity=127 time=1
note_on channel=0 note=57 velocity=0 time=119
note_on channel=0 note=69 velocity=127 time=5161
note_on channel=0 note=69 velocity=0 time=59
note_on channel=0 note=73 velocity=127 time=1
note_on channel=0 note=73 velocity=0 time=59
note_on channel=0 note=74 velocity=127 time=1
note_on channel=0 note=74 velocity=0 time=59
note_on channel=0 note=67 velocity=127 time=1
note_on channel=0 note=67 velocity=0 time=59
note_on channel=0 note=65 velocity=127 time=1
note_on channel=0 note=65 velocity=0 time=59
note_on channel=0 note=69 velocity=127 time=1
note_on channel=0 note=69 velocity=0 time=59
note_on channel=0 note=71 velocity=127 time=1
note_on channel=0 note=71 velocity=0 time=59
note_on channel=0 note=73 velocity=127 time=1
note_on channel=0 note=73 velocity=0 time=59
note_on channel=0 note=74 velocity=127 time=1
note_on channel=0 note=74 velocity=0 time=59
note_on channel=0 note=73 velocity=127 time=1
note_on channel=0 note=73 velocity=0 time=59
note_on channel=0 note=74 velocity=127 time=1
note_on channel=0 note=74 velocity=0 time=59
note_on channel=0 note=76 velocity=127 time=1
note_on channel=0 note=76 velocity=0 time=59
note_on channel=0 note=77 velocity=127 time=1
note_on channel=0 note=77 velocity=0 time=59
note_on channel=0 note=76 velocity=127 time=1
note_on channel=0 note=76 velocity=0 time=59
note_on channel=0 note=77 velocity=127 time=1
note_on channel=0 note=69 velocity=127 time=30
note_on channel=0 note=69 velocity=0 time=29
note_on channel=0 note=77 velocity=0 time=0
note_on channel=0 note=67 velocity=127 time=1
note_on channel=0 note=73 velocity=127 time=0
note_on channel=0 note=67 velocity=0 time=29
note_on channel=0 note=69 velocity=127 time=1
note_on channel=0 note=69 velocity=0 time=29
note_on channel=0 note=73 velocity=0 time=0
note_on channel=0 note=66 velocity=127 time=31
note_on channel=0 note=66 velocity=0 time=29
note_on channel=0 note=64 velocity=127 time=1
note_on channel=0 note=64 velocity=0 time=29
note_on channel=0 note=66 velocity=127 time=1
note_on channel=0 note=66 velocity=0 time=29
note_on channel=0 note=62 velocity=127 time=31
note_on channel=0 note=62 velocity=0 time=29
note_on channel=0 note=60 velocity=127 time=1
note_on channel=0 note=60 velocity=0 time=29
note_on channel=0 note=62 velocity=127 time=1
note_on channel=0 note=62 velocity=0 time=29
note_on channel=0 note=58 velocity=127 time=1
note_on channel=0 note=58 velocity=0 time=29
note_on channel=0 note=60 velocity=127 time=1
note_on channel=0 note=60 velocity=0 time=29
note_on channel=0 note=58 velocity=127 time=1
note_on channel=0 note=58 velocity=0 time=29
note_on channel=0 note=57 velocity=127 time=1
note_on channel=0 note=57 velocity=0 time=29
note_on channel=0 note=55 velocity=127 time=1
note_on channel=0 note=55 velocity=0 time=29
note_on channel=0 note=53 velocity=127 time=1
note_on channel=0 note=53 velocity=0 time=29
note_on channel=0 note=52 velocity=127 time=1
note_on channel=0 note=52 velocity=0 time=29
note_on channel=0 note=50 velocity=127 time=1
note_on channel=0 note=50 velocity=0 time=29
note_on channel=0 note=49 velocity=127 time=1
note_on channel=0 note=49 velocity=0 time=29
note_on channel=0 note=45 velocity=127 time=1
note_on channel=0 note=45 velocity=0 time=29
note_on channel=0 note=49 velocity=127 time=1
note_on channel=0 note=49 velocity=0 time=29
note_on channel=0 note=52 velocity=127 time=1
note_on channel=0 note=52 velocity=0 time=29
note_on channel=0 note=49 velocity=127 time=121
note_on channel=0 note=49 velocity=0 time=29
note_on channel=0 note=45 velocity=127 time=1
note_on channel=0 note=45 velocity=0 time=29
note_on channel=0 note=49 velocity=127 time=1
note_on channel=0 note=49 velocity=0 time=29
note_on channel=0 note=52 velocity=127 time=1
note_on channel=0 note=52 velocity=0 time=29
note_on channel=0 note=50 velocity=127 time=121
note_on channel=0 note=50 velocity=0 time=29
note_on channel=0 note=45 velocity=127 time=1
note_on channel=0 note=45 velocity=0 time=29
note_on channel=0 note=50 velocity=127 time=1
note_on channel=0 note=50 velocity=0 time=29
note_on channel=0 note=53 velocity=127 time=1
note_on channel=0 note=53 velocity=0 time=29
note_on channel=0 note=50 velocity=127 time=121
note_on channel=0 note=50 velocity=0 time=29
note_on channel=0 note=45 velocity=127 time=1
note_on channel=0 note=45 velocity=0 time=29
note_on channel=0 note=50 velocity=127 time=1
note_on channel=0 note=50 velocity=0 time=29
note_on channel=0 note=53 velocity=127 time=1
note_on channel=0 note=53 velocity=0 time=29
note_on channel=0 note=49 velocity=127 time=121
note_on channel=0 note=49 velocity=0 time=29
note_on channel=0 note=45 velocity=127 time=1
note_on channel=0 note=45 velocity=0 time=29
note_on channel=0 note=49 velocity=127 time=1
note_on channel=0 note=49 velocity=0 time=29
note_on channel=0 note=52 velocity=127 time=1
note_on channel=0 note=52 velocity=0 time=29
note_on channel=0 note=49 velocity=127 time=121
note_on channel=0 note=49 velocity=0 time=29
note_on channel=0 note=45 velocity=127 time=1
note_on channel=0 note=45 velocity=0 time=29
note_on channel=0 note=49 velocity=127 time=1
note_on channel=0 note=49 velocity=0 time=29
note_on channel=0 note=52 velocity=127 time=1
note_on channel=0 note=52 velocity=0 time=29
note_on channel=0 note=50 velocity=127 time=121
note_on channel=0 note=50 velocity=0 time=29
note_on channel=0 note=45 velocity=127 time=1
note_on channel=0 note=45 velocity=0 time=29
note_on channel=0 note=50 velocity=127 time=1
note_on channel=0 note=50 velocity=0 time=29
note_on channel=0 note=53 velocity=127 time=1
note_on channel=0 note=53 velocity=0 time=29
note_on channel=0 note=50 velocity=127 time=121
note_on channel=0 note=50 velocity=0 time=29
note_on channel=0 note=45 velocity=127 time=1
note_on channel=0 note=45 velocity=0 time=29
note_on channel=0 note=50 velocity=127 time=1
note_on channel=0 note=50 velocity=0 time=29
note_on channel=0 note=53 velocity=127 time=1
note_on channel=0 note=53 velocity=0 time=29
note_on channel=0 note=52 velocity=127 time=121
note_on channel=0 note=52 velocity=0 time=29
note_on channel=0 note=49 velocity=127 time=1
note_on channel=0 note=49 velocity=0 time=29
note_on channel=0 note=52 velocity=127 time=1
note_on channel=0 note=52 velocity=0 time=29
note_on channel=0 note=55 velocity=127 time=1
note_on channel=0 note=55 velocity=0 time=29
note_on channel=0 note=52 velocity=127 time=121
note_on channel=0 note=52 velocity=0 time=29
note_on channel=0 note=49 velocity=127 time=1
note_on channel=0 note=49 velocity=0 time=29
note_on channel=0 note=52 velocity=127 time=1
note_on channel=0 note=52 velocity=0 time=29
note_on channel=0 note=55 velocity=127 time=1
note_on channel=0 note=55 velocity=0 time=29
note_on channel=0 note=53 velocity=127 time=121
note_on channel=0 note=53 velocity=0 time=29
note_on channel=0 note=50 velocity=127 time=1
note_on channel=0 note=50 velocity=0 time=29
note_on channel=0 note=53 velocity=127 time=1
note_on channel=0 note=53 velocity=0 time=29
note_on channel=0 note=57 velocity=127 time=1
note_on channel=0 note=57 velocity=0 time=29
note_on channel=0 note=53 velocity=127 time=121
note_on channel=0 note=53 velocity=0 time=29
note_on channel=0 note=50 velocity=127 time=1
note_on channel=0 note=50 velocity=0 time=29
note_on channel=0 note=53 velocity=127 time=1
note_on channel=0 note=53 velocity=0 time=29
note_on channel=0 note=57 velocity=127 time=1
note_on channel=0 note=57 velocity=0 time=29
note_on channel=0 note=52 velocity=127 time=121
note_on channel=0 note=52 velocity=0 time=29
note_on channel=0 note=49 velocity=127 time=1
note_on channel=0 note=49 velocity=0 time=29
note_on channel=0 note=52 velocity=127 time=1
note_on channel=0 note=52 velocity=0 time=29
note_on channel=0 note=55 velocity=127 time=1
note_on channel=0 note=55 velocity=0 time=29
note_on channel=0 note=52 velocity=127 time=121
note_on channel=0 note=52 velocity=0 time=29
note_on channel=0 note=49 velocity=127 time=1
note_on channel=0 note=49 velocity=0 time=29
note_on channel=0 note=52 velocity=127 time=1
note_on channel=0 note=52 velocity=0 time=29
note_on channel=0 note=55 velocity=127 time=1
note_on channel=0 note=55 velocity=0 time=29
note_on channel=0 note=53 velocity=127 time=121
note_on channel=0 note=53 velocity=0 time=29
note_on channel=0 note=50 velocity=127 time=1
note_on channel=0 note=50 velocity=0 time=29
note_on channel=0 note=53 velocity=127 time=1
note_on channel=0 note=53 velocity=0 time=29
note_on channel=0 note=57 velocity=127 time=1
note_on channel=0 note=57 velocity=0 time=29
note_on channel=0 note=53 velocity=127 time=121
note_on channel=0 note=53 velocity=0 time=29
note_on channel=0 note=50 velocity=127 time=1
note_on channel=0 note=50 velocity=0 time=29
note_on channel=0 note=53 velocity=127 time=1
note_on channel=0 note=53 velocity=0 time=29
note_on channel=0 note=57 velocity=127 time=1
note_on channel=0 note=57 velocity=0 time=29
note_on channel=0 note=55 velocity=127 time=121
note_on channel=0 note=55 velocity=0 time=29
note_on channel=0 note=52 velocity=127 time=1
note_on channel=0 note=52 velocity=0 time=29
note_on channel=0 note=55 velocity=127 time=1
note_on channel=0 note=55 velocity=0 time=29
note_on channel=0 note=58 velocity=127 time=1
note_on channel=0 note=58 velocity=0 time=29
note_on channel=0 note=55 velocity=127 time=121
note_on channel=0 note=55 velocity=0 time=29
note_on channel=0 note=52 velocity=127 time=1
note_on channel=0 note=52 velocity=0 time=29
note_on channel=0 note=55 velocity=127 time=1
note_on channel=0 note=55 velocity=0 time=29
note_on channel=0 note=58 velocity=127 time=1
note_on channel=0 note=58 velocity=0 time=29
note_on channel=0 note=57 velocity=127 time=121
note_on channel=0 note=57 velocity=0 time=29
note_on channel=0 note=53 velocity=127 time=1
note_on channel=0 note=53 velocity=0 time=29
note_on channel=0 note=57 velocity=127 time=1
note_on channel=0 note=57 velocity=0 time=29
note_on channel=0 note=61 velocity=127 time=1
note_on channel=0 note=61 velocity=0 time=29
note_on channel=0 note=57 velocity=127 time=91
note_on channel=0 note=57 velocity=0 time=29
note_on channel=0 note=58 velocity=127 time=1
note_on channel=0 note=58 velocity=0 time=29
note_on channel=0 note=55 velocity=127 time=61
note_on channel=0 note=55 velocity=0 time=29
note_on channel=0 note=53 velocity=127 time=1
note_on channel=0 note=53 velocity=0 time=29
note_on channel=0 note=50 velocity=127 time=61
note_on channel=0 note=50 velocity=0 time=29
note_on channel=0 note=45 velocity=127 time=1
note_on channel=0 note=45 velocity=0 time=29
note_on channel=0 note=41 velocity=127 time=61
note_on channel=0 note=41 velocity=0 time=29
note_on channel=0 note=38 velocity=127 time=1
note_on channel=0 note=38 velocity=0 time=29
note_on channel=0 note=49 velocity=127 time=91
note_on channel=0 note=49 velocity=0 time=29
note_on channel=0 note=53 velocity=127 time=91
note_on channel=0 note=53 velocity=0 time=29
note_on channel=0 note=50 velocity=127 time=91
note_on channel=0 note=50 velocity=0 time=29
note_on channel=0 note=53 velocity=127 time=91
note_on channel=0 note=53 velocity=0 time=29
note_on channel=0 note=50 velocity=127 time=91
note_on channel=0 note=50 velocity=0 time=29
note_on channel=0 note=52 velocity=127 time=1
note_on channel=0 note=52 velocity=0 time=14
note_on channel=0 note=53 velocity=127 time=1
note_on channel=0 note=53 velocity=0 time=14
note_on channel=0 note=55 velocity=127 time=1
note_on channel=0 note=55 velocity=0 time=14
note_on channel=0 note=57 velocity=127 time=1
note_on channel=0 note=57 velocity=0 time=14
note_on channel=0 note=59 velocity=127 time=1
note_on channel=0 note=59 velocity=0 time=14
note_on channel=0 note=61 velocity=127 time=1
note_on channel=0 note=61 velocity=0 time=14
note_on channel=0 note=62 velocity=127 time=1
note_on channel=0 note=62 velocity=0 time=29
note_on channel=0 note=57 velocity=127 time=91
note_on channel=0 note=57 velocity=0 time=29
note_on channel=0 note=59 velocity=127 time=1
note_on channel=0 note=59 velocity=0 time=14
note_on channel=0 note=61 velocity=127 time=1
note_on channel=0 note=61 velocity=0 time=14
note_on channel=0 note=62 velocity=127 time=1
note_on channel=0 note=62 velocity=0 time=14
note_on channel=0 note=64 velocity=127 time=1
note_on channel=0 note=64 velocity=0 time=14
note_on channel=0 note=65 velocity=127 time=1
note_on channel=0 note=65 velocity=0 time=14
note_on channel=0 note=67 velocity=127 time=1
note_on channel=0 note=67 velocity=0 time=14
note_on channel=0 note=69 velocity=127 time=1
note_on channel=0 note=69 velocity=0 time=29
note_on channel=0 note=67 velocity=127 time=1
note_on channel=0 note=67 velocity=0 time=29
note_on channel=0 note=65 velocity=127 time=1
note_on channel=0 note=65 velocity=0 time=29
note_on channel=0 note=64 velocity=127 time=1
note_on channel=0 note=64 velocity=0 time=29
note_on channel=0 note=65 velocity=127 time=1
note_on channel=0 note=65 velocity=0 time=59
note_on channel=0 note=63 velocity=127 time=91
note_on channel=0 note=63 velocity=0 time=29
note_on channel=0 note=62 velocity=127 time=1
note_on channel=0 note=62 velocity=0 time=29
note_on channel=0 note=60 velocity=127 time=1
note_on channel=0 note=60 velocity=0 time=29
note_on channel=0 note=58 velocity=127 time=1
note_on channel=0 note=58 velocity=0 time=59
note_on channel=0 note=59 velocity=127 time=1
note_on channel=0 note=59 velocity=0 time=59
note_on channel=0 note=60 velocity=127 time=1
note_on channel=0 note=60 velocity=0 time=59
note_on channel=0 note=67 velocity=127 time=1
note_on channel=0 note=67 velocity=0 time=59
note_on channel=0 note=67 velocity=127 time=1
note_on channel=0 note=67 velocity=0 time=14
note_on channel=0 note=69 velocity=127 time=1
note_on channel=0 note=69 velocity=0 time=14
note_on channel=0 note=67 velocity=127 time=1
note_on channel=0 note=67 velocity=0 time=14
note_on channel=0 note=69 velocity=127 time=1
note_on channel=0 note=69 velocity=0 time=14
note_on channel=0 note=67 velocity=127 time=1
note_on channel=0 note=67 velocity=0 time=14
note_on channel=0 note=69 velocity=127 time=1
note_on channel=0 note=69 velocity=0 time=14
note_on channel=0 note=67 velocity=127 time=1
note_on channel=0 note=67 velocity=0 time=14
note_on channel=0 note=69 velocity=127 time=1
note_on channel=0 note=69 velocity=0 time=14
note_on channel=0 note=67 velocity=127 time=1
note_on channel=0 note=67 velocity=0 time=14
note_on channel=0 note=69 velocity=127 time=1
note_on channel=0 note=69 velocity=0 time=14
note_on channel=0 note=67 velocity=127 time=1
note_on channel=0 note=67 velocity=0 time=14
note_on channel=0 note=69 velocity=127 time=1
note_on channel=0 note=69 velocity=0 time=14
note_on channel=0 note=67 velocity=127 time=1
note_on channel=0 note=67 velocity=0 time=14
note_on channel=0 note=69 velocity=127 time=1
note_on channel=0 note=69 velocity=0 time=14
note_on channel=0 note=67 velocity=127 time=1
note_on channel=0 note=67 velocity=0 time=14
note_on channel=0 note=69 velocity=127 time=1
note_on channel=0 note=69 velocity=0 time=14
note_on channel=0 note=67 velocity=127 time=1
note_on channel=0 note=67 velocity=0 time=14
note_on channel=0 note=69 velocity=127 time=1
note_on channel=0 note=69 velocity=0 time=14
note_on channel=0 note=67 velocity=127 time=1
note_on channel=0 note=67 velocity=0 time=14
note_on channel=0 note=69 velocity=127 time=1
note_on channel=0 note=69 velocity=0 time=14
note_on channel=0 note=67 velocity=127 time=1
note_on channel=0 note=67 velocity=0 time=14
note_on channel=0 note=69 velocity=127 time=1
note_on channel=0 note=69 velocity=0 time=14
note_on channel=0 note=67 velocity=127 time=1
note_on channel=0 note=67 velocity=0 time=14
note_on channel=0 note=69 velocity=127 time=1
note_on channel=0 note=69 velocity=0 time=14
note_on channel=0 note=67 velocity=127 time=1
note_on channel=0 note=67 velocity=0 time=14
note_on channel=0 note=69 velocity=127 time=1
note_on channel=0 note=69 velocity=0 time=14
note_on channel=0 note=67 velocity=127 time=1
note_on channel=0 note=67 velocity=0 time=14
note_on channel=0 note=69 velocity=127 time=1
note_on channel=0 note=69 velocity=0 time=14
note_on channel=0 note=67 velocity=127 time=1
note_on channel=0 note=67 velocity=0 time=14
note_on channel=0 note=69 velocity=127 time=1
note_on channel=0 note=69 velocity=0 time=14
note_on channel=0 note=67 velocity=127 time=1
note_on channel=0 note=67 velocity=0 time=14
note_on channel=0 note=69 velocity=127 time=1
note_on channel=0 note=69 velocity=0 time=14
note_on channel=0 note=67 velocity=127 time=1
note_on channel=0 note=67 velocity=0 time=14
note_on channel=0 note=69 velocity=127 time=1
note_on channel=0 note=69 velocity=0 time=14
note_on channel=0 note=67 velocity=127 time=1
note_on channel=0 note=67 velocity=0 time=14
note_on channel=0 note=69 velocity=127 time=1
note_on channel=0 note=69 velocity=0 time=14
note_on channel=0 note=67 velocity=127 time=1
note_on channel=0 note=67 velocity=0 time=14
note_on channel=0 note=69 velocity=127 time=1
note_on channel=0 note=69 velocity=0 time=14
note_on channel=0 note=67 velocity=127 time=1
note_on channel=0 note=67 velocity=0 time=14
note_on channel=0 note=69 velocity=127 time=1
note_on channel=0 note=69 velocity=0 time=14
note_on channel=0 note=67 velocity=127 time=1
note_on channel=0 note=67 velocity=0 time=14
note_on channel=0 note=69 velocity=127 time=1
note_on channel=0 note=69 velocity=0 time=14
note_on channel=0 note=67 velocity=127 time=1
note_on channel=0 note=67 velocity=0 time=14
note_on channel=0 note=69 velocity=127 time=1
note_on channel=0 note=69 velocity=0 time=14
note_on channel=0 note=67 velocity=127 time=1
note_on channel=0 note=67 velocity=0 time=14
note_on channel=0 note=69 velocity=127 time=1
note_on channel=0 note=69 velocity=0 time=14
note_on channel=0 note=67 velocity=127 time=1
note_on channel=0 note=67 velocity=0 time=14
note_on channel=0 note=69 velocity=127 time=1
note_on channel=0 note=69 velocity=0 time=14
note_on channel=0 note=67 velocity=127 time=1
note_on channel=0 note=67 velocity=0 time=29
note_on channel=0 note=67 velocity=127 time=1
note_on channel=0 note=67 velocity=0 time=29
note_on channel=0 note=65 velocity=127 time=1
note_on channel=0 note=65 velocity=0 time=29
note_on channel=0 note=67 velocity=127 time=1
note_on channel=0 note=67 velocity=0 time=29
note_on channel=0 note=63 velocity=127 time=1
note_on channel=0 note=63 velocity=0 time=29
note_on channel=0 note=67 velocity=127 time=1
note_on channel=0 note=67 velocity=0 time=29
note_on channel=0 note=62 velocity=127 time=1
note_on channel=0 note=62 velocity=0 time=29
note_on channel=0 note=67 velocity=127 time=1
note_on channel=0 note=67 velocity=0 time=29
note_on channel=0 note=60 velocity=127 time=1
note_on channel=0 note=60 velocity=0 time=29
note_on channel=0 note=67 velocity=127 time=1
note_on channel=0 note=67 velocity=0 time=29
note_on channel=0 note=59 velocity=127 time=1
note_on channel=0 note=59 velocity=0 time=29
note_on channel=0 note=67 velocity=127 time=1
note_on channel=0 note=67 velocity=0 time=29
note_on channel=0 note=60 velocity=127 time=1
note_on channel=0 note=60 velocity=0 time=29
note_on channel=0 note=67 velocity=127 time=1
note_on channel=0 note=67 velocity=0 time=29
note_on channel=0 note=62 velocity=127 time=1
note_on channel=0 note=62 velocity=0 time=29
note_on channel=0 note=67 velocity=127 time=1
note_on channel=0 note=67 velocity=0 time=29
note_on channel=0 note=63 velocity=127 time=1
note_on channel=0 note=63 velocity=0 time=29
note_on channel=0 note=67 velocity=127 time=1
note_on channel=0 note=67 velocity=0 time=29
note_on channel=0 note=55 velocity=127 time=1
note_on channel=0 note=55 velocity=0 time=29
note_on channel=0 note=67 velocity=127 time=1
note_on channel=0 note=67 velocity=0 time=29
note_on channel=0 note=57 velocity=127 time=1
note_on channel=0 note=57 velocity=0 time=29
note_on channel=0 note=67 velocity=127 time=1
note_on channel=0 note=67 velocity=0 time=29
note_on channel=0 note=59 velocity=127 time=1
note_on channel=0 note=59 velocity=0 time=29
note_on channel=0 note=67 velocity=127 time=1
note_on channel=0 note=67 velocity=0 time=29
note_on channel=0 note=60 velocity=127 time=1
note_on channel=0 note=60 velocity=0 time=29
note_on channel=0 note=67 velocity=127 time=1
note_on channel=0 note=67 velocity=0 time=29
note_on channel=0 note=59 velocity=127 time=1
note_on channel=0 note=59 velocity=0 time=29
note_on channel=0 note=67 velocity=127 time=1
note_on channel=0 note=67 velocity=0 time=29
note_on channel=0 note=60 velocity=127 time=1
note_on channel=0 note=60 velocity=0 time=29
note_on channel=0 note=67 velocity=127 time=1
note_on channel=0 note=67 velocity=0 time=29
note_on channel=0 note=62 velocity=127 time=1
note_on channel=0 note=62 velocity=0 time=29
note_on channel=0 note=67 velocity=127 time=1
note_on channel=0 note=67 velocity=0 time=29
note_on channel=0 note=63 velocity=127 time=1
note_on channel=0 note=63 velocity=0 time=59
note_on channel=0 note=62 velocity=127 time=1
note_on channel=0 note=62 velocity=0 time=59
note_on channel=0 note=67 velocity=127 time=1
note_on channel=0 note=67 velocity=0 time=29
note_on channel=0 note=68 velocity=127 time=1
note_on channel=0 note=68 velocity=0 time=29
note_on channel=0 note=65 velocity=127 time=1
note_on channel=0 note=65 velocity=0 time=29
note_on channel=0 note=67 velocity=127 time=1
note_on channel=0 note=67 velocity=0 time=29
note_on channel=0 note=63 velocity=127 time=1
note_on channel=0 note=63 velocity=0 time=59
note_on channel=0 note=60 velocity=127 time=1
note_on channel=0 note=60 velocity=0 time=59
note_on channel=0 note=65 velocity=127 time=1
note_on channel=0 note=65 velocity=0 time=29
note_on channel=0 note=67 velocity=127 time=1
note_on channel=0 note=67 velocity=0 time=29
note_on channel=0 note=63 velocity=127 time=1
note_on channel=0 note=63 velocity=0 time=29
note_on channel=0 note=65 velocity=127 time=1
note_on channel=0 note=65 velocity=0 time=29
note_on channel=0 note=62 velocity=127 time=1
note_on channel=0 note=62 velocity=0 time=59
note_on channel=0 note=58 velocity=127 time=1
note_on channel=0 note=58 velocity=0 time=59
note_on channel=0 note=63 velocity=127 time=1
note_on channel=0 note=63 velocity=0 time=29
note_on channel=0 note=65 velocity=127 time=1
note_on channel=0 note=65 velocity=0 time=29
note_on channel=0 note=62 velocity=127 time=1
note_on channel=0 note=62 velocity=0 time=29
note_on channel=0 note=63 velocity=127 time=1
note_on channel=0 note=63 velocity=0 time=29
note_on channel=0 note=60 velocity=127 time=1
note_on channel=0 note=60 velocity=0 time=59
note_on channel=0 note=66 velocity=127 time=1
note_on channel=0 note=66 velocity=0 time=59
note_on channel=0 note=67 velocity=127 time=1
note_on channel=0 note=67 velocity=0 time=29
note_on channel=0 note=69 velocity=127 time=1
note_on channel=0 note=69 velocity=0 time=29
note_on channel=0 note=65 velocity=127 time=1
note_on channel=0 note=65 velocity=0 time=29
note_on channel=0 note=67 velocity=127 time=1
note_on channel=0 note=67 velocity=0 time=29
note_on channel=0 note=63 velocity=127 time=1
note_on channel=0 note=63 velocity=0 time=29
note_on channel=0 note=67 velocity=127 time=1
note_on channel=0 note=67 velocity=0 time=29
note_on channel=0 note=66 velocity=127 time=1
note_on channel=0 note=66 velocity=0 time=29
note_on channel=0 note=67 velocity=127 time=1
note_on channel=0 note=67 velocity=0 time=29
note_on channel=0 note=69 velocity=127 time=1
note_on channel=0 note=69 velocity=0 time=29
note_on channel=0 note=67 velocity=127 time=1
note_on channel=0 note=67 velocity=0 time=29
note_on channel=0 note=66 velocity=127 time=1
note_on channel=0 note=66 velocity=0 time=29
note_on channel=0 note=64 velocity=127 time=1
note_on channel=0 note=64 velocity=0 time=29
note_on channel=0 note=62 velocity=127 time=31
note_on channel=0 note=62 velocity=0 time=29
note_on channel=0 note=60 velocity=127 time=1
note_on channel=0 note=60 velocity=0 time=29
note_on channel=0 note=62 velocity=127 time=1
note_on channel=0 note=62 velocity=0 time=29
note_on channel=0 note=58 velocity=127 time=1
note_on channel=0 note=58 velocity=0 time=29
note_on channel=0 note=62 velocity=127 time=1
note_on channel=0 note=62 velocity=0 time=29
note_on channel=0 note=57 velocity=127 time=1
note_on channel=0 note=57 velocity=0 time=29
note_on channel=0 note=62 velocity=127 time=1
note_on channel=0 note=62 velocity=0 time=29
note_on channel=0 note=55 velocity=127 time=1
note_on channel=0 note=55 velocity=0 time=29
note_on channel=0 note=62 velocity=127 time=1
note_on channel=0 note=62 velocity=0 time=29
note_on channel=0 note=54 velocity=127 time=1
note_on channel=0 note=54 velocity=0 time=29
note_on channel=0 note=62 velocity=127 time=1
note_on channel=0 note=62 velocity=0 time=29
note_on channel=0 note=55 velocity=127 time=1
note_on channel=0 note=55 velocity=0 time=29
note_on channel=0 note=62 velocity=127 time=1
note_on channel=0 note=62 velocity=0 time=29
note_on channel=0 note=57 velocity=127 time=1
note_on channel=0 note=57 velocity=0 time=29
note_on channel=0 note=62 velocity=127 time=1
note_on channel=0 note=62 velocity=0 time=29
note_on channel=0 note=58 velocity=127 time=1
note_on channel=0 note=58 velocity=0 time=29
note_on channel=0 note=62 velocity=127 time=1
note_on channel=0 note=62 velocity=0 time=29
note_on channel=0 note=50 velocity=127 time=1
note_on channel=0 note=50 velocity=0 time=29
note_on channel=0 note=62 velocity=127 time=1
note_on channel=0 note=62 velocity=0 time=29
note_on channel=0 note=52 velocity=127 time=1
note_on channel=0 note=52 velocity=0 time=29
note_on channel=0 note=62 velocity=127 time=1
note_on channel=0 note=62 velocity=0 time=29
note_on channel=0 note=54 velocity=127 time=1
note_on channel=0 note=54 velocity=0 time=29
note_on channel=0 note=62 velocity=127 time=1
note_on channel=0 note=62 velocity=0 time=29
note_on channel=0 note=55 velocity=127 time=1
note_on channel=0 note=55 velocity=0 time=29
note_on channel=0 note=62 velocity=127 time=1
note_on channel=0 note=62 velocity=0 time=29
note_on channel=0 note=54 velocity=127 time=1
note_on channel=0 note=54 velocity=0 time=29
note_on channel=0 note=62 velocity=127 time=1
note_on channel=0 note=62 velocity=0 time=29
note_on channel=0 note=55 velocity=127 time=1
note_on channel=0 note=55 velocity=0 time=29
note_on channel=0 note=62 velocity=127 time=1
note_on channel=0 note=62 velocity=0 time=29
note_on channel=0 note=57 velocity=127 time=1
note_on channel=0 note=57 velocity=0 time=29
note_on channel=0 note=62 velocity=127 time=1
note_on channel=0 note=62 velocity=0 time=29
note_on channel=0 note=58 velocity=127 time=1
note_on channel=0 note=58 velocity=0 time=59
note_on channel=0 note=57 velocity=127 time=1
note_on channel=0 note=57 velocity=0 time=59
note_on channel=0 note=55 velocity=127 time=1
note_on channel=0 note=55 velocity=0 time=239
note_on channel=0 note=54 velocity=127 time=1
note_on channel=0 note=54 velocity=0 time=119
note_on channel=0 note=55 velocity=127 time=1
note_on channel=0 note=55 velocity=0 time=59
note_on channel=0 note=57 velocity=127 time=1
note_on channel=0 note=57 velocity=0 time=59
note_on channel=0 note=58 velocity=127 time=1
note_on channel=0 note=58 velocity=0 time=29
note_on channel=0 note=57 velocity=127 time=1
note_on channel=0 note=57 velocity=0 time=29
note_on channel=0 note=55 velocity=127 time=1
note_on channel=0 note=55 velocity=0 time=29
note_on channel=0 note=53 velocity=127 time=1
note_on channel=0 note=53 velocity=0 time=29
note_on channel=0 note=51 velocity=127 time=1
note_on channel=0 note=51 velocity=0 time=59
note_on channel=0 note=63 velocity=127 time=1
note_on channel=0 note=63 velocity=0 time=59
note_on channel=0 note=62 velocity=127 time=1
note_on channel=0 note=62 velocity=0 time=119
note_on channel=0 note=60 velocity=127 time=1
note_on channel=0 note=60 velocity=0 time=59
note_on channel=0 note=62 velocity=127 time=1
note_on channel=0 note=62 velocity=0 time=59
note_on channel=0 note=63 velocity=127 time=1
note_on channel=0 note=63 velocity=0 time=29
note_on channel=0 note=65 velocity=127 time=1
note_on channel=0 note=65 velocity=0 time=29
note_on channel=0 note=62 velocity=127 time=1
note_on channel=0 note=62 velocity=0 time=29
note_on channel=0 note=63 velocity=127 time=1
note_on channel=0 note=63 velocity=0 time=29
note_on channel=0 note=60 velocity=127 time=1
note_on channel=0 note=60 velocity=0 time=29
note_on channel=0 note=63 velocity=127 time=1
note_on channel=0 note=63 velocity=0 time=29
note_on channel=0 note=62 velocity=127 time=1
note_on channel=0 note=62 velocity=0 time=29
note_on channel=0 note=65 velocity=127 time=1
note_on channel=0 note=65 velocity=0 time=29
note_on channel=0 note=69 velocity=127 time=1
note_on channel=0 note=69 velocity=0 time=29
note_on channel=0 note=67 velocity=127 time=1
note_on channel=0 note=67 velocity=0 time=29
note_on channel=0 note=65 velocity=127 time=1
note_on channel=0 note=65 velocity=0 time=29
note_on channel=0 note=67 velocity=127 time=1
note_on channel=0 note=67 velocity=0 time=29
note_on channel=0 note=62 velocity=127 time=1
note_on channel=0 note=62 velocity=0 time=29
note_on channel=0 note=58 velocity=127 time=1
note_on channel=0 note=58 velocity=0 time=29
note_on channel=0 note=63 velocity=127 time=1
note_on channel=0 note=63 velocity=0 time=29
note_on channel=0 note=62 velocity=127 time=1
note_on channel=0 note=62 velocity=0 time=29
note_on channel=0 note=61 velocity=127 time=1
note_on channel=0 note=61 velocity=0 time=29
note_on channel=0 note=57 velocity=127 time=1
note_on channel=0 note=57 velocity=0 time=29
note_on channel=0 note=62 velocity=127 time=1
note_on channel=0 note=62 velocity=0 time=29
note_on channel=0 note=60 velocity=127 time=1
note_on channel=0 note=60 velocity=0 time=29
note_on channel=0 note=59 velocity=127 time=1
note_on channel=0 note=59 velocity=0 time=29
note_on channel=0 note=55 velocity=127 time=1
note_on channel=0 note=55 velocity=0 time=29
note_on channel=0 note=60 velocity=127 time=1
note_on channel=0 note=60 velocity=0 time=29
note_on channel=0 note=58 velocity=127 time=1
note_on channel=0 note=58 velocity=0 time=29
note_on channel=0 note=57 velocity=127 time=1
note_on channel=0 note=57 velocity=0 time=29
note_on channel=0 note=53 velocity=127 time=1
note_on channel=0 note=53 velocity=0 time=29
note_on channel=0 note=58 velocity=127 time=1
note_on channel=0 note=58 velocity=0 time=29
note_on channel=0 note=62 velocity=127 time=1
note_on channel=0 note=62 velocity=0 time=29
note_on channel=0 note=60 velocity=127 time=1
note_on channel=0 note=60 velocity=0 time=29
note_on channel=0 note=62 velocity=127 time=1
note_on channel=0 note=62 velocity=0 time=29
note_on channel=0 note=60 velocity=127 time=1
note_on channel=0 note=60 velocity=0 time=29
note_on channel=0 note=58 velocity=127 time=1
note_on channel=0 note=58 velocity=0 time=29
note_on channel=0 note=57 velocity=127 time=1
note_on channel=0 note=57 velocity=0 time=29
note_on channel=0 note=60 velocity=127 time=1
note_on channel=0 note=60 velocity=0 time=29
note_on channel=0 note=58 velocity=127 time=1
note_on channel=0 note=58 velocity=0 time=29
note_on channel=0 note=57 velocity=127 time=1
note_on channel=0 note=57 velocity=0 time=29
note_on channel=0 note=55 velocity=127 time=1
note_on channel=0 note=55 velocity=0 time=29
note_on channel=0 note=60 velocity=127 time=1
note_on channel=0 note=60 velocity=0 time=29
note_on channel=0 note=58 velocity=127 time=1
note_on channel=0 note=58 velocity=0 time=29
note_on channel=0 note=57 velocity=127 time=1
note_on channel=0 note=57 velocity=0 time=29
note_on channel=0 note=58 velocity=127 time=1
note_on channel=0 note=58 velocity=0 time=29
note_on channel=0 note=60 velocity=127 time=1
note_on channel=0 note=60 velocity=0 time=29
note_on channel=0 note=58 velocity=127 time=1
note_on channel=0 note=58 velocity=0 time=29
note_on channel=0 note=57 velocity=127 time=1
note_on channel=0 note=57 velocity=0 time=29
note_on channel=0 note=55 velocity=127 time=1
note_on channel=0 note=55 velocity=0 time=29
note_on channel=0 note=57 velocity=127 time=1
note_on channel=0 note=57 velocity=0 time=29
note_on channel=0 note=53 velocity=127 time=1
note_on channel=0 note=53 velocity=0 time=29
note_on channel=0 note=55 velocity=127 time=1
note_on channel=0 note=55 velocity=0 time=29
note_on channel=0 note=52 velocity=127 time=1
note_on channel=0 note=52 velocity=0 time=119
note_on channel=0 note=54 velocity=127 time=1
note_on channel=0 note=54 velocity=0 time=119
note_on channel=0 note=50 velocity=127 time=1
note_on channel=0 note=50 velocity=0 time=119
note_on channel=0 note=55 velocity=127 time=1
note_on channel=0 note=55 velocity=0 time=119
note_on channel=0 note=57 velocity=127 time=1
note_on channel=0 note=57 velocity=0 time=29
note_on channel=0 note=58 velocity=127 time=1
note_on channel=0 note=58 velocity=0 time=29
note_on channel=0 note=57 velocity=127 time=1
note_on channel=0 note=57 velocity=0 time=29
note_on channel=0 note=55 velocity=127 time=1
note_on channel=0 note=55 velocity=0 time=29
note_on channel=0 note=53 velocity=127 time=1
note_on channel=0 note=53 velocity=0 time=29
note_on channel=0 note=55 velocity=127 time=1
note_on channel=0 note=55 velocity=0 time=29
note_on channel=0 note=52 velocity=127 time=1
note_on channel=0 note=52 velocity=0 time=29
note_on channel=0 note=57 velocity=127 time=1
note_on channel=0 note=57 velocity=0 time=29
note_on channel=0 note=50 velocity=127 time=1
note_on channel=0 note=50 velocity=0 time=119
note_on channel=0 note=58 velocity=127 time=481
note_on channel=0 note=58 velocity=0 time=29
note_on channel=0 note=57 velocity=127 time=1
note_on channel=0 note=57 velocity=0 time=29
note_on channel=0 note=55 velocity=127 time=1
note_on channel=0 note=55 velocity=0 time=29
note_on channel=0 note=53 velocity=127 time=1
note_on channel=0 note=53 velocity=0 time=29
note_on channel=0 note=52 velocity=127 time=1
note_on channel=0 note=52 velocity=0 time=29
note_on channel=0 note=53 velocity=127 time=1
note_on channel=0 note=53 velocity=0 time=29
note_on channel=0 note=52 velocity=127 time=1
note_on channel=0 note=52 velocity=0 time=29
note_on channel=0 note=50 velocity=127 time=1
note_on channel=0 note=50 velocity=0 time=29
note_on channel=0 note=49 velocity=127 time=1
note_on channel=0 note=49 velocity=0 time=29
note_on channel=0 note=45 velocity=127 time=1
note_on channel=0 note=45 velocity=0 time=29
note_on channel=0 note=50 velocity=127 time=1
note_on channel=0 note=50 velocity=0 time=29
note_on channel=0 note=45 velocity=127 time=1
note_on channel=0 note=45 velocity=0 time=29
note_on channel=0 note=52 velocity=127 time=1
note_on channel=0 note=52 velocity=0 time=29
note_on channel=0 note=45 velocity=127 time=1
note_on channel=0 note=45 velocity=0 time=29
note_on channel=0 note=53 velocity=127 time=1
note_on channel=0 note=53 velocity=0 time=29
note_on channel=0 note=45 velocity=127 time=1
note_on channel=0 note=45 velocity=0 time=29
note_on channel=0 note=55 velocity=127 time=1
note_on channel=0 note=55 velocity=0 time=29
note_on channel=0 note=45 velocity=127 time=1
note_on channel=0 note=45 velocity=0 time=29
note_on channel=0 note=53 velocity=127 time=1
note_on channel=0 note=53 velocity=0 time=29
note_on channel=0 note=45 velocity=127 time=1
note_on channel=0 note=45 velocity=0 time=29
note_on channel=0 note=52 velocity=127 time=1
note_on channel=0 note=52 velocity=0 time=29
note_on channel=0 note=45 velocity=127 time=1
note_on channel=0 note=45 velocity=0 time=29
note_on channel=0 note=50 velocity=127 time=1
note_on channel=0 note=50 velocity=0 time=29
note_on channel=0 note=45 velocity=127 time=1
note_on channel=0 note=45 velocity=0 time=29
note_on channel=0 note=49 velocity=127 time=1
note_on channel=0 note=49 velocity=0 time=29
note_on channel=0 note=57 velocity=127 time=1
note_on channel=0 note=57 velocity=0 time=29
note_on channel=0 note=45 velocity=127 time=1
note_on channel=0 note=45 velocity=0 time=29
note_on channel=0 note=57 velocity=127 time=1
note_on channel=0 note=57 velocity=0 time=29
note_on channel=0 note=50 velocity=127 time=1
note_on channel=0 note=50 velocity=0 time=29
note_on channel=0 note=57 velocity=127 time=1
note_on channel=0 note=57 velocity=0 time=29
note_on channel=0 note=53 velocity=127 time=1
note_on channel=0 note=53 velocity=0 time=29
note_on channel=0 note=62 velocity=127 time=1
note_on channel=0 note=62 velocity=0 time=29
note_on channel=0 note=55 velocity=127 time=1
note_on channel=0 note=55 velocity=0 time=29
note_on channel=0 note=62 velocity=127 time=1
note_on channel=0 note=62 velocity=0 time=29
note_on channel=0 note=52 velocity=127 time=1
note_on channel=0 note=52 velocity=0 time=29
note_on channel=0 note=61 velocity=127 time=1
note_on channel=0 note=61 velocity=0 time=29
note_on channel=0 note=53 velocity=127 time=1
note_on channel=0 note=53 velocity=0 time=29
note_on channel=0 note=62 velocity=127 time=1
note_on channel=0 note=62 velocity=0 time=29
note_on channel=0 note=50 velocity=127 time=1
note_on channel=0 note=50 velocity=0 time=29
note_on channel=0 note=62 velocity=127 time=1
note_on channel=0 note=62 velocity=0 time=29
note_on channel=0 note=64 velocity=127 time=1
note_on channel=0 note=64 velocity=0 time=29
note_on channel=0 note=69 velocity=127 time=1
note_on channel=0 note=69 velocity=0 time=29
note_on channel=0 note=67 velocity=127 time=1
note_on channel=0 note=67 velocity=0 time=29
note_on channel=0 note=69 velocity=127 time=1
note_on channel=0 note=69 velocity=0 time=29
note_on channel=0 note=65 velocity=127 time=1
note_on channel=0 note=65 velocity=0 time=29
note_on channel=0 note=69 velocity=127 time=1
note_on channel=0 note=69 velocity=0 time=29
note_on channel=0 note=64 velocity=127 time=1
note_on channel=0 note=64 velocity=0 time=29
note_on channel=0 note=69 velocity=127 time=1
note_on channel=0 note=69 velocity=0 time=29
note_on channel=0 note=62 velocity=127 time=1
note_on channel=0 note=62 velocity=0 time=29
note_on channel=0 note=69 velocity=127 time=1
note_on channel=0 note=69 velocity=0 time=29
note_on channel=0 note=61 velocity=127 time=1
note_on channel=0 note=61 velocity=0 time=29
note_on channel=0 note=69 velocity=127 time=1
note_on channel=0 note=69 velocity=0 time=29
note_on channel=0 note=62 velocity=127 time=1
note_on channel=0 note=62 velocity=0 time=29
note_on channel=0 note=69 velocity=127 time=1
note_on channel=0 note=69 velocity=0 time=29
note_on channel=0 note=64 velocity=127 time=1
note_on channel=0 note=64 velocity=0 time=29
note_on channel=0 note=69 velocity=127 time=1
note_on channel=0 note=69 velocity=0 time=29
note_on channel=0 note=65 velocity=127 time=1
note_on channel=0 note=65 velocity=0 time=29
note_on channel=0 note=69 velocity=127 time=1
note_on channel=0 note=69 velocity=0 time=29
note_on channel=0 note=57 velocity=127 time=1
note_on channel=0 note=57 velocity=0 time=29
note_on channel=0 note=69 velocity=127 time=1
note_on channel=0 note=69 velocity=0 time=29
note_on channel=0 note=59 velocity=127 time=1
note_on channel=0 note=59 velocity=0 time=29
note_on channel=0 note=69 velocity=127 time=1
note_on channel=0 note=69 velocity=0 time=29
note_on channel=0 note=61 velocity=127 time=1
note_on channel=0 note=61 velocity=0 time=29
note_on channel=0 note=69 velocity=127 time=1
note_on channel=0 note=69 velocity=0 time=29
note_on channel=0 note=62 velocity=127 time=1
note_on channel=0 note=62 velocity=0 time=29
note_on channel=0 note=69 velocity=127 time=1
note_on channel=0 note=69 velocity=0 time=29
note_on channel=0 note=61 velocity=127 time=1
note_on channel=0 note=61 velocity=0 time=29
note_on channel=0 note=69 velocity=127 time=1
note_on channel=0 note=69 velocity=0 time=29
note_on channel=0 note=62 velocity=127 time=1
note_on channel=0 note=62 velocity=0 time=29
note_on channel=0 note=69 velocity=127 time=1
note_on channel=0 note=69 velocity=0 time=29
note_on channel=0 note=64 velocity=127 time=1
note_on channel=0 note=64 velocity=0 time=29
note_on channel=0 note=69 velocity=127 time=1
note_on channel=0 note=69 velocity=0 time=29
note_on channel=0 note=65 velocity=127 time=1
note_on channel=0 note=65 velocity=0 time=59
note_on channel=0 note=64 velocity=127 time=1
note_on channel=0 note=64 velocity=0 time=59
note_on channel=0 note=62 velocity=127 time=1
note_on channel=0 note=62 velocity=0 time=59
note_on channel=0 note=67 velocity=127 time=1
note_on channel=0 note=67 velocity=0 time=59
note_on channel=0 note=65 velocity=127 time=1
note_on channel=0 note=65 velocity=0 time=59
note_on channel=0 note=64 velocity=127 time=1
note_on channel=0 note=64 velocity=0 time=59
note_on channel=0 note=65 velocity=127 time=1
note_on channel=0 note=65 velocity=0 time=59
note_on channel=0 note=61 velocity=127 time=1
note_on channel=0 note=61 velocity=0 time=59
note_on channel=0 note=62 velocity=127 time=1
note_on channel=0 note=62 velocity=0 time=59
note_on channel=0 note=61 velocity=127 time=1
note_on channel=0 note=61 velocity=0 time=59
note_on channel=0 note=62 velocity=127 time=1
note_on channel=0 note=62 velocity=0 time=59
note_on channel=0 note=59 velocity=127 time=1
note_on channel=0 note=59 velocity=0 time=59
note_on channel=0 note=61 velocity=127 time=1
note_on channel=0 note=61 velocity=0 time=59
note_on channel=0 note=67 velocity=127 time=1
note_on channel=0 note=67 velocity=0 time=59
note_on channel=0 note=65 velocity=127 time=1
note_on channel=0 note=65 velocity=0 time=59
note_on channel=0 note=62 velocity=127 time=1
note_on channel=0 note=62 velocity=0 time=59
note_on channel=0 note=61 velocity=127 time=1
note_on channel=0 note=61 velocity=0 time=119
note_on channel=0 note=67 velocity=127 time=871
note_on channel=0 note=67 velocity=0 time=29
note_on channel=0 note=65 velocity=127 time=1
note_on channel=0 note=65 velocity=0 time=29
note_on channel=0 note=64 velocity=127 time=1
note_on channel=0 note=64 velocity=0 time=29
note_on channel=0 note=65 velocity=127 time=1
note_on channel=0 note=65 velocity=0 time=29
note_on channel=0 note=61 velocity=127 time=1
note_on channel=0 note=61 velocity=0 time=29
note_on channel=0 note=62 velocity=127 time=1
note_on channel=0 note=62 velocity=0 time=179
note_on channel=0 note=61 velocity=127 time=1
note_on channel=0 note=61 velocity=0 time=119
note_on channel=0 note=62 velocity=127 time=1
note_on channel=0 note=62 velocity=0 time=29
note_on channel=0 note=69 velocity=127 time=1
note_on channel=0 note=69 velocity=0 time=29
note_on channel=0 note=71 velocity=127 time=1
note_on channel=0 note=71 velocity=0 time=29
note_on channel=0 note=73 velocity=127 time=1
note_on channel=0 note=73 velocity=0 time=29
note_on channel=0 note=74 velocity=127 time=1
note_on channel=0 note=74 velocity=0 time=59
note_on channel=0 note=72 velocity=127 time=1
note_on channel=0 note=72 velocity=0 time=59
note_on channel=0 note=65 velocity=127 time=1
note_on channel=0 note=65 velocity=0 time=179
note_on channel=0 note=63 velocity=127 time=1
note_on channel=0 note=63 velocity=0 time=89
note_on channel=0 note=60 velocity=127 time=1
note_on channel=0 note=60 velocity=0 time=29
note_on channel=0 note=57 velocity=127 time=1
note_on channel=0 note=57 velocity=0 time=29
note_on channel=0 note=53 velocity=127 time=1
note_on channel=0 note=53 velocity=0 time=29
note_on channel=0 note=57 velocity=127 time=1
note_on channel=0 note=57 velocity=0 time=29
note_on channel=0 note=60 velocity=127 time=1
note_on channel=0 note=60 velocity=0 time=29
note_on channel=0 note=63 velocity=127 time=1
note_on channel=0 note=63 velocity=0 time=29
note_on channel=0 note=60 velocity=127 time=1
note_on channel=0 note=60 velocity=0 time=29
note_on channel=0 note=62 velocity=127 time=1
note_on channel=0 note=62 velocity=0 time=29
note_on channel=0 note=58 velocity=127 time=1
note_on channel=0 note=58 velocity=0 time=29
note_on channel=0 note=55 velocity=127 time=1
note_on channel=0 note=55 velocity=0 time=29
note_on channel=0 note=50 velocity=127 time=1
note_on channel=0 note=50 velocity=0 time=29
note_on channel=0 note=55 velocity=127 time=1
note_on channel=0 note=55 velocity=0 time=29
note_on channel=0 note=58 velocity=127 time=1
note_on channel=0 note=58 velocity=0 time=29
note_on channel=0 note=62 velocity=127 time=1
note_on channel=0 note=62 velocity=0 time=29
note_on channel=0 note=67 velocity=127 time=1
note_on channel=0 note=67 velocity=0 time=29
note_on channel=0 note=60 velocity=127 time=1
note_on channel=0 note=60 velocity=0 time=29
note_on channel=0 note=62 velocity=127 time=1
note_on channel=0 note=62 velocity=0 time=29
note_on channel=0 note=58 velocity=127 time=1
note_on channel=0 note=58 velocity=0 time=29
note_on channel=0 note=60 velocity=127 time=1
note_on channel=0 note=60 velocity=0 time=29
note_on channel=0 note=57 velocity=127 time=1
note_on channel=0 note=57 velocity=0 time=29
note_on channel=0 note=55 velocity=127 time=1
note_on channel=0 note=55 velocity=0 time=29
note_on channel=0 note=54 velocity=127 time=1
note_on channel=0 note=54 velocity=0 time=29
note_on channel=0 note=52 velocity=127 time=1
note_on channel=0 note=52 velocity=0 time=29
note_on channel=0 note=54 velocity=127 time=1
note_on channel=0 note=54 velocity=0 time=29
note_on channel=0 note=50 velocity=127 time=1
note_on channel=0 note=50 velocity=0 time=29
note_on channel=0 note=54 velocity=127 time=1
note_on channel=0 note=54 velocity=0 time=29
note_on channel=0 note=55 velocity=127 time=1
note_on channel=0 note=55 velocity=0 time=29
note_on channel=0 note=54 velocity=127 time=121
note_on channel=0 note=54 velocity=0 time=29
note_on channel=0 note=50 velocity=127 time=1
note_on channel=0 note=50 velocity=0 time=29
note_on channel=0 note=54 velocity=127 time=1
note_on channel=0 note=54 velocity=0 time=29
note_on channel=0 note=55 velocity=127 time=1
note_on channel=0 note=55 velocity=0 time=29
note_on channel=0 note=55 velocity=127 time=121
note_on channel=0 note=55 velocity=0 time=29
note_on channel=0 note=50 velocity=127 time=1
note_on channel=0 note=50 velocity=0 time=29
note_on channel=0 note=55 velocity=127 time=1
note_on channel=0 note=55 velocity=0 time=29
note_on channel=0 note=57 velocity=127 time=1
note_on channel=0 note=57 velocity=0 time=29
note_on channel=0 note=55 velocity=127 time=121
note_on channel=0 note=55 velocity=0 time=29
note_on channel=0 note=50 velocity=127 time=1
note_on channel=0 note=50 velocity=0 time=29
note_on channel=0 note=55 velocity=127 time=1
note_on channel=0 note=55 velocity=0 time=29
note_on channel=0 note=57 velocity=127 time=1
note_on channel=0 note=57 velocity=0 time=29
note_on channel=0 note=57 velocity=127 time=121
note_on channel=0 note=57 velocity=0 time=29
note_on channel=0 note=54 velocity=127 time=1
note_on channel=0 note=54 velocity=0 time=29
note_on channel=0 note=57 velocity=127 time=1
note_on channel=0 note=57 velocity=0 time=29
note_on channel=0 note=58 velocity=127 time=1
note_on channel=0 note=58 velocity=0 time=29
note_on channel=0 note=57 velocity=127 time=121
note_on channel=0 note=57 velocity=0 time=29
note_on channel=0 note=54 velocity=127 time=1
note_on channel=0 note=54 velocity=0 time=29
note_on channel=0 note=57 velocity=127 time=1
note_on channel=0 note=57 velocity=0 time=29
note_on channel=0 note=58 velocity=127 time=1
note_on channel=0 note=58 velocity=0 time=29
note_on channel=0 note=57 velocity=127 time=121
note_on channel=0 note=57 velocity=0 time=29
note_on channel=0 note=58 velocity=127 time=1
note_on channel=0 note=58 velocity=0 time=29
note_on channel=0 note=62 velocity=127 time=1
note_on channel=0 note=62 velocity=0 time=29
note_on channel=0 note=66 velocity=127 time=1
note_on channel=0 note=66 velocity=0 time=29
note_on channel=0 note=58 velocity=127 time=121
note_on channel=0 note=58 velocity=0 time=29
note_on channel=0 note=55 velocity=127 time=1
note_on channel=0 note=55 velocity=0 time=29
note_on channel=0 note=58 velocity=127 time=1
note_on channel=0 note=58 velocity=0 time=29
note_on channel=0 note=62 velocity=127 time=1
note_on channel=0 note=62 velocity=0 time=29
note_on channel=0 note=60 velocity=127 time=121
note_on channel=0 note=60 velocity=0 time=29
note_on channel=0 note=57 velocity=127 time=1
note_on channel=0 note=57 velocity=0 time=29
note_on channel=0 note=60 velocity=127 time=1
note_on channel=0 note=60 velocity=0 time=29
note_on channel=0 note=63 velocity=127 time=1
note_on channel=0 note=63 velocity=0 time=29
note_on channel=0 note=60 velocity=127 time=121
note_on channel=0 note=60 velocity=0 time=29
note_on channel=0 note=57 velocity=127 time=1
note_on channel=0 note=57 velocity=0 time=29
note_on channel=0 note=60 velocity=127 time=1
note_on channel=0 note=60 velocity=0 time=29
note_on channel=0 note=63 velocity=127 time=1
note_on channel=0 note=63 velocity=0 time=29
note_on channel=0 note=54 velocity=127 time=121
note_on channel=0 note=54 velocity=0 time=59
note_on channel=0 note=55 velocity=127 time=61
note_on channel=0 note=55 velocity=0 time=59
note_on channel=0 note=57 velocity=127 time=1
note_on channel=0 note=57 velocity=0 time=59
note_on channel=0 note=58 velocity=127 time=1
note_on channel=0 note=58 velocity=0 time=119
note_on channel=0 note=63 velocity=127 time=1
note_on channel=0 note=63 velocity=0 time=59
note_on channel=0 note=59 velocity=127 time=1
note_on channel=0 note=59 velocity=0 time=59
note_on channel=0 note=55 velocity=127 time=1
note_on channel=0 note=55 velocity=0 time=119
note_on channel=0 note=60 velocity=127 time=1
note_on channel=0 note=60 velocity=0 time=59
note_on channel=0 note=58 velocity=127 time=1
note_on channel=0 note=58 velocity=0 time=59
note_on channel=0 note=57 velocity=127 time=1
note_on channel=0 note=57 velocity=0 time=119
note_on channel=0 note=58 velocity=127 time=1
note_on channel=0 note=58 velocity=0 time=59
note_on channel=0 note=60 velocity=127 time=1
note_on channel=0 note=60 velocity=0 time=59
note_on channel=0 note=62 velocity=127 time=1
note_on channel=0 note=62 velocity=0 time=29
note_on channel=0 note=67 velocity=127 time=1
note_on channel=0 note=67 velocity=0 time=29
note_on channel=0 note=65 velocity=127 time=1
note_on channel=0 note=65 velocity=0 time=29
note_on channel=0 note=63 velocity=127 time=1
note_on channel=0 note=63 velocity=0 time=29
note_on channel=0 note=62 velocity=127 time=1
note_on channel=0 note=62 velocity=0 time=29
note_on channel=0 note=63 velocity=127 time=1
note_on channel=0 note=63 velocity=0 time=29
note_on channel=0 note=62 velocity=127 time=1
note_on channel=0 note=62 velocity=0 time=29
note_on channel=0 note=60 velocity=127 time=1
note_on channel=0 note=60 velocity=0 time=29
note_on channel=0 note=58 velocity=127 time=1
note_on channel=0 note=58 velocity=0 time=29
note_on channel=0 note=63 velocity=127 time=1
note_on channel=0 note=63 velocity=0 time=29
note_on channel=0 note=62 velocity=127 time=1
note_on channel=0 note=62 velocity=0 time=29
note_on channel=0 note=60 velocity=127 time=1
note_on channel=0 note=60 velocity=0 time=29
note_on channel=0 note=58 velocity=127 time=1
note_on channel=0 note=58 velocity=0 time=29
note_on channel=0 note=60 velocity=127 time=1
note_on channel=0 note=60 velocity=0 time=29
note_on channel=0 note=58 velocity=127 time=1
note_on channel=0 note=58 velocity=0 time=29
note_on channel=0 note=57 velocity=127 time=1
note_on channel=0 note=57 velocity=0 time=29
note_on channel=0 note=58 velocity=127 time=1
note_on channel=0 note=58 velocity=0 time=29
note_on channel=0 note=57 velocity=127 time=1
note_on channel=0 note=57 velocity=0 time=29
note_on channel=0 note=55 velocity=127 time=1
note_on channel=0 note=55 velocity=0 time=29
note_on channel=0 note=53 velocity=127 time=1
note_on channel=0 note=53 velocity=0 time=29
note_on channel=0 note=52 velocity=127 time=1
note_on channel=0 note=52 velocity=0 time=59
note_on channel=0 note=55 velocity=127 time=1
note_on channel=0 note=55 velocity=0 time=59
note_on channel=0 note=57 velocity=127 time=1
note_on channel=0 note=57 velocity=0 time=29
note_on channel=0 note=59 velocity=127 time=1
note_on channel=0 note=59 velocity=0 time=29
note_on channel=0 note=61 velocity=127 time=1
note_on channel=0 note=61 velocity=0 time=29
note_on channel=0 note=62 velocity=127 time=1
note_on channel=0 note=62 velocity=0 time=29
note_on channel=0 note=64 velocity=127 time=1
note_on channel=0 note=64 velocity=0 time=29
note_on channel=0 note=65 velocity=127 time=1
note_on channel=0 note=65 velocity=0 time=29
note_on channel=0 note=67 velocity=127 time=1
note_on channel=0 note=67 velocity=0 time=29
note_on channel=0 note=69 velocity=127 time=1
note_on channel=0 note=69 velocity=0 time=29
note_on channel=0 note=70 velocity=127 time=1
note_on channel=0 note=70 velocity=0 time=59
note_on channel=0 note=69 velocity=127 time=1
note_on channel=0 note=69 velocity=0 time=29
note_on channel=0 note=67 velocity=127 time=1
note_on channel=0 note=67 velocity=0 time=29
note_on channel=0 note=65 velocity=127 time=1
note_on channel=0 note=65 velocity=0 time=29
note_on channel=0 note=69 velocity=127 time=1
note_on channel=0 note=69 velocity=0 time=29
note_on channel=0 note=64 velocity=127 time=1
note_on channel=0 note=64 velocity=0 time=29
note_on channel=0 note=69 velocity=127 time=1
note_on channel=0 note=69 velocity=0 time=29
note_on channel=0 note=62 velocity=127 time=1
note_on channel=0 note=62 velocity=0 time=29
note_on channel=0 note=69 velocity=127 time=1
note_on channel=0 note=69 velocity=0 time=29
note_on channel=0 note=61 velocity=127 time=1
note_on channel=0 note=61 velocity=0 time=29
note_on channel=0 note=69 velocity=127 time=1
note_on channel=0 note=69 velocity=0 time=29
note_on channel=0 note=62 velocity=127 time=1
note_on channel=0 note=62 velocity=0 time=29
note_on channel=0 note=69 velocity=127 time=1
note_on channel=0 note=69 velocity=0 time=29
note_on channel=0 note=64 velocity=127 time=1
note_on channel=0 note=64 velocity=0 time=29
note_on channel=0 note=69 velocity=127 time=1
note_on channel=0 note=69 velocity=0 time=29
note_on channel=0 note=65 velocity=127 time=1
note_on channel=0 note=65 velocity=0 time=29
note_on channel=0 note=69 velocity=127 time=1
note_on channel=0 note=69 velocity=0 time=29
note_on channel=0 note=57 velocity=127 time=1
note_on channel=0 note=57 velocity=0 time=29
note_on channel=0 note=69 velocity=127 time=1
note_on channel=0 note=69 velocity=0 time=29
note_on channel=0 note=59 velocity=127 time=1
note_on channel=0 note=59 velocity=0 time=29
note_on channel=0 note=69 velocity=127 time=1
note_on channel=0 note=69 velocity=0 time=29
note_on channel=0 note=61 velocity=127 time=1
note_on channel=0 note=61 velocity=0 time=29
note_on channel=0 note=69 velocity=127 time=1
note_on channel=0 note=69 velocity=0 time=29
note_on channel=0 note=62 velocity=127 time=1
note_on channel=0 note=62 velocity=0 time=29
note_on channel=0 note=69 velocity=127 time=1
note_on channel=0 note=69 velocity=0 time=29
note_on channel=0 note=61 velocity=127 time=1
note_on channel=0 note=61 velocity=0 time=29
note_on channel=0 note=69 velocity=127 time=1
note_on channel=0 note=69 velocity=0 time=29
note_on channel=0 note=62 velocity=127 time=1
note_on channel=0 note=62 velocity=0 time=29
note_on channel=0 note=69 velocity=127 time=1
note_on channel=0 note=69 velocity=0 time=29
note_on channel=0 note=59 velocity=127 time=1
note_on channel=0 note=59 velocity=0 time=29
note_on channel=0 note=69 velocity=127 time=1
note_on channel=0 note=69 velocity=0 time=29
note_on channel=0 note=61 velocity=127 time=1
note_on channel=0 note=61 velocity=0 time=59
note_on channel=0 note=62 velocity=127 time=1
note_on channel=0 note=62 velocity=0 time=59
note_on channel=0 note=67 velocity=127 time=1
note_on channel=0 note=67 velocity=0 time=59
note_on channel=0 note=64 velocity=127 time=1
note_on channel=0 note=64 velocity=0 time=59
note_on channel=0 note=65 velocity=127 time=1
note_on channel=0 note=65 velocity=0 time=59
note_on channel=0 note=69 velocity=127 time=1
note_on channel=0 note=69 velocity=0 time=59
note_on channel=0 note=70 velocity=127 time=1
note_on channel=0 note=70 velocity=0 time=59
note_on channel=0 note=69 velocity=127 time=1
note_on channel=0 note=69 velocity=0 time=59
note_on channel=0 note=58 velocity=127 time=1
note_on channel=0 note=62 velocity=127 time=0
note_on channel=0 note=53 velocity=127 time=0
note_on channel=0 note=53 velocity=0 time=239
note_on channel=0 note=62 velocity=0 time=0
note_on channel=0 note=58 velocity=0 time=0
note_on channel=0 note=69 velocity=127 time=76
note_on channel=0 note=69 velocity=0 time=14
note_on channel=0 note=70 velocity=127 time=1
note_on channel=0 note=70 velocity=0 time=14
note_on channel=0 note=72 velocity=127 time=1
note_on channel=0 note=72 velocity=0 time=14
note_on channel=0 note=74 velocity=127 time=1
note_on channel=0 note=74 velocity=0 time=14
note_on channel=0 note=65 velocity=127 time=61
note_on channel=0 note=65 velocity=0 time=14
note_on channel=0 note=67 velocity=127 time=1
note_on channel=0 note=67 velocity=0 time=14
note_on channel=0 note=69 velocity=127 time=1
note_on channel=0 note=69 velocity=0 time=14
note_on channel=0 note=70 velocity=127 time=1
note_on channel=0 note=70 velocity=0 time=14
note_on channel=0 note=69 velocity=127 time=61
note_on channel=0 note=69 velocity=0 time=14
note_on channel=0 note=67 velocity=127 time=1
note_on channel=0 note=67 velocity=0 time=14
note_on channel=0 note=65 velocity=127 time=1
note_on channel=0 note=65 velocity=0 time=14
note_on channel=0 note=63 velocity=127 time=1
note_on channel=0 note=63 velocity=0 time=14
note_on channel=0 note=67 velocity=127 time=61
note_on channel=0 note=67 velocity=0 time=14
note_on channel=0 note=65 velocity=127 time=1
note_on channel=0 note=65 velocity=0 time=14
note_on channel=0 note=63 velocity=127 time=1
note_on channel=0 note=63 velocity=0 time=14
note_on channel=0 note=62 velocity=127 time=1
note_on channel=0 note=62 velocity=0 time=14
note_on channel=0 note=57 velocity=127 time=61
note_on channel=0 note=57 velocity=0 time=14
note_on channel=0 note=58 velocity=127 time=1
note_on channel=0 note=58 velocity=0 time=14
note_on channel=0 note=60 velocity=127 time=1
note_on channel=0 note=60 velocity=0 time=14
note_on channel=0 note=62 velocity=127 time=1
note_on channel=0 note=62 velocity=0 time=14
note_on channel=0 note=53 velocity=127 time=61
note_on channel=0 note=53 velocity=0 time=14
note_on channel=0 note=55 velocity=127 time=1
note_on channel=0 note=55 velocity=0 time=14
note_on channel=0 note=57 velocity=127 time=1
note_on channel=0 note=57 velocity=0 time=14
note_on channel=0 note=58 velocity=127 time=1
note_on channel=0 note=58 velocity=0 time=14
note_on channel=0 note=60 velocity=127 time=61
note_on channel=0 note=60 velocity=0 time=14
note_on channel=0 note=58 velocity=127 time=1
note_on channel=0 note=58 velocity=0 time=14
note_on channel=0 note=57 velocity=127 time=1
note_on channel=0 note=57 velocity=0 time=14
note_on channel=0 note=55 velocity=127 time=1
note_on channel=0 note=55 velocity=0 time=14
note_on channel=0 note=62 velocity=127 time=61
note_on channel=0 note=62 velocity=0 time=14
note_on channel=0 note=60 velocity=127 time=1
note_on channel=0 note=60 velocity=0 time=14
note_on channel=0 note=58 velocity=127 time=1
note_on channel=0 note=58 velocity=0 time=14
note_on channel=0 note=57 velocity=127 time=1
note_on channel=0 note=57 velocity=0 time=14
note_on channel=0 note=63 velocity=127 time=61
note_on channel=0 note=63 velocity=0 time=14
note_on channel=0 note=62 velocity=127 time=1
note_on channel=0 note=62 velocity=0 time=14
note_on channel=0 note=60 velocity=127 time=1
note_on channel=0 note=60 velocity=0 time=14
note_on channel=0 note=58 velocity=127 time=1
note_on channel=0 note=58 velocity=0 time=14
note_on channel=0 note=55 velocity=127 time=76
note_on channel=0 note=55 velocity=0 time=29
note_on channel=0 note=61 velocity=127 time=1
note_on channel=0 note=61 velocity=0 time=359
note_on channel=0 note=62 velocity=127 time=1
note_on channel=0 note=62 velocity=0 time=119
note_on channel=0 note=59 velocity=127 time=1
note_on channel=0 note=59 velocity=0 time=239
note_on channel=0 note=59 velocity=127 time=421
note_on channel=0 note=56 velocity=127 time=0
note_on channel=0 note=52 velocity=127 time=0
note_on channel=0 note=52 velocity=0 time=59
note_on channel=0 note=56 velocity=0 time=0
note_on channel=0 note=59 velocity=0 time=0
note_on channel=0 note=52 velocity=127 time=1
note_on channel=0 note=60 velocity=127 time=0
note_on channel=0 note=57 velocity=127 time=0
note_on channel=0 note=57 velocity=0 time=239
note_on channel=0 note=64 velocity=127 time=1
note_on channel=0 note=55 velocity=127 time=0
note_on channel=0 note=55 velocity=0 time=239
note_on channel=0 note=52 velocity=0 time=0
note_on channel=0 note=60 velocity=0 time=0
note_on channel=0 note=64 velocity=0 time=0
note_on channel=0 note=64 velocity=127 time=76
note_on channel=0 note=64 velocity=0 time=14
note_on channel=0 note=62 velocity=127 time=1
note_on channel=0 note=62 velocity=0 time=14
note_on channel=0 note=64 velocity=127 time=1
note_on channel=0 note=64 velocity=0 time=14
note_on channel=0 note=60 velocity=127 time=1
note_on channel=0 note=60 velocity=0 time=14
note_on channel=0 note=65 velocity=127 time=61
note_on channel=0 note=65 velocity=0 time=14
note_on channel=0 note=64 velocity=127 time=1
note_on channel=0 note=64 velocity=0 time=14
note_on channel=0 note=65 velocity=127 time=1
note_on channel=0 note=65 velocity=0 time=14
note_on channel=0 note=62 velocity=127 time=1
note_on channel=0 note=62 velocity=0 time=14
note_on channel=0 note=67 velocity=127 time=61
note_on channel=0 note=67 velocity=0 time=14
note_on channel=0 note=65 velocity=127 time=1
note_on channel=0 note=65 velocity=0 time=14
note_on channel=0 note=67 velocity=127 time=1
note_on channel=0 note=67 velocity=0 time=14
note_on channel=0 note=64 velocity=127 time=1
note_on channel=0 note=64 velocity=0 time=14
note_on channel=0 note=69 velocity=127 time=46
note_on channel=0 note=69 velocity=0 time=14
note_on channel=0 note=71 velocity=127 time=46
note_on channel=0 note=71 velocity=0 time=14
note_on channel=0 note=72 velocity=127 time=46
note_on channel=0 note=72 velocity=0 time=14
note_on channel=0 note=74 velocity=127 time=46
note_on channel=0 note=74 velocity=0 time=14
note_on channel=0 note=72 velocity=127 time=61
note_on channel=0 note=72 velocity=0 time=14
note_on channel=0 note=71 velocity=127 time=1
note_on channel=0 note=71 velocity=0 time=14
note_on channel=0 note=72 velocity=127 time=1
note_on channel=0 note=72 velocity=0 time=14
note_on channel=0 note=69 velocity=127 time=1
note_on channel=0 note=69 velocity=0 time=14
note_on channel=0 note=68 velocity=127 time=61
note_on channel=0 note=68 velocity=0 time=14
note_on channel=0 note=66 velocity=127 time=1
note_on channel=0 note=66 velocity=0 time=14
note_on channel=0 note=68 velocity=127 time=1
note_on channel=0 note=68 velocity=0 time=14
note_on channel=0 note=64 velocity=127 time=1
note_on channel=0 note=64 velocity=0 time=14
note_on channel=0 note=65 velocity=127 time=61
note_on channel=0 note=65 velocity=0 time=14
note_on channel=0 note=64 velocity=127 time=1
note_on channel=0 note=64 velocity=0 time=14
note_on channel=0 note=65 velocity=127 time=1
note_on channel=0 note=65 velocity=0 time=14
note_on channel=0 note=62 velocity=127 time=1
note_on channel=0 note=62 velocity=0 time=14
note_on channel=0 note=60 velocity=127 time=46
note_on channel=0 note=60 velocity=0 time=14
note_on channel=0 note=59 velocity=127 time=46
note_on channel=0 note=59 velocity=0 time=14
note_on channel=0 note=60 velocity=127 time=61
note_on channel=0 note=60 velocity=0 time=14
note_on channel=0 note=59 velocity=127 time=1
note_on channel=0 note=59 velocity=0 time=14
note_on channel=0 note=57 velocity=127 time=1
note_on channel=0 note=57 velocity=0 time=14
note_on channel=0 note=56 velocity=127 time=1
note_on channel=0 note=56 velocity=0 time=14
note_on channel=0 note=57 velocity=127 time=46
note_on channel=0 note=57 velocity=0 time=14
note_on channel=0 note=59 velocity=127 time=46
note_on channel=0 note=59 velocity=0 time=14
note_on channel=0 note=60 velocity=127 time=46
note_on channel=0 note=60 velocity=0 time=14
note_on channel=0 note=62 velocity=127 time=46
note_on channel=0 note=62 velocity=0 time=14
note_on channel=0 note=64 velocity=127 time=46
note_on channel=0 note=64 velocity=0 time=14
note_on channel=0 note=55 velocity=127 time=106
note_on channel=0 note=55 velocity=0 time=59
note_on channel=0 note=57 velocity=127 time=1
note_on channel=0 note=57 velocity=0 time=59
note_on channel=0 note=57 velocity=127 time=1
note_on channel=0 note=57 velocity=0 time=14
note_on channel=0 note=61 velocity=127 time=1
note_on channel=0 note=61 velocity=0 time=14
note_on channel=0 note=64 velocity=127 time=1
note_on channel=0 note=64 velocity=0 time=14
note_on channel=0 note=57 velocity=127 time=76
note_on channel=0 note=57 velocity=0 time=59
note_on channel=0 note=57 velocity=127 time=1
note_on channel=0 note=57 velocity=0 time=59
note_on channel=0 note=57 velocity=127 time=1
note_on channel=0 note=57 velocity=0 time=14
note_on channel=0 note=62 velocity=127 time=1
note_on channel=0 note=62 velocity=0 time=14
note_on channel=0 note=65 velocity=127 time=1
note_on channel=0 note=65 velocity=0 time=14
note_on channel=0 note=57 velocity=127 time=76
note_on channel=0 note=57 velocity=0 time=59
note_on channel=0 note=59 velocity=127 time=1
note_on channel=0 note=59 velocity=0 time=59
note_on channel=0 note=55 velocity=127 time=1
note_on channel=0 note=55 velocity=0 time=14
note_on channel=0 note=59 velocity=127 time=1
note_on channel=0 note=59 velocity=0 time=14
note_on channel=0 note=62 velocity=127 time=1
note_on channel=0 note=62 velocity=0 time=14
note_on channel=0 note=55 velocity=127 time=76
note_on channel=0 note=55 velocity=0 time=59
note_on channel=0 note=55 velocity=127 time=1
note_on channel=0 note=55 velocity=0 time=59
note_on channel=0 note=55 velocity=127 time=1
note_on channel=0 note=55 velocity=0 time=14
note_on channel=0 note=60 velocity=127 time=1
note_on channel=0 note=60 velocity=0 time=14
note_on channel=0 note=64 velocity=127 time=1
note_on channel=0 note=64 velocity=0 time=14
note_on channel=0 note=55 velocity=127 time=76
note_on channel=0 note=55 velocity=0 time=59
note_on channel=0 note=57 velocity=127 time=1
note_on channel=0 note=57 velocity=0 time=59
note_on channel=0 note=53 velocity=127 time=1
note_on channel=0 note=53 velocity=0 time=14
note_on channel=0 note=57 velocity=127 time=1
note_on channel=0 note=57 velocity=0 time=14
note_on channel=0 note=60 velocity=127 time=1
note_on channel=0 note=60 velocity=0 time=14
note_on channel=0 note=53 velocity=127 time=76
note_on channel=0 note=53 velocity=0 time=59
note_on channel=0 note=53 velocity=127 time=1
note_on channel=0 note=53 velocity=0 time=59
note_on channel=0 note=53 velocity=127 time=1
note_on channel=0 note=53 velocity=0 time=14
note_on channel=0 note=58 velocity=127 time=1
note_on channel=0 note=58 velocity=0 time=14
note_on channel=0 note=62 velocity=127 time=1
note_on channel=0 note=62 velocity=0 time=14
note_on channel=0 note=53 velocity=127 time=76
note_on channel=0 note=53 velocity=0 time=59
note_on channel=0 note=52 velocity=127 time=1
note_on channel=0 note=52 velocity=0 time=59
note_on channel=0 note=52 velocity=127 time=1
note_on channel=0 note=52 velocity=0 time=14
note_on channel=0 note=55 velocity=127 time=1
note_on channel=0 note=55 velocity=0 time=14
note_on channel=0 note=58 velocity=127 time=1
note_on channel=0 note=58 velocity=0 time=14
note_on channel=0 note=52 velocity=127 time=76
note_on channel=0 note=52 velocity=0 time=59
note_on channel=0 note=54 velocity=127 time=1
note_on channel=0 note=54 velocity=0 time=59
note_on channel=0 note=50 velocity=127 time=1
note_on channel=0 note=50 velocity=0 time=14
note_on channel=0 note=57 velocity=127 time=1
note_on channel=0 note=57 velocity=0 time=14
note_on channel=0 note=62 velocity=127 time=1
note_on channel=0 note=62 velocity=0 time=14
note_on channel=0 note=54 velocity=127 time=76
note_on channel=0 note=54 velocity=0 time=59
note_on channel=0 note=55 velocity=127 time=1
note_on channel=0 note=55 velocity=0 time=239
note_on channel=0 note=58 velocity=127 time=1
note_on channel=0 note=58 velocity=0 time=119
note_on channel=0 note=57 velocity=127 time=1
note_on channel=0 note=57 velocity=0 time=119
note_on channel=0 note=57 velocity=127 time=1
note_on channel=0 note=57 velocity=0 time=239
note_on channel=0 note=53 velocity=127 time=1
note_on channel=0 note=53 velocity=0 time=119
note_on channel=0 note=55 velocity=127 time=1
note_on channel=0 note=55 velocity=0 time=119
note_on channel=0 note=53 velocity=127 time=1
note_on channel=0 note=53 velocity=0 time=479
note_on channel=0 note=50 velocity=127 time=24510
note_on channel=0 note=50 velocity=0 time=29
note_on channel=0 note=48 velocity=127 time=1
note_on channel=0 note=48 velocity=0 time=29
note_on channel=0 note=50 velocity=127 time=1
note_on channel=0 note=50 velocity=0 time=29
note_on channel=0 note=46 velocity=127 time=1
note_on channel=0 note=46 velocity=0 time=29
note_on channel=0 note=50 velocity=127 time=1
note_on channel=0 note=50 velocity=0 time=29
note_on channel=0 note=45 velocity=127 time=1
note_on channel=0 note=45 velocity=0 time=29
note_on channel=0 note=50 velocity=127 time=1
note_on channel=0 note=50 velocity=0 time=29
note_on channel=0 note=43 velocity=127 time=1
note_on channel=0 note=43 velocity=0 time=29
note_on channel=0 note=50 velocity=127 time=1
note_on channel=0 note=50 velocity=0 time=29
note_on channel=0 note=42 velocity=127 time=1
note_on channel=0 note=42 velocity=0 time=29
note_on channel=0 note=50 velocity=127 time=1
note_on channel=0 note=50 velocity=0 time=29
note_on channel=0 note=43 velocity=127 time=1
note_on channel=0 note=43 velocity=0 time=29
note_on channel=0 note=50 velocity=127 time=1
note_on channel=0 note=50 velocity=0 time=29
note_on channel=0 note=45 velocity=127 time=1
note_on channel=0 note=45 velocity=0 time=29
note_on channel=0 note=50 velocity=127 time=1
note_on channel=0 note=50 velocity=0 time=29
note_on channel=0 note=46 velocity=127 time=1
note_on channel=0 note=46 velocity=0 time=29
note_on channel=0 note=50 velocity=127 time=1
note_on channel=0 note=50 velocity=0 time=29
note_on channel=0 note=38 velocity=127 time=1
note_on channel=0 note=38 velocity=0 time=29
note_on channel=0 note=50 velocity=127 time=1
note_on channel=0 note=50 velocity=0 time=29
note_on channel=0 note=40 velocity=127 time=1
note_on channel=0 note=40 velocity=0 time=29
note_on channel=0 note=50 velocity=127 time=1
note_on channel=0 note=50 velocity=0 time=29
note_on channel=0 note=42 velocity=127 time=1
note_on channel=0 note=42 velocity=0 time=29
note_on channel=0 note=50 velocity=127 time=1
note_on channel=0 note=50 velocity=0 time=29
note_on channel=0 note=43 velocity=127 time=1
note_on channel=0 note=43 velocity=0 time=29
note_on channel=0 note=50 velocity=127 time=1
note_on channel=0 note=50 velocity=0 time=29
note_on channel=0 note=42 velocity=127 time=1
note_on channel=0 note=42 velocity=0 time=29
note_on channel=0 note=50 velocity=127 time=1
note_on channel=0 note=50 velocity=0 time=29
note_on channel=0 note=43 velocity=127 time=1
note_on channel=0 note=43 velocity=0 time=29
note_on channel=0 note=50 velocity=127 time=1
note_on channel=0 note=50 velocity=0 time=29
note_on channel=0 note=45 velocity=127 time=1
note_on channel=0 note=45 velocity=0 time=29
note_on channel=0 note=50 velocity=127 time=1
note_on channel=0 note=50 velocity=0 time=29
note_on channel=0 note=46 velocity=127 time=1
note_on channel=0 note=46 velocity=0 time=119
note_on channel=0 note=47 velocity=127 time=61
note_on channel=0 note=47 velocity=0 time=59
note_on channel=0 note=48 velocity=127 time=1
note_on channel=0 note=48 velocity=0 time=119
note_on channel=0 note=49 velocity=127 time=61
note_on channel=0 note=49 velocity=0 time=59
note_on channel=0 note=50 velocity=127 time=1
note_on channel=0 note=50 velocity=0 time=119
note_on channel=0 note=50 velocity=127 time=61
note_on channel=0 note=50 velocity=0 time=59
note_on channel=0 note=52 velocity=127 time=1
note_on channel=0 note=52 velocity=0 time=119
note_on channel=0 note=52 velocity=127 time=61
note_on channel=0 note=52 velocity=0 time=59
note_on channel=0 note=53 velocity=127 time=1
note_on channel=0 note=53 velocity=0 time=59
note_on channel=0 note=45 velocity=127 time=1
note_on channel=0 note=45 velocity=0 time=59
note_on channel=0 note=46 velocity=127 time=1
note_on channel=0 note=46 velocity=0 time=59
note_on channel=0 note=50 velocity=127 time=1
note_on channel=0 note=50 velocity=0 time=59
note_on channel=0 note=43 velocity=127 time=1
note_on channel=0 note=43 velocity=0 time=119
note_on channel=0 note=46 velocity=127 time=61
note_on channel=0 note=46 velocity=0 time=119
note_on channel=0 note=45 velocity=127 time=1
note_on channel=0 note=45 velocity=0 time=59
note_on channel=0 note=43 velocity=127 time=1
note_on channel=0 note=43 velocity=0 time=59
note_on channel=0 note=48 velocity=127 time=1
note_on channel=0 note=48 velocity=0 time=59
note_on channel=0 note=41 velocity=127 time=1
note_on channel=0 note=41 velocity=0 time=119
note_on channel=0 note=55 velocity=127 time=13831
note_on channel=0 note=55 velocity=0 time=29
note_on channel=0 note=53 velocity=127 time=1
note_on channel=0 note=53 velocity=0 time=29
note_on channel=0 note=55 velocity=127 time=1
note_on channel=0 note=55 velocity=0 time=29
note_on channel=0 note=51 velocity=127 time=1
note_on channel=0 note=51 velocity=0 time=29
note_on channel=0 note=55 velocity=127 time=1
note_on channel=0 note=55 velocity=0 time=29
note_on channel=0 note=50 velocity=127 time=1
note_on channel=0 note=50 velocity=0 time=29
note_on channel=0 note=55 velocity=127 time=1
note_on channel=0 note=55 velocity=0 time=29
note_on channel=0 note=48 velocity=127 time=1
note_on channel=0 note=48 velocity=0 time=29
note_on channel=0 note=55 velocity=127 time=1
note_on channel=0 note=55 velocity=0 time=29
note_on channel=0 note=47 velocity=127 time=1
note_on channel=0 note=47 velocity=0 time=29
note_on channel=0 note=55 velocity=127 time=1
note_on channel=0 note=55 velocity=0 time=29
note_on channel=0 note=48 velocity=127 time=1
note_on channel=0 note=48 velocity=0 time=29
note_on channel=0 note=55 velocity=127 time=1
note_on channel=0 note=55 velocity=0 time=29
note_on channel=0 note=50 velocity=127 time=1
note_on channel=0 note=50 velocity=0 time=29
note_on channel=0 note=55 velocity=127 time=1
note_on channel=0 note=55 velocity=0 time=29
note_on channel=0 note=51 velocity=127 time=1
note_on channel=0 note=51 velocity=0 time=29
note_on channel=0 note=55 velocity=127 time=1
note_on channel=0 note=55 velocity=0 time=29
note_on channel=0 note=43 velocity=127 time=1
note_on channel=0 note=43 velocity=0 time=29
note_on channel=0 note=55 velocity=127 time=1
note_on channel=0 note=55 velocity=0 time=29
note_on channel=0 note=45 velocity=127 time=1
note_on channel=0 note=45 velocity=0 time=29
note_on channel=0 note=55 velocity=127 time=1
note_on channel=0 note=55 velocity=0 time=29
note_on channel=0 note=47 velocity=127 time=1
note_on channel=0 note=47 velocity=0 time=29
note_on channel=0 note=55 velocity=127 time=1
note_on channel=0 note=55 velocity=0 time=29
note_on channel=0 note=48 velocity=127 time=1
note_on channel=0 note=48 velocity=0 time=29
note_on channel=0 note=55 velocity=127 time=1
note_on channel=0 note=55 velocity=0 time=29
note_on channel=0 note=47 velocity=127 time=1
note_on channel=0 note=47 velocity=0 time=29
note_on channel=0 note=55 velocity=127 time=1
note_on channel=0 note=55 velocity=0 time=29
note_on channel=0 note=48 velocity=127 time=1
note_on channel=0 note=48 velocity=0 time=29
note_on channel=0 note=55 velocity=127 time=1
note_on channel=0 note=55 velocity=0 time=29
note_on channel=0 note=50 velocity=127 time=1
note_on channel=0 note=50 velocity=0 time=29
note_on channel=0 note=55 velocity=127 time=1
note_on channel=0 note=55 velocity=0 time=29
note_on channel=0 note=51 velocity=127 time=1
note_on channel=0 note=51 velocity=0 time=59
note_on channel=0 note=50 velocity=127 time=1
note_on channel=0 note=50 velocity=0 time=59
note_on channel=0 note=48 velocity=127 time=1
note_on channel=0 note=48 velocity=0 time=59
note_on channel=0 note=47 velocity=127 time=1
note_on channel=0 note=47 velocity=0 time=59
note_on channel=0 note=48 velocity=127 time=1
note_on channel=0 note=48 velocity=0 time=59
note_on channel=0 note=50 velocity=127 time=1
note_on channel=0 note=50 velocity=0 time=59
note_on channel=0 note=51 velocity=127 time=1
note_on channel=0 note=51 velocity=0 time=59
note_on channel=0 note=53 velocity=127 time=1
note_on channel=0 note=53 velocity=0 time=59
note_on channel=0 note=55 velocity=127 time=1
note_on channel=0 note=55 velocity=0 time=59
note_on channel=0 note=47 velocity=127 time=1
note_on channel=0 note=47 velocity=0 time=59
note_on channel=0 note=48 velocity=127 time=1
note_on channel=0 note=48 velocity=0 time=59
note_on channel=0 note=50 velocity=127 time=1
note_on channel=0 note=50 velocity=0 time=59
note_on channel=0 note=51 velocity=127 time=1
note_on channel=0 note=51 velocity=0 time=59
note_on channel=0 note=50 velocity=127 time=1
note_on channel=0 note=50 velocity=0 time=59
note_on channel=0 note=51 velocity=127 time=1
note_on channel=0 note=51 velocity=0 time=59
note_on channel=0 note=53 velocity=127 time=1
note_on channel=0 note=53 velocity=0 time=59
note_on channel=0 note=55 velocity=127 time=1
note_on channel=0 note=55 velocity=0 time=59
note_on channel=0 note=47 velocity=127 time=1
note_on channel=0 note=47 velocity=0 time=59
note_on channel=0 note=48 velocity=127 time=1
note_on channel=0 note=48 velocity=0 time=59
note_on channel=0 note=50 velocity=127 time=1
note_on channel=0 note=50 velocity=0 time=59
note_on channel=0 note=51 velocity=127 time=1
note_on channel=0 note=51 velocity=0 time=59
note_on channel=0 note=45 velocity=127 time=1
note_on channel=0 note=45 velocity=0 time=59
note_on channel=0 note=46 velocity=127 time=1
note_on channel=0 note=46 velocity=0 time=59
note_on channel=0 note=48 velocity=127 time=1
note_on channel=0 note=48 velocity=0 time=59
note_on channel=0 note=50 velocity=127 time=1
note_on channel=0 note=50 velocity=0 time=59
note_on channel=0 note=43 velocity=127 time=1
note_on channel=0 note=43 velocity=0 time=59
note_on channel=0 note=45 velocity=127 time=1
note_on channel=0 note=45 velocity=0 time=59
note_on channel=0 note=46 velocity=127 time=1
note_on channel=0 note=46 velocity=0 time=59
note_on channel=0 note=48 velocity=127 time=1
note_on channel=0 note=48 velocity=0 time=59
note_on channel=0 note=50 velocity=127 time=1
note_on channel=0 note=50 velocity=0 time=59
note_on channel=0 note=55 velocity=127 time=1
note_on channel=0 note=55 velocity=0 time=59
note_on channel=0 note=50 velocity=127 time=1
note_on channel=0 note=50 velocity=0 time=59
note_on channel=0 note=51 velocity=127 time=1
note_on channel=0 note=51 velocity=0 time=59
note_on channel=0 note=46 velocity=127 time=1
note_on channel=0 note=46 velocity=0 time=59
note_on channel=0 note=45 velocity=127 time=1
note_on channel=0 note=45 velocity=0 time=59
note_on channel=0 note=48 velocity=127 time=1
note_on channel=0 note=48 velocity=0 time=59
note_on channel=0 note=50 velocity=127 time=1
note_on channel=0 note=50 velocity=0 time=1079
note_on channel=0 note=43 velocity=127 time=61
note_on channel=0 note=43 velocity=0 time=59
note_on channel=0 note=48 velocity=127 time=1
note_on channel=0 note=48 velocity=0 time=59
note_on channel=0 note=45 velocity=127 time=1
note_on channel=0 note=45 velocity=0 time=59
note_on channel=0 note=50 velocity=127 time=1
note_on channel=0 note=50 velocity=0 time=59
note_on channel=0 note=38 velocity=127 time=1
note_on channel=0 note=38 velocity=0 time=59
note_on channel=0 note=43 velocity=127 time=1
note_on channel=0 note=43 velocity=0 time=119
note_on channel=0 note=43 velocity=127 time=61
note_on channel=0 note=43 velocity=0 time=59
note_on channel=0 note=48 velocity=127 time=1
note_on channel=0 note=48 velocity=0 time=119
note_on channel=0 note=47 velocity=127 time=61
note_on channel=0 note=47 velocity=0 time=59
note_on channel=0 note=48 velocity=127 time=1
note_on channel=0 note=48 velocity=0 time=119
note_on channel=0 note=57 velocity=127 time=3961
note_on channel=0 note=57 velocity=127 time=1950
note_on channel=0 note=57 velocity=0 time=29
note_on channel=0 note=55 velocity=127 time=1
note_on channel=0 note=55 velocity=0 time=29
note_on channel=0 note=57 velocity=127 time=1
note_on channel=0 note=57 velocity=0 time=29
note_on channel=0 note=57 velocity=0 time=0
note_on channel=0 note=53 velocity=127 time=1
note_on channel=0 note=53 velocity=0 time=29
note_on channel=0 note=57 velocity=127 time=1
note_on channel=0 note=57 velocity=0 time=29
note_on channel=0 note=52 velocity=127 time=1
note_on channel=0 note=52 velocity=0 time=29
note_on channel=0 note=57 velocity=127 time=1
note_on channel=0 note=57 velocity=0 time=29
note_on channel=0 note=50 velocity=127 time=1
note_on channel=0 note=50 velocity=0 time=29
note_on channel=0 note=57 velocity=127 time=1
note_on channel=0 note=57 velocity=0 time=29
note_on channel=0 note=49 velocity=127 time=1
note_on channel=0 note=49 velocity=0 time=29
note_on channel=0 note=57 velocity=127 time=1
note_on channel=0 note=57 velocity=0 time=29
note_on channel=0 note=50 velocity=127 time=1
note_on channel=0 note=50 velocity=0 time=29
note_on channel=0 note=57 velocity=127 time=1
note_on channel=0 note=57 velocity=0 time=29
note_on channel=0 note=52 velocity=127 time=1
note_on channel=0 note=52 velocity=0 time=29
note_on channel=0 note=57 velocity=127 time=1
note_on channel=0 note=57 velocity=0 time=29
note_on channel=0 note=53 velocity=127 time=1
note_on channel=0 note=53 velocity=0 time=29
note_on channel=0 note=57 velocity=127 time=1
note_on channel=0 note=57 velocity=0 time=29
note_on channel=0 note=45 velocity=127 time=1
note_on channel=0 note=45 velocity=0 time=29
note_on channel=0 note=57 velocity=127 time=1
note_on channel=0 note=57 velocity=0 time=29
note_on channel=0 note=47 velocity=127 time=1
note_on channel=0 note=47 velocity=0 time=29
note_on channel=0 note=57 velocity=127 time=1
note_on channel=0 note=57 velocity=0 time=29
note_on channel=0 note=49 velocity=127 time=1
note_on channel=0 note=49 velocity=0 time=29
note_on channel=0 note=57 velocity=127 time=1
note_on channel=0 note=57 velocity=0 time=29
note_on channel=0 note=50 velocity=127 time=1
note_on channel=0 note=50 velocity=0 time=29
note_on channel=0 note=57 velocity=127 time=1
note_on channel=0 note=57 velocity=0 time=29
note_on channel=0 note=49 velocity=127 time=1
note_on channel=0 note=49 velocity=0 time=29
note_on channel=0 note=57 velocity=127 time=1
note_on channel=0 note=57 velocity=0 time=29
note_on channel=0 note=50 velocity=127 time=1
note_on channel=0 note=50 velocity=0 time=29
note_on channel=0 note=57 velocity=127 time=1
note_on channel=0 note=57 velocity=0 time=29
note_on channel=0 note=52 velocity=127 time=1
note_on channel=0 note=52 velocity=0 time=29
note_on channel=0 note=57 velocity=127 time=1
note_on channel=0 note=57 velocity=0 time=29
note_on channel=0 note=53 velocity=127 time=1
note_on channel=0 note=53 velocity=0 time=119
note_on channel=0 note=53 velocity=127 time=61
note_on channel=0 note=53 velocity=0 time=59
note_on channel=0 note=55 velocity=127 time=1
note_on channel=0 note=55 velocity=0 time=59
note_on channel=0 note=52 velocity=127 time=1
note_on channel=0 note=52 velocity=0 time=59
note_on channel=0 note=57 velocity=127 time=1
note_on channel=0 note=57 velocity=0 time=59
note_on channel=0 note=45 velocity=127 time=1
note_on channel=0 note=45 velocity=0 time=59
note_on channel=0 note=50 velocity=127 time=1
note_on channel=0 note=50 velocity=0 time=119
note_on channel=0 note=45 velocity=127 time=61
note_on channel=0 note=45 velocity=0 time=59
note_on channel=0 note=46 velocity=127 time=1
note_on channel=0 note=46 velocity=0 time=59
note_on channel=0 note=43 velocity=127 time=1
note_on channel=0 note=43 velocity=0 time=59
note_on channel=0 note=48 velocity=127 time=1
note_on channel=0 note=48 velocity=0 time=59
note_on channel=0 note=36 velocity=127 time=1
note_on channel=0 note=36 velocity=0 time=59
note_on channel=0 note=41 velocity=127 time=1
note_on channel=0 note=41 velocity=0 time=119
note_on channel=0 note=45 velocity=127 time=61
note_on channel=0 note=45 velocity=0 time=59
note_on channel=0 note=46 velocity=127 time=1
note_on channel=0 note=46 velocity=0 time=119
note_on channel=0 note=46 velocity=127 time=61
note_on channel=0 note=46 velocity=0 time=59
note_on channel=0 note=48 velocity=127 time=1
note_on channel=0 note=48 velocity=0 time=119
note_on channel=0 note=45 velocity=127 time=61
note_on channel=0 note=45 velocity=0 time=59
note_on channel=0 note=50 velocity=127 time=1
note_on channel=0 note=50 velocity=0 time=119
note_on channel=0 note=50 velocity=127 time=121
note_on channel=0 note=50 velocity=0 time=119
note_on channel=0 note=50 velocity=127 time=121
note_on channel=0 note=50 velocity=0 time=119
note_on channel=0 note=50 velocity=127 time=121
note_on channel=0 note=50 velocity=0 time=119
note_on channel=0 note=50 velocity=127 time=121
note_on channel=0 note=50 velocity=0 time=119
note_on channel=0 note=50 velocity=127 time=121
note_on channel=0 note=50 velocity=0 time=119
note_on channel=0 note=50 velocity=127 time=121
note_on channel=0 note=50 velocity=0 time=119
note_on channel=0 note=50 velocity=127 time=121
note_on channel=0 note=50 velocity=0 time=119
note_on channel=0 note=50 velocity=127 time=121
note_on channel=0 note=50 velocity=0 time=119
note_on channel=0 note=50 velocity=127 time=121
note_on channel=0 note=50 velocity=0 time=119
note_on channel=0 note=50 velocity=127 time=151
note_on channel=0 note=50 velocity=0 time=29
note_on channel=0 note=48 velocity=127 time=1
note_on channel=0 note=48 velocity=0 time=29
note_on channel=0 note=50 velocity=127 time=1
note_on channel=0 note=50 velocity=0 time=29
note_on channel=0 note=46 velocity=127 time=1
note_on channel=0 note=46 velocity=0 time=29
note_on channel=0 note=50 velocity=127 time=1
note_on channel=0 note=50 velocity=0 time=29
note_on channel=0 note=45 velocity=127 time=1
note_on channel=0 note=45 velocity=0 time=29
note_on channel=0 note=50 velocity=127 time=1
note_on channel=0 note=50 velocity=0 time=29
note_on channel=0 note=43 velocity=127 time=1
note_on channel=0 note=43 velocity=0 time=29
note_on channel=0 note=55 velocity=127 time=1
note_on channel=0 note=55 velocity=0 time=29
note_on channel=0 note=53 velocity=127 time=1
note_on channel=0 note=53 velocity=0 time=29
note_on channel=0 note=55 velocity=127 time=1
note_on channel=0 note=55 velocity=0 time=29
note_on channel=0 note=51 velocity=127 time=1
note_on channel=0 note=51 velocity=0 time=29
note_on channel=0 note=55 velocity=127 time=1
note_on channel=0 note=55 velocity=0 time=29
note_on channel=0 note=50 velocity=127 time=1
note_on channel=0 note=50 velocity=0 time=29
note_on channel=0 note=55 velocity=127 time=1
note_on channel=0 note=55 velocity=0 time=29
note_on channel=0 note=48 velocity=127 time=1
note_on channel=0 note=48 velocity=0 time=29
note_on channel=0 note=48 velocity=127 time=1
note_on channel=0 note=48 velocity=0 time=29
note_on channel=0 note=46 velocity=127 time=1
note_on channel=0 note=46 velocity=0 time=29
note_on channel=0 note=48 velocity=127 time=1
note_on channel=0 note=48 velocity=0 time=29
note_on channel=0 note=45 velocity=127 time=1
note_on channel=0 note=45 velocity=0 time=29
note_on channel=0 note=48 velocity=127 time=1
note_on channel=0 note=48 velocity=0 time=29
note_on channel=0 note=43 velocity=127 time=1
note_on channel=0 note=43 velocity=0 time=29
note_on channel=0 note=48 velocity=127 time=1
note_on channel=0 note=48 velocity=0 time=29
note_on channel=0 note=41 velocity=127 time=1
note_on channel=0 note=41 velocity=0 time=29
note_on channel=0 note=53 velocity=127 time=1
note_on channel=0 note=53 velocity=0 time=29
note_on channel=0 note=51 velocity=127 time=1
note_on channel=0 note=51 velocity=0 time=29
note_on channel=0 note=53 velocity=127 time=1
note_on channel=0 note=53 velocity=0 time=29
note_on channel=0 note=50 velocity=127 time=1
note_on channel=0 note=50 velocity=0 time=29
note_on channel=0 note=53 velocity=127 time=1
note_on channel=0 note=53 velocity=0 time=29
note_on channel=0 note=48 velocity=127 time=1
note_on channel=0 note=48 velocity=0 time=29
note_on channel=0 note=53 velocity=127 time=1
note_on channel=0 note=53 velocity=0 time=29
note_on channel=0 note=46 velocity=127 time=1
note_on channel=0 note=46 velocity=0 time=59
note_on channel=0 note=51 velocity=127 time=1
note_on channel=0 note=51 velocity=0 time=59
note_on channel=0 note=53 velocity=127 time=1
note_on channel=0 note=53 velocity=0 time=59
note_on channel=0 note=41 velocity=127 time=1
note_on channel=0 note=41 velocity=0 time=59
note_on channel=0 note=43 velocity=127 time=1
note_on channel=0 note=43 velocity=0 time=59
note_on channel=0 note=48 velocity=127 time=1
note_on channel=0 note=48 velocity=0 time=59
note_on channel=0 note=50 velocity=127 time=1
note_on channel=0 note=50 velocity=0 time=59
note_on channel=0 note=38 velocity=127 time=1
note_on channel=0 note=38 velocity=0 time=59
note_on channel=0 note=43 velocity=127 time=1
note_on channel=0 note=43 velocity=0 time=119
note_on channel=0 note=45 velocity=127 time=31
note_on channel=0 note=45 velocity=0 time=29
note_on channel=0 note=43 velocity=127 time=1
note_on channel=0 note=43 velocity=0 time=29
note_on channel=0 note=45 velocity=127 time=1
note_on channel=0 note=45 velocity=0 time=29
note_on channel=0 note=41 velocity=127 time=1
note_on channel=0 note=41 velocity=0 time=59
note_on channel=0 note=38 velocity=127 time=1
note_on channel=0 note=38 velocity=0 time=59
note_on channel=0 note=45 velocity=127 time=1
note_on channel=0 note=45 velocity=0 time=119
note_on channel=0 note=38 velocity=127 time=1
note_on channel=0 note=38 velocity=0 time=719
note_on channel=0 note=50 velocity=127 time=181
note_on channel=0 note=50 velocity=0 time=59
note_on channel=0 note=45 velocity=127 time=1
note_on channel=0 note=45 velocity=0 time=59
note_on channel=0 note=41 velocity=127 time=1
note_on channel=0 note=41 velocity=0 time=59
note_on channel=0 note=43 velocity=127 time=1
note_on channel=0 note=43 velocity=0 time=59
note_on channel=0 note=45 velocity=127 time=1
note_on channel=0 note=45 velocity=0 time=59
note_on channel=0 note=41 velocity=127 time=1
note_on channel=0 note=41 velocity=0 time=59
note_on channel=0 note=38 velocity=127 time=1
note_on channel=0 note=38 velocity=0 time=59
note_on channel=0 note=43 velocity=127 time=1
note_on channel=0 note=43 velocity=0 time=59
note_on channel=0 note=45 velocity=127 time=1
note_on channel=0 note=45 velocity=0 time=59
note_on channel=0 note=46 velocity=127 time=1
note_on channel=0 note=46 velocity=0 time=239
note_on channel=0 note=49 velocity=127 time=1201
note_on channel=0 note=49 velocity=0 time=239
note_on channel=0 note=53 velocity=127 time=1
note_on channel=0 note=53 velocity=0 time=179
note_on channel=0 note=50 velocity=127 time=1
note_on channel=0 note=50 velocity=0 time=59
note_on channel=0 note=44 velocity=127 time=1
note_on channel=0 note=44 velocity=0 time=239
note_on channel=0 note=56 velocity=127 time=31
note_on channel=0 note=56 velocity=0 time=29
note_on channel=0 note=59 velocity=127 time=1
note_on channel=0 note=59 velocity=0 time=29
note_on channel=0 note=53 velocity=127 time=1
note_on channel=0 note=53 velocity=0 time=29
note_on channel=0 note=55 velocity=127 time=1
note_on channel=0 note=55 velocity=0 time=29
note_on channel=0 note=50 velocity=127 time=1
note_on channel=0 note=50 velocity=0 time=29
note_on channel=0 note=53 velocity=127 time=1
note_on channel=0 note=53 velocity=0 time=29
note_on channel=0 note=47 velocity=127 time=1
note_on channel=0 note=47 velocity=0 time=29
note_on channel=0 note=50 velocity=127 time=1
note_on channel=0 note=50 velocity=0 time=29
note_on channel=0 note=44 velocity=127 time=1
note_on channel=0 note=44 velocity=0 time=29
note_on channel=0 note=45 velocity=127 time=1
note_on channel=0 note=45 velocity=0 time=59
note_on channel=0 note=40 velocity=127 time=1
note_on channel=0 note=40 velocity=0 time=599
note_on channel=0 note=52 velocity=127 time=1621
note_on channel=0 note=52 velocity=0 time=59
note_on channel=0 note=55 velocity=127 time=1
note_on channel=0 note=55 velocity=0 time=59
note_on channel=0 note=55 velocity=127 time=121
note_on channel=0 note=55 velocity=0 time=59
note_on channel=0 note=53 velocity=127 time=1
note_on channel=0 note=53 velocity=0 time=59
note_on channel=0 note=53 velocity=127 time=121
note_on channel=0 note=53 velocity=0 time=59
note_on channel=0 note=53 velocity=127 time=1
note_on channel=0 note=53 velocity=0 time=59
note_on channel=0 note=53 velocity=127 time=121
note_on channel=0 note=53 velocity=0 time=59
note_on channel=0 note=52 velocity=127 time=1
note_on channel=0 note=52 velocity=0 time=59
note_on channel=0 note=52 velocity=127 time=121
note_on channel=0 note=52 velocity=0 time=59
note_on channel=0 note=52 velocity=127 time=1
note_on channel=0 note=52 velocity=0 time=59
note_on channel=0 note=52 velocity=127 time=121
note_on channel=0 note=52 velocity=0 time=59
note_on channel=0 note=50 velocity=127 time=1
note_on channel=0 note=50 velocity=0 time=59
note_on channel=0 note=50 velocity=127 time=121
note_on channel=0 note=50 velocity=0 time=59
note_on channel=0 note=49 velocity=127 time=1
note_on channel=0 note=49 velocity=0 time=59
note_on channel=0 note=49 velocity=127 time=121
note_on channel=0 note=49 velocity=0 time=59
note_on channel=0 note=48 velocity=127 time=1
note_on channel=0 note=48 velocity=0 time=59
note_on channel=0 note=48 velocity=127 time=121
note_on channel=0 note=48 velocity=0 time=59
note_on channel=0 note=43 velocity=127 time=1
note_on channel=0 note=43 velocity=0 time=119
note_on channel=0 note=46 velocity=127 time=1
note_on channel=0 note=46 velocity=0 time=119
note_on channel=0 note=40 velocity=127 time=1
note_on channel=0 note=40 velocity=0 time=119
note_on channel=0 note=41 velocity=127 time=1
note_on channel=0 note=41 velocity=0 time=119
note_on channel=0 note=45 velocity=127 time=1
note_on channel=0 note=45 velocity=0 time=239
note_on channel=0 note=46 velocity=127 time=1
note_on channel=0 note=46 velocity=0 time=119
note_on channel=0 note=43 velocity=127 time=1
note_on channel=0 note=43 velocity=0 time=119
note_on channel=0 note=50 velocity=127 time=1
note_on channel=0 note=38 velocity=127 time=0
note_on channel=0 note=38 velocity=0 time=479
note_on channel=0 note=50 velocity=0 time=0
note_on channel=0 note=67 velocity=127 time=25440
note_on channel=0 note=67 velocity=0 time=29
note_on channel=0 note=70 velocity=127 time=1
note_on channel=0 note=70 velocity=0 time=29
note_on channel=0 note=69 velocity=127 time=1
note_on channel=0 note=69 velocity=0 time=29
note_on channel=0 note=70 velocity=127 time=1
note_on channel=0 note=70 velocity=0 time=29
note_on channel=0 note=67 velocity=127 time=1
note_on channel=0 note=67 velocity=0 time=29
note_on channel=0 note=69 velocity=127 time=1
note_on channel=0 note=69 velocity=0 time=29
note_on channel=0 note=65 velocity=127 time=1
note_on channel=0 note=65 velocity=0 time=29
note_on channel=0 note=67 velocity=127 time=1
note_on channel=0 note=67 velocity=0 time=29
note_on channel=0 note=64 velocity=127 time=1
note_on channel=0 note=64 velocity=0 time=29
note_on channel=0 note=72 velocity=127 time=1
note_on channel=0 note=72 velocity=0 time=29
note_on channel=0 note=70 velocity=127 time=1
note_on channel=0 note=70 velocity=0 time=29
note_on channel=0 note=72 velocity=127 time=1
note_on channel=0 note=72 velocity=0 time=29
note_on channel=0 note=69 velocity=127 time=1
note_on channel=0 note=69 velocity=0 time=29
note_on channel=0 note=70 velocity=127 time=1
note_on channel=0 note=70 velocity=0 time=29
note_on channel=0 note=67 velocity=127 time=1
note_on channel=0 note=67 velocity=0 time=29
note_on channel=0 note=69 velocity=127 time=1
note_on channel=0 note=69 velocity=0 time=29
note_on channel=0 note=65 velocity=127 time=1
note_on channel=0 note=65 velocity=0 time=29
note_on channel=0 note=74 velocity=127 time=1
note_on channel=0 note=74 velocity=0 time=29
note_on channel=0 note=72 velocity=127 time=1
note_on channel=0 note=72 velocity=0 time=29
note_on channel=0 note=74 velocity=127 time=1
note_on channel=0 note=74 velocity=0 time=29
note_on channel=0 note=70 velocity=127 time=1
note_on channel=0 note=70 velocity=0 time=29
note_on channel=0 note=72 velocity=127 time=1
note_on channel=0 note=72 velocity=0 time=29
note_on channel=0 note=69 velocity=127 time=1
note_on channel=0 note=69 velocity=0 time=29
note_on channel=0 note=70 velocity=127 time=1
note_on channel=0 note=70 velocity=0 time=29
note_on channel=0 note=67 velocity=127 time=1
note_on channel=0 note=67 velocity=0 time=29
note_on channel=0 note=76 velocity=127 time=1
note_on channel=0 note=76 velocity=0 time=29
note_on channel=0 note=74 velocity=127 time=1
note_on channel=0 note=74 velocity=0 time=29
note_on channel=0 note=76 velocity=127 time=1
note_on channel=0 note=76 velocity=0 time=29
note_on channel=0 note=72 velocity=127 time=1
note_on channel=0 note=72 velocity=0 time=29
note_on channel=0 note=74 velocity=127 time=1
note_on channel=0 note=74 velocity=0 time=29
note_on channel=0 note=70 velocity=127 time=1
note_on channel=0 note=70 velocity=0 time=29
note_on channel=0 note=72 velocity=127 time=1
note_on channel=0 note=72 velocity=0 time=29
note_on channel=0 note=69 velocity=127 time=1
note_on channel=0 note=69 velocity=0 time=59
note_on channel=0 note=65 velocity=127 time=1
note_on channel=0 note=65 velocity=0 time=59
note_on channel=0 note=70 velocity=127 time=1
note_on channel=0 note=70 velocity=0 time=29
note_on channel=0 note=69 velocity=127 time=1
note_on channel=0 note=69 velocity=0 time=29
note_on channel=0 note=67 velocity=127 time=1
note_on channel=0 note=67 velocity=0 time=29
note_on channel=0 note=65 velocity=127 time=1
note_on channel=0 note=65 velocity=0 time=29
note_on channel=0 note=67 velocity=127 time=1
note_on channel=0 note=67 velocity=0 time=29
note_on channel=0 note=70 velocity=127 time=1
note_on channel=0 note=70 velocity=0 time=29
note_on channel=0 note=67 velocity=127 time=1
note_on channel=0 note=67 velocity=0 time=29
note_on channel=0 note=65 velocity=127 time=1
note_on channel=0 note=65 velocity=0 time=29
note_on channel=0 note=64 velocity=127 time=1
note_on channel=0 note=64 velocity=0 time=29
note_on channel=0 note=67 velocity=127 time=1
note_on channel=0 note=67 velocity=0 time=29
note_on channel=0 note=64 velocity=127 time=1
note_on channel=0 note=64 velocity=0 time=29
note_on channel=0 note=62 velocity=127 time=1
note_on channel=0 note=62 velocity=0 time=29
note_on channel=0 note=60 velocity=127 time=1
note_on channel=0 note=60 velocity=0 time=29
note_on channel=0 note=62 velocity=127 time=1
note_on channel=0 note=62 velocity=0 time=29
note_on channel=0 note=64 velocity=127 time=1
note_on channel=0 note=64 velocity=0 time=29
note_on channel=0 note=65 velocity=127 time=1
note_on channel=0 note=65 velocity=0 time=29
note_on channel=0 note=67 velocity=127 time=1
note_on channel=0 note=67 velocity=0 time=59
note_on channel=0 note=64 velocity=127 time=1
note_on channel=0 note=64 velocity=0 time=59
note_on channel=0 note=65 velocity=127 time=1
note_on channel=0 note=65 velocity=0 time=119
note_on channel=0 note=63 velocity=127 time=991
note_on channel=0 note=63 velocity=0 time=29
note_on channel=0 note=62 velocity=127 time=1
note_on channel=0 note=62 velocity=0 time=29
note_on channel=0 note=60 velocity=127 time=1
note_on channel=0 note=60 velocity=0 time=29
note_on channel=0 note=58 velocity=127 time=1
note_on channel=0 note=58 velocity=0 time=59
note_on channel=0 note=65 velocity=127 time=91
note_on channel=0 note=65 velocity=0 time=29
note_on channel=0 note=64 velocity=127 time=1
note_on channel=0 note=64 velocity=0 time=29
note_on channel=0 note=62 velocity=127 time=1
note_on channel=0 note=62 velocity=0 time=29
note_on channel=0 note=60 velocity=127 time=1
note_on channel=0 note=60 velocity=0 time=59
note_on channel=0 note=67 velocity=127 time=91
note_on channel=0 note=67 velocity=0 time=29
note_on channel=0 note=65 velocity=127 time=1
note_on channel=0 note=65 velocity=0 time=29
note_on channel=0 note=64 velocity=127 time=1
note_on channel=0 note=64 velocity=0 time=29
note_on channel=0 note=62 velocity=127 time=1
note_on channel=0 note=62 velocity=0 time=59
note_on channel=0 note=69 velocity=127 time=91
note_on channel=0 note=69 velocity=0 time=29
note_on channel=0 note=67 velocity=127 time=1
note_on channel=0 note=67 velocity=0 time=29
note_on channel=0 note=65 velocity=127 time=1
note_on channel=0 note=65 velocity=0 time=29
note_on channel=0 note=64 velocity=127 time=1
note_on channel=0 note=64 velocity=0 time=59
note_on channel=0 note=70 velocity=127 time=91
note_on channel=0 note=70 velocity=0 time=29
note_on channel=0 note=69 velocity=127 time=1
note_on channel=0 note=69 velocity=0 time=29
note_on channel=0 note=67 velocity=127 time=1
note_on channel=0 note=67 velocity=0 time=29
note_on channel=0 note=65 velocity=127 time=1
note_on channel=0 note=65 velocity=0 time=59
note_on channel=0 note=72 velocity=127 time=61
note_on channel=0 note=72 velocity=0 time=59
note_on channel=0 note=65 velocity=127 time=61
note_on channel=0 note=65 velocity=0 time=59
note_on channel=0 note=72 velocity=127 time=61
note_on channel=0 note=72 velocity=0 time=59
note_on channel=0 note=64 velocity=127 time=61
note_on channel=0 note=64 velocity=0 time=59
note_on channel=0 note=72 velocity=127 time=61
note_on channel=0 note=72 velocity=0 time=59
note_on channel=0 note=64 velocity=127 time=61
note_on channel=0 note=64 velocity=0 time=59
note_on channel=0 note=72 velocity=127 time=61
note_on channel=0 note=72 velocity=0 time=59
note_on channel=0 note=65 velocity=127 time=61
note_on channel=0 note=65 velocity=0 time=59
note_on channel=0 note=72 velocity=127 time=61
note_on channel=0 note=72 velocity=0 time=59
note_on channel=0 note=65 velocity=127 time=61
note_on channel=0 note=65 velocity=0 time=59
note_on channel=0 note=72 velocity=127 time=61
note_on channel=0 note=72 velocity=0 time=59
note_on channel=0 note=64 velocity=127 time=61
note_on channel=0 note=64 velocity=0 time=59
note_on channel=0 note=72 velocity=127 time=61
note_on channel=0 note=72 velocity=0 time=59
note_on channel=0 note=64 velocity=127 time=61
note_on channel=0 note=64 velocity=0 time=59
note_on channel=0 note=72 velocity=127 time=61
note_on channel=0 note=72 velocity=0 time=59
note_on channel=0 note=62 velocity=127 time=61
note_on channel=0 note=62 velocity=0 time=59
note_on channel=0 note=72 velocity=127 time=91
note_on channel=0 note=72 velocity=0 time=29
note_on channel=0 note=71 velocity=127 time=1
note_on channel=0 note=71 velocity=0 time=29
note_on channel=0 note=69 velocity=127 time=1
note_on channel=0 note=69 velocity=0 time=29
note_on channel=0 note=71 velocity=127 time=1
note_on channel=0 note=71 velocity=0 time=29
note_on channel=0 note=67 velocity=127 time=1
note_on channel=0 note=67 velocity=0 time=29
note_on channel=0 note=71 velocity=127 time=1
note_on channel=0 note=71 velocity=0 time=29
note_on channel=0 note=74 velocity=127 time=1
note_on channel=0 note=74 velocity=0 time=29
note_on channel=0 note=71 velocity=127 time=121
note_on channel=0 note=71 velocity=0 time=29
note_on channel=0 note=67 velocity=127 time=1
note_on channel=0 note=67 velocity=0 time=29
note_on channel=0 note=71 velocity=127 time=1
note_on channel=0 note=71 velocity=0 time=29
note_on channel=0 note=74 velocity=127 time=1
note_on channel=0 note=74 velocity=0 time=29
note_on channel=0 note=70 velocity=127 time=121
note_on channel=0 note=70 velocity=0 time=29
note_on channel=0 note=67 velocity=127 time=1
note_on channel=0 note=67 velocity=0 time=29
note_on channel=0 note=70 velocity=127 time=1
note_on channel=0 note=70 velocity=0 time=29
note_on channel=0 note=72 velocity=127 time=1
note_on channel=0 note=72 velocity=0 time=29
note_on channel=0 note=70 velocity=127 time=121
note_on channel=0 note=70 velocity=0 time=29
note_on channel=0 note=67 velocity=127 time=1
note_on channel=0 note=67 velocity=0 time=29
note_on channel=0 note=70 velocity=127 time=1
note_on channel=0 note=70 velocity=0 time=29
note_on channel=0 note=72 velocity=127 time=1
note_on channel=0 note=72 velocity=0 time=29
note_on channel=0 note=69 velocity=127 time=121
note_on channel=0 note=69 velocity=0 time=29
note_on channel=0 note=65 velocity=127 time=1
note_on channel=0 note=65 velocity=0 time=29
note_on channel=0 note=69 velocity=127 time=1
note_on channel=0 note=69 velocity=0 time=29
note_on channel=0 note=72 velocity=127 time=1
note_on channel=0 note=72 velocity=0 time=29
note_on channel=0 note=69 velocity=127 time=121
note_on channel=0 note=69 velocity=0 time=29
note_on channel=0 note=65 velocity=127 time=1
note_on channel=0 note=65 velocity=0 time=29
note_on channel=0 note=69 velocity=127 time=1
note_on channel=0 note=69 velocity=0 time=29
note_on channel=0 note=72 velocity=127 time=1
note_on channel=0 note=72 velocity=0 time=29
note_on channel=0 note=67 velocity=127 time=121
note_on channel=0 note=67 velocity=0 time=29
note_on channel=0 note=64 velocity=127 time=1
note_on channel=0 note=64 velocity=0 time=29
note_on channel=0 note=67 velocity=127 time=1
note_on channel=0 note=67 velocity=0 time=29
note_on channel=0 note=70 velocity=127 time=1
note_on channel=0 note=70 velocity=0 time=29
note_on channel=0 note=67 velocity=127 time=121
note_on channel=0 note=67 velocity=0 time=29
note_on channel=0 note=64 velocity=127 time=1
note_on channel=0 note=64 velocity=0 time=29
note_on channel=0 note=67 velocity=127 time=1
note_on channel=0 note=67 velocity=0 time=29
note_on channel=0 note=70 velocity=127 time=1
note_on channel=0 note=70 velocity=0 time=29
note_on channel=0 note=70 velocity=127 time=14431
note_on channel=0 note=70 velocity=0 time=29
note_on channel=0 note=69 velocity=127 time=1
note_on channel=0 note=69 velocity=0 time=29
note_on channel=0 note=67 velocity=127 time=1
note_on channel=0 note=67 velocity=0 time=29
note_on channel=0 note=63 velocity=127 time=31
note_on channel=0 note=63 velocity=0 time=29
note_on channel=0 note=62 velocity=127 time=1
note_on channel=0 note=62 velocity=0 time=29
note_on channel=0 note=60 velocity=127 time=1
note_on channel=0 note=60 velocity=0 time=29
note_on channel=0 note=62 velocity=127 time=1
note_on channel=0 note=62 velocity=0 time=29
note_on channel=0 note=60 velocity=127 time=1
note_on channel=0 note=60 velocity=0 time=29
note_on channel=0 note=58 velocity=127 time=1
note_on channel=0 note=58 velocity=0 time=29
note_on channel=0 note=57 velocity=127 time=1
note_on channel=0 note=57 velocity=0 time=29
note_on channel=0 note=67 velocity=127 time=1
note_on channel=0 note=67 velocity=0 time=29
note_on channel=0 note=65 velocity=127 time=1
note_on channel=0 note=65 velocity=0 time=29
note_on channel=0 note=63 velocity=127 time=1
note_on channel=0 note=63 velocity=0 time=29
note_on channel=0 note=62 velocity=127 time=1
note_on channel=0 note=62 velocity=0 time=29
note_on channel=0 note=69 velocity=127 time=241
note_on channel=0 note=69 velocity=0 time=29
note_on channel=0 note=67 velocity=127 time=1
note_on channel=0 note=67 velocity=0 time=29
note_on channel=0 note=69 velocity=127 time=1
note_on channel=0 note=69 velocity=0 time=29
note_on channel=0 note=65 velocity=127 time=1
note_on channel=0 note=65 velocity=0 time=29
note_on channel=0 note=67 velocity=127 time=1
note_on channel=0 note=67 velocity=0 time=29
note_on channel=0 note=69 velocity=127 time=1
note_on channel=0 note=69 velocity=0 time=29
note_on channel=0 note=67 velocity=127 time=1
note_on channel=0 note=67 velocity=0 time=29
note_on channel=0 note=69 velocity=127 time=1
note_on channel=0 note=69 velocity=0 time=29
note_on channel=0 note=70 velocity=127 time=1
note_on channel=0 note=70 velocity=0 time=29
note_on channel=0 note=69 velocity=127 time=1
note_on channel=0 note=69 velocity=0 time=29
note_on channel=0 note=67 velocity=127 time=1
note_on channel=0 note=67 velocity=0 time=29
note_on channel=0 note=69 velocity=127 time=1
note_on channel=0 note=69 velocity=0 time=29
note_on channel=0 note=69 velocity=127 time=1
note_on channel=0 note=65 velocity=127 time=0
note_on channel=0 note=65 velocity=0 time=29
note_on channel=0 note=69 velocity=0 time=0
note_on channel=0 note=70 velocity=127 time=1
note_on channel=0 note=67 velocity=127 time=0
note_on channel=0 note=67 velocity=0 time=29
note_on channel=0 note=70 velocity=0 time=0
note_on channel=0 note=67 velocity=127 time=1
note_on channel=0 note=64 velocity=127 time=0
note_on channel=0 note=64 velocity=0 time=29
note_on channel=0 note=67 velocity=0 time=0
note_on channel=0 note=69 velocity=127 time=1
note_on channel=0 note=65 velocity=127 time=0
note_on channel=0 note=65 velocity=0 time=29
note_on channel=0 note=69 velocity=0 time=0
note_on channel=0 note=65 velocity=127 time=1
note_on channel=0 note=62 velocity=127 time=0
note_on channel=0 note=62 velocity=0 time=29
note_on channel=0 note=60 velocity=127 time=1
note_on channel=0 note=60 velocity=0 time=29
note_on channel=0 note=65 velocity=0 time=0
note_on channel=0 note=69 velocity=127 time=1
note_on channel=0 note=58 velocity=127 time=0
note_on channel=0 note=58 velocity=0 time=29
note_on channel=0 note=57 velocity=127 time=1
note_on channel=0 note=57 velocity=0 time=29
note_on channel=0 note=69 velocity=0 time=0
note_on channel=0 note=67 velocity=127 time=1
note_on channel=0 note=67 velocity=0 time=59
note_on channel=0 note=69 velocity=127 time=1
note_on channel=0 note=69 velocity=0 time=59
note_on channel=0 note=67 velocity=127 time=1
note_on channel=0 note=67 velocity=0 time=59
note_on channel=0 note=65 velocity=127 time=1
note_on channel=0 note=65 velocity=0 time=59
note_on channel=0 note=67 velocity=127 time=1
note_on channel=0 note=67 velocity=0 time=59
note_on channel=0 note=65 velocity=127 time=1
note_on channel=0 note=65 velocity=0 time=59
note_on channel=0 note=64 velocity=127 time=1
note_on channel=0 note=64 velocity=0 time=59
note_on channel=0 note=69 velocity=127 time=1
note_on channel=0 note=69 velocity=0 time=59
note_on channel=0 note=70 velocity=127 time=1
note_on channel=0 note=70 velocity=0 time=59
note_on channel=0 note=69 velocity=127 time=1
note_on channel=0 note=69 velocity=0 time=59
note_on channel=0 note=67 velocity=127 time=1
note_on channel=0 note=67 velocity=0 time=59
note_on channel=0 note=65 velocity=127 time=1
note_on channel=0 note=65 velocity=0 time=59
note_on channel=0 note=69 velocity=127 time=1
note_on channel=0 note=69 velocity=0 time=59
note_on channel=0 note=76 velocity=127 time=1
note_on channel=0 note=76 velocity=0 time=59
note_on channel=0 note=74 velocity=127 time=1
note_on channel=0 note=74 velocity=0 time=59
note_on channel=0 note=69 velocity=127 time=1
note_on channel=0 note=69 velocity=0 time=59
note_on channel=0 note=67 velocity=127 time=1
note_on channel=0 note=67 velocity=0 time=59
note_on channel=0 note=67 velocity=127 time=1
note_on channel=0 note=67 velocity=0 time=59
note_on channel=0 note=69 velocity=127 time=1
note_on channel=0 note=69 velocity=0 time=59
note_on channel=0 note=65 velocity=127 time=1
note_on channel=0 note=65 velocity=0 time=59
